<?xml version="1.0" encoding="UTF-8" standalone="no"?>
<!DOCTYPE svg PUBLIC "-//W3C//DTD SVG 1.1//EN"
 "http://www.w3.org/Graphics/SVG/1.1/DTD/svg11.dtd">
<!-- Generated by graphviz version 2.43.0 (0)
 -->
<!-- Title: DynExpInstr::OutputPort Pages: 1 -->
<svg width="356pt" height="420pt"
 viewBox="0.00 0.00 355.50 420.00" xmlns="http://www.w3.org/2000/svg" xmlns:xlink="http://www.w3.org/1999/xlink">
<g id="graph0" class="graph" transform="scale(1 1) rotate(0) translate(4 416)">
<title>DynExpInstr::OutputPort</title>
<polygon fill="white" stroke="transparent" points="-4,4 -4,-416 351.5,-416 351.5,4 -4,4"/>
<!-- Node1 -->
<g id="node1" class="node">
<title>Node1</title>
<g id="a_node1"><a xlink:title="Generic output port meta instrument based on the data stream and function generator meta instruments ...">
<polygon fill="#bfbfbf" stroke="black" points="106.5,-112.5 106.5,-131.5 240.5,-131.5 240.5,-112.5 106.5,-112.5"/>
<text text-anchor="middle" x="173.5" y="-119.5" font-family="Helvetica,sans-Serif" font-size="10.00">DynExpInstr::OutputPort</text>
</a>
</g>
</g>
<!-- Node8 -->
<g id="node8" class="node">
<title>Node8</title>
<g id="a_node8"><a xlink:href="classDynExpInstr_1_1AnalogOut.html" target="_top" xlink:title="Meta instrument for a single analog output port based on the data stream, function generator,...">
<polygon fill="white" stroke="black" points="32,-56.5 32,-75.5 165,-75.5 165,-56.5 32,-56.5"/>
<text text-anchor="middle" x="98.5" y="-63.5" font-family="Helvetica,sans-Serif" font-size="10.00">DynExpInstr::AnalogOut</text>
</a>
</g>
</g>
<!-- Node1&#45;&gt;Node8 -->
<g id="edge7" class="edge">
<title>Node1&#45;&gt;Node8</title>
<path fill="none" stroke="midnightblue" d="M153.19,-106.38C139.64,-96.62 122.26,-84.11 110.77,-75.83"/>
<polygon fill="midnightblue" stroke="midnightblue" points="151.29,-109.32 161.45,-112.32 155.38,-103.64 151.29,-109.32"/>
</g>
<!-- Node10 -->
<g id="node10" class="node">
<title>Node10</title>
<g id="a_node10"><a xlink:href="classDynExpInstr_1_1DigitalOut.html" target="_top" xlink:title="Meta instrument for a single digital output port based on the data stream, function generator,...">
<polygon fill="white" stroke="black" points="191,-56.5 191,-75.5 322,-75.5 322,-56.5 191,-56.5"/>
<text text-anchor="middle" x="256.5" y="-63.5" font-family="Helvetica,sans-Serif" font-size="10.00">DynExpInstr::DigitalOut</text>
</a>
</g>
</g>
<!-- Node1&#45;&gt;Node10 -->
<g id="edge9" class="edge">
<title>Node1&#45;&gt;Node10</title>
<path fill="none" stroke="midnightblue" d="M195.6,-106.62C210.76,-96.76 230.38,-83.99 243.2,-75.65"/>
<polygon fill="midnightblue" stroke="midnightblue" points="193.31,-103.94 186.84,-112.32 197.13,-109.8 193.31,-103.94"/>
</g>
<!-- Node2 -->
<g id="node2" class="node">
<title>Node2</title>
<g id="a_node2"><a xlink:href="classDynExpInstr_1_1FunctionGenerator.html" target="_top" xlink:title="Function generator meta instrument based on the data stream meta instrument to generate waveforms by ...">
<polygon fill="white" stroke="black" points="87.5,-168.5 87.5,-187.5 259.5,-187.5 259.5,-168.5 87.5,-168.5"/>
<text text-anchor="middle" x="173.5" y="-175.5" font-family="Helvetica,sans-Serif" font-size="10.00">DynExpInstr::FunctionGenerator</text>
</a>
</g>
</g>
<!-- Node2&#45;&gt;Node1 -->
<g id="edge1" class="edge">
<title>Node2&#45;&gt;Node1</title>
<path fill="none" stroke="midnightblue" d="M173.5,-157.8C173.5,-148.91 173.5,-138.78 173.5,-131.75"/>
<polygon fill="midnightblue" stroke="midnightblue" points="170,-158.08 173.5,-168.08 177,-158.08 170,-158.08"/>
</g>
<!-- Node3 -->
<g id="node3" class="node">
<title>Node3</title>
<g id="a_node3"><a xlink:href="classDynExpInstr_1_1DataStreamInstrument.html" target="_top" xlink:title="Implementation of the data stream meta instrument, which is a base class for all instruments reading/...">
<polygon fill="white" stroke="black" points="76.5,-224.5 76.5,-243.5 270.5,-243.5 270.5,-224.5 76.5,-224.5"/>
<text text-anchor="middle" x="173.5" y="-231.5" font-family="Helvetica,sans-Serif" font-size="10.00">DynExpInstr::DataStreamInstrument</text>
</a>
</g>
</g>
<!-- Node3&#45;&gt;Node2 -->
<g id="edge2" class="edge">
<title>Node3&#45;&gt;Node2</title>
<path fill="none" stroke="midnightblue" d="M173.5,-213.8C173.5,-204.91 173.5,-194.78 173.5,-187.75"/>
<polygon fill="midnightblue" stroke="midnightblue" points="170,-214.08 173.5,-224.08 177,-214.08 170,-214.08"/>
</g>
<!-- Node4 -->
<g id="node4" class="node">
<title>Node4</title>
<g id="a_node4"><a xlink:href="classDynExp_1_1InstrumentBase.html" target="_top" xlink:title="Base class for instruments. Instruments comprise virtual devices (meta instruments) and physial devic...">
<polygon fill="white" stroke="black" points="105,-280.5 105,-299.5 242,-299.5 242,-280.5 105,-280.5"/>
<text text-anchor="middle" x="173.5" y="-287.5" font-family="Helvetica,sans-Serif" font-size="10.00">DynExp::InstrumentBase</text>
</a>
</g>
</g>
<!-- Node4&#45;&gt;Node3 -->
<g id="edge3" class="edge">
<title>Node4&#45;&gt;Node3</title>
<path fill="none" stroke="midnightblue" d="M173.5,-269.8C173.5,-260.91 173.5,-250.78 173.5,-243.75"/>
<polygon fill="midnightblue" stroke="midnightblue" points="170,-270.08 173.5,-280.08 177,-270.08 170,-270.08"/>
</g>
<!-- Node5 -->
<g id="node5" class="node">
<title>Node5</title>
<g id="a_node5"><a xlink:href="classDynExp_1_1RunnableObject.html" target="_top" xlink:title="Defines an Object which possesses a thread it runs in. The RunnableObject can be started and stopped ...">
<polygon fill="white" stroke="black" points="105,-336.5 105,-355.5 242,-355.5 242,-336.5 105,-336.5"/>
<text text-anchor="middle" x="173.5" y="-343.5" font-family="Helvetica,sans-Serif" font-size="10.00">DynExp::RunnableObject</text>
</a>
</g>
</g>
<!-- Node5&#45;&gt;Node4 -->
<g id="edge4" class="edge">
<title>Node5&#45;&gt;Node4</title>
<path fill="none" stroke="midnightblue" d="M173.5,-325.8C173.5,-316.91 173.5,-306.78 173.5,-299.75"/>
<polygon fill="midnightblue" stroke="midnightblue" points="170,-326.08 173.5,-336.08 177,-326.08 170,-326.08"/>
</g>
<!-- Node6 -->
<g id="node6" class="node">
<title>Node6</title>
<g id="a_node6"><a xlink:href="classUtil_1_1INonCopyable.html" target="_top" xlink:title="Interface to delete copy constructor and copy assignment operator and thus make derived classes non&#45;c...">
<polygon fill="white" stroke="black" points="60.5,-392.5 60.5,-411.5 168.5,-411.5 168.5,-392.5 60.5,-392.5"/>
<text text-anchor="middle" x="114.5" y="-399.5" font-family="Helvetica,sans-Serif" font-size="10.00">Util::INonCopyable</text>
</a>
</g>
</g>
<!-- Node6&#45;&gt;Node5 -->
<g id="edge5" class="edge">
<title>Node6&#45;&gt;Node5</title>
<path fill="none" stroke="midnightblue" d="M131.39,-385.54C141.91,-375.91 155.07,-363.87 163.85,-355.83"/>
<polygon fill="midnightblue" stroke="midnightblue" points="128.99,-382.99 123.98,-392.32 133.72,-388.15 128.99,-382.99"/>
</g>
<!-- Node7 -->
<g id="node7" class="node">
<title>Node7</title>
<g id="a_node7"><a xlink:href="classDynExp_1_1Object.html" target="_top" xlink:title="Base class for all DynExp Objects like hardware adapters (DynExp::HardwareAdapterBase),...">
<polygon fill="white" stroke="black" points="186.5,-392.5 186.5,-411.5 278.5,-411.5 278.5,-392.5 186.5,-392.5"/>
<text text-anchor="middle" x="232.5" y="-399.5" font-family="Helvetica,sans-Serif" font-size="10.00">DynExp::Object</text>
</a>
</g>
</g>
<!-- Node7&#45;&gt;Node5 -->
<g id="edge6" class="edge">
<title>Node7&#45;&gt;Node5</title>
<path fill="none" stroke="midnightblue" d="M215.61,-385.54C205.09,-375.91 191.93,-363.87 183.15,-355.83"/>
<polygon fill="midnightblue" stroke="midnightblue" points="213.28,-388.15 223.02,-392.32 218.01,-382.99 213.28,-388.15"/>
</g>
<!-- Node9 -->
<g id="node9" class="node">
<title>Node9</title>
<g id="a_node9"><a xlink:href="classDynExpInstr_1_1NIDAQAnalogOut.html" target="_top" xlink:title=" ">
<polygon fill="white" stroke="black" points="0,-0.5 0,-19.5 165,-19.5 165,-0.5 0,-0.5"/>
<text text-anchor="middle" x="82.5" y="-7.5" font-family="Helvetica,sans-Serif" font-size="10.00">DynExpInstr::NIDAQAnalogOut</text>
</a>
</g>
</g>
<!-- Node8&#45;&gt;Node9 -->
<g id="edge8" class="edge">
<title>Node8&#45;&gt;Node9</title>
<path fill="none" stroke="midnightblue" d="M92.99,-46.4C90.31,-37.36 87.22,-26.94 85.09,-19.75"/>
<polygon fill="midnightblue" stroke="midnightblue" points="89.66,-47.49 95.86,-56.08 96.37,-45.5 89.66,-47.49"/>
</g>
<!-- Node11 -->
<g id="node11" class="node">
<title>Node11</title>
<g id="a_node11"><a xlink:href="classDynExpInstr_1_1NIDAQDigitalOut.html" target="_top" xlink:title=" ">
<polygon fill="white" stroke="black" points="183.5,-0.5 183.5,-19.5 347.5,-19.5 347.5,-0.5 183.5,-0.5"/>
<text text-anchor="middle" x="265.5" y="-7.5" font-family="Helvetica,sans-Serif" font-size="10.00">DynExpInstr::NIDAQDigitalOut</text>
</a>
</g>
</g>
<!-- Node10&#45;&gt;Node11 -->
<g id="edge10" class="edge">
<title>Node10&#45;&gt;Node11</title>
<path fill="none" stroke="midnightblue" d="M259.65,-46.1C261.14,-37.14 262.86,-26.86 264.04,-19.75"/>
<polygon fill="midnightblue" stroke="midnightblue" points="256.18,-45.64 257.99,-56.08 263.08,-46.79 256.18,-45.64"/>
</g>
</g>
</svg>
