<?xml version="1.0" encoding="UTF-8" standalone="no"?>
<!DOCTYPE svg PUBLIC "-//W3C//DTD SVG 1.1//EN"
 "http://www.w3.org/Graphics/SVG/1.1/DTD/svg11.dtd">
<!-- Generated by graphviz version 2.43.0 (0)
 -->
<!-- Title: Util::DigitalOnlyItemDelegate Pages: 1 -->
<svg width="178pt" height="137pt"
 viewBox="0.00 0.00 178.00 137.00" xmlns="http://www.w3.org/2000/svg" xmlns:xlink="http://www.w3.org/1999/xlink">
<g id="graph0" class="graph" transform="scale(1 1) rotate(0) translate(4 133)">
<title>Util::DigitalOnlyItemDelegate</title>
<!-- Node1 -->
<g id="Node000001" class="node">
<title>Node1</title>
<g id="a_Node000001"><a xlink:title="Implements a QItemDelegate which forces e.g. a QTableWidgetItem&#39;s content to be boolean (0 or 1).">
<polygon fill="#999999" stroke="#666666" points="165.5,-19 4.5,-19 4.5,0 165.5,0 165.5,-19"/>
<text text-anchor="middle" x="85" y="-7" font-family="Helvetica,sans-Serif" font-size="10.00">Util::DigitalOnlyItemDelegate</text>
</a>
</g>
</g>
<!-- Node2 -->
<g id="Node000002" class="node">
<title>Node2</title>
<g id="a_Node000002"><a xlink:href="classUtil_1_1NumericOnlyItemDelegate.html" target="_top" xlink:title="Implements a QItemDelegate which forces e.g. a QTableWidgetItem&#39;s content to be numeric (double&#45;preci...">
<polygon fill="white" stroke="#666666" points="170,-74 0,-74 0,-55 170,-55 170,-74"/>
<text text-anchor="middle" x="85" y="-62" font-family="Helvetica,sans-Serif" font-size="10.00">Util::NumericOnlyItemDelegate</text>
</a>
</g>
</g>
<!-- Node2&#45;&gt;Node1 -->
<g id="edge1_Node000001_Node000002" class="edge">
<title>Node2&#45;&gt;Node1</title>
<g id="a_edge1_Node000001_Node000002"><a xlink:title=" ">
<path fill="none" stroke="#63b8ff" d="M85,-44.66C85,-35.93 85,-25.99 85,-19.09"/>
<polygon fill="#63b8ff" stroke="#63b8ff" points="81.5,-44.75 85,-54.75 88.5,-44.75 81.5,-44.75"/>
</a>
</g>
</g>
<!-- Node3 -->
<g id="Node000003" class="node">
<title>Node3</title>
<g id="a_Node000003"><a xlink:title=" ">
<polygon fill="white" stroke="#666666" points="130.5,-129 39.5,-129 39.5,-110 130.5,-110 130.5,-129"/>
<text text-anchor="middle" x="85" y="-117" font-family="Helvetica,sans-Serif" font-size="10.00">QItemDelegate</text>
</a>
</g>
</g>
<!-- Node3&#45;&gt;Node2 -->
<g id="edge2_Node000002_Node000003" class="edge">
<title>Node3&#45;&gt;Node2</title>
<g id="a_edge2_Node000002_Node000003"><a xlink:title=" ">
<path fill="none" stroke="#63b8ff" d="M85,-99.66C85,-90.93 85,-80.99 85,-74.09"/>
<polygon fill="#63b8ff" stroke="#63b8ff" points="81.5,-99.75 85,-109.75 88.5,-99.75 81.5,-99.75"/>
</a>
</g>
</g>
</g>
</svg>
