<?xml version="1.0" encoding="UTF-8" standalone="no"?>
<!DOCTYPE svg PUBLIC "-//W3C//DTD SVG 1.1//EN"
 "http://www.w3.org/Graphics/SVG/1.1/DTD/svg11.dtd">
<!-- Generated by graphviz version 2.43.0 (0)
 -->
<!-- Title: DynExpInstr::QutoolsQuTAG Pages: 1 -->
<svg width="226pt" height="302pt"
 viewBox="0.00 0.00 226.00 302.00" xmlns="http://www.w3.org/2000/svg" xmlns:xlink="http://www.w3.org/1999/xlink">
<g id="graph0" class="graph" transform="scale(1 1) rotate(0) translate(4 298)">
<title>DynExpInstr::QutoolsQuTAG</title>
<!-- Node1 -->
<g id="Node000001" class="node">
<title>Node1</title>
<g id="a_Node000001"><a xlink:title=" ">
<polygon fill="#999999" stroke="#666666" points="189,-19 37,-19 37,0 189,0 189,-19"/>
<text text-anchor="middle" x="113" y="-7" font-family="Helvetica,sans-Serif" font-size="10.00">DynExpInstr::QutoolsQuTAG</text>
</a>
</g>
</g>
<!-- Node2 -->
<g id="Node000002" class="node">
<title>Node2</title>
<g id="a_Node000002"><a xlink:href="classDynExpInstr_1_1TimeTagger.html" target="_top" xlink:title="Meta instrument for a time tagging device to assign timestamps to (e.g. photon) detection events base...">
<polygon fill="white" stroke="#666666" points="182.5,-74 43.5,-74 43.5,-55 182.5,-55 182.5,-74"/>
<text text-anchor="middle" x="113" y="-62" font-family="Helvetica,sans-Serif" font-size="10.00">DynExpInstr::TimeTagger</text>
</a>
</g>
</g>
<!-- Node2&#45;&gt;Node1 -->
<g id="edge1_Node000001_Node000002" class="edge">
<title>Node2&#45;&gt;Node1</title>
<g id="a_edge1_Node000001_Node000002"><a xlink:title=" ">
<path fill="none" stroke="#63b8ff" d="M113,-44.66C113,-35.93 113,-25.99 113,-19.09"/>
<polygon fill="#63b8ff" stroke="#63b8ff" points="109.5,-44.75 113,-54.75 116.5,-44.75 109.5,-44.75"/>
</a>
</g>
</g>
<!-- Node3 -->
<g id="Node000003" class="node">
<title>Node3</title>
<g id="a_Node000003"><a xlink:href="classDynExpInstr_1_1DataStreamInstrument.html" target="_top" xlink:title="Implementation of the data stream meta instrument, which is a base class for all instruments reading/...">
<polygon fill="white" stroke="#666666" points="210,-129 16,-129 16,-110 210,-110 210,-129"/>
<text text-anchor="middle" x="113" y="-117" font-family="Helvetica,sans-Serif" font-size="10.00">DynExpInstr::DataStreamInstrument</text>
</a>
</g>
</g>
<!-- Node3&#45;&gt;Node2 -->
<g id="edge2_Node000002_Node000003" class="edge">
<title>Node3&#45;&gt;Node2</title>
<g id="a_edge2_Node000002_Node000003"><a xlink:title=" ">
<path fill="none" stroke="#63b8ff" d="M113,-99.66C113,-90.93 113,-80.99 113,-74.09"/>
<polygon fill="#63b8ff" stroke="#63b8ff" points="109.5,-99.75 113,-109.75 116.5,-99.75 109.5,-99.75"/>
</a>
</g>
</g>
<!-- Node4 -->
<g id="Node000004" class="node">
<title>Node4</title>
<g id="a_Node000004"><a xlink:href="classDynExp_1_1InstrumentBase.html" target="_top" xlink:title="Base class for instruments. Instruments comprise virtual devices (meta instruments) and physial devic...">
<polygon fill="white" stroke="#666666" points="181.5,-184 44.5,-184 44.5,-165 181.5,-165 181.5,-184"/>
<text text-anchor="middle" x="113" y="-172" font-family="Helvetica,sans-Serif" font-size="10.00">DynExp::InstrumentBase</text>
</a>
</g>
</g>
<!-- Node4&#45;&gt;Node3 -->
<g id="edge3_Node000003_Node000004" class="edge">
<title>Node4&#45;&gt;Node3</title>
<g id="a_edge3_Node000003_Node000004"><a xlink:title=" ">
<path fill="none" stroke="#63b8ff" d="M113,-154.66C113,-145.93 113,-135.99 113,-129.09"/>
<polygon fill="#63b8ff" stroke="#63b8ff" points="109.5,-154.75 113,-164.75 116.5,-154.75 109.5,-154.75"/>
</a>
</g>
</g>
<!-- Node5 -->
<g id="Node000005" class="node">
<title>Node5</title>
<g id="a_Node000005"><a xlink:href="classDynExp_1_1RunnableObject.html" target="_top" xlink:title="Defines an Object which possesses a thread it runs in. The RunnableObject can be started and stopped ...">
<polygon fill="white" stroke="#666666" points="181.5,-239 44.5,-239 44.5,-220 181.5,-220 181.5,-239"/>
<text text-anchor="middle" x="113" y="-227" font-family="Helvetica,sans-Serif" font-size="10.00">DynExp::RunnableObject</text>
</a>
</g>
</g>
<!-- Node5&#45;&gt;Node4 -->
<g id="edge4_Node000004_Node000005" class="edge">
<title>Node5&#45;&gt;Node4</title>
<g id="a_edge4_Node000004_Node000005"><a xlink:title=" ">
<path fill="none" stroke="#63b8ff" d="M113,-209.66C113,-200.93 113,-190.99 113,-184.09"/>
<polygon fill="#63b8ff" stroke="#63b8ff" points="109.5,-209.75 113,-219.75 116.5,-209.75 109.5,-209.75"/>
</a>
</g>
</g>
<!-- Node6 -->
<g id="Node000006" class="node">
<title>Node6</title>
<g id="a_Node000006"><a xlink:href="classUtil_1_1INonCopyable.html" target="_top" xlink:title="Interface to delete copy constructor and copy assignment operator and thus make derived classes non&#45;c...">
<polygon fill="white" stroke="#666666" points="108,-294 0,-294 0,-275 108,-275 108,-294"/>
<text text-anchor="middle" x="54" y="-282" font-family="Helvetica,sans-Serif" font-size="10.00">Util::INonCopyable</text>
</a>
</g>
</g>
<!-- Node6&#45;&gt;Node5 -->
<g id="edge5_Node000005_Node000006" class="edge">
<title>Node6&#45;&gt;Node5</title>
<g id="a_edge5_Node000005_Node000006"><a xlink:title=" ">
<path fill="none" stroke="#63b8ff" d="M71.2,-268.04C81.67,-258.64 94.65,-246.98 103.35,-239.17"/>
<polygon fill="#63b8ff" stroke="#63b8ff" points="68.58,-265.7 63.48,-274.98 73.26,-270.91 68.58,-265.7"/>
</a>
</g>
</g>
<!-- Node7 -->
<g id="Node000007" class="node">
<title>Node7</title>
<g id="a_Node000007"><a xlink:href="classDynExp_1_1Object.html" target="_top" xlink:title="Base class for all DynExp Objects like hardware adapters (DynExp::HardwareAdapterBase),...">
<polygon fill="white" stroke="#666666" points="218,-294 126,-294 126,-275 218,-275 218,-294"/>
<text text-anchor="middle" x="172" y="-282" font-family="Helvetica,sans-Serif" font-size="10.00">DynExp::Object</text>
</a>
</g>
</g>
<!-- Node7&#45;&gt;Node5 -->
<g id="edge6_Node000005_Node000007" class="edge">
<title>Node7&#45;&gt;Node5</title>
<g id="a_edge6_Node000005_Node000007"><a xlink:title=" ">
<path fill="none" stroke="#63b8ff" d="M154.8,-268.04C144.33,-258.64 131.35,-246.98 122.65,-239.17"/>
<polygon fill="#63b8ff" stroke="#63b8ff" points="152.74,-270.91 162.52,-274.98 157.42,-265.7 152.74,-270.91"/>
</a>
</g>
</g>
</g>
</svg>
