<?xml version="1.0" encoding="UTF-8" standalone="no"?>
<!DOCTYPE svg PUBLIC "-//W3C//DTD SVG 1.1//EN"
 "http://www.w3.org/Graphics/SVG/1.1/DTD/svg11.dtd">
<!-- Generated by graphviz version 2.43.0 (0)
 -->
<!-- Title: DynExp::CommonResourceManagerBase Pages: 1 -->
<svg width="656pt" height="186pt"
 viewBox="0.00 0.00 656.00 186.00" xmlns="http://www.w3.org/2000/svg" xmlns:xlink="http://www.w3.org/1999/xlink">
<g id="graph0" class="graph" transform="scale(1 1) rotate(0) translate(4 182)">
<title>DynExp::CommonResourceManagerBase</title>
<polygon fill="white" stroke="transparent" points="-4,4 -4,-182 652,-182 652,4 -4,4"/>
<!-- Node1 -->
<g id="node1" class="node">
<title>Node1</title>
<g id="a_node1"><a xlink:title="Common base class for all derived ResourceManagerBase classes. Logical const&#45;ness: Only const functio...">
<polygon fill="#bfbfbf" stroke="black" points="0,-79 0,-98 216,-98 216,-79 0,-79"/>
<text text-anchor="middle" x="108" y="-86" font-family="Helvetica,sans-Serif" font-size="10.00">DynExp::CommonResourceManagerBase</text>
</a>
</g>
</g>
<!-- Node2 -->
<g id="node2" class="node">
<title>Node2</title>
<g id="a_node2"><a xlink:href="classDynExp_1_1ResourceManagerBase.html" target="_top" xlink:title=" ">
<polygon fill="white" stroke="black" points="252,-147.5 252,-177.5 424,-177.5 424,-147.5 252,-147.5"/>
<text text-anchor="start" x="260" y="-165.5" font-family="Helvetica,sans-Serif" font-size="10.00">DynExp::ResourceManagerBase</text>
<text text-anchor="middle" x="338" y="-154.5" font-family="Helvetica,sans-Serif" font-size="10.00">&lt; ModulePtrType &gt;</text>
</a>
</g>
</g>
<!-- Node1&#45;&gt;Node2 -->
<g id="edge1" class="edge">
<title>Node1&#45;&gt;Node2</title>
<path fill="none" stroke="midnightblue" d="M144.29,-101.52C173.11,-111.98 214.98,-126.81 252,-138.5 261.65,-141.55 271.98,-144.62 281.98,-147.5"/>
<polygon fill="midnightblue" stroke="midnightblue" points="145.27,-98.15 134.67,-98.01 142.87,-104.72 145.27,-98.15"/>
</g>
<!-- Node4 -->
<g id="node4" class="node">
<title>Node4</title>
<g id="a_node4"><a xlink:href="classDynExp_1_1ResourceManagerBase.html" target="_top" xlink:title=" ">
<polygon fill="white" stroke="black" points="252,-98.5 252,-128.5 424,-128.5 424,-98.5 252,-98.5"/>
<text text-anchor="start" x="260" y="-116.5" font-family="Helvetica,sans-Serif" font-size="10.00">DynExp::ResourceManagerBase</text>
<text text-anchor="middle" x="338" y="-105.5" font-family="Helvetica,sans-Serif" font-size="10.00">&lt; InstrumentPtrType &gt;</text>
</a>
</g>
</g>
<!-- Node1&#45;&gt;Node4 -->
<g id="edge3" class="edge">
<title>Node1&#45;&gt;Node4</title>
<path fill="none" stroke="midnightblue" d="M205.84,-99.12C221.15,-100.8 236.88,-102.52 251.9,-104.17"/>
<polygon fill="midnightblue" stroke="midnightblue" points="206.17,-95.63 195.85,-98.02 205.41,-102.59 206.17,-95.63"/>
</g>
<!-- Node6 -->
<g id="node6" class="node">
<title>Node6</title>
<g id="a_node6"><a xlink:href="classDynExp_1_1ResourceManagerBase.html" target="_top" xlink:title=" ">
<polygon fill="white" stroke="black" points="252,-49.5 252,-79.5 424,-79.5 424,-49.5 252,-49.5"/>
<text text-anchor="start" x="260" y="-67.5" font-family="Helvetica,sans-Serif" font-size="10.00">DynExp::ResourceManagerBase</text>
<text text-anchor="middle" x="338" y="-56.5" font-family="Helvetica,sans-Serif" font-size="10.00">&lt; HardwareAdapterPtrType &gt;</text>
</a>
</g>
</g>
<!-- Node1&#45;&gt;Node6 -->
<g id="edge5" class="edge">
<title>Node1&#45;&gt;Node6</title>
<path fill="none" stroke="midnightblue" d="M209.64,-77.91C223.73,-76.42 238.1,-74.91 251.87,-73.46"/>
<polygon fill="midnightblue" stroke="midnightblue" points="209.02,-74.45 199.44,-78.98 209.75,-81.41 209.02,-74.45"/>
</g>
<!-- Node8 -->
<g id="node8" class="node">
<title>Node8</title>
<g id="a_node8"><a xlink:href="classDynExp_1_1ResourceManagerBase.html" target="_top" xlink:title="Typed resource manager base class deriving from class CommonResourceManagerBase.">
<polygon fill="white" stroke="black" points="252,-0.5 252,-30.5 424,-30.5 424,-0.5 252,-0.5"/>
<text text-anchor="start" x="260" y="-18.5" font-family="Helvetica,sans-Serif" font-size="10.00">DynExp::ResourceManagerBase</text>
<text text-anchor="middle" x="338" y="-7.5" font-family="Helvetica,sans-Serif" font-size="10.00">&lt; PointerType &gt;</text>
</a>
</g>
</g>
<!-- Node1&#45;&gt;Node8 -->
<g id="edge7" class="edge">
<title>Node1&#45;&gt;Node8</title>
<path fill="none" stroke="midnightblue" d="M145.96,-75.67C174.76,-65.77 215.8,-51.89 252,-40.5 262.56,-37.17 273.91,-33.74 284.76,-30.53"/>
<polygon fill="midnightblue" stroke="midnightblue" points="144.63,-72.42 136.31,-78.99 146.91,-79.04 144.63,-72.42"/>
</g>
<!-- Node3 -->
<g id="node3" class="node">
<title>Node3</title>
<g id="a_node3"><a xlink:href="classDynExp_1_1ModuleManager.html" target="_top" xlink:title="Resource manager for ModuleBase resources deriving from a specialized ResourceManagerBase class.">
<polygon fill="white" stroke="black" points="484.5,-153 484.5,-172 623.5,-172 623.5,-153 484.5,-153"/>
<text text-anchor="middle" x="554" y="-160" font-family="Helvetica,sans-Serif" font-size="10.00">DynExp::ModuleManager</text>
</a>
</g>
</g>
<!-- Node2&#45;&gt;Node3 -->
<g id="edge2" class="edge">
<title>Node2&#45;&gt;Node3</title>
<path fill="none" stroke="midnightblue" d="M434.55,-162.5C451.28,-162.5 468.4,-162.5 484.22,-162.5"/>
<polygon fill="midnightblue" stroke="midnightblue" points="434.19,-159 424.19,-162.5 434.19,-166 434.19,-159"/>
</g>
<!-- Node5 -->
<g id="node5" class="node">
<title>Node5</title>
<g id="a_node5"><a xlink:href="classDynExp_1_1InstrumentManager.html" target="_top" xlink:title="Resource manager for InstrumentBase resources deriving from a specialized ResourceManagerBase class.">
<polygon fill="white" stroke="black" points="476,-104 476,-123 632,-123 632,-104 476,-104"/>
<text text-anchor="middle" x="554" y="-111" font-family="Helvetica,sans-Serif" font-size="10.00">DynExp::InstrumentManager</text>
</a>
</g>
</g>
<!-- Node4&#45;&gt;Node5 -->
<g id="edge4" class="edge">
<title>Node4&#45;&gt;Node5</title>
<path fill="none" stroke="midnightblue" d="M434.24,-113.5C448.12,-113.5 462.26,-113.5 475.73,-113.5"/>
<polygon fill="midnightblue" stroke="midnightblue" points="434.19,-110 424.19,-113.5 434.19,-117 434.19,-110"/>
</g>
<!-- Node7 -->
<g id="node7" class="node">
<title>Node7</title>
<g id="a_node7"><a xlink:href="classDynExp_1_1HardwareAdapterManager.html" target="_top" xlink:title="Resource manager for HardwareAdapterBase resources deriving from a specialized ResourceManagerBase cl...">
<polygon fill="white" stroke="black" points="460,-55 460,-74 648,-74 648,-55 460,-55"/>
<text text-anchor="middle" x="554" y="-62" font-family="Helvetica,sans-Serif" font-size="10.00">DynExp::HardwareAdapterManager</text>
</a>
</g>
</g>
<!-- Node6&#45;&gt;Node7 -->
<g id="edge6" class="edge">
<title>Node6&#45;&gt;Node7</title>
<path fill="none" stroke="midnightblue" d="M434.38,-64.5C442.78,-64.5 451.27,-64.5 459.66,-64.5"/>
<polygon fill="midnightblue" stroke="midnightblue" points="434.19,-61 424.19,-64.5 434.19,-68 434.19,-61"/>
</g>
</g>
</svg>
