<?xml version="1.0" encoding="UTF-8" standalone="no"?>
<!DOCTYPE svg PUBLIC "-//W3C//DTD SVG 1.1//EN"
 "http://www.w3.org/Graphics/SVG/1.1/DTD/svg11.dtd">
<!-- Generated by graphviz version 2.43.0 (0)
 -->
<!-- Title: DynExpInstr::NIDAQAnalogOutData Pages: 1 -->
<svg width="225pt" height="434pt"
 viewBox="0.00 0.00 225.00 434.00" xmlns="http://www.w3.org/2000/svg" xmlns:xlink="http://www.w3.org/1999/xlink">
<g id="graph0" class="graph" transform="scale(1 1) rotate(0) translate(4 430)">
<title>DynExpInstr::NIDAQAnalogOutData</title>
<!-- Node1 -->
<g id="Node000001" class="node">
<title>Node1</title>
<g id="a_Node000001"><a xlink:title=" ">
<polygon fill="#999999" stroke="#666666" points="182.5,-30 34.5,-30 34.5,0 182.5,0 182.5,-30"/>
<text text-anchor="start" x="42.5" y="-18" font-family="Helvetica,sans-Serif" font-size="10.00">DynExpInstr::NIDAQAnalog</text>
<text text-anchor="middle" x="108.5" y="-7" font-family="Helvetica,sans-Serif" font-size="10.00">OutData</text>
</a>
</g>
</g>
<!-- Node2 -->
<g id="Node000002" class="node">
<title>Node2</title>
<g id="a_Node000002"><a xlink:href="classDynExpInstr_1_1AnalogOutData.html" target="_top" xlink:title="Data class for AnalogOut.">
<polygon fill="white" stroke="#666666" points="186.5,-85 30.5,-85 30.5,-66 186.5,-66 186.5,-85"/>
<text text-anchor="middle" x="108.5" y="-73" font-family="Helvetica,sans-Serif" font-size="10.00">DynExpInstr::AnalogOutData</text>
</a>
</g>
</g>
<!-- Node2&#45;&gt;Node1 -->
<g id="edge1_Node000001_Node000002" class="edge">
<title>Node2&#45;&gt;Node1</title>
<g id="a_edge1_Node000001_Node000002"><a xlink:title=" ">
<path fill="none" stroke="#63b8ff" d="M108.5,-55.65C108.5,-47.36 108.5,-37.78 108.5,-30.11"/>
<polygon fill="#63b8ff" stroke="#63b8ff" points="105,-55.87 108.5,-65.87 112,-55.87 105,-55.87"/>
</a>
</g>
</g>
<!-- Node3 -->
<g id="Node000003" class="node">
<title>Node3</title>
<g id="a_Node000003"><a xlink:href="classDynExpInstr_1_1OutputPortData.html" target="_top" xlink:title="Data class for OutputPort.">
<polygon fill="white" stroke="#666666" points="187.5,-140 29.5,-140 29.5,-121 187.5,-121 187.5,-140"/>
<text text-anchor="middle" x="108.5" y="-128" font-family="Helvetica,sans-Serif" font-size="10.00">DynExpInstr::OutputPortData</text>
</a>
</g>
</g>
<!-- Node3&#45;&gt;Node2 -->
<g id="edge2_Node000002_Node000003" class="edge">
<title>Node3&#45;&gt;Node2</title>
<g id="a_edge2_Node000002_Node000003"><a xlink:title=" ">
<path fill="none" stroke="#63b8ff" d="M108.5,-110.66C108.5,-101.93 108.5,-91.99 108.5,-85.09"/>
<polygon fill="#63b8ff" stroke="#63b8ff" points="105,-110.75 108.5,-120.75 112,-110.75 105,-110.75"/>
</a>
</g>
</g>
<!-- Node4 -->
<g id="Node000004" class="node">
<title>Node4</title>
<g id="a_Node000004"><a xlink:href="classDynExpInstr_1_1FunctionGeneratorData.html" target="_top" xlink:title="Data class for FunctionGenerator.">
<polygon fill="white" stroke="#666666" points="206,-195 11,-195 11,-176 206,-176 206,-195"/>
<text text-anchor="middle" x="108.5" y="-183" font-family="Helvetica,sans-Serif" font-size="10.00">DynExpInstr::FunctionGeneratorData</text>
</a>
</g>
</g>
<!-- Node4&#45;&gt;Node3 -->
<g id="edge3_Node000003_Node000004" class="edge">
<title>Node4&#45;&gt;Node3</title>
<g id="a_edge3_Node000003_Node000004"><a xlink:title=" ">
<path fill="none" stroke="#63b8ff" d="M108.5,-165.66C108.5,-156.93 108.5,-146.99 108.5,-140.09"/>
<polygon fill="#63b8ff" stroke="#63b8ff" points="105,-165.75 108.5,-175.75 112,-165.75 105,-165.75"/>
</a>
</g>
</g>
<!-- Node5 -->
<g id="Node000005" class="node">
<title>Node5</title>
<g id="a_Node000005"><a xlink:href="classDynExpInstr_1_1DataStreamInstrumentData.html" target="_top" xlink:title="Data class for DataStreamInstrument.">
<polygon fill="white" stroke="#666666" points="217,-250 0,-250 0,-231 217,-231 217,-250"/>
<text text-anchor="middle" x="108.5" y="-238" font-family="Helvetica,sans-Serif" font-size="10.00">DynExpInstr::DataStreamInstrumentData</text>
</a>
</g>
</g>
<!-- Node5&#45;&gt;Node4 -->
<g id="edge4_Node000004_Node000005" class="edge">
<title>Node5&#45;&gt;Node4</title>
<g id="a_edge4_Node000004_Node000005"><a xlink:title=" ">
<path fill="none" stroke="#63b8ff" d="M108.5,-220.66C108.5,-211.93 108.5,-201.99 108.5,-195.09"/>
<polygon fill="#63b8ff" stroke="#63b8ff" points="105,-220.75 108.5,-230.75 112,-220.75 105,-220.75"/>
</a>
</g>
</g>
<!-- Node6 -->
<g id="Node000006" class="node">
<title>Node6</title>
<g id="a_Node000006"><a xlink:href="classDynExp_1_1InstrumentDataBase.html" target="_top" xlink:title="Data structure to contain data which is synchronized in between different threads....">
<polygon fill="white" stroke="#666666" points="189,-305 28,-305 28,-286 189,-286 189,-305"/>
<text text-anchor="middle" x="108.5" y="-293" font-family="Helvetica,sans-Serif" font-size="10.00">DynExp::InstrumentDataBase</text>
</a>
</g>
</g>
<!-- Node6&#45;&gt;Node5 -->
<g id="edge5_Node000005_Node000006" class="edge">
<title>Node6&#45;&gt;Node5</title>
<g id="a_edge5_Node000005_Node000006"><a xlink:title=" ">
<path fill="none" stroke="#63b8ff" d="M108.5,-275.66C108.5,-266.93 108.5,-256.99 108.5,-250.09"/>
<polygon fill="#63b8ff" stroke="#63b8ff" points="105,-275.75 108.5,-285.75 112,-275.75 105,-275.75"/>
</a>
</g>
</g>
<!-- Node7 -->
<g id="Node000007" class="node">
<title>Node7</title>
<g id="a_Node000007"><a xlink:href="classUtil_1_1ISynchronizedPointerLockable.html" target="_top" xlink:title="Interface to allow synchronizing the access to derived classes between different threads by making th...">
<polygon fill="white" stroke="#666666" points="180,-371 37,-371 37,-341 180,-341 180,-371"/>
<text text-anchor="start" x="45" y="-359" font-family="Helvetica,sans-Serif" font-size="10.00">Util::ISynchronizedPointer</text>
<text text-anchor="middle" x="108.5" y="-348" font-family="Helvetica,sans-Serif" font-size="10.00">Lockable</text>
</a>
</g>
</g>
<!-- Node7&#45;&gt;Node6 -->
<g id="edge6_Node000006_Node000007" class="edge">
<title>Node7&#45;&gt;Node6</title>
<g id="a_edge6_Node000006_Node000007"><a xlink:title=" ">
<path fill="none" stroke="#63b8ff" d="M108.5,-330.75C108.5,-321.72 108.5,-312.03 108.5,-305.27"/>
<polygon fill="#63b8ff" stroke="#63b8ff" points="105,-330.84 108.5,-340.84 112,-330.84 105,-330.84"/>
</a>
</g>
</g>
<!-- Node8 -->
<g id="Node000008" class="node">
<title>Node8</title>
<g id="a_Node000008"><a xlink:href="classUtil_1_1INonCopyable.html" target="_top" xlink:title="Interface to delete copy constructor and copy assignment operator and thus make derived classes non&#45;c...">
<polygon fill="white" stroke="#666666" points="162.5,-426 54.5,-426 54.5,-407 162.5,-407 162.5,-426"/>
<text text-anchor="middle" x="108.5" y="-414" font-family="Helvetica,sans-Serif" font-size="10.00">Util::INonCopyable</text>
</a>
</g>
</g>
<!-- Node8&#45;&gt;Node7 -->
<g id="edge7_Node000007_Node000008" class="edge">
<title>Node8&#45;&gt;Node7</title>
<g id="a_edge7_Node000007_Node000008"><a xlink:title=" ">
<path fill="none" stroke="#63b8ff" d="M108.5,-396.65C108.5,-388.36 108.5,-378.78 108.5,-371.11"/>
<polygon fill="#63b8ff" stroke="#63b8ff" points="105,-396.87 108.5,-406.87 112,-396.87 105,-396.87"/>
</a>
</g>
</g>
</g>
</svg>
