<?xml version="1.0" encoding="UTF-8" standalone="no"?>
<!DOCTYPE svg PUBLIC "-//W3C//DTD SVG 1.1//EN"
 "http://www.w3.org/Graphics/SVG/1.1/DTD/svg11.dtd">
<!-- Generated by graphviz version 2.43.0 (0)
 -->
<!-- Title: DynExpInstr::InputPortTasks::InitTask Pages: 1 -->
<svg width="1063pt" height="88pt"
 viewBox="0.00 0.00 1063.00 88.00" xmlns="http://www.w3.org/2000/svg" xmlns:xlink="http://www.w3.org/1999/xlink">
<g id="graph0" class="graph" transform="scale(1 1) rotate(0) translate(4 84)">
<title>DynExpInstr::InputPortTasks::InitTask</title>
<polygon fill="white" stroke="transparent" points="-4,4 -4,-84 1059,-84 1059,4 -4,4"/>
<!-- Node1 -->
<g id="node1" class="node">
<title>Node1</title>
<g id="a_node1"><a xlink:title="Defines a task for initializing an instrument within an instrument inheritance hierarchy....">
<polygon fill="#bfbfbf" stroke="black" points="530,-24.5 530,-54.5 683,-54.5 683,-24.5 530,-24.5"/>
<text text-anchor="start" x="538" y="-42.5" font-family="Helvetica,sans-Serif" font-size="10.00">DynExpInstr::InputPortTasks</text>
<text text-anchor="middle" x="606.5" y="-31.5" font-family="Helvetica,sans-Serif" font-size="10.00">::InitTask</text>
</a>
</g>
</g>
<!-- Node5 -->
<g id="node5" class="node">
<title>Node5</title>
<g id="a_node5"><a xlink:href="classDynExpInstr_1_1AnalogInTasks_1_1InitTask.html" target="_top" xlink:title="Defines a task for initializing an instrument within an instrument inheritance hierarchy....">
<polygon fill="white" stroke="black" points="719,-49.5 719,-79.5 871,-79.5 871,-49.5 719,-49.5"/>
<text text-anchor="start" x="727" y="-67.5" font-family="Helvetica,sans-Serif" font-size="10.00">DynExpInstr::AnalogInTasks</text>
<text text-anchor="middle" x="795" y="-56.5" font-family="Helvetica,sans-Serif" font-size="10.00">::InitTask</text>
</a>
</g>
</g>
<!-- Node1&#45;&gt;Node5 -->
<g id="edge4" class="edge">
<title>Node1&#45;&gt;Node5</title>
<path fill="none" stroke="midnightblue" d="M693.13,-50.98C701.74,-52.13 710.43,-53.3 718.91,-54.43"/>
<polygon fill="midnightblue" stroke="midnightblue" points="693.46,-47.49 683.09,-49.63 692.53,-54.43 693.46,-47.49"/>
</g>
<!-- Node7 -->
<g id="node7" class="node">
<title>Node7</title>
<g id="a_node7"><a xlink:href="classDynExpInstr_1_1DigitalInTasks_1_1InitTask.html" target="_top" xlink:title="Defines a task for initializing an instrument within an instrument inheritance hierarchy....">
<polygon fill="white" stroke="black" points="720,-0.5 720,-30.5 870,-30.5 870,-0.5 720,-0.5"/>
<text text-anchor="start" x="728" y="-18.5" font-family="Helvetica,sans-Serif" font-size="10.00">DynExpInstr::DigitalInTasks</text>
<text text-anchor="middle" x="795" y="-7.5" font-family="Helvetica,sans-Serif" font-size="10.00">::InitTask</text>
</a>
</g>
</g>
<!-- Node1&#45;&gt;Node7 -->
<g id="edge6" class="edge">
<title>Node1&#45;&gt;Node7</title>
<path fill="none" stroke="midnightblue" d="M693.1,-28.48C702.02,-27.34 711.04,-26.18 719.82,-25.05"/>
<polygon fill="midnightblue" stroke="midnightblue" points="692.56,-25.03 683.09,-29.77 693.45,-31.97 692.56,-25.03"/>
</g>
<!-- Node2 -->
<g id="node2" class="node">
<title>Node2</title>
<g id="a_node2"><a xlink:href="classDynExpInstr_1_1DataStreamInstrumentTasks_1_1InitTask.html" target="_top" xlink:title="Defines a task for initializing an instrument within an instrument inheritance hierarchy....">
<polygon fill="white" stroke="black" points="300,-24.5 300,-54.5 494,-54.5 494,-24.5 300,-24.5"/>
<text text-anchor="start" x="308" y="-42.5" font-family="Helvetica,sans-Serif" font-size="10.00">DynExpInstr::DataStreamInstrument</text>
<text text-anchor="middle" x="397" y="-31.5" font-family="Helvetica,sans-Serif" font-size="10.00">Tasks::InitTask</text>
</a>
</g>
</g>
<!-- Node2&#45;&gt;Node1 -->
<g id="edge1" class="edge">
<title>Node2&#45;&gt;Node1</title>
<path fill="none" stroke="midnightblue" d="M504.28,-39.5C512.91,-39.5 521.52,-39.5 529.86,-39.5"/>
<polygon fill="midnightblue" stroke="midnightblue" points="504.16,-36 494.16,-39.5 504.16,-43 504.16,-36"/>
</g>
<!-- Node3 -->
<g id="node3" class="node">
<title>Node3</title>
<g id="a_node3"><a xlink:href="classDynExp_1_1InitTaskBase.html" target="_top" xlink:title="Defines a task for initializing an instrument within an instrument inheritance hierarchy....">
<polygon fill="white" stroke="black" points="142,-30 142,-49 264,-49 264,-30 142,-30"/>
<text text-anchor="middle" x="203" y="-37" font-family="Helvetica,sans-Serif" font-size="10.00">DynExp::InitTaskBase</text>
</a>
</g>
</g>
<!-- Node3&#45;&gt;Node2 -->
<g id="edge2" class="edge">
<title>Node3&#45;&gt;Node2</title>
<path fill="none" stroke="midnightblue" d="M274.5,-39.5C282.74,-39.5 291.25,-39.5 299.76,-39.5"/>
<polygon fill="midnightblue" stroke="midnightblue" points="274.22,-36 264.22,-39.5 274.22,-43 274.22,-36"/>
</g>
<!-- Node4 -->
<g id="node4" class="node">
<title>Node4</title>
<g id="a_node4"><a xlink:href="classDynExp_1_1TaskBase.html" target="_top" xlink:title="Base class for all tasks being processed by instruments. The class must not contain public virtual fu...">
<polygon fill="white" stroke="black" points="0,-30 0,-49 106,-49 106,-30 0,-30"/>
<text text-anchor="middle" x="53" y="-37" font-family="Helvetica,sans-Serif" font-size="10.00">DynExp::TaskBase</text>
</a>
</g>
</g>
<!-- Node4&#45;&gt;Node3 -->
<g id="edge3" class="edge">
<title>Node4&#45;&gt;Node3</title>
<path fill="none" stroke="midnightblue" d="M116.38,-39.5C124.85,-39.5 133.52,-39.5 141.95,-39.5"/>
<polygon fill="midnightblue" stroke="midnightblue" points="116.18,-36 106.18,-39.5 116.18,-43 116.18,-36"/>
</g>
<!-- Node6 -->
<g id="node6" class="node">
<title>Node6</title>
<g id="a_node6"><a xlink:href="classDynExpInstr_1_1NIDAQAnalogInTasks_1_1InitTask.html" target="_top" xlink:title=" ">
<polygon fill="white" stroke="black" points="907,-49.5 907,-79.5 1055,-79.5 1055,-49.5 907,-49.5"/>
<text text-anchor="start" x="915" y="-67.5" font-family="Helvetica,sans-Serif" font-size="10.00">DynExpInstr::NIDAQAnalog</text>
<text text-anchor="middle" x="981" y="-56.5" font-family="Helvetica,sans-Serif" font-size="10.00">InTasks::InitTask</text>
</a>
</g>
</g>
<!-- Node5&#45;&gt;Node6 -->
<g id="edge5" class="edge">
<title>Node5&#45;&gt;Node6</title>
<path fill="none" stroke="midnightblue" d="M881.16,-64.5C889.76,-64.5 898.45,-64.5 906.92,-64.5"/>
<polygon fill="midnightblue" stroke="midnightblue" points="881.11,-61 871.11,-64.5 881.11,-68 881.11,-61"/>
</g>
<!-- Node8 -->
<g id="node8" class="node">
<title>Node8</title>
<g id="a_node8"><a xlink:href="classDynExpInstr_1_1NIDAQDigitalInTasks_1_1InitTask.html" target="_top" xlink:title=" ">
<polygon fill="white" stroke="black" points="908,-0.5 908,-30.5 1054,-30.5 1054,-0.5 908,-0.5"/>
<text text-anchor="start" x="916" y="-18.5" font-family="Helvetica,sans-Serif" font-size="10.00">DynExpInstr::NIDAQDigital</text>
<text text-anchor="middle" x="981" y="-7.5" font-family="Helvetica,sans-Serif" font-size="10.00">InTasks::InitTask</text>
</a>
</g>
</g>
<!-- Node7&#45;&gt;Node8 -->
<g id="edge7" class="edge">
<title>Node7&#45;&gt;Node8</title>
<path fill="none" stroke="midnightblue" d="M880.07,-15.5C889.37,-15.5 898.77,-15.5 907.9,-15.5"/>
<polygon fill="midnightblue" stroke="midnightblue" points="880.04,-12 870.04,-15.5 880.04,-19 880.04,-12"/>
</g>
</g>
</svg>
