<?xml version="1.0" encoding="UTF-8" standalone="no"?>
<!DOCTYPE svg PUBLIC "-//W3C//DTD SVG 1.1//EN"
 "http://www.w3.org/Graphics/SVG/1.1/DTD/svg11.dtd">
<!-- Generated by graphviz version 2.43.0 (0)
 -->
<!-- Title: DynExpModule::NetworkDigitalOutData&lt; gRPCServices &gt; Pages: 1 -->
<svg width="235pt" height="346pt"
 viewBox="0.00 0.00 235.00 346.00" xmlns="http://www.w3.org/2000/svg" xmlns:xlink="http://www.w3.org/1999/xlink">
<g id="graph0" class="graph" transform="scale(1 1) rotate(0) translate(4 342)">
<title>DynExpModule::NetworkDigitalOutData&lt; gRPCServices &gt;</title>
<!-- Node1 -->
<g id="Node000001" class="node">
<title>Node1</title>
<g id="a_Node000001"><a xlink:title=" ">
<polygon fill="#999999" stroke="#666666" points="198.5,-30 28.5,-30 28.5,0 198.5,0 198.5,-30"/>
<text text-anchor="start" x="36.5" y="-18" font-family="Helvetica,sans-Serif" font-size="10.00">DynExpModule::NetworkDigital</text>
<text text-anchor="middle" x="113.5" y="-7" font-family="Helvetica,sans-Serif" font-size="10.00">OutData&lt; gRPCServices &gt;</text>
</a>
</g>
</g>
<!-- Node2 -->
<g id="Node000002" class="node">
<title>Node2</title>
<g id="a_Node000002"><a xlink:href="classDynExpModule_1_1NetworkDataStreamInstrumentData.html" target="_top" xlink:title=" ">
<polygon fill="white" stroke="#666666" points="227,-96 0,-96 0,-66 227,-66 227,-96"/>
<text text-anchor="start" x="8" y="-84" font-family="Helvetica,sans-Serif" font-size="10.00">DynExpModule::NetworkData</text>
<text text-anchor="middle" x="113.5" y="-73" font-family="Helvetica,sans-Serif" font-size="10.00">StreamInstrumentData&lt; gRPCServices... &gt;</text>
</a>
</g>
</g>
<!-- Node2&#45;&gt;Node1 -->
<g id="edge1_Node000001_Node000002" class="edge">
<title>Node2&#45;&gt;Node1</title>
<g id="a_edge1_Node000001_Node000002"><a xlink:title=" ">
<path fill="none" stroke="#63b8ff" d="M113.5,-55.54C113.5,-46.96 113.5,-37.61 113.5,-30.16"/>
<polygon fill="#63b8ff" stroke="#63b8ff" points="110,-55.8 113.5,-65.8 117,-55.8 110,-55.8"/>
</a>
</g>
</g>
<!-- Node3 -->
<g id="Node000003" class="node">
<title>Node3</title>
<g id="a_Node000003"><a xlink:href="classDynExpModule_1_1gRPCModuleData.html" target="_top" xlink:title=" ">
<polygon fill="white" stroke="#666666" points="192.5,-162 34.5,-162 34.5,-132 192.5,-132 192.5,-162"/>
<text text-anchor="start" x="42.5" y="-150" font-family="Helvetica,sans-Serif" font-size="10.00">DynExpModule::gRPCModule</text>
<text text-anchor="middle" x="113.5" y="-139" font-family="Helvetica,sans-Serif" font-size="10.00">Data&lt; gRPCServices... &gt;</text>
</a>
</g>
</g>
<!-- Node3&#45;&gt;Node2 -->
<g id="edge2_Node000002_Node000003" class="edge">
<title>Node3&#45;&gt;Node2</title>
<g id="a_edge2_Node000002_Node000003"><a xlink:title=" ">
<path fill="none" stroke="#63b8ff" d="M113.5,-121.54C113.5,-112.96 113.5,-103.61 113.5,-96.16"/>
<polygon fill="#63b8ff" stroke="#63b8ff" points="110,-121.8 113.5,-131.8 117,-121.8 110,-121.8"/>
</a>
</g>
</g>
<!-- Node4 -->
<g id="Node000004" class="node">
<title>Node4</title>
<g id="a_Node000004"><a xlink:href="classDynExp_1_1ModuleDataBase.html" target="_top" xlink:title="Data structure to contain data which is synchronized in between different threads....">
<polygon fill="white" stroke="#666666" points="185,-217 42,-217 42,-198 185,-198 185,-217"/>
<text text-anchor="middle" x="113.5" y="-205" font-family="Helvetica,sans-Serif" font-size="10.00">DynExp::ModuleDataBase</text>
</a>
</g>
</g>
<!-- Node4&#45;&gt;Node3 -->
<g id="edge3_Node000003_Node000004" class="edge">
<title>Node4&#45;&gt;Node3</title>
<g id="a_edge3_Node000003_Node000004"><a xlink:title=" ">
<path fill="none" stroke="#63b8ff" d="M113.5,-187.65C113.5,-179.36 113.5,-169.78 113.5,-162.11"/>
<polygon fill="#63b8ff" stroke="#63b8ff" points="110,-187.87 113.5,-197.87 117,-187.87 110,-187.87"/>
</a>
</g>
</g>
<!-- Node5 -->
<g id="Node000005" class="node">
<title>Node5</title>
<g id="a_Node000005"><a xlink:href="classUtil_1_1ISynchronizedPointerLockable.html" target="_top" xlink:title="Interface to allow synchronizing the access to derived classes between different threads by making th...">
<polygon fill="white" stroke="#666666" points="185,-283 42,-283 42,-253 185,-253 185,-283"/>
<text text-anchor="start" x="50" y="-271" font-family="Helvetica,sans-Serif" font-size="10.00">Util::ISynchronizedPointer</text>
<text text-anchor="middle" x="113.5" y="-260" font-family="Helvetica,sans-Serif" font-size="10.00">Lockable</text>
</a>
</g>
</g>
<!-- Node5&#45;&gt;Node4 -->
<g id="edge4_Node000004_Node000005" class="edge">
<title>Node5&#45;&gt;Node4</title>
<g id="a_edge4_Node000004_Node000005"><a xlink:title=" ">
<path fill="none" stroke="#63b8ff" d="M113.5,-242.75C113.5,-233.72 113.5,-224.03 113.5,-217.27"/>
<polygon fill="#63b8ff" stroke="#63b8ff" points="110,-242.84 113.5,-252.84 117,-242.84 110,-242.84"/>
</a>
</g>
</g>
<!-- Node6 -->
<g id="Node000006" class="node">
<title>Node6</title>
<g id="a_Node000006"><a xlink:href="classUtil_1_1INonCopyable.html" target="_top" xlink:title="Interface to delete copy constructor and copy assignment operator and thus make derived classes non&#45;c...">
<polygon fill="white" stroke="#666666" points="167.5,-338 59.5,-338 59.5,-319 167.5,-319 167.5,-338"/>
<text text-anchor="middle" x="113.5" y="-326" font-family="Helvetica,sans-Serif" font-size="10.00">Util::INonCopyable</text>
</a>
</g>
</g>
<!-- Node6&#45;&gt;Node5 -->
<g id="edge5_Node000005_Node000006" class="edge">
<title>Node6&#45;&gt;Node5</title>
<g id="a_edge5_Node000005_Node000006"><a xlink:title=" ">
<path fill="none" stroke="#63b8ff" d="M113.5,-308.65C113.5,-300.36 113.5,-290.78 113.5,-283.11"/>
<polygon fill="#63b8ff" stroke="#63b8ff" points="110,-308.87 113.5,-318.87 117,-308.87 110,-308.87"/>
</a>
</g>
</g>
</g>
</svg>
