<?xml version="1.0" encoding="UTF-8" standalone="no"?>
<!DOCTYPE svg PUBLIC "-//W3C//DTD SVG 1.1//EN"
 "http://www.w3.org/Graphics/SVG/1.1/DTD/svg11.dtd">
<!-- Generated by graphviz version 2.43.0 (0)
 -->
<!-- Title: DynExp::ParamsBase::LinkParamBase Pages: 1 -->
<svg width="660pt" height="75pt"
 viewBox="0.00 0.00 660.00 74.50" xmlns="http://www.w3.org/2000/svg" xmlns:xlink="http://www.w3.org/1999/xlink">
<g id="graph0" class="graph" transform="scale(1 1) rotate(0) translate(4 70.5)">
<title>DynExp::ParamsBase::LinkParamBase</title>
<polygon fill="white" stroke="transparent" points="-4,4 -4,-70.5 656,-70.5 656,4 -4,4"/>
<!-- Node1 -->
<g id="node1" class="node">
<title>Node1</title>
<g id="a_node1"><a xlink:title="Base class for link parameters to a single Object of any type specifying the underlying parameter typ...">
<polygon fill="#bfbfbf" stroke="black" points="335,-19.5 335,-49.5 455,-49.5 455,-19.5 335,-19.5"/>
<text text-anchor="start" x="343" y="-37.5" font-family="Helvetica,sans-Serif" font-size="10.00">DynExp::ParamsBase</text>
<text text-anchor="middle" x="395" y="-26.5" font-family="Helvetica,sans-Serif" font-size="10.00">::LinkParamBase</text>
</a>
</g>
</g>
<!-- Node5 -->
<g id="node5" class="node">
<title>Node5</title>
<g id="a_node5"><a xlink:href="classDynExp_1_1ParamsBase_1_1Param_3_01LinkType_00_01std_1_1enable__if__t_3_01std_1_1is__base__odd85ddee3349917fa7e32c83ff1f8ec2.html" target="_top" xlink:title="Parameter for links to a single Object. If LinkType is derived from ObjectLinkBase,...">
<polygon fill="white" stroke="black" points="491,-3 491,-66 652,-66 652,-3 491,-3"/>
<text text-anchor="start" x="499" y="-54" font-family="Helvetica,sans-Serif" font-size="10.00">DynExp::ParamsBase</text>
<text text-anchor="start" x="499" y="-43" font-family="Helvetica,sans-Serif" font-size="10.00">::Param&lt; LinkType, std</text>
<text text-anchor="start" x="499" y="-32" font-family="Helvetica,sans-Serif" font-size="10.00">::enable_if_t&lt; std::is</text>
<text text-anchor="start" x="499" y="-21" font-family="Helvetica,sans-Serif" font-size="10.00">_base_of_v&lt; ObjectLinkBase,</text>
<text text-anchor="middle" x="571.5" y="-10" font-family="Helvetica,sans-Serif" font-size="10.00"> LinkType &gt; &gt; &gt;</text>
</a>
</g>
</g>
<!-- Node1&#45;&gt;Node5 -->
<g id="edge4" class="edge">
<title>Node1&#45;&gt;Node5</title>
<path fill="none" stroke="midnightblue" d="M465.18,-34.5C473.58,-34.5 482.21,-34.5 490.75,-34.5"/>
<polygon fill="midnightblue" stroke="midnightblue" points="465.08,-31 455.08,-34.5 465.08,-38 465.08,-31"/>
</g>
<!-- Node2 -->
<g id="node2" class="node">
<title>Node2</title>
<g id="a_node2"><a xlink:href="classDynExp_1_1LinkBase.html" target="_top" xlink:title="Abstract base class of link parameters (to be saved in project files) describing relations between mu...">
<polygon fill="white" stroke="black" points="175.5,-44 175.5,-63 279.5,-63 279.5,-44 175.5,-44"/>
<text text-anchor="middle" x="227.5" y="-51" font-family="Helvetica,sans-Serif" font-size="10.00">DynExp::LinkBase</text>
</a>
</g>
</g>
<!-- Node2&#45;&gt;Node1 -->
<g id="edge1" class="edge">
<title>Node2&#45;&gt;Node1</title>
<path fill="none" stroke="midnightblue" d="M289.55,-46.49C304.31,-44.8 320.07,-42.99 334.75,-41.3"/>
<polygon fill="midnightblue" stroke="midnightblue" points="289.04,-43.03 279.51,-47.64 289.84,-49.98 289.04,-43.03"/>
</g>
<!-- Node3 -->
<g id="node3" class="node">
<title>Node3</title>
<g id="a_node3"><a xlink:href="classDynExp_1_1ParamsBase_1_1TypedParamBase.html" target="_top" xlink:title="Base class of parameters containing a single value.">
<polygon fill="white" stroke="black" points="156,-6 156,-25 299,-25 299,-6 156,-6"/>
<text text-anchor="middle" x="227.5" y="-13" font-family="Helvetica,sans-Serif" font-size="10.00">UnderlyingLinkParamType</text>
</a>
</g>
</g>
<!-- Node3&#45;&gt;Node1 -->
<g id="edge2" class="edge">
<title>Node3&#45;&gt;Node1</title>
<path fill="none" stroke="midnightblue" d="M309.23,-24.77C317.84,-25.76 326.47,-26.75 334.76,-27.7"/>
<polygon fill="midnightblue" stroke="midnightblue" points="309.5,-21.28 299.17,-23.61 308.7,-28.23 309.5,-21.28"/>
</g>
<!-- Node4 -->
<g id="node4" class="node">
<title>Node4</title>
<g id="a_node4"><a xlink:href="classDynExp_1_1ParamsBase_1_1ParamBase.html" target="_top" xlink:title="Abstract base class for a single object parameter. Parameters derived from this class are automatical...">
<polygon fill="white" stroke="black" points="0,-0.5 0,-30.5 120,-30.5 120,-0.5 0,-0.5"/>
<text text-anchor="start" x="8" y="-18.5" font-family="Helvetica,sans-Serif" font-size="10.00">DynExp::ParamsBase</text>
<text text-anchor="middle" x="60" y="-7.5" font-family="Helvetica,sans-Serif" font-size="10.00">::ParamBase</text>
</a>
</g>
</g>
<!-- Node4&#45;&gt;Node3 -->
<g id="edge3" class="edge">
<title>Node4&#45;&gt;Node3</title>
<path fill="none" stroke="midnightblue" d="M130.4,-15.5C138.79,-15.5 147.36,-15.5 155.77,-15.5"/>
<polygon fill="midnightblue" stroke="midnightblue" points="130.28,-12 120.28,-15.5 130.28,-19 130.28,-12"/>
</g>
</g>
</svg>
