<?xml version="1.0" encoding="UTF-8" standalone="no"?>
<!DOCTYPE svg PUBLIC "-//W3C//DTD SVG 1.1//EN"
 "http://www.w3.org/Graphics/SVG/1.1/DTD/svg11.dtd">
<!-- Generated by graphviz version 2.43.0 (0)
 -->
<!-- Title: DynExpInstr::QutoolsQuTAGConfigurator Pages: 1 -->
<svg width="220pt" height="319pt"
 viewBox="0.00 0.00 220.00 319.00" xmlns="http://www.w3.org/2000/svg" xmlns:xlink="http://www.w3.org/1999/xlink">
<g id="graph0" class="graph" transform="scale(1 1) rotate(0) translate(4 315)">
<title>DynExpInstr::QutoolsQuTAGConfigurator</title>
<polygon fill="white" stroke="transparent" points="-4,4 -4,-315 216,-315 216,4 -4,4"/>
<!-- Node1 -->
<g id="node1" class="node">
<title>Node1</title>
<g id="a_node1"><a xlink:title=" ">
<polygon fill="#bfbfbf" stroke="black" points="0,-0.5 0,-19.5 212,-19.5 212,-0.5 0,-0.5"/>
<text text-anchor="middle" x="106" y="-7.5" font-family="Helvetica,sans-Serif" font-size="10.00">DynExpInstr::QutoolsQuTAGConfigurator</text>
</a>
</g>
</g>
<!-- Node2 -->
<g id="node2" class="node">
<title>Node2</title>
<g id="a_node2"><a xlink:href="classDynExpInstr_1_1TimeTaggerConfigurator.html" target="_top" xlink:title="Configurator class for TimeTagger.">
<polygon fill="white" stroke="black" points="6.5,-56.5 6.5,-75.5 205.5,-75.5 205.5,-56.5 6.5,-56.5"/>
<text text-anchor="middle" x="106" y="-63.5" font-family="Helvetica,sans-Serif" font-size="10.00">DynExpInstr::TimeTaggerConfigurator</text>
</a>
</g>
</g>
<!-- Node2&#45;&gt;Node1 -->
<g id="edge1" class="edge">
<title>Node2&#45;&gt;Node1</title>
<path fill="none" stroke="midnightblue" d="M106,-45.8C106,-36.91 106,-26.78 106,-19.75"/>
<polygon fill="midnightblue" stroke="midnightblue" points="102.5,-46.08 106,-56.08 109.5,-46.08 102.5,-46.08"/>
</g>
<!-- Node3 -->
<g id="node3" class="node">
<title>Node3</title>
<g id="a_node3"><a xlink:href="classDynExpInstr_1_1DataStreamInstrumentConfigurator.html" target="_top" xlink:title="Configurator class for DataStreamInstrument.">
<polygon fill="white" stroke="black" points="9,-112.5 9,-142.5 203,-142.5 203,-112.5 9,-112.5"/>
<text text-anchor="start" x="17" y="-130.5" font-family="Helvetica,sans-Serif" font-size="10.00">DynExpInstr::DataStreamInstrument</text>
<text text-anchor="middle" x="106" y="-119.5" font-family="Helvetica,sans-Serif" font-size="10.00">Configurator</text>
</a>
</g>
</g>
<!-- Node3&#45;&gt;Node2 -->
<g id="edge2" class="edge">
<title>Node3&#45;&gt;Node2</title>
<path fill="none" stroke="midnightblue" d="M106,-102.29C106,-92.86 106,-82.65 106,-75.66"/>
<polygon fill="midnightblue" stroke="midnightblue" points="102.5,-102.4 106,-112.4 109.5,-102.4 102.5,-102.4"/>
</g>
<!-- Node4 -->
<g id="node4" class="node">
<title>Node4</title>
<g id="a_node4"><a xlink:href="classDynExp_1_1InstrumentConfiguratorBase.html" target="_top" xlink:title="Configurator class for InstrumentBase.">
<polygon fill="white" stroke="black" points="7.5,-179.5 7.5,-198.5 204.5,-198.5 204.5,-179.5 7.5,-179.5"/>
<text text-anchor="middle" x="106" y="-186.5" font-family="Helvetica,sans-Serif" font-size="10.00">DynExp::InstrumentConfiguratorBase</text>
</a>
</g>
</g>
<!-- Node4&#45;&gt;Node3 -->
<g id="edge3" class="edge">
<title>Node4&#45;&gt;Node3</title>
<path fill="none" stroke="midnightblue" d="M106,-169.23C106,-160.59 106,-150.5 106,-142.52"/>
<polygon fill="midnightblue" stroke="midnightblue" points="102.5,-169.48 106,-179.48 109.5,-169.48 102.5,-169.48"/>
</g>
<!-- Node5 -->
<g id="node5" class="node">
<title>Node5</title>
<g id="a_node5"><a xlink:href="classDynExp_1_1RunnableObjectConfigurator.html" target="_top" xlink:title="Configurator class for RunnableObject.">
<polygon fill="white" stroke="black" points="7.5,-235.5 7.5,-254.5 204.5,-254.5 204.5,-235.5 7.5,-235.5"/>
<text text-anchor="middle" x="106" y="-242.5" font-family="Helvetica,sans-Serif" font-size="10.00">DynExp::RunnableObjectConfigurator</text>
</a>
</g>
</g>
<!-- Node5&#45;&gt;Node4 -->
<g id="edge4" class="edge">
<title>Node5&#45;&gt;Node4</title>
<path fill="none" stroke="midnightblue" d="M106,-224.8C106,-215.91 106,-205.78 106,-198.75"/>
<polygon fill="midnightblue" stroke="midnightblue" points="102.5,-225.08 106,-235.08 109.5,-225.08 102.5,-225.08"/>
</g>
<!-- Node6 -->
<g id="node6" class="node">
<title>Node6</title>
<g id="a_node6"><a xlink:href="classDynExp_1_1ConfiguratorBase.html" target="_top" xlink:title="The configurator classes have the task to generate parameter objects (refer to DynExp::ParamsBase) of...">
<polygon fill="white" stroke="black" points="34,-291.5 34,-310.5 178,-310.5 178,-291.5 34,-291.5"/>
<text text-anchor="middle" x="106" y="-298.5" font-family="Helvetica,sans-Serif" font-size="10.00">DynExp::ConfiguratorBase</text>
</a>
</g>
</g>
<!-- Node6&#45;&gt;Node5 -->
<g id="edge5" class="edge">
<title>Node6&#45;&gt;Node5</title>
<path fill="none" stroke="midnightblue" d="M106,-280.8C106,-271.91 106,-261.78 106,-254.75"/>
<polygon fill="midnightblue" stroke="midnightblue" points="102.5,-281.08 106,-291.08 109.5,-281.08 102.5,-281.08"/>
</g>
</g>
</svg>
