<?xml version="1.0" encoding="UTF-8" standalone="no"?>
<!DOCTYPE svg PUBLIC "-//W3C//DTD SVG 1.1//EN"
 "http://www.w3.org/Graphics/SVG/1.1/DTD/svg11.dtd">
<!-- Generated by graphviz version 2.43.0 (0)
 -->
<!-- Title: DynExp::InstrumentBase Pages: 1 -->
<svg width="1612pt" height="488pt"
 viewBox="0.00 0.00 1612.00 487.50" xmlns="http://www.w3.org/2000/svg" xmlns:xlink="http://www.w3.org/1999/xlink">
<g id="graph0" class="graph" transform="scale(1 1) rotate(0) translate(4 483.5)">
<title>DynExp::InstrumentBase</title>
<!-- Node1 -->
<g id="Node000001" class="node">
<title>Node1</title>
<g id="a_Node000001"><a xlink:title="Base class for instruments. Instruments comprise virtual devices (meta instruments) and physial devic...">
<polygon fill="#999999" stroke="#666666" points="454,-241 317,-241 317,-222 454,-222 454,-241"/>
<text text-anchor="middle" x="385.5" y="-229" font-family="Helvetica,sans-Serif" font-size="10.00">DynExp::InstrumentBase</text>
</a>
</g>
</g>
<!-- Node5 -->
<g id="Node000005" class="node">
<title>Node5</title>
<g id="a_Node000005"><a xlink:href="classDynExpInstr_1_1gRPCInstrument.html" target="_top" xlink:title=" ">
<polygon fill="white" stroke="#666666" points="695,-479.5 490,-479.5 490,-427.5 695,-427.5 695,-479.5"/>
<text text-anchor="start" x="498" y="-467.5" font-family="Helvetica,sans-Serif" font-size="10.00">DynExpInstr::gRPCInstrument</text>
<text text-anchor="start" x="498" y="-456.5" font-family="Helvetica,sans-Serif" font-size="10.00">&lt; DynExp::InstrumentBase,</text>
<text text-anchor="start" x="498" y="-445.5" font-family="Helvetica,sans-Serif" font-size="10.00"> 0, DynExpProto::WidefieldLocalization</text>
<text text-anchor="middle" x="592.5" y="-434.5" font-family="Helvetica,sans-Serif" font-size="10.00">::WidefieldLocalization &gt;</text>
</a>
</g>
</g>
<!-- Node1&#45;&gt;Node5 -->
<g id="edge4_Node000001_Node000005" class="edge">
<title>Node1&#45;&gt;Node5</title>
<g id="a_edge4_Node000001_Node000005"><a xlink:title=" ">
<path fill="none" stroke="#63b8ff" d="M393.28,-251.05C406.57,-286.79 439.25,-363.13 490,-408.5 498.19,-415.82 507.77,-422.12 517.7,-427.47"/>
<polygon fill="#63b8ff" stroke="#63b8ff" points="396.46,-249.56 389.78,-241.34 389.88,-251.94 396.46,-249.56"/>
</a>
</g>
</g>
<!-- Node7 -->
<g id="Node000007" class="node">
<title>Node7</title>
<g id="a_Node000007"><a xlink:href="classDynExpInstr_1_1Camera.html" target="_top" xlink:title="Meta instrument for an image capturing (camera) device.">
<polygon fill="white" stroke="#666666" points="652.5,-399 532.5,-399 532.5,-380 652.5,-380 652.5,-399"/>
<text text-anchor="middle" x="592.5" y="-387" font-family="Helvetica,sans-Serif" font-size="10.00">DynExpInstr::Camera</text>
</a>
</g>
</g>
<!-- Node1&#45;&gt;Node7 -->
<g id="edge6_Node000001_Node000007" class="edge">
<title>Node1&#45;&gt;Node7</title>
<g id="a_edge6_Node000001_Node000007"><a xlink:title=" ">
<path fill="none" stroke="#63b8ff" d="M406.95,-247.26C449.2,-279.82 545.03,-353.68 579.15,-379.98"/>
<polygon fill="#63b8ff" stroke="#63b8ff" points="409.07,-244.48 399.02,-241.15 404.8,-250.02 409.07,-244.48"/>
</a>
</g>
</g>
<!-- Node10 -->
<g id="Node000010" class="node">
<title>Node10</title>
<g id="a_Node000010"><a xlink:href="classDynExpInstr_1_1DataStreamInstrument.html" target="_top" xlink:title="Implementation of the data stream meta instrument, which is a base class for all instruments reading/...">
<polygon fill="white" stroke="#666666" points="689.5,-263 495.5,-263 495.5,-244 689.5,-244 689.5,-263"/>
<text text-anchor="middle" x="592.5" y="-251" font-family="Helvetica,sans-Serif" font-size="10.00">DynExpInstr::DataStreamInstrument</text>
</a>
</g>
</g>
<!-- Node1&#45;&gt;Node10 -->
<g id="edge9_Node000001_Node000010" class="edge">
<title>Node1&#45;&gt;Node10</title>
<g id="a_edge9_Node000001_Node000010"><a xlink:title=" ">
<path fill="none" stroke="#63b8ff" d="M464.15,-239.83C476.74,-241.18 489.85,-242.59 502.67,-243.97"/>
<polygon fill="#63b8ff" stroke="#63b8ff" points="464.51,-236.35 454.19,-238.76 463.76,-243.31 464.51,-236.35"/>
</a>
</g>
</g>
<!-- Node31 -->
<g id="Node000031" class="node">
<title>Node31</title>
<g id="a_Node000031"><a xlink:href="classDynExpInstr_1_1InterModuleCommunicator.html" target="_top" xlink:title="Defines an inter&#45;module communicator instrument to exchange events in between DynExp modules....">
<polygon fill="white" stroke="#666666" points="662.5,-225.5 522.5,-225.5 522.5,-195.5 662.5,-195.5 662.5,-225.5"/>
<text text-anchor="start" x="530.5" y="-213.5" font-family="Helvetica,sans-Serif" font-size="10.00">DynExpInstr::InterModule</text>
<text text-anchor="middle" x="592.5" y="-202.5" font-family="Helvetica,sans-Serif" font-size="10.00">Communicator</text>
</a>
</g>
</g>
<!-- Node1&#45;&gt;Node31 -->
<g id="edge30_Node000001_Node000031" class="edge">
<title>Node1&#45;&gt;Node31</title>
<g id="a_edge30_Node000001_Node000031"><a xlink:title=" ">
<path fill="none" stroke="#63b8ff" d="M464.36,-223.52C483.48,-221.57 503.81,-219.48 522.48,-217.57"/>
<polygon fill="#63b8ff" stroke="#63b8ff" points="463.78,-220.06 454.19,-224.57 464.5,-227.03 463.78,-220.06"/>
</a>
</g>
</g>
<!-- Node32 -->
<g id="Node000032" class="node">
<title>Node32</title>
<g id="a_Node000032"><a xlink:href="classDynExpInstr_1_1PositionerStage.html" target="_top" xlink:title="Implementation of a meta instrument to control single&#45;axis positioner stages.">
<polygon fill="white" stroke="#666666" points="671.5,-134 513.5,-134 513.5,-115 671.5,-115 671.5,-134"/>
<text text-anchor="middle" x="592.5" y="-122" font-family="Helvetica,sans-Serif" font-size="10.00">DynExpInstr::PositionerStage</text>
</a>
</g>
</g>
<!-- Node1&#45;&gt;Node32 -->
<g id="edge31_Node000001_Node000032" class="edge">
<title>Node1&#45;&gt;Node32</title>
<g id="a_edge31_Node000001_Node000032"><a xlink:title=" ">
<path fill="none" stroke="#63b8ff" d="M414.01,-217.14C456.51,-194.96 537,-152.94 573.14,-134.09"/>
<polygon fill="#63b8ff" stroke="#63b8ff" points="412.3,-214.09 405.05,-221.82 415.54,-220.29 412.3,-214.09"/>
</a>
</g>
</g>
<!-- Node36 -->
<g id="Node000036" class="node">
<title>Node36</title>
<g id="a_Node000036"><a xlink:href="classDynExpInstr_1_1Spectrometer.html" target="_top" xlink:title="Meta instrument for a spectrometer.">
<polygon fill="white" stroke="#666666" points="666.5,-55 518.5,-55 518.5,-36 666.5,-36 666.5,-55"/>
<text text-anchor="middle" x="592.5" y="-43" font-family="Helvetica,sans-Serif" font-size="10.00">DynExpInstr::Spectrometer</text>
</a>
</g>
</g>
<!-- Node1&#45;&gt;Node36 -->
<g id="edge35_Node000001_Node000036" class="edge">
<title>Node1&#45;&gt;Node36</title>
<g id="a_edge35_Node000001_Node000036"><a xlink:title=" ">
<path fill="none" stroke="#63b8ff" d="M398.51,-213.12C416.25,-186.95 451.52,-138.48 490,-105.5 515.18,-83.92 549.14,-65.63 570.68,-55.1"/>
<polygon fill="#63b8ff" stroke="#63b8ff" points="395.44,-211.42 392.8,-221.68 401.26,-215.3 395.44,-211.42"/>
</a>
</g>
</g>
<!-- Node2 -->
<g id="Node000002" class="node">
<title>Node2</title>
<g id="a_Node000002"><a xlink:href="classDynExp_1_1RunnableObject.html" target="_top" xlink:title="Defines an Object which possesses a thread it runs in. The RunnableObject can be started and stopped ...">
<polygon fill="white" stroke="#666666" points="281,-241 144,-241 144,-222 281,-222 281,-241"/>
<text text-anchor="middle" x="212.5" y="-229" font-family="Helvetica,sans-Serif" font-size="10.00">DynExp::RunnableObject</text>
</a>
</g>
</g>
<!-- Node2&#45;&gt;Node1 -->
<g id="edge1_Node000001_Node000002" class="edge">
<title>Node2&#45;&gt;Node1</title>
<g id="a_edge1_Node000001_Node000002"><a xlink:title=" ">
<path fill="none" stroke="#63b8ff" d="M291.1,-231.5C299.69,-231.5 308.39,-231.5 316.85,-231.5"/>
<polygon fill="#63b8ff" stroke="#63b8ff" points="291.08,-228 281.08,-231.5 291.08,-235 291.08,-228"/>
</a>
</g>
</g>
<!-- Node3 -->
<g id="Node000003" class="node">
<title>Node3</title>
<g id="a_Node000003"><a xlink:href="classUtil_1_1INonCopyable.html" target="_top" xlink:title="Interface to delete copy constructor and copy assignment operator and thus make derived classes non&#45;c...">
<polygon fill="white" stroke="#666666" points="108,-260 0,-260 0,-241 108,-241 108,-260"/>
<text text-anchor="middle" x="54" y="-248" font-family="Helvetica,sans-Serif" font-size="10.00">Util::INonCopyable</text>
</a>
</g>
</g>
<!-- Node3&#45;&gt;Node2 -->
<g id="edge2_Node000002_Node000003" class="edge">
<title>Node3&#45;&gt;Node2</title>
<g id="a_edge2_Node000002_Node000003"><a xlink:title=" ">
<path fill="none" stroke="#63b8ff" d="M118.5,-242.79C126.87,-241.77 135.49,-240.73 143.93,-239.7"/>
<polygon fill="#63b8ff" stroke="#63b8ff" points="117.93,-239.33 108.42,-244.01 118.77,-246.28 117.93,-239.33"/>
</a>
</g>
</g>
<!-- Node4 -->
<g id="Node000004" class="node">
<title>Node4</title>
<g id="a_Node000004"><a xlink:href="classDynExp_1_1Object.html" target="_top" xlink:title="Base class for all DynExp Objects like hardware adapters (DynExp::HardwareAdapterBase),...">
<polygon fill="white" stroke="#666666" points="100,-223 8,-223 8,-204 100,-204 100,-223"/>
<text text-anchor="middle" x="54" y="-211" font-family="Helvetica,sans-Serif" font-size="10.00">DynExp::Object</text>
</a>
</g>
</g>
<!-- Node4&#45;&gt;Node2 -->
<g id="edge3_Node000002_Node000004" class="edge">
<title>Node4&#45;&gt;Node2</title>
<g id="a_edge3_Node000002_Node000004"><a xlink:title=" ">
<path fill="none" stroke="#63b8ff" d="M110.43,-219.88C121.26,-221.12 132.74,-222.44 143.91,-223.73"/>
<polygon fill="#63b8ff" stroke="#63b8ff" points="110.6,-216.37 100.27,-218.71 109.8,-223.33 110.6,-216.37"/>
</a>
</g>
</g>
<!-- Node6 -->
<g id="Node000006" class="node">
<title>Node6</title>
<g id="a_Node000006"><a xlink:href="classDynExpInstr_1_1WidefieldLocalization.html" target="_top" xlink:title=" ">
<polygon fill="white" stroke="#666666" points="951,-473 765,-473 765,-454 951,-454 951,-473"/>
<text text-anchor="middle" x="858" y="-461" font-family="Helvetica,sans-Serif" font-size="10.00">DynExpInstr::WidefieldLocalization</text>
</a>
</g>
</g>
<!-- Node5&#45;&gt;Node6 -->
<g id="edge5_Node000005_Node000006" class="edge">
<title>Node5&#45;&gt;Node6</title>
<g id="a_edge5_Node000005_Node000006"><a xlink:title=" ">
<path fill="none" stroke="#63b8ff" d="M705.64,-457.76C725.39,-458.51 745.74,-459.28 764.87,-460"/>
<polygon fill="#63b8ff" stroke="#63b8ff" points="705.5,-454.25 695.38,-457.37 705.24,-461.24 705.5,-454.25"/>
</a>
</g>
</g>
<!-- Node8 -->
<g id="Node000008" class="node">
<title>Node8</title>
<g id="a_Node000008"><a xlink:href="classDynExpInstr_1_1DummyCamera.html" target="_top" xlink:title=" ">
<polygon fill="white" stroke="#666666" points="937.5,-436 778.5,-436 778.5,-417 937.5,-417 937.5,-436"/>
<text text-anchor="middle" x="858" y="-424" font-family="Helvetica,sans-Serif" font-size="10.00">DynExpInstr::DummyCamera</text>
</a>
</g>
</g>
<!-- Node7&#45;&gt;Node8 -->
<g id="edge7_Node000007_Node000008" class="edge">
<title>Node7&#45;&gt;Node8</title>
<g id="a_edge7_Node000007_Node000008"><a xlink:title=" ">
<path fill="none" stroke="#63b8ff" d="M662.86,-399.24C701.9,-404.72 750.45,-411.54 789.23,-416.98"/>
<polygon fill="#63b8ff" stroke="#63b8ff" points="663.02,-395.73 652.63,-397.8 662.05,-402.66 663.02,-395.73"/>
</a>
</g>
</g>
<!-- Node9 -->
<g id="Node000009" class="node">
<title>Node9</title>
<g id="a_Node000009"><a xlink:href="classDynExpInstr_1_1PVCam.html" target="_top" xlink:title=" ">
<polygon fill="white" stroke="#666666" points="916.5,-399 799.5,-399 799.5,-380 916.5,-380 916.5,-399"/>
<text text-anchor="middle" x="858" y="-387" font-family="Helvetica,sans-Serif" font-size="10.00">DynExpInstr::PVCam</text>
</a>
</g>
</g>
<!-- Node7&#45;&gt;Node9 -->
<g id="edge8_Node000007_Node000009" class="edge">
<title>Node7&#45;&gt;Node9</title>
<g id="a_edge8_Node000007_Node000009"><a xlink:title=" ">
<path fill="none" stroke="#63b8ff" d="M662.64,-389.5C705.22,-389.5 759.17,-389.5 799.42,-389.5"/>
<polygon fill="#63b8ff" stroke="#63b8ff" points="662.63,-386 652.63,-389.5 662.63,-393 662.63,-386"/>
</a>
</g>
</g>
<!-- Node11 -->
<g id="Node000011" class="node">
<title>Node11</title>
<g id="a_Node000011"><a xlink:href="classDynExpInstr_1_1gRPCInstrument.html" target="_top" xlink:title=" ">
<polygon fill="white" stroke="#666666" points="938.5,-362 777.5,-362 777.5,-321 938.5,-321 938.5,-362"/>
<text text-anchor="start" x="785.5" y="-350" font-family="Helvetica,sans-Serif" font-size="10.00">DynExpInstr::gRPCInstrument</text>
<text text-anchor="start" x="785.5" y="-339" font-family="Helvetica,sans-Serif" font-size="10.00">&lt; DataStreamInstrument,</text>
<text text-anchor="middle" x="858" y="-328" font-family="Helvetica,sans-Serif" font-size="10.00"> 0, gRPCStubs... &gt;</text>
</a>
</g>
</g>
<!-- Node10&#45;&gt;Node11 -->
<g id="edge10_Node000010_Node000011" class="edge">
<title>Node10&#45;&gt;Node11</title>
<g id="a_edge10_Node000010_Node000011"><a xlink:title=" ">
<path fill="none" stroke="#63b8ff" d="M622.02,-267.53C649.44,-280.58 692.3,-299.85 731,-312.5 745.83,-317.34 761.89,-321.7 777.43,-325.47"/>
<polygon fill="#63b8ff" stroke="#63b8ff" points="623.19,-264.2 612.66,-263.02 620.16,-270.51 623.19,-264.2"/>
</a>
</g>
</g>
<!-- Node12 -->
<g id="Node000012" class="node">
<title>Node12</title>
<g id="a_Node000012"><a xlink:href="classDynExpInstr_1_1FunctionGenerator.html" target="_top" xlink:title="Function generator meta instrument based on the data stream meta instrument to generate waveforms by ...">
<polygon fill="white" stroke="#666666" points="944,-303 772,-303 772,-284 944,-284 944,-303"/>
<text text-anchor="middle" x="858" y="-291" font-family="Helvetica,sans-Serif" font-size="10.00">DynExpInstr::FunctionGenerator</text>
</a>
</g>
</g>
<!-- Node10&#45;&gt;Node12 -->
<g id="edge11_Node000010_Node000012" class="edge">
<title>Node10&#45;&gt;Node12</title>
<g id="a_edge11_Node000010_Node000012"><a xlink:title=" ">
<path fill="none" stroke="#63b8ff" d="M666.28,-264.55C706.43,-270.64 755.8,-278.14 794.24,-283.97"/>
<polygon fill="#63b8ff" stroke="#63b8ff" points="666.69,-261.07 656.28,-263.03 665.64,-267.99 666.69,-261.07"/>
</a>
</g>
</g>
<!-- Node22 -->
<g id="Node000022" class="node">
<title>Node22</title>
<g id="a_Node000022"><a xlink:href="classDynExpInstr_1_1InputPort.html" target="_top" xlink:title="Generic input port meta instrument based on the data stream meta instrument to read data from hardwar...">
<polygon fill="white" stroke="#666666" points="921,-263 795,-263 795,-244 921,-244 921,-263"/>
<text text-anchor="middle" x="858" y="-251" font-family="Helvetica,sans-Serif" font-size="10.00">DynExpInstr::InputPort</text>
</a>
</g>
</g>
<!-- Node10&#45;&gt;Node22 -->
<g id="edge21_Node000010_Node000022" class="edge">
<title>Node10&#45;&gt;Node22</title>
<g id="a_edge21_Node000010_Node000022"><a xlink:title=" ">
<path fill="none" stroke="#63b8ff" d="M700.09,-253.5C732.21,-253.5 766.39,-253.5 794.63,-253.5"/>
<polygon fill="#63b8ff" stroke="#63b8ff" points="699.75,-250 689.75,-253.5 699.75,-257 699.75,-250"/>
</a>
</g>
</g>
<!-- Node27 -->
<g id="Node000027" class="node">
<title>Node27</title>
<g id="a_Node000027"><a xlink:href="classDynExpInstr_1_1LockinAmplifier.html" target="_top" xlink:title="Meta instrument for a lock&#45;in amplifier based on the data stream meta instrument.">
<polygon fill="white" stroke="#666666" points="937,-226 779,-226 779,-207 937,-207 937,-226"/>
<text text-anchor="middle" x="858" y="-214" font-family="Helvetica,sans-Serif" font-size="10.00">DynExpInstr::LockinAmplifier</text>
</a>
</g>
</g>
<!-- Node10&#45;&gt;Node27 -->
<g id="edge26_Node000010_Node000027" class="edge">
<title>Node10&#45;&gt;Node27</title>
<g id="a_edge26_Node000010_Node000027"><a xlink:title=" ">
<path fill="none" stroke="#63b8ff" d="M671.67,-242.52C708.92,-237.29 753.06,-231.1 788.91,-226.06"/>
<polygon fill="#63b8ff" stroke="#63b8ff" points="670.77,-239.11 661.36,-243.97 671.75,-246.05 670.77,-239.11"/>
</a>
</g>
</g>
<!-- Node29 -->
<g id="Node000029" class="node">
<title>Node29</title>
<g id="a_Node000029"><a xlink:href="classDynExpInstr_1_1TimeTagger.html" target="_top" xlink:title="Meta instrument for a time tagging device to assign timestamps to (e.g. photon) detection events base...">
<polygon fill="white" stroke="#666666" points="927.5,-189 788.5,-189 788.5,-170 927.5,-170 927.5,-189"/>
<text text-anchor="middle" x="858" y="-177" font-family="Helvetica,sans-Serif" font-size="10.00">DynExpInstr::TimeTagger</text>
</a>
</g>
</g>
<!-- Node10&#45;&gt;Node29 -->
<g id="edge28_Node000010_Node000029" class="edge">
<title>Node10&#45;&gt;Node29</title>
<g id="a_edge28_Node000010_Node000029"><a xlink:title=" ">
<path fill="none" stroke="#63b8ff" d="M681.45,-240.64C686.13,-238.85 690.68,-236.81 695,-234.5 715.22,-223.66 710.55,-207.9 731,-197.5 748.53,-188.58 769.1,-183.69 788.48,-181.1"/>
<polygon fill="#63b8ff" stroke="#63b8ff" points="680,-237.44 671.67,-243.99 682.27,-244.06 680,-237.44"/>
</a>
</g>
</g>
<!-- Node13 -->
<g id="Node000013" class="node">
<title>Node13</title>
<g id="a_Node000013"><a xlink:href="classDynExpInstr_1_1DummyDataStreamInstrument.html" target="_top" xlink:title=" ">
<polygon fill="white" stroke="#666666" points="1205,-468.5 1026,-468.5 1026,-438.5 1205,-438.5 1205,-468.5"/>
<text text-anchor="start" x="1034" y="-456.5" font-family="Helvetica,sans-Serif" font-size="10.00">DynExpInstr::DummyDataStream</text>
<text text-anchor="middle" x="1115.5" y="-445.5" font-family="Helvetica,sans-Serif" font-size="10.00">Instrument</text>
</a>
</g>
</g>
<!-- Node12&#45;&gt;Node13 -->
<g id="edge12_Node000012_Node000013" class="edge">
<title>Node12&#45;&gt;Node13</title>
<g id="a_edge12_Node000012_Node000013"><a xlink:title=" ">
<path fill="none" stroke="#63b8ff" d="M953.95,-295.86C965.3,-299.45 976.03,-304.77 985,-312.5 1026.22,-348 981.63,-391.95 1021,-429.5 1024.52,-432.85 1028.44,-435.76 1032.62,-438.27"/>
<polygon fill="#63b8ff" stroke="#63b8ff" points="954.85,-292.48 944.28,-293.23 953.02,-299.23 954.85,-292.48"/>
</a>
</g>
</g>
<!-- Node14 -->
<g id="Node000014" class="node">
<title>Node14</title>
<g id="a_Node000014"><a xlink:href="classDynExpInstr_1_1OutputPort.html" target="_top" xlink:title="Generic output port meta instrument based on the data stream and function generator meta instruments ...">
<polygon fill="white" stroke="#666666" points="1182.5,-420 1048.5,-420 1048.5,-401 1182.5,-401 1182.5,-420"/>
<text text-anchor="middle" x="1115.5" y="-408" font-family="Helvetica,sans-Serif" font-size="10.00">DynExpInstr::OutputPort</text>
</a>
</g>
</g>
<!-- Node12&#45;&gt;Node14 -->
<g id="edge13_Node000012_Node000014" class="edge">
<title>Node12&#45;&gt;Node14</title>
<g id="a_edge13_Node000012_Node000014"><a xlink:title=" ">
<path fill="none" stroke="#63b8ff" d="M954.17,-297.26C965.27,-300.67 975.87,-305.57 985,-312.5 1016.07,-336.06 990.42,-368.32 1021,-392.5 1028.91,-398.75 1038.36,-403.05 1048.16,-405.97"/>
<polygon fill="#63b8ff" stroke="#63b8ff" points="954.88,-293.83 944.31,-294.63 953.07,-300.59 954.88,-293.83"/>
</a>
</g>
</g>
<!-- Node19 -->
<g id="Node000019" class="node">
<title>Node19</title>
<g id="a_Node000019"><a xlink:href="classDynExpInstr_1_1RS__SMB100B.html" target="_top" xlink:title=" ">
<polygon fill="white" stroke="#666666" points="1188.5,-383 1042.5,-383 1042.5,-364 1188.5,-364 1188.5,-383"/>
<text text-anchor="middle" x="1115.5" y="-371" font-family="Helvetica,sans-Serif" font-size="10.00">DynExpInstr::RS_SMB100B</text>
</a>
</g>
</g>
<!-- Node12&#45;&gt;Node19 -->
<g id="edge18_Node000012_Node000019" class="edge">
<title>Node12&#45;&gt;Node19</title>
<g id="a_edge18_Node000012_Node000019"><a xlink:title=" ">
<path fill="none" stroke="#63b8ff" d="M954.13,-300.2C964.94,-303.16 975.47,-307.15 985,-312.5 1006.73,-324.71 999.52,-342.86 1021,-355.5 1027.55,-359.36 1034.77,-362.41 1042.2,-364.82"/>
<polygon fill="#63b8ff" stroke="#63b8ff" points="954.69,-296.73 944.15,-297.76 953.03,-303.53 954.69,-296.73"/>
</a>
</g>
</g>
<!-- Node20 -->
<g id="Node000020" class="node">
<title>Node20</title>
<g id="a_Node000020"><a xlink:href="classDynExpInstr_1_1RS__SMC100A.html" target="_top" xlink:title=" ">
<polygon fill="white" stroke="#666666" points="1188.5,-346 1042.5,-346 1042.5,-327 1188.5,-327 1188.5,-346"/>
<text text-anchor="middle" x="1115.5" y="-334" font-family="Helvetica,sans-Serif" font-size="10.00">DynExpInstr::RS_SMC100A</text>
</a>
</g>
</g>
<!-- Node12&#45;&gt;Node20 -->
<g id="edge19_Node000012_Node000020" class="edge">
<title>Node12&#45;&gt;Node20</title>
<g id="a_edge19_Node000012_Node000020"><a xlink:title=" ">
<path fill="none" stroke="#63b8ff" d="M935.22,-304.57C951.66,-307.08 968.92,-309.8 985,-312.5 1011.61,-316.97 1041.2,-322.42 1065.37,-326.99"/>
<polygon fill="#63b8ff" stroke="#63b8ff" points="935.52,-301.08 925.11,-303.04 934.48,-308 935.52,-301.08"/>
</a>
</g>
</g>
<!-- Node21 -->
<g id="Node000021" class="node">
<title>Node21</title>
<g id="a_Node000021"><a xlink:href="classDynExpInstr_1_1SwabianInstrumentsPulseStreamer.html" target="_top" xlink:title=" ">
<polygon fill="white" stroke="#666666" points="1206.5,-308.5 1024.5,-308.5 1024.5,-278.5 1206.5,-278.5 1206.5,-308.5"/>
<text text-anchor="start" x="1032.5" y="-296.5" font-family="Helvetica,sans-Serif" font-size="10.00">DynExpInstr::SwabianInstruments</text>
<text text-anchor="middle" x="1115.5" y="-285.5" font-family="Helvetica,sans-Serif" font-size="10.00">PulseStreamer</text>
</a>
</g>
</g>
<!-- Node12&#45;&gt;Node21 -->
<g id="edge20_Node000012_Node000021" class="edge">
<title>Node12&#45;&gt;Node21</title>
<g id="a_edge20_Node000012_Node000021"><a xlink:title=" ">
<path fill="none" stroke="#63b8ff" d="M954.13,-293.5C977.03,-293.5 1001.42,-293.5 1024.1,-293.5"/>
<polygon fill="#63b8ff" stroke="#63b8ff" points="954.08,-290 944.08,-293.5 954.08,-297 954.08,-290"/>
</a>
</g>
</g>
<!-- Node15 -->
<g id="Node000015" class="node">
<title>Node15</title>
<g id="a_Node000015"><a xlink:href="classDynExpInstr_1_1AnalogOut.html" target="_top" xlink:title="Meta instrument for a single analog output port based on the data stream, function generator,...">
<polygon fill="white" stroke="#666666" points="1391,-438 1258,-438 1258,-419 1391,-419 1391,-438"/>
<text text-anchor="middle" x="1324.5" y="-426" font-family="Helvetica,sans-Serif" font-size="10.00">DynExpInstr::AnalogOut</text>
</a>
</g>
</g>
<!-- Node14&#45;&gt;Node15 -->
<g id="edge14_Node000014_Node000015" class="edge">
<title>Node14&#45;&gt;Node15</title>
<g id="a_edge14_Node000014_Node000015"><a xlink:title=" ">
<path fill="none" stroke="#63b8ff" d="M1192.58,-417.12C1213.94,-418.97 1236.99,-420.98 1257.71,-422.78"/>
<polygon fill="#63b8ff" stroke="#63b8ff" points="1192.83,-413.62 1182.57,-416.24 1192.22,-420.6 1192.83,-413.62"/>
</a>
</g>
</g>
<!-- Node17 -->
<g id="Node000017" class="node">
<title>Node17</title>
<g id="a_Node000017"><a xlink:href="classDynExpInstr_1_1DigitalOut.html" target="_top" xlink:title="Meta instrument for a single digital output port based on the data stream, function generator,...">
<polygon fill="white" stroke="#666666" points="1390,-401 1259,-401 1259,-382 1390,-382 1390,-401"/>
<text text-anchor="middle" x="1324.5" y="-389" font-family="Helvetica,sans-Serif" font-size="10.00">DynExpInstr::DigitalOut</text>
</a>
</g>
</g>
<!-- Node14&#45;&gt;Node17 -->
<g id="edge16_Node000014_Node000017" class="edge">
<title>Node14&#45;&gt;Node17</title>
<g id="a_edge16_Node000014_Node000017"><a xlink:title=" ">
<path fill="none" stroke="#63b8ff" d="M1192.73,-403.5C1214.42,-401.51 1237.83,-399.36 1258.77,-397.44"/>
<polygon fill="#63b8ff" stroke="#63b8ff" points="1192.2,-400.04 1182.57,-404.44 1192.84,-407.01 1192.2,-400.04"/>
</a>
</g>
</g>
<!-- Node16 -->
<g id="Node000016" class="node">
<title>Node16</title>
<g id="a_Node000016"><a xlink:href="classDynExpInstr_1_1NIDAQAnalogOut.html" target="_top" xlink:title=" ">
<polygon fill="white" stroke="#666666" points="1604,-438 1439,-438 1439,-419 1604,-419 1604,-438"/>
<text text-anchor="middle" x="1521.5" y="-426" font-family="Helvetica,sans-Serif" font-size="10.00">DynExpInstr::NIDAQAnalogOut</text>
</a>
</g>
</g>
<!-- Node15&#45;&gt;Node16 -->
<g id="edge15_Node000015_Node000016" class="edge">
<title>Node15&#45;&gt;Node16</title>
<g id="a_edge15_Node000015_Node000016"><a xlink:title=" ">
<path fill="none" stroke="#63b8ff" d="M1401.41,-428.5C1413.66,-428.5 1426.4,-428.5 1438.78,-428.5"/>
<polygon fill="#63b8ff" stroke="#63b8ff" points="1401.25,-425 1391.25,-428.5 1401.25,-432 1401.25,-425"/>
</a>
</g>
</g>
<!-- Node18 -->
<g id="Node000018" class="node">
<title>Node18</title>
<g id="a_Node000018"><a xlink:href="classDynExpInstr_1_1NIDAQDigitalOut.html" target="_top" xlink:title=" ">
<polygon fill="white" stroke="#666666" points="1603.5,-401 1439.5,-401 1439.5,-382 1603.5,-382 1603.5,-401"/>
<text text-anchor="middle" x="1521.5" y="-389" font-family="Helvetica,sans-Serif" font-size="10.00">DynExpInstr::NIDAQDigitalOut</text>
</a>
</g>
</g>
<!-- Node17&#45;&gt;Node18 -->
<g id="edge17_Node000017_Node000018" class="edge">
<title>Node17&#45;&gt;Node18</title>
<g id="a_edge17_Node000017_Node000018"><a xlink:title=" ">
<path fill="none" stroke="#63b8ff" d="M1400.28,-391.5C1413.06,-391.5 1426.4,-391.5 1439.34,-391.5"/>
<polygon fill="#63b8ff" stroke="#63b8ff" points="1400.16,-388 1390.16,-391.5 1400.16,-395 1400.16,-388"/>
</a>
</g>
</g>
<!-- Node23 -->
<g id="Node000023" class="node">
<title>Node23</title>
<g id="a_Node000023"><a xlink:href="classDynExpInstr_1_1AnalogIn.html" target="_top" xlink:title="Meta instrument for a single analog input port based on the data stream and generic input port meta i...">
<polygon fill="white" stroke="#666666" points="1178,-260 1053,-260 1053,-241 1178,-241 1178,-260"/>
<text text-anchor="middle" x="1115.5" y="-248" font-family="Helvetica,sans-Serif" font-size="10.00">DynExpInstr::AnalogIn</text>
</a>
</g>
</g>
<!-- Node22&#45;&gt;Node23 -->
<g id="edge22_Node000022_Node000023" class="edge">
<title>Node22&#45;&gt;Node23</title>
<g id="a_edge22_Node000022_Node000023"><a xlink:title=" ">
<path fill="none" stroke="#63b8ff" d="M931.25,-252.65C969.63,-252.2 1016.29,-251.65 1052.93,-251.22"/>
<polygon fill="#63b8ff" stroke="#63b8ff" points="931.13,-249.15 921.18,-252.77 931.22,-256.15 931.13,-249.15"/>
</a>
</g>
</g>
<!-- Node25 -->
<g id="Node000025" class="node">
<title>Node25</title>
<g id="a_Node000025"><a xlink:href="classDynExpInstr_1_1DigitalIn.html" target="_top" xlink:title="Meta instrument for a single digital input port based on the data stream and generic input port meta ...">
<polygon fill="white" stroke="#666666" points="1177,-223 1054,-223 1054,-204 1177,-204 1177,-223"/>
<text text-anchor="middle" x="1115.5" y="-211" font-family="Helvetica,sans-Serif" font-size="10.00">DynExpInstr::DigitalIn</text>
</a>
</g>
</g>
<!-- Node22&#45;&gt;Node25 -->
<g id="edge24_Node000022_Node000025" class="edge">
<title>Node22&#45;&gt;Node25</title>
<g id="a_edge24_Node000022_Node000025"><a xlink:title=" ">
<path fill="none" stroke="#63b8ff" d="M931.37,-242.73C948.93,-240.08 967.64,-237.22 985,-234.5 1008.4,-230.84 1034.16,-226.69 1056.5,-223.05"/>
<polygon fill="#63b8ff" stroke="#63b8ff" points="930.55,-239.31 921.19,-244.26 931.6,-246.23 930.55,-239.31"/>
</a>
</g>
</g>
<!-- Node24 -->
<g id="Node000024" class="node">
<title>Node24</title>
<g id="a_Node000024"><a xlink:href="classDynExpInstr_1_1NIDAQAnalogIn.html" target="_top" xlink:title=" ">
<polygon fill="white" stroke="#666666" points="1403,-260 1246,-260 1246,-241 1403,-241 1403,-260"/>
<text text-anchor="middle" x="1324.5" y="-248" font-family="Helvetica,sans-Serif" font-size="10.00">DynExpInstr::NIDAQAnalogIn</text>
</a>
</g>
</g>
<!-- Node23&#45;&gt;Node24 -->
<g id="edge23_Node000023_Node000024" class="edge">
<title>Node23&#45;&gt;Node24</title>
<g id="a_edge23_Node000023_Node000024"><a xlink:title=" ">
<path fill="none" stroke="#63b8ff" d="M1188.18,-250.5C1206.73,-250.5 1226.79,-250.5 1245.65,-250.5"/>
<polygon fill="#63b8ff" stroke="#63b8ff" points="1188.05,-247 1178.05,-250.5 1188.05,-254 1188.05,-247"/>
</a>
</g>
</g>
<!-- Node26 -->
<g id="Node000026" class="node">
<title>Node26</title>
<g id="a_Node000026"><a xlink:href="classDynExpInstr_1_1NIDAQDigitalIn.html" target="_top" xlink:title=" ">
<polygon fill="white" stroke="#666666" points="1402,-223 1247,-223 1247,-204 1402,-204 1402,-223"/>
<text text-anchor="middle" x="1324.5" y="-211" font-family="Helvetica,sans-Serif" font-size="10.00">DynExpInstr::NIDAQDigitalIn</text>
</a>
</g>
</g>
<!-- Node25&#45;&gt;Node26 -->
<g id="edge25_Node000025_Node000026" class="edge">
<title>Node25&#45;&gt;Node26</title>
<g id="a_edge25_Node000025_Node000026"><a xlink:title=" ">
<path fill="none" stroke="#63b8ff" d="M1187.38,-213.5C1206.59,-213.5 1227.46,-213.5 1246.96,-213.5"/>
<polygon fill="#63b8ff" stroke="#63b8ff" points="1187.21,-210 1177.21,-213.5 1187.21,-217 1187.21,-210"/>
</a>
</g>
</g>
<!-- Node28 -->
<g id="Node000028" class="node">
<title>Node28</title>
<g id="a_Node000028"><a xlink:href="classDynExpInstr_1_1ZI__MFLI.html" target="_top" xlink:title=" ">
<polygon fill="white" stroke="#666666" points="1175.5,-186 1055.5,-186 1055.5,-167 1175.5,-167 1175.5,-186"/>
<text text-anchor="middle" x="1115.5" y="-174" font-family="Helvetica,sans-Serif" font-size="10.00">DynExpInstr::ZI_MFLI</text>
</a>
</g>
</g>
<!-- Node27&#45;&gt;Node28 -->
<g id="edge27_Node000027_Node000028" class="edge">
<title>Node27&#45;&gt;Node28</title>
<g id="a_edge27_Node000027_Node000028"><a xlink:title=" ">
<path fill="none" stroke="#63b8ff" d="M933.04,-205.48C950.11,-202.89 968.19,-200.13 985,-197.5 1008.4,-193.84 1034.16,-189.69 1056.5,-186.05"/>
<polygon fill="#63b8ff" stroke="#63b8ff" points="932.49,-202.02 923.12,-206.97 933.53,-208.94 932.49,-202.02"/>
</a>
</g>
</g>
<!-- Node30 -->
<g id="Node000030" class="node">
<title>Node30</title>
<g id="a_Node000030"><a xlink:href="classDynExpInstr_1_1QutoolsQuTAG.html" target="_top" xlink:title=" ">
<polygon fill="white" stroke="#666666" points="1191.5,-149 1039.5,-149 1039.5,-130 1191.5,-130 1191.5,-149"/>
<text text-anchor="middle" x="1115.5" y="-137" font-family="Helvetica,sans-Serif" font-size="10.00">DynExpInstr::QutoolsQuTAG</text>
</a>
</g>
</g>
<!-- Node29&#45;&gt;Node30 -->
<g id="edge29_Node000029_Node000030" class="edge">
<title>Node29&#45;&gt;Node30</title>
<g id="a_edge29_Node000029_Node000030"><a xlink:title=" ">
<path fill="none" stroke="#63b8ff" d="M933.04,-168.48C950.11,-165.89 968.19,-163.13 985,-160.5 1008.4,-156.84 1034.16,-152.69 1056.5,-149.05"/>
<polygon fill="#63b8ff" stroke="#63b8ff" points="932.49,-165.02 923.12,-169.97 933.53,-171.94 932.49,-165.02"/>
</a>
</g>
</g>
<!-- Node33 -->
<g id="Node000033" class="node">
<title>Node33</title>
<g id="a_Node000033"><a xlink:href="classDynExpInstr_1_1NenionLeakvalveF3.html" target="_top" xlink:title=" ">
<polygon fill="white" stroke="#666666" points="947.5,-152 768.5,-152 768.5,-133 947.5,-133 947.5,-152"/>
<text text-anchor="middle" x="858" y="-140" font-family="Helvetica,sans-Serif" font-size="10.00">DynExpInstr::NenionLeakvalveF3</text>
</a>
</g>
</g>
<!-- Node32&#45;&gt;Node33 -->
<g id="edge32_Node000032_Node000033" class="edge">
<title>Node32&#45;&gt;Node33</title>
<g id="a_edge32_Node000032_Node000033"><a xlink:title=" ">
<path fill="none" stroke="#63b8ff" d="M681.95,-130.54C709.77,-132.44 740.49,-134.54 768.33,-136.44"/>
<polygon fill="#63b8ff" stroke="#63b8ff" points="682.06,-127.04 671.85,-129.85 681.58,-134.03 682.06,-127.04"/>
</a>
</g>
</g>
<!-- Node34 -->
<g id="Node000034" class="node">
<title>Node34</title>
<g id="a_Node000034"><a xlink:href="classDynExpInstr_1_1PI__C__862.html" target="_top" xlink:title=" ">
<polygon fill="white" stroke="#666666" points="921,-115 795,-115 795,-96 921,-96 921,-115"/>
<text text-anchor="middle" x="858" y="-103" font-family="Helvetica,sans-Serif" font-size="10.00">DynExpInstr::PI_C_862</text>
</a>
</g>
</g>
<!-- Node32&#45;&gt;Node34 -->
<g id="edge33_Node000032_Node000034" class="edge">
<title>Node32&#45;&gt;Node34</title>
<g id="a_edge33_Node000032_Node000034"><a xlink:title=" ">
<path fill="none" stroke="#63b8ff" d="M682.13,-118.11C719.13,-115.44 761.22,-112.41 794.83,-109.98"/>
<polygon fill="#63b8ff" stroke="#63b8ff" points="681.57,-114.64 671.85,-118.85 682.07,-121.62 681.57,-114.64"/>
</a>
</g>
</g>
<!-- Node35 -->
<g id="Node000035" class="node">
<title>Node35</title>
<g id="a_Node000035"><a xlink:href="classDynExpInstr_1_1SmarAct.html" target="_top" xlink:title=" ">
<polygon fill="white" stroke="#666666" points="919.5,-78 796.5,-78 796.5,-59 919.5,-59 919.5,-78"/>
<text text-anchor="middle" x="858" y="-66" font-family="Helvetica,sans-Serif" font-size="10.00">DynExpInstr::SmarAct</text>
</a>
</g>
</g>
<!-- Node32&#45;&gt;Node35 -->
<g id="edge34_Node000032_Node000035" class="edge">
<title>Node32&#45;&gt;Node35</title>
<g id="a_edge34_Node000032_Node000035"><a xlink:title=" ">
<path fill="none" stroke="#63b8ff" d="M633.39,-112.02C660.66,-103.85 697.75,-93.44 731,-86.5 752.2,-82.08 775.63,-78.4 796.48,-75.55"/>
<polygon fill="#63b8ff" stroke="#63b8ff" points="632.37,-108.67 623.81,-114.92 634.39,-115.37 632.37,-108.67"/>
</a>
</g>
</g>
<!-- Node37 -->
<g id="Node000037" class="node">
<title>Node37</title>
<g id="a_Node000037"><a xlink:href="classDynExpInstr_1_1gRPCInstrument.html" target="_top" xlink:title=" ">
<polygon fill="white" stroke="#666666" points="985,-41 731,-41 731,0 985,0 985,-41"/>
<text text-anchor="start" x="739" y="-29" font-family="Helvetica,sans-Serif" font-size="10.00">DynExpInstr::gRPCInstrument</text>
<text text-anchor="start" x="739" y="-18" font-family="Helvetica,sans-Serif" font-size="10.00">&lt; Spectrometer, 0, DynExpProto</text>
<text text-anchor="middle" x="858" y="-7" font-family="Helvetica,sans-Serif" font-size="10.00">::NetworkSpectrometer::NetworkSpectrometer &gt;</text>
</a>
</g>
</g>
<!-- Node36&#45;&gt;Node37 -->
<g id="edge36_Node000036_Node000037" class="edge">
<title>Node36&#45;&gt;Node37</title>
<g id="a_edge36_Node000036_Node000037"><a xlink:title=" ">
<path fill="none" stroke="#63b8ff" d="M676.58,-37.62C693.89,-35.98 712.51,-34.21 730.97,-32.46"/>
<polygon fill="#63b8ff" stroke="#63b8ff" points="676.17,-34.14 666.55,-38.57 676.84,-41.11 676.17,-34.14"/>
</a>
</g>
</g>
<!-- Node38 -->
<g id="Node000038" class="node">
<title>Node38</title>
<g id="a_Node000038"><a xlink:href="classDynExpInstr_1_1NetworkSpectrometer.html" target="_top" xlink:title=" ">
<polygon fill="white" stroke="#666666" points="1210,-30 1021,-30 1021,-11 1210,-11 1210,-30"/>
<text text-anchor="middle" x="1115.5" y="-18" font-family="Helvetica,sans-Serif" font-size="10.00">DynExpInstr::NetworkSpectrometer</text>
</a>
</g>
</g>
<!-- Node37&#45;&gt;Node38 -->
<g id="edge37_Node000037_Node000038" class="edge">
<title>Node37&#45;&gt;Node38</title>
<g id="a_edge37_Node000037_Node000038"><a xlink:title=" ">
<path fill="none" stroke="#63b8ff" d="M995.33,-20.5C1003.89,-20.5 1012.41,-20.5 1020.72,-20.5"/>
<polygon fill="#63b8ff" stroke="#63b8ff" points="995.25,-17 985.25,-20.5 995.25,-24 995.25,-17"/>
</a>
</g>
</g>
</g>
</svg>
