<?xml version="1.0" encoding="UTF-8" standalone="no"?>
<!DOCTYPE svg PUBLIC "-//W3C//DTD SVG 1.1//EN"
 "http://www.w3.org/Graphics/SVG/1.1/DTD/svg11.dtd">
<!-- Generated by graphviz version 2.43.0 (0)
 -->
<!-- Title: DynExp::InstrumentParamsBase Pages: 1 -->
<svg width="1923pt" height="480pt"
 viewBox="0.00 0.00 1923.00 479.50" xmlns="http://www.w3.org/2000/svg" xmlns:xlink="http://www.w3.org/1999/xlink">
<g id="graph0" class="graph" transform="scale(1 1) rotate(0) translate(4 475.5)">
<title>DynExp::InstrumentParamsBase</title>
<polygon fill="white" stroke="transparent" points="-4,4 -4,-475.5 1919,-475.5 1919,4 -4,4"/>
<!-- Node1 -->
<g id="node1" class="node">
<title>Node1</title>
<g id="a_node1"><a xlink:title="Parameter class for InstrumentBase.">
<polygon fill="#bfbfbf" stroke="black" points="688,-137.5 688,-156.5 861,-156.5 861,-137.5 688,-137.5"/>
<text text-anchor="middle" x="774.5" y="-144.5" font-family="Helvetica,sans-Serif" font-size="10.00">DynExp::InstrumentParamsBase</text>
</a>
</g>
</g>
<!-- Node6 -->
<g id="node6" class="node">
<title>Node6</title>
<g id="a_node6"><a xlink:href="classDynExpInstr_1_1CameraParams.html" target="_top" xlink:title="Parameter class for Camera.">
<polygon fill="white" stroke="black" points="916,-370.5 916,-389.5 1072,-389.5 1072,-370.5 916,-370.5"/>
<text text-anchor="middle" x="994" y="-377.5" font-family="Helvetica,sans-Serif" font-size="10.00">DynExpInstr::CameraParams</text>
</a>
</g>
</g>
<!-- Node1&#45;&gt;Node6 -->
<g id="edge5" class="edge">
<title>Node1&#45;&gt;Node6</title>
<path fill="none" stroke="midnightblue" d="M791.44,-164.08C834.2,-209.89 950.46,-334.43 983.89,-370.24"/>
<polygon fill="midnightblue" stroke="midnightblue" points="793.95,-161.64 784.57,-156.72 788.83,-166.41 793.95,-161.64"/>
</g>
<!-- Node9 -->
<g id="node9" class="node">
<title>Node9</title>
<g id="a_node9"><a xlink:href="classDynExpInstr_1_1DataStreamInstrumentParams.html" target="_top" xlink:title="Parameter class for DataStreamInstrument.">
<polygon fill="white" stroke="black" points="897,-181 897,-211 1091,-211 1091,-181 897,-181"/>
<text text-anchor="start" x="905" y="-199" font-family="Helvetica,sans-Serif" font-size="10.00">DynExpInstr::DataStreamInstrument</text>
<text text-anchor="middle" x="994" y="-188" font-family="Helvetica,sans-Serif" font-size="10.00">Params</text>
</a>
</g>
</g>
<!-- Node1&#45;&gt;Node9 -->
<g id="edge8" class="edge">
<title>Node1&#45;&gt;Node9</title>
<path fill="none" stroke="midnightblue" d="M827.79,-158.78C857.3,-165.43 894.49,-173.81 926.1,-180.93"/>
<polygon fill="midnightblue" stroke="midnightblue" points="828.22,-155.29 817.69,-156.51 826.68,-162.12 828.22,-155.29"/>
</g>
<!-- Node29 -->
<g id="node29" class="node">
<title>Node29</title>
<g id="a_node29"><a xlink:href="classDynExpInstr_1_1InterModuleCommunicatorParams.html" target="_top" xlink:title="Parameter class for InterModuleCommunicator.">
<polygon fill="white" stroke="black" points="924,-132 924,-162 1064,-162 1064,-132 924,-132"/>
<text text-anchor="start" x="932" y="-150" font-family="Helvetica,sans-Serif" font-size="10.00">DynExpInstr::InterModule</text>
<text text-anchor="middle" x="994" y="-139" font-family="Helvetica,sans-Serif" font-size="10.00">CommunicatorParams</text>
</a>
</g>
</g>
<!-- Node1&#45;&gt;Node29 -->
<g id="edge28" class="edge">
<title>Node1&#45;&gt;Node29</title>
<path fill="none" stroke="midnightblue" d="M871.47,-147C889.11,-147 907.21,-147 923.87,-147"/>
<polygon fill="midnightblue" stroke="midnightblue" points="871.15,-143.5 861.15,-147 871.15,-150.5 871.15,-143.5"/>
</g>
<!-- Node30 -->
<g id="node30" class="node">
<title>Node30</title>
<g id="a_node30"><a xlink:href="classDynExpInstr_1_1PositionerStageParams.html" target="_top" xlink:title="Parameter class for PositionerStage.">
<polygon fill="white" stroke="black" points="915,-83 915,-113 1073,-113 1073,-83 915,-83"/>
<text text-anchor="start" x="923" y="-101" font-family="Helvetica,sans-Serif" font-size="10.00">DynExpInstr::PositionerStage</text>
<text text-anchor="middle" x="994" y="-90" font-family="Helvetica,sans-Serif" font-size="10.00">Params</text>
</a>
</g>
</g>
<!-- Node1&#45;&gt;Node30 -->
<g id="edge29" class="edge">
<title>Node1&#45;&gt;Node30</title>
<path fill="none" stroke="midnightblue" d="M827.79,-135.22C857.3,-128.57 894.49,-120.19 926.1,-113.07"/>
<polygon fill="midnightblue" stroke="midnightblue" points="826.68,-131.88 817.69,-137.49 828.22,-138.71 826.68,-131.88"/>
</g>
<!-- Node34 -->
<g id="node34" class="node">
<title>Node34</title>
<g id="a_node34"><a xlink:href="classDynExpInstr_1_1SpectrometerParams.html" target="_top" xlink:title="Parameter class for Spectrometer.">
<polygon fill="white" stroke="black" points="920,-34 920,-64 1068,-64 1068,-34 920,-34"/>
<text text-anchor="start" x="928" y="-52" font-family="Helvetica,sans-Serif" font-size="10.00">DynExpInstr::Spectrometer</text>
<text text-anchor="middle" x="994" y="-41" font-family="Helvetica,sans-Serif" font-size="10.00">Params</text>
</a>
</g>
</g>
<!-- Node1&#45;&gt;Node34 -->
<g id="edge33" class="edge">
<title>Node1&#45;&gt;Node34</title>
<path fill="none" stroke="midnightblue" d="M796.42,-131.53C819.83,-114.89 859.42,-88.71 897,-73 905.08,-69.62 913.76,-66.63 922.46,-64.02"/>
<polygon fill="midnightblue" stroke="midnightblue" points="794.34,-128.72 788.28,-137.4 798.44,-134.39 794.34,-128.72"/>
</g>
<!-- Node2 -->
<g id="node2" class="node">
<title>Node2</title>
<g id="a_node2"><a xlink:href="classDynExp_1_1RunnableObjectParams.html" target="_top" xlink:title="Parameter class for RunnableObject.">
<polygon fill="white" stroke="black" points="479,-137.5 479,-156.5 652,-156.5 652,-137.5 479,-137.5"/>
<text text-anchor="middle" x="565.5" y="-144.5" font-family="Helvetica,sans-Serif" font-size="10.00">DynExp::RunnableObjectParams</text>
</a>
</g>
</g>
<!-- Node2&#45;&gt;Node1 -->
<g id="edge1" class="edge">
<title>Node2&#45;&gt;Node1</title>
<path fill="none" stroke="midnightblue" d="M662.2,-147C670.76,-147 679.4,-147 687.88,-147"/>
<polygon fill="midnightblue" stroke="midnightblue" points="662.19,-143.5 652.19,-147 662.19,-150.5 662.19,-143.5"/>
</g>
<!-- Node3 -->
<g id="node3" class="node">
<title>Node3</title>
<g id="a_node3"><a xlink:href="classDynExp_1_1ParamsBase.html" target="_top" xlink:title="Abstract base class for object parameter classes. Each class derived from class Object must be accomp...">
<polygon fill="white" stroke="black" points="323,-137.5 323,-156.5 443,-156.5 443,-137.5 323,-137.5"/>
<text text-anchor="middle" x="383" y="-144.5" font-family="Helvetica,sans-Serif" font-size="10.00">DynExp::ParamsBase</text>
</a>
</g>
</g>
<!-- Node3&#45;&gt;Node2 -->
<g id="edge2" class="edge">
<title>Node3&#45;&gt;Node2</title>
<path fill="none" stroke="midnightblue" d="M453.17,-147C461.54,-147 470.17,-147 478.75,-147"/>
<polygon fill="midnightblue" stroke="midnightblue" points="453.1,-143.5 443.1,-147 453.1,-150.5 453.1,-143.5"/>
</g>
<!-- Node4 -->
<g id="node4" class="node">
<title>Node4</title>
<g id="a_node4"><a xlink:href="classUtil_1_1ISynchronizedPointerLockable.html" target="_top" xlink:title="Interface to allow synchronizing the access to derived classes between different threads by making th...">
<polygon fill="white" stroke="black" points="144,-132 144,-162 287,-162 287,-132 144,-132"/>
<text text-anchor="start" x="152" y="-150" font-family="Helvetica,sans-Serif" font-size="10.00">Util::ISynchronizedPointer</text>
<text text-anchor="middle" x="215.5" y="-139" font-family="Helvetica,sans-Serif" font-size="10.00">Lockable</text>
</a>
</g>
</g>
<!-- Node4&#45;&gt;Node3 -->
<g id="edge3" class="edge">
<title>Node4&#45;&gt;Node3</title>
<path fill="none" stroke="midnightblue" d="M297.23,-147C305.84,-147 314.47,-147 322.76,-147"/>
<polygon fill="midnightblue" stroke="midnightblue" points="297.17,-143.5 287.17,-147 297.17,-150.5 297.17,-143.5"/>
</g>
<!-- Node5 -->
<g id="node5" class="node">
<title>Node5</title>
<g id="a_node5"><a xlink:href="classUtil_1_1INonCopyable.html" target="_top" xlink:title="Interface to delete copy constructor and copy assignment operator and thus make derived classes non&#45;c...">
<polygon fill="white" stroke="black" points="0,-137.5 0,-156.5 108,-156.5 108,-137.5 0,-137.5"/>
<text text-anchor="middle" x="54" y="-144.5" font-family="Helvetica,sans-Serif" font-size="10.00">Util::INonCopyable</text>
</a>
</g>
</g>
<!-- Node5&#45;&gt;Node4 -->
<g id="edge4" class="edge">
<title>Node5&#45;&gt;Node4</title>
<path fill="none" stroke="midnightblue" d="M118.19,-147C126.58,-147 135.23,-147 143.74,-147"/>
<polygon fill="midnightblue" stroke="midnightblue" points="118.11,-143.5 108.11,-147 118.11,-150.5 118.11,-143.5"/>
</g>
<!-- Node7 -->
<g id="node7" class="node">
<title>Node7</title>
<g id="a_node7"><a xlink:href="classDynExpInstr_1_1DummyCameraParams.html" target="_top" xlink:title=" ">
<polygon fill="white" stroke="black" points="1135,-409 1135,-439 1294,-439 1294,-409 1135,-409"/>
<text text-anchor="start" x="1143" y="-427" font-family="Helvetica,sans-Serif" font-size="10.00">DynExpInstr::DummyCamera</text>
<text text-anchor="middle" x="1214.5" y="-416" font-family="Helvetica,sans-Serif" font-size="10.00">Params</text>
</a>
</g>
</g>
<!-- Node6&#45;&gt;Node7 -->
<g id="edge6" class="edge">
<title>Node6&#45;&gt;Node7</title>
<path fill="none" stroke="midnightblue" d="M1052.26,-391.53C1078.69,-396.85 1110.4,-403.24 1138.69,-408.93"/>
<polygon fill="midnightblue" stroke="midnightblue" points="1052.91,-388.09 1042.41,-389.55 1051.52,-394.95 1052.91,-388.09"/>
</g>
<!-- Node8 -->
<g id="node8" class="node">
<title>Node8</title>
<g id="a_node8"><a xlink:href="classDynExpInstr_1_1PVCamParams.html" target="_top" xlink:title=" ">
<polygon fill="white" stroke="black" points="1138,-370.5 1138,-389.5 1291,-389.5 1291,-370.5 1138,-370.5"/>
<text text-anchor="middle" x="1214.5" y="-377.5" font-family="Helvetica,sans-Serif" font-size="10.00">DynExpInstr::PVCamParams</text>
</a>
</g>
</g>
<!-- Node6&#45;&gt;Node8 -->
<g id="edge7" class="edge">
<title>Node6&#45;&gt;Node8</title>
<path fill="none" stroke="midnightblue" d="M1082.17,-380C1100.61,-380 1119.93,-380 1137.9,-380"/>
<polygon fill="midnightblue" stroke="midnightblue" points="1082.03,-376.5 1072.03,-380 1082.03,-383.5 1082.03,-376.5"/>
</g>
<!-- Node10 -->
<g id="node10" class="node">
<title>Node10</title>
<g id="a_node10"><a xlink:href="classDynExpInstr_1_1FunctionGeneratorParams.html" target="_top" xlink:title="Parameter class for FunctionGenerator.">
<polygon fill="white" stroke="black" points="1128.5,-321 1128.5,-351 1300.5,-351 1300.5,-321 1128.5,-321"/>
<text text-anchor="start" x="1136.5" y="-339" font-family="Helvetica,sans-Serif" font-size="10.00">DynExpInstr::FunctionGenerator</text>
<text text-anchor="middle" x="1214.5" y="-328" font-family="Helvetica,sans-Serif" font-size="10.00">Params</text>
</a>
</g>
</g>
<!-- Node9&#45;&gt;Node10 -->
<g id="edge9" class="edge">
<title>Node9&#45;&gt;Node10</title>
<path fill="none" stroke="midnightblue" d="M1027.49,-216.81C1072,-245.33 1150.88,-295.88 1190.06,-320.98"/>
<polygon fill="midnightblue" stroke="midnightblue" points="1029.11,-213.7 1018.8,-211.25 1025.33,-219.59 1029.11,-213.7"/>
</g>
<!-- Node20 -->
<g id="node20" class="node">
<title>Node20</title>
<g id="a_node20"><a xlink:href="classDynExpInstr_1_1InputPortParams.html" target="_top" xlink:title="Parameter class for InputPort.">
<polygon fill="white" stroke="black" points="1133.5,-225.5 1133.5,-244.5 1295.5,-244.5 1295.5,-225.5 1133.5,-225.5"/>
<text text-anchor="middle" x="1214.5" y="-232.5" font-family="Helvetica,sans-Serif" font-size="10.00">DynExpInstr::InputPortParams</text>
</a>
</g>
</g>
<!-- Node9&#45;&gt;Node20 -->
<g id="edge19" class="edge">
<title>Node9&#45;&gt;Node20</title>
<path fill="none" stroke="midnightblue" d="M1089.12,-212.8C1113.37,-217.13 1138.64,-221.64 1160.01,-225.45"/>
<polygon fill="midnightblue" stroke="midnightblue" points="1089.62,-209.33 1079.17,-211.02 1088.39,-216.23 1089.62,-209.33"/>
</g>
<!-- Node25 -->
<g id="node25" class="node">
<title>Node25</title>
<g id="a_node25"><a xlink:href="classDynExpInstr_1_1LockinAmplifierParams.html" target="_top" xlink:title="Parameter class for LockinAmplifier.">
<polygon fill="white" stroke="black" points="1135.5,-176 1135.5,-206 1293.5,-206 1293.5,-176 1135.5,-176"/>
<text text-anchor="start" x="1143.5" y="-194" font-family="Helvetica,sans-Serif" font-size="10.00">DynExpInstr::LockinAmplifier</text>
<text text-anchor="middle" x="1214.5" y="-183" font-family="Helvetica,sans-Serif" font-size="10.00">Params</text>
</a>
</g>
</g>
<!-- Node9&#45;&gt;Node25 -->
<g id="edge24" class="edge">
<title>Node9&#45;&gt;Node25</title>
<path fill="none" stroke="midnightblue" d="M1101.23,-193.57C1112.72,-193.31 1124.26,-193.04 1135.34,-192.79"/>
<polygon fill="midnightblue" stroke="midnightblue" points="1101.07,-190.07 1091.16,-193.8 1101.23,-197.07 1101.07,-190.07"/>
</g>
<!-- Node27 -->
<g id="node27" class="node">
<title>Node27</title>
<g id="a_node27"><a xlink:href="classDynExpInstr_1_1TimeTaggerParams.html" target="_top" xlink:title="Parameter class for TimeTagger.">
<polygon fill="white" stroke="black" points="1127,-137.5 1127,-156.5 1302,-156.5 1302,-137.5 1127,-137.5"/>
<text text-anchor="middle" x="1214.5" y="-144.5" font-family="Helvetica,sans-Serif" font-size="10.00">DynExpInstr::TimeTaggerParams</text>
</a>
</g>
</g>
<!-- Node9&#45;&gt;Node27 -->
<g id="edge26" class="edge">
<title>Node9&#45;&gt;Node27</title>
<path fill="none" stroke="midnightblue" d="M1072.2,-178.69C1105.42,-171.24 1142.97,-162.82 1171.01,-156.53"/>
<polygon fill="midnightblue" stroke="midnightblue" points="1071.03,-175.36 1062.04,-180.97 1072.57,-182.19 1071.03,-175.36"/>
</g>
<!-- Node11 -->
<g id="node11" class="node">
<title>Node11</title>
<g id="a_node11"><a xlink:href="classDynExpInstr_1_1DummyDataStreamInstrumentParams.html" target="_top" xlink:title=" ">
<polygon fill="white" stroke="black" points="1342.5,-441 1342.5,-471 1521.5,-471 1521.5,-441 1342.5,-441"/>
<text text-anchor="start" x="1350.5" y="-459" font-family="Helvetica,sans-Serif" font-size="10.00">DynExpInstr::DummyDataStream</text>
<text text-anchor="middle" x="1432" y="-448" font-family="Helvetica,sans-Serif" font-size="10.00">InstrumentParams</text>
</a>
</g>
</g>
<!-- Node10&#45;&gt;Node11 -->
<g id="edge10" class="edge">
<title>Node10&#45;&gt;Node11</title>
<path fill="none" stroke="midnightblue" d="M1295.52,-356.25C1297.77,-357.73 1299.94,-359.31 1302,-361 1329.01,-383.23 1310.78,-409.02 1338,-431 1342.81,-434.89 1348.18,-438.17 1353.83,-440.95"/>
<polygon fill="midnightblue" stroke="midnightblue" points="1296.86,-352.99 1286.44,-351.09 1293.4,-359.08 1296.86,-352.99"/>
</g>
<!-- Node12 -->
<g id="node12" class="node">
<title>Node12</title>
<g id="a_node12"><a xlink:href="classDynExpInstr_1_1OutputPortParams.html" target="_top" xlink:title="Parameter class for OutputPort.">
<polygon fill="white" stroke="black" points="1347,-402.5 1347,-421.5 1517,-421.5 1517,-402.5 1347,-402.5"/>
<text text-anchor="middle" x="1432" y="-409.5" font-family="Helvetica,sans-Serif" font-size="10.00">DynExpInstr::OutputPortParams</text>
</a>
</g>
</g>
<!-- Node10&#45;&gt;Node12 -->
<g id="edge11" class="edge">
<title>Node10&#45;&gt;Node12</title>
<path fill="none" stroke="midnightblue" d="M1288.99,-354.7C1293.48,-356.62 1297.86,-358.71 1302,-361 1320.75,-371.34 1318.86,-383.42 1338,-393 1345.81,-396.91 1354.37,-400.01 1363.04,-402.48"/>
<polygon fill="midnightblue" stroke="midnightblue" points="1290.23,-351.43 1279.64,-351.01 1287.66,-357.94 1290.23,-351.43"/>
</g>
<!-- Node17 -->
<g id="node17" class="node">
<title>Node17</title>
<g id="a_node17"><a xlink:href="classDynExpInstr_1_1RS__SMB100BParams.html" target="_top" xlink:title=" ">
<polygon fill="white" stroke="black" points="1341,-364.5 1341,-383.5 1523,-383.5 1523,-364.5 1341,-364.5"/>
<text text-anchor="middle" x="1432" y="-371.5" font-family="Helvetica,sans-Serif" font-size="10.00">DynExpInstr::RS_SMB100BParams</text>
</a>
</g>
</g>
<!-- Node10&#45;&gt;Node17 -->
<g id="edge16" class="edge">
<title>Node10&#45;&gt;Node17</title>
<path fill="none" stroke="midnightblue" d="M1310.71,-352.79C1333.47,-356.8 1356.98,-360.95 1377.12,-364.5"/>
<polygon fill="midnightblue" stroke="midnightblue" points="1311.13,-349.31 1300.67,-351.02 1309.91,-356.2 1311.13,-349.31"/>
</g>
<!-- Node18 -->
<g id="node18" class="node">
<title>Node18</title>
<g id="a_node18"><a xlink:href="classDynExpInstr_1_1RS__SMC100AParams.html" target="_top" xlink:title=" ">
<polygon fill="white" stroke="black" points="1341,-326.5 1341,-345.5 1523,-345.5 1523,-326.5 1341,-326.5"/>
<text text-anchor="middle" x="1432" y="-333.5" font-family="Helvetica,sans-Serif" font-size="10.00">DynExpInstr::RS_SMC100AParams</text>
</a>
</g>
</g>
<!-- Node10&#45;&gt;Node18 -->
<g id="edge17" class="edge">
<title>Node10&#45;&gt;Node18</title>
<path fill="none" stroke="midnightblue" d="M1310.94,-336C1320.86,-336 1330.92,-336 1340.78,-336"/>
<polygon fill="midnightblue" stroke="midnightblue" points="1310.67,-332.5 1300.67,-336 1310.67,-339.5 1310.67,-332.5"/>
</g>
<!-- Node19 -->
<g id="node19" class="node">
<title>Node19</title>
<g id="a_node19"><a xlink:href="classDynExpInstr_1_1SwabianInstrumentsPulseStreamerParams.html" target="_top" xlink:title=" ">
<polygon fill="white" stroke="black" points="1341,-277 1341,-307 1523,-307 1523,-277 1341,-277"/>
<text text-anchor="start" x="1349" y="-295" font-family="Helvetica,sans-Serif" font-size="10.00">DynExpInstr::SwabianInstruments</text>
<text text-anchor="middle" x="1432" y="-284" font-family="Helvetica,sans-Serif" font-size="10.00">PulseStreamerParams</text>
</a>
</g>
</g>
<!-- Node10&#45;&gt;Node19 -->
<g id="edge18" class="edge">
<title>Node10&#45;&gt;Node19</title>
<path fill="none" stroke="midnightblue" d="M1299.02,-318.95C1318.27,-315.02 1338.61,-310.86 1357.41,-307.03"/>
<polygon fill="midnightblue" stroke="midnightblue" points="1298.16,-315.55 1289.06,-320.98 1299.56,-322.41 1298.16,-315.55"/>
</g>
<!-- Node13 -->
<g id="node13" class="node">
<title>Node13</title>
<g id="a_node13"><a xlink:href="classDynExpInstr_1_1AnalogOutParams.html" target="_top" xlink:title="Parameter class for AnalogOut.">
<polygon fill="white" stroke="black" points="1562,-423.5 1562,-442.5 1731,-442.5 1731,-423.5 1562,-423.5"/>
<text text-anchor="middle" x="1646.5" y="-430.5" font-family="Helvetica,sans-Serif" font-size="10.00">DynExpInstr::AnalogOutParams</text>
</a>
</g>
</g>
<!-- Node12&#45;&gt;Node13 -->
<g id="edge12" class="edge">
<title>Node12&#45;&gt;Node13</title>
<path fill="none" stroke="midnightblue" d="M1527.29,-421.32C1538.74,-422.45 1550.38,-423.6 1561.66,-424.71"/>
<polygon fill="midnightblue" stroke="midnightblue" points="1527.59,-417.83 1517.29,-420.33 1526.9,-424.8 1527.59,-417.83"/>
</g>
<!-- Node15 -->
<g id="node15" class="node">
<title>Node15</title>
<g id="a_node15"><a xlink:href="classDynExpInstr_1_1DigitalOutParams.html" target="_top" xlink:title="Parameter class for DigitalOut.">
<polygon fill="white" stroke="black" points="1563,-380.5 1563,-399.5 1730,-399.5 1730,-380.5 1563,-380.5"/>
<text text-anchor="middle" x="1646.5" y="-387.5" font-family="Helvetica,sans-Serif" font-size="10.00">DynExpInstr::DigitalOutParams</text>
</a>
</g>
</g>
<!-- Node12&#45;&gt;Node15 -->
<g id="edge14" class="edge">
<title>Node12&#45;&gt;Node15</title>
<path fill="none" stroke="midnightblue" d="M1527.53,-402.21C1539.25,-401 1551.17,-399.77 1562.7,-398.57"/>
<polygon fill="midnightblue" stroke="midnightblue" points="1526.88,-398.76 1517.29,-403.27 1527.6,-405.72 1526.88,-398.76"/>
</g>
<!-- Node14 -->
<g id="node14" class="node">
<title>Node14</title>
<g id="a_node14"><a xlink:href="classDynExpInstr_1_1NIDAQAnalogOutParams.html" target="_top" xlink:title=" ">
<polygon fill="white" stroke="black" points="1767,-421 1767,-451 1915,-451 1915,-421 1767,-421"/>
<text text-anchor="start" x="1775" y="-439" font-family="Helvetica,sans-Serif" font-size="10.00">DynExpInstr::NIDAQAnalog</text>
<text text-anchor="middle" x="1841" y="-428" font-family="Helvetica,sans-Serif" font-size="10.00">OutParams</text>
</a>
</g>
</g>
<!-- Node13&#45;&gt;Node14 -->
<g id="edge13" class="edge">
<title>Node13&#45;&gt;Node14</title>
<path fill="none" stroke="midnightblue" d="M1741.16,-434.46C1749.75,-434.59 1758.38,-434.73 1766.75,-434.86"/>
<polygon fill="midnightblue" stroke="midnightblue" points="1741.15,-430.96 1731.09,-434.3 1741.04,-437.96 1741.15,-430.96"/>
</g>
<!-- Node16 -->
<g id="node16" class="node">
<title>Node16</title>
<g id="a_node16"><a xlink:href="classDynExpInstr_1_1NIDAQDigitalOutParams.html" target="_top" xlink:title=" ">
<polygon fill="white" stroke="black" points="1768,-372 1768,-402 1914,-402 1914,-372 1768,-372"/>
<text text-anchor="start" x="1776" y="-390" font-family="Helvetica,sans-Serif" font-size="10.00">DynExpInstr::NIDAQDigital</text>
<text text-anchor="middle" x="1841" y="-379" font-family="Helvetica,sans-Serif" font-size="10.00">OutParams</text>
</a>
</g>
</g>
<!-- Node15&#45;&gt;Node16 -->
<g id="edge15" class="edge">
<title>Node15&#45;&gt;Node16</title>
<path fill="none" stroke="midnightblue" d="M1740.29,-388.55C1749.57,-388.41 1758.9,-388.26 1767.92,-388.12"/>
<polygon fill="midnightblue" stroke="midnightblue" points="1740.2,-385.05 1730.25,-388.71 1740.31,-392.05 1740.2,-385.05"/>
</g>
<!-- Node21 -->
<g id="node21" class="node">
<title>Node21</title>
<g id="a_node21"><a xlink:href="classDynExpInstr_1_1AnalogInParams.html" target="_top" xlink:title="Parameter class for AnalogIn.">
<polygon fill="white" stroke="black" points="1351.5,-238.5 1351.5,-257.5 1512.5,-257.5 1512.5,-238.5 1351.5,-238.5"/>
<text text-anchor="middle" x="1432" y="-245.5" font-family="Helvetica,sans-Serif" font-size="10.00">DynExpInstr::AnalogInParams</text>
</a>
</g>
</g>
<!-- Node20&#45;&gt;Node21 -->
<g id="edge20" class="edge">
<title>Node20&#45;&gt;Node21</title>
<path fill="none" stroke="midnightblue" d="M1306.08,-240.46C1321.13,-241.37 1336.65,-242.31 1351.41,-243.2"/>
<polygon fill="midnightblue" stroke="midnightblue" points="1305.94,-236.95 1295.74,-239.84 1305.52,-243.94 1305.94,-236.95"/>
</g>
<!-- Node23 -->
<g id="node23" class="node">
<title>Node23</title>
<g id="a_node23"><a xlink:href="classDynExpInstr_1_1DigitalInParams.html" target="_top" xlink:title="Parameter class for DigitalIn.">
<polygon fill="white" stroke="black" points="1352.5,-200.5 1352.5,-219.5 1511.5,-219.5 1511.5,-200.5 1352.5,-200.5"/>
<text text-anchor="middle" x="1432" y="-207.5" font-family="Helvetica,sans-Serif" font-size="10.00">DynExpInstr::DigitalInParams</text>
</a>
</g>
</g>
<!-- Node20&#45;&gt;Node23 -->
<g id="edge22" class="edge">
<title>Node20&#45;&gt;Node23</title>
<path fill="none" stroke="midnightblue" d="M1305.84,-224.52C1321.34,-222.72 1337.33,-220.87 1352.48,-219.11"/>
<polygon fill="midnightblue" stroke="midnightblue" points="1305.27,-221.06 1295.74,-225.69 1306.08,-228.02 1305.27,-221.06"/>
</g>
<!-- Node22 -->
<g id="node22" class="node">
<title>Node22</title>
<g id="a_node22"><a xlink:href="classDynExpInstr_1_1NIDAQAnalogInParams.html" target="_top" xlink:title=" ">
<polygon fill="white" stroke="black" points="1572.5,-238 1572.5,-268 1720.5,-268 1720.5,-238 1572.5,-238"/>
<text text-anchor="start" x="1580.5" y="-256" font-family="Helvetica,sans-Serif" font-size="10.00">DynExpInstr::NIDAQAnalog</text>
<text text-anchor="middle" x="1646.5" y="-245" font-family="Helvetica,sans-Serif" font-size="10.00">InParams</text>
</a>
</g>
</g>
<!-- Node21&#45;&gt;Node22 -->
<g id="edge21" class="edge">
<title>Node21&#45;&gt;Node22</title>
<path fill="none" stroke="midnightblue" d="M1522.91,-250.12C1539.39,-250.5 1556.41,-250.9 1572.33,-251.28"/>
<polygon fill="midnightblue" stroke="midnightblue" points="1522.81,-246.61 1512.73,-249.88 1522.65,-253.61 1522.81,-246.61"/>
</g>
<!-- Node24 -->
<g id="node24" class="node">
<title>Node24</title>
<g id="a_node24"><a xlink:href="classDynExpInstr_1_1NIDAQDigitalInParams.html" target="_top" xlink:title=" ">
<polygon fill="white" stroke="black" points="1573.5,-189 1573.5,-219 1719.5,-219 1719.5,-189 1573.5,-189"/>
<text text-anchor="start" x="1581.5" y="-207" font-family="Helvetica,sans-Serif" font-size="10.00">DynExpInstr::NIDAQDigital</text>
<text text-anchor="middle" x="1646.5" y="-196" font-family="Helvetica,sans-Serif" font-size="10.00">InParams</text>
</a>
</g>
</g>
<!-- Node23&#45;&gt;Node24 -->
<g id="edge23" class="edge">
<title>Node23&#45;&gt;Node24</title>
<path fill="none" stroke="midnightblue" d="M1521.58,-207.5C1538.8,-207.01 1556.66,-206.51 1573.28,-206.04"/>
<polygon fill="midnightblue" stroke="midnightblue" points="1521.42,-204 1511.52,-207.78 1521.62,-211 1521.42,-204"/>
</g>
<!-- Node26 -->
<g id="node26" class="node">
<title>Node26</title>
<g id="a_node26"><a xlink:href="classDynExpInstr_1_1ZI__MFLIParams.html" target="_top" xlink:title=" ">
<polygon fill="white" stroke="black" points="1354,-162.5 1354,-181.5 1510,-181.5 1510,-162.5 1354,-162.5"/>
<text text-anchor="middle" x="1432" y="-169.5" font-family="Helvetica,sans-Serif" font-size="10.00">DynExpInstr::ZI_MFLIParams</text>
</a>
</g>
</g>
<!-- Node25&#45;&gt;Node26 -->
<g id="edge25" class="edge">
<title>Node25&#45;&gt;Node26</title>
<path fill="none" stroke="midnightblue" d="M1303.84,-183.21C1320.43,-181.75 1337.66,-180.23 1353.88,-178.8"/>
<polygon fill="midnightblue" stroke="midnightblue" points="1303.26,-179.75 1293.61,-184.11 1303.87,-186.72 1303.26,-179.75"/>
</g>
<!-- Node28 -->
<g id="node28" class="node">
<title>Node28</title>
<g id="a_node28"><a xlink:href="classDynExpInstr_1_1QutoolsQuTAGParams.html" target="_top" xlink:title=" ">
<polygon fill="white" stroke="black" points="1338,-124.5 1338,-143.5 1526,-143.5 1526,-124.5 1338,-124.5"/>
<text text-anchor="middle" x="1432" y="-131.5" font-family="Helvetica,sans-Serif" font-size="10.00">DynExpInstr::QutoolsQuTAGParams</text>
</a>
</g>
</g>
<!-- Node27&#45;&gt;Node28 -->
<g id="edge27" class="edge">
<title>Node27&#45;&gt;Node28</title>
<path fill="none" stroke="midnightblue" d="M1312.44,-141.15C1320.86,-140.64 1329.37,-140.13 1337.76,-139.62"/>
<polygon fill="midnightblue" stroke="midnightblue" points="1311.99,-137.67 1302.22,-141.77 1312.41,-144.66 1311.99,-137.67"/>
</g>
<!-- Node31 -->
<g id="node31" class="node">
<title>Node31</title>
<g id="a_node31"><a xlink:href="classDynExpInstr_1_1NenionLeakvalveF3Params.html" target="_top" xlink:title=" ">
<polygon fill="white" stroke="black" points="1131,-88 1131,-118 1298,-118 1298,-88 1131,-88"/>
<text text-anchor="start" x="1139" y="-106" font-family="Helvetica,sans-Serif" font-size="10.00">DynExpInstr::NenionLeakvalve</text>
<text text-anchor="middle" x="1214.5" y="-95" font-family="Helvetica,sans-Serif" font-size="10.00">F3Params</text>
</a>
</g>
</g>
<!-- Node30&#45;&gt;Node31 -->
<g id="edge30" class="edge">
<title>Node30&#45;&gt;Node31</title>
<path fill="none" stroke="midnightblue" d="M1083.48,-100.02C1099.17,-100.38 1115.46,-100.76 1130.98,-101.11"/>
<polygon fill="midnightblue" stroke="midnightblue" points="1083.34,-96.52 1073.27,-99.79 1083.18,-103.52 1083.34,-96.52"/>
</g>
<!-- Node32 -->
<g id="node32" class="node">
<title>Node32</title>
<g id="a_node32"><a xlink:href="classDynExpInstr_1_1PI__C__862__Params.html" target="_top" xlink:title=" ">
<polygon fill="white" stroke="black" points="1151.5,-39 1151.5,-69 1277.5,-69 1277.5,-39 1151.5,-39"/>
<text text-anchor="start" x="1159.5" y="-57" font-family="Helvetica,sans-Serif" font-size="10.00">DynExpInstr::PI_C_862</text>
<text text-anchor="middle" x="1214.5" y="-46" font-family="Helvetica,sans-Serif" font-size="10.00">_Params</text>
</a>
</g>
</g>
<!-- Node30&#45;&gt;Node32 -->
<g id="edge31" class="edge">
<title>Node30&#45;&gt;Node32</title>
<path fill="none" stroke="midnightblue" d="M1079.68,-80.95C1103.51,-76.15 1128.98,-71.02 1151.24,-66.54"/>
<polygon fill="midnightblue" stroke="midnightblue" points="1078.7,-77.58 1069.58,-82.98 1080.08,-84.44 1078.7,-77.58"/>
</g>
<!-- Node33 -->
<g id="node33" class="node">
<title>Node33</title>
<g id="a_node33"><a xlink:href="classDynExpInstr_1_1SmarActParams.html" target="_top" xlink:title=" ">
<polygon fill="white" stroke="black" points="1135,-0.5 1135,-19.5 1294,-19.5 1294,-0.5 1135,-0.5"/>
<text text-anchor="middle" x="1214.5" y="-7.5" font-family="Helvetica,sans-Serif" font-size="10.00">DynExpInstr::SmarActParams</text>
</a>
</g>
</g>
<!-- Node30&#45;&gt;Node33 -->
<g id="edge32" class="edge">
<title>Node30&#45;&gt;Node33</title>
<path fill="none" stroke="midnightblue" d="M1080.54,-78.87C1084.16,-77.09 1087.67,-75.13 1091,-73 1112.27,-59.37 1105.47,-42.22 1127,-29 1133.29,-25.14 1140.26,-22.06 1147.44,-19.6"/>
<polygon fill="midnightblue" stroke="midnightblue" points="1079.04,-75.71 1071.33,-82.98 1081.89,-82.11 1079.04,-75.71"/>
</g>
</g>
</svg>
