<?xml version="1.0" encoding="UTF-8" standalone="no"?>
<!DOCTYPE svg PUBLIC "-//W3C//DTD SVG 1.1//EN"
 "http://www.w3.org/Graphics/SVG/1.1/DTD/svg11.dtd">
<!-- Generated by graphviz version 2.43.0 (0)
 -->
<!-- Title: DynExpModule::NetworkAnalogInT&lt; gRPCServices &gt;::CallDataGetAsync Pages: 1 -->
<svg width="529pt" height="72pt"
 viewBox="0.00 0.00 529.00 72.00" xmlns="http://www.w3.org/2000/svg" xmlns:xlink="http://www.w3.org/1999/xlink">
<g id="graph0" class="graph" transform="scale(1 1) rotate(0) translate(4 68)">
<title>DynExpModule::NetworkAnalogInT&lt; gRPCServices &gt;::CallDataGetAsync</title>
<polygon fill="white" stroke="transparent" points="-4,4 -4,-68 525,-68 525,4 -4,4"/>
<!-- Node1 -->
<g id="node1" class="node">
<title>Node1</title>
<g id="a_node1"><a xlink:title=" ">
<polygon fill="#bfbfbf" stroke="black" points="306,-17 306,-47 521,-47 521,-17 306,-17"/>
<text text-anchor="start" x="314" y="-35" font-family="Helvetica,sans-Serif" font-size="10.00">DynExpModule::NetworkAnalog</text>
<text text-anchor="middle" x="413.5" y="-24" font-family="Helvetica,sans-Serif" font-size="10.00">InT&lt; gRPCServices &gt;::CallDataGetAsync</text>
</a>
</g>
</g>
<!-- Node2 -->
<g id="node2" class="node">
<title>Node2</title>
<g id="a_node2"><a xlink:title=" ">
<polygon fill="white" stroke="#bfbfbf" points="0,-0.5 0,-63.5 270,-63.5 270,-0.5 0,-0.5"/>
<text text-anchor="start" x="8" y="-51.5" font-family="Helvetica,sans-Serif" font-size="10.00">gRPCModule&lt; gRPCServices...</text>
<text text-anchor="start" x="8" y="-40.5" font-family="Helvetica,sans-Serif" font-size="10.00"> &gt;::template TypedCallDataBase</text>
<text text-anchor="start" x="8" y="-29.5" font-family="Helvetica,sans-Serif" font-size="10.00">&lt; CallDataGetAsync, ThisServiceType,</text>
<text text-anchor="start" x="8" y="-18.5" font-family="Helvetica,sans-Serif" font-size="10.00"> DynExpProto::Common::VoidMessage,</text>
<text text-anchor="middle" x="135" y="-7.5" font-family="Helvetica,sans-Serif" font-size="10.00"> DynExpProto::NetworkAnalogIn::SampleMessage &gt;</text>
</a>
</g>
</g>
<!-- Node2&#45;&gt;Node1 -->
<g id="edge1" class="edge">
<title>Node2&#45;&gt;Node1</title>
<path fill="none" stroke="midnightblue" d="M280.3,-32C288.9,-32 297.47,-32 305.87,-32"/>
<polygon fill="midnightblue" stroke="midnightblue" points="280.2,-28.5 270.2,-32 280.2,-35.5 280.2,-28.5"/>
</g>
</g>
</svg>
