<?xml version="1.0" encoding="UTF-8" standalone="no"?>
<!DOCTYPE svg PUBLIC "-//W3C//DTD SVG 1.1//EN"
 "http://www.w3.org/Graphics/SVG/1.1/DTD/svg11.dtd">
<!-- Generated by graphviz version 2.43.0 (0)
 -->
<!-- Title: DynExp::QModuleDataBase Pages: 1 -->
<svg width="943pt" height="600pt"
 viewBox="0.00 0.00 943.00 599.50" xmlns="http://www.w3.org/2000/svg" xmlns:xlink="http://www.w3.org/1999/xlink">
<g id="graph0" class="graph" transform="scale(1 1) rotate(0) translate(4 595.5)">
<title>DynExp::QModuleDataBase</title>
<!-- Node1 -->
<g id="Node000001" class="node">
<title>Node1</title>
<g id="a_Node000001"><a xlink:title="Data class for QModuleBase.">
<polygon fill="#999999" stroke="#666666" points="653,-305.5 502,-305.5 502,-286.5 653,-286.5 653,-305.5"/>
<text text-anchor="middle" x="577.5" y="-293.5" font-family="Helvetica,sans-Serif" font-size="10.00">DynExp::QModuleDataBase</text>
</a>
</g>
</g>
<!-- Node5 -->
<g id="Node000005" class="node">
<title>Node5</title>
<g id="a_Node000005"><a xlink:href="classDynExpModule_1_1EventSenderData.html" target="_top" xlink:title=" ">
<polygon fill="white" stroke="#666666" points="902.5,-591.5 721.5,-591.5 721.5,-572.5 902.5,-572.5 902.5,-591.5"/>
<text text-anchor="middle" x="812" y="-579.5" font-family="Helvetica,sans-Serif" font-size="10.00">DynExpModule::EventSenderData</text>
</a>
</g>
</g>
<!-- Node1&#45;&gt;Node5 -->
<g id="edge4_Node000001_Node000005" class="edge">
<title>Node1&#45;&gt;Node5</title>
<g id="a_edge4_Node000001_Node000005"><a xlink:title=" ">
<path fill="none" stroke="#63b8ff" d="M580.28,-315.98C585.93,-366.42 608.15,-499.41 689,-563 698.44,-570.42 709.58,-575.5 721.24,-578.92"/>
<polygon fill="#63b8ff" stroke="#63b8ff" points="583.74,-315.36 579.24,-305.76 576.77,-316.07 583.74,-315.36"/>
</a>
</g>
</g>
<!-- Node6 -->
<g id="Node000006" class="node">
<title>Node6</title>
<g id="a_Node000006"><a xlink:href="classDynExpModule_1_1ImageViewer_1_1ImageViewerData.html" target="_top" xlink:title=" ">
<polygon fill="white" stroke="#666666" points="892.5,-554 731.5,-554 731.5,-524 892.5,-524 892.5,-554"/>
<text text-anchor="start" x="739.5" y="-542" font-family="Helvetica,sans-Serif" font-size="10.00">DynExpModule::ImageViewer</text>
<text text-anchor="middle" x="812" y="-531" font-family="Helvetica,sans-Serif" font-size="10.00">::ImageViewerData</text>
</a>
</g>
</g>
<!-- Node1&#45;&gt;Node6 -->
<g id="edge5_Node000001_Node000006" class="edge">
<title>Node1&#45;&gt;Node6</title>
<g id="a_edge5_Node000001_Node000006"><a xlink:title=" ">
<path fill="none" stroke="#63b8ff" d="M582.36,-315.71C591.98,-359.21 621.26,-463.63 689,-515 701.3,-524.33 716.24,-530.32 731.4,-534.1"/>
<polygon fill="#63b8ff" stroke="#63b8ff" points="585.76,-314.88 580.29,-305.81 578.91,-316.32 585.76,-314.88"/>
</a>
</g>
</g>
<!-- Node7 -->
<g id="Node000007" class="node">
<title>Node7</title>
<g id="a_Node000007"><a xlink:href="classDynExpModule_1_1InputPortReaderData.html" target="_top" xlink:title=" ">
<polygon fill="white" stroke="#666666" points="911,-505.5 713,-505.5 713,-486.5 911,-486.5 911,-505.5"/>
<text text-anchor="middle" x="812" y="-493.5" font-family="Helvetica,sans-Serif" font-size="10.00">DynExpModule::InputPortReaderData</text>
</a>
</g>
</g>
<!-- Node1&#45;&gt;Node7 -->
<g id="edge6_Node000001_Node000007" class="edge">
<title>Node1&#45;&gt;Node7</title>
<g id="a_edge6_Node000001_Node000007"><a xlink:title=" ">
<path fill="none" stroke="#63b8ff" d="M584.14,-315.42C596.34,-353.61 629.01,-438.19 689,-478 696.31,-482.85 704.42,-486.61 712.86,-489.51"/>
<polygon fill="#63b8ff" stroke="#63b8ff" points="587.4,-314.09 581.12,-305.56 580.7,-316.14 587.4,-314.09"/>
</a>
</g>
</g>
<!-- Node8 -->
<g id="Node000008" class="node">
<title>Node8</title>
<g id="a_Node000008"><a xlink:href="classDynExpModule_1_1LaserControlData.html" target="_top" xlink:title=" ">
<polygon fill="white" stroke="#666666" points="902.5,-468.5 721.5,-468.5 721.5,-449.5 902.5,-449.5 902.5,-468.5"/>
<text text-anchor="middle" x="812" y="-456.5" font-family="Helvetica,sans-Serif" font-size="10.00">DynExpModule::LaserControlData</text>
</a>
</g>
</g>
<!-- Node1&#45;&gt;Node8 -->
<g id="edge7_Node000001_Node000008" class="edge">
<title>Node1&#45;&gt;Node8</title>
<g id="a_edge7_Node000001_Node000008"><a xlink:title=" ">
<path fill="none" stroke="#63b8ff" d="M587.04,-314.84C602.46,-346.49 638.13,-409.83 689,-440 698.86,-445.85 709.93,-450.09 721.27,-453.13"/>
<polygon fill="#63b8ff" stroke="#63b8ff" points="590.19,-313.31 582.75,-305.76 583.86,-316.3 590.19,-313.31"/>
</a>
</g>
</g>
<!-- Node9 -->
<g id="Node000009" class="node">
<title>Node9</title>
<g id="a_Node000009"><a xlink:href="classDynExpModule_1_1LaserScanningSpectroscopy_1_1LaserScanningSpectroscopyData.html" target="_top" xlink:title=" ">
<polygon fill="white" stroke="#666666" points="935,-431 689,-431 689,-401 935,-401 935,-431"/>
<text text-anchor="start" x="697" y="-419" font-family="Helvetica,sans-Serif" font-size="10.00">DynExpModule::LaserScanning</text>
<text text-anchor="middle" x="812" y="-408" font-family="Helvetica,sans-Serif" font-size="10.00">Spectroscopy::LaserScanningSpectroscopyData</text>
</a>
</g>
</g>
<!-- Node1&#45;&gt;Node9 -->
<g id="edge8_Node000001_Node000009" class="edge">
<title>Node1&#45;&gt;Node9</title>
<g id="a_edge8_Node000001_Node000009"><a xlink:title=" ">
<path fill="none" stroke="#63b8ff" d="M593.09,-313.34C612.59,-335.29 649.32,-372.6 689,-392 696.08,-395.46 703.62,-398.42 711.34,-400.96"/>
<polygon fill="#63b8ff" stroke="#63b8ff" points="595.69,-311 586.49,-305.74 590.41,-315.59 595.69,-311"/>
</a>
</g>
</g>
<!-- Node10 -->
<g id="Node000010" class="node">
<title>Node10</title>
<g id="a_Node000010"><a xlink:href="classDynExpModule_1_1LockinAmplifierControlData.html" target="_top" xlink:title=" ">
<polygon fill="white" stroke="#666666" points="898,-383 726,-383 726,-353 898,-353 898,-383"/>
<text text-anchor="start" x="734" y="-371" font-family="Helvetica,sans-Serif" font-size="10.00">DynExpModule::LockinAmplifier</text>
<text text-anchor="middle" x="812" y="-360" font-family="Helvetica,sans-Serif" font-size="10.00">ControlData</text>
</a>
</g>
</g>
<!-- Node1&#45;&gt;Node10 -->
<g id="edge9_Node000001_Node000010" class="edge">
<title>Node1&#45;&gt;Node10</title>
<g id="a_edge9_Node000001_Node000010"><a xlink:title=" ">
<path fill="none" stroke="#63b8ff" d="M606.26,-310.06C628.23,-320.69 659.95,-334.95 689,-344 700.75,-347.66 713.31,-350.88 725.75,-353.67"/>
<polygon fill="#63b8ff" stroke="#63b8ff" points="607.71,-306.87 597.19,-305.6 604.62,-313.15 607.71,-306.87"/>
</a>
</g>
</g>
<!-- Node11 -->
<g id="Node000011" class="node">
<title>Node11</title>
<g id="a_Node000011"><a xlink:href="classDynExpModule_1_1ODMR_1_1ODMRData.html" target="_top" xlink:title=" ">
<polygon fill="white" stroke="#666666" points="875.5,-335 748.5,-335 748.5,-305 875.5,-305 875.5,-335"/>
<text text-anchor="start" x="756.5" y="-323" font-family="Helvetica,sans-Serif" font-size="10.00">DynExpModule::ODMR</text>
<text text-anchor="middle" x="812" y="-312" font-family="Helvetica,sans-Serif" font-size="10.00">::ODMRData</text>
</a>
</g>
</g>
<!-- Node1&#45;&gt;Node11 -->
<g id="edge10_Node000001_Node000011" class="edge">
<title>Node1&#45;&gt;Node11</title>
<g id="a_edge10_Node000001_Node000011"><a xlink:title=" ">
<path fill="none" stroke="#63b8ff" d="M663.24,-304.75C691.33,-307.65 722.07,-310.82 748.2,-313.52"/>
<polygon fill="#63b8ff" stroke="#63b8ff" points="663.33,-301.24 653.02,-303.69 662.61,-308.2 663.33,-301.24"/>
</a>
</g>
</g>
<!-- Node12 -->
<g id="Node000012" class="node">
<title>Node12</title>
<g id="a_Node000012"><a xlink:href="classDynExpModule_1_1OutputPortWriterData.html" target="_top" xlink:title=" ">
<polygon fill="white" stroke="#666666" points="886.5,-287 737.5,-287 737.5,-257 886.5,-257 886.5,-287"/>
<text text-anchor="start" x="745.5" y="-275" font-family="Helvetica,sans-Serif" font-size="10.00">DynExpModule::OutputPort</text>
<text text-anchor="middle" x="812" y="-264" font-family="Helvetica,sans-Serif" font-size="10.00">WriterData</text>
</a>
</g>
</g>
<!-- Node1&#45;&gt;Node12 -->
<g id="edge11_Node000001_Node000012" class="edge">
<title>Node1&#45;&gt;Node12</title>
<g id="a_edge11_Node000001_Node000012"><a xlink:title=" ">
<path fill="none" stroke="#63b8ff" d="M663.28,-287.25C687.54,-284.74 713.76,-282.04 737.3,-279.61"/>
<polygon fill="#63b8ff" stroke="#63b8ff" points="662.61,-283.8 653.02,-288.31 663.33,-290.76 662.61,-283.8"/>
</a>
</g>
</g>
<!-- Node13 -->
<g id="Node000013" class="node">
<title>Node13</title>
<g id="a_Node000013"><a xlink:href="classDynExpModule_1_1SignalDesignerData.html" target="_top" xlink:title=" ">
<polygon fill="white" stroke="#666666" points="908.5,-238.5 715.5,-238.5 715.5,-219.5 908.5,-219.5 908.5,-238.5"/>
<text text-anchor="middle" x="812" y="-226.5" font-family="Helvetica,sans-Serif" font-size="10.00">DynExpModule::SignalDesignerData</text>
</a>
</g>
</g>
<!-- Node1&#45;&gt;Node13 -->
<g id="edge12_Node000001_Node000013" class="edge">
<title>Node1&#45;&gt;Node13</title>
<g id="a_edge12_Node000001_Node000013"><a xlink:title=" ">
<path fill="none" stroke="#63b8ff" d="M605.77,-281.81C627.7,-270.99 659.6,-256.52 689,-248 702.28,-244.15 716.61,-241.03 730.62,-238.53"/>
<polygon fill="#63b8ff" stroke="#63b8ff" points="604.1,-278.74 596.73,-286.35 607.24,-284.99 604.1,-278.74"/>
</a>
</g>
</g>
<!-- Node14 -->
<g id="Node000014" class="node">
<title>Node14</title>
<g id="a_Node000014"><a xlink:href="classDynExpModule_1_1SignalPlotterData.html" target="_top" xlink:title=" ">
<polygon fill="white" stroke="#666666" points="903,-201.5 721,-201.5 721,-182.5 903,-182.5 903,-201.5"/>
<text text-anchor="middle" x="812" y="-189.5" font-family="Helvetica,sans-Serif" font-size="10.00">DynExpModule::SignalPlotterData</text>
</a>
</g>
</g>
<!-- Node1&#45;&gt;Node14 -->
<g id="edge13_Node000001_Node000014" class="edge">
<title>Node1&#45;&gt;Node14</title>
<g id="a_edge13_Node000001_Node000014"><a xlink:title=" ">
<path fill="none" stroke="#63b8ff" d="M594.53,-279.04C614.58,-258.98 650.91,-226.28 689,-210 699.04,-205.71 709.92,-202.41 720.91,-199.89"/>
<polygon fill="#63b8ff" stroke="#63b8ff" points="591.93,-276.69 587.44,-286.29 596.94,-281.58 591.93,-276.69"/>
</a>
</g>
</g>
<!-- Node15 -->
<g id="Node000015" class="node">
<title>Node15</title>
<g id="a_Node000015"><a xlink:href="classDynExpModule_1_1SpectrumViewer_1_1SpectrumViewerData.html" target="_top" xlink:title=" ">
<polygon fill="white" stroke="#666666" points="900,-164 724,-164 724,-134 900,-134 900,-164"/>
<text text-anchor="start" x="732" y="-152" font-family="Helvetica,sans-Serif" font-size="10.00">DynExpModule::SpectrumViewer</text>
<text text-anchor="middle" x="812" y="-141" font-family="Helvetica,sans-Serif" font-size="10.00">::SpectrumViewerData</text>
</a>
</g>
</g>
<!-- Node1&#45;&gt;Node15 -->
<g id="edge14_Node000001_Node000015" class="edge">
<title>Node1&#45;&gt;Node15</title>
<g id="a_edge14_Node000001_Node000015"><a xlink:title=" ">
<path fill="none" stroke="#63b8ff" d="M589.34,-277.8C606.69,-250.36 643.45,-198.87 689,-173 699.7,-166.92 711.68,-162.36 723.85,-158.94"/>
<polygon fill="#63b8ff" stroke="#63b8ff" points="586.29,-276.07 584.02,-286.42 592.25,-279.74 586.29,-276.07"/>
</a>
</g>
</g>
<!-- Node16 -->
<g id="Node000016" class="node">
<title>Node16</title>
<g id="a_Node000016"><a xlink:href="classDynExpModule_1_1Stage1DData.html" target="_top" xlink:title=" ">
<polygon fill="white" stroke="#666666" points="892.5,-115.5 731.5,-115.5 731.5,-96.5 892.5,-96.5 892.5,-115.5"/>
<text text-anchor="middle" x="812" y="-103.5" font-family="Helvetica,sans-Serif" font-size="10.00">DynExpModule::Stage1DData</text>
</a>
</g>
</g>
<!-- Node1&#45;&gt;Node16 -->
<g id="edge15_Node000001_Node000016" class="edge">
<title>Node1&#45;&gt;Node16</title>
<g id="a_edge15_Node000001_Node000016"><a xlink:title=" ">
<path fill="none" stroke="#63b8ff" d="M584.9,-276.75C598.05,-240.44 631.79,-162.14 689,-125 701.59,-116.83 716.41,-111.71 731.31,-108.58"/>
<polygon fill="#63b8ff" stroke="#63b8ff" points="581.59,-275.6 581.6,-286.2 588.2,-277.91 581.59,-275.6"/>
</a>
</g>
</g>
<!-- Node17 -->
<g id="Node000017" class="node">
<title>Node17</title>
<g id="a_Node000017"><a xlink:href="classDynExpModule_1_1Trajectory1DData.html" target="_top" xlink:title=" ">
<polygon fill="white" stroke="#666666" points="887,-78 737,-78 737,-48 887,-48 887,-78"/>
<text text-anchor="start" x="745" y="-66" font-family="Helvetica,sans-Serif" font-size="10.00">DynExpModule::Trajectory1</text>
<text text-anchor="middle" x="812" y="-55" font-family="Helvetica,sans-Serif" font-size="10.00">DData</text>
</a>
</g>
</g>
<!-- Node1&#45;&gt;Node17 -->
<g id="edge16_Node000001_Node000017" class="edge">
<title>Node1&#45;&gt;Node17</title>
<g id="a_edge16_Node000001_Node000017"><a xlink:title=" ">
<path fill="none" stroke="#63b8ff" d="M582.86,-276.32C593.26,-234.28 623.69,-135.56 689,-87 702.86,-76.7 719.97,-70.49 736.95,-66.82"/>
<polygon fill="#63b8ff" stroke="#63b8ff" points="579.43,-275.62 580.54,-286.16 586.24,-277.23 579.43,-275.62"/>
</a>
</g>
</g>
<!-- Node18 -->
<g id="Node000018" class="node">
<title>Node18</title>
<g id="a_Node000018"><a xlink:href="classDynExpModule_1_1Widefield_1_1WidefieldMicroscopeData.html" target="_top" xlink:title=" ">
<polygon fill="white" stroke="#666666" points="885.5,-30 738.5,-30 738.5,0 885.5,0 885.5,-30"/>
<text text-anchor="start" x="746.5" y="-18" font-family="Helvetica,sans-Serif" font-size="10.00">DynExpModule::Widefield</text>
<text text-anchor="middle" x="812" y="-7" font-family="Helvetica,sans-Serif" font-size="10.00">::WidefieldMicroscopeData</text>
</a>
</g>
</g>
<!-- Node1&#45;&gt;Node18 -->
<g id="edge17_Node000001_Node000018" class="edge">
<title>Node1&#45;&gt;Node18</title>
<g id="a_edge17_Node000001_Node000018"><a xlink:title=" ">
<path fill="none" stroke="#63b8ff" d="M580.77,-276.3C587.49,-227.66 611.88,-101.3 689,-39 702.94,-27.74 720.66,-21.26 738.25,-17.64"/>
<polygon fill="#63b8ff" stroke="#63b8ff" points="577.27,-276.06 579.48,-286.43 584.22,-276.95 577.27,-276.06"/>
</a>
</g>
</g>
<!-- Node2 -->
<g id="Node000002" class="node">
<title>Node2</title>
<g id="a_Node000002"><a xlink:href="classDynExp_1_1ModuleDataBase.html" target="_top" xlink:title="Data structure to contain data which is synchronized in between different threads....">
<polygon fill="white" stroke="#666666" points="466,-305.5 323,-305.5 323,-286.5 466,-286.5 466,-305.5"/>
<text text-anchor="middle" x="394.5" y="-293.5" font-family="Helvetica,sans-Serif" font-size="10.00">DynExp::ModuleDataBase</text>
</a>
</g>
</g>
<!-- Node2&#45;&gt;Node1 -->
<g id="edge1_Node000001_Node000002" class="edge">
<title>Node2&#45;&gt;Node1</title>
<g id="a_edge1_Node000001_Node000002"><a xlink:title=" ">
<path fill="none" stroke="#63b8ff" d="M476.5,-296C484.96,-296 493.53,-296 501.91,-296"/>
<polygon fill="#63b8ff" stroke="#63b8ff" points="476.26,-292.5 466.26,-296 476.26,-299.5 476.26,-292.5"/>
</a>
</g>
</g>
<!-- Node3 -->
<g id="Node000003" class="node">
<title>Node3</title>
<g id="a_Node000003"><a xlink:href="classUtil_1_1ISynchronizedPointerLockable.html" target="_top" xlink:title="Interface to allow synchronizing the access to derived classes between different threads by making th...">
<polygon fill="white" stroke="#666666" points="287,-311 144,-311 144,-281 287,-281 287,-311"/>
<text text-anchor="start" x="152" y="-299" font-family="Helvetica,sans-Serif" font-size="10.00">Util::ISynchronizedPointer</text>
<text text-anchor="middle" x="215.5" y="-288" font-family="Helvetica,sans-Serif" font-size="10.00">Lockable</text>
</a>
</g>
</g>
<!-- Node3&#45;&gt;Node2 -->
<g id="edge2_Node000002_Node000003" class="edge">
<title>Node3&#45;&gt;Node2</title>
<g id="a_edge2_Node000002_Node000003"><a xlink:title=" ">
<path fill="none" stroke="#63b8ff" d="M297.49,-296C305.97,-296 314.54,-296 322.89,-296"/>
<polygon fill="#63b8ff" stroke="#63b8ff" points="297.22,-292.5 287.22,-296 297.22,-299.5 297.22,-292.5"/>
</a>
</g>
</g>
<!-- Node4 -->
<g id="Node000004" class="node">
<title>Node4</title>
<g id="a_Node000004"><a xlink:href="classUtil_1_1INonCopyable.html" target="_top" xlink:title="Interface to delete copy constructor and copy assignment operator and thus make derived classes non&#45;c...">
<polygon fill="white" stroke="#666666" points="108,-305.5 0,-305.5 0,-286.5 108,-286.5 108,-305.5"/>
<text text-anchor="middle" x="54" y="-293.5" font-family="Helvetica,sans-Serif" font-size="10.00">Util::INonCopyable</text>
</a>
</g>
</g>
<!-- Node4&#45;&gt;Node3 -->
<g id="edge3_Node000003_Node000004" class="edge">
<title>Node4&#45;&gt;Node3</title>
<g id="a_edge3_Node000003_Node000004"><a xlink:title=" ">
<path fill="none" stroke="#63b8ff" d="M118.19,-296C126.58,-296 135.23,-296 143.74,-296"/>
<polygon fill="#63b8ff" stroke="#63b8ff" points="118.11,-292.5 108.11,-296 118.11,-299.5 118.11,-292.5"/>
</a>
</g>
</g>
</g>
</svg>
