<?xml version="1.0" encoding="UTF-8" standalone="no"?>
<!DOCTYPE svg PUBLIC "-//W3C//DTD SVG 1.1//EN"
 "http://www.w3.org/Graphics/SVG/1.1/DTD/svg11.dtd">
<!-- Generated by graphviz version 2.43.0 (0)
 -->
<!-- Title: DynExp::UpdateTaskBase Pages: 1 -->
<svg width="1327pt" height="553pt"
 viewBox="0.00 0.00 1327.00 553.00" xmlns="http://www.w3.org/2000/svg" xmlns:xlink="http://www.w3.org/1999/xlink">
<g id="graph0" class="graph" transform="scale(1 1) rotate(0) translate(4 549)">
<title>DynExp::UpdateTaskBase</title>
<polygon fill="white" stroke="transparent" points="-4,4 -4,-549 1323,-549 1323,4 -4,4"/>
<!-- Node1 -->
<g id="node1" class="node">
<title>Node1</title>
<g id="a_node1"><a xlink:title="Defines a task for updating an instrument within an instrument inheritance hierarchy....">
<polygon fill="#bfbfbf" stroke="black" points="142,-153 142,-172 283,-172 283,-153 142,-153"/>
<text text-anchor="middle" x="212.5" y="-160" font-family="Helvetica,sans-Serif" font-size="10.00">DynExp::UpdateTaskBase</text>
</a>
</g>
</g>
<!-- Node3 -->
<g id="node3" class="node">
<title>Node3</title>
<g id="a_node3"><a xlink:href="classDynExpInstr_1_1CameraTasks_1_1UpdateTask.html" target="_top" xlink:title="Defines a task for updating an instrument within an instrument inheritance hierarchy....">
<polygon fill="white" stroke="black" points="342.5,-416.5 342.5,-446.5 489.5,-446.5 489.5,-416.5 342.5,-416.5"/>
<text text-anchor="start" x="350.5" y="-434.5" font-family="Helvetica,sans-Serif" font-size="10.00">DynExpInstr::CameraTasks</text>
<text text-anchor="middle" x="416" y="-423.5" font-family="Helvetica,sans-Serif" font-size="10.00">::UpdateTask</text>
</a>
</g>
</g>
<!-- Node1&#45;&gt;Node3 -->
<g id="edge2" class="edge">
<title>Node1&#45;&gt;Node3</title>
<path fill="none" stroke="midnightblue" d="M226.81,-180.27C264.08,-230.03 369.01,-370.11 403.71,-416.42"/>
<polygon fill="midnightblue" stroke="midnightblue" points="229.47,-177.98 220.67,-172.07 223.87,-182.18 229.47,-177.98"/>
</g>
<!-- Node6 -->
<g id="node6" class="node">
<title>Node6</title>
<g id="a_node6"><a xlink:href="classDynExpInstr_1_1DataStreamInstrumentTasks_1_1UpdateTask.html" target="_top" xlink:title="Defines a task for updating an instrument within an instrument inheritance hierarchy....">
<polygon fill="white" stroke="black" points="319,-196.5 319,-226.5 513,-226.5 513,-196.5 319,-196.5"/>
<text text-anchor="start" x="327" y="-214.5" font-family="Helvetica,sans-Serif" font-size="10.00">DynExpInstr::DataStreamInstrument</text>
<text text-anchor="middle" x="416" y="-203.5" font-family="Helvetica,sans-Serif" font-size="10.00">Tasks::UpdateTask</text>
</a>
</g>
</g>
<!-- Node1&#45;&gt;Node6 -->
<g id="edge5" class="edge">
<title>Node1&#45;&gt;Node6</title>
<path fill="none" stroke="midnightblue" d="M262.91,-174.51C290.13,-181.14 324.19,-189.42 353.16,-196.46"/>
<polygon fill="midnightblue" stroke="midnightblue" points="263.37,-171.03 252.83,-172.06 261.72,-177.83 263.37,-171.03"/>
</g>
<!-- Node26 -->
<g id="node26" class="node">
<title>Node26</title>
<g id="a_node26"><a xlink:href="classDynExpInstr_1_1InterModuleCommunicatorTasks_1_1UpdateTask.html" target="_top" xlink:title="Defines a task for updating an instrument within an instrument inheritance hierarchy....">
<polygon fill="white" stroke="black" points="326.5,-147.5 326.5,-177.5 505.5,-177.5 505.5,-147.5 326.5,-147.5"/>
<text text-anchor="start" x="334.5" y="-165.5" font-family="Helvetica,sans-Serif" font-size="10.00">DynExpInstr::InterModule</text>
<text text-anchor="middle" x="416" y="-154.5" font-family="Helvetica,sans-Serif" font-size="10.00">CommunicatorTasks::UpdateTask</text>
</a>
</g>
</g>
<!-- Node1&#45;&gt;Node26 -->
<g id="edge25" class="edge">
<title>Node1&#45;&gt;Node26</title>
<path fill="none" stroke="midnightblue" d="M293.35,-162.5C304.13,-162.5 315.25,-162.5 326.18,-162.5"/>
<polygon fill="midnightblue" stroke="midnightblue" points="293.13,-159 283.13,-162.5 293.13,-166 293.13,-159"/>
</g>
<!-- Node27 -->
<g id="node27" class="node">
<title>Node27</title>
<g id="a_node27"><a xlink:href="classDynExpInstr_1_1PositionerStageTasks_1_1UpdateTask.html" target="_top" xlink:title="Defines a task for updating an instrument within an instrument inheritance hierarchy....">
<polygon fill="white" stroke="black" points="337,-98.5 337,-128.5 495,-128.5 495,-98.5 337,-98.5"/>
<text text-anchor="start" x="345" y="-116.5" font-family="Helvetica,sans-Serif" font-size="10.00">DynExpInstr::PositionerStage</text>
<text text-anchor="middle" x="416" y="-105.5" font-family="Helvetica,sans-Serif" font-size="10.00">Tasks::UpdateTask</text>
</a>
</g>
</g>
<!-- Node1&#45;&gt;Node27 -->
<g id="edge26" class="edge">
<title>Node1&#45;&gt;Node27</title>
<path fill="none" stroke="midnightblue" d="M262.91,-150.49C290.13,-143.86 324.19,-135.58 353.16,-128.54"/>
<polygon fill="midnightblue" stroke="midnightblue" points="261.72,-147.17 252.83,-152.94 263.37,-153.97 261.72,-147.17"/>
</g>
<!-- Node31 -->
<g id="node31" class="node">
<title>Node31</title>
<g id="a_node31"><a xlink:href="classDynExpInstr_1_1SpectrometerTasks_1_1UpdateTask.html" target="_top" xlink:title="Defines a task for updating an instrument within an instrument inheritance hierarchy....">
<polygon fill="white" stroke="black" points="342,-49.5 342,-79.5 490,-79.5 490,-49.5 342,-49.5"/>
<text text-anchor="start" x="350" y="-67.5" font-family="Helvetica,sans-Serif" font-size="10.00">DynExpInstr::Spectrometer</text>
<text text-anchor="middle" x="416" y="-56.5" font-family="Helvetica,sans-Serif" font-size="10.00">Tasks::UpdateTask</text>
</a>
</g>
</g>
<!-- Node1&#45;&gt;Node31 -->
<g id="edge30" class="edge">
<title>Node1&#45;&gt;Node31</title>
<path fill="none" stroke="midnightblue" d="M232.11,-146.22C252.23,-129.43 285.88,-103.62 319,-88.5 326.5,-85.07 334.56,-82.09 342.72,-79.5"/>
<polygon fill="midnightblue" stroke="midnightblue" points="229.71,-143.66 224.36,-152.8 234.25,-149 229.71,-143.66"/>
</g>
<!-- Node2 -->
<g id="node2" class="node">
<title>Node2</title>
<g id="a_node2"><a xlink:href="classDynExp_1_1TaskBase.html" target="_top" xlink:title="Base class for all tasks being processed by instruments. The class must not contain public virtual fu...">
<polygon fill="white" stroke="black" points="0,-153 0,-172 106,-172 106,-153 0,-153"/>
<text text-anchor="middle" x="53" y="-160" font-family="Helvetica,sans-Serif" font-size="10.00">DynExp::TaskBase</text>
</a>
</g>
</g>
<!-- Node2&#45;&gt;Node1 -->
<g id="edge1" class="edge">
<title>Node2&#45;&gt;Node1</title>
<path fill="none" stroke="midnightblue" d="M116.14,-162.5C124.58,-162.5 133.29,-162.5 141.85,-162.5"/>
<polygon fill="midnightblue" stroke="midnightblue" points="116.01,-159 106.01,-162.5 116.01,-166 116.01,-159"/>
</g>
<!-- Node4 -->
<g id="node4" class="node">
<title>Node4</title>
<g id="a_node4"><a xlink:href="classDynExpInstr_1_1DummyCameraTasks_1_1UpdateTask.html" target="_top" xlink:title=" ">
<polygon fill="white" stroke="black" points="555.5,-465.5 555.5,-495.5 714.5,-495.5 714.5,-465.5 555.5,-465.5"/>
<text text-anchor="start" x="563.5" y="-483.5" font-family="Helvetica,sans-Serif" font-size="10.00">DynExpInstr::DummyCamera</text>
<text text-anchor="middle" x="635" y="-472.5" font-family="Helvetica,sans-Serif" font-size="10.00">Tasks::UpdateTask</text>
</a>
</g>
</g>
<!-- Node3&#45;&gt;Node4 -->
<g id="edge3" class="edge">
<title>Node3&#45;&gt;Node4</title>
<path fill="none" stroke="midnightblue" d="M493.43,-448.76C517.61,-454.22 544.12,-460.21 567.54,-465.49"/>
<polygon fill="midnightblue" stroke="midnightblue" points="494.11,-445.32 483.58,-446.53 492.57,-452.15 494.11,-445.32"/>
</g>
<!-- Node5 -->
<g id="node5" class="node">
<title>Node5</title>
<g id="a_node5"><a xlink:href="classDynExpInstr_1_1PVCamTasks_1_1UpdateTask.html" target="_top" xlink:title=" ">
<polygon fill="white" stroke="black" points="563,-416.5 563,-446.5 707,-446.5 707,-416.5 563,-416.5"/>
<text text-anchor="start" x="571" y="-434.5" font-family="Helvetica,sans-Serif" font-size="10.00">DynExpInstr::PVCamTasks</text>
<text text-anchor="middle" x="635" y="-423.5" font-family="Helvetica,sans-Serif" font-size="10.00">::UpdateTask</text>
</a>
</g>
</g>
<!-- Node3&#45;&gt;Node5 -->
<g id="edge4" class="edge">
<title>Node3&#45;&gt;Node5</title>
<path fill="none" stroke="midnightblue" d="M499.68,-431.5C520.54,-431.5 542.75,-431.5 562.98,-431.5"/>
<polygon fill="midnightblue" stroke="midnightblue" points="499.56,-428 489.56,-431.5 499.56,-435 499.56,-428"/>
</g>
<!-- Node7 -->
<g id="node7" class="node">
<title>Node7</title>
<g id="a_node7"><a xlink:href="classDynExpInstr_1_1FunctionGeneratorTasks_1_1UpdateTask.html" target="_top" xlink:title="Defines a task for updating an instrument within an instrument inheritance hierarchy....">
<polygon fill="white" stroke="black" points="549,-367.5 549,-397.5 721,-397.5 721,-367.5 549,-367.5"/>
<text text-anchor="start" x="557" y="-385.5" font-family="Helvetica,sans-Serif" font-size="10.00">DynExpInstr::FunctionGenerator</text>
<text text-anchor="middle" x="635" y="-374.5" font-family="Helvetica,sans-Serif" font-size="10.00">Tasks::UpdateTask</text>
</a>
</g>
</g>
<!-- Node6&#45;&gt;Node7 -->
<g id="edge6" class="edge">
<title>Node6&#45;&gt;Node7</title>
<path fill="none" stroke="midnightblue" d="M444.32,-233.03C488.89,-268.15 576.14,-336.9 614.79,-367.36"/>
<polygon fill="midnightblue" stroke="midnightblue" points="446.28,-230.12 436.26,-226.68 441.95,-235.61 446.28,-230.12"/>
</g>
<!-- Node17 -->
<g id="node17" class="node">
<title>Node17</title>
<g id="a_node17"><a xlink:href="classDynExpInstr_1_1InputPortTasks_1_1UpdateTask.html" target="_top" xlink:title="Defines a task for updating an instrument within an instrument inheritance hierarchy....">
<polygon fill="white" stroke="black" points="558.5,-245.5 558.5,-275.5 711.5,-275.5 711.5,-245.5 558.5,-245.5"/>
<text text-anchor="start" x="566.5" y="-263.5" font-family="Helvetica,sans-Serif" font-size="10.00">DynExpInstr::InputPortTasks</text>
<text text-anchor="middle" x="635" y="-252.5" font-family="Helvetica,sans-Serif" font-size="10.00">::UpdateTask</text>
</a>
</g>
</g>
<!-- Node6&#45;&gt;Node17 -->
<g id="edge16" class="edge">
<title>Node6&#45;&gt;Node17</title>
<path fill="none" stroke="midnightblue" d="M493.43,-228.76C517.61,-234.22 544.12,-240.21 567.54,-245.49"/>
<polygon fill="midnightblue" stroke="midnightblue" points="494.11,-225.32 483.58,-226.53 492.57,-232.15 494.11,-225.32"/>
</g>
<!-- Node22 -->
<g id="node22" class="node">
<title>Node22</title>
<g id="a_node22"><a xlink:href="classDynExpInstr_1_1LockinAmplifierTasks_1_1UpdateTask.html" target="_top" xlink:title="Defines a task for updating an instrument within an instrument inheritance hierarchy....">
<polygon fill="white" stroke="black" points="556,-196.5 556,-226.5 714,-226.5 714,-196.5 556,-196.5"/>
<text text-anchor="start" x="564" y="-214.5" font-family="Helvetica,sans-Serif" font-size="10.00">DynExpInstr::LockinAmplifier</text>
<text text-anchor="middle" x="635" y="-203.5" font-family="Helvetica,sans-Serif" font-size="10.00">Tasks::UpdateTask</text>
</a>
</g>
</g>
<!-- Node6&#45;&gt;Node22 -->
<g id="edge21" class="edge">
<title>Node6&#45;&gt;Node22</title>
<path fill="none" stroke="midnightblue" d="M523.21,-211.5C534.2,-211.5 545.23,-211.5 555.84,-211.5"/>
<polygon fill="midnightblue" stroke="midnightblue" points="523.13,-208 513.13,-211.5 523.13,-215 523.13,-208"/>
</g>
<!-- Node24 -->
<g id="node24" class="node">
<title>Node24</title>
<g id="a_node24"><a xlink:href="classDynExpInstr_1_1TimeTaggerTasks_1_1UpdateTask.html" target="_top" xlink:title="Defines a task for updating an instrument within an instrument inheritance hierarchy....">
<polygon fill="white" stroke="black" points="552,-147.5 552,-177.5 718,-177.5 718,-147.5 552,-147.5"/>
<text text-anchor="start" x="560" y="-165.5" font-family="Helvetica,sans-Serif" font-size="10.00">DynExpInstr::TimeTaggerTasks</text>
<text text-anchor="middle" x="635" y="-154.5" font-family="Helvetica,sans-Serif" font-size="10.00">::UpdateTask</text>
</a>
</g>
</g>
<!-- Node6&#45;&gt;Node24 -->
<g id="edge23" class="edge">
<title>Node6&#45;&gt;Node24</title>
<path fill="none" stroke="midnightblue" d="M493.43,-194.24C517.61,-188.78 544.12,-182.79 567.54,-177.51"/>
<polygon fill="midnightblue" stroke="midnightblue" points="492.57,-190.85 483.58,-196.47 494.11,-197.68 492.57,-190.85"/>
</g>
<!-- Node8 -->
<g id="node8" class="node">
<title>Node8</title>
<g id="a_node8"><a xlink:href="classDynExpInstr_1_1DummyDataStreamInstrumentTasks_1_1UpdateTask.html" target="_top" xlink:title=" ">
<polygon fill="white" stroke="black" points="758.5,-514.5 758.5,-544.5 937.5,-544.5 937.5,-514.5 758.5,-514.5"/>
<text text-anchor="start" x="766.5" y="-532.5" font-family="Helvetica,sans-Serif" font-size="10.00">DynExpInstr::DummyDataStream</text>
<text text-anchor="middle" x="848" y="-521.5" font-family="Helvetica,sans-Serif" font-size="10.00">InstrumentTasks::UpdateTask</text>
</a>
</g>
</g>
<!-- Node7&#45;&gt;Node8 -->
<g id="edge7" class="edge">
<title>Node7&#45;&gt;Node8</title>
<path fill="none" stroke="midnightblue" d="M715.67,-403.05C717.53,-404.44 719.31,-405.92 721,-407.5 754.88,-439.21 722.72,-474.22 757,-505.5 760.7,-508.88 764.83,-511.79 769.22,-514.3"/>
<polygon fill="midnightblue" stroke="midnightblue" points="717.37,-399.99 707.06,-397.55 713.6,-405.88 717.37,-399.99"/>
</g>
<!-- Node9 -->
<g id="node9" class="node">
<title>Node9</title>
<g id="a_node9"><a xlink:href="classDynExpInstr_1_1OutputPortTasks_1_1UpdateTask.html" target="_top" xlink:title="Defines a task for updating an instrument within an instrument inheritance hierarchy....">
<polygon fill="white" stroke="black" points="767.5,-465.5 767.5,-495.5 928.5,-495.5 928.5,-465.5 767.5,-465.5"/>
<text text-anchor="start" x="775.5" y="-483.5" font-family="Helvetica,sans-Serif" font-size="10.00">DynExpInstr::OutputPortTasks</text>
<text text-anchor="middle" x="848" y="-472.5" font-family="Helvetica,sans-Serif" font-size="10.00">::UpdateTask</text>
</a>
</g>
</g>
<!-- Node7&#45;&gt;Node9 -->
<g id="edge8" class="edge">
<title>Node7&#45;&gt;Node9</title>
<path fill="none" stroke="midnightblue" d="M712,-401.95C715.12,-403.65 718.14,-405.5 721,-407.5 743.12,-423.02 734.68,-441.27 757,-456.5 762.08,-459.96 767.63,-462.93 773.4,-465.47"/>
<polygon fill="midnightblue" stroke="midnightblue" points="713.45,-398.77 702.93,-397.54 710.39,-405.06 713.45,-398.77"/>
</g>
<!-- Node14 -->
<g id="node14" class="node">
<title>Node14</title>
<g id="a_node14"><a xlink:href="classDynExpInstr_1_1RS__SMB100BTasks_1_1UpdateTask.html" target="_top" xlink:title=" ">
<polygon fill="white" stroke="black" points="761.5,-416.5 761.5,-446.5 934.5,-446.5 934.5,-416.5 761.5,-416.5"/>
<text text-anchor="start" x="769.5" y="-434.5" font-family="Helvetica,sans-Serif" font-size="10.00">DynExpInstr::RS_SMB100BTasks</text>
<text text-anchor="middle" x="848" y="-423.5" font-family="Helvetica,sans-Serif" font-size="10.00">::UpdateTask</text>
</a>
</g>
</g>
<!-- Node7&#45;&gt;Node14 -->
<g id="edge13" class="edge">
<title>Node7&#45;&gt;Node14</title>
<path fill="none" stroke="midnightblue" d="M710.63,-399.83C734.06,-405.27 759.71,-411.23 782.38,-416.49"/>
<polygon fill="midnightblue" stroke="midnightblue" points="711.27,-396.39 700.74,-397.53 709.69,-403.21 711.27,-396.39"/>
</g>
<!-- Node15 -->
<g id="node15" class="node">
<title>Node15</title>
<g id="a_node15"><a xlink:href="classDynExpInstr_1_1RS__SMC100ATasks_1_1UpdateTask.html" target="_top" xlink:title=" ">
<polygon fill="white" stroke="black" points="761.5,-367.5 761.5,-397.5 934.5,-397.5 934.5,-367.5 761.5,-367.5"/>
<text text-anchor="start" x="769.5" y="-385.5" font-family="Helvetica,sans-Serif" font-size="10.00">DynExpInstr::RS_SMC100ATasks</text>
<text text-anchor="middle" x="848" y="-374.5" font-family="Helvetica,sans-Serif" font-size="10.00">::UpdateTask</text>
</a>
</g>
</g>
<!-- Node7&#45;&gt;Node15 -->
<g id="edge14" class="edge">
<title>Node7&#45;&gt;Node15</title>
<path fill="none" stroke="midnightblue" d="M731.23,-382.5C741.31,-382.5 751.51,-382.5 761.47,-382.5"/>
<polygon fill="midnightblue" stroke="midnightblue" points="731.21,-379 721.21,-382.5 731.21,-386 731.21,-379"/>
</g>
<!-- Node16 -->
<g id="node16" class="node">
<title>Node16</title>
<g id="a_node16"><a xlink:href="classDynExpInstr_1_1SwabianInstrumentsPulseStreamerTasks_1_1UpdateTask.html" target="_top" xlink:title=" ">
<polygon fill="white" stroke="black" points="757,-318.5 757,-348.5 939,-348.5 939,-318.5 757,-318.5"/>
<text text-anchor="start" x="765" y="-336.5" font-family="Helvetica,sans-Serif" font-size="10.00">DynExpInstr::SwabianInstruments</text>
<text text-anchor="middle" x="848" y="-325.5" font-family="Helvetica,sans-Serif" font-size="10.00">PulseStreamerTasks::UpdateTask</text>
</a>
</g>
</g>
<!-- Node7&#45;&gt;Node16 -->
<g id="edge15" class="edge">
<title>Node7&#45;&gt;Node16</title>
<path fill="none" stroke="midnightblue" d="M710.63,-365.17C734.06,-359.73 759.71,-353.77 782.38,-348.51"/>
<polygon fill="midnightblue" stroke="midnightblue" points="709.69,-361.79 700.74,-367.47 711.27,-368.61 709.69,-361.79"/>
</g>
<!-- Node10 -->
<g id="node10" class="node">
<title>Node10</title>
<g id="a_node10"><a xlink:href="classDynExpInstr_1_1AnalogOutTasks_1_1UpdateTask.html" target="_top" xlink:title="Defines a task for updating an instrument within an instrument inheritance hierarchy....">
<polygon fill="white" stroke="black" points="975,-489.5 975,-519.5 1135,-519.5 1135,-489.5 975,-489.5"/>
<text text-anchor="start" x="983" y="-507.5" font-family="Helvetica,sans-Serif" font-size="10.00">DynExpInstr::AnalogOutTasks</text>
<text text-anchor="middle" x="1055" y="-496.5" font-family="Helvetica,sans-Serif" font-size="10.00">::UpdateTask</text>
</a>
</g>
</g>
<!-- Node9&#45;&gt;Node10 -->
<g id="edge9" class="edge">
<title>Node9&#45;&gt;Node10</title>
<path fill="none" stroke="midnightblue" d="M938.61,-490.99C950.67,-492.4 962.97,-493.84 974.83,-495.23"/>
<polygon fill="midnightblue" stroke="midnightblue" points="938.89,-487.5 928.55,-489.81 938.08,-494.45 938.89,-487.5"/>
</g>
<!-- Node12 -->
<g id="node12" class="node">
<title>Node12</title>
<g id="a_node12"><a xlink:href="classDynExpInstr_1_1DigitalOutTasks_1_1UpdateTask.html" target="_top" xlink:title="Defines a task for updating an instrument within an instrument inheritance hierarchy....">
<polygon fill="white" stroke="black" points="976,-440.5 976,-470.5 1134,-470.5 1134,-440.5 976,-440.5"/>
<text text-anchor="start" x="984" y="-458.5" font-family="Helvetica,sans-Serif" font-size="10.00">DynExpInstr::DigitalOutTasks</text>
<text text-anchor="middle" x="1055" y="-447.5" font-family="Helvetica,sans-Serif" font-size="10.00">::UpdateTask</text>
</a>
</g>
</g>
<!-- Node9&#45;&gt;Node12 -->
<g id="edge11" class="edge">
<title>Node9&#45;&gt;Node12</title>
<path fill="none" stroke="midnightblue" d="M938.83,-469.54C951.16,-468.04 963.74,-466.51 975.84,-465.03"/>
<polygon fill="midnightblue" stroke="midnightblue" points="938.05,-466.11 928.55,-470.8 938.9,-473.06 938.05,-466.11"/>
</g>
<!-- Node11 -->
<g id="node11" class="node">
<title>Node11</title>
<g id="a_node11"><a xlink:href="classDynExpInstr_1_1NIDAQAnalogOutTasks_1_1UpdateTask.html" target="_top" xlink:title=" ">
<polygon fill="white" stroke="black" points="1171,-489.5 1171,-519.5 1319,-519.5 1319,-489.5 1171,-489.5"/>
<text text-anchor="start" x="1179" y="-507.5" font-family="Helvetica,sans-Serif" font-size="10.00">DynExpInstr::NIDAQAnalog</text>
<text text-anchor="middle" x="1245" y="-496.5" font-family="Helvetica,sans-Serif" font-size="10.00">OutTasks::UpdateTask</text>
</a>
</g>
</g>
<!-- Node10&#45;&gt;Node11 -->
<g id="edge10" class="edge">
<title>Node10&#45;&gt;Node11</title>
<path fill="none" stroke="midnightblue" d="M1145.23,-504.5C1153.83,-504.5 1162.48,-504.5 1170.9,-504.5"/>
<polygon fill="midnightblue" stroke="midnightblue" points="1145.18,-501 1135.18,-504.5 1145.18,-508 1145.18,-501"/>
</g>
<!-- Node13 -->
<g id="node13" class="node">
<title>Node13</title>
<g id="a_node13"><a xlink:href="classDynExpInstr_1_1NIDAQDigitalOutTasks_1_1UpdateTask.html" target="_top" xlink:title=" ">
<polygon fill="white" stroke="black" points="1172,-440.5 1172,-470.5 1318,-470.5 1318,-440.5 1172,-440.5"/>
<text text-anchor="start" x="1180" y="-458.5" font-family="Helvetica,sans-Serif" font-size="10.00">DynExpInstr::NIDAQDigital</text>
<text text-anchor="middle" x="1245" y="-447.5" font-family="Helvetica,sans-Serif" font-size="10.00">OutTasks::UpdateTask</text>
</a>
</g>
</g>
<!-- Node12&#45;&gt;Node13 -->
<g id="edge12" class="edge">
<title>Node12&#45;&gt;Node13</title>
<path fill="none" stroke="midnightblue" d="M1144.13,-455.5C1153.42,-455.5 1162.79,-455.5 1171.86,-455.5"/>
<polygon fill="midnightblue" stroke="midnightblue" points="1144.1,-452 1134.1,-455.5 1144.1,-459 1144.1,-452"/>
</g>
<!-- Node18 -->
<g id="node18" class="node">
<title>Node18</title>
<g id="a_node18"><a xlink:href="classDynExpInstr_1_1AnalogInTasks_1_1UpdateTask.html" target="_top" xlink:title="Defines a task for updating an instrument within an instrument inheritance hierarchy....">
<polygon fill="white" stroke="black" points="772,-269.5 772,-299.5 924,-299.5 924,-269.5 772,-269.5"/>
<text text-anchor="start" x="780" y="-287.5" font-family="Helvetica,sans-Serif" font-size="10.00">DynExpInstr::AnalogInTasks</text>
<text text-anchor="middle" x="848" y="-276.5" font-family="Helvetica,sans-Serif" font-size="10.00">::UpdateTask</text>
</a>
</g>
</g>
<!-- Node17&#45;&gt;Node18 -->
<g id="edge17" class="edge">
<title>Node17&#45;&gt;Node18</title>
<path fill="none" stroke="midnightblue" d="M721.82,-270.26C738.43,-272.15 755.71,-274.12 771.95,-275.96"/>
<polygon fill="midnightblue" stroke="midnightblue" points="721.91,-266.75 711.58,-269.1 721.12,-273.7 721.91,-266.75"/>
</g>
<!-- Node20 -->
<g id="node20" class="node">
<title>Node20</title>
<g id="a_node20"><a xlink:href="classDynExpInstr_1_1DigitalInTasks_1_1UpdateTask.html" target="_top" xlink:title="Defines a task for updating an instrument within an instrument inheritance hierarchy....">
<polygon fill="white" stroke="black" points="773,-220.5 773,-250.5 923,-250.5 923,-220.5 773,-220.5"/>
<text text-anchor="start" x="781" y="-238.5" font-family="Helvetica,sans-Serif" font-size="10.00">DynExpInstr::DigitalInTasks</text>
<text text-anchor="middle" x="848" y="-227.5" font-family="Helvetica,sans-Serif" font-size="10.00">::UpdateTask</text>
</a>
</g>
</g>
<!-- Node17&#45;&gt;Node20 -->
<g id="edge19" class="edge">
<title>Node17&#45;&gt;Node20</title>
<path fill="none" stroke="midnightblue" d="M721.94,-250.32C738.76,-248.32 756.26,-246.25 772.66,-244.31"/>
<polygon fill="midnightblue" stroke="midnightblue" points="721.1,-246.89 711.58,-251.55 721.92,-253.84 721.1,-246.89"/>
</g>
<!-- Node19 -->
<g id="node19" class="node">
<title>Node19</title>
<g id="a_node19"><a xlink:href="classDynExpInstr_1_1NIDAQAnalogInTasks_1_1UpdateTask.html" target="_top" xlink:title=" ">
<polygon fill="white" stroke="black" points="981,-269.5 981,-299.5 1129,-299.5 1129,-269.5 981,-269.5"/>
<text text-anchor="start" x="989" y="-287.5" font-family="Helvetica,sans-Serif" font-size="10.00">DynExpInstr::NIDAQAnalog</text>
<text text-anchor="middle" x="1055" y="-276.5" font-family="Helvetica,sans-Serif" font-size="10.00">InTasks::UpdateTask</text>
</a>
</g>
</g>
<!-- Node18&#45;&gt;Node19 -->
<g id="edge18" class="edge">
<title>Node18&#45;&gt;Node19</title>
<path fill="none" stroke="midnightblue" d="M934.26,-284.5C949.75,-284.5 965.79,-284.5 980.89,-284.5"/>
<polygon fill="midnightblue" stroke="midnightblue" points="934.17,-281 924.17,-284.5 934.17,-288 934.17,-281"/>
</g>
<!-- Node21 -->
<g id="node21" class="node">
<title>Node21</title>
<g id="a_node21"><a xlink:href="classDynExpInstr_1_1NIDAQDigitalInTasks_1_1UpdateTask.html" target="_top" xlink:title=" ">
<polygon fill="white" stroke="black" points="982,-220.5 982,-250.5 1128,-250.5 1128,-220.5 982,-220.5"/>
<text text-anchor="start" x="990" y="-238.5" font-family="Helvetica,sans-Serif" font-size="10.00">DynExpInstr::NIDAQDigital</text>
<text text-anchor="middle" x="1055" y="-227.5" font-family="Helvetica,sans-Serif" font-size="10.00">InTasks::UpdateTask</text>
</a>
</g>
</g>
<!-- Node20&#45;&gt;Node21 -->
<g id="edge20" class="edge">
<title>Node20&#45;&gt;Node21</title>
<path fill="none" stroke="midnightblue" d="M933.46,-235.5C949.51,-235.5 966.18,-235.5 981.81,-235.5"/>
<polygon fill="midnightblue" stroke="midnightblue" points="933.01,-232 923.01,-235.5 933.01,-239 933.01,-232"/>
</g>
<!-- Node23 -->
<g id="node23" class="node">
<title>Node23</title>
<g id="a_node23"><a xlink:href="classDynExpInstr_1_1ZI__MFLITasks_1_1UpdateTask.html" target="_top" xlink:title=" ">
<polygon fill="white" stroke="black" points="774.5,-171.5 774.5,-201.5 921.5,-201.5 921.5,-171.5 774.5,-171.5"/>
<text text-anchor="start" x="782.5" y="-189.5" font-family="Helvetica,sans-Serif" font-size="10.00">DynExpInstr::ZI_MFLITasks</text>
<text text-anchor="middle" x="848" y="-178.5" font-family="Helvetica,sans-Serif" font-size="10.00">::UpdateTask</text>
</a>
</g>
</g>
<!-- Node22&#45;&gt;Node23 -->
<g id="edge22" class="edge">
<title>Node22&#45;&gt;Node23</title>
<path fill="none" stroke="midnightblue" d="M724.53,-201.01C741.16,-199.04 758.37,-197 774.45,-195.1"/>
<polygon fill="midnightblue" stroke="midnightblue" points="723.79,-197.57 714.27,-202.23 724.61,-204.53 723.79,-197.57"/>
</g>
<!-- Node25 -->
<g id="node25" class="node">
<title>Node25</title>
<g id="a_node25"><a xlink:href="classDynExpInstr_1_1QutoolsQuTAGTasks_1_1UpdateTask.html" target="_top" xlink:title=" ">
<polygon fill="white" stroke="black" points="758.5,-122.5 758.5,-152.5 937.5,-152.5 937.5,-122.5 758.5,-122.5"/>
<text text-anchor="start" x="766.5" y="-140.5" font-family="Helvetica,sans-Serif" font-size="10.00">DynExpInstr::QutoolsQuTAGTasks</text>
<text text-anchor="middle" x="848" y="-129.5" font-family="Helvetica,sans-Serif" font-size="10.00">::UpdateTask</text>
</a>
</g>
</g>
<!-- Node24&#45;&gt;Node25 -->
<g id="edge24" class="edge">
<title>Node24&#45;&gt;Node25</title>
<path fill="none" stroke="midnightblue" d="M728.16,-151.58C738.2,-150.39 748.41,-149.18 758.41,-148"/>
<polygon fill="midnightblue" stroke="midnightblue" points="727.7,-148.11 718.18,-152.76 728.52,-155.06 727.7,-148.11"/>
</g>
<!-- Node28 -->
<g id="node28" class="node">
<title>Node28</title>
<g id="a_node28"><a xlink:href="classDynExpInstr_1_1NenionLeakvalveF3Tasks_1_1UpdateTask.html" target="_top" xlink:title=" ">
<polygon fill="white" stroke="black" points="551.5,-98.5 551.5,-128.5 718.5,-128.5 718.5,-98.5 551.5,-98.5"/>
<text text-anchor="start" x="559.5" y="-116.5" font-family="Helvetica,sans-Serif" font-size="10.00">DynExpInstr::NenionLeakvalve</text>
<text text-anchor="middle" x="635" y="-105.5" font-family="Helvetica,sans-Serif" font-size="10.00">F3Tasks::UpdateTask</text>
</a>
</g>
</g>
<!-- Node27&#45;&gt;Node28 -->
<g id="edge27" class="edge">
<title>Node27&#45;&gt;Node28</title>
<path fill="none" stroke="midnightblue" d="M505.4,-113.5C520.53,-113.5 536.19,-113.5 551.16,-113.5"/>
<polygon fill="midnightblue" stroke="midnightblue" points="505.04,-110 495.04,-113.5 505.04,-117 505.04,-110"/>
</g>
<!-- Node29 -->
<g id="node29" class="node">
<title>Node29</title>
<g id="a_node29"><a xlink:href="classDynExpInstr_1_1PI__C__862__Tasks_1_1UpdateTask.html" target="_top" xlink:title=" ">
<polygon fill="white" stroke="black" points="572,-49.5 572,-79.5 698,-79.5 698,-49.5 572,-49.5"/>
<text text-anchor="start" x="580" y="-67.5" font-family="Helvetica,sans-Serif" font-size="10.00">DynExpInstr::PI_C_862</text>
<text text-anchor="middle" x="635" y="-56.5" font-family="Helvetica,sans-Serif" font-size="10.00">_Tasks::UpdateTask</text>
</a>
</g>
</g>
<!-- Node27&#45;&gt;Node29 -->
<g id="edge28" class="edge">
<title>Node27&#45;&gt;Node29</title>
<path fill="none" stroke="midnightblue" d="M493.65,-96.19C519.31,-90.4 547.58,-84.01 571.99,-78.5"/>
<polygon fill="midnightblue" stroke="midnightblue" points="492.57,-92.85 483.58,-98.47 494.11,-99.68 492.57,-92.85"/>
</g>
<!-- Node30 -->
<g id="node30" class="node">
<title>Node30</title>
<g id="a_node30"><a xlink:href="classDynExpInstr_1_1SmarActTasks_1_1UpdateTask.html" target="_top" xlink:title=" ">
<polygon fill="white" stroke="black" points="560,-0.5 560,-30.5 710,-30.5 710,-0.5 560,-0.5"/>
<text text-anchor="start" x="568" y="-18.5" font-family="Helvetica,sans-Serif" font-size="10.00">DynExpInstr::SmarActTasks</text>
<text text-anchor="middle" x="635" y="-7.5" font-family="Helvetica,sans-Serif" font-size="10.00">::UpdateTask</text>
</a>
</g>
</g>
<!-- Node27&#45;&gt;Node30 -->
<g id="edge29" class="edge">
<title>Node27&#45;&gt;Node30</title>
<path fill="none" stroke="midnightblue" d="M503.78,-94.02C506.97,-92.33 510.06,-90.49 513,-88.5 535.36,-73.33 526.79,-54.9 549,-39.5 553.91,-36.09 559.3,-33.17 564.91,-30.65"/>
<polygon fill="midnightblue" stroke="midnightblue" points="502.06,-90.96 494.52,-98.4 505.06,-97.28 502.06,-90.96"/>
</g>
</g>
</svg>
