<?xml version="1.0" encoding="UTF-8" standalone="no"?>
<!DOCTYPE svg PUBLIC "-//W3C//DTD SVG 1.1//EN"
 "http://www.w3.org/Graphics/SVG/1.1/DTD/svg11.dtd">
<!-- Generated by graphviz version 2.43.0 (0)
 -->
<!-- Title: DynExpModule::NetworkDataStreamInstrumentT&lt; gRPCServices &gt;::CallDataStop Pages: 1 -->
<svg width="439pt" height="72pt"
 viewBox="0.00 0.00 439.00 72.00" xmlns="http://www.w3.org/2000/svg" xmlns:xlink="http://www.w3.org/1999/xlink">
<g id="graph0" class="graph" transform="scale(1 1) rotate(0) translate(4 68)">
<title>DynExpModule::NetworkDataStreamInstrumentT&lt; gRPCServices &gt;::CallDataStop</title>
<polygon fill="white" stroke="transparent" points="-4,4 -4,-68 435,-68 435,4 -4,4"/>
<!-- Node1 -->
<g id="node1" class="node">
<title>Node1</title>
<g id="a_node1"><a xlink:title=" ">
<polygon fill="#bfbfbf" stroke="black" points="242,-11.5 242,-52.5 431,-52.5 431,-11.5 242,-11.5"/>
<text text-anchor="start" x="250" y="-40.5" font-family="Helvetica,sans-Serif" font-size="10.00">DynExpModule::NetworkData</text>
<text text-anchor="start" x="250" y="-29.5" font-family="Helvetica,sans-Serif" font-size="10.00">StreamInstrumentT&lt; gRPCServices</text>
<text text-anchor="middle" x="336.5" y="-18.5" font-family="Helvetica,sans-Serif" font-size="10.00"> &gt;::CallDataStop</text>
</a>
</g>
</g>
<!-- Node2 -->
<g id="node2" class="node">
<title>Node2</title>
<g id="a_node2"><a xlink:title=" ">
<polygon fill="white" stroke="#bfbfbf" points="0,-0.5 0,-63.5 206,-63.5 206,-0.5 0,-0.5"/>
<text text-anchor="start" x="8" y="-51.5" font-family="Helvetica,sans-Serif" font-size="10.00">gRPCModule::template</text>
<text text-anchor="start" x="8" y="-40.5" font-family="Helvetica,sans-Serif" font-size="10.00"> TypedCallDataBase&lt; CallData</text>
<text text-anchor="start" x="8" y="-29.5" font-family="Helvetica,sans-Serif" font-size="10.00">Stop, ThisServiceType, DynExpProto</text>
<text text-anchor="start" x="8" y="-18.5" font-family="Helvetica,sans-Serif" font-size="10.00">::Common::VoidMessage, DynExpProto</text>
<text text-anchor="middle" x="103" y="-7.5" font-family="Helvetica,sans-Serif" font-size="10.00">::Common::VoidMessage &gt;</text>
</a>
</g>
</g>
<!-- Node2&#45;&gt;Node1 -->
<g id="edge1" class="edge">
<title>Node2&#45;&gt;Node1</title>
<path fill="none" stroke="midnightblue" d="M216.26,-32C224.84,-32 233.45,-32 241.89,-32"/>
<polygon fill="midnightblue" stroke="midnightblue" points="216.21,-28.5 206.21,-32 216.21,-35.5 216.21,-28.5"/>
</g>
</g>
</svg>
