<?xml version="1.0" encoding="UTF-8" standalone="no"?>
<!DOCTYPE svg PUBLIC "-//W3C//DTD SVG 1.1//EN"
 "http://www.w3.org/Graphics/SVG/1.1/DTD/svg11.dtd">
<!-- Generated by graphviz version 2.43.0 (0)
 -->
<!-- Title: DynExpInstr::FunctionGeneratorData Pages: 1 -->
<svg width="1570pt" height="203pt"
 viewBox="0.00 0.00 1570.00 203.00" xmlns="http://www.w3.org/2000/svg" xmlns:xlink="http://www.w3.org/1999/xlink">
<g id="graph0" class="graph" transform="scale(1 1) rotate(0) translate(4 199)">
<title>DynExpInstr::FunctionGeneratorData</title>
<polygon fill="white" stroke="transparent" points="-4,4 -4,-199 1566,-199 1566,4 -4,4"/>
<!-- Node1 -->
<g id="node1" class="node">
<title>Node1</title>
<g id="a_node1"><a xlink:title="Data class for FunctionGenerator.">
<polygon fill="#bfbfbf" stroke="black" points="773,-88 773,-107 968,-107 968,-88 773,-88"/>
<text text-anchor="middle" x="870.5" y="-95" font-family="Helvetica,sans-Serif" font-size="10.00">DynExpInstr::FunctionGeneratorData</text>
</a>
</g>
</g>
<!-- Node6 -->
<g id="node6" class="node">
<title>Node6</title>
<g id="a_node6"><a xlink:href="classDynExpInstr_1_1DummyDataStreamInstrumentData.html" target="_top" xlink:title=" ">
<polygon fill="white" stroke="black" points="1005.5,-164.5 1005.5,-194.5 1184.5,-194.5 1184.5,-164.5 1005.5,-164.5"/>
<text text-anchor="start" x="1013.5" y="-182.5" font-family="Helvetica,sans-Serif" font-size="10.00">DynExpInstr::DummyDataStream</text>
<text text-anchor="middle" x="1095" y="-171.5" font-family="Helvetica,sans-Serif" font-size="10.00">InstrumentData</text>
</a>
</g>
</g>
<!-- Node1&#45;&gt;Node6 -->
<g id="edge5" class="edge">
<title>Node1&#45;&gt;Node6</title>
<path fill="none" stroke="midnightblue" d="M900.48,-111.32C927.02,-123.65 967.61,-141.68 1004,-154.5 1013.94,-158 1024.64,-161.34 1035.06,-164.36"/>
<polygon fill="midnightblue" stroke="midnightblue" points="901.91,-108.12 891.37,-107.05 898.94,-114.46 901.91,-108.12"/>
</g>
<!-- Node7 -->
<g id="node7" class="node">
<title>Node7</title>
<g id="a_node7"><a xlink:href="classDynExpInstr_1_1OutputPortData.html" target="_top" xlink:title="Data class for OutputPort.">
<polygon fill="white" stroke="black" points="1016,-126 1016,-145 1174,-145 1174,-126 1016,-126"/>
<text text-anchor="middle" x="1095" y="-133" font-family="Helvetica,sans-Serif" font-size="10.00">DynExpInstr::OutputPortData</text>
</a>
</g>
</g>
<!-- Node1&#45;&gt;Node7 -->
<g id="edge6" class="edge">
<title>Node1&#45;&gt;Node7</title>
<path fill="none" stroke="midnightblue" d="M937.52,-108.78C969.53,-114.24 1007.57,-120.74 1038.12,-125.96"/>
<polygon fill="midnightblue" stroke="midnightblue" points="937.81,-105.27 927.36,-107.04 936.63,-112.17 937.81,-105.27"/>
</g>
<!-- Node12 -->
<g id="node12" class="node">
<title>Node12</title>
<g id="a_node12"><a xlink:href="classDynExpInstr_1_1RS__SMB100BData.html" target="_top" xlink:title=" ">
<polygon fill="white" stroke="black" points="1010,-88 1010,-107 1180,-107 1180,-88 1010,-88"/>
<text text-anchor="middle" x="1095" y="-95" font-family="Helvetica,sans-Serif" font-size="10.00">DynExpInstr::RS_SMB100BData</text>
</a>
</g>
</g>
<!-- Node1&#45;&gt;Node12 -->
<g id="edge11" class="edge">
<title>Node1&#45;&gt;Node12</title>
<path fill="none" stroke="midnightblue" d="M978.22,-97.5C988.78,-97.5 999.39,-97.5 1009.68,-97.5"/>
<polygon fill="midnightblue" stroke="midnightblue" points="978.12,-94 968.12,-97.5 978.12,-101 978.12,-94"/>
</g>
<!-- Node13 -->
<g id="node13" class="node">
<title>Node13</title>
<g id="a_node13"><a xlink:href="classDynExpInstr_1_1RS__SMC100AData.html" target="_top" xlink:title=" ">
<polygon fill="white" stroke="black" points="1010,-50 1010,-69 1180,-69 1180,-50 1010,-50"/>
<text text-anchor="middle" x="1095" y="-57" font-family="Helvetica,sans-Serif" font-size="10.00">DynExpInstr::RS_SMC100AData</text>
</a>
</g>
</g>
<!-- Node1&#45;&gt;Node13 -->
<g id="edge12" class="edge">
<title>Node1&#45;&gt;Node13</title>
<path fill="none" stroke="midnightblue" d="M937.52,-86.22C969.53,-80.76 1007.57,-74.26 1038.12,-69.04"/>
<polygon fill="midnightblue" stroke="midnightblue" points="936.63,-82.83 927.36,-87.96 937.81,-89.73 936.63,-82.83"/>
</g>
<!-- Node14 -->
<g id="node14" class="node">
<title>Node14</title>
<g id="a_node14"><a xlink:href="classDynExpInstr_1_1SwabianInstrumentsPulseStreamerData.html" target="_top" xlink:title=" ">
<polygon fill="white" stroke="black" points="1004,-0.5 1004,-30.5 1186,-30.5 1186,-0.5 1004,-0.5"/>
<text text-anchor="start" x="1012" y="-18.5" font-family="Helvetica,sans-Serif" font-size="10.00">DynExpInstr::SwabianInstruments</text>
<text text-anchor="middle" x="1095" y="-7.5" font-family="Helvetica,sans-Serif" font-size="10.00">PulseStreamerData</text>
</a>
</g>
</g>
<!-- Node1&#45;&gt;Node14 -->
<g id="edge13" class="edge">
<title>Node1&#45;&gt;Node14</title>
<path fill="none" stroke="midnightblue" d="M900.48,-83.68C927.02,-71.35 967.61,-53.32 1004,-40.5 1013.94,-37 1024.64,-33.66 1035.06,-30.64"/>
<polygon fill="midnightblue" stroke="midnightblue" points="898.94,-80.54 891.37,-87.95 901.91,-86.88 898.94,-80.54"/>
</g>
<!-- Node2 -->
<g id="node2" class="node">
<title>Node2</title>
<g id="a_node2"><a xlink:href="classDynExpInstr_1_1DataStreamInstrumentData.html" target="_top" xlink:title="Data class for DataStreamInstrument.">
<polygon fill="white" stroke="black" points="520,-88 520,-107 737,-107 737,-88 520,-88"/>
<text text-anchor="middle" x="628.5" y="-95" font-family="Helvetica,sans-Serif" font-size="10.00">DynExpInstr::DataStreamInstrumentData</text>
</a>
</g>
</g>
<!-- Node2&#45;&gt;Node1 -->
<g id="edge1" class="edge">
<title>Node2&#45;&gt;Node1</title>
<path fill="none" stroke="midnightblue" d="M747.23,-97.5C755.78,-97.5 764.34,-97.5 772.75,-97.5"/>
<polygon fill="midnightblue" stroke="midnightblue" points="747.21,-94 737.21,-97.5 747.21,-101 747.21,-94"/>
</g>
<!-- Node3 -->
<g id="node3" class="node">
<title>Node3</title>
<g id="a_node3"><a xlink:href="classDynExp_1_1InstrumentDataBase.html" target="_top" xlink:title="Data structure to contain data which is synchronized in between different threads....">
<polygon fill="white" stroke="black" points="323,-88 323,-107 484,-107 484,-88 323,-88"/>
<text text-anchor="middle" x="403.5" y="-95" font-family="Helvetica,sans-Serif" font-size="10.00">DynExp::InstrumentDataBase</text>
</a>
</g>
</g>
<!-- Node3&#45;&gt;Node2 -->
<g id="edge2" class="edge">
<title>Node3&#45;&gt;Node2</title>
<path fill="none" stroke="midnightblue" d="M494.26,-97.5C502.71,-97.5 511.33,-97.5 519.91,-97.5"/>
<polygon fill="midnightblue" stroke="midnightblue" points="494.06,-94 484.06,-97.5 494.06,-101 494.06,-94"/>
</g>
<!-- Node4 -->
<g id="node4" class="node">
<title>Node4</title>
<g id="a_node4"><a xlink:href="classUtil_1_1ISynchronizedPointerLockable.html" target="_top" xlink:title="Interface to allow synchronizing the access to derived classes between different threads by making th...">
<polygon fill="white" stroke="black" points="144,-82.5 144,-112.5 287,-112.5 287,-82.5 144,-82.5"/>
<text text-anchor="start" x="152" y="-100.5" font-family="Helvetica,sans-Serif" font-size="10.00">Util::ISynchronizedPointer</text>
<text text-anchor="middle" x="215.5" y="-89.5" font-family="Helvetica,sans-Serif" font-size="10.00">Lockable</text>
</a>
</g>
</g>
<!-- Node4&#45;&gt;Node3 -->
<g id="edge3" class="edge">
<title>Node4&#45;&gt;Node3</title>
<path fill="none" stroke="midnightblue" d="M297.35,-97.5C305.84,-97.5 314.47,-97.5 322.94,-97.5"/>
<polygon fill="midnightblue" stroke="midnightblue" points="297.08,-94 287.08,-97.5 297.08,-101 297.08,-94"/>
</g>
<!-- Node5 -->
<g id="node5" class="node">
<title>Node5</title>
<g id="a_node5"><a xlink:href="classUtil_1_1INonCopyable.html" target="_top" xlink:title="Interface to delete copy constructor and copy assignment operator and thus make derived classes non&#45;c...">
<polygon fill="white" stroke="black" points="0,-88 0,-107 108,-107 108,-88 0,-88"/>
<text text-anchor="middle" x="54" y="-95" font-family="Helvetica,sans-Serif" font-size="10.00">Util::INonCopyable</text>
</a>
</g>
</g>
<!-- Node5&#45;&gt;Node4 -->
<g id="edge4" class="edge">
<title>Node5&#45;&gt;Node4</title>
<path fill="none" stroke="midnightblue" d="M118.19,-97.5C126.58,-97.5 135.23,-97.5 143.74,-97.5"/>
<polygon fill="midnightblue" stroke="midnightblue" points="118.11,-94 108.11,-97.5 118.11,-101 118.11,-94"/>
</g>
<!-- Node8 -->
<g id="node8" class="node">
<title>Node8</title>
<g id="a_node8"><a xlink:href="classDynExpInstr_1_1AnalogOutData.html" target="_top" xlink:title="Data class for AnalogOut.">
<polygon fill="white" stroke="black" points="1222,-146 1222,-165 1378,-165 1378,-146 1222,-146"/>
<text text-anchor="middle" x="1300" y="-153" font-family="Helvetica,sans-Serif" font-size="10.00">DynExpInstr::AnalogOutData</text>
</a>
</g>
</g>
<!-- Node7&#45;&gt;Node8 -->
<g id="edge7" class="edge">
<title>Node7&#45;&gt;Node8</title>
<path fill="none" stroke="midnightblue" d="M1184.18,-144.19C1196.72,-145.42 1209.54,-146.69 1221.85,-147.9"/>
<polygon fill="midnightblue" stroke="midnightblue" points="1184.49,-140.7 1174.19,-143.2 1183.8,-147.67 1184.49,-140.7"/>
</g>
<!-- Node10 -->
<g id="node10" class="node">
<title>Node10</title>
<g id="a_node10"><a xlink:href="classDynExpInstr_1_1DigitalOutData.html" target="_top" xlink:title="Data class for DigitalOut.">
<polygon fill="white" stroke="black" points="1222.5,-105 1222.5,-124 1377.5,-124 1377.5,-105 1222.5,-105"/>
<text text-anchor="middle" x="1300" y="-112" font-family="Helvetica,sans-Serif" font-size="10.00">DynExpInstr::DigitalOutData</text>
</a>
</g>
</g>
<!-- Node7&#45;&gt;Node10 -->
<g id="edge9" class="edge">
<title>Node7&#45;&gt;Node10</title>
<path fill="none" stroke="midnightblue" d="M1184.25,-126.37C1196.88,-125.06 1209.79,-123.73 1222.18,-122.45"/>
<polygon fill="midnightblue" stroke="midnightblue" points="1183.78,-122.9 1174.19,-127.41 1184.5,-129.86 1183.78,-122.9"/>
</g>
<!-- Node9 -->
<g id="node9" class="node">
<title>Node9</title>
<g id="a_node9"><a xlink:href="classDynExpInstr_1_1NIDAQAnalogOutData.html" target="_top" xlink:title=" ">
<polygon fill="white" stroke="black" points="1414,-143.5 1414,-173.5 1562,-173.5 1562,-143.5 1414,-143.5"/>
<text text-anchor="start" x="1422" y="-161.5" font-family="Helvetica,sans-Serif" font-size="10.00">DynExpInstr::NIDAQAnalog</text>
<text text-anchor="middle" x="1488" y="-150.5" font-family="Helvetica,sans-Serif" font-size="10.00">OutData</text>
</a>
</g>
</g>
<!-- Node8&#45;&gt;Node9 -->
<g id="edge8" class="edge">
<title>Node8&#45;&gt;Node9</title>
<path fill="none" stroke="midnightblue" d="M1388.27,-156.91C1396.83,-157.05 1405.45,-157.18 1413.85,-157.32"/>
<polygon fill="midnightblue" stroke="midnightblue" points="1388.32,-153.41 1378.26,-156.75 1388.21,-160.41 1388.32,-153.41"/>
</g>
<!-- Node11 -->
<g id="node11" class="node">
<title>Node11</title>
<g id="a_node11"><a xlink:href="classDynExpInstr_1_1NIDAQDigitalOutData.html" target="_top" xlink:title=" ">
<polygon fill="white" stroke="black" points="1415,-94.5 1415,-124.5 1561,-124.5 1561,-94.5 1415,-94.5"/>
<text text-anchor="start" x="1423" y="-112.5" font-family="Helvetica,sans-Serif" font-size="10.00">DynExpInstr::NIDAQDigital</text>
<text text-anchor="middle" x="1488" y="-101.5" font-family="Helvetica,sans-Serif" font-size="10.00">OutData</text>
</a>
</g>
</g>
<!-- Node10&#45;&gt;Node11 -->
<g id="edge10" class="edge">
<title>Node10&#45;&gt;Node11</title>
<path fill="none" stroke="midnightblue" d="M1387.89,-112.16C1396.94,-111.92 1406.07,-111.68 1414.93,-111.44"/>
<polygon fill="midnightblue" stroke="midnightblue" points="1387.63,-108.67 1377.73,-112.44 1387.82,-115.67 1387.63,-108.67"/>
</g>
</g>
</svg>
