<?xml version="1.0" encoding="UTF-8" standalone="no"?>
<!DOCTYPE svg PUBLIC "-//W3C//DTD SVG 1.1//EN"
 "http://www.w3.org/Graphics/SVG/1.1/DTD/svg11.dtd">
<!-- Generated by graphviz version 2.43.0 (0)
 -->
<!-- Title: DynExp::RunnableObject Pages: 1 -->
<svg width="1211pt" height="1057pt"
 viewBox="0.00 0.00 1211.00 1057.00" xmlns="http://www.w3.org/2000/svg" xmlns:xlink="http://www.w3.org/1999/xlink">
<g id="graph0" class="graph" transform="scale(1 1) rotate(0) translate(4 1053)">
<title>DynExp::RunnableObject</title>
<!-- Node1 -->
<g id="Node000001" class="node">
<title>Node1</title>
<g id="a_Node000001"><a xlink:title="Defines an Object which possesses a thread it runs in. The RunnableObject can be started and stopped ...">
<polygon fill="#999999" stroke="#666666" points="281,-479.5 144,-479.5 144,-460.5 281,-460.5 281,-479.5"/>
<text text-anchor="middle" x="212.5" y="-467.5" font-family="Helvetica,sans-Serif" font-size="10.00">DynExp::RunnableObject</text>
</a>
</g>
</g>
<!-- Node4 -->
<g id="Node000004" class="node">
<title>Node4</title>
<g id="a_Node000004"><a xlink:href="classDynExp_1_1InstrumentBase.html" target="_top" xlink:title="Base class for instruments. Instruments comprise virtual devices (meta instruments) and physial devic...">
<polygon fill="white" stroke="#666666" points="454,-757.5 317,-757.5 317,-738.5 454,-738.5 454,-757.5"/>
<text text-anchor="middle" x="385.5" y="-745.5" font-family="Helvetica,sans-Serif" font-size="10.00">DynExp::InstrumentBase</text>
</a>
</g>
</g>
<!-- Node1&#45;&gt;Node4 -->
<g id="edge3_Node000001_Node000004" class="edge">
<title>Node1&#45;&gt;Node4</title>
<g id="a_edge3_Node000001_Node000004"><a xlink:title=" ">
<path fill="none" stroke="#63b8ff" d="M224.81,-488.38C257.92,-542.22 353.92,-698.28 378.64,-738.47"/>
<polygon fill="#63b8ff" stroke="#63b8ff" points="227.61,-486.25 219.39,-479.57 221.64,-489.92 227.61,-486.25"/>
</a>
</g>
</g>
<!-- Node39 -->
<g id="Node000039" class="node">
<title>Node39</title>
<g id="a_Node000039"><a xlink:href="classDynExp_1_1ModuleBase.html" target="_top" xlink:title="Base class for modules. Modules implement programs on their own (e.g. measurement protocols or server...">
<polygon fill="white" stroke="#666666" points="445.5,-249.5 325.5,-249.5 325.5,-230.5 445.5,-230.5 445.5,-249.5"/>
<text text-anchor="middle" x="385.5" y="-237.5" font-family="Helvetica,sans-Serif" font-size="10.00">DynExp::ModuleBase</text>
</a>
</g>
</g>
<!-- Node1&#45;&gt;Node39 -->
<g id="edge30_Node000001_Node000039" class="edge">
<title>Node1&#45;&gt;Node39</title>
<g id="a_edge30_Node000001_Node000039"><a xlink:title=" ">
<path fill="none" stroke="#63b8ff" d="M226.67,-452.29C260.79,-406.4 351.22,-284.77 377.34,-249.63"/>
<polygon fill="#63b8ff" stroke="#63b8ff" points="223.79,-450.3 220.63,-460.41 229.41,-454.47 223.79,-450.3"/>
</a>
</g>
</g>
<!-- Node2 -->
<g id="Node000002" class="node">
<title>Node2</title>
<g id="a_Node000002"><a xlink:href="classUtil_1_1INonCopyable.html" target="_top" xlink:title="Interface to delete copy constructor and copy assignment operator and thus make derived classes non&#45;c...">
<polygon fill="white" stroke="#666666" points="108,-498.5 0,-498.5 0,-479.5 108,-479.5 108,-498.5"/>
<text text-anchor="middle" x="54" y="-486.5" font-family="Helvetica,sans-Serif" font-size="10.00">Util::INonCopyable</text>
</a>
</g>
</g>
<!-- Node2&#45;&gt;Node1 -->
<g id="edge1_Node000001_Node000002" class="edge">
<title>Node2&#45;&gt;Node1</title>
<g id="a_edge1_Node000001_Node000002"><a xlink:title=" ">
<path fill="none" stroke="#63b8ff" d="M118.5,-481.29C126.87,-480.27 135.49,-479.23 143.93,-478.2"/>
<polygon fill="#63b8ff" stroke="#63b8ff" points="117.93,-477.83 108.42,-482.51 118.77,-484.78 117.93,-477.83"/>
</a>
</g>
</g>
<!-- Node3 -->
<g id="Node000003" class="node">
<title>Node3</title>
<g id="a_Node000003"><a xlink:href="classDynExp_1_1Object.html" target="_top" xlink:title="Base class for all DynExp Objects like hardware adapters (DynExp::HardwareAdapterBase),...">
<polygon fill="white" stroke="#666666" points="100,-461.5 8,-461.5 8,-442.5 100,-442.5 100,-461.5"/>
<text text-anchor="middle" x="54" y="-449.5" font-family="Helvetica,sans-Serif" font-size="10.00">DynExp::Object</text>
</a>
</g>
</g>
<!-- Node3&#45;&gt;Node1 -->
<g id="edge2_Node000001_Node000003" class="edge">
<title>Node3&#45;&gt;Node1</title>
<g id="a_edge2_Node000001_Node000003"><a xlink:title=" ">
<path fill="none" stroke="#63b8ff" d="M110.43,-458.38C121.26,-459.62 132.74,-460.94 143.91,-462.23"/>
<polygon fill="#63b8ff" stroke="#63b8ff" points="110.6,-454.87 100.27,-457.21 109.8,-461.83 110.6,-454.87"/>
</a>
</g>
</g>
<!-- Node5 -->
<g id="Node000005" class="node">
<title>Node5</title>
<g id="a_Node000005"><a xlink:href="classDynExpInstr_1_1gRPCInstrument.html" target="_top" xlink:title=" ">
<polygon fill="white" stroke="#666666" points="695,-1049 490,-1049 490,-997 695,-997 695,-1049"/>
<text text-anchor="start" x="498" y="-1037" font-family="Helvetica,sans-Serif" font-size="10.00">DynExpInstr::gRPCInstrument</text>
<text text-anchor="start" x="498" y="-1026" font-family="Helvetica,sans-Serif" font-size="10.00">&lt; DynExp::InstrumentBase,</text>
<text text-anchor="start" x="498" y="-1015" font-family="Helvetica,sans-Serif" font-size="10.00"> 0, DynExpProto::WidefieldLocalization</text>
<text text-anchor="middle" x="592.5" y="-1004" font-family="Helvetica,sans-Serif" font-size="10.00">::WidefieldLocalization &gt;</text>
</a>
</g>
</g>
<!-- Node4&#45;&gt;Node5 -->
<g id="edge4_Node000004_Node000005" class="edge">
<title>Node4&#45;&gt;Node5</title>
<g id="a_edge4_Node000004_Node000005"><a xlink:title=" ">
<path fill="none" stroke="#63b8ff" d="M390.33,-767.58C399.77,-811 428.02,-916.36 490,-978 497.38,-985.34 506.16,-991.59 515.43,-996.87"/>
<polygon fill="#63b8ff" stroke="#63b8ff" points="393.74,-766.8 388.28,-757.72 386.89,-768.23 393.74,-766.8"/>
</a>
</g>
</g>
<!-- Node7 -->
<g id="Node000007" class="node">
<title>Node7</title>
<g id="a_Node000007"><a xlink:href="classDynExpInstr_1_1Camera.html" target="_top" xlink:title="Meta instrument for an image capturing (camera) device.">
<polygon fill="white" stroke="#666666" points="652.5,-968.5 532.5,-968.5 532.5,-949.5 652.5,-949.5 652.5,-968.5"/>
<text text-anchor="middle" x="592.5" y="-956.5" font-family="Helvetica,sans-Serif" font-size="10.00">DynExpInstr::Camera</text>
</a>
</g>
</g>
<!-- Node4&#45;&gt;Node7 -->
<g id="edge6_Node000004_Node000007" class="edge">
<title>Node4&#45;&gt;Node7</title>
<g id="a_edge6_Node000004_Node000007"><a xlink:title=" ">
<path fill="none" stroke="#63b8ff" d="M402.93,-764.91C443.96,-807.14 549.94,-916.22 582.1,-949.33"/>
<polygon fill="#63b8ff" stroke="#63b8ff" points="405.32,-762.35 395.84,-757.61 400.3,-767.23 405.32,-762.35"/>
</a>
</g>
</g>
<!-- Node10 -->
<g id="Node000010" class="node">
<title>Node10</title>
<g id="a_Node000010"><a xlink:href="classDynExpInstr_1_1DataStreamInstrument.html" target="_top" xlink:title="Implementation of the data stream meta instrument, which is a base class for all instruments reading/...">
<polygon fill="white" stroke="#666666" points="689.5,-816.5 495.5,-816.5 495.5,-797.5 689.5,-797.5 689.5,-816.5"/>
<text text-anchor="middle" x="592.5" y="-804.5" font-family="Helvetica,sans-Serif" font-size="10.00">DynExpInstr::DataStreamInstrument</text>
</a>
</g>
</g>
<!-- Node4&#45;&gt;Node10 -->
<g id="edge9_Node000004_Node000010" class="edge">
<title>Node4&#45;&gt;Node10</title>
<g id="a_edge9_Node000004_Node000010"><a xlink:title=" ">
<path fill="none" stroke="#63b8ff" d="M429.76,-760.45C468.18,-771.51 523.5,-787.43 558.46,-797.49"/>
<polygon fill="#63b8ff" stroke="#63b8ff" points="430.47,-757.01 419.89,-757.61 428.53,-763.74 430.47,-757.01"/>
</a>
</g>
</g>
<!-- Node31 -->
<g id="Node000031" class="node">
<title>Node31</title>
<g id="a_Node000031"><a xlink:href="classDynExpInstr_1_1InterModuleCommunicator.html" target="_top" xlink:title="Defines an inter&#45;module communicator instrument to exchange events in between DynExp modules....">
<polygon fill="white" stroke="#666666" points="662.5,-763 522.5,-763 522.5,-733 662.5,-733 662.5,-763"/>
<text text-anchor="start" x="530.5" y="-751" font-family="Helvetica,sans-Serif" font-size="10.00">DynExpInstr::InterModule</text>
<text text-anchor="middle" x="592.5" y="-740" font-family="Helvetica,sans-Serif" font-size="10.00">Communicator</text>
</a>
</g>
</g>
<!-- Node4&#45;&gt;Node31 -->
<g id="edge23_Node000004_Node000031" class="edge">
<title>Node4&#45;&gt;Node31</title>
<g id="a_edge23_Node000004_Node000031"><a xlink:title=" ">
<path fill="none" stroke="#63b8ff" d="M464.36,-748C483.48,-748 503.81,-748 522.48,-748"/>
<polygon fill="#63b8ff" stroke="#63b8ff" points="464.19,-744.5 454.19,-748 464.19,-751.5 464.19,-744.5"/>
</a>
</g>
</g>
<!-- Node32 -->
<g id="Node000032" class="node">
<title>Node32</title>
<g id="a_Node000032"><a xlink:href="classDynExpInstr_1_1PositionerStage.html" target="_top" xlink:title="Implementation of a meta instrument to control single&#45;axis positioner stages.">
<polygon fill="white" stroke="#666666" points="671.5,-702.5 513.5,-702.5 513.5,-683.5 671.5,-683.5 671.5,-702.5"/>
<text text-anchor="middle" x="592.5" y="-690.5" font-family="Helvetica,sans-Serif" font-size="10.00">DynExpInstr::PositionerStage</text>
</a>
</g>
</g>
<!-- Node4&#45;&gt;Node32 -->
<g id="edge24_Node000004_Node000032" class="edge">
<title>Node4&#45;&gt;Node32</title>
<g id="a_edge24_Node000004_Node000032"><a xlink:title=" ">
<path fill="none" stroke="#63b8ff" d="M432.32,-735.71C469.64,-725.69 521.59,-711.76 555.86,-702.56"/>
<polygon fill="#63b8ff" stroke="#63b8ff" points="430.96,-732.45 422.21,-738.42 432.77,-739.21 430.96,-732.45"/>
</a>
</g>
</g>
<!-- Node36 -->
<g id="Node000036" class="node">
<title>Node36</title>
<g id="a_Node000036"><a xlink:href="classDynExpInstr_1_1Spectrometer.html" target="_top" xlink:title="Meta instrument for a spectrometer.">
<polygon fill="white" stroke="#666666" points="666.5,-633.5 518.5,-633.5 518.5,-614.5 666.5,-614.5 666.5,-633.5"/>
<text text-anchor="middle" x="592.5" y="-621.5" font-family="Helvetica,sans-Serif" font-size="10.00">DynExpInstr::Spectrometer</text>
</a>
</g>
</g>
<!-- Node4&#45;&gt;Node36 -->
<g id="edge28_Node000004_Node000036" class="edge">
<title>Node4&#45;&gt;Node36</title>
<g id="a_edge28_Node000004_Node000036"><a xlink:title=" ">
<path fill="none" stroke="#63b8ff" d="M406.81,-732.31C427.25,-716.86 459.96,-693 490,-675 516.73,-658.98 549.13,-643.31 570.01,-633.66"/>
<polygon fill="#63b8ff" stroke="#63b8ff" points="404.67,-729.54 398.84,-738.38 408.92,-735.11 404.67,-729.54"/>
</a>
</g>
</g>
<!-- Node6 -->
<g id="Node000006" class="node">
<title>Node6</title>
<g id="a_Node000006"><a xlink:href="classDynExpInstr_1_1WidefieldLocalization.html" target="_top" xlink:title=" ">
<polygon fill="white" stroke="#666666" points="951,-1042.5 765,-1042.5 765,-1023.5 951,-1023.5 951,-1042.5"/>
<text text-anchor="middle" x="858" y="-1030.5" font-family="Helvetica,sans-Serif" font-size="10.00">DynExpInstr::WidefieldLocalization</text>
</a>
</g>
</g>
<!-- Node5&#45;&gt;Node6 -->
<g id="edge5_Node000005_Node000006" class="edge">
<title>Node5&#45;&gt;Node6</title>
<g id="a_edge5_Node000005_Node000006"><a xlink:title=" ">
<path fill="none" stroke="#63b8ff" d="M705.64,-1027.26C725.39,-1028.01 745.74,-1028.78 764.87,-1029.5"/>
<polygon fill="#63b8ff" stroke="#63b8ff" points="705.5,-1023.75 695.38,-1026.87 705.24,-1030.74 705.5,-1023.75"/>
</a>
</g>
</g>
<!-- Node8 -->
<g id="Node000008" class="node">
<title>Node8</title>
<g id="a_Node000008"><a xlink:href="classDynExpInstr_1_1DummyCamera.html" target="_top" xlink:title=" ">
<polygon fill="white" stroke="#666666" points="937.5,-1005.5 778.5,-1005.5 778.5,-986.5 937.5,-986.5 937.5,-1005.5"/>
<text text-anchor="middle" x="858" y="-993.5" font-family="Helvetica,sans-Serif" font-size="10.00">DynExpInstr::DummyCamera</text>
</a>
</g>
</g>
<!-- Node7&#45;&gt;Node8 -->
<g id="edge7_Node000007_Node000008" class="edge">
<title>Node7&#45;&gt;Node8</title>
<g id="a_edge7_Node000007_Node000008"><a xlink:title=" ">
<path fill="none" stroke="#63b8ff" d="M662.86,-968.74C701.9,-974.22 750.45,-981.04 789.23,-986.48"/>
<polygon fill="#63b8ff" stroke="#63b8ff" points="663.02,-965.23 652.63,-967.3 662.05,-972.16 663.02,-965.23"/>
</a>
</g>
</g>
<!-- Node9 -->
<g id="Node000009" class="node">
<title>Node9</title>
<g id="a_Node000009"><a xlink:href="classDynExpInstr_1_1PVCam.html" target="_top" xlink:title=" ">
<polygon fill="white" stroke="#666666" points="916.5,-968.5 799.5,-968.5 799.5,-949.5 916.5,-949.5 916.5,-968.5"/>
<text text-anchor="middle" x="858" y="-956.5" font-family="Helvetica,sans-Serif" font-size="10.00">DynExpInstr::PVCam</text>
</a>
</g>
</g>
<!-- Node7&#45;&gt;Node9 -->
<g id="edge8_Node000007_Node000009" class="edge">
<title>Node7&#45;&gt;Node9</title>
<g id="a_edge8_Node000007_Node000009"><a xlink:title=" ">
<path fill="none" stroke="#63b8ff" d="M662.64,-959C705.22,-959 759.17,-959 799.42,-959"/>
<polygon fill="#63b8ff" stroke="#63b8ff" points="662.63,-955.5 652.63,-959 662.63,-962.5 662.63,-955.5"/>
</a>
</g>
</g>
<!-- Node11 -->
<g id="Node000011" class="node">
<title>Node11</title>
<g id="a_Node000011"><a xlink:href="classDynExpInstr_1_1gRPCInstrument.html" target="_top" xlink:title=" ">
<polygon fill="white" stroke="#666666" points="938.5,-931.5 777.5,-931.5 777.5,-890.5 938.5,-890.5 938.5,-931.5"/>
<text text-anchor="start" x="785.5" y="-919.5" font-family="Helvetica,sans-Serif" font-size="10.00">DynExpInstr::gRPCInstrument</text>
<text text-anchor="start" x="785.5" y="-908.5" font-family="Helvetica,sans-Serif" font-size="10.00">&lt; DataStreamInstrument,</text>
<text text-anchor="middle" x="858" y="-897.5" font-family="Helvetica,sans-Serif" font-size="10.00"> 0, gRPCStubs... &gt;</text>
</a>
</g>
</g>
<!-- Node10&#45;&gt;Node11 -->
<g id="edge10_Node000010_Node000011" class="edge">
<title>Node10&#45;&gt;Node11</title>
<g id="a_edge10_Node000010_Node000011"><a xlink:title=" ">
<path fill="none" stroke="#63b8ff" d="M616.7,-822.24C643.3,-839.08 688.7,-865.94 731,-882 745.69,-887.58 761.77,-892.27 777.37,-896.15"/>
<polygon fill="#63b8ff" stroke="#63b8ff" points="618.42,-819.18 608.11,-816.73 614.64,-825.07 618.42,-819.18"/>
</a>
</g>
</g>
<!-- Node12 -->
<g id="Node000012" class="node">
<title>Node12</title>
<g id="a_Node000012"><a xlink:href="classDynExpInstr_1_1FunctionGenerator.html" target="_top" xlink:title="Function generator meta instrument based on the data stream meta instrument to generate waveforms by ...">
<polygon fill="white" stroke="#666666" points="944,-872.5 772,-872.5 772,-853.5 944,-853.5 944,-872.5"/>
<text text-anchor="middle" x="858" y="-860.5" font-family="Helvetica,sans-Serif" font-size="10.00">DynExpInstr::FunctionGenerator</text>
</a>
</g>
</g>
<!-- Node10&#45;&gt;Node12 -->
<g id="edge11_Node000010_Node000012" class="edge">
<title>Node10&#45;&gt;Node12</title>
<g id="a_edge11_Node000010_Node000012"><a xlink:title=" ">
<path fill="none" stroke="#63b8ff" d="M633.39,-819.48C660.66,-827.65 697.75,-838.06 731,-845 746.47,-848.23 763.12,-851.06 779.1,-853.46"/>
<polygon fill="#63b8ff" stroke="#63b8ff" points="634.39,-816.13 623.81,-816.58 632.37,-822.83 634.39,-816.13"/>
</a>
</g>
</g>
<!-- Node22 -->
<g id="Node000022" class="node">
<title>Node22</title>
<g id="a_Node000022"><a xlink:href="classDynExpInstr_1_1InputPort.html" target="_top" xlink:title="Generic input port meta instrument based on the data stream meta instrument to read data from hardwar...">
<polygon fill="white" stroke="#666666" points="921,-835.5 795,-835.5 795,-816.5 921,-816.5 921,-835.5"/>
<text text-anchor="middle" x="858" y="-823.5" font-family="Helvetica,sans-Serif" font-size="10.00">DynExpInstr::InputPort</text>
</a>
</g>
</g>
<!-- Node10&#45;&gt;Node22 -->
<g id="edge17_Node000010_Node000022" class="edge">
<title>Node10&#45;&gt;Node22</title>
<g id="a_edge17_Node000010_Node000022"><a xlink:title=" ">
<path fill="none" stroke="#63b8ff" d="M700.09,-814.69C732.21,-817 766.39,-819.47 794.63,-821.5"/>
<polygon fill="#63b8ff" stroke="#63b8ff" points="699.97,-811.17 689.75,-813.94 699.47,-818.15 699.97,-811.17"/>
</a>
</g>
</g>
<!-- Node27 -->
<g id="Node000027" class="node">
<title>Node27</title>
<g id="a_Node000027"><a xlink:href="classDynExpInstr_1_1LockinAmplifier.html" target="_top" xlink:title="Meta instrument for a lock&#45;in amplifier based on the data stream meta instrument.">
<polygon fill="white" stroke="#666666" points="937,-798.5 779,-798.5 779,-779.5 937,-779.5 937,-798.5"/>
<text text-anchor="middle" x="858" y="-786.5" font-family="Helvetica,sans-Serif" font-size="10.00">DynExpInstr::LockinAmplifier</text>
</a>
</g>
</g>
<!-- Node10&#45;&gt;Node27 -->
<g id="edge20_Node000010_Node000027" class="edge">
<title>Node10&#45;&gt;Node27</title>
<g id="a_edge20_Node000010_Node000027"><a xlink:title=" ">
<path fill="none" stroke="#63b8ff" d="M699.78,-799.74C726.15,-797.94 753.95,-796.04 778.71,-794.35"/>
<polygon fill="#63b8ff" stroke="#63b8ff" points="699.49,-796.25 689.75,-800.43 699.96,-803.24 699.49,-796.25"/>
</a>
</g>
</g>
<!-- Node29 -->
<g id="Node000029" class="node">
<title>Node29</title>
<g id="a_Node000029"><a xlink:href="classDynExpInstr_1_1TimeTagger.html" target="_top" xlink:title="Meta instrument for a time tagging device to assign timestamps to (e.g. photon) detection events base...">
<polygon fill="#fff0f0" stroke="red" points="927.5,-761.5 788.5,-761.5 788.5,-742.5 927.5,-742.5 927.5,-761.5"/>
<text text-anchor="middle" x="858" y="-749.5" font-family="Helvetica,sans-Serif" font-size="10.00">DynExpInstr::TimeTagger</text>
</a>
</g>
</g>
<!-- Node10&#45;&gt;Node29 -->
<g id="edge22_Node000010_Node000029" class="edge">
<title>Node10&#45;&gt;Node29</title>
<g id="a_edge22_Node000010_Node000029"><a xlink:title=" ">
<path fill="none" stroke="#63b8ff" d="M635.96,-794.63C662.99,-787.07 698.85,-777.61 731,-771 749.53,-767.19 769.73,-763.8 788.43,-760.99"/>
<polygon fill="#63b8ff" stroke="#63b8ff" points="634.73,-791.35 626.05,-797.43 636.63,-798.08 634.73,-791.35"/>
</a>
</g>
</g>
<!-- Node13 -->
<g id="Node000013" class="node">
<title>Node13</title>
<g id="a_Node000013"><a xlink:href="classDynExpInstr_1_1DummyDataStreamInstrument.html" target="_top" xlink:title=" ">
<polygon fill="white" stroke="#666666" points="1201.5,-1016 1022.5,-1016 1022.5,-986 1201.5,-986 1201.5,-1016"/>
<text text-anchor="start" x="1030.5" y="-1004" font-family="Helvetica,sans-Serif" font-size="10.00">DynExpInstr::DummyDataStream</text>
<text text-anchor="middle" x="1112" y="-993" font-family="Helvetica,sans-Serif" font-size="10.00">Instrument</text>
</a>
</g>
</g>
<!-- Node12&#45;&gt;Node13 -->
<g id="edge12_Node000012_Node000013" class="edge">
<title>Node12&#45;&gt;Node13</title>
<g id="a_edge12_Node000012_Node000013"><a xlink:title=" ">
<path fill="none" stroke="#63b8ff" d="M954.08,-866.08C965.29,-869.58 975.95,-874.69 985,-882 1020.13,-910.36 987.49,-946.74 1021,-977 1024.84,-980.47 1029.13,-983.44 1033.69,-986"/>
<polygon fill="#63b8ff" stroke="#63b8ff" points="954.68,-862.62 944.11,-863.4 952.86,-869.38 954.68,-862.62"/>
</a>
</g>
</g>
<!-- Node14 -->
<g id="Node000014" class="node">
<title>Node14</title>
<g id="a_Node000014"><a xlink:href="classDynExpInstr_1_1OutputPort.html" target="_top" xlink:title="Generic output port meta instrument based on the data stream and function generator meta instruments ...">
<polygon fill="#fff0f0" stroke="red" points="1179,-967.5 1045,-967.5 1045,-948.5 1179,-948.5 1179,-967.5"/>
<text text-anchor="middle" x="1112" y="-955.5" font-family="Helvetica,sans-Serif" font-size="10.00">DynExpInstr::OutputPort</text>
</a>
</g>
</g>
<!-- Node12&#45;&gt;Node14 -->
<g id="edge13_Node000012_Node000014" class="edge">
<title>Node12&#45;&gt;Node14</title>
<g id="a_edge13_Node000012_Node000014"><a xlink:title=" ">
<path fill="none" stroke="#63b8ff" d="M953.83,-868.09C964.89,-871.3 975.57,-875.79 985,-882 1010.34,-898.69 996.07,-922.71 1021,-940 1028.2,-944.99 1036.46,-948.67 1045,-951.37"/>
<polygon fill="#63b8ff" stroke="#63b8ff" points="954.6,-864.67 944.04,-865.59 952.87,-871.46 954.6,-864.67"/>
</a>
</g>
</g>
<!-- Node19 -->
<g id="Node000019" class="node">
<title>Node19</title>
<g id="a_Node000019"><a xlink:href="classDynExpInstr_1_1RS__SMB100B.html" target="_top" xlink:title=" ">
<polygon fill="white" stroke="#666666" points="1185,-930.5 1039,-930.5 1039,-911.5 1185,-911.5 1185,-930.5"/>
<text text-anchor="middle" x="1112" y="-918.5" font-family="Helvetica,sans-Serif" font-size="10.00">DynExpInstr::RS_SMB100B</text>
</a>
</g>
</g>
<!-- Node12&#45;&gt;Node19 -->
<g id="edge14_Node000012_Node000019" class="edge">
<title>Node12&#45;&gt;Node19</title>
<g id="a_edge14_Node000012_Node000019"><a xlink:title=" ">
<path fill="none" stroke="#63b8ff" d="M954.22,-873.41C964.75,-875.72 975.2,-878.54 985,-882 1002.47,-888.16 1003.68,-896.43 1021,-903 1029.94,-906.39 1039.63,-909.18 1049.23,-911.47"/>
<polygon fill="#63b8ff" stroke="#63b8ff" points="954.62,-869.91 944.12,-871.34 953.22,-876.77 954.62,-869.91"/>
</a>
</g>
</g>
<!-- Node20 -->
<g id="Node000020" class="node">
<title>Node20</title>
<g id="a_Node000020"><a xlink:href="classDynExpInstr_1_1RS__SMC100A.html" target="_top" xlink:title=" ">
<polygon fill="white" stroke="#666666" points="1185,-893.5 1039,-893.5 1039,-874.5 1185,-874.5 1185,-893.5"/>
<text text-anchor="middle" x="1112" y="-881.5" font-family="Helvetica,sans-Serif" font-size="10.00">DynExpInstr::RS_SMC100A</text>
</a>
</g>
</g>
<!-- Node12&#45;&gt;Node20 -->
<g id="edge15_Node000012_Node000020" class="edge">
<title>Node12&#45;&gt;Node20</title>
<g id="a_edge15_Node000012_Node000020"><a xlink:title=" ">
<path fill="none" stroke="#63b8ff" d="M954.51,-870.96C982.46,-873.29 1012.55,-875.8 1038.8,-877.98"/>
<polygon fill="#63b8ff" stroke="#63b8ff" points="954.57,-867.45 944.32,-870.11 953.99,-874.43 954.57,-867.45"/>
</a>
</g>
</g>
<!-- Node21 -->
<g id="Node000021" class="node">
<title>Node21</title>
<g id="a_Node000021"><a xlink:href="classDynExpInstr_1_1SwabianInstrumentsPulseStreamer.html" target="_top" xlink:title=" ">
<polygon fill="white" stroke="#666666" points="1203,-856 1021,-856 1021,-826 1203,-826 1203,-856"/>
<text text-anchor="start" x="1029" y="-844" font-family="Helvetica,sans-Serif" font-size="10.00">DynExpInstr::SwabianInstruments</text>
<text text-anchor="middle" x="1112" y="-833" font-family="Helvetica,sans-Serif" font-size="10.00">PulseStreamer</text>
</a>
</g>
</g>
<!-- Node12&#45;&gt;Node21 -->
<g id="edge16_Node000012_Node000021" class="edge">
<title>Node12&#45;&gt;Node21</title>
<g id="a_edge16_Node000012_Node000021"><a xlink:title=" ">
<path fill="none" stroke="#63b8ff" d="M954.51,-854.66C976.18,-852.77 999.14,-850.77 1020.6,-848.89"/>
<polygon fill="#63b8ff" stroke="#63b8ff" points="953.97,-851.2 944.32,-855.55 954.58,-858.17 953.97,-851.2"/>
</a>
</g>
</g>
<!-- Node23 -->
<g id="Node000023" class="node">
<title>Node23</title>
<g id="a_Node000023"><a xlink:href="classDynExpInstr_1_1AnalogIn.html" target="_top" xlink:title="Meta instrument for a single analog input port based on the data stream and generic input port meta i...">
<polygon fill="#fff0f0" stroke="red" points="1174.5,-807.5 1049.5,-807.5 1049.5,-788.5 1174.5,-788.5 1174.5,-807.5"/>
<text text-anchor="middle" x="1112" y="-795.5" font-family="Helvetica,sans-Serif" font-size="10.00">DynExpInstr::AnalogIn</text>
</a>
</g>
</g>
<!-- Node22&#45;&gt;Node23 -->
<g id="edge18_Node000022_Node000023" class="edge">
<title>Node22&#45;&gt;Node23</title>
<g id="a_edge18_Node000022_Node000023"><a xlink:title=" ">
<path fill="none" stroke="#63b8ff" d="M931.59,-817.93C968.89,-813.79 1013.84,-808.8 1049.42,-804.84"/>
<polygon fill="#63b8ff" stroke="#63b8ff" points="930.84,-814.5 921.29,-819.08 931.62,-821.45 930.84,-814.5"/>
</a>
</g>
</g>
<!-- Node25 -->
<g id="Node000025" class="node">
<title>Node25</title>
<g id="a_Node000025"><a xlink:href="classDynExpInstr_1_1DigitalIn.html" target="_top" xlink:title="Meta instrument for a single digital input port based on the data stream and generic input port meta ...">
<polygon fill="#fff0f0" stroke="red" points="1173.5,-770.5 1050.5,-770.5 1050.5,-751.5 1173.5,-751.5 1173.5,-770.5"/>
<text text-anchor="middle" x="1112" y="-758.5" font-family="Helvetica,sans-Serif" font-size="10.00">DynExpInstr::DigitalIn</text>
</a>
</g>
</g>
<!-- Node22&#45;&gt;Node25 -->
<g id="edge19_Node000022_Node000025" class="edge">
<title>Node22&#45;&gt;Node25</title>
<g id="a_edge19_Node000022_Node000025"><a xlink:title=" ">
<path fill="none" stroke="#63b8ff" d="M931.21,-822.2C949.28,-819.5 968.27,-815.1 985,-808 1003.66,-800.08 1002.61,-788.53 1021,-780 1030.13,-775.76 1040.21,-772.46 1050.23,-769.89"/>
<polygon fill="#63b8ff" stroke="#63b8ff" points="930.73,-818.73 921.28,-823.53 931.66,-825.67 930.73,-818.73"/>
</a>
</g>
</g>
<!-- Node28 -->
<g id="Node000028" class="node">
<title>Node28</title>
<g id="a_Node000028"><a xlink:href="classDynExpInstr_1_1ZI__MFLI.html" target="_top" xlink:title=" ">
<polygon fill="white" stroke="#666666" points="1172,-733.5 1052,-733.5 1052,-714.5 1172,-714.5 1172,-733.5"/>
<text text-anchor="middle" x="1112" y="-721.5" font-family="Helvetica,sans-Serif" font-size="10.00">DynExpInstr::ZI_MFLI</text>
</a>
</g>
</g>
<!-- Node27&#45;&gt;Node28 -->
<g id="edge21_Node000027_Node000028" class="edge">
<title>Node27&#45;&gt;Node28</title>
<g id="a_edge21_Node000027_Node000028"><a xlink:title=" ">
<path fill="none" stroke="#63b8ff" d="M946.97,-782.42C960.03,-779.74 973.09,-776.06 985,-771 1003.66,-763.08 1002.61,-751.53 1021,-743 1030.56,-738.56 1041.17,-735.15 1051.66,-732.53"/>
<polygon fill="#63b8ff" stroke="#63b8ff" points="946.2,-779 937.01,-784.28 947.48,-785.88 946.2,-779"/>
</a>
</g>
</g>
<!-- Node33 -->
<g id="Node000033" class="node">
<title>Node33</title>
<g id="a_Node000033"><a xlink:href="classDynExpInstr_1_1NenionLeakvalveF3.html" target="_top" xlink:title=" ">
<polygon fill="white" stroke="#666666" points="947.5,-724.5 768.5,-724.5 768.5,-705.5 947.5,-705.5 947.5,-724.5"/>
<text text-anchor="middle" x="858" y="-712.5" font-family="Helvetica,sans-Serif" font-size="10.00">DynExpInstr::NenionLeakvalveF3</text>
</a>
</g>
</g>
<!-- Node32&#45;&gt;Node33 -->
<g id="edge25_Node000032_Node000033" class="edge">
<title>Node32&#45;&gt;Node33</title>
<g id="a_edge25_Node000032_Node000033"><a xlink:title=" ">
<path fill="none" stroke="#63b8ff" d="M681.95,-700.39C709.77,-702.71 740.49,-705.27 768.33,-707.6"/>
<polygon fill="#63b8ff" stroke="#63b8ff" points="682.1,-696.89 671.85,-699.54 681.52,-703.86 682.1,-696.89"/>
</a>
</g>
</g>
<!-- Node34 -->
<g id="Node000034" class="node">
<title>Node34</title>
<g id="a_Node000034"><a xlink:href="classDynExpInstr_1_1PI__C__862.html" target="_top" xlink:title=" ">
<polygon fill="white" stroke="#666666" points="921,-687.5 795,-687.5 795,-668.5 921,-668.5 921,-687.5"/>
<text text-anchor="middle" x="858" y="-675.5" font-family="Helvetica,sans-Serif" font-size="10.00">DynExpInstr::PI_C_862</text>
</a>
</g>
</g>
<!-- Node32&#45;&gt;Node34 -->
<g id="edge26_Node000032_Node000034" class="edge">
<title>Node32&#45;&gt;Node34</title>
<g id="a_edge26_Node000032_Node000034"><a xlink:title=" ">
<path fill="none" stroke="#63b8ff" d="M682.13,-687.95C719.13,-685.85 761.22,-683.45 794.83,-681.54"/>
<polygon fill="#63b8ff" stroke="#63b8ff" points="681.63,-684.48 671.85,-688.54 682.03,-691.47 681.63,-684.48"/>
</a>
</g>
</g>
<!-- Node35 -->
<g id="Node000035" class="node">
<title>Node35</title>
<g id="a_Node000035"><a xlink:href="classDynExpInstr_1_1SmarAct.html" target="_top" xlink:title=" ">
<polygon fill="white" stroke="#666666" points="919.5,-650.5 796.5,-650.5 796.5,-631.5 919.5,-631.5 919.5,-650.5"/>
<text text-anchor="middle" x="858" y="-638.5" font-family="Helvetica,sans-Serif" font-size="10.00">DynExpInstr::SmarAct</text>
</a>
</g>
</g>
<!-- Node32&#45;&gt;Node35 -->
<g id="edge27_Node000032_Node000035" class="edge">
<title>Node32&#45;&gt;Node35</title>
<g id="a_edge27_Node000032_Node000035"><a xlink:title=" ">
<path fill="none" stroke="#63b8ff" d="M639.31,-680.96C665.95,-674.22 700.23,-666 731,-660 752.17,-655.87 775.49,-652.13 796.25,-649.08"/>
<polygon fill="#63b8ff" stroke="#63b8ff" points="638.33,-677.6 629.5,-683.46 640.06,-684.38 638.33,-677.6"/>
</a>
</g>
</g>
<!-- Node37 -->
<g id="Node000037" class="node">
<title>Node37</title>
<g id="a_Node000037"><a xlink:href="classDynExpInstr_1_1gRPCInstrument.html" target="_top" xlink:title=" ">
<polygon fill="#fff0f0" stroke="red" points="985,-613.5 731,-613.5 731,-572.5 985,-572.5 985,-613.5"/>
<text text-anchor="start" x="739" y="-601.5" font-family="Helvetica,sans-Serif" font-size="10.00">DynExpInstr::gRPCInstrument</text>
<text text-anchor="start" x="739" y="-590.5" font-family="Helvetica,sans-Serif" font-size="10.00">&lt; Spectrometer, 0, DynExpProto</text>
<text text-anchor="middle" x="858" y="-579.5" font-family="Helvetica,sans-Serif" font-size="10.00">::NetworkSpectrometer::NetworkSpectrometer &gt;</text>
</a>
</g>
</g>
<!-- Node36&#45;&gt;Node37 -->
<g id="edge29_Node000036_Node000037" class="edge">
<title>Node36&#45;&gt;Node37</title>
<g id="a_edge29_Node000036_Node000037"><a xlink:title=" ">
<path fill="none" stroke="#63b8ff" d="M676.58,-614.23C693.89,-612.19 712.51,-610 730.97,-607.83"/>
<polygon fill="#63b8ff" stroke="#63b8ff" points="676.07,-610.76 666.55,-615.41 676.89,-617.71 676.07,-610.76"/>
</a>
</g>
</g>
<!-- Node40 -->
<g id="Node000040" class="node">
<title>Node40</title>
<g id="a_Node000040"><a xlink:href="classDynExpModule_1_1gRPCModule.html" target="_top" xlink:title=" ">
<polygon fill="white" stroke="#666666" points="671.5,-506 513.5,-506 513.5,-476 671.5,-476 671.5,-506"/>
<text text-anchor="start" x="521.5" y="-494" font-family="Helvetica,sans-Serif" font-size="10.00">DynExpModule::gRPCModule</text>
<text text-anchor="middle" x="592.5" y="-483" font-family="Helvetica,sans-Serif" font-size="10.00">&lt; gRPCServices... &gt;</text>
</a>
</g>
</g>
<!-- Node39&#45;&gt;Node40 -->
<g id="edge31_Node000039_Node000040" class="edge">
<title>Node39&#45;&gt;Node40</title>
<g id="a_edge31_Node000039_Node000040"><a xlink:title=" ">
<path fill="none" stroke="#63b8ff" d="M400.82,-257.54C439.06,-304.35 543.06,-431.68 579.04,-475.75"/>
<polygon fill="#63b8ff" stroke="#63b8ff" points="403.32,-255.06 394.29,-249.53 397.9,-259.49 403.32,-255.06"/>
</a>
</g>
</g>
<!-- Node48 -->
<g id="Node000048" class="node">
<title>Node48</title>
<g id="a_Node000048"><a xlink:href="classDynExp_1_1QModuleBase.html" target="_top" xlink:title="Base class for modules with a Qt&#45;based user interface. Derive from this class to implement modules wi...">
<polygon fill="white" stroke="#666666" points="656.5,-270.5 528.5,-270.5 528.5,-251.5 656.5,-251.5 656.5,-270.5"/>
<text text-anchor="middle" x="592.5" y="-258.5" font-family="Helvetica,sans-Serif" font-size="10.00">DynExp::QModuleBase</text>
</a>
</g>
</g>
<!-- Node39&#45;&gt;Node48 -->
<g id="edge34_Node000039_Node000048" class="edge">
<title>Node39&#45;&gt;Node48</title>
<g id="a_edge34_Node000039_Node000048"><a xlink:title=" ">
<path fill="none" stroke="#63b8ff" d="M455.75,-247.09C479.21,-249.5 505.27,-252.17 528.25,-254.52"/>
<polygon fill="#63b8ff" stroke="#63b8ff" points="455.82,-243.58 445.52,-246.05 455.11,-250.55 455.82,-243.58"/>
</a>
</g>
</g>
<!-- Node60 -->
<g id="Node000060" class="node">
<title>Node60</title>
<g id="a_Node000060"><a xlink:href="classDynExpModule_1_1ArbitraryFunctionFromCSV.html" target="_top" xlink:title=" ">
<polygon fill="white" stroke="#666666" points="682.5,-233 502.5,-233 502.5,-203 682.5,-203 682.5,-233"/>
<text text-anchor="start" x="510.5" y="-221" font-family="Helvetica,sans-Serif" font-size="10.00">DynExpModule::ArbitraryFunction</text>
<text text-anchor="middle" x="592.5" y="-210" font-family="Helvetica,sans-Serif" font-size="10.00">FromCSV</text>
</a>
</g>
</g>
<!-- Node39&#45;&gt;Node60 -->
<g id="edge46_Node000039_Node000060" class="edge">
<title>Node39&#45;&gt;Node60</title>
<g id="a_edge46_Node000039_Node000060"><a xlink:title=" ">
<path fill="none" stroke="#63b8ff" d="M455.71,-232.57C470.69,-230.96 486.74,-229.24 502.37,-227.56"/>
<polygon fill="#63b8ff" stroke="#63b8ff" points="455.09,-229.12 445.52,-233.67 455.84,-236.08 455.09,-229.12"/>
</a>
</g>
</g>
<!-- Node61 -->
<g id="Node000061" class="node">
<title>Node61</title>
<g id="a_Node000061"><a xlink:href="classDynExpModule_1_1StreamManipulator.html" target="_top" xlink:title="Module to process data stored in data stream instrument(s) with a Python script and to write the resu...">
<polygon fill="white" stroke="#666666" points="687.5,-184.5 497.5,-184.5 497.5,-165.5 687.5,-165.5 687.5,-184.5"/>
<text text-anchor="middle" x="592.5" y="-172.5" font-family="Helvetica,sans-Serif" font-size="10.00">DynExpModule::StreamManipulator</text>
</a>
</g>
</g>
<!-- Node39&#45;&gt;Node61 -->
<g id="edge47_Node000039_Node000061" class="edge">
<title>Node39&#45;&gt;Node61</title>
<g id="a_edge47_Node000039_Node000061"><a xlink:title=" ">
<path fill="none" stroke="#63b8ff" d="M413.74,-225.79C434.23,-215.62 463.26,-202.32 490,-194 502.15,-190.22 515.37,-187.07 528.13,-184.5"/>
<polygon fill="#63b8ff" stroke="#63b8ff" points="412.05,-222.72 404.69,-230.35 415.2,-228.97 412.05,-222.72"/>
</a>
</g>
</g>
<!-- Node62 -->
<g id="Node000062" class="node">
<title>Node62</title>
<g id="a_Node000062"><a xlink:href="classDynExpModule_1_1gRPCModule.html" target="_top" xlink:title="Module template for building gRPC servers listening on TCP sockets for network instruments to connect...">
<polygon fill="white" stroke="#666666" points="671.5,-147 513.5,-147 513.5,-117 671.5,-117 671.5,-147"/>
<text text-anchor="start" x="521.5" y="-135" font-family="Helvetica,sans-Serif" font-size="10.00">DynExpModule::gRPCModule</text>
<text text-anchor="middle" x="592.5" y="-124" font-family="Helvetica,sans-Serif" font-size="10.00">&lt; gRPCServices &gt;</text>
</a>
</g>
</g>
<!-- Node39&#45;&gt;Node62 -->
<g id="edge48_Node000039_Node000062" class="edge">
<title>Node39&#45;&gt;Node62</title>
<g id="a_edge48_Node000039_Node000062"><a xlink:title=" ">
<path fill="none" stroke="#63b8ff" d="M402.46,-223.08C421.49,-203.92 455.14,-173.14 490,-156 497.39,-152.36 505.37,-149.26 513.48,-146.62"/>
<polygon fill="#63b8ff" stroke="#63b8ff" points="399.92,-220.67 395.46,-230.28 404.94,-225.55 399.92,-220.67"/>
</a>
</g>
</g>
<!-- Node41 -->
<g id="Node000041" class="node">
<title>Node41</title>
<g id="a_Node000041"><a xlink:href="classDynExpModule_1_1NetworkDataStreamInstrumentT.html" target="_top" xlink:title=" ">
<polygon fill="#fff0f0" stroke="red" points="962.5,-554 753.5,-554 753.5,-524 962.5,-524 962.5,-554"/>
<text text-anchor="start" x="761.5" y="-542" font-family="Helvetica,sans-Serif" font-size="10.00">DynExpModule::NetworkData</text>
<text text-anchor="middle" x="858" y="-531" font-family="Helvetica,sans-Serif" font-size="10.00">StreamInstrumentT&lt; gRPCServices... &gt;</text>
</a>
</g>
</g>
<!-- Node40&#45;&gt;Node41 -->
<g id="edge32_Node000040_Node000041" class="edge">
<title>Node40&#45;&gt;Node41</title>
<g id="a_edge32_Node000040_Node000041"><a xlink:title=" ">
<path fill="none" stroke="#63b8ff" d="M681.84,-507.09C711.72,-512.54 744.96,-518.59 774.38,-523.95"/>
<polygon fill="#63b8ff" stroke="#63b8ff" points="682.31,-503.62 671.85,-505.27 681.06,-510.51 682.31,-503.62"/>
</a>
</g>
</g>
<!-- Node47 -->
<g id="Node000047" class="node">
<title>Node47</title>
<g id="a_Node000047"><a xlink:href="classDynExpModule_1_1NetworkDataStreamInstrumentT.html" target="_top" xlink:title=" ">
<polygon fill="white" stroke="#666666" points="958,-506 758,-506 758,-476 958,-476 958,-506"/>
<text text-anchor="start" x="766" y="-494" font-family="Helvetica,sans-Serif" font-size="10.00">DynExpModule::NetworkData</text>
<text text-anchor="middle" x="858" y="-483" font-family="Helvetica,sans-Serif" font-size="10.00">StreamInstrumentT&lt; gRPCServices &gt;</text>
</a>
</g>
</g>
<!-- Node40&#45;&gt;Node47 -->
<g id="edge33_Node000040_Node000047" class="edge">
<title>Node40&#45;&gt;Node47</title>
<g id="a_edge33_Node000040_Node000047"><a xlink:title=" ">
<path fill="none" stroke="#63b8ff" d="M682.13,-491C706.47,-491 733.01,-491 757.9,-491"/>
<polygon fill="#63b8ff" stroke="#63b8ff" points="681.85,-487.5 671.85,-491 681.85,-494.5 681.85,-487.5"/>
</a>
</g>
</g>
<!-- Node49 -->
<g id="Node000049" class="node">
<title>Node49</title>
<g id="a_Node000049"><a xlink:href="classDynExpModule_1_1ImageViewer_1_1ImageViewer.html" target="_top" xlink:title=" ">
<polygon fill="white" stroke="#666666" points="938.5,-458 777.5,-458 777.5,-428 938.5,-428 938.5,-458"/>
<text text-anchor="start" x="785.5" y="-446" font-family="Helvetica,sans-Serif" font-size="10.00">DynExpModule::ImageViewer</text>
<text text-anchor="middle" x="858" y="-435" font-family="Helvetica,sans-Serif" font-size="10.00">::ImageViewer</text>
</a>
</g>
</g>
<!-- Node48&#45;&gt;Node49 -->
<g id="edge35_Node000048_Node000049" class="edge">
<title>Node48&#45;&gt;Node49</title>
<g id="a_edge35_Node000048_Node000049"><a xlink:title=" ">
<path fill="none" stroke="#63b8ff" d="M603.96,-279.46C623.96,-312.93 671.03,-383.37 731,-418 745,-426.09 761.18,-431.6 777.18,-435.34"/>
<polygon fill="#63b8ff" stroke="#63b8ff" points="606.91,-277.57 598.84,-270.7 600.86,-281.1 606.91,-277.57"/>
</a>
</g>
</g>
<!-- Node50 -->
<g id="Node000050" class="node">
<title>Node50</title>
<g id="a_Node000050"><a xlink:href="classDynExpModule_1_1InputPortReader.html" target="_top" xlink:title=" ">
<polygon fill="white" stroke="#666666" points="945.5,-409.5 770.5,-409.5 770.5,-390.5 945.5,-390.5 945.5,-409.5"/>
<text text-anchor="middle" x="858" y="-397.5" font-family="Helvetica,sans-Serif" font-size="10.00">DynExpModule::InputPortReader</text>
</a>
</g>
</g>
<!-- Node48&#45;&gt;Node50 -->
<g id="edge36_Node000048_Node000050" class="edge">
<title>Node48&#45;&gt;Node50</title>
<g id="a_edge36_Node000048_Node000050"><a xlink:title=" ">
<path fill="none" stroke="#63b8ff" d="M607.76,-278.69C630.64,-305.69 678.33,-356.62 731,-381 743.25,-386.67 756.81,-390.72 770.37,-393.59"/>
<polygon fill="#63b8ff" stroke="#63b8ff" points="610.32,-276.28 601.24,-270.83 604.93,-280.75 610.32,-276.28"/>
</a>
</g>
</g>
<!-- Node51 -->
<g id="Node000051" class="node">
<title>Node51</title>
<g id="a_Node000051"><a xlink:href="classDynExpModule_1_1LockinAmplifierControl.html" target="_top" xlink:title=" ">
<polygon fill="white" stroke="#666666" points="944,-372 772,-372 772,-342 944,-342 944,-372"/>
<text text-anchor="start" x="780" y="-360" font-family="Helvetica,sans-Serif" font-size="10.00">DynExpModule::LockinAmplifier</text>
<text text-anchor="middle" x="858" y="-349" font-family="Helvetica,sans-Serif" font-size="10.00">Control</text>
</a>
</g>
</g>
<!-- Node48&#45;&gt;Node51 -->
<g id="edge37_Node000048_Node000051" class="edge">
<title>Node48&#45;&gt;Node51</title>
<g id="a_edge37_Node000048_Node000051"><a xlink:title=" ">
<path fill="none" stroke="#63b8ff" d="M616.69,-275.87C643.28,-292.26 688.66,-318.25 731,-333 743.93,-337.51 757.92,-341.23 771.72,-344.29"/>
<polygon fill="#63b8ff" stroke="#63b8ff" points="618.44,-272.84 608.1,-270.51 614.73,-278.77 618.44,-272.84"/>
</a>
</g>
</g>
<!-- Node52 -->
<g id="Node000052" class="node">
<title>Node52</title>
<g id="a_Node000052"><a xlink:href="classDynExpModule_1_1ODMR_1_1ODMR.html" target="_top" xlink:title=" ">
<polygon fill="white" stroke="#666666" points="921.5,-324 794.5,-324 794.5,-294 921.5,-294 921.5,-324"/>
<text text-anchor="start" x="802.5" y="-312" font-family="Helvetica,sans-Serif" font-size="10.00">DynExpModule::ODMR</text>
<text text-anchor="middle" x="858" y="-301" font-family="Helvetica,sans-Serif" font-size="10.00">::ODMR</text>
</a>
</g>
</g>
<!-- Node48&#45;&gt;Node52 -->
<g id="edge38_Node000048_Node000052" class="edge">
<title>Node48&#45;&gt;Node52</title>
<g id="a_edge38_Node000048_Node000052"><a xlink:title=" ">
<path fill="none" stroke="#63b8ff" d="M655.91,-272.37C697.6,-279.96 752.24,-289.92 794.04,-297.53"/>
<polygon fill="#63b8ff" stroke="#63b8ff" points="656.34,-268.89 645.87,-270.54 655.08,-275.78 656.34,-268.89"/>
</a>
</g>
</g>
<!-- Node53 -->
<g id="Node000053" class="node">
<title>Node53</title>
<g id="a_Node000053"><a xlink:href="classDynExpModule_1_1OutputPortWriter.html" target="_top" xlink:title=" ">
<polygon fill="white" stroke="#666666" points="932.5,-276 783.5,-276 783.5,-246 932.5,-246 932.5,-276"/>
<text text-anchor="start" x="791.5" y="-264" font-family="Helvetica,sans-Serif" font-size="10.00">DynExpModule::OutputPort</text>
<text text-anchor="middle" x="858" y="-253" font-family="Helvetica,sans-Serif" font-size="10.00">Writer</text>
</a>
</g>
</g>
<!-- Node48&#45;&gt;Node53 -->
<g id="edge39_Node000048_Node000053" class="edge">
<title>Node48&#45;&gt;Node53</title>
<g id="a_edge39_Node000048_Node000053"><a xlink:title=" ">
<path fill="none" stroke="#63b8ff" d="M666.65,-261C702.98,-261 746.77,-261 783.19,-261"/>
<polygon fill="#63b8ff" stroke="#63b8ff" points="666.61,-257.5 656.61,-261 666.61,-264.5 666.61,-257.5"/>
</a>
</g>
</g>
<!-- Node54 -->
<g id="Node000054" class="node">
<title>Node54</title>
<g id="a_Node000054"><a xlink:href="classDynExpModule_1_1SignalDesigner.html" target="_top" xlink:title=" ">
<polygon fill="white" stroke="#666666" points="943,-227.5 773,-227.5 773,-208.5 943,-208.5 943,-227.5"/>
<text text-anchor="middle" x="858" y="-215.5" font-family="Helvetica,sans-Serif" font-size="10.00">DynExpModule::SignalDesigner</text>
</a>
</g>
</g>
<!-- Node48&#45;&gt;Node54 -->
<g id="edge40_Node000048_Node000054" class="edge">
<title>Node48&#45;&gt;Node54</title>
<g id="a_edge40_Node000048_Node000054"><a xlink:title=" ">
<path fill="none" stroke="#63b8ff" d="M656.48,-249.69C679.86,-245.58 706.62,-240.96 731,-237 750.76,-233.79 772.3,-230.47 791.88,-227.53"/>
<polygon fill="#63b8ff" stroke="#63b8ff" points="655.58,-246.3 646.34,-251.48 656.8,-253.19 655.58,-246.3"/>
</a>
</g>
</g>
<!-- Node55 -->
<g id="Node000055" class="node">
<title>Node55</title>
<g id="a_Node000055"><a xlink:href="classDynExpModule_1_1SignalPlotter.html" target="_top" xlink:title=" ">
<polygon fill="white" stroke="#666666" points="937,-190.5 779,-190.5 779,-171.5 937,-171.5 937,-190.5"/>
<text text-anchor="middle" x="858" y="-178.5" font-family="Helvetica,sans-Serif" font-size="10.00">DynExpModule::SignalPlotter</text>
</a>
</g>
</g>
<!-- Node48&#45;&gt;Node55 -->
<g id="edge41_Node000048_Node000055" class="edge">
<title>Node48&#45;&gt;Node55</title>
<g id="a_edge41_Node000048_Node000055"><a xlink:title=" ">
<path fill="none" stroke="#63b8ff" d="M666.56,-253.65C676.52,-250.86 686.3,-247.09 695,-242 716.51,-229.41 709.22,-211.12 731,-199 745.48,-190.94 762.29,-186.06 778.82,-183.18"/>
<polygon fill="#63b8ff" stroke="#63b8ff" points="665.43,-250.32 656.57,-256.12 667.11,-257.12 665.43,-250.32"/>
</a>
</g>
</g>
<!-- Node56 -->
<g id="Node000056" class="node">
<title>Node56</title>
<g id="a_Node000056"><a xlink:href="classDynExpModule_1_1SpectrumViewer_1_1SpectrumViewer.html" target="_top" xlink:title=" ">
<polygon fill="white" stroke="#666666" points="946,-153 770,-153 770,-123 946,-123 946,-153"/>
<text text-anchor="start" x="778" y="-141" font-family="Helvetica,sans-Serif" font-size="10.00">DynExpModule::SpectrumViewer</text>
<text text-anchor="middle" x="858" y="-130" font-family="Helvetica,sans-Serif" font-size="10.00">::SpectrumViewer</text>
</a>
</g>
</g>
<!-- Node48&#45;&gt;Node56 -->
<g id="edge42_Node000048_Node000056" class="edge">
<title>Node48&#45;&gt;Node56</title>
<g id="a_edge42_Node000048_Node000056"><a xlink:title=" ">
<path fill="none" stroke="#63b8ff" d="M666.48,-256.2C676.78,-253.09 686.67,-248.55 695,-242 725.65,-217.9 700.39,-186.15 731,-162 742.28,-153.1 755.87,-147.16 769.89,-143.26"/>
<polygon fill="#63b8ff" stroke="#63b8ff" points="665.35,-252.88 656.53,-258.76 667.09,-259.66 665.35,-252.88"/>
</a>
</g>
</g>
<!-- Node57 -->
<g id="Node000057" class="node">
<title>Node57</title>
<g id="a_Node000057"><a xlink:href="classDynExpModule_1_1Stage1D.html" target="_top" xlink:title=" ">
<polygon fill="white" stroke="#666666" points="926.5,-104.5 789.5,-104.5 789.5,-85.5 926.5,-85.5 926.5,-104.5"/>
<text text-anchor="middle" x="858" y="-92.5" font-family="Helvetica,sans-Serif" font-size="10.00">DynExpModule::Stage1D</text>
</a>
</g>
</g>
<!-- Node48&#45;&gt;Node57 -->
<g id="edge43_Node000048_Node000057" class="edge">
<title>Node48&#45;&gt;Node57</title>
<g id="a_edge43_Node000048_Node000057"><a xlink:title=" ">
<path fill="none" stroke="#63b8ff" d="M666.48,-257.55C676.99,-254.3 686.95,-249.36 695,-242 738.61,-202.12 686.69,-153.11 731,-114 746.84,-100.02 768.4,-93.83 789.2,-91.55"/>
<polygon fill="#63b8ff" stroke="#63b8ff" points="665.52,-254.18 656.72,-260.08 667.27,-260.96 665.52,-254.18"/>
</a>
</g>
</g>
<!-- Node58 -->
<g id="Node000058" class="node">
<title>Node58</title>
<g id="a_Node000058"><a xlink:href="classDynExpModule_1_1Trajectory1D.html" target="_top" xlink:title=" ">
<polygon fill="white" stroke="#666666" points="937,-67.5 779,-67.5 779,-48.5 937,-48.5 937,-67.5"/>
<text text-anchor="middle" x="858" y="-55.5" font-family="Helvetica,sans-Serif" font-size="10.00">DynExpModule::Trajectory1D</text>
</a>
</g>
</g>
<!-- Node48&#45;&gt;Node58 -->
<g id="edge44_Node000048_Node000058" class="edge">
<title>Node48&#45;&gt;Node58</title>
<g id="a_edge44_Node000048_Node000058"><a xlink:title=" ">
<path fill="none" stroke="#63b8ff" d="M666.48,-258.09C677.08,-254.79 687.08,-249.7 695,-242 749.14,-189.38 675.74,-127.43 731,-76 744.02,-63.88 761.31,-57.6 778.9,-54.69"/>
<polygon fill="#63b8ff" stroke="#63b8ff" points="665.42,-254.75 656.61,-260.64 667.17,-261.53 665.42,-254.75"/>
</a>
</g>
</g>
<!-- Node59 -->
<g id="Node000059" class="node">
<title>Node59</title>
<g id="a_Node000059"><a xlink:href="classDynExpModule_1_1Widefield_1_1WidefieldMicroscope.html" target="_top" xlink:title=" ">
<polygon fill="white" stroke="#666666" points="929,-30 787,-30 787,0 929,0 929,-30"/>
<text text-anchor="start" x="795" y="-18" font-family="Helvetica,sans-Serif" font-size="10.00">DynExpModule::Widefield</text>
<text text-anchor="middle" x="858" y="-7" font-family="Helvetica,sans-Serif" font-size="10.00">::WidefieldMicroscope</text>
</a>
</g>
</g>
<!-- Node48&#45;&gt;Node59 -->
<g id="edge45_Node000048_Node000059" class="edge">
<title>Node48&#45;&gt;Node59</title>
<g id="a_edge45_Node000048_Node000059"><a xlink:title=" ">
<path fill="none" stroke="#63b8ff" d="M666.54,-258.41C677.19,-255.09 687.18,-249.9 695,-242 759.48,-176.9 666.62,-104.2 731,-39 745.63,-24.18 766.38,-16.99 786.83,-13.83"/>
<polygon fill="#63b8ff" stroke="#63b8ff" points="665.43,-255.08 656.62,-260.97 667.18,-261.86 665.43,-255.08"/>
</a>
</g>
</g>
</g>
</svg>
