<?xml version="1.0" encoding="UTF-8" standalone="no"?>
<!DOCTYPE svg PUBLIC "-//W3C//DTD SVG 1.1//EN"
 "http://www.w3.org/Graphics/SVG/1.1/DTD/svg11.dtd">
<!-- Generated by graphviz version 2.43.0 (0)
 -->
<!-- Title: DynExp::HardwareAdapterSerialPortConfigurator Pages: 1 -->
<svg width="238pt" height="285pt"
 viewBox="0.00 0.00 238.00 285.00" xmlns="http://www.w3.org/2000/svg" xmlns:xlink="http://www.w3.org/1999/xlink">
<g id="graph0" class="graph" transform="scale(1 1) rotate(0) translate(4 281)">
<title>DynExp::HardwareAdapterSerialPortConfigurator</title>
<polygon fill="white" stroke="transparent" points="-4,4 -4,-281 234,-281 234,4 -4,4"/>
<!-- Node1 -->
<g id="node1" class="node">
<title>Node1</title>
<g id="a_node1"><a xlink:title="Configurator class for HardwareAdapterSerialPort.">
<polygon fill="#bfbfbf" stroke="black" points="28.5,-0.5 28.5,-30.5 201.5,-30.5 201.5,-0.5 28.5,-0.5"/>
<text text-anchor="start" x="36.5" y="-18.5" font-family="Helvetica,sans-Serif" font-size="10.00">DynExp::HardwareAdapterSerial</text>
<text text-anchor="middle" x="115" y="-7.5" font-family="Helvetica,sans-Serif" font-size="10.00">PortConfigurator</text>
</a>
</g>
</g>
<!-- Node2 -->
<g id="node2" class="node">
<title>Node2</title>
<g id="a_node2"><a xlink:href="classDynExp_1_1QSerialCommunicationHardwareAdapterConfigurator.html" target="_top" xlink:title="Configurator class for QSerialCommunicationHardwareAdapter.">
<polygon fill="white" stroke="black" points="28.5,-67.5 28.5,-97.5 201.5,-97.5 201.5,-67.5 28.5,-67.5"/>
<text text-anchor="start" x="36.5" y="-85.5" font-family="Helvetica,sans-Serif" font-size="10.00">DynExp::QSerialCommunication</text>
<text text-anchor="middle" x="115" y="-74.5" font-family="Helvetica,sans-Serif" font-size="10.00">HardwareAdapterConfigurator</text>
</a>
</g>
</g>
<!-- Node2&#45;&gt;Node1 -->
<g id="edge1" class="edge">
<title>Node2&#45;&gt;Node1</title>
<path fill="none" stroke="midnightblue" d="M115,-57.11C115,-48.15 115,-38.32 115,-30.58"/>
<polygon fill="midnightblue" stroke="midnightblue" points="111.5,-57.4 115,-67.4 118.5,-57.4 111.5,-57.4"/>
</g>
<!-- Node3 -->
<g id="node3" class="node">
<title>Node3</title>
<g id="a_node3"><a xlink:href="classDynExp_1_1SerialCommunicationHardwareAdapterConfigurator.html" target="_top" xlink:title="Configurator class for SerialCommunicationHardwareAdapter.">
<polygon fill="white" stroke="black" points="32.5,-134.5 32.5,-164.5 197.5,-164.5 197.5,-134.5 32.5,-134.5"/>
<text text-anchor="start" x="40.5" y="-152.5" font-family="Helvetica,sans-Serif" font-size="10.00">DynExp::SerialCommunication</text>
<text text-anchor="middle" x="115" y="-141.5" font-family="Helvetica,sans-Serif" font-size="10.00">HardwareAdapterConfigurator</text>
</a>
</g>
</g>
<!-- Node3&#45;&gt;Node2 -->
<g id="edge2" class="edge">
<title>Node3&#45;&gt;Node2</title>
<path fill="none" stroke="midnightblue" d="M115,-124.11C115,-115.15 115,-105.32 115,-97.58"/>
<polygon fill="midnightblue" stroke="midnightblue" points="111.5,-124.4 115,-134.4 118.5,-124.4 111.5,-124.4"/>
</g>
<!-- Node4 -->
<g id="node4" class="node">
<title>Node4</title>
<g id="a_node4"><a xlink:href="classDynExp_1_1HardwareAdapterConfiguratorBase.html" target="_top" xlink:title="Configurator class for HardwareAdapterBase.">
<polygon fill="white" stroke="black" points="0,-201.5 0,-220.5 230,-220.5 230,-201.5 0,-201.5"/>
<text text-anchor="middle" x="115" y="-208.5" font-family="Helvetica,sans-Serif" font-size="10.00">DynExp::HardwareAdapterConfiguratorBase</text>
</a>
</g>
</g>
<!-- Node4&#45;&gt;Node3 -->
<g id="edge3" class="edge">
<title>Node4&#45;&gt;Node3</title>
<path fill="none" stroke="midnightblue" d="M115,-191.23C115,-182.59 115,-172.5 115,-164.52"/>
<polygon fill="midnightblue" stroke="midnightblue" points="111.5,-191.48 115,-201.48 118.5,-191.48 111.5,-191.48"/>
</g>
<!-- Node5 -->
<g id="node5" class="node">
<title>Node5</title>
<g id="a_node5"><a xlink:href="classDynExp_1_1ConfiguratorBase.html" target="_top" xlink:title="The configurator classes have the task to generate parameter objects (refer to DynExp::ParamsBase) of...">
<polygon fill="white" stroke="black" points="43,-257.5 43,-276.5 187,-276.5 187,-257.5 43,-257.5"/>
<text text-anchor="middle" x="115" y="-264.5" font-family="Helvetica,sans-Serif" font-size="10.00">DynExp::ConfiguratorBase</text>
</a>
</g>
</g>
<!-- Node5&#45;&gt;Node4 -->
<g id="edge4" class="edge">
<title>Node5&#45;&gt;Node4</title>
<path fill="none" stroke="midnightblue" d="M115,-246.8C115,-237.91 115,-227.78 115,-220.75"/>
<polygon fill="midnightblue" stroke="midnightblue" points="111.5,-247.08 115,-257.08 118.5,-247.08 111.5,-247.08"/>
</g>
</g>
</svg>
