<?xml version="1.0" encoding="UTF-8" standalone="no"?>
<!DOCTYPE svg PUBLIC "-//W3C//DTD SVG 1.1//EN"
 "http://www.w3.org/Graphics/SVG/1.1/DTD/svg11.dtd">
<!-- Generated by graphviz version 2.43.0 (0)
 -->
<!-- Title: DynExpInstr::DataStreamInstrumentTasks::UpdateTask Pages: 1 -->
<svg width="1327pt" height="422pt"
 viewBox="0.00 0.00 1327.00 422.00" xmlns="http://www.w3.org/2000/svg" xmlns:xlink="http://www.w3.org/1999/xlink">
<g id="graph0" class="graph" transform="scale(1 1) rotate(0) translate(4 418)">
<title>DynExpInstr::DataStreamInstrumentTasks::UpdateTask</title>
<!-- Node1 -->
<g id="Node000001" class="node">
<title>Node1</title>
<g id="a_Node000001"><a xlink:title="Defines a task for updating an instrument within an instrument inheritance hierarchy....">
<polygon fill="#999999" stroke="#666666" points="513,-102 319,-102 319,-72 513,-72 513,-102"/>
<text text-anchor="start" x="327" y="-90" font-family="Helvetica,sans-Serif" font-size="10.00">DynExpInstr::DataStreamInstrument</text>
<text text-anchor="middle" x="416" y="-79" font-family="Helvetica,sans-Serif" font-size="10.00">Tasks::UpdateTask</text>
</a>
</g>
</g>
<!-- Node4 -->
<g id="Node000004" class="node">
<title>Node4</title>
<g id="a_Node000004"><a xlink:href="classDynExpInstr_1_1FunctionGeneratorTasks_1_1UpdateTask.html" target="_top" xlink:title="Defines a task for updating an instrument within an instrument inheritance hierarchy....">
<polygon fill="white" stroke="#666666" points="721,-294 549,-294 549,-264 721,-264 721,-294"/>
<text text-anchor="start" x="557" y="-282" font-family="Helvetica,sans-Serif" font-size="10.00">DynExpInstr::FunctionGenerator</text>
<text text-anchor="middle" x="635" y="-271" font-family="Helvetica,sans-Serif" font-size="10.00">Tasks::UpdateTask</text>
</a>
</g>
</g>
<!-- Node1&#45;&gt;Node4 -->
<g id="edge3_Node000001_Node000004" class="edge">
<title>Node1&#45;&gt;Node4</title>
<g id="a_edge3_Node000001_Node000004"><a xlink:title=" ">
<path fill="none" stroke="#63b8ff" d="M441.75,-108.89C486.19,-148.22 578.45,-229.85 616.75,-263.74"/>
<polygon fill="#63b8ff" stroke="#63b8ff" points="443.84,-106.07 434.03,-102.07 439.2,-111.31 443.84,-106.07"/>
</a>
</g>
</g>
<!-- Node14 -->
<g id="Node000014" class="node">
<title>Node14</title>
<g id="a_Node000014"><a xlink:href="classDynExpInstr_1_1InputPortTasks_1_1UpdateTask.html" target="_top" xlink:title="Defines a task for updating an instrument within an instrument inheritance hierarchy....">
<polygon fill="white" stroke="#666666" points="711.5,-126 558.5,-126 558.5,-96 711.5,-96 711.5,-126"/>
<text text-anchor="start" x="566.5" y="-114" font-family="Helvetica,sans-Serif" font-size="10.00">DynExpInstr::InputPortTasks</text>
<text text-anchor="middle" x="635" y="-103" font-family="Helvetica,sans-Serif" font-size="10.00">::UpdateTask</text>
</a>
</g>
</g>
<!-- Node1&#45;&gt;Node14 -->
<g id="edge13_Node000001_Node000014" class="edge">
<title>Node1&#45;&gt;Node14</title>
<g id="a_edge13_Node000001_Node000014"><a xlink:title=" ">
<path fill="none" stroke="#63b8ff" d="M523.13,-98.74C535.07,-100.06 547.04,-101.38 558.47,-102.65"/>
<polygon fill="#63b8ff" stroke="#63b8ff" points="523.45,-95.25 513.13,-97.63 522.68,-102.21 523.45,-95.25"/>
</a>
</g>
</g>
<!-- Node19 -->
<g id="Node000019" class="node">
<title>Node19</title>
<g id="a_Node000019"><a xlink:href="classDynExpInstr_1_1LockinAmplifierTasks_1_1UpdateTask.html" target="_top" xlink:title="Defines a task for updating an instrument within an instrument inheritance hierarchy....">
<polygon fill="white" stroke="#666666" points="714,-78 556,-78 556,-48 714,-48 714,-78"/>
<text text-anchor="start" x="564" y="-66" font-family="Helvetica,sans-Serif" font-size="10.00">DynExpInstr::LockinAmplifier</text>
<text text-anchor="middle" x="635" y="-55" font-family="Helvetica,sans-Serif" font-size="10.00">Tasks::UpdateTask</text>
</a>
</g>
</g>
<!-- Node1&#45;&gt;Node19 -->
<g id="edge18_Node000001_Node000019" class="edge">
<title>Node1&#45;&gt;Node19</title>
<g id="a_edge18_Node000001_Node000019"><a xlink:title=" ">
<path fill="none" stroke="#63b8ff" d="M523.21,-75.25C534.2,-74.04 545.23,-72.82 555.84,-71.64"/>
<polygon fill="#63b8ff" stroke="#63b8ff" points="522.68,-71.79 513.13,-76.37 523.45,-78.75 522.68,-71.79"/>
</a>
</g>
</g>
<!-- Node21 -->
<g id="Node000021" class="node">
<title>Node21</title>
<g id="a_Node000021"><a xlink:href="classDynExpInstr_1_1TimeTaggerTasks_1_1UpdateTask.html" target="_top" xlink:title="Defines a task for updating an instrument within an instrument inheritance hierarchy....">
<polygon fill="white" stroke="#666666" points="718,-30 552,-30 552,0 718,0 718,-30"/>
<text text-anchor="start" x="560" y="-18" font-family="Helvetica,sans-Serif" font-size="10.00">DynExpInstr::TimeTaggerTasks</text>
<text text-anchor="middle" x="635" y="-7" font-family="Helvetica,sans-Serif" font-size="10.00">::UpdateTask</text>
</a>
</g>
</g>
<!-- Node1&#45;&gt;Node21 -->
<g id="edge20_Node000001_Node000021" class="edge">
<title>Node1&#45;&gt;Node21</title>
<g id="a_edge20_Node000001_Node000021"><a xlink:title=" ">
<path fill="none" stroke="#63b8ff" d="M465.56,-68.37C490.37,-59.1 521.14,-47.99 549,-39 558.49,-35.94 568.63,-32.89 578.5,-30.04"/>
<polygon fill="#63b8ff" stroke="#63b8ff" points="464.15,-65.16 456.02,-71.96 466.61,-71.72 464.15,-65.16"/>
</a>
</g>
</g>
<!-- Node2 -->
<g id="Node000002" class="node">
<title>Node2</title>
<g id="a_Node000002"><a xlink:href="classDynExp_1_1UpdateTaskBase.html" target="_top" xlink:title="Defines a task for updating an instrument within an instrument inheritance hierarchy....">
<polygon fill="white" stroke="#666666" points="283,-96.5 142,-96.5 142,-77.5 283,-77.5 283,-96.5"/>
<text text-anchor="middle" x="212.5" y="-84.5" font-family="Helvetica,sans-Serif" font-size="10.00">DynExp::UpdateTaskBase</text>
</a>
</g>
</g>
<!-- Node2&#45;&gt;Node1 -->
<g id="edge1_Node000001_Node000002" class="edge">
<title>Node2&#45;&gt;Node1</title>
<g id="a_edge1_Node000001_Node000002"><a xlink:title=" ">
<path fill="none" stroke="#63b8ff" d="M293.22,-87C301.6,-87 310.17,-87 318.71,-87"/>
<polygon fill="#63b8ff" stroke="#63b8ff" points="293.13,-83.5 283.13,-87 293.13,-90.5 293.13,-83.5"/>
</a>
</g>
</g>
<!-- Node3 -->
<g id="Node000003" class="node">
<title>Node3</title>
<g id="a_Node000003"><a xlink:href="classDynExp_1_1TaskBase.html" target="_top" xlink:title="Base class for all tasks being processed by instruments. The class must not contain public virtual fu...">
<polygon fill="white" stroke="#666666" points="106,-96.5 0,-96.5 0,-77.5 106,-77.5 106,-96.5"/>
<text text-anchor="middle" x="53" y="-84.5" font-family="Helvetica,sans-Serif" font-size="10.00">DynExp::TaskBase</text>
</a>
</g>
</g>
<!-- Node3&#45;&gt;Node2 -->
<g id="edge2_Node000002_Node000003" class="edge">
<title>Node3&#45;&gt;Node2</title>
<g id="a_edge2_Node000002_Node000003"><a xlink:title=" ">
<path fill="none" stroke="#63b8ff" d="M116.14,-87C124.58,-87 133.29,-87 141.85,-87"/>
<polygon fill="#63b8ff" stroke="#63b8ff" points="116.01,-83.5 106.01,-87 116.01,-90.5 116.01,-83.5"/>
</a>
</g>
</g>
<!-- Node5 -->
<g id="Node000005" class="node">
<title>Node5</title>
<g id="a_Node000005"><a xlink:href="classDynExpInstr_1_1DummyDataStreamInstrumentTasks_1_1UpdateTask.html" target="_top" xlink:title=" ">
<polygon fill="white" stroke="#666666" points="937.5,-414 758.5,-414 758.5,-384 937.5,-384 937.5,-414"/>
<text text-anchor="start" x="766.5" y="-402" font-family="Helvetica,sans-Serif" font-size="10.00">DynExpInstr::DummyDataStream</text>
<text text-anchor="middle" x="848" y="-391" font-family="Helvetica,sans-Serif" font-size="10.00">InstrumentTasks::UpdateTask</text>
</a>
</g>
</g>
<!-- Node4&#45;&gt;Node5 -->
<g id="edge4_Node000004_Node000005" class="edge">
<title>Node4&#45;&gt;Node5</title>
<g id="a_edge4_Node000004_Node000005"><a xlink:title=" ">
<path fill="none" stroke="#63b8ff" d="M658.44,-301.56C681.35,-323.37 718.85,-355.83 757,-375 763.79,-378.41 771.12,-381.38 778.57,-383.95"/>
<polygon fill="#63b8ff" stroke="#63b8ff" points="660.6,-298.78 650.98,-294.34 655.73,-303.81 660.6,-298.78"/>
</a>
</g>
</g>
<!-- Node6 -->
<g id="Node000006" class="node">
<title>Node6</title>
<g id="a_Node000006"><a xlink:href="classDynExpInstr_1_1OutputPortTasks_1_1UpdateTask.html" target="_top" xlink:title="Defines a task for updating an instrument within an instrument inheritance hierarchy....">
<polygon fill="white" stroke="#666666" points="928.5,-366 767.5,-366 767.5,-336 928.5,-336 928.5,-366"/>
<text text-anchor="start" x="775.5" y="-354" font-family="Helvetica,sans-Serif" font-size="10.00">DynExpInstr::OutputPortTasks</text>
<text text-anchor="middle" x="848" y="-343" font-family="Helvetica,sans-Serif" font-size="10.00">::UpdateTask</text>
</a>
</g>
</g>
<!-- Node4&#45;&gt;Node6 -->
<g id="edge5_Node000004_Node000006" class="edge">
<title>Node4&#45;&gt;Node6</title>
<g id="a_edge5_Node000004_Node000006"><a xlink:title=" ">
<path fill="none" stroke="#63b8ff" d="M680.19,-297.97C702.91,-307.36 731.18,-318.47 757,-327 766.52,-330.15 776.71,-333.18 786.68,-335.96"/>
<polygon fill="#63b8ff" stroke="#63b8ff" points="681.39,-294.68 670.81,-294.07 678.7,-301.14 681.39,-294.68"/>
</a>
</g>
</g>
<!-- Node11 -->
<g id="Node000011" class="node">
<title>Node11</title>
<g id="a_Node000011"><a xlink:href="classDynExpInstr_1_1RS__SMB100BTasks_1_1UpdateTask.html" target="_top" xlink:title=" ">
<polygon fill="white" stroke="#666666" points="934.5,-318 761.5,-318 761.5,-288 934.5,-288 934.5,-318"/>
<text text-anchor="start" x="769.5" y="-306" font-family="Helvetica,sans-Serif" font-size="10.00">DynExpInstr::RS_SMB100BTasks</text>
<text text-anchor="middle" x="848" y="-295" font-family="Helvetica,sans-Serif" font-size="10.00">::UpdateTask</text>
</a>
</g>
</g>
<!-- Node4&#45;&gt;Node11 -->
<g id="edge10_Node000004_Node000011" class="edge">
<title>Node4&#45;&gt;Node11</title>
<g id="a_edge10_Node000004_Node000011"><a xlink:title=" ">
<path fill="none" stroke="#63b8ff" d="M731.23,-289.83C741.31,-290.98 751.51,-292.14 761.47,-293.27"/>
<polygon fill="#63b8ff" stroke="#63b8ff" points="731.55,-286.35 721.21,-288.69 730.75,-293.3 731.55,-286.35"/>
</a>
</g>
</g>
<!-- Node12 -->
<g id="Node000012" class="node">
<title>Node12</title>
<g id="a_Node000012"><a xlink:href="classDynExpInstr_1_1RS__SMC100ATasks_1_1UpdateTask.html" target="_top" xlink:title=" ">
<polygon fill="white" stroke="#666666" points="934.5,-270 761.5,-270 761.5,-240 934.5,-240 934.5,-270"/>
<text text-anchor="start" x="769.5" y="-258" font-family="Helvetica,sans-Serif" font-size="10.00">DynExpInstr::RS_SMC100ATasks</text>
<text text-anchor="middle" x="848" y="-247" font-family="Helvetica,sans-Serif" font-size="10.00">::UpdateTask</text>
</a>
</g>
</g>
<!-- Node4&#45;&gt;Node12 -->
<g id="edge11_Node000004_Node000012" class="edge">
<title>Node4&#45;&gt;Node12</title>
<g id="a_edge11_Node000004_Node000012"><a xlink:title=" ">
<path fill="none" stroke="#63b8ff" d="M731.23,-268.17C741.31,-267.02 751.51,-265.86 761.47,-264.73"/>
<polygon fill="#63b8ff" stroke="#63b8ff" points="730.75,-264.7 721.21,-269.31 731.55,-271.65 730.75,-264.7"/>
</a>
</g>
</g>
<!-- Node13 -->
<g id="Node000013" class="node">
<title>Node13</title>
<g id="a_Node000013"><a xlink:href="classDynExpInstr_1_1SwabianInstrumentsPulseStreamerTasks_1_1UpdateTask.html" target="_top" xlink:title=" ">
<polygon fill="white" stroke="#666666" points="939,-222 757,-222 757,-192 939,-192 939,-222"/>
<text text-anchor="start" x="765" y="-210" font-family="Helvetica,sans-Serif" font-size="10.00">DynExpInstr::SwabianInstruments</text>
<text text-anchor="middle" x="848" y="-199" font-family="Helvetica,sans-Serif" font-size="10.00">PulseStreamerTasks::UpdateTask</text>
</a>
</g>
</g>
<!-- Node4&#45;&gt;Node13 -->
<g id="edge12_Node000004_Node000013" class="edge">
<title>Node4&#45;&gt;Node13</title>
<g id="a_edge12_Node000004_Node000013"><a xlink:title=" ">
<path fill="none" stroke="#63b8ff" d="M680.19,-260.03C702.91,-250.64 731.18,-239.53 757,-231 766.52,-227.85 776.71,-224.82 786.68,-222.04"/>
<polygon fill="#63b8ff" stroke="#63b8ff" points="678.7,-256.86 670.81,-263.93 681.39,-263.32 678.7,-256.86"/>
</a>
</g>
</g>
<!-- Node7 -->
<g id="Node000007" class="node">
<title>Node7</title>
<g id="a_Node000007"><a xlink:href="classDynExpInstr_1_1AnalogOutTasks_1_1UpdateTask.html" target="_top" xlink:title="Defines a task for updating an instrument within an instrument inheritance hierarchy....">
<polygon fill="white" stroke="#666666" points="1135,-390 975,-390 975,-360 1135,-360 1135,-390"/>
<text text-anchor="start" x="983" y="-378" font-family="Helvetica,sans-Serif" font-size="10.00">DynExpInstr::AnalogOutTasks</text>
<text text-anchor="middle" x="1055" y="-367" font-family="Helvetica,sans-Serif" font-size="10.00">::UpdateTask</text>
</a>
</g>
</g>
<!-- Node6&#45;&gt;Node7 -->
<g id="edge6_Node000006_Node000007" class="edge">
<title>Node6&#45;&gt;Node7</title>
<g id="a_edge6_Node000006_Node000007"><a xlink:title=" ">
<path fill="none" stroke="#63b8ff" d="M938.61,-361.49C950.67,-362.9 962.97,-364.34 974.83,-365.73"/>
<polygon fill="#63b8ff" stroke="#63b8ff" points="938.89,-358 928.55,-360.31 938.08,-364.95 938.89,-358"/>
</a>
</g>
</g>
<!-- Node9 -->
<g id="Node000009" class="node">
<title>Node9</title>
<g id="a_Node000009"><a xlink:href="classDynExpInstr_1_1DigitalOutTasks_1_1UpdateTask.html" target="_top" xlink:title="Defines a task for updating an instrument within an instrument inheritance hierarchy....">
<polygon fill="white" stroke="#666666" points="1134,-342 976,-342 976,-312 1134,-312 1134,-342"/>
<text text-anchor="start" x="984" y="-330" font-family="Helvetica,sans-Serif" font-size="10.00">DynExpInstr::DigitalOutTasks</text>
<text text-anchor="middle" x="1055" y="-319" font-family="Helvetica,sans-Serif" font-size="10.00">::UpdateTask</text>
</a>
</g>
</g>
<!-- Node6&#45;&gt;Node9 -->
<g id="edge8_Node000006_Node000009" class="edge">
<title>Node6&#45;&gt;Node9</title>
<g id="a_edge8_Node000006_Node000009"><a xlink:title=" ">
<path fill="none" stroke="#63b8ff" d="M938.83,-340.48C951.16,-339.04 963.74,-337.57 975.84,-336.15"/>
<polygon fill="#63b8ff" stroke="#63b8ff" points="938.08,-337.05 928.55,-341.69 938.89,-344 938.08,-337.05"/>
</a>
</g>
</g>
<!-- Node8 -->
<g id="Node000008" class="node">
<title>Node8</title>
<g id="a_Node000008"><a xlink:href="classDynExpInstr_1_1NIDAQAnalogOutTasks_1_1UpdateTask.html" target="_top" xlink:title=" ">
<polygon fill="white" stroke="#666666" points="1319,-390 1171,-390 1171,-360 1319,-360 1319,-390"/>
<text text-anchor="start" x="1179" y="-378" font-family="Helvetica,sans-Serif" font-size="10.00">DynExpInstr::NIDAQAnalog</text>
<text text-anchor="middle" x="1245" y="-367" font-family="Helvetica,sans-Serif" font-size="10.00">OutTasks::UpdateTask</text>
</a>
</g>
</g>
<!-- Node7&#45;&gt;Node8 -->
<g id="edge7_Node000007_Node000008" class="edge">
<title>Node7&#45;&gt;Node8</title>
<g id="a_edge7_Node000007_Node000008"><a xlink:title=" ">
<path fill="none" stroke="#63b8ff" d="M1145.23,-375C1153.83,-375 1162.48,-375 1170.9,-375"/>
<polygon fill="#63b8ff" stroke="#63b8ff" points="1145.18,-371.5 1135.18,-375 1145.18,-378.5 1145.18,-371.5"/>
</a>
</g>
</g>
<!-- Node10 -->
<g id="Node000010" class="node">
<title>Node10</title>
<g id="a_Node000010"><a xlink:href="classDynExpInstr_1_1NIDAQDigitalOutTasks_1_1UpdateTask.html" target="_top" xlink:title=" ">
<polygon fill="white" stroke="#666666" points="1318,-342 1172,-342 1172,-312 1318,-312 1318,-342"/>
<text text-anchor="start" x="1180" y="-330" font-family="Helvetica,sans-Serif" font-size="10.00">DynExpInstr::NIDAQDigital</text>
<text text-anchor="middle" x="1245" y="-319" font-family="Helvetica,sans-Serif" font-size="10.00">OutTasks::UpdateTask</text>
</a>
</g>
</g>
<!-- Node9&#45;&gt;Node10 -->
<g id="edge9_Node000009_Node000010" class="edge">
<title>Node9&#45;&gt;Node10</title>
<g id="a_edge9_Node000009_Node000010"><a xlink:title=" ">
<path fill="none" stroke="#63b8ff" d="M1144.13,-327C1153.42,-327 1162.79,-327 1171.86,-327"/>
<polygon fill="#63b8ff" stroke="#63b8ff" points="1144.1,-323.5 1134.1,-327 1144.1,-330.5 1144.1,-323.5"/>
</a>
</g>
</g>
<!-- Node15 -->
<g id="Node000015" class="node">
<title>Node15</title>
<g id="a_Node000015"><a xlink:href="classDynExpInstr_1_1AnalogInTasks_1_1UpdateTask.html" target="_top" xlink:title="Defines a task for updating an instrument within an instrument inheritance hierarchy....">
<polygon fill="white" stroke="#666666" points="924,-174 772,-174 772,-144 924,-144 924,-174"/>
<text text-anchor="start" x="780" y="-162" font-family="Helvetica,sans-Serif" font-size="10.00">DynExpInstr::AnalogInTasks</text>
<text text-anchor="middle" x="848" y="-151" font-family="Helvetica,sans-Serif" font-size="10.00">::UpdateTask</text>
</a>
</g>
</g>
<!-- Node14&#45;&gt;Node15 -->
<g id="edge14_Node000014_Node000015" class="edge">
<title>Node14&#45;&gt;Node15</title>
<g id="a_edge14_Node000014_Node000015"><a xlink:title=" ">
<path fill="none" stroke="#63b8ff" d="M712.06,-128.3C734.64,-133.44 759.17,-139.02 781.05,-144"/>
<polygon fill="#63b8ff" stroke="#63b8ff" points="712.71,-124.86 702.18,-126.06 711.16,-131.69 712.71,-124.86"/>
</a>
</g>
</g>
<!-- Node17 -->
<g id="Node000017" class="node">
<title>Node17</title>
<g id="a_Node000017"><a xlink:href="classDynExpInstr_1_1DigitalInTasks_1_1UpdateTask.html" target="_top" xlink:title="Defines a task for updating an instrument within an instrument inheritance hierarchy....">
<polygon fill="white" stroke="#666666" points="923,-126 773,-126 773,-96 923,-96 923,-126"/>
<text text-anchor="start" x="781" y="-114" font-family="Helvetica,sans-Serif" font-size="10.00">DynExpInstr::DigitalInTasks</text>
<text text-anchor="middle" x="848" y="-103" font-family="Helvetica,sans-Serif" font-size="10.00">::UpdateTask</text>
</a>
</g>
</g>
<!-- Node14&#45;&gt;Node17 -->
<g id="edge16_Node000014_Node000017" class="edge">
<title>Node14&#45;&gt;Node17</title>
<g id="a_edge16_Node000014_Node000017"><a xlink:title=" ">
<path fill="none" stroke="#63b8ff" d="M721.94,-111C738.76,-111 756.26,-111 772.66,-111"/>
<polygon fill="#63b8ff" stroke="#63b8ff" points="721.58,-107.5 711.58,-111 721.58,-114.5 721.58,-107.5"/>
</a>
</g>
</g>
<!-- Node16 -->
<g id="Node000016" class="node">
<title>Node16</title>
<g id="a_Node000016"><a xlink:href="classDynExpInstr_1_1NIDAQAnalogInTasks_1_1UpdateTask.html" target="_top" xlink:title=" ">
<polygon fill="white" stroke="#666666" points="1129,-174 981,-174 981,-144 1129,-144 1129,-174"/>
<text text-anchor="start" x="989" y="-162" font-family="Helvetica,sans-Serif" font-size="10.00">DynExpInstr::NIDAQAnalog</text>
<text text-anchor="middle" x="1055" y="-151" font-family="Helvetica,sans-Serif" font-size="10.00">InTasks::UpdateTask</text>
</a>
</g>
</g>
<!-- Node15&#45;&gt;Node16 -->
<g id="edge15_Node000015_Node000016" class="edge">
<title>Node15&#45;&gt;Node16</title>
<g id="a_edge15_Node000015_Node000016"><a xlink:title=" ">
<path fill="none" stroke="#63b8ff" d="M934.26,-159C949.75,-159 965.79,-159 980.89,-159"/>
<polygon fill="#63b8ff" stroke="#63b8ff" points="934.17,-155.5 924.17,-159 934.17,-162.5 934.17,-155.5"/>
</a>
</g>
</g>
<!-- Node18 -->
<g id="Node000018" class="node">
<title>Node18</title>
<g id="a_Node000018"><a xlink:href="classDynExpInstr_1_1NIDAQDigitalInTasks_1_1UpdateTask.html" target="_top" xlink:title=" ">
<polygon fill="white" stroke="#666666" points="1128,-126 982,-126 982,-96 1128,-96 1128,-126"/>
<text text-anchor="start" x="990" y="-114" font-family="Helvetica,sans-Serif" font-size="10.00">DynExpInstr::NIDAQDigital</text>
<text text-anchor="middle" x="1055" y="-103" font-family="Helvetica,sans-Serif" font-size="10.00">InTasks::UpdateTask</text>
</a>
</g>
</g>
<!-- Node17&#45;&gt;Node18 -->
<g id="edge17_Node000017_Node000018" class="edge">
<title>Node17&#45;&gt;Node18</title>
<g id="a_edge17_Node000017_Node000018"><a xlink:title=" ">
<path fill="none" stroke="#63b8ff" d="M933.46,-111C949.51,-111 966.18,-111 981.81,-111"/>
<polygon fill="#63b8ff" stroke="#63b8ff" points="933.01,-107.5 923.01,-111 933.01,-114.5 933.01,-107.5"/>
</a>
</g>
</g>
<!-- Node20 -->
<g id="Node000020" class="node">
<title>Node20</title>
<g id="a_Node000020"><a xlink:href="classDynExpInstr_1_1ZI__MFLITasks_1_1UpdateTask.html" target="_top" xlink:title=" ">
<polygon fill="white" stroke="#666666" points="921.5,-78 774.5,-78 774.5,-48 921.5,-48 921.5,-78"/>
<text text-anchor="start" x="782.5" y="-66" font-family="Helvetica,sans-Serif" font-size="10.00">DynExpInstr::ZI_MFLITasks</text>
<text text-anchor="middle" x="848" y="-55" font-family="Helvetica,sans-Serif" font-size="10.00">::UpdateTask</text>
</a>
</g>
</g>
<!-- Node19&#45;&gt;Node20 -->
<g id="edge19_Node000019_Node000020" class="edge">
<title>Node19&#45;&gt;Node20</title>
<g id="a_edge19_Node000019_Node000020"><a xlink:title=" ">
<path fill="none" stroke="#63b8ff" d="M724.53,-63C741.16,-63 758.37,-63 774.45,-63"/>
<polygon fill="#63b8ff" stroke="#63b8ff" points="724.27,-59.5 714.27,-63 724.27,-66.5 724.27,-59.5"/>
</a>
</g>
</g>
<!-- Node22 -->
<g id="Node000022" class="node">
<title>Node22</title>
<g id="a_Node000022"><a xlink:href="classDynExpInstr_1_1QutoolsQuTAGTasks_1_1UpdateTask.html" target="_top" xlink:title=" ">
<polygon fill="white" stroke="#666666" points="937.5,-30 758.5,-30 758.5,0 937.5,0 937.5,-30"/>
<text text-anchor="start" x="766.5" y="-18" font-family="Helvetica,sans-Serif" font-size="10.00">DynExpInstr::QutoolsQuTAGTasks</text>
<text text-anchor="middle" x="848" y="-7" font-family="Helvetica,sans-Serif" font-size="10.00">::UpdateTask</text>
</a>
</g>
</g>
<!-- Node21&#45;&gt;Node22 -->
<g id="edge21_Node000021_Node000022" class="edge">
<title>Node21&#45;&gt;Node22</title>
<g id="a_edge21_Node000021_Node000022"><a xlink:title=" ">
<path fill="none" stroke="#63b8ff" d="M728.47,-15C738.41,-15 748.51,-15 758.41,-15"/>
<polygon fill="#63b8ff" stroke="#63b8ff" points="728.18,-11.5 718.18,-15 728.18,-18.5 728.18,-11.5"/>
</a>
</g>
</g>
</g>
</svg>
