<?xml version="1.0" encoding="UTF-8" standalone="no"?>
<!DOCTYPE svg PUBLIC "-//W3C//DTD SVG 1.1//EN"
 "http://www.w3.org/Graphics/SVG/1.1/DTD/svg11.dtd">
<!-- Generated by graphviz version 2.43.0 (0)
 -->
<!-- Title: DynExpModule::NetworkAnalogOutT&lt; gRPCServices &gt;::CallDataSetSync Pages: 1 -->
<svg width="441pt" height="83pt"
 viewBox="0.00 0.00 441.00 83.00" xmlns="http://www.w3.org/2000/svg" xmlns:xlink="http://www.w3.org/1999/xlink">
<g id="graph0" class="graph" transform="scale(1 1) rotate(0) translate(4 79)">
<title>DynExpModule::NetworkAnalogOutT&lt; gRPCServices &gt;::CallDataSetSync</title>
<polygon fill="white" stroke="transparent" points="-4,4 -4,-79 437,-79 437,4 -4,4"/>
<!-- Node1 -->
<g id="node1" class="node">
<title>Node1</title>
<g id="a_node1"><a xlink:title=" ">
<polygon fill="#bfbfbf" stroke="black" points="217,-22.5 217,-52.5 433,-52.5 433,-22.5 217,-22.5"/>
<text text-anchor="start" x="225" y="-40.5" font-family="Helvetica,sans-Serif" font-size="10.00">DynExpModule::NetworkAnalog</text>
<text text-anchor="middle" x="325" y="-29.5" font-family="Helvetica,sans-Serif" font-size="10.00">OutT&lt; gRPCServices &gt;::CallDataSetSync</text>
</a>
</g>
</g>
<!-- Node2 -->
<g id="node2" class="node">
<title>Node2</title>
<g id="a_node2"><a xlink:title=" ">
<polygon fill="white" stroke="#bfbfbf" points="0,-0.5 0,-74.5 181,-74.5 181,-0.5 0,-0.5"/>
<text text-anchor="start" x="8" y="-62.5" font-family="Helvetica,sans-Serif" font-size="10.00">gRPCModule::template</text>
<text text-anchor="start" x="8" y="-51.5" font-family="Helvetica,sans-Serif" font-size="10.00"> TypedCallDataBase&lt; CallData</text>
<text text-anchor="start" x="8" y="-40.5" font-family="Helvetica,sans-Serif" font-size="10.00">SetSync, ThisServiceType,</text>
<text text-anchor="start" x="8" y="-29.5" font-family="Helvetica,sans-Serif" font-size="10.00"> DynExpProto::NetworkAnalogOut</text>
<text text-anchor="start" x="8" y="-18.5" font-family="Helvetica,sans-Serif" font-size="10.00">::SampleMessage, DynExpProto</text>
<text text-anchor="middle" x="90.5" y="-7.5" font-family="Helvetica,sans-Serif" font-size="10.00">::Common::VoidMessage &gt;</text>
</a>
</g>
</g>
<!-- Node2&#45;&gt;Node1 -->
<g id="edge1" class="edge">
<title>Node2&#45;&gt;Node1</title>
<path fill="none" stroke="midnightblue" d="M191.24,-37.5C199.64,-37.5 208.16,-37.5 216.61,-37.5"/>
<polygon fill="midnightblue" stroke="midnightblue" points="191.06,-34 181.06,-37.5 191.06,-41 191.06,-34"/>
</g>
</g>
</svg>
