<?xml version="1.0" encoding="UTF-8" standalone="no"?>
<!DOCTYPE svg PUBLIC "-//W3C//DTD SVG 1.1//EN"
 "http://www.w3.org/Graphics/SVG/1.1/DTD/svg11.dtd">
<!-- Generated by graphviz version 2.43.0 (0)
 -->
<!-- Title: DynExpModule::NetworkDataStreamInstrumentT&lt; gRPCServices &gt; Pages: 1 -->
<svg width="226pt" height="274pt"
 viewBox="0.00 0.00 226.00 274.00" xmlns="http://www.w3.org/2000/svg" xmlns:xlink="http://www.w3.org/1999/xlink">
<g id="graph0" class="graph" transform="scale(1 1) rotate(0) translate(4 270)">
<title>DynExpModule::NetworkDataStreamInstrumentT&lt; gRPCServices &gt;</title>
<polygon fill="white" stroke="transparent" points="-4,4 -4,-270 222,-270 222,4 -4,4"/>
<!-- Node1 -->
<g id="node1" class="node">
<title>Node1</title>
<g id="a_node1"><a xlink:title=" ">
<polygon fill="#bfbfbf" stroke="black" points="13,-0.5 13,-30.5 213,-30.5 213,-0.5 13,-0.5"/>
<text text-anchor="start" x="21" y="-18.5" font-family="Helvetica,sans-Serif" font-size="10.00">DynExpModule::NetworkData</text>
<text text-anchor="middle" x="113" y="-7.5" font-family="Helvetica,sans-Serif" font-size="10.00">StreamInstrumentT&lt; gRPCServices &gt;</text>
</a>
</g>
</g>
<!-- Node2 -->
<g id="node2" class="node">
<title>Node2</title>
<g id="a_node2"><a xlink:href="classDynExpModule_1_1gRPCModule.html" target="_top" xlink:title=" ">
<polygon fill="white" stroke="black" points="34,-67.5 34,-97.5 192,-97.5 192,-67.5 34,-67.5"/>
<text text-anchor="start" x="42" y="-85.5" font-family="Helvetica,sans-Serif" font-size="10.00">DynExpModule::gRPCModule</text>
<text text-anchor="middle" x="113" y="-74.5" font-family="Helvetica,sans-Serif" font-size="10.00">&lt; gRPCServices... &gt;</text>
</a>
</g>
</g>
<!-- Node2&#45;&gt;Node1 -->
<g id="edge1" class="edge">
<title>Node2&#45;&gt;Node1</title>
<path fill="none" stroke="midnightblue" d="M113,-57.11C113,-48.15 113,-38.32 113,-30.58"/>
<polygon fill="midnightblue" stroke="midnightblue" points="109.5,-57.4 113,-67.4 116.5,-57.4 109.5,-57.4"/>
</g>
<!-- Node3 -->
<g id="node3" class="node">
<title>Node3</title>
<g id="a_node3"><a xlink:href="classDynExp_1_1ModuleBase.html" target="_top" xlink:title="Base class for modules. Modules implement programs on their own (e.g. measurement protocols or server...">
<polygon fill="white" stroke="black" points="53,-134.5 53,-153.5 173,-153.5 173,-134.5 53,-134.5"/>
<text text-anchor="middle" x="113" y="-141.5" font-family="Helvetica,sans-Serif" font-size="10.00">DynExp::ModuleBase</text>
</a>
</g>
</g>
<!-- Node3&#45;&gt;Node2 -->
<g id="edge2" class="edge">
<title>Node3&#45;&gt;Node2</title>
<path fill="none" stroke="midnightblue" d="M113,-124.23C113,-115.59 113,-105.5 113,-97.52"/>
<polygon fill="midnightblue" stroke="midnightblue" points="109.5,-124.48 113,-134.48 116.5,-124.48 109.5,-124.48"/>
</g>
<!-- Node4 -->
<g id="node4" class="node">
<title>Node4</title>
<g id="a_node4"><a xlink:href="classDynExp_1_1RunnableObject.html" target="_top" xlink:title="Defines an Object which possesses a thread it runs in. The RunnableObject can be started and stopped ...">
<polygon fill="white" stroke="black" points="44.5,-190.5 44.5,-209.5 181.5,-209.5 181.5,-190.5 44.5,-190.5"/>
<text text-anchor="middle" x="113" y="-197.5" font-family="Helvetica,sans-Serif" font-size="10.00">DynExp::RunnableObject</text>
</a>
</g>
</g>
<!-- Node4&#45;&gt;Node3 -->
<g id="edge3" class="edge">
<title>Node4&#45;&gt;Node3</title>
<path fill="none" stroke="midnightblue" d="M113,-179.8C113,-170.91 113,-160.78 113,-153.75"/>
<polygon fill="midnightblue" stroke="midnightblue" points="109.5,-180.08 113,-190.08 116.5,-180.08 109.5,-180.08"/>
</g>
<!-- Node5 -->
<g id="node5" class="node">
<title>Node5</title>
<g id="a_node5"><a xlink:href="classUtil_1_1INonCopyable.html" target="_top" xlink:title="Interface to delete copy constructor and copy assignment operator and thus make derived classes non&#45;c...">
<polygon fill="white" stroke="black" points="0,-246.5 0,-265.5 108,-265.5 108,-246.5 0,-246.5"/>
<text text-anchor="middle" x="54" y="-253.5" font-family="Helvetica,sans-Serif" font-size="10.00">Util::INonCopyable</text>
</a>
</g>
</g>
<!-- Node5&#45;&gt;Node4 -->
<g id="edge4" class="edge">
<title>Node5&#45;&gt;Node4</title>
<path fill="none" stroke="midnightblue" d="M70.89,-239.54C81.41,-229.91 94.57,-217.87 103.35,-209.83"/>
<polygon fill="midnightblue" stroke="midnightblue" points="68.49,-236.99 63.48,-246.32 73.22,-242.15 68.49,-236.99"/>
</g>
<!-- Node6 -->
<g id="node6" class="node">
<title>Node6</title>
<g id="a_node6"><a xlink:href="classDynExp_1_1Object.html" target="_top" xlink:title="Base class for all DynExp Objects like hardware adapters (DynExp::HardwareAdapterBase),...">
<polygon fill="white" stroke="black" points="126,-246.5 126,-265.5 218,-265.5 218,-246.5 126,-246.5"/>
<text text-anchor="middle" x="172" y="-253.5" font-family="Helvetica,sans-Serif" font-size="10.00">DynExp::Object</text>
</a>
</g>
</g>
<!-- Node6&#45;&gt;Node4 -->
<g id="edge5" class="edge">
<title>Node6&#45;&gt;Node4</title>
<path fill="none" stroke="midnightblue" d="M155.11,-239.54C144.59,-229.91 131.43,-217.87 122.65,-209.83"/>
<polygon fill="midnightblue" stroke="midnightblue" points="152.78,-242.15 162.52,-246.32 157.51,-236.99 152.78,-242.15"/>
</g>
</g>
</svg>
