<?xml version="1.0" encoding="UTF-8" standalone="no"?>
<!DOCTYPE svg PUBLIC "-//W3C//DTD SVG 1.1//EN"
 "http://www.w3.org/Graphics/SVG/1.1/DTD/svg11.dtd">
<!-- Generated by graphviz version 2.43.0 (0)
 -->
<!-- Title: DynExpInstr::SmarActConfigurator Pages: 1 -->
<svg width="205pt" height="258pt"
 viewBox="0.00 0.00 205.00 258.00" xmlns="http://www.w3.org/2000/svg" xmlns:xlink="http://www.w3.org/1999/xlink">
<g id="graph0" class="graph" transform="scale(1 1) rotate(0) translate(4 254)">
<title>DynExpInstr::SmarActConfigurator</title>
<!-- Node1 -->
<g id="Node000001" class="node">
<title>Node1</title>
<g id="a_Node000001"><a xlink:title=" ">
<polygon fill="#999999" stroke="#666666" points="190,-19 7,-19 7,0 190,0 190,-19"/>
<text text-anchor="middle" x="98.5" y="-7" font-family="Helvetica,sans-Serif" font-size="10.00">DynExpInstr::SmarActConfigurator</text>
</a>
</g>
</g>
<!-- Node2 -->
<g id="Node000002" class="node">
<title>Node2</title>
<g id="a_Node000002"><a xlink:href="classDynExpInstr_1_1PositionerStageConfigurator.html" target="_top" xlink:title="Configurator class for PositionerStage.">
<polygon fill="white" stroke="#666666" points="177.5,-85 19.5,-85 19.5,-55 177.5,-55 177.5,-85"/>
<text text-anchor="start" x="27.5" y="-73" font-family="Helvetica,sans-Serif" font-size="10.00">DynExpInstr::PositionerStage</text>
<text text-anchor="middle" x="98.5" y="-62" font-family="Helvetica,sans-Serif" font-size="10.00">Configurator</text>
</a>
</g>
</g>
<!-- Node2&#45;&gt;Node1 -->
<g id="edge1_Node000001_Node000002" class="edge">
<title>Node2&#45;&gt;Node1</title>
<g id="a_edge1_Node000001_Node000002"><a xlink:title=" ">
<path fill="none" stroke="#63b8ff" d="M98.5,-44.75C98.5,-35.72 98.5,-26.03 98.5,-19.27"/>
<polygon fill="#63b8ff" stroke="#63b8ff" points="95,-44.84 98.5,-54.84 102,-44.84 95,-44.84"/>
</a>
</g>
</g>
<!-- Node3 -->
<g id="Node000003" class="node">
<title>Node3</title>
<g id="a_Node000003"><a xlink:href="classDynExp_1_1InstrumentConfiguratorBase.html" target="_top" xlink:title="Configurator class for InstrumentBase.">
<polygon fill="white" stroke="#666666" points="197,-140 0,-140 0,-121 197,-121 197,-140"/>
<text text-anchor="middle" x="98.5" y="-128" font-family="Helvetica,sans-Serif" font-size="10.00">DynExp::InstrumentConfiguratorBase</text>
</a>
</g>
</g>
<!-- Node3&#45;&gt;Node2 -->
<g id="edge2_Node000002_Node000003" class="edge">
<title>Node3&#45;&gt;Node2</title>
<g id="a_edge2_Node000002_Node000003"><a xlink:title=" ">
<path fill="none" stroke="#63b8ff" d="M98.5,-110.65C98.5,-102.36 98.5,-92.78 98.5,-85.11"/>
<polygon fill="#63b8ff" stroke="#63b8ff" points="95,-110.87 98.5,-120.87 102,-110.87 95,-110.87"/>
</a>
</g>
</g>
<!-- Node4 -->
<g id="Node000004" class="node">
<title>Node4</title>
<g id="a_Node000004"><a xlink:href="classDynExp_1_1RunnableObjectConfigurator.html" target="_top" xlink:title="Configurator class for RunnableObject.">
<polygon fill="white" stroke="#666666" points="197,-195 0,-195 0,-176 197,-176 197,-195"/>
<text text-anchor="middle" x="98.5" y="-183" font-family="Helvetica,sans-Serif" font-size="10.00">DynExp::RunnableObjectConfigurator</text>
</a>
</g>
</g>
<!-- Node4&#45;&gt;Node3 -->
<g id="edge3_Node000003_Node000004" class="edge">
<title>Node4&#45;&gt;Node3</title>
<g id="a_edge3_Node000003_Node000004"><a xlink:title=" ">
<path fill="none" stroke="#63b8ff" d="M98.5,-165.66C98.5,-156.93 98.5,-146.99 98.5,-140.09"/>
<polygon fill="#63b8ff" stroke="#63b8ff" points="95,-165.75 98.5,-175.75 102,-165.75 95,-165.75"/>
</a>
</g>
</g>
<!-- Node5 -->
<g id="Node000005" class="node">
<title>Node5</title>
<g id="a_Node000005"><a xlink:href="classDynExp_1_1ConfiguratorBase.html" target="_top" xlink:title="The configurator classes have the task to generate parameter objects (refer to DynExp::ParamsBase) of...">
<polygon fill="white" stroke="#666666" points="170.5,-250 26.5,-250 26.5,-231 170.5,-231 170.5,-250"/>
<text text-anchor="middle" x="98.5" y="-238" font-family="Helvetica,sans-Serif" font-size="10.00">DynExp::ConfiguratorBase</text>
</a>
</g>
</g>
<!-- Node5&#45;&gt;Node4 -->
<g id="edge4_Node000004_Node000005" class="edge">
<title>Node5&#45;&gt;Node4</title>
<g id="a_edge4_Node000004_Node000005"><a xlink:title=" ">
<path fill="none" stroke="#63b8ff" d="M98.5,-220.66C98.5,-211.93 98.5,-201.99 98.5,-195.09"/>
<polygon fill="#63b8ff" stroke="#63b8ff" points="95,-220.75 98.5,-230.75 102,-220.75 95,-220.75"/>
</a>
</g>
</g>
</g>
</svg>
