<?xml version="1.0" encoding="UTF-8" standalone="no"?>
<!DOCTYPE svg PUBLIC "-//W3C//DTD SVG 1.1//EN"
 "http://www.w3.org/Graphics/SVG/1.1/DTD/svg11.dtd">
<!-- Generated by graphviz version 2.43.0 (0)
 -->
<!-- Title: DynExpInstr::NetworkSpectrometerConfigurator Pages: 1 -->
<svg width="599pt" height="61pt"
 viewBox="0.00 0.00 599.00 61.00" xmlns="http://www.w3.org/2000/svg" xmlns:xlink="http://www.w3.org/1999/xlink">
<g id="graph0" class="graph" transform="scale(1 1) rotate(0) translate(4 57)">
<title>DynExpInstr::NetworkSpectrometerConfigurator</title>
<polygon fill="white" stroke="transparent" points="-4,4 -4,-57 595,-57 595,4 -4,4"/>
<!-- Node1 -->
<g id="node1" class="node">
<title>Node1</title>
<g id="a_node1"><a xlink:title=" ">
<polygon fill="#bfbfbf" stroke="black" points="402,-11.5 402,-41.5 591,-41.5 591,-11.5 402,-11.5"/>
<text text-anchor="start" x="410" y="-29.5" font-family="Helvetica,sans-Serif" font-size="10.00">DynExpInstr::NetworkSpectrometer</text>
<text text-anchor="middle" x="496.5" y="-18.5" font-family="Helvetica,sans-Serif" font-size="10.00">Configurator</text>
</a>
</g>
</g>
<!-- Node2 -->
<g id="node2" class="node">
<title>Node2</title>
<g id="a_node2"><a xlink:href="classDynExpInstr_1_1gRPCInstrumentConfigurator.html" target="_top" xlink:title=" ">
<polygon fill="white" stroke="black" points="158,-0.5 158,-52.5 366,-52.5 366,-0.5 158,-0.5"/>
<text text-anchor="start" x="166" y="-40.5" font-family="Helvetica,sans-Serif" font-size="10.00">DynExpInstr::gRPCInstrument</text>
<text text-anchor="start" x="166" y="-29.5" font-family="Helvetica,sans-Serif" font-size="10.00">Configurator&lt; Spectrometer,</text>
<text text-anchor="start" x="166" y="-18.5" font-family="Helvetica,sans-Serif" font-size="10.00"> 0, DynExpProto::NetworkSpectrometer</text>
<text text-anchor="middle" x="262" y="-7.5" font-family="Helvetica,sans-Serif" font-size="10.00">::NetworkSpectrometer &gt;</text>
</a>
</g>
</g>
<!-- Node2&#45;&gt;Node1 -->
<g id="edge1" class="edge">
<title>Node2&#45;&gt;Node1</title>
<path fill="none" stroke="midnightblue" d="M376.57,-26.5C384.97,-26.5 393.4,-26.5 401.67,-26.5"/>
<polygon fill="midnightblue" stroke="midnightblue" points="376.33,-23 366.33,-26.5 376.33,-30 376.33,-23"/>
</g>
<!-- Node3 -->
<g id="node3" class="node">
<title>Node3</title>
<g id="a_node3"><a xlink:title=" ">
<polygon fill="white" stroke="#bfbfbf" points="0,-17 0,-36 122,-36 122,-17 0,-17"/>
<text text-anchor="middle" x="61" y="-24" font-family="Helvetica,sans-Serif" font-size="10.00">BaseInstr::ConfigType</text>
</a>
</g>
</g>
<!-- Node3&#45;&gt;Node2 -->
<g id="edge2" class="edge">
<title>Node3&#45;&gt;Node2</title>
<path fill="none" stroke="midnightblue" d="M132.25,-26.5C140.59,-26.5 149.23,-26.5 157.91,-26.5"/>
<polygon fill="midnightblue" stroke="midnightblue" points="132.25,-23 122.25,-26.5 132.25,-30 132.25,-23"/>
</g>
</g>
</svg>
