<?xml version="1.0" encoding="UTF-8" standalone="no"?>
<!DOCTYPE svg PUBLIC "-//W3C//DTD SVG 1.1//EN"
 "http://www.w3.org/Graphics/SVG/1.1/DTD/svg11.dtd">
<!-- Generated by graphviz version 2.43.0 (0)
 -->
<!-- Title: DynExp::LinkedObjectWrapperContainerBase Pages: 1 -->
<svg width="576pt" height="1337pt"
 viewBox="0.00 0.00 576.00 1336.50" xmlns="http://www.w3.org/2000/svg" xmlns:xlink="http://www.w3.org/1999/xlink">
<g id="graph0" class="graph" transform="scale(1 1) rotate(0) translate(4 1332.5)">
<title>DynExp::LinkedObjectWrapperContainerBase</title>
<!-- Node1 -->
<g id="Node000001" class="node">
<title>Node1</title>
<g id="a_Node000001"><a xlink:title="Polymorphic base class to allow storing LinkedObjectWrapperContainer of any type in a single list.">
<polygon fill="#999999" stroke="#666666" points="308,-674 144,-674 144,-644 308,-644 308,-674"/>
<text text-anchor="start" x="152" y="-662" font-family="Helvetica,sans-Serif" font-size="10.00">DynExp::LinkedObjectWrapper</text>
<text text-anchor="middle" x="226" y="-651" font-family="Helvetica,sans-Serif" font-size="10.00">ContainerBase</text>
</a>
</g>
</g>
<!-- Node3 -->
<g id="Node000003" class="node">
<title>Node3</title>
<g id="a_Node000003"><a xlink:href="classDynExp_1_1LinkedObjectWrapperContainer.html" target="_top" xlink:title=" ">
<polygon fill="white" stroke="#666666" points="538,-1328.5 374,-1328.5 374,-1287.5 538,-1287.5 538,-1328.5"/>
<text text-anchor="start" x="382" y="-1316.5" font-family="Helvetica,sans-Serif" font-size="10.00">DynExp::LinkedObjectWrapper</text>
<text text-anchor="start" x="382" y="-1305.5" font-family="Helvetica,sans-Serif" font-size="10.00">Container&lt; DynExpInstr::</text>
<text text-anchor="middle" x="456" y="-1294.5" font-family="Helvetica,sans-Serif" font-size="10.00">DataStreamInstrument &gt;</text>
</a>
</g>
</g>
<!-- Node1&#45;&gt;Node3 -->
<g id="edge2_Node000001_Node000003" class="edge">
<title>Node1&#45;&gt;Node3</title>
<g id="a_edge2_Node000001_Node000003"><a xlink:title=" ">
<path fill="none" stroke="#63b8ff" d="M228.26,-684.32C234,-789.45 261.07,-1190.14 344,-1279 352.15,-1287.74 362.58,-1293.97 373.77,-1298.4"/>
<polygon fill="#63b8ff" stroke="#63b8ff" points="231.74,-683.84 227.72,-674.04 224.75,-684.21 231.74,-683.84"/>
</a>
</g>
</g>
<!-- Node4 -->
<g id="Node000004" class="node">
<title>Node4</title>
<g id="a_Node000004"><a xlink:href="classDynExp_1_1LinkedObjectWrapperContainer.html" target="_top" xlink:title=" ">
<polygon fill="white" stroke="#666666" points="538,-1269.5 374,-1269.5 374,-1228.5 538,-1228.5 538,-1269.5"/>
<text text-anchor="start" x="382" y="-1257.5" font-family="Helvetica,sans-Serif" font-size="10.00">DynExp::LinkedObjectWrapper</text>
<text text-anchor="start" x="382" y="-1246.5" font-family="Helvetica,sans-Serif" font-size="10.00">Container&lt; DynExpHardware</text>
<text text-anchor="middle" x="456" y="-1235.5" font-family="Helvetica,sans-Serif" font-size="10.00">::NIDAQHardwareAdapter &gt;</text>
</a>
</g>
</g>
<!-- Node1&#45;&gt;Node4 -->
<g id="edge3_Node000001_Node000004" class="edge">
<title>Node1&#45;&gt;Node4</title>
<g id="a_edge3_Node000001_Node000004"><a xlink:title=" ">
<path fill="none" stroke="#63b8ff" d="M228.81,-684.43C236.37,-783.32 268.56,-1140.7 344,-1220 352.24,-1228.66 362.71,-1234.85 373.92,-1239.26"/>
<polygon fill="#63b8ff" stroke="#63b8ff" points="232.28,-683.89 228.05,-674.18 225.3,-684.41 232.28,-683.89"/>
</a>
</g>
</g>
<!-- Node5 -->
<g id="Node000005" class="node">
<title>Node5</title>
<g id="a_Node000005"><a xlink:href="classDynExp_1_1LinkedObjectWrapperContainer.html" target="_top" xlink:title=" ">
<polygon fill="white" stroke="#666666" points="568,-1210.5 344,-1210.5 344,-1169.5 568,-1169.5 568,-1210.5"/>
<text text-anchor="start" x="352" y="-1198.5" font-family="Helvetica,sans-Serif" font-size="10.00">DynExp::LinkedObjectWrapper</text>
<text text-anchor="start" x="352" y="-1187.5" font-family="Helvetica,sans-Serif" font-size="10.00">Container&lt; DynExp::SerialCommunication</text>
<text text-anchor="middle" x="456" y="-1176.5" font-family="Helvetica,sans-Serif" font-size="10.00">HardwareAdapter &gt;</text>
</a>
</g>
</g>
<!-- Node1&#45;&gt;Node5 -->
<g id="edge4_Node000001_Node000005" class="edge">
<title>Node1&#45;&gt;Node5</title>
<g id="a_edge4_Node000001_Node000005"><a xlink:title=" ">
<path fill="none" stroke="#63b8ff" d="M229.45,-684.11C238.91,-775.84 275.91,-1091.07 344,-1161 347.06,-1164.14 350.41,-1166.95 353.98,-1169.47"/>
<polygon fill="#63b8ff" stroke="#63b8ff" points="232.93,-683.66 228.44,-674.07 225.96,-684.37 232.93,-683.66"/>
</a>
</g>
</g>
<!-- Node6 -->
<g id="Node000006" class="node">
<title>Node6</title>
<g id="a_Node000006"><a xlink:href="classDynExp_1_1LinkedObjectWrapperContainer.html" target="_top" xlink:title=" ">
<polygon fill="white" stroke="#666666" points="538,-1151.5 374,-1151.5 374,-1110.5 538,-1110.5 538,-1151.5"/>
<text text-anchor="start" x="382" y="-1139.5" font-family="Helvetica,sans-Serif" font-size="10.00">DynExp::LinkedObjectWrapper</text>
<text text-anchor="start" x="382" y="-1128.5" font-family="Helvetica,sans-Serif" font-size="10.00">Container&lt; DynExpHardware</text>
<text text-anchor="middle" x="456" y="-1117.5" font-family="Helvetica,sans-Serif" font-size="10.00">::PVCamHardwareAdapter &gt;</text>
</a>
</g>
</g>
<!-- Node1&#45;&gt;Node6 -->
<g id="edge5_Node000001_Node000006" class="edge">
<title>Node1&#45;&gt;Node6</title>
<g id="a_edge5_Node000001_Node000006"><a xlink:title=" ">
<path fill="none" stroke="#63b8ff" d="M230.29,-684.15C241.87,-768.8 283.3,-1041.46 344,-1102 352.32,-1110.3 362.7,-1116.31 373.75,-1120.65"/>
<polygon fill="#63b8ff" stroke="#63b8ff" points="233.75,-683.58 228.94,-674.13 226.81,-684.51 233.75,-683.58"/>
</a>
</g>
</g>
<!-- Node7 -->
<g id="Node000007" class="node">
<title>Node7</title>
<g id="a_Node000007"><a xlink:href="classDynExp_1_1LinkedObjectWrapperContainer.html" target="_top" xlink:title=" ">
<polygon fill="white" stroke="#666666" points="544.5,-1092.5 367.5,-1092.5 367.5,-1051.5 544.5,-1051.5 544.5,-1092.5"/>
<text text-anchor="start" x="375.5" y="-1080.5" font-family="Helvetica,sans-Serif" font-size="10.00">DynExp::LinkedObjectWrapper</text>
<text text-anchor="start" x="375.5" y="-1069.5" font-family="Helvetica,sans-Serif" font-size="10.00">Container&lt; DynExpHardware</text>
<text text-anchor="middle" x="456" y="-1058.5" font-family="Helvetica,sans-Serif" font-size="10.00">::QutoolsTDCHardwareAdapter &gt;</text>
</a>
</g>
</g>
<!-- Node1&#45;&gt;Node7 -->
<g id="edge6_Node000001_Node000007" class="edge">
<title>Node1&#45;&gt;Node7</title>
<g id="a_edge6_Node000001_Node000007"><a xlink:title=" ">
<path fill="none" stroke="#63b8ff" d="M226.78,-684.39C227.62,-752.85 239.73,-942.84 344,-1043 350.75,-1049.49 358.76,-1054.57 367.35,-1058.54"/>
<polygon fill="#63b8ff" stroke="#63b8ff" points="230.28,-684.1 226.73,-674.12 223.28,-684.14 230.28,-684.1"/>
</a>
</g>
</g>
<!-- Node8 -->
<g id="Node000008" class="node">
<title>Node8</title>
<g id="a_Node000008"><a xlink:href="classDynExp_1_1LinkedObjectWrapperContainer.html" target="_top" xlink:title=" ">
<polygon fill="white" stroke="#666666" points="538,-1033.5 374,-1033.5 374,-992.5 538,-992.5 538,-1033.5"/>
<text text-anchor="start" x="382" y="-1021.5" font-family="Helvetica,sans-Serif" font-size="10.00">DynExp::LinkedObjectWrapper</text>
<text text-anchor="start" x="382" y="-1010.5" font-family="Helvetica,sans-Serif" font-size="10.00">Container&lt; DynExpHardware</text>
<text text-anchor="middle" x="456" y="-999.5" font-family="Helvetica,sans-Serif" font-size="10.00">::SmarActHardwareAdapter &gt;</text>
</a>
</g>
</g>
<!-- Node1&#45;&gt;Node8 -->
<g id="edge7_Node000001_Node000008" class="edge">
<title>Node1&#45;&gt;Node8</title>
<g id="a_edge7_Node000001_Node000008"><a xlink:title=" ">
<path fill="none" stroke="#63b8ff" d="M228.42,-684.58C233.25,-745.83 254.19,-901.93 344,-984 352.53,-991.79 362.89,-997.54 373.82,-1001.78"/>
<polygon fill="#63b8ff" stroke="#63b8ff" points="231.89,-684.01 227.7,-674.28 224.91,-684.5 231.89,-684.01"/>
</a>
</g>
</g>
<!-- Node9 -->
<g id="Node000009" class="node">
<title>Node9</title>
<g id="a_Node000009"><a xlink:href="classDynExp_1_1LinkedObjectWrapperContainer.html" target="_top" xlink:title=" ">
<polygon fill="white" stroke="#666666" points="556,-974.5 356,-974.5 356,-933.5 556,-933.5 556,-974.5"/>
<text text-anchor="start" x="364" y="-962.5" font-family="Helvetica,sans-Serif" font-size="10.00">DynExp::LinkedObjectWrapper</text>
<text text-anchor="start" x="364" y="-951.5" font-family="Helvetica,sans-Serif" font-size="10.00">Container&lt; DynExpHardware</text>
<text text-anchor="middle" x="456" y="-940.5" font-family="Helvetica,sans-Serif" font-size="10.00">::SIPulseStreamerHardwareAdapter &gt;</text>
</a>
</g>
</g>
<!-- Node1&#45;&gt;Node9 -->
<g id="edge8_Node000001_Node000009" class="edge">
<title>Node1&#45;&gt;Node9</title>
<g id="a_edge8_Node000001_Node000009"><a xlink:title=" ">
<path fill="none" stroke="#63b8ff" d="M230.66,-684.23C239.72,-737.19 268.19,-860.37 344,-925 347.71,-928.17 351.73,-930.99 355.97,-933.51"/>
<polygon fill="#63b8ff" stroke="#63b8ff" points="234.07,-683.36 229.02,-674.04 227.16,-684.47 234.07,-683.36"/>
</a>
</g>
</g>
<!-- Node10 -->
<g id="Node000010" class="node">
<title>Node10</title>
<g id="a_Node000010"><a xlink:href="classDynExp_1_1LinkedObjectWrapperContainer.html" target="_top" xlink:title=" ">
<polygon fill="white" stroke="#666666" points="539,-915.5 373,-915.5 373,-874.5 539,-874.5 539,-915.5"/>
<text text-anchor="start" x="381" y="-903.5" font-family="Helvetica,sans-Serif" font-size="10.00">DynExp::LinkedObjectWrapper</text>
<text text-anchor="start" x="381" y="-892.5" font-family="Helvetica,sans-Serif" font-size="10.00">Container&lt; DynExpHardware</text>
<text text-anchor="middle" x="456" y="-881.5" font-family="Helvetica,sans-Serif" font-size="10.00">::ZILabOneHardwareAdapter &gt;</text>
</a>
</g>
</g>
<!-- Node1&#45;&gt;Node10 -->
<g id="edge9_Node000001_Node000010" class="edge">
<title>Node1&#45;&gt;Node10</title>
<g id="a_edge9_Node000001_Node000010"><a xlink:title=" ">
<path fill="none" stroke="#63b8ff" d="M234.06,-684.07C247.72,-727.9 282.05,-818.32 344,-866 352.6,-872.62 362.57,-877.74 372.94,-881.69"/>
<polygon fill="#63b8ff" stroke="#63b8ff" points="237.33,-682.79 231.1,-674.23 230.63,-684.81 237.33,-682.79"/>
</a>
</g>
</g>
<!-- Node11 -->
<g id="Node000011" class="node">
<title>Node11</title>
<g id="a_Node000011"><a xlink:href="classDynExp_1_1LinkedObjectWrapperContainer.html" target="_top" xlink:title=" ">
<polygon fill="white" stroke="#666666" points="538,-856.5 374,-856.5 374,-815.5 538,-815.5 538,-856.5"/>
<text text-anchor="start" x="382" y="-844.5" font-family="Helvetica,sans-Serif" font-size="10.00">DynExp::LinkedObjectWrapper</text>
<text text-anchor="start" x="382" y="-833.5" font-family="Helvetica,sans-Serif" font-size="10.00">Container&lt; DynExpInstr::</text>
<text text-anchor="middle" x="456" y="-822.5" font-family="Helvetica,sans-Serif" font-size="10.00">FunctionGenerator &gt;</text>
</a>
</g>
</g>
<!-- Node1&#45;&gt;Node11 -->
<g id="edge10_Node000001_Node000011" class="edge">
<title>Node1&#45;&gt;Node11</title>
<g id="a_edge10_Node000001_Node000011"><a xlink:title=" ">
<path fill="none" stroke="#63b8ff" d="M239.53,-683.26C257.91,-716.36 295.33,-775.21 344,-807 353.09,-812.94 363.34,-817.66 373.84,-821.42"/>
<polygon fill="#63b8ff" stroke="#63b8ff" points="242.5,-681.38 234.66,-674.25 236.34,-684.71 242.5,-681.38"/>
</a>
</g>
</g>
<!-- Node12 -->
<g id="Node000012" class="node">
<title>Node12</title>
<g id="a_Node000012"><a xlink:href="classDynExp_1_1LinkedObjectWrapperContainer.html" target="_top" xlink:title=" ">
<polygon fill="white" stroke="#666666" points="538,-797.5 374,-797.5 374,-756.5 538,-756.5 538,-797.5"/>
<text text-anchor="start" x="382" y="-785.5" font-family="Helvetica,sans-Serif" font-size="10.00">DynExp::LinkedObjectWrapper</text>
<text text-anchor="start" x="382" y="-774.5" font-family="Helvetica,sans-Serif" font-size="10.00">Container&lt; DynExpInstr::</text>
<text text-anchor="middle" x="456" y="-763.5" font-family="Helvetica,sans-Serif" font-size="10.00">Camera &gt;</text>
</a>
</g>
</g>
<!-- Node1&#45;&gt;Node12 -->
<g id="edge11_Node000001_Node000012" class="edge">
<title>Node1&#45;&gt;Node12</title>
<g id="a_edge11_Node000001_Node000012"><a xlink:title=" ">
<path fill="none" stroke="#63b8ff" d="M250.28,-681.21C272.65,-701.39 308.23,-730.59 344,-748 353.4,-752.58 363.62,-756.49 373.91,-759.83"/>
<polygon fill="#63b8ff" stroke="#63b8ff" points="252.4,-678.4 242.67,-674.22 247.67,-683.56 252.4,-678.4"/>
</a>
</g>
</g>
<!-- Node13 -->
<g id="Node000013" class="node">
<title>Node13</title>
<g id="a_Node000013"><a xlink:href="classDynExp_1_1LinkedObjectWrapperContainer.html" target="_top" xlink:title=" ">
<polygon fill="white" stroke="#666666" points="538,-738.5 374,-738.5 374,-697.5 538,-697.5 538,-738.5"/>
<text text-anchor="start" x="382" y="-726.5" font-family="Helvetica,sans-Serif" font-size="10.00">DynExp::LinkedObjectWrapper</text>
<text text-anchor="start" x="382" y="-715.5" font-family="Helvetica,sans-Serif" font-size="10.00">Container&lt; DynExpInstr::</text>
<text text-anchor="middle" x="456" y="-704.5" font-family="Helvetica,sans-Serif" font-size="10.00">AnalogOut &gt;</text>
</a>
</g>
</g>
<!-- Node1&#45;&gt;Node13 -->
<g id="edge12_Node000001_Node000013" class="edge">
<title>Node1&#45;&gt;Node13</title>
<g id="a_edge12_Node000001_Node000013"><a xlink:title=" ">
<path fill="none" stroke="#63b8ff" d="M294.99,-676.59C320.3,-683.14 349.23,-690.63 375.48,-697.42"/>
<polygon fill="#63b8ff" stroke="#63b8ff" points="295.68,-673.16 285.12,-674.04 293.93,-679.93 295.68,-673.16"/>
</a>
</g>
</g>
<!-- Node14 -->
<g id="Node000014" class="node">
<title>Node14</title>
<g id="a_Node000014"><a xlink:href="classDynExp_1_1LinkedObjectWrapperContainer.html" target="_top" xlink:title=" ">
<polygon fill="white" stroke="#666666" points="538,-679.5 374,-679.5 374,-638.5 538,-638.5 538,-679.5"/>
<text text-anchor="start" x="382" y="-667.5" font-family="Helvetica,sans-Serif" font-size="10.00">DynExp::LinkedObjectWrapper</text>
<text text-anchor="start" x="382" y="-656.5" font-family="Helvetica,sans-Serif" font-size="10.00">Container&lt; DynExpInstr::</text>
<text text-anchor="middle" x="456" y="-645.5" font-family="Helvetica,sans-Serif" font-size="10.00">InterModuleCommunicator &gt;</text>
</a>
</g>
</g>
<!-- Node1&#45;&gt;Node14 -->
<g id="edge13_Node000001_Node000014" class="edge">
<title>Node1&#45;&gt;Node14</title>
<g id="a_edge13_Node000001_Node000014"><a xlink:title=" ">
<path fill="none" stroke="#63b8ff" d="M318.16,-659C336.57,-659 355.81,-659 373.85,-659"/>
<polygon fill="#63b8ff" stroke="#63b8ff" points="318.03,-655.5 308.03,-659 318.03,-662.5 318.03,-655.5"/>
</a>
</g>
</g>
<!-- Node15 -->
<g id="Node000015" class="node">
<title>Node15</title>
<g id="a_Node000015"><a xlink:href="classDynExp_1_1LinkedObjectWrapperContainer.html" target="_top" xlink:title=" ">
<polygon fill="white" stroke="#666666" points="538,-620.5 374,-620.5 374,-579.5 538,-579.5 538,-620.5"/>
<text text-anchor="start" x="382" y="-608.5" font-family="Helvetica,sans-Serif" font-size="10.00">DynExp::LinkedObjectWrapper</text>
<text text-anchor="start" x="382" y="-597.5" font-family="Helvetica,sans-Serif" font-size="10.00">Container&lt; DynExpInstr::</text>
<text text-anchor="middle" x="456" y="-586.5" font-family="Helvetica,sans-Serif" font-size="10.00">InputPort &gt;</text>
</a>
</g>
</g>
<!-- Node1&#45;&gt;Node15 -->
<g id="edge14_Node000001_Node000015" class="edge">
<title>Node1&#45;&gt;Node15</title>
<g id="a_edge14_Node000001_Node000015"><a xlink:title=" ">
<path fill="none" stroke="#63b8ff" d="M294.99,-641.41C320.3,-634.86 349.23,-627.37 375.48,-620.58"/>
<polygon fill="#63b8ff" stroke="#63b8ff" points="293.93,-638.07 285.12,-643.96 295.68,-644.84 293.93,-638.07"/>
</a>
</g>
</g>
<!-- Node16 -->
<g id="Node000016" class="node">
<title>Node16</title>
<g id="a_Node000016"><a xlink:href="classDynExp_1_1LinkedObjectWrapperContainer.html" target="_top" xlink:title=" ">
<polygon fill="white" stroke="#666666" points="538,-561.5 374,-561.5 374,-520.5 538,-520.5 538,-561.5"/>
<text text-anchor="start" x="382" y="-549.5" font-family="Helvetica,sans-Serif" font-size="10.00">DynExp::LinkedObjectWrapper</text>
<text text-anchor="start" x="382" y="-538.5" font-family="Helvetica,sans-Serif" font-size="10.00">Container&lt; DynExpInstr::</text>
<text text-anchor="middle" x="456" y="-527.5" font-family="Helvetica,sans-Serif" font-size="10.00">LockinAmplifier &gt;</text>
</a>
</g>
</g>
<!-- Node1&#45;&gt;Node16 -->
<g id="edge15_Node000001_Node000016" class="edge">
<title>Node1&#45;&gt;Node16</title>
<g id="a_edge15_Node000001_Node000016"><a xlink:title=" ">
<path fill="none" stroke="#63b8ff" d="M250.28,-636.79C272.65,-616.61 308.23,-587.41 344,-570 353.4,-565.42 363.62,-561.51 373.91,-558.17"/>
<polygon fill="#63b8ff" stroke="#63b8ff" points="247.67,-634.44 242.67,-643.78 252.4,-639.6 247.67,-634.44"/>
</a>
</g>
</g>
<!-- Node17 -->
<g id="Node000017" class="node">
<title>Node17</title>
<g id="a_Node000017"><a xlink:href="classDynExp_1_1LinkedObjectWrapperContainer.html" target="_top" xlink:title=" ">
<polygon fill="white" stroke="#666666" points="538,-502.5 374,-502.5 374,-461.5 538,-461.5 538,-502.5"/>
<text text-anchor="start" x="382" y="-490.5" font-family="Helvetica,sans-Serif" font-size="10.00">DynExp::LinkedObjectWrapper</text>
<text text-anchor="start" x="382" y="-479.5" font-family="Helvetica,sans-Serif" font-size="10.00">Container&lt; DynExpInstr::</text>
<text text-anchor="middle" x="456" y="-468.5" font-family="Helvetica,sans-Serif" font-size="10.00">DigitalOut &gt;</text>
</a>
</g>
</g>
<!-- Node1&#45;&gt;Node17 -->
<g id="edge16_Node000001_Node000017" class="edge">
<title>Node1&#45;&gt;Node17</title>
<g id="a_edge16_Node000001_Node000017"><a xlink:title=" ">
<path fill="none" stroke="#63b8ff" d="M239.53,-634.74C257.91,-601.64 295.33,-542.79 344,-511 353.09,-505.06 363.34,-500.34 373.84,-496.58"/>
<polygon fill="#63b8ff" stroke="#63b8ff" points="236.34,-633.29 234.66,-643.75 242.5,-636.62 236.34,-633.29"/>
</a>
</g>
</g>
<!-- Node18 -->
<g id="Node000018" class="node">
<title>Node18</title>
<g id="a_Node000018"><a xlink:href="classDynExp_1_1LinkedObjectWrapperContainer.html" target="_top" xlink:title=" ">
<polygon fill="white" stroke="#666666" points="538,-443.5 374,-443.5 374,-402.5 538,-402.5 538,-443.5"/>
<text text-anchor="start" x="382" y="-431.5" font-family="Helvetica,sans-Serif" font-size="10.00">DynExp::LinkedObjectWrapper</text>
<text text-anchor="start" x="382" y="-420.5" font-family="Helvetica,sans-Serif" font-size="10.00">Container&lt; DynExpInstr::</text>
<text text-anchor="middle" x="456" y="-409.5" font-family="Helvetica,sans-Serif" font-size="10.00">OutputPort &gt;</text>
</a>
</g>
</g>
<!-- Node1&#45;&gt;Node18 -->
<g id="edge17_Node000001_Node000018" class="edge">
<title>Node1&#45;&gt;Node18</title>
<g id="a_edge17_Node000001_Node000018"><a xlink:title=" ">
<path fill="none" stroke="#63b8ff" d="M234.06,-633.93C247.72,-590.1 282.05,-499.68 344,-452 352.84,-445.2 363.12,-439.98 373.8,-435.99"/>
<polygon fill="#63b8ff" stroke="#63b8ff" points="230.63,-633.19 231.1,-643.77 237.33,-635.21 230.63,-633.19"/>
</a>
</g>
</g>
<!-- Node19 -->
<g id="Node000019" class="node">
<title>Node19</title>
<g id="a_Node000019"><a xlink:href="classDynExp_1_1LinkedObjectWrapperContainer.html" target="_top" xlink:title=" ">
<polygon fill="white" stroke="#666666" points="538,-384.5 374,-384.5 374,-343.5 538,-343.5 538,-384.5"/>
<text text-anchor="start" x="382" y="-372.5" font-family="Helvetica,sans-Serif" font-size="10.00">DynExp::LinkedObjectWrapper</text>
<text text-anchor="start" x="382" y="-361.5" font-family="Helvetica,sans-Serif" font-size="10.00">Container&lt; DynExpInstr::</text>
<text text-anchor="middle" x="456" y="-350.5" font-family="Helvetica,sans-Serif" font-size="10.00">Spectrometer &gt;</text>
</a>
</g>
</g>
<!-- Node1&#45;&gt;Node19 -->
<g id="edge18_Node000001_Node000019" class="edge">
<title>Node1&#45;&gt;Node19</title>
<g id="a_edge18_Node000001_Node000019"><a xlink:title=" ">
<path fill="none" stroke="#63b8ff" d="M230.66,-633.77C239.72,-580.81 268.19,-457.63 344,-393 352.64,-385.63 362.93,-380.11 373.72,-375.97"/>
<polygon fill="#63b8ff" stroke="#63b8ff" points="227.16,-633.53 229.02,-643.96 234.07,-634.64 227.16,-633.53"/>
</a>
</g>
</g>
<!-- Node20 -->
<g id="Node000020" class="node">
<title>Node20</title>
<g id="a_Node000020"><a xlink:href="classDynExp_1_1LinkedObjectWrapperContainer.html" target="_top" xlink:title=" ">
<polygon fill="white" stroke="#666666" points="538,-325.5 374,-325.5 374,-284.5 538,-284.5 538,-325.5"/>
<text text-anchor="start" x="382" y="-313.5" font-family="Helvetica,sans-Serif" font-size="10.00">DynExp::LinkedObjectWrapper</text>
<text text-anchor="start" x="382" y="-302.5" font-family="Helvetica,sans-Serif" font-size="10.00">Container&lt; DynExpInstr::</text>
<text text-anchor="middle" x="456" y="-291.5" font-family="Helvetica,sans-Serif" font-size="10.00">PositionerStage &gt;</text>
</a>
</g>
</g>
<!-- Node1&#45;&gt;Node20 -->
<g id="edge19_Node000001_Node000020" class="edge">
<title>Node1&#45;&gt;Node20</title>
<g id="a_edge19_Node000001_Node000020"><a xlink:title=" ">
<path fill="none" stroke="#63b8ff" d="M228.42,-633.42C233.25,-572.17 254.19,-416.07 344,-334 352.53,-326.21 362.89,-320.46 373.82,-316.22"/>
<polygon fill="#63b8ff" stroke="#63b8ff" points="224.91,-633.5 227.7,-643.72 231.89,-633.99 224.91,-633.5"/>
</a>
</g>
</g>
<!-- Node21 -->
<g id="Node000021" class="node">
<title>Node21</title>
<g id="a_Node000021"><a xlink:href="classDynExp_1_1LinkedObjectWrapperContainer.html" target="_top" xlink:title=" ">
<polygon fill="white" stroke="#666666" points="538,-266.5 374,-266.5 374,-225.5 538,-225.5 538,-266.5"/>
<text text-anchor="start" x="382" y="-254.5" font-family="Helvetica,sans-Serif" font-size="10.00">DynExp::LinkedObjectWrapper</text>
<text text-anchor="start" x="382" y="-243.5" font-family="Helvetica,sans-Serif" font-size="10.00">Container&lt; DynExpInstr::</text>
<text text-anchor="middle" x="456" y="-232.5" font-family="Helvetica,sans-Serif" font-size="10.00">DigitalIn &gt;</text>
</a>
</g>
</g>
<!-- Node1&#45;&gt;Node21 -->
<g id="edge20_Node000001_Node000021" class="edge">
<title>Node1&#45;&gt;Node21</title>
<g id="a_edge20_Node000001_Node000021"><a xlink:title=" ">
<path fill="none" stroke="#63b8ff" d="M226.78,-633.61C227.62,-565.15 239.73,-375.16 344,-275 352.4,-266.93 362.76,-261.03 373.74,-256.74"/>
<polygon fill="#63b8ff" stroke="#63b8ff" points="223.28,-633.86 226.73,-643.88 230.28,-633.9 223.28,-633.86"/>
</a>
</g>
</g>
<!-- Node22 -->
<g id="Node000022" class="node">
<title>Node22</title>
<g id="a_Node000022"><a xlink:href="classDynExp_1_1LinkedObjectWrapperContainer.html" target="_top" xlink:title=" ">
<polygon fill="white" stroke="#666666" points="538,-207.5 374,-207.5 374,-166.5 538,-166.5 538,-207.5"/>
<text text-anchor="start" x="382" y="-195.5" font-family="Helvetica,sans-Serif" font-size="10.00">DynExp::LinkedObjectWrapper</text>
<text text-anchor="start" x="382" y="-184.5" font-family="Helvetica,sans-Serif" font-size="10.00">Container&lt; DynExpInstr::</text>
<text text-anchor="middle" x="456" y="-173.5" font-family="Helvetica,sans-Serif" font-size="10.00">AnalogIn &gt;</text>
</a>
</g>
</g>
<!-- Node1&#45;&gt;Node22 -->
<g id="edge21_Node000001_Node000022" class="edge">
<title>Node1&#45;&gt;Node22</title>
<g id="a_edge21_Node000001_Node000022"><a xlink:title=" ">
<path fill="none" stroke="#63b8ff" d="M230.29,-633.85C241.87,-549.2 283.3,-276.54 344,-216 352.32,-207.7 362.7,-201.69 373.75,-197.35"/>
<polygon fill="#63b8ff" stroke="#63b8ff" points="226.81,-633.49 228.94,-643.87 233.75,-634.42 226.81,-633.49"/>
</a>
</g>
</g>
<!-- Node23 -->
<g id="Node000023" class="node">
<title>Node23</title>
<g id="a_Node000023"><a xlink:href="classDynExp_1_1LinkedObjectWrapperContainer.html" target="_top" xlink:title=" ">
<polygon fill="white" stroke="#666666" points="538,-148.5 374,-148.5 374,-107.5 538,-107.5 538,-148.5"/>
<text text-anchor="start" x="382" y="-136.5" font-family="Helvetica,sans-Serif" font-size="10.00">DynExp::LinkedObjectWrapper</text>
<text text-anchor="start" x="382" y="-125.5" font-family="Helvetica,sans-Serif" font-size="10.00">Container&lt; DynExpInstr::</text>
<text text-anchor="middle" x="456" y="-114.5" font-family="Helvetica,sans-Serif" font-size="10.00">WidefieldLocalization &gt;</text>
</a>
</g>
</g>
<!-- Node1&#45;&gt;Node23 -->
<g id="edge22_Node000001_Node000023" class="edge">
<title>Node1&#45;&gt;Node23</title>
<g id="a_edge22_Node000001_Node000023"><a xlink:title=" ">
<path fill="none" stroke="#63b8ff" d="M229.45,-633.89C238.91,-542.16 275.91,-226.93 344,-157 352.27,-148.51 362.69,-142.4 373.82,-138.02"/>
<polygon fill="#63b8ff" stroke="#63b8ff" points="225.96,-633.63 228.44,-643.93 232.93,-634.34 225.96,-633.63"/>
</a>
</g>
</g>
<!-- Node24 -->
<g id="Node000024" class="node">
<title>Node24</title>
<g id="a_Node000024"><a xlink:href="classDynExp_1_1LinkedObjectWrapperContainer.html" target="_top" xlink:title=" ">
<polygon fill="white" stroke="#666666" points="538,-89.5 374,-89.5 374,-48.5 538,-48.5 538,-89.5"/>
<text text-anchor="start" x="382" y="-77.5" font-family="Helvetica,sans-Serif" font-size="10.00">DynExp::LinkedObjectWrapper</text>
<text text-anchor="start" x="382" y="-66.5" font-family="Helvetica,sans-Serif" font-size="10.00">Container&lt; DynExpInstr::</text>
<text text-anchor="middle" x="456" y="-55.5" font-family="Helvetica,sans-Serif" font-size="10.00">TimeTagger &gt;</text>
</a>
</g>
</g>
<!-- Node1&#45;&gt;Node24 -->
<g id="edge23_Node000001_Node000024" class="edge">
<title>Node1&#45;&gt;Node24</title>
<g id="a_edge23_Node000001_Node000024"><a xlink:title=" ">
<path fill="none" stroke="#63b8ff" d="M228.81,-633.57C236.37,-534.68 268.56,-177.3 344,-98 352.24,-89.34 362.71,-83.15 373.92,-78.74"/>
<polygon fill="#63b8ff" stroke="#63b8ff" points="225.3,-633.59 228.05,-643.82 232.28,-634.11 225.3,-633.59"/>
</a>
</g>
</g>
<!-- Node25 -->
<g id="Node000025" class="node">
<title>Node25</title>
<g id="a_Node000025"><a xlink:href="classDynExp_1_1LinkedObjectWrapperContainer.html" target="_top" xlink:title="This class holds a pointer (LinkedObjectWrapperPointer) to a LinkedObjectWrapper. Intances of this cl...">
<polygon fill="white" stroke="#666666" points="538,-30 374,-30 374,0 538,0 538,-30"/>
<text text-anchor="start" x="382" y="-18" font-family="Helvetica,sans-Serif" font-size="10.00">DynExp::LinkedObjectWrapper</text>
<text text-anchor="middle" x="456" y="-7" font-family="Helvetica,sans-Serif" font-size="10.00">Container&lt; ObjectT &gt;</text>
</a>
</g>
</g>
<!-- Node1&#45;&gt;Node25 -->
<g id="edge24_Node000001_Node000025" class="edge">
<title>Node1&#45;&gt;Node25</title>
<g id="a_edge24_Node000001_Node000025"><a xlink:title=" ">
<path fill="none" stroke="#63b8ff" d="M228.14,-633.9C233.45,-528.89 259.11,-126.16 344,-39 352.25,-30.53 362.74,-24.7 373.95,-20.76"/>
<polygon fill="#63b8ff" stroke="#63b8ff" points="224.65,-633.75 227.66,-643.91 231.64,-634.09 224.65,-633.75"/>
</a>
</g>
</g>
<!-- Node2 -->
<g id="Node000002" class="node">
<title>Node2</title>
<g id="a_Node000002"><a xlink:href="classUtil_1_1INonCopyable.html" target="_top" xlink:title="Interface to delete copy constructor and copy assignment operator and thus make derived classes non&#45;c...">
<polygon fill="white" stroke="#666666" points="108,-668.5 0,-668.5 0,-649.5 108,-649.5 108,-668.5"/>
<text text-anchor="middle" x="54" y="-656.5" font-family="Helvetica,sans-Serif" font-size="10.00">Util::INonCopyable</text>
</a>
</g>
</g>
<!-- Node2&#45;&gt;Node1 -->
<g id="edge1_Node000001_Node000002" class="edge">
<title>Node2&#45;&gt;Node1</title>
<g id="a_edge1_Node000001_Node000002"><a xlink:title=" ">
<path fill="none" stroke="#63b8ff" d="M118.59,-659C126.83,-659 135.37,-659 143.85,-659"/>
<polygon fill="#63b8ff" stroke="#63b8ff" points="118.32,-655.5 108.32,-659 118.32,-662.5 118.32,-655.5"/>
</a>
</g>
</g>
</g>
</svg>
