<?xml version="1.0" encoding="UTF-8" standalone="no"?>
<!DOCTYPE svg PUBLIC "-//W3C//DTD SVG 1.1//EN"
 "http://www.w3.org/Graphics/SVG/1.1/DTD/svg11.dtd">
<!-- Generated by graphviz version 2.43.0 (0)
 -->
<!-- Title: DynExp::RunnableObject Pages: 1 -->
<svg width="1208pt" height="1276pt"
 viewBox="0.00 0.00 1208.00 1276.00" xmlns="http://www.w3.org/2000/svg" xmlns:xlink="http://www.w3.org/1999/xlink">
<g id="graph0" class="graph" transform="scale(1 1) rotate(0) translate(4 1272)">
<title>DynExp::RunnableObject</title>
<!-- Node1 -->
<g id="Node000001" class="node">
<title>Node1</title>
<g id="a_Node000001"><a xlink:title="Defines an Object which possesses a thread it runs in. The RunnableObject can be started and stopped ...">
<polygon fill="#999999" stroke="#666666" points="281,-604.5 144,-604.5 144,-585.5 281,-585.5 281,-604.5"/>
<text text-anchor="middle" x="212.5" y="-592.5" font-family="Helvetica,sans-Serif" font-size="10.00">DynExp::RunnableObject</text>
</a>
</g>
</g>
<!-- Node4 -->
<g id="Node000004" class="node">
<title>Node4</title>
<g id="a_Node000004"><a xlink:href="classDynExp_1_1InstrumentBase.html" target="_top" xlink:title="Base class for instruments. Instruments comprise virtual devices (meta instruments) and physial devic...">
<polygon fill="white" stroke="#666666" points="454,-953.5 317,-953.5 317,-934.5 454,-934.5 454,-953.5"/>
<text text-anchor="middle" x="385.5" y="-941.5" font-family="Helvetica,sans-Serif" font-size="10.00">DynExp::InstrumentBase</text>
</a>
</g>
</g>
<!-- Node1&#45;&gt;Node4 -->
<g id="edge3_Node000001_Node000004" class="edge">
<title>Node1&#45;&gt;Node4</title>
<g id="a_edge3_Node000001_Node000004"><a xlink:title=" ">
<path fill="none" stroke="#63b8ff" d="M222.84,-614.06C254.39,-678.45 356.31,-886.47 379.69,-934.18"/>
<polygon fill="#63b8ff" stroke="#63b8ff" points="225.79,-612.14 218.25,-604.7 219.51,-615.22 225.79,-612.14"/>
</a>
</g>
</g>
<!-- Node47 -->
<g id="Node000047" class="node">
<title>Node47</title>
<g id="a_Node000047"><a xlink:href="classDynExp_1_1ModuleBase.html" target="_top" xlink:title="Base class for modules. Modules implement programs on their own (e.g. measurement protocols or server...">
<polygon fill="white" stroke="#666666" points="445.5,-321.5 325.5,-321.5 325.5,-302.5 445.5,-302.5 445.5,-321.5"/>
<text text-anchor="middle" x="385.5" y="-309.5" font-family="Helvetica,sans-Serif" font-size="10.00">DynExp::ModuleBase</text>
</a>
</g>
</g>
<!-- Node1&#45;&gt;Node47 -->
<g id="edge27_Node000001_Node000047" class="edge">
<title>Node1&#45;&gt;Node47</title>
<g id="a_edge27_Node000001_Node000047"><a xlink:title=" ">
<path fill="none" stroke="#63b8ff" d="M224.6,-576.63C257.52,-522.14 353.87,-362.7 378.64,-321.7"/>
<polygon fill="#63b8ff" stroke="#63b8ff" points="221.56,-574.89 219.39,-585.26 227.55,-578.51 221.56,-574.89"/>
</a>
</g>
</g>
<!-- Node2 -->
<g id="Node000002" class="node">
<title>Node2</title>
<g id="a_Node000002"><a xlink:href="classUtil_1_1INonCopyable.html" target="_top" xlink:title="Interface to delete copy constructor and copy assignment operator and thus make derived classes non&#45;c...">
<polygon fill="white" stroke="#666666" points="108,-623.5 0,-623.5 0,-604.5 108,-604.5 108,-623.5"/>
<text text-anchor="middle" x="54" y="-611.5" font-family="Helvetica,sans-Serif" font-size="10.00">Util::INonCopyable</text>
</a>
</g>
</g>
<!-- Node2&#45;&gt;Node1 -->
<g id="edge1_Node000001_Node000002" class="edge">
<title>Node2&#45;&gt;Node1</title>
<g id="a_edge1_Node000001_Node000002"><a xlink:title=" ">
<path fill="none" stroke="#63b8ff" d="M118.5,-606.29C126.87,-605.27 135.49,-604.23 143.93,-603.2"/>
<polygon fill="#63b8ff" stroke="#63b8ff" points="117.93,-602.83 108.42,-607.51 118.77,-609.78 117.93,-602.83"/>
</a>
</g>
</g>
<!-- Node3 -->
<g id="Node000003" class="node">
<title>Node3</title>
<g id="a_Node000003"><a xlink:href="classDynExp_1_1Object.html" target="_top" xlink:title="Base class for all DynExp Objects like hardware adapters (DynExp::HardwareAdapterBase),...">
<polygon fill="white" stroke="#666666" points="100,-586.5 8,-586.5 8,-567.5 100,-567.5 100,-586.5"/>
<text text-anchor="middle" x="54" y="-574.5" font-family="Helvetica,sans-Serif" font-size="10.00">DynExp::Object</text>
</a>
</g>
</g>
<!-- Node3&#45;&gt;Node1 -->
<g id="edge2_Node000001_Node000003" class="edge">
<title>Node3&#45;&gt;Node1</title>
<g id="a_edge2_Node000001_Node000003"><a xlink:title=" ">
<path fill="none" stroke="#63b8ff" d="M110.43,-583.38C121.26,-584.62 132.74,-585.94 143.91,-587.23"/>
<polygon fill="#63b8ff" stroke="#63b8ff" points="110.6,-579.87 100.27,-582.21 109.8,-586.83 110.6,-579.87"/>
</a>
</g>
</g>
<!-- Node5 -->
<g id="Node000005" class="node">
<title>Node5</title>
<g id="a_Node000005"><a xlink:href="classDynExpInstr_1_1gRPCInstrument.html" target="_top" xlink:title=" ">
<polygon fill="white" stroke="#666666" points="695,-1268 490,-1268 490,-1216 695,-1216 695,-1268"/>
<text text-anchor="start" x="498" y="-1256" font-family="Helvetica,sans-Serif" font-size="10.00">DynExpInstr::gRPCInstrument</text>
<text text-anchor="start" x="498" y="-1245" font-family="Helvetica,sans-Serif" font-size="10.00">&lt; DynExp::InstrumentBase,</text>
<text text-anchor="start" x="498" y="-1234" font-family="Helvetica,sans-Serif" font-size="10.00"> 0, DynExpProto::WidefieldLocalization</text>
<text text-anchor="middle" x="592.5" y="-1223" font-family="Helvetica,sans-Serif" font-size="10.00">::WidefieldLocalization &gt;</text>
</a>
</g>
</g>
<!-- Node4&#45;&gt;Node5 -->
<g id="edge4_Node000004_Node000005" class="edge">
<title>Node4&#45;&gt;Node5</title>
<g id="a_edge4_Node000004_Node000005"><a xlink:title=" ">
<path fill="none" stroke="#63b8ff" d="M389.42,-963.62C397.3,-1010.1 423.1,-1128.13 490,-1197 497.19,-1204.4 505.8,-1210.67 514.93,-1215.96"/>
<polygon fill="#63b8ff" stroke="#63b8ff" points="392.86,-962.98 387.82,-953.66 385.95,-964.08 392.86,-962.98"/>
</a>
</g>
</g>
<!-- Node7 -->
<g id="Node000007" class="node">
<title>Node7</title>
<g id="a_Node000007"><a xlink:href="classDynExpInstr_1_1Camera.html" target="_top" xlink:title="Meta instrument for an image capturing (camera) device.">
<polygon fill="white" stroke="#666666" points="652.5,-1187.5 532.5,-1187.5 532.5,-1168.5 652.5,-1168.5 652.5,-1187.5"/>
<text text-anchor="middle" x="592.5" y="-1175.5" font-family="Helvetica,sans-Serif" font-size="10.00">DynExpInstr::Camera</text>
</a>
</g>
</g>
<!-- Node4&#45;&gt;Node7 -->
<g id="edge6_Node000004_Node000007" class="edge">
<title>Node4&#45;&gt;Node7</title>
<g id="a_edge6_Node000004_Node000007"><a xlink:title=" ">
<path fill="none" stroke="#63b8ff" d="M401.79,-961.46C442.41,-1007.82 552,-1132.91 583.14,-1168.46"/>
<polygon fill="#63b8ff" stroke="#63b8ff" points="404.27,-958.97 395.05,-953.76 399,-963.58 404.27,-958.97"/>
</a>
</g>
</g>
<!-- Node10 -->
<g id="Node000010" class="node">
<title>Node10</title>
<g id="a_Node000010"><a xlink:href="classDynExpInstr_1_1DataStreamInstrument.html" target="_top" xlink:title="Implementation of the data stream meta instrument, which is a base class for all instruments reading/...">
<polygon fill="white" stroke="#666666" points="689.5,-1036.5 495.5,-1036.5 495.5,-1017.5 689.5,-1017.5 689.5,-1036.5"/>
<text text-anchor="middle" x="592.5" y="-1024.5" font-family="Helvetica,sans-Serif" font-size="10.00">DynExpInstr::DataStreamInstrument</text>
</a>
</g>
</g>
<!-- Node4&#45;&gt;Node10 -->
<g id="edge9_Node000004_Node000010" class="edge">
<title>Node4&#45;&gt;Node10</title>
<g id="a_edge9_Node000004_Node000010"><a xlink:title=" ">
<path fill="none" stroke="#63b8ff" d="M416.1,-957.81C436.68,-967.24 464.82,-979.83 490,-990 514.69,-999.98 543.22,-1010.27 563.73,-1017.46"/>
<polygon fill="#63b8ff" stroke="#63b8ff" points="417.49,-954.59 406.94,-953.58 414.56,-960.95 417.49,-954.59"/>
</a>
</g>
</g>
<!-- Node35 -->
<g id="Node000035" class="node">
<title>Node35</title>
<g id="a_Node000035"><a xlink:href="classDynExpInstr_1_1InterModuleCommunicator.html" target="_top" xlink:title="Defines an inter&#45;module communicator instrument to exchange events in between DynExp modules....">
<polygon fill="white" stroke="#666666" points="662.5,-981 522.5,-981 522.5,-951 662.5,-951 662.5,-981"/>
<text text-anchor="start" x="530.5" y="-969" font-family="Helvetica,sans-Serif" font-size="10.00">DynExpInstr::InterModule</text>
<text text-anchor="middle" x="592.5" y="-958" font-family="Helvetica,sans-Serif" font-size="10.00">Communicator</text>
</a>
</g>
</g>
<!-- Node4&#45;&gt;Node35 -->
<g id="edge17_Node000004_Node000035" class="edge">
<title>Node4&#45;&gt;Node35</title>
<g id="a_edge17_Node000004_Node000035"><a xlink:title=" ">
<path fill="none" stroke="#63b8ff" d="M464.36,-952.36C483.48,-954.41 503.81,-956.59 522.48,-958.59"/>
<polygon fill="#63b8ff" stroke="#63b8ff" points="464.51,-948.85 454.19,-951.26 463.76,-955.81 464.51,-948.85"/>
</a>
</g>
</g>
<!-- Node36 -->
<g id="Node000036" class="node">
<title>Node36</title>
<g id="a_Node000036"><a xlink:href="classDynExpInstr_1_1Laser.html" target="_top" xlink:title="Meta instrument for a laser.">
<polygon fill="white" stroke="#666666" points="646.5,-932.5 538.5,-932.5 538.5,-913.5 646.5,-913.5 646.5,-932.5"/>
<text text-anchor="middle" x="592.5" y="-920.5" font-family="Helvetica,sans-Serif" font-size="10.00">DynExpInstr::Laser</text>
</a>
</g>
</g>
<!-- Node4&#45;&gt;Node36 -->
<g id="edge18_Node000004_Node000036" class="edge">
<title>Node4&#45;&gt;Node36</title>
<g id="a_edge18_Node000004_Node000036"><a xlink:title=" ">
<path fill="none" stroke="#63b8ff" d="M464.3,-936.03C489.07,-933.49 515.89,-930.75 538.48,-928.43"/>
<polygon fill="#63b8ff" stroke="#63b8ff" points="463.78,-932.56 454.19,-937.07 464.5,-939.53 463.78,-932.56"/>
</a>
</g>
</g>
<!-- Node39 -->
<g id="Node000039" class="node">
<title>Node39</title>
<g id="a_Node000039"><a xlink:href="classDynExpInstr_1_1PositionerStage.html" target="_top" xlink:title="Implementation of a meta instrument to control single&#45;axis positioner stages.">
<polygon fill="white" stroke="#666666" points="671.5,-847.5 513.5,-847.5 513.5,-828.5 671.5,-828.5 671.5,-847.5"/>
<text text-anchor="middle" x="592.5" y="-835.5" font-family="Helvetica,sans-Serif" font-size="10.00">DynExpInstr::PositionerStage</text>
</a>
</g>
</g>
<!-- Node4&#45;&gt;Node39 -->
<g id="edge20_Node000004_Node000039" class="edge">
<title>Node4&#45;&gt;Node39</title>
<g id="a_edge20_Node000004_Node000039"><a xlink:title=" ">
<path fill="none" stroke="#63b8ff" d="M413.99,-929.79C456.37,-907.87 536.56,-866.41 572.84,-847.65"/>
<polygon fill="#63b8ff" stroke="#63b8ff" points="412.33,-926.7 405.05,-934.41 415.54,-932.92 412.33,-926.7"/>
</a>
</g>
</g>
<!-- Node44 -->
<g id="Node000044" class="node">
<title>Node44</title>
<g id="a_Node000044"><a xlink:href="classDynExpInstr_1_1Spectrometer.html" target="_top" xlink:title="Meta instrument for a spectrometer.">
<polygon fill="white" stroke="#666666" points="666.5,-767.5 518.5,-767.5 518.5,-748.5 666.5,-748.5 666.5,-767.5"/>
<text text-anchor="middle" x="592.5" y="-755.5" font-family="Helvetica,sans-Serif" font-size="10.00">DynExpInstr::Spectrometer</text>
</a>
</g>
</g>
<!-- Node4&#45;&gt;Node44 -->
<g id="edge25_Node000004_Node000044" class="edge">
<title>Node4&#45;&gt;Node44</title>
<g id="a_edge25_Node000004_Node000044"><a xlink:title=" ">
<path fill="none" stroke="#63b8ff" d="M398.64,-926C416.53,-900.36 451.99,-852.79 490,-820 515.64,-797.88 550.09,-778.66 571.53,-767.7"/>
<polygon fill="#63b8ff" stroke="#63b8ff" points="395.65,-924.16 392.87,-934.39 401.42,-928.13 395.65,-924.16"/>
</a>
</g>
</g>
<!-- Node6 -->
<g id="Node000006" class="node">
<title>Node6</title>
<g id="a_Node000006"><a xlink:href="classDynExpInstr_1_1WidefieldLocalization.html" target="_top" xlink:title=" ">
<polygon fill="white" stroke="#666666" points="951,-1261.5 765,-1261.5 765,-1242.5 951,-1242.5 951,-1261.5"/>
<text text-anchor="middle" x="858" y="-1249.5" font-family="Helvetica,sans-Serif" font-size="10.00">DynExpInstr::WidefieldLocalization</text>
</a>
</g>
</g>
<!-- Node5&#45;&gt;Node6 -->
<g id="edge5_Node000005_Node000006" class="edge">
<title>Node5&#45;&gt;Node6</title>
<g id="a_edge5_Node000005_Node000006"><a xlink:title=" ">
<path fill="none" stroke="#63b8ff" d="M705.64,-1246.26C725.39,-1247.01 745.74,-1247.78 764.87,-1248.5"/>
<polygon fill="#63b8ff" stroke="#63b8ff" points="705.5,-1242.75 695.38,-1245.87 705.24,-1249.74 705.5,-1242.75"/>
</a>
</g>
</g>
<!-- Node8 -->
<g id="Node000008" class="node">
<title>Node8</title>
<g id="a_Node000008"><a xlink:href="classDynExpInstr_1_1DummyCamera.html" target="_top" xlink:title=" ">
<polygon fill="white" stroke="#666666" points="937.5,-1224.5 778.5,-1224.5 778.5,-1205.5 937.5,-1205.5 937.5,-1224.5"/>
<text text-anchor="middle" x="858" y="-1212.5" font-family="Helvetica,sans-Serif" font-size="10.00">DynExpInstr::DummyCamera</text>
</a>
</g>
</g>
<!-- Node7&#45;&gt;Node8 -->
<g id="edge7_Node000007_Node000008" class="edge">
<title>Node7&#45;&gt;Node8</title>
<g id="a_edge7_Node000007_Node000008"><a xlink:title=" ">
<path fill="none" stroke="#63b8ff" d="M662.86,-1187.74C701.9,-1193.22 750.45,-1200.04 789.23,-1205.48"/>
<polygon fill="#63b8ff" stroke="#63b8ff" points="663.02,-1184.23 652.63,-1186.3 662.05,-1191.16 663.02,-1184.23"/>
</a>
</g>
</g>
<!-- Node9 -->
<g id="Node000009" class="node">
<title>Node9</title>
<g id="a_Node000009"><a xlink:href="classDynExpInstr_1_1PVCam.html" target="_top" xlink:title=" ">
<polygon fill="white" stroke="#666666" points="916.5,-1187.5 799.5,-1187.5 799.5,-1168.5 916.5,-1168.5 916.5,-1187.5"/>
<text text-anchor="middle" x="858" y="-1175.5" font-family="Helvetica,sans-Serif" font-size="10.00">DynExpInstr::PVCam</text>
</a>
</g>
</g>
<!-- Node7&#45;&gt;Node9 -->
<g id="edge8_Node000007_Node000009" class="edge">
<title>Node7&#45;&gt;Node9</title>
<g id="a_edge8_Node000007_Node000009"><a xlink:title=" ">
<path fill="none" stroke="#63b8ff" d="M662.64,-1178C705.22,-1178 759.17,-1178 799.42,-1178"/>
<polygon fill="#63b8ff" stroke="#63b8ff" points="662.63,-1174.5 652.63,-1178 662.63,-1181.5 662.63,-1174.5"/>
</a>
</g>
</g>
<!-- Node11 -->
<g id="Node000011" class="node">
<title>Node11</title>
<g id="a_Node000011"><a xlink:href="classDynExpInstr_1_1gRPCInstrument.html" target="_top" xlink:title=" ">
<polygon fill="white" stroke="#666666" points="938.5,-1150.5 777.5,-1150.5 777.5,-1109.5 938.5,-1109.5 938.5,-1150.5"/>
<text text-anchor="start" x="785.5" y="-1138.5" font-family="Helvetica,sans-Serif" font-size="10.00">DynExpInstr::gRPCInstrument</text>
<text text-anchor="start" x="785.5" y="-1127.5" font-family="Helvetica,sans-Serif" font-size="10.00">&lt; DataStreamInstrument,</text>
<text text-anchor="middle" x="858" y="-1116.5" font-family="Helvetica,sans-Serif" font-size="10.00"> 0, gRPCStubs... &gt;</text>
</a>
</g>
</g>
<!-- Node10&#45;&gt;Node11 -->
<g id="edge10_Node000010_Node000011" class="edge">
<title>Node10&#45;&gt;Node11</title>
<g id="a_edge10_Node000010_Node000011"><a xlink:title=" ">
<path fill="none" stroke="#63b8ff" d="M616.73,-1042.02C643.36,-1058.62 688.79,-1085.11 731,-1101 745.71,-1106.53 761.79,-1111.21 777.4,-1115.08"/>
<polygon fill="#63b8ff" stroke="#63b8ff" points="618.46,-1038.97 608.13,-1036.59 614.72,-1044.89 618.46,-1038.97"/>
</a>
</g>
</g>
<!-- Node12 -->
<g id="Node000012" class="node">
<title>Node12</title>
<g id="a_Node000012"><a xlink:href="classDynExpInstr_1_1FunctionGenerator.html" target="_top" xlink:title="Function generator meta instrument based on the data stream meta instrument to generate waveforms by ...">
<polygon fill="#fff0f0" stroke="red" points="944,-1091.5 772,-1091.5 772,-1072.5 944,-1072.5 944,-1091.5"/>
<text text-anchor="middle" x="858" y="-1079.5" font-family="Helvetica,sans-Serif" font-size="10.00">DynExpInstr::FunctionGenerator</text>
</a>
</g>
</g>
<!-- Node10&#45;&gt;Node12 -->
<g id="edge11_Node000010_Node000012" class="edge">
<title>Node10&#45;&gt;Node12</title>
<g id="a_edge11_Node000010_Node000012"><a xlink:title=" ">
<path fill="none" stroke="#63b8ff" d="M634.57,-1039.45C661.74,-1047.34 698.25,-1057.28 731,-1064 746.69,-1067.22 763.6,-1070.06 779.78,-1072.48"/>
<polygon fill="#63b8ff" stroke="#63b8ff" points="635.22,-1035.99 624.64,-1036.54 633.25,-1042.71 635.22,-1035.99"/>
</a>
</g>
</g>
<!-- Node24 -->
<g id="Node000024" class="node">
<title>Node24</title>
<g id="a_Node000024"><a xlink:href="classDynExpInstr_1_1InputPort.html" target="_top" xlink:title="Generic input port meta instrument based on the data stream meta instrument to read data from hardwar...">
<polygon fill="#fff0f0" stroke="red" points="921,-1054.5 795,-1054.5 795,-1035.5 921,-1035.5 921,-1054.5"/>
<text text-anchor="middle" x="858" y="-1042.5" font-family="Helvetica,sans-Serif" font-size="10.00">DynExpInstr::InputPort</text>
</a>
</g>
</g>
<!-- Node10&#45;&gt;Node24 -->
<g id="edge14_Node000010_Node000024" class="edge">
<title>Node10&#45;&gt;Node24</title>
<g id="a_edge14_Node000010_Node000024"><a xlink:title=" ">
<path fill="none" stroke="#63b8ff" d="M700.09,-1034.28C732.21,-1036.48 766.39,-1038.81 794.63,-1040.74"/>
<polygon fill="#63b8ff" stroke="#63b8ff" points="699.96,-1030.76 689.75,-1033.57 699.49,-1037.75 699.96,-1030.76"/>
</a>
</g>
</g>
<!-- Node31 -->
<g id="Node000031" class="node">
<title>Node31</title>
<g id="a_Node000031"><a xlink:href="classDynExpInstr_1_1LockinAmplifier.html" target="_top" xlink:title="Meta instrument for a lock&#45;in amplifier based on the data stream meta instrument.">
<polygon fill="#fff0f0" stroke="red" points="937,-1017.5 779,-1017.5 779,-998.5 937,-998.5 937,-1017.5"/>
<text text-anchor="middle" x="858" y="-1005.5" font-family="Helvetica,sans-Serif" font-size="10.00">DynExpInstr::LockinAmplifier</text>
</a>
</g>
</g>
<!-- Node10&#45;&gt;Node31 -->
<g id="edge15_Node000010_Node000031" class="edge">
<title>Node10&#45;&gt;Node31</title>
<g id="a_edge15_Node000010_Node000031"><a xlink:title=" ">
<path fill="none" stroke="#63b8ff" d="M699.78,-1019.34C726.15,-1017.43 753.95,-1015.43 778.71,-1013.65"/>
<polygon fill="#63b8ff" stroke="#63b8ff" points="699.47,-1015.85 689.75,-1020.06 699.97,-1022.83 699.47,-1015.85"/>
</a>
</g>
</g>
<!-- Node33 -->
<g id="Node000033" class="node">
<title>Node33</title>
<g id="a_Node000033"><a xlink:href="classDynExpInstr_1_1TimeTagger.html" target="_top" xlink:title="Meta instrument for a time tagging device to assign timestamps to (e.g. photon) detection events base...">
<polygon fill="#fff0f0" stroke="red" points="927.5,-980.5 788.5,-980.5 788.5,-961.5 927.5,-961.5 927.5,-980.5"/>
<text text-anchor="middle" x="858" y="-968.5" font-family="Helvetica,sans-Serif" font-size="10.00">DynExpInstr::TimeTagger</text>
</a>
</g>
</g>
<!-- Node10&#45;&gt;Node33 -->
<g id="edge16_Node000010_Node000033" class="edge">
<title>Node10&#45;&gt;Node33</title>
<g id="a_edge16_Node000010_Node000033"><a xlink:title=" ">
<path fill="none" stroke="#63b8ff" d="M634.86,-1014.56C662,-1006.72 698.39,-996.82 731,-990 749.51,-986.13 769.72,-982.72 788.41,-979.9"/>
<polygon fill="#63b8ff" stroke="#63b8ff" points="633.55,-1011.29 624.93,-1017.45 635.51,-1018.01 633.55,-1011.29"/>
</a>
</g>
</g>
<!-- Node13 -->
<g id="Node000013" class="node">
<title>Node13</title>
<g id="a_Node000013"><a xlink:href="classDynExpInstr_1_1DummyDataStreamInstrument.html" target="_top" xlink:title=" ">
<polygon fill="white" stroke="#666666" points="1200,-1118 1021,-1118 1021,-1088 1200,-1088 1200,-1118"/>
<text text-anchor="start" x="1029" y="-1106" font-family="Helvetica,sans-Serif" font-size="10.00">DynExpInstr::DummyDataStream</text>
<text text-anchor="middle" x="1110.5" y="-1095" font-family="Helvetica,sans-Serif" font-size="10.00">Instrument</text>
</a>
</g>
</g>
<!-- Node12&#45;&gt;Node13 -->
<g id="edge12_Node000012_Node000013" class="edge">
<title>Node12&#45;&gt;Node13</title>
<g id="a_edge12_Node000012_Node000013"><a xlink:title=" ">
<path fill="none" stroke="#63b8ff" d="M954.4,-1090C976.18,-1091.82 999.24,-1093.76 1020.73,-1095.56"/>
<polygon fill="#63b8ff" stroke="#63b8ff" points="954.41,-1086.49 944.16,-1089.14 953.83,-1093.46 954.41,-1086.49"/>
</a>
</g>
</g>
<!-- Node14 -->
<g id="Node000014" class="node">
<title>Node14</title>
<g id="a_Node000014"><a xlink:href="classDynExpInstr_1_1OutputPort.html" target="_top" xlink:title="Generic output port meta instrument based on the data stream and function generator meta instruments ...">
<polygon fill="#fff0f0" stroke="red" points="1177.5,-1069.5 1043.5,-1069.5 1043.5,-1050.5 1177.5,-1050.5 1177.5,-1069.5"/>
<text text-anchor="middle" x="1110.5" y="-1057.5" font-family="Helvetica,sans-Serif" font-size="10.00">DynExpInstr::OutputPort</text>
</a>
</g>
</g>
<!-- Node12&#45;&gt;Node14 -->
<g id="edge13_Node000012_Node000014" class="edge">
<title>Node12&#45;&gt;Node14</title>
<g id="a_edge13_Node000012_Node000014"><a xlink:title=" ">
<path fill="none" stroke="#63b8ff" d="M954.12,-1073.65C983.81,-1071.04 1015.9,-1068.22 1043.17,-1065.83"/>
<polygon fill="#63b8ff" stroke="#63b8ff" points="953.81,-1070.16 944.16,-1074.52 954.43,-1077.13 953.81,-1070.16"/>
</a>
</g>
</g>
<!-- Node37 -->
<g id="Node000037" class="node">
<title>Node37</title>
<g id="a_Node000037"><a xlink:href="classDynExpInstr_1_1gRPCInstrument.html" target="_top" xlink:title=" ">
<polygon fill="#fff0f0" stroke="red" points="945.5,-943.5 770.5,-943.5 770.5,-902.5 945.5,-902.5 945.5,-943.5"/>
<text text-anchor="start" x="778.5" y="-931.5" font-family="Helvetica,sans-Serif" font-size="10.00">DynExpInstr::gRPCInstrument</text>
<text text-anchor="start" x="778.5" y="-920.5" font-family="Helvetica,sans-Serif" font-size="10.00">&lt; Laser, 0, DynExpProto</text>
<text text-anchor="middle" x="858" y="-909.5" font-family="Helvetica,sans-Serif" font-size="10.00">::NetworkLaser::NetworkLaser &gt;</text>
</a>
</g>
</g>
<!-- Node36&#45;&gt;Node37 -->
<g id="edge19_Node000036_Node000037" class="edge">
<title>Node36&#45;&gt;Node37</title>
<g id="a_edge19_Node000036_Node000037"><a xlink:title=" ">
<path fill="none" stroke="#63b8ff" d="M656.78,-923C690.82,-923 733.3,-923 770.36,-923"/>
<polygon fill="#63b8ff" stroke="#63b8ff" points="656.51,-919.5 646.51,-923 656.51,-926.5 656.51,-919.5"/>
</a>
</g>
</g>
<!-- Node40 -->
<g id="Node000040" class="node">
<title>Node40</title>
<g id="a_Node000040"><a xlink:href="classDynExpInstr_1_1NP__Conex__CC.html" target="_top" xlink:title=" ">
<polygon fill="white" stroke="#666666" points="933,-884.5 783,-884.5 783,-865.5 933,-865.5 933,-884.5"/>
<text text-anchor="middle" x="858" y="-872.5" font-family="Helvetica,sans-Serif" font-size="10.00">DynExpInstr::NP_Conex_CC</text>
</a>
</g>
</g>
<!-- Node39&#45;&gt;Node40 -->
<g id="edge21_Node000039_Node000040" class="edge">
<title>Node39&#45;&gt;Node40</title>
<g id="a_edge21_Node000039_Node000040"><a xlink:title=" ">
<path fill="none" stroke="#63b8ff" d="M671.67,-848.98C708.92,-854.21 753.06,-860.4 788.91,-865.44"/>
<polygon fill="#63b8ff" stroke="#63b8ff" points="671.75,-845.45 661.36,-847.53 670.77,-852.39 671.75,-845.45"/>
</a>
</g>
</g>
<!-- Node41 -->
<g id="Node000041" class="node">
<title>Node41</title>
<g id="a_Node000041"><a xlink:href="classDynExpInstr_1_1NenionLeakvalveF3.html" target="_top" xlink:title=" ">
<polygon fill="white" stroke="#666666" points="947.5,-847.5 768.5,-847.5 768.5,-828.5 947.5,-828.5 947.5,-847.5"/>
<text text-anchor="middle" x="858" y="-835.5" font-family="Helvetica,sans-Serif" font-size="10.00">DynExpInstr::NenionLeakvalveF3</text>
</a>
</g>
</g>
<!-- Node39&#45;&gt;Node41 -->
<g id="edge22_Node000039_Node000041" class="edge">
<title>Node39&#45;&gt;Node41</title>
<g id="a_edge22_Node000039_Node000041"><a xlink:title=" ">
<path fill="none" stroke="#63b8ff" d="M681.95,-838C709.77,-838 740.49,-838 768.33,-838"/>
<polygon fill="#63b8ff" stroke="#63b8ff" points="681.85,-834.5 671.85,-838 681.85,-841.5 681.85,-834.5"/>
</a>
</g>
</g>
<!-- Node42 -->
<g id="Node000042" class="node">
<title>Node42</title>
<g id="a_Node000042"><a xlink:href="classDynExpInstr_1_1PI__C__862.html" target="_top" xlink:title=" ">
<polygon fill="white" stroke="#666666" points="921,-810.5 795,-810.5 795,-791.5 921,-791.5 921,-810.5"/>
<text text-anchor="middle" x="858" y="-798.5" font-family="Helvetica,sans-Serif" font-size="10.00">DynExpInstr::PI_C_862</text>
</a>
</g>
</g>
<!-- Node39&#45;&gt;Node42 -->
<g id="edge23_Node000039_Node000042" class="edge">
<title>Node39&#45;&gt;Node42</title>
<g id="a_edge23_Node000039_Node000042"><a xlink:title=" ">
<path fill="none" stroke="#63b8ff" d="M671.45,-827.05C710.8,-821.53 757.9,-814.92 794.79,-809.74"/>
<polygon fill="#63b8ff" stroke="#63b8ff" points="670.77,-823.61 661.36,-828.47 671.75,-830.55 670.77,-823.61"/>
</a>
</g>
</g>
<!-- Node43 -->
<g id="Node000043" class="node">
<title>Node43</title>
<g id="a_Node000043"><a xlink:href="classDynExpInstr_1_1SmarAct.html" target="_top" xlink:title=" ">
<polygon fill="white" stroke="#666666" points="919.5,-773.5 796.5,-773.5 796.5,-754.5 919.5,-754.5 919.5,-773.5"/>
<text text-anchor="middle" x="858" y="-761.5" font-family="Helvetica,sans-Serif" font-size="10.00">DynExpInstr::SmarAct</text>
</a>
</g>
</g>
<!-- Node39&#45;&gt;Node43 -->
<g id="edge24_Node000039_Node000043" class="edge">
<title>Node39&#45;&gt;Node43</title>
<g id="a_edge24_Node000039_Node000043"><a xlink:title=" ">
<path fill="none" stroke="#63b8ff" d="M622.88,-823.94C650.26,-811.39 692.55,-793.44 731,-783 752.03,-777.29 775.53,-773.16 796.49,-770.24"/>
<polygon fill="#63b8ff" stroke="#63b8ff" points="621.09,-820.91 613.5,-828.29 624.04,-827.26 621.09,-820.91"/>
</a>
</g>
</g>
<!-- Node45 -->
<g id="Node000045" class="node">
<title>Node45</title>
<g id="a_Node000045"><a xlink:href="classDynExpInstr_1_1gRPCInstrument.html" target="_top" xlink:title=" ">
<polygon fill="#fff0f0" stroke="red" points="985,-736.5 731,-736.5 731,-695.5 985,-695.5 985,-736.5"/>
<text text-anchor="start" x="739" y="-724.5" font-family="Helvetica,sans-Serif" font-size="10.00">DynExpInstr::gRPCInstrument</text>
<text text-anchor="start" x="739" y="-713.5" font-family="Helvetica,sans-Serif" font-size="10.00">&lt; Spectrometer, 0, DynExpProto</text>
<text text-anchor="middle" x="858" y="-702.5" font-family="Helvetica,sans-Serif" font-size="10.00">::NetworkSpectrometer::NetworkSpectrometer &gt;</text>
</a>
</g>
</g>
<!-- Node44&#45;&gt;Node45 -->
<g id="edge26_Node000044_Node000045" class="edge">
<title>Node44&#45;&gt;Node45</title>
<g id="a_edge26_Node000044_Node000045"><a xlink:title=" ">
<path fill="none" stroke="#63b8ff" d="M663.3,-746.87C684.16,-743.55 707.69,-739.8 730.99,-736.08"/>
<polygon fill="#63b8ff" stroke="#63b8ff" points="662.62,-743.44 653.29,-748.47 663.72,-750.35 662.62,-743.44"/>
</a>
</g>
</g>
<!-- Node48 -->
<g id="Node000048" class="node">
<title>Node48</title>
<g id="a_Node000048"><a xlink:href="classDynExpModule_1_1gRPCModule.html" target="_top" xlink:title=" ">
<polygon fill="white" stroke="#666666" points="671.5,-629 513.5,-629 513.5,-599 671.5,-599 671.5,-629"/>
<text text-anchor="start" x="521.5" y="-617" font-family="Helvetica,sans-Serif" font-size="10.00">DynExpModule::gRPCModule</text>
<text text-anchor="middle" x="592.5" y="-606" font-family="Helvetica,sans-Serif" font-size="10.00">&lt; gRPCServices... &gt;</text>
</a>
</g>
</g>
<!-- Node47&#45;&gt;Node48 -->
<g id="edge28_Node000047_Node000048" class="edge">
<title>Node47&#45;&gt;Node48</title>
<g id="a_edge28_Node000047_Node000048"><a xlink:title=" ">
<path fill="none" stroke="#63b8ff" d="M398.77,-330.07C435.91,-384.79 546.71,-548.01 581.16,-598.77"/>
<polygon fill="#63b8ff" stroke="#63b8ff" points="401.6,-328.01 393.09,-321.71 395.81,-331.95 401.6,-328.01"/>
</a>
</g>
</g>
<!-- Node56 -->
<g id="Node000056" class="node">
<title>Node56</title>
<g id="a_Node000056"><a xlink:href="classDynExp_1_1QModuleBase.html" target="_top" xlink:title="Base class for modules with a Qt&#45;based user interface. Derive from this class to implement modules wi...">
<polygon fill="white" stroke="#666666" points="656.5,-342.5 528.5,-342.5 528.5,-323.5 656.5,-323.5 656.5,-342.5"/>
<text text-anchor="middle" x="592.5" y="-330.5" font-family="Helvetica,sans-Serif" font-size="10.00">DynExp::QModuleBase</text>
</a>
</g>
</g>
<!-- Node47&#45;&gt;Node56 -->
<g id="edge31_Node000047_Node000056" class="edge">
<title>Node47&#45;&gt;Node56</title>
<g id="a_edge31_Node000047_Node000056"><a xlink:title=" ">
<path fill="none" stroke="#63b8ff" d="M455.75,-319.09C479.21,-321.5 505.27,-324.17 528.25,-326.52"/>
<polygon fill="#63b8ff" stroke="#63b8ff" points="455.82,-315.58 445.52,-318.05 455.11,-322.55 455.82,-315.58"/>
</a>
</g>
</g>
<!-- Node71 -->
<g id="Node000071" class="node">
<title>Node71</title>
<g id="a_Node000071"><a xlink:href="classDynExpModule_1_1ArbitraryFunctionFromCSV.html" target="_top" xlink:title=" ">
<polygon fill="white" stroke="#666666" points="682.5,-305 502.5,-305 502.5,-275 682.5,-275 682.5,-305"/>
<text text-anchor="start" x="510.5" y="-293" font-family="Helvetica,sans-Serif" font-size="10.00">DynExpModule::ArbitraryFunction</text>
<text text-anchor="middle" x="592.5" y="-282" font-family="Helvetica,sans-Serif" font-size="10.00">FromCSV</text>
</a>
</g>
</g>
<!-- Node47&#45;&gt;Node71 -->
<g id="edge46_Node000047_Node000071" class="edge">
<title>Node47&#45;&gt;Node71</title>
<g id="a_edge46_Node000047_Node000071"><a xlink:title=" ">
<path fill="none" stroke="#63b8ff" d="M455.71,-304.57C470.69,-302.96 486.74,-301.24 502.37,-299.56"/>
<polygon fill="#63b8ff" stroke="#63b8ff" points="455.09,-301.12 445.52,-305.67 455.84,-308.08 455.09,-301.12"/>
</a>
</g>
</g>
<!-- Node72 -->
<g id="Node000072" class="node">
<title>Node72</title>
<g id="a_Node000072"><a xlink:href="classDynExpModule_1_1StreamManipulator.html" target="_top" xlink:title="Module to process data stored in data stream instrument(s) with a Python script and to write the resu...">
<polygon fill="white" stroke="#666666" points="687.5,-256.5 497.5,-256.5 497.5,-237.5 687.5,-237.5 687.5,-256.5"/>
<text text-anchor="middle" x="592.5" y="-244.5" font-family="Helvetica,sans-Serif" font-size="10.00">DynExpModule::StreamManipulator</text>
</a>
</g>
</g>
<!-- Node47&#45;&gt;Node72 -->
<g id="edge47_Node000047_Node000072" class="edge">
<title>Node47&#45;&gt;Node72</title>
<g id="a_edge47_Node000047_Node000072"><a xlink:title=" ">
<path fill="none" stroke="#63b8ff" d="M413.74,-297.79C434.23,-287.62 463.26,-274.32 490,-266 502.15,-262.22 515.37,-259.07 528.13,-256.5"/>
<polygon fill="#63b8ff" stroke="#63b8ff" points="412.05,-294.72 404.69,-302.35 415.2,-300.97 412.05,-294.72"/>
</a>
</g>
</g>
<!-- Node73 -->
<g id="Node000073" class="node">
<title>Node73</title>
<g id="a_Node000073"><a xlink:href="classDynExpModule_1_1gRPCModule.html" target="_top" xlink:title="Module template for building gRPC servers listening on TCP sockets for network instruments to connect...">
<polygon fill="white" stroke="#666666" points="671.5,-219 513.5,-219 513.5,-189 671.5,-189 671.5,-219"/>
<text text-anchor="start" x="521.5" y="-207" font-family="Helvetica,sans-Serif" font-size="10.00">DynExpModule::gRPCModule</text>
<text text-anchor="middle" x="592.5" y="-196" font-family="Helvetica,sans-Serif" font-size="10.00">&lt; gRPCServices &gt;</text>
</a>
</g>
</g>
<!-- Node47&#45;&gt;Node73 -->
<g id="edge48_Node000047_Node000073" class="edge">
<title>Node47&#45;&gt;Node73</title>
<g id="a_edge48_Node000047_Node000073"><a xlink:title=" ">
<path fill="none" stroke="#63b8ff" d="M402.46,-295.08C421.49,-275.92 455.14,-245.14 490,-228 497.39,-224.36 505.37,-221.26 513.48,-218.62"/>
<polygon fill="#63b8ff" stroke="#63b8ff" points="399.92,-292.67 395.46,-302.28 404.94,-297.55 399.92,-292.67"/>
</a>
</g>
</g>
<!-- Node49 -->
<g id="Node000049" class="node">
<title>Node49</title>
<g id="a_Node000049"><a xlink:href="classDynExpModule_1_1NetworkDataStreamInstrumentT.html" target="_top" xlink:title=" ">
<polygon fill="#fff0f0" stroke="red" points="962.5,-677 753.5,-677 753.5,-647 962.5,-647 962.5,-677"/>
<text text-anchor="start" x="761.5" y="-665" font-family="Helvetica,sans-Serif" font-size="10.00">DynExpModule::NetworkData</text>
<text text-anchor="middle" x="858" y="-654" font-family="Helvetica,sans-Serif" font-size="10.00">StreamInstrumentT&lt; gRPCServices... &gt;</text>
</a>
</g>
</g>
<!-- Node48&#45;&gt;Node49 -->
<g id="edge29_Node000048_Node000049" class="edge">
<title>Node48&#45;&gt;Node49</title>
<g id="a_edge29_Node000048_Node000049"><a xlink:title=" ">
<path fill="none" stroke="#63b8ff" d="M681.84,-630.09C711.72,-635.54 744.96,-641.59 774.38,-646.95"/>
<polygon fill="#63b8ff" stroke="#63b8ff" points="682.31,-626.62 671.85,-628.27 681.06,-633.51 682.31,-626.62"/>
</a>
</g>
</g>
<!-- Node55 -->
<g id="Node000055" class="node">
<title>Node55</title>
<g id="a_Node000055"><a xlink:href="classDynExpModule_1_1NetworkDataStreamInstrumentT.html" target="_top" xlink:title=" ">
<polygon fill="white" stroke="#666666" points="958,-629 758,-629 758,-599 958,-599 958,-629"/>
<text text-anchor="start" x="766" y="-617" font-family="Helvetica,sans-Serif" font-size="10.00">DynExpModule::NetworkData</text>
<text text-anchor="middle" x="858" y="-606" font-family="Helvetica,sans-Serif" font-size="10.00">StreamInstrumentT&lt; gRPCServices &gt;</text>
</a>
</g>
</g>
<!-- Node48&#45;&gt;Node55 -->
<g id="edge30_Node000048_Node000055" class="edge">
<title>Node48&#45;&gt;Node55</title>
<g id="a_edge30_Node000048_Node000055"><a xlink:title=" ">
<path fill="none" stroke="#63b8ff" d="M682.13,-614C706.47,-614 733.01,-614 757.9,-614"/>
<polygon fill="#63b8ff" stroke="#63b8ff" points="681.85,-610.5 671.85,-614 681.85,-617.5 681.85,-610.5"/>
</a>
</g>
</g>
<!-- Node57 -->
<g id="Node000057" class="node">
<title>Node57</title>
<g id="a_Node000057"><a xlink:href="classDynExpModule_1_1EventSender.html" target="_top" xlink:title=" ">
<polygon fill="white" stroke="#666666" points="937,-580.5 779,-580.5 779,-561.5 937,-561.5 937,-580.5"/>
<text text-anchor="middle" x="858" y="-568.5" font-family="Helvetica,sans-Serif" font-size="10.00">DynExpModule::EventSender</text>
</a>
</g>
</g>
<!-- Node56&#45;&gt;Node57 -->
<g id="edge32_Node000056_Node000057" class="edge">
<title>Node56&#45;&gt;Node57</title>
<g id="a_edge32_Node000056_Node000057"><a xlink:title=" ">
<path fill="none" stroke="#63b8ff" d="M599.57,-352.76C614.2,-396.76 655.87,-502.79 731,-552 745.16,-561.27 762.1,-566.7 778.91,-569.75"/>
<polygon fill="#63b8ff" stroke="#63b8ff" points="602.82,-351.43 596.43,-342.98 596.15,-353.57 602.82,-351.43"/>
</a>
</g>
</g>
<!-- Node58 -->
<g id="Node000058" class="node">
<title>Node58</title>
<g id="a_Node000058"><a xlink:href="classDynExpModule_1_1ImageViewer_1_1ImageViewer.html" target="_top" xlink:title=" ">
<polygon fill="white" stroke="#666666" points="938.5,-543 777.5,-543 777.5,-513 938.5,-513 938.5,-543"/>
<text text-anchor="start" x="785.5" y="-531" font-family="Helvetica,sans-Serif" font-size="10.00">DynExpModule::ImageViewer</text>
<text text-anchor="middle" x="858" y="-520" font-family="Helvetica,sans-Serif" font-size="10.00">::ImageViewer</text>
</a>
</g>
</g>
<!-- Node56&#45;&gt;Node58 -->
<g id="edge33_Node000056_Node000058" class="edge">
<title>Node56&#45;&gt;Node58</title>
<g id="a_edge33_Node000056_Node000058"><a xlink:title=" ">
<path fill="none" stroke="#63b8ff" d="M603,-351.96C622,-387.77 668.3,-465.14 731,-503 744.94,-511.42 761.17,-517.07 777.26,-520.84"/>
<polygon fill="#63b8ff" stroke="#63b8ff" points="605.89,-349.93 598.18,-342.65 599.67,-353.14 605.89,-349.93"/>
</a>
</g>
</g>
<!-- Node59 -->
<g id="Node000059" class="node">
<title>Node59</title>
<g id="a_Node000059"><a xlink:href="classDynExpModule_1_1InputPortReader.html" target="_top" xlink:title=" ">
<polygon fill="white" stroke="#666666" points="945.5,-494.5 770.5,-494.5 770.5,-475.5 945.5,-475.5 945.5,-494.5"/>
<text text-anchor="middle" x="858" y="-482.5" font-family="Helvetica,sans-Serif" font-size="10.00">DynExpModule::InputPortReader</text>
</a>
</g>
</g>
<!-- Node56&#45;&gt;Node59 -->
<g id="edge34_Node000056_Node000059" class="edge">
<title>Node56&#45;&gt;Node59</title>
<g id="a_edge34_Node000056_Node000059"><a xlink:title=" ">
<path fill="none" stroke="#63b8ff" d="M606.06,-350.93C627.78,-380.39 675.42,-438.52 731,-466 743.2,-472.03 756.8,-476.26 770.44,-479.21"/>
<polygon fill="#63b8ff" stroke="#63b8ff" points="608.86,-348.83 600.17,-342.77 603.18,-352.92 608.86,-348.83"/>
</a>
</g>
</g>
<!-- Node60 -->
<g id="Node000060" class="node">
<title>Node60</title>
<g id="a_Node000060"><a xlink:href="classDynExpModule_1_1LaserControl.html" target="_top" xlink:title=" ">
<polygon fill="white" stroke="#666666" points="937,-457.5 779,-457.5 779,-438.5 937,-438.5 937,-457.5"/>
<text text-anchor="middle" x="858" y="-445.5" font-family="Helvetica,sans-Serif" font-size="10.00">DynExpModule::LaserControl</text>
</a>
</g>
</g>
<!-- Node56&#45;&gt;Node60 -->
<g id="edge35_Node000056_Node000060" class="edge">
<title>Node56&#45;&gt;Node60</title>
<g id="a_edge35_Node000056_Node000060"><a xlink:title=" ">
<path fill="none" stroke="#63b8ff" d="M611.03,-349.33C635.73,-371.33 683.14,-409.91 731,-429 746,-434.98 762.69,-439.1 778.89,-441.93"/>
<polygon fill="#63b8ff" stroke="#63b8ff" points="613.32,-346.68 603.56,-342.56 608.62,-351.87 613.32,-346.68"/>
</a>
</g>
</g>
<!-- Node61 -->
<g id="Node000061" class="node">
<title>Node61</title>
<g id="a_Node000061"><a xlink:href="classDynExpModule_1_1LaserScanningSpectroscopy_1_1LaserScanningSpectroscopy.html" target="_top" xlink:title=" ">
<polygon fill="white" stroke="#666666" points="969.5,-420 746.5,-420 746.5,-390 969.5,-390 969.5,-420"/>
<text text-anchor="start" x="754.5" y="-408" font-family="Helvetica,sans-Serif" font-size="10.00">DynExpModule::LaserScanning</text>
<text text-anchor="middle" x="858" y="-397" font-family="Helvetica,sans-Serif" font-size="10.00">Spectroscopy::LaserScanningSpectroscopy</text>
</a>
</g>
</g>
<!-- Node56&#45;&gt;Node61 -->
<g id="edge36_Node000056_Node000061" class="edge">
<title>Node56&#45;&gt;Node61</title>
<g id="a_edge36_Node000056_Node000061"><a xlink:title=" ">
<path fill="none" stroke="#63b8ff" d="M627.06,-346.28C654.63,-356.81 694.89,-371.32 731,-381 743.15,-384.26 756.08,-387.25 768.84,-389.93"/>
<polygon fill="#63b8ff" stroke="#63b8ff" points="628.09,-342.93 617.5,-342.59 625.57,-349.46 628.09,-342.93"/>
</a>
</g>
</g>
<!-- Node62 -->
<g id="Node000062" class="node">
<title>Node62</title>
<g id="a_Node000062"><a xlink:href="classDynExpModule_1_1LockinAmplifierControl.html" target="_top" xlink:title=" ">
<polygon fill="white" stroke="#666666" points="944,-372 772,-372 772,-342 944,-342 944,-372"/>
<text text-anchor="start" x="780" y="-360" font-family="Helvetica,sans-Serif" font-size="10.00">DynExpModule::LockinAmplifier</text>
<text text-anchor="middle" x="858" y="-349" font-family="Helvetica,sans-Serif" font-size="10.00">Control</text>
</a>
</g>
</g>
<!-- Node56&#45;&gt;Node62 -->
<g id="edge37_Node000056_Node000062" class="edge">
<title>Node56&#45;&gt;Node62</title>
<g id="a_edge37_Node000056_Node000062"><a xlink:title=" ">
<path fill="none" stroke="#63b8ff" d="M666.98,-339.69C699.58,-342.66 738.14,-346.17 771.98,-349.26"/>
<polygon fill="#63b8ff" stroke="#63b8ff" points="666.89,-336.17 656.61,-338.75 666.26,-343.14 666.89,-336.17"/>
</a>
</g>
</g>
<!-- Node63 -->
<g id="Node000063" class="node">
<title>Node63</title>
<g id="a_Node000063"><a xlink:href="classDynExpModule_1_1ODMR_1_1ODMR.html" target="_top" xlink:title=" ">
<polygon fill="white" stroke="#666666" points="921.5,-324 794.5,-324 794.5,-294 921.5,-294 921.5,-324"/>
<text text-anchor="start" x="802.5" y="-312" font-family="Helvetica,sans-Serif" font-size="10.00">DynExpModule::ODMR</text>
<text text-anchor="middle" x="858" y="-301" font-family="Helvetica,sans-Serif" font-size="10.00">::ODMR</text>
</a>
</g>
</g>
<!-- Node56&#45;&gt;Node63 -->
<g id="edge38_Node000056_Node000063" class="edge">
<title>Node56&#45;&gt;Node63</title>
<g id="a_edge38_Node000056_Node000063"><a xlink:title=" ">
<path fill="none" stroke="#63b8ff" d="M666.61,-326.34C706.76,-322.68 756.04,-318.2 794.4,-314.7"/>
<polygon fill="#63b8ff" stroke="#63b8ff" points="666.26,-322.86 656.61,-327.25 666.89,-329.83 666.26,-322.86"/>
</a>
</g>
</g>
<!-- Node64 -->
<g id="Node000064" class="node">
<title>Node64</title>
<g id="a_Node000064"><a xlink:href="classDynExpModule_1_1OutputPortWriter.html" target="_top" xlink:title=" ">
<polygon fill="white" stroke="#666666" points="932.5,-276 783.5,-276 783.5,-246 932.5,-246 932.5,-276"/>
<text text-anchor="start" x="791.5" y="-264" font-family="Helvetica,sans-Serif" font-size="10.00">DynExpModule::OutputPort</text>
<text text-anchor="middle" x="858" y="-253" font-family="Helvetica,sans-Serif" font-size="10.00">Writer</text>
</a>
</g>
</g>
<!-- Node56&#45;&gt;Node64 -->
<g id="edge39_Node000056_Node000064" class="edge">
<title>Node56&#45;&gt;Node64</title>
<g id="a_edge39_Node000056_Node000064"><a xlink:title=" ">
<path fill="none" stroke="#63b8ff" d="M666.53,-323.85C676.34,-321.32 686.08,-318.11 695,-314 713.66,-305.41 712.35,-293.62 731,-285 747.27,-277.48 765.77,-272.31 783.48,-268.76"/>
<polygon fill="#63b8ff" stroke="#63b8ff" points="665.66,-320.46 656.72,-326.15 667.26,-327.27 665.66,-320.46"/>
</a>
</g>
</g>
<!-- Node65 -->
<g id="Node000065" class="node">
<title>Node65</title>
<g id="a_Node000065"><a xlink:href="classDynExpModule_1_1SignalDesigner.html" target="_top" xlink:title=" ">
<polygon fill="white" stroke="#666666" points="943,-227.5 773,-227.5 773,-208.5 943,-208.5 943,-227.5"/>
<text text-anchor="middle" x="858" y="-215.5" font-family="Helvetica,sans-Serif" font-size="10.00">DynExpModule::SignalDesigner</text>
</a>
</g>
</g>
<!-- Node56&#45;&gt;Node65 -->
<g id="edge40_Node000056_Node000065" class="edge">
<title>Node56&#45;&gt;Node65</title>
<g id="a_edge40_Node000056_Node000065"><a xlink:title=" ">
<path fill="none" stroke="#63b8ff" d="M666.6,-328.03C676.83,-324.94 686.68,-320.45 695,-314 724.86,-290.86 700.73,-259.61 731,-237 743.14,-227.93 757.81,-222.36 772.77,-219.05"/>
<polygon fill="#63b8ff" stroke="#63b8ff" points="665.52,-324.69 656.71,-330.58 667.26,-331.47 665.52,-324.69"/>
</a>
</g>
</g>
<!-- Node66 -->
<g id="Node000066" class="node">
<title>Node66</title>
<g id="a_Node000066"><a xlink:href="classDynExpModule_1_1SignalPlotter.html" target="_top" xlink:title=" ">
<polygon fill="white" stroke="#666666" points="937,-190.5 779,-190.5 779,-171.5 937,-171.5 937,-190.5"/>
<text text-anchor="middle" x="858" y="-178.5" font-family="Helvetica,sans-Serif" font-size="10.00">DynExpModule::SignalPlotter</text>
</a>
</g>
</g>
<!-- Node56&#45;&gt;Node66 -->
<g id="edge41_Node000056_Node000066" class="edge">
<title>Node56&#45;&gt;Node66</title>
<g id="a_edge41_Node000056_Node000066"><a xlink:title=" ">
<path fill="none" stroke="#63b8ff" d="M666.29,-329.34C676.82,-326.12 686.84,-321.25 695,-314 735.04,-278.44 690.2,-233.69 731,-199 744.38,-187.62 761.61,-181.57 778.99,-178.64"/>
<polygon fill="#63b8ff" stroke="#63b8ff" points="665.33,-325.98 656.52,-331.86 667.07,-332.75 665.33,-325.98"/>
</a>
</g>
</g>
<!-- Node67 -->
<g id="Node000067" class="node">
<title>Node67</title>
<g id="a_Node000067"><a xlink:href="classDynExpModule_1_1SpectrumViewer_1_1SpectrumViewer.html" target="_top" xlink:title=" ">
<polygon fill="white" stroke="#666666" points="946,-153 770,-153 770,-123 946,-123 946,-153"/>
<text text-anchor="start" x="778" y="-141" font-family="Helvetica,sans-Serif" font-size="10.00">DynExpModule::SpectrumViewer</text>
<text text-anchor="middle" x="858" y="-130" font-family="Helvetica,sans-Serif" font-size="10.00">::SpectrumViewer</text>
</a>
</g>
</g>
<!-- Node56&#45;&gt;Node67 -->
<g id="edge42_Node000056_Node000067" class="edge">
<title>Node56&#45;&gt;Node67</title>
<g id="a_edge42_Node000056_Node000067"><a xlink:title=" ">
<path fill="none" stroke="#63b8ff" d="M666.55,-329.9C677.1,-326.62 687.05,-321.58 695,-314 745.24,-266.09 680.83,-209.99 731,-162 741.7,-151.76 755.34,-145.23 769.68,-141.16"/>
<polygon fill="#63b8ff" stroke="#63b8ff" points="665.54,-326.54 656.74,-332.44 667.3,-333.32 665.54,-326.54"/>
</a>
</g>
</g>
<!-- Node68 -->
<g id="Node000068" class="node">
<title>Node68</title>
<g id="a_Node000068"><a xlink:href="classDynExpModule_1_1Stage1D.html" target="_top" xlink:title=" ">
<polygon fill="white" stroke="#666666" points="926.5,-104.5 789.5,-104.5 789.5,-85.5 926.5,-85.5 926.5,-104.5"/>
<text text-anchor="middle" x="858" y="-92.5" font-family="Helvetica,sans-Serif" font-size="10.00">DynExpModule::Stage1D</text>
</a>
</g>
</g>
<!-- Node56&#45;&gt;Node68 -->
<g id="edge43_Node000056_Node000068" class="edge">
<title>Node56&#45;&gt;Node68</title>
<g id="a_edge43_Node000056_Node000068"><a xlink:title=" ">
<path fill="none" stroke="#63b8ff" d="M666.52,-330.39C677.17,-327.07 687.17,-321.89 695,-314 758.64,-249.91 666.23,-176.95 731,-114 746.39,-99.04 768.2,-92.69 789.37,-90.58"/>
<polygon fill="#63b8ff" stroke="#63b8ff" points="665.41,-327.07 656.6,-332.95 667.16,-333.84 665.41,-327.07"/>
</a>
</g>
</g>
<!-- Node69 -->
<g id="Node000069" class="node">
<title>Node69</title>
<g id="a_Node000069"><a xlink:href="classDynExpModule_1_1Trajectory1D.html" target="_top" xlink:title=" ">
<polygon fill="white" stroke="#666666" points="937,-67.5 779,-67.5 779,-48.5 937,-48.5 937,-67.5"/>
<text text-anchor="middle" x="858" y="-55.5" font-family="Helvetica,sans-Serif" font-size="10.00">DynExpModule::Trajectory1D</text>
</a>
</g>
</g>
<!-- Node56&#45;&gt;Node69 -->
<g id="edge44_Node000056_Node000069" class="edge">
<title>Node56&#45;&gt;Node69</title>
<g id="a_edge44_Node000056_Node000069"><a xlink:title=" ">
<path fill="none" stroke="#63b8ff" d="M666.52,-330.64C677.22,-327.3 687.23,-322.05 695,-314 769.31,-237.04 655.04,-151.34 731,-76 743.71,-63.4 760.99,-56.97 778.68,-54.06"/>
<polygon fill="#63b8ff" stroke="#63b8ff" points="665.36,-327.33 656.54,-333.2 667.1,-334.11 665.36,-327.33"/>
</a>
</g>
</g>
<!-- Node70 -->
<g id="Node000070" class="node">
<title>Node70</title>
<g id="a_Node000070"><a xlink:href="classDynExpModule_1_1Widefield_1_1WidefieldMicroscope.html" target="_top" xlink:title=" ">
<polygon fill="white" stroke="#666666" points="929,-30 787,-30 787,0 929,0 929,-30"/>
<text text-anchor="start" x="795" y="-18" font-family="Helvetica,sans-Serif" font-size="10.00">DynExpModule::Widefield</text>
<text text-anchor="middle" x="858" y="-7" font-family="Helvetica,sans-Serif" font-size="10.00">::WidefieldMicroscope</text>
</a>
</g>
</g>
<!-- Node56&#45;&gt;Node70 -->
<g id="edge45_Node000056_Node000070" class="edge">
<title>Node56&#45;&gt;Node70</title>
<g id="a_edge45_Node000056_Node000070"><a xlink:title=" ">
<path fill="none" stroke="#63b8ff" d="M666.65,-330.78C677.34,-327.42 687.31,-322.12 695,-314 779.74,-224.48 646.4,-128.65 731,-39 745.37,-23.78 766.17,-16.5 786.75,-13.38"/>
<polygon fill="#63b8ff" stroke="#63b8ff" points="665.5,-327.46 656.69,-333.34 667.24,-334.24 665.5,-327.46"/>
</a>
</g>
</g>
</g>
</svg>
