<?xml version="1.0" encoding="UTF-8" standalone="no"?>
<!DOCTYPE svg PUBLIC "-//W3C//DTD SVG 1.1//EN"
 "http://www.w3.org/Graphics/SVG/1.1/DTD/svg11.dtd">
<!-- Generated by graphviz version 2.43.0 (0)
 -->
<!-- Title: DynExp::InitTaskBase Pages: 1 -->
<svg width="1308pt" height="542pt"
 viewBox="0.00 0.00 1308.00 542.00" xmlns="http://www.w3.org/2000/svg" xmlns:xlink="http://www.w3.org/1999/xlink">
<g id="graph0" class="graph" transform="scale(1 1) rotate(0) translate(4 538)">
<title>DynExp::InitTaskBase</title>
<!-- Node1 -->
<g id="Node000001" class="node">
<title>Node1</title>
<g id="a_Node000001"><a xlink:title="Defines a task for initializing an instrument within an instrument inheritance hierarchy....">
<polygon fill="#999999" stroke="#666666" points="264,-168.5 142,-168.5 142,-149.5 264,-149.5 264,-168.5"/>
<text text-anchor="middle" x="203" y="-156.5" font-family="Helvetica,sans-Serif" font-size="10.00">DynExp::InitTaskBase</text>
</a>
</g>
</g>
<!-- Node3 -->
<g id="Node000003" class="node">
<title>Node3</title>
<g id="a_Node000003"><a xlink:href="classDynExpInstr_1_1CameraTasks_1_1InitTask.html" target="_top" xlink:title="Defines a task for initializing an instrument within an instrument inheritance hierarchy....">
<polygon fill="white" stroke="#666666" points="470.5,-438 323.5,-438 323.5,-408 470.5,-408 470.5,-438"/>
<text text-anchor="start" x="331.5" y="-426" font-family="Helvetica,sans-Serif" font-size="10.00">DynExpInstr::CameraTasks</text>
<text text-anchor="middle" x="397" y="-415" font-family="Helvetica,sans-Serif" font-size="10.00">::InitTask</text>
</a>
</g>
</g>
<!-- Node1&#45;&gt;Node3 -->
<g id="edge2_Node000001_Node000003" class="edge">
<title>Node1&#45;&gt;Node3</title>
<g id="a_edge2_Node000001_Node000003"><a xlink:title=" ">
<path fill="none" stroke="#63b8ff" d="M216.95,-176.81C252.63,-225.86 351.86,-362.31 385.04,-407.93"/>
<polygon fill="#63b8ff" stroke="#63b8ff" points="219.77,-174.74 211.06,-168.71 214.11,-178.85 219.77,-174.74"/>
</a>
</g>
</g>
<!-- Node6 -->
<g id="Node000006" class="node">
<title>Node6</title>
<g id="a_Node000006"><a xlink:href="classDynExpInstr_1_1DataStreamInstrumentTasks_1_1InitTask.html" target="_top" xlink:title="Defines a task for initializing an instrument within an instrument inheritance hierarchy....">
<polygon fill="white" stroke="#666666" points="494,-222 300,-222 300,-192 494,-192 494,-222"/>
<text text-anchor="start" x="308" y="-210" font-family="Helvetica,sans-Serif" font-size="10.00">DynExpInstr::DataStreamInstrument</text>
<text text-anchor="middle" x="397" y="-199" font-family="Helvetica,sans-Serif" font-size="10.00">Tasks::InitTask</text>
</a>
</g>
</g>
<!-- Node1&#45;&gt;Node6 -->
<g id="edge5_Node000001_Node000006" class="edge">
<title>Node1&#45;&gt;Node6</title>
<g id="a_edge5_Node000001_Node000006"><a xlink:title=" ">
<path fill="none" stroke="#63b8ff" d="M252.14,-171.04C277.49,-177.37 308.81,-185.2 335.75,-191.94"/>
<polygon fill="#63b8ff" stroke="#63b8ff" points="252.94,-167.63 242.39,-168.6 251.25,-174.42 252.94,-167.63"/>
</a>
</g>
</g>
<!-- Node26 -->
<g id="Node000026" class="node">
<title>Node26</title>
<g id="a_Node000026"><a xlink:href="classDynExpInstr_1_1InterModuleCommunicatorTasks_1_1InitTask.html" target="_top" xlink:title="Defines a task for initializing an instrument within an instrument inheritance hierarchy....">
<polygon fill="white" stroke="#666666" points="476.5,-174 317.5,-174 317.5,-144 476.5,-144 476.5,-174"/>
<text text-anchor="start" x="325.5" y="-162" font-family="Helvetica,sans-Serif" font-size="10.00">DynExpInstr::InterModule</text>
<text text-anchor="middle" x="397" y="-151" font-family="Helvetica,sans-Serif" font-size="10.00">CommunicatorTasks::InitTask</text>
</a>
</g>
</g>
<!-- Node1&#45;&gt;Node26 -->
<g id="edge25_Node000001_Node000026" class="edge">
<title>Node1&#45;&gt;Node26</title>
<g id="a_edge25_Node000001_Node000026"><a xlink:title=" ">
<path fill="none" stroke="#63b8ff" d="M274.26,-159C288.26,-159 303.05,-159 317.31,-159"/>
<polygon fill="#63b8ff" stroke="#63b8ff" points="274.22,-155.5 264.22,-159 274.22,-162.5 274.22,-155.5"/>
</a>
</g>
</g>
<!-- Node27 -->
<g id="Node000027" class="node">
<title>Node27</title>
<g id="a_Node000027"><a xlink:href="classDynExpInstr_1_1PositionerStageTasks_1_1InitTask.html" target="_top" xlink:title="Defines a task for initializing an instrument within an instrument inheritance hierarchy....">
<polygon fill="white" stroke="#666666" points="476,-126 318,-126 318,-96 476,-96 476,-126"/>
<text text-anchor="start" x="326" y="-114" font-family="Helvetica,sans-Serif" font-size="10.00">DynExpInstr::PositionerStage</text>
<text text-anchor="middle" x="397" y="-103" font-family="Helvetica,sans-Serif" font-size="10.00">Tasks::InitTask</text>
</a>
</g>
</g>
<!-- Node1&#45;&gt;Node27 -->
<g id="edge26_Node000001_Node000027" class="edge">
<title>Node1&#45;&gt;Node27</title>
<g id="a_edge26_Node000001_Node000027"><a xlink:title=" ">
<path fill="none" stroke="#63b8ff" d="M252.14,-146.96C277.49,-140.63 308.81,-132.8 335.75,-126.06"/>
<polygon fill="#63b8ff" stroke="#63b8ff" points="251.25,-143.58 242.39,-149.4 252.94,-150.37 251.25,-143.58"/>
</a>
</g>
</g>
<!-- Node31 -->
<g id="Node000031" class="node">
<title>Node31</title>
<g id="a_Node000031"><a xlink:href="classDynExpInstr_1_1SpectrometerTasks_1_1InitTask.html" target="_top" xlink:title="Defines a task for initializing an instrument within an instrument inheritance hierarchy....">
<polygon fill="white" stroke="#666666" points="471,-78 323,-78 323,-48 471,-48 471,-78"/>
<text text-anchor="start" x="331" y="-66" font-family="Helvetica,sans-Serif" font-size="10.00">DynExpInstr::Spectrometer</text>
<text text-anchor="middle" x="397" y="-55" font-family="Helvetica,sans-Serif" font-size="10.00">Tasks::InitTask</text>
</a>
</g>
</g>
<!-- Node1&#45;&gt;Node31 -->
<g id="edge30_Node000001_Node000031" class="edge">
<title>Node1&#45;&gt;Node31</title>
<g id="a_edge30_Node000001_Node000031"><a xlink:title=" ">
<path fill="none" stroke="#63b8ff" d="M221.53,-142.39C239.77,-126 269.82,-101.36 300,-87 307.21,-83.57 314.97,-80.59 322.84,-78.01"/>
<polygon fill="#63b8ff" stroke="#63b8ff" points="219.03,-139.94 214.03,-149.28 223.76,-145.1 219.03,-139.94"/>
</a>
</g>
</g>
<!-- Node2 -->
<g id="Node000002" class="node">
<title>Node2</title>
<g id="a_Node000002"><a xlink:href="classDynExp_1_1TaskBase.html" target="_top" xlink:title="Base class for all tasks being processed by instruments. The class must not contain public virtual fu...">
<polygon fill="white" stroke="#666666" points="106,-168.5 0,-168.5 0,-149.5 106,-149.5 106,-168.5"/>
<text text-anchor="middle" x="53" y="-156.5" font-family="Helvetica,sans-Serif" font-size="10.00">DynExp::TaskBase</text>
</a>
</g>
</g>
<!-- Node2&#45;&gt;Node1 -->
<g id="edge1_Node000001_Node000002" class="edge">
<title>Node2&#45;&gt;Node1</title>
<g id="a_edge1_Node000001_Node000002"><a xlink:title=" ">
<path fill="none" stroke="#63b8ff" d="M116.38,-159C124.85,-159 133.52,-159 141.95,-159"/>
<polygon fill="#63b8ff" stroke="#63b8ff" points="116.18,-155.5 106.18,-159 116.18,-162.5 116.18,-155.5"/>
</a>
</g>
</g>
<!-- Node4 -->
<g id="Node000004" class="node">
<title>Node4</title>
<g id="a_Node000004"><a xlink:href="classDynExpInstr_1_1DummyCameraTasks_1_1InitTask.html" target="_top" xlink:title=" ">
<polygon fill="white" stroke="#666666" points="695.5,-486 536.5,-486 536.5,-456 695.5,-456 695.5,-486"/>
<text text-anchor="start" x="544.5" y="-474" font-family="Helvetica,sans-Serif" font-size="10.00">DynExpInstr::DummyCamera</text>
<text text-anchor="middle" x="616" y="-463" font-family="Helvetica,sans-Serif" font-size="10.00">Tasks::InitTask</text>
</a>
</g>
</g>
<!-- Node3&#45;&gt;Node4 -->
<g id="edge3_Node000003_Node000004" class="edge">
<title>Node3&#45;&gt;Node4</title>
<g id="a_edge3_Node000003_Node000004"><a xlink:title=" ">
<path fill="none" stroke="#63b8ff" d="M475.91,-440.23C499.22,-445.39 524.57,-451 547.18,-456"/>
<polygon fill="#63b8ff" stroke="#63b8ff" points="476.58,-436.8 466.06,-438.06 475.07,-443.63 476.58,-436.8"/>
</a>
</g>
</g>
<!-- Node5 -->
<g id="Node000005" class="node">
<title>Node5</title>
<g id="a_Node000005"><a xlink:href="classDynExpInstr_1_1PVCamTasks_1_1InitTask.html" target="_top" xlink:title=" ">
<polygon fill="white" stroke="#666666" points="688,-438 544,-438 544,-408 688,-408 688,-438"/>
<text text-anchor="start" x="552" y="-426" font-family="Helvetica,sans-Serif" font-size="10.00">DynExpInstr::PVCamTasks</text>
<text text-anchor="middle" x="616" y="-415" font-family="Helvetica,sans-Serif" font-size="10.00">::InitTask</text>
</a>
</g>
</g>
<!-- Node3&#45;&gt;Node5 -->
<g id="edge4_Node000003_Node000005" class="edge">
<title>Node3&#45;&gt;Node5</title>
<g id="a_edge4_Node000003_Node000005"><a xlink:title=" ">
<path fill="none" stroke="#63b8ff" d="M480.68,-423C501.54,-423 523.75,-423 543.98,-423"/>
<polygon fill="#63b8ff" stroke="#63b8ff" points="480.56,-419.5 470.56,-423 480.56,-426.5 480.56,-419.5"/>
</a>
</g>
</g>
<!-- Node7 -->
<g id="Node000007" class="node">
<title>Node7</title>
<g id="a_Node000007"><a xlink:href="classDynExpInstr_1_1FunctionGeneratorTasks_1_1InitTask.html" target="_top" xlink:title="Defines a task for initializing an instrument within an instrument inheritance hierarchy....">
<polygon fill="white" stroke="#666666" points="702,-390 530,-390 530,-360 702,-360 702,-390"/>
<text text-anchor="start" x="538" y="-378" font-family="Helvetica,sans-Serif" font-size="10.00">DynExpInstr::FunctionGenerator</text>
<text text-anchor="middle" x="616" y="-367" font-family="Helvetica,sans-Serif" font-size="10.00">Tasks::InitTask</text>
</a>
</g>
</g>
<!-- Node6&#45;&gt;Node7 -->
<g id="edge6_Node000006_Node000007" class="edge">
<title>Node6&#45;&gt;Node7</title>
<g id="a_edge6_Node000006_Node000007"><a xlink:title=" ">
<path fill="none" stroke="#63b8ff" d="M425.72,-228.46C470.32,-262.99 556.91,-330.03 595.56,-359.95"/>
<polygon fill="#63b8ff" stroke="#63b8ff" points="427.69,-225.56 417.64,-222.21 423.4,-231.09 427.69,-225.56"/>
</a>
</g>
</g>
<!-- Node17 -->
<g id="Node000017" class="node">
<title>Node17</title>
<g id="a_Node000017"><a xlink:href="classDynExpInstr_1_1InputPortTasks_1_1InitTask.html" target="_top" xlink:title="Defines a task for initializing an instrument within an instrument inheritance hierarchy....">
<polygon fill="white" stroke="#666666" points="692.5,-270 539.5,-270 539.5,-240 692.5,-240 692.5,-270"/>
<text text-anchor="start" x="547.5" y="-258" font-family="Helvetica,sans-Serif" font-size="10.00">DynExpInstr::InputPortTasks</text>
<text text-anchor="middle" x="616" y="-247" font-family="Helvetica,sans-Serif" font-size="10.00">::InitTask</text>
</a>
</g>
</g>
<!-- Node6&#45;&gt;Node17 -->
<g id="edge16_Node000006_Node000017" class="edge">
<title>Node6&#45;&gt;Node17</title>
<g id="a_edge16_Node000006_Node000017"><a xlink:title=" ">
<path fill="none" stroke="#63b8ff" d="M475.91,-224.23C499.22,-229.39 524.57,-235 547.18,-240"/>
<polygon fill="#63b8ff" stroke="#63b8ff" points="476.58,-220.8 466.06,-222.06 475.07,-227.63 476.58,-220.8"/>
</a>
</g>
</g>
<!-- Node22 -->
<g id="Node000022" class="node">
<title>Node22</title>
<g id="a_Node000022"><a xlink:href="classDynExpInstr_1_1LockinAmplifierTasks_1_1InitTask.html" target="_top" xlink:title="Defines a task for initializing an instrument within an instrument inheritance hierarchy....">
<polygon fill="white" stroke="#666666" points="695,-222 537,-222 537,-192 695,-192 695,-222"/>
<text text-anchor="start" x="545" y="-210" font-family="Helvetica,sans-Serif" font-size="10.00">DynExpInstr::LockinAmplifier</text>
<text text-anchor="middle" x="616" y="-199" font-family="Helvetica,sans-Serif" font-size="10.00">Tasks::InitTask</text>
</a>
</g>
</g>
<!-- Node6&#45;&gt;Node22 -->
<g id="edge21_Node000006_Node000022" class="edge">
<title>Node6&#45;&gt;Node22</title>
<g id="a_edge21_Node000006_Node000022"><a xlink:title=" ">
<path fill="none" stroke="#63b8ff" d="M504.21,-207C515.2,-207 526.23,-207 536.84,-207"/>
<polygon fill="#63b8ff" stroke="#63b8ff" points="504.13,-203.5 494.13,-207 504.13,-210.5 504.13,-203.5"/>
</a>
</g>
</g>
<!-- Node24 -->
<g id="Node000024" class="node">
<title>Node24</title>
<g id="a_Node000024"><a xlink:href="classDynExpInstr_1_1TimeTaggerTasks_1_1InitTask.html" target="_top" xlink:title="Defines a task for initializing an instrument within an instrument inheritance hierarchy....">
<polygon fill="white" stroke="#666666" points="699,-174 533,-174 533,-144 699,-144 699,-174"/>
<text text-anchor="start" x="541" y="-162" font-family="Helvetica,sans-Serif" font-size="10.00">DynExpInstr::TimeTaggerTasks</text>
<text text-anchor="middle" x="616" y="-151" font-family="Helvetica,sans-Serif" font-size="10.00">::InitTask</text>
</a>
</g>
</g>
<!-- Node6&#45;&gt;Node24 -->
<g id="edge23_Node000006_Node000024" class="edge">
<title>Node6&#45;&gt;Node24</title>
<g id="a_edge23_Node000006_Node000024"><a xlink:title=" ">
<path fill="none" stroke="#63b8ff" d="M475.91,-189.77C499.22,-184.61 524.57,-179 547.18,-174"/>
<polygon fill="#63b8ff" stroke="#63b8ff" points="475.07,-186.37 466.06,-191.94 476.58,-193.2 475.07,-186.37"/>
</a>
</g>
</g>
<!-- Node8 -->
<g id="Node000008" class="node">
<title>Node8</title>
<g id="a_Node000008"><a xlink:href="classDynExpInstr_1_1DummyDataStreamInstrumentTasks_1_1InitTask.html" target="_top" xlink:title=" ">
<polygon fill="white" stroke="#666666" points="918.5,-534 739.5,-534 739.5,-504 918.5,-504 918.5,-534"/>
<text text-anchor="start" x="747.5" y="-522" font-family="Helvetica,sans-Serif" font-size="10.00">DynExpInstr::DummyDataStream</text>
<text text-anchor="middle" x="829" y="-511" font-family="Helvetica,sans-Serif" font-size="10.00">InstrumentTasks::InitTask</text>
</a>
</g>
</g>
<!-- Node7&#45;&gt;Node8 -->
<g id="edge7_Node000007_Node000008" class="edge">
<title>Node7&#45;&gt;Node8</title>
<g id="a_edge7_Node000007_Node000008"><a xlink:title=" ">
<path fill="none" stroke="#63b8ff" d="M698.01,-395.64C699.39,-396.7 700.72,-397.82 702,-399 735.54,-429.85 704.24,-464.4 738,-495 741.71,-498.37 745.85,-501.27 750.25,-503.77"/>
<polygon fill="#63b8ff" stroke="#63b8ff" points="699.92,-392.71 689.65,-390.11 696.06,-398.54 699.92,-392.71"/>
</a>
</g>
</g>
<!-- Node9 -->
<g id="Node000009" class="node">
<title>Node9</title>
<g id="a_Node000009"><a xlink:href="classDynExpInstr_1_1OutputPortTasks_1_1InitTask.html" target="_top" xlink:title="Defines a task for initializing an instrument within an instrument inheritance hierarchy....">
<polygon fill="white" stroke="#666666" points="909.5,-486 748.5,-486 748.5,-456 909.5,-456 909.5,-486"/>
<text text-anchor="start" x="756.5" y="-474" font-family="Helvetica,sans-Serif" font-size="10.00">DynExpInstr::OutputPortTasks</text>
<text text-anchor="middle" x="829" y="-463" font-family="Helvetica,sans-Serif" font-size="10.00">::InitTask</text>
</a>
</g>
</g>
<!-- Node7&#45;&gt;Node9 -->
<g id="edge8_Node000007_Node000009" class="edge">
<title>Node7&#45;&gt;Node9</title>
<g id="a_edge8_Node000007_Node000009"><a xlink:title=" ">
<path fill="none" stroke="#63b8ff" d="M694.59,-394.44C697.15,-395.86 699.63,-397.37 702,-399 723.99,-414.08 715.9,-432.08 738,-447 743.09,-450.44 748.66,-453.39 754.44,-455.91"/>
<polygon fill="#63b8ff" stroke="#63b8ff" points="696.14,-391.3 685.62,-390.02 693.04,-397.58 696.14,-391.3"/>
</a>
</g>
</g>
<!-- Node14 -->
<g id="Node000014" class="node">
<title>Node14</title>
<g id="a_Node000014"><a xlink:href="classDynExpInstr_1_1RS__SMB100BTasks_1_1InitTask.html" target="_top" xlink:title=" ">
<polygon fill="white" stroke="#666666" points="915.5,-438 742.5,-438 742.5,-408 915.5,-408 915.5,-438"/>
<text text-anchor="start" x="750.5" y="-426" font-family="Helvetica,sans-Serif" font-size="10.00">DynExpInstr::RS_SMB100BTasks</text>
<text text-anchor="middle" x="829" y="-415" font-family="Helvetica,sans-Serif" font-size="10.00">::InitTask</text>
</a>
</g>
</g>
<!-- Node7&#45;&gt;Node14 -->
<g id="edge13_Node000007_Node000014" class="edge">
<title>Node7&#45;&gt;Node14</title>
<g id="a_edge13_Node000007_Node000014"><a xlink:title=" ">
<path fill="none" stroke="#63b8ff" d="M693.06,-392.3C715.64,-397.44 740.17,-403.02 762.05,-408"/>
<polygon fill="#63b8ff" stroke="#63b8ff" points="693.71,-388.86 683.18,-390.06 692.16,-395.69 693.71,-388.86"/>
</a>
</g>
</g>
<!-- Node15 -->
<g id="Node000015" class="node">
<title>Node15</title>
<g id="a_Node000015"><a xlink:href="classDynExpInstr_1_1RS__SMC100ATasks_1_1InitTask.html" target="_top" xlink:title=" ">
<polygon fill="white" stroke="#666666" points="915.5,-390 742.5,-390 742.5,-360 915.5,-360 915.5,-390"/>
<text text-anchor="start" x="750.5" y="-378" font-family="Helvetica,sans-Serif" font-size="10.00">DynExpInstr::RS_SMC100ATasks</text>
<text text-anchor="middle" x="829" y="-367" font-family="Helvetica,sans-Serif" font-size="10.00">::InitTask</text>
</a>
</g>
</g>
<!-- Node7&#45;&gt;Node15 -->
<g id="edge14_Node000007_Node000015" class="edge">
<title>Node7&#45;&gt;Node15</title>
<g id="a_edge14_Node000007_Node000015"><a xlink:title=" ">
<path fill="none" stroke="#63b8ff" d="M712.23,-375C722.31,-375 732.51,-375 742.47,-375"/>
<polygon fill="#63b8ff" stroke="#63b8ff" points="712.21,-371.5 702.21,-375 712.21,-378.5 712.21,-371.5"/>
</a>
</g>
</g>
<!-- Node16 -->
<g id="Node000016" class="node">
<title>Node16</title>
<g id="a_Node000016"><a xlink:href="classDynExpInstr_1_1SwabianInstrumentsPulseStreamerTasks_1_1InitTask.html" target="_top" xlink:title=" ">
<polygon fill="white" stroke="#666666" points="920,-342 738,-342 738,-312 920,-312 920,-342"/>
<text text-anchor="start" x="746" y="-330" font-family="Helvetica,sans-Serif" font-size="10.00">DynExpInstr::SwabianInstruments</text>
<text text-anchor="middle" x="829" y="-319" font-family="Helvetica,sans-Serif" font-size="10.00">PulseStreamerTasks::InitTask</text>
</a>
</g>
</g>
<!-- Node7&#45;&gt;Node16 -->
<g id="edge15_Node000007_Node000016" class="edge">
<title>Node7&#45;&gt;Node16</title>
<g id="a_edge15_Node000007_Node000016"><a xlink:title=" ">
<path fill="none" stroke="#63b8ff" d="M693.06,-357.7C715.64,-352.56 740.17,-346.98 762.05,-342"/>
<polygon fill="#63b8ff" stroke="#63b8ff" points="692.16,-354.31 683.18,-359.94 693.71,-361.14 692.16,-354.31"/>
</a>
</g>
</g>
<!-- Node10 -->
<g id="Node000010" class="node">
<title>Node10</title>
<g id="a_Node000010"><a xlink:href="classDynExpInstr_1_1AnalogOutTasks_1_1InitTask.html" target="_top" xlink:title="Defines a task for initializing an instrument within an instrument inheritance hierarchy....">
<polygon fill="white" stroke="#666666" points="1116,-510 956,-510 956,-480 1116,-480 1116,-510"/>
<text text-anchor="start" x="964" y="-498" font-family="Helvetica,sans-Serif" font-size="10.00">DynExpInstr::AnalogOutTasks</text>
<text text-anchor="middle" x="1036" y="-487" font-family="Helvetica,sans-Serif" font-size="10.00">::InitTask</text>
</a>
</g>
</g>
<!-- Node9&#45;&gt;Node10 -->
<g id="edge9_Node000009_Node000010" class="edge">
<title>Node9&#45;&gt;Node10</title>
<g id="a_edge9_Node000009_Node000010"><a xlink:title=" ">
<path fill="none" stroke="#63b8ff" d="M919.61,-481.49C931.67,-482.9 943.97,-484.34 955.83,-485.73"/>
<polygon fill="#63b8ff" stroke="#63b8ff" points="919.89,-478 909.55,-480.31 919.08,-484.95 919.89,-478"/>
</a>
</g>
</g>
<!-- Node12 -->
<g id="Node000012" class="node">
<title>Node12</title>
<g id="a_Node000012"><a xlink:href="classDynExpInstr_1_1DigitalOutTasks_1_1InitTask.html" target="_top" xlink:title="Defines a task for initializing an instrument within an instrument inheritance hierarchy....">
<polygon fill="white" stroke="#666666" points="1115,-462 957,-462 957,-432 1115,-432 1115,-462"/>
<text text-anchor="start" x="965" y="-450" font-family="Helvetica,sans-Serif" font-size="10.00">DynExpInstr::DigitalOutTasks</text>
<text text-anchor="middle" x="1036" y="-439" font-family="Helvetica,sans-Serif" font-size="10.00">::InitTask</text>
</a>
</g>
</g>
<!-- Node9&#45;&gt;Node12 -->
<g id="edge11_Node000009_Node000012" class="edge">
<title>Node9&#45;&gt;Node12</title>
<g id="a_edge11_Node000009_Node000012"><a xlink:title=" ">
<path fill="none" stroke="#63b8ff" d="M919.83,-460.48C932.16,-459.04 944.74,-457.57 956.84,-456.15"/>
<polygon fill="#63b8ff" stroke="#63b8ff" points="919.08,-457.05 909.55,-461.69 919.89,-464 919.08,-457.05"/>
</a>
</g>
</g>
<!-- Node11 -->
<g id="Node000011" class="node">
<title>Node11</title>
<g id="a_Node000011"><a xlink:href="classDynExpInstr_1_1NIDAQAnalogOutTasks_1_1InitTask.html" target="_top" xlink:title=" ">
<polygon fill="white" stroke="#666666" points="1300,-510 1152,-510 1152,-480 1300,-480 1300,-510"/>
<text text-anchor="start" x="1160" y="-498" font-family="Helvetica,sans-Serif" font-size="10.00">DynExpInstr::NIDAQAnalog</text>
<text text-anchor="middle" x="1226" y="-487" font-family="Helvetica,sans-Serif" font-size="10.00">OutTasks::InitTask</text>
</a>
</g>
</g>
<!-- Node10&#45;&gt;Node11 -->
<g id="edge10_Node000010_Node000011" class="edge">
<title>Node10&#45;&gt;Node11</title>
<g id="a_edge10_Node000010_Node000011"><a xlink:title=" ">
<path fill="none" stroke="#63b8ff" d="M1126.23,-495C1134.83,-495 1143.48,-495 1151.9,-495"/>
<polygon fill="#63b8ff" stroke="#63b8ff" points="1126.18,-491.5 1116.18,-495 1126.18,-498.5 1126.18,-491.5"/>
</a>
</g>
</g>
<!-- Node13 -->
<g id="Node000013" class="node">
<title>Node13</title>
<g id="a_Node000013"><a xlink:href="classDynExpInstr_1_1NIDAQDigitalOutTasks_1_1InitTask.html" target="_top" xlink:title=" ">
<polygon fill="white" stroke="#666666" points="1299,-462 1153,-462 1153,-432 1299,-432 1299,-462"/>
<text text-anchor="start" x="1161" y="-450" font-family="Helvetica,sans-Serif" font-size="10.00">DynExpInstr::NIDAQDigital</text>
<text text-anchor="middle" x="1226" y="-439" font-family="Helvetica,sans-Serif" font-size="10.00">OutTasks::InitTask</text>
</a>
</g>
</g>
<!-- Node12&#45;&gt;Node13 -->
<g id="edge12_Node000012_Node000013" class="edge">
<title>Node12&#45;&gt;Node13</title>
<g id="a_edge12_Node000012_Node000013"><a xlink:title=" ">
<path fill="none" stroke="#63b8ff" d="M1125.13,-447C1134.42,-447 1143.79,-447 1152.86,-447"/>
<polygon fill="#63b8ff" stroke="#63b8ff" points="1125.1,-443.5 1115.1,-447 1125.1,-450.5 1125.1,-443.5"/>
</a>
</g>
</g>
<!-- Node18 -->
<g id="Node000018" class="node">
<title>Node18</title>
<g id="a_Node000018"><a xlink:href="classDynExpInstr_1_1AnalogInTasks_1_1InitTask.html" target="_top" xlink:title="Defines a task for initializing an instrument within an instrument inheritance hierarchy....">
<polygon fill="white" stroke="#666666" points="905,-294 753,-294 753,-264 905,-264 905,-294"/>
<text text-anchor="start" x="761" y="-282" font-family="Helvetica,sans-Serif" font-size="10.00">DynExpInstr::AnalogInTasks</text>
<text text-anchor="middle" x="829" y="-271" font-family="Helvetica,sans-Serif" font-size="10.00">::InitTask</text>
</a>
</g>
</g>
<!-- Node17&#45;&gt;Node18 -->
<g id="edge17_Node000017_Node000018" class="edge">
<title>Node17&#45;&gt;Node18</title>
<g id="a_edge17_Node000017_Node000018"><a xlink:title=" ">
<path fill="none" stroke="#63b8ff" d="M702.82,-264.76C719.43,-266.65 736.71,-268.62 752.95,-270.46"/>
<polygon fill="#63b8ff" stroke="#63b8ff" points="702.91,-261.25 692.58,-263.6 702.12,-268.2 702.91,-261.25"/>
</a>
</g>
</g>
<!-- Node20 -->
<g id="Node000020" class="node">
<title>Node20</title>
<g id="a_Node000020"><a xlink:href="classDynExpInstr_1_1DigitalInTasks_1_1InitTask.html" target="_top" xlink:title="Defines a task for initializing an instrument within an instrument inheritance hierarchy....">
<polygon fill="white" stroke="#666666" points="904,-246 754,-246 754,-216 904,-216 904,-246"/>
<text text-anchor="start" x="762" y="-234" font-family="Helvetica,sans-Serif" font-size="10.00">DynExpInstr::DigitalInTasks</text>
<text text-anchor="middle" x="829" y="-223" font-family="Helvetica,sans-Serif" font-size="10.00">::InitTask</text>
</a>
</g>
</g>
<!-- Node17&#45;&gt;Node20 -->
<g id="edge19_Node000017_Node000020" class="edge">
<title>Node17&#45;&gt;Node20</title>
<g id="a_edge19_Node000017_Node000020"><a xlink:title=" ">
<path fill="none" stroke="#63b8ff" d="M702.94,-245.22C719.76,-243.31 737.26,-241.32 753.66,-239.46"/>
<polygon fill="#63b8ff" stroke="#63b8ff" points="702.12,-241.8 692.58,-246.4 702.91,-248.75 702.12,-241.8"/>
</a>
</g>
</g>
<!-- Node19 -->
<g id="Node000019" class="node">
<title>Node19</title>
<g id="a_Node000019"><a xlink:href="classDynExpInstr_1_1NIDAQAnalogInTasks_1_1InitTask.html" target="_top" xlink:title=" ">
<polygon fill="white" stroke="#666666" points="1110,-294 962,-294 962,-264 1110,-264 1110,-294"/>
<text text-anchor="start" x="970" y="-282" font-family="Helvetica,sans-Serif" font-size="10.00">DynExpInstr::NIDAQAnalog</text>
<text text-anchor="middle" x="1036" y="-271" font-family="Helvetica,sans-Serif" font-size="10.00">InTasks::InitTask</text>
</a>
</g>
</g>
<!-- Node18&#45;&gt;Node19 -->
<g id="edge18_Node000018_Node000019" class="edge">
<title>Node18&#45;&gt;Node19</title>
<g id="a_edge18_Node000018_Node000019"><a xlink:title=" ">
<path fill="none" stroke="#63b8ff" d="M915.26,-279C930.75,-279 946.79,-279 961.89,-279"/>
<polygon fill="#63b8ff" stroke="#63b8ff" points="915.17,-275.5 905.17,-279 915.17,-282.5 915.17,-275.5"/>
</a>
</g>
</g>
<!-- Node21 -->
<g id="Node000021" class="node">
<title>Node21</title>
<g id="a_Node000021"><a xlink:href="classDynExpInstr_1_1NIDAQDigitalInTasks_1_1InitTask.html" target="_top" xlink:title=" ">
<polygon fill="white" stroke="#666666" points="1109,-246 963,-246 963,-216 1109,-216 1109,-246"/>
<text text-anchor="start" x="971" y="-234" font-family="Helvetica,sans-Serif" font-size="10.00">DynExpInstr::NIDAQDigital</text>
<text text-anchor="middle" x="1036" y="-223" font-family="Helvetica,sans-Serif" font-size="10.00">InTasks::InitTask</text>
</a>
</g>
</g>
<!-- Node20&#45;&gt;Node21 -->
<g id="edge20_Node000020_Node000021" class="edge">
<title>Node20&#45;&gt;Node21</title>
<g id="a_edge20_Node000020_Node000021"><a xlink:title=" ">
<path fill="none" stroke="#63b8ff" d="M914.46,-231C930.51,-231 947.18,-231 962.81,-231"/>
<polygon fill="#63b8ff" stroke="#63b8ff" points="914.01,-227.5 904.01,-231 914.01,-234.5 914.01,-227.5"/>
</a>
</g>
</g>
<!-- Node23 -->
<g id="Node000023" class="node">
<title>Node23</title>
<g id="a_Node000023"><a xlink:href="classDynExpInstr_1_1ZI__MFLITasks_1_1InitTask.html" target="_top" xlink:title=" ">
<polygon fill="white" stroke="#666666" points="902.5,-198 755.5,-198 755.5,-168 902.5,-168 902.5,-198"/>
<text text-anchor="start" x="763.5" y="-186" font-family="Helvetica,sans-Serif" font-size="10.00">DynExpInstr::ZI_MFLITasks</text>
<text text-anchor="middle" x="829" y="-175" font-family="Helvetica,sans-Serif" font-size="10.00">::InitTask</text>
</a>
</g>
</g>
<!-- Node22&#45;&gt;Node23 -->
<g id="edge22_Node000022_Node000023" class="edge">
<title>Node22&#45;&gt;Node23</title>
<g id="a_edge22_Node000022_Node000023"><a xlink:title=" ">
<path fill="none" stroke="#63b8ff" d="M705.53,-196.93C722.16,-195.04 739.37,-193.08 755.45,-191.25"/>
<polygon fill="#63b8ff" stroke="#63b8ff" points="704.81,-193.49 695.27,-198.1 705.6,-200.44 704.81,-193.49"/>
</a>
</g>
</g>
<!-- Node25 -->
<g id="Node000025" class="node">
<title>Node25</title>
<g id="a_Node000025"><a xlink:href="classDynExpInstr_1_1QutoolsQuTAGTasks_1_1InitTask.html" target="_top" xlink:title=" ">
<polygon fill="white" stroke="#666666" points="918.5,-150 739.5,-150 739.5,-120 918.5,-120 918.5,-150"/>
<text text-anchor="start" x="747.5" y="-138" font-family="Helvetica,sans-Serif" font-size="10.00">DynExpInstr::QutoolsQuTAGTasks</text>
<text text-anchor="middle" x="829" y="-127" font-family="Helvetica,sans-Serif" font-size="10.00">::InitTask</text>
</a>
</g>
</g>
<!-- Node24&#45;&gt;Node25 -->
<g id="edge24_Node000024_Node000025" class="edge">
<title>Node24&#45;&gt;Node25</title>
<g id="a_edge24_Node000024_Node000025"><a xlink:title=" ">
<path fill="none" stroke="#63b8ff" d="M709.16,-148.52C719.2,-147.38 729.41,-146.21 739.41,-145.08"/>
<polygon fill="#63b8ff" stroke="#63b8ff" points="708.72,-145.04 699.18,-149.65 709.51,-152 708.72,-145.04"/>
</a>
</g>
</g>
<!-- Node28 -->
<g id="Node000028" class="node">
<title>Node28</title>
<g id="a_Node000028"><a xlink:href="classDynExpInstr_1_1NenionLeakvalveF3Tasks_1_1InitTask.html" target="_top" xlink:title=" ">
<polygon fill="white" stroke="#666666" points="699.5,-126 532.5,-126 532.5,-96 699.5,-96 699.5,-126"/>
<text text-anchor="start" x="540.5" y="-114" font-family="Helvetica,sans-Serif" font-size="10.00">DynExpInstr::NenionLeakvalve</text>
<text text-anchor="middle" x="616" y="-103" font-family="Helvetica,sans-Serif" font-size="10.00">F3Tasks::InitTask</text>
</a>
</g>
</g>
<!-- Node27&#45;&gt;Node28 -->
<g id="edge27_Node000027_Node000028" class="edge">
<title>Node27&#45;&gt;Node28</title>
<g id="a_edge27_Node000027_Node000028"><a xlink:title=" ">
<path fill="none" stroke="#63b8ff" d="M486.4,-111C501.53,-111 517.19,-111 532.16,-111"/>
<polygon fill="#63b8ff" stroke="#63b8ff" points="486.04,-107.5 476.04,-111 486.04,-114.5 486.04,-107.5"/>
</a>
</g>
</g>
<!-- Node29 -->
<g id="Node000029" class="node">
<title>Node29</title>
<g id="a_Node000029"><a xlink:href="classDynExpInstr_1_1PI__C__862__Tasks_1_1InitTask.html" target="_top" xlink:title=" ">
<polygon fill="white" stroke="#666666" points="679,-78 553,-78 553,-48 679,-48 679,-78"/>
<text text-anchor="start" x="561" y="-66" font-family="Helvetica,sans-Serif" font-size="10.00">DynExpInstr::PI_C_862</text>
<text text-anchor="middle" x="616" y="-55" font-family="Helvetica,sans-Serif" font-size="10.00">_Tasks::InitTask</text>
</a>
</g>
</g>
<!-- Node27&#45;&gt;Node29 -->
<g id="edge28_Node000027_Node000029" class="edge">
<title>Node27&#45;&gt;Node29</title>
<g id="a_edge28_Node000027_Node000029"><a xlink:title=" ">
<path fill="none" stroke="#63b8ff" d="M475.96,-93.75C501.18,-88.18 528.78,-82.07 552.71,-76.78"/>
<polygon fill="#63b8ff" stroke="#63b8ff" points="475.07,-90.37 466.06,-95.94 476.58,-97.2 475.07,-90.37"/>
</a>
</g>
</g>
<!-- Node30 -->
<g id="Node000030" class="node">
<title>Node30</title>
<g id="a_Node000030"><a xlink:href="classDynExpInstr_1_1SmarActTasks_1_1InitTask.html" target="_top" xlink:title=" ">
<polygon fill="white" stroke="#666666" points="691,-30 541,-30 541,0 691,0 691,-30"/>
<text text-anchor="start" x="549" y="-18" font-family="Helvetica,sans-Serif" font-size="10.00">DynExpInstr::SmarActTasks</text>
<text text-anchor="middle" x="616" y="-7" font-family="Helvetica,sans-Serif" font-size="10.00">::InitTask</text>
</a>
</g>
</g>
<!-- Node27&#45;&gt;Node30 -->
<g id="edge29_Node000027_Node000030" class="edge">
<title>Node27&#45;&gt;Node30</title>
<g id="a_edge29_Node000027_Node000030"><a xlink:title=" ">
<path fill="none" stroke="#63b8ff" d="M485.5,-92.02C488.44,-90.48 491.28,-88.81 494,-87 516.22,-72.25 508.01,-54.08 530,-39 535.06,-35.53 540.61,-32.56 546.38,-30.02"/>
<polygon fill="#63b8ff" stroke="#63b8ff" points="484,-88.86 476.45,-96.29 486.99,-95.19 484,-88.86"/>
</a>
</g>
</g>
</g>
</svg>
