<?xml version="1.0" encoding="UTF-8" standalone="no"?>
<!DOCTYPE svg PUBLIC "-//W3C//DTD SVG 1.1//EN"
 "http://www.w3.org/Graphics/SVG/1.1/DTD/svg11.dtd">
<!-- Generated by graphviz version 2.43.0 (0)
 -->
<!-- Title: DynExp::QModuleWidget Pages: 1 -->
<svg width="453pt" height="508pt"
 viewBox="0.00 0.00 453.00 508.00" xmlns="http://www.w3.org/2000/svg" xmlns:xlink="http://www.w3.org/1999/xlink">
<g id="graph0" class="graph" transform="scale(1 1) rotate(0) translate(4 504)">
<title>DynExp::QModuleWidget</title>
<!-- Node1 -->
<g id="Node000001" class="node">
<title>Node1</title>
<g id="a_Node000001"><a xlink:title="Window class for Qt&#45;based user interfaces belonging to DynExp modules. User interface Qt window class...">
<polygon fill="#999999" stroke="#666666" points="233,-254.5 95,-254.5 95,-235.5 233,-235.5 233,-254.5"/>
<text text-anchor="middle" x="164" y="-242.5" font-family="Helvetica,sans-Serif" font-size="10.00">DynExp::QModuleWidget</text>
</a>
</g>
</g>
<!-- Node3 -->
<g id="Node000003" class="node">
<title>Node3</title>
<g id="a_Node000003"><a xlink:href="classDynExpModule_1_1ImageViewer_1_1ImageViewerWidget.html" target="_top" xlink:title=" ">
<polygon fill="white" stroke="#666666" points="437.5,-500 276.5,-500 276.5,-470 437.5,-470 437.5,-500"/>
<text text-anchor="start" x="284.5" y="-488" font-family="Helvetica,sans-Serif" font-size="10.00">DynExpModule::ImageViewer</text>
<text text-anchor="middle" x="357" y="-477" font-family="Helvetica,sans-Serif" font-size="10.00">::ImageViewerWidget</text>
</a>
</g>
</g>
<!-- Node1&#45;&gt;Node3 -->
<g id="edge2_Node000001_Node000003" class="edge">
<title>Node1&#45;&gt;Node3</title>
<g id="a_edge2_Node000001_Node000003"><a xlink:title=" ">
<path fill="none" stroke="#63b8ff" d="M168.82,-264.92C178.04,-307.57 205.65,-408.11 269,-461 273.09,-464.41 277.63,-467.34 282.42,-469.86"/>
<polygon fill="#63b8ff" stroke="#63b8ff" points="172.21,-264.05 166.77,-254.95 165.35,-265.45 172.21,-264.05"/>
</a>
</g>
</g>
<!-- Node4 -->
<g id="Node000004" class="node">
<title>Node4</title>
<g id="a_Node000004"><a xlink:href="classDynExpModule_1_1InputPortReaderWidget.html" target="_top" xlink:title=" ">
<polygon fill="white" stroke="#666666" points="444.5,-452 269.5,-452 269.5,-422 444.5,-422 444.5,-452"/>
<text text-anchor="start" x="277.5" y="-440" font-family="Helvetica,sans-Serif" font-size="10.00">DynExpModule::InputPortReader</text>
<text text-anchor="middle" x="357" y="-429" font-family="Helvetica,sans-Serif" font-size="10.00">Widget</text>
</a>
</g>
</g>
<!-- Node1&#45;&gt;Node4 -->
<g id="edge3_Node000001_Node000004" class="edge">
<title>Node1&#45;&gt;Node4</title>
<g id="a_edge3_Node000001_Node000004"><a xlink:title=" ">
<path fill="none" stroke="#63b8ff" d="M171.52,-264.28C184.4,-299.37 216.5,-373.68 269,-413 273.64,-416.48 278.76,-419.45 284.11,-421.99"/>
<polygon fill="#63b8ff" stroke="#63b8ff" points="174.78,-262.98 168.14,-254.73 168.18,-265.32 174.78,-262.98"/>
</a>
</g>
</g>
<!-- Node5 -->
<g id="Node000005" class="node">
<title>Node5</title>
<g id="a_Node000005"><a xlink:href="classDynExpModule_1_1LockinAmplifierControlWidget.html" target="_top" xlink:title=" ">
<polygon fill="white" stroke="#666666" points="443,-404 271,-404 271,-374 443,-374 443,-404"/>
<text text-anchor="start" x="279" y="-392" font-family="Helvetica,sans-Serif" font-size="10.00">DynExpModule::LockinAmplifier</text>
<text text-anchor="middle" x="357" y="-381" font-family="Helvetica,sans-Serif" font-size="10.00">ControlWidget</text>
</a>
</g>
</g>
<!-- Node1&#45;&gt;Node5 -->
<g id="edge4_Node000001_Node000005" class="edge">
<title>Node1&#45;&gt;Node5</title>
<g id="a_edge4_Node000001_Node000005"><a xlink:title=" ">
<path fill="none" stroke="#63b8ff" d="M175.99,-263.49C192.7,-290 227.06,-338.53 269,-365 274.43,-368.43 280.36,-371.37 286.48,-373.9"/>
<polygon fill="#63b8ff" stroke="#63b8ff" points="178.86,-261.48 170.64,-254.8 172.9,-265.15 178.86,-261.48"/>
</a>
</g>
</g>
<!-- Node6 -->
<g id="Node000006" class="node">
<title>Node6</title>
<g id="a_Node000006"><a xlink:href="classDynExpModule_1_1ODMR_1_1ODMRWidget.html" target="_top" xlink:title=" ">
<polygon fill="white" stroke="#666666" points="420.5,-356 293.5,-356 293.5,-326 420.5,-326 420.5,-356"/>
<text text-anchor="start" x="301.5" y="-344" font-family="Helvetica,sans-Serif" font-size="10.00">DynExpModule::ODMR</text>
<text text-anchor="middle" x="357" y="-333" font-family="Helvetica,sans-Serif" font-size="10.00">::ODMRWidget</text>
</a>
</g>
</g>
<!-- Node1&#45;&gt;Node6 -->
<g id="edge5_Node000001_Node000006" class="edge">
<title>Node1&#45;&gt;Node6</title>
<g id="a_edge5_Node000001_Node000006"><a xlink:title=" ">
<path fill="none" stroke="#63b8ff" d="M184.05,-261.15C204.03,-277.36 236.94,-302.01 269,-317 276.66,-320.58 284.97,-323.72 293.3,-326.45"/>
<polygon fill="#63b8ff" stroke="#63b8ff" points="186.01,-258.24 176.07,-254.57 181.56,-263.64 186.01,-258.24"/>
</a>
</g>
</g>
<!-- Node7 -->
<g id="Node000007" class="node">
<title>Node7</title>
<g id="a_Node000007"><a xlink:href="classDynExpModule_1_1OutputPortWriterWidget.html" target="_top" xlink:title=" ">
<polygon fill="white" stroke="#666666" points="431.5,-308 282.5,-308 282.5,-278 431.5,-278 431.5,-308"/>
<text text-anchor="start" x="290.5" y="-296" font-family="Helvetica,sans-Serif" font-size="10.00">DynExpModule::OutputPort</text>
<text text-anchor="middle" x="357" y="-285" font-family="Helvetica,sans-Serif" font-size="10.00">WriterWidget</text>
</a>
</g>
</g>
<!-- Node1&#45;&gt;Node7 -->
<g id="edge6_Node000001_Node000007" class="edge">
<title>Node1&#45;&gt;Node7</title>
<g id="a_edge6_Node000001_Node000007"><a xlink:title=" ">
<path fill="none" stroke="#63b8ff" d="M212.89,-257.04C238.1,-263.37 269.26,-271.2 296.06,-277.94"/>
<polygon fill="#63b8ff" stroke="#63b8ff" points="213.74,-253.64 203.19,-254.6 212.04,-260.43 213.74,-253.64"/>
</a>
</g>
</g>
<!-- Node8 -->
<g id="Node000008" class="node">
<title>Node8</title>
<g id="a_Node000008"><a xlink:href="classDynExpModule_1_1SignalDesignerWidget.html" target="_top" xlink:title=" ">
<polygon fill="white" stroke="#666666" points="442,-260 272,-260 272,-230 442,-230 442,-260"/>
<text text-anchor="start" x="280" y="-248" font-family="Helvetica,sans-Serif" font-size="10.00">DynExpModule::SignalDesigner</text>
<text text-anchor="middle" x="357" y="-237" font-family="Helvetica,sans-Serif" font-size="10.00">Widget</text>
</a>
</g>
</g>
<!-- Node1&#45;&gt;Node8 -->
<g id="edge7_Node000001_Node000008" class="edge">
<title>Node1&#45;&gt;Node8</title>
<g id="a_edge7_Node000001_Node000008"><a xlink:title=" ">
<path fill="none" stroke="#63b8ff" d="M243.26,-245C252.69,-245 262.34,-245 271.84,-245"/>
<polygon fill="#63b8ff" stroke="#63b8ff" points="243.15,-241.5 233.15,-245 243.15,-248.5 243.15,-241.5"/>
</a>
</g>
</g>
<!-- Node9 -->
<g id="Node000009" class="node">
<title>Node9</title>
<g id="a_Node000009"><a xlink:href="classDynExpModule_1_1SignalPlotterWidget.html" target="_top" xlink:title=" ">
<polygon fill="white" stroke="#666666" points="436,-212 278,-212 278,-182 436,-182 436,-212"/>
<text text-anchor="start" x="286" y="-200" font-family="Helvetica,sans-Serif" font-size="10.00">DynExpModule::SignalPlotter</text>
<text text-anchor="middle" x="357" y="-189" font-family="Helvetica,sans-Serif" font-size="10.00">Widget</text>
</a>
</g>
</g>
<!-- Node1&#45;&gt;Node9 -->
<g id="edge8_Node000001_Node000009" class="edge">
<title>Node1&#45;&gt;Node9</title>
<g id="a_edge8_Node000001_Node000009"><a xlink:title=" ">
<path fill="none" stroke="#63b8ff" d="M212.89,-232.96C238.1,-226.63 269.26,-218.8 296.06,-212.06"/>
<polygon fill="#63b8ff" stroke="#63b8ff" points="212.04,-229.57 203.19,-235.4 213.74,-236.36 212.04,-229.57"/>
</a>
</g>
</g>
<!-- Node10 -->
<g id="Node000010" class="node">
<title>Node10</title>
<g id="a_Node000010"><a xlink:href="classDynExpModule_1_1SpectrumViewer_1_1SpectrumViewerWidget.html" target="_top" xlink:title=" ">
<polygon fill="white" stroke="#666666" points="445,-164 269,-164 269,-134 445,-134 445,-164"/>
<text text-anchor="start" x="277" y="-152" font-family="Helvetica,sans-Serif" font-size="10.00">DynExpModule::SpectrumViewer</text>
<text text-anchor="middle" x="357" y="-141" font-family="Helvetica,sans-Serif" font-size="10.00">::SpectrumViewerWidget</text>
</a>
</g>
</g>
<!-- Node1&#45;&gt;Node10 -->
<g id="edge9_Node000001_Node000010" class="edge">
<title>Node1&#45;&gt;Node10</title>
<g id="a_edge9_Node000001_Node000010"><a xlink:title=" ">
<path fill="none" stroke="#63b8ff" d="M184.05,-228.85C204.03,-212.64 236.94,-187.99 269,-173 276.24,-169.62 284.05,-166.63 291.91,-164.01"/>
<polygon fill="#63b8ff" stroke="#63b8ff" points="181.56,-226.36 176.07,-235.43 186.01,-231.76 181.56,-226.36"/>
</a>
</g>
</g>
<!-- Node11 -->
<g id="Node000011" class="node">
<title>Node11</title>
<g id="a_Node000011"><a xlink:href="classDynExpModule_1_1Stage1DWidget.html" target="_top" xlink:title=" ">
<polygon fill="white" stroke="#666666" points="443,-115.5 271,-115.5 271,-96.5 443,-96.5 443,-115.5"/>
<text text-anchor="middle" x="357" y="-103.5" font-family="Helvetica,sans-Serif" font-size="10.00">DynExpModule::Stage1DWidget</text>
</a>
</g>
</g>
<!-- Node1&#45;&gt;Node11 -->
<g id="edge10_Node000001_Node000011" class="edge">
<title>Node1&#45;&gt;Node11</title>
<g id="a_edge10_Node000001_Node000011"><a xlink:title=" ">
<path fill="none" stroke="#63b8ff" d="M175.56,-226.61C191.95,-199.8 226.14,-150.45 269,-125 275.51,-121.13 282.72,-118.05 290.12,-115.59"/>
<polygon fill="#63b8ff" stroke="#63b8ff" points="172.45,-224.99 170.34,-235.37 178.46,-228.57 172.45,-224.99"/>
</a>
</g>
</g>
<!-- Node12 -->
<g id="Node000012" class="node">
<title>Node12</title>
<g id="a_Node000012"><a xlink:href="classDynExpModule_1_1Trajectory1DWidget.html" target="_top" xlink:title=" ">
<polygon fill="white" stroke="#666666" points="432,-78 282,-78 282,-48 432,-48 432,-78"/>
<text text-anchor="start" x="290" y="-66" font-family="Helvetica,sans-Serif" font-size="10.00">DynExpModule::Trajectory1</text>
<text text-anchor="middle" x="357" y="-55" font-family="Helvetica,sans-Serif" font-size="10.00">DWidget</text>
</a>
</g>
</g>
<!-- Node1&#45;&gt;Node12 -->
<g id="edge11_Node000001_Node000012" class="edge">
<title>Node1&#45;&gt;Node12</title>
<g id="a_edge11_Node000001_Node000012"><a xlink:title=" ">
<path fill="none" stroke="#63b8ff" d="M172.22,-225.96C185.87,-192.59 218.68,-123.61 269,-87 273.69,-83.59 278.84,-80.66 284.22,-78.15"/>
<polygon fill="#63b8ff" stroke="#63b8ff" points="168.89,-224.87 168.47,-235.46 175.4,-227.45 168.89,-224.87"/>
</a>
</g>
</g>
<!-- Node13 -->
<g id="Node000013" class="node">
<title>Node13</title>
<g id="a_Node000013"><a xlink:href="classDynExpModule_1_1Widefield_1_1WidefieldMicroscopeWidget.html" target="_top" xlink:title=" ">
<polygon fill="white" stroke="#666666" points="436,-30 278,-30 278,0 436,0 436,-30"/>
<text text-anchor="start" x="286" y="-18" font-family="Helvetica,sans-Serif" font-size="10.00">DynExpModule::Widefield</text>
<text text-anchor="middle" x="357" y="-7" font-family="Helvetica,sans-Serif" font-size="10.00">::WidefieldMicroscopeWidget</text>
</a>
</g>
</g>
<!-- Node1&#45;&gt;Node13 -->
<g id="edge12_Node000001_Node000013" class="edge">
<title>Node1&#45;&gt;Node13</title>
<g id="a_edge12_Node000001_Node000013"><a xlink:title=" ">
<path fill="none" stroke="#63b8ff" d="M169.17,-225.72C179.02,-184.87 207.67,-89.23 269,-39 273.24,-35.53 277.95,-32.55 282.92,-30.01"/>
<polygon fill="#63b8ff" stroke="#63b8ff" points="165.75,-224.97 166.92,-235.5 172.57,-226.54 165.75,-224.97"/>
</a>
</g>
</g>
<!-- Node2 -->
<g id="Node000002" class="node">
<title>Node2</title>
<g id="a_Node000002"><a xlink:title=" ">
<polygon fill="white" stroke="#666666" points="59,-254.5 0,-254.5 0,-235.5 59,-235.5 59,-254.5"/>
<text text-anchor="middle" x="29.5" y="-242.5" font-family="Helvetica,sans-Serif" font-size="10.00">QWidget</text>
</a>
</g>
</g>
<!-- Node2&#45;&gt;Node1 -->
<g id="edge1_Node000001_Node000002" class="edge">
<title>Node2&#45;&gt;Node1</title>
<g id="a_edge1_Node000001_Node000002"><a xlink:title=" ">
<path fill="none" stroke="#63b8ff" d="M69.4,-245C77.44,-245 86.14,-245 94.88,-245"/>
<polygon fill="#63b8ff" stroke="#63b8ff" points="69.25,-241.5 59.25,-245 69.25,-248.5 69.25,-241.5"/>
</a>
</g>
</g>
</g>
</svg>
