<?xml version="1.0" encoding="UTF-8" standalone="no"?>
<!DOCTYPE svg PUBLIC "-//W3C//DTD SVG 1.1//EN"
 "http://www.w3.org/Graphics/SVG/1.1/DTD/svg11.dtd">
<!-- Generated by graphviz version 2.43.0 (0)
 -->
<!-- Title: DynExp::SerialCommunicationException Pages: 1 -->
<svg width="330pt" height="263pt"
 viewBox="0.00 0.00 330.00 263.00" xmlns="http://www.w3.org/2000/svg" xmlns:xlink="http://www.w3.org/1999/xlink">
<g id="graph0" class="graph" transform="scale(1 1) rotate(0) translate(4 259)">
<title>DynExp::SerialCommunicationException</title>
<polygon fill="white" stroke="transparent" points="-4,4 -4,-259 326,-259 326,4 -4,4"/>
<!-- Node1 -->
<g id="node1" class="node">
<title>Node1</title>
<g id="a_node1"><a xlink:title="Defines an exception caused by a serial communication operation of a hardware adapter.">
<polygon fill="#bfbfbf" stroke="black" points="77,-56.5 77,-86.5 242,-86.5 242,-56.5 77,-56.5"/>
<text text-anchor="start" x="85" y="-74.5" font-family="Helvetica,sans-Serif" font-size="10.00">DynExp::SerialCommunication</text>
<text text-anchor="middle" x="159.5" y="-63.5" font-family="Helvetica,sans-Serif" font-size="10.00">Exception</text>
</a>
</g>
</g>
<!-- Node5 -->
<g id="node5" class="node">
<title>Node5</title>
<g id="a_node5"><a xlink:href="classDynExp_1_1NetworkException.html" target="_top" xlink:title="Defines an exception caused by a hardware operation on an ethernet interface (e.g....">
<polygon fill="white" stroke="black" points="0,-0.5 0,-19.5 149,-19.5 149,-0.5 0,-0.5"/>
<text text-anchor="middle" x="74.5" y="-7.5" font-family="Helvetica,sans-Serif" font-size="10.00">DynExp::NetworkException</text>
</a>
</g>
</g>
<!-- Node1&#45;&gt;Node5 -->
<g id="edge4" class="edge">
<title>Node1&#45;&gt;Node5</title>
<path fill="none" stroke="midnightblue" d="M130.9,-50.48C115.93,-40 98.37,-27.71 86.87,-19.66"/>
<polygon fill="midnightblue" stroke="midnightblue" points="129.16,-53.53 139.36,-56.4 133.17,-47.8 129.16,-53.53"/>
</g>
<!-- Node6 -->
<g id="node6" class="node">
<title>Node6</title>
<g id="a_node6"><a xlink:href="classDynExp_1_1SerialPortException.html" target="_top" xlink:title="Defines an exception caused by a hardware operation on a COM port (e.g. reading/writing data to a COM...">
<polygon fill="white" stroke="black" points="167,-0.5 167,-19.5 322,-19.5 322,-0.5 167,-0.5"/>
<text text-anchor="middle" x="244.5" y="-7.5" font-family="Helvetica,sans-Serif" font-size="10.00">DynExp::SerialPortException</text>
</a>
</g>
</g>
<!-- Node1&#45;&gt;Node6 -->
<g id="edge5" class="edge">
<title>Node1&#45;&gt;Node6</title>
<path fill="none" stroke="midnightblue" d="M188.1,-50.48C203.07,-40 220.63,-27.71 232.13,-19.66"/>
<polygon fill="midnightblue" stroke="midnightblue" points="185.83,-47.8 179.64,-56.4 189.84,-53.53 185.83,-47.8"/>
</g>
<!-- Node2 -->
<g id="node2" class="node">
<title>Node2</title>
<g id="a_node2"><a xlink:href="classUtil_1_1Exception.html" target="_top" xlink:title="DynExp exceptions are derived from this class. It contains basic information about the cause of the e...">
<polygon fill="white" stroke="black" points="115.5,-123.5 115.5,-142.5 203.5,-142.5 203.5,-123.5 115.5,-123.5"/>
<text text-anchor="middle" x="159.5" y="-130.5" font-family="Helvetica,sans-Serif" font-size="10.00">Util::Exception</text>
</a>
</g>
</g>
<!-- Node2&#45;&gt;Node1 -->
<g id="edge1" class="edge">
<title>Node2&#45;&gt;Node1</title>
<path fill="none" stroke="midnightblue" d="M159.5,-113.23C159.5,-104.59 159.5,-94.5 159.5,-86.52"/>
<polygon fill="midnightblue" stroke="midnightblue" points="156,-113.48 159.5,-123.48 163,-113.48 156,-113.48"/>
</g>
<!-- Node3 -->
<g id="node3" class="node">
<title>Node3</title>
<g id="a_node3"><a xlink:title=" ">
<polygon fill="white" stroke="#bfbfbf" points="107.5,-179.5 107.5,-198.5 211.5,-198.5 211.5,-179.5 107.5,-179.5"/>
<text text-anchor="middle" x="159.5" y="-186.5" font-family="Helvetica,sans-Serif" font-size="10.00">std::runtime_error</text>
</a>
</g>
</g>
<!-- Node3&#45;&gt;Node2 -->
<g id="edge2" class="edge">
<title>Node3&#45;&gt;Node2</title>
<path fill="none" stroke="midnightblue" d="M159.5,-168.8C159.5,-159.91 159.5,-149.78 159.5,-142.75"/>
<polygon fill="midnightblue" stroke="midnightblue" points="156,-169.08 159.5,-179.08 163,-169.08 156,-169.08"/>
</g>
<!-- Node4 -->
<g id="node4" class="node">
<title>Node4</title>
<g id="a_node4"><a xlink:title=" ">
<polygon fill="white" stroke="#bfbfbf" points="116.5,-235.5 116.5,-254.5 202.5,-254.5 202.5,-235.5 116.5,-235.5"/>
<text text-anchor="middle" x="159.5" y="-242.5" font-family="Helvetica,sans-Serif" font-size="10.00">std::exception</text>
</a>
</g>
</g>
<!-- Node4&#45;&gt;Node3 -->
<g id="edge3" class="edge">
<title>Node4&#45;&gt;Node3</title>
<path fill="none" stroke="midnightblue" d="M159.5,-224.8C159.5,-215.91 159.5,-205.78 159.5,-198.75"/>
<polygon fill="midnightblue" stroke="midnightblue" points="156,-225.08 159.5,-235.08 163,-225.08 156,-225.08"/>
</g>
</g>
</svg>
