<?xml version="1.0" encoding="UTF-8" standalone="no"?>
<!DOCTYPE svg PUBLIC "-//W3C//DTD SVG 1.1//EN"
 "http://www.w3.org/Graphics/SVG/1.1/DTD/svg11.dtd">
<!-- Generated by graphviz version 2.43.0 (0)
 -->
<!-- Title: DynExpInstr::InputPort Pages: 1 -->
<svg width="338pt" height="357pt"
 viewBox="0.00 0.00 338.00 357.00" xmlns="http://www.w3.org/2000/svg" xmlns:xlink="http://www.w3.org/1999/xlink">
<g id="graph0" class="graph" transform="scale(1 1) rotate(0) translate(4 353)">
<title>DynExpInstr::InputPort</title>
<!-- Node1 -->
<g id="Node000001" class="node">
<title>Node1</title>
<g id="a_Node000001"><a xlink:title="Generic input port meta instrument based on the data stream meta instrument to read data from hardwar...">
<polygon fill="#999999" stroke="#666666" points="228.5,-129 102.5,-129 102.5,-110 228.5,-110 228.5,-129"/>
<text text-anchor="middle" x="165.5" y="-117" font-family="Helvetica,sans-Serif" font-size="10.00">DynExpInstr::InputPort</text>
</a>
</g>
</g>
<!-- Node7 -->
<g id="Node000007" class="node">
<title>Node7</title>
<g id="a_Node000007"><a xlink:href="classDynExpInstr_1_1AnalogIn.html" target="_top" xlink:title="Meta instrument for a single analog input port based on the data stream and generic input port meta i...">
<polygon fill="white" stroke="#666666" points="157,-74 32,-74 32,-55 157,-55 157,-74"/>
<text text-anchor="middle" x="94.5" y="-62" font-family="Helvetica,sans-Serif" font-size="10.00">DynExpInstr::AnalogIn</text>
</a>
</g>
</g>
<!-- Node1&#45;&gt;Node7 -->
<g id="edge6_Node000001_Node000007" class="edge">
<title>Node1&#45;&gt;Node7</title>
<g id="a_edge6_Node000001_Node000007"><a xlink:title=" ">
<path fill="none" stroke="#63b8ff" d="M145.91,-103.88C133.13,-94.34 116.89,-82.21 106.11,-74.17"/>
<polygon fill="#63b8ff" stroke="#63b8ff" points="143.99,-106.81 154.09,-109.98 148.17,-101.2 143.99,-106.81"/>
</a>
</g>
</g>
<!-- Node9 -->
<g id="Node000009" class="node">
<title>Node9</title>
<g id="a_Node000009"><a xlink:href="classDynExpInstr_1_1DigitalIn.html" target="_top" xlink:title="Meta instrument for a single digital input port based on the data stream and generic input port meta ...">
<polygon fill="white" stroke="#666666" points="306,-74 183,-74 183,-55 306,-55 306,-74"/>
<text text-anchor="middle" x="244.5" y="-62" font-family="Helvetica,sans-Serif" font-size="10.00">DynExpInstr::DigitalIn</text>
</a>
</g>
</g>
<!-- Node1&#45;&gt;Node9 -->
<g id="edge8_Node000001_Node000009" class="edge">
<title>Node1&#45;&gt;Node9</title>
<g id="a_edge8_Node000001_Node000009"><a xlink:title=" ">
<path fill="none" stroke="#63b8ff" d="M186.89,-104.15C201.17,-94.57 219.47,-82.29 231.58,-74.17"/>
<polygon fill="#63b8ff" stroke="#63b8ff" points="184.55,-101.51 178.19,-109.98 188.45,-107.32 184.55,-101.51"/>
</a>
</g>
</g>
<!-- Node2 -->
<g id="Node000002" class="node">
<title>Node2</title>
<g id="a_Node000002"><a xlink:href="classDynExpInstr_1_1DataStreamInstrument.html" target="_top" xlink:title="Implementation of the data stream meta instrument, which is a base class for all instruments reading/...">
<polygon fill="white" stroke="#666666" points="262.5,-184 68.5,-184 68.5,-165 262.5,-165 262.5,-184"/>
<text text-anchor="middle" x="165.5" y="-172" font-family="Helvetica,sans-Serif" font-size="10.00">DynExpInstr::DataStreamInstrument</text>
</a>
</g>
</g>
<!-- Node2&#45;&gt;Node1 -->
<g id="edge1_Node000001_Node000002" class="edge">
<title>Node2&#45;&gt;Node1</title>
<g id="a_edge1_Node000001_Node000002"><a xlink:title=" ">
<path fill="none" stroke="#63b8ff" d="M165.5,-154.66C165.5,-145.93 165.5,-135.99 165.5,-129.09"/>
<polygon fill="#63b8ff" stroke="#63b8ff" points="162,-154.75 165.5,-164.75 169,-154.75 162,-154.75"/>
</a>
</g>
</g>
<!-- Node3 -->
<g id="Node000003" class="node">
<title>Node3</title>
<g id="a_Node000003"><a xlink:href="classDynExp_1_1InstrumentBase.html" target="_top" xlink:title="Base class for instruments. Instruments comprise virtual devices (meta instruments) and physial devic...">
<polygon fill="white" stroke="#666666" points="234,-239 97,-239 97,-220 234,-220 234,-239"/>
<text text-anchor="middle" x="165.5" y="-227" font-family="Helvetica,sans-Serif" font-size="10.00">DynExp::InstrumentBase</text>
</a>
</g>
</g>
<!-- Node3&#45;&gt;Node2 -->
<g id="edge2_Node000002_Node000003" class="edge">
<title>Node3&#45;&gt;Node2</title>
<g id="a_edge2_Node000002_Node000003"><a xlink:title=" ">
<path fill="none" stroke="#63b8ff" d="M165.5,-209.66C165.5,-200.93 165.5,-190.99 165.5,-184.09"/>
<polygon fill="#63b8ff" stroke="#63b8ff" points="162,-209.75 165.5,-219.75 169,-209.75 162,-209.75"/>
</a>
</g>
</g>
<!-- Node4 -->
<g id="Node000004" class="node">
<title>Node4</title>
<g id="a_Node000004"><a xlink:href="classDynExp_1_1RunnableObject.html" target="_top" xlink:title="Defines an Object which possesses a thread it runs in. The RunnableObject can be started and stopped ...">
<polygon fill="white" stroke="#666666" points="234,-294 97,-294 97,-275 234,-275 234,-294"/>
<text text-anchor="middle" x="165.5" y="-282" font-family="Helvetica,sans-Serif" font-size="10.00">DynExp::RunnableObject</text>
</a>
</g>
</g>
<!-- Node4&#45;&gt;Node3 -->
<g id="edge3_Node000003_Node000004" class="edge">
<title>Node4&#45;&gt;Node3</title>
<g id="a_edge3_Node000003_Node000004"><a xlink:title=" ">
<path fill="none" stroke="#63b8ff" d="M165.5,-264.66C165.5,-255.93 165.5,-245.99 165.5,-239.09"/>
<polygon fill="#63b8ff" stroke="#63b8ff" points="162,-264.75 165.5,-274.75 169,-264.75 162,-264.75"/>
</a>
</g>
</g>
<!-- Node5 -->
<g id="Node000005" class="node">
<title>Node5</title>
<g id="a_Node000005"><a xlink:href="classUtil_1_1INonCopyable.html" target="_top" xlink:title="Interface to delete copy constructor and copy assignment operator and thus make derived classes non&#45;c...">
<polygon fill="white" stroke="#666666" points="160.5,-349 52.5,-349 52.5,-330 160.5,-330 160.5,-349"/>
<text text-anchor="middle" x="106.5" y="-337" font-family="Helvetica,sans-Serif" font-size="10.00">Util::INonCopyable</text>
</a>
</g>
</g>
<!-- Node5&#45;&gt;Node4 -->
<g id="edge4_Node000004_Node000005" class="edge">
<title>Node5&#45;&gt;Node4</title>
<g id="a_edge4_Node000004_Node000005"><a xlink:title=" ">
<path fill="none" stroke="#63b8ff" d="M123.7,-323.04C134.17,-313.64 147.15,-301.98 155.85,-294.17"/>
<polygon fill="#63b8ff" stroke="#63b8ff" points="121.08,-320.7 115.98,-329.98 125.76,-325.91 121.08,-320.7"/>
</a>
</g>
</g>
<!-- Node6 -->
<g id="Node000006" class="node">
<title>Node6</title>
<g id="a_Node000006"><a xlink:href="classDynExp_1_1Object.html" target="_top" xlink:title="Base class for all DynExp Objects like hardware adapters (DynExp::HardwareAdapterBase),...">
<polygon fill="white" stroke="#666666" points="270.5,-349 178.5,-349 178.5,-330 270.5,-330 270.5,-349"/>
<text text-anchor="middle" x="224.5" y="-337" font-family="Helvetica,sans-Serif" font-size="10.00">DynExp::Object</text>
</a>
</g>
</g>
<!-- Node6&#45;&gt;Node4 -->
<g id="edge5_Node000004_Node000006" class="edge">
<title>Node6&#45;&gt;Node4</title>
<g id="a_edge5_Node000004_Node000006"><a xlink:title=" ">
<path fill="none" stroke="#63b8ff" d="M207.3,-323.04C196.83,-313.64 183.85,-301.98 175.15,-294.17"/>
<polygon fill="#63b8ff" stroke="#63b8ff" points="205.24,-325.91 215.02,-329.98 209.92,-320.7 205.24,-325.91"/>
</a>
</g>
</g>
<!-- Node8 -->
<g id="Node000008" class="node">
<title>Node8</title>
<g id="a_Node000008"><a xlink:href="classDynExpInstr_1_1NIDAQAnalogIn.html" target="_top" xlink:title=" ">
<polygon fill="white" stroke="#666666" points="157,-19 0,-19 0,0 157,0 157,-19"/>
<text text-anchor="middle" x="78.5" y="-7" font-family="Helvetica,sans-Serif" font-size="10.00">DynExpInstr::NIDAQAnalogIn</text>
</a>
</g>
</g>
<!-- Node7&#45;&gt;Node8 -->
<g id="edge7_Node000007_Node000008" class="edge">
<title>Node7&#45;&gt;Node8</title>
<g id="a_edge7_Node000007_Node000008"><a xlink:title=" ">
<path fill="none" stroke="#63b8ff" d="M88.9,-44.95C86.24,-36.15 83.2,-26.06 81.09,-19.09"/>
<polygon fill="#63b8ff" stroke="#63b8ff" points="85.62,-46.19 91.86,-54.75 92.32,-44.16 85.62,-46.19"/>
</a>
</g>
</g>
<!-- Node10 -->
<g id="Node000010" class="node">
<title>Node10</title>
<g id="a_Node000010"><a xlink:href="classDynExpInstr_1_1NIDAQDigitalIn.html" target="_top" xlink:title=" ">
<polygon fill="white" stroke="#666666" points="330,-19 175,-19 175,0 330,0 330,-19"/>
<text text-anchor="middle" x="252.5" y="-7" font-family="Helvetica,sans-Serif" font-size="10.00">DynExpInstr::NIDAQDigitalIn</text>
</a>
</g>
</g>
<!-- Node9&#45;&gt;Node10 -->
<g id="edge9_Node000009_Node000010" class="edge">
<title>Node9&#45;&gt;Node10</title>
<g id="a_edge9_Node000009_Node000010"><a xlink:title=" ">
<path fill="none" stroke="#63b8ff" d="M247.34,-44.66C248.66,-35.93 250.16,-25.99 251.2,-19.09"/>
<polygon fill="#63b8ff" stroke="#63b8ff" points="243.85,-44.34 245.82,-54.75 250.77,-45.38 243.85,-44.34"/>
</a>
</g>
</g>
</g>
</svg>
