<?xml version="1.0" encoding="UTF-8" standalone="no"?>
<!DOCTYPE svg PUBLIC "-//W3C//DTD SVG 1.1//EN"
 "http://www.w3.org/Graphics/SVG/1.1/DTD/svg11.dtd">
<!-- Generated by graphviz version 2.43.0 (0)
 -->
<!-- Title: DynExpModule::NetworkDataStreamInstrumentData&lt; gRPCServices &gt; Pages: 1 -->
<svg width="226pt" height="285pt"
 viewBox="0.00 0.00 226.00 285.00" xmlns="http://www.w3.org/2000/svg" xmlns:xlink="http://www.w3.org/1999/xlink">
<g id="graph0" class="graph" transform="scale(1 1) rotate(0) translate(4 281)">
<title>DynExpModule::NetworkDataStreamInstrumentData&lt; gRPCServices &gt;</title>
<polygon fill="white" stroke="transparent" points="-4,4 -4,-281 222,-281 222,4 -4,4"/>
<!-- Node1 -->
<g id="node1" class="node">
<title>Node1</title>
<g id="a_node1"><a xlink:title=" ">
<polygon fill="#bfbfbf" stroke="black" points="0,-0.5 0,-30.5 218,-30.5 218,-0.5 0,-0.5"/>
<text text-anchor="start" x="8" y="-18.5" font-family="Helvetica,sans-Serif" font-size="10.00">DynExpModule::NetworkData</text>
<text text-anchor="middle" x="109" y="-7.5" font-family="Helvetica,sans-Serif" font-size="10.00">StreamInstrumentData&lt; gRPCServices &gt;</text>
</a>
</g>
</g>
<!-- Node2 -->
<g id="node2" class="node">
<title>Node2</title>
<g id="a_node2"><a xlink:href="classDynExpModule_1_1gRPCModuleData.html" target="_top" xlink:title=" ">
<polygon fill="white" stroke="black" points="30,-67.5 30,-97.5 188,-97.5 188,-67.5 30,-67.5"/>
<text text-anchor="start" x="38" y="-85.5" font-family="Helvetica,sans-Serif" font-size="10.00">DynExpModule::gRPCModule</text>
<text text-anchor="middle" x="109" y="-74.5" font-family="Helvetica,sans-Serif" font-size="10.00">Data&lt; gRPCServices... &gt;</text>
</a>
</g>
</g>
<!-- Node2&#45;&gt;Node1 -->
<g id="edge1" class="edge">
<title>Node2&#45;&gt;Node1</title>
<path fill="none" stroke="midnightblue" d="M109,-57.11C109,-48.15 109,-38.32 109,-30.58"/>
<polygon fill="midnightblue" stroke="midnightblue" points="105.5,-57.4 109,-67.4 112.5,-57.4 105.5,-57.4"/>
</g>
<!-- Node3 -->
<g id="node3" class="node">
<title>Node3</title>
<g id="a_node3"><a xlink:href="classDynExp_1_1ModuleDataBase.html" target="_top" xlink:title="Data structure to contain data which is synchronized in between different threads....">
<polygon fill="white" stroke="black" points="37.5,-134.5 37.5,-153.5 180.5,-153.5 180.5,-134.5 37.5,-134.5"/>
<text text-anchor="middle" x="109" y="-141.5" font-family="Helvetica,sans-Serif" font-size="10.00">DynExp::ModuleDataBase</text>
</a>
</g>
</g>
<!-- Node3&#45;&gt;Node2 -->
<g id="edge2" class="edge">
<title>Node3&#45;&gt;Node2</title>
<path fill="none" stroke="midnightblue" d="M109,-124.23C109,-115.59 109,-105.5 109,-97.52"/>
<polygon fill="midnightblue" stroke="midnightblue" points="105.5,-124.48 109,-134.48 112.5,-124.48 105.5,-124.48"/>
</g>
<!-- Node4 -->
<g id="node4" class="node">
<title>Node4</title>
<g id="a_node4"><a xlink:href="classUtil_1_1ISynchronizedPointerLockable.html" target="_top" xlink:title="Interface to allow synchronizing the access to derived classes between different threads by making th...">
<polygon fill="white" stroke="black" points="37.5,-190.5 37.5,-220.5 180.5,-220.5 180.5,-190.5 37.5,-190.5"/>
<text text-anchor="start" x="45.5" y="-208.5" font-family="Helvetica,sans-Serif" font-size="10.00">Util::ISynchronizedPointer</text>
<text text-anchor="middle" x="109" y="-197.5" font-family="Helvetica,sans-Serif" font-size="10.00">Lockable</text>
</a>
</g>
</g>
<!-- Node4&#45;&gt;Node3 -->
<g id="edge3" class="edge">
<title>Node4&#45;&gt;Node3</title>
<path fill="none" stroke="midnightblue" d="M109,-180.29C109,-170.86 109,-160.65 109,-153.66"/>
<polygon fill="midnightblue" stroke="midnightblue" points="105.5,-180.4 109,-190.4 112.5,-180.4 105.5,-180.4"/>
</g>
<!-- Node5 -->
<g id="node5" class="node">
<title>Node5</title>
<g id="a_node5"><a xlink:href="classUtil_1_1INonCopyable.html" target="_top" xlink:title="Interface to delete copy constructor and copy assignment operator and thus make derived classes non&#45;c...">
<polygon fill="white" stroke="black" points="55,-257.5 55,-276.5 163,-276.5 163,-257.5 55,-257.5"/>
<text text-anchor="middle" x="109" y="-264.5" font-family="Helvetica,sans-Serif" font-size="10.00">Util::INonCopyable</text>
</a>
</g>
</g>
<!-- Node5&#45;&gt;Node4 -->
<g id="edge4" class="edge">
<title>Node5&#45;&gt;Node4</title>
<path fill="none" stroke="midnightblue" d="M109,-247.23C109,-238.59 109,-228.5 109,-220.52"/>
<polygon fill="midnightblue" stroke="midnightblue" points="105.5,-247.48 109,-257.48 112.5,-247.48 105.5,-247.48"/>
</g>
</g>
</svg>
