<?xml version="1.0" encoding="UTF-8" standalone="no"?>
<!DOCTYPE svg PUBLIC "-//W3C//DTD SVG 1.1//EN"
 "http://www.w3.org/Graphics/SVG/1.1/DTD/svg11.dtd">
<!-- Generated by graphviz version 2.43.0 (0)
 -->
<!-- Title: DynExpHardware::SIPulseStreamerHardwareAdapterParams Pages: 1 -->
<svg width="214pt" height="352pt"
 viewBox="0.00 0.00 214.00 352.00" xmlns="http://www.w3.org/2000/svg" xmlns:xlink="http://www.w3.org/1999/xlink">
<g id="graph0" class="graph" transform="scale(1 1) rotate(0) translate(4 348)">
<title>DynExpHardware::SIPulseStreamerHardwareAdapterParams</title>
<polygon fill="white" stroke="transparent" points="-4,4 -4,-348 210,-348 210,4 -4,4"/>
<!-- Node1 -->
<g id="node1" class="node">
<title>Node1</title>
<g id="a_node1"><a xlink:title=" ">
<polygon fill="#bfbfbf" stroke="black" points="9,-0.5 9,-30.5 197,-30.5 197,-0.5 9,-0.5"/>
<text text-anchor="start" x="17" y="-18.5" font-family="Helvetica,sans-Serif" font-size="10.00">DynExpHardware::SIPulseStreamer</text>
<text text-anchor="middle" x="103" y="-7.5" font-family="Helvetica,sans-Serif" font-size="10.00">HardwareAdapterParams</text>
</a>
</g>
</g>
<!-- Node2 -->
<g id="node2" class="node">
<title>Node2</title>
<g id="a_node2"><a xlink:href="classDynExpHardware_1_1gRPCHardwareAdapterParams.html" target="_top" xlink:title=" ">
<polygon fill="white" stroke="black" points="13,-67.5 13,-108.5 193,-108.5 193,-67.5 13,-67.5"/>
<text text-anchor="start" x="21" y="-96.5" font-family="Helvetica,sans-Serif" font-size="10.00">DynExpHardware::gRPCHardware</text>
<text text-anchor="start" x="21" y="-85.5" font-family="Helvetica,sans-Serif" font-size="10.00">AdapterParams&lt; pulse_streamer</text>
<text text-anchor="middle" x="103" y="-74.5" font-family="Helvetica,sans-Serif" font-size="10.00">::PulseStreamer &gt;</text>
</a>
</g>
</g>
<!-- Node2&#45;&gt;Node1 -->
<g id="edge1" class="edge">
<title>Node2&#45;&gt;Node1</title>
<path fill="none" stroke="midnightblue" d="M103,-57.08C103,-48.01 103,-38.45 103,-30.89"/>
<polygon fill="midnightblue" stroke="midnightblue" points="99.5,-57.36 103,-67.36 106.5,-57.36 99.5,-57.36"/>
</g>
<!-- Node3 -->
<g id="node3" class="node">
<title>Node3</title>
<g id="a_node3"><a xlink:href="classDynExp_1_1HardwareAdapterParamsBase.html" target="_top" xlink:title="Parameter class for HardwareAdapterBase.">
<polygon fill="white" stroke="black" points="0,-145.5 0,-164.5 206,-164.5 206,-145.5 0,-145.5"/>
<text text-anchor="middle" x="103" y="-152.5" font-family="Helvetica,sans-Serif" font-size="10.00">DynExp::HardwareAdapterParamsBase</text>
</a>
</g>
</g>
<!-- Node3&#45;&gt;Node2 -->
<g id="edge2" class="edge">
<title>Node3&#45;&gt;Node2</title>
<path fill="none" stroke="midnightblue" d="M103,-135.04C103,-126.71 103,-116.94 103,-108.54"/>
<polygon fill="midnightblue" stroke="midnightblue" points="99.5,-135.23 103,-145.23 106.5,-135.23 99.5,-135.23"/>
</g>
<!-- Node4 -->
<g id="node4" class="node">
<title>Node4</title>
<g id="a_node4"><a xlink:href="classDynExp_1_1ParamsBase.html" target="_top" xlink:title="Abstract base class for object parameter classes. Each class derived from class Object must be accomp...">
<polygon fill="white" stroke="black" points="43,-201.5 43,-220.5 163,-220.5 163,-201.5 43,-201.5"/>
<text text-anchor="middle" x="103" y="-208.5" font-family="Helvetica,sans-Serif" font-size="10.00">DynExp::ParamsBase</text>
</a>
</g>
</g>
<!-- Node4&#45;&gt;Node3 -->
<g id="edge3" class="edge">
<title>Node4&#45;&gt;Node3</title>
<path fill="none" stroke="midnightblue" d="M103,-190.8C103,-181.91 103,-171.78 103,-164.75"/>
<polygon fill="midnightblue" stroke="midnightblue" points="99.5,-191.08 103,-201.08 106.5,-191.08 99.5,-191.08"/>
</g>
<!-- Node5 -->
<g id="node5" class="node">
<title>Node5</title>
<g id="a_node5"><a xlink:href="classUtil_1_1ISynchronizedPointerLockable.html" target="_top" xlink:title="Interface to allow synchronizing the access to derived classes between different threads by making th...">
<polygon fill="white" stroke="black" points="31.5,-257.5 31.5,-287.5 174.5,-287.5 174.5,-257.5 31.5,-257.5"/>
<text text-anchor="start" x="39.5" y="-275.5" font-family="Helvetica,sans-Serif" font-size="10.00">Util::ISynchronizedPointer</text>
<text text-anchor="middle" x="103" y="-264.5" font-family="Helvetica,sans-Serif" font-size="10.00">Lockable</text>
</a>
</g>
</g>
<!-- Node5&#45;&gt;Node4 -->
<g id="edge4" class="edge">
<title>Node5&#45;&gt;Node4</title>
<path fill="none" stroke="midnightblue" d="M103,-247.29C103,-237.86 103,-227.65 103,-220.66"/>
<polygon fill="midnightblue" stroke="midnightblue" points="99.5,-247.4 103,-257.4 106.5,-247.4 99.5,-247.4"/>
</g>
<!-- Node6 -->
<g id="node6" class="node">
<title>Node6</title>
<g id="a_node6"><a xlink:href="classUtil_1_1INonCopyable.html" target="_top" xlink:title="Interface to delete copy constructor and copy assignment operator and thus make derived classes non&#45;c...">
<polygon fill="white" stroke="black" points="49,-324.5 49,-343.5 157,-343.5 157,-324.5 49,-324.5"/>
<text text-anchor="middle" x="103" y="-331.5" font-family="Helvetica,sans-Serif" font-size="10.00">Util::INonCopyable</text>
</a>
</g>
</g>
<!-- Node6&#45;&gt;Node5 -->
<g id="edge5" class="edge">
<title>Node6&#45;&gt;Node5</title>
<path fill="none" stroke="midnightblue" d="M103,-314.23C103,-305.59 103,-295.5 103,-287.52"/>
<polygon fill="midnightblue" stroke="midnightblue" points="99.5,-314.48 103,-324.48 106.5,-314.48 99.5,-314.48"/>
</g>
</g>
</svg>
