<?xml version="1.0" encoding="UTF-8" standalone="no"?>
<!DOCTYPE svg PUBLIC "-//W3C//DTD SVG 1.1//EN"
 "http://www.w3.org/Graphics/SVG/1.1/DTD/svg11.dtd">
<!-- Generated by graphviz version 2.43.0 (0)
 -->
<!-- Title: DynExpInstr::InputPortData Pages: 1 -->
<svg width="320pt" height="386pt"
 viewBox="0.00 0.00 320.00 386.00" xmlns="http://www.w3.org/2000/svg" xmlns:xlink="http://www.w3.org/1999/xlink">
<g id="graph0" class="graph" transform="scale(1 1) rotate(0) translate(4 382)">
<title>DynExpInstr::InputPortData</title>
<polygon fill="white" stroke="transparent" points="-4,4 -4,-382 316,-382 316,4 -4,4"/>
<!-- Node1 -->
<g id="node1" class="node">
<title>Node1</title>
<g id="a_node1"><a xlink:title="Data class for InputPort.">
<polygon fill="#bfbfbf" stroke="black" points="81.5,-123.5 81.5,-142.5 230.5,-142.5 230.5,-123.5 81.5,-123.5"/>
<text text-anchor="middle" x="156" y="-130.5" font-family="Helvetica,sans-Serif" font-size="10.00">DynExpInstr::InputPortData</text>
</a>
</g>
</g>
<!-- Node6 -->
<g id="node6" class="node">
<title>Node6</title>
<g id="a_node6"><a xlink:href="classDynExpInstr_1_1AnalogInData.html" target="_top" xlink:title="Data class for AnalogIn.">
<polygon fill="white" stroke="black" points="0,-67.5 0,-86.5 148,-86.5 148,-67.5 0,-67.5"/>
<text text-anchor="middle" x="74" y="-74.5" font-family="Helvetica,sans-Serif" font-size="10.00">DynExpInstr::AnalogInData</text>
</a>
</g>
</g>
<!-- Node1&#45;&gt;Node6 -->
<g id="edge5" class="edge">
<title>Node1&#45;&gt;Node6</title>
<path fill="none" stroke="midnightblue" d="M134.17,-117.62C119.19,-107.76 99.8,-94.99 87.14,-86.65"/>
<polygon fill="midnightblue" stroke="midnightblue" points="132.55,-120.75 142.83,-123.32 136.4,-114.9 132.55,-120.75"/>
</g>
<!-- Node8 -->
<g id="node8" class="node">
<title>Node8</title>
<g id="a_node8"><a xlink:href="classDynExpInstr_1_1DigitalInData.html" target="_top" xlink:title="Data class for DigitalIn.">
<polygon fill="white" stroke="black" points="166,-67.5 166,-86.5 312,-86.5 312,-67.5 166,-67.5"/>
<text text-anchor="middle" x="239" y="-74.5" font-family="Helvetica,sans-Serif" font-size="10.00">DynExpInstr::DigitalInData</text>
</a>
</g>
</g>
<!-- Node1&#45;&gt;Node8 -->
<g id="edge7" class="edge">
<title>Node1&#45;&gt;Node8</title>
<path fill="none" stroke="midnightblue" d="M178.1,-117.62C193.26,-107.76 212.88,-94.99 225.7,-86.65"/>
<polygon fill="midnightblue" stroke="midnightblue" points="175.81,-114.94 169.34,-123.32 179.63,-120.8 175.81,-114.94"/>
</g>
<!-- Node2 -->
<g id="node2" class="node">
<title>Node2</title>
<g id="a_node2"><a xlink:href="classDynExpInstr_1_1DataStreamInstrumentData.html" target="_top" xlink:title="Data class for DataStreamInstrument.">
<polygon fill="white" stroke="black" points="47.5,-179.5 47.5,-198.5 264.5,-198.5 264.5,-179.5 47.5,-179.5"/>
<text text-anchor="middle" x="156" y="-186.5" font-family="Helvetica,sans-Serif" font-size="10.00">DynExpInstr::DataStreamInstrumentData</text>
</a>
</g>
</g>
<!-- Node2&#45;&gt;Node1 -->
<g id="edge1" class="edge">
<title>Node2&#45;&gt;Node1</title>
<path fill="none" stroke="midnightblue" d="M156,-168.8C156,-159.91 156,-149.78 156,-142.75"/>
<polygon fill="midnightblue" stroke="midnightblue" points="152.5,-169.08 156,-179.08 159.5,-169.08 152.5,-169.08"/>
</g>
<!-- Node3 -->
<g id="node3" class="node">
<title>Node3</title>
<g id="a_node3"><a xlink:href="classDynExp_1_1InstrumentDataBase.html" target="_top" xlink:title="Data structure to contain data which is synchronized in between different threads....">
<polygon fill="white" stroke="black" points="75.5,-235.5 75.5,-254.5 236.5,-254.5 236.5,-235.5 75.5,-235.5"/>
<text text-anchor="middle" x="156" y="-242.5" font-family="Helvetica,sans-Serif" font-size="10.00">DynExp::InstrumentDataBase</text>
</a>
</g>
</g>
<!-- Node3&#45;&gt;Node2 -->
<g id="edge2" class="edge">
<title>Node3&#45;&gt;Node2</title>
<path fill="none" stroke="midnightblue" d="M156,-224.8C156,-215.91 156,-205.78 156,-198.75"/>
<polygon fill="midnightblue" stroke="midnightblue" points="152.5,-225.08 156,-235.08 159.5,-225.08 152.5,-225.08"/>
</g>
<!-- Node4 -->
<g id="node4" class="node">
<title>Node4</title>
<g id="a_node4"><a xlink:href="classUtil_1_1ISynchronizedPointerLockable.html" target="_top" xlink:title="Interface to allow synchronizing the access to derived classes between different threads by making th...">
<polygon fill="white" stroke="black" points="84.5,-291.5 84.5,-321.5 227.5,-321.5 227.5,-291.5 84.5,-291.5"/>
<text text-anchor="start" x="92.5" y="-309.5" font-family="Helvetica,sans-Serif" font-size="10.00">Util::ISynchronizedPointer</text>
<text text-anchor="middle" x="156" y="-298.5" font-family="Helvetica,sans-Serif" font-size="10.00">Lockable</text>
</a>
</g>
</g>
<!-- Node4&#45;&gt;Node3 -->
<g id="edge3" class="edge">
<title>Node4&#45;&gt;Node3</title>
<path fill="none" stroke="midnightblue" d="M156,-281.29C156,-271.86 156,-261.65 156,-254.66"/>
<polygon fill="midnightblue" stroke="midnightblue" points="152.5,-281.4 156,-291.4 159.5,-281.4 152.5,-281.4"/>
</g>
<!-- Node5 -->
<g id="node5" class="node">
<title>Node5</title>
<g id="a_node5"><a xlink:href="classUtil_1_1INonCopyable.html" target="_top" xlink:title="Interface to delete copy constructor and copy assignment operator and thus make derived classes non&#45;c...">
<polygon fill="white" stroke="black" points="102,-358.5 102,-377.5 210,-377.5 210,-358.5 102,-358.5"/>
<text text-anchor="middle" x="156" y="-365.5" font-family="Helvetica,sans-Serif" font-size="10.00">Util::INonCopyable</text>
</a>
</g>
</g>
<!-- Node5&#45;&gt;Node4 -->
<g id="edge4" class="edge">
<title>Node5&#45;&gt;Node4</title>
<path fill="none" stroke="midnightblue" d="M156,-348.23C156,-339.59 156,-329.5 156,-321.52"/>
<polygon fill="midnightblue" stroke="midnightblue" points="152.5,-348.48 156,-358.48 159.5,-348.48 152.5,-348.48"/>
</g>
<!-- Node7 -->
<g id="node7" class="node">
<title>Node7</title>
<g id="a_node7"><a xlink:href="classDynExpInstr_1_1NIDAQAnalogInData.html" target="_top" xlink:title=" ">
<polygon fill="white" stroke="black" points="0,-0.5 0,-30.5 148,-30.5 148,-0.5 0,-0.5"/>
<text text-anchor="start" x="8" y="-18.5" font-family="Helvetica,sans-Serif" font-size="10.00">DynExpInstr::NIDAQAnalog</text>
<text text-anchor="middle" x="74" y="-7.5" font-family="Helvetica,sans-Serif" font-size="10.00">InData</text>
</a>
</g>
</g>
<!-- Node6&#45;&gt;Node7 -->
<g id="edge6" class="edge">
<title>Node6&#45;&gt;Node7</title>
<path fill="none" stroke="midnightblue" d="M74,-57.23C74,-48.59 74,-38.5 74,-30.52"/>
<polygon fill="midnightblue" stroke="midnightblue" points="70.5,-57.48 74,-67.48 77.5,-57.48 70.5,-57.48"/>
</g>
<!-- Node9 -->
<g id="node9" class="node">
<title>Node9</title>
<g id="a_node9"><a xlink:href="classDynExpInstr_1_1NIDAQDigitalInData.html" target="_top" xlink:title=" ">
<polygon fill="white" stroke="black" points="166,-0.5 166,-30.5 312,-30.5 312,-0.5 166,-0.5"/>
<text text-anchor="start" x="174" y="-18.5" font-family="Helvetica,sans-Serif" font-size="10.00">DynExpInstr::NIDAQDigital</text>
<text text-anchor="middle" x="239" y="-7.5" font-family="Helvetica,sans-Serif" font-size="10.00">InData</text>
</a>
</g>
</g>
<!-- Node8&#45;&gt;Node9 -->
<g id="edge8" class="edge">
<title>Node8&#45;&gt;Node9</title>
<path fill="none" stroke="midnightblue" d="M239,-57.23C239,-48.59 239,-38.5 239,-30.52"/>
<polygon fill="midnightblue" stroke="midnightblue" points="235.5,-57.48 239,-67.48 242.5,-57.48 235.5,-57.48"/>
</g>
</g>
</svg>
