<?xml version="1.0" encoding="UTF-8" standalone="no"?>
<!DOCTYPE svg PUBLIC "-//W3C//DTD SVG 1.1//EN"
 "http://www.w3.org/Graphics/SVG/1.1/DTD/svg11.dtd">
<!-- Generated by graphviz version 2.43.0 (0)
 -->
<!-- Title: DynExpInstr::OutputPortData Pages: 1 -->
<svg width="338pt" height="434pt"
 viewBox="0.00 0.00 337.50 434.00" xmlns="http://www.w3.org/2000/svg" xmlns:xlink="http://www.w3.org/1999/xlink">
<g id="graph0" class="graph" transform="scale(1 1) rotate(0) translate(4 430)">
<title>DynExpInstr::OutputPortData</title>
<!-- Node1 -->
<g id="Node000001" class="node">
<title>Node1</title>
<g id="a_Node000001"><a xlink:title="Data class for OutputPort.">
<polygon fill="#999999" stroke="#666666" points="244,-140 86,-140 86,-121 244,-121 244,-140"/>
<text text-anchor="middle" x="165" y="-128" font-family="Helvetica,sans-Serif" font-size="10.00">DynExpInstr::OutputPortData</text>
</a>
</g>
</g>
<!-- Node7 -->
<g id="Node000007" class="node">
<title>Node7</title>
<g id="a_Node000007"><a xlink:href="classDynExpInstr_1_1AnalogOutData.html" target="_top" xlink:title="Data class for AnalogOut.">
<polygon fill="white" stroke="#666666" points="156,-85 0,-85 0,-66 156,-66 156,-85"/>
<text text-anchor="middle" x="78" y="-73" font-family="Helvetica,sans-Serif" font-size="10.00">DynExpInstr::AnalogOutData</text>
</a>
</g>
</g>
<!-- Node1&#45;&gt;Node7 -->
<g id="edge6_Node000001_Node000007" class="edge">
<title>Node1&#45;&gt;Node7</title>
<g id="a_edge6_Node000001_Node000007"><a xlink:title=" ">
<path fill="none" stroke="#63b8ff" d="M142.34,-115.7C126.49,-106.04 105.81,-93.44 92.23,-85.17"/>
<polygon fill="#63b8ff" stroke="#63b8ff" points="140.66,-118.77 151.02,-120.98 144.3,-112.79 140.66,-118.77"/>
</a>
</g>
</g>
<!-- Node9 -->
<g id="Node000009" class="node">
<title>Node9</title>
<g id="a_Node000009"><a xlink:href="classDynExpInstr_1_1DigitalOutData.html" target="_top" xlink:title="Data class for DigitalOut.">
<polygon fill="white" stroke="#666666" points="329.5,-85 174.5,-85 174.5,-66 329.5,-66 329.5,-85"/>
<text text-anchor="middle" x="252" y="-73" font-family="Helvetica,sans-Serif" font-size="10.00">DynExpInstr::DigitalOutData</text>
</a>
</g>
</g>
<!-- Node1&#45;&gt;Node9 -->
<g id="edge8_Node000001_Node000009" class="edge">
<title>Node1&#45;&gt;Node9</title>
<g id="a_edge8_Node000001_Node000009"><a xlink:title=" ">
<path fill="none" stroke="#63b8ff" d="M187.66,-115.7C203.51,-106.04 224.19,-93.44 237.77,-85.17"/>
<polygon fill="#63b8ff" stroke="#63b8ff" points="185.7,-112.79 178.98,-120.98 189.34,-118.77 185.7,-112.79"/>
</a>
</g>
</g>
<!-- Node2 -->
<g id="Node000002" class="node">
<title>Node2</title>
<g id="a_Node000002"><a xlink:href="classDynExpInstr_1_1FunctionGeneratorData.html" target="_top" xlink:title="Data class for FunctionGenerator.">
<polygon fill="white" stroke="#666666" points="262.5,-195 67.5,-195 67.5,-176 262.5,-176 262.5,-195"/>
<text text-anchor="middle" x="165" y="-183" font-family="Helvetica,sans-Serif" font-size="10.00">DynExpInstr::FunctionGeneratorData</text>
</a>
</g>
</g>
<!-- Node2&#45;&gt;Node1 -->
<g id="edge1_Node000001_Node000002" class="edge">
<title>Node2&#45;&gt;Node1</title>
<g id="a_edge1_Node000001_Node000002"><a xlink:title=" ">
<path fill="none" stroke="#63b8ff" d="M165,-165.66C165,-156.93 165,-146.99 165,-140.09"/>
<polygon fill="#63b8ff" stroke="#63b8ff" points="161.5,-165.75 165,-175.75 168.5,-165.75 161.5,-165.75"/>
</a>
</g>
</g>
<!-- Node3 -->
<g id="Node000003" class="node">
<title>Node3</title>
<g id="a_Node000003"><a xlink:href="classDynExpInstr_1_1DataStreamInstrumentData.html" target="_top" xlink:title="Data class for DataStreamInstrument.">
<polygon fill="white" stroke="#666666" points="273.5,-250 56.5,-250 56.5,-231 273.5,-231 273.5,-250"/>
<text text-anchor="middle" x="165" y="-238" font-family="Helvetica,sans-Serif" font-size="10.00">DynExpInstr::DataStreamInstrumentData</text>
</a>
</g>
</g>
<!-- Node3&#45;&gt;Node2 -->
<g id="edge2_Node000002_Node000003" class="edge">
<title>Node3&#45;&gt;Node2</title>
<g id="a_edge2_Node000002_Node000003"><a xlink:title=" ">
<path fill="none" stroke="#63b8ff" d="M165,-220.66C165,-211.93 165,-201.99 165,-195.09"/>
<polygon fill="#63b8ff" stroke="#63b8ff" points="161.5,-220.75 165,-230.75 168.5,-220.75 161.5,-220.75"/>
</a>
</g>
</g>
<!-- Node4 -->
<g id="Node000004" class="node">
<title>Node4</title>
<g id="a_Node000004"><a xlink:href="classDynExp_1_1InstrumentDataBase.html" target="_top" xlink:title="Data structure to contain data which is synchronized in between different threads....">
<polygon fill="white" stroke="#666666" points="245.5,-305 84.5,-305 84.5,-286 245.5,-286 245.5,-305"/>
<text text-anchor="middle" x="165" y="-293" font-family="Helvetica,sans-Serif" font-size="10.00">DynExp::InstrumentDataBase</text>
</a>
</g>
</g>
<!-- Node4&#45;&gt;Node3 -->
<g id="edge3_Node000003_Node000004" class="edge">
<title>Node4&#45;&gt;Node3</title>
<g id="a_edge3_Node000003_Node000004"><a xlink:title=" ">
<path fill="none" stroke="#63b8ff" d="M165,-275.66C165,-266.93 165,-256.99 165,-250.09"/>
<polygon fill="#63b8ff" stroke="#63b8ff" points="161.5,-275.75 165,-285.75 168.5,-275.75 161.5,-275.75"/>
</a>
</g>
</g>
<!-- Node5 -->
<g id="Node000005" class="node">
<title>Node5</title>
<g id="a_Node000005"><a xlink:href="classUtil_1_1ISynchronizedPointerLockable.html" target="_top" xlink:title="Interface to allow synchronizing the access to derived classes between different threads by making th...">
<polygon fill="white" stroke="#666666" points="236.5,-371 93.5,-371 93.5,-341 236.5,-341 236.5,-371"/>
<text text-anchor="start" x="101.5" y="-359" font-family="Helvetica,sans-Serif" font-size="10.00">Util::ISynchronizedPointer</text>
<text text-anchor="middle" x="165" y="-348" font-family="Helvetica,sans-Serif" font-size="10.00">Lockable</text>
</a>
</g>
</g>
<!-- Node5&#45;&gt;Node4 -->
<g id="edge4_Node000004_Node000005" class="edge">
<title>Node5&#45;&gt;Node4</title>
<g id="a_edge4_Node000004_Node000005"><a xlink:title=" ">
<path fill="none" stroke="#63b8ff" d="M165,-330.75C165,-321.72 165,-312.03 165,-305.27"/>
<polygon fill="#63b8ff" stroke="#63b8ff" points="161.5,-330.84 165,-340.84 168.5,-330.84 161.5,-330.84"/>
</a>
</g>
</g>
<!-- Node6 -->
<g id="Node000006" class="node">
<title>Node6</title>
<g id="a_Node000006"><a xlink:href="classUtil_1_1INonCopyable.html" target="_top" xlink:title="Interface to delete copy constructor and copy assignment operator and thus make derived classes non&#45;c...">
<polygon fill="white" stroke="#666666" points="219,-426 111,-426 111,-407 219,-407 219,-426"/>
<text text-anchor="middle" x="165" y="-414" font-family="Helvetica,sans-Serif" font-size="10.00">Util::INonCopyable</text>
</a>
</g>
</g>
<!-- Node6&#45;&gt;Node5 -->
<g id="edge5_Node000005_Node000006" class="edge">
<title>Node6&#45;&gt;Node5</title>
<g id="a_edge5_Node000005_Node000006"><a xlink:title=" ">
<path fill="none" stroke="#63b8ff" d="M165,-396.65C165,-388.36 165,-378.78 165,-371.11"/>
<polygon fill="#63b8ff" stroke="#63b8ff" points="161.5,-396.87 165,-406.87 168.5,-396.87 161.5,-396.87"/>
</a>
</g>
</g>
<!-- Node8 -->
<g id="Node000008" class="node">
<title>Node8</title>
<g id="a_Node000008"><a xlink:href="classDynExpInstr_1_1NIDAQAnalogOutData.html" target="_top" xlink:title=" ">
<polygon fill="white" stroke="#666666" points="152,-30 4,-30 4,0 152,0 152,-30"/>
<text text-anchor="start" x="12" y="-18" font-family="Helvetica,sans-Serif" font-size="10.00">DynExpInstr::NIDAQAnalog</text>
<text text-anchor="middle" x="78" y="-7" font-family="Helvetica,sans-Serif" font-size="10.00">OutData</text>
</a>
</g>
</g>
<!-- Node7&#45;&gt;Node8 -->
<g id="edge7_Node000007_Node000008" class="edge">
<title>Node7&#45;&gt;Node8</title>
<g id="a_edge7_Node000007_Node000008"><a xlink:title=" ">
<path fill="none" stroke="#63b8ff" d="M78,-55.65C78,-47.36 78,-37.78 78,-30.11"/>
<polygon fill="#63b8ff" stroke="#63b8ff" points="74.5,-55.87 78,-65.87 81.5,-55.87 74.5,-55.87"/>
</a>
</g>
</g>
<!-- Node10 -->
<g id="Node000010" class="node">
<title>Node10</title>
<g id="a_Node000010"><a xlink:href="classDynExpInstr_1_1NIDAQDigitalOutData.html" target="_top" xlink:title=" ">
<polygon fill="white" stroke="#666666" points="325,-30 179,-30 179,0 325,0 325,-30"/>
<text text-anchor="start" x="187" y="-18" font-family="Helvetica,sans-Serif" font-size="10.00">DynExpInstr::NIDAQDigital</text>
<text text-anchor="middle" x="252" y="-7" font-family="Helvetica,sans-Serif" font-size="10.00">OutData</text>
</a>
</g>
</g>
<!-- Node9&#45;&gt;Node10 -->
<g id="edge9_Node000009_Node000010" class="edge">
<title>Node9&#45;&gt;Node10</title>
<g id="a_edge9_Node000009_Node000010"><a xlink:title=" ">
<path fill="none" stroke="#63b8ff" d="M252,-55.65C252,-47.36 252,-37.78 252,-30.11"/>
<polygon fill="#63b8ff" stroke="#63b8ff" points="248.5,-55.87 252,-65.87 255.5,-55.87 248.5,-55.87"/>
</a>
</g>
</g>
</g>
</svg>
