<?xml version="1.0" encoding="UTF-8" standalone="no"?>
<!DOCTYPE svg PUBLIC "-//W3C//DTD SVG 1.1//EN"
 "http://www.w3.org/Graphics/SVG/1.1/DTD/svg11.dtd">
<!-- Generated by graphviz version 2.43.0 (0)
 -->
<!-- Title: DynExp::ModuleConfiguratorBase Pages: 1 -->
<svg width="1294pt" height="717pt"
 viewBox="0.00 0.00 1294.00 717.00" xmlns="http://www.w3.org/2000/svg" xmlns:xlink="http://www.w3.org/1999/xlink">
<g id="graph0" class="graph" transform="scale(1 1) rotate(0) translate(4 713)">
<title>DynExp::ModuleConfiguratorBase</title>
<!-- Node1 -->
<g id="Node000001" class="node">
<title>Node1</title>
<g id="a_Node000001"><a xlink:title="Configurator class for ModuleBase.">
<polygon fill="#999999" stroke="#666666" points="593,-235.5 413,-235.5 413,-216.5 593,-216.5 593,-235.5"/>
<text text-anchor="middle" x="503" y="-223.5" font-family="Helvetica,sans-Serif" font-size="10.00">DynExp::ModuleConfiguratorBase</text>
</a>
</g>
</g>
<!-- Node4 -->
<g id="Node000004" class="node">
<title>Node4</title>
<g id="a_Node000004"><a xlink:href="classDynExpModule_1_1gRPCModuleConfigurator.html" target="_top" xlink:title=" ">
<polygon fill="white" stroke="#666666" points="811.5,-554 636.5,-554 636.5,-524 811.5,-524 811.5,-554"/>
<text text-anchor="start" x="644.5" y="-542" font-family="Helvetica,sans-Serif" font-size="10.00">DynExpModule::gRPCModule</text>
<text text-anchor="middle" x="724" y="-531" font-family="Helvetica,sans-Serif" font-size="10.00">Configurator&lt; gRPCServices... &gt;</text>
</a>
</g>
</g>
<!-- Node1&#45;&gt;Node4 -->
<g id="edge3_Node000001_Node000004" class="edge">
<title>Node1&#45;&gt;Node4</title>
<g id="a_edge3_Node000001_Node000004"><a xlink:title=" ">
<path fill="none" stroke="#63b8ff" d="M516.58,-243.98C555.91,-300.19 676.05,-471.9 712.44,-523.91"/>
<polygon fill="#63b8ff" stroke="#63b8ff" points="519.4,-241.9 510.79,-235.71 513.66,-245.91 519.4,-241.9"/>
</a>
</g>
</g>
<!-- Node12 -->
<g id="Node000012" class="node">
<title>Node12</title>
<g id="a_Node000012"><a xlink:href="classDynExp_1_1QModuleConfiguratorBase.html" target="_top" xlink:title="Configurator class for QModuleBase.">
<polygon fill="white" stroke="#666666" points="818,-278.5 630,-278.5 630,-259.5 818,-259.5 818,-278.5"/>
<text text-anchor="middle" x="724" y="-266.5" font-family="Helvetica,sans-Serif" font-size="10.00">DynExp::QModuleConfiguratorBase</text>
</a>
</g>
</g>
<!-- Node1&#45;&gt;Node12 -->
<g id="edge11_Node000001_Node000012" class="edge">
<title>Node1&#45;&gt;Node12</title>
<g id="a_edge11_Node000001_Node000012"><a xlink:title=" ">
<path fill="none" stroke="#63b8ff" d="M562.68,-237.52C597.66,-244.39 641.53,-253 674.53,-259.48"/>
<polygon fill="#63b8ff" stroke="#63b8ff" points="563.09,-234.04 552.6,-235.54 561.74,-240.9 563.09,-234.04"/>
</a>
</g>
</g>
<!-- Node24 -->
<g id="Node000024" class="node">
<title>Node24</title>
<g id="a_Node000024"><a xlink:href="classDynExpModule_1_1ArbitraryFunctionFromCSVConfigurator.html" target="_top" xlink:title=" ">
<polygon fill="white" stroke="#666666" points="814,-241 634,-241 634,-211 814,-211 814,-241"/>
<text text-anchor="start" x="642" y="-229" font-family="Helvetica,sans-Serif" font-size="10.00">DynExpModule::ArbitraryFunction</text>
<text text-anchor="middle" x="724" y="-218" font-family="Helvetica,sans-Serif" font-size="10.00">FromCSVConfigurator</text>
</a>
</g>
</g>
<!-- Node1&#45;&gt;Node24 -->
<g id="edge23_Node000001_Node000024" class="edge">
<title>Node1&#45;&gt;Node24</title>
<g id="a_edge23_Node000001_Node000024"><a xlink:title=" ">
<path fill="none" stroke="#63b8ff" d="M603.18,-226C613.33,-226 623.61,-226 633.65,-226"/>
<polygon fill="#63b8ff" stroke="#63b8ff" points="603.08,-222.5 593.08,-226 603.08,-229.5 603.08,-222.5"/>
</a>
</g>
</g>
<!-- Node25 -->
<g id="Node000025" class="node">
<title>Node25</title>
<g id="a_Node000025"><a xlink:href="classDynExpModule_1_1StreamManipulatorConfigurator.html" target="_top" xlink:title="Configurator class for StreamManipulator.">
<polygon fill="white" stroke="#666666" points="819,-193 629,-193 629,-163 819,-163 819,-193"/>
<text text-anchor="start" x="637" y="-181" font-family="Helvetica,sans-Serif" font-size="10.00">DynExpModule::StreamManipulator</text>
<text text-anchor="middle" x="724" y="-170" font-family="Helvetica,sans-Serif" font-size="10.00">Configurator</text>
</a>
</g>
</g>
<!-- Node1&#45;&gt;Node25 -->
<g id="edge24_Node000001_Node000025" class="edge">
<title>Node1&#45;&gt;Node25</title>
<g id="a_edge24_Node000001_Node000025"><a xlink:title=" ">
<path fill="none" stroke="#63b8ff" d="M557.54,-214.26C586.77,-207.86 623.27,-199.86 654.55,-193"/>
<polygon fill="#63b8ff" stroke="#63b8ff" points="556.55,-210.9 547.53,-216.46 558.05,-217.74 556.55,-210.9"/>
</a>
</g>
</g>
<!-- Node26 -->
<g id="Node000026" class="node">
<title>Node26</title>
<g id="a_Node000026"><a xlink:href="classDynExpModule_1_1gRPCModuleConfigurator.html" target="_top" xlink:title="Configurator class for gRPCModule.">
<polygon fill="white" stroke="#666666" points="807,-145 641,-145 641,-115 807,-115 807,-145"/>
<text text-anchor="start" x="649" y="-133" font-family="Helvetica,sans-Serif" font-size="10.00">DynExpModule::gRPCModule</text>
<text text-anchor="middle" x="724" y="-122" font-family="Helvetica,sans-Serif" font-size="10.00">Configurator&lt; gRPCServices &gt;</text>
</a>
</g>
</g>
<!-- Node1&#45;&gt;Node26 -->
<g id="edge25_Node000001_Node000026" class="edge">
<title>Node1&#45;&gt;Node26</title>
<g id="a_edge25_Node000001_Node000026"><a xlink:title=" ">
<path fill="none" stroke="#63b8ff" d="M526.07,-210.8C550.33,-194.68 590.94,-169.48 629,-154 637.19,-150.67 645.98,-147.69 654.77,-145.07"/>
<polygon fill="#63b8ff" stroke="#63b8ff" points="523.95,-208 517.61,-216.49 527.86,-213.81 523.95,-208"/>
</a>
</g>
</g>
<!-- Node2 -->
<g id="Node000002" class="node">
<title>Node2</title>
<g id="a_Node000002"><a xlink:href="classDynExp_1_1RunnableObjectConfigurator.html" target="_top" xlink:title="Configurator class for RunnableObject.">
<polygon fill="white" stroke="#666666" points="377,-235.5 180,-235.5 180,-216.5 377,-216.5 377,-235.5"/>
<text text-anchor="middle" x="278.5" y="-223.5" font-family="Helvetica,sans-Serif" font-size="10.00">DynExp::RunnableObjectConfigurator</text>
</a>
</g>
</g>
<!-- Node2&#45;&gt;Node1 -->
<g id="edge1_Node000001_Node000002" class="edge">
<title>Node2&#45;&gt;Node1</title>
<g id="a_edge1_Node000001_Node000002"><a xlink:title=" ">
<path fill="none" stroke="#63b8ff" d="M387.18,-226C395.79,-226 404.44,-226 412.9,-226"/>
<polygon fill="#63b8ff" stroke="#63b8ff" points="387.09,-222.5 377.09,-226 387.09,-229.5 387.09,-222.5"/>
</a>
</g>
</g>
<!-- Node3 -->
<g id="Node000003" class="node">
<title>Node3</title>
<g id="a_Node000003"><a xlink:href="classDynExp_1_1ConfiguratorBase.html" target="_top" xlink:title="The configurator classes have the task to generate parameter objects (refer to DynExp::ParamsBase) of...">
<polygon fill="white" stroke="#666666" points="144,-235.5 0,-235.5 0,-216.5 144,-216.5 144,-235.5"/>
<text text-anchor="middle" x="72" y="-223.5" font-family="Helvetica,sans-Serif" font-size="10.00">DynExp::ConfiguratorBase</text>
</a>
</g>
</g>
<!-- Node3&#45;&gt;Node2 -->
<g id="edge2_Node000002_Node000003" class="edge">
<title>Node3&#45;&gt;Node2</title>
<g id="a_edge2_Node000002_Node000003"><a xlink:title=" ">
<path fill="none" stroke="#63b8ff" d="M154.36,-226C162.76,-226 171.35,-226 179.89,-226"/>
<polygon fill="#63b8ff" stroke="#63b8ff" points="154.24,-222.5 144.24,-226 154.24,-229.5 154.24,-222.5"/>
</a>
</g>
</g>
<!-- Node5 -->
<g id="Node000005" class="node">
<title>Node5</title>
<g id="a_Node000005"><a xlink:href="classDynExpModule_1_1NetworkDataStreamInstrumentConfigurator.html" target="_top" xlink:title=" ">
<polygon fill="white" stroke="#666666" points="1036,-618.5 871,-618.5 871,-577.5 1036,-577.5 1036,-618.5"/>
<text text-anchor="start" x="879" y="-606.5" font-family="Helvetica,sans-Serif" font-size="10.00">DynExpModule::NetworkData</text>
<text text-anchor="start" x="879" y="-595.5" font-family="Helvetica,sans-Serif" font-size="10.00">StreamInstrumentConfigurator</text>
<text text-anchor="middle" x="953.5" y="-584.5" font-family="Helvetica,sans-Serif" font-size="10.00">&lt; gRPCServices... &gt;</text>
</a>
</g>
</g>
<!-- Node4&#45;&gt;Node5 -->
<g id="edge4_Node000004_Node000005" class="edge">
<title>Node4&#45;&gt;Node5</title>
<g id="a_edge4_Node000004_Node000005"><a xlink:title=" ">
<path fill="none" stroke="#63b8ff" d="M792.84,-556.59C818.09,-563.14 846.96,-570.63 873.15,-577.42"/>
<polygon fill="#63b8ff" stroke="#63b8ff" points="793.55,-553.16 783,-554.04 791.8,-559.94 793.55,-553.16"/>
</a>
</g>
</g>
<!-- Node11 -->
<g id="Node000011" class="node">
<title>Node11</title>
<g id="a_Node000011"><a xlink:href="classDynExpModule_1_1NetworkDataStreamInstrumentConfigurator.html" target="_top" xlink:title=" ">
<polygon fill="white" stroke="#666666" points="1036,-559.5 871,-559.5 871,-518.5 1036,-518.5 1036,-559.5"/>
<text text-anchor="start" x="879" y="-547.5" font-family="Helvetica,sans-Serif" font-size="10.00">DynExpModule::NetworkData</text>
<text text-anchor="start" x="879" y="-536.5" font-family="Helvetica,sans-Serif" font-size="10.00">StreamInstrumentConfigurator</text>
<text text-anchor="middle" x="953.5" y="-525.5" font-family="Helvetica,sans-Serif" font-size="10.00">&lt; gRPCServices &gt;</text>
</a>
</g>
</g>
<!-- Node4&#45;&gt;Node11 -->
<g id="edge10_Node000004_Node000011" class="edge">
<title>Node4&#45;&gt;Node11</title>
<g id="a_edge10_Node000004_Node000011"><a xlink:title=" ">
<path fill="none" stroke="#63b8ff" d="M821.78,-539C838.16,-539 855.02,-539 870.95,-539"/>
<polygon fill="#63b8ff" stroke="#63b8ff" points="821.66,-535.5 811.66,-539 821.66,-542.5 821.66,-535.5"/>
</a>
</g>
</g>
<!-- Node6 -->
<g id="Node000006" class="node">
<title>Node6</title>
<g id="a_Node000006"><a xlink:href="classDynExpModule_1_1NetworkAnalogInConfigurator.html" target="_top" xlink:title=" ">
<polygon fill="white" stroke="#666666" points="1274.5,-709 1099.5,-709 1099.5,-679 1274.5,-679 1274.5,-709"/>
<text text-anchor="start" x="1107.5" y="-697" font-family="Helvetica,sans-Serif" font-size="10.00">DynExpModule::NetworkAnalog</text>
<text text-anchor="middle" x="1187" y="-686" font-family="Helvetica,sans-Serif" font-size="10.00">InConfigurator&lt; gRPCServices &gt;</text>
</a>
</g>
</g>
<!-- Node5&#45;&gt;Node6 -->
<g id="edge5_Node000005_Node000006" class="edge">
<title>Node5&#45;&gt;Node6</title>
<g id="a_edge5_Node000005_Node000006"><a xlink:title=" ">
<path fill="none" stroke="#63b8ff" d="M995.85,-623.86C1021.58,-639.03 1055.79,-657.6 1088,-670 1096.66,-673.33 1105.94,-676.32 1115.21,-678.95"/>
<polygon fill="#63b8ff" stroke="#63b8ff" points="997.5,-620.76 987.12,-618.64 993.91,-626.78 997.5,-620.76"/>
</a>
</g>
</g>
<!-- Node7 -->
<g id="Node000007" class="node">
<title>Node7</title>
<g id="a_Node000007"><a xlink:href="classDynExpModule_1_1NetworkAnalogOutConfigurator.html" target="_top" xlink:title=" ">
<polygon fill="white" stroke="#666666" points="1278.5,-661 1095.5,-661 1095.5,-631 1278.5,-631 1278.5,-661"/>
<text text-anchor="start" x="1103.5" y="-649" font-family="Helvetica,sans-Serif" font-size="10.00">DynExpModule::NetworkAnalog</text>
<text text-anchor="middle" x="1187" y="-638" font-family="Helvetica,sans-Serif" font-size="10.00">OutConfigurator&lt; gRPCServices &gt;</text>
</a>
</g>
</g>
<!-- Node5&#45;&gt;Node7 -->
<g id="edge6_Node000005_Node000007" class="edge">
<title>Node5&#45;&gt;Node7</title>
<g id="a_edge6_Node000005_Node000007"><a xlink:title=" ">
<path fill="none" stroke="#63b8ff" d="M1045.99,-616.97C1068.45,-621.63 1092.18,-626.55 1113.59,-630.99"/>
<polygon fill="#63b8ff" stroke="#63b8ff" points="1046.62,-613.53 1036.12,-614.92 1045.2,-620.38 1046.62,-613.53"/>
</a>
</g>
</g>
<!-- Node8 -->
<g id="Node000008" class="node">
<title>Node8</title>
<g id="a_Node000008"><a xlink:href="classDynExpModule_1_1NetworkDigitalInConfigurator.html" target="_top" xlink:title=" ">
<polygon fill="white" stroke="#666666" points="1274.5,-613 1099.5,-613 1099.5,-583 1274.5,-583 1274.5,-613"/>
<text text-anchor="start" x="1107.5" y="-601" font-family="Helvetica,sans-Serif" font-size="10.00">DynExpModule::NetworkDigital</text>
<text text-anchor="middle" x="1187" y="-590" font-family="Helvetica,sans-Serif" font-size="10.00">InConfigurator&lt; gRPCServices &gt;</text>
</a>
</g>
</g>
<!-- Node5&#45;&gt;Node8 -->
<g id="edge7_Node000005_Node000008" class="edge">
<title>Node5&#45;&gt;Node8</title>
<g id="a_edge7_Node000005_Node000008"><a xlink:title=" ">
<path fill="none" stroke="#63b8ff" d="M1046.29,-598C1063.74,-598 1081.95,-598 1099.23,-598"/>
<polygon fill="#63b8ff" stroke="#63b8ff" points="1046.12,-594.5 1036.12,-598 1046.12,-601.5 1046.12,-594.5"/>
</a>
</g>
</g>
<!-- Node9 -->
<g id="Node000009" class="node">
<title>Node9</title>
<g id="a_Node000009"><a xlink:href="classDynExpModule_1_1NetworkDigitalOutConfigurator.html" target="_top" xlink:title=" ">
<polygon fill="white" stroke="#666666" points="1278.5,-565 1095.5,-565 1095.5,-535 1278.5,-535 1278.5,-565"/>
<text text-anchor="start" x="1103.5" y="-553" font-family="Helvetica,sans-Serif" font-size="10.00">DynExpModule::NetworkDigital</text>
<text text-anchor="middle" x="1187" y="-542" font-family="Helvetica,sans-Serif" font-size="10.00">OutConfigurator&lt; gRPCServices &gt;</text>
</a>
</g>
</g>
<!-- Node5&#45;&gt;Node9 -->
<g id="edge8_Node000005_Node000009" class="edge">
<title>Node5&#45;&gt;Node9</title>
<g id="a_edge8_Node000005_Node000009"><a xlink:title=" ">
<path fill="none" stroke="#63b8ff" d="M1045.99,-579.03C1068.45,-574.37 1092.18,-569.45 1113.59,-565.01"/>
<polygon fill="#63b8ff" stroke="#63b8ff" points="1045.2,-575.62 1036.12,-581.08 1046.62,-582.47 1045.2,-575.62"/>
</a>
</g>
</g>
<!-- Node10 -->
<g id="Node000010" class="node">
<title>Node10</title>
<g id="a_Node000010"><a xlink:href="classDynExpModule_1_1NetworkTimeTaggerConfigurator.html" target="_top" xlink:title=" ">
<polygon fill="white" stroke="#666666" points="1286,-517 1088,-517 1088,-487 1286,-487 1286,-517"/>
<text text-anchor="start" x="1096" y="-505" font-family="Helvetica,sans-Serif" font-size="10.00">DynExpModule::NetworkTime</text>
<text text-anchor="middle" x="1187" y="-494" font-family="Helvetica,sans-Serif" font-size="10.00">TaggerConfigurator&lt; gRPCServices &gt;</text>
</a>
</g>
</g>
<!-- Node5&#45;&gt;Node10 -->
<g id="edge9_Node000005_Node000010" class="edge">
<title>Node5&#45;&gt;Node10</title>
<g id="a_edge9_Node000005_Node000010"><a xlink:title=" ">
<path fill="none" stroke="#63b8ff" d="M1045.41,-573.01C1047.67,-571.73 1049.87,-570.4 1052,-569 1072.83,-555.31 1066.84,-539.18 1088,-526 1093.58,-522.53 1099.62,-519.56 1105.88,-517.02"/>
<polygon fill="#63b8ff" stroke="#63b8ff" points="1043.76,-569.92 1036.47,-577.61 1046.96,-576.14 1043.76,-569.92"/>
</a>
</g>
</g>
<!-- Node13 -->
<g id="Node000013" class="node">
<title>Node13</title>
<g id="a_Node000013"><a xlink:href="classDynExpModule_1_1ImageViewer_1_1ImageViewerConfigurator.html" target="_top" xlink:title=" ">
<polygon fill="white" stroke="#666666" points="1034,-500 873,-500 873,-470 1034,-470 1034,-500"/>
<text text-anchor="start" x="881" y="-488" font-family="Helvetica,sans-Serif" font-size="10.00">DynExpModule::ImageViewer</text>
<text text-anchor="middle" x="953.5" y="-477" font-family="Helvetica,sans-Serif" font-size="10.00">::ImageViewerConfigurator</text>
</a>
</g>
</g>
<!-- Node12&#45;&gt;Node13 -->
<g id="edge12_Node000012_Node000013" class="edge">
<title>Node12&#45;&gt;Node13</title>
<g id="a_edge12_Node000012_Node000013"><a xlink:title=" ">
<path fill="none" stroke="#63b8ff" d="M732.5,-288.5C748.62,-327.66 790.39,-415.99 855,-461 860.44,-464.79 866.41,-467.98 872.63,-470.67"/>
<polygon fill="#63b8ff" stroke="#63b8ff" points="735.6,-286.82 728.64,-278.83 729.1,-289.42 735.6,-286.82"/>
</a>
</g>
</g>
<!-- Node14 -->
<g id="Node000014" class="node">
<title>Node14</title>
<g id="a_Node000014"><a xlink:href="classDynExpModule_1_1InputPortReaderConfigurator.html" target="_top" xlink:title=" ">
<polygon fill="white" stroke="#666666" points="1041,-452 866,-452 866,-422 1041,-422 1041,-452"/>
<text text-anchor="start" x="874" y="-440" font-family="Helvetica,sans-Serif" font-size="10.00">DynExpModule::InputPortReader</text>
<text text-anchor="middle" x="953.5" y="-429" font-family="Helvetica,sans-Serif" font-size="10.00">Configurator</text>
</a>
</g>
</g>
<!-- Node12&#45;&gt;Node14 -->
<g id="edge13_Node000012_Node000014" class="edge">
<title>Node12&#45;&gt;Node14</title>
<g id="a_edge13_Node000012_Node000014"><a xlink:title=" ">
<path fill="none" stroke="#63b8ff" d="M736.27,-287.41C756.21,-318.35 800.77,-380.58 855,-413 860.76,-416.44 866.99,-419.4 873.43,-421.92"/>
<polygon fill="#63b8ff" stroke="#63b8ff" points="739.18,-285.46 730.89,-278.87 733.26,-289.2 739.18,-285.46"/>
</a>
</g>
</g>
<!-- Node15 -->
<g id="Node000015" class="node">
<title>Node15</title>
<g id="a_Node000015"><a xlink:href="classDynExpModule_1_1LockinAmplifierControlConfigurator.html" target="_top" xlink:title=" ">
<polygon fill="white" stroke="#666666" points="1039.5,-404 867.5,-404 867.5,-374 1039.5,-374 1039.5,-404"/>
<text text-anchor="start" x="875.5" y="-392" font-family="Helvetica,sans-Serif" font-size="10.00">DynExpModule::LockinAmplifier</text>
<text text-anchor="middle" x="953.5" y="-381" font-family="Helvetica,sans-Serif" font-size="10.00">ControlConfigurator</text>
</a>
</g>
</g>
<!-- Node12&#45;&gt;Node15 -->
<g id="edge14_Node000012_Node000015" class="edge">
<title>Node12&#45;&gt;Node15</title>
<g id="a_edge14_Node000012_Node000015"><a xlink:title=" ">
<path fill="none" stroke="#63b8ff" d="M742.69,-285.7C766.41,-307.18 810.7,-344.21 855,-365 862.26,-368.41 870.06,-371.36 877.97,-373.92"/>
<polygon fill="#63b8ff" stroke="#63b8ff" points="744.92,-282.99 735.19,-278.8 740.18,-288.14 744.92,-282.99"/>
</a>
</g>
</g>
<!-- Node16 -->
<g id="Node000016" class="node">
<title>Node16</title>
<g id="a_Node000016"><a xlink:href="classDynExpModule_1_1ODMR_1_1ODMRConfigurator.html" target="_top" xlink:title=" ">
<polygon fill="white" stroke="#666666" points="1017,-356 890,-356 890,-326 1017,-326 1017,-356"/>
<text text-anchor="start" x="898" y="-344" font-family="Helvetica,sans-Serif" font-size="10.00">DynExpModule::ODMR</text>
<text text-anchor="middle" x="953.5" y="-333" font-family="Helvetica,sans-Serif" font-size="10.00">::ODMRConfigurator</text>
</a>
</g>
</g>
<!-- Node12&#45;&gt;Node16 -->
<g id="edge15_Node000012_Node000016" class="edge">
<title>Node12&#45;&gt;Node16</title>
<g id="a_edge15_Node000012_Node000016"><a xlink:title=" ">
<path fill="none" stroke="#63b8ff" d="M758.09,-282.39C784.15,-292.65 821.55,-306.74 855,-317 866.17,-320.42 878.17,-323.7 889.8,-326.67"/>
<polygon fill="#63b8ff" stroke="#63b8ff" points="759.27,-279.09 748.69,-278.66 756.69,-285.6 759.27,-279.09"/>
</a>
</g>
</g>
<!-- Node17 -->
<g id="Node000017" class="node">
<title>Node17</title>
<g id="a_Node000017"><a xlink:href="classDynExpModule_1_1OutputPortWriterConfigurator.html" target="_top" xlink:title=" ">
<polygon fill="white" stroke="#666666" points="1028,-308 879,-308 879,-278 1028,-278 1028,-308"/>
<text text-anchor="start" x="887" y="-296" font-family="Helvetica,sans-Serif" font-size="10.00">DynExpModule::OutputPort</text>
<text text-anchor="middle" x="953.5" y="-285" font-family="Helvetica,sans-Serif" font-size="10.00">WriterConfigurator</text>
</a>
</g>
</g>
<!-- Node12&#45;&gt;Node17 -->
<g id="edge16_Node000012_Node000017" class="edge">
<title>Node12&#45;&gt;Node17</title>
<g id="a_edge16_Node000012_Node000017"><a xlink:title=" ">
<path fill="none" stroke="#63b8ff" d="M825.2,-279.57C843.23,-281.47 861.71,-283.42 878.82,-285.23"/>
<polygon fill="#63b8ff" stroke="#63b8ff" points="825.55,-276.09 815.24,-278.52 824.82,-283.05 825.55,-276.09"/>
</a>
</g>
</g>
<!-- Node18 -->
<g id="Node000018" class="node">
<title>Node18</title>
<g id="a_Node000018"><a xlink:href="classDynExpModule_1_1SignalDesignerConfigurator.html" target="_top" xlink:title=" ">
<polygon fill="white" stroke="#666666" points="1038.5,-260 868.5,-260 868.5,-230 1038.5,-230 1038.5,-260"/>
<text text-anchor="start" x="876.5" y="-248" font-family="Helvetica,sans-Serif" font-size="10.00">DynExpModule::SignalDesigner</text>
<text text-anchor="middle" x="953.5" y="-237" font-family="Helvetica,sans-Serif" font-size="10.00">Configurator</text>
</a>
</g>
</g>
<!-- Node12&#45;&gt;Node18 -->
<g id="edge17_Node000012_Node000018" class="edge">
<title>Node12&#45;&gt;Node18</title>
<g id="a_edge17_Node000012_Node000018"><a xlink:title=" ">
<path fill="none" stroke="#63b8ff" d="M825.57,-258.39C839.83,-256.89 854.38,-255.35 868.29,-253.88"/>
<polygon fill="#63b8ff" stroke="#63b8ff" points="824.82,-254.95 815.24,-259.48 825.55,-261.91 824.82,-254.95"/>
</a>
</g>
</g>
<!-- Node19 -->
<g id="Node000019" class="node">
<title>Node19</title>
<g id="a_Node000019"><a xlink:href="classDynExpModule_1_1SignalPlotterConfigurator.html" target="_top" xlink:title=" ">
<polygon fill="white" stroke="#666666" points="1032.5,-212 874.5,-212 874.5,-182 1032.5,-182 1032.5,-212"/>
<text text-anchor="start" x="882.5" y="-200" font-family="Helvetica,sans-Serif" font-size="10.00">DynExpModule::SignalPlotter</text>
<text text-anchor="middle" x="953.5" y="-189" font-family="Helvetica,sans-Serif" font-size="10.00">Configurator</text>
</a>
</g>
</g>
<!-- Node12&#45;&gt;Node19 -->
<g id="edge18_Node000012_Node000019" class="edge">
<title>Node12&#45;&gt;Node19</title>
<g id="a_edge18_Node000012_Node000019"><a xlink:title=" ">
<path fill="none" stroke="#63b8ff" d="M802.3,-256.54C808.06,-254.66 813.69,-252.49 819,-250 837.6,-241.27 836.59,-230.12 855,-221 861.95,-217.56 869.43,-214.59 877.05,-212.03"/>
<polygon fill="#63b8ff" stroke="#63b8ff" points="801.1,-253.24 792.52,-259.45 803.1,-259.95 801.1,-253.24"/>
</a>
</g>
</g>
<!-- Node20 -->
<g id="Node000020" class="node">
<title>Node20</title>
<g id="a_Node000020"><a xlink:href="classDynExpModule_1_1SpectrumViewer_1_1SpectrumViewerConfigurator.html" target="_top" xlink:title=" ">
<polygon fill="white" stroke="#666666" points="1041.5,-164 865.5,-164 865.5,-134 1041.5,-134 1041.5,-164"/>
<text text-anchor="start" x="873.5" y="-152" font-family="Helvetica,sans-Serif" font-size="10.00">DynExpModule::SpectrumViewer</text>
<text text-anchor="middle" x="953.5" y="-141" font-family="Helvetica,sans-Serif" font-size="10.00">::SpectrumViewerConfigurator</text>
</a>
</g>
</g>
<!-- Node12&#45;&gt;Node20 -->
<g id="edge19_Node000012_Node000020" class="edge">
<title>Node12&#45;&gt;Node20</title>
<g id="a_edge19_Node000012_Node000020"><a xlink:title=" ">
<path fill="none" stroke="#63b8ff" d="M812.34,-254.6C814.66,-253.2 816.88,-251.67 819,-250 848.69,-226.65 825.8,-196.97 855,-173 859.18,-169.57 863.77,-166.62 868.62,-164.08"/>
<polygon fill="#63b8ff" stroke="#63b8ff" points="810.3,-251.72 803.05,-259.44 813.53,-257.93 810.3,-251.72"/>
</a>
</g>
</g>
<!-- Node21 -->
<g id="Node000021" class="node">
<title>Node21</title>
<g id="a_Node000021"><a xlink:href="classDynExpModule_1_1Stage1DConfigurator.html" target="_top" xlink:title=" ">
<polygon fill="white" stroke="#666666" points="1052,-115.5 855,-115.5 855,-96.5 1052,-96.5 1052,-115.5"/>
<text text-anchor="middle" x="953.5" y="-103.5" font-family="Helvetica,sans-Serif" font-size="10.00">DynExpModule::Stage1DConfigurator</text>
</a>
</g>
</g>
<!-- Node12&#45;&gt;Node21 -->
<g id="edge20_Node000012_Node000021" class="edge">
<title>Node12&#45;&gt;Node21</title>
<g id="a_edge20_Node000012_Node000021"><a xlink:title=" ">
<path fill="none" stroke="#63b8ff" d="M814.25,-253.92C815.9,-252.7 817.49,-251.4 819,-250 861.5,-210.81 812.36,-164.04 855,-125 859.07,-121.27 863.65,-118.18 868.54,-115.62"/>
<polygon fill="#63b8ff" stroke="#63b8ff" points="812.17,-251.09 805.52,-259.34 815.86,-257.04 812.17,-251.09"/>
</a>
</g>
</g>
<!-- Node22 -->
<g id="Node000022" class="node">
<title>Node22</title>
<g id="a_Node000022"><a xlink:href="classDynExpModule_1_1Trajectory1DConfigurator.html" target="_top" xlink:title=" ">
<polygon fill="white" stroke="#666666" points="1028.5,-78 878.5,-78 878.5,-48 1028.5,-48 1028.5,-78"/>
<text text-anchor="start" x="886.5" y="-66" font-family="Helvetica,sans-Serif" font-size="10.00">DynExpModule::Trajectory1</text>
<text text-anchor="middle" x="953.5" y="-55" font-family="Helvetica,sans-Serif" font-size="10.00">DConfigurator</text>
</a>
</g>
</g>
<!-- Node12&#45;&gt;Node22 -->
<g id="edge21_Node000012_Node000022" class="edge">
<title>Node12&#45;&gt;Node22</title>
<g id="a_edge21_Node000012_Node000022"><a xlink:title=" ">
<path fill="none" stroke="#63b8ff" d="M814.9,-253.63C816.33,-252.49 817.69,-251.28 819,-250 871.93,-198.01 803.17,-140.09 855,-87 861.58,-80.26 869.72,-75.3 878.47,-71.67"/>
<polygon fill="#63b8ff" stroke="#63b8ff" points="812.62,-250.94 806.23,-259.39 816.5,-256.77 812.62,-250.94"/>
</a>
</g>
</g>
<!-- Node23 -->
<g id="Node000023" class="node">
<title>Node23</title>
<g id="a_Node000023"><a xlink:href="classDynExpModule_1_1Widefield_1_1WidefieldMicroscopeConfigurator.html" target="_top" xlink:title=" ">
<polygon fill="white" stroke="#666666" points="1045.5,-30 861.5,-30 861.5,0 1045.5,0 1045.5,-30"/>
<text text-anchor="start" x="869.5" y="-18" font-family="Helvetica,sans-Serif" font-size="10.00">DynExpModule::Widefield</text>
<text text-anchor="middle" x="953.5" y="-7" font-family="Helvetica,sans-Serif" font-size="10.00">::WidefieldMicroscopeConfigurator</text>
</a>
</g>
</g>
<!-- Node12&#45;&gt;Node23 -->
<g id="edge22_Node000012_Node000023" class="edge">
<title>Node12&#45;&gt;Node23</title>
<g id="a_edge22_Node000012_Node000023"><a xlink:title=" ">
<path fill="none" stroke="#63b8ff" d="M815.12,-253.61C816.47,-252.47 817.76,-251.27 819,-250 885.24,-181.71 790.21,-108.66 855,-39 858.09,-35.68 861.55,-32.79 865.29,-30.27"/>
<polygon fill="#63b8ff" stroke="#63b8ff" points="813.07,-250.77 806.87,-259.35 817.08,-256.51 813.07,-250.77"/>
</a>
</g>
</g>
</g>
</svg>
