<?xml version="1.0" encoding="UTF-8" standalone="no"?>
<!DOCTYPE svg PUBLIC "-//W3C//DTD SVG 1.1//EN"
 "http://www.w3.org/Graphics/SVG/1.1/DTD/svg11.dtd">
<!-- Generated by graphviz version 2.43.0 (0)
 -->
<!-- Title: DynExp::QModuleConfiguratorBase Pages: 1 -->
<svg width="1058pt" height="519pt"
 viewBox="0.00 0.00 1058.00 519.00" xmlns="http://www.w3.org/2000/svg" xmlns:xlink="http://www.w3.org/1999/xlink">
<g id="graph0" class="graph" transform="scale(1 1) rotate(0) translate(4 515)">
<title>DynExp::QModuleConfiguratorBase</title>
<polygon fill="white" stroke="transparent" points="-4,4 -4,-515 1054,-515 1054,4 -4,4"/>
<!-- Node1 -->
<g id="node1" class="node">
<title>Node1</title>
<g id="a_node1"><a xlink:title="Configurator class for QModuleBase.">
<polygon fill="#bfbfbf" stroke="black" points="629,-241 629,-260 817,-260 817,-241 629,-241"/>
<text text-anchor="middle" x="723" y="-248" font-family="Helvetica,sans-Serif" font-size="10.00">DynExp::QModuleConfiguratorBase</text>
</a>
</g>
</g>
<!-- Node5 -->
<g id="node5" class="node">
<title>Node5</title>
<g id="a_node5"><a xlink:href="classDynExpModule_1_1ImageViewer_1_1ImageViewerConfigurator.html" target="_top" xlink:title=" ">
<polygon fill="white" stroke="black" points="871,-480.5 871,-510.5 1032,-510.5 1032,-480.5 871,-480.5"/>
<text text-anchor="start" x="879" y="-498.5" font-family="Helvetica,sans-Serif" font-size="10.00">DynExpModule::ImageViewer</text>
<text text-anchor="middle" x="951.5" y="-487.5" font-family="Helvetica,sans-Serif" font-size="10.00">::ImageViewerConfigurator</text>
</a>
</g>
</g>
<!-- Node1&#45;&gt;Node5 -->
<g id="edge4" class="edge">
<title>Node1&#45;&gt;Node5</title>
<path fill="none" stroke="midnightblue" d="M729.59,-269.93C743.11,-313.29 781.82,-418.29 853,-471.5 858.45,-475.57 864.49,-478.96 870.84,-481.78"/>
<polygon fill="midnightblue" stroke="midnightblue" points="732.93,-268.87 726.69,-260.31 726.23,-270.89 732.93,-268.87"/>
</g>
<!-- Node6 -->
<g id="node6" class="node">
<title>Node6</title>
<g id="a_node6"><a xlink:href="classDynExpModule_1_1InputPortReaderConfigurator.html" target="_top" xlink:title=" ">
<polygon fill="white" stroke="black" points="864,-431.5 864,-461.5 1039,-461.5 1039,-431.5 864,-431.5"/>
<text text-anchor="start" x="872" y="-449.5" font-family="Helvetica,sans-Serif" font-size="10.00">DynExpModule::InputPortReader</text>
<text text-anchor="middle" x="951.5" y="-438.5" font-family="Helvetica,sans-Serif" font-size="10.00">Configurator</text>
</a>
</g>
</g>
<!-- Node1&#45;&gt;Node6 -->
<g id="edge5" class="edge">
<title>Node1&#45;&gt;Node6</title>
<path fill="none" stroke="midnightblue" d="M732.69,-269.43C750.13,-305.22 792.93,-382.77 853,-422.5 858.23,-425.96 863.92,-428.92 869.84,-431.46"/>
<polygon fill="midnightblue" stroke="midnightblue" points="735.72,-267.66 728.27,-260.13 729.4,-270.66 735.72,-267.66"/>
</g>
<!-- Node7 -->
<g id="node7" class="node">
<title>Node7</title>
<g id="a_node7"><a xlink:href="classDynExpModule_1_1LockinAmplifierControlConfigurator.html" target="_top" xlink:title=" ">
<polygon fill="white" stroke="black" points="865.5,-382.5 865.5,-412.5 1037.5,-412.5 1037.5,-382.5 865.5,-382.5"/>
<text text-anchor="start" x="873.5" y="-400.5" font-family="Helvetica,sans-Serif" font-size="10.00">DynExpModule::LockinAmplifier</text>
<text text-anchor="middle" x="951.5" y="-389.5" font-family="Helvetica,sans-Serif" font-size="10.00">ControlConfigurator</text>
</a>
</g>
</g>
<!-- Node1&#45;&gt;Node7 -->
<g id="edge6" class="edge">
<title>Node1&#45;&gt;Node7</title>
<path fill="none" stroke="midnightblue" d="M737.59,-268.43C759.06,-295.47 803.51,-346.37 853,-373.5 859.27,-376.94 866.03,-379.89 872.96,-382.42"/>
<polygon fill="midnightblue" stroke="midnightblue" points="740.12,-265.99 731.22,-260.25 734.6,-270.29 740.12,-265.99"/>
</g>
<!-- Node8 -->
<g id="node8" class="node">
<title>Node8</title>
<g id="a_node8"><a xlink:href="classDynExpModule_1_1ODMR_1_1ODMRConfigurator.html" target="_top" xlink:title=" ">
<polygon fill="white" stroke="black" points="888,-333.5 888,-363.5 1015,-363.5 1015,-333.5 888,-333.5"/>
<text text-anchor="start" x="896" y="-351.5" font-family="Helvetica,sans-Serif" font-size="10.00">DynExpModule::ODMR</text>
<text text-anchor="middle" x="951.5" y="-340.5" font-family="Helvetica,sans-Serif" font-size="10.00">::ODMRConfigurator</text>
</a>
</g>
</g>
<!-- Node1&#45;&gt;Node8 -->
<g id="edge7" class="edge">
<title>Node1&#45;&gt;Node8</title>
<path fill="none" stroke="midnightblue" d="M746.02,-265.7C770.96,-282.29 813.3,-308.59 853,-324.5 864,-328.91 876.04,-332.67 887.79,-335.81"/>
<polygon fill="midnightblue" stroke="midnightblue" points="747.91,-262.75 737.66,-260.07 744,-268.56 747.91,-262.75"/>
</g>
<!-- Node9 -->
<g id="node9" class="node">
<title>Node9</title>
<g id="a_node9"><a xlink:href="classDynExpModule_1_1OutputPortWriterConfigurator.html" target="_top" xlink:title=" ">
<polygon fill="white" stroke="black" points="877,-284.5 877,-314.5 1026,-314.5 1026,-284.5 877,-284.5"/>
<text text-anchor="start" x="885" y="-302.5" font-family="Helvetica,sans-Serif" font-size="10.00">DynExpModule::OutputPort</text>
<text text-anchor="middle" x="951.5" y="-291.5" font-family="Helvetica,sans-Serif" font-size="10.00">WriterConfigurator</text>
</a>
</g>
</g>
<!-- Node1&#45;&gt;Node9 -->
<g id="edge8" class="edge">
<title>Node1&#45;&gt;Node9</title>
<path fill="none" stroke="midnightblue" d="M778.05,-262.19C808.85,-268.86 847.77,-277.27 880.83,-284.43"/>
<polygon fill="midnightblue" stroke="midnightblue" points="778.45,-258.7 767.94,-260.01 776.97,-265.54 778.45,-258.7"/>
</g>
<!-- Node10 -->
<g id="node10" class="node">
<title>Node10</title>
<g id="a_node10"><a xlink:href="classDynExpModule_1_1SignalDesignerConfigurator.html" target="_top" xlink:title=" ">
<polygon fill="white" stroke="black" points="866.5,-235.5 866.5,-265.5 1036.5,-265.5 1036.5,-235.5 866.5,-235.5"/>
<text text-anchor="start" x="874.5" y="-253.5" font-family="Helvetica,sans-Serif" font-size="10.00">DynExpModule::SignalDesigner</text>
<text text-anchor="middle" x="951.5" y="-242.5" font-family="Helvetica,sans-Serif" font-size="10.00">Configurator</text>
</a>
</g>
</g>
<!-- Node1&#45;&gt;Node10 -->
<g id="edge9" class="edge">
<title>Node1&#45;&gt;Node10</title>
<path fill="none" stroke="midnightblue" d="M827.13,-250.5C840.3,-250.5 853.65,-250.5 866.47,-250.5"/>
<polygon fill="midnightblue" stroke="midnightblue" points="827.11,-247 817.11,-250.5 827.11,-254 827.11,-247"/>
</g>
<!-- Node11 -->
<g id="node11" class="node">
<title>Node11</title>
<g id="a_node11"><a xlink:href="classDynExpModule_1_1SignalPlotterConfigurator.html" target="_top" xlink:title=" ">
<polygon fill="white" stroke="black" points="872.5,-186.5 872.5,-216.5 1030.5,-216.5 1030.5,-186.5 872.5,-186.5"/>
<text text-anchor="start" x="880.5" y="-204.5" font-family="Helvetica,sans-Serif" font-size="10.00">DynExpModule::SignalPlotter</text>
<text text-anchor="middle" x="951.5" y="-193.5" font-family="Helvetica,sans-Serif" font-size="10.00">Configurator</text>
</a>
</g>
</g>
<!-- Node1&#45;&gt;Node11 -->
<g id="edge10" class="edge">
<title>Node1&#45;&gt;Node11</title>
<path fill="none" stroke="midnightblue" d="M778.05,-238.81C808.85,-232.14 847.77,-223.73 880.83,-216.57"/>
<polygon fill="midnightblue" stroke="midnightblue" points="776.97,-235.46 767.94,-240.99 778.45,-242.3 776.97,-235.46"/>
</g>
<!-- Node12 -->
<g id="node12" class="node">
<title>Node12</title>
<g id="a_node12"><a xlink:href="classDynExpModule_1_1SpectrumViewer_1_1SpectrumViewerConfigurator.html" target="_top" xlink:title=" ">
<polygon fill="white" stroke="black" points="863.5,-137.5 863.5,-167.5 1039.5,-167.5 1039.5,-137.5 863.5,-137.5"/>
<text text-anchor="start" x="871.5" y="-155.5" font-family="Helvetica,sans-Serif" font-size="10.00">DynExpModule::SpectrumViewer</text>
<text text-anchor="middle" x="951.5" y="-144.5" font-family="Helvetica,sans-Serif" font-size="10.00">::SpectrumViewerConfigurator</text>
</a>
</g>
</g>
<!-- Node1&#45;&gt;Node12 -->
<g id="edge11" class="edge">
<title>Node1&#45;&gt;Node12</title>
<path fill="none" stroke="midnightblue" d="M746.02,-235.3C770.96,-218.71 813.3,-192.41 853,-176.5 861.41,-173.13 870.43,-170.14 879.46,-167.51"/>
<polygon fill="midnightblue" stroke="midnightblue" points="744,-232.44 737.66,-240.93 747.91,-238.25 744,-232.44"/>
</g>
<!-- Node13 -->
<g id="node13" class="node">
<title>Node13</title>
<g id="a_node13"><a xlink:href="classDynExpModule_1_1Stage1DConfigurator.html" target="_top" xlink:title=" ">
<polygon fill="white" stroke="black" points="853,-99 853,-118 1050,-118 1050,-99 853,-99"/>
<text text-anchor="middle" x="951.5" y="-106" font-family="Helvetica,sans-Serif" font-size="10.00">DynExpModule::Stage1DConfigurator</text>
</a>
</g>
</g>
<!-- Node1&#45;&gt;Node13 -->
<g id="edge12" class="edge">
<title>Node1&#45;&gt;Node13</title>
<path fill="none" stroke="midnightblue" d="M737.12,-232.67C758.25,-205.34 802.62,-153.54 853,-127.5 860.51,-123.62 868.71,-120.53 877.07,-118.07"/>
<polygon fill="midnightblue" stroke="midnightblue" points="734.11,-230.84 730.86,-240.92 739.69,-235.07 734.11,-230.84"/>
</g>
<!-- Node14 -->
<g id="node14" class="node">
<title>Node14</title>
<g id="a_node14"><a xlink:href="classDynExpModule_1_1Trajectory1DConfigurator.html" target="_top" xlink:title=" ">
<polygon fill="white" stroke="black" points="876.5,-49.5 876.5,-79.5 1026.5,-79.5 1026.5,-49.5 876.5,-49.5"/>
<text text-anchor="start" x="884.5" y="-67.5" font-family="Helvetica,sans-Serif" font-size="10.00">DynExpModule::Trajectory1</text>
<text text-anchor="middle" x="951.5" y="-56.5" font-family="Helvetica,sans-Serif" font-size="10.00">DConfigurator</text>
</a>
</g>
</g>
<!-- Node1&#45;&gt;Node14 -->
<g id="edge13" class="edge">
<title>Node1&#45;&gt;Node14</title>
<path fill="none" stroke="midnightblue" d="M733.57,-231.88C751.94,-198.06 795.48,-126.62 853,-89.5 860.19,-84.86 868.21,-81.07 876.46,-78"/>
<polygon fill="midnightblue" stroke="midnightblue" points="730.47,-230.25 728.88,-240.72 736.66,-233.53 730.47,-230.25"/>
</g>
<!-- Node15 -->
<g id="node15" class="node">
<title>Node15</title>
<g id="a_node15"><a xlink:href="classDynExpModule_1_1Widefield_1_1WidefieldMicroscopeConfigurator.html" target="_top" xlink:title=" ">
<polygon fill="white" stroke="black" points="859.5,-0.5 859.5,-30.5 1043.5,-30.5 1043.5,-0.5 859.5,-0.5"/>
<text text-anchor="start" x="867.5" y="-18.5" font-family="Helvetica,sans-Serif" font-size="10.00">DynExpModule::Widefield</text>
<text text-anchor="middle" x="951.5" y="-7.5" font-family="Helvetica,sans-Serif" font-size="10.00">::WidefieldMicroscopeConfigurator</text>
</a>
</g>
</g>
<!-- Node1&#45;&gt;Node15 -->
<g id="edge14" class="edge">
<title>Node1&#45;&gt;Node15</title>
<path fill="none" stroke="midnightblue" d="M730.15,-231.09C744.46,-189.17 784.15,-89.88 853,-39.5 857.64,-36.1 862.71,-33.18 868.01,-30.67"/>
<polygon fill="midnightblue" stroke="midnightblue" points="726.8,-230.07 726.98,-240.67 733.44,-232.27 726.8,-230.07"/>
</g>
<!-- Node2 -->
<g id="node2" class="node">
<title>Node2</title>
<g id="a_node2"><a xlink:href="classDynExp_1_1ModuleConfiguratorBase.html" target="_top" xlink:title="Configurator class for ModuleBase.">
<polygon fill="white" stroke="black" points="413,-241 413,-260 593,-260 593,-241 413,-241"/>
<text text-anchor="middle" x="503" y="-248" font-family="Helvetica,sans-Serif" font-size="10.00">DynExp::ModuleConfiguratorBase</text>
</a>
</g>
</g>
<!-- Node2&#45;&gt;Node1 -->
<g id="edge1" class="edge">
<title>Node2&#45;&gt;Node1</title>
<path fill="none" stroke="midnightblue" d="M603.56,-250.5C612.02,-250.5 620.55,-250.5 628.95,-250.5"/>
<polygon fill="midnightblue" stroke="midnightblue" points="603.3,-247 593.3,-250.5 603.3,-254 603.3,-247"/>
</g>
<!-- Node3 -->
<g id="node3" class="node">
<title>Node3</title>
<g id="a_node3"><a xlink:href="classDynExp_1_1RunnableObjectConfigurator.html" target="_top" xlink:title="Configurator class for RunnableObject.">
<polygon fill="white" stroke="black" points="180,-241 180,-260 377,-260 377,-241 180,-241"/>
<text text-anchor="middle" x="278.5" y="-248" font-family="Helvetica,sans-Serif" font-size="10.00">DynExp::RunnableObjectConfigurator</text>
</a>
</g>
</g>
<!-- Node3&#45;&gt;Node2 -->
<g id="edge2" class="edge">
<title>Node3&#45;&gt;Node2</title>
<path fill="none" stroke="midnightblue" d="M387.18,-250.5C395.79,-250.5 404.44,-250.5 412.9,-250.5"/>
<polygon fill="midnightblue" stroke="midnightblue" points="387.09,-247 377.09,-250.5 387.09,-254 387.09,-247"/>
</g>
<!-- Node4 -->
<g id="node4" class="node">
<title>Node4</title>
<g id="a_node4"><a xlink:href="classDynExp_1_1ConfiguratorBase.html" target="_top" xlink:title="The configurator classes have the task to generate parameter objects (refer to DynExp::ParamsBase) of...">
<polygon fill="white" stroke="black" points="0,-241 0,-260 144,-260 144,-241 0,-241"/>
<text text-anchor="middle" x="72" y="-248" font-family="Helvetica,sans-Serif" font-size="10.00">DynExp::ConfiguratorBase</text>
</a>
</g>
</g>
<!-- Node4&#45;&gt;Node3 -->
<g id="edge3" class="edge">
<title>Node4&#45;&gt;Node3</title>
<path fill="none" stroke="midnightblue" d="M154.36,-250.5C162.76,-250.5 171.35,-250.5 179.89,-250.5"/>
<polygon fill="midnightblue" stroke="midnightblue" points="154.24,-247 144.24,-250.5 154.24,-254 154.24,-247"/>
</g>
</g>
</svg>
