<?xml version="1.0" encoding="UTF-8" standalone="no"?>
<!DOCTYPE svg PUBLIC "-//W3C//DTD SVG 1.1//EN"
 "http://www.w3.org/Graphics/SVG/1.1/DTD/svg11.dtd">
<!-- Generated by graphviz version 2.43.0 (0)
 -->
<!-- Title: DynExpInstr::DataStreamInstrumentTasks::ExitTask Pages: 1 -->
<svg width="1311pt" height="422pt"
 viewBox="0.00 0.00 1311.00 422.00" xmlns="http://www.w3.org/2000/svg" xmlns:xlink="http://www.w3.org/1999/xlink">
<g id="graph0" class="graph" transform="scale(1 1) rotate(0) translate(4 418)">
<title>DynExpInstr::DataStreamInstrumentTasks::ExitTask</title>
<!-- Node1 -->
<g id="Node000001" class="node">
<title>Node1</title>
<g id="a_Node000001"><a xlink:title="Defines a task for deinitializing an instrument within an instrument inheritance hierarchy....">
<polygon fill="#999999" stroke="#666666" points="497,-102 303,-102 303,-72 497,-72 497,-102"/>
<text text-anchor="start" x="311" y="-90" font-family="Helvetica,sans-Serif" font-size="10.00">DynExpInstr::DataStreamInstrument</text>
<text text-anchor="middle" x="400" y="-79" font-family="Helvetica,sans-Serif" font-size="10.00">Tasks::ExitTask</text>
</a>
</g>
</g>
<!-- Node4 -->
<g id="Node000004" class="node">
<title>Node4</title>
<g id="a_Node000004"><a xlink:href="classDynExpInstr_1_1FunctionGeneratorTasks_1_1ExitTask.html" target="_top" xlink:title="Defines a task for deinitializing an instrument within an instrument inheritance hierarchy....">
<polygon fill="white" stroke="#666666" points="705,-294 533,-294 533,-264 705,-264 705,-294"/>
<text text-anchor="start" x="541" y="-282" font-family="Helvetica,sans-Serif" font-size="10.00">DynExpInstr::FunctionGenerator</text>
<text text-anchor="middle" x="619" y="-271" font-family="Helvetica,sans-Serif" font-size="10.00">Tasks::ExitTask</text>
</a>
</g>
</g>
<!-- Node1&#45;&gt;Node4 -->
<g id="edge3_Node000001_Node000004" class="edge">
<title>Node1&#45;&gt;Node4</title>
<g id="a_edge3_Node000001_Node000004"><a xlink:title=" ">
<path fill="none" stroke="#63b8ff" d="M425.75,-108.89C470.19,-148.22 562.45,-229.85 600.75,-263.74"/>
<polygon fill="#63b8ff" stroke="#63b8ff" points="427.84,-106.07 418.03,-102.07 423.2,-111.31 427.84,-106.07"/>
</a>
</g>
</g>
<!-- Node14 -->
<g id="Node000014" class="node">
<title>Node14</title>
<g id="a_Node000014"><a xlink:href="classDynExpInstr_1_1InputPortTasks_1_1ExitTask.html" target="_top" xlink:title="Defines a task for deinitializing an instrument within an instrument inheritance hierarchy....">
<polygon fill="white" stroke="#666666" points="695.5,-126 542.5,-126 542.5,-96 695.5,-96 695.5,-126"/>
<text text-anchor="start" x="550.5" y="-114" font-family="Helvetica,sans-Serif" font-size="10.00">DynExpInstr::InputPortTasks</text>
<text text-anchor="middle" x="619" y="-103" font-family="Helvetica,sans-Serif" font-size="10.00">::ExitTask</text>
</a>
</g>
</g>
<!-- Node1&#45;&gt;Node14 -->
<g id="edge13_Node000001_Node000014" class="edge">
<title>Node1&#45;&gt;Node14</title>
<g id="a_edge13_Node000001_Node000014"><a xlink:title=" ">
<path fill="none" stroke="#63b8ff" d="M507.13,-98.74C519.07,-100.06 531.04,-101.38 542.47,-102.65"/>
<polygon fill="#63b8ff" stroke="#63b8ff" points="507.45,-95.25 497.13,-97.63 506.68,-102.21 507.45,-95.25"/>
</a>
</g>
</g>
<!-- Node19 -->
<g id="Node000019" class="node">
<title>Node19</title>
<g id="a_Node000019"><a xlink:href="classDynExpInstr_1_1LockinAmplifierTasks_1_1ExitTask.html" target="_top" xlink:title="Defines a task for deinitializing an instrument within an instrument inheritance hierarchy....">
<polygon fill="white" stroke="#666666" points="698,-78 540,-78 540,-48 698,-48 698,-78"/>
<text text-anchor="start" x="548" y="-66" font-family="Helvetica,sans-Serif" font-size="10.00">DynExpInstr::LockinAmplifier</text>
<text text-anchor="middle" x="619" y="-55" font-family="Helvetica,sans-Serif" font-size="10.00">Tasks::ExitTask</text>
</a>
</g>
</g>
<!-- Node1&#45;&gt;Node19 -->
<g id="edge18_Node000001_Node000019" class="edge">
<title>Node1&#45;&gt;Node19</title>
<g id="a_edge18_Node000001_Node000019"><a xlink:title=" ">
<path fill="none" stroke="#63b8ff" d="M507.21,-75.25C518.2,-74.04 529.23,-72.82 539.84,-71.64"/>
<polygon fill="#63b8ff" stroke="#63b8ff" points="506.68,-71.79 497.13,-76.37 507.45,-78.75 506.68,-71.79"/>
</a>
</g>
</g>
<!-- Node21 -->
<g id="Node000021" class="node">
<title>Node21</title>
<g id="a_Node000021"><a xlink:href="classDynExpInstr_1_1TimeTaggerTasks_1_1ExitTask.html" target="_top" xlink:title="Defines a task for deinitializing an instrument within an instrument inheritance hierarchy....">
<polygon fill="white" stroke="#666666" points="702,-30 536,-30 536,0 702,0 702,-30"/>
<text text-anchor="start" x="544" y="-18" font-family="Helvetica,sans-Serif" font-size="10.00">DynExpInstr::TimeTaggerTasks</text>
<text text-anchor="middle" x="619" y="-7" font-family="Helvetica,sans-Serif" font-size="10.00">::ExitTask</text>
</a>
</g>
</g>
<!-- Node1&#45;&gt;Node21 -->
<g id="edge20_Node000001_Node000021" class="edge">
<title>Node1&#45;&gt;Node21</title>
<g id="a_edge20_Node000001_Node000021"><a xlink:title=" ">
<path fill="none" stroke="#63b8ff" d="M449.56,-68.37C474.37,-59.1 505.14,-47.99 533,-39 542.49,-35.94 552.63,-32.89 562.5,-30.04"/>
<polygon fill="#63b8ff" stroke="#63b8ff" points="448.15,-65.16 440.02,-71.96 450.61,-71.72 448.15,-65.16"/>
</a>
</g>
</g>
<!-- Node2 -->
<g id="Node000002" class="node">
<title>Node2</title>
<g id="a_Node000002"><a xlink:href="classDynExp_1_1ExitTaskBase.html" target="_top" xlink:title="Defines a task for deinitializing an instrument within an instrument inheritance hierarchy....">
<polygon fill="white" stroke="#666666" points="267,-96.5 142,-96.5 142,-77.5 267,-77.5 267,-96.5"/>
<text text-anchor="middle" x="204.5" y="-84.5" font-family="Helvetica,sans-Serif" font-size="10.00">DynExp::ExitTaskBase</text>
</a>
</g>
</g>
<!-- Node2&#45;&gt;Node1 -->
<g id="edge1_Node000001_Node000002" class="edge">
<title>Node2&#45;&gt;Node1</title>
<g id="a_edge1_Node000001_Node000002"><a xlink:title=" ">
<path fill="none" stroke="#63b8ff" d="M277.3,-87C285.67,-87 294.29,-87 302.92,-87"/>
<polygon fill="#63b8ff" stroke="#63b8ff" points="277.26,-83.5 267.26,-87 277.26,-90.5 277.26,-83.5"/>
</a>
</g>
</g>
<!-- Node3 -->
<g id="Node000003" class="node">
<title>Node3</title>
<g id="a_Node000003"><a xlink:href="classDynExp_1_1TaskBase.html" target="_top" xlink:title="Base class for all tasks being processed by instruments. The class must not contain public virtual fu...">
<polygon fill="white" stroke="#666666" points="106,-96.5 0,-96.5 0,-77.5 106,-77.5 106,-96.5"/>
<text text-anchor="middle" x="53" y="-84.5" font-family="Helvetica,sans-Serif" font-size="10.00">DynExp::TaskBase</text>
</a>
</g>
</g>
<!-- Node3&#45;&gt;Node2 -->
<g id="edge2_Node000002_Node000003" class="edge">
<title>Node3&#45;&gt;Node2</title>
<g id="a_edge2_Node000002_Node000003"><a xlink:title=" ">
<path fill="none" stroke="#63b8ff" d="M116.38,-87C124.77,-87 133.37,-87 141.75,-87"/>
<polygon fill="#63b8ff" stroke="#63b8ff" points="116.29,-83.5 106.29,-87 116.29,-90.5 116.29,-83.5"/>
</a>
</g>
</g>
<!-- Node5 -->
<g id="Node000005" class="node">
<title>Node5</title>
<g id="a_Node000005"><a xlink:href="classDynExpInstr_1_1DummyDataStreamInstrumentTasks_1_1ExitTask.html" target="_top" xlink:title=" ">
<polygon fill="white" stroke="#666666" points="921.5,-414 742.5,-414 742.5,-384 921.5,-384 921.5,-414"/>
<text text-anchor="start" x="750.5" y="-402" font-family="Helvetica,sans-Serif" font-size="10.00">DynExpInstr::DummyDataStream</text>
<text text-anchor="middle" x="832" y="-391" font-family="Helvetica,sans-Serif" font-size="10.00">InstrumentTasks::ExitTask</text>
</a>
</g>
</g>
<!-- Node4&#45;&gt;Node5 -->
<g id="edge4_Node000004_Node000005" class="edge">
<title>Node4&#45;&gt;Node5</title>
<g id="a_edge4_Node000004_Node000005"><a xlink:title=" ">
<path fill="none" stroke="#63b8ff" d="M642.44,-301.56C665.35,-323.37 702.85,-355.83 741,-375 747.79,-378.41 755.12,-381.38 762.57,-383.95"/>
<polygon fill="#63b8ff" stroke="#63b8ff" points="644.6,-298.78 634.98,-294.34 639.73,-303.81 644.6,-298.78"/>
</a>
</g>
</g>
<!-- Node6 -->
<g id="Node000006" class="node">
<title>Node6</title>
<g id="a_Node000006"><a xlink:href="classDynExpInstr_1_1OutputPortTasks_1_1ExitTask.html" target="_top" xlink:title="Defines a task for deinitializing an instrument within an instrument inheritance hierarchy....">
<polygon fill="white" stroke="#666666" points="912.5,-366 751.5,-366 751.5,-336 912.5,-336 912.5,-366"/>
<text text-anchor="start" x="759.5" y="-354" font-family="Helvetica,sans-Serif" font-size="10.00">DynExpInstr::OutputPortTasks</text>
<text text-anchor="middle" x="832" y="-343" font-family="Helvetica,sans-Serif" font-size="10.00">::ExitTask</text>
</a>
</g>
</g>
<!-- Node4&#45;&gt;Node6 -->
<g id="edge5_Node000004_Node000006" class="edge">
<title>Node4&#45;&gt;Node6</title>
<g id="a_edge5_Node000004_Node000006"><a xlink:title=" ">
<path fill="none" stroke="#63b8ff" d="M664.19,-297.97C686.91,-307.36 715.18,-318.47 741,-327 750.52,-330.15 760.71,-333.18 770.68,-335.96"/>
<polygon fill="#63b8ff" stroke="#63b8ff" points="665.39,-294.68 654.81,-294.07 662.7,-301.14 665.39,-294.68"/>
</a>
</g>
</g>
<!-- Node11 -->
<g id="Node000011" class="node">
<title>Node11</title>
<g id="a_Node000011"><a xlink:href="classDynExpInstr_1_1RS__SMB100BTasks_1_1ExitTask.html" target="_top" xlink:title=" ">
<polygon fill="white" stroke="#666666" points="918.5,-318 745.5,-318 745.5,-288 918.5,-288 918.5,-318"/>
<text text-anchor="start" x="753.5" y="-306" font-family="Helvetica,sans-Serif" font-size="10.00">DynExpInstr::RS_SMB100BTasks</text>
<text text-anchor="middle" x="832" y="-295" font-family="Helvetica,sans-Serif" font-size="10.00">::ExitTask</text>
</a>
</g>
</g>
<!-- Node4&#45;&gt;Node11 -->
<g id="edge10_Node000004_Node000011" class="edge">
<title>Node4&#45;&gt;Node11</title>
<g id="a_edge10_Node000004_Node000011"><a xlink:title=" ">
<path fill="none" stroke="#63b8ff" d="M715.23,-289.83C725.31,-290.98 735.51,-292.14 745.47,-293.27"/>
<polygon fill="#63b8ff" stroke="#63b8ff" points="715.55,-286.35 705.21,-288.69 714.75,-293.3 715.55,-286.35"/>
</a>
</g>
</g>
<!-- Node12 -->
<g id="Node000012" class="node">
<title>Node12</title>
<g id="a_Node000012"><a xlink:href="classDynExpInstr_1_1RS__SMC100ATasks_1_1ExitTask.html" target="_top" xlink:title=" ">
<polygon fill="white" stroke="#666666" points="918.5,-270 745.5,-270 745.5,-240 918.5,-240 918.5,-270"/>
<text text-anchor="start" x="753.5" y="-258" font-family="Helvetica,sans-Serif" font-size="10.00">DynExpInstr::RS_SMC100ATasks</text>
<text text-anchor="middle" x="832" y="-247" font-family="Helvetica,sans-Serif" font-size="10.00">::ExitTask</text>
</a>
</g>
</g>
<!-- Node4&#45;&gt;Node12 -->
<g id="edge11_Node000004_Node000012" class="edge">
<title>Node4&#45;&gt;Node12</title>
<g id="a_edge11_Node000004_Node000012"><a xlink:title=" ">
<path fill="none" stroke="#63b8ff" d="M715.23,-268.17C725.31,-267.02 735.51,-265.86 745.47,-264.73"/>
<polygon fill="#63b8ff" stroke="#63b8ff" points="714.75,-264.7 705.21,-269.31 715.55,-271.65 714.75,-264.7"/>
</a>
</g>
</g>
<!-- Node13 -->
<g id="Node000013" class="node">
<title>Node13</title>
<g id="a_Node000013"><a xlink:href="classDynExpInstr_1_1SwabianInstrumentsPulseStreamerTasks_1_1ExitTask.html" target="_top" xlink:title=" ">
<polygon fill="white" stroke="#666666" points="923,-222 741,-222 741,-192 923,-192 923,-222"/>
<text text-anchor="start" x="749" y="-210" font-family="Helvetica,sans-Serif" font-size="10.00">DynExpInstr::SwabianInstruments</text>
<text text-anchor="middle" x="832" y="-199" font-family="Helvetica,sans-Serif" font-size="10.00">PulseStreamerTasks::ExitTask</text>
</a>
</g>
</g>
<!-- Node4&#45;&gt;Node13 -->
<g id="edge12_Node000004_Node000013" class="edge">
<title>Node4&#45;&gt;Node13</title>
<g id="a_edge12_Node000004_Node000013"><a xlink:title=" ">
<path fill="none" stroke="#63b8ff" d="M664.19,-260.03C686.91,-250.64 715.18,-239.53 741,-231 750.52,-227.85 760.71,-224.82 770.68,-222.04"/>
<polygon fill="#63b8ff" stroke="#63b8ff" points="662.7,-256.86 654.81,-263.93 665.39,-263.32 662.7,-256.86"/>
</a>
</g>
</g>
<!-- Node7 -->
<g id="Node000007" class="node">
<title>Node7</title>
<g id="a_Node000007"><a xlink:href="classDynExpInstr_1_1AnalogOutTasks_1_1ExitTask.html" target="_top" xlink:title="Defines a task for deinitializing an instrument within an instrument inheritance hierarchy....">
<polygon fill="white" stroke="#666666" points="1119,-390 959,-390 959,-360 1119,-360 1119,-390"/>
<text text-anchor="start" x="967" y="-378" font-family="Helvetica,sans-Serif" font-size="10.00">DynExpInstr::AnalogOutTasks</text>
<text text-anchor="middle" x="1039" y="-367" font-family="Helvetica,sans-Serif" font-size="10.00">::ExitTask</text>
</a>
</g>
</g>
<!-- Node6&#45;&gt;Node7 -->
<g id="edge6_Node000006_Node000007" class="edge">
<title>Node6&#45;&gt;Node7</title>
<g id="a_edge6_Node000006_Node000007"><a xlink:title=" ">
<path fill="none" stroke="#63b8ff" d="M922.61,-361.49C934.67,-362.9 946.97,-364.34 958.83,-365.73"/>
<polygon fill="#63b8ff" stroke="#63b8ff" points="922.89,-358 912.55,-360.31 922.08,-364.95 922.89,-358"/>
</a>
</g>
</g>
<!-- Node9 -->
<g id="Node000009" class="node">
<title>Node9</title>
<g id="a_Node000009"><a xlink:href="classDynExpInstr_1_1DigitalOutTasks_1_1ExitTask.html" target="_top" xlink:title="Defines a task for deinitializing an instrument within an instrument inheritance hierarchy....">
<polygon fill="white" stroke="#666666" points="1118,-342 960,-342 960,-312 1118,-312 1118,-342"/>
<text text-anchor="start" x="968" y="-330" font-family="Helvetica,sans-Serif" font-size="10.00">DynExpInstr::DigitalOutTasks</text>
<text text-anchor="middle" x="1039" y="-319" font-family="Helvetica,sans-Serif" font-size="10.00">::ExitTask</text>
</a>
</g>
</g>
<!-- Node6&#45;&gt;Node9 -->
<g id="edge8_Node000006_Node000009" class="edge">
<title>Node6&#45;&gt;Node9</title>
<g id="a_edge8_Node000006_Node000009"><a xlink:title=" ">
<path fill="none" stroke="#63b8ff" d="M922.83,-340.48C935.16,-339.04 947.74,-337.57 959.84,-336.15"/>
<polygon fill="#63b8ff" stroke="#63b8ff" points="922.08,-337.05 912.55,-341.69 922.89,-344 922.08,-337.05"/>
</a>
</g>
</g>
<!-- Node8 -->
<g id="Node000008" class="node">
<title>Node8</title>
<g id="a_Node000008"><a xlink:href="classDynExpInstr_1_1NIDAQAnalogOutTasks_1_1ExitTask.html" target="_top" xlink:title=" ">
<polygon fill="white" stroke="#666666" points="1303,-390 1155,-390 1155,-360 1303,-360 1303,-390"/>
<text text-anchor="start" x="1163" y="-378" font-family="Helvetica,sans-Serif" font-size="10.00">DynExpInstr::NIDAQAnalog</text>
<text text-anchor="middle" x="1229" y="-367" font-family="Helvetica,sans-Serif" font-size="10.00">OutTasks::ExitTask</text>
</a>
</g>
</g>
<!-- Node7&#45;&gt;Node8 -->
<g id="edge7_Node000007_Node000008" class="edge">
<title>Node7&#45;&gt;Node8</title>
<g id="a_edge7_Node000007_Node000008"><a xlink:title=" ">
<path fill="none" stroke="#63b8ff" d="M1129.23,-375C1137.83,-375 1146.48,-375 1154.9,-375"/>
<polygon fill="#63b8ff" stroke="#63b8ff" points="1129.18,-371.5 1119.18,-375 1129.18,-378.5 1129.18,-371.5"/>
</a>
</g>
</g>
<!-- Node10 -->
<g id="Node000010" class="node">
<title>Node10</title>
<g id="a_Node000010"><a xlink:href="classDynExpInstr_1_1NIDAQDigitalOutTasks_1_1ExitTask.html" target="_top" xlink:title=" ">
<polygon fill="white" stroke="#666666" points="1302,-342 1156,-342 1156,-312 1302,-312 1302,-342"/>
<text text-anchor="start" x="1164" y="-330" font-family="Helvetica,sans-Serif" font-size="10.00">DynExpInstr::NIDAQDigital</text>
<text text-anchor="middle" x="1229" y="-319" font-family="Helvetica,sans-Serif" font-size="10.00">OutTasks::ExitTask</text>
</a>
</g>
</g>
<!-- Node9&#45;&gt;Node10 -->
<g id="edge9_Node000009_Node000010" class="edge">
<title>Node9&#45;&gt;Node10</title>
<g id="a_edge9_Node000009_Node000010"><a xlink:title=" ">
<path fill="none" stroke="#63b8ff" d="M1128.13,-327C1137.42,-327 1146.79,-327 1155.86,-327"/>
<polygon fill="#63b8ff" stroke="#63b8ff" points="1128.1,-323.5 1118.1,-327 1128.1,-330.5 1128.1,-323.5"/>
</a>
</g>
</g>
<!-- Node15 -->
<g id="Node000015" class="node">
<title>Node15</title>
<g id="a_Node000015"><a xlink:href="classDynExpInstr_1_1AnalogInTasks_1_1ExitTask.html" target="_top" xlink:title="Defines a task for deinitializing an instrument within an instrument inheritance hierarchy....">
<polygon fill="white" stroke="#666666" points="908,-174 756,-174 756,-144 908,-144 908,-174"/>
<text text-anchor="start" x="764" y="-162" font-family="Helvetica,sans-Serif" font-size="10.00">DynExpInstr::AnalogInTasks</text>
<text text-anchor="middle" x="832" y="-151" font-family="Helvetica,sans-Serif" font-size="10.00">::ExitTask</text>
</a>
</g>
</g>
<!-- Node14&#45;&gt;Node15 -->
<g id="edge14_Node000014_Node000015" class="edge">
<title>Node14&#45;&gt;Node15</title>
<g id="a_edge14_Node000014_Node000015"><a xlink:title=" ">
<path fill="none" stroke="#63b8ff" d="M696.06,-128.3C718.64,-133.44 743.17,-139.02 765.05,-144"/>
<polygon fill="#63b8ff" stroke="#63b8ff" points="696.71,-124.86 686.18,-126.06 695.16,-131.69 696.71,-124.86"/>
</a>
</g>
</g>
<!-- Node17 -->
<g id="Node000017" class="node">
<title>Node17</title>
<g id="a_Node000017"><a xlink:href="classDynExpInstr_1_1DigitalInTasks_1_1ExitTask.html" target="_top" xlink:title="Defines a task for deinitializing an instrument within an instrument inheritance hierarchy....">
<polygon fill="white" stroke="#666666" points="907,-126 757,-126 757,-96 907,-96 907,-126"/>
<text text-anchor="start" x="765" y="-114" font-family="Helvetica,sans-Serif" font-size="10.00">DynExpInstr::DigitalInTasks</text>
<text text-anchor="middle" x="832" y="-103" font-family="Helvetica,sans-Serif" font-size="10.00">::ExitTask</text>
</a>
</g>
</g>
<!-- Node14&#45;&gt;Node17 -->
<g id="edge16_Node000014_Node000017" class="edge">
<title>Node14&#45;&gt;Node17</title>
<g id="a_edge16_Node000014_Node000017"><a xlink:title=" ">
<path fill="none" stroke="#63b8ff" d="M705.94,-111C722.76,-111 740.26,-111 756.66,-111"/>
<polygon fill="#63b8ff" stroke="#63b8ff" points="705.58,-107.5 695.58,-111 705.58,-114.5 705.58,-107.5"/>
</a>
</g>
</g>
<!-- Node16 -->
<g id="Node000016" class="node">
<title>Node16</title>
<g id="a_Node000016"><a xlink:href="classDynExpInstr_1_1NIDAQAnalogInTasks_1_1ExitTask.html" target="_top" xlink:title=" ">
<polygon fill="white" stroke="#666666" points="1113,-174 965,-174 965,-144 1113,-144 1113,-174"/>
<text text-anchor="start" x="973" y="-162" font-family="Helvetica,sans-Serif" font-size="10.00">DynExpInstr::NIDAQAnalog</text>
<text text-anchor="middle" x="1039" y="-151" font-family="Helvetica,sans-Serif" font-size="10.00">InTasks::ExitTask</text>
</a>
</g>
</g>
<!-- Node15&#45;&gt;Node16 -->
<g id="edge15_Node000015_Node000016" class="edge">
<title>Node15&#45;&gt;Node16</title>
<g id="a_edge15_Node000015_Node000016"><a xlink:title=" ">
<path fill="none" stroke="#63b8ff" d="M918.26,-159C933.75,-159 949.79,-159 964.89,-159"/>
<polygon fill="#63b8ff" stroke="#63b8ff" points="918.17,-155.5 908.17,-159 918.17,-162.5 918.17,-155.5"/>
</a>
</g>
</g>
<!-- Node18 -->
<g id="Node000018" class="node">
<title>Node18</title>
<g id="a_Node000018"><a xlink:href="classDynExpInstr_1_1NIDAQDigitalInTasks_1_1ExitTask.html" target="_top" xlink:title=" ">
<polygon fill="white" stroke="#666666" points="1112,-126 966,-126 966,-96 1112,-96 1112,-126"/>
<text text-anchor="start" x="974" y="-114" font-family="Helvetica,sans-Serif" font-size="10.00">DynExpInstr::NIDAQDigital</text>
<text text-anchor="middle" x="1039" y="-103" font-family="Helvetica,sans-Serif" font-size="10.00">InTasks::ExitTask</text>
</a>
</g>
</g>
<!-- Node17&#45;&gt;Node18 -->
<g id="edge17_Node000017_Node000018" class="edge">
<title>Node17&#45;&gt;Node18</title>
<g id="a_edge17_Node000017_Node000018"><a xlink:title=" ">
<path fill="none" stroke="#63b8ff" d="M917.46,-111C933.51,-111 950.18,-111 965.81,-111"/>
<polygon fill="#63b8ff" stroke="#63b8ff" points="917.01,-107.5 907.01,-111 917.01,-114.5 917.01,-107.5"/>
</a>
</g>
</g>
<!-- Node20 -->
<g id="Node000020" class="node">
<title>Node20</title>
<g id="a_Node000020"><a xlink:href="classDynExpInstr_1_1ZI__MFLITasks_1_1ExitTask.html" target="_top" xlink:title=" ">
<polygon fill="white" stroke="#666666" points="905.5,-78 758.5,-78 758.5,-48 905.5,-48 905.5,-78"/>
<text text-anchor="start" x="766.5" y="-66" font-family="Helvetica,sans-Serif" font-size="10.00">DynExpInstr::ZI_MFLITasks</text>
<text text-anchor="middle" x="832" y="-55" font-family="Helvetica,sans-Serif" font-size="10.00">::ExitTask</text>
</a>
</g>
</g>
<!-- Node19&#45;&gt;Node20 -->
<g id="edge19_Node000019_Node000020" class="edge">
<title>Node19&#45;&gt;Node20</title>
<g id="a_edge19_Node000019_Node000020"><a xlink:title=" ">
<path fill="none" stroke="#63b8ff" d="M708.53,-63C725.16,-63 742.37,-63 758.45,-63"/>
<polygon fill="#63b8ff" stroke="#63b8ff" points="708.27,-59.5 698.27,-63 708.27,-66.5 708.27,-59.5"/>
</a>
</g>
</g>
<!-- Node22 -->
<g id="Node000022" class="node">
<title>Node22</title>
<g id="a_Node000022"><a xlink:href="classDynExpInstr_1_1QutoolsQuTAGTasks_1_1ExitTask.html" target="_top" xlink:title=" ">
<polygon fill="white" stroke="#666666" points="921.5,-30 742.5,-30 742.5,0 921.5,0 921.5,-30"/>
<text text-anchor="start" x="750.5" y="-18" font-family="Helvetica,sans-Serif" font-size="10.00">DynExpInstr::QutoolsQuTAGTasks</text>
<text text-anchor="middle" x="832" y="-7" font-family="Helvetica,sans-Serif" font-size="10.00">::ExitTask</text>
</a>
</g>
</g>
<!-- Node21&#45;&gt;Node22 -->
<g id="edge21_Node000021_Node000022" class="edge">
<title>Node21&#45;&gt;Node22</title>
<g id="a_edge21_Node000021_Node000022"><a xlink:title=" ">
<path fill="none" stroke="#63b8ff" d="M712.47,-15C722.41,-15 732.51,-15 742.41,-15"/>
<polygon fill="#63b8ff" stroke="#63b8ff" points="712.18,-11.5 702.18,-15 712.18,-18.5 712.18,-11.5"/>
</a>
</g>
</g>
</g>
</svg>
