<?xml version="1.0" encoding="UTF-8" standalone="no"?>
<!DOCTYPE svg PUBLIC "-//W3C//DTD SVG 1.1//EN"
 "http://www.w3.org/Graphics/SVG/1.1/DTD/svg11.dtd">
<!-- Generated by graphviz version 2.43.0 (0)
 -->
<!-- Title: DynExpInstr::TimeTaggerTasks::InitTask Pages: 1 -->
<svg width="202pt" height="280pt"
 viewBox="0.00 0.00 202.00 280.00" xmlns="http://www.w3.org/2000/svg" xmlns:xlink="http://www.w3.org/1999/xlink">
<g id="graph0" class="graph" transform="scale(1 1) rotate(0) translate(4 276)">
<title>DynExpInstr::TimeTaggerTasks::InitTask</title>
<!-- Node1 -->
<g id="Node000001" class="node">
<title>Node1</title>
<g id="a_Node000001"><a xlink:title="Defines a task for initializing an instrument within an instrument inheritance hierarchy....">
<polygon fill="#999999" stroke="#666666" points="180,-96 14,-96 14,-66 180,-66 180,-96"/>
<text text-anchor="start" x="22" y="-84" font-family="Helvetica,sans-Serif" font-size="10.00">DynExpInstr::TimeTaggerTasks</text>
<text text-anchor="middle" x="97" y="-73" font-family="Helvetica,sans-Serif" font-size="10.00">::InitTask</text>
</a>
</g>
</g>
<!-- Node5 -->
<g id="Node000005" class="node">
<title>Node5</title>
<g id="a_Node000005"><a xlink:href="classDynExpInstr_1_1QutoolsQuTAGTasks_1_1InitTask.html" target="_top" xlink:title=" ">
<polygon fill="white" stroke="#666666" points="186.5,-30 7.5,-30 7.5,0 186.5,0 186.5,-30"/>
<text text-anchor="start" x="15.5" y="-18" font-family="Helvetica,sans-Serif" font-size="10.00">DynExpInstr::QutoolsQuTAGTasks</text>
<text text-anchor="middle" x="97" y="-7" font-family="Helvetica,sans-Serif" font-size="10.00">::InitTask</text>
</a>
</g>
</g>
<!-- Node1&#45;&gt;Node5 -->
<g id="edge4_Node000001_Node000005" class="edge">
<title>Node1&#45;&gt;Node5</title>
<g id="a_edge4_Node000001_Node000005"><a xlink:title=" ">
<path fill="none" stroke="#63b8ff" d="M97,-55.54C97,-46.96 97,-37.61 97,-30.16"/>
<polygon fill="#63b8ff" stroke="#63b8ff" points="93.5,-55.8 97,-65.8 100.5,-55.8 93.5,-55.8"/>
</a>
</g>
</g>
<!-- Node2 -->
<g id="Node000002" class="node">
<title>Node2</title>
<g id="a_Node000002"><a xlink:href="classDynExpInstr_1_1DataStreamInstrumentTasks_1_1InitTask.html" target="_top" xlink:title="Defines a task for initializing an instrument within an instrument inheritance hierarchy....">
<polygon fill="white" stroke="#666666" points="194,-162 0,-162 0,-132 194,-132 194,-162"/>
<text text-anchor="start" x="8" y="-150" font-family="Helvetica,sans-Serif" font-size="10.00">DynExpInstr::DataStreamInstrument</text>
<text text-anchor="middle" x="97" y="-139" font-family="Helvetica,sans-Serif" font-size="10.00">Tasks::InitTask</text>
</a>
</g>
</g>
<!-- Node2&#45;&gt;Node1 -->
<g id="edge1_Node000001_Node000002" class="edge">
<title>Node2&#45;&gt;Node1</title>
<g id="a_edge1_Node000001_Node000002"><a xlink:title=" ">
<path fill="none" stroke="#63b8ff" d="M97,-121.54C97,-112.96 97,-103.61 97,-96.16"/>
<polygon fill="#63b8ff" stroke="#63b8ff" points="93.5,-121.8 97,-131.8 100.5,-121.8 93.5,-121.8"/>
</a>
</g>
</g>
<!-- Node3 -->
<g id="Node000003" class="node">
<title>Node3</title>
<g id="a_Node000003"><a xlink:href="classDynExp_1_1InitTaskBase.html" target="_top" xlink:title="Defines a task for initializing an instrument within an instrument inheritance hierarchy....">
<polygon fill="white" stroke="#666666" points="158,-217 36,-217 36,-198 158,-198 158,-217"/>
<text text-anchor="middle" x="97" y="-205" font-family="Helvetica,sans-Serif" font-size="10.00">DynExp::InitTaskBase</text>
</a>
</g>
</g>
<!-- Node3&#45;&gt;Node2 -->
<g id="edge2_Node000002_Node000003" class="edge">
<title>Node3&#45;&gt;Node2</title>
<g id="a_edge2_Node000002_Node000003"><a xlink:title=" ">
<path fill="none" stroke="#63b8ff" d="M97,-187.65C97,-179.36 97,-169.78 97,-162.11"/>
<polygon fill="#63b8ff" stroke="#63b8ff" points="93.5,-187.87 97,-197.87 100.5,-187.87 93.5,-187.87"/>
</a>
</g>
</g>
<!-- Node4 -->
<g id="Node000004" class="node">
<title>Node4</title>
<g id="a_Node000004"><a xlink:href="classDynExp_1_1TaskBase.html" target="_top" xlink:title="Base class for all tasks being processed by instruments. The class must not contain public virtual fu...">
<polygon fill="white" stroke="#666666" points="150,-272 44,-272 44,-253 150,-253 150,-272"/>
<text text-anchor="middle" x="97" y="-260" font-family="Helvetica,sans-Serif" font-size="10.00">DynExp::TaskBase</text>
</a>
</g>
</g>
<!-- Node4&#45;&gt;Node3 -->
<g id="edge3_Node000003_Node000004" class="edge">
<title>Node4&#45;&gt;Node3</title>
<g id="a_edge3_Node000003_Node000004"><a xlink:title=" ">
<path fill="none" stroke="#63b8ff" d="M97,-242.66C97,-233.93 97,-223.99 97,-217.09"/>
<polygon fill="#63b8ff" stroke="#63b8ff" points="93.5,-242.75 97,-252.75 100.5,-242.75 93.5,-242.75"/>
</a>
</g>
</g>
</g>
</svg>
