<?xml version="1.0" encoding="UTF-8" standalone="no"?>
<!DOCTYPE svg PUBLIC "-//W3C//DTD SVG 1.1//EN"
 "http://www.w3.org/Graphics/SVG/1.1/DTD/svg11.dtd">
<!-- Generated by graphviz version 2.43.0 (0)
 -->
<!-- Title: DynExpModule::NetworkDataStreamInstrumentParams&lt; gRPCServices &gt; Pages: 1 -->
<svg width="181pt" height="401pt"
 viewBox="0.00 0.00 181.00 401.00" xmlns="http://www.w3.org/2000/svg" xmlns:xlink="http://www.w3.org/1999/xlink">
<g id="graph0" class="graph" transform="scale(1 1) rotate(0) translate(4 397)">
<title>DynExpModule::NetworkDataStreamInstrumentParams&lt; gRPCServices &gt;</title>
<!-- Node1 -->
<g id="Node000001" class="node">
<title>Node1</title>
<g id="a_Node000001"><a xlink:title=" ">
<polygon fill="#999999" stroke="#666666" points="167,-41 6,-41 6,0 167,0 167,-41"/>
<text text-anchor="start" x="14" y="-29" font-family="Helvetica,sans-Serif" font-size="10.00">DynExpModule::NetworkData</text>
<text text-anchor="start" x="14" y="-18" font-family="Helvetica,sans-Serif" font-size="10.00">StreamInstrumentParams</text>
<text text-anchor="middle" x="86.5" y="-7" font-family="Helvetica,sans-Serif" font-size="10.00">&lt; gRPCServices &gt;</text>
</a>
</g>
</g>
<!-- Node2 -->
<g id="Node000002" class="node">
<title>Node2</title>
<g id="a_Node000002"><a xlink:href="classDynExpModule_1_1gRPCModuleParams.html" target="_top" xlink:title=" ">
<polygon fill="white" stroke="#666666" points="165.5,-107 7.5,-107 7.5,-77 165.5,-77 165.5,-107"/>
<text text-anchor="start" x="15.5" y="-95" font-family="Helvetica,sans-Serif" font-size="10.00">DynExpModule::gRPCModule</text>
<text text-anchor="middle" x="86.5" y="-84" font-family="Helvetica,sans-Serif" font-size="10.00">Params&lt; gRPCServices... &gt;</text>
</a>
</g>
</g>
<!-- Node2&#45;&gt;Node1 -->
<g id="edge1_Node000001_Node000002" class="edge">
<title>Node2&#45;&gt;Node1</title>
<g id="a_edge1_Node000001_Node000002"><a xlink:title=" ">
<path fill="none" stroke="#63b8ff" d="M86.5,-66.91C86.5,-58.47 86.5,-49.1 86.5,-41.07"/>
<polygon fill="#63b8ff" stroke="#63b8ff" points="83,-66.94 86.5,-76.94 90,-66.94 83,-66.94"/>
</a>
</g>
</g>
<!-- Node3 -->
<g id="Node000003" class="node">
<title>Node3</title>
<g id="a_Node000003"><a xlink:href="classDynExp_1_1ModuleParamsBase.html" target="_top" xlink:title="Parameter class for ModuleBase.">
<polygon fill="white" stroke="#666666" points="164.5,-162 8.5,-162 8.5,-143 164.5,-143 164.5,-162"/>
<text text-anchor="middle" x="86.5" y="-150" font-family="Helvetica,sans-Serif" font-size="10.00">DynExp::ModuleParamsBase</text>
</a>
</g>
</g>
<!-- Node3&#45;&gt;Node2 -->
<g id="edge2_Node000002_Node000003" class="edge">
<title>Node3&#45;&gt;Node2</title>
<g id="a_edge2_Node000002_Node000003"><a xlink:title=" ">
<path fill="none" stroke="#63b8ff" d="M86.5,-132.65C86.5,-124.36 86.5,-114.78 86.5,-107.11"/>
<polygon fill="#63b8ff" stroke="#63b8ff" points="83,-132.87 86.5,-142.87 90,-132.87 83,-132.87"/>
</a>
</g>
</g>
<!-- Node4 -->
<g id="Node000004" class="node">
<title>Node4</title>
<g id="a_Node000004"><a xlink:href="classDynExp_1_1RunnableObjectParams.html" target="_top" xlink:title="Parameter class for RunnableObject.">
<polygon fill="white" stroke="#666666" points="173,-217 0,-217 0,-198 173,-198 173,-217"/>
<text text-anchor="middle" x="86.5" y="-205" font-family="Helvetica,sans-Serif" font-size="10.00">DynExp::RunnableObjectParams</text>
</a>
</g>
</g>
<!-- Node4&#45;&gt;Node3 -->
<g id="edge3_Node000003_Node000004" class="edge">
<title>Node4&#45;&gt;Node3</title>
<g id="a_edge3_Node000003_Node000004"><a xlink:title=" ">
<path fill="none" stroke="#63b8ff" d="M86.5,-187.66C86.5,-178.93 86.5,-168.99 86.5,-162.09"/>
<polygon fill="#63b8ff" stroke="#63b8ff" points="83,-187.75 86.5,-197.75 90,-187.75 83,-187.75"/>
</a>
</g>
</g>
<!-- Node5 -->
<g id="Node000005" class="node">
<title>Node5</title>
<g id="a_Node000005"><a xlink:href="classDynExp_1_1ParamsBase.html" target="_top" xlink:title="Abstract base class for object parameter classes. Each class derived from class Object must be accomp...">
<polygon fill="white" stroke="#666666" points="146.5,-272 26.5,-272 26.5,-253 146.5,-253 146.5,-272"/>
<text text-anchor="middle" x="86.5" y="-260" font-family="Helvetica,sans-Serif" font-size="10.00">DynExp::ParamsBase</text>
</a>
</g>
</g>
<!-- Node5&#45;&gt;Node4 -->
<g id="edge4_Node000004_Node000005" class="edge">
<title>Node5&#45;&gt;Node4</title>
<g id="a_edge4_Node000004_Node000005"><a xlink:title=" ">
<path fill="none" stroke="#63b8ff" d="M86.5,-242.66C86.5,-233.93 86.5,-223.99 86.5,-217.09"/>
<polygon fill="#63b8ff" stroke="#63b8ff" points="83,-242.75 86.5,-252.75 90,-242.75 83,-242.75"/>
</a>
</g>
</g>
<!-- Node6 -->
<g id="Node000006" class="node">
<title>Node6</title>
<g id="a_Node000006"><a xlink:href="classUtil_1_1ISynchronizedPointerLockable.html" target="_top" xlink:title="Interface to allow synchronizing the access to derived classes between different threads by making th...">
<polygon fill="white" stroke="#666666" points="158,-338 15,-338 15,-308 158,-308 158,-338"/>
<text text-anchor="start" x="23" y="-326" font-family="Helvetica,sans-Serif" font-size="10.00">Util::ISynchronizedPointer</text>
<text text-anchor="middle" x="86.5" y="-315" font-family="Helvetica,sans-Serif" font-size="10.00">Lockable</text>
</a>
</g>
</g>
<!-- Node6&#45;&gt;Node5 -->
<g id="edge5_Node000005_Node000006" class="edge">
<title>Node6&#45;&gt;Node5</title>
<g id="a_edge5_Node000005_Node000006"><a xlink:title=" ">
<path fill="none" stroke="#63b8ff" d="M86.5,-297.75C86.5,-288.72 86.5,-279.03 86.5,-272.27"/>
<polygon fill="#63b8ff" stroke="#63b8ff" points="83,-297.84 86.5,-307.84 90,-297.84 83,-297.84"/>
</a>
</g>
</g>
<!-- Node7 -->
<g id="Node000007" class="node">
<title>Node7</title>
<g id="a_Node000007"><a xlink:href="classUtil_1_1INonCopyable.html" target="_top" xlink:title="Interface to delete copy constructor and copy assignment operator and thus make derived classes non&#45;c...">
<polygon fill="white" stroke="#666666" points="140.5,-393 32.5,-393 32.5,-374 140.5,-374 140.5,-393"/>
<text text-anchor="middle" x="86.5" y="-381" font-family="Helvetica,sans-Serif" font-size="10.00">Util::INonCopyable</text>
</a>
</g>
</g>
<!-- Node7&#45;&gt;Node6 -->
<g id="edge6_Node000006_Node000007" class="edge">
<title>Node7&#45;&gt;Node6</title>
<g id="a_edge6_Node000006_Node000007"><a xlink:title=" ">
<path fill="none" stroke="#63b8ff" d="M86.5,-363.65C86.5,-355.36 86.5,-345.78 86.5,-338.11"/>
<polygon fill="#63b8ff" stroke="#63b8ff" points="83,-363.87 86.5,-373.87 90,-363.87 83,-363.87"/>
</a>
</g>
</g>
</g>
</svg>
