<?xml version="1.0" encoding="UTF-8" standalone="no"?>
<!DOCTYPE svg PUBLIC "-//W3C//DTD SVG 1.1//EN"
 "http://www.w3.org/Graphics/SVG/1.1/DTD/svg11.dtd">
<!-- Generated by graphviz version 2.43.0 (0)
 -->
<!-- Title: DynExp::HardwareAdapterParamsBase Pages: 1 -->
<svg width="1374pt" height="394pt"
 viewBox="0.00 0.00 1374.00 393.50" xmlns="http://www.w3.org/2000/svg" xmlns:xlink="http://www.w3.org/1999/xlink">
<g id="graph0" class="graph" transform="scale(1 1) rotate(0) translate(4 389.5)">
<title>DynExp::HardwareAdapterParamsBase</title>
<polygon fill="white" stroke="transparent" points="-4,4 -4,-389.5 1370,-389.5 1370,4 -4,4"/>
<!-- Node1 -->
<g id="node1" class="node">
<title>Node1</title>
<g id="a_node1"><a xlink:title="Parameter class for HardwareAdapterBase.">
<polygon fill="#bfbfbf" stroke="black" points="479,-177 479,-196 685,-196 685,-177 479,-177"/>
<text text-anchor="middle" x="582" y="-184" font-family="Helvetica,sans-Serif" font-size="10.00">DynExp::HardwareAdapterParamsBase</text>
</a>
</g>
</g>
<!-- Node5 -->
<g id="node5" class="node">
<title>Node5</title>
<g id="a_node5"><a xlink:href="classDynExpHardware_1_1gRPCHardwareAdapterParams.html" target="_top" xlink:title=" ">
<polygon fill="white" stroke="black" points="737,-344 737,-385 917,-385 917,-344 737,-344"/>
<text text-anchor="start" x="745" y="-373" font-family="Helvetica,sans-Serif" font-size="10.00">DynExpHardware::gRPCHardware</text>
<text text-anchor="start" x="745" y="-362" font-family="Helvetica,sans-Serif" font-size="10.00">AdapterParams&lt; pulse_streamer</text>
<text text-anchor="middle" x="827" y="-351" font-family="Helvetica,sans-Serif" font-size="10.00">::PulseStreamer &gt;</text>
</a>
</g>
</g>
<!-- Node1&#45;&gt;Node5 -->
<g id="edge4" class="edge">
<title>Node1&#45;&gt;Node5</title>
<path fill="none" stroke="midnightblue" d="M595.01,-204.55C616.55,-235.55 664.82,-298.9 721,-333.5 727.39,-337.44 734.31,-340.9 741.44,-343.93"/>
<polygon fill="midnightblue" stroke="midnightblue" points="597.72,-202.33 589.2,-196.04 591.94,-206.27 597.72,-202.33"/>
</g>
<!-- Node7 -->
<g id="node7" class="node">
<title>Node7</title>
<g id="a_node7"><a xlink:href="classDynExp_1_1SerialCommunicationHardwareAdapterParams.html" target="_top" xlink:title="Parameter class for SerialCommunicationHardwareAdapter.">
<polygon fill="white" stroke="black" points="744.5,-294.5 744.5,-324.5 909.5,-324.5 909.5,-294.5 744.5,-294.5"/>
<text text-anchor="start" x="752.5" y="-312.5" font-family="Helvetica,sans-Serif" font-size="10.00">DynExp::SerialCommunication</text>
<text text-anchor="middle" x="827" y="-301.5" font-family="Helvetica,sans-Serif" font-size="10.00">HardwareAdapterParams</text>
</a>
</g>
</g>
<!-- Node1&#45;&gt;Node7 -->
<g id="edge6" class="edge">
<title>Node1&#45;&gt;Node7</title>
<path fill="none" stroke="midnightblue" d="M601.17,-202.94C626.28,-224.79 673.87,-263.14 721,-284.5 729.45,-288.33 738.55,-291.61 747.75,-294.42"/>
<polygon fill="midnightblue" stroke="midnightblue" points="603.36,-200.2 593.54,-196.21 598.72,-205.45 603.36,-200.2"/>
</g>
<!-- Node11 -->
<g id="node11" class="node">
<title>Node11</title>
<g id="a_node11"><a xlink:href="classDynExpHardware_1_1NIDAQHardwareAdapterParams.html" target="_top" xlink:title=" ">
<polygon fill="white" stroke="black" points="733.5,-245.5 733.5,-275.5 920.5,-275.5 920.5,-245.5 733.5,-245.5"/>
<text text-anchor="start" x="741.5" y="-263.5" font-family="Helvetica,sans-Serif" font-size="10.00">DynExpHardware::NIDAQHardware</text>
<text text-anchor="middle" x="827" y="-252.5" font-family="Helvetica,sans-Serif" font-size="10.00">AdapterParams</text>
</a>
</g>
</g>
<!-- Node1&#45;&gt;Node11 -->
<g id="edge10" class="edge">
<title>Node1&#45;&gt;Node11</title>
<path fill="none" stroke="midnightblue" d="M617.28,-199.83C645,-210.33 685.17,-224.91 721,-235.5 732.95,-239.03 745.78,-242.42 758.22,-245.49"/>
<polygon fill="midnightblue" stroke="midnightblue" points="618.26,-196.46 607.67,-196.16 615.76,-203 618.26,-196.46"/>
</g>
<!-- Node12 -->
<g id="node12" class="node">
<title>Node12</title>
<g id="a_node12"><a xlink:href="classDynExpHardware_1_1PVCamHardwareAdapterParams.html" target="_top" xlink:title=" ">
<polygon fill="white" stroke="black" points="732,-196.5 732,-226.5 922,-226.5 922,-196.5 732,-196.5"/>
<text text-anchor="start" x="740" y="-214.5" font-family="Helvetica,sans-Serif" font-size="10.00">DynExpHardware::PVCamHardware</text>
<text text-anchor="middle" x="827" y="-203.5" font-family="Helvetica,sans-Serif" font-size="10.00">AdapterParams</text>
</a>
</g>
</g>
<!-- Node1&#45;&gt;Node12 -->
<g id="edge11" class="edge">
<title>Node1&#45;&gt;Node12</title>
<path fill="none" stroke="midnightblue" d="M685.55,-197.05C700.85,-198.62 716.56,-200.24 731.68,-201.8"/>
<polygon fill="midnightblue" stroke="midnightblue" points="685.87,-193.56 675.56,-196.02 685.15,-200.53 685.87,-193.56"/>
</g>
<!-- Node13 -->
<g id="node13" class="node">
<title>Node13</title>
<g id="a_node13"><a xlink:href="classDynExpHardware_1_1QutoolsTDCHardwareAdapterParams.html" target="_top" xlink:title=" ">
<polygon fill="white" stroke="black" points="721,-147.5 721,-177.5 933,-177.5 933,-147.5 721,-147.5"/>
<text text-anchor="start" x="729" y="-165.5" font-family="Helvetica,sans-Serif" font-size="10.00">DynExpHardware::QutoolsTDCHardware</text>
<text text-anchor="middle" x="827" y="-154.5" font-family="Helvetica,sans-Serif" font-size="10.00">AdapterParams</text>
</a>
</g>
</g>
<!-- Node1&#45;&gt;Node13 -->
<g id="edge12" class="edge">
<title>Node1&#45;&gt;Node13</title>
<path fill="none" stroke="midnightblue" d="M689.37,-175.99C699.85,-174.96 710.47,-173.91 720.93,-172.88"/>
<polygon fill="midnightblue" stroke="midnightblue" points="689,-172.51 679.39,-176.98 689.68,-179.48 689,-172.51"/>
</g>
<!-- Node14 -->
<g id="node14" class="node">
<title>Node14</title>
<g id="a_node14"><a xlink:href="classDynExpHardware_1_1SmarActHardwareAdapterParams.html" target="_top" xlink:title=" ">
<polygon fill="white" stroke="black" points="729,-98.5 729,-128.5 925,-128.5 925,-98.5 729,-98.5"/>
<text text-anchor="start" x="737" y="-116.5" font-family="Helvetica,sans-Serif" font-size="10.00">DynExpHardware::SmarActHardware</text>
<text text-anchor="middle" x="827" y="-105.5" font-family="Helvetica,sans-Serif" font-size="10.00">AdapterParams</text>
</a>
</g>
</g>
<!-- Node1&#45;&gt;Node14 -->
<g id="edge13" class="edge">
<title>Node1&#45;&gt;Node14</title>
<path fill="none" stroke="midnightblue" d="M616.76,-173.27C644.48,-162.71 684.91,-147.99 721,-137.5 731.95,-134.32 743.65,-131.29 755.11,-128.52"/>
<polygon fill="midnightblue" stroke="midnightblue" points="615.23,-170.11 607.15,-176.96 617.74,-176.64 615.23,-170.11"/>
</g>
<!-- Node15 -->
<g id="node15" class="node">
<title>Node15</title>
<g id="a_node15"><a xlink:href="classDynExpHardware_1_1ZILabOneHardwareAdapterParams.html" target="_top" xlink:title=" ">
<polygon fill="white" stroke="black" points="750,-49.5 750,-79.5 904,-79.5 904,-49.5 750,-49.5"/>
<text text-anchor="start" x="758" y="-67.5" font-family="Helvetica,sans-Serif" font-size="10.00">DynExpHardware::ZILabOne</text>
<text text-anchor="middle" x="827" y="-56.5" font-family="Helvetica,sans-Serif" font-size="10.00">HardwareAdapterParams</text>
</a>
</g>
</g>
<!-- Node1&#45;&gt;Node15 -->
<g id="edge14" class="edge">
<title>Node1&#45;&gt;Node15</title>
<path fill="none" stroke="midnightblue" d="M601.14,-170C626.22,-148.07 673.78,-109.65 721,-88.5 730.13,-84.41 740.03,-80.98 749.98,-78.12"/>
<polygon fill="midnightblue" stroke="midnightblue" points="598.68,-167.5 593.53,-176.75 603.33,-172.73 598.68,-167.5"/>
</g>
<!-- Node16 -->
<g id="node16" class="node">
<title>Node16</title>
<g id="a_node16"><a xlink:href="classDynExpHardware_1_1gRPCHardwareAdapterParams.html" target="_top" xlink:title="Parameter class for gRPCHardwareAdapter.">
<polygon fill="white" stroke="black" points="737,-0.5 737,-30.5 917,-30.5 917,-0.5 737,-0.5"/>
<text text-anchor="start" x="745" y="-18.5" font-family="Helvetica,sans-Serif" font-size="10.00">DynExpHardware::gRPCHardware</text>
<text text-anchor="middle" x="827" y="-7.5" font-family="Helvetica,sans-Serif" font-size="10.00">AdapterParams&lt; gRPCStub &gt;</text>
</a>
</g>
</g>
<!-- Node1&#45;&gt;Node16 -->
<g id="edge15" class="edge">
<title>Node1&#45;&gt;Node16</title>
<path fill="none" stroke="midnightblue" d="M594.79,-168.08C616,-136.52 663.77,-72.33 721,-39.5 727,-36.06 733.46,-33.11 740.12,-30.58"/>
<polygon fill="midnightblue" stroke="midnightblue" points="591.65,-166.48 589.07,-176.76 597.5,-170.33 591.65,-166.48"/>
</g>
<!-- Node2 -->
<g id="node2" class="node">
<title>Node2</title>
<g id="a_node2"><a xlink:href="classDynExp_1_1ParamsBase.html" target="_top" xlink:title="Abstract base class for object parameter classes. Each class derived from class Object must be accomp...">
<polygon fill="white" stroke="black" points="323,-177 323,-196 443,-196 443,-177 323,-177"/>
<text text-anchor="middle" x="383" y="-184" font-family="Helvetica,sans-Serif" font-size="10.00">DynExp::ParamsBase</text>
</a>
</g>
</g>
<!-- Node2&#45;&gt;Node1 -->
<g id="edge1" class="edge">
<title>Node2&#45;&gt;Node1</title>
<path fill="none" stroke="midnightblue" d="M453.13,-186.5C461.48,-186.5 470.15,-186.5 478.85,-186.5"/>
<polygon fill="midnightblue" stroke="midnightblue" points="453.11,-183 443.11,-186.5 453.11,-190 453.11,-183"/>
</g>
<!-- Node3 -->
<g id="node3" class="node">
<title>Node3</title>
<g id="a_node3"><a xlink:href="classUtil_1_1ISynchronizedPointerLockable.html" target="_top" xlink:title="Interface to allow synchronizing the access to derived classes between different threads by making th...">
<polygon fill="white" stroke="black" points="144,-171.5 144,-201.5 287,-201.5 287,-171.5 144,-171.5"/>
<text text-anchor="start" x="152" y="-189.5" font-family="Helvetica,sans-Serif" font-size="10.00">Util::ISynchronizedPointer</text>
<text text-anchor="middle" x="215.5" y="-178.5" font-family="Helvetica,sans-Serif" font-size="10.00">Lockable</text>
</a>
</g>
</g>
<!-- Node3&#45;&gt;Node2 -->
<g id="edge2" class="edge">
<title>Node3&#45;&gt;Node2</title>
<path fill="none" stroke="midnightblue" d="M297.23,-186.5C305.84,-186.5 314.47,-186.5 322.76,-186.5"/>
<polygon fill="midnightblue" stroke="midnightblue" points="297.17,-183 287.17,-186.5 297.17,-190 297.17,-183"/>
</g>
<!-- Node4 -->
<g id="node4" class="node">
<title>Node4</title>
<g id="a_node4"><a xlink:href="classUtil_1_1INonCopyable.html" target="_top" xlink:title="Interface to delete copy constructor and copy assignment operator and thus make derived classes non&#45;c...">
<polygon fill="white" stroke="black" points="0,-177 0,-196 108,-196 108,-177 0,-177"/>
<text text-anchor="middle" x="54" y="-184" font-family="Helvetica,sans-Serif" font-size="10.00">Util::INonCopyable</text>
</a>
</g>
</g>
<!-- Node4&#45;&gt;Node3 -->
<g id="edge3" class="edge">
<title>Node4&#45;&gt;Node3</title>
<path fill="none" stroke="midnightblue" d="M118.19,-186.5C126.58,-186.5 135.23,-186.5 143.74,-186.5"/>
<polygon fill="midnightblue" stroke="midnightblue" points="118.11,-183 108.11,-186.5 118.11,-190 118.11,-183"/>
</g>
<!-- Node6 -->
<g id="node6" class="node">
<title>Node6</title>
<g id="a_node6"><a xlink:href="classDynExpHardware_1_1SIPulseStreamerHardwareAdapterParams.html" target="_top" xlink:title=" ">
<polygon fill="white" stroke="black" points="969,-349.5 969,-379.5 1157,-379.5 1157,-349.5 969,-349.5"/>
<text text-anchor="start" x="977" y="-367.5" font-family="Helvetica,sans-Serif" font-size="10.00">DynExpHardware::SIPulseStreamer</text>
<text text-anchor="middle" x="1063" y="-356.5" font-family="Helvetica,sans-Serif" font-size="10.00">HardwareAdapterParams</text>
</a>
</g>
</g>
<!-- Node5&#45;&gt;Node6 -->
<g id="edge5" class="edge">
<title>Node5&#45;&gt;Node6</title>
<path fill="none" stroke="midnightblue" d="M927.53,-364.5C941.23,-364.5 955.26,-364.5 968.84,-364.5"/>
<polygon fill="midnightblue" stroke="midnightblue" points="927.13,-361 917.13,-364.5 927.13,-368 927.13,-361"/>
</g>
<!-- Node8 -->
<g id="node8" class="node">
<title>Node8</title>
<g id="a_node8"><a xlink:href="classDynExp_1_1QSerialCommunicationHardwareAdapterParams.html" target="_top" xlink:title="Parameter class for QSerialCommunicationHardwareAdapter.">
<polygon fill="white" stroke="black" points="976.5,-294.5 976.5,-324.5 1149.5,-324.5 1149.5,-294.5 976.5,-294.5"/>
<text text-anchor="start" x="984.5" y="-312.5" font-family="Helvetica,sans-Serif" font-size="10.00">DynExp::QSerialCommunication</text>
<text text-anchor="middle" x="1063" y="-301.5" font-family="Helvetica,sans-Serif" font-size="10.00">HardwareAdapterParams</text>
</a>
</g>
</g>
<!-- Node7&#45;&gt;Node8 -->
<g id="edge7" class="edge">
<title>Node7&#45;&gt;Node8</title>
<path fill="none" stroke="midnightblue" d="M919.77,-309.5C938.42,-309.5 957.98,-309.5 976.41,-309.5"/>
<polygon fill="midnightblue" stroke="midnightblue" points="919.51,-306 909.51,-309.5 919.51,-313 919.51,-306"/>
</g>
<!-- Node9 -->
<g id="node9" class="node">
<title>Node9</title>
<g id="a_node9"><a xlink:href="classDynExp_1_1HardwareAdapterSerialPortParams.html" target="_top" xlink:title="Parameter class for HardwareAdapterSerialPort.">
<polygon fill="white" stroke="black" points="1193,-319.5 1193,-349.5 1366,-349.5 1366,-319.5 1193,-319.5"/>
<text text-anchor="start" x="1201" y="-337.5" font-family="Helvetica,sans-Serif" font-size="10.00">DynExp::HardwareAdapterSerial</text>
<text text-anchor="middle" x="1279.5" y="-326.5" font-family="Helvetica,sans-Serif" font-size="10.00">PortParams</text>
</a>
</g>
</g>
<!-- Node8&#45;&gt;Node9 -->
<g id="edge8" class="edge">
<title>Node8&#45;&gt;Node9</title>
<path fill="none" stroke="midnightblue" d="M1159.78,-320.66C1170.83,-321.95 1182.04,-323.26 1192.94,-324.53"/>
<polygon fill="midnightblue" stroke="midnightblue" points="1160.04,-317.17 1149.7,-319.49 1159.23,-324.12 1160.04,-317.17"/>
</g>
<!-- Node10 -->
<g id="node10" class="node">
<title>Node10</title>
<g id="a_node10"><a xlink:href="classDynExp_1_1HardwareAdapterTcpSocketParams.html" target="_top" xlink:title="Parameter class for HardwareAdapterTcpSocket.">
<polygon fill="white" stroke="black" points="1199,-270.5 1199,-300.5 1360,-300.5 1360,-270.5 1199,-270.5"/>
<text text-anchor="start" x="1207" y="-288.5" font-family="Helvetica,sans-Serif" font-size="10.00">DynExp::HardwareAdapterTcp</text>
<text text-anchor="middle" x="1279.5" y="-277.5" font-family="Helvetica,sans-Serif" font-size="10.00">SocketParams</text>
</a>
</g>
</g>
<!-- Node8&#45;&gt;Node10 -->
<g id="edge9" class="edge">
<title>Node8&#45;&gt;Node10</title>
<path fill="none" stroke="midnightblue" d="M1159.66,-298.8C1172.75,-297.33 1186.08,-295.84 1198.85,-294.41"/>
<polygon fill="midnightblue" stroke="midnightblue" points="1159.25,-295.32 1149.7,-299.91 1160.03,-302.28 1159.25,-295.32"/>
</g>
</g>
</svg>
