<?xml version="1.0" encoding="UTF-8" standalone="no"?>
<!DOCTYPE svg PUBLIC "-//W3C//DTD SVG 1.1//EN"
 "http://www.w3.org/Graphics/SVG/1.1/DTD/svg11.dtd">
<!-- Generated by graphviz version 2.43.0 (0)
 -->
<!-- Title: DynExp::QModuleBase Pages: 1 -->
<svg width="821pt" height="477pt"
 viewBox="0.00 0.00 821.00 477.00" xmlns="http://www.w3.org/2000/svg" xmlns:xlink="http://www.w3.org/1999/xlink">
<g id="graph0" class="graph" transform="scale(1 1) rotate(0) translate(4 473)">
<title>DynExp::QModuleBase</title>
<polygon fill="white" stroke="transparent" points="-4,4 -4,-473 817,-473 817,4 -4,4"/>
<!-- Node1 -->
<g id="node1" class="node">
<title>Node1</title>
<g id="a_node1"><a xlink:title="Base class for modules with a Qt&#45;based user interface. Derive from this class to implement modules wi...">
<polygon fill="#bfbfbf" stroke="black" points="473,-214 473,-233 601,-233 601,-214 473,-214"/>
<text text-anchor="middle" x="537" y="-221" font-family="Helvetica,sans-Serif" font-size="10.00">DynExp::QModuleBase</text>
</a>
</g>
</g>
<!-- Node6 -->
<g id="node6" class="node">
<title>Node6</title>
<g id="a_node6"><a xlink:href="classDynExpModule_1_1ImageViewer_1_1ImageViewer.html" target="_top" xlink:title=" ">
<polygon fill="white" stroke="black" points="644.5,-438.5 644.5,-468.5 805.5,-468.5 805.5,-438.5 644.5,-438.5"/>
<text text-anchor="start" x="652.5" y="-456.5" font-family="Helvetica,sans-Serif" font-size="10.00">DynExpModule::ImageViewer</text>
<text text-anchor="middle" x="725" y="-445.5" font-family="Helvetica,sans-Serif" font-size="10.00">::ImageViewer</text>
</a>
</g>
</g>
<!-- Node1&#45;&gt;Node6 -->
<g id="edge5" class="edge">
<title>Node1&#45;&gt;Node6</title>
<path fill="none" stroke="midnightblue" d="M541.87,-243.19C550.95,-284.03 577.48,-378.33 637,-428.5 641.57,-432.35 646.69,-435.61 652.12,-438.36"/>
<polygon fill="midnightblue" stroke="midnightblue" points="545.29,-242.44 539.81,-233.38 538.44,-243.88 545.29,-242.44"/>
</g>
<!-- Node7 -->
<g id="node7" class="node">
<title>Node7</title>
<g id="a_node7"><a xlink:href="classDynExpModule_1_1InputPortReader.html" target="_top" xlink:title=" ">
<polygon fill="white" stroke="black" points="637.5,-400 637.5,-419 812.5,-419 812.5,-400 637.5,-400"/>
<text text-anchor="middle" x="725" y="-407" font-family="Helvetica,sans-Serif" font-size="10.00">DynExpModule::InputPortReader</text>
</a>
</g>
</g>
<!-- Node1&#45;&gt;Node7 -->
<g id="edge6" class="edge">
<title>Node1&#45;&gt;Node7</title>
<path fill="none" stroke="midnightblue" d="M543.77,-242.92C555.32,-278.23 584.75,-352.77 637,-390.5 642.26,-394.3 648.14,-397.37 654.29,-399.83"/>
<polygon fill="midnightblue" stroke="midnightblue" points="547.09,-241.8 540.76,-233.31 540.41,-243.9 547.09,-241.8"/>
</g>
<!-- Node8 -->
<g id="node8" class="node">
<title>Node8</title>
<g id="a_node8"><a xlink:href="classDynExpModule_1_1LockinAmplifierControl.html" target="_top" xlink:title=" ">
<polygon fill="white" stroke="black" points="639,-350.5 639,-380.5 811,-380.5 811,-350.5 639,-350.5"/>
<text text-anchor="start" x="647" y="-368.5" font-family="Helvetica,sans-Serif" font-size="10.00">DynExpModule::LockinAmplifier</text>
<text text-anchor="middle" x="725" y="-357.5" font-family="Helvetica,sans-Serif" font-size="10.00">Control</text>
</a>
</g>
</g>
<!-- Node1&#45;&gt;Node8 -->
<g id="edge7" class="edge">
<title>Node1&#45;&gt;Node8</title>
<path fill="none" stroke="midnightblue" d="M548.52,-242.03C564.33,-268.19 596.7,-315.61 637,-341.5 642.41,-344.97 648.31,-347.95 654.42,-350.5"/>
<polygon fill="midnightblue" stroke="midnightblue" points="551.38,-239.98 543.29,-233.14 545.34,-243.53 551.38,-239.98"/>
</g>
<!-- Node9 -->
<g id="node9" class="node">
<title>Node9</title>
<g id="a_node9"><a xlink:href="classDynExpModule_1_1ODMR_1_1ODMR.html" target="_top" xlink:title=" ">
<polygon fill="white" stroke="black" points="661.5,-301.5 661.5,-331.5 788.5,-331.5 788.5,-301.5 661.5,-301.5"/>
<text text-anchor="start" x="669.5" y="-319.5" font-family="Helvetica,sans-Serif" font-size="10.00">DynExpModule::ODMR</text>
<text text-anchor="middle" x="725" y="-308.5" font-family="Helvetica,sans-Serif" font-size="10.00">::ODMR</text>
</a>
</g>
</g>
<!-- Node1&#45;&gt;Node9 -->
<g id="edge8" class="edge">
<title>Node1&#45;&gt;Node9</title>
<path fill="none" stroke="midnightblue" d="M556.99,-239.7C576.08,-255.24 606.9,-278.37 637,-292.5 644.66,-296.1 652.96,-299.24 661.29,-301.97"/>
<polygon fill="midnightblue" stroke="midnightblue" points="559.03,-236.84 549.09,-233.16 554.56,-242.23 559.03,-236.84"/>
</g>
<!-- Node10 -->
<g id="node10" class="node">
<title>Node10</title>
<g id="a_node10"><a xlink:href="classDynExpModule_1_1OutputPortWriter.html" target="_top" xlink:title=" ">
<polygon fill="white" stroke="black" points="650.5,-252.5 650.5,-282.5 799.5,-282.5 799.5,-252.5 650.5,-252.5"/>
<text text-anchor="start" x="658.5" y="-270.5" font-family="Helvetica,sans-Serif" font-size="10.00">DynExpModule::OutputPort</text>
<text text-anchor="middle" x="725" y="-259.5" font-family="Helvetica,sans-Serif" font-size="10.00">Writer</text>
</a>
</g>
</g>
<!-- Node1&#45;&gt;Node10 -->
<g id="edge9" class="edge">
<title>Node1&#45;&gt;Node10</title>
<path fill="none" stroke="midnightblue" d="M588.24,-235.38C610.43,-240.63 636.77,-246.86 660.31,-252.43"/>
<polygon fill="midnightblue" stroke="midnightblue" points="588.9,-231.94 578.36,-233.05 587.28,-238.76 588.9,-231.94"/>
</g>
<!-- Node11 -->
<g id="node11" class="node">
<title>Node11</title>
<g id="a_node11"><a xlink:href="classDynExpModule_1_1SignalDesigner.html" target="_top" xlink:title=" ">
<polygon fill="white" stroke="black" points="640,-214 640,-233 810,-233 810,-214 640,-214"/>
<text text-anchor="middle" x="725" y="-221" font-family="Helvetica,sans-Serif" font-size="10.00">DynExpModule::SignalDesigner</text>
</a>
</g>
</g>
<!-- Node1&#45;&gt;Node11 -->
<g id="edge10" class="edge">
<title>Node1&#45;&gt;Node11</title>
<path fill="none" stroke="midnightblue" d="M611.28,-223.5C620.66,-223.5 630.33,-223.5 639.87,-223.5"/>
<polygon fill="midnightblue" stroke="midnightblue" points="611.23,-220 601.23,-223.5 611.23,-227 611.23,-220"/>
</g>
<!-- Node12 -->
<g id="node12" class="node">
<title>Node12</title>
<g id="a_node12"><a xlink:href="classDynExpModule_1_1SignalPlotter.html" target="_top" xlink:title=" ">
<polygon fill="white" stroke="black" points="646,-176 646,-195 804,-195 804,-176 646,-176"/>
<text text-anchor="middle" x="725" y="-183" font-family="Helvetica,sans-Serif" font-size="10.00">DynExpModule::SignalPlotter</text>
</a>
</g>
</g>
<!-- Node1&#45;&gt;Node12 -->
<g id="edge11" class="edge">
<title>Node1&#45;&gt;Node12</title>
<path fill="none" stroke="midnightblue" d="M594.83,-211.89C621.28,-206.49 652.36,-200.14 677.4,-195.02"/>
<polygon fill="midnightblue" stroke="midnightblue" points="594.03,-208.48 584.94,-213.91 595.43,-215.34 594.03,-208.48"/>
</g>
<!-- Node13 -->
<g id="node13" class="node">
<title>Node13</title>
<g id="a_node13"><a xlink:href="classDynExpModule_1_1SpectrumViewer_1_1SpectrumViewer.html" target="_top" xlink:title=" ">
<polygon fill="white" stroke="black" points="637,-126.5 637,-156.5 813,-156.5 813,-126.5 637,-126.5"/>
<text text-anchor="start" x="645" y="-144.5" font-family="Helvetica,sans-Serif" font-size="10.00">DynExpModule::SpectrumViewer</text>
<text text-anchor="middle" x="725" y="-133.5" font-family="Helvetica,sans-Serif" font-size="10.00">::SpectrumViewer</text>
</a>
</g>
</g>
<!-- Node1&#45;&gt;Node13 -->
<g id="edge12" class="edge">
<title>Node1&#45;&gt;Node13</title>
<path fill="none" stroke="midnightblue" d="M560.69,-208.3C580.25,-195.74 609.57,-178.13 637,-166.5 645.68,-162.82 655.07,-159.49 664.36,-156.55"/>
<polygon fill="midnightblue" stroke="midnightblue" points="558.65,-205.46 552.19,-213.85 562.47,-211.32 558.65,-205.46"/>
</g>
<!-- Node14 -->
<g id="node14" class="node">
<title>Node14</title>
<g id="a_node14"><a xlink:href="classDynExpModule_1_1Stage1D.html" target="_top" xlink:title=" ">
<polygon fill="white" stroke="black" points="656.5,-88 656.5,-107 793.5,-107 793.5,-88 656.5,-88"/>
<text text-anchor="middle" x="725" y="-95" font-family="Helvetica,sans-Serif" font-size="10.00">DynExpModule::Stage1D</text>
</a>
</g>
</g>
<!-- Node1&#45;&gt;Node14 -->
<g id="edge13" class="edge">
<title>Node1&#45;&gt;Node14</title>
<path fill="none" stroke="midnightblue" d="M549.48,-205.39C565.84,-181.17 598.21,-138.69 637,-116.5 643.84,-112.58 651.41,-109.48 659.15,-107.01"/>
<polygon fill="midnightblue" stroke="midnightblue" points="546.4,-203.71 543.83,-213.99 552.25,-207.55 546.4,-203.71"/>
</g>
<!-- Node15 -->
<g id="node15" class="node">
<title>Node15</title>
<g id="a_node15"><a xlink:href="classDynExpModule_1_1Trajectory1D.html" target="_top" xlink:title=" ">
<polygon fill="white" stroke="black" points="646,-50 646,-69 804,-69 804,-50 646,-50"/>
<text text-anchor="middle" x="725" y="-57" font-family="Helvetica,sans-Serif" font-size="10.00">DynExpModule::Trajectory1D</text>
</a>
</g>
</g>
<!-- Node1&#45;&gt;Node15 -->
<g id="edge14" class="edge">
<title>Node1&#45;&gt;Node15</title>
<path fill="none" stroke="midnightblue" d="M545.43,-204.46C558.74,-172.97 589.77,-110.35 637,-78.5 642.77,-74.61 649.2,-71.5 655.87,-69.02"/>
<polygon fill="midnightblue" stroke="midnightblue" points="542.13,-203.28 541.59,-213.86 548.61,-205.92 542.13,-203.28"/>
</g>
<!-- Node16 -->
<g id="node16" class="node">
<title>Node16</title>
<g id="a_node16"><a xlink:href="classDynExpModule_1_1Widefield_1_1WidefieldMicroscope.html" target="_top" xlink:title=" ">
<polygon fill="white" stroke="black" points="654,-0.5 654,-30.5 796,-30.5 796,-0.5 654,-0.5"/>
<text text-anchor="start" x="662" y="-18.5" font-family="Helvetica,sans-Serif" font-size="10.00">DynExpModule::Widefield</text>
<text text-anchor="middle" x="725" y="-7.5" font-family="Helvetica,sans-Serif" font-size="10.00">::WidefieldMicroscope</text>
</a>
</g>
</g>
<!-- Node1&#45;&gt;Node16 -->
<g id="edge15" class="edge">
<title>Node1&#45;&gt;Node16</title>
<path fill="none" stroke="midnightblue" d="M543.02,-204.15C553.74,-166.75 582.43,-84.39 637,-40.5 642.02,-36.46 647.66,-33.08 653.6,-30.24"/>
<polygon fill="midnightblue" stroke="midnightblue" points="539.64,-203.26 540.37,-213.83 546.39,-205.11 539.64,-203.26"/>
</g>
<!-- Node2 -->
<g id="node2" class="node">
<title>Node2</title>
<g id="a_node2"><a xlink:href="classDynExp_1_1ModuleBase.html" target="_top" xlink:title="Base class for modules. Modules implement programs on their own (e.g. measurement protocols or server...">
<polygon fill="white" stroke="black" points="317,-214 317,-233 437,-233 437,-214 317,-214"/>
<text text-anchor="middle" x="377" y="-221" font-family="Helvetica,sans-Serif" font-size="10.00">DynExp::ModuleBase</text>
</a>
</g>
</g>
<!-- Node2&#45;&gt;Node1 -->
<g id="edge1" class="edge">
<title>Node2&#45;&gt;Node1</title>
<path fill="none" stroke="midnightblue" d="M447.51,-223.5C455.97,-223.5 464.59,-223.5 472.95,-223.5"/>
<polygon fill="midnightblue" stroke="midnightblue" points="447.28,-220 437.28,-223.5 447.28,-227 447.28,-220"/>
</g>
<!-- Node3 -->
<g id="node3" class="node">
<title>Node3</title>
<g id="a_node3"><a xlink:href="classDynExp_1_1RunnableObject.html" target="_top" xlink:title="Defines an Object which possesses a thread it runs in. The RunnableObject can be started and stopped ...">
<polygon fill="white" stroke="black" points="144,-214 144,-233 281,-233 281,-214 144,-214"/>
<text text-anchor="middle" x="212.5" y="-221" font-family="Helvetica,sans-Serif" font-size="10.00">DynExp::RunnableObject</text>
</a>
</g>
</g>
<!-- Node3&#45;&gt;Node2 -->
<g id="edge2" class="edge">
<title>Node3&#45;&gt;Node2</title>
<path fill="none" stroke="midnightblue" d="M291.16,-223.5C299.85,-223.5 308.59,-223.5 316.99,-223.5"/>
<polygon fill="midnightblue" stroke="midnightblue" points="291,-220 281,-223.5 291,-227 291,-220"/>
</g>
<!-- Node4 -->
<g id="node4" class="node">
<title>Node4</title>
<g id="a_node4"><a xlink:href="classUtil_1_1INonCopyable.html" target="_top" xlink:title="Interface to delete copy constructor and copy assignment operator and thus make derived classes non&#45;c...">
<polygon fill="white" stroke="black" points="0,-233 0,-252 108,-252 108,-233 0,-233"/>
<text text-anchor="middle" x="54" y="-240" font-family="Helvetica,sans-Serif" font-size="10.00">Util::INonCopyable</text>
</a>
</g>
</g>
<!-- Node4&#45;&gt;Node3 -->
<g id="edge3" class="edge">
<title>Node4&#45;&gt;Node3</title>
<path fill="none" stroke="midnightblue" d="M118.5,-234.79C126.87,-233.77 135.49,-232.73 143.93,-231.7"/>
<polygon fill="midnightblue" stroke="midnightblue" points="117.93,-231.33 108.42,-236.01 118.77,-238.28 117.93,-231.33"/>
</g>
<!-- Node5 -->
<g id="node5" class="node">
<title>Node5</title>
<g id="a_node5"><a xlink:href="classDynExp_1_1Object.html" target="_top" xlink:title="Base class for all DynExp Objects like hardware adapters (DynExp::HardwareAdapterBase),...">
<polygon fill="white" stroke="black" points="8,-195 8,-214 100,-214 100,-195 8,-195"/>
<text text-anchor="middle" x="54" y="-202" font-family="Helvetica,sans-Serif" font-size="10.00">DynExp::Object</text>
</a>
</g>
</g>
<!-- Node5&#45;&gt;Node3 -->
<g id="edge4" class="edge">
<title>Node5&#45;&gt;Node3</title>
<path fill="none" stroke="midnightblue" d="M110.43,-211.23C121.26,-212.54 132.74,-213.94 143.91,-215.29"/>
<polygon fill="midnightblue" stroke="midnightblue" points="110.62,-207.73 100.27,-210 109.77,-214.68 110.62,-207.73"/>
</g>
</g>
</svg>
