<?xml version="1.0" encoding="UTF-8" standalone="no"?>
<!DOCTYPE svg PUBLIC "-//W3C//DTD SVG 1.1//EN"
 "http://www.w3.org/Graphics/SVG/1.1/DTD/svg11.dtd">
<!-- Generated by graphviz version 2.43.0 (0)
 -->
<!-- Title: DynExp::ModuleBase Pages: 1 -->
<svg width="1123pt" height="673pt"
 viewBox="0.00 0.00 1123.00 673.00" xmlns="http://www.w3.org/2000/svg" xmlns:xlink="http://www.w3.org/1999/xlink">
<g id="graph0" class="graph" transform="scale(1 1) rotate(0) translate(4 669)">
<title>DynExp::ModuleBase</title>
<polygon fill="white" stroke="transparent" points="-4,4 -4,-669 1119,-669 1119,4 -4,4"/>
<!-- Node1 -->
<g id="node1" class="node">
<title>Node1</title>
<g id="a_node1"><a xlink:title="Base class for modules. Modules implement programs on their own (e.g. measurement protocols or server...">
<polygon fill="#bfbfbf" stroke="black" points="317,-192 317,-211 437,-211 437,-192 317,-192"/>
<text text-anchor="middle" x="377" y="-199" font-family="Helvetica,sans-Serif" font-size="10.00">DynExp::ModuleBase</text>
</a>
</g>
</g>
<!-- Node5 -->
<g id="node5" class="node">
<title>Node5</title>
<g id="a_node5"><a xlink:href="classDynExpModule_1_1gRPCModule.html" target="_top" xlink:title=" ">
<polygon fill="white" stroke="black" points="489,-487.5 489,-517.5 647,-517.5 647,-487.5 489,-487.5"/>
<text text-anchor="start" x="497" y="-505.5" font-family="Helvetica,sans-Serif" font-size="10.00">DynExpModule::gRPCModule</text>
<text text-anchor="middle" x="568" y="-494.5" font-family="Helvetica,sans-Serif" font-size="10.00">&lt; gRPCServices... &gt;</text>
</a>
</g>
</g>
<!-- Node1&#45;&gt;Node5 -->
<g id="edge4" class="edge">
<title>Node1&#45;&gt;Node5</title>
<path fill="none" stroke="midnightblue" d="M389.52,-219.85C423.97,-274.72 525.77,-436.84 557.47,-487.32"/>
<polygon fill="midnightblue" stroke="midnightblue" points="392.36,-217.78 384.07,-211.17 386.43,-221.5 392.36,-217.78"/>
</g>
<!-- Node13 -->
<g id="node13" class="node">
<title>Node13</title>
<g id="a_node13"><a xlink:href="classDynExp_1_1QModuleBase.html" target="_top" xlink:title="Base class for modules with a Qt&#45;based user interface. Derive from this class to implement modules wi...">
<polygon fill="white" stroke="black" points="504,-236 504,-255 632,-255 632,-236 504,-236"/>
<text text-anchor="middle" x="568" y="-243" font-family="Helvetica,sans-Serif" font-size="10.00">DynExp::QModuleBase</text>
</a>
</g>
</g>
<!-- Node1&#45;&gt;Node13 -->
<g id="edge12" class="edge">
<title>Node1&#45;&gt;Node13</title>
<path fill="none" stroke="midnightblue" d="M421.84,-213.6C437.88,-217.88 456.22,-222.6 473,-226.5 487.27,-229.82 502.84,-233.1 517.12,-235.98"/>
<polygon fill="midnightblue" stroke="midnightblue" points="422.75,-210.22 412.18,-211.01 420.93,-216.98 422.75,-210.22"/>
</g>
<!-- Node25 -->
<g id="node25" class="node">
<title>Node25</title>
<g id="a_node25"><a xlink:href="classDynExpModule_1_1ArbitraryFunctionFromCSV.html" target="_top" xlink:title=" ">
<polygon fill="white" stroke="black" points="478,-186.5 478,-216.5 658,-216.5 658,-186.5 478,-186.5"/>
<text text-anchor="start" x="486" y="-204.5" font-family="Helvetica,sans-Serif" font-size="10.00">DynExpModule::ArbitraryFunction</text>
<text text-anchor="middle" x="568" y="-193.5" font-family="Helvetica,sans-Serif" font-size="10.00">FromCSV</text>
</a>
</g>
</g>
<!-- Node1&#45;&gt;Node25 -->
<g id="edge24" class="edge">
<title>Node1&#45;&gt;Node25</title>
<path fill="none" stroke="midnightblue" d="M447.26,-201.5C457.25,-201.5 467.65,-201.5 477.95,-201.5"/>
<polygon fill="midnightblue" stroke="midnightblue" points="447.02,-198 437.02,-201.5 447.02,-205 447.02,-198"/>
</g>
<!-- Node26 -->
<g id="node26" class="node">
<title>Node26</title>
<g id="a_node26"><a xlink:href="classDynExpModule_1_1StreamManipulator.html" target="_top" xlink:title="Module to process data stored in data stream instrument(s) with a Python script and to write the resu...">
<polygon fill="white" stroke="black" points="473,-148 473,-167 663,-167 663,-148 473,-148"/>
<text text-anchor="middle" x="568" y="-155" font-family="Helvetica,sans-Serif" font-size="10.00">DynExpModule::StreamManipulator</text>
</a>
</g>
</g>
<!-- Node1&#45;&gt;Node26 -->
<g id="edge25" class="edge">
<title>Node1&#45;&gt;Node26</title>
<path fill="none" stroke="midnightblue" d="M424.31,-189.43C439.77,-185.5 457.1,-181.2 473,-177.5 488.44,-173.91 505.36,-170.23 520.55,-167.02"/>
<polygon fill="midnightblue" stroke="midnightblue" points="423.28,-186.08 414.46,-191.95 425.02,-192.86 423.28,-186.08"/>
</g>
<!-- Node27 -->
<g id="node27" class="node">
<title>Node27</title>
<g id="a_node27"><a xlink:href="classDynExpModule_1_1gRPCModule.html" target="_top" xlink:title="Module template for building gRPC servers listening on TCP sockets for network instruments to connect...">
<polygon fill="white" stroke="black" points="489,-98.5 489,-128.5 647,-128.5 647,-98.5 489,-98.5"/>
<text text-anchor="start" x="497" y="-116.5" font-family="Helvetica,sans-Serif" font-size="10.00">DynExpModule::gRPCModule</text>
<text text-anchor="middle" x="568" y="-105.5" font-family="Helvetica,sans-Serif" font-size="10.00">&lt; gRPCServices &gt;</text>
</a>
</g>
</g>
<!-- Node1&#45;&gt;Node27 -->
<g id="edge26" class="edge">
<title>Node1&#45;&gt;Node27</title>
<path fill="none" stroke="midnightblue" d="M397.8,-185.57C416.28,-171.4 445.11,-151.05 473,-138.5 481.39,-134.72 490.47,-131.42 499.57,-128.57"/>
<polygon fill="midnightblue" stroke="midnightblue" points="395.58,-182.86 389.85,-191.77 399.88,-188.38 395.58,-182.86"/>
</g>
<!-- Node2 -->
<g id="node2" class="node">
<title>Node2</title>
<g id="a_node2"><a xlink:href="classDynExp_1_1RunnableObject.html" target="_top" xlink:title="Defines an Object which possesses a thread it runs in. The RunnableObject can be started and stopped ...">
<polygon fill="white" stroke="black" points="144,-192 144,-211 281,-211 281,-192 144,-192"/>
<text text-anchor="middle" x="212.5" y="-199" font-family="Helvetica,sans-Serif" font-size="10.00">DynExp::RunnableObject</text>
</a>
</g>
</g>
<!-- Node2&#45;&gt;Node1 -->
<g id="edge1" class="edge">
<title>Node2&#45;&gt;Node1</title>
<path fill="none" stroke="midnightblue" d="M291.16,-201.5C299.85,-201.5 308.59,-201.5 316.99,-201.5"/>
<polygon fill="midnightblue" stroke="midnightblue" points="291,-198 281,-201.5 291,-205 291,-198"/>
</g>
<!-- Node3 -->
<g id="node3" class="node">
<title>Node3</title>
<g id="a_node3"><a xlink:href="classUtil_1_1INonCopyable.html" target="_top" xlink:title="Interface to delete copy constructor and copy assignment operator and thus make derived classes non&#45;c...">
<polygon fill="white" stroke="black" points="0,-211 0,-230 108,-230 108,-211 0,-211"/>
<text text-anchor="middle" x="54" y="-218" font-family="Helvetica,sans-Serif" font-size="10.00">Util::INonCopyable</text>
</a>
</g>
</g>
<!-- Node3&#45;&gt;Node2 -->
<g id="edge2" class="edge">
<title>Node3&#45;&gt;Node2</title>
<path fill="none" stroke="midnightblue" d="M118.5,-212.79C126.87,-211.77 135.49,-210.73 143.93,-209.7"/>
<polygon fill="midnightblue" stroke="midnightblue" points="117.93,-209.33 108.42,-214.01 118.77,-216.28 117.93,-209.33"/>
</g>
<!-- Node4 -->
<g id="node4" class="node">
<title>Node4</title>
<g id="a_node4"><a xlink:href="classDynExp_1_1Object.html" target="_top" xlink:title="Base class for all DynExp Objects like hardware adapters (DynExp::HardwareAdapterBase),...">
<polygon fill="white" stroke="black" points="8,-173 8,-192 100,-192 100,-173 8,-173"/>
<text text-anchor="middle" x="54" y="-180" font-family="Helvetica,sans-Serif" font-size="10.00">DynExp::Object</text>
</a>
</g>
</g>
<!-- Node4&#45;&gt;Node2 -->
<g id="edge3" class="edge">
<title>Node4&#45;&gt;Node2</title>
<path fill="none" stroke="midnightblue" d="M110.43,-189.23C121.26,-190.54 132.74,-191.94 143.91,-193.29"/>
<polygon fill="midnightblue" stroke="midnightblue" points="110.62,-185.73 100.27,-188 109.77,-192.68 110.62,-185.73"/>
</g>
<!-- Node6 -->
<g id="node6" class="node">
<title>Node6</title>
<g id="a_node6"><a xlink:href="classDynExpModule_1_1NetworkDataStreamInstrumentT.html" target="_top" xlink:title=" ">
<polygon fill="white" stroke="black" points="699,-536.5 699,-566.5 908,-566.5 908,-536.5 699,-536.5"/>
<text text-anchor="start" x="707" y="-554.5" font-family="Helvetica,sans-Serif" font-size="10.00">DynExpModule::NetworkData</text>
<text text-anchor="middle" x="803.5" y="-543.5" font-family="Helvetica,sans-Serif" font-size="10.00">StreamInstrumentT&lt; gRPCServices... &gt;</text>
</a>
</g>
</g>
<!-- Node5&#45;&gt;Node6 -->
<g id="edge5" class="edge">
<title>Node5&#45;&gt;Node6</title>
<path fill="none" stroke="midnightblue" d="M650.55,-519.61C676.75,-525.11 705.56,-531.16 730.99,-536.49"/>
<polygon fill="midnightblue" stroke="midnightblue" points="651.15,-516.16 640.64,-517.53 649.71,-523.01 651.15,-516.16"/>
</g>
<!-- Node12 -->
<g id="node12" class="node">
<title>Node12</title>
<g id="a_node12"><a xlink:href="classDynExpModule_1_1NetworkDataStreamInstrumentT.html" target="_top" xlink:title=" ">
<polygon fill="white" stroke="black" points="703.5,-487.5 703.5,-517.5 903.5,-517.5 903.5,-487.5 703.5,-487.5"/>
<text text-anchor="start" x="711.5" y="-505.5" font-family="Helvetica,sans-Serif" font-size="10.00">DynExpModule::NetworkData</text>
<text text-anchor="middle" x="803.5" y="-494.5" font-family="Helvetica,sans-Serif" font-size="10.00">StreamInstrumentT&lt; gRPCServices &gt;</text>
</a>
</g>
</g>
<!-- Node5&#45;&gt;Node12 -->
<g id="edge11" class="edge">
<title>Node5&#45;&gt;Node12</title>
<path fill="none" stroke="midnightblue" d="M657.35,-502.5C672.37,-502.5 688.05,-502.5 703.32,-502.5"/>
<polygon fill="midnightblue" stroke="midnightblue" points="657.08,-499 647.08,-502.5 657.08,-506 657.08,-499"/>
</g>
<!-- Node7 -->
<g id="node7" class="node">
<title>Node7</title>
<g id="a_node7"><a xlink:href="classDynExpModule_1_1NetworkAnalogInT.html" target="_top" xlink:title=" ">
<polygon fill="white" stroke="black" points="944,-634.5 944,-664.5 1115,-664.5 1115,-634.5 944,-634.5"/>
<text text-anchor="start" x="952" y="-652.5" font-family="Helvetica,sans-Serif" font-size="10.00">DynExpModule::NetworkAnalog</text>
<text text-anchor="middle" x="1029.5" y="-641.5" font-family="Helvetica,sans-Serif" font-size="10.00">InT&lt; gRPCServices &gt;</text>
</a>
</g>
</g>
<!-- Node6&#45;&gt;Node7 -->
<g id="edge6" class="edge">
<title>Node6&#45;&gt;Node7</title>
<path fill="none" stroke="midnightblue" d="M837.8,-571.74C865.48,-587.92 906.29,-610.34 944,-625.5 952.07,-628.74 960.73,-631.73 969.32,-634.42"/>
<polygon fill="midnightblue" stroke="midnightblue" points="839.33,-568.58 828.94,-566.51 835.77,-574.61 839.33,-568.58"/>
</g>
<!-- Node8 -->
<g id="node8" class="node">
<title>Node8</title>
<g id="a_node8"><a xlink:href="classDynExpModule_1_1NetworkAnalogOutT.html" target="_top" xlink:title=" ">
<polygon fill="white" stroke="black" points="944,-585.5 944,-615.5 1115,-615.5 1115,-585.5 944,-585.5"/>
<text text-anchor="start" x="952" y="-603.5" font-family="Helvetica,sans-Serif" font-size="10.00">DynExpModule::NetworkAnalog</text>
<text text-anchor="middle" x="1029.5" y="-592.5" font-family="Helvetica,sans-Serif" font-size="10.00">OutT&lt; gRPCServices &gt;</text>
</a>
</g>
</g>
<!-- Node6&#45;&gt;Node8 -->
<g id="edge7" class="edge">
<title>Node6&#45;&gt;Node8</title>
<path fill="none" stroke="midnightblue" d="M883.06,-568.69C908.11,-574.16 935.62,-580.18 959.9,-585.49"/>
<polygon fill="midnightblue" stroke="midnightblue" points="883.75,-565.25 873.23,-566.53 882.25,-572.09 883.75,-565.25"/>
</g>
<!-- Node9 -->
<g id="node9" class="node">
<title>Node9</title>
<g id="a_node9"><a xlink:href="classDynExpModule_1_1NetworkDigitalInT.html" target="_top" xlink:title=" ">
<polygon fill="white" stroke="black" points="944.5,-536.5 944.5,-566.5 1114.5,-566.5 1114.5,-536.5 944.5,-536.5"/>
<text text-anchor="start" x="952.5" y="-554.5" font-family="Helvetica,sans-Serif" font-size="10.00">DynExpModule::NetworkDigital</text>
<text text-anchor="middle" x="1029.5" y="-543.5" font-family="Helvetica,sans-Serif" font-size="10.00">InT&lt; gRPCServices &gt;</text>
</a>
</g>
</g>
<!-- Node6&#45;&gt;Node9 -->
<g id="edge8" class="edge">
<title>Node6&#45;&gt;Node9</title>
<path fill="none" stroke="midnightblue" d="M918.46,-551.5C927.12,-551.5 935.76,-551.5 944.17,-551.5"/>
<polygon fill="midnightblue" stroke="midnightblue" points="918.3,-548 908.3,-551.5 918.3,-555 918.3,-548"/>
</g>
<!-- Node10 -->
<g id="node10" class="node">
<title>Node10</title>
<g id="a_node10"><a xlink:href="classDynExpModule_1_1NetworkDigitalOutT.html" target="_top" xlink:title=" ">
<polygon fill="white" stroke="black" points="944.5,-487.5 944.5,-517.5 1114.5,-517.5 1114.5,-487.5 944.5,-487.5"/>
<text text-anchor="start" x="952.5" y="-505.5" font-family="Helvetica,sans-Serif" font-size="10.00">DynExpModule::NetworkDigital</text>
<text text-anchor="middle" x="1029.5" y="-494.5" font-family="Helvetica,sans-Serif" font-size="10.00">OutT&lt; gRPCServices &gt;</text>
</a>
</g>
</g>
<!-- Node6&#45;&gt;Node10 -->
<g id="edge9" class="edge">
<title>Node6&#45;&gt;Node10</title>
<path fill="none" stroke="midnightblue" d="M883.06,-534.31C908.11,-528.84 935.62,-522.82 959.9,-517.51"/>
<polygon fill="midnightblue" stroke="midnightblue" points="882.25,-530.91 873.23,-536.47 883.75,-537.75 882.25,-530.91"/>
</g>
<!-- Node11 -->
<g id="node11" class="node">
<title>Node11</title>
<g id="a_node11"><a xlink:href="classDynExpModule_1_1NetworkTimeTaggerT.html" target="_top" xlink:title=" ">
<polygon fill="white" stroke="black" points="948.5,-438.5 948.5,-468.5 1110.5,-468.5 1110.5,-438.5 948.5,-438.5"/>
<text text-anchor="start" x="956.5" y="-456.5" font-family="Helvetica,sans-Serif" font-size="10.00">DynExpModule::NetworkTime</text>
<text text-anchor="middle" x="1029.5" y="-445.5" font-family="Helvetica,sans-Serif" font-size="10.00">TaggerT&lt; gRPCServices &gt;</text>
</a>
</g>
</g>
<!-- Node6&#45;&gt;Node11 -->
<g id="edge10" class="edge">
<title>Node6&#45;&gt;Node11</title>
<path fill="none" stroke="midnightblue" d="M900.37,-532.03C902.99,-530.63 905.55,-529.12 908,-527.5 930.57,-512.63 921.89,-494.03 944,-478.5 949.51,-474.63 955.62,-471.35 961.96,-468.58"/>
<polygon fill="midnightblue" stroke="midnightblue" points="898.69,-528.96 891.19,-536.44 901.72,-535.27 898.69,-528.96"/>
</g>
<!-- Node14 -->
<g id="node14" class="node">
<title>Node14</title>
<g id="a_node14"><a xlink:href="classDynExpModule_1_1ImageViewer_1_1ImageViewer.html" target="_top" xlink:title=" ">
<polygon fill="white" stroke="black" points="723,-438.5 723,-468.5 884,-468.5 884,-438.5 723,-438.5"/>
<text text-anchor="start" x="731" y="-456.5" font-family="Helvetica,sans-Serif" font-size="10.00">DynExpModule::ImageViewer</text>
<text text-anchor="middle" x="803.5" y="-445.5" font-family="Helvetica,sans-Serif" font-size="10.00">::ImageViewer</text>
</a>
</g>
</g>
<!-- Node13&#45;&gt;Node14 -->
<g id="edge13" class="edge">
<title>Node13&#45;&gt;Node14</title>
<path fill="none" stroke="midnightblue" d="M576.98,-264.64C593.71,-302.28 636.17,-385.97 699,-428.5 706.27,-433.42 714.41,-437.38 722.84,-440.56"/>
<polygon fill="midnightblue" stroke="midnightblue" points="580.13,-263.11 572.95,-255.32 573.71,-265.88 580.13,-263.11"/>
</g>
<!-- Node15 -->
<g id="node15" class="node">
<title>Node15</title>
<g id="a_node15"><a xlink:href="classDynExpModule_1_1InputPortReader.html" target="_top" xlink:title=" ">
<polygon fill="white" stroke="black" points="716,-400 716,-419 891,-419 891,-400 716,-400"/>
<text text-anchor="middle" x="803.5" y="-407" font-family="Helvetica,sans-Serif" font-size="10.00">DynExpModule::InputPortReader</text>
</a>
</g>
</g>
<!-- Node13&#45;&gt;Node15 -->
<g id="edge14" class="edge">
<title>Node13&#45;&gt;Node15</title>
<path fill="none" stroke="midnightblue" d="M579.75,-263.93C599.2,-295.46 643.4,-359.35 699,-390.5 705.93,-394.38 713.5,-397.5 721.28,-399.99"/>
<polygon fill="midnightblue" stroke="midnightblue" points="582.68,-262.02 574.53,-255.26 576.69,-265.63 582.68,-262.02"/>
</g>
<!-- Node16 -->
<g id="node16" class="node">
<title>Node16</title>
<g id="a_node16"><a xlink:href="classDynExpModule_1_1LockinAmplifierControl.html" target="_top" xlink:title=" ">
<polygon fill="white" stroke="black" points="717.5,-350.5 717.5,-380.5 889.5,-380.5 889.5,-350.5 717.5,-350.5"/>
<text text-anchor="start" x="725.5" y="-368.5" font-family="Helvetica,sans-Serif" font-size="10.00">DynExpModule::LockinAmplifier</text>
<text text-anchor="middle" x="803.5" y="-357.5" font-family="Helvetica,sans-Serif" font-size="10.00">Control</text>
</a>
</g>
</g>
<!-- Node13&#45;&gt;Node16 -->
<g id="edge15" class="edge">
<title>Node13&#45;&gt;Node16</title>
<path fill="none" stroke="midnightblue" d="M586.28,-261.96C609.87,-283.49 654.33,-320.91 699,-341.5 706.45,-344.94 714.44,-347.9 722.56,-350.46"/>
<polygon fill="midnightblue" stroke="midnightblue" points="588.56,-259.29 578.85,-255.05 583.8,-264.42 588.56,-259.29"/>
</g>
<!-- Node17 -->
<g id="node17" class="node">
<title>Node17</title>
<g id="a_node17"><a xlink:href="classDynExpModule_1_1ODMR_1_1ODMR.html" target="_top" xlink:title=" ">
<polygon fill="white" stroke="black" points="740,-301.5 740,-331.5 867,-331.5 867,-301.5 740,-301.5"/>
<text text-anchor="start" x="748" y="-319.5" font-family="Helvetica,sans-Serif" font-size="10.00">DynExpModule::ODMR</text>
<text text-anchor="middle" x="803.5" y="-308.5" font-family="Helvetica,sans-Serif" font-size="10.00">::ODMR</text>
</a>
</g>
</g>
<!-- Node13&#45;&gt;Node17 -->
<g id="edge16" class="edge">
<title>Node13&#45;&gt;Node17</title>
<path fill="none" stroke="midnightblue" d="M602.08,-258.69C628.14,-268.79 665.53,-282.61 699,-292.5 712.09,-296.37 726.26,-300.01 739.79,-303.22"/>
<polygon fill="midnightblue" stroke="midnightblue" points="603.27,-255.4 592.68,-255.02 600.72,-261.92 603.27,-255.4"/>
</g>
<!-- Node18 -->
<g id="node18" class="node">
<title>Node18</title>
<g id="a_node18"><a xlink:href="classDynExpModule_1_1OutputPortWriter.html" target="_top" xlink:title=" ">
<polygon fill="white" stroke="black" points="729,-252.5 729,-282.5 878,-282.5 878,-252.5 729,-252.5"/>
<text text-anchor="start" x="737" y="-270.5" font-family="Helvetica,sans-Serif" font-size="10.00">DynExpModule::OutputPort</text>
<text text-anchor="middle" x="803.5" y="-259.5" font-family="Helvetica,sans-Serif" font-size="10.00">Writer</text>
</a>
</g>
</g>
<!-- Node13&#45;&gt;Node18 -->
<g id="edge17" class="edge">
<title>Node13&#45;&gt;Node18</title>
<path fill="none" stroke="midnightblue" d="M642.18,-252.4C669.81,-255 701.25,-257.96 728.92,-260.57"/>
<polygon fill="midnightblue" stroke="midnightblue" points="642.47,-248.91 632.19,-251.45 641.82,-255.88 642.47,-248.91"/>
</g>
<!-- Node19 -->
<g id="node19" class="node">
<title>Node19</title>
<g id="a_node19"><a xlink:href="classDynExpModule_1_1SignalDesigner.html" target="_top" xlink:title=" ">
<polygon fill="white" stroke="black" points="718.5,-214 718.5,-233 888.5,-233 888.5,-214 718.5,-214"/>
<text text-anchor="middle" x="803.5" y="-221" font-family="Helvetica,sans-Serif" font-size="10.00">DynExpModule::SignalDesigner</text>
</a>
</g>
</g>
<!-- Node13&#45;&gt;Node19 -->
<g id="edge18" class="edge">
<title>Node13&#45;&gt;Node19</title>
<path fill="none" stroke="midnightblue" d="M642.32,-238.59C666.41,-236.32 693.37,-233.78 718.21,-231.44"/>
<polygon fill="midnightblue" stroke="midnightblue" points="641.82,-235.12 632.19,-239.55 642.47,-242.09 641.82,-235.12"/>
</g>
<!-- Node20 -->
<g id="node20" class="node">
<title>Node20</title>
<g id="a_node20"><a xlink:href="classDynExpModule_1_1SignalPlotter.html" target="_top" xlink:title=" ">
<polygon fill="white" stroke="black" points="724.5,-176 724.5,-195 882.5,-195 882.5,-176 724.5,-176"/>
<text text-anchor="middle" x="803.5" y="-183" font-family="Helvetica,sans-Serif" font-size="10.00">DynExpModule::SignalPlotter</text>
</a>
</g>
</g>
<!-- Node13&#45;&gt;Node20 -->
<g id="edge19" class="edge">
<title>Node13&#45;&gt;Node20</title>
<path fill="none" stroke="midnightblue" d="M641.77,-233.45C649.04,-231.46 656.23,-229.16 663,-226.5 680.45,-219.65 681.48,-211.19 699,-204.5 709.15,-200.62 720.18,-197.52 731.12,-195.04"/>
<polygon fill="midnightblue" stroke="midnightblue" points="640.65,-230.12 631.82,-235.98 642.38,-236.91 640.65,-230.12"/>
</g>
<!-- Node21 -->
<g id="node21" class="node">
<title>Node21</title>
<g id="a_node21"><a xlink:href="classDynExpModule_1_1SpectrumViewer_1_1SpectrumViewer.html" target="_top" xlink:title=" ">
<polygon fill="white" stroke="black" points="715.5,-126.5 715.5,-156.5 891.5,-156.5 891.5,-126.5 715.5,-126.5"/>
<text text-anchor="start" x="723.5" y="-144.5" font-family="Helvetica,sans-Serif" font-size="10.00">DynExpModule::SpectrumViewer</text>
<text text-anchor="middle" x="803.5" y="-133.5" font-family="Helvetica,sans-Serif" font-size="10.00">::SpectrumViewer</text>
</a>
</g>
</g>
<!-- Node13&#45;&gt;Node21 -->
<g id="edge20" class="edge">
<title>Node13&#45;&gt;Node21</title>
<path fill="none" stroke="midnightblue" d="M641.82,-237.23C649.36,-234.53 656.59,-231.02 663,-226.5 688.4,-208.56 673.94,-184.91 699,-166.5 704.29,-162.61 710.1,-159.33 716.19,-156.54"/>
<polygon fill="midnightblue" stroke="midnightblue" points="640.66,-233.93 632.15,-240.25 642.74,-240.61 640.66,-233.93"/>
</g>
<!-- Node22 -->
<g id="node22" class="node">
<title>Node22</title>
<g id="a_node22"><a xlink:href="classDynExpModule_1_1Stage1D.html" target="_top" xlink:title=" ">
<polygon fill="white" stroke="black" points="735,-88 735,-107 872,-107 872,-88 735,-88"/>
<text text-anchor="middle" x="803.5" y="-95" font-family="Helvetica,sans-Serif" font-size="10.00">DynExpModule::Stage1D</text>
</a>
</g>
</g>
<!-- Node13&#45;&gt;Node22 -->
<g id="edge21" class="edge">
<title>Node13&#45;&gt;Node22</title>
<path fill="none" stroke="midnightblue" d="M642,-238.97C649.68,-235.97 656.9,-231.93 663,-226.5 701.44,-192.31 660.26,-150.34 699,-116.5 709.04,-107.73 721.78,-102.41 734.85,-99.3"/>
<polygon fill="midnightblue" stroke="midnightblue" points="640.85,-235.66 632.45,-242.12 643.05,-242.31 640.85,-235.66"/>
</g>
<!-- Node23 -->
<g id="node23" class="node">
<title>Node23</title>
<g id="a_node23"><a xlink:href="classDynExpModule_1_1Trajectory1D.html" target="_top" xlink:title=" ">
<polygon fill="white" stroke="black" points="724.5,-50 724.5,-69 882.5,-69 882.5,-50 724.5,-50"/>
<text text-anchor="middle" x="803.5" y="-57" font-family="Helvetica,sans-Serif" font-size="10.00">DynExpModule::Trajectory1D</text>
</a>
</g>
</g>
<!-- Node13&#45;&gt;Node23 -->
<g id="edge22" class="edge">
<title>Node13&#45;&gt;Node23</title>
<path fill="none" stroke="midnightblue" d="M642.1,-239.56C649.82,-236.47 657.03,-232.24 663,-226.5 711.8,-179.58 649.79,-124.98 699,-78.5 706.17,-71.73 714.92,-66.96 724.27,-63.67"/>
<polygon fill="midnightblue" stroke="midnightblue" points="640.83,-236.29 632.45,-242.78 643.05,-242.93 640.83,-236.29"/>
</g>
<!-- Node24 -->
<g id="node24" class="node">
<title>Node24</title>
<g id="a_node24"><a xlink:href="classDynExpModule_1_1Widefield_1_1WidefieldMicroscope.html" target="_top" xlink:title=" ">
<polygon fill="white" stroke="black" points="732.5,-0.5 732.5,-30.5 874.5,-30.5 874.5,-0.5 732.5,-0.5"/>
<text text-anchor="start" x="740.5" y="-18.5" font-family="Helvetica,sans-Serif" font-size="10.00">DynExpModule::Widefield</text>
<text text-anchor="middle" x="803.5" y="-7.5" font-family="Helvetica,sans-Serif" font-size="10.00">::WidefieldMicroscope</text>
</a>
</g>
</g>
<!-- Node13&#45;&gt;Node24 -->
<g id="edge23" class="edge">
<title>Node13&#45;&gt;Node24</title>
<path fill="none" stroke="midnightblue" d="M641.78,-240.07C649.68,-236.92 657.02,-232.53 663,-226.5 722.29,-166.72 640.84,-101.39 699,-40.5 708,-31.08 719.89,-24.95 732.4,-21.01"/>
<polygon fill="midnightblue" stroke="midnightblue" points="640.66,-236.75 632.28,-243.22 642.87,-243.39 640.66,-236.75"/>
</g>
</g>
</svg>
