<?xml version="1.0" encoding="UTF-8" standalone="no"?>
<!DOCTYPE svg PUBLIC "-//W3C//DTD SVG 1.1//EN"
 "http://www.w3.org/Graphics/SVG/1.1/DTD/svg11.dtd">
<!-- Generated by graphviz version 2.43.0 (0)
 -->
<!-- Title: DynExpInstr::DataStreamInstrumentTasks::InitTask Pages: 1 -->
<svg width="1308pt" height="422pt"
 viewBox="0.00 0.00 1308.00 422.00" xmlns="http://www.w3.org/2000/svg" xmlns:xlink="http://www.w3.org/1999/xlink">
<g id="graph0" class="graph" transform="scale(1 1) rotate(0) translate(4 418)">
<title>DynExpInstr::DataStreamInstrumentTasks::InitTask</title>
<!-- Node1 -->
<g id="Node000001" class="node">
<title>Node1</title>
<g id="a_Node000001"><a xlink:title="Defines a task for initializing an instrument within an instrument inheritance hierarchy....">
<polygon fill="#999999" stroke="#666666" points="494,-102 300,-102 300,-72 494,-72 494,-102"/>
<text text-anchor="start" x="308" y="-90" font-family="Helvetica,sans-Serif" font-size="10.00">DynExpInstr::DataStreamInstrument</text>
<text text-anchor="middle" x="397" y="-79" font-family="Helvetica,sans-Serif" font-size="10.00">Tasks::InitTask</text>
</a>
</g>
</g>
<!-- Node4 -->
<g id="Node000004" class="node">
<title>Node4</title>
<g id="a_Node000004"><a xlink:href="classDynExpInstr_1_1FunctionGeneratorTasks_1_1InitTask.html" target="_top" xlink:title="Defines a task for initializing an instrument within an instrument inheritance hierarchy....">
<polygon fill="white" stroke="#666666" points="702,-294 530,-294 530,-264 702,-264 702,-294"/>
<text text-anchor="start" x="538" y="-282" font-family="Helvetica,sans-Serif" font-size="10.00">DynExpInstr::FunctionGenerator</text>
<text text-anchor="middle" x="616" y="-271" font-family="Helvetica,sans-Serif" font-size="10.00">Tasks::InitTask</text>
</a>
</g>
</g>
<!-- Node1&#45;&gt;Node4 -->
<g id="edge3_Node000001_Node000004" class="edge">
<title>Node1&#45;&gt;Node4</title>
<g id="a_edge3_Node000001_Node000004"><a xlink:title=" ">
<path fill="none" stroke="#63b8ff" d="M422.75,-108.89C467.19,-148.22 559.45,-229.85 597.75,-263.74"/>
<polygon fill="#63b8ff" stroke="#63b8ff" points="424.84,-106.07 415.03,-102.07 420.2,-111.31 424.84,-106.07"/>
</a>
</g>
</g>
<!-- Node14 -->
<g id="Node000014" class="node">
<title>Node14</title>
<g id="a_Node000014"><a xlink:href="classDynExpInstr_1_1InputPortTasks_1_1InitTask.html" target="_top" xlink:title="Defines a task for initializing an instrument within an instrument inheritance hierarchy....">
<polygon fill="white" stroke="#666666" points="692.5,-126 539.5,-126 539.5,-96 692.5,-96 692.5,-126"/>
<text text-anchor="start" x="547.5" y="-114" font-family="Helvetica,sans-Serif" font-size="10.00">DynExpInstr::InputPortTasks</text>
<text text-anchor="middle" x="616" y="-103" font-family="Helvetica,sans-Serif" font-size="10.00">::InitTask</text>
</a>
</g>
</g>
<!-- Node1&#45;&gt;Node14 -->
<g id="edge13_Node000001_Node000014" class="edge">
<title>Node1&#45;&gt;Node14</title>
<g id="a_edge13_Node000001_Node000014"><a xlink:title=" ">
<path fill="none" stroke="#63b8ff" d="M504.13,-98.74C516.07,-100.06 528.04,-101.38 539.47,-102.65"/>
<polygon fill="#63b8ff" stroke="#63b8ff" points="504.45,-95.25 494.13,-97.63 503.68,-102.21 504.45,-95.25"/>
</a>
</g>
</g>
<!-- Node19 -->
<g id="Node000019" class="node">
<title>Node19</title>
<g id="a_Node000019"><a xlink:href="classDynExpInstr_1_1LockinAmplifierTasks_1_1InitTask.html" target="_top" xlink:title="Defines a task for initializing an instrument within an instrument inheritance hierarchy....">
<polygon fill="white" stroke="#666666" points="695,-78 537,-78 537,-48 695,-48 695,-78"/>
<text text-anchor="start" x="545" y="-66" font-family="Helvetica,sans-Serif" font-size="10.00">DynExpInstr::LockinAmplifier</text>
<text text-anchor="middle" x="616" y="-55" font-family="Helvetica,sans-Serif" font-size="10.00">Tasks::InitTask</text>
</a>
</g>
</g>
<!-- Node1&#45;&gt;Node19 -->
<g id="edge18_Node000001_Node000019" class="edge">
<title>Node1&#45;&gt;Node19</title>
<g id="a_edge18_Node000001_Node000019"><a xlink:title=" ">
<path fill="none" stroke="#63b8ff" d="M504.21,-75.25C515.2,-74.04 526.23,-72.82 536.84,-71.64"/>
<polygon fill="#63b8ff" stroke="#63b8ff" points="503.68,-71.79 494.13,-76.37 504.45,-78.75 503.68,-71.79"/>
</a>
</g>
</g>
<!-- Node21 -->
<g id="Node000021" class="node">
<title>Node21</title>
<g id="a_Node000021"><a xlink:href="classDynExpInstr_1_1TimeTaggerTasks_1_1InitTask.html" target="_top" xlink:title="Defines a task for initializing an instrument within an instrument inheritance hierarchy....">
<polygon fill="white" stroke="#666666" points="699,-30 533,-30 533,0 699,0 699,-30"/>
<text text-anchor="start" x="541" y="-18" font-family="Helvetica,sans-Serif" font-size="10.00">DynExpInstr::TimeTaggerTasks</text>
<text text-anchor="middle" x="616" y="-7" font-family="Helvetica,sans-Serif" font-size="10.00">::InitTask</text>
</a>
</g>
</g>
<!-- Node1&#45;&gt;Node21 -->
<g id="edge20_Node000001_Node000021" class="edge">
<title>Node1&#45;&gt;Node21</title>
<g id="a_edge20_Node000001_Node000021"><a xlink:title=" ">
<path fill="none" stroke="#63b8ff" d="M446.56,-68.37C471.37,-59.1 502.14,-47.99 530,-39 539.49,-35.94 549.63,-32.89 559.5,-30.04"/>
<polygon fill="#63b8ff" stroke="#63b8ff" points="445.15,-65.16 437.02,-71.96 447.61,-71.72 445.15,-65.16"/>
</a>
</g>
</g>
<!-- Node2 -->
<g id="Node000002" class="node">
<title>Node2</title>
<g id="a_Node000002"><a xlink:href="classDynExp_1_1InitTaskBase.html" target="_top" xlink:title="Defines a task for initializing an instrument within an instrument inheritance hierarchy....">
<polygon fill="white" stroke="#666666" points="264,-96.5 142,-96.5 142,-77.5 264,-77.5 264,-96.5"/>
<text text-anchor="middle" x="203" y="-84.5" font-family="Helvetica,sans-Serif" font-size="10.00">DynExp::InitTaskBase</text>
</a>
</g>
</g>
<!-- Node2&#45;&gt;Node1 -->
<g id="edge1_Node000001_Node000002" class="edge">
<title>Node2&#45;&gt;Node1</title>
<g id="a_edge1_Node000001_Node000002"><a xlink:title=" ">
<path fill="none" stroke="#63b8ff" d="M274.5,-87C282.74,-87 291.25,-87 299.76,-87"/>
<polygon fill="#63b8ff" stroke="#63b8ff" points="274.22,-83.5 264.22,-87 274.22,-90.5 274.22,-83.5"/>
</a>
</g>
</g>
<!-- Node3 -->
<g id="Node000003" class="node">
<title>Node3</title>
<g id="a_Node000003"><a xlink:href="classDynExp_1_1TaskBase.html" target="_top" xlink:title="Base class for all tasks being processed by instruments. The class must not contain public virtual fu...">
<polygon fill="white" stroke="#666666" points="106,-96.5 0,-96.5 0,-77.5 106,-77.5 106,-96.5"/>
<text text-anchor="middle" x="53" y="-84.5" font-family="Helvetica,sans-Serif" font-size="10.00">DynExp::TaskBase</text>
</a>
</g>
</g>
<!-- Node3&#45;&gt;Node2 -->
<g id="edge2_Node000002_Node000003" class="edge">
<title>Node3&#45;&gt;Node2</title>
<g id="a_edge2_Node000002_Node000003"><a xlink:title=" ">
<path fill="none" stroke="#63b8ff" d="M116.38,-87C124.85,-87 133.52,-87 141.95,-87"/>
<polygon fill="#63b8ff" stroke="#63b8ff" points="116.18,-83.5 106.18,-87 116.18,-90.5 116.18,-83.5"/>
</a>
</g>
</g>
<!-- Node5 -->
<g id="Node000005" class="node">
<title>Node5</title>
<g id="a_Node000005"><a xlink:href="classDynExpInstr_1_1DummyDataStreamInstrumentTasks_1_1InitTask.html" target="_top" xlink:title=" ">
<polygon fill="white" stroke="#666666" points="918.5,-414 739.5,-414 739.5,-384 918.5,-384 918.5,-414"/>
<text text-anchor="start" x="747.5" y="-402" font-family="Helvetica,sans-Serif" font-size="10.00">DynExpInstr::DummyDataStream</text>
<text text-anchor="middle" x="829" y="-391" font-family="Helvetica,sans-Serif" font-size="10.00">InstrumentTasks::InitTask</text>
</a>
</g>
</g>
<!-- Node4&#45;&gt;Node5 -->
<g id="edge4_Node000004_Node000005" class="edge">
<title>Node4&#45;&gt;Node5</title>
<g id="a_edge4_Node000004_Node000005"><a xlink:title=" ">
<path fill="none" stroke="#63b8ff" d="M639.44,-301.56C662.35,-323.37 699.85,-355.83 738,-375 744.79,-378.41 752.12,-381.38 759.57,-383.95"/>
<polygon fill="#63b8ff" stroke="#63b8ff" points="641.6,-298.78 631.98,-294.34 636.73,-303.81 641.6,-298.78"/>
</a>
</g>
</g>
<!-- Node6 -->
<g id="Node000006" class="node">
<title>Node6</title>
<g id="a_Node000006"><a xlink:href="classDynExpInstr_1_1OutputPortTasks_1_1InitTask.html" target="_top" xlink:title="Defines a task for initializing an instrument within an instrument inheritance hierarchy....">
<polygon fill="white" stroke="#666666" points="909.5,-366 748.5,-366 748.5,-336 909.5,-336 909.5,-366"/>
<text text-anchor="start" x="756.5" y="-354" font-family="Helvetica,sans-Serif" font-size="10.00">DynExpInstr::OutputPortTasks</text>
<text text-anchor="middle" x="829" y="-343" font-family="Helvetica,sans-Serif" font-size="10.00">::InitTask</text>
</a>
</g>
</g>
<!-- Node4&#45;&gt;Node6 -->
<g id="edge5_Node000004_Node000006" class="edge">
<title>Node4&#45;&gt;Node6</title>
<g id="a_edge5_Node000004_Node000006"><a xlink:title=" ">
<path fill="none" stroke="#63b8ff" d="M661.19,-297.97C683.91,-307.36 712.18,-318.47 738,-327 747.52,-330.15 757.71,-333.18 767.68,-335.96"/>
<polygon fill="#63b8ff" stroke="#63b8ff" points="662.39,-294.68 651.81,-294.07 659.7,-301.14 662.39,-294.68"/>
</a>
</g>
</g>
<!-- Node11 -->
<g id="Node000011" class="node">
<title>Node11</title>
<g id="a_Node000011"><a xlink:href="classDynExpInstr_1_1RS__SMB100BTasks_1_1InitTask.html" target="_top" xlink:title=" ">
<polygon fill="white" stroke="#666666" points="915.5,-318 742.5,-318 742.5,-288 915.5,-288 915.5,-318"/>
<text text-anchor="start" x="750.5" y="-306" font-family="Helvetica,sans-Serif" font-size="10.00">DynExpInstr::RS_SMB100BTasks</text>
<text text-anchor="middle" x="829" y="-295" font-family="Helvetica,sans-Serif" font-size="10.00">::InitTask</text>
</a>
</g>
</g>
<!-- Node4&#45;&gt;Node11 -->
<g id="edge10_Node000004_Node000011" class="edge">
<title>Node4&#45;&gt;Node11</title>
<g id="a_edge10_Node000004_Node000011"><a xlink:title=" ">
<path fill="none" stroke="#63b8ff" d="M712.23,-289.83C722.31,-290.98 732.51,-292.14 742.47,-293.27"/>
<polygon fill="#63b8ff" stroke="#63b8ff" points="712.55,-286.35 702.21,-288.69 711.75,-293.3 712.55,-286.35"/>
</a>
</g>
</g>
<!-- Node12 -->
<g id="Node000012" class="node">
<title>Node12</title>
<g id="a_Node000012"><a xlink:href="classDynExpInstr_1_1RS__SMC100ATasks_1_1InitTask.html" target="_top" xlink:title=" ">
<polygon fill="white" stroke="#666666" points="915.5,-270 742.5,-270 742.5,-240 915.5,-240 915.5,-270"/>
<text text-anchor="start" x="750.5" y="-258" font-family="Helvetica,sans-Serif" font-size="10.00">DynExpInstr::RS_SMC100ATasks</text>
<text text-anchor="middle" x="829" y="-247" font-family="Helvetica,sans-Serif" font-size="10.00">::InitTask</text>
</a>
</g>
</g>
<!-- Node4&#45;&gt;Node12 -->
<g id="edge11_Node000004_Node000012" class="edge">
<title>Node4&#45;&gt;Node12</title>
<g id="a_edge11_Node000004_Node000012"><a xlink:title=" ">
<path fill="none" stroke="#63b8ff" d="M712.23,-268.17C722.31,-267.02 732.51,-265.86 742.47,-264.73"/>
<polygon fill="#63b8ff" stroke="#63b8ff" points="711.75,-264.7 702.21,-269.31 712.55,-271.65 711.75,-264.7"/>
</a>
</g>
</g>
<!-- Node13 -->
<g id="Node000013" class="node">
<title>Node13</title>
<g id="a_Node000013"><a xlink:href="classDynExpInstr_1_1SwabianInstrumentsPulseStreamerTasks_1_1InitTask.html" target="_top" xlink:title=" ">
<polygon fill="white" stroke="#666666" points="920,-222 738,-222 738,-192 920,-192 920,-222"/>
<text text-anchor="start" x="746" y="-210" font-family="Helvetica,sans-Serif" font-size="10.00">DynExpInstr::SwabianInstruments</text>
<text text-anchor="middle" x="829" y="-199" font-family="Helvetica,sans-Serif" font-size="10.00">PulseStreamerTasks::InitTask</text>
</a>
</g>
</g>
<!-- Node4&#45;&gt;Node13 -->
<g id="edge12_Node000004_Node000013" class="edge">
<title>Node4&#45;&gt;Node13</title>
<g id="a_edge12_Node000004_Node000013"><a xlink:title=" ">
<path fill="none" stroke="#63b8ff" d="M661.19,-260.03C683.91,-250.64 712.18,-239.53 738,-231 747.52,-227.85 757.71,-224.82 767.68,-222.04"/>
<polygon fill="#63b8ff" stroke="#63b8ff" points="659.7,-256.86 651.81,-263.93 662.39,-263.32 659.7,-256.86"/>
</a>
</g>
</g>
<!-- Node7 -->
<g id="Node000007" class="node">
<title>Node7</title>
<g id="a_Node000007"><a xlink:href="classDynExpInstr_1_1AnalogOutTasks_1_1InitTask.html" target="_top" xlink:title="Defines a task for initializing an instrument within an instrument inheritance hierarchy....">
<polygon fill="white" stroke="#666666" points="1116,-390 956,-390 956,-360 1116,-360 1116,-390"/>
<text text-anchor="start" x="964" y="-378" font-family="Helvetica,sans-Serif" font-size="10.00">DynExpInstr::AnalogOutTasks</text>
<text text-anchor="middle" x="1036" y="-367" font-family="Helvetica,sans-Serif" font-size="10.00">::InitTask</text>
</a>
</g>
</g>
<!-- Node6&#45;&gt;Node7 -->
<g id="edge6_Node000006_Node000007" class="edge">
<title>Node6&#45;&gt;Node7</title>
<g id="a_edge6_Node000006_Node000007"><a xlink:title=" ">
<path fill="none" stroke="#63b8ff" d="M919.61,-361.49C931.67,-362.9 943.97,-364.34 955.83,-365.73"/>
<polygon fill="#63b8ff" stroke="#63b8ff" points="919.89,-358 909.55,-360.31 919.08,-364.95 919.89,-358"/>
</a>
</g>
</g>
<!-- Node9 -->
<g id="Node000009" class="node">
<title>Node9</title>
<g id="a_Node000009"><a xlink:href="classDynExpInstr_1_1DigitalOutTasks_1_1InitTask.html" target="_top" xlink:title="Defines a task for initializing an instrument within an instrument inheritance hierarchy....">
<polygon fill="white" stroke="#666666" points="1115,-342 957,-342 957,-312 1115,-312 1115,-342"/>
<text text-anchor="start" x="965" y="-330" font-family="Helvetica,sans-Serif" font-size="10.00">DynExpInstr::DigitalOutTasks</text>
<text text-anchor="middle" x="1036" y="-319" font-family="Helvetica,sans-Serif" font-size="10.00">::InitTask</text>
</a>
</g>
</g>
<!-- Node6&#45;&gt;Node9 -->
<g id="edge8_Node000006_Node000009" class="edge">
<title>Node6&#45;&gt;Node9</title>
<g id="a_edge8_Node000006_Node000009"><a xlink:title=" ">
<path fill="none" stroke="#63b8ff" d="M919.83,-340.48C932.16,-339.04 944.74,-337.57 956.84,-336.15"/>
<polygon fill="#63b8ff" stroke="#63b8ff" points="919.08,-337.05 909.55,-341.69 919.89,-344 919.08,-337.05"/>
</a>
</g>
</g>
<!-- Node8 -->
<g id="Node000008" class="node">
<title>Node8</title>
<g id="a_Node000008"><a xlink:href="classDynExpInstr_1_1NIDAQAnalogOutTasks_1_1InitTask.html" target="_top" xlink:title=" ">
<polygon fill="white" stroke="#666666" points="1300,-390 1152,-390 1152,-360 1300,-360 1300,-390"/>
<text text-anchor="start" x="1160" y="-378" font-family="Helvetica,sans-Serif" font-size="10.00">DynExpInstr::NIDAQAnalog</text>
<text text-anchor="middle" x="1226" y="-367" font-family="Helvetica,sans-Serif" font-size="10.00">OutTasks::InitTask</text>
</a>
</g>
</g>
<!-- Node7&#45;&gt;Node8 -->
<g id="edge7_Node000007_Node000008" class="edge">
<title>Node7&#45;&gt;Node8</title>
<g id="a_edge7_Node000007_Node000008"><a xlink:title=" ">
<path fill="none" stroke="#63b8ff" d="M1126.23,-375C1134.83,-375 1143.48,-375 1151.9,-375"/>
<polygon fill="#63b8ff" stroke="#63b8ff" points="1126.18,-371.5 1116.18,-375 1126.18,-378.5 1126.18,-371.5"/>
</a>
</g>
</g>
<!-- Node10 -->
<g id="Node000010" class="node">
<title>Node10</title>
<g id="a_Node000010"><a xlink:href="classDynExpInstr_1_1NIDAQDigitalOutTasks_1_1InitTask.html" target="_top" xlink:title=" ">
<polygon fill="white" stroke="#666666" points="1299,-342 1153,-342 1153,-312 1299,-312 1299,-342"/>
<text text-anchor="start" x="1161" y="-330" font-family="Helvetica,sans-Serif" font-size="10.00">DynExpInstr::NIDAQDigital</text>
<text text-anchor="middle" x="1226" y="-319" font-family="Helvetica,sans-Serif" font-size="10.00">OutTasks::InitTask</text>
</a>
</g>
</g>
<!-- Node9&#45;&gt;Node10 -->
<g id="edge9_Node000009_Node000010" class="edge">
<title>Node9&#45;&gt;Node10</title>
<g id="a_edge9_Node000009_Node000010"><a xlink:title=" ">
<path fill="none" stroke="#63b8ff" d="M1125.13,-327C1134.42,-327 1143.79,-327 1152.86,-327"/>
<polygon fill="#63b8ff" stroke="#63b8ff" points="1125.1,-323.5 1115.1,-327 1125.1,-330.5 1125.1,-323.5"/>
</a>
</g>
</g>
<!-- Node15 -->
<g id="Node000015" class="node">
<title>Node15</title>
<g id="a_Node000015"><a xlink:href="classDynExpInstr_1_1AnalogInTasks_1_1InitTask.html" target="_top" xlink:title="Defines a task for initializing an instrument within an instrument inheritance hierarchy....">
<polygon fill="white" stroke="#666666" points="905,-174 753,-174 753,-144 905,-144 905,-174"/>
<text text-anchor="start" x="761" y="-162" font-family="Helvetica,sans-Serif" font-size="10.00">DynExpInstr::AnalogInTasks</text>
<text text-anchor="middle" x="829" y="-151" font-family="Helvetica,sans-Serif" font-size="10.00">::InitTask</text>
</a>
</g>
</g>
<!-- Node14&#45;&gt;Node15 -->
<g id="edge14_Node000014_Node000015" class="edge">
<title>Node14&#45;&gt;Node15</title>
<g id="a_edge14_Node000014_Node000015"><a xlink:title=" ">
<path fill="none" stroke="#63b8ff" d="M693.06,-128.3C715.64,-133.44 740.17,-139.02 762.05,-144"/>
<polygon fill="#63b8ff" stroke="#63b8ff" points="693.71,-124.86 683.18,-126.06 692.16,-131.69 693.71,-124.86"/>
</a>
</g>
</g>
<!-- Node17 -->
<g id="Node000017" class="node">
<title>Node17</title>
<g id="a_Node000017"><a xlink:href="classDynExpInstr_1_1DigitalInTasks_1_1InitTask.html" target="_top" xlink:title="Defines a task for initializing an instrument within an instrument inheritance hierarchy....">
<polygon fill="white" stroke="#666666" points="904,-126 754,-126 754,-96 904,-96 904,-126"/>
<text text-anchor="start" x="762" y="-114" font-family="Helvetica,sans-Serif" font-size="10.00">DynExpInstr::DigitalInTasks</text>
<text text-anchor="middle" x="829" y="-103" font-family="Helvetica,sans-Serif" font-size="10.00">::InitTask</text>
</a>
</g>
</g>
<!-- Node14&#45;&gt;Node17 -->
<g id="edge16_Node000014_Node000017" class="edge">
<title>Node14&#45;&gt;Node17</title>
<g id="a_edge16_Node000014_Node000017"><a xlink:title=" ">
<path fill="none" stroke="#63b8ff" d="M702.94,-111C719.76,-111 737.26,-111 753.66,-111"/>
<polygon fill="#63b8ff" stroke="#63b8ff" points="702.58,-107.5 692.58,-111 702.58,-114.5 702.58,-107.5"/>
</a>
</g>
</g>
<!-- Node16 -->
<g id="Node000016" class="node">
<title>Node16</title>
<g id="a_Node000016"><a xlink:href="classDynExpInstr_1_1NIDAQAnalogInTasks_1_1InitTask.html" target="_top" xlink:title=" ">
<polygon fill="white" stroke="#666666" points="1110,-174 962,-174 962,-144 1110,-144 1110,-174"/>
<text text-anchor="start" x="970" y="-162" font-family="Helvetica,sans-Serif" font-size="10.00">DynExpInstr::NIDAQAnalog</text>
<text text-anchor="middle" x="1036" y="-151" font-family="Helvetica,sans-Serif" font-size="10.00">InTasks::InitTask</text>
</a>
</g>
</g>
<!-- Node15&#45;&gt;Node16 -->
<g id="edge15_Node000015_Node000016" class="edge">
<title>Node15&#45;&gt;Node16</title>
<g id="a_edge15_Node000015_Node000016"><a xlink:title=" ">
<path fill="none" stroke="#63b8ff" d="M915.26,-159C930.75,-159 946.79,-159 961.89,-159"/>
<polygon fill="#63b8ff" stroke="#63b8ff" points="915.17,-155.5 905.17,-159 915.17,-162.5 915.17,-155.5"/>
</a>
</g>
</g>
<!-- Node18 -->
<g id="Node000018" class="node">
<title>Node18</title>
<g id="a_Node000018"><a xlink:href="classDynExpInstr_1_1NIDAQDigitalInTasks_1_1InitTask.html" target="_top" xlink:title=" ">
<polygon fill="white" stroke="#666666" points="1109,-126 963,-126 963,-96 1109,-96 1109,-126"/>
<text text-anchor="start" x="971" y="-114" font-family="Helvetica,sans-Serif" font-size="10.00">DynExpInstr::NIDAQDigital</text>
<text text-anchor="middle" x="1036" y="-103" font-family="Helvetica,sans-Serif" font-size="10.00">InTasks::InitTask</text>
</a>
</g>
</g>
<!-- Node17&#45;&gt;Node18 -->
<g id="edge17_Node000017_Node000018" class="edge">
<title>Node17&#45;&gt;Node18</title>
<g id="a_edge17_Node000017_Node000018"><a xlink:title=" ">
<path fill="none" stroke="#63b8ff" d="M914.46,-111C930.51,-111 947.18,-111 962.81,-111"/>
<polygon fill="#63b8ff" stroke="#63b8ff" points="914.01,-107.5 904.01,-111 914.01,-114.5 914.01,-107.5"/>
</a>
</g>
</g>
<!-- Node20 -->
<g id="Node000020" class="node">
<title>Node20</title>
<g id="a_Node000020"><a xlink:href="classDynExpInstr_1_1ZI__MFLITasks_1_1InitTask.html" target="_top" xlink:title=" ">
<polygon fill="white" stroke="#666666" points="902.5,-78 755.5,-78 755.5,-48 902.5,-48 902.5,-78"/>
<text text-anchor="start" x="763.5" y="-66" font-family="Helvetica,sans-Serif" font-size="10.00">DynExpInstr::ZI_MFLITasks</text>
<text text-anchor="middle" x="829" y="-55" font-family="Helvetica,sans-Serif" font-size="10.00">::InitTask</text>
</a>
</g>
</g>
<!-- Node19&#45;&gt;Node20 -->
<g id="edge19_Node000019_Node000020" class="edge">
<title>Node19&#45;&gt;Node20</title>
<g id="a_edge19_Node000019_Node000020"><a xlink:title=" ">
<path fill="none" stroke="#63b8ff" d="M705.53,-63C722.16,-63 739.37,-63 755.45,-63"/>
<polygon fill="#63b8ff" stroke="#63b8ff" points="705.27,-59.5 695.27,-63 705.27,-66.5 705.27,-59.5"/>
</a>
</g>
</g>
<!-- Node22 -->
<g id="Node000022" class="node">
<title>Node22</title>
<g id="a_Node000022"><a xlink:href="classDynExpInstr_1_1QutoolsQuTAGTasks_1_1InitTask.html" target="_top" xlink:title=" ">
<polygon fill="white" stroke="#666666" points="918.5,-30 739.5,-30 739.5,0 918.5,0 918.5,-30"/>
<text text-anchor="start" x="747.5" y="-18" font-family="Helvetica,sans-Serif" font-size="10.00">DynExpInstr::QutoolsQuTAGTasks</text>
<text text-anchor="middle" x="829" y="-7" font-family="Helvetica,sans-Serif" font-size="10.00">::InitTask</text>
</a>
</g>
</g>
<!-- Node21&#45;&gt;Node22 -->
<g id="edge21_Node000021_Node000022" class="edge">
<title>Node21&#45;&gt;Node22</title>
<g id="a_edge21_Node000021_Node000022"><a xlink:title=" ">
<path fill="none" stroke="#63b8ff" d="M709.47,-15C719.41,-15 729.51,-15 739.41,-15"/>
<polygon fill="#63b8ff" stroke="#63b8ff" points="709.18,-11.5 699.18,-15 709.18,-18.5 709.18,-11.5"/>
</a>
</g>
</g>
</g>
</svg>
