<?xml version="1.0" encoding="UTF-8" standalone="no"?>
<!DOCTYPE svg PUBLIC "-//W3C//DTD SVG 1.1//EN"
 "http://www.w3.org/Graphics/SVG/1.1/DTD/svg11.dtd">
<!-- Generated by graphviz version 2.43.0 (0)
 -->
<!-- Title: DynExpInstr::OutputPortTasks::InitTask Pages: 1 -->
<svg width="1287pt" height="88pt"
 viewBox="0.00 0.00 1287.00 88.00" xmlns="http://www.w3.org/2000/svg" xmlns:xlink="http://www.w3.org/1999/xlink">
<g id="graph0" class="graph" transform="scale(1 1) rotate(0) translate(4 84)">
<title>DynExpInstr::OutputPortTasks::InitTask</title>
<polygon fill="white" stroke="transparent" points="-4,4 -4,-84 1283,-84 1283,4 -4,4"/>
<!-- Node1 -->
<g id="node1" class="node">
<title>Node1</title>
<g id="a_node1"><a xlink:title="Defines a task for initializing an instrument within an instrument inheritance hierarchy....">
<polygon fill="#bfbfbf" stroke="black" points="738,-24.5 738,-54.5 899,-54.5 899,-24.5 738,-24.5"/>
<text text-anchor="start" x="746" y="-42.5" font-family="Helvetica,sans-Serif" font-size="10.00">DynExpInstr::OutputPortTasks</text>
<text text-anchor="middle" x="818.5" y="-31.5" font-family="Helvetica,sans-Serif" font-size="10.00">::InitTask</text>
</a>
</g>
</g>
<!-- Node6 -->
<g id="node6" class="node">
<title>Node6</title>
<g id="a_node6"><a xlink:href="classDynExpInstr_1_1AnalogOutTasks_1_1InitTask.html" target="_top" xlink:title="Defines a task for initializing an instrument within an instrument inheritance hierarchy....">
<polygon fill="white" stroke="black" points="935,-49.5 935,-79.5 1095,-79.5 1095,-49.5 935,-49.5"/>
<text text-anchor="start" x="943" y="-67.5" font-family="Helvetica,sans-Serif" font-size="10.00">DynExpInstr::AnalogOutTasks</text>
<text text-anchor="middle" x="1015" y="-56.5" font-family="Helvetica,sans-Serif" font-size="10.00">::InitTask</text>
</a>
</g>
</g>
<!-- Node1&#45;&gt;Node6 -->
<g id="edge5" class="edge">
<title>Node1&#45;&gt;Node6</title>
<path fill="none" stroke="midnightblue" d="M909.15,-51.02C917.7,-52.12 926.33,-53.23 934.77,-54.32"/>
<polygon fill="midnightblue" stroke="midnightblue" points="909.54,-47.54 899.17,-49.74 908.64,-54.49 909.54,-47.54"/>
</g>
<!-- Node8 -->
<g id="node8" class="node">
<title>Node8</title>
<g id="a_node8"><a xlink:href="classDynExpInstr_1_1DigitalOutTasks_1_1InitTask.html" target="_top" xlink:title="Defines a task for initializing an instrument within an instrument inheritance hierarchy....">
<polygon fill="white" stroke="black" points="936,-0.5 936,-30.5 1094,-30.5 1094,-0.5 936,-0.5"/>
<text text-anchor="start" x="944" y="-18.5" font-family="Helvetica,sans-Serif" font-size="10.00">DynExpInstr::DigitalOutTasks</text>
<text text-anchor="middle" x="1015" y="-7.5" font-family="Helvetica,sans-Serif" font-size="10.00">::InitTask</text>
</a>
</g>
</g>
<!-- Node1&#45;&gt;Node8 -->
<g id="edge7" class="edge">
<title>Node1&#45;&gt;Node8</title>
<path fill="none" stroke="midnightblue" d="M909.14,-28.44C918.01,-27.34 926.97,-26.24 935.71,-25.16"/>
<polygon fill="midnightblue" stroke="midnightblue" points="908.67,-24.97 899.17,-29.67 909.53,-31.92 908.67,-24.97"/>
</g>
<!-- Node2 -->
<g id="node2" class="node">
<title>Node2</title>
<g id="a_node2"><a xlink:href="classDynExpInstr_1_1FunctionGeneratorTasks_1_1InitTask.html" target="_top" xlink:title="Defines a task for initializing an instrument within an instrument inheritance hierarchy....">
<polygon fill="white" stroke="black" points="530,-24.5 530,-54.5 702,-54.5 702,-24.5 530,-24.5"/>
<text text-anchor="start" x="538" y="-42.5" font-family="Helvetica,sans-Serif" font-size="10.00">DynExpInstr::FunctionGenerator</text>
<text text-anchor="middle" x="616" y="-31.5" font-family="Helvetica,sans-Serif" font-size="10.00">Tasks::InitTask</text>
</a>
</g>
</g>
<!-- Node2&#45;&gt;Node1 -->
<g id="edge1" class="edge">
<title>Node2&#45;&gt;Node1</title>
<path fill="none" stroke="midnightblue" d="M712.08,-39.5C720.67,-39.5 729.32,-39.5 737.76,-39.5"/>
<polygon fill="midnightblue" stroke="midnightblue" points="712.03,-36 702.03,-39.5 712.03,-43 712.03,-36"/>
</g>
<!-- Node3 -->
<g id="node3" class="node">
<title>Node3</title>
<g id="a_node3"><a xlink:href="classDynExpInstr_1_1DataStreamInstrumentTasks_1_1InitTask.html" target="_top" xlink:title="Defines a task for initializing an instrument within an instrument inheritance hierarchy....">
<polygon fill="white" stroke="black" points="300,-24.5 300,-54.5 494,-54.5 494,-24.5 300,-24.5"/>
<text text-anchor="start" x="308" y="-42.5" font-family="Helvetica,sans-Serif" font-size="10.00">DynExpInstr::DataStreamInstrument</text>
<text text-anchor="middle" x="397" y="-31.5" font-family="Helvetica,sans-Serif" font-size="10.00">Tasks::InitTask</text>
</a>
</g>
</g>
<!-- Node3&#45;&gt;Node2 -->
<g id="edge2" class="edge">
<title>Node3&#45;&gt;Node2</title>
<path fill="none" stroke="midnightblue" d="M504.21,-39.5C512.81,-39.5 521.43,-39.5 529.86,-39.5"/>
<polygon fill="midnightblue" stroke="midnightblue" points="504.13,-36 494.13,-39.5 504.13,-43 504.13,-36"/>
</g>
<!-- Node4 -->
<g id="node4" class="node">
<title>Node4</title>
<g id="a_node4"><a xlink:href="classDynExp_1_1InitTaskBase.html" target="_top" xlink:title="Defines a task for initializing an instrument within an instrument inheritance hierarchy....">
<polygon fill="white" stroke="black" points="142,-30 142,-49 264,-49 264,-30 142,-30"/>
<text text-anchor="middle" x="203" y="-37" font-family="Helvetica,sans-Serif" font-size="10.00">DynExp::InitTaskBase</text>
</a>
</g>
</g>
<!-- Node4&#45;&gt;Node3 -->
<g id="edge3" class="edge">
<title>Node4&#45;&gt;Node3</title>
<path fill="none" stroke="midnightblue" d="M274.5,-39.5C282.74,-39.5 291.25,-39.5 299.76,-39.5"/>
<polygon fill="midnightblue" stroke="midnightblue" points="274.22,-36 264.22,-39.5 274.22,-43 274.22,-36"/>
</g>
<!-- Node5 -->
<g id="node5" class="node">
<title>Node5</title>
<g id="a_node5"><a xlink:href="classDynExp_1_1TaskBase.html" target="_top" xlink:title="Base class for all tasks being processed by instruments. The class must not contain public virtual fu...">
<polygon fill="white" stroke="black" points="0,-30 0,-49 106,-49 106,-30 0,-30"/>
<text text-anchor="middle" x="53" y="-37" font-family="Helvetica,sans-Serif" font-size="10.00">DynExp::TaskBase</text>
</a>
</g>
</g>
<!-- Node5&#45;&gt;Node4 -->
<g id="edge4" class="edge">
<title>Node5&#45;&gt;Node4</title>
<path fill="none" stroke="midnightblue" d="M116.38,-39.5C124.85,-39.5 133.52,-39.5 141.95,-39.5"/>
<polygon fill="midnightblue" stroke="midnightblue" points="116.18,-36 106.18,-39.5 116.18,-43 116.18,-36"/>
</g>
<!-- Node7 -->
<g id="node7" class="node">
<title>Node7</title>
<g id="a_node7"><a xlink:href="classDynExpInstr_1_1NIDAQAnalogOutTasks_1_1InitTask.html" target="_top" xlink:title=" ">
<polygon fill="white" stroke="black" points="1131,-49.5 1131,-79.5 1279,-79.5 1279,-49.5 1131,-49.5"/>
<text text-anchor="start" x="1139" y="-67.5" font-family="Helvetica,sans-Serif" font-size="10.00">DynExpInstr::NIDAQAnalog</text>
<text text-anchor="middle" x="1205" y="-56.5" font-family="Helvetica,sans-Serif" font-size="10.00">OutTasks::InitTask</text>
</a>
</g>
</g>
<!-- Node6&#45;&gt;Node7 -->
<g id="edge6" class="edge">
<title>Node6&#45;&gt;Node7</title>
<path fill="none" stroke="midnightblue" d="M1105.23,-64.5C1113.83,-64.5 1122.48,-64.5 1130.9,-64.5"/>
<polygon fill="midnightblue" stroke="midnightblue" points="1105.18,-61 1095.18,-64.5 1105.18,-68 1105.18,-61"/>
</g>
<!-- Node9 -->
<g id="node9" class="node">
<title>Node9</title>
<g id="a_node9"><a xlink:href="classDynExpInstr_1_1NIDAQDigitalOutTasks_1_1InitTask.html" target="_top" xlink:title=" ">
<polygon fill="white" stroke="black" points="1132,-0.5 1132,-30.5 1278,-30.5 1278,-0.5 1132,-0.5"/>
<text text-anchor="start" x="1140" y="-18.5" font-family="Helvetica,sans-Serif" font-size="10.00">DynExpInstr::NIDAQDigital</text>
<text text-anchor="middle" x="1205" y="-7.5" font-family="Helvetica,sans-Serif" font-size="10.00">OutTasks::InitTask</text>
</a>
</g>
</g>
<!-- Node8&#45;&gt;Node9 -->
<g id="edge8" class="edge">
<title>Node8&#45;&gt;Node9</title>
<path fill="none" stroke="midnightblue" d="M1104.13,-15.5C1113.42,-15.5 1122.79,-15.5 1131.86,-15.5"/>
<polygon fill="midnightblue" stroke="midnightblue" points="1104.1,-12 1094.1,-15.5 1104.1,-19 1104.1,-12"/>
</g>
</g>
</svg>
