<?xml version="1.0" encoding="UTF-8" standalone="no"?>
<!DOCTYPE svg PUBLIC "-//W3C//DTD SVG 1.1//EN"
 "http://www.w3.org/Graphics/SVG/1.1/DTD/svg11.dtd">
<!-- Generated by graphviz version 2.43.0 (0)
 -->
<!-- Title: Util::QWorker Pages: 1 -->
<svg width="360pt" height="214pt"
 viewBox="0.00 0.00 360.00 214.00" xmlns="http://www.w3.org/2000/svg" xmlns:xlink="http://www.w3.org/1999/xlink">
<g id="graph0" class="graph" transform="scale(1 1) rotate(0) translate(4 210)">
<title>Util::QWorker</title>
<!-- Node1 -->
<g id="Node000001" class="node">
<title>Node1</title>
<g id="a_Node000001"><a xlink:title="Implements a QObject belonging to a hardware adapter (derived from DynExp::HardwareAdapterBase) that ...">
<polygon fill="#999999" stroke="#666666" points="219,-151 138,-151 138,-132 219,-132 219,-151"/>
<text text-anchor="middle" x="178.5" y="-139" font-family="Helvetica,sans-Serif" font-size="10.00">Util::QWorker</text>
</a>
</g>
</g>
<!-- Node3 -->
<g id="Node000003" class="node">
<title>Node3</title>
<g id="a_Node000003"><a xlink:href="classDynExp_1_1QSerialCommunicationHardwareAdapterWorker.html" target="_top" xlink:title="Qt worker which performs actual serial communication hardware operations in a separate thread in orde...">
<polygon fill="white" stroke="#666666" points="265,-96 92,-96 92,-66 265,-66 265,-96"/>
<text text-anchor="start" x="100" y="-84" font-family="Helvetica,sans-Serif" font-size="10.00">DynExp::QSerialCommunication</text>
<text text-anchor="middle" x="178.5" y="-73" font-family="Helvetica,sans-Serif" font-size="10.00">HardwareAdapterWorker</text>
</a>
</g>
</g>
<!-- Node1&#45;&gt;Node3 -->
<g id="edge2_Node000001_Node000003" class="edge">
<title>Node1&#45;&gt;Node3</title>
<g id="a_edge2_Node000001_Node000003"><a xlink:title=" ">
<path fill="none" stroke="#63b8ff" d="M178.5,-121.65C178.5,-113.36 178.5,-103.78 178.5,-96.11"/>
<polygon fill="#63b8ff" stroke="#63b8ff" points="175,-121.87 178.5,-131.87 182,-121.87 175,-121.87"/>
</a>
</g>
</g>
<!-- Node2 -->
<g id="Node000002" class="node">
<title>Node2</title>
<g id="a_Node000002"><a xlink:title=" ">
<polygon fill="white" stroke="#666666" points="206.5,-206 150.5,-206 150.5,-187 206.5,-187 206.5,-206"/>
<text text-anchor="middle" x="178.5" y="-194" font-family="Helvetica,sans-Serif" font-size="10.00">QObject</text>
</a>
</g>
</g>
<!-- Node2&#45;&gt;Node1 -->
<g id="edge1_Node000001_Node000002" class="edge">
<title>Node2&#45;&gt;Node1</title>
<g id="a_edge1_Node000001_Node000002"><a xlink:title=" ">
<path fill="none" stroke="#63b8ff" d="M178.5,-176.66C178.5,-167.93 178.5,-157.99 178.5,-151.09"/>
<polygon fill="#63b8ff" stroke="#63b8ff" points="175,-176.75 178.5,-186.75 182,-176.75 175,-176.75"/>
</a>
</g>
</g>
<!-- Node4 -->
<g id="Node000004" class="node">
<title>Node4</title>
<g id="a_Node000004"><a xlink:href="classDynExp_1_1HardwareAdapterSerialPortWorker.html" target="_top" xlink:title="Qt worker for serial/COM port communication in a separate thread.">
<polygon fill="white" stroke="#666666" points="173,-30 0,-30 0,0 173,0 173,-30"/>
<text text-anchor="start" x="8" y="-18" font-family="Helvetica,sans-Serif" font-size="10.00">DynExp::HardwareAdapterSerial</text>
<text text-anchor="middle" x="86.5" y="-7" font-family="Helvetica,sans-Serif" font-size="10.00">PortWorker</text>
</a>
</g>
</g>
<!-- Node3&#45;&gt;Node4 -->
<g id="edge3_Node000003_Node000004" class="edge">
<title>Node3&#45;&gt;Node4</title>
<g id="a_edge3_Node000003_Node000004"><a xlink:title=" ">
<path fill="none" stroke="#63b8ff" d="M149.79,-60.03C135.87,-50.34 119.47,-38.94 106.86,-30.16"/>
<polygon fill="#63b8ff" stroke="#63b8ff" points="147.87,-62.96 158.08,-65.8 151.87,-57.21 147.87,-62.96"/>
</a>
</g>
</g>
<!-- Node5 -->
<g id="Node000005" class="node">
<title>Node5</title>
<g id="a_Node000005"><a xlink:href="classDynExp_1_1HardwareAdapterTcpSocketWorker.html" target="_top" xlink:title="Qt worker for network communication in a separate thread.">
<polygon fill="white" stroke="#666666" points="352,-30 191,-30 191,0 352,0 352,-30"/>
<text text-anchor="start" x="199" y="-18" font-family="Helvetica,sans-Serif" font-size="10.00">DynExp::HardwareAdapterTcp</text>
<text text-anchor="middle" x="271.5" y="-7" font-family="Helvetica,sans-Serif" font-size="10.00">SocketWorker</text>
</a>
</g>
</g>
<!-- Node3&#45;&gt;Node5 -->
<g id="edge4_Node000003_Node000005" class="edge">
<title>Node3&#45;&gt;Node5</title>
<g id="a_edge4_Node000003_Node000005"><a xlink:title=" ">
<path fill="none" stroke="#63b8ff" d="M207.52,-60.03C221.59,-50.34 238.17,-38.94 250.92,-30.16"/>
<polygon fill="#63b8ff" stroke="#63b8ff" points="205.39,-57.24 199.14,-65.8 209.36,-63.01 205.39,-57.24"/>
</a>
</g>
</g>
</g>
</svg>
