<?xml version="1.0" encoding="UTF-8" standalone="no"?>
<!DOCTYPE svg PUBLIC "-//W3C//DTD SVG 1.1//EN"
 "http://www.w3.org/Graphics/SVG/1.1/DTD/svg11.dtd">
<!-- Generated by graphviz version 2.43.0 (0)
 -->
<!-- Title: DynExp::ParamsBase Pages: 1 -->
<svg width="1383pt" height="1010pt"
 viewBox="0.00 0.00 1383.00 1009.50" xmlns="http://www.w3.org/2000/svg" xmlns:xlink="http://www.w3.org/1999/xlink">
<g id="graph0" class="graph" transform="scale(1 1) rotate(0) translate(4 1005.5)">
<title>DynExp::ParamsBase</title>
<!-- Node1 -->
<g id="Node000001" class="node">
<title>Node1</title>
<g id="a_Node000001"><a xlink:title="Abstract base class for object parameter classes. Each class derived from class Object must be accomp...">
<polygon fill="#999999" stroke="#666666" points="443,-698.5 323,-698.5 323,-679.5 443,-679.5 443,-698.5"/>
<text text-anchor="middle" x="383" y="-686.5" font-family="Helvetica,sans-Serif" font-size="10.00">DynExp::ParamsBase</text>
</a>
</g>
</g>
<!-- Node4 -->
<g id="Node000004" class="node">
<title>Node4</title>
<g id="a_Node000004"><a xlink:href="classDynExp_1_1HardwareAdapterParamsBase.html" target="_top" xlink:title="Parameter class for HardwareAdapterBase.">
<polygon fill="white" stroke="#666666" points="685,-792.5 479,-792.5 479,-773.5 685,-773.5 685,-792.5"/>
<text text-anchor="middle" x="582" y="-780.5" font-family="Helvetica,sans-Serif" font-size="10.00">DynExp::HardwareAdapterParamsBase</text>
</a>
</g>
</g>
<!-- Node1&#45;&gt;Node4 -->
<g id="edge3_Node000001_Node000004" class="edge">
<title>Node1&#45;&gt;Node4</title>
<g id="a_edge3_Node000001_Node000004"><a xlink:title=" ">
<path fill="none" stroke="#63b8ff" d="M413.07,-702.87C453.58,-722.2 525.98,-756.75 560.97,-773.44"/>
<polygon fill="#63b8ff" stroke="#63b8ff" points="414.51,-699.68 403.97,-698.53 411.49,-706 414.51,-699.68"/>
</a>
</g>
</g>
<!-- Node17 -->
<g id="Node000017" class="node">
<title>Node17</title>
<g id="a_Node000017"><a xlink:href="classDynExp_1_1ProjectParams.html" target="_top" xlink:title="Defines a parameter class with parameters common to all DynExp projects.">
<polygon fill="white" stroke="#666666" points="647,-698.5 517,-698.5 517,-679.5 647,-679.5 647,-698.5"/>
<text text-anchor="middle" x="582" y="-686.5" font-family="Helvetica,sans-Serif" font-size="10.00">DynExp::ProjectParams</text>
</a>
</g>
</g>
<!-- Node1&#45;&gt;Node17 -->
<g id="edge16_Node000001_Node000017" class="edge">
<title>Node1&#45;&gt;Node17</title>
<g id="a_edge16_Node000001_Node000017"><a xlink:title=" ">
<path fill="none" stroke="#63b8ff" d="M453.38,-689C474,-689 496.5,-689 516.78,-689"/>
<polygon fill="#63b8ff" stroke="#63b8ff" points="453.11,-685.5 443.11,-689 453.11,-692.5 453.11,-685.5"/>
</a>
</g>
</g>
<!-- Node18 -->
<g id="Node000018" class="node">
<title>Node18</title>
<g id="a_Node000018"><a xlink:href="classDynExp_1_1RunnableObjectParams.html" target="_top" xlink:title="Parameter class for RunnableObject.">
<polygon fill="white" stroke="#666666" points="668.5,-605.5 495.5,-605.5 495.5,-586.5 668.5,-586.5 668.5,-605.5"/>
<text text-anchor="middle" x="582" y="-593.5" font-family="Helvetica,sans-Serif" font-size="10.00">DynExp::RunnableObjectParams</text>
</a>
</g>
</g>
<!-- Node1&#45;&gt;Node18 -->
<g id="edge17_Node000001_Node000018" class="edge">
<title>Node1&#45;&gt;Node18</title>
<g id="a_edge17_Node000001_Node000018"><a xlink:title=" ">
<path fill="none" stroke="#63b8ff" d="M413.44,-675.1C453.95,-655.98 525.81,-622.05 560.77,-605.55"/>
<polygon fill="#63b8ff" stroke="#63b8ff" points="411.89,-671.96 404.34,-679.4 414.88,-678.29 411.89,-671.96"/>
</a>
</g>
</g>
<!-- Node2 -->
<g id="Node000002" class="node">
<title>Node2</title>
<g id="a_Node000002"><a xlink:href="classUtil_1_1ISynchronizedPointerLockable.html" target="_top" xlink:title="Interface to allow synchronizing the access to derived classes between different threads by making th...">
<polygon fill="white" stroke="#666666" points="287,-704 144,-704 144,-674 287,-674 287,-704"/>
<text text-anchor="start" x="152" y="-692" font-family="Helvetica,sans-Serif" font-size="10.00">Util::ISynchronizedPointer</text>
<text text-anchor="middle" x="215.5" y="-681" font-family="Helvetica,sans-Serif" font-size="10.00">Lockable</text>
</a>
</g>
</g>
<!-- Node2&#45;&gt;Node1 -->
<g id="edge1_Node000001_Node000002" class="edge">
<title>Node2&#45;&gt;Node1</title>
<g id="a_edge1_Node000001_Node000002"><a xlink:title=" ">
<path fill="none" stroke="#63b8ff" d="M297.23,-689C305.84,-689 314.47,-689 322.76,-689"/>
<polygon fill="#63b8ff" stroke="#63b8ff" points="297.17,-685.5 287.17,-689 297.17,-692.5 297.17,-685.5"/>
</a>
</g>
</g>
<!-- Node3 -->
<g id="Node000003" class="node">
<title>Node3</title>
<g id="a_Node000003"><a xlink:href="classUtil_1_1INonCopyable.html" target="_top" xlink:title="Interface to delete copy constructor and copy assignment operator and thus make derived classes non&#45;c...">
<polygon fill="white" stroke="#666666" points="108,-698.5 0,-698.5 0,-679.5 108,-679.5 108,-698.5"/>
<text text-anchor="middle" x="54" y="-686.5" font-family="Helvetica,sans-Serif" font-size="10.00">Util::INonCopyable</text>
</a>
</g>
</g>
<!-- Node3&#45;&gt;Node2 -->
<g id="edge2_Node000002_Node000003" class="edge">
<title>Node3&#45;&gt;Node2</title>
<g id="a_edge2_Node000002_Node000003"><a xlink:title=" ">
<path fill="none" stroke="#63b8ff" d="M118.19,-689C126.58,-689 135.23,-689 143.74,-689"/>
<polygon fill="#63b8ff" stroke="#63b8ff" points="118.11,-685.5 108.11,-689 118.11,-692.5 118.11,-685.5"/>
</a>
</g>
</g>
<!-- Node5 -->
<g id="Node000005" class="node">
<title>Node5</title>
<g id="a_Node000005"><a xlink:href="classDynExpHardware_1_1gRPCHardwareAdapterParams.html" target="_top" xlink:title=" ">
<polygon fill="white" stroke="#666666" points="917,-1001.5 737,-1001.5 737,-960.5 917,-960.5 917,-1001.5"/>
<text text-anchor="start" x="745" y="-989.5" font-family="Helvetica,sans-Serif" font-size="10.00">DynExpHardware::gRPCHardware</text>
<text text-anchor="start" x="745" y="-978.5" font-family="Helvetica,sans-Serif" font-size="10.00">AdapterParams&lt; pulse_streamer</text>
<text text-anchor="middle" x="827" y="-967.5" font-family="Helvetica,sans-Serif" font-size="10.00">::PulseStreamer &gt;</text>
</a>
</g>
</g>
<!-- Node4&#45;&gt;Node5 -->
<g id="edge4_Node000004_Node000005" class="edge">
<title>Node4&#45;&gt;Node5</title>
<g id="a_edge4_Node000004_Node000005"><a xlink:title=" ">
<path fill="none" stroke="#63b8ff" d="M593.19,-801.77C613.06,-836.59 660.4,-911.23 721,-951 726.39,-954.54 732.2,-957.66 738.22,-960.43"/>
<polygon fill="#63b8ff" stroke="#63b8ff" points="596.05,-799.72 588.12,-792.7 589.94,-803.14 596.05,-799.72"/>
</a>
</g>
</g>
<!-- Node7 -->
<g id="Node000007" class="node">
<title>Node7</title>
<g id="a_Node000007"><a xlink:href="classDynExp_1_1SerialCommunicationHardwareAdapterParams.html" target="_top" xlink:title="Parameter class for SerialCommunicationHardwareAdapter.">
<polygon fill="white" stroke="#666666" points="909.5,-942 744.5,-942 744.5,-912 909.5,-912 909.5,-942"/>
<text text-anchor="start" x="752.5" y="-930" font-family="Helvetica,sans-Serif" font-size="10.00">DynExp::SerialCommunication</text>
<text text-anchor="middle" x="827" y="-919" font-family="Helvetica,sans-Serif" font-size="10.00">HardwareAdapterParams</text>
</a>
</g>
</g>
<!-- Node4&#45;&gt;Node7 -->
<g id="edge6_Node000004_Node000007" class="edge">
<title>Node4&#45;&gt;Node7</title>
<g id="a_edge6_Node000004_Node000007"><a xlink:title=" ">
<path fill="none" stroke="#63b8ff" d="M597.56,-800.21C620.85,-826.57 669.15,-876.65 721,-903 728.33,-906.73 736.25,-909.88 744.33,-912.55"/>
<polygon fill="#63b8ff" stroke="#63b8ff" points="600.11,-797.8 590.91,-792.55 594.82,-802.39 600.11,-797.8"/>
</a>
</g>
</g>
<!-- Node11 -->
<g id="Node000011" class="node">
<title>Node11</title>
<g id="a_Node000011"><a xlink:href="classDynExpHardware_1_1NIDAQHardwareAdapterParams.html" target="_top" xlink:title=" ">
<polygon fill="white" stroke="#666666" points="920.5,-894 733.5,-894 733.5,-864 920.5,-864 920.5,-894"/>
<text text-anchor="start" x="741.5" y="-882" font-family="Helvetica,sans-Serif" font-size="10.00">DynExpHardware::NIDAQHardware</text>
<text text-anchor="middle" x="827" y="-871" font-family="Helvetica,sans-Serif" font-size="10.00">AdapterParams</text>
</a>
</g>
</g>
<!-- Node4&#45;&gt;Node11 -->
<g id="edge10_Node000004_Node000011" class="edge">
<title>Node4&#45;&gt;Node11</title>
<g id="a_edge10_Node000004_Node000011"><a xlink:title=" ">
<path fill="none" stroke="#63b8ff" d="M606.82,-797.84C633.66,-813.99 679.03,-839.55 721,-855 730.12,-858.36 739.87,-861.34 749.62,-863.97"/>
<polygon fill="#63b8ff" stroke="#63b8ff" points="608.49,-794.77 598.13,-792.56 604.85,-800.75 608.49,-794.77"/>
</a>
</g>
</g>
<!-- Node12 -->
<g id="Node000012" class="node">
<title>Node12</title>
<g id="a_Node000012"><a xlink:href="classDynExpHardware_1_1PVCamHardwareAdapterParams.html" target="_top" xlink:title=" ">
<polygon fill="white" stroke="#666666" points="922,-846 732,-846 732,-816 922,-816 922,-846"/>
<text text-anchor="start" x="740" y="-834" font-family="Helvetica,sans-Serif" font-size="10.00">DynExpHardware::PVCamHardware</text>
<text text-anchor="middle" x="827" y="-823" font-family="Helvetica,sans-Serif" font-size="10.00">AdapterParams</text>
</a>
</g>
</g>
<!-- Node4&#45;&gt;Node12 -->
<g id="edge11_Node000004_Node000012" class="edge">
<title>Node4&#45;&gt;Node12</title>
<g id="a_edge11_Node000004_Node000012"><a xlink:title=" ">
<path fill="none" stroke="#63b8ff" d="M641.14,-794.48C673.78,-800.93 714.89,-809.05 750.04,-816"/>
<polygon fill="#63b8ff" stroke="#63b8ff" points="641.79,-791.04 631.3,-792.54 640.43,-797.91 641.79,-791.04"/>
</a>
</g>
</g>
<!-- Node13 -->
<g id="Node000013" class="node">
<title>Node13</title>
<g id="a_Node000013"><a xlink:href="classDynExpHardware_1_1QutoolsTDCHardwareAdapterParams.html" target="_top" xlink:title=" ">
<polygon fill="white" stroke="#666666" points="933,-798 721,-798 721,-768 933,-768 933,-798"/>
<text text-anchor="start" x="729" y="-786" font-family="Helvetica,sans-Serif" font-size="10.00">DynExpHardware::QutoolsTDCHardware</text>
<text text-anchor="middle" x="827" y="-775" font-family="Helvetica,sans-Serif" font-size="10.00">AdapterParams</text>
</a>
</g>
</g>
<!-- Node4&#45;&gt;Node13 -->
<g id="edge12_Node000004_Node000013" class="edge">
<title>Node4&#45;&gt;Node13</title>
<g id="a_edge12_Node000004_Node000013"><a xlink:title=" ">
<path fill="none" stroke="#63b8ff" d="M695.52,-783C703.89,-783 712.32,-783 720.65,-783"/>
<polygon fill="#63b8ff" stroke="#63b8ff" points="695.35,-779.5 685.35,-783 695.35,-786.5 695.35,-779.5"/>
</a>
</g>
</g>
<!-- Node14 -->
<g id="Node000014" class="node">
<title>Node14</title>
<g id="a_Node000014"><a xlink:href="classDynExpHardware_1_1SmarActHardwareAdapterParams.html" target="_top" xlink:title=" ">
<polygon fill="white" stroke="#666666" points="925,-750 729,-750 729,-720 925,-720 925,-750"/>
<text text-anchor="start" x="737" y="-738" font-family="Helvetica,sans-Serif" font-size="10.00">DynExpHardware::SmarActHardware</text>
<text text-anchor="middle" x="827" y="-727" font-family="Helvetica,sans-Serif" font-size="10.00">AdapterParams</text>
</a>
</g>
</g>
<!-- Node4&#45;&gt;Node14 -->
<g id="edge13_Node000004_Node000014" class="edge">
<title>Node4&#45;&gt;Node14</title>
<g id="a_edge13_Node000004_Node000014"><a xlink:title=" ">
<path fill="none" stroke="#63b8ff" d="M641.14,-771.52C673.78,-765.07 714.89,-756.95 750.04,-750"/>
<polygon fill="#63b8ff" stroke="#63b8ff" points="640.43,-768.09 631.3,-773.46 641.79,-774.96 640.43,-768.09"/>
</a>
</g>
</g>
<!-- Node15 -->
<g id="Node000015" class="node">
<title>Node15</title>
<g id="a_Node000015"><a xlink:href="classDynExpHardware_1_1ZILabOneHardwareAdapterParams.html" target="_top" xlink:title=" ">
<polygon fill="white" stroke="#666666" points="904,-702 750,-702 750,-672 904,-672 904,-702"/>
<text text-anchor="start" x="758" y="-690" font-family="Helvetica,sans-Serif" font-size="10.00">DynExpHardware::ZILabOne</text>
<text text-anchor="middle" x="827" y="-679" font-family="Helvetica,sans-Serif" font-size="10.00">HardwareAdapterParams</text>
</a>
</g>
</g>
<!-- Node4&#45;&gt;Node15 -->
<g id="edge14_Node000004_Node000015" class="edge">
<title>Node4&#45;&gt;Node15</title>
<g id="a_edge14_Node000004_Node000015"><a xlink:title=" ">
<path fill="none" stroke="#63b8ff" d="M606.82,-768.16C633.66,-752.01 679.03,-726.45 721,-711 730.21,-707.61 740.06,-704.6 749.9,-701.96"/>
<polygon fill="#63b8ff" stroke="#63b8ff" points="604.85,-765.25 598.13,-773.44 608.49,-771.23 604.85,-765.25"/>
</a>
</g>
</g>
<!-- Node16 -->
<g id="Node000016" class="node">
<title>Node16</title>
<g id="a_Node000016"><a xlink:href="classDynExpHardware_1_1gRPCHardwareAdapterParams.html" target="_top" xlink:title="Parameter class for gRPCHardwareAdapter.">
<polygon fill="white" stroke="#666666" points="917,-654 737,-654 737,-624 917,-624 917,-654"/>
<text text-anchor="start" x="745" y="-642" font-family="Helvetica,sans-Serif" font-size="10.00">DynExpHardware::gRPCHardware</text>
<text text-anchor="middle" x="827" y="-631" font-family="Helvetica,sans-Serif" font-size="10.00">AdapterParams&lt; gRPCStub &gt;</text>
</a>
</g>
</g>
<!-- Node4&#45;&gt;Node16 -->
<g id="edge15_Node000004_Node000016" class="edge">
<title>Node4&#45;&gt;Node16</title>
<g id="a_edge15_Node000004_Node000016"><a xlink:title=" ">
<path fill="none" stroke="#63b8ff" d="M607.05,-767.93C628.63,-753.82 660.58,-731.44 685,-708 703.48,-690.26 699.3,-676.61 721,-663 726.46,-659.57 732.36,-656.63 738.48,-654.11"/>
<polygon fill="#63b8ff" stroke="#63b8ff" points="604.99,-765.09 598.48,-773.45 608.78,-770.98 604.99,-765.09"/>
</a>
</g>
</g>
<!-- Node6 -->
<g id="Node000006" class="node">
<title>Node6</title>
<g id="a_Node000006"><a xlink:href="classDynExpHardware_1_1SIPulseStreamerHardwareAdapterParams.html" target="_top" xlink:title=" ">
<polygon fill="white" stroke="#666666" points="1160,-996 972,-996 972,-966 1160,-966 1160,-996"/>
<text text-anchor="start" x="980" y="-984" font-family="Helvetica,sans-Serif" font-size="10.00">DynExpHardware::SIPulseStreamer</text>
<text text-anchor="middle" x="1066" y="-973" font-family="Helvetica,sans-Serif" font-size="10.00">HardwareAdapterParams</text>
</a>
</g>
</g>
<!-- Node5&#45;&gt;Node6 -->
<g id="edge5_Node000005_Node000006" class="edge">
<title>Node5&#45;&gt;Node6</title>
<g id="a_edge5_Node000005_Node000006"><a xlink:title=" ">
<path fill="none" stroke="#63b8ff" d="M927.39,-981C942.12,-981 957.27,-981 971.87,-981"/>
<polygon fill="#63b8ff" stroke="#63b8ff" points="927.26,-977.5 917.26,-981 927.26,-984.5 927.26,-977.5"/>
</a>
</g>
</g>
<!-- Node8 -->
<g id="Node000008" class="node">
<title>Node8</title>
<g id="a_Node000008"><a xlink:href="classDynExp_1_1QSerialCommunicationHardwareAdapterParams.html" target="_top" xlink:title="Parameter class for QSerialCommunicationHardwareAdapter.">
<polygon fill="white" stroke="#666666" points="1152.5,-942 979.5,-942 979.5,-912 1152.5,-912 1152.5,-942"/>
<text text-anchor="start" x="987.5" y="-930" font-family="Helvetica,sans-Serif" font-size="10.00">DynExp::QSerialCommunication</text>
<text text-anchor="middle" x="1066" y="-919" font-family="Helvetica,sans-Serif" font-size="10.00">HardwareAdapterParams</text>
</a>
</g>
</g>
<!-- Node7&#45;&gt;Node8 -->
<g id="edge7_Node000007_Node000008" class="edge">
<title>Node7&#45;&gt;Node8</title>
<g id="a_edge7_Node000007_Node000008"><a xlink:title=" ">
<path fill="none" stroke="#63b8ff" d="M919.7,-927C939.28,-927 959.9,-927 979.25,-927"/>
<polygon fill="#63b8ff" stroke="#63b8ff" points="919.56,-923.5 909.56,-927 919.56,-930.5 919.56,-923.5"/>
</a>
</g>
</g>
<!-- Node9 -->
<g id="Node000009" class="node">
<title>Node9</title>
<g id="a_Node000009"><a xlink:href="classDynExp_1_1HardwareAdapterSerialPortParams.html" target="_top" xlink:title="Parameter class for HardwareAdapterSerialPort.">
<polygon fill="white" stroke="#666666" points="1373.5,-984 1200.5,-984 1200.5,-954 1373.5,-954 1373.5,-984"/>
<text text-anchor="start" x="1208.5" y="-972" font-family="Helvetica,sans-Serif" font-size="10.00">DynExp::HardwareAdapterSerial</text>
<text text-anchor="middle" x="1287" y="-961" font-family="Helvetica,sans-Serif" font-size="10.00">PortParams</text>
</a>
</g>
</g>
<!-- Node8&#45;&gt;Node9 -->
<g id="edge8_Node000008_Node000009" class="edge">
<title>Node8&#45;&gt;Node9</title>
<g id="a_edge8_Node000008_Node000009"><a xlink:title=" ">
<path fill="none" stroke="#63b8ff" d="M1155.52,-943.98C1172.81,-947.29 1190.81,-950.75 1207.73,-953.99"/>
<polygon fill="#63b8ff" stroke="#63b8ff" points="1155.93,-940.49 1145.45,-942.04 1154.61,-947.37 1155.93,-940.49"/>
</a>
</g>
</g>
<!-- Node10 -->
<g id="Node000010" class="node">
<title>Node10</title>
<g id="a_Node000010"><a xlink:href="classDynExp_1_1HardwareAdapterTcpSocketParams.html" target="_top" xlink:title="Parameter class for HardwareAdapterTcpSocket.">
<polygon fill="white" stroke="#666666" points="1367.5,-936 1206.5,-936 1206.5,-906 1367.5,-906 1367.5,-936"/>
<text text-anchor="start" x="1214.5" y="-924" font-family="Helvetica,sans-Serif" font-size="10.00">DynExp::HardwareAdapterTcp</text>
<text text-anchor="middle" x="1287" y="-913" font-family="Helvetica,sans-Serif" font-size="10.00">SocketParams</text>
</a>
</g>
</g>
<!-- Node8&#45;&gt;Node10 -->
<g id="edge9_Node000008_Node000010" class="edge">
<title>Node8&#45;&gt;Node10</title>
<g id="a_edge9_Node000008_Node000010"><a xlink:title=" ">
<path fill="none" stroke="#63b8ff" d="M1162.61,-924.38C1177.15,-923.98 1192.02,-923.57 1206.17,-923.19"/>
<polygon fill="#63b8ff" stroke="#63b8ff" points="1162.51,-920.88 1152.61,-924.65 1162.7,-927.88 1162.51,-920.88"/>
</a>
</g>
</g>
<!-- Node19 -->
<g id="Node000019" class="node">
<title>Node19</title>
<g id="a_Node000019"><a xlink:href="classDynExp_1_1InstrumentParamsBase.html" target="_top" xlink:title="Parameter class for InstrumentBase.">
<polygon fill="white" stroke="#666666" points="913.5,-605.5 740.5,-605.5 740.5,-586.5 913.5,-586.5 913.5,-605.5"/>
<text text-anchor="middle" x="827" y="-593.5" font-family="Helvetica,sans-Serif" font-size="10.00">DynExp::InstrumentParamsBase</text>
</a>
</g>
</g>
<!-- Node18&#45;&gt;Node19 -->
<g id="edge18_Node000018_Node000019" class="edge">
<title>Node18&#45;&gt;Node19</title>
<g id="a_edge18_Node000018_Node000019"><a xlink:title=" ">
<path fill="none" stroke="#63b8ff" d="M678.85,-596C699.13,-596 720.41,-596 740.28,-596"/>
<polygon fill="#63b8ff" stroke="#63b8ff" points="678.67,-592.5 668.67,-596 678.67,-599.5 678.67,-592.5"/>
</a>
</g>
</g>
<!-- Node49 -->
<g id="Node000049" class="node">
<title>Node49</title>
<g id="a_Node000049"><a xlink:href="classDynExp_1_1ModuleParamsBase.html" target="_top" xlink:title="Parameter class for ModuleBase.">
<polygon fill="white" stroke="#666666" points="905,-219.5 749,-219.5 749,-200.5 905,-200.5 905,-219.5"/>
<text text-anchor="middle" x="827" y="-207.5" font-family="Helvetica,sans-Serif" font-size="10.00">DynExp::ModuleParamsBase</text>
</a>
</g>
</g>
<!-- Node18&#45;&gt;Node49 -->
<g id="edge33_Node000018_Node000049" class="edge">
<title>Node18&#45;&gt;Node49</title>
<g id="a_edge33_Node000018_Node000049"><a xlink:title=" ">
<path fill="none" stroke="#63b8ff" d="M594.56,-577.64C637.63,-509.22 787.99,-270.37 819.99,-219.55"/>
<polygon fill="#63b8ff" stroke="#63b8ff" points="591.37,-576.13 589.01,-586.46 597.3,-579.86 591.37,-576.13"/>
</a>
</g>
</g>
<!-- Node20 -->
<g id="Node000020" class="node">
<title>Node20</title>
<g id="a_Node000020"><a xlink:href="classDynExpInstr_1_1CameraParams.html" target="_top" xlink:title="Parameter class for Camera.">
<polygon fill="white" stroke="#666666" points="1144,-827.5 988,-827.5 988,-808.5 1144,-808.5 1144,-827.5"/>
<text text-anchor="middle" x="1066" y="-815.5" font-family="Helvetica,sans-Serif" font-size="10.00">DynExpInstr::CameraParams</text>
</a>
</g>
</g>
<!-- Node19&#45;&gt;Node20 -->
<g id="edge19_Node000019_Node000020" class="edge">
<title>Node19&#45;&gt;Node20</title>
<g id="a_edge19_Node000019_Node000020"><a xlink:title=" ">
<path fill="none" stroke="#63b8ff" d="M922.91,-607.99C926.48,-610.04 929.86,-612.36 933,-615 968.52,-644.85 944.89,-673.35 969,-713 993.25,-752.89 1034.02,-791.11 1053.7,-808.38"/>
<polygon fill="#63b8ff" stroke="#63b8ff" points="924.25,-604.75 913.74,-603.46 921.16,-611.03 924.25,-604.75"/>
</a>
</g>
</g>
<!-- Node23 -->
<g id="Node000023" class="node">
<title>Node23</title>
<g id="a_Node000023"><a xlink:href="classDynExpInstr_1_1DataStreamInstrumentParams.html" target="_top" xlink:title="Parameter class for DataStreamInstrument.">
<polygon fill="white" stroke="#666666" points="1163,-704 969,-704 969,-674 1163,-674 1163,-704"/>
<text text-anchor="start" x="977" y="-692" font-family="Helvetica,sans-Serif" font-size="10.00">DynExpInstr::DataStreamInstrument</text>
<text text-anchor="middle" x="1066" y="-681" font-family="Helvetica,sans-Serif" font-size="10.00">Params</text>
</a>
</g>
</g>
<!-- Node19&#45;&gt;Node23 -->
<g id="edge22_Node000019_Node000023" class="edge">
<title>Node19&#45;&gt;Node23</title>
<g id="a_edge22_Node000019_Node000023"><a xlink:title=" ">
<path fill="none" stroke="#63b8ff" d="M916.53,-608.43C922.21,-610.32 927.75,-612.5 933,-615 952.06,-624.09 951.18,-634.68 969,-646 986.26,-656.97 1006.8,-666.57 1024.43,-673.9"/>
<polygon fill="#63b8ff" stroke="#63b8ff" points="917.45,-605.05 906.86,-605.51 915.42,-611.75 917.45,-605.05"/>
</a>
</g>
</g>
<!-- Node43 -->
<g id="Node000043" class="node">
<title>Node43</title>
<g id="a_Node000043"><a xlink:href="classDynExpInstr_1_1InterModuleCommunicatorParams.html" target="_top" xlink:title="Parameter class for InterModuleCommunicator.">
<polygon fill="white" stroke="#666666" points="1136,-637 996,-637 996,-607 1136,-607 1136,-637"/>
<text text-anchor="start" x="1004" y="-625" font-family="Helvetica,sans-Serif" font-size="10.00">DynExpInstr::InterModule</text>
<text text-anchor="middle" x="1066" y="-614" font-family="Helvetica,sans-Serif" font-size="10.00">CommunicatorParams</text>
</a>
</g>
</g>
<!-- Node19&#45;&gt;Node43 -->
<g id="edge27_Node000019_Node000043" class="edge">
<title>Node19&#45;&gt;Node43</title>
<g id="a_edge27_Node000019_Node000043"><a xlink:title=" ">
<path fill="none" stroke="#63b8ff" d="M923.81,-606.51C947.94,-609.16 973.36,-611.95 995.89,-614.42"/>
<polygon fill="#63b8ff" stroke="#63b8ff" points="923.88,-603 913.56,-605.39 923.12,-609.96 923.88,-603"/>
</a>
</g>
</g>
<!-- Node44 -->
<g id="Node000044" class="node">
<title>Node44</title>
<g id="a_Node000044"><a xlink:href="classDynExpInstr_1_1PositionerStageParams.html" target="_top" xlink:title="Parameter class for PositionerStage.">
<polygon fill="white" stroke="#666666" points="1145,-589 987,-589 987,-559 1145,-559 1145,-589"/>
<text text-anchor="start" x="995" y="-577" font-family="Helvetica,sans-Serif" font-size="10.00">DynExpInstr::PositionerStage</text>
<text text-anchor="middle" x="1066" y="-566" font-family="Helvetica,sans-Serif" font-size="10.00">Params</text>
</a>
</g>
</g>
<!-- Node19&#45;&gt;Node44 -->
<g id="edge28_Node000019_Node000044" class="edge">
<title>Node19&#45;&gt;Node44</title>
<g id="a_edge28_Node000019_Node000044"><a xlink:title=" ">
<path fill="none" stroke="#63b8ff" d="M923.73,-587.11C944.64,-585.17 966.53,-583.14 986.66,-581.27"/>
<polygon fill="#63b8ff" stroke="#63b8ff" points="923.2,-583.65 913.56,-588.06 923.84,-590.62 923.2,-583.65"/>
</a>
</g>
</g>
<!-- Node48 -->
<g id="Node000048" class="node">
<title>Node48</title>
<g id="a_Node000048"><a xlink:href="classDynExpInstr_1_1SpectrometerParams.html" target="_top" xlink:title="Parameter class for Spectrometer.">
<polygon fill="white" stroke="#666666" points="1140,-541 992,-541 992,-511 1140,-511 1140,-541"/>
<text text-anchor="start" x="1000" y="-529" font-family="Helvetica,sans-Serif" font-size="10.00">DynExpInstr::Spectrometer</text>
<text text-anchor="middle" x="1066" y="-518" font-family="Helvetica,sans-Serif" font-size="10.00">Params</text>
</a>
</g>
</g>
<!-- Node19&#45;&gt;Node48 -->
<g id="edge32_Node000019_Node000048" class="edge">
<title>Node19&#45;&gt;Node48</title>
<g id="a_edge32_Node000019_Node000048"><a xlink:title=" ">
<path fill="none" stroke="#63b8ff" d="M864.88,-583.18C893.2,-573.53 933.36,-560.25 969,-550 979.65,-546.94 991.03,-543.89 1002.09,-541.05"/>
<polygon fill="#63b8ff" stroke="#63b8ff" points="863.71,-579.88 855.38,-586.43 865.98,-586.5 863.71,-579.88"/>
</a>
</g>
</g>
<!-- Node21 -->
<g id="Node000021" class="node">
<title>Node21</title>
<g id="a_Node000021"><a xlink:href="classDynExpInstr_1_1DummyCameraParams.html" target="_top" xlink:title=" ">
<polygon fill="white" stroke="#666666" points="1366.5,-876 1207.5,-876 1207.5,-846 1366.5,-846 1366.5,-876"/>
<text text-anchor="start" x="1215.5" y="-864" font-family="Helvetica,sans-Serif" font-size="10.00">DynExpInstr::DummyCamera</text>
<text text-anchor="middle" x="1287" y="-853" font-family="Helvetica,sans-Serif" font-size="10.00">Params</text>
</a>
</g>
</g>
<!-- Node20&#45;&gt;Node21 -->
<g id="edge20_Node000020_Node000021" class="edge">
<title>Node20&#45;&gt;Node21</title>
<g id="a_edge20_Node000020_Node000021"><a xlink:title=" ">
<path fill="none" stroke="#63b8ff" d="M1125.6,-829.51C1151.39,-834.57 1182.02,-840.58 1209.57,-845.99"/>
<polygon fill="#63b8ff" stroke="#63b8ff" points="1126.09,-826.04 1115.6,-827.54 1124.74,-832.9 1126.09,-826.04"/>
</a>
</g>
</g>
<!-- Node22 -->
<g id="Node000022" class="node">
<title>Node22</title>
<g id="a_Node000022"><a xlink:href="classDynExpInstr_1_1PVCamParams.html" target="_top" xlink:title=" ">
<polygon fill="white" stroke="#666666" points="1363.5,-827.5 1210.5,-827.5 1210.5,-808.5 1363.5,-808.5 1363.5,-827.5"/>
<text text-anchor="middle" x="1287" y="-815.5" font-family="Helvetica,sans-Serif" font-size="10.00">DynExpInstr::PVCamParams</text>
</a>
</g>
</g>
<!-- Node20&#45;&gt;Node22 -->
<g id="edge21_Node000020_Node000022" class="edge">
<title>Node20&#45;&gt;Node22</title>
<g id="a_edge21_Node000020_Node000022"><a xlink:title=" ">
<path fill="none" stroke="#63b8ff" d="M1154.37,-818C1172.85,-818 1192.21,-818 1210.22,-818"/>
<polygon fill="#63b8ff" stroke="#63b8ff" points="1154.21,-814.5 1144.21,-818 1154.21,-821.5 1154.21,-814.5"/>
</a>
</g>
</g>
<!-- Node24 -->
<g id="Node000024" class="node">
<title>Node24</title>
<g id="a_Node000024"><a xlink:href="classDynExpInstr_1_1FunctionGeneratorParams.html" target="_top" xlink:title="Parameter class for FunctionGenerator.">
<polygon fill="#fff0f0" stroke="red" points="1373,-790 1201,-790 1201,-760 1373,-760 1373,-790"/>
<text text-anchor="start" x="1209" y="-778" font-family="Helvetica,sans-Serif" font-size="10.00">DynExpInstr::FunctionGenerator</text>
<text text-anchor="middle" x="1287" y="-767" font-family="Helvetica,sans-Serif" font-size="10.00">Params</text>
</a>
</g>
</g>
<!-- Node23&#45;&gt;Node24 -->
<g id="edge23_Node000023_Node000024" class="edge">
<title>Node23&#45;&gt;Node24</title>
<g id="a_edge23_Node000023_Node000024"><a xlink:title=" ">
<path fill="none" stroke="#63b8ff" d="M1104.62,-708.77C1130.64,-721.91 1166.32,-738.92 1199,-751 1207.67,-754.21 1216.97,-757.21 1226.14,-759.93"/>
<polygon fill="#63b8ff" stroke="#63b8ff" points="1105.99,-705.54 1095.49,-704.11 1102.81,-711.77 1105.99,-705.54"/>
</a>
</g>
</g>
<!-- Node34 -->
<g id="Node000034" class="node">
<title>Node34</title>
<g id="a_Node000034"><a xlink:href="classDynExpInstr_1_1InputPortParams.html" target="_top" xlink:title="Parameter class for InputPort.">
<polygon fill="#fff0f0" stroke="red" points="1368,-741.5 1206,-741.5 1206,-722.5 1368,-722.5 1368,-741.5"/>
<text text-anchor="middle" x="1287" y="-729.5" font-family="Helvetica,sans-Serif" font-size="10.00">DynExpInstr::InputPortParams</text>
</a>
</g>
</g>
<!-- Node23&#45;&gt;Node34 -->
<g id="edge24_Node000023_Node000034" class="edge">
<title>Node23&#45;&gt;Node34</title>
<g id="a_edge24_Node000023_Node000034"><a xlink:title=" ">
<path fill="none" stroke="#63b8ff" d="M1153.59,-706C1182.13,-711.61 1212.85,-717.64 1237.5,-722.48"/>
<polygon fill="#63b8ff" stroke="#63b8ff" points="1154.08,-702.53 1143.6,-704.04 1152.73,-709.4 1154.08,-702.53"/>
</a>
</g>
</g>
<!-- Node39 -->
<g id="Node000039" class="node">
<title>Node39</title>
<g id="a_Node000039"><a xlink:href="classDynExpInstr_1_1LockinAmplifierParams.html" target="_top" xlink:title="Parameter class for LockinAmplifier.">
<polygon fill="#fff0f0" stroke="red" points="1366,-704 1208,-704 1208,-674 1366,-674 1366,-704"/>
<text text-anchor="start" x="1216" y="-692" font-family="Helvetica,sans-Serif" font-size="10.00">DynExpInstr::LockinAmplifier</text>
<text text-anchor="middle" x="1287" y="-681" font-family="Helvetica,sans-Serif" font-size="10.00">Params</text>
</a>
</g>
</g>
<!-- Node23&#45;&gt;Node39 -->
<g id="edge25_Node000023_Node000039" class="edge">
<title>Node23&#45;&gt;Node39</title>
<g id="a_edge25_Node000023_Node000039"><a xlink:title=" ">
<path fill="none" stroke="#63b8ff" d="M1173.25,-689C1184.88,-689 1196.56,-689 1207.76,-689"/>
<polygon fill="#63b8ff" stroke="#63b8ff" points="1173.06,-685.5 1163.06,-689 1173.06,-692.5 1173.06,-685.5"/>
</a>
</g>
</g>
<!-- Node41 -->
<g id="Node000041" class="node">
<title>Node41</title>
<g id="a_Node000041"><a xlink:href="classDynExpInstr_1_1TimeTaggerParams.html" target="_top" xlink:title="Parameter class for TimeTagger.">
<polygon fill="#fff0f0" stroke="red" points="1374.5,-655.5 1199.5,-655.5 1199.5,-636.5 1374.5,-636.5 1374.5,-655.5"/>
<text text-anchor="middle" x="1287" y="-643.5" font-family="Helvetica,sans-Serif" font-size="10.00">DynExpInstr::TimeTaggerParams</text>
</a>
</g>
</g>
<!-- Node23&#45;&gt;Node41 -->
<g id="edge26_Node000023_Node000041" class="edge">
<title>Node23&#45;&gt;Node41</title>
<g id="a_edge26_Node000023_Node000041"><a xlink:title=" ">
<path fill="none" stroke="#63b8ff" d="M1153.59,-672C1182.13,-666.39 1212.85,-660.36 1237.5,-655.52"/>
<polygon fill="#63b8ff" stroke="#63b8ff" points="1152.73,-668.6 1143.6,-673.96 1154.08,-675.47 1152.73,-668.6"/>
</a>
</g>
</g>
<!-- Node45 -->
<g id="Node000045" class="node">
<title>Node45</title>
<g id="a_Node000045"><a xlink:href="classDynExpInstr_1_1NenionLeakvalveF3Params.html" target="_top" xlink:title=" ">
<polygon fill="white" stroke="#666666" points="1370.5,-618 1203.5,-618 1203.5,-588 1370.5,-588 1370.5,-618"/>
<text text-anchor="start" x="1211.5" y="-606" font-family="Helvetica,sans-Serif" font-size="10.00">DynExpInstr::NenionLeakvalve</text>
<text text-anchor="middle" x="1287" y="-595" font-family="Helvetica,sans-Serif" font-size="10.00">F3Params</text>
</a>
</g>
</g>
<!-- Node44&#45;&gt;Node45 -->
<g id="edge29_Node000044_Node000045" class="edge">
<title>Node44&#45;&gt;Node45</title>
<g id="a_edge29_Node000044_Node000045"><a xlink:title=" ">
<path fill="none" stroke="#63b8ff" d="M1155.45,-585.71C1171.3,-587.81 1187.77,-589.99 1203.45,-592.07"/>
<polygon fill="#63b8ff" stroke="#63b8ff" points="1155.51,-582.19 1145.14,-584.35 1154.59,-589.13 1155.51,-582.19"/>
</a>
</g>
</g>
<!-- Node46 -->
<g id="Node000046" class="node">
<title>Node46</title>
<g id="a_Node000046"><a xlink:href="classDynExpInstr_1_1PI__C__862__Params.html" target="_top" xlink:title=" ">
<polygon fill="white" stroke="#666666" points="1350,-570 1224,-570 1224,-540 1350,-540 1350,-570"/>
<text text-anchor="start" x="1232" y="-558" font-family="Helvetica,sans-Serif" font-size="10.00">DynExpInstr::PI_C_862</text>
<text text-anchor="middle" x="1287" y="-547" font-family="Helvetica,sans-Serif" font-size="10.00">_Params</text>
</a>
</g>
</g>
<!-- Node44&#45;&gt;Node46 -->
<g id="edge30_Node000044_Node000046" class="edge">
<title>Node44&#45;&gt;Node46</title>
<g id="a_edge30_Node000044_Node000046"><a xlink:title=" ">
<path fill="none" stroke="#63b8ff" d="M1155.23,-566.35C1178.17,-564.35 1202.42,-562.25 1223.71,-560.4"/>
<polygon fill="#63b8ff" stroke="#63b8ff" points="1154.8,-562.87 1145.14,-567.22 1155.4,-569.84 1154.8,-562.87"/>
</a>
</g>
</g>
<!-- Node47 -->
<g id="Node000047" class="node">
<title>Node47</title>
<g id="a_Node000047"><a xlink:href="classDynExpInstr_1_1SmarActParams.html" target="_top" xlink:title=" ">
<polygon fill="white" stroke="#666666" points="1366.5,-521.5 1207.5,-521.5 1207.5,-502.5 1366.5,-502.5 1366.5,-521.5"/>
<text text-anchor="middle" x="1287" y="-509.5" font-family="Helvetica,sans-Serif" font-size="10.00">DynExpInstr::SmarActParams</text>
</a>
</g>
</g>
<!-- Node44&#45;&gt;Node47 -->
<g id="edge31_Node000044_Node000047" class="edge">
<title>Node44&#45;&gt;Node47</title>
<g id="a_edge31_Node000044_Node000047"><a xlink:title=" ">
<path fill="none" stroke="#63b8ff" d="M1145.76,-555.96C1151.65,-554.11 1157.45,-552.12 1163,-550 1179.9,-543.54 1182.01,-537.21 1199,-531 1209.31,-527.23 1220.59,-524.09 1231.52,-521.52"/>
<polygon fill="#63b8ff" stroke="#63b8ff" points="1144.38,-552.72 1135.8,-558.94 1146.39,-559.43 1144.38,-552.72"/>
</a>
</g>
</g>
<!-- Node50 -->
<g id="Node000050" class="node">
<title>Node50</title>
<g id="a_Node000050"><a xlink:href="classDynExpModule_1_1gRPCModuleParams.html" target="_top" xlink:title=" ">
<polygon fill="white" stroke="#666666" points="1145,-420 987,-420 987,-390 1145,-390 1145,-420"/>
<text text-anchor="start" x="995" y="-408" font-family="Helvetica,sans-Serif" font-size="10.00">DynExpModule::gRPCModule</text>
<text text-anchor="middle" x="1066" y="-397" font-family="Helvetica,sans-Serif" font-size="10.00">Params&lt; gRPCServices... &gt;</text>
</a>
</g>
</g>
<!-- Node49&#45;&gt;Node50 -->
<g id="edge34_Node000049_Node000050" class="edge">
<title>Node49&#45;&gt;Node50</title>
<g id="a_edge34_Node000049_Node000050"><a xlink:title=" ">
<path fill="none" stroke="#63b8ff" d="M847.61,-226.13C892.63,-263.17 1002.87,-353.88 1046.64,-389.9"/>
<polygon fill="#63b8ff" stroke="#63b8ff" points="849.7,-223.32 839.75,-219.67 845.25,-228.73 849.7,-223.32"/>
</a>
</g>
</g>
<!-- Node58 -->
<g id="Node000058" class="node">
<title>Node58</title>
<g id="a_Node000058"><a xlink:href="classDynExp_1_1QModuleParamsBase.html" target="_top" xlink:title="Parameter class for QModuleBase.">
<polygon fill="#fff0f0" stroke="red" points="1148,-240.5 984,-240.5 984,-221.5 1148,-221.5 1148,-240.5"/>
<text text-anchor="middle" x="1066" y="-228.5" font-family="Helvetica,sans-Serif" font-size="10.00">DynExp::QModuleParamsBase</text>
</a>
</g>
</g>
<!-- Node49&#45;&gt;Node58 -->
<g id="edge37_Node000049_Node000058" class="edge">
<title>Node49&#45;&gt;Node58</title>
<g id="a_edge37_Node000049_Node000058"><a xlink:title=" ">
<path fill="none" stroke="#63b8ff" d="M915.42,-217.75C937.78,-219.73 961.72,-221.85 983.76,-223.8"/>
<polygon fill="#63b8ff" stroke="#63b8ff" points="915.54,-214.24 905.27,-216.85 914.93,-221.22 915.54,-214.24"/>
</a>
</g>
</g>
<!-- Node70 -->
<g id="Node000070" class="node">
<title>Node70</title>
<g id="a_Node000070"><a xlink:href="classDynExpModule_1_1ArbitraryFunctionFromCSVParams.html" target="_top" xlink:title=" ">
<polygon fill="white" stroke="#666666" points="1156,-203 976,-203 976,-173 1156,-173 1156,-203"/>
<text text-anchor="start" x="984" y="-191" font-family="Helvetica,sans-Serif" font-size="10.00">DynExpModule::ArbitraryFunction</text>
<text text-anchor="middle" x="1066" y="-180" font-family="Helvetica,sans-Serif" font-size="10.00">FromCSVParams</text>
</a>
</g>
</g>
<!-- Node49&#45;&gt;Node70 -->
<g id="edge46_Node000049_Node000070" class="edge">
<title>Node49&#45;&gt;Node70</title>
<g id="a_edge46_Node000049_Node000070"><a xlink:title=" ">
<path fill="none" stroke="#63b8ff" d="M915.46,-201.88C935.17,-200.05 956.12,-198.11 975.9,-196.27"/>
<polygon fill="#63b8ff" stroke="#63b8ff" points="914.91,-198.42 905.27,-202.83 915.56,-205.39 914.91,-198.42"/>
</a>
</g>
</g>
<!-- Node71 -->
<g id="Node000071" class="node">
<title>Node71</title>
<g id="a_Node000071"><a xlink:href="classDynExpModule_1_1StreamManipulatorParams.html" target="_top" xlink:title="Parameter class for StreamManipulator.">
<polygon fill="white" stroke="#666666" points="1161,-155 971,-155 971,-125 1161,-125 1161,-155"/>
<text text-anchor="start" x="979" y="-143" font-family="Helvetica,sans-Serif" font-size="10.00">DynExpModule::StreamManipulator</text>
<text text-anchor="middle" x="1066" y="-132" font-family="Helvetica,sans-Serif" font-size="10.00">Params</text>
</a>
</g>
</g>
<!-- Node49&#45;&gt;Node71 -->
<g id="edge47_Node000049_Node000071" class="edge">
<title>Node49&#45;&gt;Node71</title>
<g id="a_edge47_Node000049_Node000071"><a xlink:title=" ">
<path fill="none" stroke="#63b8ff" d="M864.88,-197.18C893.2,-187.53 933.36,-174.25 969,-164 979.65,-160.94 991.03,-157.89 1002.09,-155.05"/>
<polygon fill="#63b8ff" stroke="#63b8ff" points="863.71,-193.88 855.38,-200.43 865.98,-200.5 863.71,-193.88"/>
</a>
</g>
</g>
<!-- Node72 -->
<g id="Node000072" class="node">
<title>Node72</title>
<g id="a_Node000072"><a xlink:href="classDynExpModule_1_1gRPCModuleParams.html" target="_top" xlink:title="Parameter class for gRPCModule.">
<polygon fill="white" stroke="#666666" points="1145,-107 987,-107 987,-77 1145,-77 1145,-107"/>
<text text-anchor="start" x="995" y="-95" font-family="Helvetica,sans-Serif" font-size="10.00">DynExpModule::gRPCModule</text>
<text text-anchor="middle" x="1066" y="-84" font-family="Helvetica,sans-Serif" font-size="10.00">Params&lt; gRPCServices &gt;</text>
</a>
</g>
</g>
<!-- Node49&#45;&gt;Node72 -->
<g id="edge48_Node000049_Node000072" class="edge">
<title>Node49&#45;&gt;Node72</title>
<g id="a_edge48_Node000049_Node000072"><a xlink:title=" ">
<path fill="none" stroke="#63b8ff" d="M847.19,-194.05C873.21,-173.19 921.86,-136.85 969,-116 976.7,-112.59 984.97,-109.61 993.31,-107.02"/>
<polygon fill="#63b8ff" stroke="#63b8ff" points="844.82,-191.46 839.27,-200.49 849.23,-196.9 844.82,-191.46"/>
</a>
</g>
</g>
<!-- Node51 -->
<g id="Node000051" class="node">
<title>Node51</title>
<g id="a_Node000051"><a xlink:href="classDynExpModule_1_1NetworkDataStreamInstrumentParams.html" target="_top" xlink:title=" ">
<polygon fill="#fff0f0" stroke="red" points="1367.5,-484.5 1206.5,-484.5 1206.5,-443.5 1367.5,-443.5 1367.5,-484.5"/>
<text text-anchor="start" x="1214.5" y="-472.5" font-family="Helvetica,sans-Serif" font-size="10.00">DynExpModule::NetworkData</text>
<text text-anchor="start" x="1214.5" y="-461.5" font-family="Helvetica,sans-Serif" font-size="10.00">StreamInstrumentParams</text>
<text text-anchor="middle" x="1287" y="-450.5" font-family="Helvetica,sans-Serif" font-size="10.00">&lt; gRPCServices... &gt;</text>
</a>
</g>
</g>
<!-- Node50&#45;&gt;Node51 -->
<g id="edge35_Node000050_Node000051" class="edge">
<title>Node50&#45;&gt;Node51</title>
<g id="a_edge35_Node000050_Node000051"><a xlink:title=" ">
<path fill="none" stroke="#63b8ff" d="M1132.63,-422.68C1156.86,-429.21 1184.52,-436.66 1209.62,-443.42"/>
<polygon fill="#63b8ff" stroke="#63b8ff" points="1133.4,-419.26 1122.83,-420.04 1131.57,-426.02 1133.4,-419.26"/>
</a>
</g>
</g>
<!-- Node57 -->
<g id="Node000057" class="node">
<title>Node57</title>
<g id="a_Node000057"><a xlink:href="classDynExpModule_1_1NetworkDataStreamInstrumentParams.html" target="_top" xlink:title=" ">
<polygon fill="white" stroke="#666666" points="1367.5,-425.5 1206.5,-425.5 1206.5,-384.5 1367.5,-384.5 1367.5,-425.5"/>
<text text-anchor="start" x="1214.5" y="-413.5" font-family="Helvetica,sans-Serif" font-size="10.00">DynExpModule::NetworkData</text>
<text text-anchor="start" x="1214.5" y="-402.5" font-family="Helvetica,sans-Serif" font-size="10.00">StreamInstrumentParams</text>
<text text-anchor="middle" x="1287" y="-391.5" font-family="Helvetica,sans-Serif" font-size="10.00">&lt; gRPCServices &gt;</text>
</a>
</g>
</g>
<!-- Node50&#45;&gt;Node57 -->
<g id="edge36_Node000050_Node000057" class="edge">
<title>Node50&#45;&gt;Node57</title>
<g id="a_edge36_Node000050_Node000057"><a xlink:title=" ">
<path fill="none" stroke="#63b8ff" d="M1155.52,-405C1172.35,-405 1189.88,-405 1206.42,-405"/>
<polygon fill="#63b8ff" stroke="#63b8ff" points="1155.14,-401.5 1145.14,-405 1155.14,-408.5 1155.14,-401.5"/>
</a>
</g>
</g>
<!-- Node59 -->
<g id="Node000059" class="node">
<title>Node59</title>
<g id="a_Node000059"><a xlink:href="classDynExpModule_1_1ImageViewer_1_1ImageViewerParams.html" target="_top" xlink:title=" ">
<polygon fill="white" stroke="#666666" points="1367.5,-366 1206.5,-366 1206.5,-336 1367.5,-336 1367.5,-366"/>
<text text-anchor="start" x="1214.5" y="-354" font-family="Helvetica,sans-Serif" font-size="10.00">DynExpModule::ImageViewer</text>
<text text-anchor="middle" x="1287" y="-343" font-family="Helvetica,sans-Serif" font-size="10.00">::ImageViewerParams</text>
</a>
</g>
</g>
<!-- Node58&#45;&gt;Node59 -->
<g id="edge38_Node000058_Node000059" class="edge">
<title>Node58&#45;&gt;Node59</title>
<g id="a_edge38_Node000058_Node000059"><a xlink:title=" ">
<path fill="none" stroke="#63b8ff" d="M1085.1,-247.49C1109.34,-268.76 1154.47,-305.55 1199,-327 1206.06,-330.4 1213.68,-333.39 1221.37,-335.99"/>
<polygon fill="#63b8ff" stroke="#63b8ff" points="1087.23,-244.7 1077.43,-240.67 1082.58,-249.93 1087.23,-244.7"/>
</a>
</g>
</g>
<!-- Node60 -->
<g id="Node000060" class="node">
<title>Node60</title>
<g id="a_Node000060"><a xlink:href="classDynExpModule_1_1InputPortReaderParams.html" target="_top" xlink:title=" ">
<polygon fill="white" stroke="#666666" points="1374.5,-318 1199.5,-318 1199.5,-288 1374.5,-288 1374.5,-318"/>
<text text-anchor="start" x="1207.5" y="-306" font-family="Helvetica,sans-Serif" font-size="10.00">DynExpModule::InputPortReader</text>
<text text-anchor="middle" x="1287" y="-295" font-family="Helvetica,sans-Serif" font-size="10.00">Params</text>
</a>
</g>
</g>
<!-- Node58&#45;&gt;Node60 -->
<g id="edge39_Node000058_Node000060" class="edge">
<title>Node58&#45;&gt;Node60</title>
<g id="a_edge39_Node000058_Node000060"><a xlink:title=" ">
<path fill="none" stroke="#63b8ff" d="M1101.19,-244.28C1127.69,-254.37 1165.42,-268.28 1199,-279 1208.55,-282.05 1218.77,-285.07 1228.71,-287.9"/>
<polygon fill="#63b8ff" stroke="#63b8ff" points="1102.2,-240.92 1091.61,-240.62 1099.7,-247.46 1102.2,-240.92"/>
</a>
</g>
</g>
<!-- Node61 -->
<g id="Node000061" class="node">
<title>Node61</title>
<g id="a_Node000061"><a xlink:href="classDynExpModule_1_1LockinAmplifierControlParams.html" target="_top" xlink:title=" ">
<polygon fill="white" stroke="#666666" points="1373,-270 1201,-270 1201,-240 1373,-240 1373,-270"/>
<text text-anchor="start" x="1209" y="-258" font-family="Helvetica,sans-Serif" font-size="10.00">DynExpModule::LockinAmplifier</text>
<text text-anchor="middle" x="1287" y="-247" font-family="Helvetica,sans-Serif" font-size="10.00">ControlParams</text>
</a>
</g>
</g>
<!-- Node58&#45;&gt;Node61 -->
<g id="edge40_Node000058_Node000061" class="edge">
<title>Node58&#45;&gt;Node61</title>
<g id="a_edge40_Node000058_Node000061"><a xlink:title=" ">
<path fill="none" stroke="#63b8ff" d="M1158.39,-241.02C1172.46,-242.56 1186.94,-244.14 1200.86,-245.67"/>
<polygon fill="#63b8ff" stroke="#63b8ff" points="1158.56,-237.51 1148.24,-239.9 1157.8,-244.47 1158.56,-237.51"/>
</a>
</g>
</g>
<!-- Node62 -->
<g id="Node000062" class="node">
<title>Node62</title>
<g id="a_Node000062"><a xlink:href="classDynExpModule_1_1ODMR_1_1ODMRParams.html" target="_top" xlink:title=" ">
<polygon fill="white" stroke="#666666" points="1350.5,-222 1223.5,-222 1223.5,-192 1350.5,-192 1350.5,-222"/>
<text text-anchor="start" x="1231.5" y="-210" font-family="Helvetica,sans-Serif" font-size="10.00">DynExpModule::ODMR</text>
<text text-anchor="middle" x="1287" y="-199" font-family="Helvetica,sans-Serif" font-size="10.00">::ODMRParams</text>
</a>
</g>
</g>
<!-- Node58&#45;&gt;Node62 -->
<g id="edge41_Node000058_Node000062" class="edge">
<title>Node58&#45;&gt;Node62</title>
<g id="a_edge41_Node000058_Node000062"><a xlink:title=" ">
<path fill="none" stroke="#63b8ff" d="M1158.23,-221C1180.16,-218.6 1203.09,-216.09 1223.38,-213.86"/>
<polygon fill="#63b8ff" stroke="#63b8ff" points="1157.8,-217.53 1148.24,-222.1 1158.56,-224.49 1157.8,-217.53"/>
</a>
</g>
</g>
<!-- Node63 -->
<g id="Node000063" class="node">
<title>Node63</title>
<g id="a_Node000063"><a xlink:href="classDynExpModule_1_1OutputPortWriterParams.html" target="_top" xlink:title=" ">
<polygon fill="white" stroke="#666666" points="1361.5,-174 1212.5,-174 1212.5,-144 1361.5,-144 1361.5,-174"/>
<text text-anchor="start" x="1220.5" y="-162" font-family="Helvetica,sans-Serif" font-size="10.00">DynExpModule::OutputPort</text>
<text text-anchor="middle" x="1287" y="-151" font-family="Helvetica,sans-Serif" font-size="10.00">WriterParams</text>
</a>
</g>
</g>
<!-- Node58&#45;&gt;Node63 -->
<g id="edge42_Node000058_Node000063" class="edge">
<title>Node58&#45;&gt;Node63</title>
<g id="a_edge42_Node000058_Node000063"><a xlink:title=" ">
<path fill="none" stroke="#63b8ff" d="M1146.1,-218.58C1151.93,-216.69 1157.62,-214.51 1163,-212 1181.62,-203.31 1180.72,-192.37 1199,-183 1205.55,-179.64 1212.63,-176.71 1219.82,-174.15"/>
<polygon fill="#63b8ff" stroke="#63b8ff" points="1144.81,-215.31 1136.21,-221.5 1146.79,-222.03 1144.81,-215.31"/>
</a>
</g>
</g>
<!-- Node64 -->
<g id="Node000064" class="node">
<title>Node64</title>
<g id="a_Node000064"><a xlink:href="classDynExpModule_1_1SignalDesignerParams.html" target="_top" xlink:title=" ">
<polygon fill="white" stroke="#666666" points="1372,-126 1202,-126 1202,-96 1372,-96 1372,-126"/>
<text text-anchor="start" x="1210" y="-114" font-family="Helvetica,sans-Serif" font-size="10.00">DynExpModule::SignalDesigner</text>
<text text-anchor="middle" x="1287" y="-103" font-family="Helvetica,sans-Serif" font-size="10.00">Params</text>
</a>
</g>
</g>
<!-- Node58&#45;&gt;Node64 -->
<g id="edge43_Node000058_Node000064" class="edge">
<title>Node58&#45;&gt;Node64</title>
<g id="a_edge43_Node000058_Node000064"><a xlink:title=" ">
<path fill="none" stroke="#63b8ff" d="M1156.39,-216.57C1158.68,-215.17 1160.89,-213.65 1163,-212 1192.74,-188.71 1170.14,-159.38 1199,-135 1203.07,-131.56 1207.59,-128.62 1212.38,-126.09"/>
<polygon fill="#63b8ff" stroke="#63b8ff" points="1154.42,-213.65 1147.17,-221.38 1157.65,-219.85 1154.42,-213.65"/>
</a>
</g>
</g>
<!-- Node65 -->
<g id="Node000065" class="node">
<title>Node65</title>
<g id="a_Node000065"><a xlink:href="classDynExpModule_1_1SignalPlotterParams.html" target="_top" xlink:title=" ">
<polygon fill="white" stroke="#666666" points="1366,-78 1208,-78 1208,-48 1366,-48 1366,-78"/>
<text text-anchor="start" x="1216" y="-66" font-family="Helvetica,sans-Serif" font-size="10.00">DynExpModule::SignalPlotter</text>
<text text-anchor="middle" x="1287" y="-55" font-family="Helvetica,sans-Serif" font-size="10.00">Params</text>
</a>
</g>
</g>
<!-- Node58&#45;&gt;Node65 -->
<g id="edge44_Node000058_Node000065" class="edge">
<title>Node58&#45;&gt;Node65</title>
<g id="a_edge44_Node000058_Node000065"><a xlink:title=" ">
<path fill="none" stroke="#63b8ff" d="M1156.93,-216.86C1159.05,-215.38 1161.08,-213.76 1163,-212 1205.58,-172.89 1157.89,-127.65 1199,-87 1202.45,-83.58 1206.35,-80.64 1210.52,-78.11"/>
<polygon fill="#63b8ff" stroke="#63b8ff" points="1155.14,-213.86 1148.32,-221.96 1158.7,-219.88 1155.14,-213.86"/>
</a>
</g>
</g>
<!-- Node66 -->
<g id="Node000066" class="node">
<title>Node66</title>
<g id="a_Node000066"><a xlink:href="classDynExpModule_1_1SpectrumViewer_1_1SpectrumViewerParams.html" target="_top" xlink:title=" ">
<polygon fill="white" stroke="#666666" points="1375,-30 1199,-30 1199,0 1375,0 1375,-30"/>
<text text-anchor="start" x="1207" y="-18" font-family="Helvetica,sans-Serif" font-size="10.00">DynExpModule::SpectrumViewer</text>
<text text-anchor="middle" x="1287" y="-7" font-family="Helvetica,sans-Serif" font-size="10.00">::SpectrumViewerParams</text>
</a>
</g>
</g>
<!-- Node58&#45;&gt;Node66 -->
<g id="edge45_Node000058_Node000066" class="edge">
<title>Node58&#45;&gt;Node66</title>
<g id="a_edge45_Node000058_Node000066"><a xlink:title=" ">
<path fill="none" stroke="#63b8ff" d="M1156.93,-217.18C1159.07,-215.61 1161.1,-213.88 1163,-212 1218.8,-156.74 1145.27,-96.28 1199,-39 1202.22,-35.57 1205.87,-32.62 1209.82,-30.07"/>
<polygon fill="#63b8ff" stroke="#63b8ff" points="1154.89,-214.33 1148.21,-222.56 1158.56,-220.29 1154.89,-214.33"/>
</a>
</g>
</g>
</g>
</svg>
