<?xml version="1.0" encoding="UTF-8" standalone="no"?>
<!DOCTYPE svg PUBLIC "-//W3C//DTD SVG 1.1//EN"
 "http://www.w3.org/Graphics/SVG/1.1/DTD/svg11.dtd">
<!-- Generated by graphviz version 2.43.0 (0)
 -->
<!-- Title: DynExp::ConfiguratorBase Pages: 1 -->
<svg width="1131pt" height="1144pt"
 viewBox="0.00 0.00 1131.00 1143.50" xmlns="http://www.w3.org/2000/svg" xmlns:xlink="http://www.w3.org/1999/xlink">
<g id="graph0" class="graph" transform="scale(1 1) rotate(0) translate(4 1139.5)">
<title>DynExp::ConfiguratorBase</title>
<!-- Node1 -->
<g id="Node000001" class="node">
<title>Node1</title>
<g id="a_Node000001"><a xlink:title="The configurator classes have the task to generate parameter objects (refer to DynExp::ParamsBase) of...">
<polygon fill="#999999" stroke="#666666" points="144,-832.5 0,-832.5 0,-813.5 144,-813.5 144,-832.5"/>
<text text-anchor="middle" x="72" y="-820.5" font-family="Helvetica,sans-Serif" font-size="10.00">DynExp::ConfiguratorBase</text>
</a>
</g>
</g>
<!-- Node2 -->
<g id="Node000002" class="node">
<title>Node2</title>
<g id="a_Node000002"><a xlink:href="classDynExp_1_1HardwareAdapterConfiguratorBase.html" target="_top" xlink:title="Configurator class for HardwareAdapterBase.">
<polygon fill="white" stroke="#666666" points="410,-926.5 180,-926.5 180,-907.5 410,-907.5 410,-926.5"/>
<text text-anchor="middle" x="295" y="-914.5" font-family="Helvetica,sans-Serif" font-size="10.00">DynExp::HardwareAdapterConfiguratorBase</text>
</a>
</g>
</g>
<!-- Node1&#45;&gt;Node2 -->
<g id="edge1_Node000001_Node000002" class="edge">
<title>Node1&#45;&gt;Node2</title>
<g id="a_edge1_Node000001_Node000002"><a xlink:title=" ">
<path fill="none" stroke="#63b8ff" d="M104.75,-836.5C150.03,-855.76 232.03,-890.64 271.53,-907.44"/>
<polygon fill="#63b8ff" stroke="#63b8ff" points="105.98,-833.22 95.41,-832.53 103.24,-839.67 105.98,-833.22"/>
</a>
</g>
</g>
<!-- Node15 -->
<g id="Node000015" class="node">
<title>Node15</title>
<g id="a_Node000015"><a xlink:href="classDynExp_1_1RunnableObjectConfigurator.html" target="_top" xlink:title="Configurator class for RunnableObject.">
<polygon fill="white" stroke="#666666" points="393.5,-739.5 196.5,-739.5 196.5,-720.5 393.5,-720.5 393.5,-739.5"/>
<text text-anchor="middle" x="295" y="-727.5" font-family="Helvetica,sans-Serif" font-size="10.00">DynExp::RunnableObjectConfigurator</text>
</a>
</g>
</g>
<!-- Node1&#45;&gt;Node15 -->
<g id="edge14_Node000001_Node000015" class="edge">
<title>Node1&#45;&gt;Node15</title>
<g id="a_edge14_Node000001_Node000015"><a xlink:title=" ">
<path fill="none" stroke="#63b8ff" d="M105.17,-809.46C150.45,-790.41 231.84,-756.16 271.31,-739.55"/>
<polygon fill="#63b8ff" stroke="#63b8ff" points="103.68,-806.29 95.82,-813.4 106.39,-812.74 103.68,-806.29"/>
</a>
</g>
</g>
<!-- Node3 -->
<g id="Node000003" class="node">
<title>Node3</title>
<g id="a_Node000003"><a xlink:href="classDynExpHardware_1_1gRPCHardwareAdapterConfigurator.html" target="_top" xlink:title=" ">
<polygon fill="white" stroke="#666666" points="642,-1135.5 462,-1135.5 462,-1094.5 642,-1094.5 642,-1135.5"/>
<text text-anchor="start" x="470" y="-1123.5" font-family="Helvetica,sans-Serif" font-size="10.00">DynExpHardware::gRPCHardware</text>
<text text-anchor="start" x="470" y="-1112.5" font-family="Helvetica,sans-Serif" font-size="10.00">AdapterConfigurator&lt; pulse</text>
<text text-anchor="middle" x="552" y="-1101.5" font-family="Helvetica,sans-Serif" font-size="10.00">_streamer::PulseStreamer &gt;</text>
</a>
</g>
</g>
<!-- Node2&#45;&gt;Node3 -->
<g id="edge2_Node000002_Node000003" class="edge">
<title>Node2&#45;&gt;Node3</title>
<g id="a_edge2_Node000002_Node000003"><a xlink:title=" ">
<path fill="none" stroke="#63b8ff" d="M307.21,-935.3C329.35,-969.88 382.11,-1044.93 446,-1085 451.62,-1088.53 457.67,-1091.65 463.92,-1094.41"/>
<polygon fill="#63b8ff" stroke="#63b8ff" points="310.08,-933.29 301.8,-926.68 304.15,-937.01 310.08,-933.29"/>
</a>
</g>
</g>
<!-- Node5 -->
<g id="Node000005" class="node">
<title>Node5</title>
<g id="a_Node000005"><a xlink:href="classDynExp_1_1SerialCommunicationHardwareAdapterConfigurator.html" target="_top" xlink:title="Configurator class for SerialCommunicationHardwareAdapter.">
<polygon fill="white" stroke="#666666" points="634.5,-1076 469.5,-1076 469.5,-1046 634.5,-1046 634.5,-1076"/>
<text text-anchor="start" x="477.5" y="-1064" font-family="Helvetica,sans-Serif" font-size="10.00">DynExp::SerialCommunication</text>
<text text-anchor="middle" x="552" y="-1053" font-family="Helvetica,sans-Serif" font-size="10.00">HardwareAdapterConfigurator</text>
</a>
</g>
</g>
<!-- Node2&#45;&gt;Node5 -->
<g id="edge4_Node000002_Node000005" class="edge">
<title>Node2&#45;&gt;Node5</title>
<g id="a_edge4_Node000002_Node000005"><a xlink:title=" ">
<path fill="none" stroke="#63b8ff" d="M311.82,-933.82C337.44,-960.02 390.75,-1010.33 446,-1037 453.41,-1040.58 461.37,-1043.63 469.48,-1046.24"/>
<polygon fill="#63b8ff" stroke="#63b8ff" points="314.24,-931.29 304.79,-926.52 309.2,-936.15 314.24,-931.29"/>
</a>
</g>
</g>
<!-- Node9 -->
<g id="Node000009" class="node">
<title>Node9</title>
<g id="a_Node000009"><a xlink:href="classDynExpHardware_1_1NIDAQHardwareAdapterConfigurator.html" target="_top" xlink:title=" ">
<polygon fill="white" stroke="#666666" points="645.5,-1028 458.5,-1028 458.5,-998 645.5,-998 645.5,-1028"/>
<text text-anchor="start" x="466.5" y="-1016" font-family="Helvetica,sans-Serif" font-size="10.00">DynExpHardware::NIDAQHardware</text>
<text text-anchor="middle" x="552" y="-1005" font-family="Helvetica,sans-Serif" font-size="10.00">AdapterConfigurator</text>
</a>
</g>
</g>
<!-- Node2&#45;&gt;Node9 -->
<g id="edge8_Node000002_Node000009" class="edge">
<title>Node2&#45;&gt;Node9</title>
<g id="a_edge8_Node000002_Node000009"><a xlink:title=" ">
<path fill="none" stroke="#63b8ff" d="M321.78,-931.57C351.08,-947.6 400.72,-973.18 446,-989 455.53,-992.33 465.72,-995.32 475.85,-997.97"/>
<polygon fill="#63b8ff" stroke="#63b8ff" points="323.46,-928.5 313.01,-926.72 320.07,-934.62 323.46,-928.5"/>
</a>
</g>
</g>
<!-- Node10 -->
<g id="Node000010" class="node">
<title>Node10</title>
<g id="a_Node000010"><a xlink:href="classDynExpHardware_1_1PVCamHardwareAdapterConfigurator.html" target="_top" xlink:title=" ">
<polygon fill="white" stroke="#666666" points="647,-980 457,-980 457,-950 647,-950 647,-980"/>
<text text-anchor="start" x="465" y="-968" font-family="Helvetica,sans-Serif" font-size="10.00">DynExpHardware::PVCamHardware</text>
<text text-anchor="middle" x="552" y="-957" font-family="Helvetica,sans-Serif" font-size="10.00">AdapterConfigurator</text>
</a>
</g>
</g>
<!-- Node2&#45;&gt;Node10 -->
<g id="edge9_Node000002_Node000010" class="edge">
<title>Node2&#45;&gt;Node10</title>
<g id="a_edge9_Node000002_Node000010"><a xlink:title=" ">
<path fill="none" stroke="#63b8ff" d="M356.57,-928.4C390.89,-934.86 434.24,-943.02 471.29,-950"/>
<polygon fill="#63b8ff" stroke="#63b8ff" points="357.16,-924.95 346.68,-926.54 355.86,-931.83 357.16,-924.95"/>
</a>
</g>
</g>
<!-- Node11 -->
<g id="Node000011" class="node">
<title>Node11</title>
<g id="a_Node000011"><a xlink:href="classDynExpHardware_1_1QutoolsTDCHardwareAdapterConfigurator.html" target="_top" xlink:title=" ">
<polygon fill="white" stroke="#666666" points="658,-932 446,-932 446,-902 658,-902 658,-932"/>
<text text-anchor="start" x="454" y="-920" font-family="Helvetica,sans-Serif" font-size="10.00">DynExpHardware::QutoolsTDCHardware</text>
<text text-anchor="middle" x="552" y="-909" font-family="Helvetica,sans-Serif" font-size="10.00">AdapterConfigurator</text>
</a>
</g>
</g>
<!-- Node2&#45;&gt;Node11 -->
<g id="edge10_Node000002_Node000011" class="edge">
<title>Node2&#45;&gt;Node11</title>
<g id="a_edge10_Node000002_Node000011"><a xlink:title=" ">
<path fill="none" stroke="#63b8ff" d="M420.17,-917C428.79,-917 437.43,-917 445.93,-917"/>
<polygon fill="#63b8ff" stroke="#63b8ff" points="420.07,-913.5 410.07,-917 420.07,-920.5 420.07,-913.5"/>
</a>
</g>
</g>
<!-- Node12 -->
<g id="Node000012" class="node">
<title>Node12</title>
<g id="a_Node000012"><a xlink:href="classDynExpHardware_1_1SmarActHardwareAdapterConfigurator.html" target="_top" xlink:title=" ">
<polygon fill="white" stroke="#666666" points="650,-884 454,-884 454,-854 650,-854 650,-884"/>
<text text-anchor="start" x="462" y="-872" font-family="Helvetica,sans-Serif" font-size="10.00">DynExpHardware::SmarActHardware</text>
<text text-anchor="middle" x="552" y="-861" font-family="Helvetica,sans-Serif" font-size="10.00">AdapterConfigurator</text>
</a>
</g>
</g>
<!-- Node2&#45;&gt;Node12 -->
<g id="edge11_Node000002_Node000012" class="edge">
<title>Node2&#45;&gt;Node12</title>
<g id="a_edge11_Node000002_Node000012"><a xlink:title=" ">
<path fill="none" stroke="#63b8ff" d="M356.57,-905.6C390.89,-899.14 434.24,-890.98 471.29,-884"/>
<polygon fill="#63b8ff" stroke="#63b8ff" points="355.86,-902.17 346.68,-907.46 357.16,-909.05 355.86,-902.17"/>
</a>
</g>
</g>
<!-- Node13 -->
<g id="Node000013" class="node">
<title>Node13</title>
<g id="a_Node000013"><a xlink:href="classDynExpHardware_1_1ZILabOneHardwareAdapterConfigurator.html" target="_top" xlink:title=" ">
<polygon fill="white" stroke="#666666" points="633,-836 471,-836 471,-806 633,-806 633,-836"/>
<text text-anchor="start" x="479" y="-824" font-family="Helvetica,sans-Serif" font-size="10.00">DynExpHardware::ZILabOne</text>
<text text-anchor="middle" x="552" y="-813" font-family="Helvetica,sans-Serif" font-size="10.00">HardwareAdapterConfigurator</text>
</a>
</g>
</g>
<!-- Node2&#45;&gt;Node13 -->
<g id="edge12_Node000002_Node000013" class="edge">
<title>Node2&#45;&gt;Node13</title>
<g id="a_edge12_Node000002_Node000013"><a xlink:title=" ">
<path fill="none" stroke="#63b8ff" d="M321.78,-902.43C351.08,-886.4 400.72,-860.82 446,-845 455.53,-841.67 465.72,-838.68 475.85,-836.03"/>
<polygon fill="#63b8ff" stroke="#63b8ff" points="320.07,-899.38 313.01,-907.28 323.46,-905.5 320.07,-899.38"/>
</a>
</g>
</g>
<!-- Node14 -->
<g id="Node000014" class="node">
<title>Node14</title>
<g id="a_Node000014"><a xlink:href="classDynExpHardware_1_1gRPCHardwareAdapterConfigurator.html" target="_top" xlink:title="Configurator class for gRPCHardwareAdapter.">
<polygon fill="white" stroke="#666666" points="644.5,-788 459.5,-788 459.5,-758 644.5,-758 644.5,-788"/>
<text text-anchor="start" x="467.5" y="-776" font-family="Helvetica,sans-Serif" font-size="10.00">DynExpHardware::gRPCHardware</text>
<text text-anchor="middle" x="552" y="-765" font-family="Helvetica,sans-Serif" font-size="10.00">AdapterConfigurator&lt; gRPCStub &gt;</text>
</a>
</g>
</g>
<!-- Node2&#45;&gt;Node14 -->
<g id="edge13_Node000002_Node000014" class="edge">
<title>Node2&#45;&gt;Node14</title>
<g id="a_edge13_Node000002_Node000014"><a xlink:title=" ">
<path fill="none" stroke="#63b8ff" d="M311.82,-900.18C337.44,-873.98 390.75,-823.67 446,-797 453.16,-793.55 460.83,-790.58 468.65,-788.03"/>
<polygon fill="#63b8ff" stroke="#63b8ff" points="309.2,-897.85 304.79,-907.48 314.24,-902.71 309.2,-897.85"/>
</a>
</g>
</g>
<!-- Node4 -->
<g id="Node000004" class="node">
<title>Node4</title>
<g id="a_Node000004"><a xlink:href="classDynExpHardware_1_1SIPulseStreamerHardwareAdapterConfigurator.html" target="_top" xlink:title=" ">
<polygon fill="white" stroke="#666666" points="885,-1130 697,-1130 697,-1100 885,-1100 885,-1130"/>
<text text-anchor="start" x="705" y="-1118" font-family="Helvetica,sans-Serif" font-size="10.00">DynExpHardware::SIPulseStreamer</text>
<text text-anchor="middle" x="791" y="-1107" font-family="Helvetica,sans-Serif" font-size="10.00">HardwareAdapterConfigurator</text>
</a>
</g>
</g>
<!-- Node3&#45;&gt;Node4 -->
<g id="edge3_Node000003_Node000004" class="edge">
<title>Node3&#45;&gt;Node4</title>
<g id="a_edge3_Node000003_Node000004"><a xlink:title=" ">
<path fill="none" stroke="#63b8ff" d="M652.39,-1115C667.12,-1115 682.27,-1115 696.87,-1115"/>
<polygon fill="#63b8ff" stroke="#63b8ff" points="652.26,-1111.5 642.26,-1115 652.26,-1118.5 652.26,-1111.5"/>
</a>
</g>
</g>
<!-- Node6 -->
<g id="Node000006" class="node">
<title>Node6</title>
<g id="a_Node000006"><a xlink:href="classDynExp_1_1QSerialCommunicationHardwareAdapterConfigurator.html" target="_top" xlink:title="Configurator class for QSerialCommunicationHardwareAdapter.">
<polygon fill="white" stroke="#666666" points="877.5,-1076 704.5,-1076 704.5,-1046 877.5,-1046 877.5,-1076"/>
<text text-anchor="start" x="712.5" y="-1064" font-family="Helvetica,sans-Serif" font-size="10.00">DynExp::QSerialCommunication</text>
<text text-anchor="middle" x="791" y="-1053" font-family="Helvetica,sans-Serif" font-size="10.00">HardwareAdapterConfigurator</text>
</a>
</g>
</g>
<!-- Node5&#45;&gt;Node6 -->
<g id="edge5_Node000005_Node000006" class="edge">
<title>Node5&#45;&gt;Node6</title>
<g id="a_edge5_Node000005_Node000006"><a xlink:title=" ">
<path fill="none" stroke="#63b8ff" d="M644.7,-1061C664.28,-1061 684.9,-1061 704.25,-1061"/>
<polygon fill="#63b8ff" stroke="#63b8ff" points="644.56,-1057.5 634.56,-1061 644.56,-1064.5 644.56,-1057.5"/>
</a>
</g>
</g>
<!-- Node7 -->
<g id="Node000007" class="node">
<title>Node7</title>
<g id="a_Node000007"><a xlink:href="classDynExp_1_1HardwareAdapterSerialPortConfigurator.html" target="_top" xlink:title="Configurator class for HardwareAdapterSerialPort.">
<polygon fill="white" stroke="#666666" points="1110,-1118 937,-1118 937,-1088 1110,-1088 1110,-1118"/>
<text text-anchor="start" x="945" y="-1106" font-family="Helvetica,sans-Serif" font-size="10.00">DynExp::HardwareAdapterSerial</text>
<text text-anchor="middle" x="1023.5" y="-1095" font-family="Helvetica,sans-Serif" font-size="10.00">PortConfigurator</text>
</a>
</g>
</g>
<!-- Node6&#45;&gt;Node7 -->
<g id="edge6_Node000006_Node000007" class="edge">
<title>Node6&#45;&gt;Node7</title>
<g id="a_edge6_Node000006_Node000007"><a xlink:title=" ">
<path fill="none" stroke="#63b8ff" d="M884.41,-1077.84C902.83,-1081.19 922.07,-1084.7 940.12,-1087.99"/>
<polygon fill="#63b8ff" stroke="#63b8ff" points="885.03,-1074.39 874.56,-1076.04 883.78,-1081.28 885.03,-1074.39"/>
</a>
</g>
</g>
<!-- Node8 -->
<g id="Node000008" class="node">
<title>Node8</title>
<g id="a_Node000008"><a xlink:href="classDynExp_1_1HardwareAdapterTcpSocketConfigurator.html" target="_top" xlink:title="Configurator class for HardwareAdapterTcpSocket.">
<polygon fill="white" stroke="#666666" points="1104,-1070 943,-1070 943,-1040 1104,-1040 1104,-1070"/>
<text text-anchor="start" x="951" y="-1058" font-family="Helvetica,sans-Serif" font-size="10.00">DynExp::HardwareAdapterTcp</text>
<text text-anchor="middle" x="1023.5" y="-1047" font-family="Helvetica,sans-Serif" font-size="10.00">SocketConfigurator</text>
</a>
</g>
</g>
<!-- Node6&#45;&gt;Node8 -->
<g id="edge7_Node000006_Node000008" class="edge">
<title>Node6&#45;&gt;Node8</title>
<g id="a_edge7_Node000006_Node000008"><a xlink:title=" ">
<path fill="none" stroke="#63b8ff" d="M887.63,-1058.51C906,-1058.03 925.06,-1057.54 942.86,-1057.07"/>
<polygon fill="#63b8ff" stroke="#63b8ff" points="887.41,-1055.02 877.5,-1058.77 887.59,-1062.01 887.41,-1055.02"/>
</a>
</g>
</g>
<!-- Node16 -->
<g id="Node000016" class="node">
<title>Node16</title>
<g id="a_Node000016"><a xlink:href="classDynExp_1_1InstrumentConfiguratorBase.html" target="_top" xlink:title="Configurator class for InstrumentBase.">
<polygon fill="white" stroke="#666666" points="650.5,-739.5 453.5,-739.5 453.5,-720.5 650.5,-720.5 650.5,-739.5"/>
<text text-anchor="middle" x="552" y="-727.5" font-family="Helvetica,sans-Serif" font-size="10.00">DynExp::InstrumentConfiguratorBase</text>
</a>
</g>
</g>
<!-- Node15&#45;&gt;Node16 -->
<g id="edge15_Node000015_Node000016" class="edge">
<title>Node15&#45;&gt;Node16</title>
<g id="a_edge15_Node000015_Node000016"><a xlink:title=" ">
<path fill="none" stroke="#63b8ff" d="M404,-730C420.4,-730 437.24,-730 453.4,-730"/>
<polygon fill="#63b8ff" stroke="#63b8ff" points="403.86,-726.5 393.86,-730 403.86,-733.5 403.86,-726.5"/>
</a>
</g>
</g>
<!-- Node46 -->
<g id="Node000046" class="node">
<title>Node46</title>
<g id="a_Node000046"><a xlink:href="classDynExp_1_1ModuleConfiguratorBase.html" target="_top" xlink:title="Configurator class for ModuleBase.">
<polygon fill="white" stroke="#666666" points="642,-281.5 462,-281.5 462,-262.5 642,-262.5 642,-281.5"/>
<text text-anchor="middle" x="552" y="-269.5" font-family="Helvetica,sans-Serif" font-size="10.00">DynExp::ModuleConfiguratorBase</text>
</a>
</g>
</g>
<!-- Node15&#45;&gt;Node46 -->
<g id="edge30_Node000015_Node000046" class="edge">
<title>Node15&#45;&gt;Node46</title>
<g id="a_edge30_Node000015_Node000046"><a xlink:title=" ">
<path fill="none" stroke="#63b8ff" d="M306.38,-711.35C349.55,-633.82 514.03,-338.41 545.7,-281.51"/>
<polygon fill="#63b8ff" stroke="#63b8ff" points="303.13,-709.99 301.33,-720.43 309.25,-713.4 303.13,-709.99"/>
</a>
</g>
</g>
<!-- Node17 -->
<g id="Node000017" class="node">
<title>Node17</title>
<g id="a_Node000017"><a xlink:href="classDynExpInstr_1_1CameraConfigurator.html" target="_top" xlink:title="Configurator class for Camera.">
<polygon fill="white" stroke="#666666" points="881,-961.5 701,-961.5 701,-942.5 881,-942.5 881,-961.5"/>
<text text-anchor="middle" x="791" y="-949.5" font-family="Helvetica,sans-Serif" font-size="10.00">DynExpInstr::CameraConfigurator</text>
</a>
</g>
</g>
<!-- Node16&#45;&gt;Node17 -->
<g id="edge16_Node000016_Node000017" class="edge">
<title>Node16&#45;&gt;Node17</title>
<g id="a_edge16_Node000016_Node000017"><a xlink:title=" ">
<path fill="none" stroke="#63b8ff" d="M652.42,-744.8C654.35,-746.1 656.21,-747.5 658,-749 693.52,-778.85 669.89,-807.35 694,-847 718.25,-886.89 759.02,-925.11 778.7,-942.38"/>
<polygon fill="#63b8ff" stroke="#63b8ff" points="653.97,-741.65 643.57,-739.67 650.47,-747.71 653.97,-741.65"/>
</a>
</g>
</g>
<!-- Node20 -->
<g id="Node000020" class="node">
<title>Node20</title>
<g id="a_Node000020"><a xlink:href="classDynExpInstr_1_1DataStreamInstrumentConfigurator.html" target="_top" xlink:title="Configurator class for DataStreamInstrument.">
<polygon fill="white" stroke="#666666" points="888,-838 694,-838 694,-808 888,-808 888,-838"/>
<text text-anchor="start" x="702" y="-826" font-family="Helvetica,sans-Serif" font-size="10.00">DynExpInstr::DataStreamInstrument</text>
<text text-anchor="middle" x="791" y="-815" font-family="Helvetica,sans-Serif" font-size="10.00">Configurator</text>
</a>
</g>
</g>
<!-- Node16&#45;&gt;Node20 -->
<g id="edge19_Node000016_Node000020" class="edge">
<title>Node16&#45;&gt;Node20</title>
<g id="a_edge19_Node000016_Node000020"><a xlink:title=" ">
<path fill="none" stroke="#63b8ff" d="M641.53,-742.43C647.21,-744.32 652.75,-746.5 658,-749 677.06,-758.09 676.18,-768.68 694,-780 711.26,-790.97 731.8,-800.57 749.43,-807.9"/>
<polygon fill="#63b8ff" stroke="#63b8ff" points="642.45,-739.05 631.86,-739.51 640.42,-745.75 642.45,-739.05"/>
</a>
</g>
</g>
<!-- Node40 -->
<g id="Node000040" class="node">
<title>Node40</title>
<g id="a_Node000040"><a xlink:href="classDynExpInstr_1_1InterModuleCommunicatorConfigurator.html" target="_top" xlink:title="Configurator class for InterModuleCommunicator.">
<polygon fill="white" stroke="#666666" points="865.5,-771 716.5,-771 716.5,-741 865.5,-741 865.5,-771"/>
<text text-anchor="start" x="724.5" y="-759" font-family="Helvetica,sans-Serif" font-size="10.00">DynExpInstr::InterModule</text>
<text text-anchor="middle" x="791" y="-748" font-family="Helvetica,sans-Serif" font-size="10.00">CommunicatorConfigurator</text>
</a>
</g>
</g>
<!-- Node16&#45;&gt;Node40 -->
<g id="edge24_Node000016_Node000040" class="edge">
<title>Node16&#45;&gt;Node40</title>
<g id="a_edge24_Node000016_Node000040"><a xlink:title=" ">
<path fill="none" stroke="#63b8ff" d="M650,-740.64C672.16,-743.07 695.36,-745.62 716.36,-747.92"/>
<polygon fill="#63b8ff" stroke="#63b8ff" points="650.23,-737.15 639.9,-739.53 649.46,-744.1 650.23,-737.15"/>
</a>
</g>
</g>
<!-- Node41 -->
<g id="Node000041" class="node">
<title>Node41</title>
<g id="a_Node000041"><a xlink:href="classDynExpInstr_1_1PositionerStageConfigurator.html" target="_top" xlink:title="Configurator class for PositionerStage.">
<polygon fill="white" stroke="#666666" points="870,-723 712,-723 712,-693 870,-693 870,-723"/>
<text text-anchor="start" x="720" y="-711" font-family="Helvetica,sans-Serif" font-size="10.00">DynExpInstr::PositionerStage</text>
<text text-anchor="middle" x="791" y="-700" font-family="Helvetica,sans-Serif" font-size="10.00">Configurator</text>
</a>
</g>
</g>
<!-- Node16&#45;&gt;Node41 -->
<g id="edge25_Node000016_Node000041" class="edge">
<title>Node16&#45;&gt;Node41</title>
<g id="a_edge25_Node000016_Node000041"><a xlink:title=" ">
<path fill="none" stroke="#63b8ff" d="M660.86,-719.99C678.09,-718.39 695.63,-716.76 711.99,-715.24"/>
<polygon fill="#63b8ff" stroke="#63b8ff" points="660.4,-716.52 650.77,-720.92 661.05,-723.49 660.4,-716.52"/>
</a>
</g>
</g>
<!-- Node45 -->
<g id="Node000045" class="node">
<title>Node45</title>
<g id="a_Node000045"><a xlink:href="classDynExpInstr_1_1SpectrometerConfigurator.html" target="_top" xlink:title="Configurator class for Spectrometer.">
<polygon fill="white" stroke="#666666" points="865,-675 717,-675 717,-645 865,-645 865,-675"/>
<text text-anchor="start" x="725" y="-663" font-family="Helvetica,sans-Serif" font-size="10.00">DynExpInstr::Spectrometer</text>
<text text-anchor="middle" x="791" y="-652" font-family="Helvetica,sans-Serif" font-size="10.00">Configurator</text>
</a>
</g>
</g>
<!-- Node16&#45;&gt;Node45 -->
<g id="edge29_Node000016_Node000045" class="edge">
<title>Node16&#45;&gt;Node45</title>
<g id="a_edge29_Node000016_Node000045"><a xlink:title=" ">
<path fill="none" stroke="#63b8ff" d="M589.88,-717.18C618.2,-707.53 658.36,-694.25 694,-684 704.65,-680.94 716.03,-677.89 727.09,-675.05"/>
<polygon fill="#63b8ff" stroke="#63b8ff" points="588.71,-713.88 580.38,-720.43 590.98,-720.5 588.71,-713.88"/>
</a>
</g>
</g>
<!-- Node18 -->
<g id="Node000018" class="node">
<title>Node18</title>
<g id="a_Node000018"><a xlink:href="classDynExpInstr_1_1DummyCameraConfigurator.html" target="_top" xlink:title=" ">
<polygon fill="white" stroke="#666666" points="1103,-1010 944,-1010 944,-980 1103,-980 1103,-1010"/>
<text text-anchor="start" x="952" y="-998" font-family="Helvetica,sans-Serif" font-size="10.00">DynExpInstr::DummyCamera</text>
<text text-anchor="middle" x="1023.5" y="-987" font-family="Helvetica,sans-Serif" font-size="10.00">Configurator</text>
</a>
</g>
</g>
<!-- Node17&#45;&gt;Node18 -->
<g id="edge17_Node000017_Node000018" class="edge">
<title>Node17&#45;&gt;Node18</title>
<g id="a_edge17_Node000017_Node000018"><a xlink:title=" ">
<path fill="none" stroke="#63b8ff" d="M853.14,-963.41C880.95,-968.59 914.21,-974.8 943.85,-980.33"/>
<polygon fill="#63b8ff" stroke="#63b8ff" points="853.63,-959.94 843.16,-961.54 852.34,-966.82 853.63,-959.94"/>
</a>
</g>
</g>
<!-- Node19 -->
<g id="Node000019" class="node">
<title>Node19</title>
<g id="a_Node000019"><a xlink:href="classDynExpInstr_1_1PVCamConfigurator.html" target="_top" xlink:title=" ">
<polygon fill="white" stroke="#666666" points="1112,-961.5 935,-961.5 935,-942.5 1112,-942.5 1112,-961.5"/>
<text text-anchor="middle" x="1023.5" y="-949.5" font-family="Helvetica,sans-Serif" font-size="10.00">DynExpInstr::PVCamConfigurator</text>
</a>
</g>
</g>
<!-- Node17&#45;&gt;Node19 -->
<g id="edge18_Node000017_Node000019" class="edge">
<title>Node17&#45;&gt;Node19</title>
<g id="a_edge18_Node000017_Node000019"><a xlink:title=" ">
<path fill="none" stroke="#63b8ff" d="M891.52,-952C905.91,-952 920.63,-952 934.76,-952"/>
<polygon fill="#63b8ff" stroke="#63b8ff" points="891.12,-948.5 881.12,-952 891.12,-955.5 891.12,-948.5"/>
</a>
</g>
</g>
<!-- Node21 -->
<g id="Node000021" class="node">
<title>Node21</title>
<g id="a_Node000021"><a xlink:href="classDynExpInstr_1_1FunctionGeneratorConfigurator.html" target="_top" xlink:title="Configurator class for FunctionGenerator.">
<polygon fill="#fff0f0" stroke="red" points="1109.5,-924 937.5,-924 937.5,-894 1109.5,-894 1109.5,-924"/>
<text text-anchor="start" x="945.5" y="-912" font-family="Helvetica,sans-Serif" font-size="10.00">DynExpInstr::FunctionGenerator</text>
<text text-anchor="middle" x="1023.5" y="-901" font-family="Helvetica,sans-Serif" font-size="10.00">Configurator</text>
</a>
</g>
</g>
<!-- Node20&#45;&gt;Node21 -->
<g id="edge20_Node000020_Node000021" class="edge">
<title>Node20&#45;&gt;Node21</title>
<g id="a_edge20_Node000020_Node000021"><a xlink:title=" ">
<path fill="none" stroke="#63b8ff" d="M829,-842.83C855.01,-856.15 890.93,-873.34 924,-885 933.3,-888.28 943.24,-891.27 953.1,-893.95"/>
<polygon fill="#63b8ff" stroke="#63b8ff" points="830.38,-839.6 819.89,-838.11 827.16,-845.81 830.38,-839.6"/>
</a>
</g>
</g>
<!-- Node31 -->
<g id="Node000031" class="node">
<title>Node31</title>
<g id="a_Node000031"><a xlink:href="classDynExpInstr_1_1InputPortConfigurator.html" target="_top" xlink:title="Configurator class for InputPort.">
<polygon fill="#fff0f0" stroke="red" points="1116.5,-875.5 930.5,-875.5 930.5,-856.5 1116.5,-856.5 1116.5,-875.5"/>
<text text-anchor="middle" x="1023.5" y="-863.5" font-family="Helvetica,sans-Serif" font-size="10.00">DynExpInstr::InputPortConfigurator</text>
</a>
</g>
</g>
<!-- Node20&#45;&gt;Node31 -->
<g id="edge21_Node000020_Node000031" class="edge">
<title>Node20&#45;&gt;Node31</title>
<g id="a_edge21_Node000020_Node000031"><a xlink:title=" ">
<path fill="none" stroke="#63b8ff" d="M882.74,-839.93C912.89,-845.55 945.39,-851.62 971.46,-856.48"/>
<polygon fill="#63b8ff" stroke="#63b8ff" points="883.09,-836.43 872.62,-838.04 881.81,-843.31 883.09,-836.43"/>
</a>
</g>
</g>
<!-- Node36 -->
<g id="Node000036" class="node">
<title>Node36</title>
<g id="a_Node000036"><a xlink:href="classDynExpInstr_1_1LockinAmplifierConfigurator.html" target="_top" xlink:title="Configurator class for LockinAmplifier.">
<polygon fill="#fff0f0" stroke="red" points="1102.5,-838 944.5,-838 944.5,-808 1102.5,-808 1102.5,-838"/>
<text text-anchor="start" x="952.5" y="-826" font-family="Helvetica,sans-Serif" font-size="10.00">DynExpInstr::LockinAmplifier</text>
<text text-anchor="middle" x="1023.5" y="-815" font-family="Helvetica,sans-Serif" font-size="10.00">Configurator</text>
</a>
</g>
</g>
<!-- Node20&#45;&gt;Node36 -->
<g id="edge22_Node000020_Node000036" class="edge">
<title>Node20&#45;&gt;Node36</title>
<g id="a_edge22_Node000020_Node000036"><a xlink:title=" ">
<path fill="none" stroke="#63b8ff" d="M898.26,-823C913.81,-823 929.59,-823 944.44,-823"/>
<polygon fill="#63b8ff" stroke="#63b8ff" points="898.08,-819.5 888.08,-823 898.08,-826.5 898.08,-819.5"/>
</a>
</g>
</g>
<!-- Node38 -->
<g id="Node000038" class="node">
<title>Node38</title>
<g id="a_Node000038"><a xlink:href="classDynExpInstr_1_1TimeTaggerConfigurator.html" target="_top" xlink:title="Configurator class for TimeTagger.">
<polygon fill="#fff0f0" stroke="red" points="1123,-789.5 924,-789.5 924,-770.5 1123,-770.5 1123,-789.5"/>
<text text-anchor="middle" x="1023.5" y="-777.5" font-family="Helvetica,sans-Serif" font-size="10.00">DynExpInstr::TimeTaggerConfigurator</text>
</a>
</g>
</g>
<!-- Node20&#45;&gt;Node38 -->
<g id="edge23_Node000020_Node000038" class="edge">
<title>Node20&#45;&gt;Node38</title>
<g id="a_edge23_Node000020_Node000038"><a xlink:title=" ">
<path fill="none" stroke="#63b8ff" d="M882.74,-806.07C912.89,-800.45 945.39,-794.38 971.46,-789.52"/>
<polygon fill="#63b8ff" stroke="#63b8ff" points="881.81,-802.69 872.62,-807.96 883.09,-809.57 881.81,-802.69"/>
</a>
</g>
</g>
<!-- Node42 -->
<g id="Node000042" class="node">
<title>Node42</title>
<g id="a_Node000042"><a xlink:href="classDynExpInstr_1_1NenionLeakvalveF3Configurator.html" target="_top" xlink:title=" ">
<polygon fill="white" stroke="#666666" points="1107,-752 940,-752 940,-722 1107,-722 1107,-752"/>
<text text-anchor="start" x="948" y="-740" font-family="Helvetica,sans-Serif" font-size="10.00">DynExpInstr::NenionLeakvalve</text>
<text text-anchor="middle" x="1023.5" y="-729" font-family="Helvetica,sans-Serif" font-size="10.00">F3Configurator</text>
</a>
</g>
</g>
<!-- Node41&#45;&gt;Node42 -->
<g id="edge26_Node000041_Node000042" class="edge">
<title>Node41&#45;&gt;Node42</title>
<g id="a_edge26_Node000041_Node000042"><a xlink:title=" ">
<path fill="none" stroke="#63b8ff" d="M880.17,-719.09C899.76,-721.56 920.45,-724.16 939.81,-726.6"/>
<polygon fill="#63b8ff" stroke="#63b8ff" points="880.4,-715.59 870.04,-717.82 879.52,-722.54 880.4,-715.59"/>
</a>
</g>
</g>
<!-- Node43 -->
<g id="Node000043" class="node">
<title>Node43</title>
<g id="a_Node000043"><a xlink:href="classDynExpInstr_1_1PI__C__862__Configurator.html" target="_top" xlink:title=" ">
<polygon fill="white" stroke="#666666" points="1086.5,-704 960.5,-704 960.5,-674 1086.5,-674 1086.5,-704"/>
<text text-anchor="start" x="968.5" y="-692" font-family="Helvetica,sans-Serif" font-size="10.00">DynExpInstr::PI_C_862</text>
<text text-anchor="middle" x="1023.5" y="-681" font-family="Helvetica,sans-Serif" font-size="10.00">_Configurator</text>
</a>
</g>
</g>
<!-- Node41&#45;&gt;Node43 -->
<g id="edge27_Node000041_Node000043" class="edge">
<title>Node41&#45;&gt;Node43</title>
<g id="a_edge27_Node000041_Node000043"><a xlink:title=" ">
<path fill="none" stroke="#63b8ff" d="M880.15,-700.73C906.83,-698.53 935.57,-696.17 960.19,-694.14"/>
<polygon fill="#63b8ff" stroke="#63b8ff" points="879.72,-697.26 870.04,-701.57 880.29,-704.23 879.72,-697.26"/>
</a>
</g>
</g>
<!-- Node44 -->
<g id="Node000044" class="node">
<title>Node44</title>
<g id="a_Node000044"><a xlink:href="classDynExpInstr_1_1SmarActConfigurator.html" target="_top" xlink:title=" ">
<polygon fill="white" stroke="#666666" points="1115,-655.5 932,-655.5 932,-636.5 1115,-636.5 1115,-655.5"/>
<text text-anchor="middle" x="1023.5" y="-643.5" font-family="Helvetica,sans-Serif" font-size="10.00">DynExpInstr::SmarActConfigurator</text>
</a>
</g>
</g>
<!-- Node41&#45;&gt;Node44 -->
<g id="edge28_Node000041_Node000044" class="edge">
<title>Node41&#45;&gt;Node44</title>
<g id="a_edge28_Node000041_Node000044"><a xlink:title=" ">
<path fill="none" stroke="#63b8ff" d="M870.76,-689.96C876.65,-688.11 882.45,-686.12 888,-684 904.9,-677.54 906.93,-671 924,-665 934.93,-661.16 946.82,-658.03 958.45,-655.51"/>
<polygon fill="#63b8ff" stroke="#63b8ff" points="869.38,-686.72 860.8,-692.94 871.39,-693.43 869.38,-686.72"/>
</a>
</g>
</g>
<!-- Node47 -->
<g id="Node000047" class="node">
<title>Node47</title>
<g id="a_Node000047"><a xlink:href="classDynExpModule_1_1gRPCModuleConfigurator.html" target="_top" xlink:title=" ">
<polygon fill="white" stroke="#666666" points="878.5,-554 703.5,-554 703.5,-524 878.5,-524 878.5,-554"/>
<text text-anchor="start" x="711.5" y="-542" font-family="Helvetica,sans-Serif" font-size="10.00">DynExpModule::gRPCModule</text>
<text text-anchor="middle" x="791" y="-531" font-family="Helvetica,sans-Serif" font-size="10.00">Configurator&lt; gRPCServices... &gt;</text>
</a>
</g>
</g>
<!-- Node46&#45;&gt;Node47 -->
<g id="edge31_Node000046_Node000047" class="edge">
<title>Node46&#45;&gt;Node47</title>
<g id="a_edge31_Node000046_Node000047"><a xlink:title=" ">
<path fill="none" stroke="#63b8ff" d="M568.1,-289.01C611.33,-337.71 735.12,-477.18 776.41,-523.69"/>
<polygon fill="#63b8ff" stroke="#63b8ff" points="570.69,-286.66 561.43,-281.5 565.46,-291.3 570.69,-286.66"/>
</a>
</g>
</g>
<!-- Node55 -->
<g id="Node000055" class="node">
<title>Node55</title>
<g id="a_Node000055"><a xlink:href="classDynExp_1_1QModuleConfiguratorBase.html" target="_top" xlink:title="Configurator class for QModuleBase.">
<polygon fill="white" stroke="#666666" points="885,-302.5 697,-302.5 697,-283.5 885,-283.5 885,-302.5"/>
<text text-anchor="middle" x="791" y="-290.5" font-family="Helvetica,sans-Serif" font-size="10.00">DynExp::QModuleConfiguratorBase</text>
</a>
</g>
</g>
<!-- Node46&#45;&gt;Node55 -->
<g id="edge34_Node000046_Node000055" class="edge">
<title>Node46&#45;&gt;Node55</title>
<g id="a_edge34_Node000046_Node000055"><a xlink:title=" ">
<path fill="none" stroke="#63b8ff" d="M652.39,-280.81C667.12,-282.11 682.27,-283.45 696.87,-284.75"/>
<polygon fill="#63b8ff" stroke="#63b8ff" points="652.53,-277.31 642.26,-279.91 651.91,-284.28 652.53,-277.31"/>
</a>
</g>
</g>
<!-- Node67 -->
<g id="Node000067" class="node">
<title>Node67</title>
<g id="a_Node000067"><a xlink:href="classDynExpModule_1_1ArbitraryFunctionFromCSVConfigurator.html" target="_top" xlink:title=" ">
<polygon fill="white" stroke="#666666" points="881,-265 701,-265 701,-235 881,-235 881,-265"/>
<text text-anchor="start" x="709" y="-253" font-family="Helvetica,sans-Serif" font-size="10.00">DynExpModule::ArbitraryFunction</text>
<text text-anchor="middle" x="791" y="-242" font-family="Helvetica,sans-Serif" font-size="10.00">FromCSVConfigurator</text>
</a>
</g>
</g>
<!-- Node46&#45;&gt;Node67 -->
<g id="edge46_Node000046_Node000067" class="edge">
<title>Node46&#45;&gt;Node67</title>
<g id="a_edge46_Node000046_Node000067"><a xlink:title=" ">
<path fill="none" stroke="#63b8ff" d="M652.23,-262.79C668.35,-261.29 684.96,-259.75 700.82,-258.28"/>
<polygon fill="#63b8ff" stroke="#63b8ff" points="651.9,-259.3 642.26,-263.71 652.54,-266.27 651.9,-259.3"/>
</a>
</g>
</g>
<!-- Node68 -->
<g id="Node000068" class="node">
<title>Node68</title>
<g id="a_Node000068"><a xlink:href="classDynExpModule_1_1StreamManipulatorConfigurator.html" target="_top" xlink:title="Configurator class for StreamManipulator.">
<polygon fill="white" stroke="#666666" points="886,-217 696,-217 696,-187 886,-187 886,-217"/>
<text text-anchor="start" x="704" y="-205" font-family="Helvetica,sans-Serif" font-size="10.00">DynExpModule::StreamManipulator</text>
<text text-anchor="middle" x="791" y="-194" font-family="Helvetica,sans-Serif" font-size="10.00">Configurator</text>
</a>
</g>
</g>
<!-- Node46&#45;&gt;Node68 -->
<g id="edge47_Node000046_Node000068" class="edge">
<title>Node46&#45;&gt;Node68</title>
<g id="a_edge47_Node000046_Node000068"><a xlink:title=" ">
<path fill="none" stroke="#63b8ff" d="M589.88,-259.18C618.2,-249.53 658.36,-236.25 694,-226 704.65,-222.94 716.03,-219.89 727.09,-217.05"/>
<polygon fill="#63b8ff" stroke="#63b8ff" points="588.71,-255.88 580.38,-262.43 590.98,-262.5 588.71,-255.88"/>
</a>
</g>
</g>
<!-- Node69 -->
<g id="Node000069" class="node">
<title>Node69</title>
<g id="a_Node000069"><a xlink:href="classDynExpModule_1_1gRPCModuleConfigurator.html" target="_top" xlink:title="Configurator class for gRPCModule.">
<polygon fill="white" stroke="#666666" points="874,-169 708,-169 708,-139 874,-139 874,-169"/>
<text text-anchor="start" x="716" y="-157" font-family="Helvetica,sans-Serif" font-size="10.00">DynExpModule::gRPCModule</text>
<text text-anchor="middle" x="791" y="-146" font-family="Helvetica,sans-Serif" font-size="10.00">Configurator&lt; gRPCServices &gt;</text>
</a>
</g>
</g>
<!-- Node46&#45;&gt;Node69 -->
<g id="edge48_Node000046_Node000069" class="edge">
<title>Node46&#45;&gt;Node69</title>
<g id="a_edge48_Node000046_Node000069"><a xlink:title=" ">
<path fill="none" stroke="#63b8ff" d="M572.19,-256.05C598.21,-235.19 646.86,-198.85 694,-178 701.7,-174.59 709.97,-171.61 718.31,-169.02"/>
<polygon fill="#63b8ff" stroke="#63b8ff" points="569.82,-253.46 564.27,-262.49 574.23,-258.9 569.82,-253.46"/>
</a>
</g>
</g>
<!-- Node48 -->
<g id="Node000048" class="node">
<title>Node48</title>
<g id="a_Node000048"><a xlink:href="classDynExpModule_1_1NetworkDataStreamInstrumentConfigurator.html" target="_top" xlink:title=" ">
<polygon fill="#fff0f0" stroke="red" points="1106,-618.5 941,-618.5 941,-577.5 1106,-577.5 1106,-618.5"/>
<text text-anchor="start" x="949" y="-606.5" font-family="Helvetica,sans-Serif" font-size="10.00">DynExpModule::NetworkData</text>
<text text-anchor="start" x="949" y="-595.5" font-family="Helvetica,sans-Serif" font-size="10.00">StreamInstrumentConfigurator</text>
<text text-anchor="middle" x="1023.5" y="-584.5" font-family="Helvetica,sans-Serif" font-size="10.00">&lt; gRPCServices... &gt;</text>
</a>
</g>
</g>
<!-- Node47&#45;&gt;Node48 -->
<g id="edge32_Node000047_Node000048" class="edge">
<title>Node47&#45;&gt;Node48</title>
<g id="a_edge32_Node000047_Node000048"><a xlink:title=" ">
<path fill="none" stroke="#63b8ff" d="M860.74,-556.59C886.32,-563.14 915.57,-570.63 942.1,-577.42"/>
<polygon fill="#63b8ff" stroke="#63b8ff" points="861.32,-553.13 850.76,-554.04 859.58,-559.91 861.32,-553.13"/>
</a>
</g>
</g>
<!-- Node54 -->
<g id="Node000054" class="node">
<title>Node54</title>
<g id="a_Node000054"><a xlink:href="classDynExpModule_1_1NetworkDataStreamInstrumentConfigurator.html" target="_top" xlink:title=" ">
<polygon fill="white" stroke="#666666" points="1106,-559.5 941,-559.5 941,-518.5 1106,-518.5 1106,-559.5"/>
<text text-anchor="start" x="949" y="-547.5" font-family="Helvetica,sans-Serif" font-size="10.00">DynExpModule::NetworkData</text>
<text text-anchor="start" x="949" y="-536.5" font-family="Helvetica,sans-Serif" font-size="10.00">StreamInstrumentConfigurator</text>
<text text-anchor="middle" x="1023.5" y="-525.5" font-family="Helvetica,sans-Serif" font-size="10.00">&lt; gRPCServices &gt;</text>
</a>
</g>
</g>
<!-- Node47&#45;&gt;Node54 -->
<g id="edge33_Node000047_Node000054" class="edge">
<title>Node47&#45;&gt;Node54</title>
<g id="a_edge33_Node000047_Node000054"><a xlink:title=" ">
<path fill="none" stroke="#63b8ff" d="M888.89,-539C906.13,-539 923.94,-539 940.71,-539"/>
<polygon fill="#63b8ff" stroke="#63b8ff" points="888.81,-535.5 878.81,-539 888.81,-542.5 888.81,-535.5"/>
</a>
</g>
</g>
<!-- Node56 -->
<g id="Node000056" class="node">
<title>Node56</title>
<g id="a_Node000056"><a xlink:href="classDynExpModule_1_1ImageViewer_1_1ImageViewerConfigurator.html" target="_top" xlink:title=" ">
<polygon fill="white" stroke="#666666" points="1104,-500 943,-500 943,-470 1104,-470 1104,-500"/>
<text text-anchor="start" x="951" y="-488" font-family="Helvetica,sans-Serif" font-size="10.00">DynExpModule::ImageViewer</text>
<text text-anchor="middle" x="1023.5" y="-477" font-family="Helvetica,sans-Serif" font-size="10.00">::ImageViewerConfigurator</text>
</a>
</g>
</g>
<!-- Node55&#45;&gt;Node56 -->
<g id="edge35_Node000055_Node000056" class="edge">
<title>Node55&#45;&gt;Node56</title>
<g id="a_edge35_Node000055_Node000056"><a xlink:title=" ">
<path fill="none" stroke="#63b8ff" d="M801.38,-312C819.79,-347.19 864.1,-422.45 924,-461 929.85,-464.76 936.23,-467.94 942.85,-470.61"/>
<polygon fill="#63b8ff" stroke="#63b8ff" points="804.36,-310.14 796.7,-302.82 798.13,-313.32 804.36,-310.14"/>
</a>
</g>
</g>
<!-- Node57 -->
<g id="Node000057" class="node">
<title>Node57</title>
<g id="a_Node000057"><a xlink:href="classDynExpModule_1_1InputPortReaderConfigurator.html" target="_top" xlink:title=" ">
<polygon fill="white" stroke="#666666" points="1111,-452 936,-452 936,-422 1111,-422 1111,-452"/>
<text text-anchor="start" x="944" y="-440" font-family="Helvetica,sans-Serif" font-size="10.00">DynExpModule::InputPortReader</text>
<text text-anchor="middle" x="1023.5" y="-429" font-family="Helvetica,sans-Serif" font-size="10.00">Configurator</text>
</a>
</g>
</g>
<!-- Node55&#45;&gt;Node57 -->
<g id="edge36_Node000055_Node000057" class="edge">
<title>Node55&#45;&gt;Node57</title>
<g id="a_edge36_Node000055_Node000057"><a xlink:title=" ">
<path fill="none" stroke="#63b8ff" d="M806.09,-310.49C828.31,-336.85 874.12,-386.5 924,-413 930.53,-416.47 937.57,-419.45 944.77,-422"/>
<polygon fill="#63b8ff" stroke="#63b8ff" points="808.56,-307.98 799.49,-302.51 803.17,-312.44 808.56,-307.98"/>
</a>
</g>
</g>
<!-- Node58 -->
<g id="Node000058" class="node">
<title>Node58</title>
<g id="a_Node000058"><a xlink:href="classDynExpModule_1_1LockinAmplifierControlConfigurator.html" target="_top" xlink:title=" ">
<polygon fill="white" stroke="#666666" points="1109.5,-404 937.5,-404 937.5,-374 1109.5,-374 1109.5,-404"/>
<text text-anchor="start" x="945.5" y="-392" font-family="Helvetica,sans-Serif" font-size="10.00">DynExpModule::LockinAmplifier</text>
<text text-anchor="middle" x="1023.5" y="-381" font-family="Helvetica,sans-Serif" font-size="10.00">ControlConfigurator</text>
</a>
</g>
</g>
<!-- Node55&#45;&gt;Node58 -->
<g id="edge37_Node000055_Node000058" class="edge">
<title>Node55&#45;&gt;Node58</title>
<g id="a_edge37_Node000055_Node000058"><a xlink:title=" ">
<path fill="none" stroke="#63b8ff" d="M815.06,-308C840.73,-324.11 883.89,-349.48 924,-365 932.62,-368.33 941.84,-371.31 951.07,-373.94"/>
<polygon fill="#63b8ff" stroke="#63b8ff" points="816.75,-304.93 806.44,-302.52 813,-310.84 816.75,-304.93"/>
</a>
</g>
</g>
<!-- Node59 -->
<g id="Node000059" class="node">
<title>Node59</title>
<g id="a_Node000059"><a xlink:href="classDynExpModule_1_1ODMR_1_1ODMRConfigurator.html" target="_top" xlink:title=" ">
<polygon fill="white" stroke="#666666" points="1087,-356 960,-356 960,-326 1087,-326 1087,-356"/>
<text text-anchor="start" x="968" y="-344" font-family="Helvetica,sans-Serif" font-size="10.00">DynExpModule::ODMR</text>
<text text-anchor="middle" x="1023.5" y="-333" font-family="Helvetica,sans-Serif" font-size="10.00">::ODMRConfigurator</text>
</a>
</g>
</g>
<!-- Node55&#45;&gt;Node59 -->
<g id="edge38_Node000055_Node000059" class="edge">
<title>Node55&#45;&gt;Node59</title>
<g id="a_edge38_Node000055_Node000059"><a xlink:title=" ">
<path fill="none" stroke="#63b8ff" d="M847.98,-304.66C881.74,-311.69 924.83,-320.66 959.75,-327.93"/>
<polygon fill="#63b8ff" stroke="#63b8ff" points="848.32,-301.15 837.81,-302.54 846.89,-308.01 848.32,-301.15"/>
</a>
</g>
</g>
<!-- Node60 -->
<g id="Node000060" class="node">
<title>Node60</title>
<g id="a_Node000060"><a xlink:href="classDynExpModule_1_1OutputPortWriterConfigurator.html" target="_top" xlink:title=" ">
<polygon fill="white" stroke="#666666" points="1098,-308 949,-308 949,-278 1098,-278 1098,-308"/>
<text text-anchor="start" x="957" y="-296" font-family="Helvetica,sans-Serif" font-size="10.00">DynExpModule::OutputPort</text>
<text text-anchor="middle" x="1023.5" y="-285" font-family="Helvetica,sans-Serif" font-size="10.00">WriterConfigurator</text>
</a>
</g>
</g>
<!-- Node55&#45;&gt;Node60 -->
<g id="edge39_Node000055_Node000060" class="edge">
<title>Node55&#45;&gt;Node60</title>
<g id="a_edge39_Node000055_Node000060"><a xlink:title=" ">
<path fill="none" stroke="#63b8ff" d="M895.11,-293C913.24,-293 931.78,-293 948.91,-293"/>
<polygon fill="#63b8ff" stroke="#63b8ff" points="895.09,-289.5 885.09,-293 895.09,-296.5 895.09,-289.5"/>
</a>
</g>
</g>
<!-- Node61 -->
<g id="Node000061" class="node">
<title>Node61</title>
<g id="a_Node000061"><a xlink:href="classDynExpModule_1_1SignalDesignerConfigurator.html" target="_top" xlink:title=" ">
<polygon fill="white" stroke="#666666" points="1108.5,-260 938.5,-260 938.5,-230 1108.5,-230 1108.5,-260"/>
<text text-anchor="start" x="946.5" y="-248" font-family="Helvetica,sans-Serif" font-size="10.00">DynExpModule::SignalDesigner</text>
<text text-anchor="middle" x="1023.5" y="-237" font-family="Helvetica,sans-Serif" font-size="10.00">Configurator</text>
</a>
</g>
</g>
<!-- Node55&#45;&gt;Node61 -->
<g id="edge40_Node000055_Node000061" class="edge">
<title>Node55&#45;&gt;Node61</title>
<g id="a_edge40_Node000055_Node000061"><a xlink:title=" ">
<path fill="none" stroke="#63b8ff" d="M850.99,-281.49C863.23,-279.05 876.04,-276.47 888,-274 909.4,-269.57 932.69,-264.61 953.78,-260.05"/>
<polygon fill="#63b8ff" stroke="#63b8ff" points="850,-278.12 840.87,-283.49 851.36,-284.98 850,-278.12"/>
</a>
</g>
</g>
<!-- Node62 -->
<g id="Node000062" class="node">
<title>Node62</title>
<g id="a_Node000062"><a xlink:href="classDynExpModule_1_1SignalPlotterConfigurator.html" target="_top" xlink:title=" ">
<polygon fill="white" stroke="#666666" points="1102.5,-212 944.5,-212 944.5,-182 1102.5,-182 1102.5,-212"/>
<text text-anchor="start" x="952.5" y="-200" font-family="Helvetica,sans-Serif" font-size="10.00">DynExpModule::SignalPlotter</text>
<text text-anchor="middle" x="1023.5" y="-189" font-family="Helvetica,sans-Serif" font-size="10.00">Configurator</text>
</a>
</g>
</g>
<!-- Node55&#45;&gt;Node62 -->
<g id="edge41_Node000055_Node000062" class="edge">
<title>Node55&#45;&gt;Node62</title>
<g id="a_edge41_Node000055_Node000062"><a xlink:title=" ">
<path fill="none" stroke="#63b8ff" d="M878.58,-279.37C881.85,-277.77 885.01,-275.98 888,-274 911.74,-258.28 900.6,-237.23 924,-221 930.22,-216.69 937.13,-213.14 944.32,-210.24"/>
<polygon fill="#63b8ff" stroke="#63b8ff" points="876.92,-276.28 869.11,-283.44 879.68,-282.71 876.92,-276.28"/>
</a>
</g>
</g>
<!-- Node63 -->
<g id="Node000063" class="node">
<title>Node63</title>
<g id="a_Node000063"><a xlink:href="classDynExpModule_1_1SpectrumViewer_1_1SpectrumViewerConfigurator.html" target="_top" xlink:title=" ">
<polygon fill="white" stroke="#666666" points="1111.5,-164 935.5,-164 935.5,-134 1111.5,-134 1111.5,-164"/>
<text text-anchor="start" x="943.5" y="-152" font-family="Helvetica,sans-Serif" font-size="10.00">DynExpModule::SpectrumViewer</text>
<text text-anchor="middle" x="1023.5" y="-141" font-family="Helvetica,sans-Serif" font-size="10.00">::SpectrumViewerConfigurator</text>
</a>
</g>
</g>
<!-- Node55&#45;&gt;Node63 -->
<g id="edge42_Node000055_Node000063" class="edge">
<title>Node55&#45;&gt;Node63</title>
<g id="a_edge42_Node000055_Node000063"><a xlink:title=" ">
<path fill="none" stroke="#63b8ff" d="M882.42,-278.28C884.36,-276.96 886.22,-275.53 888,-274 924.08,-242.87 888.61,-204.91 924,-173 927.79,-169.58 931.99,-166.63 936.45,-164.08"/>
<polygon fill="#63b8ff" stroke="#63b8ff" points="880.41,-275.4 873.5,-283.43 883.91,-281.46 880.41,-275.4"/>
</a>
</g>
</g>
<!-- Node64 -->
<g id="Node000064" class="node">
<title>Node64</title>
<g id="a_Node000064"><a xlink:href="classDynExpModule_1_1Stage1DConfigurator.html" target="_top" xlink:title=" ">
<polygon fill="white" stroke="#666666" points="1122,-115.5 925,-115.5 925,-96.5 1122,-96.5 1122,-115.5"/>
<text text-anchor="middle" x="1023.5" y="-103.5" font-family="Helvetica,sans-Serif" font-size="10.00">DynExpModule::Stage1DConfigurator</text>
</a>
</g>
</g>
<!-- Node55&#45;&gt;Node64 -->
<g id="edge43_Node000055_Node000064" class="edge">
<title>Node55&#45;&gt;Node64</title>
<g id="a_edge43_Node000055_Node000064"><a xlink:title=" ">
<path fill="none" stroke="#63b8ff" d="M883.38,-277.97C884.98,-276.73 886.53,-275.41 888,-274 937.17,-226.84 874.72,-172.04 924,-125 927.91,-121.27 932.31,-118.17 937.03,-115.59"/>
<polygon fill="#63b8ff" stroke="#63b8ff" points="881.37,-275.1 874.86,-283.46 885.16,-280.98 881.37,-275.1"/>
</a>
</g>
</g>
<!-- Node65 -->
<g id="Node000065" class="node">
<title>Node65</title>
<g id="a_Node000065"><a xlink:href="classDynExpModule_1_1Trajectory1DConfigurator.html" target="_top" xlink:title=" ">
<polygon fill="white" stroke="#666666" points="1098.5,-78 948.5,-78 948.5,-48 1098.5,-48 1098.5,-78"/>
<text text-anchor="start" x="956.5" y="-66" font-family="Helvetica,sans-Serif" font-size="10.00">DynExpModule::Trajectory1</text>
<text text-anchor="middle" x="1023.5" y="-55" font-family="Helvetica,sans-Serif" font-size="10.00">DConfigurator</text>
</a>
</g>
</g>
<!-- Node55&#45;&gt;Node65 -->
<g id="edge44_Node000055_Node000065" class="edge">
<title>Node55&#45;&gt;Node65</title>
<g id="a_edge44_Node000055_Node000065"><a xlink:title=" ">
<path fill="none" stroke="#63b8ff" d="M883.99,-277.63C885.38,-276.49 886.72,-275.28 888,-274 947.41,-214.34 866.19,-149.22 924,-88 930.78,-80.82 939.31,-75.58 948.5,-71.78"/>
<polygon fill="#63b8ff" stroke="#63b8ff" points="881.8,-274.89 875.51,-283.42 885.74,-280.68 881.8,-274.89"/>
</a>
</g>
</g>
<!-- Node66 -->
<g id="Node000066" class="node">
<title>Node66</title>
<g id="a_Node000066"><a xlink:href="classDynExpModule_1_1Widefield_1_1WidefieldMicroscopeConfigurator.html" target="_top" xlink:title=" ">
<polygon fill="white" stroke="#666666" points="1115.5,-30 931.5,-30 931.5,0 1115.5,0 1115.5,-30"/>
<text text-anchor="start" x="939.5" y="-18" font-family="Helvetica,sans-Serif" font-size="10.00">DynExpModule::Widefield</text>
<text text-anchor="middle" x="1023.5" y="-7" font-family="Helvetica,sans-Serif" font-size="10.00">::WidefieldMicroscopeConfigurator</text>
</a>
</g>
</g>
<!-- Node55&#45;&gt;Node66 -->
<g id="edge45_Node000055_Node000066" class="edge">
<title>Node55&#45;&gt;Node66</title>
<g id="a_edge45_Node000055_Node000066"><a xlink:title=" ">
<path fill="none" stroke="#63b8ff" d="M884.56,-277.28C885.75,-276.24 886.9,-275.15 888,-274 961.08,-197.68 852.6,-116.89 924,-39 927.09,-35.63 930.57,-32.69 934.33,-30.14"/>
<polygon fill="#63b8ff" stroke="#63b8ff" points="882.2,-274.66 876.11,-283.33 886.28,-280.35 882.2,-274.66"/>
</a>
</g>
</g>
</g>
</svg>
