<?xml version="1.0" encoding="UTF-8" standalone="no"?>
<!DOCTYPE svg PUBLIC "-//W3C//DTD SVG 1.1//EN"
 "http://www.w3.org/Graphics/SVG/1.1/DTD/svg11.dtd">
<!-- Generated by graphviz version 2.43.0 (0)
 -->
<!-- Title: DynExp::RunnableObjectParams Pages: 1 -->
<svg width="1535pt" height="1104pt"
 viewBox="0.00 0.00 1535.00 1104.00" xmlns="http://www.w3.org/2000/svg" xmlns:xlink="http://www.w3.org/1999/xlink">
<g id="graph0" class="graph" transform="scale(1 1) rotate(0) translate(4 1100)">
<title>DynExp::RunnableObjectParams</title>
<!-- Node1 -->
<g id="Node000001" class="node">
<title>Node1</title>
<g id="a_Node000001"><a xlink:title="Parameter class for RunnableObject.">
<polygon fill="#999999" stroke="#666666" points="652,-479.5 479,-479.5 479,-460.5 652,-460.5 652,-479.5"/>
<text text-anchor="middle" x="565.5" y="-467.5" font-family="Helvetica,sans-Serif" font-size="10.00">DynExp::RunnableObjectParams</text>
</a>
</g>
</g>
<!-- Node5 -->
<g id="Node000005" class="node">
<title>Node5</title>
<g id="a_Node000005"><a xlink:href="classDynExp_1_1InstrumentParamsBase.html" target="_top" xlink:title="Parameter class for InstrumentBase.">
<polygon fill="white" stroke="#666666" points="861,-741.5 688,-741.5 688,-722.5 861,-722.5 861,-741.5"/>
<text text-anchor="middle" x="774.5" y="-729.5" font-family="Helvetica,sans-Serif" font-size="10.00">DynExp::InstrumentParamsBase</text>
</a>
</g>
</g>
<!-- Node1&#45;&gt;Node5 -->
<g id="edge4_Node000001_Node000005" class="edge">
<title>Node1&#45;&gt;Node5</title>
<g id="a_edge4_Node000001_Node000005"><a xlink:title=" ">
<path fill="none" stroke="#63b8ff" d="M580.5,-487.72C620.62,-538.5 735.07,-683.36 765.82,-722.28"/>
<polygon fill="#63b8ff" stroke="#63b8ff" points="583.06,-485.31 574.11,-479.64 577.57,-489.65 583.06,-485.31"/>
</a>
</g>
</g>
<!-- Node35 -->
<g id="Node000035" class="node">
<title>Node35</title>
<g id="a_Node000035"><a xlink:href="classDynExp_1_1ModuleParamsBase.html" target="_top" xlink:title="Parameter class for ModuleBase.">
<polygon fill="white" stroke="#666666" points="852.5,-281.5 696.5,-281.5 696.5,-262.5 852.5,-262.5 852.5,-281.5"/>
<text text-anchor="middle" x="774.5" y="-269.5" font-family="Helvetica,sans-Serif" font-size="10.00">DynExp::ModuleParamsBase</text>
</a>
</g>
</g>
<!-- Node1&#45;&gt;Node35 -->
<g id="edge28_Node000001_Node000035" class="edge">
<title>Node1&#45;&gt;Node35</title>
<g id="a_edge28_Node000001_Node000035"><a xlink:title=" ">
<path fill="none" stroke="#63b8ff" d="M583.94,-453.32C625.59,-413.48 729.86,-313.74 763.13,-281.92"/>
<polygon fill="#63b8ff" stroke="#63b8ff" points="581.29,-451.01 576.48,-460.45 586.13,-456.07 581.29,-451.01"/>
</a>
</g>
</g>
<!-- Node2 -->
<g id="Node000002" class="node">
<title>Node2</title>
<g id="a_Node000002"><a xlink:href="classDynExp_1_1ParamsBase.html" target="_top" xlink:title="Abstract base class for object parameter classes. Each class derived from class Object must be accomp...">
<polygon fill="white" stroke="#666666" points="443,-479.5 323,-479.5 323,-460.5 443,-460.5 443,-479.5"/>
<text text-anchor="middle" x="383" y="-467.5" font-family="Helvetica,sans-Serif" font-size="10.00">DynExp::ParamsBase</text>
</a>
</g>
</g>
<!-- Node2&#45;&gt;Node1 -->
<g id="edge1_Node000001_Node000002" class="edge">
<title>Node2&#45;&gt;Node1</title>
<g id="a_edge1_Node000001_Node000002"><a xlink:title=" ">
<path fill="none" stroke="#63b8ff" d="M453.17,-470C461.54,-470 470.17,-470 478.75,-470"/>
<polygon fill="#63b8ff" stroke="#63b8ff" points="453.1,-466.5 443.1,-470 453.1,-473.5 453.1,-466.5"/>
</a>
</g>
</g>
<!-- Node3 -->
<g id="Node000003" class="node">
<title>Node3</title>
<g id="a_Node000003"><a xlink:href="classUtil_1_1ISynchronizedPointerLockable.html" target="_top" xlink:title="Interface to allow synchronizing the access to derived classes between different threads by making th...">
<polygon fill="white" stroke="#666666" points="287,-485 144,-485 144,-455 287,-455 287,-485"/>
<text text-anchor="start" x="152" y="-473" font-family="Helvetica,sans-Serif" font-size="10.00">Util::ISynchronizedPointer</text>
<text text-anchor="middle" x="215.5" y="-462" font-family="Helvetica,sans-Serif" font-size="10.00">Lockable</text>
</a>
</g>
</g>
<!-- Node3&#45;&gt;Node2 -->
<g id="edge2_Node000002_Node000003" class="edge">
<title>Node3&#45;&gt;Node2</title>
<g id="a_edge2_Node000002_Node000003"><a xlink:title=" ">
<path fill="none" stroke="#63b8ff" d="M297.23,-470C305.84,-470 314.47,-470 322.76,-470"/>
<polygon fill="#63b8ff" stroke="#63b8ff" points="297.17,-466.5 287.17,-470 297.17,-473.5 297.17,-466.5"/>
</a>
</g>
</g>
<!-- Node4 -->
<g id="Node000004" class="node">
<title>Node4</title>
<g id="a_Node000004"><a xlink:href="classUtil_1_1INonCopyable.html" target="_top" xlink:title="Interface to delete copy constructor and copy assignment operator and thus make derived classes non&#45;c...">
<polygon fill="white" stroke="#666666" points="108,-479.5 0,-479.5 0,-460.5 108,-460.5 108,-479.5"/>
<text text-anchor="middle" x="54" y="-467.5" font-family="Helvetica,sans-Serif" font-size="10.00">Util::INonCopyable</text>
</a>
</g>
</g>
<!-- Node4&#45;&gt;Node3 -->
<g id="edge3_Node000003_Node000004" class="edge">
<title>Node4&#45;&gt;Node3</title>
<g id="a_edge3_Node000003_Node000004"><a xlink:title=" ">
<path fill="none" stroke="#63b8ff" d="M118.19,-470C126.58,-470 135.23,-470 143.74,-470"/>
<polygon fill="#63b8ff" stroke="#63b8ff" points="118.11,-466.5 108.11,-470 118.11,-473.5 118.11,-466.5"/>
</a>
</g>
</g>
<!-- Node6 -->
<g id="Node000006" class="node">
<title>Node6</title>
<g id="a_Node000006"><a xlink:href="classDynExpInstr_1_1CameraParams.html" target="_top" xlink:title="Parameter class for Camera.">
<polygon fill="white" stroke="#666666" points="1072,-1016.5 916,-1016.5 916,-997.5 1072,-997.5 1072,-1016.5"/>
<text text-anchor="middle" x="994" y="-1004.5" font-family="Helvetica,sans-Serif" font-size="10.00">DynExpInstr::CameraParams</text>
</a>
</g>
</g>
<!-- Node5&#45;&gt;Node6 -->
<g id="edge5_Node000005_Node000006" class="edge">
<title>Node5&#45;&gt;Node6</title>
<g id="a_edge5_Node000005_Node000006"><a xlink:title=" ">
<path fill="none" stroke="#63b8ff" d="M789.66,-749.91C831.49,-802.79 953.55,-957.12 985.35,-997.33"/>
<polygon fill="#63b8ff" stroke="#63b8ff" points="792.19,-747.46 783.24,-741.79 786.7,-751.8 792.19,-747.46"/>
</a>
</g>
</g>
<!-- Node9 -->
<g id="Node000009" class="node">
<title>Node9</title>
<g id="a_Node000009"><a xlink:href="classDynExpInstr_1_1DataStreamInstrumentParams.html" target="_top" xlink:title="Parameter class for DataStreamInstrument.">
<polygon fill="white" stroke="#666666" points="1091,-838 897,-838 897,-808 1091,-808 1091,-838"/>
<text text-anchor="start" x="905" y="-826" font-family="Helvetica,sans-Serif" font-size="10.00">DynExpInstr::DataStreamInstrument</text>
<text text-anchor="middle" x="994" y="-815" font-family="Helvetica,sans-Serif" font-size="10.00">Params</text>
</a>
</g>
</g>
<!-- Node5&#45;&gt;Node9 -->
<g id="edge8_Node000005_Node000009" class="edge">
<title>Node5&#45;&gt;Node9</title>
<g id="a_edge8_Node000005_Node000009"><a xlink:title=" ">
<path fill="none" stroke="#63b8ff" d="M807.62,-745.44C847.45,-762.1 915.15,-790.43 956.79,-807.85"/>
<polygon fill="#63b8ff" stroke="#63b8ff" points="808.94,-742.2 798.37,-741.57 806.24,-748.66 808.94,-742.2"/>
</a>
</g>
</g>
<!-- Node29 -->
<g id="Node000029" class="node">
<title>Node29</title>
<g id="a_Node000029"><a xlink:href="classDynExpInstr_1_1InterModuleCommunicatorParams.html" target="_top" xlink:title="Parameter class for InterModuleCommunicator.">
<polygon fill="white" stroke="#666666" points="1064,-771 924,-771 924,-741 1064,-741 1064,-771"/>
<text text-anchor="start" x="932" y="-759" font-family="Helvetica,sans-Serif" font-size="10.00">DynExpInstr::InterModule</text>
<text text-anchor="middle" x="994" y="-748" font-family="Helvetica,sans-Serif" font-size="10.00">CommunicatorParams</text>
</a>
</g>
</g>
<!-- Node5&#45;&gt;Node29 -->
<g id="edge22_Node000005_Node000029" class="edge">
<title>Node5&#45;&gt;Node29</title>
<g id="a_edge22_Node000005_Node000029"><a xlink:title=" ">
<path fill="none" stroke="#63b8ff" d="M871.47,-742.59C889.11,-744.54 907.21,-746.53 923.87,-748.37"/>
<polygon fill="#63b8ff" stroke="#63b8ff" points="871.47,-739.07 861.15,-741.45 870.71,-746.03 871.47,-739.07"/>
</a>
</g>
</g>
<!-- Node30 -->
<g id="Node000030" class="node">
<title>Node30</title>
<g id="a_Node000030"><a xlink:href="classDynExpInstr_1_1PositionerStageParams.html" target="_top" xlink:title="Parameter class for PositionerStage.">
<polygon fill="white" stroke="#666666" points="1073,-723 915,-723 915,-693 1073,-693 1073,-723"/>
<text text-anchor="start" x="923" y="-711" font-family="Helvetica,sans-Serif" font-size="10.00">DynExpInstr::PositionerStage</text>
<text text-anchor="middle" x="994" y="-700" font-family="Helvetica,sans-Serif" font-size="10.00">Params</text>
</a>
</g>
</g>
<!-- Node5&#45;&gt;Node30 -->
<g id="edge23_Node000005_Node000030" class="edge">
<title>Node5&#45;&gt;Node30</title>
<g id="a_edge23_Node000005_Node000030"><a xlink:title=" ">
<path fill="none" stroke="#63b8ff" d="M871.19,-721.44C885.79,-719.83 900.7,-718.18 914.86,-716.62"/>
<polygon fill="#63b8ff" stroke="#63b8ff" points="870.71,-717.97 861.15,-722.55 871.47,-724.93 870.71,-717.97"/>
</a>
</g>
</g>
<!-- Node34 -->
<g id="Node000034" class="node">
<title>Node34</title>
<g id="a_Node000034"><a xlink:href="classDynExpInstr_1_1SpectrometerParams.html" target="_top" xlink:title="Parameter class for Spectrometer.">
<polygon fill="white" stroke="#666666" points="1068,-675 920,-675 920,-645 1068,-645 1068,-675"/>
<text text-anchor="start" x="928" y="-663" font-family="Helvetica,sans-Serif" font-size="10.00">DynExpInstr::Spectrometer</text>
<text text-anchor="middle" x="994" y="-652" font-family="Helvetica,sans-Serif" font-size="10.00">Params</text>
</a>
</g>
</g>
<!-- Node5&#45;&gt;Node34 -->
<g id="edge27_Node000005_Node000034" class="edge">
<title>Node5&#45;&gt;Node34</title>
<g id="a_edge27_Node000005_Node000034"><a xlink:title=" ">
<path fill="none" stroke="#63b8ff" d="M806.55,-718.43C830.86,-708.12 865.68,-694.05 897,-684 906.9,-680.82 917.48,-677.81 927.87,-675.05"/>
<polygon fill="#63b8ff" stroke="#63b8ff" points="804.95,-715.3 797.14,-722.45 807.71,-721.74 804.95,-715.3"/>
</a>
</g>
</g>
<!-- Node7 -->
<g id="Node000007" class="node">
<title>Node7</title>
<g id="a_Node000007"><a xlink:href="classDynExpInstr_1_1DummyCameraParams.html" target="_top" xlink:title=" ">
<polygon fill="white" stroke="#666666" points="1294.5,-1065 1135.5,-1065 1135.5,-1035 1294.5,-1035 1294.5,-1065"/>
<text text-anchor="start" x="1143.5" y="-1053" font-family="Helvetica,sans-Serif" font-size="10.00">DynExpInstr::DummyCamera</text>
<text text-anchor="middle" x="1215" y="-1042" font-family="Helvetica,sans-Serif" font-size="10.00">Params</text>
</a>
</g>
</g>
<!-- Node6&#45;&gt;Node7 -->
<g id="edge6_Node000006_Node000007" class="edge">
<title>Node6&#45;&gt;Node7</title>
<g id="a_edge6_Node000006_Node000007"><a xlink:title=" ">
<path fill="none" stroke="#63b8ff" d="M1053.6,-1018.51C1079.39,-1023.57 1110.02,-1029.58 1137.57,-1034.99"/>
<polygon fill="#63b8ff" stroke="#63b8ff" points="1054.09,-1015.04 1043.6,-1016.54 1052.74,-1021.9 1054.09,-1015.04"/>
</a>
</g>
</g>
<!-- Node8 -->
<g id="Node000008" class="node">
<title>Node8</title>
<g id="a_Node000008"><a xlink:href="classDynExpInstr_1_1PVCamParams.html" target="_top" xlink:title=" ">
<polygon fill="white" stroke="#666666" points="1291.5,-1016.5 1138.5,-1016.5 1138.5,-997.5 1291.5,-997.5 1291.5,-1016.5"/>
<text text-anchor="middle" x="1215" y="-1004.5" font-family="Helvetica,sans-Serif" font-size="10.00">DynExpInstr::PVCamParams</text>
</a>
</g>
</g>
<!-- Node6&#45;&gt;Node8 -->
<g id="edge7_Node000006_Node000008" class="edge">
<title>Node6&#45;&gt;Node8</title>
<g id="a_edge7_Node000006_Node000008"><a xlink:title=" ">
<path fill="none" stroke="#63b8ff" d="M1082.37,-1007C1100.85,-1007 1120.21,-1007 1138.22,-1007"/>
<polygon fill="#63b8ff" stroke="#63b8ff" points="1082.21,-1003.5 1072.21,-1007 1082.21,-1010.5 1082.21,-1003.5"/>
</a>
</g>
</g>
<!-- Node10 -->
<g id="Node000010" class="node">
<title>Node10</title>
<g id="a_Node000010"><a xlink:href="classDynExpInstr_1_1FunctionGeneratorParams.html" target="_top" xlink:title="Parameter class for FunctionGenerator.">
<polygon fill="white" stroke="#666666" points="1301,-979 1129,-979 1129,-949 1301,-949 1301,-979"/>
<text text-anchor="start" x="1137" y="-967" font-family="Helvetica,sans-Serif" font-size="10.00">DynExpInstr::FunctionGenerator</text>
<text text-anchor="middle" x="1215" y="-956" font-family="Helvetica,sans-Serif" font-size="10.00">Params</text>
</a>
</g>
</g>
<!-- Node9&#45;&gt;Node10 -->
<g id="edge9_Node000009_Node000010" class="edge">
<title>Node9&#45;&gt;Node10</title>
<g id="a_edge9_Node000009_Node000010"><a xlink:title=" ">
<path fill="none" stroke="#63b8ff" d="M1027.11,-843.67C1071.6,-872.32 1150.96,-923.41 1190.4,-948.81"/>
<polygon fill="#63b8ff" stroke="#63b8ff" points="1028.74,-840.56 1018.44,-838.09 1024.95,-846.45 1028.74,-840.56"/>
</a>
</g>
</g>
<!-- Node20 -->
<g id="Node000020" class="node">
<title>Node20</title>
<g id="a_Node000020"><a xlink:href="classDynExpInstr_1_1InputPortParams.html" target="_top" xlink:title="Parameter class for InputPort.">
<polygon fill="white" stroke="#666666" points="1296,-875.5 1134,-875.5 1134,-856.5 1296,-856.5 1296,-875.5"/>
<text text-anchor="middle" x="1215" y="-863.5" font-family="Helvetica,sans-Serif" font-size="10.00">DynExpInstr::InputPortParams</text>
</a>
</g>
</g>
<!-- Node9&#45;&gt;Node20 -->
<g id="edge15_Node000009_Node000020" class="edge">
<title>Node9&#45;&gt;Node20</title>
<g id="a_edge15_Node000009_Node000020"><a xlink:title=" ">
<path fill="none" stroke="#63b8ff" d="M1081.59,-840C1110.13,-845.61 1140.85,-851.64 1165.5,-856.48"/>
<polygon fill="#63b8ff" stroke="#63b8ff" points="1082.08,-836.53 1071.6,-838.04 1080.73,-843.4 1082.08,-836.53"/>
</a>
</g>
</g>
<!-- Node25 -->
<g id="Node000025" class="node">
<title>Node25</title>
<g id="a_Node000025"><a xlink:href="classDynExpInstr_1_1LockinAmplifierParams.html" target="_top" xlink:title="Parameter class for LockinAmplifier.">
<polygon fill="white" stroke="#666666" points="1294,-838 1136,-838 1136,-808 1294,-808 1294,-838"/>
<text text-anchor="start" x="1144" y="-826" font-family="Helvetica,sans-Serif" font-size="10.00">DynExpInstr::LockinAmplifier</text>
<text text-anchor="middle" x="1215" y="-815" font-family="Helvetica,sans-Serif" font-size="10.00">Params</text>
</a>
</g>
</g>
<!-- Node9&#45;&gt;Node25 -->
<g id="edge18_Node000009_Node000025" class="edge">
<title>Node9&#45;&gt;Node25</title>
<g id="a_edge18_Node000009_Node000025"><a xlink:title=" ">
<path fill="none" stroke="#63b8ff" d="M1101.25,-823C1112.88,-823 1124.56,-823 1135.76,-823"/>
<polygon fill="#63b8ff" stroke="#63b8ff" points="1101.06,-819.5 1091.06,-823 1101.06,-826.5 1101.06,-819.5"/>
</a>
</g>
</g>
<!-- Node27 -->
<g id="Node000027" class="node">
<title>Node27</title>
<g id="a_Node000027"><a xlink:href="classDynExpInstr_1_1TimeTaggerParams.html" target="_top" xlink:title="Parameter class for TimeTagger.">
<polygon fill="white" stroke="#666666" points="1302.5,-789.5 1127.5,-789.5 1127.5,-770.5 1302.5,-770.5 1302.5,-789.5"/>
<text text-anchor="middle" x="1215" y="-777.5" font-family="Helvetica,sans-Serif" font-size="10.00">DynExpInstr::TimeTaggerParams</text>
</a>
</g>
</g>
<!-- Node9&#45;&gt;Node27 -->
<g id="edge20_Node000009_Node000027" class="edge">
<title>Node9&#45;&gt;Node27</title>
<g id="a_edge20_Node000009_Node000027"><a xlink:title=" ">
<path fill="none" stroke="#63b8ff" d="M1081.59,-806C1110.13,-800.39 1140.85,-794.36 1165.5,-789.52"/>
<polygon fill="#63b8ff" stroke="#63b8ff" points="1080.73,-802.6 1071.6,-807.96 1082.08,-809.47 1080.73,-802.6"/>
</a>
</g>
</g>
<!-- Node11 -->
<g id="Node000011" class="node">
<title>Node11</title>
<g id="a_Node000011"><a xlink:href="classDynExpInstr_1_1DummyDataStreamInstrumentParams.html" target="_top" xlink:title=" ">
<polygon fill="white" stroke="#666666" points="1522.5,-1096 1343.5,-1096 1343.5,-1066 1522.5,-1066 1522.5,-1096"/>
<text text-anchor="start" x="1351.5" y="-1084" font-family="Helvetica,sans-Serif" font-size="10.00">DynExpInstr::DummyDataStream</text>
<text text-anchor="middle" x="1433" y="-1073" font-family="Helvetica,sans-Serif" font-size="10.00">InstrumentParams</text>
</a>
</g>
</g>
<!-- Node10&#45;&gt;Node11 -->
<g id="edge10_Node000010_Node000011" class="edge">
<title>Node10&#45;&gt;Node11</title>
<g id="a_edge10_Node000010_Node000011"><a xlink:title=" ">
<path fill="none" stroke="#63b8ff" d="M1296.45,-984.27C1298.73,-985.73 1300.92,-987.31 1303,-989 1329.55,-1010.55 1312.16,-1035.81 1339,-1057 1343.32,-1060.41 1348.07,-1063.34 1353.07,-1065.85"/>
<polygon fill="#63b8ff" stroke="#63b8ff" points="1297.73,-980.97 1287.3,-979.11 1294.29,-987.07 1297.73,-980.97"/>
</a>
</g>
</g>
<!-- Node12 -->
<g id="Node000012" class="node">
<title>Node12</title>
<g id="a_Node000012"><a xlink:href="classDynExpInstr_1_1OutputPortParams.html" target="_top" xlink:title="Parameter class for OutputPort.">
<polygon fill="#fff0f0" stroke="red" points="1518,-1047.5 1348,-1047.5 1348,-1028.5 1518,-1028.5 1518,-1047.5"/>
<text text-anchor="middle" x="1433" y="-1035.5" font-family="Helvetica,sans-Serif" font-size="10.00">DynExpInstr::OutputPortParams</text>
</a>
</g>
</g>
<!-- Node10&#45;&gt;Node12 -->
<g id="edge11_Node000010_Node000012" class="edge">
<title>Node10&#45;&gt;Node12</title>
<g id="a_edge11_Node000010_Node000012"><a xlink:title=" ">
<path fill="none" stroke="#63b8ff" d="M1289.87,-982.76C1294.4,-984.66 1298.81,-986.74 1303,-989 1321.58,-999.04 1320,-1010.8 1339,-1020 1346.1,-1023.44 1353.81,-1026.22 1361.65,-1028.48"/>
<polygon fill="#63b8ff" stroke="#63b8ff" points="1291.04,-979.46 1280.45,-979.09 1288.5,-985.98 1291.04,-979.46"/>
</a>
</g>
</g>
<!-- Node17 -->
<g id="Node000017" class="node">
<title>Node17</title>
<g id="a_Node000017"><a xlink:href="classDynExpInstr_1_1RS__SMB100BParams.html" target="_top" xlink:title=" ">
<polygon fill="white" stroke="#666666" points="1524,-1010.5 1342,-1010.5 1342,-991.5 1524,-991.5 1524,-1010.5"/>
<text text-anchor="middle" x="1433" y="-998.5" font-family="Helvetica,sans-Serif" font-size="10.00">DynExpInstr::RS_SMB100BParams</text>
</a>
</g>
</g>
<!-- Node10&#45;&gt;Node17 -->
<g id="edge12_Node000010_Node000017" class="edge">
<title>Node10&#45;&gt;Node17</title>
<g id="a_edge12_Node000010_Node000017"><a xlink:title=" ">
<path fill="none" stroke="#63b8ff" d="M1311.2,-980.31C1333.43,-984.11 1356.38,-988.05 1376.24,-991.45"/>
<polygon fill="#63b8ff" stroke="#63b8ff" points="1311.51,-976.81 1301.06,-978.57 1310.32,-983.71 1311.51,-976.81"/>
</a>
</g>
</g>
<!-- Node18 -->
<g id="Node000018" class="node">
<title>Node18</title>
<g id="a_Node000018"><a xlink:href="classDynExpInstr_1_1RS__SMC100AParams.html" target="_top" xlink:title=" ">
<polygon fill="white" stroke="#666666" points="1524,-973.5 1342,-973.5 1342,-954.5 1524,-954.5 1524,-973.5"/>
<text text-anchor="middle" x="1433" y="-961.5" font-family="Helvetica,sans-Serif" font-size="10.00">DynExpInstr::RS_SMC100AParams</text>
</a>
</g>
</g>
<!-- Node10&#45;&gt;Node18 -->
<g id="edge13_Node000010_Node000018" class="edge">
<title>Node10&#45;&gt;Node18</title>
<g id="a_edge13_Node000010_Node000018"><a xlink:title=" ">
<path fill="none" stroke="#63b8ff" d="M1311.14,-964C1321.29,-964 1331.59,-964 1341.68,-964"/>
<polygon fill="#63b8ff" stroke="#63b8ff" points="1311.06,-960.5 1301.06,-964 1311.06,-967.5 1311.06,-960.5"/>
</a>
</g>
</g>
<!-- Node19 -->
<g id="Node000019" class="node">
<title>Node19</title>
<g id="a_Node000019"><a xlink:href="classDynExpInstr_1_1SwabianInstrumentsPulseStreamerParams.html" target="_top" xlink:title=" ">
<polygon fill="white" stroke="#666666" points="1524,-936 1342,-936 1342,-906 1524,-906 1524,-936"/>
<text text-anchor="start" x="1350" y="-924" font-family="Helvetica,sans-Serif" font-size="10.00">DynExpInstr::SwabianInstruments</text>
<text text-anchor="middle" x="1433" y="-913" font-family="Helvetica,sans-Serif" font-size="10.00">PulseStreamerParams</text>
</a>
</g>
</g>
<!-- Node10&#45;&gt;Node19 -->
<g id="edge14_Node000010_Node000019" class="edge">
<title>Node10&#45;&gt;Node19</title>
<g id="a_edge14_Node000010_Node000019"><a xlink:title=" ">
<path fill="none" stroke="#63b8ff" d="M1301.53,-946.97C1319.69,-943.36 1338.74,-939.57 1356.5,-936.03"/>
<polygon fill="#63b8ff" stroke="#63b8ff" points="1300.67,-943.58 1291.55,-948.96 1302.04,-950.44 1300.67,-943.58"/>
</a>
</g>
</g>
<!-- Node21 -->
<g id="Node000021" class="node">
<title>Node21</title>
<g id="a_Node000021"><a xlink:href="classDynExpInstr_1_1AnalogInParams.html" target="_top" xlink:title="Parameter class for AnalogIn.">
<polygon fill="#fff0f0" stroke="red" points="1513.5,-887.5 1352.5,-887.5 1352.5,-868.5 1513.5,-868.5 1513.5,-887.5"/>
<text text-anchor="middle" x="1433" y="-875.5" font-family="Helvetica,sans-Serif" font-size="10.00">DynExpInstr::AnalogInParams</text>
</a>
</g>
</g>
<!-- Node20&#45;&gt;Node21 -->
<g id="edge16_Node000020_Node000021" class="edge">
<title>Node20&#45;&gt;Node21</title>
<g id="a_edge16_Node000020_Node000021"><a xlink:title=" ">
<path fill="none" stroke="#63b8ff" d="M1306.12,-871.01C1321.47,-871.86 1337.31,-872.74 1352.37,-873.58"/>
<polygon fill="#63b8ff" stroke="#63b8ff" points="1306.3,-867.51 1296.12,-870.45 1305.91,-874.5 1306.3,-867.51"/>
</a>
</g>
</g>
<!-- Node23 -->
<g id="Node000023" class="node">
<title>Node23</title>
<g id="a_Node000023"><a xlink:href="classDynExpInstr_1_1DigitalInParams.html" target="_top" xlink:title="Parameter class for DigitalIn.">
<polygon fill="#fff0f0" stroke="red" points="1512.5,-850.5 1353.5,-850.5 1353.5,-831.5 1512.5,-831.5 1512.5,-850.5"/>
<text text-anchor="middle" x="1433" y="-838.5" font-family="Helvetica,sans-Serif" font-size="10.00">DynExpInstr::DigitalInParams</text>
</a>
</g>
</g>
<!-- Node20&#45;&gt;Node23 -->
<g id="edge17_Node000020_Node000023" class="edge">
<title>Node20&#45;&gt;Node23</title>
<g id="a_edge17_Node000020_Node000023"><a xlink:title=" ">
<path fill="none" stroke="#63b8ff" d="M1306.32,-855.55C1321.97,-853.73 1338.14,-851.86 1353.44,-850.09"/>
<polygon fill="#63b8ff" stroke="#63b8ff" points="1305.65,-852.1 1296.12,-856.73 1306.46,-859.05 1305.65,-852.1"/>
</a>
</g>
</g>
<!-- Node26 -->
<g id="Node000026" class="node">
<title>Node26</title>
<g id="a_Node000026"><a xlink:href="classDynExpInstr_1_1ZI__MFLIParams.html" target="_top" xlink:title=" ">
<polygon fill="white" stroke="#666666" points="1511,-813.5 1355,-813.5 1355,-794.5 1511,-794.5 1511,-813.5"/>
<text text-anchor="middle" x="1433" y="-801.5" font-family="Helvetica,sans-Serif" font-size="10.00">DynExpInstr::ZI_MFLIParams</text>
</a>
</g>
</g>
<!-- Node25&#45;&gt;Node26 -->
<g id="edge19_Node000025_Node000026" class="edge">
<title>Node25&#45;&gt;Node26</title>
<g id="a_edge19_Node000025_Node000026"><a xlink:title=" ">
<path fill="none" stroke="#63b8ff" d="M1304.55,-815.21C1321.18,-813.75 1338.45,-812.23 1354.7,-810.8"/>
<polygon fill="#63b8ff" stroke="#63b8ff" points="1303.94,-811.75 1294.29,-816.11 1304.55,-818.72 1303.94,-811.75"/>
</a>
</g>
</g>
<!-- Node28 -->
<g id="Node000028" class="node">
<title>Node28</title>
<g id="a_Node000028"><a xlink:href="classDynExpInstr_1_1QutoolsQuTAGParams.html" target="_top" xlink:title=" ">
<polygon fill="white" stroke="#666666" points="1527,-776.5 1339,-776.5 1339,-757.5 1527,-757.5 1527,-776.5"/>
<text text-anchor="middle" x="1433" y="-764.5" font-family="Helvetica,sans-Serif" font-size="10.00">DynExpInstr::QutoolsQuTAGParams</text>
</a>
</g>
</g>
<!-- Node27&#45;&gt;Node28 -->
<g id="edge21_Node000027_Node000028" class="edge">
<title>Node27&#45;&gt;Node28</title>
<g id="a_edge21_Node000027_Node000028"><a xlink:title=" ">
<path fill="none" stroke="#63b8ff" d="M1312.68,-774.18C1321.32,-773.66 1330.04,-773.14 1338.65,-772.62"/>
<polygon fill="#63b8ff" stroke="#63b8ff" points="1312.38,-770.69 1302.61,-774.79 1312.8,-777.68 1312.38,-770.69"/>
</a>
</g>
</g>
<!-- Node31 -->
<g id="Node000031" class="node">
<title>Node31</title>
<g id="a_Node000031"><a xlink:href="classDynExpInstr_1_1NenionLeakvalveF3Params.html" target="_top" xlink:title=" ">
<polygon fill="white" stroke="#666666" points="1298.5,-752 1131.5,-752 1131.5,-722 1298.5,-722 1298.5,-752"/>
<text text-anchor="start" x="1139.5" y="-740" font-family="Helvetica,sans-Serif" font-size="10.00">DynExpInstr::NenionLeakvalve</text>
<text text-anchor="middle" x="1215" y="-729" font-family="Helvetica,sans-Serif" font-size="10.00">F3Params</text>
</a>
</g>
</g>
<!-- Node30&#45;&gt;Node31 -->
<g id="edge24_Node000030_Node000031" class="edge">
<title>Node30&#45;&gt;Node31</title>
<g id="a_edge24_Node000030_Node000031"><a xlink:title=" ">
<path fill="none" stroke="#63b8ff" d="M1083.45,-719.71C1099.3,-721.81 1115.77,-723.99 1131.45,-726.07"/>
<polygon fill="#63b8ff" stroke="#63b8ff" points="1083.51,-716.19 1073.14,-718.35 1082.59,-723.13 1083.51,-716.19"/>
</a>
</g>
</g>
<!-- Node32 -->
<g id="Node000032" class="node">
<title>Node32</title>
<g id="a_Node000032"><a xlink:href="classDynExpInstr_1_1PI__C__862__Params.html" target="_top" xlink:title=" ">
<polygon fill="white" stroke="#666666" points="1278,-704 1152,-704 1152,-674 1278,-674 1278,-704"/>
<text text-anchor="start" x="1160" y="-692" font-family="Helvetica,sans-Serif" font-size="10.00">DynExpInstr::PI_C_862</text>
<text text-anchor="middle" x="1215" y="-681" font-family="Helvetica,sans-Serif" font-size="10.00">_Params</text>
</a>
</g>
</g>
<!-- Node30&#45;&gt;Node32 -->
<g id="edge25_Node000030_Node000032" class="edge">
<title>Node30&#45;&gt;Node32</title>
<g id="a_edge25_Node000030_Node000032"><a xlink:title=" ">
<path fill="none" stroke="#63b8ff" d="M1083.23,-700.35C1106.17,-698.35 1130.42,-696.25 1151.71,-694.4"/>
<polygon fill="#63b8ff" stroke="#63b8ff" points="1082.8,-696.87 1073.14,-701.22 1083.4,-703.84 1082.8,-696.87"/>
</a>
</g>
</g>
<!-- Node33 -->
<g id="Node000033" class="node">
<title>Node33</title>
<g id="a_Node000033"><a xlink:href="classDynExpInstr_1_1SmarActParams.html" target="_top" xlink:title=" ">
<polygon fill="white" stroke="#666666" points="1294.5,-655.5 1135.5,-655.5 1135.5,-636.5 1294.5,-636.5 1294.5,-655.5"/>
<text text-anchor="middle" x="1215" y="-643.5" font-family="Helvetica,sans-Serif" font-size="10.00">DynExpInstr::SmarActParams</text>
</a>
</g>
</g>
<!-- Node30&#45;&gt;Node33 -->
<g id="edge26_Node000030_Node000033" class="edge">
<title>Node30&#45;&gt;Node33</title>
<g id="a_edge26_Node000030_Node000033"><a xlink:title=" ">
<path fill="none" stroke="#63b8ff" d="M1073.76,-689.96C1079.65,-688.11 1085.45,-686.12 1091,-684 1107.9,-677.54 1110.01,-671.21 1127,-665 1137.31,-661.23 1148.59,-658.09 1159.52,-655.52"/>
<polygon fill="#63b8ff" stroke="#63b8ff" points="1072.38,-686.72 1063.8,-692.94 1074.39,-693.43 1072.38,-686.72"/>
</a>
</g>
</g>
<!-- Node36 -->
<g id="Node000036" class="node">
<title>Node36</title>
<g id="a_Node000036"><a xlink:href="classDynExpModule_1_1gRPCModuleParams.html" target="_top" xlink:title=" ">
<polygon fill="white" stroke="#666666" points="1073,-554 915,-554 915,-524 1073,-524 1073,-554"/>
<text text-anchor="start" x="923" y="-542" font-family="Helvetica,sans-Serif" font-size="10.00">DynExpModule::gRPCModule</text>
<text text-anchor="middle" x="994" y="-531" font-family="Helvetica,sans-Serif" font-size="10.00">Params&lt; gRPCServices... &gt;</text>
</a>
</g>
</g>
<!-- Node35&#45;&gt;Node36 -->
<g id="edge29_Node000035_Node000036" class="edge">
<title>Node35&#45;&gt;Node36</title>
<g id="a_edge29_Node000035_Node000036"><a xlink:title=" ">
<path fill="none" stroke="#63b8ff" d="M789.6,-289.31C829.5,-338.29 942.72,-477.27 980.53,-523.69"/>
<polygon fill="#63b8ff" stroke="#63b8ff" points="792.27,-287.05 783.24,-281.5 786.84,-291.47 792.27,-287.05"/>
</a>
</g>
</g>
<!-- Node44 -->
<g id="Node000044" class="node">
<title>Node44</title>
<g id="a_Node000044"><a xlink:href="classDynExp_1_1QModuleParamsBase.html" target="_top" xlink:title="Parameter class for QModuleBase.">
<polygon fill="white" stroke="#666666" points="1076,-302.5 912,-302.5 912,-283.5 1076,-283.5 1076,-302.5"/>
<text text-anchor="middle" x="994" y="-290.5" font-family="Helvetica,sans-Serif" font-size="10.00">DynExp::QModuleParamsBase</text>
</a>
</g>
</g>
<!-- Node35&#45;&gt;Node44 -->
<g id="edge34_Node000035_Node000044" class="edge">
<title>Node35&#45;&gt;Node44</title>
<g id="a_edge34_Node000035_Node000044"><a xlink:title=" ">
<path fill="none" stroke="#63b8ff" d="M862.79,-280.43C879.01,-281.99 895.89,-283.62 911.91,-285.17"/>
<polygon fill="#63b8ff" stroke="#63b8ff" points="863.08,-276.94 852.79,-279.46 862.41,-283.91 863.08,-276.94"/>
</a>
</g>
</g>
<!-- Node56 -->
<g id="Node000056" class="node">
<title>Node56</title>
<g id="a_Node000056"><a xlink:href="classDynExpModule_1_1ArbitraryFunctionFromCSVParams.html" target="_top" xlink:title=" ">
<polygon fill="white" stroke="#666666" points="1084,-265 904,-265 904,-235 1084,-235 1084,-265"/>
<text text-anchor="start" x="912" y="-253" font-family="Helvetica,sans-Serif" font-size="10.00">DynExpModule::ArbitraryFunction</text>
<text text-anchor="middle" x="994" y="-242" font-family="Helvetica,sans-Serif" font-size="10.00">FromCSVParams</text>
</a>
</g>
</g>
<!-- Node35&#45;&gt;Node56 -->
<g id="edge46_Node000035_Node000056" class="edge">
<title>Node35&#45;&gt;Node56</title>
<g id="a_edge46_Node000035_Node000056"><a xlink:title=" ">
<path fill="none" stroke="#63b8ff" d="M862.96,-263.15C876.38,-261.8 890.25,-260.39 903.71,-259.03"/>
<polygon fill="#63b8ff" stroke="#63b8ff" points="862.39,-259.69 852.79,-264.18 863.1,-266.66 862.39,-259.69"/>
</a>
</g>
</g>
<!-- Node57 -->
<g id="Node000057" class="node">
<title>Node57</title>
<g id="a_Node000057"><a xlink:href="classDynExpModule_1_1StreamManipulatorParams.html" target="_top" xlink:title="Parameter class for StreamManipulator.">
<polygon fill="white" stroke="#666666" points="1089,-217 899,-217 899,-187 1089,-187 1089,-217"/>
<text text-anchor="start" x="907" y="-205" font-family="Helvetica,sans-Serif" font-size="10.00">DynExpModule::StreamManipulator</text>
<text text-anchor="middle" x="994" y="-194" font-family="Helvetica,sans-Serif" font-size="10.00">Params</text>
</a>
</g>
</g>
<!-- Node35&#45;&gt;Node57 -->
<g id="edge47_Node000035_Node000057" class="edge">
<title>Node35&#45;&gt;Node57</title>
<g id="a_edge47_Node000035_Node000057"><a xlink:title=" ">
<path fill="none" stroke="#63b8ff" d="M807.94,-258.53C832.21,-248.75 866.35,-235.6 897,-226 907.08,-222.84 917.86,-219.82 928.42,-217.04"/>
<polygon fill="#63b8ff" stroke="#63b8ff" points="806.46,-255.36 798.51,-262.36 809.09,-261.84 806.46,-255.36"/>
</a>
</g>
</g>
<!-- Node58 -->
<g id="Node000058" class="node">
<title>Node58</title>
<g id="a_Node000058"><a xlink:href="classDynExpModule_1_1gRPCModuleParams.html" target="_top" xlink:title="Parameter class for gRPCModule.">
<polygon fill="white" stroke="#666666" points="1073,-169 915,-169 915,-139 1073,-139 1073,-169"/>
<text text-anchor="start" x="923" y="-157" font-family="Helvetica,sans-Serif" font-size="10.00">DynExpModule::gRPCModule</text>
<text text-anchor="middle" x="994" y="-146" font-family="Helvetica,sans-Serif" font-size="10.00">Params&lt; gRPCServices &gt;</text>
</a>
</g>
</g>
<!-- Node35&#45;&gt;Node58 -->
<g id="edge48_Node000035_Node000058" class="edge">
<title>Node35&#45;&gt;Node58</title>
<g id="a_edge48_Node000035_Node000058"><a xlink:title=" ">
<path fill="none" stroke="#63b8ff" d="M792.19,-255.36C814.28,-234.27 855.33,-198.22 897,-178 904.03,-174.59 911.6,-171.63 919.28,-169.07"/>
<polygon fill="#63b8ff" stroke="#63b8ff" points="789.67,-252.92 784.94,-262.4 794.55,-257.94 789.67,-252.92"/>
</a>
</g>
</g>
<!-- Node37 -->
<g id="Node000037" class="node">
<title>Node37</title>
<g id="a_Node000037"><a xlink:href="classDynExpModule_1_1NetworkDataStreamInstrumentParams.html" target="_top" xlink:title=" ">
<polygon fill="#fff0f0" stroke="red" points="1295.5,-618.5 1134.5,-618.5 1134.5,-577.5 1295.5,-577.5 1295.5,-618.5"/>
<text text-anchor="start" x="1142.5" y="-606.5" font-family="Helvetica,sans-Serif" font-size="10.00">DynExpModule::NetworkData</text>
<text text-anchor="start" x="1142.5" y="-595.5" font-family="Helvetica,sans-Serif" font-size="10.00">StreamInstrumentParams</text>
<text text-anchor="middle" x="1215" y="-584.5" font-family="Helvetica,sans-Serif" font-size="10.00">&lt; gRPCServices... &gt;</text>
</a>
</g>
</g>
<!-- Node36&#45;&gt;Node37 -->
<g id="edge30_Node000036_Node000037" class="edge">
<title>Node36&#45;&gt;Node37</title>
<g id="a_edge30_Node000036_Node000037"><a xlink:title=" ">
<path fill="none" stroke="#63b8ff" d="M1060.63,-556.68C1084.86,-563.21 1112.52,-570.66 1137.62,-577.42"/>
<polygon fill="#63b8ff" stroke="#63b8ff" points="1061.4,-553.26 1050.83,-554.04 1059.57,-560.02 1061.4,-553.26"/>
</a>
</g>
</g>
<!-- Node43 -->
<g id="Node000043" class="node">
<title>Node43</title>
<g id="a_Node000043"><a xlink:href="classDynExpModule_1_1NetworkDataStreamInstrumentParams.html" target="_top" xlink:title=" ">
<polygon fill="white" stroke="#666666" points="1295.5,-559.5 1134.5,-559.5 1134.5,-518.5 1295.5,-518.5 1295.5,-559.5"/>
<text text-anchor="start" x="1142.5" y="-547.5" font-family="Helvetica,sans-Serif" font-size="10.00">DynExpModule::NetworkData</text>
<text text-anchor="start" x="1142.5" y="-536.5" font-family="Helvetica,sans-Serif" font-size="10.00">StreamInstrumentParams</text>
<text text-anchor="middle" x="1215" y="-525.5" font-family="Helvetica,sans-Serif" font-size="10.00">&lt; gRPCServices &gt;</text>
</a>
</g>
</g>
<!-- Node36&#45;&gt;Node43 -->
<g id="edge33_Node000036_Node000043" class="edge">
<title>Node36&#45;&gt;Node43</title>
<g id="a_edge33_Node000036_Node000043"><a xlink:title=" ">
<path fill="none" stroke="#63b8ff" d="M1083.52,-539C1100.35,-539 1117.88,-539 1134.42,-539"/>
<polygon fill="#63b8ff" stroke="#63b8ff" points="1083.14,-535.5 1073.14,-539 1083.14,-542.5 1083.14,-535.5"/>
</a>
</g>
</g>
<!-- Node38 -->
<g id="Node000038" class="node">
<title>Node38</title>
<g id="a_Node000038"><a xlink:href="classDynExpModule_1_1NetworkAnalogInParams.html" target="_top" xlink:title=" ">
<polygon fill="white" stroke="#666666" points="1518.5,-637 1347.5,-637 1347.5,-607 1518.5,-607 1518.5,-637"/>
<text text-anchor="start" x="1355.5" y="-625" font-family="Helvetica,sans-Serif" font-size="10.00">DynExpModule::NetworkAnalog</text>
<text text-anchor="middle" x="1433" y="-614" font-family="Helvetica,sans-Serif" font-size="10.00">InParams&lt; gRPCServices &gt;</text>
</a>
</g>
</g>
<!-- Node37&#45;&gt;Node38 -->
<g id="edge31_Node000037_Node000038" class="edge">
<title>Node37&#45;&gt;Node38</title>
<g id="a_edge31_Node000037_Node000038"><a xlink:title=" ">
<path fill="none" stroke="#63b8ff" d="M1305.48,-607.94C1319.29,-609.48 1333.51,-611.06 1347.21,-612.58"/>
<polygon fill="#63b8ff" stroke="#63b8ff" points="1305.84,-604.46 1295.51,-606.83 1305.06,-611.42 1305.84,-604.46"/>
</a>
</g>
</g>
<!-- Node39 -->
<g id="Node000039" class="node">
<title>Node39</title>
<g id="a_Node000039"><a xlink:href="classDynExpModule_1_1NetworkAnalogOutParams.html" target="_top" xlink:title=" ">
<polygon fill="white" stroke="#666666" points="1518.5,-589 1347.5,-589 1347.5,-559 1518.5,-559 1518.5,-589"/>
<text text-anchor="start" x="1355.5" y="-577" font-family="Helvetica,sans-Serif" font-size="10.00">DynExpModule::NetworkAnalog</text>
<text text-anchor="middle" x="1433" y="-566" font-family="Helvetica,sans-Serif" font-size="10.00">OutParams&lt; gRPCServices &gt;</text>
</a>
</g>
</g>
<!-- Node37&#45;&gt;Node39 -->
<g id="edge32_Node000037_Node000039" class="edge">
<title>Node37&#45;&gt;Node39</title>
<g id="a_edge32_Node000037_Node000039"><a xlink:title=" ">
<path fill="none" stroke="#63b8ff" d="M1305.48,-588.06C1319.29,-586.52 1333.51,-584.94 1347.21,-583.42"/>
<polygon fill="#63b8ff" stroke="#63b8ff" points="1305.06,-584.58 1295.51,-589.17 1305.84,-591.54 1305.06,-584.58"/>
</a>
</g>
</g>
<!-- Node45 -->
<g id="Node000045" class="node">
<title>Node45</title>
<g id="a_Node000045"><a xlink:href="classDynExpModule_1_1ImageViewer_1_1ImageViewerParams.html" target="_top" xlink:title=" ">
<polygon fill="white" stroke="#666666" points="1295.5,-500 1134.5,-500 1134.5,-470 1295.5,-470 1295.5,-500"/>
<text text-anchor="start" x="1142.5" y="-488" font-family="Helvetica,sans-Serif" font-size="10.00">DynExpModule::ImageViewer</text>
<text text-anchor="middle" x="1215" y="-477" font-family="Helvetica,sans-Serif" font-size="10.00">::ImageViewerParams</text>
</a>
</g>
</g>
<!-- Node44&#45;&gt;Node45 -->
<g id="edge35_Node000044_Node000045" class="edge">
<title>Node44&#45;&gt;Node45</title>
<g id="a_edge35_Node000044_Node000045"><a xlink:title=" ">
<path fill="none" stroke="#63b8ff" d="M1004.49,-311.83C1023.08,-346.74 1067.69,-421.55 1127,-461 1132.22,-464.47 1137.93,-467.44 1143.85,-469.99"/>
<polygon fill="#63b8ff" stroke="#63b8ff" points="1007.48,-309.99 999.76,-302.73 1001.27,-313.22 1007.48,-309.99"/>
</a>
</g>
</g>
<!-- Node46 -->
<g id="Node000046" class="node">
<title>Node46</title>
<g id="a_Node000046"><a xlink:href="classDynExpModule_1_1InputPortReaderParams.html" target="_top" xlink:title=" ">
<polygon fill="white" stroke="#666666" points="1302.5,-452 1127.5,-452 1127.5,-422 1302.5,-422 1302.5,-452"/>
<text text-anchor="start" x="1135.5" y="-440" font-family="Helvetica,sans-Serif" font-size="10.00">DynExpModule::InputPortReader</text>
<text text-anchor="middle" x="1215" y="-429" font-family="Helvetica,sans-Serif" font-size="10.00">Params</text>
</a>
</g>
</g>
<!-- Node44&#45;&gt;Node46 -->
<g id="edge36_Node000044_Node000046" class="edge">
<title>Node44&#45;&gt;Node46</title>
<g id="a_edge36_Node000044_Node000046"><a xlink:title=" ">
<path fill="none" stroke="#63b8ff" d="M1009.53,-310.69C1032,-336.9 1077.77,-385.88 1127,-413 1133.18,-416.4 1139.87,-419.35 1146.71,-421.9"/>
<polygon fill="#63b8ff" stroke="#63b8ff" points="1011.95,-308.13 1002.83,-302.74 1006.59,-312.64 1011.95,-308.13"/>
</a>
</g>
</g>
<!-- Node47 -->
<g id="Node000047" class="node">
<title>Node47</title>
<g id="a_Node000047"><a xlink:href="classDynExpModule_1_1LockinAmplifierControlParams.html" target="_top" xlink:title=" ">
<polygon fill="white" stroke="#666666" points="1301,-404 1129,-404 1129,-374 1301,-374 1301,-404"/>
<text text-anchor="start" x="1137" y="-392" font-family="Helvetica,sans-Serif" font-size="10.00">DynExpModule::LockinAmplifier</text>
<text text-anchor="middle" x="1215" y="-381" font-family="Helvetica,sans-Serif" font-size="10.00">ControlParams</text>
</a>
</g>
</g>
<!-- Node44&#45;&gt;Node47 -->
<g id="edge37_Node000044_Node000047" class="edge">
<title>Node44&#45;&gt;Node47</title>
<g id="a_edge37_Node000044_Node000047"><a xlink:title=" ">
<path fill="none" stroke="#63b8ff" d="M1018.57,-308.03C1044.37,-323.95 1087.34,-348.96 1127,-365 1135.13,-368.29 1143.87,-371.29 1152.56,-373.97"/>
<polygon fill="#63b8ff" stroke="#63b8ff" points="1020.22,-304.93 1009.88,-302.61 1016.51,-310.87 1020.22,-304.93"/>
</a>
</g>
</g>
<!-- Node48 -->
<g id="Node000048" class="node">
<title>Node48</title>
<g id="a_Node000048"><a xlink:href="classDynExpModule_1_1ODMR_1_1ODMRParams.html" target="_top" xlink:title=" ">
<polygon fill="white" stroke="#666666" points="1278.5,-356 1151.5,-356 1151.5,-326 1278.5,-326 1278.5,-356"/>
<text text-anchor="start" x="1159.5" y="-344" font-family="Helvetica,sans-Serif" font-size="10.00">DynExpModule::ODMR</text>
<text text-anchor="middle" x="1215" y="-333" font-family="Helvetica,sans-Serif" font-size="10.00">::ODMRParams</text>
</a>
</g>
</g>
<!-- Node44&#45;&gt;Node48 -->
<g id="edge38_Node000044_Node000048" class="edge">
<title>Node44&#45;&gt;Node48</title>
<g id="a_edge38_Node000044_Node000048"><a xlink:title=" ">
<path fill="none" stroke="#63b8ff" d="M1048.32,-304.69C1079.45,-311.51 1118.89,-320.15 1151.47,-327.3"/>
<polygon fill="#63b8ff" stroke="#63b8ff" points="1049.05,-301.26 1038.53,-302.54 1047.55,-308.1 1049.05,-301.26"/>
</a>
</g>
</g>
<!-- Node49 -->
<g id="Node000049" class="node">
<title>Node49</title>
<g id="a_Node000049"><a xlink:href="classDynExpModule_1_1OutputPortWriterParams.html" target="_top" xlink:title=" ">
<polygon fill="white" stroke="#666666" points="1289.5,-308 1140.5,-308 1140.5,-278 1289.5,-278 1289.5,-308"/>
<text text-anchor="start" x="1148.5" y="-296" font-family="Helvetica,sans-Serif" font-size="10.00">DynExpModule::OutputPort</text>
<text text-anchor="middle" x="1215" y="-285" font-family="Helvetica,sans-Serif" font-size="10.00">WriterParams</text>
</a>
</g>
</g>
<!-- Node44&#45;&gt;Node49 -->
<g id="edge39_Node000044_Node000049" class="edge">
<title>Node44&#45;&gt;Node49</title>
<g id="a_edge39_Node000044_Node000049"><a xlink:title=" ">
<path fill="none" stroke="#63b8ff" d="M1086.46,-293C1104.47,-293 1123.16,-293 1140.49,-293"/>
<polygon fill="#63b8ff" stroke="#63b8ff" points="1086.24,-289.5 1076.24,-293 1086.24,-296.5 1086.24,-289.5"/>
</a>
</g>
</g>
<!-- Node50 -->
<g id="Node000050" class="node">
<title>Node50</title>
<g id="a_Node000050"><a xlink:href="classDynExpModule_1_1SignalDesignerParams.html" target="_top" xlink:title=" ">
<polygon fill="white" stroke="#666666" points="1300,-260 1130,-260 1130,-230 1300,-230 1300,-260"/>
<text text-anchor="start" x="1138" y="-248" font-family="Helvetica,sans-Serif" font-size="10.00">DynExpModule::SignalDesigner</text>
<text text-anchor="middle" x="1215" y="-237" font-family="Helvetica,sans-Serif" font-size="10.00">Params</text>
</a>
</g>
</g>
<!-- Node44&#45;&gt;Node50 -->
<g id="edge40_Node000044_Node000050" class="edge">
<title>Node44&#45;&gt;Node50</title>
<g id="a_edge40_Node000044_Node000050"><a xlink:title=" ">
<path fill="none" stroke="#63b8ff" d="M1054.82,-281.51C1066.82,-279.1 1079.33,-276.53 1091,-274 1110.94,-269.68 1132.63,-264.67 1152.16,-260.04"/>
<polygon fill="#63b8ff" stroke="#63b8ff" points="1054.02,-278.1 1044.9,-283.48 1055.39,-284.96 1054.02,-278.1"/>
</a>
</g>
</g>
<!-- Node51 -->
<g id="Node000051" class="node">
<title>Node51</title>
<g id="a_Node000051"><a xlink:href="classDynExpModule_1_1SignalPlotterParams.html" target="_top" xlink:title=" ">
<polygon fill="white" stroke="#666666" points="1294,-212 1136,-212 1136,-182 1294,-182 1294,-212"/>
<text text-anchor="start" x="1144" y="-200" font-family="Helvetica,sans-Serif" font-size="10.00">DynExpModule::SignalPlotter</text>
<text text-anchor="middle" x="1215" y="-189" font-family="Helvetica,sans-Serif" font-size="10.00">Params</text>
</a>
</g>
</g>
<!-- Node44&#45;&gt;Node51 -->
<g id="edge41_Node000044_Node000051" class="edge">
<title>Node44&#45;&gt;Node51</title>
<g id="a_edge41_Node000044_Node000051"><a xlink:title=" ">
<path fill="none" stroke="#63b8ff" d="M1081.58,-279.37C1084.85,-277.77 1088.01,-275.98 1091,-274 1114.74,-258.28 1103.85,-237.58 1127,-221 1131.84,-217.53 1137.16,-214.57 1142.71,-212.03"/>
<polygon fill="#63b8ff" stroke="#63b8ff" points="1079.92,-276.28 1072.11,-283.44 1082.68,-282.71 1079.92,-276.28"/>
</a>
</g>
</g>
<!-- Node52 -->
<g id="Node000052" class="node">
<title>Node52</title>
<g id="a_Node000052"><a xlink:href="classDynExpModule_1_1SpectrumViewer_1_1SpectrumViewerParams.html" target="_top" xlink:title=" ">
<polygon fill="white" stroke="#666666" points="1303,-164 1127,-164 1127,-134 1303,-134 1303,-164"/>
<text text-anchor="start" x="1135" y="-152" font-family="Helvetica,sans-Serif" font-size="10.00">DynExpModule::SpectrumViewer</text>
<text text-anchor="middle" x="1215" y="-141" font-family="Helvetica,sans-Serif" font-size="10.00">::SpectrumViewerParams</text>
</a>
</g>
</g>
<!-- Node44&#45;&gt;Node52 -->
<g id="edge42_Node000044_Node000052" class="edge">
<title>Node44&#45;&gt;Node52</title>
<g id="a_edge42_Node000044_Node000052"><a xlink:title=" ">
<path fill="none" stroke="#63b8ff" d="M1084.79,-278.7C1086.95,-277.26 1089.03,-275.7 1091,-274 1127.08,-242.87 1092.09,-205.44 1127,-173 1130.67,-169.59 1134.79,-166.65 1139.17,-164.13"/>
<polygon fill="#63b8ff" stroke="#63b8ff" points="1083.02,-275.68 1076.04,-283.65 1086.47,-281.77 1083.02,-275.68"/>
</a>
</g>
</g>
<!-- Node53 -->
<g id="Node000053" class="node">
<title>Node53</title>
<g id="a_Node000053"><a xlink:href="classDynExpModule_1_1Stage1DParams.html" target="_top" xlink:title=" ">
<polygon fill="white" stroke="#666666" points="1301.5,-115.5 1128.5,-115.5 1128.5,-96.5 1301.5,-96.5 1301.5,-115.5"/>
<text text-anchor="middle" x="1215" y="-103.5" font-family="Helvetica,sans-Serif" font-size="10.00">DynExpModule::Stage1DParams</text>
</a>
</g>
</g>
<!-- Node44&#45;&gt;Node53 -->
<g id="edge43_Node000044_Node000053" class="edge">
<title>Node44&#45;&gt;Node53</title>
<g id="a_edge43_Node000044_Node000053"><a xlink:title=" ">
<path fill="none" stroke="#63b8ff" d="M1084.85,-279.1C1087.01,-277.55 1089.07,-275.85 1091,-274 1140.17,-226.84 1078.3,-172.64 1127,-125 1130.87,-121.22 1135.3,-118.11 1140.08,-115.57"/>
<polygon fill="#63b8ff" stroke="#63b8ff" points="1082.82,-276.24 1076.06,-284.4 1086.43,-282.24 1082.82,-276.24"/>
</a>
</g>
</g>
<!-- Node54 -->
<g id="Node000054" class="node">
<title>Node54</title>
<g id="a_Node000054"><a xlink:href="classDynExpModule_1_1Trajectory1DParams.html" target="_top" xlink:title=" ">
<polygon fill="white" stroke="#666666" points="1290,-78 1140,-78 1140,-48 1290,-48 1290,-78"/>
<text text-anchor="start" x="1148" y="-66" font-family="Helvetica,sans-Serif" font-size="10.00">DynExpModule::Trajectory1</text>
<text text-anchor="middle" x="1215" y="-55" font-family="Helvetica,sans-Serif" font-size="10.00">DParams</text>
</a>
</g>
</g>
<!-- Node44&#45;&gt;Node54 -->
<g id="edge44_Node000044_Node000054" class="edge">
<title>Node44&#45;&gt;Node54</title>
<g id="a_edge44_Node000044_Node000054"><a xlink:title=" ">
<path fill="none" stroke="#63b8ff" d="M1084.97,-279.22C1087.09,-277.63 1089.11,-275.9 1091,-274 1150.69,-214 1069.56,-149.16 1127,-87 1130.72,-82.97 1135.05,-79.6 1139.75,-76.77"/>
<polygon fill="#63b8ff" stroke="#63b8ff" points="1082.92,-276.37 1076.28,-284.63 1086.62,-282.31 1082.92,-276.37"/>
</a>
</g>
</g>
<!-- Node55 -->
<g id="Node000055" class="node">
<title>Node55</title>
<g id="a_Node000055"><a xlink:href="classDynExpModule_1_1Widefield_1_1WidefieldMicroscopeParams.html" target="_top" xlink:title=" ">
<polygon fill="white" stroke="#666666" points="1295,-30 1135,-30 1135,0 1295,0 1295,-30"/>
<text text-anchor="start" x="1143" y="-18" font-family="Helvetica,sans-Serif" font-size="10.00">DynExpModule::Widefield</text>
<text text-anchor="middle" x="1215" y="-7" font-family="Helvetica,sans-Serif" font-size="10.00">::WidefieldMicroscopeParams</text>
</a>
</g>
</g>
<!-- Node44&#45;&gt;Node55 -->
<g id="edge45_Node000044_Node000055" class="edge">
<title>Node44&#45;&gt;Node55</title>
<g id="a_edge45_Node000044_Node000055"><a xlink:title=" ">
<path fill="none" stroke="#63b8ff" d="M1084.89,-279.45C1087.05,-277.8 1089.1,-275.99 1091,-274 1164.08,-197.68 1056.79,-117.96 1127,-39 1130.02,-35.6 1133.47,-32.67 1137.22,-30.14"/>
<polygon fill="#63b8ff" stroke="#63b8ff" points="1082.61,-276.75 1076.02,-285.04 1086.34,-282.67 1082.61,-276.75"/>
</a>
</g>
</g>
</g>
</svg>
