<?xml version="1.0" encoding="UTF-8" standalone="no"?>
<!DOCTYPE svg PUBLIC "-//W3C//DTD SVG 1.1//EN"
 "http://www.w3.org/Graphics/SVG/1.1/DTD/svg11.dtd">
<!-- Generated by graphviz version 2.43.0 (0)
 -->
<!-- Title: DynExpInstr::FunctionGeneratorTasks::ExitTask Pages: 1 -->
<svg width="1311pt" height="235pt"
 viewBox="0.00 0.00 1311.00 235.00" xmlns="http://www.w3.org/2000/svg" xmlns:xlink="http://www.w3.org/1999/xlink">
<g id="graph0" class="graph" transform="scale(1 1) rotate(0) translate(4 231)">
<title>DynExpInstr::FunctionGeneratorTasks::ExitTask</title>
<polygon fill="white" stroke="transparent" points="-4,4 -4,-231 1307,-231 1307,4 -4,4"/>
<!-- Node1 -->
<g id="node1" class="node">
<title>Node1</title>
<g id="a_node1"><a xlink:title="Defines a task for deinitializing an instrument within an instrument inheritance hierarchy....">
<polygon fill="#bfbfbf" stroke="black" points="533,-98.5 533,-128.5 705,-128.5 705,-98.5 533,-98.5"/>
<text text-anchor="start" x="541" y="-116.5" font-family="Helvetica,sans-Serif" font-size="10.00">DynExpInstr::FunctionGenerator</text>
<text text-anchor="middle" x="619" y="-105.5" font-family="Helvetica,sans-Serif" font-size="10.00">Tasks::ExitTask</text>
</a>
</g>
</g>
<!-- Node5 -->
<g id="node5" class="node">
<title>Node5</title>
<g id="a_node5"><a xlink:href="classDynExpInstr_1_1DummyDataStreamInstrumentTasks_1_1ExitTask.html" target="_top" xlink:title=" ">
<polygon fill="white" stroke="black" points="742.5,-196.5 742.5,-226.5 921.5,-226.5 921.5,-196.5 742.5,-196.5"/>
<text text-anchor="start" x="750.5" y="-214.5" font-family="Helvetica,sans-Serif" font-size="10.00">DynExpInstr::DummyDataStream</text>
<text text-anchor="middle" x="832" y="-203.5" font-family="Helvetica,sans-Serif" font-size="10.00">InstrumentTasks::ExitTask</text>
</a>
</g>
</g>
<!-- Node1&#45;&gt;Node5 -->
<g id="edge4" class="edge">
<title>Node1&#45;&gt;Node5</title>
<path fill="none" stroke="midnightblue" d="M649.45,-134.4C673.23,-150.48 708.04,-172.29 741,-186.5 749.64,-190.22 758.98,-193.54 768.27,-196.45"/>
<polygon fill="midnightblue" stroke="midnightblue" points="651.13,-131.31 640.91,-128.54 647.18,-137.08 651.13,-131.31"/>
</g>
<!-- Node6 -->
<g id="node6" class="node">
<title>Node6</title>
<g id="a_node6"><a xlink:href="classDynExpInstr_1_1OutputPortTasks_1_1ExitTask.html" target="_top" xlink:title="Defines a task for deinitializing an instrument within an instrument inheritance hierarchy....">
<polygon fill="white" stroke="black" points="751.5,-147.5 751.5,-177.5 912.5,-177.5 912.5,-147.5 751.5,-147.5"/>
<text text-anchor="start" x="759.5" y="-165.5" font-family="Helvetica,sans-Serif" font-size="10.00">DynExpInstr::OutputPortTasks</text>
<text text-anchor="middle" x="832" y="-154.5" font-family="Helvetica,sans-Serif" font-size="10.00">::ExitTask</text>
</a>
</g>
</g>
<!-- Node1&#45;&gt;Node6 -->
<g id="edge5" class="edge">
<title>Node1&#45;&gt;Node6</title>
<path fill="none" stroke="midnightblue" d="M694.63,-130.83C718.06,-136.27 743.71,-142.23 766.38,-147.49"/>
<polygon fill="midnightblue" stroke="midnightblue" points="695.27,-127.39 684.74,-128.53 693.69,-134.21 695.27,-127.39"/>
</g>
<!-- Node11 -->
<g id="node11" class="node">
<title>Node11</title>
<g id="a_node11"><a xlink:href="classDynExpInstr_1_1RS__SMB100BTasks_1_1ExitTask.html" target="_top" xlink:title=" ">
<polygon fill="white" stroke="black" points="745.5,-98.5 745.5,-128.5 918.5,-128.5 918.5,-98.5 745.5,-98.5"/>
<text text-anchor="start" x="753.5" y="-116.5" font-family="Helvetica,sans-Serif" font-size="10.00">DynExpInstr::RS_SMB100BTasks</text>
<text text-anchor="middle" x="832" y="-105.5" font-family="Helvetica,sans-Serif" font-size="10.00">::ExitTask</text>
</a>
</g>
</g>
<!-- Node1&#45;&gt;Node11 -->
<g id="edge10" class="edge">
<title>Node1&#45;&gt;Node11</title>
<path fill="none" stroke="midnightblue" d="M715.23,-113.5C725.31,-113.5 735.51,-113.5 745.47,-113.5"/>
<polygon fill="midnightblue" stroke="midnightblue" points="715.21,-110 705.21,-113.5 715.21,-117 715.21,-110"/>
</g>
<!-- Node12 -->
<g id="node12" class="node">
<title>Node12</title>
<g id="a_node12"><a xlink:href="classDynExpInstr_1_1RS__SMC100ATasks_1_1ExitTask.html" target="_top" xlink:title=" ">
<polygon fill="white" stroke="black" points="745.5,-49.5 745.5,-79.5 918.5,-79.5 918.5,-49.5 745.5,-49.5"/>
<text text-anchor="start" x="753.5" y="-67.5" font-family="Helvetica,sans-Serif" font-size="10.00">DynExpInstr::RS_SMC100ATasks</text>
<text text-anchor="middle" x="832" y="-56.5" font-family="Helvetica,sans-Serif" font-size="10.00">::ExitTask</text>
</a>
</g>
</g>
<!-- Node1&#45;&gt;Node12 -->
<g id="edge11" class="edge">
<title>Node1&#45;&gt;Node12</title>
<path fill="none" stroke="midnightblue" d="M694.63,-96.17C718.06,-90.73 743.71,-84.77 766.38,-79.51"/>
<polygon fill="midnightblue" stroke="midnightblue" points="693.69,-92.79 684.74,-98.47 695.27,-99.61 693.69,-92.79"/>
</g>
<!-- Node13 -->
<g id="node13" class="node">
<title>Node13</title>
<g id="a_node13"><a xlink:href="classDynExpInstr_1_1SwabianInstrumentsPulseStreamerTasks_1_1ExitTask.html" target="_top" xlink:title=" ">
<polygon fill="white" stroke="black" points="741,-0.5 741,-30.5 923,-30.5 923,-0.5 741,-0.5"/>
<text text-anchor="start" x="749" y="-18.5" font-family="Helvetica,sans-Serif" font-size="10.00">DynExpInstr::SwabianInstruments</text>
<text text-anchor="middle" x="832" y="-7.5" font-family="Helvetica,sans-Serif" font-size="10.00">PulseStreamerTasks::ExitTask</text>
</a>
</g>
</g>
<!-- Node1&#45;&gt;Node13 -->
<g id="edge12" class="edge">
<title>Node1&#45;&gt;Node13</title>
<path fill="none" stroke="midnightblue" d="M648.62,-92.71C672.37,-76.29 707.54,-53.84 741,-39.5 748.73,-36.19 757.03,-33.23 765.36,-30.62"/>
<polygon fill="midnightblue" stroke="midnightblue" points="646.6,-89.86 640.42,-98.46 650.62,-95.59 646.6,-89.86"/>
</g>
<!-- Node2 -->
<g id="node2" class="node">
<title>Node2</title>
<g id="a_node2"><a xlink:href="classDynExpInstr_1_1DataStreamInstrumentTasks_1_1ExitTask.html" target="_top" xlink:title="Defines a task for deinitializing an instrument within an instrument inheritance hierarchy....">
<polygon fill="white" stroke="black" points="303,-98.5 303,-128.5 497,-128.5 497,-98.5 303,-98.5"/>
<text text-anchor="start" x="311" y="-116.5" font-family="Helvetica,sans-Serif" font-size="10.00">DynExpInstr::DataStreamInstrument</text>
<text text-anchor="middle" x="400" y="-105.5" font-family="Helvetica,sans-Serif" font-size="10.00">Tasks::ExitTask</text>
</a>
</g>
</g>
<!-- Node2&#45;&gt;Node1 -->
<g id="edge1" class="edge">
<title>Node2&#45;&gt;Node1</title>
<path fill="none" stroke="midnightblue" d="M507.21,-113.5C515.81,-113.5 524.43,-113.5 532.86,-113.5"/>
<polygon fill="midnightblue" stroke="midnightblue" points="507.13,-110 497.13,-113.5 507.13,-117 507.13,-110"/>
</g>
<!-- Node3 -->
<g id="node3" class="node">
<title>Node3</title>
<g id="a_node3"><a xlink:href="classDynExp_1_1ExitTaskBase.html" target="_top" xlink:title="Defines a task for deinitializing an instrument within an instrument inheritance hierarchy....">
<polygon fill="white" stroke="black" points="142,-104 142,-123 267,-123 267,-104 142,-104"/>
<text text-anchor="middle" x="204.5" y="-111" font-family="Helvetica,sans-Serif" font-size="10.00">DynExp::ExitTaskBase</text>
</a>
</g>
</g>
<!-- Node3&#45;&gt;Node2 -->
<g id="edge2" class="edge">
<title>Node3&#45;&gt;Node2</title>
<path fill="none" stroke="midnightblue" d="M277.3,-113.5C285.67,-113.5 294.29,-113.5 302.92,-113.5"/>
<polygon fill="midnightblue" stroke="midnightblue" points="277.26,-110 267.26,-113.5 277.26,-117 277.26,-110"/>
</g>
<!-- Node4 -->
<g id="node4" class="node">
<title>Node4</title>
<g id="a_node4"><a xlink:href="classDynExp_1_1TaskBase.html" target="_top" xlink:title="Base class for all tasks being processed by instruments. The class must not contain public virtual fu...">
<polygon fill="white" stroke="black" points="0,-104 0,-123 106,-123 106,-104 0,-104"/>
<text text-anchor="middle" x="53" y="-111" font-family="Helvetica,sans-Serif" font-size="10.00">DynExp::TaskBase</text>
</a>
</g>
</g>
<!-- Node4&#45;&gt;Node3 -->
<g id="edge3" class="edge">
<title>Node4&#45;&gt;Node3</title>
<path fill="none" stroke="midnightblue" d="M116.38,-113.5C124.77,-113.5 133.37,-113.5 141.75,-113.5"/>
<polygon fill="midnightblue" stroke="midnightblue" points="116.29,-110 106.29,-113.5 116.29,-117 116.29,-110"/>
</g>
<!-- Node7 -->
<g id="node7" class="node">
<title>Node7</title>
<g id="a_node7"><a xlink:href="classDynExpInstr_1_1AnalogOutTasks_1_1ExitTask.html" target="_top" xlink:title="Defines a task for deinitializing an instrument within an instrument inheritance hierarchy....">
<polygon fill="white" stroke="black" points="959,-171.5 959,-201.5 1119,-201.5 1119,-171.5 959,-171.5"/>
<text text-anchor="start" x="967" y="-189.5" font-family="Helvetica,sans-Serif" font-size="10.00">DynExpInstr::AnalogOutTasks</text>
<text text-anchor="middle" x="1039" y="-178.5" font-family="Helvetica,sans-Serif" font-size="10.00">::ExitTask</text>
</a>
</g>
</g>
<!-- Node6&#45;&gt;Node7 -->
<g id="edge6" class="edge">
<title>Node6&#45;&gt;Node7</title>
<path fill="none" stroke="midnightblue" d="M922.61,-172.99C934.67,-174.4 946.97,-175.84 958.83,-177.23"/>
<polygon fill="midnightblue" stroke="midnightblue" points="922.89,-169.5 912.55,-171.81 922.08,-176.45 922.89,-169.5"/>
</g>
<!-- Node9 -->
<g id="node9" class="node">
<title>Node9</title>
<g id="a_node9"><a xlink:href="classDynExpInstr_1_1DigitalOutTasks_1_1ExitTask.html" target="_top" xlink:title="Defines a task for deinitializing an instrument within an instrument inheritance hierarchy....">
<polygon fill="white" stroke="black" points="960,-122.5 960,-152.5 1118,-152.5 1118,-122.5 960,-122.5"/>
<text text-anchor="start" x="968" y="-140.5" font-family="Helvetica,sans-Serif" font-size="10.00">DynExpInstr::DigitalOutTasks</text>
<text text-anchor="middle" x="1039" y="-129.5" font-family="Helvetica,sans-Serif" font-size="10.00">::ExitTask</text>
</a>
</g>
</g>
<!-- Node6&#45;&gt;Node9 -->
<g id="edge8" class="edge">
<title>Node6&#45;&gt;Node9</title>
<path fill="none" stroke="midnightblue" d="M922.83,-151.54C935.16,-150.04 947.74,-148.51 959.84,-147.03"/>
<polygon fill="midnightblue" stroke="midnightblue" points="922.05,-148.11 912.55,-152.8 922.9,-155.06 922.05,-148.11"/>
</g>
<!-- Node8 -->
<g id="node8" class="node">
<title>Node8</title>
<g id="a_node8"><a xlink:href="classDynExpInstr_1_1NIDAQAnalogOutTasks_1_1ExitTask.html" target="_top" xlink:title=" ">
<polygon fill="white" stroke="black" points="1155,-171.5 1155,-201.5 1303,-201.5 1303,-171.5 1155,-171.5"/>
<text text-anchor="start" x="1163" y="-189.5" font-family="Helvetica,sans-Serif" font-size="10.00">DynExpInstr::NIDAQAnalog</text>
<text text-anchor="middle" x="1229" y="-178.5" font-family="Helvetica,sans-Serif" font-size="10.00">OutTasks::ExitTask</text>
</a>
</g>
</g>
<!-- Node7&#45;&gt;Node8 -->
<g id="edge7" class="edge">
<title>Node7&#45;&gt;Node8</title>
<path fill="none" stroke="midnightblue" d="M1129.23,-186.5C1137.83,-186.5 1146.48,-186.5 1154.9,-186.5"/>
<polygon fill="midnightblue" stroke="midnightblue" points="1129.18,-183 1119.18,-186.5 1129.18,-190 1129.18,-183"/>
</g>
<!-- Node10 -->
<g id="node10" class="node">
<title>Node10</title>
<g id="a_node10"><a xlink:href="classDynExpInstr_1_1NIDAQDigitalOutTasks_1_1ExitTask.html" target="_top" xlink:title=" ">
<polygon fill="white" stroke="black" points="1156,-122.5 1156,-152.5 1302,-152.5 1302,-122.5 1156,-122.5"/>
<text text-anchor="start" x="1164" y="-140.5" font-family="Helvetica,sans-Serif" font-size="10.00">DynExpInstr::NIDAQDigital</text>
<text text-anchor="middle" x="1229" y="-129.5" font-family="Helvetica,sans-Serif" font-size="10.00">OutTasks::ExitTask</text>
</a>
</g>
</g>
<!-- Node9&#45;&gt;Node10 -->
<g id="edge9" class="edge">
<title>Node9&#45;&gt;Node10</title>
<path fill="none" stroke="midnightblue" d="M1128.13,-137.5C1137.42,-137.5 1146.79,-137.5 1155.86,-137.5"/>
<polygon fill="midnightblue" stroke="midnightblue" points="1128.1,-134 1118.1,-137.5 1128.1,-141 1128.1,-134"/>
</g>
</g>
</svg>
