<?xml version="1.0" encoding="UTF-8" standalone="no"?>
<!DOCTYPE svg PUBLIC "-//W3C//DTD SVG 1.1//EN"
 "http://www.w3.org/Graphics/SVG/1.1/DTD/svg11.dtd">
<!-- Generated by graphviz version 2.43.0 (0)
 -->
<!-- Title: DynExpInstr::NetworkDataStreamInstrument Pages: 1 -->
<svg width="672pt" height="71pt"
 viewBox="0.00 0.00 672.00 71.00" xmlns="http://www.w3.org/2000/svg" xmlns:xlink="http://www.w3.org/1999/xlink">
<g id="graph0" class="graph" transform="scale(1 1) rotate(0) translate(4 67)">
<title>DynExpInstr::NetworkDataStreamInstrument</title>
<!-- Node1 -->
<g id="Node000001" class="node">
<title>Node1</title>
<g id="a_Node000001"><a xlink:title="Explicit instantiation of derivable class NetworkDataStreamInstrumentT to create the network data str...">
<polygon fill="#999999" stroke="#666666" points="664,-46.5 518,-46.5 518,-16.5 664,-16.5 664,-46.5"/>
<text text-anchor="start" x="526" y="-34.5" font-family="Helvetica,sans-Serif" font-size="10.00">DynExpInstr::NetworkData</text>
<text text-anchor="middle" x="591" y="-23.5" font-family="Helvetica,sans-Serif" font-size="10.00">StreamInstrument</text>
</a>
</g>
</g>
<!-- Node2 -->
<g id="Node000002" class="node">
<title>Node2</title>
<g id="a_Node000002"><a xlink:href="classDynExpInstr_1_1NetworkDataStreamInstrumentT.html" target="_top" xlink:title=" ">
<polygon fill="white" stroke="#666666" points="482,-63 295,-63 295,0 482,0 482,-63"/>
<text text-anchor="start" x="303" y="-51" font-family="Helvetica,sans-Serif" font-size="10.00">DynExpInstr::NetworkData</text>
<text text-anchor="start" x="303" y="-40" font-family="Helvetica,sans-Serif" font-size="10.00">StreamInstrumentT&lt; DataStream</text>
<text text-anchor="start" x="303" y="-29" font-family="Helvetica,sans-Serif" font-size="10.00">Instrument, 0, DynExpProto</text>
<text text-anchor="start" x="303" y="-18" font-family="Helvetica,sans-Serif" font-size="10.00">::NetworkDataStreamInstrument</text>
<text text-anchor="middle" x="388.5" y="-7" font-family="Helvetica,sans-Serif" font-size="10.00">::NetworkDataStreamInstrument &gt;</text>
</a>
</g>
</g>
<!-- Node2&#45;&gt;Node1 -->
<g id="edge1_Node000001_Node000002" class="edge">
<title>Node2&#45;&gt;Node1</title>
<g id="a_edge1_Node000001_Node000002"><a xlink:title=" ">
<path fill="none" stroke="#63b8ff" d="M492.27,-31.5C500.92,-31.5 509.54,-31.5 517.88,-31.5"/>
<polygon fill="#63b8ff" stroke="#63b8ff" points="492.12,-28 482.12,-31.5 492.12,-35 492.12,-28"/>
</a>
</g>
</g>
<!-- Node3 -->
<g id="Node000003" class="node">
<title>Node3</title>
<g id="a_Node000003"><a xlink:href="classDynExpInstr_1_1gRPCInstrument.html" target="_top" xlink:title="Meta instrument template for transforming meta instruments into network instruments,...">
<polygon fill="white" stroke="#666666" points="259,-46.5 98,-46.5 98,-16.5 259,-16.5 259,-46.5"/>
<text text-anchor="start" x="106" y="-34.5" font-family="Helvetica,sans-Serif" font-size="10.00">DynExpInstr::gRPCInstrument</text>
<text text-anchor="middle" x="178.5" y="-23.5" font-family="Helvetica,sans-Serif" font-size="10.00">&lt; BaseInstr,, gRPCStubs &gt;</text>
</a>
</g>
</g>
<!-- Node3&#45;&gt;Node2 -->
<g id="edge2_Node000002_Node000003" class="edge">
<title>Node3&#45;&gt;Node2</title>
<g id="a_edge2_Node000002_Node000003"><a xlink:title=" ">
<path fill="none" stroke="#63b8ff" d="M269.26,-31.5C277.72,-31.5 286.31,-31.5 294.8,-31.5"/>
<polygon fill="#63b8ff" stroke="#63b8ff" points="269.03,-28 259.03,-31.5 269.03,-35 269.03,-28"/>
</a>
</g>
</g>
<!-- Node4 -->
<g id="Node000004" class="node">
<title>Node4</title>
<g id="a_Node000004"><a xlink:title=" ">
<polygon fill="white" stroke="#666666" points="62,-41 0,-41 0,-22 62,-22 62,-41"/>
<text text-anchor="middle" x="31" y="-29" font-family="Helvetica,sans-Serif" font-size="10.00">BaseInstr</text>
</a>
</g>
</g>
<!-- Node4&#45;&gt;Node3 -->
<g id="edge3_Node000003_Node000004" class="edge">
<title>Node4&#45;&gt;Node3</title>
<g id="a_edge3_Node000003_Node000004"><a xlink:title=" ">
<path fill="none" stroke="#63b8ff" d="M72.28,-31.5C80.32,-31.5 89.01,-31.5 97.85,-31.5"/>
<polygon fill="#63b8ff" stroke="#63b8ff" points="72.15,-28 62.15,-31.5 72.15,-35 72.15,-28"/>
</a>
</g>
</g>
</g>
</svg>
