<?xml version="1.0" encoding="UTF-8" standalone="no"?>
<!DOCTYPE svg PUBLIC "-//W3C//DTD SVG 1.1//EN"
 "http://www.w3.org/Graphics/SVG/1.1/DTD/svg11.dtd">
<!-- Generated by graphviz version 2.43.0 (0)
 -->
<!-- Title: DynExpInstr::PositionerStageData Pages: 1 -->
<svg width="923pt" height="113pt"
 viewBox="0.00 0.00 923.00 112.50" xmlns="http://www.w3.org/2000/svg" xmlns:xlink="http://www.w3.org/1999/xlink">
<g id="graph0" class="graph" transform="scale(1 1) rotate(0) translate(4 108.5)">
<title>DynExpInstr::PositionerStageData</title>
<!-- Node1 -->
<g id="Node000001" class="node">
<title>Node1</title>
<g id="a_Node000001"><a xlink:title="Data class for PositionerStage.">
<polygon fill="#999999" stroke="#666666" points="702,-56 520,-56 520,-37 702,-37 702,-56"/>
<text text-anchor="middle" x="611" y="-44" font-family="Helvetica,sans-Serif" font-size="10.00">DynExpInstr::PositionerStageData</text>
</a>
</g>
</g>
<!-- Node5 -->
<g id="Node000005" class="node">
<title>Node5</title>
<g id="a_Node000005"><a xlink:href="classDynExpInstr_1_1NenionLeakvalveF3Data.html" target="_top" xlink:title=" ">
<polygon fill="white" stroke="#666666" points="910,-104.5 743,-104.5 743,-74.5 910,-74.5 910,-104.5"/>
<text text-anchor="start" x="751" y="-92.5" font-family="Helvetica,sans-Serif" font-size="10.00">DynExpInstr::NenionLeakvalve</text>
<text text-anchor="middle" x="826.5" y="-81.5" font-family="Helvetica,sans-Serif" font-size="10.00">F3Data</text>
</a>
</g>
</g>
<!-- Node1&#45;&gt;Node5 -->
<g id="edge4_Node000001_Node000005" class="edge">
<title>Node1&#45;&gt;Node5</title>
<g id="a_edge4_Node000001_Node000005"><a xlink:title=" ">
<path fill="none" stroke="#63b8ff" d="M669.46,-58.07C694.53,-63.12 724.25,-69.11 750.99,-74.49"/>
<polygon fill="#63b8ff" stroke="#63b8ff" points="669.88,-54.59 659.38,-56.04 668.49,-61.45 669.88,-54.59"/>
</a>
</g>
</g>
<!-- Node6 -->
<g id="Node000006" class="node">
<title>Node6</title>
<g id="a_Node000006"><a xlink:href="classDynExpInstr_1_1PI__C__862StageData.html" target="_top" xlink:title=" ">
<polygon fill="white" stroke="#666666" points="915,-56 738,-56 738,-37 915,-37 915,-56"/>
<text text-anchor="middle" x="826.5" y="-44" font-family="Helvetica,sans-Serif" font-size="10.00">DynExpInstr::PI_C_862StageData</text>
</a>
</g>
</g>
<!-- Node1&#45;&gt;Node6 -->
<g id="edge5_Node000001_Node000006" class="edge">
<title>Node1&#45;&gt;Node6</title>
<g id="a_edge5_Node000001_Node000006"><a xlink:title=" ">
<path fill="none" stroke="#63b8ff" d="M712.27,-46.5C720.86,-46.5 729.5,-46.5 737.97,-46.5"/>
<polygon fill="#63b8ff" stroke="#63b8ff" points="712.23,-43 702.23,-46.5 712.23,-50 712.23,-43"/>
</a>
</g>
</g>
<!-- Node7 -->
<g id="Node000007" class="node">
<title>Node7</title>
<g id="a_Node000007"><a xlink:href="classDynExpInstr_1_1SmarActData.html" target="_top" xlink:title=" ">
<polygon fill="white" stroke="#666666" points="899.5,-19 753.5,-19 753.5,0 899.5,0 899.5,-19"/>
<text text-anchor="middle" x="826.5" y="-7" font-family="Helvetica,sans-Serif" font-size="10.00">DynExpInstr::SmarActData</text>
</a>
</g>
</g>
<!-- Node1&#45;&gt;Node7 -->
<g id="edge6_Node000001_Node000007" class="edge">
<title>Node1&#45;&gt;Node7</title>
<g id="a_edge6_Node000001_Node000007"><a xlink:title=" ">
<path fill="none" stroke="#63b8ff" d="M676.89,-35.25C706.74,-30.08 741.78,-24.01 770.33,-19.06"/>
<polygon fill="#63b8ff" stroke="#63b8ff" points="676.24,-31.82 666.98,-36.97 677.43,-38.71 676.24,-31.82"/>
</a>
</g>
</g>
<!-- Node2 -->
<g id="Node000002" class="node">
<title>Node2</title>
<g id="a_Node000002"><a xlink:href="classDynExp_1_1InstrumentDataBase.html" target="_top" xlink:title="Data structure to contain data which is synchronized in between different threads....">
<polygon fill="white" stroke="#666666" points="484,-56 323,-56 323,-37 484,-37 484,-56"/>
<text text-anchor="middle" x="403.5" y="-44" font-family="Helvetica,sans-Serif" font-size="10.00">DynExp::InstrumentDataBase</text>
</a>
</g>
</g>
<!-- Node2&#45;&gt;Node1 -->
<g id="edge1_Node000001_Node000002" class="edge">
<title>Node2&#45;&gt;Node1</title>
<g id="a_edge1_Node000001_Node000002"><a xlink:title=" ">
<path fill="none" stroke="#63b8ff" d="M494.41,-46.5C502.81,-46.5 511.32,-46.5 519.71,-46.5"/>
<polygon fill="#63b8ff" stroke="#63b8ff" points="494.25,-43 484.25,-46.5 494.25,-50 494.25,-43"/>
</a>
</g>
</g>
<!-- Node3 -->
<g id="Node000003" class="node">
<title>Node3</title>
<g id="a_Node000003"><a xlink:href="classUtil_1_1ISynchronizedPointerLockable.html" target="_top" xlink:title="Interface to allow synchronizing the access to derived classes between different threads by making th...">
<polygon fill="white" stroke="#666666" points="287,-61.5 144,-61.5 144,-31.5 287,-31.5 287,-61.5"/>
<text text-anchor="start" x="152" y="-49.5" font-family="Helvetica,sans-Serif" font-size="10.00">Util::ISynchronizedPointer</text>
<text text-anchor="middle" x="215.5" y="-38.5" font-family="Helvetica,sans-Serif" font-size="10.00">Lockable</text>
</a>
</g>
</g>
<!-- Node3&#45;&gt;Node2 -->
<g id="edge2_Node000002_Node000003" class="edge">
<title>Node3&#45;&gt;Node2</title>
<g id="a_edge2_Node000002_Node000003"><a xlink:title=" ">
<path fill="none" stroke="#63b8ff" d="M297.35,-46.5C305.84,-46.5 314.47,-46.5 322.94,-46.5"/>
<polygon fill="#63b8ff" stroke="#63b8ff" points="297.08,-43 287.08,-46.5 297.08,-50 297.08,-43"/>
</a>
</g>
</g>
<!-- Node4 -->
<g id="Node000004" class="node">
<title>Node4</title>
<g id="a_Node000004"><a xlink:href="classUtil_1_1INonCopyable.html" target="_top" xlink:title="Interface to delete copy constructor and copy assignment operator and thus make derived classes non&#45;c...">
<polygon fill="white" stroke="#666666" points="108,-56 0,-56 0,-37 108,-37 108,-56"/>
<text text-anchor="middle" x="54" y="-44" font-family="Helvetica,sans-Serif" font-size="10.00">Util::INonCopyable</text>
</a>
</g>
</g>
<!-- Node4&#45;&gt;Node3 -->
<g id="edge3_Node000003_Node000004" class="edge">
<title>Node4&#45;&gt;Node3</title>
<g id="a_edge3_Node000003_Node000004"><a xlink:title=" ">
<path fill="none" stroke="#63b8ff" d="M118.19,-46.5C126.58,-46.5 135.23,-46.5 143.74,-46.5"/>
<polygon fill="#63b8ff" stroke="#63b8ff" points="118.11,-43 108.11,-46.5 118.11,-50 118.11,-43"/>
</a>
</g>
</g>
</g>
</svg>
