<?xml version="1.0" encoding="UTF-8" standalone="no"?>
<!DOCTYPE svg PUBLIC "-//W3C//DTD SVG 1.1//EN"
 "http://www.w3.org/Graphics/SVG/1.1/DTD/svg11.dtd">
<!-- Generated by graphviz version 2.43.0 (0)
 -->
<!-- Title: DynExpInstr::DigitalOutParams Pages: 1 -->
<svg width="202pt" height="576pt"
 viewBox="0.00 0.00 202.00 576.00" xmlns="http://www.w3.org/2000/svg" xmlns:xlink="http://www.w3.org/1999/xlink">
<g id="graph0" class="graph" transform="scale(1 1) rotate(0) translate(4 572)">
<title>DynExpInstr::DigitalOutParams</title>
<polygon fill="white" stroke="transparent" points="-4,4 -4,-572 198,-572 198,4 -4,4"/>
<!-- Node1 -->
<g id="node1" class="node">
<title>Node1</title>
<g id="a_node1"><a xlink:title="Parameter class for DigitalOut.">
<polygon fill="#bfbfbf" stroke="black" points="13.5,-67.5 13.5,-86.5 180.5,-86.5 180.5,-67.5 13.5,-67.5"/>
<text text-anchor="middle" x="97" y="-74.5" font-family="Helvetica,sans-Serif" font-size="10.00">DynExpInstr::DigitalOutParams</text>
</a>
</g>
</g>
<!-- Node10 -->
<g id="node10" class="node">
<title>Node10</title>
<g id="a_node10"><a xlink:href="classDynExpInstr_1_1NIDAQDigitalOutParams.html" target="_top" xlink:title=" ">
<polygon fill="white" stroke="black" points="24,-0.5 24,-30.5 170,-30.5 170,-0.5 24,-0.5"/>
<text text-anchor="start" x="32" y="-18.5" font-family="Helvetica,sans-Serif" font-size="10.00">DynExpInstr::NIDAQDigital</text>
<text text-anchor="middle" x="97" y="-7.5" font-family="Helvetica,sans-Serif" font-size="10.00">OutParams</text>
</a>
</g>
</g>
<!-- Node1&#45;&gt;Node10 -->
<g id="edge9" class="edge">
<title>Node1&#45;&gt;Node10</title>
<path fill="none" stroke="midnightblue" d="M97,-57.23C97,-48.59 97,-38.5 97,-30.52"/>
<polygon fill="midnightblue" stroke="midnightblue" points="93.5,-57.48 97,-67.48 100.5,-57.48 93.5,-57.48"/>
</g>
<!-- Node2 -->
<g id="node2" class="node">
<title>Node2</title>
<g id="a_node2"><a xlink:href="classDynExpInstr_1_1OutputPortParams.html" target="_top" xlink:title="Parameter class for OutputPort.">
<polygon fill="white" stroke="black" points="12,-123.5 12,-142.5 182,-142.5 182,-123.5 12,-123.5"/>
<text text-anchor="middle" x="97" y="-130.5" font-family="Helvetica,sans-Serif" font-size="10.00">DynExpInstr::OutputPortParams</text>
</a>
</g>
</g>
<!-- Node2&#45;&gt;Node1 -->
<g id="edge1" class="edge">
<title>Node2&#45;&gt;Node1</title>
<path fill="none" stroke="midnightblue" d="M97,-112.8C97,-103.91 97,-93.78 97,-86.75"/>
<polygon fill="midnightblue" stroke="midnightblue" points="93.5,-113.08 97,-123.08 100.5,-113.08 93.5,-113.08"/>
</g>
<!-- Node3 -->
<g id="node3" class="node">
<title>Node3</title>
<g id="a_node3"><a xlink:href="classDynExpInstr_1_1FunctionGeneratorParams.html" target="_top" xlink:title="Parameter class for FunctionGenerator.">
<polygon fill="white" stroke="black" points="11,-179.5 11,-209.5 183,-209.5 183,-179.5 11,-179.5"/>
<text text-anchor="start" x="19" y="-197.5" font-family="Helvetica,sans-Serif" font-size="10.00">DynExpInstr::FunctionGenerator</text>
<text text-anchor="middle" x="97" y="-186.5" font-family="Helvetica,sans-Serif" font-size="10.00">Params</text>
</a>
</g>
</g>
<!-- Node3&#45;&gt;Node2 -->
<g id="edge2" class="edge">
<title>Node3&#45;&gt;Node2</title>
<path fill="none" stroke="midnightblue" d="M97,-169.29C97,-159.86 97,-149.65 97,-142.66"/>
<polygon fill="midnightblue" stroke="midnightblue" points="93.5,-169.4 97,-179.4 100.5,-169.4 93.5,-169.4"/>
</g>
<!-- Node4 -->
<g id="node4" class="node">
<title>Node4</title>
<g id="a_node4"><a xlink:href="classDynExpInstr_1_1DataStreamInstrumentParams.html" target="_top" xlink:title="Parameter class for DataStreamInstrument.">
<polygon fill="white" stroke="black" points="0,-246.5 0,-276.5 194,-276.5 194,-246.5 0,-246.5"/>
<text text-anchor="start" x="8" y="-264.5" font-family="Helvetica,sans-Serif" font-size="10.00">DynExpInstr::DataStreamInstrument</text>
<text text-anchor="middle" x="97" y="-253.5" font-family="Helvetica,sans-Serif" font-size="10.00">Params</text>
</a>
</g>
</g>
<!-- Node4&#45;&gt;Node3 -->
<g id="edge3" class="edge">
<title>Node4&#45;&gt;Node3</title>
<path fill="none" stroke="midnightblue" d="M97,-236.11C97,-227.15 97,-217.32 97,-209.58"/>
<polygon fill="midnightblue" stroke="midnightblue" points="93.5,-236.4 97,-246.4 100.5,-236.4 93.5,-236.4"/>
</g>
<!-- Node5 -->
<g id="node5" class="node">
<title>Node5</title>
<g id="a_node5"><a xlink:href="classDynExp_1_1InstrumentParamsBase.html" target="_top" xlink:title="Parameter class for InstrumentBase.">
<polygon fill="white" stroke="black" points="10.5,-313.5 10.5,-332.5 183.5,-332.5 183.5,-313.5 10.5,-313.5"/>
<text text-anchor="middle" x="97" y="-320.5" font-family="Helvetica,sans-Serif" font-size="10.00">DynExp::InstrumentParamsBase</text>
</a>
</g>
</g>
<!-- Node5&#45;&gt;Node4 -->
<g id="edge4" class="edge">
<title>Node5&#45;&gt;Node4</title>
<path fill="none" stroke="midnightblue" d="M97,-303.23C97,-294.59 97,-284.5 97,-276.52"/>
<polygon fill="midnightblue" stroke="midnightblue" points="93.5,-303.48 97,-313.48 100.5,-303.48 93.5,-303.48"/>
</g>
<!-- Node6 -->
<g id="node6" class="node">
<title>Node6</title>
<g id="a_node6"><a xlink:href="classDynExp_1_1RunnableObjectParams.html" target="_top" xlink:title="Parameter class for RunnableObject.">
<polygon fill="white" stroke="black" points="10.5,-369.5 10.5,-388.5 183.5,-388.5 183.5,-369.5 10.5,-369.5"/>
<text text-anchor="middle" x="97" y="-376.5" font-family="Helvetica,sans-Serif" font-size="10.00">DynExp::RunnableObjectParams</text>
</a>
</g>
</g>
<!-- Node6&#45;&gt;Node5 -->
<g id="edge5" class="edge">
<title>Node6&#45;&gt;Node5</title>
<path fill="none" stroke="midnightblue" d="M97,-358.8C97,-349.91 97,-339.78 97,-332.75"/>
<polygon fill="midnightblue" stroke="midnightblue" points="93.5,-359.08 97,-369.08 100.5,-359.08 93.5,-359.08"/>
</g>
<!-- Node7 -->
<g id="node7" class="node">
<title>Node7</title>
<g id="a_node7"><a xlink:href="classDynExp_1_1ParamsBase.html" target="_top" xlink:title="Abstract base class for object parameter classes. Each class derived from class Object must be accomp...">
<polygon fill="white" stroke="black" points="37,-425.5 37,-444.5 157,-444.5 157,-425.5 37,-425.5"/>
<text text-anchor="middle" x="97" y="-432.5" font-family="Helvetica,sans-Serif" font-size="10.00">DynExp::ParamsBase</text>
</a>
</g>
</g>
<!-- Node7&#45;&gt;Node6 -->
<g id="edge6" class="edge">
<title>Node7&#45;&gt;Node6</title>
<path fill="none" stroke="midnightblue" d="M97,-414.8C97,-405.91 97,-395.78 97,-388.75"/>
<polygon fill="midnightblue" stroke="midnightblue" points="93.5,-415.08 97,-425.08 100.5,-415.08 93.5,-415.08"/>
</g>
<!-- Node8 -->
<g id="node8" class="node">
<title>Node8</title>
<g id="a_node8"><a xlink:href="classUtil_1_1ISynchronizedPointerLockable.html" target="_top" xlink:title="Interface to allow synchronizing the access to derived classes between different threads by making th...">
<polygon fill="white" stroke="black" points="25.5,-481.5 25.5,-511.5 168.5,-511.5 168.5,-481.5 25.5,-481.5"/>
<text text-anchor="start" x="33.5" y="-499.5" font-family="Helvetica,sans-Serif" font-size="10.00">Util::ISynchronizedPointer</text>
<text text-anchor="middle" x="97" y="-488.5" font-family="Helvetica,sans-Serif" font-size="10.00">Lockable</text>
</a>
</g>
</g>
<!-- Node8&#45;&gt;Node7 -->
<g id="edge7" class="edge">
<title>Node8&#45;&gt;Node7</title>
<path fill="none" stroke="midnightblue" d="M97,-471.29C97,-461.86 97,-451.65 97,-444.66"/>
<polygon fill="midnightblue" stroke="midnightblue" points="93.5,-471.4 97,-481.4 100.5,-471.4 93.5,-471.4"/>
</g>
<!-- Node9 -->
<g id="node9" class="node">
<title>Node9</title>
<g id="a_node9"><a xlink:href="classUtil_1_1INonCopyable.html" target="_top" xlink:title="Interface to delete copy constructor and copy assignment operator and thus make derived classes non&#45;c...">
<polygon fill="white" stroke="black" points="43,-548.5 43,-567.5 151,-567.5 151,-548.5 43,-548.5"/>
<text text-anchor="middle" x="97" y="-555.5" font-family="Helvetica,sans-Serif" font-size="10.00">Util::INonCopyable</text>
</a>
</g>
</g>
<!-- Node9&#45;&gt;Node8 -->
<g id="edge8" class="edge">
<title>Node9&#45;&gt;Node8</title>
<path fill="none" stroke="midnightblue" d="M97,-538.23C97,-529.59 97,-519.5 97,-511.52"/>
<polygon fill="midnightblue" stroke="midnightblue" points="93.5,-538.48 97,-548.48 100.5,-538.48 93.5,-538.48"/>
</g>
</g>
</svg>
