<?xml version="1.0" encoding="UTF-8" standalone="no"?>
<!DOCTYPE svg PUBLIC "-//W3C//DTD SVG 1.1//EN"
 "http://www.w3.org/Graphics/SVG/1.1/DTD/svg11.dtd">
<!-- Generated by graphviz version 2.43.0 (0)
 -->
<!-- Title: DynExp::ModuleParamsBase Pages: 1 -->
<svg width="1500pt" height="717pt"
 viewBox="0.00 0.00 1500.00 717.00" xmlns="http://www.w3.org/2000/svg" xmlns:xlink="http://www.w3.org/1999/xlink">
<g id="graph0" class="graph" transform="scale(1 1) rotate(0) translate(4 713)">
<title>DynExp::ModuleParamsBase</title>
<!-- Node1 -->
<g id="Node000001" class="node">
<title>Node1</title>
<g id="a_Node000001"><a xlink:title="Parameter class for ModuleBase.">
<polygon fill="#999999" stroke="#666666" points="844,-235.5 688,-235.5 688,-216.5 844,-216.5 844,-235.5"/>
<text text-anchor="middle" x="766" y="-223.5" font-family="Helvetica,sans-Serif" font-size="10.00">DynExp::ModuleParamsBase</text>
</a>
</g>
</g>
<!-- Node6 -->
<g id="Node000006" class="node">
<title>Node6</title>
<g id="a_Node000006"><a xlink:href="classDynExpModule_1_1gRPCModuleParams.html" target="_top" xlink:title=" ">
<polygon fill="white" stroke="#666666" points="1054,-554 896,-554 896,-524 1054,-524 1054,-554"/>
<text text-anchor="start" x="904" y="-542" font-family="Helvetica,sans-Serif" font-size="10.00">DynExpModule::gRPCModule</text>
<text text-anchor="middle" x="975" y="-531" font-family="Helvetica,sans-Serif" font-size="10.00">Params&lt; gRPCServices... &gt;</text>
</a>
</g>
</g>
<!-- Node1&#45;&gt;Node6 -->
<g id="edge5_Node000001_Node000006" class="edge">
<title>Node1&#45;&gt;Node6</title>
<g id="a_edge5_Node000001_Node000006"><a xlink:title=" ">
<path fill="none" stroke="#63b8ff" d="M779.12,-244.33C816.53,-300.9 929.69,-472 964.02,-523.91"/>
<polygon fill="#63b8ff" stroke="#63b8ff" points="781.86,-242.12 773.42,-235.71 776.02,-245.98 781.86,-242.12"/>
</a>
</g>
</g>
<!-- Node14 -->
<g id="Node000014" class="node">
<title>Node14</title>
<g id="a_Node000014"><a xlink:href="classDynExp_1_1QModuleParamsBase.html" target="_top" xlink:title="Parameter class for QModuleBase.">
<polygon fill="white" stroke="#666666" points="1057,-278.5 893,-278.5 893,-259.5 1057,-259.5 1057,-278.5"/>
<text text-anchor="middle" x="975" y="-266.5" font-family="Helvetica,sans-Serif" font-size="10.00">DynExp::QModuleParamsBase</text>
</a>
</g>
</g>
<!-- Node1&#45;&gt;Node14 -->
<g id="edge13_Node000001_Node000014" class="edge">
<title>Node1&#45;&gt;Node14</title>
<g id="a_edge13_Node000001_Node000014"><a xlink:title=" ">
<path fill="none" stroke="#63b8ff" d="M821.06,-237.6C839.73,-241.57 860.77,-246.02 880,-250 895,-253.11 911.36,-256.44 926.16,-259.43"/>
<polygon fill="#63b8ff" stroke="#63b8ff" points="821.76,-234.17 811.25,-235.5 820.3,-241.01 821.76,-234.17"/>
</a>
</g>
</g>
<!-- Node26 -->
<g id="Node000026" class="node">
<title>Node26</title>
<g id="a_Node000026"><a xlink:href="classDynExpModule_1_1ArbitraryFunctionFromCSVParams.html" target="_top" xlink:title=" ">
<polygon fill="white" stroke="#666666" points="1065,-241 885,-241 885,-211 1065,-211 1065,-241"/>
<text text-anchor="start" x="893" y="-229" font-family="Helvetica,sans-Serif" font-size="10.00">DynExpModule::ArbitraryFunction</text>
<text text-anchor="middle" x="975" y="-218" font-family="Helvetica,sans-Serif" font-size="10.00">FromCSVParams</text>
</a>
</g>
</g>
<!-- Node1&#45;&gt;Node26 -->
<g id="edge25_Node000001_Node000026" class="edge">
<title>Node1&#45;&gt;Node26</title>
<g id="a_edge25_Node000001_Node000026"><a xlink:title=" ">
<path fill="none" stroke="#63b8ff" d="M854.18,-226C864.37,-226 874.78,-226 884.99,-226"/>
<polygon fill="#63b8ff" stroke="#63b8ff" points="854.08,-222.5 844.08,-226 854.08,-229.5 854.08,-222.5"/>
</a>
</g>
</g>
<!-- Node27 -->
<g id="Node000027" class="node">
<title>Node27</title>
<g id="a_Node000027"><a xlink:href="classDynExpModule_1_1StreamManipulatorParams.html" target="_top" xlink:title="Parameter class for StreamManipulator.">
<polygon fill="white" stroke="#666666" points="1070,-193 880,-193 880,-163 1070,-163 1070,-193"/>
<text text-anchor="start" x="888" y="-181" font-family="Helvetica,sans-Serif" font-size="10.00">DynExpModule::StreamManipulator</text>
<text text-anchor="middle" x="975" y="-170" font-family="Helvetica,sans-Serif" font-size="10.00">Params</text>
</a>
</g>
</g>
<!-- Node1&#45;&gt;Node27 -->
<g id="edge26_Node000001_Node000027" class="edge">
<title>Node1&#45;&gt;Node27</title>
<g id="a_edge26_Node000001_Node000027"><a xlink:title=" ">
<path fill="none" stroke="#63b8ff" d="M818.18,-214.13C845.63,-207.77 879.74,-199.86 909.04,-193.06"/>
<polygon fill="#63b8ff" stroke="#63b8ff" points="817.34,-210.73 808.39,-216.4 818.92,-217.55 817.34,-210.73"/>
</a>
</g>
</g>
<!-- Node28 -->
<g id="Node000028" class="node">
<title>Node28</title>
<g id="a_Node000028"><a xlink:href="classDynExpModule_1_1gRPCModuleParams.html" target="_top" xlink:title="Parameter class for gRPCModule.">
<polygon fill="white" stroke="#666666" points="1054,-145 896,-145 896,-115 1054,-115 1054,-145"/>
<text text-anchor="start" x="904" y="-133" font-family="Helvetica,sans-Serif" font-size="10.00">DynExpModule::gRPCModule</text>
<text text-anchor="middle" x="975" y="-122" font-family="Helvetica,sans-Serif" font-size="10.00">Params&lt; gRPCServices &gt;</text>
</a>
</g>
</g>
<!-- Node1&#45;&gt;Node28 -->
<g id="edge27_Node000001_Node000028" class="edge">
<title>Node1&#45;&gt;Node28</title>
<g id="a_edge27_Node000001_Node000028"><a xlink:title=" ">
<path fill="none" stroke="#63b8ff" d="M787.29,-210.24C809.09,-194.01 845.29,-169.03 880,-154 887.81,-150.62 896.19,-147.64 904.62,-145.03"/>
<polygon fill="#63b8ff" stroke="#63b8ff" points="785.01,-207.58 779.14,-216.4 789.23,-213.16 785.01,-207.58"/>
</a>
</g>
</g>
<!-- Node2 -->
<g id="Node000002" class="node">
<title>Node2</title>
<g id="a_Node000002"><a xlink:href="classDynExp_1_1RunnableObjectParams.html" target="_top" xlink:title="Parameter class for RunnableObject.">
<polygon fill="white" stroke="#666666" points="652,-235.5 479,-235.5 479,-216.5 652,-216.5 652,-235.5"/>
<text text-anchor="middle" x="565.5" y="-223.5" font-family="Helvetica,sans-Serif" font-size="10.00">DynExp::RunnableObjectParams</text>
</a>
</g>
</g>
<!-- Node2&#45;&gt;Node1 -->
<g id="edge1_Node000001_Node000002" class="edge">
<title>Node2&#45;&gt;Node1</title>
<g id="a_edge1_Node000001_Node000002"><a xlink:title=" ">
<path fill="none" stroke="#63b8ff" d="M662.17,-226C670.76,-226 679.39,-226 687.79,-226"/>
<polygon fill="#63b8ff" stroke="#63b8ff" points="662.12,-222.5 652.12,-226 662.12,-229.5 662.12,-222.5"/>
</a>
</g>
</g>
<!-- Node3 -->
<g id="Node000003" class="node">
<title>Node3</title>
<g id="a_Node000003"><a xlink:href="classDynExp_1_1ParamsBase.html" target="_top" xlink:title="Abstract base class for object parameter classes. Each class derived from class Object must be accomp...">
<polygon fill="white" stroke="#666666" points="443,-235.5 323,-235.5 323,-216.5 443,-216.5 443,-235.5"/>
<text text-anchor="middle" x="383" y="-223.5" font-family="Helvetica,sans-Serif" font-size="10.00">DynExp::ParamsBase</text>
</a>
</g>
</g>
<!-- Node3&#45;&gt;Node2 -->
<g id="edge2_Node000002_Node000003" class="edge">
<title>Node3&#45;&gt;Node2</title>
<g id="a_edge2_Node000002_Node000003"><a xlink:title=" ">
<path fill="none" stroke="#63b8ff" d="M453.17,-226C461.54,-226 470.17,-226 478.75,-226"/>
<polygon fill="#63b8ff" stroke="#63b8ff" points="453.1,-222.5 443.1,-226 453.1,-229.5 453.1,-222.5"/>
</a>
</g>
</g>
<!-- Node4 -->
<g id="Node000004" class="node">
<title>Node4</title>
<g id="a_Node000004"><a xlink:href="classUtil_1_1ISynchronizedPointerLockable.html" target="_top" xlink:title="Interface to allow synchronizing the access to derived classes between different threads by making th...">
<polygon fill="white" stroke="#666666" points="287,-241 144,-241 144,-211 287,-211 287,-241"/>
<text text-anchor="start" x="152" y="-229" font-family="Helvetica,sans-Serif" font-size="10.00">Util::ISynchronizedPointer</text>
<text text-anchor="middle" x="215.5" y="-218" font-family="Helvetica,sans-Serif" font-size="10.00">Lockable</text>
</a>
</g>
</g>
<!-- Node4&#45;&gt;Node3 -->
<g id="edge3_Node000003_Node000004" class="edge">
<title>Node4&#45;&gt;Node3</title>
<g id="a_edge3_Node000003_Node000004"><a xlink:title=" ">
<path fill="none" stroke="#63b8ff" d="M297.23,-226C305.84,-226 314.47,-226 322.76,-226"/>
<polygon fill="#63b8ff" stroke="#63b8ff" points="297.17,-222.5 287.17,-226 297.17,-229.5 297.17,-222.5"/>
</a>
</g>
</g>
<!-- Node5 -->
<g id="Node000005" class="node">
<title>Node5</title>
<g id="a_Node000005"><a xlink:href="classUtil_1_1INonCopyable.html" target="_top" xlink:title="Interface to delete copy constructor and copy assignment operator and thus make derived classes non&#45;c...">
<polygon fill="white" stroke="#666666" points="108,-235.5 0,-235.5 0,-216.5 108,-216.5 108,-235.5"/>
<text text-anchor="middle" x="54" y="-223.5" font-family="Helvetica,sans-Serif" font-size="10.00">Util::INonCopyable</text>
</a>
</g>
</g>
<!-- Node5&#45;&gt;Node4 -->
<g id="edge4_Node000004_Node000005" class="edge">
<title>Node5&#45;&gt;Node4</title>
<g id="a_edge4_Node000004_Node000005"><a xlink:title=" ">
<path fill="none" stroke="#63b8ff" d="M118.19,-226C126.58,-226 135.23,-226 143.74,-226"/>
<polygon fill="#63b8ff" stroke="#63b8ff" points="118.11,-222.5 108.11,-226 118.11,-229.5 118.11,-222.5"/>
</a>
</g>
</g>
<!-- Node7 -->
<g id="Node000007" class="node">
<title>Node7</title>
<g id="a_Node000007"><a xlink:href="classDynExpModule_1_1NetworkDataStreamInstrumentParams.html" target="_top" xlink:title=" ">
<polygon fill="white" stroke="#666666" points="1274.5,-618.5 1113.5,-618.5 1113.5,-577.5 1274.5,-577.5 1274.5,-618.5"/>
<text text-anchor="start" x="1121.5" y="-606.5" font-family="Helvetica,sans-Serif" font-size="10.00">DynExpModule::NetworkData</text>
<text text-anchor="start" x="1121.5" y="-595.5" font-family="Helvetica,sans-Serif" font-size="10.00">StreamInstrumentParams</text>
<text text-anchor="middle" x="1194" y="-584.5" font-family="Helvetica,sans-Serif" font-size="10.00">&lt; gRPCServices... &gt;</text>
</a>
</g>
</g>
<!-- Node6&#45;&gt;Node7 -->
<g id="edge6_Node000006_Node000007" class="edge">
<title>Node6&#45;&gt;Node7</title>
<g id="a_edge6_Node000006_Node000007"><a xlink:title=" ">
<path fill="none" stroke="#63b8ff" d="M1041.03,-556.68C1065.04,-563.21 1092.45,-570.66 1117.31,-577.42"/>
<polygon fill="#63b8ff" stroke="#63b8ff" points="1041.89,-553.29 1031.32,-554.04 1040.05,-560.04 1041.89,-553.29"/>
</a>
</g>
</g>
<!-- Node13 -->
<g id="Node000013" class="node">
<title>Node13</title>
<g id="a_Node000013"><a xlink:href="classDynExpModule_1_1NetworkDataStreamInstrumentParams.html" target="_top" xlink:title=" ">
<polygon fill="white" stroke="#666666" points="1274.5,-559.5 1113.5,-559.5 1113.5,-518.5 1274.5,-518.5 1274.5,-559.5"/>
<text text-anchor="start" x="1121.5" y="-547.5" font-family="Helvetica,sans-Serif" font-size="10.00">DynExpModule::NetworkData</text>
<text text-anchor="start" x="1121.5" y="-536.5" font-family="Helvetica,sans-Serif" font-size="10.00">StreamInstrumentParams</text>
<text text-anchor="middle" x="1194" y="-525.5" font-family="Helvetica,sans-Serif" font-size="10.00">&lt; gRPCServices &gt;</text>
</a>
</g>
</g>
<!-- Node6&#45;&gt;Node13 -->
<g id="edge12_Node000006_Node000013" class="edge">
<title>Node6&#45;&gt;Node13</title>
<g id="a_edge12_Node000006_Node000013"><a xlink:title=" ">
<path fill="none" stroke="#63b8ff" d="M1064.11,-539C1080.44,-539 1097.41,-539 1113.47,-539"/>
<polygon fill="#63b8ff" stroke="#63b8ff" points="1064.04,-535.5 1054.04,-539 1064.04,-542.5 1064.04,-535.5"/>
</a>
</g>
</g>
<!-- Node8 -->
<g id="Node000008" class="node">
<title>Node8</title>
<g id="a_Node000008"><a xlink:href="classDynExpModule_1_1NetworkAnalogInParams.html" target="_top" xlink:title=" ">
<polygon fill="white" stroke="#666666" points="1490.5,-709 1319.5,-709 1319.5,-679 1490.5,-679 1490.5,-709"/>
<text text-anchor="start" x="1327.5" y="-697" font-family="Helvetica,sans-Serif" font-size="10.00">DynExpModule::NetworkAnalog</text>
<text text-anchor="middle" x="1405" y="-686" font-family="Helvetica,sans-Serif" font-size="10.00">InParams&lt; gRPCServices &gt;</text>
</a>
</g>
</g>
<!-- Node7&#45;&gt;Node8 -->
<g id="edge7_Node000007_Node000008" class="edge">
<title>Node7&#45;&gt;Node8</title>
<g id="a_edge7_Node000007_Node000008"><a xlink:title=" ">
<path fill="none" stroke="#63b8ff" d="M1233.83,-624.22C1257.39,-639.23 1288.51,-657.5 1318,-670 1325.71,-673.27 1333.99,-676.22 1342.26,-678.85"/>
<polygon fill="#63b8ff" stroke="#63b8ff" points="1235.49,-621.13 1225.19,-618.65 1231.7,-627.01 1235.49,-621.13"/>
</a>
</g>
</g>
<!-- Node9 -->
<g id="Node000009" class="node">
<title>Node9</title>
<g id="a_Node000009"><a xlink:href="classDynExpModule_1_1NetworkAnalogOutParams.html" target="_top" xlink:title=" ">
<polygon fill="white" stroke="#666666" points="1490.5,-661 1319.5,-661 1319.5,-631 1490.5,-631 1490.5,-661"/>
<text text-anchor="start" x="1327.5" y="-649" font-family="Helvetica,sans-Serif" font-size="10.00">DynExpModule::NetworkAnalog</text>
<text text-anchor="middle" x="1405" y="-638" font-family="Helvetica,sans-Serif" font-size="10.00">OutParams&lt; gRPCServices &gt;</text>
</a>
</g>
</g>
<!-- Node7&#45;&gt;Node9 -->
<g id="edge8_Node000007_Node000009" class="edge">
<title>Node7&#45;&gt;Node9</title>
<g id="a_edge8_Node000007_Node000009"><a xlink:title=" ">
<path fill="none" stroke="#63b8ff" d="M1284.6,-618.58C1302.71,-622.74 1321.44,-627.04 1338.53,-630.96"/>
<polygon fill="#63b8ff" stroke="#63b8ff" points="1285.14,-615.11 1274.61,-616.28 1283.57,-621.93 1285.14,-615.11"/>
</a>
</g>
</g>
<!-- Node10 -->
<g id="Node000010" class="node">
<title>Node10</title>
<g id="a_Node000010"><a xlink:href="classDynExpModule_1_1NetworkDigitalInParams.html" target="_top" xlink:title=" ">
<polygon fill="white" stroke="#666666" points="1490,-613 1320,-613 1320,-583 1490,-583 1490,-613"/>
<text text-anchor="start" x="1328" y="-601" font-family="Helvetica,sans-Serif" font-size="10.00">DynExpModule::NetworkDigital</text>
<text text-anchor="middle" x="1405" y="-590" font-family="Helvetica,sans-Serif" font-size="10.00">InParams&lt; gRPCServices &gt;</text>
</a>
</g>
</g>
<!-- Node7&#45;&gt;Node10 -->
<g id="edge9_Node000007_Node000010" class="edge">
<title>Node7&#45;&gt;Node10</title>
<g id="a_edge9_Node000007_Node000010"><a xlink:title=" ">
<path fill="none" stroke="#63b8ff" d="M1284.74,-598C1296.36,-598 1308.22,-598 1319.74,-598"/>
<polygon fill="#63b8ff" stroke="#63b8ff" points="1284.61,-594.5 1274.61,-598 1284.61,-601.5 1284.61,-594.5"/>
</a>
</g>
</g>
<!-- Node11 -->
<g id="Node000011" class="node">
<title>Node11</title>
<g id="a_Node000011"><a xlink:href="classDynExpModule_1_1NetworkDigitalOutParams.html" target="_top" xlink:title=" ">
<polygon fill="white" stroke="#666666" points="1490,-565 1320,-565 1320,-535 1490,-535 1490,-565"/>
<text text-anchor="start" x="1328" y="-553" font-family="Helvetica,sans-Serif" font-size="10.00">DynExpModule::NetworkDigital</text>
<text text-anchor="middle" x="1405" y="-542" font-family="Helvetica,sans-Serif" font-size="10.00">OutParams&lt; gRPCServices &gt;</text>
</a>
</g>
</g>
<!-- Node7&#45;&gt;Node11 -->
<g id="edge10_Node000007_Node000011" class="edge">
<title>Node7&#45;&gt;Node11</title>
<g id="a_edge10_Node000007_Node000011"><a xlink:title=" ">
<path fill="none" stroke="#63b8ff" d="M1284.6,-577.42C1302.71,-573.26 1321.44,-568.96 1338.53,-565.04"/>
<polygon fill="#63b8ff" stroke="#63b8ff" points="1283.57,-574.07 1274.61,-579.72 1285.14,-580.89 1283.57,-574.07"/>
</a>
</g>
</g>
<!-- Node12 -->
<g id="Node000012" class="node">
<title>Node12</title>
<g id="a_Node000012"><a xlink:href="classDynExpModule_1_1NetworkTimeTaggerParams.html" target="_top" xlink:title=" ">
<polygon fill="white" stroke="#666666" points="1492,-517 1318,-517 1318,-487 1492,-487 1492,-517"/>
<text text-anchor="start" x="1326" y="-505" font-family="Helvetica,sans-Serif" font-size="10.00">DynExpModule::NetworkTime</text>
<text text-anchor="middle" x="1405" y="-494" font-family="Helvetica,sans-Serif" font-size="10.00">TaggerParams&lt; gRPCServices &gt;</text>
</a>
</g>
</g>
<!-- Node7&#45;&gt;Node12 -->
<g id="edge11_Node000007_Node000012" class="edge">
<title>Node7&#45;&gt;Node12</title>
<g id="a_edge11_Node000007_Node000012"><a xlink:title=" ">
<path fill="none" stroke="#63b8ff" d="M1276.22,-572.67C1278.2,-571.5 1280.13,-570.27 1282,-569 1302.6,-554.97 1297.06,-539.51 1318,-526 1323.34,-522.55 1329.18,-519.6 1335.21,-517.06"/>
<polygon fill="#63b8ff" stroke="#63b8ff" points="1274.41,-569.67 1267.27,-577.49 1277.73,-575.83 1274.41,-569.67"/>
</a>
</g>
</g>
<!-- Node15 -->
<g id="Node000015" class="node">
<title>Node15</title>
<g id="a_Node000015"><a xlink:href="classDynExpModule_1_1ImageViewer_1_1ImageViewerParams.html" target="_top" xlink:title=" ">
<polygon fill="white" stroke="#666666" points="1274.5,-500 1113.5,-500 1113.5,-470 1274.5,-470 1274.5,-500"/>
<text text-anchor="start" x="1121.5" y="-488" font-family="Helvetica,sans-Serif" font-size="10.00">DynExpModule::ImageViewer</text>
<text text-anchor="middle" x="1194" y="-477" font-family="Helvetica,sans-Serif" font-size="10.00">::ImageViewerParams</text>
</a>
</g>
</g>
<!-- Node14&#45;&gt;Node15 -->
<g id="edge14_Node000014_Node000015" class="edge">
<title>Node14&#45;&gt;Node15</title>
<g id="a_edge14_Node000014_Node000015"><a xlink:title=" ">
<path fill="none" stroke="#63b8ff" d="M983.61,-288.35C999.92,-327.24 1042.02,-415.09 1106,-461 1110.84,-464.47 1116.16,-467.44 1121.71,-469.98"/>
<polygon fill="#63b8ff" stroke="#63b8ff" points="986.71,-286.69 979.7,-278.75 980.23,-289.33 986.71,-286.69"/>
</a>
</g>
</g>
<!-- Node16 -->
<g id="Node000016" class="node">
<title>Node16</title>
<g id="a_Node000016"><a xlink:href="classDynExpModule_1_1InputPortReaderParams.html" target="_top" xlink:title=" ">
<polygon fill="white" stroke="#666666" points="1281.5,-452 1106.5,-452 1106.5,-422 1281.5,-422 1281.5,-452"/>
<text text-anchor="start" x="1114.5" y="-440" font-family="Helvetica,sans-Serif" font-size="10.00">DynExpModule::InputPortReader</text>
<text text-anchor="middle" x="1194" y="-429" font-family="Helvetica,sans-Serif" font-size="10.00">Params</text>
</a>
</g>
</g>
<!-- Node14&#45;&gt;Node16 -->
<g id="edge15_Node000014_Node000016" class="edge">
<title>Node14&#45;&gt;Node16</title>
<g id="a_edge15_Node000014_Node000016"><a xlink:title=" ">
<path fill="none" stroke="#63b8ff" d="M987.37,-287.24C1007.46,-317.95 1052.23,-379.82 1106,-413 1111.6,-416.46 1117.71,-419.42 1124,-421.97"/>
<polygon fill="#63b8ff" stroke="#63b8ff" points="990.29,-285.31 981.94,-278.78 984.39,-289.09 990.29,-285.31"/>
</a>
</g>
</g>
<!-- Node17 -->
<g id="Node000017" class="node">
<title>Node17</title>
<g id="a_Node000017"><a xlink:href="classDynExpModule_1_1LockinAmplifierControlParams.html" target="_top" xlink:title=" ">
<polygon fill="white" stroke="#666666" points="1280,-404 1108,-404 1108,-374 1280,-374 1280,-404"/>
<text text-anchor="start" x="1116" y="-392" font-family="Helvetica,sans-Serif" font-size="10.00">DynExpModule::LockinAmplifier</text>
<text text-anchor="middle" x="1194" y="-381" font-family="Helvetica,sans-Serif" font-size="10.00">ControlParams</text>
</a>
</g>
</g>
<!-- Node14&#45;&gt;Node17 -->
<g id="edge16_Node000014_Node000017" class="edge">
<title>Node14&#45;&gt;Node17</title>
<g id="a_edge16_Node000014_Node000017"><a xlink:title=" ">
<path fill="none" stroke="#63b8ff" d="M993.78,-285.51C1017.6,-306.79 1061.99,-343.6 1106,-365 1112.9,-368.36 1120.35,-371.31 1127.88,-373.89"/>
<polygon fill="#63b8ff" stroke="#63b8ff" points="996,-282.8 986.25,-278.68 991.3,-287.99 996,-282.8"/>
</a>
</g>
</g>
<!-- Node18 -->
<g id="Node000018" class="node">
<title>Node18</title>
<g id="a_Node000018"><a xlink:href="classDynExpModule_1_1ODMR_1_1ODMRParams.html" target="_top" xlink:title=" ">
<polygon fill="white" stroke="#666666" points="1257.5,-356 1130.5,-356 1130.5,-326 1257.5,-326 1257.5,-356"/>
<text text-anchor="start" x="1138.5" y="-344" font-family="Helvetica,sans-Serif" font-size="10.00">DynExpModule::ODMR</text>
<text text-anchor="middle" x="1194" y="-333" font-family="Helvetica,sans-Serif" font-size="10.00">::ODMRParams</text>
</a>
</g>
</g>
<!-- Node14&#45;&gt;Node18 -->
<g id="edge17_Node000014_Node000018" class="edge">
<title>Node14&#45;&gt;Node18</title>
<g id="a_edge17_Node000014_Node000018"><a xlink:title=" ">
<path fill="none" stroke="#63b8ff" d="M1009.65,-282.32C1035.74,-292.42 1072.9,-306.34 1106,-317 1115.55,-320.07 1125.76,-323.11 1135.7,-325.94"/>
<polygon fill="#63b8ff" stroke="#63b8ff" points="1010.81,-279.01 1000.22,-278.64 1008.27,-285.54 1010.81,-279.01"/>
</a>
</g>
</g>
<!-- Node19 -->
<g id="Node000019" class="node">
<title>Node19</title>
<g id="a_Node000019"><a xlink:href="classDynExpModule_1_1OutputPortWriterParams.html" target="_top" xlink:title=" ">
<polygon fill="white" stroke="#666666" points="1268.5,-308 1119.5,-308 1119.5,-278 1268.5,-278 1268.5,-308"/>
<text text-anchor="start" x="1127.5" y="-296" font-family="Helvetica,sans-Serif" font-size="10.00">DynExpModule::OutputPort</text>
<text text-anchor="middle" x="1194" y="-285" font-family="Helvetica,sans-Serif" font-size="10.00">WriterParams</text>
</a>
</g>
</g>
<!-- Node14&#45;&gt;Node19 -->
<g id="edge18_Node000014_Node000019" class="edge">
<title>Node14&#45;&gt;Node19</title>
<g id="a_edge18_Node000014_Node000019"><a xlink:title=" ">
<path fill="none" stroke="#63b8ff" d="M1067.28,-279.1C1084.7,-281.02 1102.72,-283.02 1119.5,-284.87"/>
<polygon fill="#63b8ff" stroke="#63b8ff" points="1067.44,-275.59 1057.11,-277.97 1066.67,-282.55 1067.44,-275.59"/>
</a>
</g>
</g>
<!-- Node20 -->
<g id="Node000020" class="node">
<title>Node20</title>
<g id="a_Node000020"><a xlink:href="classDynExpModule_1_1SignalDesignerParams.html" target="_top" xlink:title=" ">
<polygon fill="white" stroke="#666666" points="1279,-260 1109,-260 1109,-230 1279,-230 1279,-260"/>
<text text-anchor="start" x="1117" y="-248" font-family="Helvetica,sans-Serif" font-size="10.00">DynExpModule::SignalDesigner</text>
<text text-anchor="middle" x="1194" y="-237" font-family="Helvetica,sans-Serif" font-size="10.00">Params</text>
</a>
</g>
</g>
<!-- Node14&#45;&gt;Node20 -->
<g id="edge19_Node000014_Node000020" class="edge">
<title>Node14&#45;&gt;Node20</title>
<g id="a_edge19_Node000014_Node000020"><a xlink:title=" ">
<path fill="none" stroke="#63b8ff" d="M1067.08,-258.93C1080.89,-257.4 1095.08,-255.83 1108.73,-254.32"/>
<polygon fill="#63b8ff" stroke="#63b8ff" points="1066.67,-255.45 1057.11,-260.03 1067.44,-262.41 1066.67,-255.45"/>
</a>
</g>
</g>
<!-- Node21 -->
<g id="Node000021" class="node">
<title>Node21</title>
<g id="a_Node000021"><a xlink:href="classDynExpModule_1_1SignalPlotterParams.html" target="_top" xlink:title=" ">
<polygon fill="white" stroke="#666666" points="1273,-212 1115,-212 1115,-182 1273,-182 1273,-212"/>
<text text-anchor="start" x="1123" y="-200" font-family="Helvetica,sans-Serif" font-size="10.00">DynExpModule::SignalPlotter</text>
<text text-anchor="middle" x="1194" y="-189" font-family="Helvetica,sans-Serif" font-size="10.00">Params</text>
</a>
</g>
</g>
<!-- Node14&#45;&gt;Node21 -->
<g id="edge20_Node000014_Node000021" class="edge">
<title>Node14&#45;&gt;Node21</title>
<g id="a_edge20_Node000014_Node000021"><a xlink:title=" ">
<path fill="none" stroke="#63b8ff" d="M1053.3,-256.54C1059.06,-254.66 1064.69,-252.49 1070,-250 1088.6,-241.27 1087.72,-230.37 1106,-221 1112.55,-217.64 1119.63,-214.71 1126.82,-212.15"/>
<polygon fill="#63b8ff" stroke="#63b8ff" points="1052.1,-253.24 1043.52,-259.45 1054.1,-259.95 1052.1,-253.24"/>
</a>
</g>
</g>
<!-- Node22 -->
<g id="Node000022" class="node">
<title>Node22</title>
<g id="a_Node000022"><a xlink:href="classDynExpModule_1_1SpectrumViewer_1_1SpectrumViewerParams.html" target="_top" xlink:title=" ">
<polygon fill="white" stroke="#666666" points="1282,-164 1106,-164 1106,-134 1282,-134 1282,-164"/>
<text text-anchor="start" x="1114" y="-152" font-family="Helvetica,sans-Serif" font-size="10.00">DynExpModule::SpectrumViewer</text>
<text text-anchor="middle" x="1194" y="-141" font-family="Helvetica,sans-Serif" font-size="10.00">::SpectrumViewerParams</text>
</a>
</g>
</g>
<!-- Node14&#45;&gt;Node22 -->
<g id="edge21_Node000014_Node000022" class="edge">
<title>Node14&#45;&gt;Node22</title>
<g id="a_edge21_Node000014_Node000022"><a xlink:title=" ">
<path fill="none" stroke="#63b8ff" d="M1063.34,-254.6C1065.66,-253.2 1067.88,-251.67 1070,-250 1099.69,-226.65 1077.14,-197.38 1106,-173 1110.07,-169.56 1114.59,-166.62 1119.38,-164.09"/>
<polygon fill="#63b8ff" stroke="#63b8ff" points="1061.3,-251.72 1054.05,-259.44 1064.53,-257.93 1061.3,-251.72"/>
</a>
</g>
</g>
<!-- Node23 -->
<g id="Node000023" class="node">
<title>Node23</title>
<g id="a_Node000023"><a xlink:href="classDynExpModule_1_1Stage1DParams.html" target="_top" xlink:title=" ">
<polygon fill="white" stroke="#666666" points="1280.5,-115.5 1107.5,-115.5 1107.5,-96.5 1280.5,-96.5 1280.5,-115.5"/>
<text text-anchor="middle" x="1194" y="-103.5" font-family="Helvetica,sans-Serif" font-size="10.00">DynExpModule::Stage1DParams</text>
</a>
</g>
</g>
<!-- Node14&#45;&gt;Node23 -->
<g id="edge22_Node000014_Node000023" class="edge">
<title>Node14&#45;&gt;Node23</title>
<g id="a_edge22_Node000014_Node000023"><a xlink:title=" ">
<path fill="none" stroke="#63b8ff" d="M1065.25,-253.92C1066.9,-252.7 1068.49,-251.4 1070,-250 1112.5,-210.81 1063.8,-164.52 1106,-125 1110.06,-121.2 1114.7,-118.08 1119.68,-115.55"/>
<polygon fill="#63b8ff" stroke="#63b8ff" points="1063.17,-251.09 1056.52,-259.34 1066.86,-257.04 1063.17,-251.09"/>
</a>
</g>
</g>
<!-- Node24 -->
<g id="Node000024" class="node">
<title>Node24</title>
<g id="a_Node000024"><a xlink:href="classDynExpModule_1_1Trajectory1DParams.html" target="_top" xlink:title=" ">
<polygon fill="white" stroke="#666666" points="1269,-78 1119,-78 1119,-48 1269,-48 1269,-78"/>
<text text-anchor="start" x="1127" y="-66" font-family="Helvetica,sans-Serif" font-size="10.00">DynExpModule::Trajectory1</text>
<text text-anchor="middle" x="1194" y="-55" font-family="Helvetica,sans-Serif" font-size="10.00">DParams</text>
</a>
</g>
</g>
<!-- Node14&#45;&gt;Node24 -->
<g id="edge23_Node000014_Node000024" class="edge">
<title>Node14&#45;&gt;Node24</title>
<g id="a_edge23_Node000014_Node000024"><a xlink:title=" ">
<path fill="none" stroke="#63b8ff" d="M1065.9,-253.63C1067.33,-252.49 1068.69,-251.28 1070,-250 1122.93,-198.01 1054.92,-140.8 1106,-87 1109.78,-83.02 1114.15,-79.69 1118.88,-76.89"/>
<polygon fill="#63b8ff" stroke="#63b8ff" points="1063.62,-250.94 1057.23,-259.39 1067.5,-256.77 1063.62,-250.94"/>
</a>
</g>
</g>
<!-- Node25 -->
<g id="Node000025" class="node">
<title>Node25</title>
<g id="a_Node000025"><a xlink:href="classDynExpModule_1_1Widefield_1_1WidefieldMicroscopeParams.html" target="_top" xlink:title=" ">
<polygon fill="white" stroke="#666666" points="1274,-30 1114,-30 1114,0 1274,0 1274,-30"/>
<text text-anchor="start" x="1122" y="-18" font-family="Helvetica,sans-Serif" font-size="10.00">DynExpModule::Widefield</text>
<text text-anchor="middle" x="1194" y="-7" font-family="Helvetica,sans-Serif" font-size="10.00">::WidefieldMicroscopeParams</text>
</a>
</g>
</g>
<!-- Node14&#45;&gt;Node25 -->
<g id="edge24_Node000014_Node000025" class="edge">
<title>Node14&#45;&gt;Node25</title>
<g id="a_edge24_Node000014_Node000025"><a xlink:title=" ">
<path fill="none" stroke="#63b8ff" d="M1065.46,-254.15C1067.05,-252.86 1068.57,-251.48 1070,-250 1136.24,-181.71 1042.18,-109.55 1106,-39 1109.05,-35.63 1112.52,-32.72 1116.29,-30.2"/>
<polygon fill="#63b8ff" stroke="#63b8ff" points="1063.35,-251.35 1057.01,-259.84 1067.26,-257.16 1063.35,-251.35"/>
</a>
</g>
</g>
</g>
</svg>
