<?xml version="1.0" encoding="UTF-8" standalone="no"?>
<!DOCTYPE svg PUBLIC "-//W3C//DTD SVG 1.1//EN"
 "http://www.w3.org/Graphics/SVG/1.1/DTD/svg11.dtd">
<!-- Generated by graphviz version 2.43.0 (0)
 -->
<!-- Title: DynExp::QModuleConfiguratorBase Pages: 1 -->
<svg width="1058pt" height="508pt"
 viewBox="0.00 0.00 1058.00 508.00" xmlns="http://www.w3.org/2000/svg" xmlns:xlink="http://www.w3.org/1999/xlink">
<g id="graph0" class="graph" transform="scale(1 1) rotate(0) translate(4 504)">
<title>DynExp::QModuleConfiguratorBase</title>
<!-- Node1 -->
<g id="Node000001" class="node">
<title>Node1</title>
<g id="a_Node000001"><a xlink:title="Configurator class for QModuleBase.">
<polygon fill="#999999" stroke="#666666" points="817,-254.5 629,-254.5 629,-235.5 817,-235.5 817,-254.5"/>
<text text-anchor="middle" x="723" y="-242.5" font-family="Helvetica,sans-Serif" font-size="10.00">DynExp::QModuleConfiguratorBase</text>
</a>
</g>
</g>
<!-- Node5 -->
<g id="Node000005" class="node">
<title>Node5</title>
<g id="a_Node000005"><a xlink:href="classDynExpModule_1_1ImageViewer_1_1ImageViewerConfigurator.html" target="_top" xlink:title=" ">
<polygon fill="white" stroke="#666666" points="1032,-500 871,-500 871,-470 1032,-470 1032,-500"/>
<text text-anchor="start" x="879" y="-488" font-family="Helvetica,sans-Serif" font-size="10.00">DynExpModule::ImageViewer</text>
<text text-anchor="middle" x="951.5" y="-477" font-family="Helvetica,sans-Serif" font-size="10.00">::ImageViewerConfigurator</text>
</a>
</g>
</g>
<!-- Node1&#45;&gt;Node5 -->
<g id="edge4_Node000001_Node000005" class="edge">
<title>Node1&#45;&gt;Node5</title>
<g id="a_edge4_Node000001_Node000005"><a xlink:title=" ">
<path fill="none" stroke="#63b8ff" d="M729.81,-264.27C743.69,-306.82 782.9,-409.15 853,-461 858.47,-465.04 864.53,-468.41 870.88,-471.22"/>
<polygon fill="#63b8ff" stroke="#63b8ff" points="733.11,-263.07 726.76,-254.59 726.43,-265.18 733.11,-263.07"/>
</a>
</g>
</g>
<!-- Node6 -->
<g id="Node000006" class="node">
<title>Node6</title>
<g id="a_Node000006"><a xlink:href="classDynExpModule_1_1InputPortReaderConfigurator.html" target="_top" xlink:title=" ">
<polygon fill="white" stroke="#666666" points="1039,-452 864,-452 864,-422 1039,-422 1039,-452"/>
<text text-anchor="start" x="872" y="-440" font-family="Helvetica,sans-Serif" font-size="10.00">DynExpModule::InputPortReader</text>
<text text-anchor="middle" x="951.5" y="-429" font-family="Helvetica,sans-Serif" font-size="10.00">Configurator</text>
</a>
</g>
</g>
<!-- Node1&#45;&gt;Node6 -->
<g id="edge5_Node000001_Node000006" class="edge">
<title>Node1&#45;&gt;Node6</title>
<g id="a_edge5_Node000001_Node000006"><a xlink:title=" ">
<path fill="none" stroke="#63b8ff" d="M733.06,-263.99C750.86,-299.16 793.88,-374.38 853,-413 858.25,-416.43 863.96,-419.37 869.88,-421.89"/>
<polygon fill="#63b8ff" stroke="#63b8ff" points="736.1,-262.23 728.54,-254.81 729.82,-265.33 736.1,-262.23"/>
</a>
</g>
</g>
<!-- Node7 -->
<g id="Node000007" class="node">
<title>Node7</title>
<g id="a_Node000007"><a xlink:href="classDynExpModule_1_1LockinAmplifierControlConfigurator.html" target="_top" xlink:title=" ">
<polygon fill="white" stroke="#666666" points="1037.5,-404 865.5,-404 865.5,-374 1037.5,-374 1037.5,-404"/>
<text text-anchor="start" x="873.5" y="-392" font-family="Helvetica,sans-Serif" font-size="10.00">DynExpModule::LockinAmplifier</text>
<text text-anchor="middle" x="951.5" y="-381" font-family="Helvetica,sans-Serif" font-size="10.00">ControlConfigurator</text>
</a>
</g>
</g>
<!-- Node1&#45;&gt;Node7 -->
<g id="edge6_Node000001_Node000007" class="edge">
<title>Node1&#45;&gt;Node7</title>
<g id="a_edge6_Node000001_Node000007"><a xlink:title=" ">
<path fill="none" stroke="#63b8ff" d="M737.69,-262.48C759.3,-288.84 803.92,-338.48 853,-365 859.36,-368.44 866.23,-371.39 873.26,-373.93"/>
<polygon fill="#63b8ff" stroke="#63b8ff" points="740.27,-260.1 731.27,-254.51 734.81,-264.49 740.27,-260.1"/>
</a>
</g>
</g>
<!-- Node8 -->
<g id="Node000008" class="node">
<title>Node8</title>
<g id="a_Node000008"><a xlink:href="classDynExpModule_1_1ODMR_1_1ODMRConfigurator.html" target="_top" xlink:title=" ">
<polygon fill="white" stroke="#666666" points="1015,-356 888,-356 888,-326 1015,-326 1015,-356"/>
<text text-anchor="start" x="896" y="-344" font-family="Helvetica,sans-Serif" font-size="10.00">DynExpModule::ODMR</text>
<text text-anchor="middle" x="951.5" y="-333" font-family="Helvetica,sans-Serif" font-size="10.00">::ODMRConfigurator</text>
</a>
</g>
</g>
<!-- Node1&#45;&gt;Node8 -->
<g id="edge7_Node000001_Node000008" class="edge">
<title>Node1&#45;&gt;Node8</title>
<g id="a_edge7_Node000001_Node000008"><a xlink:title=" ">
<path fill="none" stroke="#63b8ff" d="M746.49,-260.02C771.54,-276.14 813.68,-301.51 853,-317 864.03,-321.34 876.08,-325.07 887.83,-328.21"/>
<polygon fill="#63b8ff" stroke="#63b8ff" points="748.37,-257.06 738.08,-254.53 744.54,-262.92 748.37,-257.06"/>
</a>
</g>
</g>
<!-- Node9 -->
<g id="Node000009" class="node">
<title>Node9</title>
<g id="a_Node000009"><a xlink:href="classDynExpModule_1_1OutputPortWriterConfigurator.html" target="_top" xlink:title=" ">
<polygon fill="white" stroke="#666666" points="1026,-308 877,-308 877,-278 1026,-278 1026,-308"/>
<text text-anchor="start" x="885" y="-296" font-family="Helvetica,sans-Serif" font-size="10.00">DynExpModule::OutputPort</text>
<text text-anchor="middle" x="951.5" y="-285" font-family="Helvetica,sans-Serif" font-size="10.00">WriterConfigurator</text>
</a>
</g>
</g>
<!-- Node1&#45;&gt;Node9 -->
<g id="edge8_Node000001_Node000009" class="edge">
<title>Node1&#45;&gt;Node9</title>
<g id="a_edge8_Node000001_Node000009"><a xlink:title=" ">
<path fill="none" stroke="#63b8ff" d="M778.98,-256.65C809.27,-263.07 847.21,-271.11 879.7,-278"/>
<polygon fill="#63b8ff" stroke="#63b8ff" points="779.53,-253.19 769.02,-254.54 778.08,-260.04 779.53,-253.19"/>
</a>
</g>
</g>
<!-- Node10 -->
<g id="Node000010" class="node">
<title>Node10</title>
<g id="a_Node000010"><a xlink:href="classDynExpModule_1_1SignalDesignerConfigurator.html" target="_top" xlink:title=" ">
<polygon fill="white" stroke="#666666" points="1036.5,-260 866.5,-260 866.5,-230 1036.5,-230 1036.5,-260"/>
<text text-anchor="start" x="874.5" y="-248" font-family="Helvetica,sans-Serif" font-size="10.00">DynExpModule::SignalDesigner</text>
<text text-anchor="middle" x="951.5" y="-237" font-family="Helvetica,sans-Serif" font-size="10.00">Configurator</text>
</a>
</g>
</g>
<!-- Node1&#45;&gt;Node10 -->
<g id="edge9_Node000001_Node000010" class="edge">
<title>Node1&#45;&gt;Node10</title>
<g id="a_edge9_Node000001_Node000010"><a xlink:title=" ">
<path fill="none" stroke="#63b8ff" d="M827.13,-245C840.3,-245 853.65,-245 866.47,-245"/>
<polygon fill="#63b8ff" stroke="#63b8ff" points="827.11,-241.5 817.11,-245 827.11,-248.5 827.11,-241.5"/>
</a>
</g>
</g>
<!-- Node11 -->
<g id="Node000011" class="node">
<title>Node11</title>
<g id="a_Node000011"><a xlink:href="classDynExpModule_1_1SignalPlotterConfigurator.html" target="_top" xlink:title=" ">
<polygon fill="white" stroke="#666666" points="1030.5,-212 872.5,-212 872.5,-182 1030.5,-182 1030.5,-212"/>
<text text-anchor="start" x="880.5" y="-200" font-family="Helvetica,sans-Serif" font-size="10.00">DynExpModule::SignalPlotter</text>
<text text-anchor="middle" x="951.5" y="-189" font-family="Helvetica,sans-Serif" font-size="10.00">Configurator</text>
</a>
</g>
</g>
<!-- Node1&#45;&gt;Node11 -->
<g id="edge10_Node000001_Node000011" class="edge">
<title>Node1&#45;&gt;Node11</title>
<g id="a_edge10_Node000001_Node000011"><a xlink:title=" ">
<path fill="none" stroke="#63b8ff" d="M778.98,-233.35C809.27,-226.93 847.21,-218.89 879.7,-212"/>
<polygon fill="#63b8ff" stroke="#63b8ff" points="778.08,-229.96 769.02,-235.46 779.53,-236.81 778.08,-229.96"/>
</a>
</g>
</g>
<!-- Node12 -->
<g id="Node000012" class="node">
<title>Node12</title>
<g id="a_Node000012"><a xlink:href="classDynExpModule_1_1SpectrumViewer_1_1SpectrumViewerConfigurator.html" target="_top" xlink:title=" ">
<polygon fill="white" stroke="#666666" points="1039.5,-164 863.5,-164 863.5,-134 1039.5,-134 1039.5,-164"/>
<text text-anchor="start" x="871.5" y="-152" font-family="Helvetica,sans-Serif" font-size="10.00">DynExpModule::SpectrumViewer</text>
<text text-anchor="middle" x="951.5" y="-141" font-family="Helvetica,sans-Serif" font-size="10.00">::SpectrumViewerConfigurator</text>
</a>
</g>
</g>
<!-- Node1&#45;&gt;Node12 -->
<g id="edge11_Node000001_Node000012" class="edge">
<title>Node1&#45;&gt;Node12</title>
<g id="a_edge11_Node000001_Node000012"><a xlink:title=" ">
<path fill="none" stroke="#63b8ff" d="M746.49,-229.98C771.54,-213.86 813.68,-188.49 853,-173 861.52,-169.65 870.64,-166.66 879.76,-164.03"/>
<polygon fill="#63b8ff" stroke="#63b8ff" points="744.54,-227.08 738.08,-235.47 748.37,-232.94 744.54,-227.08"/>
</a>
</g>
</g>
<!-- Node13 -->
<g id="Node000013" class="node">
<title>Node13</title>
<g id="a_Node000013"><a xlink:href="classDynExpModule_1_1Stage1DConfigurator.html" target="_top" xlink:title=" ">
<polygon fill="white" stroke="#666666" points="1050,-115.5 853,-115.5 853,-96.5 1050,-96.5 1050,-115.5"/>
<text text-anchor="middle" x="951.5" y="-103.5" font-family="Helvetica,sans-Serif" font-size="10.00">DynExpModule::Stage1DConfigurator</text>
</a>
</g>
</g>
<!-- Node1&#45;&gt;Node13 -->
<g id="edge12_Node000001_Node000013" class="edge">
<title>Node1&#45;&gt;Node13</title>
<g id="a_edge12_Node000001_Node000013"><a xlink:title=" ">
<path fill="none" stroke="#63b8ff" d="M737.53,-227.22C758.93,-200.46 803.28,-150.31 853,-125 860.68,-121.09 869.09,-117.98 877.63,-115.51"/>
<polygon fill="#63b8ff" stroke="#63b8ff" points="734.6,-225.29 731.18,-235.32 740.11,-229.61 734.6,-225.29"/>
</a>
</g>
</g>
<!-- Node14 -->
<g id="Node000014" class="node">
<title>Node14</title>
<g id="a_Node000014"><a xlink:href="classDynExpModule_1_1Trajectory1DConfigurator.html" target="_top" xlink:title=" ">
<polygon fill="white" stroke="#666666" points="1026.5,-78 876.5,-78 876.5,-48 1026.5,-48 1026.5,-78"/>
<text text-anchor="start" x="884.5" y="-66" font-family="Helvetica,sans-Serif" font-size="10.00">DynExpModule::Trajectory1</text>
<text text-anchor="middle" x="951.5" y="-55" font-family="Helvetica,sans-Serif" font-size="10.00">DConfigurator</text>
</a>
</g>
</g>
<!-- Node1&#45;&gt;Node14 -->
<g id="edge13_Node000001_Node000014" class="edge">
<title>Node1&#45;&gt;Node14</title>
<g id="a_edge13_Node000001_Node000014"><a xlink:title=" ">
<path fill="none" stroke="#63b8ff" d="M733.87,-226.24C752.47,-192.8 796.03,-123.01 853,-87 860.15,-82.48 868.08,-78.81 876.26,-75.84"/>
<polygon fill="#63b8ff" stroke="#63b8ff" points="730.61,-224.92 728.91,-235.38 736.76,-228.26 730.61,-224.92"/>
</a>
</g>
</g>
<!-- Node15 -->
<g id="Node000015" class="node">
<title>Node15</title>
<g id="a_Node000015"><a xlink:href="classDynExpModule_1_1Widefield_1_1WidefieldMicroscopeConfigurator.html" target="_top" xlink:title=" ">
<polygon fill="white" stroke="#666666" points="1043.5,-30 859.5,-30 859.5,0 1043.5,0 1043.5,-30"/>
<text text-anchor="start" x="867.5" y="-18" font-family="Helvetica,sans-Serif" font-size="10.00">DynExpModule::Widefield</text>
<text text-anchor="middle" x="951.5" y="-7" font-family="Helvetica,sans-Serif" font-size="10.00">::WidefieldMicroscopeConfigurator</text>
</a>
</g>
</g>
<!-- Node1&#45;&gt;Node15 -->
<g id="edge14_Node000001_Node000015" class="edge">
<title>Node1&#45;&gt;Node15</title>
<g id="a_edge14_Node000001_Node000015"><a xlink:title=" ">
<path fill="none" stroke="#63b8ff" d="M730.38,-225.79C745.04,-184.7 785.21,-88.05 853,-39 857.8,-35.53 863.05,-32.55 868.54,-30"/>
<polygon fill="#63b8ff" stroke="#63b8ff" points="727.02,-224.8 727.06,-235.4 733.63,-227.09 727.02,-224.8"/>
</a>
</g>
</g>
<!-- Node2 -->
<g id="Node000002" class="node">
<title>Node2</title>
<g id="a_Node000002"><a xlink:href="classDynExp_1_1ModuleConfiguratorBase.html" target="_top" xlink:title="Configurator class for ModuleBase.">
<polygon fill="white" stroke="#666666" points="593,-254.5 413,-254.5 413,-235.5 593,-235.5 593,-254.5"/>
<text text-anchor="middle" x="503" y="-242.5" font-family="Helvetica,sans-Serif" font-size="10.00">DynExp::ModuleConfiguratorBase</text>
</a>
</g>
</g>
<!-- Node2&#45;&gt;Node1 -->
<g id="edge1_Node000001_Node000002" class="edge">
<title>Node2&#45;&gt;Node1</title>
<g id="a_edge1_Node000001_Node000002"><a xlink:title=" ">
<path fill="none" stroke="#63b8ff" d="M603.56,-245C612.02,-245 620.55,-245 628.95,-245"/>
<polygon fill="#63b8ff" stroke="#63b8ff" points="603.3,-241.5 593.3,-245 603.3,-248.5 603.3,-241.5"/>
</a>
</g>
</g>
<!-- Node3 -->
<g id="Node000003" class="node">
<title>Node3</title>
<g id="a_Node000003"><a xlink:href="classDynExp_1_1RunnableObjectConfigurator.html" target="_top" xlink:title="Configurator class for RunnableObject.">
<polygon fill="white" stroke="#666666" points="377,-254.5 180,-254.5 180,-235.5 377,-235.5 377,-254.5"/>
<text text-anchor="middle" x="278.5" y="-242.5" font-family="Helvetica,sans-Serif" font-size="10.00">DynExp::RunnableObjectConfigurator</text>
</a>
</g>
</g>
<!-- Node3&#45;&gt;Node2 -->
<g id="edge2_Node000002_Node000003" class="edge">
<title>Node3&#45;&gt;Node2</title>
<g id="a_edge2_Node000002_Node000003"><a xlink:title=" ">
<path fill="none" stroke="#63b8ff" d="M387.18,-245C395.79,-245 404.44,-245 412.9,-245"/>
<polygon fill="#63b8ff" stroke="#63b8ff" points="387.09,-241.5 377.09,-245 387.09,-248.5 387.09,-241.5"/>
</a>
</g>
</g>
<!-- Node4 -->
<g id="Node000004" class="node">
<title>Node4</title>
<g id="a_Node000004"><a xlink:href="classDynExp_1_1ConfiguratorBase.html" target="_top" xlink:title="The configurator classes have the task to generate parameter objects (refer to DynExp::ParamsBase) of...">
<polygon fill="white" stroke="#666666" points="144,-254.5 0,-254.5 0,-235.5 144,-235.5 144,-254.5"/>
<text text-anchor="middle" x="72" y="-242.5" font-family="Helvetica,sans-Serif" font-size="10.00">DynExp::ConfiguratorBase</text>
</a>
</g>
</g>
<!-- Node4&#45;&gt;Node3 -->
<g id="edge3_Node000003_Node000004" class="edge">
<title>Node4&#45;&gt;Node3</title>
<g id="a_edge3_Node000003_Node000004"><a xlink:title=" ">
<path fill="none" stroke="#63b8ff" d="M154.36,-245C162.76,-245 171.35,-245 179.89,-245"/>
<polygon fill="#63b8ff" stroke="#63b8ff" points="154.24,-241.5 144.24,-245 154.24,-248.5 154.24,-241.5"/>
</a>
</g>
</g>
</g>
</svg>
