<?xml version="1.0" encoding="UTF-8" standalone="no"?>
<!DOCTYPE svg PUBLIC "-//W3C//DTD SVG 1.1//EN"
 "http://www.w3.org/Graphics/SVG/1.1/DTD/svg11.dtd">
<!-- Generated by graphviz version 2.43.0 (0)
 -->
<!-- Title: DynExpModule::NetworkAnalogOutT&lt; gRPCServices &gt;::CallDataGetHardwareLimits Pages: 1 -->
<svg width="482pt" height="83pt"
 viewBox="0.00 0.00 482.00 83.00" xmlns="http://www.w3.org/2000/svg" xmlns:xlink="http://www.w3.org/1999/xlink">
<g id="graph0" class="graph" transform="scale(1 1) rotate(0) translate(4 79)">
<title>DynExpModule::NetworkAnalogOutT&lt; gRPCServices &gt;::CallDataGetHardwareLimits</title>
<polygon fill="white" stroke="transparent" points="-4,4 -4,-79 478,-79 478,4 -4,4"/>
<!-- Node1 -->
<g id="node1" class="node">
<title>Node1</title>
<g id="a_node1"><a xlink:title=" ">
<polygon fill="#bfbfbf" stroke="black" points="280,-17 280,-58 474,-58 474,-17 280,-17"/>
<text text-anchor="start" x="288" y="-46" font-family="Helvetica,sans-Serif" font-size="10.00">DynExpModule::NetworkAnalog</text>
<text text-anchor="start" x="288" y="-35" font-family="Helvetica,sans-Serif" font-size="10.00">OutT&lt; gRPCServices &gt;::CallDataGet</text>
<text text-anchor="middle" x="377" y="-24" font-family="Helvetica,sans-Serif" font-size="10.00">HardwareLimits</text>
</a>
</g>
</g>
<!-- Node2 -->
<g id="node2" class="node">
<title>Node2</title>
<g id="a_node2"><a xlink:title=" ">
<polygon fill="white" stroke="#bfbfbf" points="0,-0.5 0,-74.5 244,-74.5 244,-0.5 0,-0.5"/>
<text text-anchor="start" x="8" y="-62.5" font-family="Helvetica,sans-Serif" font-size="10.00">gRPCModule::template</text>
<text text-anchor="start" x="8" y="-51.5" font-family="Helvetica,sans-Serif" font-size="10.00"> TypedCallDataBase&lt; CallData</text>
<text text-anchor="start" x="8" y="-40.5" font-family="Helvetica,sans-Serif" font-size="10.00">GetHardwareLimits, ThisServiceType,</text>
<text text-anchor="start" x="8" y="-29.5" font-family="Helvetica,sans-Serif" font-size="10.00"> DynExpProto::Common::VoidMessage,</text>
<text text-anchor="start" x="8" y="-18.5" font-family="Helvetica,sans-Serif" font-size="10.00"> DynExpProto::NetworkAnalogOut::ValueLimits</text>
<text text-anchor="middle" x="122" y="-7.5" font-family="Helvetica,sans-Serif" font-size="10.00">Message &gt;</text>
</a>
</g>
</g>
<!-- Node2&#45;&gt;Node1 -->
<g id="edge1" class="edge">
<title>Node2&#45;&gt;Node1</title>
<path fill="none" stroke="midnightblue" d="M254.38,-37.5C262.95,-37.5 271.48,-37.5 279.84,-37.5"/>
<polygon fill="midnightblue" stroke="midnightblue" points="254.31,-34 244.31,-37.5 254.31,-41 254.31,-34"/>
</g>
</g>
</svg>
