<?xml version="1.0" encoding="UTF-8" standalone="no"?>
<!DOCTYPE svg PUBLIC "-//W3C//DTD SVG 1.1//EN"
 "http://www.w3.org/Graphics/SVG/1.1/DTD/svg11.dtd">
<!-- Generated by graphviz version 2.43.0 (0)
 -->
<!-- Title: DynExpInstr::PositionerStageData Pages: 1 -->
<svg width="923pt" height="116pt"
 viewBox="0.00 0.00 923.00 115.50" xmlns="http://www.w3.org/2000/svg" xmlns:xlink="http://www.w3.org/1999/xlink">
<g id="graph0" class="graph" transform="scale(1 1) rotate(0) translate(4 111.5)">
<title>DynExpInstr::PositionerStageData</title>
<polygon fill="white" stroke="transparent" points="-4,4 -4,-111.5 919,-111.5 919,4 -4,4"/>
<!-- Node1 -->
<g id="node1" class="node">
<title>Node1</title>
<g id="a_node1"><a xlink:title="Data class for PositionerStage.">
<polygon fill="#bfbfbf" stroke="black" points="520,-38.5 520,-57.5 702,-57.5 702,-38.5 520,-38.5"/>
<text text-anchor="middle" x="611" y="-45.5" font-family="Helvetica,sans-Serif" font-size="10.00">DynExpInstr::PositionerStageData</text>
</a>
</g>
</g>
<!-- Node5 -->
<g id="node5" class="node">
<title>Node5</title>
<g id="a_node5"><a xlink:href="classDynExpInstr_1_1NenionLeakvalveF3Data.html" target="_top" xlink:title=" ">
<polygon fill="white" stroke="black" points="743,-77 743,-107 910,-107 910,-77 743,-77"/>
<text text-anchor="start" x="751" y="-95" font-family="Helvetica,sans-Serif" font-size="10.00">DynExpInstr::NenionLeakvalve</text>
<text text-anchor="middle" x="826.5" y="-84" font-family="Helvetica,sans-Serif" font-size="10.00">F3Data</text>
</a>
</g>
</g>
<!-- Node1&#45;&gt;Node5 -->
<g id="edge4" class="edge">
<title>Node1&#45;&gt;Node5</title>
<path fill="none" stroke="midnightblue" d="M668.29,-59.6C694.04,-64.91 724.88,-71.26 752.4,-76.93"/>
<polygon fill="midnightblue" stroke="midnightblue" points="668.83,-56.14 658.33,-57.55 667.41,-62.99 668.83,-56.14"/>
</g>
<!-- Node6 -->
<g id="node6" class="node">
<title>Node6</title>
<g id="a_node6"><a xlink:href="classDynExpInstr_1_1PI__C__862StageData.html" target="_top" xlink:title=" ">
<polygon fill="white" stroke="black" points="738,-38.5 738,-57.5 915,-57.5 915,-38.5 738,-38.5"/>
<text text-anchor="middle" x="826.5" y="-45.5" font-family="Helvetica,sans-Serif" font-size="10.00">DynExpInstr::PI_C_862StageData</text>
</a>
</g>
</g>
<!-- Node1&#45;&gt;Node6 -->
<g id="edge5" class="edge">
<title>Node1&#45;&gt;Node6</title>
<path fill="none" stroke="midnightblue" d="M712.27,-48C720.86,-48 729.5,-48 737.97,-48"/>
<polygon fill="midnightblue" stroke="midnightblue" points="712.23,-44.5 702.23,-48 712.23,-51.5 712.23,-44.5"/>
</g>
<!-- Node7 -->
<g id="node7" class="node">
<title>Node7</title>
<g id="a_node7"><a xlink:href="classDynExpInstr_1_1SmarActData.html" target="_top" xlink:title=" ">
<polygon fill="white" stroke="black" points="753.5,-0.5 753.5,-19.5 899.5,-19.5 899.5,-0.5 753.5,-0.5"/>
<text text-anchor="middle" x="826.5" y="-7.5" font-family="Helvetica,sans-Serif" font-size="10.00">DynExpInstr::SmarActData</text>
</a>
</g>
</g>
<!-- Node1&#45;&gt;Node7 -->
<g id="edge6" class="edge">
<title>Node1&#45;&gt;Node7</title>
<path fill="none" stroke="midnightblue" d="M675.75,-36.65C706.38,-31.2 742.69,-24.74 771.88,-19.54"/>
<polygon fill="midnightblue" stroke="midnightblue" points="674.83,-33.26 665.6,-38.46 676.06,-40.15 674.83,-33.26"/>
</g>
<!-- Node2 -->
<g id="node2" class="node">
<title>Node2</title>
<g id="a_node2"><a xlink:href="classDynExp_1_1InstrumentDataBase.html" target="_top" xlink:title="Data structure to contain data which is synchronized in between different threads....">
<polygon fill="white" stroke="black" points="323,-38.5 323,-57.5 484,-57.5 484,-38.5 323,-38.5"/>
<text text-anchor="middle" x="403.5" y="-45.5" font-family="Helvetica,sans-Serif" font-size="10.00">DynExp::InstrumentDataBase</text>
</a>
</g>
</g>
<!-- Node2&#45;&gt;Node1 -->
<g id="edge1" class="edge">
<title>Node2&#45;&gt;Node1</title>
<path fill="none" stroke="midnightblue" d="M494.41,-48C502.81,-48 511.32,-48 519.71,-48"/>
<polygon fill="midnightblue" stroke="midnightblue" points="494.25,-44.5 484.25,-48 494.25,-51.5 494.25,-44.5"/>
</g>
<!-- Node3 -->
<g id="node3" class="node">
<title>Node3</title>
<g id="a_node3"><a xlink:href="classUtil_1_1ISynchronizedPointerLockable.html" target="_top" xlink:title="Interface to allow synchronizing the access to derived classes between different threads by making th...">
<polygon fill="white" stroke="black" points="144,-33 144,-63 287,-63 287,-33 144,-33"/>
<text text-anchor="start" x="152" y="-51" font-family="Helvetica,sans-Serif" font-size="10.00">Util::ISynchronizedPointer</text>
<text text-anchor="middle" x="215.5" y="-40" font-family="Helvetica,sans-Serif" font-size="10.00">Lockable</text>
</a>
</g>
</g>
<!-- Node3&#45;&gt;Node2 -->
<g id="edge2" class="edge">
<title>Node3&#45;&gt;Node2</title>
<path fill="none" stroke="midnightblue" d="M297.35,-48C305.84,-48 314.47,-48 322.94,-48"/>
<polygon fill="midnightblue" stroke="midnightblue" points="297.08,-44.5 287.08,-48 297.08,-51.5 297.08,-44.5"/>
</g>
<!-- Node4 -->
<g id="node4" class="node">
<title>Node4</title>
<g id="a_node4"><a xlink:href="classUtil_1_1INonCopyable.html" target="_top" xlink:title="Interface to delete copy constructor and copy assignment operator and thus make derived classes non&#45;c...">
<polygon fill="white" stroke="black" points="0,-38.5 0,-57.5 108,-57.5 108,-38.5 0,-38.5"/>
<text text-anchor="middle" x="54" y="-45.5" font-family="Helvetica,sans-Serif" font-size="10.00">Util::INonCopyable</text>
</a>
</g>
</g>
<!-- Node4&#45;&gt;Node3 -->
<g id="edge3" class="edge">
<title>Node4&#45;&gt;Node3</title>
<path fill="none" stroke="midnightblue" d="M118.19,-48C126.58,-48 135.23,-48 143.74,-48"/>
<polygon fill="midnightblue" stroke="midnightblue" points="118.11,-44.5 108.11,-48 118.11,-51.5 118.11,-44.5"/>
</g>
</g>
</svg>
