<?xml version="1.0" encoding="UTF-8" standalone="no"?>
<!DOCTYPE svg PUBLIC "-//W3C//DTD SVG 1.1//EN"
 "http://www.w3.org/Graphics/SVG/1.1/DTD/svg11.dtd">
<!-- Generated by graphviz version 2.43.0 (0)
 -->
<!-- Title: DynExpInstr::DataStreamInstrument Pages: 1 -->
<svg width="1512pt" height="356pt"
 viewBox="0.00 0.00 1512.00 355.50" xmlns="http://www.w3.org/2000/svg" xmlns:xlink="http://www.w3.org/1999/xlink">
<g id="graph0" class="graph" transform="scale(1 1) rotate(0) translate(4 351.5)">
<title>DynExpInstr::DataStreamInstrument</title>
<polygon fill="white" stroke="transparent" points="-4,4 -4,-351.5 1508,-351.5 1508,4 -4,4"/>
<!-- Node1 -->
<g id="node1" class="node">
<title>Node1</title>
<g id="a_node1"><a xlink:title="Implementation of the data stream meta instrument, which is a base class for all instruments reading/...">
<polygon fill="#bfbfbf" stroke="black" points="490,-57.5 490,-76.5 684,-76.5 684,-57.5 490,-57.5"/>
<text text-anchor="middle" x="587" y="-64.5" font-family="Helvetica,sans-Serif" font-size="10.00">DynExpInstr::DataStreamInstrument</text>
</a>
</g>
</g>
<!-- Node6 -->
<g id="node6" class="node">
<title>Node6</title>
<g id="a_node6"><a xlink:href="classDynExpInstr_1_1FunctionGenerator.html" target="_top" xlink:title="Function generator meta instrument based on the data stream meta instrument to generate waveforms by ...">
<polygon fill="white" stroke="black" points="720,-221.5 720,-240.5 892,-240.5 892,-221.5 720,-221.5"/>
<text text-anchor="middle" x="806" y="-228.5" font-family="Helvetica,sans-Serif" font-size="10.00">DynExpInstr::FunctionGenerator</text>
</a>
</g>
</g>
<!-- Node1&#45;&gt;Node6 -->
<g id="edge5" class="edge">
<title>Node1&#45;&gt;Node6</title>
<path fill="none" stroke="midnightblue" d="M608.66,-82.61C653.03,-116.15 756.36,-194.24 792.36,-221.45"/>
<polygon fill="midnightblue" stroke="midnightblue" points="610.69,-79.76 600.6,-76.53 606.47,-85.35 610.69,-79.76"/>
</g>
<!-- Node16 -->
<g id="node16" class="node">
<title>Node16</title>
<g id="a_node16"><a xlink:href="classDynExpInstr_1_1InputPort.html" target="_top" xlink:title="Generic input port meta instrument based on the data stream meta instrument to read data from hardwar...">
<polygon fill="white" stroke="black" points="743,-76.5 743,-95.5 869,-95.5 869,-76.5 743,-76.5"/>
<text text-anchor="middle" x="806" y="-83.5" font-family="Helvetica,sans-Serif" font-size="10.00">DynExpInstr::InputPort</text>
</a>
</g>
</g>
<!-- Node1&#45;&gt;Node16 -->
<g id="edge15" class="edge">
<title>Node1&#45;&gt;Node16</title>
<path fill="none" stroke="midnightblue" d="M694.45,-76.32C711.07,-77.78 727.75,-79.24 742.93,-80.57"/>
<polygon fill="midnightblue" stroke="midnightblue" points="694.39,-72.8 684.13,-75.42 693.78,-79.78 694.39,-72.8"/>
</g>
<!-- Node21 -->
<g id="node21" class="node">
<title>Node21</title>
<g id="a_node21"><a xlink:href="classDynExpInstr_1_1LockinAmplifier.html" target="_top" xlink:title="Meta instrument for a lock&#45;in amplifier based on the data stream meta instrument.">
<polygon fill="white" stroke="black" points="727,-38.5 727,-57.5 885,-57.5 885,-38.5 727,-38.5"/>
<text text-anchor="middle" x="806" y="-45.5" font-family="Helvetica,sans-Serif" font-size="10.00">DynExpInstr::LockinAmplifier</text>
</a>
</g>
</g>
<!-- Node1&#45;&gt;Node21 -->
<g id="edge20" class="edge">
<title>Node1&#45;&gt;Node21</title>
<path fill="none" stroke="midnightblue" d="M694.21,-57.7C705.2,-56.74 716.23,-55.77 726.84,-54.84"/>
<polygon fill="midnightblue" stroke="midnightblue" points="693.78,-54.22 684.13,-58.58 694.39,-61.2 693.78,-54.22"/>
</g>
<!-- Node23 -->
<g id="node23" class="node">
<title>Node23</title>
<g id="a_node23"><a xlink:href="classDynExpInstr_1_1TimeTagger.html" target="_top" xlink:title="Meta instrument for a time tagging device to assign timestamps to (e.g. photon) detection events base...">
<polygon fill="white" stroke="black" points="736.5,-0.5 736.5,-19.5 875.5,-19.5 875.5,-0.5 736.5,-0.5"/>
<text text-anchor="middle" x="806" y="-7.5" font-family="Helvetica,sans-Serif" font-size="10.00">DynExpInstr::TimeTagger</text>
</a>
</g>
</g>
<!-- Node1&#45;&gt;Node23 -->
<g id="edge22" class="edge">
<title>Node1&#45;&gt;Node23</title>
<path fill="none" stroke="midnightblue" d="M628.93,-54.53C654.91,-46.78 689.3,-36.84 720,-29 732.89,-25.71 746.97,-22.43 759.88,-19.55"/>
<polygon fill="midnightblue" stroke="midnightblue" points="627.63,-51.26 619.06,-57.48 629.64,-57.97 627.63,-51.26"/>
</g>
<!-- Node2 -->
<g id="node2" class="node">
<title>Node2</title>
<g id="a_node2"><a xlink:href="classDynExp_1_1InstrumentBase.html" target="_top" xlink:title="Base class for instruments. Instruments comprise virtual devices (meta instruments) and physial devic...">
<polygon fill="white" stroke="black" points="317,-57.5 317,-76.5 454,-76.5 454,-57.5 317,-57.5"/>
<text text-anchor="middle" x="385.5" y="-64.5" font-family="Helvetica,sans-Serif" font-size="10.00">DynExp::InstrumentBase</text>
</a>
</g>
</g>
<!-- Node2&#45;&gt;Node1 -->
<g id="edge1" class="edge">
<title>Node2&#45;&gt;Node1</title>
<path fill="none" stroke="midnightblue" d="M464.18,-67C472.6,-67 481.24,-67 489.85,-67"/>
<polygon fill="midnightblue" stroke="midnightblue" points="464.04,-63.5 454.04,-67 464.04,-70.5 464.04,-63.5"/>
</g>
<!-- Node3 -->
<g id="node3" class="node">
<title>Node3</title>
<g id="a_node3"><a xlink:href="classDynExp_1_1RunnableObject.html" target="_top" xlink:title="Defines an Object which possesses a thread it runs in. The RunnableObject can be started and stopped ...">
<polygon fill="white" stroke="black" points="144,-57.5 144,-76.5 281,-76.5 281,-57.5 144,-57.5"/>
<text text-anchor="middle" x="212.5" y="-64.5" font-family="Helvetica,sans-Serif" font-size="10.00">DynExp::RunnableObject</text>
</a>
</g>
</g>
<!-- Node3&#45;&gt;Node2 -->
<g id="edge2" class="edge">
<title>Node3&#45;&gt;Node2</title>
<path fill="none" stroke="midnightblue" d="M291.1,-67C299.69,-67 308.39,-67 316.85,-67"/>
<polygon fill="midnightblue" stroke="midnightblue" points="291.08,-63.5 281.08,-67 291.08,-70.5 291.08,-63.5"/>
</g>
<!-- Node4 -->
<g id="node4" class="node">
<title>Node4</title>
<g id="a_node4"><a xlink:href="classUtil_1_1INonCopyable.html" target="_top" xlink:title="Interface to delete copy constructor and copy assignment operator and thus make derived classes non&#45;c...">
<polygon fill="white" stroke="black" points="0,-76.5 0,-95.5 108,-95.5 108,-76.5 0,-76.5"/>
<text text-anchor="middle" x="54" y="-83.5" font-family="Helvetica,sans-Serif" font-size="10.00">Util::INonCopyable</text>
</a>
</g>
</g>
<!-- Node4&#45;&gt;Node3 -->
<g id="edge3" class="edge">
<title>Node4&#45;&gt;Node3</title>
<path fill="none" stroke="midnightblue" d="M118.5,-78.29C126.87,-77.27 135.49,-76.23 143.93,-75.2"/>
<polygon fill="midnightblue" stroke="midnightblue" points="117.93,-74.83 108.42,-79.51 118.77,-81.78 117.93,-74.83"/>
</g>
<!-- Node5 -->
<g id="node5" class="node">
<title>Node5</title>
<g id="a_node5"><a xlink:href="classDynExp_1_1Object.html" target="_top" xlink:title="Base class for all DynExp Objects like hardware adapters (DynExp::HardwareAdapterBase),...">
<polygon fill="white" stroke="black" points="8,-38.5 8,-57.5 100,-57.5 100,-38.5 8,-38.5"/>
<text text-anchor="middle" x="54" y="-45.5" font-family="Helvetica,sans-Serif" font-size="10.00">DynExp::Object</text>
</a>
</g>
</g>
<!-- Node5&#45;&gt;Node3 -->
<g id="edge4" class="edge">
<title>Node5&#45;&gt;Node3</title>
<path fill="none" stroke="midnightblue" d="M110.43,-54.73C121.26,-56.04 132.74,-57.44 143.91,-58.79"/>
<polygon fill="midnightblue" stroke="midnightblue" points="110.62,-51.23 100.27,-53.5 109.77,-58.18 110.62,-51.23"/>
</g>
<!-- Node7 -->
<g id="node7" class="node">
<title>Node7</title>
<g id="a_node7"><a xlink:href="classDynExpInstr_1_1DummyDataStreamInstrument.html" target="_top" xlink:title=" ">
<polygon fill="white" stroke="black" points="929.5,-317 929.5,-347 1108.5,-347 1108.5,-317 929.5,-317"/>
<text text-anchor="start" x="937.5" y="-335" font-family="Helvetica,sans-Serif" font-size="10.00">DynExpInstr::DummyDataStream</text>
<text text-anchor="middle" x="1019" y="-324" font-family="Helvetica,sans-Serif" font-size="10.00">Instrument</text>
</a>
</g>
</g>
<!-- Node6&#45;&gt;Node7 -->
<g id="edge6" class="edge">
<title>Node6&#45;&gt;Node7</title>
<path fill="none" stroke="midnightblue" d="M827.46,-246.46C850.72,-263.41 890.37,-290.38 928,-307 936.46,-310.73 945.61,-314.05 954.73,-316.94"/>
<polygon fill="midnightblue" stroke="midnightblue" points="829.51,-243.62 819.38,-240.5 825.35,-249.26 829.51,-243.62"/>
</g>
<!-- Node8 -->
<g id="node8" class="node">
<title>Node8</title>
<g id="a_node8"><a xlink:href="classDynExpInstr_1_1OutputPort.html" target="_top" xlink:title="Generic output port meta instrument based on the data stream and function generator meta instruments ...">
<polygon fill="white" stroke="black" points="952,-278.5 952,-297.5 1086,-297.5 1086,-278.5 952,-278.5"/>
<text text-anchor="middle" x="1019" y="-285.5" font-family="Helvetica,sans-Serif" font-size="10.00">DynExpInstr::OutputPort</text>
</a>
</g>
</g>
<!-- Node6&#45;&gt;Node8 -->
<g id="edge7" class="edge">
<title>Node6&#45;&gt;Node8</title>
<path fill="none" stroke="midnightblue" d="M844.34,-243.75C868.12,-251.61 899.67,-261.58 928,-269 941.13,-272.44 955.46,-275.69 968.75,-278.5"/>
<polygon fill="midnightblue" stroke="midnightblue" points="845.25,-240.36 834.65,-240.52 843.03,-247 845.25,-240.36"/>
</g>
<!-- Node13 -->
<g id="node13" class="node">
<title>Node13</title>
<g id="a_node13"><a xlink:href="classDynExpInstr_1_1RS__SMB100B.html" target="_top" xlink:title=" ">
<polygon fill="white" stroke="black" points="946,-240.5 946,-259.5 1092,-259.5 1092,-240.5 946,-240.5"/>
<text text-anchor="middle" x="1019" y="-247.5" font-family="Helvetica,sans-Serif" font-size="10.00">DynExpInstr::RS_SMB100B</text>
</a>
</g>
</g>
<!-- Node6&#45;&gt;Node13 -->
<g id="edge12" class="edge">
<title>Node6&#45;&gt;Node13</title>
<path fill="none" stroke="midnightblue" d="M902.26,-239.58C916.84,-240.89 931.69,-242.23 945.68,-243.49"/>
<polygon fill="midnightblue" stroke="midnightblue" points="902.49,-236.08 892.21,-238.67 901.86,-243.06 902.49,-236.08"/>
</g>
<!-- Node14 -->
<g id="node14" class="node">
<title>Node14</title>
<g id="a_node14"><a xlink:href="classDynExpInstr_1_1RS__SMC100A.html" target="_top" xlink:title=" ">
<polygon fill="white" stroke="black" points="946,-202.5 946,-221.5 1092,-221.5 1092,-202.5 946,-202.5"/>
<text text-anchor="middle" x="1019" y="-209.5" font-family="Helvetica,sans-Serif" font-size="10.00">DynExpInstr::RS_SMC100A</text>
</a>
</g>
</g>
<!-- Node6&#45;&gt;Node14 -->
<g id="edge13" class="edge">
<title>Node6&#45;&gt;Node14</title>
<path fill="none" stroke="midnightblue" d="M902.26,-222.42C916.84,-221.11 931.69,-219.77 945.68,-218.51"/>
<polygon fill="midnightblue" stroke="midnightblue" points="901.86,-218.94 892.21,-223.33 902.49,-225.92 901.86,-218.94"/>
</g>
<!-- Node15 -->
<g id="node15" class="node">
<title>Node15</title>
<g id="a_node15"><a xlink:href="classDynExpInstr_1_1SwabianInstrumentsPulseStreamer.html" target="_top" xlink:title=" ">
<polygon fill="white" stroke="black" points="928,-153 928,-183 1110,-183 1110,-153 928,-153"/>
<text text-anchor="start" x="936" y="-171" font-family="Helvetica,sans-Serif" font-size="10.00">DynExpInstr::SwabianInstruments</text>
<text text-anchor="middle" x="1019" y="-160" font-family="Helvetica,sans-Serif" font-size="10.00">PulseStreamer</text>
</a>
</g>
</g>
<!-- Node6&#45;&gt;Node15 -->
<g id="edge14" class="edge">
<title>Node6&#45;&gt;Node15</title>
<path fill="none" stroke="midnightblue" d="M846.41,-218.26C870.01,-210.72 900.66,-201.09 928,-193 939.2,-189.69 951.21,-186.26 962.71,-183.05"/>
<polygon fill="midnightblue" stroke="midnightblue" points="845.21,-214.97 836.75,-221.35 847.34,-221.63 845.21,-214.97"/>
</g>
<!-- Node9 -->
<g id="node9" class="node">
<title>Node9</title>
<g id="a_node9"><a xlink:href="classDynExpInstr_1_1AnalogOut.html" target="_top" xlink:title="Meta instrument for a single analog output port based on the data stream, function generator,...">
<polygon fill="white" stroke="black" points="1158,-297.5 1158,-316.5 1291,-316.5 1291,-297.5 1158,-297.5"/>
<text text-anchor="middle" x="1224.5" y="-304.5" font-family="Helvetica,sans-Serif" font-size="10.00">DynExpInstr::AnalogOut</text>
</a>
</g>
</g>
<!-- Node8&#45;&gt;Node9 -->
<g id="edge8" class="edge">
<title>Node8&#45;&gt;Node9</title>
<path fill="none" stroke="midnightblue" d="M1096.19,-295.11C1116.44,-297 1138.13,-299.03 1157.76,-300.86"/>
<polygon fill="midnightblue" stroke="midnightblue" points="1096.35,-291.61 1086.07,-294.17 1095.7,-298.58 1096.35,-291.61"/>
</g>
<!-- Node11 -->
<g id="node11" class="node">
<title>Node11</title>
<g id="a_node11"><a xlink:href="classDynExpInstr_1_1DigitalOut.html" target="_top" xlink:title="Meta instrument for a single digital output port based on the data stream, function generator,...">
<polygon fill="white" stroke="black" points="1159,-259.5 1159,-278.5 1290,-278.5 1290,-259.5 1159,-259.5"/>
<text text-anchor="middle" x="1224.5" y="-266.5" font-family="Helvetica,sans-Serif" font-size="10.00">DynExpInstr::DigitalOut</text>
</a>
</g>
</g>
<!-- Node8&#45;&gt;Node11 -->
<g id="edge10" class="edge">
<title>Node8&#45;&gt;Node11</title>
<path fill="none" stroke="midnightblue" d="M1096.07,-280.9C1116.71,-278.97 1138.85,-276.9 1158.8,-275.04"/>
<polygon fill="midnightblue" stroke="midnightblue" points="1095.7,-277.42 1086.07,-281.83 1096.35,-284.39 1095.7,-277.42"/>
</g>
<!-- Node10 -->
<g id="node10" class="node">
<title>Node10</title>
<g id="a_node10"><a xlink:href="classDynExpInstr_1_1NIDAQAnalogOut.html" target="_top" xlink:title=" ">
<polygon fill="white" stroke="black" points="1339,-297.5 1339,-316.5 1504,-316.5 1504,-297.5 1339,-297.5"/>
<text text-anchor="middle" x="1421.5" y="-304.5" font-family="Helvetica,sans-Serif" font-size="10.00">DynExpInstr::NIDAQAnalogOut</text>
</a>
</g>
</g>
<!-- Node9&#45;&gt;Node10 -->
<g id="edge9" class="edge">
<title>Node9&#45;&gt;Node10</title>
<path fill="none" stroke="midnightblue" d="M1301.41,-307C1313.66,-307 1326.4,-307 1338.78,-307"/>
<polygon fill="midnightblue" stroke="midnightblue" points="1301.25,-303.5 1291.25,-307 1301.25,-310.5 1301.25,-303.5"/>
</g>
<!-- Node12 -->
<g id="node12" class="node">
<title>Node12</title>
<g id="a_node12"><a xlink:href="classDynExpInstr_1_1NIDAQDigitalOut.html" target="_top" xlink:title=" ">
<polygon fill="white" stroke="black" points="1339.5,-259.5 1339.5,-278.5 1503.5,-278.5 1503.5,-259.5 1339.5,-259.5"/>
<text text-anchor="middle" x="1421.5" y="-266.5" font-family="Helvetica,sans-Serif" font-size="10.00">DynExpInstr::NIDAQDigitalOut</text>
</a>
</g>
</g>
<!-- Node11&#45;&gt;Node12 -->
<g id="edge11" class="edge">
<title>Node11&#45;&gt;Node12</title>
<path fill="none" stroke="midnightblue" d="M1300.28,-269C1313.06,-269 1326.4,-269 1339.34,-269"/>
<polygon fill="midnightblue" stroke="midnightblue" points="1300.16,-265.5 1290.16,-269 1300.16,-272.5 1300.16,-265.5"/>
</g>
<!-- Node17 -->
<g id="node17" class="node">
<title>Node17</title>
<g id="a_node17"><a xlink:href="classDynExpInstr_1_1AnalogIn.html" target="_top" xlink:title="Meta instrument for a single analog input port based on the data stream and generic input port meta i...">
<polygon fill="white" stroke="black" points="956.5,-114.5 956.5,-133.5 1081.5,-133.5 1081.5,-114.5 956.5,-114.5"/>
<text text-anchor="middle" x="1019" y="-121.5" font-family="Helvetica,sans-Serif" font-size="10.00">DynExpInstr::AnalogIn</text>
</a>
</g>
</g>
<!-- Node16&#45;&gt;Node17 -->
<g id="edge16" class="edge">
<title>Node16&#45;&gt;Node17</title>
<path fill="none" stroke="midnightblue" d="M870.01,-97.35C900.28,-102.8 936.16,-109.26 965.01,-114.46"/>
<polygon fill="midnightblue" stroke="midnightblue" points="870.43,-93.87 859.97,-95.54 869.19,-100.76 870.43,-93.87"/>
</g>
<!-- Node19 -->
<g id="node19" class="node">
<title>Node19</title>
<g id="a_node19"><a xlink:href="classDynExpInstr_1_1DigitalIn.html" target="_top" xlink:title="Meta instrument for a single digital input port based on the data stream and generic input port meta ...">
<polygon fill="white" stroke="black" points="957.5,-76.5 957.5,-95.5 1080.5,-95.5 1080.5,-76.5 957.5,-76.5"/>
<text text-anchor="middle" x="1019" y="-83.5" font-family="Helvetica,sans-Serif" font-size="10.00">DynExpInstr::DigitalIn</text>
</a>
</g>
</g>
<!-- Node16&#45;&gt;Node19 -->
<g id="edge18" class="edge">
<title>Node16&#45;&gt;Node19</title>
<path fill="none" stroke="midnightblue" d="M879.48,-86C904.85,-86 933.06,-86 957.37,-86"/>
<polygon fill="midnightblue" stroke="midnightblue" points="879.17,-82.5 869.17,-86 879.17,-89.5 879.17,-82.5"/>
</g>
<!-- Node18 -->
<g id="node18" class="node">
<title>Node18</title>
<g id="a_node18"><a xlink:href="classDynExpInstr_1_1NIDAQAnalogIn.html" target="_top" xlink:title=" ">
<polygon fill="white" stroke="black" points="1146,-114.5 1146,-133.5 1303,-133.5 1303,-114.5 1146,-114.5"/>
<text text-anchor="middle" x="1224.5" y="-121.5" font-family="Helvetica,sans-Serif" font-size="10.00">DynExpInstr::NIDAQAnalogIn</text>
</a>
</g>
</g>
<!-- Node17&#45;&gt;Node18 -->
<g id="edge17" class="edge">
<title>Node17&#45;&gt;Node18</title>
<path fill="none" stroke="midnightblue" d="M1091.76,-124C1109.28,-124 1128.1,-124 1145.88,-124"/>
<polygon fill="midnightblue" stroke="midnightblue" points="1091.61,-120.5 1081.61,-124 1091.61,-127.5 1091.61,-120.5"/>
</g>
<!-- Node20 -->
<g id="node20" class="node">
<title>Node20</title>
<g id="a_node20"><a xlink:href="classDynExpInstr_1_1NIDAQDigitalIn.html" target="_top" xlink:title=" ">
<polygon fill="white" stroke="black" points="1147,-76.5 1147,-95.5 1302,-95.5 1302,-76.5 1147,-76.5"/>
<text text-anchor="middle" x="1224.5" y="-83.5" font-family="Helvetica,sans-Serif" font-size="10.00">DynExpInstr::NIDAQDigitalIn</text>
</a>
</g>
</g>
<!-- Node19&#45;&gt;Node20 -->
<g id="edge19" class="edge">
<title>Node19&#45;&gt;Node20</title>
<path fill="none" stroke="midnightblue" d="M1090.72,-86C1108.89,-86 1128.52,-86 1146.96,-86"/>
<polygon fill="midnightblue" stroke="midnightblue" points="1090.51,-82.5 1080.51,-86 1090.51,-89.5 1090.51,-82.5"/>
</g>
<!-- Node22 -->
<g id="node22" class="node">
<title>Node22</title>
<g id="a_node22"><a xlink:href="classDynExpInstr_1_1ZI__MFLI.html" target="_top" xlink:title=" ">
<polygon fill="white" stroke="black" points="959,-38.5 959,-57.5 1079,-57.5 1079,-38.5 959,-38.5"/>
<text text-anchor="middle" x="1019" y="-45.5" font-family="Helvetica,sans-Serif" font-size="10.00">DynExpInstr::ZI_MFLI</text>
</a>
</g>
</g>
<!-- Node21&#45;&gt;Node22 -->
<g id="edge21" class="edge">
<title>Node21&#45;&gt;Node22</title>
<path fill="none" stroke="midnightblue" d="M895.38,-48C916.84,-48 939.27,-48 958.99,-48"/>
<polygon fill="midnightblue" stroke="midnightblue" points="895.27,-44.5 885.27,-48 895.27,-51.5 895.27,-44.5"/>
</g>
<!-- Node24 -->
<g id="node24" class="node">
<title>Node24</title>
<g id="a_node24"><a xlink:href="classDynExpInstr_1_1QutoolsQuTAG.html" target="_top" xlink:title=" ">
<polygon fill="white" stroke="black" points="943,-0.5 943,-19.5 1095,-19.5 1095,-0.5 943,-0.5"/>
<text text-anchor="middle" x="1019" y="-7.5" font-family="Helvetica,sans-Serif" font-size="10.00">DynExpInstr::QutoolsQuTAG</text>
</a>
</g>
</g>
<!-- Node23&#45;&gt;Node24 -->
<g id="edge23" class="edge">
<title>Node23&#45;&gt;Node24</title>
<path fill="none" stroke="midnightblue" d="M885.76,-10C904.47,-10 924.37,-10 942.91,-10"/>
<polygon fill="midnightblue" stroke="midnightblue" points="885.51,-6.5 875.51,-10 885.51,-13.5 885.51,-6.5"/>
</g>
</g>
</svg>
