<?xml version="1.0" encoding="UTF-8" standalone="no"?>
<!DOCTYPE svg PUBLIC "-//W3C//DTD SVG 1.1//EN"
 "http://www.w3.org/Graphics/SVG/1.1/DTD/svg11.dtd">
<!-- Generated by graphviz version 2.43.0 (0)
 -->
<!-- Title: DynExpInstr::NetworkSpectrometerParams Pages: 1 -->
<svg width="592pt" height="60pt"
 viewBox="0.00 0.00 592.00 60.00" xmlns="http://www.w3.org/2000/svg" xmlns:xlink="http://www.w3.org/1999/xlink">
<g id="graph0" class="graph" transform="scale(1 1) rotate(0) translate(4 56)">
<title>DynExpInstr::NetworkSpectrometerParams</title>
<!-- Node1 -->
<g id="Node000001" class="node">
<title>Node1</title>
<g id="a_Node000001"><a xlink:title=" ">
<polygon fill="#999999" stroke="#666666" points="584,-41 395,-41 395,-11 584,-11 584,-41"/>
<text text-anchor="start" x="403" y="-29" font-family="Helvetica,sans-Serif" font-size="10.00">DynExpInstr::NetworkSpectrometer</text>
<text text-anchor="middle" x="489.5" y="-18" font-family="Helvetica,sans-Serif" font-size="10.00">Params</text>
</a>
</g>
</g>
<!-- Node2 -->
<g id="Node000002" class="node">
<title>Node2</title>
<g id="a_Node000002"><a xlink:href="classDynExpInstr_1_1gRPCInstrumentParams.html" target="_top" xlink:title=" ">
<polygon fill="white" stroke="#666666" points="359,-52 163,-52 163,0 359,0 359,-52"/>
<text text-anchor="start" x="171" y="-40" font-family="Helvetica,sans-Serif" font-size="10.00">DynExpInstr::gRPCInstrument</text>
<text text-anchor="start" x="171" y="-29" font-family="Helvetica,sans-Serif" font-size="10.00">Params&lt; Spectrometer, 0,</text>
<text text-anchor="start" x="171" y="-18" font-family="Helvetica,sans-Serif" font-size="10.00"> DynExpProto::NetworkSpectrometer</text>
<text text-anchor="middle" x="261" y="-7" font-family="Helvetica,sans-Serif" font-size="10.00">::NetworkSpectrometer &gt;</text>
</a>
</g>
</g>
<!-- Node2&#45;&gt;Node1 -->
<g id="edge1_Node000001_Node000002" class="edge">
<title>Node2&#45;&gt;Node1</title>
<g id="a_edge1_Node000001_Node000002"><a xlink:title=" ">
<path fill="none" stroke="#63b8ff" d="M369.12,-26C377.73,-26 386.39,-26 394.89,-26"/>
<polygon fill="#63b8ff" stroke="#63b8ff" points="369.04,-22.5 359.04,-26 369.04,-29.5 369.04,-22.5"/>
</a>
</g>
</g>
<!-- Node3 -->
<g id="Node000003" class="node">
<title>Node3</title>
<g id="a_Node000003"><a xlink:title=" ">
<polygon fill="white" stroke="#666666" points="127,-35.5 0,-35.5 0,-16.5 127,-16.5 127,-35.5"/>
<text text-anchor="middle" x="63.5" y="-23.5" font-family="Helvetica,sans-Serif" font-size="10.00">BaseInstr::ParamsType</text>
</a>
</g>
</g>
<!-- Node3&#45;&gt;Node2 -->
<g id="edge2_Node000002_Node000003" class="edge">
<title>Node3&#45;&gt;Node2</title>
<g id="a_edge2_Node000002_Node000003"><a xlink:title=" ">
<path fill="none" stroke="#63b8ff" d="M137.21,-26C145.56,-26 154.18,-26 162.79,-26"/>
<polygon fill="#63b8ff" stroke="#63b8ff" points="137.16,-22.5 127.16,-26 137.16,-29.5 137.16,-22.5"/>
</a>
</g>
</g>
</g>
</svg>
