<?xml version="1.0" encoding="UTF-8" standalone="no"?>
<!DOCTYPE svg PUBLIC "-//W3C//DTD SVG 1.1//EN"
 "http://www.w3.org/Graphics/SVG/1.1/DTD/svg11.dtd">
<!-- Generated by graphviz version 2.43.0 (0)
 -->
<!-- Title: DynExpHardware::PVCamHardwareAdapterParams Pages: 1 -->
<svg width="214pt" height="274pt"
 viewBox="0.00 0.00 214.00 274.00" xmlns="http://www.w3.org/2000/svg" xmlns:xlink="http://www.w3.org/1999/xlink">
<g id="graph0" class="graph" transform="scale(1 1) rotate(0) translate(4 270)">
<title>DynExpHardware::PVCamHardwareAdapterParams</title>
<polygon fill="white" stroke="transparent" points="-4,4 -4,-270 210,-270 210,4 -4,4"/>
<!-- Node1 -->
<g id="node1" class="node">
<title>Node1</title>
<g id="a_node1"><a xlink:title=" ">
<polygon fill="#bfbfbf" stroke="black" points="8,-0.5 8,-30.5 198,-30.5 198,-0.5 8,-0.5"/>
<text text-anchor="start" x="16" y="-18.5" font-family="Helvetica,sans-Serif" font-size="10.00">DynExpHardware::PVCamHardware</text>
<text text-anchor="middle" x="103" y="-7.5" font-family="Helvetica,sans-Serif" font-size="10.00">AdapterParams</text>
</a>
</g>
</g>
<!-- Node2 -->
<g id="node2" class="node">
<title>Node2</title>
<g id="a_node2"><a xlink:href="classDynExp_1_1HardwareAdapterParamsBase.html" target="_top" xlink:title="Parameter class for HardwareAdapterBase.">
<polygon fill="white" stroke="black" points="0,-67.5 0,-86.5 206,-86.5 206,-67.5 0,-67.5"/>
<text text-anchor="middle" x="103" y="-74.5" font-family="Helvetica,sans-Serif" font-size="10.00">DynExp::HardwareAdapterParamsBase</text>
</a>
</g>
</g>
<!-- Node2&#45;&gt;Node1 -->
<g id="edge1" class="edge">
<title>Node2&#45;&gt;Node1</title>
<path fill="none" stroke="midnightblue" d="M103,-57.23C103,-48.59 103,-38.5 103,-30.52"/>
<polygon fill="midnightblue" stroke="midnightblue" points="99.5,-57.48 103,-67.48 106.5,-57.48 99.5,-57.48"/>
</g>
<!-- Node3 -->
<g id="node3" class="node">
<title>Node3</title>
<g id="a_node3"><a xlink:href="classDynExp_1_1ParamsBase.html" target="_top" xlink:title="Abstract base class for object parameter classes. Each class derived from class Object must be accomp...">
<polygon fill="white" stroke="black" points="43,-123.5 43,-142.5 163,-142.5 163,-123.5 43,-123.5"/>
<text text-anchor="middle" x="103" y="-130.5" font-family="Helvetica,sans-Serif" font-size="10.00">DynExp::ParamsBase</text>
</a>
</g>
</g>
<!-- Node3&#45;&gt;Node2 -->
<g id="edge2" class="edge">
<title>Node3&#45;&gt;Node2</title>
<path fill="none" stroke="midnightblue" d="M103,-112.8C103,-103.91 103,-93.78 103,-86.75"/>
<polygon fill="midnightblue" stroke="midnightblue" points="99.5,-113.08 103,-123.08 106.5,-113.08 99.5,-113.08"/>
</g>
<!-- Node4 -->
<g id="node4" class="node">
<title>Node4</title>
<g id="a_node4"><a xlink:href="classUtil_1_1ISynchronizedPointerLockable.html" target="_top" xlink:title="Interface to allow synchronizing the access to derived classes between different threads by making th...">
<polygon fill="white" stroke="black" points="31.5,-179.5 31.5,-209.5 174.5,-209.5 174.5,-179.5 31.5,-179.5"/>
<text text-anchor="start" x="39.5" y="-197.5" font-family="Helvetica,sans-Serif" font-size="10.00">Util::ISynchronizedPointer</text>
<text text-anchor="middle" x="103" y="-186.5" font-family="Helvetica,sans-Serif" font-size="10.00">Lockable</text>
</a>
</g>
</g>
<!-- Node4&#45;&gt;Node3 -->
<g id="edge3" class="edge">
<title>Node4&#45;&gt;Node3</title>
<path fill="none" stroke="midnightblue" d="M103,-169.29C103,-159.86 103,-149.65 103,-142.66"/>
<polygon fill="midnightblue" stroke="midnightblue" points="99.5,-169.4 103,-179.4 106.5,-169.4 99.5,-169.4"/>
</g>
<!-- Node5 -->
<g id="node5" class="node">
<title>Node5</title>
<g id="a_node5"><a xlink:href="classUtil_1_1INonCopyable.html" target="_top" xlink:title="Interface to delete copy constructor and copy assignment operator and thus make derived classes non&#45;c...">
<polygon fill="white" stroke="black" points="49,-246.5 49,-265.5 157,-265.5 157,-246.5 49,-246.5"/>
<text text-anchor="middle" x="103" y="-253.5" font-family="Helvetica,sans-Serif" font-size="10.00">Util::INonCopyable</text>
</a>
</g>
</g>
<!-- Node5&#45;&gt;Node4 -->
<g id="edge4" class="edge">
<title>Node5&#45;&gt;Node4</title>
<path fill="none" stroke="midnightblue" d="M103,-236.23C103,-227.59 103,-217.5 103,-209.52"/>
<polygon fill="midnightblue" stroke="midnightblue" points="99.5,-236.48 103,-246.48 106.5,-236.48 99.5,-236.48"/>
</g>
</g>
</svg>
