<?xml version="1.0" encoding="UTF-8" standalone="no"?>
<!DOCTYPE svg PUBLIC "-//W3C//DTD SVG 1.1//EN"
 "http://www.w3.org/Graphics/SVG/1.1/DTD/svg11.dtd">
<!-- Generated by graphviz version 2.43.0 (0)
 -->
<!-- Title: DynExpInstr::NetworkTimeTaggerData&lt; BaseInstr,, gRPCStubs &gt; Pages: 1 -->
<svg width="196pt" height="247pt"
 viewBox="0.00 0.00 196.00 247.00" xmlns="http://www.w3.org/2000/svg" xmlns:xlink="http://www.w3.org/1999/xlink">
<g id="graph0" class="graph" transform="scale(1 1) rotate(0) translate(4 243)">
<title>DynExpInstr::NetworkTimeTaggerData&lt; BaseInstr,, gRPCStubs &gt;</title>
<!-- Node1 -->
<g id="Node000001" class="node">
<title>Node1</title>
<g id="a_Node000001"><a xlink:title=" ">
<polygon fill="#999999" stroke="#666666" points="168,-41 20,-41 20,0 168,0 168,-41"/>
<text text-anchor="start" x="28" y="-29" font-family="Helvetica,sans-Serif" font-size="10.00">DynExpInstr::NetworkTime</text>
<text text-anchor="start" x="28" y="-18" font-family="Helvetica,sans-Serif" font-size="10.00">TaggerData&lt; BaseInstr,</text>
<text text-anchor="middle" x="94" y="-7" font-family="Helvetica,sans-Serif" font-size="10.00">, gRPCStubs &gt;</text>
</a>
</g>
</g>
<!-- Node2 -->
<g id="Node000002" class="node">
<title>Node2</title>
<g id="a_Node000002"><a xlink:href="classDynExpInstr_1_1NetworkDataStreamInstrumentData.html" target="_top" xlink:title=" ">
<polygon fill="white" stroke="#666666" points="172,-118 16,-118 16,-77 172,-77 172,-118"/>
<text text-anchor="start" x="24" y="-106" font-family="Helvetica,sans-Serif" font-size="10.00">DynExpInstr::NetworkData</text>
<text text-anchor="start" x="24" y="-95" font-family="Helvetica,sans-Serif" font-size="10.00">StreamInstrumentData&lt;</text>
<text text-anchor="middle" x="94" y="-84" font-family="Helvetica,sans-Serif" font-size="10.00"> BaseInstr, 0, gRPCStubs... &gt;</text>
</a>
</g>
</g>
<!-- Node2&#45;&gt;Node1 -->
<g id="edge1_Node000001_Node000002" class="edge">
<title>Node2&#45;&gt;Node1</title>
<g id="a_edge1_Node000001_Node000002"><a xlink:title=" ">
<path fill="none" stroke="#63b8ff" d="M94,-66.69C94,-58.08 94,-48.9 94,-41.07"/>
<polygon fill="#63b8ff" stroke="#63b8ff" points="90.5,-66.79 94,-76.79 97.5,-66.79 90.5,-66.79"/>
</a>
</g>
</g>
<!-- Node3 -->
<g id="Node000003" class="node">
<title>Node3</title>
<g id="a_Node000003"><a xlink:href="classDynExpInstr_1_1gRPCInstrumentData.html" target="_top" xlink:title=" ">
<polygon fill="white" stroke="#666666" points="188,-184 0,-184 0,-154 188,-154 188,-184"/>
<text text-anchor="start" x="8" y="-172" font-family="Helvetica,sans-Serif" font-size="10.00">DynExpInstr::gRPCInstrument</text>
<text text-anchor="middle" x="94" y="-161" font-family="Helvetica,sans-Serif" font-size="10.00">Data&lt; BaseInstr, 0, gRPCStubs... &gt;</text>
</a>
</g>
</g>
<!-- Node3&#45;&gt;Node2 -->
<g id="edge2_Node000002_Node000003" class="edge">
<title>Node3&#45;&gt;Node2</title>
<g id="a_edge2_Node000002_Node000003"><a xlink:title=" ">
<path fill="none" stroke="#63b8ff" d="M94,-143.91C94,-135.47 94,-126.1 94,-118.07"/>
<polygon fill="#63b8ff" stroke="#63b8ff" points="90.5,-143.94 94,-153.94 97.5,-143.94 90.5,-143.94"/>
</a>
</g>
</g>
<!-- Node4 -->
<g id="Node000004" class="node">
<title>Node4</title>
<g id="a_Node000004"><a xlink:title=" ">
<polygon fill="white" stroke="#666666" points="177.5,-239 10.5,-239 10.5,-220 177.5,-220 177.5,-239"/>
<text text-anchor="middle" x="94" y="-227" font-family="Helvetica,sans-Serif" font-size="10.00">BaseInstr::InstrumentDataType</text>
</a>
</g>
</g>
<!-- Node4&#45;&gt;Node3 -->
<g id="edge3_Node000003_Node000004" class="edge">
<title>Node4&#45;&gt;Node3</title>
<g id="a_edge3_Node000003_Node000004"><a xlink:title=" ">
<path fill="none" stroke="#63b8ff" d="M94,-209.65C94,-201.36 94,-191.78 94,-184.11"/>
<polygon fill="#63b8ff" stroke="#63b8ff" points="90.5,-209.87 94,-219.87 97.5,-209.87 90.5,-209.87"/>
</a>
</g>
</g>
</g>
</svg>
