<?xml version="1.0" encoding="UTF-8" standalone="no"?>
<!DOCTYPE svg PUBLIC "-//W3C//DTD SVG 1.1//EN"
 "http://www.w3.org/Graphics/SVG/1.1/DTD/svg11.dtd">
<!-- Generated by graphviz version 2.43.0 (0)
 -->
<!-- Title: DynExpInstr::WidefieldLocalizationConfigurator Pages: 1 -->
<svg width="620pt" height="61pt"
 viewBox="0.00 0.00 620.00 61.00" xmlns="http://www.w3.org/2000/svg" xmlns:xlink="http://www.w3.org/1999/xlink">
<g id="graph0" class="graph" transform="scale(1 1) rotate(0) translate(4 57)">
<title>DynExpInstr::WidefieldLocalizationConfigurator</title>
<polygon fill="white" stroke="transparent" points="-4,4 -4,-57 616,-57 616,4 -4,4"/>
<!-- Node1 -->
<g id="node1" class="node">
<title>Node1</title>
<g id="a_node1"><a xlink:title=" ">
<polygon fill="#bfbfbf" stroke="black" points="426,-11.5 426,-41.5 612,-41.5 612,-11.5 426,-11.5"/>
<text text-anchor="start" x="434" y="-29.5" font-family="Helvetica,sans-Serif" font-size="10.00">DynExpInstr::WidefieldLocalization</text>
<text text-anchor="middle" x="519" y="-18.5" font-family="Helvetica,sans-Serif" font-size="10.00">Configurator</text>
</a>
</g>
</g>
<!-- Node2 -->
<g id="node2" class="node">
<title>Node2</title>
<g id="a_node2"><a xlink:href="classDynExpInstr_1_1gRPCInstrumentConfigurator.html" target="_top" xlink:title=" ">
<polygon fill="white" stroke="black" points="158,-0.5 158,-52.5 390,-52.5 390,-0.5 158,-0.5"/>
<text text-anchor="start" x="166" y="-40.5" font-family="Helvetica,sans-Serif" font-size="10.00">DynExpInstr::gRPCInstrument</text>
<text text-anchor="start" x="166" y="-29.5" font-family="Helvetica,sans-Serif" font-size="10.00">Configurator&lt; DynExp::Instrument</text>
<text text-anchor="start" x="166" y="-18.5" font-family="Helvetica,sans-Serif" font-size="10.00">Base, 0, DynExpProto::WidefieldLocalization</text>
<text text-anchor="middle" x="274" y="-7.5" font-family="Helvetica,sans-Serif" font-size="10.00">::WidefieldLocalization &gt;</text>
</a>
</g>
</g>
<!-- Node2&#45;&gt;Node1 -->
<g id="edge1" class="edge">
<title>Node2&#45;&gt;Node1</title>
<path fill="none" stroke="midnightblue" d="M400.25,-26.5C408.9,-26.5 417.52,-26.5 425.94,-26.5"/>
<polygon fill="midnightblue" stroke="midnightblue" points="400.1,-23 390.1,-26.5 400.1,-30 400.1,-23"/>
</g>
<!-- Node3 -->
<g id="node3" class="node">
<title>Node3</title>
<g id="a_node3"><a xlink:title=" ">
<polygon fill="white" stroke="#bfbfbf" points="0,-17 0,-36 122,-36 122,-17 0,-17"/>
<text text-anchor="middle" x="61" y="-24" font-family="Helvetica,sans-Serif" font-size="10.00">BaseInstr::ConfigType</text>
</a>
</g>
</g>
<!-- Node3&#45;&gt;Node2 -->
<g id="edge2" class="edge">
<title>Node3&#45;&gt;Node2</title>
<path fill="none" stroke="midnightblue" d="M132.37,-26.5C140.56,-26.5 149.07,-26.5 157.66,-26.5"/>
<polygon fill="midnightblue" stroke="midnightblue" points="132.18,-23 122.18,-26.5 132.18,-30 132.18,-23"/>
</g>
</g>
</svg>
