<?xml version="1.0" encoding="UTF-8" standalone="no"?>
<!DOCTYPE svg PUBLIC "-//W3C//DTD SVG 1.1//EN"
 "http://www.w3.org/Graphics/SVG/1.1/DTD/svg11.dtd">
<!-- Generated by graphviz version 2.43.0 (0)
 -->
<!-- Title: DynExp::HardwareAdapterTcpSocketWorker Pages: 1 -->
<svg width="181pt" height="214pt"
 viewBox="0.00 0.00 181.00 214.00" xmlns="http://www.w3.org/2000/svg" xmlns:xlink="http://www.w3.org/1999/xlink">
<g id="graph0" class="graph" transform="scale(1 1) rotate(0) translate(4 210)">
<title>DynExp::HardwareAdapterTcpSocketWorker</title>
<!-- Node1 -->
<g id="Node000001" class="node">
<title>Node1</title>
<g id="a_Node000001"><a xlink:title="Qt worker for network communication in a separate thread.">
<polygon fill="#999999" stroke="#666666" points="167,-30 6,-30 6,0 167,0 167,-30"/>
<text text-anchor="start" x="14" y="-18" font-family="Helvetica,sans-Serif" font-size="10.00">DynExp::HardwareAdapterTcp</text>
<text text-anchor="middle" x="86.5" y="-7" font-family="Helvetica,sans-Serif" font-size="10.00">SocketWorker</text>
</a>
</g>
</g>
<!-- Node2 -->
<g id="Node000002" class="node">
<title>Node2</title>
<g id="a_Node000002"><a xlink:href="classDynExp_1_1QSerialCommunicationHardwareAdapterWorker.html" target="_top" xlink:title="Qt worker which performs actual serial communication hardware operations in a separate thread in orde...">
<polygon fill="white" stroke="#666666" points="173,-96 0,-96 0,-66 173,-66 173,-96"/>
<text text-anchor="start" x="8" y="-84" font-family="Helvetica,sans-Serif" font-size="10.00">DynExp::QSerialCommunication</text>
<text text-anchor="middle" x="86.5" y="-73" font-family="Helvetica,sans-Serif" font-size="10.00">HardwareAdapterWorker</text>
</a>
</g>
</g>
<!-- Node2&#45;&gt;Node1 -->
<g id="edge1_Node000001_Node000002" class="edge">
<title>Node2&#45;&gt;Node1</title>
<g id="a_edge1_Node000001_Node000002"><a xlink:title=" ">
<path fill="none" stroke="#63b8ff" d="M86.5,-55.54C86.5,-46.96 86.5,-37.61 86.5,-30.16"/>
<polygon fill="#63b8ff" stroke="#63b8ff" points="83,-55.8 86.5,-65.8 90,-55.8 83,-55.8"/>
</a>
</g>
</g>
<!-- Node3 -->
<g id="Node000003" class="node">
<title>Node3</title>
<g id="a_Node000003"><a xlink:href="classUtil_1_1QWorker.html" target="_top" xlink:title="Implements a QObject belonging to a hardware adapter (derived from DynExp::HardwareAdapterBase) that ...">
<polygon fill="white" stroke="#666666" points="127,-151 46,-151 46,-132 127,-132 127,-151"/>
<text text-anchor="middle" x="86.5" y="-139" font-family="Helvetica,sans-Serif" font-size="10.00">Util::QWorker</text>
</a>
</g>
</g>
<!-- Node3&#45;&gt;Node2 -->
<g id="edge2_Node000002_Node000003" class="edge">
<title>Node3&#45;&gt;Node2</title>
<g id="a_edge2_Node000002_Node000003"><a xlink:title=" ">
<path fill="none" stroke="#63b8ff" d="M86.5,-121.65C86.5,-113.36 86.5,-103.78 86.5,-96.11"/>
<polygon fill="#63b8ff" stroke="#63b8ff" points="83,-121.87 86.5,-131.87 90,-121.87 83,-121.87"/>
</a>
</g>
</g>
<!-- Node4 -->
<g id="Node000004" class="node">
<title>Node4</title>
<g id="a_Node000004"><a xlink:title=" ">
<polygon fill="white" stroke="#666666" points="114.5,-206 58.5,-206 58.5,-187 114.5,-187 114.5,-206"/>
<text text-anchor="middle" x="86.5" y="-194" font-family="Helvetica,sans-Serif" font-size="10.00">QObject</text>
</a>
</g>
</g>
<!-- Node4&#45;&gt;Node3 -->
<g id="edge3_Node000003_Node000004" class="edge">
<title>Node4&#45;&gt;Node3</title>
<g id="a_edge3_Node000003_Node000004"><a xlink:title=" ">
<path fill="none" stroke="#63b8ff" d="M86.5,-176.66C86.5,-167.93 86.5,-157.99 86.5,-151.09"/>
<polygon fill="#63b8ff" stroke="#63b8ff" points="83,-176.75 86.5,-186.75 90,-176.75 83,-176.75"/>
</a>
</g>
</g>
</g>
</svg>
