<?xml version="1.0" encoding="UTF-8" standalone="no"?>
<!DOCTYPE svg PUBLIC "-//W3C//DTD SVG 1.1//EN"
 "http://www.w3.org/Graphics/SVG/1.1/DTD/svg11.dtd">
<!-- Generated by graphviz version 2.43.0 (0)
 -->
<!-- Title: DynExpModule::StreamManipulatorParams Pages: 1 -->
<svg width="198pt" height="330pt"
 viewBox="0.00 0.00 198.00 330.00" xmlns="http://www.w3.org/2000/svg" xmlns:xlink="http://www.w3.org/1999/xlink">
<g id="graph0" class="graph" transform="scale(1 1) rotate(0) translate(4 326)">
<title>DynExpModule::StreamManipulatorParams</title>
<polygon fill="white" stroke="transparent" points="-4,4 -4,-326 194,-326 194,4 -4,4"/>
<!-- Node1 -->
<g id="node1" class="node">
<title>Node1</title>
<g id="a_node1"><a xlink:title="Parameter class for StreamManipulator.">
<polygon fill="#bfbfbf" stroke="black" points="0,-0.5 0,-30.5 190,-30.5 190,-0.5 0,-0.5"/>
<text text-anchor="start" x="8" y="-18.5" font-family="Helvetica,sans-Serif" font-size="10.00">DynExpModule::StreamManipulator</text>
<text text-anchor="middle" x="95" y="-7.5" font-family="Helvetica,sans-Serif" font-size="10.00">Params</text>
</a>
</g>
</g>
<!-- Node2 -->
<g id="node2" class="node">
<title>Node2</title>
<g id="a_node2"><a xlink:href="classDynExp_1_1ModuleParamsBase.html" target="_top" xlink:title="Parameter class for ModuleBase.">
<polygon fill="white" stroke="black" points="17,-67.5 17,-86.5 173,-86.5 173,-67.5 17,-67.5"/>
<text text-anchor="middle" x="95" y="-74.5" font-family="Helvetica,sans-Serif" font-size="10.00">DynExp::ModuleParamsBase</text>
</a>
</g>
</g>
<!-- Node2&#45;&gt;Node1 -->
<g id="edge1" class="edge">
<title>Node2&#45;&gt;Node1</title>
<path fill="none" stroke="midnightblue" d="M95,-57.23C95,-48.59 95,-38.5 95,-30.52"/>
<polygon fill="midnightblue" stroke="midnightblue" points="91.5,-57.48 95,-67.48 98.5,-57.48 91.5,-57.48"/>
</g>
<!-- Node3 -->
<g id="node3" class="node">
<title>Node3</title>
<g id="a_node3"><a xlink:href="classDynExp_1_1RunnableObjectParams.html" target="_top" xlink:title="Parameter class for RunnableObject.">
<polygon fill="white" stroke="black" points="8.5,-123.5 8.5,-142.5 181.5,-142.5 181.5,-123.5 8.5,-123.5"/>
<text text-anchor="middle" x="95" y="-130.5" font-family="Helvetica,sans-Serif" font-size="10.00">DynExp::RunnableObjectParams</text>
</a>
</g>
</g>
<!-- Node3&#45;&gt;Node2 -->
<g id="edge2" class="edge">
<title>Node3&#45;&gt;Node2</title>
<path fill="none" stroke="midnightblue" d="M95,-112.8C95,-103.91 95,-93.78 95,-86.75"/>
<polygon fill="midnightblue" stroke="midnightblue" points="91.5,-113.08 95,-123.08 98.5,-113.08 91.5,-113.08"/>
</g>
<!-- Node4 -->
<g id="node4" class="node">
<title>Node4</title>
<g id="a_node4"><a xlink:href="classDynExp_1_1ParamsBase.html" target="_top" xlink:title="Abstract base class for object parameter classes. Each class derived from class Object must be accomp...">
<polygon fill="white" stroke="black" points="35,-179.5 35,-198.5 155,-198.5 155,-179.5 35,-179.5"/>
<text text-anchor="middle" x="95" y="-186.5" font-family="Helvetica,sans-Serif" font-size="10.00">DynExp::ParamsBase</text>
</a>
</g>
</g>
<!-- Node4&#45;&gt;Node3 -->
<g id="edge3" class="edge">
<title>Node4&#45;&gt;Node3</title>
<path fill="none" stroke="midnightblue" d="M95,-168.8C95,-159.91 95,-149.78 95,-142.75"/>
<polygon fill="midnightblue" stroke="midnightblue" points="91.5,-169.08 95,-179.08 98.5,-169.08 91.5,-169.08"/>
</g>
<!-- Node5 -->
<g id="node5" class="node">
<title>Node5</title>
<g id="a_node5"><a xlink:href="classUtil_1_1ISynchronizedPointerLockable.html" target="_top" xlink:title="Interface to allow synchronizing the access to derived classes between different threads by making th...">
<polygon fill="white" stroke="black" points="23.5,-235.5 23.5,-265.5 166.5,-265.5 166.5,-235.5 23.5,-235.5"/>
<text text-anchor="start" x="31.5" y="-253.5" font-family="Helvetica,sans-Serif" font-size="10.00">Util::ISynchronizedPointer</text>
<text text-anchor="middle" x="95" y="-242.5" font-family="Helvetica,sans-Serif" font-size="10.00">Lockable</text>
</a>
</g>
</g>
<!-- Node5&#45;&gt;Node4 -->
<g id="edge4" class="edge">
<title>Node5&#45;&gt;Node4</title>
<path fill="none" stroke="midnightblue" d="M95,-225.29C95,-215.86 95,-205.65 95,-198.66"/>
<polygon fill="midnightblue" stroke="midnightblue" points="91.5,-225.4 95,-235.4 98.5,-225.4 91.5,-225.4"/>
</g>
<!-- Node6 -->
<g id="node6" class="node">
<title>Node6</title>
<g id="a_node6"><a xlink:href="classUtil_1_1INonCopyable.html" target="_top" xlink:title="Interface to delete copy constructor and copy assignment operator and thus make derived classes non&#45;c...">
<polygon fill="white" stroke="black" points="41,-302.5 41,-321.5 149,-321.5 149,-302.5 41,-302.5"/>
<text text-anchor="middle" x="95" y="-309.5" font-family="Helvetica,sans-Serif" font-size="10.00">Util::INonCopyable</text>
</a>
</g>
</g>
<!-- Node6&#45;&gt;Node5 -->
<g id="edge5" class="edge">
<title>Node6&#45;&gt;Node5</title>
<path fill="none" stroke="midnightblue" d="M95,-292.23C95,-283.59 95,-273.5 95,-265.52"/>
<polygon fill="midnightblue" stroke="midnightblue" points="91.5,-292.48 95,-302.48 98.5,-292.48 91.5,-292.48"/>
</g>
</g>
</svg>
