<?xml version="1.0" encoding="UTF-8" standalone="no"?>
<!DOCTYPE svg PUBLIC "-//W3C//DTD SVG 1.1//EN"
 "http://www.w3.org/Graphics/SVG/1.1/DTD/svg11.dtd">
<!-- Generated by graphviz version 2.43.0 (0)
 -->
<!-- Title: DynExpInstr::OutputPortTasks::UpdateTask Pages: 1 -->
<svg width="1306pt" height="86pt"
 viewBox="0.00 0.00 1306.00 86.00" xmlns="http://www.w3.org/2000/svg" xmlns:xlink="http://www.w3.org/1999/xlink">
<g id="graph0" class="graph" transform="scale(1 1) rotate(0) translate(4 82)">
<title>DynExpInstr::OutputPortTasks::UpdateTask</title>
<!-- Node1 -->
<g id="Node000001" class="node">
<title>Node1</title>
<g id="a_Node000001"><a xlink:title="Defines a task for updating an instrument within an instrument inheritance hierarchy....">
<polygon fill="#999999" stroke="#666666" points="918,-54 757,-54 757,-24 918,-24 918,-54"/>
<text text-anchor="start" x="765" y="-42" font-family="Helvetica,sans-Serif" font-size="10.00">DynExpInstr::OutputPortTasks</text>
<text text-anchor="middle" x="837.5" y="-31" font-family="Helvetica,sans-Serif" font-size="10.00">::UpdateTask</text>
</a>
</g>
</g>
<!-- Node6 -->
<g id="Node000006" class="node">
<title>Node6</title>
<g id="a_Node000006"><a xlink:href="classDynExpInstr_1_1AnalogOutTasks_1_1UpdateTask.html" target="_top" xlink:title="Defines a task for updating an instrument within an instrument inheritance hierarchy....">
<polygon fill="white" stroke="#666666" points="1114,-78 954,-78 954,-48 1114,-48 1114,-78"/>
<text text-anchor="start" x="962" y="-66" font-family="Helvetica,sans-Serif" font-size="10.00">DynExpInstr::AnalogOutTasks</text>
<text text-anchor="middle" x="1034" y="-55" font-family="Helvetica,sans-Serif" font-size="10.00">::UpdateTask</text>
</a>
</g>
</g>
<!-- Node1&#45;&gt;Node6 -->
<g id="edge5_Node000001_Node000006" class="edge">
<title>Node1&#45;&gt;Node6</title>
<g id="a_edge5_Node000001_Node000006"><a xlink:title=" ">
<path fill="none" stroke="#63b8ff" d="M928.15,-50.06C936.7,-51.12 945.33,-52.18 953.77,-53.22"/>
<polygon fill="#63b8ff" stroke="#63b8ff" points="928.53,-46.58 918.17,-48.83 927.67,-53.53 928.53,-46.58"/>
</a>
</g>
</g>
<!-- Node8 -->
<g id="Node000008" class="node">
<title>Node8</title>
<g id="a_Node000008"><a xlink:href="classDynExpInstr_1_1DigitalOutTasks_1_1UpdateTask.html" target="_top" xlink:title="Defines a task for updating an instrument within an instrument inheritance hierarchy....">
<polygon fill="white" stroke="#666666" points="1113,-30 955,-30 955,0 1113,0 1113,-30"/>
<text text-anchor="start" x="963" y="-18" font-family="Helvetica,sans-Serif" font-size="10.00">DynExpInstr::DigitalOutTasks</text>
<text text-anchor="middle" x="1034" y="-7" font-family="Helvetica,sans-Serif" font-size="10.00">::UpdateTask</text>
</a>
</g>
</g>
<!-- Node1&#45;&gt;Node8 -->
<g id="edge7_Node000001_Node000008" class="edge">
<title>Node1&#45;&gt;Node8</title>
<g id="a_edge7_Node000001_Node000008"><a xlink:title=" ">
<path fill="none" stroke="#63b8ff" d="M928.14,-27.94C937.01,-26.84 945.97,-25.74 954.71,-24.66"/>
<polygon fill="#63b8ff" stroke="#63b8ff" points="927.67,-24.47 918.17,-29.17 928.53,-31.42 927.67,-24.47"/>
</a>
</g>
</g>
<!-- Node2 -->
<g id="Node000002" class="node">
<title>Node2</title>
<g id="a_Node000002"><a xlink:href="classDynExpInstr_1_1FunctionGeneratorTasks_1_1UpdateTask.html" target="_top" xlink:title="Defines a task for updating an instrument within an instrument inheritance hierarchy....">
<polygon fill="white" stroke="#666666" points="721,-54 549,-54 549,-24 721,-24 721,-54"/>
<text text-anchor="start" x="557" y="-42" font-family="Helvetica,sans-Serif" font-size="10.00">DynExpInstr::FunctionGenerator</text>
<text text-anchor="middle" x="635" y="-31" font-family="Helvetica,sans-Serif" font-size="10.00">Tasks::UpdateTask</text>
</a>
</g>
</g>
<!-- Node2&#45;&gt;Node1 -->
<g id="edge1_Node000001_Node000002" class="edge">
<title>Node2&#45;&gt;Node1</title>
<g id="a_edge1_Node000001_Node000002"><a xlink:title=" ">
<path fill="none" stroke="#63b8ff" d="M731.08,-39C739.67,-39 748.32,-39 756.76,-39"/>
<polygon fill="#63b8ff" stroke="#63b8ff" points="731.03,-35.5 721.03,-39 731.03,-42.5 731.03,-35.5"/>
</a>
</g>
</g>
<!-- Node3 -->
<g id="Node000003" class="node">
<title>Node3</title>
<g id="a_Node000003"><a xlink:href="classDynExpInstr_1_1DataStreamInstrumentTasks_1_1UpdateTask.html" target="_top" xlink:title="Defines a task for updating an instrument within an instrument inheritance hierarchy....">
<polygon fill="white" stroke="#666666" points="513,-54 319,-54 319,-24 513,-24 513,-54"/>
<text text-anchor="start" x="327" y="-42" font-family="Helvetica,sans-Serif" font-size="10.00">DynExpInstr::DataStreamInstrument</text>
<text text-anchor="middle" x="416" y="-31" font-family="Helvetica,sans-Serif" font-size="10.00">Tasks::UpdateTask</text>
</a>
</g>
</g>
<!-- Node3&#45;&gt;Node2 -->
<g id="edge2_Node000002_Node000003" class="edge">
<title>Node3&#45;&gt;Node2</title>
<g id="a_edge2_Node000002_Node000003"><a xlink:title=" ">
<path fill="none" stroke="#63b8ff" d="M523.21,-39C531.81,-39 540.43,-39 548.86,-39"/>
<polygon fill="#63b8ff" stroke="#63b8ff" points="523.13,-35.5 513.13,-39 523.13,-42.5 523.13,-35.5"/>
</a>
</g>
</g>
<!-- Node4 -->
<g id="Node000004" class="node">
<title>Node4</title>
<g id="a_Node000004"><a xlink:href="classDynExp_1_1UpdateTaskBase.html" target="_top" xlink:title="Defines a task for updating an instrument within an instrument inheritance hierarchy....">
<polygon fill="white" stroke="#666666" points="283,-48.5 142,-48.5 142,-29.5 283,-29.5 283,-48.5"/>
<text text-anchor="middle" x="212.5" y="-36.5" font-family="Helvetica,sans-Serif" font-size="10.00">DynExp::UpdateTaskBase</text>
</a>
</g>
</g>
<!-- Node4&#45;&gt;Node3 -->
<g id="edge3_Node000003_Node000004" class="edge">
<title>Node4&#45;&gt;Node3</title>
<g id="a_edge3_Node000003_Node000004"><a xlink:title=" ">
<path fill="none" stroke="#63b8ff" d="M293.22,-39C301.6,-39 310.17,-39 318.71,-39"/>
<polygon fill="#63b8ff" stroke="#63b8ff" points="293.13,-35.5 283.13,-39 293.13,-42.5 293.13,-35.5"/>
</a>
</g>
</g>
<!-- Node5 -->
<g id="Node000005" class="node">
<title>Node5</title>
<g id="a_Node000005"><a xlink:href="classDynExp_1_1TaskBase.html" target="_top" xlink:title="Base class for all tasks being processed by instruments. The class must not contain public virtual fu...">
<polygon fill="white" stroke="#666666" points="106,-48.5 0,-48.5 0,-29.5 106,-29.5 106,-48.5"/>
<text text-anchor="middle" x="53" y="-36.5" font-family="Helvetica,sans-Serif" font-size="10.00">DynExp::TaskBase</text>
</a>
</g>
</g>
<!-- Node5&#45;&gt;Node4 -->
<g id="edge4_Node000004_Node000005" class="edge">
<title>Node5&#45;&gt;Node4</title>
<g id="a_edge4_Node000004_Node000005"><a xlink:title=" ">
<path fill="none" stroke="#63b8ff" d="M116.14,-39C124.58,-39 133.29,-39 141.85,-39"/>
<polygon fill="#63b8ff" stroke="#63b8ff" points="116.01,-35.5 106.01,-39 116.01,-42.5 116.01,-35.5"/>
</a>
</g>
</g>
<!-- Node7 -->
<g id="Node000007" class="node">
<title>Node7</title>
<g id="a_Node000007"><a xlink:href="classDynExpInstr_1_1NIDAQAnalogOutTasks_1_1UpdateTask.html" target="_top" xlink:title=" ">
<polygon fill="white" stroke="#666666" points="1298,-78 1150,-78 1150,-48 1298,-48 1298,-78"/>
<text text-anchor="start" x="1158" y="-66" font-family="Helvetica,sans-Serif" font-size="10.00">DynExpInstr::NIDAQAnalog</text>
<text text-anchor="middle" x="1224" y="-55" font-family="Helvetica,sans-Serif" font-size="10.00">OutTasks::UpdateTask</text>
</a>
</g>
</g>
<!-- Node6&#45;&gt;Node7 -->
<g id="edge6_Node000006_Node000007" class="edge">
<title>Node6&#45;&gt;Node7</title>
<g id="a_edge6_Node000006_Node000007"><a xlink:title=" ">
<path fill="none" stroke="#63b8ff" d="M1124.23,-63C1132.83,-63 1141.48,-63 1149.9,-63"/>
<polygon fill="#63b8ff" stroke="#63b8ff" points="1124.18,-59.5 1114.18,-63 1124.18,-66.5 1124.18,-59.5"/>
</a>
</g>
</g>
<!-- Node9 -->
<g id="Node000009" class="node">
<title>Node9</title>
<g id="a_Node000009"><a xlink:href="classDynExpInstr_1_1NIDAQDigitalOutTasks_1_1UpdateTask.html" target="_top" xlink:title=" ">
<polygon fill="white" stroke="#666666" points="1297,-30 1151,-30 1151,0 1297,0 1297,-30"/>
<text text-anchor="start" x="1159" y="-18" font-family="Helvetica,sans-Serif" font-size="10.00">DynExpInstr::NIDAQDigital</text>
<text text-anchor="middle" x="1224" y="-7" font-family="Helvetica,sans-Serif" font-size="10.00">OutTasks::UpdateTask</text>
</a>
</g>
</g>
<!-- Node8&#45;&gt;Node9 -->
<g id="edge8_Node000008_Node000009" class="edge">
<title>Node8&#45;&gt;Node9</title>
<g id="a_edge8_Node000008_Node000009"><a xlink:title=" ">
<path fill="none" stroke="#63b8ff" d="M1123.13,-15C1132.42,-15 1141.79,-15 1150.86,-15"/>
<polygon fill="#63b8ff" stroke="#63b8ff" points="1123.1,-11.5 1113.1,-15 1123.1,-18.5 1123.1,-11.5"/>
</a>
</g>
</g>
</g>
</svg>
