<?xml version="1.0" encoding="UTF-8" standalone="no"?>
<!DOCTYPE svg PUBLIC "-//W3C//DTD SVG 1.1//EN"
 "http://www.w3.org/Graphics/SVG/1.1/DTD/svg11.dtd">
<!-- Generated by graphviz version 2.43.0 (0)
 -->
<!-- Title: DynExpInstr::PositionerStageData Pages: 1 -->
<svg width="923pt" height="161pt"
 viewBox="0.00 0.00 923.00 160.50" xmlns="http://www.w3.org/2000/svg" xmlns:xlink="http://www.w3.org/1999/xlink">
<g id="graph0" class="graph" transform="scale(1 1) rotate(0) translate(4 156.5)">
<title>DynExpInstr::PositionerStageData</title>
<!-- Node1 -->
<g id="Node000001" class="node">
<title>Node1</title>
<g id="a_Node000001"><a xlink:title="Data class for PositionerStage.">
<polygon fill="#999999" stroke="#666666" points="702,-77 520,-77 520,-58 702,-58 702,-77"/>
<text text-anchor="middle" x="611" y="-65" font-family="Helvetica,sans-Serif" font-size="10.00">DynExpInstr::PositionerStageData</text>
</a>
</g>
</g>
<!-- Node5 -->
<g id="Node000005" class="node">
<title>Node5</title>
<g id="a_Node000005"><a xlink:href="classDynExpInstr_1_1NP__Conex__CC__StageData.html" target="_top" xlink:title=" ">
<polygon fill="white" stroke="#666666" points="892,-152.5 761,-152.5 761,-122.5 892,-122.5 892,-152.5"/>
<text text-anchor="start" x="769" y="-140.5" font-family="Helvetica,sans-Serif" font-size="10.00">DynExpInstr::NP_Conex</text>
<text text-anchor="middle" x="826.5" y="-129.5" font-family="Helvetica,sans-Serif" font-size="10.00">_CC_StageData</text>
</a>
</g>
</g>
<!-- Node1&#45;&gt;Node5 -->
<g id="edge4_Node000001_Node000005" class="edge">
<title>Node1&#45;&gt;Node5</title>
<g id="a_edge4_Node000001_Node000005"><a xlink:title=" ">
<path fill="none" stroke="#63b8ff" d="M645.89,-80.73C671.11,-90.37 706.47,-103.44 738,-113.5 747.6,-116.56 757.88,-119.6 767.88,-122.42"/>
<polygon fill="#63b8ff" stroke="#63b8ff" points="647.01,-77.41 636.42,-77.09 644.5,-83.95 647.01,-77.41"/>
</a>
</g>
</g>
<!-- Node6 -->
<g id="Node000006" class="node">
<title>Node6</title>
<g id="a_Node000006"><a xlink:href="classDynExpInstr_1_1NenionLeakvalveF3Data.html" target="_top" xlink:title=" ">
<polygon fill="white" stroke="#666666" points="910,-104.5 743,-104.5 743,-74.5 910,-74.5 910,-104.5"/>
<text text-anchor="start" x="751" y="-92.5" font-family="Helvetica,sans-Serif" font-size="10.00">DynExpInstr::NenionLeakvalve</text>
<text text-anchor="middle" x="826.5" y="-81.5" font-family="Helvetica,sans-Serif" font-size="10.00">F3Data</text>
</a>
</g>
</g>
<!-- Node1&#45;&gt;Node6 -->
<g id="edge5_Node000001_Node000006" class="edge">
<title>Node1&#45;&gt;Node6</title>
<g id="a_edge5_Node000001_Node000006"><a xlink:title=" ">
<path fill="none" stroke="#63b8ff" d="M712.36,-77.84C722.52,-78.89 732.77,-79.94 742.72,-80.97"/>
<polygon fill="#63b8ff" stroke="#63b8ff" points="712.54,-74.34 702.23,-76.8 711.82,-81.3 712.54,-74.34"/>
</a>
</g>
</g>
<!-- Node7 -->
<g id="Node000007" class="node">
<title>Node7</title>
<g id="a_Node000007"><a xlink:href="classDynExpInstr_1_1PI__C__862StageData.html" target="_top" xlink:title=" ">
<polygon fill="white" stroke="#666666" points="915,-56 738,-56 738,-37 915,-37 915,-56"/>
<text text-anchor="middle" x="826.5" y="-44" font-family="Helvetica,sans-Serif" font-size="10.00">DynExpInstr::PI_C_862StageData</text>
</a>
</g>
</g>
<!-- Node1&#45;&gt;Node7 -->
<g id="edge6_Node000001_Node000007" class="edge">
<title>Node1&#45;&gt;Node7</title>
<g id="a_edge6_Node000001_Node000007"><a xlink:title=" ">
<path fill="none" stroke="#63b8ff" d="M712.27,-57.64C720.86,-56.79 729.5,-55.94 737.97,-55.11"/>
<polygon fill="#63b8ff" stroke="#63b8ff" points="711.84,-54.16 702.23,-58.62 712.53,-61.13 711.84,-54.16"/>
</a>
</g>
</g>
<!-- Node8 -->
<g id="Node000008" class="node">
<title>Node8</title>
<g id="a_Node000008"><a xlink:href="classDynExpInstr_1_1SmarActData.html" target="_top" xlink:title=" ">
<polygon fill="white" stroke="#666666" points="899.5,-19 753.5,-19 753.5,0 899.5,0 899.5,-19"/>
<text text-anchor="middle" x="826.5" y="-7" font-family="Helvetica,sans-Serif" font-size="10.00">DynExpInstr::SmarActData</text>
</a>
</g>
</g>
<!-- Node1&#45;&gt;Node8 -->
<g id="edge7_Node000001_Node000008" class="edge">
<title>Node1&#45;&gt;Node8</title>
<g id="a_edge7_Node000001_Node000008"><a xlink:title=" ">
<path fill="none" stroke="#63b8ff" d="M649.07,-54.61C674.01,-46.21 707.75,-35.39 738,-27.5 749.71,-24.45 762.4,-21.58 774.4,-19.08"/>
<polygon fill="#63b8ff" stroke="#63b8ff" points="647.63,-51.4 639.29,-57.93 649.88,-58.03 647.63,-51.4"/>
</a>
</g>
</g>
<!-- Node2 -->
<g id="Node000002" class="node">
<title>Node2</title>
<g id="a_Node000002"><a xlink:href="classDynExp_1_1InstrumentDataBase.html" target="_top" xlink:title="Data structure to contain data which is synchronized in between different threads....">
<polygon fill="white" stroke="#666666" points="484,-77 323,-77 323,-58 484,-58 484,-77"/>
<text text-anchor="middle" x="403.5" y="-65" font-family="Helvetica,sans-Serif" font-size="10.00">DynExp::InstrumentDataBase</text>
</a>
</g>
</g>
<!-- Node2&#45;&gt;Node1 -->
<g id="edge1_Node000001_Node000002" class="edge">
<title>Node2&#45;&gt;Node1</title>
<g id="a_edge1_Node000001_Node000002"><a xlink:title=" ">
<path fill="none" stroke="#63b8ff" d="M494.41,-67.5C502.81,-67.5 511.32,-67.5 519.71,-67.5"/>
<polygon fill="#63b8ff" stroke="#63b8ff" points="494.25,-64 484.25,-67.5 494.25,-71 494.25,-64"/>
</a>
</g>
</g>
<!-- Node3 -->
<g id="Node000003" class="node">
<title>Node3</title>
<g id="a_Node000003"><a xlink:href="classUtil_1_1ISynchronizedPointerLockable.html" target="_top" xlink:title="Interface to allow synchronizing the access to derived classes between different threads by making th...">
<polygon fill="white" stroke="#666666" points="287,-82.5 144,-82.5 144,-52.5 287,-52.5 287,-82.5"/>
<text text-anchor="start" x="152" y="-70.5" font-family="Helvetica,sans-Serif" font-size="10.00">Util::ISynchronizedPointer</text>
<text text-anchor="middle" x="215.5" y="-59.5" font-family="Helvetica,sans-Serif" font-size="10.00">Lockable</text>
</a>
</g>
</g>
<!-- Node3&#45;&gt;Node2 -->
<g id="edge2_Node000002_Node000003" class="edge">
<title>Node3&#45;&gt;Node2</title>
<g id="a_edge2_Node000002_Node000003"><a xlink:title=" ">
<path fill="none" stroke="#63b8ff" d="M297.35,-67.5C305.84,-67.5 314.47,-67.5 322.94,-67.5"/>
<polygon fill="#63b8ff" stroke="#63b8ff" points="297.08,-64 287.08,-67.5 297.08,-71 297.08,-64"/>
</a>
</g>
</g>
<!-- Node4 -->
<g id="Node000004" class="node">
<title>Node4</title>
<g id="a_Node000004"><a xlink:href="classUtil_1_1INonCopyable.html" target="_top" xlink:title="Interface to delete copy constructor and copy assignment operator and thus make derived classes non&#45;c...">
<polygon fill="white" stroke="#666666" points="108,-77 0,-77 0,-58 108,-58 108,-77"/>
<text text-anchor="middle" x="54" y="-65" font-family="Helvetica,sans-Serif" font-size="10.00">Util::INonCopyable</text>
</a>
</g>
</g>
<!-- Node4&#45;&gt;Node3 -->
<g id="edge3_Node000003_Node000004" class="edge">
<title>Node4&#45;&gt;Node3</title>
<g id="a_edge3_Node000003_Node000004"><a xlink:title=" ">
<path fill="none" stroke="#63b8ff" d="M118.19,-67.5C126.58,-67.5 135.23,-67.5 143.74,-67.5"/>
<polygon fill="#63b8ff" stroke="#63b8ff" points="118.11,-64 108.11,-67.5 118.11,-71 118.11,-64"/>
</a>
</g>
</g>
</g>
</svg>
