<?xml version="1.0" encoding="UTF-8" standalone="no"?>
<!DOCTYPE svg PUBLIC "-//W3C//DTD SVG 1.1//EN"
 "http://www.w3.org/Graphics/SVG/1.1/DTD/svg11.dtd">
<!-- Generated by graphviz version 2.43.0 (0)
 -->
<!-- Title: DynExpInstr::PositionerStageConfigurator Pages: 1 -->
<svg width="1031pt" height="127pt"
 viewBox="0.00 0.00 1031.00 126.50" xmlns="http://www.w3.org/2000/svg" xmlns:xlink="http://www.w3.org/1999/xlink">
<g id="graph0" class="graph" transform="scale(1 1) rotate(0) translate(4 122.5)">
<title>DynExpInstr::PositionerStageConfigurator</title>
<polygon fill="white" stroke="transparent" points="-4,4 -4,-122.5 1027,-122.5 1027,4 -4,4"/>
<!-- Node1 -->
<g id="node1" class="node">
<title>Node1</title>
<g id="a_node1"><a xlink:title="Configurator class for PositionerStage.">
<polygon fill="#bfbfbf" stroke="black" points="646,-39 646,-69 804,-69 804,-39 646,-39"/>
<text text-anchor="start" x="654" y="-57" font-family="Helvetica,sans-Serif" font-size="10.00">DynExpInstr::PositionerStage</text>
<text text-anchor="middle" x="725" y="-46" font-family="Helvetica,sans-Serif" font-size="10.00">Configurator</text>
</a>
</g>
</g>
<!-- Node5 -->
<g id="node5" class="node">
<title>Node5</title>
<g id="a_node5"><a xlink:href="classDynExpInstr_1_1NenionLeakvalveF3Configurator.html" target="_top" xlink:title=" ">
<polygon fill="white" stroke="black" points="848,-88 848,-118 1015,-118 1015,-88 848,-88"/>
<text text-anchor="start" x="856" y="-106" font-family="Helvetica,sans-Serif" font-size="10.00">DynExpInstr::NenionLeakvalve</text>
<text text-anchor="middle" x="931.5" y="-95" font-family="Helvetica,sans-Serif" font-size="10.00">F3Configurator</text>
</a>
</g>
</g>
<!-- Node1&#45;&gt;Node5 -->
<g id="edge4" class="edge">
<title>Node1&#45;&gt;Node5</title>
<path fill="none" stroke="midnightblue" d="M798.63,-71.4C821.26,-76.82 846,-82.75 867.87,-87.99"/>
<polygon fill="midnightblue" stroke="midnightblue" points="799.29,-67.96 788.75,-69.03 797.66,-74.77 799.29,-67.96"/>
</g>
<!-- Node6 -->
<g id="node6" class="node">
<title>Node6</title>
<g id="a_node6"><a xlink:href="classDynExpInstr_1_1PI__C__862__Configurator.html" target="_top" xlink:title=" ">
<polygon fill="white" stroke="black" points="868.5,-39 868.5,-69 994.5,-69 994.5,-39 868.5,-39"/>
<text text-anchor="start" x="876.5" y="-57" font-family="Helvetica,sans-Serif" font-size="10.00">DynExpInstr::PI_C_862</text>
<text text-anchor="middle" x="931.5" y="-46" font-family="Helvetica,sans-Serif" font-size="10.00">_Configurator</text>
</a>
</g>
</g>
<!-- Node1&#45;&gt;Node6 -->
<g id="edge5" class="edge">
<title>Node1&#45;&gt;Node6</title>
<path fill="none" stroke="midnightblue" d="M814.22,-54C832.41,-54 851.2,-54 868.24,-54"/>
<polygon fill="midnightblue" stroke="midnightblue" points="814.19,-50.5 804.19,-54 814.19,-57.5 814.19,-50.5"/>
</g>
<!-- Node7 -->
<g id="node7" class="node">
<title>Node7</title>
<g id="a_node7"><a xlink:href="classDynExpInstr_1_1SmarActConfigurator.html" target="_top" xlink:title=" ">
<polygon fill="white" stroke="black" points="840,-0.5 840,-19.5 1023,-19.5 1023,-0.5 840,-0.5"/>
<text text-anchor="middle" x="931.5" y="-7.5" font-family="Helvetica,sans-Serif" font-size="10.00">DynExpInstr::SmarActConfigurator</text>
</a>
</g>
</g>
<!-- Node1&#45;&gt;Node7 -->
<g id="edge6" class="edge">
<title>Node1&#45;&gt;Node7</title>
<path fill="none" stroke="midnightblue" d="M804.11,-36.77C816.13,-34.15 828.39,-31.49 840,-29 854.44,-25.9 870.19,-22.58 884.44,-19.59"/>
<polygon fill="midnightblue" stroke="midnightblue" points="803.12,-33.41 794.1,-38.96 804.61,-40.25 803.12,-33.41"/>
</g>
<!-- Node2 -->
<g id="node2" class="node">
<title>Node2</title>
<g id="a_node2"><a xlink:href="classDynExp_1_1InstrumentConfiguratorBase.html" target="_top" xlink:title="Configurator class for InstrumentBase.">
<polygon fill="white" stroke="black" points="413,-44.5 413,-63.5 610,-63.5 610,-44.5 413,-44.5"/>
<text text-anchor="middle" x="511.5" y="-51.5" font-family="Helvetica,sans-Serif" font-size="10.00">DynExp::InstrumentConfiguratorBase</text>
</a>
</g>
</g>
<!-- Node2&#45;&gt;Node1 -->
<g id="edge1" class="edge">
<title>Node2&#45;&gt;Node1</title>
<path fill="none" stroke="midnightblue" d="M620.27,-54C628.84,-54 637.4,-54 645.72,-54"/>
<polygon fill="midnightblue" stroke="midnightblue" points="620.2,-50.5 610.2,-54 620.2,-57.5 620.2,-50.5"/>
</g>
<!-- Node3 -->
<g id="node3" class="node">
<title>Node3</title>
<g id="a_node3"><a xlink:href="classDynExp_1_1RunnableObjectConfigurator.html" target="_top" xlink:title="Configurator class for RunnableObject.">
<polygon fill="white" stroke="black" points="180,-44.5 180,-63.5 377,-63.5 377,-44.5 180,-44.5"/>
<text text-anchor="middle" x="278.5" y="-51.5" font-family="Helvetica,sans-Serif" font-size="10.00">DynExp::RunnableObjectConfigurator</text>
</a>
</g>
</g>
<!-- Node3&#45;&gt;Node2 -->
<g id="edge2" class="edge">
<title>Node3&#45;&gt;Node2</title>
<path fill="none" stroke="midnightblue" d="M387.15,-54C395.72,-54 404.35,-54 412.85,-54"/>
<polygon fill="midnightblue" stroke="midnightblue" points="387.13,-50.5 377.13,-54 387.13,-57.5 387.13,-50.5"/>
</g>
<!-- Node4 -->
<g id="node4" class="node">
<title>Node4</title>
<g id="a_node4"><a xlink:href="classDynExp_1_1ConfiguratorBase.html" target="_top" xlink:title="The configurator classes have the task to generate parameter objects (refer to DynExp::ParamsBase) of...">
<polygon fill="white" stroke="black" points="0,-44.5 0,-63.5 144,-63.5 144,-44.5 0,-44.5"/>
<text text-anchor="middle" x="72" y="-51.5" font-family="Helvetica,sans-Serif" font-size="10.00">DynExp::ConfiguratorBase</text>
</a>
</g>
</g>
<!-- Node4&#45;&gt;Node3 -->
<g id="edge3" class="edge">
<title>Node4&#45;&gt;Node3</title>
<path fill="none" stroke="midnightblue" d="M154.36,-54C162.76,-54 171.35,-54 179.89,-54"/>
<polygon fill="midnightblue" stroke="midnightblue" points="154.24,-50.5 144.24,-54 154.24,-57.5 154.24,-50.5"/>
</g>
</g>
</svg>
