<?xml version="1.0" encoding="UTF-8" standalone="no"?>
<!DOCTYPE svg PUBLIC "-//W3C//DTD SVG 1.1//EN"
 "http://www.w3.org/Graphics/SVG/1.1/DTD/svg11.dtd">
<!-- Generated by graphviz version 2.43.0 (0)
 -->
<!-- Title: DynExp::ParamsBase Pages: 1 -->
<svg width="1383pt" height="1031pt"
 viewBox="0.00 0.00 1383.00 1030.50" xmlns="http://www.w3.org/2000/svg" xmlns:xlink="http://www.w3.org/1999/xlink">
<g id="graph0" class="graph" transform="scale(1 1) rotate(0) translate(4 1026.5)">
<title>DynExp::ParamsBase</title>
<polygon fill="white" stroke="transparent" points="-4,4 -4,-1026.5 1379,-1026.5 1379,4 -4,4"/>
<!-- Node1 -->
<g id="node1" class="node">
<title>Node1</title>
<g id="a_node1"><a xlink:title="Abstract base class for object parameter classes. Each class derived from class Object must be accomp...">
<polygon fill="#bfbfbf" stroke="black" points="323,-694 323,-713 443,-713 443,-694 323,-694"/>
<text text-anchor="middle" x="383" y="-701" font-family="Helvetica,sans-Serif" font-size="10.00">DynExp::ParamsBase</text>
</a>
</g>
</g>
<!-- Node4 -->
<g id="node4" class="node">
<title>Node4</title>
<g id="a_node4"><a xlink:href="classDynExp_1_1HardwareAdapterParamsBase.html" target="_top" xlink:title="Parameter class for HardwareAdapterBase.">
<polygon fill="white" stroke="black" points="479,-790 479,-809 685,-809 685,-790 479,-790"/>
<text text-anchor="middle" x="582" y="-797" font-family="Helvetica,sans-Serif" font-size="10.00">DynExp::HardwareAdapterParamsBase</text>
</a>
</g>
</g>
<!-- Node1&#45;&gt;Node4 -->
<g id="edge3" class="edge">
<title>Node1&#45;&gt;Node4</title>
<path fill="none" stroke="midnightblue" d="M412.72,-717.49C453.36,-737.3 526.57,-772.98 561.47,-789.98"/>
<polygon fill="midnightblue" stroke="midnightblue" points="414.13,-714.29 403.61,-713.06 411.07,-720.58 414.13,-714.29"/>
</g>
<!-- Node17 -->
<g id="node17" class="node">
<title>Node17</title>
<g id="a_node17"><a xlink:href="classDynExp_1_1ProjectParams.html" target="_top" xlink:title="Defines a parameter class with parameters common to all DynExp projects.">
<polygon fill="white" stroke="black" points="517,-694 517,-713 647,-713 647,-694 517,-694"/>
<text text-anchor="middle" x="582" y="-701" font-family="Helvetica,sans-Serif" font-size="10.00">DynExp::ProjectParams</text>
</a>
</g>
</g>
<!-- Node1&#45;&gt;Node17 -->
<g id="edge16" class="edge">
<title>Node1&#45;&gt;Node17</title>
<path fill="none" stroke="midnightblue" d="M453.38,-703.5C474,-703.5 496.5,-703.5 516.78,-703.5"/>
<polygon fill="midnightblue" stroke="midnightblue" points="453.11,-700 443.11,-703.5 453.11,-707 453.11,-700"/>
</g>
<!-- Node18 -->
<g id="node18" class="node">
<title>Node18</title>
<g id="a_node18"><a xlink:href="classDynExp_1_1RunnableObjectParams.html" target="_top" xlink:title="Parameter class for RunnableObject.">
<polygon fill="white" stroke="black" points="495.5,-599 495.5,-618 668.5,-618 668.5,-599 495.5,-599"/>
<text text-anchor="middle" x="582" y="-606" font-family="Helvetica,sans-Serif" font-size="10.00">DynExp::RunnableObjectParams</text>
</a>
</g>
</g>
<!-- Node1&#45;&gt;Node18 -->
<g id="edge17" class="edge">
<title>Node1&#45;&gt;Node18</title>
<path fill="none" stroke="midnightblue" d="M413.09,-689.47C453.72,-669.88 526.39,-634.83 561.27,-618.02"/>
<polygon fill="midnightblue" stroke="midnightblue" points="411.46,-686.37 403.97,-693.87 414.5,-692.68 411.46,-686.37"/>
</g>
<!-- Node2 -->
<g id="node2" class="node">
<title>Node2</title>
<g id="a_node2"><a xlink:href="classUtil_1_1ISynchronizedPointerLockable.html" target="_top" xlink:title="Interface to allow synchronizing the access to derived classes between different threads by making th...">
<polygon fill="white" stroke="black" points="144,-688.5 144,-718.5 287,-718.5 287,-688.5 144,-688.5"/>
<text text-anchor="start" x="152" y="-706.5" font-family="Helvetica,sans-Serif" font-size="10.00">Util::ISynchronizedPointer</text>
<text text-anchor="middle" x="215.5" y="-695.5" font-family="Helvetica,sans-Serif" font-size="10.00">Lockable</text>
</a>
</g>
</g>
<!-- Node2&#45;&gt;Node1 -->
<g id="edge1" class="edge">
<title>Node2&#45;&gt;Node1</title>
<path fill="none" stroke="midnightblue" d="M297.23,-703.5C305.84,-703.5 314.47,-703.5 322.76,-703.5"/>
<polygon fill="midnightblue" stroke="midnightblue" points="297.17,-700 287.17,-703.5 297.17,-707 297.17,-700"/>
</g>
<!-- Node3 -->
<g id="node3" class="node">
<title>Node3</title>
<g id="a_node3"><a xlink:href="classUtil_1_1INonCopyable.html" target="_top" xlink:title="Interface to delete copy constructor and copy assignment operator and thus make derived classes non&#45;c...">
<polygon fill="white" stroke="black" points="0,-694 0,-713 108,-713 108,-694 0,-694"/>
<text text-anchor="middle" x="54" y="-701" font-family="Helvetica,sans-Serif" font-size="10.00">Util::INonCopyable</text>
</a>
</g>
</g>
<!-- Node3&#45;&gt;Node2 -->
<g id="edge2" class="edge">
<title>Node3&#45;&gt;Node2</title>
<path fill="none" stroke="midnightblue" d="M118.19,-703.5C126.58,-703.5 135.23,-703.5 143.74,-703.5"/>
<polygon fill="midnightblue" stroke="midnightblue" points="118.11,-700 108.11,-703.5 118.11,-707 118.11,-700"/>
</g>
<!-- Node5 -->
<g id="node5" class="node">
<title>Node5</title>
<g id="a_node5"><a xlink:href="classDynExpHardware_1_1gRPCHardwareAdapterParams.html" target="_top" xlink:title=" ">
<polygon fill="white" stroke="black" points="737,-981 737,-1022 917,-1022 917,-981 737,-981"/>
<text text-anchor="start" x="745" y="-1010" font-family="Helvetica,sans-Serif" font-size="10.00">DynExpHardware::gRPCHardware</text>
<text text-anchor="start" x="745" y="-999" font-family="Helvetica,sans-Serif" font-size="10.00">AdapterParams&lt; pulse_streamer</text>
<text text-anchor="middle" x="827" y="-988" font-family="Helvetica,sans-Serif" font-size="10.00">::PulseStreamer &gt;</text>
</a>
</g>
</g>
<!-- Node4&#45;&gt;Node5 -->
<g id="edge4" class="edge">
<title>Node4&#45;&gt;Node5</title>
<path fill="none" stroke="midnightblue" d="M592.79,-818.22C612.3,-853.65 659.47,-930.62 721,-971.5 726.37,-975.07 732.16,-978.22 738.18,-981"/>
<polygon fill="midnightblue" stroke="midnightblue" points="595.66,-816.16 587.84,-809.02 589.5,-819.48 595.66,-816.16"/>
</g>
<!-- Node7 -->
<g id="node7" class="node">
<title>Node7</title>
<g id="a_node7"><a xlink:href="classDynExp_1_1SerialCommunicationHardwareAdapterParams.html" target="_top" xlink:title="Parameter class for SerialCommunicationHardwareAdapter.">
<polygon fill="white" stroke="black" points="744.5,-931.5 744.5,-961.5 909.5,-961.5 909.5,-931.5 744.5,-931.5"/>
<text text-anchor="start" x="752.5" y="-949.5" font-family="Helvetica,sans-Serif" font-size="10.00">DynExp::SerialCommunication</text>
<text text-anchor="middle" x="827" y="-938.5" font-family="Helvetica,sans-Serif" font-size="10.00">HardwareAdapterParams</text>
</a>
</g>
</g>
<!-- Node4&#45;&gt;Node7 -->
<g id="edge6" class="edge">
<title>Node4&#45;&gt;Node7</title>
<path fill="none" stroke="midnightblue" d="M597.47,-817.15C620.62,-844.19 668.76,-895.54 721,-922.5 728.31,-926.27 736.21,-929.46 744.28,-932.15"/>
<polygon fill="midnightblue" stroke="midnightblue" points="599.97,-814.69 590.85,-809.29 594.61,-819.2 599.97,-814.69"/>
</g>
<!-- Node11 -->
<g id="node11" class="node">
<title>Node11</title>
<g id="a_node11"><a xlink:href="classDynExpHardware_1_1NIDAQHardwareAdapterParams.html" target="_top" xlink:title=" ">
<polygon fill="white" stroke="black" points="733.5,-882.5 733.5,-912.5 920.5,-912.5 920.5,-882.5 733.5,-882.5"/>
<text text-anchor="start" x="741.5" y="-900.5" font-family="Helvetica,sans-Serif" font-size="10.00">DynExpHardware::NIDAQHardware</text>
<text text-anchor="middle" x="827" y="-889.5" font-family="Helvetica,sans-Serif" font-size="10.00">AdapterParams</text>
</a>
</g>
</g>
<!-- Node4&#45;&gt;Node11 -->
<g id="edge10" class="edge">
<title>Node4&#45;&gt;Node11</title>
<path fill="none" stroke="midnightblue" d="M606.32,-814.52C633.05,-831.13 678.64,-857.63 721,-873.5 730.02,-876.88 739.66,-879.87 749.3,-882.49"/>
<polygon fill="midnightblue" stroke="midnightblue" points="608.02,-811.45 597.69,-809.09 604.29,-817.38 608.02,-811.45"/>
</g>
<!-- Node12 -->
<g id="node12" class="node">
<title>Node12</title>
<g id="a_node12"><a xlink:href="classDynExpHardware_1_1PVCamHardwareAdapterParams.html" target="_top" xlink:title=" ">
<polygon fill="white" stroke="black" points="732,-833.5 732,-863.5 922,-863.5 922,-833.5 732,-833.5"/>
<text text-anchor="start" x="740" y="-851.5" font-family="Helvetica,sans-Serif" font-size="10.00">DynExpHardware::PVCamHardware</text>
<text text-anchor="middle" x="827" y="-840.5" font-family="Helvetica,sans-Serif" font-size="10.00">AdapterParams</text>
</a>
</g>
</g>
<!-- Node4&#45;&gt;Node12 -->
<g id="edge11" class="edge">
<title>Node4&#45;&gt;Node12</title>
<path fill="none" stroke="midnightblue" d="M640.13,-811.02C673.3,-817.71 715.47,-826.21 751.26,-833.43"/>
<polygon fill="midnightblue" stroke="midnightblue" points="640.64,-807.55 630.14,-809.01 639.25,-814.41 640.64,-807.55"/>
</g>
<!-- Node13 -->
<g id="node13" class="node">
<title>Node13</title>
<g id="a_node13"><a xlink:href="classDynExpHardware_1_1QutoolsTDCHardwareAdapterParams.html" target="_top" xlink:title=" ">
<polygon fill="white" stroke="black" points="721,-784.5 721,-814.5 933,-814.5 933,-784.5 721,-784.5"/>
<text text-anchor="start" x="729" y="-802.5" font-family="Helvetica,sans-Serif" font-size="10.00">DynExpHardware::QutoolsTDCHardware</text>
<text text-anchor="middle" x="827" y="-791.5" font-family="Helvetica,sans-Serif" font-size="10.00">AdapterParams</text>
</a>
</g>
</g>
<!-- Node4&#45;&gt;Node13 -->
<g id="edge12" class="edge">
<title>Node4&#45;&gt;Node13</title>
<path fill="none" stroke="midnightblue" d="M695.52,-799.5C703.89,-799.5 712.32,-799.5 720.65,-799.5"/>
<polygon fill="midnightblue" stroke="midnightblue" points="695.35,-796 685.35,-799.5 695.35,-803 695.35,-796"/>
</g>
<!-- Node14 -->
<g id="node14" class="node">
<title>Node14</title>
<g id="a_node14"><a xlink:href="classDynExpHardware_1_1SmarActHardwareAdapterParams.html" target="_top" xlink:title=" ">
<polygon fill="white" stroke="black" points="729,-735.5 729,-765.5 925,-765.5 925,-735.5 729,-735.5"/>
<text text-anchor="start" x="737" y="-753.5" font-family="Helvetica,sans-Serif" font-size="10.00">DynExpHardware::SmarActHardware</text>
<text text-anchor="middle" x="827" y="-742.5" font-family="Helvetica,sans-Serif" font-size="10.00">AdapterParams</text>
</a>
</g>
</g>
<!-- Node4&#45;&gt;Node14 -->
<g id="edge13" class="edge">
<title>Node4&#45;&gt;Node14</title>
<path fill="none" stroke="midnightblue" d="M640.13,-787.98C673.3,-781.29 715.47,-772.79 751.26,-765.57"/>
<polygon fill="midnightblue" stroke="midnightblue" points="639.25,-784.59 630.14,-789.99 640.64,-791.45 639.25,-784.59"/>
</g>
<!-- Node15 -->
<g id="node15" class="node">
<title>Node15</title>
<g id="a_node15"><a xlink:href="classDynExpHardware_1_1ZILabOneHardwareAdapterParams.html" target="_top" xlink:title=" ">
<polygon fill="white" stroke="black" points="750,-686.5 750,-716.5 904,-716.5 904,-686.5 750,-686.5"/>
<text text-anchor="start" x="758" y="-704.5" font-family="Helvetica,sans-Serif" font-size="10.00">DynExpHardware::ZILabOne</text>
<text text-anchor="middle" x="827" y="-693.5" font-family="Helvetica,sans-Serif" font-size="10.00">HardwareAdapterParams</text>
</a>
</g>
</g>
<!-- Node4&#45;&gt;Node15 -->
<g id="edge14" class="edge">
<title>Node4&#45;&gt;Node15</title>
<path fill="none" stroke="midnightblue" d="M606.81,-784.5C633.65,-768.18 679.02,-742.31 721,-726.5 731,-722.74 741.75,-719.41 752.42,-716.51"/>
<polygon fill="midnightblue" stroke="midnightblue" points="604.81,-781.63 598.13,-789.85 608.48,-787.59 604.81,-781.63"/>
</g>
<!-- Node16 -->
<g id="node16" class="node">
<title>Node16</title>
<g id="a_node16"><a xlink:href="classDynExpHardware_1_1gRPCHardwareAdapterParams.html" target="_top" xlink:title="Parameter class for gRPCHardwareAdapter.">
<polygon fill="white" stroke="black" points="737,-637.5 737,-667.5 917,-667.5 917,-637.5 737,-637.5"/>
<text text-anchor="start" x="745" y="-655.5" font-family="Helvetica,sans-Serif" font-size="10.00">DynExpHardware::gRPCHardware</text>
<text text-anchor="middle" x="827" y="-644.5" font-family="Helvetica,sans-Serif" font-size="10.00">AdapterParams&lt; gRPCStub &gt;</text>
</a>
</g>
</g>
<!-- Node4&#45;&gt;Node16 -->
<g id="edge15" class="edge">
<title>Node4&#45;&gt;Node16</title>
<path fill="none" stroke="midnightblue" d="M606.7,-784.22C628.3,-769.71 660.49,-746.59 685,-722.5 703.52,-704.3 699.08,-690.42 721,-676.5 726.45,-673.04 732.33,-670.08 738.44,-667.54"/>
<polygon fill="midnightblue" stroke="midnightblue" points="604.55,-781.45 598.14,-789.89 608.41,-787.29 604.55,-781.45"/>
</g>
<!-- Node6 -->
<g id="node6" class="node">
<title>Node6</title>
<g id="a_node6"><a xlink:href="classDynExpHardware_1_1SIPulseStreamerHardwareAdapterParams.html" target="_top" xlink:title=" ">
<polygon fill="white" stroke="black" points="972,-986.5 972,-1016.5 1160,-1016.5 1160,-986.5 972,-986.5"/>
<text text-anchor="start" x="980" y="-1004.5" font-family="Helvetica,sans-Serif" font-size="10.00">DynExpHardware::SIPulseStreamer</text>
<text text-anchor="middle" x="1066" y="-993.5" font-family="Helvetica,sans-Serif" font-size="10.00">HardwareAdapterParams</text>
</a>
</g>
</g>
<!-- Node5&#45;&gt;Node6 -->
<g id="edge5" class="edge">
<title>Node5&#45;&gt;Node6</title>
<path fill="none" stroke="midnightblue" d="M927.39,-1001.5C942.12,-1001.5 957.27,-1001.5 971.87,-1001.5"/>
<polygon fill="midnightblue" stroke="midnightblue" points="927.26,-998 917.26,-1001.5 927.26,-1005 927.26,-998"/>
</g>
<!-- Node8 -->
<g id="node8" class="node">
<title>Node8</title>
<g id="a_node8"><a xlink:href="classDynExp_1_1QSerialCommunicationHardwareAdapterParams.html" target="_top" xlink:title="Parameter class for QSerialCommunicationHardwareAdapter.">
<polygon fill="white" stroke="black" points="979.5,-931.5 979.5,-961.5 1152.5,-961.5 1152.5,-931.5 979.5,-931.5"/>
<text text-anchor="start" x="987.5" y="-949.5" font-family="Helvetica,sans-Serif" font-size="10.00">DynExp::QSerialCommunication</text>
<text text-anchor="middle" x="1066" y="-938.5" font-family="Helvetica,sans-Serif" font-size="10.00">HardwareAdapterParams</text>
</a>
</g>
</g>
<!-- Node7&#45;&gt;Node8 -->
<g id="edge7" class="edge">
<title>Node7&#45;&gt;Node8</title>
<path fill="none" stroke="midnightblue" d="M919.7,-946.5C939.28,-946.5 959.9,-946.5 979.25,-946.5"/>
<polygon fill="midnightblue" stroke="midnightblue" points="919.56,-943 909.56,-946.5 919.56,-950 919.56,-943"/>
</g>
<!-- Node9 -->
<g id="node9" class="node">
<title>Node9</title>
<g id="a_node9"><a xlink:href="classDynExp_1_1HardwareAdapterSerialPortParams.html" target="_top" xlink:title="Parameter class for HardwareAdapterSerialPort.">
<polygon fill="white" stroke="black" points="1200.5,-974.5 1200.5,-1004.5 1373.5,-1004.5 1373.5,-974.5 1200.5,-974.5"/>
<text text-anchor="start" x="1208.5" y="-992.5" font-family="Helvetica,sans-Serif" font-size="10.00">DynExp::HardwareAdapterSerial</text>
<text text-anchor="middle" x="1287" y="-981.5" font-family="Helvetica,sans-Serif" font-size="10.00">PortParams</text>
</a>
</g>
</g>
<!-- Node8&#45;&gt;Node9 -->
<g id="edge8" class="edge">
<title>Node8&#45;&gt;Node9</title>
<path fill="none" stroke="midnightblue" d="M1153.46,-963.48C1171.95,-967.11 1191.36,-970.92 1209.45,-974.47"/>
<polygon fill="midnightblue" stroke="midnightblue" points="1154.08,-960.03 1143.6,-961.54 1152.73,-966.9 1154.08,-960.03"/>
</g>
<!-- Node10 -->
<g id="node10" class="node">
<title>Node10</title>
<g id="a_node10"><a xlink:href="classDynExp_1_1HardwareAdapterTcpSocketParams.html" target="_top" xlink:title="Parameter class for HardwareAdapterTcpSocket.">
<polygon fill="white" stroke="black" points="1206.5,-925.5 1206.5,-955.5 1367.5,-955.5 1367.5,-925.5 1206.5,-925.5"/>
<text text-anchor="start" x="1214.5" y="-943.5" font-family="Helvetica,sans-Serif" font-size="10.00">DynExp::HardwareAdapterTcp</text>
<text text-anchor="middle" x="1287" y="-932.5" font-family="Helvetica,sans-Serif" font-size="10.00">SocketParams</text>
</a>
</g>
</g>
<!-- Node8&#45;&gt;Node10 -->
<g id="edge9" class="edge">
<title>Node8&#45;&gt;Node10</title>
<path fill="none" stroke="midnightblue" d="M1162.61,-943.88C1177.15,-943.48 1192.02,-943.07 1206.17,-942.69"/>
<polygon fill="midnightblue" stroke="midnightblue" points="1162.51,-940.38 1152.61,-944.15 1162.7,-947.38 1162.51,-940.38"/>
</g>
<!-- Node19 -->
<g id="node19" class="node">
<title>Node19</title>
<g id="a_node19"><a xlink:href="classDynExp_1_1InstrumentParamsBase.html" target="_top" xlink:title="Parameter class for InstrumentBase.">
<polygon fill="white" stroke="black" points="740.5,-599 740.5,-618 913.5,-618 913.5,-599 740.5,-599"/>
<text text-anchor="middle" x="827" y="-606" font-family="Helvetica,sans-Serif" font-size="10.00">DynExp::InstrumentParamsBase</text>
</a>
</g>
</g>
<!-- Node18&#45;&gt;Node19 -->
<g id="edge18" class="edge">
<title>Node18&#45;&gt;Node19</title>
<path fill="none" stroke="midnightblue" d="M678.85,-608.5C699.13,-608.5 720.41,-608.5 740.28,-608.5"/>
<polygon fill="midnightblue" stroke="midnightblue" points="678.67,-605 668.67,-608.5 678.67,-612 678.67,-605"/>
</g>
<!-- Node49 -->
<g id="node34" class="node">
<title>Node49</title>
<g id="a_node34"><a xlink:href="classDynExp_1_1ModuleParamsBase.html" target="_top" xlink:title="Parameter class for ModuleBase.">
<polygon fill="white" stroke="black" points="749,-205 749,-224 905,-224 905,-205 749,-205"/>
<text text-anchor="middle" x="827" y="-212" font-family="Helvetica,sans-Serif" font-size="10.00">DynExp::ModuleParamsBase</text>
</a>
</g>
</g>
<!-- Node18&#45;&gt;Node49 -->
<g id="edge33" class="edge">
<title>Node18&#45;&gt;Node49</title>
<path fill="none" stroke="midnightblue" d="M594.29,-590.19C637.01,-520.92 787.93,-276.23 819.99,-224.25"/>
<polygon fill="midnightblue" stroke="midnightblue" points="591.28,-588.41 589.01,-598.76 597.24,-592.09 591.28,-588.41"/>
</g>
<!-- Node20 -->
<g id="node20" class="node">
<title>Node20</title>
<g id="a_node20"><a xlink:href="classDynExpInstr_1_1CameraParams.html" target="_top" xlink:title="Parameter class for Camera.">
<polygon fill="white" stroke="black" points="988,-826 988,-845 1144,-845 1144,-826 988,-826"/>
<text text-anchor="middle" x="1066" y="-833" font-family="Helvetica,sans-Serif" font-size="10.00">DynExpInstr::CameraParams</text>
</a>
</g>
</g>
<!-- Node19&#45;&gt;Node20 -->
<g id="edge19" class="edge">
<title>Node19&#45;&gt;Node20</title>
<path fill="none" stroke="midnightblue" d="M922.82,-620.38C926.42,-622.45 929.83,-624.81 933,-627.5 969.33,-658.34 944.63,-687.55 969,-728.5 993.25,-769.25 1034.39,-808.45 1053.98,-825.96"/>
<polygon fill="midnightblue" stroke="midnightblue" points="924.05,-617.08 913.53,-615.79 920.95,-623.36 924.05,-617.08"/>
</g>
<!-- Node23 -->
<g id="node23" class="node">
<title>Node23</title>
<g id="a_node23"><a xlink:href="classDynExpInstr_1_1DataStreamInstrumentParams.html" target="_top" xlink:title="Parameter class for DataStreamInstrument.">
<polygon fill="white" stroke="black" points="969,-688.5 969,-718.5 1163,-718.5 1163,-688.5 969,-688.5"/>
<text text-anchor="start" x="977" y="-706.5" font-family="Helvetica,sans-Serif" font-size="10.00">DynExpInstr::DataStreamInstrument</text>
<text text-anchor="middle" x="1066" y="-695.5" font-family="Helvetica,sans-Serif" font-size="10.00">Params</text>
</a>
</g>
</g>
<!-- Node19&#45;&gt;Node23 -->
<g id="edge22" class="edge">
<title>Node19&#45;&gt;Node23</title>
<path fill="none" stroke="midnightblue" d="M916.53,-620.93C922.21,-622.82 927.75,-625 933,-627.5 952.06,-636.59 951.28,-647.02 969,-658.5 987.08,-670.21 1008.68,-680.61 1026.82,-688.46"/>
<polygon fill="midnightblue" stroke="midnightblue" points="917.45,-617.55 906.86,-618.01 915.42,-624.25 917.45,-617.55"/>
</g>
<!-- Node43 -->
<g id="node28" class="node">
<title>Node43</title>
<g id="a_node28"><a xlink:href="classDynExpInstr_1_1InterModuleCommunicatorParams.html" target="_top" xlink:title="Parameter class for InterModuleCommunicator.">
<polygon fill="white" stroke="black" points="996,-619.5 996,-649.5 1136,-649.5 1136,-619.5 996,-619.5"/>
<text text-anchor="start" x="1004" y="-637.5" font-family="Helvetica,sans-Serif" font-size="10.00">DynExpInstr::InterModule</text>
<text text-anchor="middle" x="1066" y="-626.5" font-family="Helvetica,sans-Serif" font-size="10.00">CommunicatorParams</text>
</a>
</g>
</g>
<!-- Node19&#45;&gt;Node43 -->
<g id="edge27" class="edge">
<title>Node19&#45;&gt;Node43</title>
<path fill="none" stroke="midnightblue" d="M923.81,-619.01C947.94,-621.66 973.36,-624.45 995.89,-626.92"/>
<polygon fill="midnightblue" stroke="midnightblue" points="923.88,-615.5 913.56,-617.89 923.12,-622.46 923.88,-615.5"/>
</g>
<!-- Node44 -->
<g id="node29" class="node">
<title>Node44</title>
<g id="a_node29"><a xlink:href="classDynExpInstr_1_1PositionerStageParams.html" target="_top" xlink:title="Parameter class for PositionerStage.">
<polygon fill="white" stroke="black" points="987,-570.5 987,-600.5 1145,-600.5 1145,-570.5 987,-570.5"/>
<text text-anchor="start" x="995" y="-588.5" font-family="Helvetica,sans-Serif" font-size="10.00">DynExpInstr::PositionerStage</text>
<text text-anchor="middle" x="1066" y="-577.5" font-family="Helvetica,sans-Serif" font-size="10.00">Params</text>
</a>
</g>
</g>
<!-- Node19&#45;&gt;Node44 -->
<g id="edge28" class="edge">
<title>Node19&#45;&gt;Node44</title>
<path fill="none" stroke="midnightblue" d="M923.73,-599.21C944.64,-597.18 966.53,-595.06 986.66,-593.1"/>
<polygon fill="midnightblue" stroke="midnightblue" points="923.18,-595.75 913.56,-600.2 923.85,-602.71 923.18,-595.75"/>
</g>
<!-- Node48 -->
<g id="node33" class="node">
<title>Node48</title>
<g id="a_node33"><a xlink:href="classDynExpInstr_1_1SpectrometerParams.html" target="_top" xlink:title="Parameter class for Spectrometer.">
<polygon fill="white" stroke="black" points="992,-521.5 992,-551.5 1140,-551.5 1140,-521.5 992,-521.5"/>
<text text-anchor="start" x="1000" y="-539.5" font-family="Helvetica,sans-Serif" font-size="10.00">DynExpInstr::Spectrometer</text>
<text text-anchor="middle" x="1066" y="-528.5" font-family="Helvetica,sans-Serif" font-size="10.00">Params</text>
</a>
</g>
</g>
<!-- Node19&#45;&gt;Node48 -->
<g id="edge32" class="edge">
<title>Node19&#45;&gt;Node48</title>
<path fill="none" stroke="midnightblue" d="M863.52,-595.49C891.87,-585.33 932.72,-571.19 969,-560.5 979.55,-557.39 990.82,-554.34 1001.8,-551.51"/>
<polygon fill="midnightblue" stroke="midnightblue" points="862.26,-592.23 854.04,-598.91 864.63,-598.81 862.26,-592.23"/>
</g>
<!-- Node21 -->
<g id="node21" class="node">
<title>Node21</title>
<g id="a_node21"><a xlink:href="classDynExpInstr_1_1DummyCameraParams.html" target="_top" xlink:title=" ">
<polygon fill="white" stroke="black" points="1207.5,-864.5 1207.5,-894.5 1366.5,-894.5 1366.5,-864.5 1207.5,-864.5"/>
<text text-anchor="start" x="1215.5" y="-882.5" font-family="Helvetica,sans-Serif" font-size="10.00">DynExpInstr::DummyCamera</text>
<text text-anchor="middle" x="1287" y="-871.5" font-family="Helvetica,sans-Serif" font-size="10.00">Params</text>
</a>
</g>
</g>
<!-- Node20&#45;&gt;Node21 -->
<g id="edge20" class="edge">
<title>Node20&#45;&gt;Node21</title>
<path fill="none" stroke="midnightblue" d="M1124.39,-847.03C1150.88,-852.35 1182.67,-858.74 1211.02,-864.43"/>
<polygon fill="midnightblue" stroke="midnightblue" points="1125.01,-843.59 1114.52,-845.05 1123.63,-850.45 1125.01,-843.59"/>
</g>
<!-- Node22 -->
<g id="node22" class="node">
<title>Node22</title>
<g id="a_node22"><a xlink:href="classDynExpInstr_1_1PVCamParams.html" target="_top" xlink:title=" ">
<polygon fill="white" stroke="black" points="1210.5,-826 1210.5,-845 1363.5,-845 1363.5,-826 1210.5,-826"/>
<text text-anchor="middle" x="1287" y="-833" font-family="Helvetica,sans-Serif" font-size="10.00">DynExpInstr::PVCamParams</text>
</a>
</g>
</g>
<!-- Node20&#45;&gt;Node22 -->
<g id="edge21" class="edge">
<title>Node20&#45;&gt;Node22</title>
<path fill="none" stroke="midnightblue" d="M1154.37,-835.5C1172.85,-835.5 1192.21,-835.5 1210.22,-835.5"/>
<polygon fill="midnightblue" stroke="midnightblue" points="1154.21,-832 1144.21,-835.5 1154.21,-839 1154.21,-832"/>
</g>
<!-- Node24 -->
<g id="node24" class="node">
<title>Node24</title>
<g id="a_node24"><a xlink:href="classDynExpInstr_1_1FunctionGeneratorParams.html" target="_top" xlink:title="Parameter class for FunctionGenerator.">
<polygon fill="white" stroke="red" points="1201,-776.5 1201,-806.5 1373,-806.5 1373,-776.5 1201,-776.5"/>
<text text-anchor="start" x="1209" y="-794.5" font-family="Helvetica,sans-Serif" font-size="10.00">DynExpInstr::FunctionGenerator</text>
<text text-anchor="middle" x="1287" y="-783.5" font-family="Helvetica,sans-Serif" font-size="10.00">Params</text>
</a>
</g>
</g>
<!-- Node23&#45;&gt;Node24 -->
<g id="edge23" class="edge">
<title>Node23&#45;&gt;Node24</title>
<path fill="none" stroke="midnightblue" d="M1104.12,-723.25C1130.18,-736.61 1166.12,-754.03 1199,-766.5 1208.4,-770.07 1218.54,-773.41 1228.46,-776.43"/>
<polygon fill="midnightblue" stroke="midnightblue" points="1105.48,-720.01 1094.99,-718.53 1102.26,-726.23 1105.48,-720.01"/>
</g>
<!-- Node34 -->
<g id="node25" class="node">
<title>Node34</title>
<g id="a_node25"><a xlink:href="classDynExpInstr_1_1InputPortParams.html" target="_top" xlink:title="Parameter class for InputPort.">
<polygon fill="white" stroke="red" points="1206,-738 1206,-757 1368,-757 1368,-738 1206,-738"/>
<text text-anchor="middle" x="1287" y="-745" font-family="Helvetica,sans-Serif" font-size="10.00">DynExpInstr::InputPortParams</text>
</a>
</g>
</g>
<!-- Node23&#45;&gt;Node34 -->
<g id="edge24" class="edge">
<title>Node23&#45;&gt;Node34</title>
<path fill="none" stroke="midnightblue" d="M1151.66,-720.51C1181.18,-726.44 1213.25,-732.88 1238.65,-737.99"/>
<polygon fill="midnightblue" stroke="midnightblue" points="1152.25,-717.06 1141.75,-718.52 1150.87,-723.92 1152.25,-717.06"/>
</g>
<!-- Node39 -->
<g id="node26" class="node">
<title>Node39</title>
<g id="a_node26"><a xlink:href="classDynExpInstr_1_1LockinAmplifierParams.html" target="_top" xlink:title="Parameter class for LockinAmplifier.">
<polygon fill="white" stroke="red" points="1208,-688.5 1208,-718.5 1366,-718.5 1366,-688.5 1208,-688.5"/>
<text text-anchor="start" x="1216" y="-706.5" font-family="Helvetica,sans-Serif" font-size="10.00">DynExpInstr::LockinAmplifier</text>
<text text-anchor="middle" x="1287" y="-695.5" font-family="Helvetica,sans-Serif" font-size="10.00">Params</text>
</a>
</g>
</g>
<!-- Node23&#45;&gt;Node39 -->
<g id="edge25" class="edge">
<title>Node23&#45;&gt;Node39</title>
<path fill="none" stroke="midnightblue" d="M1173.25,-703.5C1184.88,-703.5 1196.56,-703.5 1207.76,-703.5"/>
<polygon fill="midnightblue" stroke="midnightblue" points="1173.06,-700 1163.06,-703.5 1173.06,-707 1173.06,-700"/>
</g>
<!-- Node41 -->
<g id="node27" class="node">
<title>Node41</title>
<g id="a_node27"><a xlink:href="classDynExpInstr_1_1TimeTaggerParams.html" target="_top" xlink:title="Parameter class for TimeTagger.">
<polygon fill="white" stroke="red" points="1199.5,-650 1199.5,-669 1374.5,-669 1374.5,-650 1199.5,-650"/>
<text text-anchor="middle" x="1287" y="-657" font-family="Helvetica,sans-Serif" font-size="10.00">DynExpInstr::TimeTaggerParams</text>
</a>
</g>
</g>
<!-- Node23&#45;&gt;Node41 -->
<g id="edge26" class="edge">
<title>Node23&#45;&gt;Node41</title>
<path fill="none" stroke="midnightblue" d="M1151.66,-686.49C1181.18,-680.56 1213.25,-674.12 1238.65,-669.01"/>
<polygon fill="midnightblue" stroke="midnightblue" points="1150.87,-683.08 1141.75,-688.48 1152.25,-689.94 1150.87,-683.08"/>
</g>
<!-- Node45 -->
<g id="node30" class="node">
<title>Node45</title>
<g id="a_node30"><a xlink:href="classDynExpInstr_1_1NenionLeakvalveF3Params.html" target="_top" xlink:title=" ">
<polygon fill="white" stroke="black" points="1203.5,-600.5 1203.5,-630.5 1370.5,-630.5 1370.5,-600.5 1203.5,-600.5"/>
<text text-anchor="start" x="1211.5" y="-618.5" font-family="Helvetica,sans-Serif" font-size="10.00">DynExpInstr::NenionLeakvalve</text>
<text text-anchor="middle" x="1287" y="-607.5" font-family="Helvetica,sans-Serif" font-size="10.00">F3Params</text>
</a>
</g>
</g>
<!-- Node44&#45;&gt;Node45 -->
<g id="edge29" class="edge">
<title>Node44&#45;&gt;Node45</title>
<path fill="none" stroke="midnightblue" d="M1155.45,-597.62C1171.3,-599.79 1187.77,-602.04 1203.45,-604.19"/>
<polygon fill="midnightblue" stroke="midnightblue" points="1155.52,-594.09 1145.14,-596.2 1154.57,-601.03 1155.52,-594.09"/>
</g>
<!-- Node46 -->
<g id="node31" class="node">
<title>Node46</title>
<g id="a_node31"><a xlink:href="classDynExpInstr_1_1PI__C__862__Params.html" target="_top" xlink:title=" ">
<polygon fill="white" stroke="black" points="1224,-551.5 1224,-581.5 1350,-581.5 1350,-551.5 1224,-551.5"/>
<text text-anchor="start" x="1232" y="-569.5" font-family="Helvetica,sans-Serif" font-size="10.00">DynExpInstr::PI_C_862</text>
<text text-anchor="middle" x="1287" y="-558.5" font-family="Helvetica,sans-Serif" font-size="10.00">_Params</text>
</a>
</g>
</g>
<!-- Node44&#45;&gt;Node46 -->
<g id="edge30" class="edge">
<title>Node44&#45;&gt;Node46</title>
<path fill="none" stroke="midnightblue" d="M1155.23,-577.85C1178.17,-575.85 1202.42,-573.75 1223.71,-571.9"/>
<polygon fill="midnightblue" stroke="midnightblue" points="1154.8,-574.37 1145.14,-578.72 1155.4,-581.34 1154.8,-574.37"/>
</g>
<!-- Node47 -->
<g id="node32" class="node">
<title>Node47</title>
<g id="a_node32"><a xlink:href="classDynExpInstr_1_1SmarActParams.html" target="_top" xlink:title=" ">
<polygon fill="white" stroke="black" points="1207.5,-513 1207.5,-532 1366.5,-532 1366.5,-513 1207.5,-513"/>
<text text-anchor="middle" x="1287" y="-520" font-family="Helvetica,sans-Serif" font-size="10.00">DynExpInstr::SmarActParams</text>
</a>
</g>
</g>
<!-- Node44&#45;&gt;Node47 -->
<g id="edge31" class="edge">
<title>Node44&#45;&gt;Node47</title>
<path fill="none" stroke="midnightblue" d="M1143,-567.46C1149.83,-565.31 1156.58,-562.99 1163,-560.5 1179.87,-553.95 1182.01,-547.71 1199,-541.5 1209.31,-537.73 1220.59,-534.59 1231.52,-532.02"/>
<polygon fill="midnightblue" stroke="midnightblue" points="1141.54,-564.24 1132.97,-570.48 1143.55,-570.95 1141.54,-564.24"/>
</g>
<!-- Node50 -->
<g id="node35" class="node">
<title>Node50</title>
<g id="a_node35"><a xlink:href="classDynExpModule_1_1gRPCModuleParams.html" target="_top" xlink:title=" ">
<polygon fill="white" stroke="black" points="987,-398.5 987,-428.5 1145,-428.5 1145,-398.5 987,-398.5"/>
<text text-anchor="start" x="995" y="-416.5" font-family="Helvetica,sans-Serif" font-size="10.00">DynExpModule::gRPCModule</text>
<text text-anchor="middle" x="1066" y="-405.5" font-family="Helvetica,sans-Serif" font-size="10.00">Params&lt; gRPCServices... &gt;</text>
</a>
</g>
</g>
<!-- Node49&#45;&gt;Node50 -->
<g id="edge34" class="edge">
<title>Node49&#45;&gt;Node50</title>
<path fill="none" stroke="midnightblue" d="M847.25,-230.66C892.12,-268.34 1003.19,-361.6 1046.91,-398.31"/>
<polygon fill="midnightblue" stroke="midnightblue" points="849.34,-227.85 839.43,-224.1 844.84,-233.21 849.34,-227.85"/>
</g>
<!-- Node58 -->
<g id="node38" class="node">
<title>Node58</title>
<g id="a_node38"><a xlink:href="classDynExp_1_1QModuleParamsBase.html" target="_top" xlink:title="Parameter class for QModuleBase.">
<polygon fill="white" stroke="red" points="984,-227 984,-246 1148,-246 1148,-227 984,-227"/>
<text text-anchor="middle" x="1066" y="-234" font-family="Helvetica,sans-Serif" font-size="10.00">DynExp::QModuleParamsBase</text>
</a>
</g>
</g>
<!-- Node49&#45;&gt;Node58 -->
<g id="edge37" class="edge">
<title>Node49&#45;&gt;Node58</title>
<path fill="none" stroke="midnightblue" d="M915.42,-222.62C937.78,-224.69 961.72,-226.91 983.76,-228.96"/>
<polygon fill="midnightblue" stroke="midnightblue" points="915.56,-219.11 905.27,-221.67 914.91,-226.08 915.56,-219.11"/>
</g>
<!-- Node70 -->
<g id="node47" class="node">
<title>Node70</title>
<g id="a_node47"><a xlink:href="classDynExpModule_1_1ArbitraryFunctionFromCSVParams.html" target="_top" xlink:title=" ">
<polygon fill="white" stroke="black" points="976,-177.5 976,-207.5 1156,-207.5 1156,-177.5 976,-177.5"/>
<text text-anchor="start" x="984" y="-195.5" font-family="Helvetica,sans-Serif" font-size="10.00">DynExpModule::ArbitraryFunction</text>
<text text-anchor="middle" x="1066" y="-184.5" font-family="Helvetica,sans-Serif" font-size="10.00">FromCSVParams</text>
</a>
</g>
</g>
<!-- Node49&#45;&gt;Node70 -->
<g id="edge46" class="edge">
<title>Node49&#45;&gt;Node70</title>
<path fill="none" stroke="midnightblue" d="M915.46,-206.38C935.17,-204.55 956.12,-202.61 975.9,-200.77"/>
<polygon fill="midnightblue" stroke="midnightblue" points="914.91,-202.92 905.27,-207.33 915.56,-209.89 914.91,-202.92"/>
</g>
<!-- Node71 -->
<g id="node48" class="node">
<title>Node71</title>
<g id="a_node48"><a xlink:href="classDynExpModule_1_1StreamManipulatorParams.html" target="_top" xlink:title="Parameter class for StreamManipulator.">
<polygon fill="white" stroke="black" points="971,-128.5 971,-158.5 1161,-158.5 1161,-128.5 971,-128.5"/>
<text text-anchor="start" x="979" y="-146.5" font-family="Helvetica,sans-Serif" font-size="10.00">DynExpModule::StreamManipulator</text>
<text text-anchor="middle" x="1066" y="-135.5" font-family="Helvetica,sans-Serif" font-size="10.00">Params</text>
</a>
</g>
</g>
<!-- Node49&#45;&gt;Node71 -->
<g id="edge47" class="edge">
<title>Node49&#45;&gt;Node71</title>
<path fill="none" stroke="midnightblue" d="M864.07,-201.63C892.41,-191.72 932.99,-177.99 969,-167.5 979.56,-164.43 990.83,-161.39 1001.81,-158.56"/>
<polygon fill="midnightblue" stroke="midnightblue" points="862.85,-198.35 854.58,-204.96 865.17,-204.95 862.85,-198.35"/>
</g>
<!-- Node72 -->
<g id="node49" class="node">
<title>Node72</title>
<g id="a_node49"><a xlink:href="classDynExpModule_1_1gRPCModuleParams.html" target="_top" xlink:title="Parameter class for gRPCModule.">
<polygon fill="white" stroke="black" points="987,-79.5 987,-109.5 1145,-109.5 1145,-79.5 987,-79.5"/>
<text text-anchor="start" x="995" y="-97.5" font-family="Helvetica,sans-Serif" font-size="10.00">DynExpModule::gRPCModule</text>
<text text-anchor="middle" x="1066" y="-86.5" font-family="Helvetica,sans-Serif" font-size="10.00">Params&lt; gRPCServices &gt;</text>
</a>
</g>
</g>
<!-- Node49&#45;&gt;Node72 -->
<g id="edge48" class="edge">
<title>Node49&#45;&gt;Node72</title>
<path fill="none" stroke="midnightblue" d="M847.12,-198.19C873.08,-176.86 921.66,-139.72 969,-118.5 976.6,-115.09 984.77,-112.11 993.02,-109.53"/>
<polygon fill="midnightblue" stroke="midnightblue" points="844.67,-195.68 839.23,-204.77 849.15,-201.06 844.67,-195.68"/>
</g>
<!-- Node51 -->
<g id="node36" class="node">
<title>Node51</title>
<g id="a_node36"><a xlink:href="classDynExpModule_1_1NetworkDataStreamInstrumentParams.html" target="_top" xlink:title=" ">
<polygon fill="white" stroke="red" points="1206.5,-453 1206.5,-494 1367.5,-494 1367.5,-453 1206.5,-453"/>
<text text-anchor="start" x="1214.5" y="-482" font-family="Helvetica,sans-Serif" font-size="10.00">DynExpModule::NetworkData</text>
<text text-anchor="start" x="1214.5" y="-471" font-family="Helvetica,sans-Serif" font-size="10.00">StreamInstrumentParams</text>
<text text-anchor="middle" x="1287" y="-460" font-family="Helvetica,sans-Serif" font-size="10.00">&lt; gRPCServices... &gt;</text>
</a>
</g>
</g>
<!-- Node50&#45;&gt;Node51 -->
<g id="edge35" class="edge">
<title>Node50&#45;&gt;Node51</title>
<path fill="none" stroke="midnightblue" d="M1131.7,-431.23C1156.63,-438.06 1185.32,-445.92 1211.13,-452.99"/>
<polygon fill="midnightblue" stroke="midnightblue" points="1132.55,-427.83 1121.98,-428.56 1130.7,-434.58 1132.55,-427.83"/>
</g>
<!-- Node57 -->
<g id="node37" class="node">
<title>Node57</title>
<g id="a_node37"><a xlink:href="classDynExpModule_1_1NetworkDataStreamInstrumentParams.html" target="_top" xlink:title=" ">
<polygon fill="white" stroke="black" points="1206.5,-393 1206.5,-434 1367.5,-434 1367.5,-393 1206.5,-393"/>
<text text-anchor="start" x="1214.5" y="-422" font-family="Helvetica,sans-Serif" font-size="10.00">DynExpModule::NetworkData</text>
<text text-anchor="start" x="1214.5" y="-411" font-family="Helvetica,sans-Serif" font-size="10.00">StreamInstrumentParams</text>
<text text-anchor="middle" x="1287" y="-400" font-family="Helvetica,sans-Serif" font-size="10.00">&lt; gRPCServices &gt;</text>
</a>
</g>
</g>
<!-- Node50&#45;&gt;Node57 -->
<g id="edge36" class="edge">
<title>Node50&#45;&gt;Node57</title>
<path fill="none" stroke="midnightblue" d="M1155.52,-413.5C1172.35,-413.5 1189.88,-413.5 1206.42,-413.5"/>
<polygon fill="midnightblue" stroke="midnightblue" points="1155.14,-410 1145.14,-413.5 1155.14,-417 1155.14,-410"/>
</g>
<!-- Node59 -->
<g id="node39" class="node">
<title>Node59</title>
<g id="a_node39"><a xlink:href="classDynExpModule_1_1ImageViewer_1_1ImageViewerParams.html" target="_top" xlink:title=" ">
<polygon fill="white" stroke="black" points="1206.5,-343.5 1206.5,-373.5 1367.5,-373.5 1367.5,-343.5 1206.5,-343.5"/>
<text text-anchor="start" x="1214.5" y="-361.5" font-family="Helvetica,sans-Serif" font-size="10.00">DynExpModule::ImageViewer</text>
<text text-anchor="middle" x="1287" y="-350.5" font-family="Helvetica,sans-Serif" font-size="10.00">::ImageViewerParams</text>
</a>
</g>
</g>
<!-- Node58&#45;&gt;Node59 -->
<g id="edge38" class="edge">
<title>Node58&#45;&gt;Node59</title>
<path fill="none" stroke="midnightblue" d="M1085.1,-253.1C1109.34,-274.52 1154.48,-311.62 1199,-333.5 1206.62,-337.24 1214.89,-340.52 1223.21,-343.36"/>
<polygon fill="midnightblue" stroke="midnightblue" points="1087.22,-250.3 1077.43,-246.23 1082.55,-255.51 1087.22,-250.3"/>
</g>
<!-- Node60 -->
<g id="node40" class="node">
<title>Node60</title>
<g id="a_node40"><a xlink:href="classDynExpModule_1_1InputPortReaderParams.html" target="_top" xlink:title=" ">
<polygon fill="white" stroke="black" points="1199.5,-294.5 1199.5,-324.5 1374.5,-324.5 1374.5,-294.5 1199.5,-294.5"/>
<text text-anchor="start" x="1207.5" y="-312.5" font-family="Helvetica,sans-Serif" font-size="10.00">DynExpModule::InputPortReader</text>
<text text-anchor="middle" x="1287" y="-301.5" font-family="Helvetica,sans-Serif" font-size="10.00">Params</text>
</a>
</g>
</g>
<!-- Node58&#45;&gt;Node60 -->
<g id="edge39" class="edge">
<title>Node58&#45;&gt;Node60</title>
<path fill="none" stroke="midnightblue" d="M1101.22,-249.68C1127.74,-259.71 1165.48,-273.6 1199,-284.5 1209.46,-287.9 1220.71,-291.31 1231.53,-294.47"/>
<polygon fill="midnightblue" stroke="midnightblue" points="1102.23,-246.32 1091.64,-246.04 1099.74,-252.86 1102.23,-246.32"/>
</g>
<!-- Node61 -->
<g id="node41" class="node">
<title>Node61</title>
<g id="a_node41"><a xlink:href="classDynExpModule_1_1LockinAmplifierControlParams.html" target="_top" xlink:title=" ">
<polygon fill="white" stroke="black" points="1201,-245.5 1201,-275.5 1373,-275.5 1373,-245.5 1201,-245.5"/>
<text text-anchor="start" x="1209" y="-263.5" font-family="Helvetica,sans-Serif" font-size="10.00">DynExpModule::LockinAmplifier</text>
<text text-anchor="middle" x="1287" y="-252.5" font-family="Helvetica,sans-Serif" font-size="10.00">ControlParams</text>
</a>
</g>
</g>
<!-- Node58&#45;&gt;Node61 -->
<g id="edge40" class="edge">
<title>Node58&#45;&gt;Node61</title>
<path fill="none" stroke="midnightblue" d="M1158.39,-246.52C1172.46,-248.06 1186.94,-249.64 1200.86,-251.17"/>
<polygon fill="midnightblue" stroke="midnightblue" points="1158.56,-243.01 1148.24,-245.4 1157.8,-249.97 1158.56,-243.01"/>
</g>
<!-- Node62 -->
<g id="node42" class="node">
<title>Node62</title>
<g id="a_node42"><a xlink:href="classDynExpModule_1_1ODMR_1_1ODMRParams.html" target="_top" xlink:title=" ">
<polygon fill="white" stroke="black" points="1223.5,-196.5 1223.5,-226.5 1350.5,-226.5 1350.5,-196.5 1223.5,-196.5"/>
<text text-anchor="start" x="1231.5" y="-214.5" font-family="Helvetica,sans-Serif" font-size="10.00">DynExpModule::ODMR</text>
<text text-anchor="middle" x="1287" y="-203.5" font-family="Helvetica,sans-Serif" font-size="10.00">::ODMRParams</text>
</a>
</g>
</g>
<!-- Node58&#45;&gt;Node62 -->
<g id="edge41" class="edge">
<title>Node58&#45;&gt;Node62</title>
<path fill="none" stroke="midnightblue" d="M1158.23,-226.09C1180.16,-223.58 1203.09,-220.96 1223.38,-218.65"/>
<polygon fill="midnightblue" stroke="midnightblue" points="1157.77,-222.61 1148.24,-227.23 1158.57,-229.57 1157.77,-222.61"/>
</g>
<!-- Node63 -->
<g id="node43" class="node">
<title>Node63</title>
<g id="a_node43"><a xlink:href="classDynExpModule_1_1OutputPortWriterParams.html" target="_top" xlink:title=" ">
<polygon fill="white" stroke="black" points="1212.5,-147.5 1212.5,-177.5 1361.5,-177.5 1361.5,-147.5 1212.5,-147.5"/>
<text text-anchor="start" x="1220.5" y="-165.5" font-family="Helvetica,sans-Serif" font-size="10.00">DynExpModule::OutputPort</text>
<text text-anchor="middle" x="1287" y="-154.5" font-family="Helvetica,sans-Serif" font-size="10.00">WriterParams</text>
</a>
</g>
</g>
<!-- Node58&#45;&gt;Node63 -->
<g id="edge42" class="edge">
<title>Node58&#45;&gt;Node63</title>
<path fill="none" stroke="midnightblue" d="M1143.79,-224.08C1150.43,-221.94 1156.92,-219.44 1163,-216.5 1181.75,-207.44 1180.55,-196.15 1199,-186.5 1205.53,-183.09 1212.59,-180.12 1219.77,-177.54"/>
<polygon fill="midnightblue" stroke="midnightblue" points="1142.59,-220.78 1133.99,-226.96 1144.57,-227.5 1142.59,-220.78"/>
</g>
<!-- Node64 -->
<g id="node44" class="node">
<title>Node64</title>
<g id="a_node44"><a xlink:href="classDynExpModule_1_1SignalDesignerParams.html" target="_top" xlink:title=" ">
<polygon fill="white" stroke="black" points="1202,-98.5 1202,-128.5 1372,-128.5 1372,-98.5 1202,-98.5"/>
<text text-anchor="start" x="1210" y="-116.5" font-family="Helvetica,sans-Serif" font-size="10.00">DynExpModule::SignalDesigner</text>
<text text-anchor="middle" x="1287" y="-105.5" font-family="Helvetica,sans-Serif" font-size="10.00">Params</text>
</a>
</g>
</g>
<!-- Node58&#45;&gt;Node64 -->
<g id="edge43" class="edge">
<title>Node58&#45;&gt;Node64</title>
<path fill="none" stroke="midnightblue" d="M1154.55,-222.27C1157.51,-220.54 1160.34,-218.63 1163,-216.5 1193.14,-192.41 1169.64,-162.54 1199,-137.5 1203.05,-134.04 1207.56,-131.08 1212.34,-128.54"/>
<polygon fill="midnightblue" stroke="midnightblue" points="1152.71,-219.28 1145.34,-226.89 1155.85,-225.53 1152.71,-219.28"/>
</g>
<!-- Node65 -->
<g id="node45" class="node">
<title>Node65</title>
<g id="a_node45"><a xlink:href="classDynExpModule_1_1SignalPlotterParams.html" target="_top" xlink:title=" ">
<polygon fill="white" stroke="black" points="1208,-49.5 1208,-79.5 1366,-79.5 1366,-49.5 1208,-49.5"/>
<text text-anchor="start" x="1216" y="-67.5" font-family="Helvetica,sans-Serif" font-size="10.00">DynExpModule::SignalPlotter</text>
<text text-anchor="middle" x="1287" y="-56.5" font-family="Helvetica,sans-Serif" font-size="10.00">Params</text>
</a>
</g>
</g>
<!-- Node58&#45;&gt;Node65 -->
<g id="edge44" class="edge">
<title>Node58&#45;&gt;Node65</title>
<path fill="none" stroke="midnightblue" d="M1156.78,-221.55C1158.96,-220.01 1161.04,-218.33 1163,-216.5 1206.2,-176.17 1157.11,-130.18 1199,-88.5 1202.44,-85.07 1206.33,-82.13 1210.5,-79.59"/>
<polygon fill="midnightblue" stroke="midnightblue" points="1154.71,-218.71 1147.91,-226.84 1158.29,-224.72 1154.71,-218.71"/>
</g>
<!-- Node66 -->
<g id="node46" class="node">
<title>Node66</title>
<g id="a_node46"><a xlink:href="classDynExpModule_1_1SpectrumViewer_1_1SpectrumViewerParams.html" target="_top" xlink:title=" ">
<polygon fill="white" stroke="black" points="1199,-0.5 1199,-30.5 1375,-30.5 1375,-0.5 1199,-0.5"/>
<text text-anchor="start" x="1207" y="-18.5" font-family="Helvetica,sans-Serif" font-size="10.00">DynExpModule::SpectrumViewer</text>
<text text-anchor="middle" x="1287" y="-7.5" font-family="Helvetica,sans-Serif" font-size="10.00">::SpectrumViewerParams</text>
</a>
</g>
</g>
<!-- Node58&#45;&gt;Node66 -->
<g id="edge45" class="edge">
<title>Node58&#45;&gt;Node66</title>
<path fill="none" stroke="midnightblue" d="M1156.96,-221.74C1159.09,-220.14 1161.11,-218.4 1163,-216.5 1219.63,-159.6 1144.21,-98.18 1199,-39.5 1202.21,-36.06 1205.86,-33.1 1209.8,-30.56"/>
<polygon fill="midnightblue" stroke="midnightblue" points="1154.87,-218.92 1148.26,-227.2 1158.59,-224.85 1154.87,-218.92"/>
</g>
</g>
</svg>
