<?xml version="1.0" encoding="UTF-8" standalone="no"?>
<!DOCTYPE svg PUBLIC "-//W3C//DTD SVG 1.1//EN"
 "http://www.w3.org/Graphics/SVG/1.1/DTD/svg11.dtd">
<!-- Generated by graphviz version 2.43.0 (0)
 -->
<!-- Title: DynExpInstr::SmarActConfigurator Pages: 1 -->
<svg width="205pt" height="263pt"
 viewBox="0.00 0.00 205.00 263.00" xmlns="http://www.w3.org/2000/svg" xmlns:xlink="http://www.w3.org/1999/xlink">
<g id="graph0" class="graph" transform="scale(1 1) rotate(0) translate(4 259)">
<title>DynExpInstr::SmarActConfigurator</title>
<polygon fill="white" stroke="transparent" points="-4,4 -4,-259 201,-259 201,4 -4,4"/>
<!-- Node1 -->
<g id="node1" class="node">
<title>Node1</title>
<g id="a_node1"><a xlink:title=" ">
<polygon fill="#bfbfbf" stroke="black" points="7,-0.5 7,-19.5 190,-19.5 190,-0.5 7,-0.5"/>
<text text-anchor="middle" x="98.5" y="-7.5" font-family="Helvetica,sans-Serif" font-size="10.00">DynExpInstr::SmarActConfigurator</text>
</a>
</g>
</g>
<!-- Node2 -->
<g id="node2" class="node">
<title>Node2</title>
<g id="a_node2"><a xlink:href="classDynExpInstr_1_1PositionerStageConfigurator.html" target="_top" xlink:title="Configurator class for PositionerStage.">
<polygon fill="white" stroke="black" points="19.5,-56.5 19.5,-86.5 177.5,-86.5 177.5,-56.5 19.5,-56.5"/>
<text text-anchor="start" x="27.5" y="-74.5" font-family="Helvetica,sans-Serif" font-size="10.00">DynExpInstr::PositionerStage</text>
<text text-anchor="middle" x="98.5" y="-63.5" font-family="Helvetica,sans-Serif" font-size="10.00">Configurator</text>
</a>
</g>
</g>
<!-- Node2&#45;&gt;Node1 -->
<g id="edge1" class="edge">
<title>Node2&#45;&gt;Node1</title>
<path fill="none" stroke="midnightblue" d="M98.5,-46.29C98.5,-36.86 98.5,-26.65 98.5,-19.66"/>
<polygon fill="midnightblue" stroke="midnightblue" points="95,-46.4 98.5,-56.4 102,-46.4 95,-46.4"/>
</g>
<!-- Node3 -->
<g id="node3" class="node">
<title>Node3</title>
<g id="a_node3"><a xlink:href="classDynExp_1_1InstrumentConfiguratorBase.html" target="_top" xlink:title="Configurator class for InstrumentBase.">
<polygon fill="white" stroke="black" points="0,-123.5 0,-142.5 197,-142.5 197,-123.5 0,-123.5"/>
<text text-anchor="middle" x="98.5" y="-130.5" font-family="Helvetica,sans-Serif" font-size="10.00">DynExp::InstrumentConfiguratorBase</text>
</a>
</g>
</g>
<!-- Node3&#45;&gt;Node2 -->
<g id="edge2" class="edge">
<title>Node3&#45;&gt;Node2</title>
<path fill="none" stroke="midnightblue" d="M98.5,-113.23C98.5,-104.59 98.5,-94.5 98.5,-86.52"/>
<polygon fill="midnightblue" stroke="midnightblue" points="95,-113.48 98.5,-123.48 102,-113.48 95,-113.48"/>
</g>
<!-- Node4 -->
<g id="node4" class="node">
<title>Node4</title>
<g id="a_node4"><a xlink:href="classDynExp_1_1RunnableObjectConfigurator.html" target="_top" xlink:title="Configurator class for RunnableObject.">
<polygon fill="white" stroke="black" points="0,-179.5 0,-198.5 197,-198.5 197,-179.5 0,-179.5"/>
<text text-anchor="middle" x="98.5" y="-186.5" font-family="Helvetica,sans-Serif" font-size="10.00">DynExp::RunnableObjectConfigurator</text>
</a>
</g>
</g>
<!-- Node4&#45;&gt;Node3 -->
<g id="edge3" class="edge">
<title>Node4&#45;&gt;Node3</title>
<path fill="none" stroke="midnightblue" d="M98.5,-168.8C98.5,-159.91 98.5,-149.78 98.5,-142.75"/>
<polygon fill="midnightblue" stroke="midnightblue" points="95,-169.08 98.5,-179.08 102,-169.08 95,-169.08"/>
</g>
<!-- Node5 -->
<g id="node5" class="node">
<title>Node5</title>
<g id="a_node5"><a xlink:href="classDynExp_1_1ConfiguratorBase.html" target="_top" xlink:title="The configurator classes have the task to generate parameter objects (refer to DynExp::ParamsBase) of...">
<polygon fill="white" stroke="black" points="26.5,-235.5 26.5,-254.5 170.5,-254.5 170.5,-235.5 26.5,-235.5"/>
<text text-anchor="middle" x="98.5" y="-242.5" font-family="Helvetica,sans-Serif" font-size="10.00">DynExp::ConfiguratorBase</text>
</a>
</g>
</g>
<!-- Node5&#45;&gt;Node4 -->
<g id="edge4" class="edge">
<title>Node5&#45;&gt;Node4</title>
<path fill="none" stroke="midnightblue" d="M98.5,-224.8C98.5,-215.91 98.5,-205.78 98.5,-198.75"/>
<polygon fill="midnightblue" stroke="midnightblue" points="95,-225.08 98.5,-235.08 102,-225.08 95,-225.08"/>
</g>
</g>
</svg>
