<?xml version="1.0" encoding="UTF-8" standalone="no"?>
<!DOCTYPE svg PUBLIC "-//W3C//DTD SVG 1.1//EN"
 "http://www.w3.org/Graphics/SVG/1.1/DTD/svg11.dtd">
<!-- Generated by graphviz version 2.43.0 (0)
 -->
<!-- Title: DynExpInstr::NetworkSpectrometerTasks::InitTask Pages: 1 -->
<svg width="605pt" height="60pt"
 viewBox="0.00 0.00 605.00 60.00" xmlns="http://www.w3.org/2000/svg" xmlns:xlink="http://www.w3.org/1999/xlink">
<g id="graph0" class="graph" transform="scale(1 1) rotate(0) translate(4 56)">
<title>DynExpInstr::NetworkSpectrometerTasks::InitTask</title>
<!-- Node1 -->
<g id="Node000001" class="node">
<title>Node1</title>
<g id="a_Node000001"><a xlink:title=" ">
<polygon fill="#999999" stroke="#666666" points="597,-41 408,-41 408,-11 597,-11 597,-41"/>
<text text-anchor="start" x="416" y="-29" font-family="Helvetica,sans-Serif" font-size="10.00">DynExpInstr::NetworkSpectrometer</text>
<text text-anchor="middle" x="502.5" y="-18" font-family="Helvetica,sans-Serif" font-size="10.00">Tasks::InitTask</text>
</a>
</g>
</g>
<!-- Node2 -->
<g id="Node000002" class="node">
<title>Node2</title>
<g id="a_Node000002"><a xlink:href="classDynExpInstr_1_1gRPCInstrumentTasks_1_1InitTask.html" target="_top" xlink:title=" ">
<polygon fill="white" stroke="#666666" points="372,-52 164,-52 164,0 372,0 372,-52"/>
<text text-anchor="start" x="172" y="-40" font-family="Helvetica,sans-Serif" font-size="10.00">DynExpInstr::gRPCInstrument</text>
<text text-anchor="start" x="172" y="-29" font-family="Helvetica,sans-Serif" font-size="10.00">Tasks::InitTask&lt; Spectrometer,</text>
<text text-anchor="start" x="172" y="-18" font-family="Helvetica,sans-Serif" font-size="10.00"> 0, DynExpProto::NetworkSpectrometer</text>
<text text-anchor="middle" x="268" y="-7" font-family="Helvetica,sans-Serif" font-size="10.00">::NetworkSpectrometer &gt;</text>
</a>
</g>
</g>
<!-- Node2&#45;&gt;Node1 -->
<g id="edge1_Node000001_Node000002" class="edge">
<title>Node2&#45;&gt;Node1</title>
<g id="a_edge1_Node000001_Node000002"><a xlink:title=" ">
<path fill="none" stroke="#63b8ff" d="M382.57,-26C390.97,-26 399.4,-26 407.67,-26"/>
<polygon fill="#63b8ff" stroke="#63b8ff" points="382.33,-22.5 372.33,-26 382.33,-29.5 382.33,-22.5"/>
</a>
</g>
</g>
<!-- Node3 -->
<g id="Node000003" class="node">
<title>Node3</title>
<g id="a_Node000003"><a xlink:title=" ">
<polygon fill="white" stroke="#666666" points="128,-35.5 0,-35.5 0,-16.5 128,-16.5 128,-35.5"/>
<text text-anchor="middle" x="64" y="-23.5" font-family="Helvetica,sans-Serif" font-size="10.00">BaseInstr::InitTaskType</text>
</a>
</g>
</g>
<!-- Node3&#45;&gt;Node2 -->
<g id="edge2_Node000002_Node000003" class="edge">
<title>Node3&#45;&gt;Node2</title>
<g id="a_edge2_Node000002_Node000003"><a xlink:title=" ">
<path fill="none" stroke="#63b8ff" d="M138.09,-26C146.42,-26 155.03,-26 163.65,-26"/>
<polygon fill="#63b8ff" stroke="#63b8ff" points="138.08,-22.5 128.08,-26 138.08,-29.5 138.08,-22.5"/>
</a>
</g>
</g>
</g>
</svg>
