<?xml version="1.0" encoding="UTF-8" standalone="no"?>
<!DOCTYPE svg PUBLIC "-//W3C//DTD SVG 1.1//EN"
 "http://www.w3.org/Graphics/SVG/1.1/DTD/svg11.dtd">
<!-- Generated by graphviz version 2.43.0 (0)
 -->
<!-- Title: DynExpInstr::ZI_MFLITasks::ForceTriggerTask Pages: 1 -->
<svg width="280pt" height="104pt"
 viewBox="0.00 0.00 279.50 104.00" xmlns="http://www.w3.org/2000/svg" xmlns:xlink="http://www.w3.org/1999/xlink">
<g id="graph0" class="graph" transform="scale(1 1) rotate(0) translate(4 100)">
<title>DynExpInstr::ZI_MFLITasks::ForceTriggerTask</title>
<!-- Node1 -->
<g id="Node000001" class="node">
<title>Node1</title>
<g id="a_Node000001"><a xlink:title=" ">
<polygon fill="#999999" stroke="#666666" points="198.5,-30 51.5,-30 51.5,0 198.5,0 198.5,-30"/>
<text text-anchor="start" x="59.5" y="-18" font-family="Helvetica,sans-Serif" font-size="10.00">DynExpInstr::ZI_MFLITasks</text>
<text text-anchor="middle" x="125" y="-7" font-family="Helvetica,sans-Serif" font-size="10.00">::ForceTriggerTask</text>
</a>
</g>
</g>
<!-- Node2 -->
<g id="Node000002" class="node">
<title>Node2</title>
<g id="a_Node000002"><a xlink:href="classDynExp_1_1TaskBase.html" target="_top" xlink:title="Base class for all tasks being processed by instruments. The class must not contain public virtual fu...">
<polygon fill="white" stroke="#666666" points="106,-90.5 0,-90.5 0,-71.5 106,-71.5 106,-90.5"/>
<text text-anchor="middle" x="53" y="-78.5" font-family="Helvetica,sans-Serif" font-size="10.00">DynExp::TaskBase</text>
</a>
</g>
</g>
<!-- Node2&#45;&gt;Node1 -->
<g id="edge1_Node000001_Node000002" class="edge">
<title>Node2&#45;&gt;Node1</title>
<g id="a_edge1_Node000001_Node000002"><a xlink:title=" ">
<path fill="none" stroke="#63b8ff" d="M70.2,-64.71C82.02,-54.21 97.59,-40.36 109.12,-30.12"/>
<polygon fill="#63b8ff" stroke="#63b8ff" points="67.86,-62.11 62.71,-71.37 72.51,-67.34 67.86,-62.11"/>
</a>
</g>
</g>
<!-- Node3 -->
<g id="Node000003" class="node">
<title>Node3</title>
<g id="a_Node000003"><a xlink:href="classDynExpInstr_1_1ZI__MFLITasks_1_1ZI__MFLITaskBase.html" target="_top" xlink:title=" ">
<polygon fill="white" stroke="#666666" points="271.5,-96 124.5,-96 124.5,-66 271.5,-66 271.5,-96"/>
<text text-anchor="start" x="132.5" y="-84" font-family="Helvetica,sans-Serif" font-size="10.00">DynExpInstr::ZI_MFLITasks</text>
<text text-anchor="middle" x="198" y="-73" font-family="Helvetica,sans-Serif" font-size="10.00">::ZI_MFLITaskBase</text>
</a>
</g>
</g>
<!-- Node3&#45;&gt;Node1 -->
<g id="edge2_Node000001_Node000003" class="edge">
<title>Node3&#45;&gt;Node1</title>
<g id="a_edge2_Node000001_Node000003"><a xlink:title=" ">
<path fill="none" stroke="#8b1a1a" d="M174.28,-59.2C163.44,-49.7 150.88,-38.69 141.16,-30.16"/>
<polygon fill="#8b1a1a" stroke="#8b1a1a" points="171.97,-61.84 181.8,-65.8 176.59,-56.57 171.97,-61.84"/>
</a>
</g>
</g>
</g>
</svg>
