<?xml version="1.0" encoding="UTF-8" standalone="no"?>
<!DOCTYPE svg PUBLIC "-//W3C//DTD SVG 1.1//EN"
 "http://www.w3.org/Graphics/SVG/1.1/DTD/svg11.dtd">
<!-- Generated by graphviz version 2.43.0 (0)
 -->
<!-- Title: DynExpModule::NetworkDataStreamInstrumentParams&lt; gRPCServices &gt; Pages: 1 -->
<svg width="181pt" height="408pt"
 viewBox="0.00 0.00 181.00 408.00" xmlns="http://www.w3.org/2000/svg" xmlns:xlink="http://www.w3.org/1999/xlink">
<g id="graph0" class="graph" transform="scale(1 1) rotate(0) translate(4 404)">
<title>DynExpModule::NetworkDataStreamInstrumentParams&lt; gRPCServices &gt;</title>
<polygon fill="white" stroke="transparent" points="-4,4 -4,-404 177,-404 177,4 -4,4"/>
<!-- Node1 -->
<g id="node1" class="node">
<title>Node1</title>
<g id="a_node1"><a xlink:title=" ">
<polygon fill="#bfbfbf" stroke="black" points="6,-0.5 6,-41.5 167,-41.5 167,-0.5 6,-0.5"/>
<text text-anchor="start" x="14" y="-29.5" font-family="Helvetica,sans-Serif" font-size="10.00">DynExpModule::NetworkData</text>
<text text-anchor="start" x="14" y="-18.5" font-family="Helvetica,sans-Serif" font-size="10.00">StreamInstrumentParams</text>
<text text-anchor="middle" x="86.5" y="-7.5" font-family="Helvetica,sans-Serif" font-size="10.00">&lt; gRPCServices &gt;</text>
</a>
</g>
</g>
<!-- Node2 -->
<g id="node2" class="node">
<title>Node2</title>
<g id="a_node2"><a xlink:href="classDynExpModule_1_1gRPCModuleParams.html" target="_top" xlink:title=" ">
<polygon fill="white" stroke="black" points="7.5,-78.5 7.5,-108.5 165.5,-108.5 165.5,-78.5 7.5,-78.5"/>
<text text-anchor="start" x="15.5" y="-96.5" font-family="Helvetica,sans-Serif" font-size="10.00">DynExpModule::gRPCModule</text>
<text text-anchor="middle" x="86.5" y="-85.5" font-family="Helvetica,sans-Serif" font-size="10.00">Params&lt; gRPCServices... &gt;</text>
</a>
</g>
</g>
<!-- Node2&#45;&gt;Node1 -->
<g id="edge1" class="edge">
<title>Node2&#45;&gt;Node1</title>
<path fill="none" stroke="midnightblue" d="M86.5,-67.98C86.5,-59.35 86.5,-49.76 86.5,-41.59"/>
<polygon fill="midnightblue" stroke="midnightblue" points="83,-68.23 86.5,-78.23 90,-68.23 83,-68.23"/>
</g>
<!-- Node3 -->
<g id="node3" class="node">
<title>Node3</title>
<g id="a_node3"><a xlink:href="classDynExp_1_1ModuleParamsBase.html" target="_top" xlink:title="Parameter class for ModuleBase.">
<polygon fill="white" stroke="black" points="8.5,-145.5 8.5,-164.5 164.5,-164.5 164.5,-145.5 8.5,-145.5"/>
<text text-anchor="middle" x="86.5" y="-152.5" font-family="Helvetica,sans-Serif" font-size="10.00">DynExp::ModuleParamsBase</text>
</a>
</g>
</g>
<!-- Node3&#45;&gt;Node2 -->
<g id="edge2" class="edge">
<title>Node3&#45;&gt;Node2</title>
<path fill="none" stroke="midnightblue" d="M86.5,-135.23C86.5,-126.59 86.5,-116.5 86.5,-108.52"/>
<polygon fill="midnightblue" stroke="midnightblue" points="83,-135.48 86.5,-145.48 90,-135.48 83,-135.48"/>
</g>
<!-- Node4 -->
<g id="node4" class="node">
<title>Node4</title>
<g id="a_node4"><a xlink:href="classDynExp_1_1RunnableObjectParams.html" target="_top" xlink:title="Parameter class for RunnableObject.">
<polygon fill="white" stroke="black" points="0,-201.5 0,-220.5 173,-220.5 173,-201.5 0,-201.5"/>
<text text-anchor="middle" x="86.5" y="-208.5" font-family="Helvetica,sans-Serif" font-size="10.00">DynExp::RunnableObjectParams</text>
</a>
</g>
</g>
<!-- Node4&#45;&gt;Node3 -->
<g id="edge3" class="edge">
<title>Node4&#45;&gt;Node3</title>
<path fill="none" stroke="midnightblue" d="M86.5,-190.8C86.5,-181.91 86.5,-171.78 86.5,-164.75"/>
<polygon fill="midnightblue" stroke="midnightblue" points="83,-191.08 86.5,-201.08 90,-191.08 83,-191.08"/>
</g>
<!-- Node5 -->
<g id="node5" class="node">
<title>Node5</title>
<g id="a_node5"><a xlink:href="classDynExp_1_1ParamsBase.html" target="_top" xlink:title="Abstract base class for object parameter classes. Each class derived from class Object must be accomp...">
<polygon fill="white" stroke="black" points="26.5,-257.5 26.5,-276.5 146.5,-276.5 146.5,-257.5 26.5,-257.5"/>
<text text-anchor="middle" x="86.5" y="-264.5" font-family="Helvetica,sans-Serif" font-size="10.00">DynExp::ParamsBase</text>
</a>
</g>
</g>
<!-- Node5&#45;&gt;Node4 -->
<g id="edge4" class="edge">
<title>Node5&#45;&gt;Node4</title>
<path fill="none" stroke="midnightblue" d="M86.5,-246.8C86.5,-237.91 86.5,-227.78 86.5,-220.75"/>
<polygon fill="midnightblue" stroke="midnightblue" points="83,-247.08 86.5,-257.08 90,-247.08 83,-247.08"/>
</g>
<!-- Node6 -->
<g id="node6" class="node">
<title>Node6</title>
<g id="a_node6"><a xlink:href="classUtil_1_1ISynchronizedPointerLockable.html" target="_top" xlink:title="Interface to allow synchronizing the access to derived classes between different threads by making th...">
<polygon fill="white" stroke="black" points="15,-313.5 15,-343.5 158,-343.5 158,-313.5 15,-313.5"/>
<text text-anchor="start" x="23" y="-331.5" font-family="Helvetica,sans-Serif" font-size="10.00">Util::ISynchronizedPointer</text>
<text text-anchor="middle" x="86.5" y="-320.5" font-family="Helvetica,sans-Serif" font-size="10.00">Lockable</text>
</a>
</g>
</g>
<!-- Node6&#45;&gt;Node5 -->
<g id="edge5" class="edge">
<title>Node6&#45;&gt;Node5</title>
<path fill="none" stroke="midnightblue" d="M86.5,-303.29C86.5,-293.86 86.5,-283.65 86.5,-276.66"/>
<polygon fill="midnightblue" stroke="midnightblue" points="83,-303.4 86.5,-313.4 90,-303.4 83,-303.4"/>
</g>
<!-- Node7 -->
<g id="node7" class="node">
<title>Node7</title>
<g id="a_node7"><a xlink:href="classUtil_1_1INonCopyable.html" target="_top" xlink:title="Interface to delete copy constructor and copy assignment operator and thus make derived classes non&#45;c...">
<polygon fill="white" stroke="black" points="32.5,-380.5 32.5,-399.5 140.5,-399.5 140.5,-380.5 32.5,-380.5"/>
<text text-anchor="middle" x="86.5" y="-387.5" font-family="Helvetica,sans-Serif" font-size="10.00">Util::INonCopyable</text>
</a>
</g>
</g>
<!-- Node7&#45;&gt;Node6 -->
<g id="edge6" class="edge">
<title>Node7&#45;&gt;Node6</title>
<path fill="none" stroke="midnightblue" d="M86.5,-370.23C86.5,-361.59 86.5,-351.5 86.5,-343.52"/>
<polygon fill="midnightblue" stroke="midnightblue" points="83,-370.48 86.5,-380.48 90,-370.48 83,-370.48"/>
</g>
</g>
</svg>
