<?xml version="1.0" encoding="UTF-8" standalone="no"?>
<!DOCTYPE svg PUBLIC "-//W3C//DTD SVG 1.1//EN"
 "http://www.w3.org/Graphics/SVG/1.1/DTD/svg11.dtd">
<!-- Generated by graphviz version 2.43.0 (0)
 -->
<!-- Title: DynExp::InterModuleEventBase Pages: 1 -->
<svg width="785pt" height="746pt"
 viewBox="0.00 0.00 785.00 746.00" xmlns="http://www.w3.org/2000/svg" xmlns:xlink="http://www.w3.org/1999/xlink">
<g id="graph0" class="graph" transform="scale(1 1) rotate(0) translate(4 742)">
<title>DynExp::InterModuleEventBase</title>
<!-- Node1 -->
<g id="Node000001" class="node">
<title>Node1</title>
<g id="a_Node000001"><a xlink:title="Common base class for all inter&#45;module events.">
<polygon fill="#999999" stroke="#666666" points="318,-366.5 148,-366.5 148,-347.5 318,-347.5 318,-366.5"/>
<text text-anchor="middle" x="233" y="-354.5" font-family="Helvetica,sans-Serif" font-size="10.00">DynExp::InterModuleEventBase</text>
</a>
</g>
</g>
<!-- Node3 -->
<g id="Node000003" class="node">
<title>Node3</title>
<g id="a_Node000003"><a xlink:href="classDynExp_1_1InterModuleEvent.html" target="_top" xlink:title=" ">
<polygon fill="white" stroke="#666666" points="528,-738 382,-738 382,-708 528,-708 528,-738"/>
<text text-anchor="start" x="390" y="-726" font-family="Helvetica,sans-Serif" font-size="10.00">DynExp::InterModuleEvent</text>
<text text-anchor="middle" x="455" y="-715" font-family="Helvetica,sans-Serif" font-size="10.00">&lt; FinishedEvent &gt;</text>
</a>
</g>
</g>
<!-- Node1&#45;&gt;Node3 -->
<g id="edge2_Node000001_Node000003" class="edge">
<title>Node1&#45;&gt;Node3</title>
<g id="a_edge2_Node000001_Node000003"><a xlink:title=" ">
<path fill="none" stroke="#63b8ff" d="M234.69,-376.79C237.85,-435.49 255.49,-610.05 354,-699 361.95,-706.18 371.67,-711.31 381.89,-714.96"/>
<polygon fill="#63b8ff" stroke="#63b8ff" points="238.18,-376.49 234.23,-366.66 231.19,-376.8 238.18,-376.49"/>
</a>
</g>
</g>
<!-- Node5 -->
<g id="Node000005" class="node">
<title>Node5</title>
<g id="a_Node000005"><a xlink:href="classDynExp_1_1InterModuleEvent.html" target="_top" xlink:title=" ">
<polygon fill="white" stroke="#666666" points="528,-690 382,-690 382,-660 528,-660 528,-690"/>
<text text-anchor="start" x="390" y="-678" font-family="Helvetica,sans-Serif" font-size="10.00">DynExp::InterModuleEvent</text>
<text text-anchor="middle" x="455" y="-667" font-family="Helvetica,sans-Serif" font-size="10.00">&lt; AutofocusEvent, bool &gt;</text>
</a>
</g>
</g>
<!-- Node1&#45;&gt;Node5 -->
<g id="edge4_Node000001_Node000005" class="edge">
<title>Node1&#45;&gt;Node5</title>
<g id="a_edge4_Node000001_Node000005"><a xlink:title=" ">
<path fill="none" stroke="#63b8ff" d="M235.96,-376.8C242.32,-429.91 267.29,-576.56 354,-651 362.06,-657.92 371.78,-662.92 381.94,-666.52"/>
<polygon fill="#63b8ff" stroke="#63b8ff" points="239.42,-376.24 234.85,-366.68 232.46,-377 239.42,-376.24"/>
</a>
</g>
</g>
<!-- Node7 -->
<g id="Node000007" class="node">
<title>Node7</title>
<g id="a_Node000007"><a xlink:href="classDynExp_1_1InterModuleEvent.html" target="_top" xlink:title=" ">
<polygon fill="white" stroke="#666666" points="529,-641.5 381,-641.5 381,-600.5 529,-600.5 529,-641.5"/>
<text text-anchor="start" x="389" y="-629.5" font-family="Helvetica,sans-Serif" font-size="10.00">DynExp::InterModuleEvent</text>
<text text-anchor="start" x="389" y="-618.5" font-family="Helvetica,sans-Serif" font-size="10.00">&lt; FinishedAutofocusEvent,</text>
<text text-anchor="middle" x="455" y="-607.5" font-family="Helvetica,sans-Serif" font-size="10.00"> bool, double &gt;</text>
</a>
</g>
</g>
<!-- Node1&#45;&gt;Node7 -->
<g id="edge6_Node000001_Node000007" class="edge">
<title>Node1&#45;&gt;Node7</title>
<g id="a_edge6_Node000001_Node000007"><a xlink:title=" ">
<path fill="none" stroke="#63b8ff" d="M238.48,-376.65C249.73,-421.55 283.48,-532.3 354,-591 361.87,-597.55 371.14,-602.67 380.8,-606.68"/>
<polygon fill="#63b8ff" stroke="#63b8ff" points="241.83,-375.63 236.09,-366.73 235.02,-377.27 241.83,-375.63"/>
</a>
</g>
</g>
<!-- Node9 -->
<g id="Node000009" class="node">
<title>Node9</title>
<g id="a_Node000009"><a xlink:href="classDynExp_1_1InterModuleEvent.html" target="_top" xlink:title=" ">
<polygon fill="white" stroke="#666666" points="544.5,-582 365.5,-582 365.5,-552 544.5,-552 544.5,-582"/>
<text text-anchor="start" x="373.5" y="-570" font-family="Helvetica,sans-Serif" font-size="10.00">DynExp::InterModuleEvent</text>
<text text-anchor="middle" x="455" y="-559" font-family="Helvetica,sans-Serif" font-size="10.00">&lt; ImageCapturingPausedEvent &gt;</text>
</a>
</g>
</g>
<!-- Node1&#45;&gt;Node9 -->
<g id="edge8_Node000001_Node000009" class="edge">
<title>Node1&#45;&gt;Node9</title>
<g id="a_edge8_Node000001_Node000009"><a xlink:title=" ">
<path fill="none" stroke="#63b8ff" d="M240.83,-376.4C255.33,-414.62 292.94,-499.71 354,-543 358.81,-546.41 364.04,-549.34 369.5,-551.85"/>
<polygon fill="#63b8ff" stroke="#63b8ff" points="243.94,-374.72 237.21,-366.54 237.37,-377.13 243.94,-374.72"/>
</a>
</g>
</g>
<!-- Node11 -->
<g id="Node000011" class="node">
<title>Node11</title>
<g id="a_Node000011"><a xlink:href="classDynExp_1_1InterModuleEvent.html" target="_top" xlink:title=" ">
<polygon fill="white" stroke="#666666" points="550.5,-534 359.5,-534 359.5,-504 550.5,-504 550.5,-534"/>
<text text-anchor="start" x="367.5" y="-522" font-family="Helvetica,sans-Serif" font-size="10.00">DynExp::InterModuleEvent</text>
<text text-anchor="middle" x="455" y="-511" font-family="Helvetica,sans-Serif" font-size="10.00">&lt; ImageCapturingResumedEvent &gt;</text>
</a>
</g>
</g>
<!-- Node1&#45;&gt;Node11 -->
<g id="edge10_Node000001_Node000011" class="edge">
<title>Node1&#45;&gt;Node11</title>
<g id="a_edge10_Node000001_Node000011"><a xlink:title=" ">
<path fill="none" stroke="#63b8ff" d="M244.72,-375.5C263.09,-405.47 303.54,-464.39 354,-495 359.72,-498.47 365.92,-501.44 372.32,-503.98"/>
<polygon fill="#63b8ff" stroke="#63b8ff" points="247.68,-373.64 239.55,-366.85 241.68,-377.23 247.68,-373.64"/>
</a>
</g>
</g>
<!-- Node13 -->
<g id="Node000013" class="node">
<title>Node13</title>
<g id="a_Node000013"><a xlink:href="classDynExp_1_1InterModuleEvent.html" target="_top" xlink:title=" ">
<polygon fill="white" stroke="#666666" points="537.5,-485.5 372.5,-485.5 372.5,-444.5 537.5,-444.5 537.5,-485.5"/>
<text text-anchor="start" x="380.5" y="-473.5" font-family="Helvetica,sans-Serif" font-size="10.00">DynExp::InterModuleEvent</text>
<text text-anchor="start" x="380.5" y="-462.5" font-family="Helvetica,sans-Serif" font-size="10.00">&lt; PauseImageCapturingEvent,</text>
<text text-anchor="middle" x="455" y="-451.5" font-family="Helvetica,sans-Serif" font-size="10.00"> bool &gt;</text>
</a>
</g>
</g>
<!-- Node1&#45;&gt;Node13 -->
<g id="edge12_Node000001_Node000013" class="edge">
<title>Node1&#45;&gt;Node13</title>
<g id="a_edge12_Node000001_Node000013"><a xlink:title=" ">
<path fill="none" stroke="#63b8ff" d="M254.27,-372.77C277.32,-390.07 316.62,-417.68 354,-435 361.4,-438.43 369.29,-441.58 377.27,-444.44"/>
<polygon fill="#63b8ff" stroke="#63b8ff" points="256.34,-369.95 246.27,-366.69 252.11,-375.53 256.34,-369.95"/>
</a>
</g>
</g>
<!-- Node15 -->
<g id="Node000015" class="node">
<title>Node15</title>
<g id="a_Node000015"><a xlink:href="classDynExp_1_1InterModuleEvent.html" target="_top" xlink:title=" ">
<polygon fill="white" stroke="#666666" points="547.5,-426 362.5,-426 362.5,-396 547.5,-396 547.5,-426"/>
<text text-anchor="start" x="370.5" y="-414" font-family="Helvetica,sans-Serif" font-size="10.00">DynExp::InterModuleEvent</text>
<text text-anchor="middle" x="455" y="-403" font-family="Helvetica,sans-Serif" font-size="10.00">&lt; ResumeImageCapturingEvent &gt;</text>
</a>
</g>
</g>
<!-- Node1&#45;&gt;Node15 -->
<g id="edge14_Node000001_Node000015" class="edge">
<title>Node1&#45;&gt;Node15</title>
<g id="a_edge14_Node000001_Node000015"><a xlink:title=" ">
<path fill="none" stroke="#63b8ff" d="M282.96,-369.02C315.35,-376.97 358.08,-387.46 392.73,-395.96"/>
<polygon fill="#63b8ff" stroke="#63b8ff" points="283.37,-365.51 272.83,-366.53 281.7,-372.31 283.37,-365.51"/>
</a>
</g>
</g>
<!-- Node17 -->
<g id="Node000017" class="node">
<title>Node17</title>
<g id="a_Node000017"><a xlink:href="classDynExp_1_1InterModuleEvent.html" target="_top" xlink:title=" ">
<polygon fill="white" stroke="#666666" points="528,-377.5 382,-377.5 382,-336.5 528,-336.5 528,-377.5"/>
<text text-anchor="start" x="390" y="-365.5" font-family="Helvetica,sans-Serif" font-size="10.00">DynExp::InterModuleEvent</text>
<text text-anchor="start" x="390" y="-354.5" font-family="Helvetica,sans-Serif" font-size="10.00">&lt; SetFilenameEvent, std</text>
<text text-anchor="middle" x="455" y="-343.5" font-family="Helvetica,sans-Serif" font-size="10.00">::string &gt;</text>
</a>
</g>
</g>
<!-- Node1&#45;&gt;Node17 -->
<g id="edge16_Node000001_Node000017" class="edge">
<title>Node1&#45;&gt;Node17</title>
<g id="a_edge16_Node000001_Node000017"><a xlink:title=" ">
<path fill="none" stroke="#63b8ff" d="M328.29,-357C346.2,-357 364.68,-357 381.77,-357"/>
<polygon fill="#63b8ff" stroke="#63b8ff" points="328.11,-353.5 318.11,-357 328.11,-360.5 328.11,-353.5"/>
</a>
</g>
</g>
<!-- Node19 -->
<g id="Node000019" class="node">
<title>Node19</title>
<g id="a_Node000019"><a xlink:href="classDynExp_1_1InterModuleEvent.html" target="_top" xlink:title=" ">
<polygon fill="white" stroke="#666666" points="550.5,-318 359.5,-318 359.5,-288 550.5,-288 550.5,-318"/>
<text text-anchor="start" x="367.5" y="-306" font-family="Helvetica,sans-Serif" font-size="10.00">DynExp::InterModuleEvent</text>
<text text-anchor="middle" x="455" y="-295" font-family="Helvetica,sans-Serif" font-size="10.00">&lt; PauseSpectrumRecordingEvent &gt;</text>
</a>
</g>
</g>
<!-- Node1&#45;&gt;Node19 -->
<g id="edge18_Node000001_Node000019" class="edge">
<title>Node1&#45;&gt;Node19</title>
<g id="a_edge18_Node000001_Node000019"><a xlink:title=" ">
<path fill="none" stroke="#63b8ff" d="M281.59,-344.99C303.61,-339.47 330.12,-332.85 354,-327 365.97,-324.07 378.75,-320.97 391.03,-318.02"/>
<polygon fill="#63b8ff" stroke="#63b8ff" points="280.66,-341.62 271.81,-347.45 282.36,-348.41 280.66,-341.62"/>
</a>
</g>
</g>
<!-- Node21 -->
<g id="Node000021" class="node">
<title>Node21</title>
<g id="a_Node000021"><a xlink:href="classDynExp_1_1InterModuleEvent.html" target="_top" xlink:title=" ">
<polygon fill="white" stroke="#666666" points="556,-270 354,-270 354,-240 556,-240 556,-270"/>
<text text-anchor="start" x="362" y="-258" font-family="Helvetica,sans-Serif" font-size="10.00">DynExp::InterModuleEvent</text>
<text text-anchor="middle" x="455" y="-247" font-family="Helvetica,sans-Serif" font-size="10.00">&lt; ResumeSpectrumRecordingEvent &gt;</text>
</a>
</g>
</g>
<!-- Node1&#45;&gt;Node21 -->
<g id="edge20_Node000001_Node000021" class="edge">
<title>Node1&#45;&gt;Node21</title>
<g id="a_edge20_Node000001_Node000021"><a xlink:title=" ">
<path fill="none" stroke="#63b8ff" d="M253.73,-341.12C276.57,-323.49 315.94,-295.36 354,-279 361.96,-275.58 370.49,-272.6 379.09,-270"/>
<polygon fill="#63b8ff" stroke="#63b8ff" points="251.53,-338.39 245.82,-347.32 255.85,-343.9 251.53,-338.39"/>
</a>
</g>
</g>
<!-- Node23 -->
<g id="Node000023" class="node">
<title>Node23</title>
<g id="a_Node000023"><a xlink:href="classDynExp_1_1InterModuleEvent.html" target="_top" xlink:title=" ">
<polygon fill="white" stroke="#666666" points="537,-222 373,-222 373,-192 537,-192 537,-222"/>
<text text-anchor="start" x="381" y="-210" font-family="Helvetica,sans-Serif" font-size="10.00">DynExp::InterModuleEvent</text>
<text text-anchor="middle" x="455" y="-199" font-family="Helvetica,sans-Serif" font-size="10.00">&lt; SetSilentModeEvent, bool &gt;</text>
</a>
</g>
</g>
<!-- Node1&#45;&gt;Node23 -->
<g id="edge22_Node000001_Node000023" class="edge">
<title>Node1&#45;&gt;Node23</title>
<g id="a_edge22_Node000001_Node000023"><a xlink:title=" ">
<path fill="none" stroke="#63b8ff" d="M245.93,-338.97C265.24,-311.29 306.03,-258.64 354,-231 360.03,-227.52 366.55,-224.55 373.26,-222.01"/>
<polygon fill="#63b8ff" stroke="#63b8ff" points="242.98,-337.09 240.23,-347.32 248.76,-341.04 242.98,-337.09"/>
</a>
</g>
</g>
<!-- Node25 -->
<g id="Node000025" class="node">
<title>Node25</title>
<g id="a_Node000025"><a xlink:href="classDynExp_1_1InterModuleEvent.html" target="_top" xlink:title=" ">
<polygon fill="white" stroke="#666666" points="528,-174 382,-174 382,-144 528,-144 528,-174"/>
<text text-anchor="start" x="390" y="-162" font-family="Helvetica,sans-Serif" font-size="10.00">DynExp::InterModuleEvent</text>
<text text-anchor="middle" x="455" y="-151" font-family="Helvetica,sans-Serif" font-size="10.00">&lt; StartEvent &gt;</text>
</a>
</g>
</g>
<!-- Node1&#45;&gt;Node25 -->
<g id="edge24_Node000001_Node000025" class="edge">
<title>Node1&#45;&gt;Node25</title>
<g id="a_edge24_Node000001_Node000025"><a xlink:title=" ">
<path fill="none" stroke="#63b8ff" d="M241.63,-337.83C257.07,-301.58 295.61,-223.06 354,-183 362.39,-177.24 372,-172.86 381.88,-169.52"/>
<polygon fill="#63b8ff" stroke="#63b8ff" points="238.32,-336.67 237.73,-347.25 244.79,-339.34 238.32,-336.67"/>
</a>
</g>
</g>
<!-- Node27 -->
<g id="Node000027" class="node">
<title>Node27</title>
<g id="a_Node000027"><a xlink:href="classDynExp_1_1InterModuleEvent.html" target="_top" xlink:title=" ">
<polygon fill="white" stroke="#666666" points="528,-126 382,-126 382,-96 528,-96 528,-126"/>
<text text-anchor="start" x="390" y="-114" font-family="Helvetica,sans-Serif" font-size="10.00">DynExp::InterModuleEvent</text>
<text text-anchor="middle" x="455" y="-103" font-family="Helvetica,sans-Serif" font-size="10.00">&lt; StopEvent &gt;</text>
</a>
</g>
</g>
<!-- Node1&#45;&gt;Node27 -->
<g id="edge26_Node000001_Node000027" class="edge">
<title>Node1&#45;&gt;Node27</title>
<g id="a_edge26_Node000001_Node000027"><a xlink:title=" ">
<path fill="none" stroke="#63b8ff" d="M238.81,-337.2C250.49,-293.47 284.66,-188.3 354,-135 362.21,-128.69 371.83,-124.01 381.81,-120.54"/>
<polygon fill="#63b8ff" stroke="#63b8ff" points="235.35,-336.59 236.26,-347.15 242.13,-338.33 235.35,-336.59"/>
</a>
</g>
</g>
<!-- Node29 -->
<g id="Node000029" class="node">
<title>Node29</title>
<g id="a_Node000029"><a xlink:href="classDynExp_1_1InterModuleEvent.html" target="_top" xlink:title=" ">
<polygon fill="white" stroke="#666666" points="528,-78 382,-78 382,-48 528,-48 528,-78"/>
<text text-anchor="start" x="390" y="-66" font-family="Helvetica,sans-Serif" font-size="10.00">DynExp::InterModuleEvent</text>
<text text-anchor="middle" x="455" y="-55" font-family="Helvetica,sans-Serif" font-size="10.00">&lt; TriggerEvent &gt;</text>
</a>
</g>
</g>
<!-- Node1&#45;&gt;Node29 -->
<g id="edge28_Node000001_Node000029" class="edge">
<title>Node1&#45;&gt;Node29</title>
<g id="a_edge28_Node000001_Node000029"><a xlink:title=" ">
<path fill="none" stroke="#63b8ff" d="M236.76,-337.15C244.84,-286.98 273.16,-154.27 354,-87 362.1,-80.26 371.77,-75.35 381.87,-71.79"/>
<polygon fill="#63b8ff" stroke="#63b8ff" points="233.26,-336.9 235.23,-347.31 240.18,-337.94 233.26,-336.9"/>
</a>
</g>
</g>
<!-- Node31 -->
<g id="Node000031" class="node">
<title>Node31</title>
<g id="a_Node000031"><a xlink:href="classDynExp_1_1InterModuleEvent.html" target="_top" xlink:title="Typed base class for inter&#45;module events to realize CRTP.">
<polygon fill="white" stroke="#666666" points="546.5,-30 363.5,-30 363.5,0 546.5,0 546.5,-30"/>
<text text-anchor="start" x="371.5" y="-18" font-family="Helvetica,sans-Serif" font-size="10.00">DynExp::InterModuleEvent</text>
<text text-anchor="middle" x="455" y="-7" font-family="Helvetica,sans-Serif" font-size="10.00">&lt; DerivedEvent, EventFuncArgs &gt;</text>
</a>
</g>
</g>
<!-- Node1&#45;&gt;Node31 -->
<g id="edge30_Node000001_Node000031" class="edge">
<title>Node1&#45;&gt;Node31</title>
<g id="a_edge30_Node000001_Node000031"><a xlink:title=" ">
<path fill="none" stroke="#63b8ff" d="M235.29,-337.13C240.03,-281.1 261.45,-120.62 354,-39 357.88,-35.58 362.17,-32.62 366.72,-30.07"/>
<polygon fill="#63b8ff" stroke="#63b8ff" points="231.77,-337.2 234.51,-347.43 238.75,-337.73 231.77,-337.2"/>
</a>
</g>
</g>
<!-- Node2 -->
<g id="Node000002" class="node">
<title>Node2</title>
<g id="a_Node000002"><a xlink:href="classDynExp_1_1EventBase.html" target="_top" xlink:title="Common base class for all events to store them in a FIFO queue to be invoked later.">
<polygon fill="white" stroke="#666666" points="112,-366.5 0,-366.5 0,-347.5 112,-347.5 112,-366.5"/>
<text text-anchor="middle" x="56" y="-354.5" font-family="Helvetica,sans-Serif" font-size="10.00">DynExp::EventBase</text>
</a>
</g>
</g>
<!-- Node2&#45;&gt;Node1 -->
<g id="edge1_Node000001_Node000002" class="edge">
<title>Node2&#45;&gt;Node1</title>
<g id="a_edge1_Node000001_Node000002"><a xlink:title=" ">
<path fill="none" stroke="#63b8ff" d="M122.64,-357C130.89,-357 139.42,-357 147.9,-357"/>
<polygon fill="#63b8ff" stroke="#63b8ff" points="122.37,-353.5 112.37,-357 122.37,-360.5 122.37,-353.5"/>
</a>
</g>
</g>
<!-- Node4 -->
<g id="Node000004" class="node">
<title>Node4</title>
<g id="a_Node000004"><a xlink:href="classDynExpModule_1_1FinishedEvent.html" target="_top" xlink:title="This event signals that an action (like a measurement) started by a TriggerEvent has been completed.">
<polygon fill="white" stroke="#666666" points="766.5,-732.5 602.5,-732.5 602.5,-713.5 766.5,-713.5 766.5,-732.5"/>
<text text-anchor="middle" x="684.5" y="-720.5" font-family="Helvetica,sans-Serif" font-size="10.00">DynExpModule::FinishedEvent</text>
</a>
</g>
</g>
<!-- Node3&#45;&gt;Node4 -->
<g id="edge3_Node000003_Node000004" class="edge">
<title>Node3&#45;&gt;Node4</title>
<g id="a_edge3_Node000003_Node000004"><a xlink:title=" ">
<path fill="none" stroke="#63b8ff" d="M538.38,-723C559.2,-723 581.54,-723 602.3,-723"/>
<polygon fill="#63b8ff" stroke="#63b8ff" points="538.3,-719.5 528.3,-723 538.29,-726.5 538.3,-719.5"/>
</a>
</g>
</g>
<!-- Node6 -->
<g id="Node000006" class="node">
<title>Node6</title>
<g id="a_Node000006"><a xlink:href="classDynExpModule_1_1ImageViewer_1_1AutofocusEvent.html" target="_top" xlink:title=" ">
<polygon fill="white" stroke="#666666" points="765,-690 604,-690 604,-660 765,-660 765,-690"/>
<text text-anchor="start" x="612" y="-678" font-family="Helvetica,sans-Serif" font-size="10.00">DynExpModule::ImageViewer</text>
<text text-anchor="middle" x="684.5" y="-667" font-family="Helvetica,sans-Serif" font-size="10.00">::AutofocusEvent</text>
</a>
</g>
</g>
<!-- Node5&#45;&gt;Node6 -->
<g id="edge5_Node000005_Node000006" class="edge">
<title>Node5&#45;&gt;Node6</title>
<g id="a_edge5_Node000005_Node000006"><a xlink:title=" ">
<path fill="none" stroke="#63b8ff" d="M538.32,-675C559.69,-675 582.67,-675 603.9,-675"/>
<polygon fill="#63b8ff" stroke="#63b8ff" points="538.3,-671.5 528.3,-675 538.29,-678.5 538.3,-671.5"/>
</a>
</g>
</g>
<!-- Node8 -->
<g id="Node000008" class="node">
<title>Node8</title>
<g id="a_Node000008"><a xlink:href="classDynExpModule_1_1ImageViewer_1_1FinishedAutofocusEvent.html" target="_top" xlink:title=" ">
<polygon fill="white" stroke="#666666" points="765,-636 604,-636 604,-606 765,-606 765,-636"/>
<text text-anchor="start" x="612" y="-624" font-family="Helvetica,sans-Serif" font-size="10.00">DynExpModule::ImageViewer</text>
<text text-anchor="middle" x="684.5" y="-613" font-family="Helvetica,sans-Serif" font-size="10.00">::FinishedAutofocusEvent</text>
</a>
</g>
</g>
<!-- Node7&#45;&gt;Node8 -->
<g id="edge7_Node000007_Node000008" class="edge">
<title>Node7&#45;&gt;Node8</title>
<g id="a_edge7_Node000007_Node000008"><a xlink:title=" ">
<path fill="none" stroke="#63b8ff" d="M539.41,-621C560.41,-621 582.9,-621 603.71,-621"/>
<polygon fill="#63b8ff" stroke="#63b8ff" points="539.23,-617.5 529.23,-621 539.23,-624.5 539.23,-617.5"/>
</a>
</g>
</g>
<!-- Node10 -->
<g id="Node000010" class="node">
<title>Node10</title>
<g id="a_Node000010"><a xlink:href="classDynExpModule_1_1ImageViewer_1_1ImageCapturingPausedEvent.html" target="_top" xlink:title=" ">
<polygon fill="white" stroke="#666666" points="766,-582 603,-582 603,-552 766,-552 766,-582"/>
<text text-anchor="start" x="611" y="-570" font-family="Helvetica,sans-Serif" font-size="10.00">DynExpModule::ImageViewer</text>
<text text-anchor="middle" x="684.5" y="-559" font-family="Helvetica,sans-Serif" font-size="10.00">::ImageCapturingPausedEvent</text>
</a>
</g>
</g>
<!-- Node9&#45;&gt;Node10 -->
<g id="edge9_Node000009_Node000010" class="edge">
<title>Node9&#45;&gt;Node10</title>
<g id="a_edge9_Node000009_Node000010"><a xlink:title=" ">
<path fill="none" stroke="#63b8ff" d="M555.05,-567C571.05,-567 587.44,-567 602.93,-567"/>
<polygon fill="#63b8ff" stroke="#63b8ff" points="554.61,-563.5 544.61,-567 554.61,-570.5 554.61,-563.5"/>
</a>
</g>
</g>
<!-- Node12 -->
<g id="Node000012" class="node">
<title>Node12</title>
<g id="a_Node000012"><a xlink:href="classDynExpModule_1_1ImageViewer_1_1ImageCapturingResumedEvent.html" target="_top" xlink:title=" ">
<polygon fill="white" stroke="#666666" points="771.5,-534 597.5,-534 597.5,-504 771.5,-504 771.5,-534"/>
<text text-anchor="start" x="605.5" y="-522" font-family="Helvetica,sans-Serif" font-size="10.00">DynExpModule::ImageViewer</text>
<text text-anchor="middle" x="684.5" y="-511" font-family="Helvetica,sans-Serif" font-size="10.00">::ImageCapturingResumedEvent</text>
</a>
</g>
</g>
<!-- Node11&#45;&gt;Node12 -->
<g id="edge11_Node000011_Node000012" class="edge">
<title>Node11&#45;&gt;Node12</title>
<g id="a_edge11_Node000011_Node000012"><a xlink:title=" ">
<path fill="none" stroke="#63b8ff" d="M560.74,-519C572.97,-519 585.35,-519 597.29,-519"/>
<polygon fill="#63b8ff" stroke="#63b8ff" points="560.5,-515.5 550.5,-519 560.5,-522.5 560.5,-515.5"/>
</a>
</g>
</g>
<!-- Node14 -->
<g id="Node000014" class="node">
<title>Node14</title>
<g id="a_Node000014"><a xlink:href="classDynExpModule_1_1ImageViewer_1_1PauseImageCapturingEvent.html" target="_top" xlink:title=" ">
<polygon fill="white" stroke="#666666" points="765,-480 604,-480 604,-450 765,-450 765,-480"/>
<text text-anchor="start" x="612" y="-468" font-family="Helvetica,sans-Serif" font-size="10.00">DynExpModule::ImageViewer</text>
<text text-anchor="middle" x="684.5" y="-457" font-family="Helvetica,sans-Serif" font-size="10.00">::PauseImageCapturingEvent</text>
</a>
</g>
</g>
<!-- Node13&#45;&gt;Node14 -->
<g id="edge13_Node000013_Node000014" class="edge">
<title>Node13&#45;&gt;Node14</title>
<g id="a_edge13_Node000013_Node000014"><a xlink:title=" ">
<path fill="none" stroke="#63b8ff" d="M548.01,-465C566.54,-465 585.87,-465 603.94,-465"/>
<polygon fill="#63b8ff" stroke="#63b8ff" points="547.81,-461.5 537.81,-465 547.81,-468.5 547.81,-461.5"/>
</a>
</g>
</g>
<!-- Node16 -->
<g id="Node000016" class="node">
<title>Node16</title>
<g id="a_Node000016"><a xlink:href="classDynExpModule_1_1ImageViewer_1_1ResumeImageCapturingEvent.html" target="_top" xlink:title=" ">
<polygon fill="white" stroke="#666666" points="768.5,-426 600.5,-426 600.5,-396 768.5,-396 768.5,-426"/>
<text text-anchor="start" x="608.5" y="-414" font-family="Helvetica,sans-Serif" font-size="10.00">DynExpModule::ImageViewer</text>
<text text-anchor="middle" x="684.5" y="-403" font-family="Helvetica,sans-Serif" font-size="10.00">::ResumeImageCapturingEvent</text>
</a>
</g>
</g>
<!-- Node15&#45;&gt;Node16 -->
<g id="edge15_Node000015_Node000016" class="edge">
<title>Node15&#45;&gt;Node16</title>
<g id="a_edge15_Node000015_Node000016"><a xlink:title=" ">
<path fill="none" stroke="#63b8ff" d="M557.82,-411C572,-411 586.44,-411 600.22,-411"/>
<polygon fill="#63b8ff" stroke="#63b8ff" points="557.55,-407.5 547.55,-411 557.55,-414.5 557.55,-407.5"/>
</a>
</g>
</g>
<!-- Node18 -->
<g id="Node000018" class="node">
<title>Node18</title>
<g id="a_Node000018"><a xlink:href="classDynExpModule_1_1SetFilenameEvent.html" target="_top" xlink:title="This event tells the receiver where to store e.g. acquired data.">
<polygon fill="white" stroke="#666666" points="763,-372 606,-372 606,-342 763,-342 763,-372"/>
<text text-anchor="start" x="614" y="-360" font-family="Helvetica,sans-Serif" font-size="10.00">DynExpModule::SetFilename</text>
<text text-anchor="middle" x="684.5" y="-349" font-family="Helvetica,sans-Serif" font-size="10.00">Event</text>
</a>
</g>
</g>
<!-- Node17&#45;&gt;Node18 -->
<g id="edge17_Node000017_Node000018" class="edge">
<title>Node17&#45;&gt;Node18</title>
<g id="a_edge17_Node000017_Node000018"><a xlink:title=" ">
<path fill="none" stroke="#63b8ff" d="M538.59,-357C560.55,-357 584.2,-357 605.88,-357"/>
<polygon fill="#63b8ff" stroke="#63b8ff" points="538.3,-353.5 528.3,-357 538.29,-360.5 538.3,-353.5"/>
</a>
</g>
</g>
<!-- Node20 -->
<g id="Node000020" class="node">
<title>Node20</title>
<g id="a_Node000020"><a xlink:href="classDynExpModule_1_1SpectrumViewer_1_1PauseSpectrumRecordingEvent.html" target="_top" xlink:title=" ">
<polygon fill="white" stroke="#666666" points="772.5,-318 596.5,-318 596.5,-288 772.5,-288 772.5,-318"/>
<text text-anchor="start" x="604.5" y="-306" font-family="Helvetica,sans-Serif" font-size="10.00">DynExpModule::SpectrumViewer</text>
<text text-anchor="middle" x="684.5" y="-295" font-family="Helvetica,sans-Serif" font-size="10.00">::PauseSpectrumRecordingEvent</text>
</a>
</g>
</g>
<!-- Node19&#45;&gt;Node20 -->
<g id="edge19_Node000019_Node000020" class="edge">
<title>Node19&#45;&gt;Node20</title>
<g id="a_edge19_Node000019_Node000020"><a xlink:title=" ">
<path fill="none" stroke="#63b8ff" d="M560.85,-303C572.68,-303 584.64,-303 596.21,-303"/>
<polygon fill="#63b8ff" stroke="#63b8ff" points="560.5,-299.5 550.5,-303 560.5,-306.5 560.5,-299.5"/>
</a>
</g>
</g>
<!-- Node22 -->
<g id="Node000022" class="node">
<title>Node22</title>
<g id="a_Node000022"><a xlink:href="classDynExpModule_1_1SpectrumViewer_1_1ResumeSpectrumRecordingEvent.html" target="_top" xlink:title=" ">
<polygon fill="white" stroke="#666666" points="777,-270 592,-270 592,-240 777,-240 777,-270"/>
<text text-anchor="start" x="600" y="-258" font-family="Helvetica,sans-Serif" font-size="10.00">DynExpModule::SpectrumViewer</text>
<text text-anchor="middle" x="684.5" y="-247" font-family="Helvetica,sans-Serif" font-size="10.00">::ResumeSpectrumRecordingEvent</text>
</a>
</g>
</g>
<!-- Node21&#45;&gt;Node22 -->
<g id="edge21_Node000021_Node000022" class="edge">
<title>Node21&#45;&gt;Node22</title>
<g id="a_edge21_Node000021_Node000022"><a xlink:title=" ">
<path fill="none" stroke="#63b8ff" d="M566.21,-255C574.83,-255 583.48,-255 591.95,-255"/>
<polygon fill="#63b8ff" stroke="#63b8ff" points="566.12,-251.5 556.12,-255 566.12,-258.5 566.12,-251.5"/>
</a>
</g>
</g>
<!-- Node24 -->
<g id="Node000024" class="node">
<title>Node24</title>
<g id="a_Node000024"><a xlink:href="classDynExpModule_1_1SpectrumViewer_1_1SetSilentModeEvent.html" target="_top" xlink:title=" ">
<polygon fill="white" stroke="#666666" points="772.5,-222 596.5,-222 596.5,-192 772.5,-192 772.5,-222"/>
<text text-anchor="start" x="604.5" y="-210" font-family="Helvetica,sans-Serif" font-size="10.00">DynExpModule::SpectrumViewer</text>
<text text-anchor="middle" x="684.5" y="-199" font-family="Helvetica,sans-Serif" font-size="10.00">::SetSilentModeEvent</text>
</a>
</g>
</g>
<!-- Node23&#45;&gt;Node24 -->
<g id="edge23_Node000023_Node000024" class="edge">
<title>Node23&#45;&gt;Node24</title>
<g id="a_edge23_Node000023_Node000024"><a xlink:title=" ">
<path fill="none" stroke="#63b8ff" d="M547.6,-207C563.64,-207 580.28,-207 596.19,-207"/>
<polygon fill="#63b8ff" stroke="#63b8ff" points="547.17,-203.5 537.17,-207 547.17,-210.5 547.17,-203.5"/>
</a>
</g>
</g>
<!-- Node26 -->
<g id="Node000026" class="node">
<title>Node26</title>
<g id="a_Node000026"><a xlink:href="classDynExpModule_1_1StartEvent.html" target="_top" xlink:title="This event is intended to make the receiver prepare an action (like a measurement) that is started wh...">
<polygon fill="white" stroke="#666666" points="758,-168.5 611,-168.5 611,-149.5 758,-149.5 758,-168.5"/>
<text text-anchor="middle" x="684.5" y="-156.5" font-family="Helvetica,sans-Serif" font-size="10.00">DynExpModule::StartEvent</text>
</a>
</g>
</g>
<!-- Node25&#45;&gt;Node26 -->
<g id="edge25_Node000025_Node000026" class="edge">
<title>Node25&#45;&gt;Node26</title>
<g id="a_edge25_Node000025_Node000026"><a xlink:title=" ">
<path fill="none" stroke="#63b8ff" d="M538.3,-159C561.95,-159 587.57,-159 610.61,-159"/>
<polygon fill="#63b8ff" stroke="#63b8ff" points="538.3,-155.5 528.3,-159 538.29,-162.5 538.3,-155.5"/>
</a>
</g>
</g>
<!-- Node28 -->
<g id="Node000028" class="node">
<title>Node28</title>
<g id="a_Node000028"><a xlink:href="classDynExpModule_1_1StopEvent.html" target="_top" xlink:title="This event is intended to make the receiver stop an action (like a measurement).">
<polygon fill="white" stroke="#666666" points="757.5,-120.5 611.5,-120.5 611.5,-101.5 757.5,-101.5 757.5,-120.5"/>
<text text-anchor="middle" x="684.5" y="-108.5" font-family="Helvetica,sans-Serif" font-size="10.00">DynExpModule::StopEvent</text>
</a>
</g>
</g>
<!-- Node27&#45;&gt;Node28 -->
<g id="edge27_Node000027_Node000028" class="edge">
<title>Node27&#45;&gt;Node28</title>
<g id="a_edge27_Node000027_Node000028"><a xlink:title=" ">
<path fill="none" stroke="#63b8ff" d="M538.4,-111C562.29,-111 588.18,-111 611.39,-111"/>
<polygon fill="#63b8ff" stroke="#63b8ff" points="538.3,-107.5 528.3,-111 538.29,-114.5 538.3,-107.5"/>
</a>
</g>
</g>
<!-- Node30 -->
<g id="Node000030" class="node">
<title>Node30</title>
<g id="a_Node000030"><a xlink:href="classDynExpModule_1_1TriggerEvent.html" target="_top" xlink:title="This event is intended to make the receiver start an action (like a measurement) after it received a ...">
<polygon fill="white" stroke="#666666" points="763,-72.5 606,-72.5 606,-53.5 763,-53.5 763,-72.5"/>
<text text-anchor="middle" x="684.5" y="-60.5" font-family="Helvetica,sans-Serif" font-size="10.00">DynExpModule::TriggerEvent</text>
</a>
</g>
</g>
<!-- Node29&#45;&gt;Node30 -->
<g id="edge29_Node000029_Node000030" class="edge">
<title>Node29&#45;&gt;Node30</title>
<g id="a_edge29_Node000029_Node000030"><a xlink:title=" ">
<path fill="none" stroke="#63b8ff" d="M538.59,-63C560.55,-63 584.2,-63 605.88,-63"/>
<polygon fill="#63b8ff" stroke="#63b8ff" points="538.3,-59.5 528.3,-63 538.29,-66.5 538.3,-59.5"/>
</a>
</g>
</g>
</g>
</svg>
