<?xml version="1.0" encoding="UTF-8" standalone="no"?>
<!DOCTYPE svg PUBLIC "-//W3C//DTD SVG 1.1//EN"
 "http://www.w3.org/Graphics/SVG/1.1/DTD/svg11.dtd">
<!-- Generated by graphviz version 2.43.0 (0)
 -->
<!-- Title: DynExp::HardwareAdapterManager Pages: 1 -->
<svg width="224pt" height="151pt"
 viewBox="0.00 0.00 224.00 151.00" xmlns="http://www.w3.org/2000/svg" xmlns:xlink="http://www.w3.org/1999/xlink">
<g id="graph0" class="graph" transform="scale(1 1) rotate(0) translate(4 147)">
<title>DynExp::HardwareAdapterManager</title>
<polygon fill="white" stroke="transparent" points="-4,4 -4,-147 220,-147 220,4 -4,4"/>
<!-- Node1 -->
<g id="node1" class="node">
<title>Node1</title>
<g id="a_node1"><a xlink:title="Resource manager for HardwareAdapterBase resources deriving from a specialized ResourceManagerBase cl...">
<polygon fill="#bfbfbf" stroke="black" points="14,-0.5 14,-19.5 202,-19.5 202,-0.5 14,-0.5"/>
<text text-anchor="middle" x="108" y="-7.5" font-family="Helvetica,sans-Serif" font-size="10.00">DynExp::HardwareAdapterManager</text>
</a>
</g>
</g>
<!-- Node2 -->
<g id="node2" class="node">
<title>Node2</title>
<g id="a_node2"><a xlink:href="classDynExp_1_1ResourceManagerBase.html" target="_top" xlink:title=" ">
<polygon fill="white" stroke="black" points="22,-56.5 22,-86.5 194,-86.5 194,-56.5 22,-56.5"/>
<text text-anchor="start" x="30" y="-74.5" font-family="Helvetica,sans-Serif" font-size="10.00">DynExp::ResourceManagerBase</text>
<text text-anchor="middle" x="108" y="-63.5" font-family="Helvetica,sans-Serif" font-size="10.00">&lt; HardwareAdapterPtrType &gt;</text>
</a>
</g>
</g>
<!-- Node2&#45;&gt;Node1 -->
<g id="edge1" class="edge">
<title>Node2&#45;&gt;Node1</title>
<path fill="none" stroke="midnightblue" d="M108,-46.29C108,-36.86 108,-26.65 108,-19.66"/>
<polygon fill="midnightblue" stroke="midnightblue" points="104.5,-46.4 108,-56.4 111.5,-46.4 104.5,-46.4"/>
</g>
<!-- Node3 -->
<g id="node3" class="node">
<title>Node3</title>
<g id="a_node3"><a xlink:href="classDynExp_1_1CommonResourceManagerBase.html" target="_top" xlink:title="Common base class for all derived ResourceManagerBase classes. Logical const&#45;ness: Only const functio...">
<polygon fill="white" stroke="black" points="0,-123.5 0,-142.5 216,-142.5 216,-123.5 0,-123.5"/>
<text text-anchor="middle" x="108" y="-130.5" font-family="Helvetica,sans-Serif" font-size="10.00">DynExp::CommonResourceManagerBase</text>
</a>
</g>
</g>
<!-- Node3&#45;&gt;Node2 -->
<g id="edge2" class="edge">
<title>Node3&#45;&gt;Node2</title>
<path fill="none" stroke="midnightblue" d="M108,-113.23C108,-104.59 108,-94.5 108,-86.52"/>
<polygon fill="midnightblue" stroke="midnightblue" points="104.5,-113.48 108,-123.48 111.5,-113.48 104.5,-113.48"/>
</g>
</g>
</svg>
