<?xml version="1.0" encoding="UTF-8" standalone="no"?>
<!DOCTYPE svg PUBLIC "-//W3C//DTD SVG 1.1//EN"
 "http://www.w3.org/Graphics/SVG/1.1/DTD/svg11.dtd">
<!-- Generated by graphviz version 2.43.0 (0)
 -->
<!-- Title: DynExpInstr::PositionerStageConfigurator Pages: 1 -->
<svg width="1031pt" height="124pt"
 viewBox="0.00 0.00 1031.00 123.50" xmlns="http://www.w3.org/2000/svg" xmlns:xlink="http://www.w3.org/1999/xlink">
<g id="graph0" class="graph" transform="scale(1 1) rotate(0) translate(4 119.5)">
<title>DynExpInstr::PositionerStageConfigurator</title>
<!-- Node1 -->
<g id="Node000001" class="node">
<title>Node1</title>
<g id="a_Node000001"><a xlink:title="Configurator class for PositionerStage.">
<polygon fill="#999999" stroke="#666666" points="804,-67.5 646,-67.5 646,-37.5 804,-37.5 804,-67.5"/>
<text text-anchor="start" x="654" y="-55.5" font-family="Helvetica,sans-Serif" font-size="10.00">DynExpInstr::PositionerStage</text>
<text text-anchor="middle" x="725" y="-44.5" font-family="Helvetica,sans-Serif" font-size="10.00">Configurator</text>
</a>
</g>
</g>
<!-- Node5 -->
<g id="Node000005" class="node">
<title>Node5</title>
<g id="a_Node000005"><a xlink:href="classDynExpInstr_1_1NenionLeakvalveF3Configurator.html" target="_top" xlink:title=" ">
<polygon fill="white" stroke="#666666" points="1015,-115.5 848,-115.5 848,-85.5 1015,-85.5 1015,-115.5"/>
<text text-anchor="start" x="856" y="-103.5" font-family="Helvetica,sans-Serif" font-size="10.00">DynExpInstr::NenionLeakvalve</text>
<text text-anchor="middle" x="931.5" y="-92.5" font-family="Helvetica,sans-Serif" font-size="10.00">F3Configurator</text>
</a>
</g>
</g>
<!-- Node1&#45;&gt;Node5 -->
<g id="edge4_Node000001_Node000005" class="edge">
<title>Node1&#45;&gt;Node5</title>
<g id="a_edge4_Node000001_Node000005"><a xlink:title=" ">
<path fill="none" stroke="#63b8ff" d="M800.01,-69.87C821.81,-74.99 845.47,-80.54 866.58,-85.5"/>
<polygon fill="#63b8ff" stroke="#63b8ff" points="800.68,-66.43 790.14,-67.56 799.08,-73.25 800.68,-66.43"/>
</a>
</g>
</g>
<!-- Node6 -->
<g id="Node000006" class="node">
<title>Node6</title>
<g id="a_Node000006"><a xlink:href="classDynExpInstr_1_1PI__C__862__Configurator.html" target="_top" xlink:title=" ">
<polygon fill="white" stroke="#666666" points="994.5,-67.5 868.5,-67.5 868.5,-37.5 994.5,-37.5 994.5,-67.5"/>
<text text-anchor="start" x="876.5" y="-55.5" font-family="Helvetica,sans-Serif" font-size="10.00">DynExpInstr::PI_C_862</text>
<text text-anchor="middle" x="931.5" y="-44.5" font-family="Helvetica,sans-Serif" font-size="10.00">_Configurator</text>
</a>
</g>
</g>
<!-- Node1&#45;&gt;Node6 -->
<g id="edge5_Node000001_Node000006" class="edge">
<title>Node1&#45;&gt;Node6</title>
<g id="a_edge5_Node000001_Node000006"><a xlink:title=" ">
<path fill="none" stroke="#63b8ff" d="M814.22,-52.5C832.41,-52.5 851.2,-52.5 868.24,-52.5"/>
<polygon fill="#63b8ff" stroke="#63b8ff" points="814.19,-49 804.19,-52.5 814.19,-56 814.19,-49"/>
</a>
</g>
</g>
<!-- Node7 -->
<g id="Node000007" class="node">
<title>Node7</title>
<g id="a_Node000007"><a xlink:href="classDynExpInstr_1_1SmarActConfigurator.html" target="_top" xlink:title=" ">
<polygon fill="white" stroke="#666666" points="1023,-19 840,-19 840,0 1023,0 1023,-19"/>
<text text-anchor="middle" x="931.5" y="-7" font-family="Helvetica,sans-Serif" font-size="10.00">DynExpInstr::SmarActConfigurator</text>
</a>
</g>
</g>
<!-- Node1&#45;&gt;Node7 -->
<g id="edge6_Node000001_Node000007" class="edge">
<title>Node1&#45;&gt;Node7</title>
<g id="a_edge6_Node000001_Node000007"><a xlink:title=" ">
<path fill="none" stroke="#63b8ff" d="M807.45,-35.35C818.39,-33.04 829.47,-30.71 840,-28.5 854.61,-25.43 870.55,-22.08 884.92,-19.06"/>
<polygon fill="#63b8ff" stroke="#63b8ff" points="806.52,-31.97 797.45,-37.45 807.96,-38.82 806.52,-31.97"/>
</a>
</g>
</g>
<!-- Node2 -->
<g id="Node000002" class="node">
<title>Node2</title>
<g id="a_Node000002"><a xlink:href="classDynExp_1_1InstrumentConfiguratorBase.html" target="_top" xlink:title="Configurator class for InstrumentBase.">
<polygon fill="white" stroke="#666666" points="610,-62 413,-62 413,-43 610,-43 610,-62"/>
<text text-anchor="middle" x="511.5" y="-50" font-family="Helvetica,sans-Serif" font-size="10.00">DynExp::InstrumentConfiguratorBase</text>
</a>
</g>
</g>
<!-- Node2&#45;&gt;Node1 -->
<g id="edge1_Node000001_Node000002" class="edge">
<title>Node2&#45;&gt;Node1</title>
<g id="a_edge1_Node000001_Node000002"><a xlink:title=" ">
<path fill="none" stroke="#63b8ff" d="M620.27,-52.5C628.84,-52.5 637.4,-52.5 645.72,-52.5"/>
<polygon fill="#63b8ff" stroke="#63b8ff" points="620.2,-49 610.2,-52.5 620.2,-56 620.2,-49"/>
</a>
</g>
</g>
<!-- Node3 -->
<g id="Node000003" class="node">
<title>Node3</title>
<g id="a_Node000003"><a xlink:href="classDynExp_1_1RunnableObjectConfigurator.html" target="_top" xlink:title="Configurator class for RunnableObject.">
<polygon fill="white" stroke="#666666" points="377,-62 180,-62 180,-43 377,-43 377,-62"/>
<text text-anchor="middle" x="278.5" y="-50" font-family="Helvetica,sans-Serif" font-size="10.00">DynExp::RunnableObjectConfigurator</text>
</a>
</g>
</g>
<!-- Node3&#45;&gt;Node2 -->
<g id="edge2_Node000002_Node000003" class="edge">
<title>Node3&#45;&gt;Node2</title>
<g id="a_edge2_Node000002_Node000003"><a xlink:title=" ">
<path fill="none" stroke="#63b8ff" d="M387.15,-52.5C395.72,-52.5 404.35,-52.5 412.85,-52.5"/>
<polygon fill="#63b8ff" stroke="#63b8ff" points="387.13,-49 377.13,-52.5 387.13,-56 387.13,-49"/>
</a>
</g>
</g>
<!-- Node4 -->
<g id="Node000004" class="node">
<title>Node4</title>
<g id="a_Node000004"><a xlink:href="classDynExp_1_1ConfiguratorBase.html" target="_top" xlink:title="The configurator classes have the task to generate parameter objects (refer to DynExp::ParamsBase) of...">
<polygon fill="white" stroke="#666666" points="144,-62 0,-62 0,-43 144,-43 144,-62"/>
<text text-anchor="middle" x="72" y="-50" font-family="Helvetica,sans-Serif" font-size="10.00">DynExp::ConfiguratorBase</text>
</a>
</g>
</g>
<!-- Node4&#45;&gt;Node3 -->
<g id="edge3_Node000003_Node000004" class="edge">
<title>Node4&#45;&gt;Node3</title>
<g id="a_edge3_Node000003_Node000004"><a xlink:title=" ">
<path fill="none" stroke="#63b8ff" d="M154.36,-52.5C162.76,-52.5 171.35,-52.5 179.89,-52.5"/>
<polygon fill="#63b8ff" stroke="#63b8ff" points="154.24,-49 144.24,-52.5 154.24,-56 154.24,-49"/>
</a>
</g>
</g>
</g>
</svg>
