<?xml version="1.0" encoding="UTF-8" standalone="no"?>
<!DOCTYPE svg PUBLIC "-//W3C//DTD SVG 1.1//EN"
 "http://www.w3.org/Graphics/SVG/1.1/DTD/svg11.dtd">
<!-- Generated by graphviz version 2.43.0 (0)
 -->
<!-- Title: DynExpInstr::FunctionGeneratorParams Pages: 1 -->
<svg width="1914pt" height="198pt"
 viewBox="0.00 0.00 1914.00 198.00" xmlns="http://www.w3.org/2000/svg" xmlns:xlink="http://www.w3.org/1999/xlink">
<g id="graph0" class="graph" transform="scale(1 1) rotate(0) translate(4 194)">
<title>DynExpInstr::FunctionGeneratorParams</title>
<!-- Node1 -->
<g id="Node000001" class="node">
<title>Node1</title>
<g id="a_Node000001"><a xlink:title="Parameter class for FunctionGenerator.">
<polygon fill="#999999" stroke="#666666" points="1299,-110 1127,-110 1127,-80 1299,-80 1299,-110"/>
<text text-anchor="start" x="1135" y="-98" font-family="Helvetica,sans-Serif" font-size="10.00">DynExpInstr::FunctionGenerator</text>
<text text-anchor="middle" x="1213" y="-87" font-family="Helvetica,sans-Serif" font-size="10.00">Params</text>
</a>
</g>
</g>
<!-- Node8 -->
<g id="Node000008" class="node">
<title>Node8</title>
<g id="a_Node000008"><a xlink:href="classDynExpInstr_1_1DummyDataStreamInstrumentParams.html" target="_top" xlink:title=" ">
<polygon fill="white" stroke="#666666" points="1515.5,-190 1336.5,-190 1336.5,-160 1515.5,-160 1515.5,-190"/>
<text text-anchor="start" x="1344.5" y="-178" font-family="Helvetica,sans-Serif" font-size="10.00">DynExpInstr::DummyDataStream</text>
<text text-anchor="middle" x="1426" y="-167" font-family="Helvetica,sans-Serif" font-size="10.00">InstrumentParams</text>
</a>
</g>
</g>
<!-- Node1&#45;&gt;Node8 -->
<g id="edge7_Node000001_Node000008" class="edge">
<title>Node1&#45;&gt;Node8</title>
<g id="a_edge7_Node000001_Node000008"><a xlink:title=" ">
<path fill="none" stroke="#63b8ff" d="M1253.03,-114.61C1276.43,-125.9 1306.98,-139.81 1335,-150 1344.75,-153.55 1355.26,-156.88 1365.52,-159.89"/>
<polygon fill="#63b8ff" stroke="#63b8ff" points="1254.31,-111.35 1243.79,-110.12 1251.25,-117.64 1254.31,-111.35"/>
</a>
</g>
</g>
<!-- Node9 -->
<g id="Node000009" class="node">
<title>Node9</title>
<g id="a_Node000009"><a xlink:href="classDynExpInstr_1_1OutputPortParams.html" target="_top" xlink:title="Parameter class for OutputPort.">
<polygon fill="white" stroke="#666666" points="1511,-141.5 1341,-141.5 1341,-122.5 1511,-122.5 1511,-141.5"/>
<text text-anchor="middle" x="1426" y="-129.5" font-family="Helvetica,sans-Serif" font-size="10.00">DynExpInstr::OutputPortParams</text>
</a>
</g>
</g>
<!-- Node1&#45;&gt;Node9 -->
<g id="edge8_Node000001_Node000009" class="edge">
<title>Node1&#45;&gt;Node9</title>
<g id="a_edge8_Node000001_Node000009"><a xlink:title=" ">
<path fill="none" stroke="#63b8ff" d="M1309.18,-111.69C1330.28,-115.39 1351.93,-119.19 1370.72,-122.48"/>
<polygon fill="#63b8ff" stroke="#63b8ff" points="1309.67,-108.22 1299.21,-109.94 1308.46,-115.12 1309.67,-108.22"/>
</a>
</g>
</g>
<!-- Node14 -->
<g id="Node000014" class="node">
<title>Node14</title>
<g id="a_Node000014"><a xlink:href="classDynExpInstr_1_1RS__SMB100BParams.html" target="_top" xlink:title=" ">
<polygon fill="white" stroke="#666666" points="1517,-104.5 1335,-104.5 1335,-85.5 1517,-85.5 1517,-104.5"/>
<text text-anchor="middle" x="1426" y="-92.5" font-family="Helvetica,sans-Serif" font-size="10.00">DynExpInstr::RS_SMB100BParams</text>
</a>
</g>
</g>
<!-- Node1&#45;&gt;Node14 -->
<g id="edge13_Node000001_Node000014" class="edge">
<title>Node1&#45;&gt;Node14</title>
<g id="a_edge13_Node000001_Node000014"><a xlink:title=" ">
<path fill="none" stroke="#63b8ff" d="M1309.22,-95C1317.8,-95 1326.46,-95 1334.99,-95"/>
<polygon fill="#63b8ff" stroke="#63b8ff" points="1309.21,-91.5 1299.21,-95 1309.21,-98.5 1309.21,-91.5"/>
</a>
</g>
</g>
<!-- Node15 -->
<g id="Node000015" class="node">
<title>Node15</title>
<g id="a_Node000015"><a xlink:href="classDynExpInstr_1_1RS__SMC100AParams.html" target="_top" xlink:title=" ">
<polygon fill="white" stroke="#666666" points="1517,-67.5 1335,-67.5 1335,-48.5 1517,-48.5 1517,-67.5"/>
<text text-anchor="middle" x="1426" y="-55.5" font-family="Helvetica,sans-Serif" font-size="10.00">DynExpInstr::RS_SMC100AParams</text>
</a>
</g>
</g>
<!-- Node1&#45;&gt;Node15 -->
<g id="edge14_Node000001_Node000015" class="edge">
<title>Node1&#45;&gt;Node15</title>
<g id="a_edge14_Node000001_Node000015"><a xlink:title=" ">
<path fill="none" stroke="#63b8ff" d="M1309.18,-78.31C1330.28,-74.61 1351.93,-70.81 1370.72,-67.52"/>
<polygon fill="#63b8ff" stroke="#63b8ff" points="1308.46,-74.88 1299.21,-80.06 1309.67,-81.78 1308.46,-74.88"/>
</a>
</g>
</g>
<!-- Node16 -->
<g id="Node000016" class="node">
<title>Node16</title>
<g id="a_Node000016"><a xlink:href="classDynExpInstr_1_1SwabianInstrumentsPulseStreamerParams.html" target="_top" xlink:title=" ">
<polygon fill="white" stroke="#666666" points="1517,-30 1335,-30 1335,0 1517,0 1517,-30"/>
<text text-anchor="start" x="1343" y="-18" font-family="Helvetica,sans-Serif" font-size="10.00">DynExpInstr::SwabianInstruments</text>
<text text-anchor="middle" x="1426" y="-7" font-family="Helvetica,sans-Serif" font-size="10.00">PulseStreamerParams</text>
</a>
</g>
</g>
<!-- Node1&#45;&gt;Node16 -->
<g id="edge15_Node000001_Node000016" class="edge">
<title>Node1&#45;&gt;Node16</title>
<g id="a_edge15_Node000001_Node000016"><a xlink:title=" ">
<path fill="none" stroke="#63b8ff" d="M1252,-75.35C1275.49,-63.73 1306.49,-49.31 1335,-39 1343.82,-35.81 1353.26,-32.83 1362.59,-30.14"/>
<polygon fill="#63b8ff" stroke="#63b8ff" points="1250.13,-72.37 1242.75,-79.98 1253.26,-78.63 1250.13,-72.37"/>
</a>
</g>
</g>
<!-- Node2 -->
<g id="Node000002" class="node">
<title>Node2</title>
<g id="a_Node000002"><a xlink:href="classDynExpInstr_1_1DataStreamInstrumentParams.html" target="_top" xlink:title="Parameter class for DataStreamInstrument.">
<polygon fill="white" stroke="#666666" points="1091,-110 897,-110 897,-80 1091,-80 1091,-110"/>
<text text-anchor="start" x="905" y="-98" font-family="Helvetica,sans-Serif" font-size="10.00">DynExpInstr::DataStreamInstrument</text>
<text text-anchor="middle" x="994" y="-87" font-family="Helvetica,sans-Serif" font-size="10.00">Params</text>
</a>
</g>
</g>
<!-- Node2&#45;&gt;Node1 -->
<g id="edge1_Node000001_Node000002" class="edge">
<title>Node2&#45;&gt;Node1</title>
<g id="a_edge1_Node000001_Node000002"><a xlink:title=" ">
<path fill="none" stroke="#63b8ff" d="M1101.21,-95C1109.81,-95 1118.43,-95 1126.86,-95"/>
<polygon fill="#63b8ff" stroke="#63b8ff" points="1101.13,-91.5 1091.13,-95 1101.13,-98.5 1101.13,-91.5"/>
</a>
</g>
</g>
<!-- Node3 -->
<g id="Node000003" class="node">
<title>Node3</title>
<g id="a_Node000003"><a xlink:href="classDynExp_1_1InstrumentParamsBase.html" target="_top" xlink:title="Parameter class for InstrumentBase.">
<polygon fill="white" stroke="#666666" points="861,-104.5 688,-104.5 688,-85.5 861,-85.5 861,-104.5"/>
<text text-anchor="middle" x="774.5" y="-92.5" font-family="Helvetica,sans-Serif" font-size="10.00">DynExp::InstrumentParamsBase</text>
</a>
</g>
</g>
<!-- Node3&#45;&gt;Node2 -->
<g id="edge2_Node000002_Node000003" class="edge">
<title>Node3&#45;&gt;Node2</title>
<g id="a_edge2_Node000002_Node000003"><a xlink:title=" ">
<path fill="none" stroke="#63b8ff" d="M871.33,-95C879.73,-95 888.24,-95 896.64,-95"/>
<polygon fill="#63b8ff" stroke="#63b8ff" points="871.15,-91.5 861.15,-95 871.15,-98.5 871.15,-91.5"/>
</a>
</g>
</g>
<!-- Node4 -->
<g id="Node000004" class="node">
<title>Node4</title>
<g id="a_Node000004"><a xlink:href="classDynExp_1_1RunnableObjectParams.html" target="_top" xlink:title="Parameter class for RunnableObject.">
<polygon fill="white" stroke="#666666" points="652,-104.5 479,-104.5 479,-85.5 652,-85.5 652,-104.5"/>
<text text-anchor="middle" x="565.5" y="-92.5" font-family="Helvetica,sans-Serif" font-size="10.00">DynExp::RunnableObjectParams</text>
</a>
</g>
</g>
<!-- Node4&#45;&gt;Node3 -->
<g id="edge3_Node000003_Node000004" class="edge">
<title>Node4&#45;&gt;Node3</title>
<g id="a_edge3_Node000003_Node000004"><a xlink:title=" ">
<path fill="none" stroke="#63b8ff" d="M662.2,-95C670.76,-95 679.4,-95 687.88,-95"/>
<polygon fill="#63b8ff" stroke="#63b8ff" points="662.19,-91.5 652.19,-95 662.19,-98.5 662.19,-91.5"/>
</a>
</g>
</g>
<!-- Node5 -->
<g id="Node000005" class="node">
<title>Node5</title>
<g id="a_Node000005"><a xlink:href="classDynExp_1_1ParamsBase.html" target="_top" xlink:title="Abstract base class for object parameter classes. Each class derived from class Object must be accomp...">
<polygon fill="white" stroke="#666666" points="443,-104.5 323,-104.5 323,-85.5 443,-85.5 443,-104.5"/>
<text text-anchor="middle" x="383" y="-92.5" font-family="Helvetica,sans-Serif" font-size="10.00">DynExp::ParamsBase</text>
</a>
</g>
</g>
<!-- Node5&#45;&gt;Node4 -->
<g id="edge4_Node000004_Node000005" class="edge">
<title>Node5&#45;&gt;Node4</title>
<g id="a_edge4_Node000004_Node000005"><a xlink:title=" ">
<path fill="none" stroke="#63b8ff" d="M453.17,-95C461.54,-95 470.17,-95 478.75,-95"/>
<polygon fill="#63b8ff" stroke="#63b8ff" points="453.1,-91.5 443.1,-95 453.1,-98.5 453.1,-91.5"/>
</a>
</g>
</g>
<!-- Node6 -->
<g id="Node000006" class="node">
<title>Node6</title>
<g id="a_Node000006"><a xlink:href="classUtil_1_1ISynchronizedPointerLockable.html" target="_top" xlink:title="Interface to allow synchronizing the access to derived classes between different threads by making th...">
<polygon fill="white" stroke="#666666" points="287,-110 144,-110 144,-80 287,-80 287,-110"/>
<text text-anchor="start" x="152" y="-98" font-family="Helvetica,sans-Serif" font-size="10.00">Util::ISynchronizedPointer</text>
<text text-anchor="middle" x="215.5" y="-87" font-family="Helvetica,sans-Serif" font-size="10.00">Lockable</text>
</a>
</g>
</g>
<!-- Node6&#45;&gt;Node5 -->
<g id="edge5_Node000005_Node000006" class="edge">
<title>Node6&#45;&gt;Node5</title>
<g id="a_edge5_Node000005_Node000006"><a xlink:title=" ">
<path fill="none" stroke="#63b8ff" d="M297.23,-95C305.84,-95 314.47,-95 322.76,-95"/>
<polygon fill="#63b8ff" stroke="#63b8ff" points="297.17,-91.5 287.17,-95 297.17,-98.5 297.17,-91.5"/>
</a>
</g>
</g>
<!-- Node7 -->
<g id="Node000007" class="node">
<title>Node7</title>
<g id="a_Node000007"><a xlink:href="classUtil_1_1INonCopyable.html" target="_top" xlink:title="Interface to delete copy constructor and copy assignment operator and thus make derived classes non&#45;c...">
<polygon fill="white" stroke="#666666" points="108,-104.5 0,-104.5 0,-85.5 108,-85.5 108,-104.5"/>
<text text-anchor="middle" x="54" y="-92.5" font-family="Helvetica,sans-Serif" font-size="10.00">Util::INonCopyable</text>
</a>
</g>
</g>
<!-- Node7&#45;&gt;Node6 -->
<g id="edge6_Node000006_Node000007" class="edge">
<title>Node7&#45;&gt;Node6</title>
<g id="a_edge6_Node000006_Node000007"><a xlink:title=" ">
<path fill="none" stroke="#63b8ff" d="M118.19,-95C126.58,-95 135.23,-95 143.74,-95"/>
<polygon fill="#63b8ff" stroke="#63b8ff" points="118.11,-91.5 108.11,-95 118.11,-98.5 118.11,-91.5"/>
</a>
</g>
</g>
<!-- Node10 -->
<g id="Node000010" class="node">
<title>Node10</title>
<g id="a_Node000010"><a xlink:href="classDynExpInstr_1_1AnalogOutParams.html" target="_top" xlink:title="Parameter class for AnalogOut.">
<polygon fill="white" stroke="#666666" points="1722,-161.5 1553,-161.5 1553,-142.5 1722,-142.5 1722,-161.5"/>
<text text-anchor="middle" x="1637.5" y="-149.5" font-family="Helvetica,sans-Serif" font-size="10.00">DynExpInstr::AnalogOutParams</text>
</a>
</g>
</g>
<!-- Node9&#45;&gt;Node10 -->
<g id="edge9_Node000009_Node000010" class="edge">
<title>Node9&#45;&gt;Node10</title>
<g id="a_edge9_Node000009_Node000010"><a xlink:title=" ">
<path fill="none" stroke="#63b8ff" d="M1521.09,-140.98C1531.66,-141.99 1542.39,-143.02 1552.82,-144.01"/>
<polygon fill="#63b8ff" stroke="#63b8ff" points="1521.29,-137.49 1511,-140.02 1520.63,-144.45 1521.29,-137.49"/>
</a>
</g>
</g>
<!-- Node12 -->
<g id="Node000012" class="node">
<title>Node12</title>
<g id="a_Node000012"><a xlink:href="classDynExpInstr_1_1DigitalOutParams.html" target="_top" xlink:title="Parameter class for DigitalOut.">
<polygon fill="white" stroke="#666666" points="1721,-121.5 1554,-121.5 1554,-102.5 1721,-102.5 1721,-121.5"/>
<text text-anchor="middle" x="1637.5" y="-109.5" font-family="Helvetica,sans-Serif" font-size="10.00">DynExpInstr::DigitalOutParams</text>
</a>
</g>
</g>
<!-- Node9&#45;&gt;Node12 -->
<g id="edge11_Node000009_Node000012" class="edge">
<title>Node9&#45;&gt;Node12</title>
<g id="a_edge11_Node000009_Node000012"><a xlink:title=" ">
<path fill="none" stroke="#63b8ff" d="M1521,-123.03C1531.95,-121.98 1543.06,-120.92 1553.84,-119.89"/>
<polygon fill="#63b8ff" stroke="#63b8ff" points="1520.63,-119.55 1511,-123.98 1521.29,-126.51 1520.63,-119.55"/>
</a>
</g>
</g>
<!-- Node11 -->
<g id="Node000011" class="node">
<title>Node11</title>
<g id="a_Node000011"><a xlink:href="classDynExpInstr_1_1NIDAQAnalogOutParams.html" target="_top" xlink:title=" ">
<polygon fill="white" stroke="#666666" points="1906,-170 1758,-170 1758,-140 1906,-140 1906,-170"/>
<text text-anchor="start" x="1766" y="-158" font-family="Helvetica,sans-Serif" font-size="10.00">DynExpInstr::NIDAQAnalog</text>
<text text-anchor="middle" x="1832" y="-147" font-family="Helvetica,sans-Serif" font-size="10.00">OutParams</text>
</a>
</g>
</g>
<!-- Node10&#45;&gt;Node11 -->
<g id="edge10_Node000010_Node000011" class="edge">
<title>Node10&#45;&gt;Node11</title>
<g id="a_edge10_Node000010_Node000011"><a xlink:title=" ">
<path fill="none" stroke="#63b8ff" d="M1732.16,-153.46C1740.75,-153.59 1749.38,-153.73 1757.75,-153.86"/>
<polygon fill="#63b8ff" stroke="#63b8ff" points="1732.15,-149.96 1722.09,-153.3 1732.04,-156.96 1732.15,-149.96"/>
</a>
</g>
</g>
<!-- Node13 -->
<g id="Node000013" class="node">
<title>Node13</title>
<g id="a_Node000013"><a xlink:href="classDynExpInstr_1_1NIDAQDigitalOutParams.html" target="_top" xlink:title=" ">
<polygon fill="white" stroke="#666666" points="1905,-122 1759,-122 1759,-92 1905,-92 1905,-122"/>
<text text-anchor="start" x="1767" y="-110" font-family="Helvetica,sans-Serif" font-size="10.00">DynExpInstr::NIDAQDigital</text>
<text text-anchor="middle" x="1832" y="-99" font-family="Helvetica,sans-Serif" font-size="10.00">OutParams</text>
</a>
</g>
</g>
<!-- Node12&#45;&gt;Node13 -->
<g id="edge12_Node000012_Node000013" class="edge">
<title>Node12&#45;&gt;Node13</title>
<g id="a_edge12_Node000012_Node000013"><a xlink:title=" ">
<path fill="none" stroke="#63b8ff" d="M1731.29,-109.59C1740.57,-109.35 1749.9,-109.11 1758.92,-108.87"/>
<polygon fill="#63b8ff" stroke="#63b8ff" points="1731.16,-106.09 1721.25,-109.85 1731.34,-113.09 1731.16,-106.09"/>
</a>
</g>
</g>
</g>
</svg>
