<?xml version="1.0" encoding="UTF-8" standalone="no"?>
<!DOCTYPE svg PUBLIC "-//W3C//DTD SVG 1.1//EN"
 "http://www.w3.org/Graphics/SVG/1.1/DTD/svg11.dtd">
<!-- Generated by graphviz version 2.43.0 (0)
 -->
<!-- Title: DynExpInstr::Spectrometer Pages: 1 -->
<svg width="1161pt" height="66pt"
 viewBox="0.00 0.00 1161.00 66.00" xmlns="http://www.w3.org/2000/svg" xmlns:xlink="http://www.w3.org/1999/xlink">
<g id="graph0" class="graph" transform="scale(1 1) rotate(0) translate(4 62)">
<title>DynExpInstr::Spectrometer</title>
<polygon fill="white" stroke="transparent" points="-4,4 -4,-62 1157,-62 1157,4 -4,4"/>
<!-- Node1 -->
<g id="node1" class="node">
<title>Node1</title>
<g id="a_node1"><a xlink:title="Meta instrument for a spectrometer.">
<polygon fill="#bfbfbf" stroke="black" points="490,-19.5 490,-38.5 638,-38.5 638,-19.5 490,-19.5"/>
<text text-anchor="middle" x="564" y="-26.5" font-family="Helvetica,sans-Serif" font-size="10.00">DynExpInstr::Spectrometer</text>
</a>
</g>
</g>
<!-- Node6 -->
<g id="node6" class="node">
<title>Node6</title>
<g id="a_node6"><a xlink:href="classDynExpInstr_1_1gRPCInstrument.html" target="_top" xlink:title=" ">
<polygon fill="white" stroke="black" points="674,-8.5 674,-49.5 928,-49.5 928,-8.5 674,-8.5"/>
<text text-anchor="start" x="682" y="-37.5" font-family="Helvetica,sans-Serif" font-size="10.00">DynExpInstr::gRPCInstrument</text>
<text text-anchor="start" x="682" y="-26.5" font-family="Helvetica,sans-Serif" font-size="10.00">&lt; Spectrometer, 0, DynExpProto</text>
<text text-anchor="middle" x="801" y="-15.5" font-family="Helvetica,sans-Serif" font-size="10.00">::NetworkSpectrometer::NetworkSpectrometer &gt;</text>
</a>
</g>
</g>
<!-- Node1&#45;&gt;Node6 -->
<g id="edge5" class="edge">
<title>Node1&#45;&gt;Node6</title>
<path fill="none" stroke="midnightblue" d="M648.15,-29C656.53,-29 665.17,-29 673.87,-29"/>
<polygon fill="midnightblue" stroke="midnightblue" points="648.07,-25.5 638.07,-29 648.07,-32.5 648.07,-25.5"/>
</g>
<!-- Node2 -->
<g id="node2" class="node">
<title>Node2</title>
<g id="a_node2"><a xlink:href="classDynExp_1_1InstrumentBase.html" target="_top" xlink:title="Base class for instruments. Instruments comprise virtual devices (meta instruments) and physial devic...">
<polygon fill="white" stroke="black" points="317,-19.5 317,-38.5 454,-38.5 454,-19.5 317,-19.5"/>
<text text-anchor="middle" x="385.5" y="-26.5" font-family="Helvetica,sans-Serif" font-size="10.00">DynExp::InstrumentBase</text>
</a>
</g>
</g>
<!-- Node2&#45;&gt;Node1 -->
<g id="edge1" class="edge">
<title>Node2&#45;&gt;Node1</title>
<path fill="none" stroke="midnightblue" d="M464.46,-29C472.91,-29 481.48,-29 489.87,-29"/>
<polygon fill="midnightblue" stroke="midnightblue" points="464.23,-25.5 454.23,-29 464.23,-32.5 464.23,-25.5"/>
</g>
<!-- Node3 -->
<g id="node3" class="node">
<title>Node3</title>
<g id="a_node3"><a xlink:href="classDynExp_1_1RunnableObject.html" target="_top" xlink:title="Defines an Object which possesses a thread it runs in. The RunnableObject can be started and stopped ...">
<polygon fill="white" stroke="black" points="144,-19.5 144,-38.5 281,-38.5 281,-19.5 144,-19.5"/>
<text text-anchor="middle" x="212.5" y="-26.5" font-family="Helvetica,sans-Serif" font-size="10.00">DynExp::RunnableObject</text>
</a>
</g>
</g>
<!-- Node3&#45;&gt;Node2 -->
<g id="edge2" class="edge">
<title>Node3&#45;&gt;Node2</title>
<path fill="none" stroke="midnightblue" d="M291.1,-29C299.69,-29 308.39,-29 316.85,-29"/>
<polygon fill="midnightblue" stroke="midnightblue" points="291.08,-25.5 281.08,-29 291.08,-32.5 291.08,-25.5"/>
</g>
<!-- Node4 -->
<g id="node4" class="node">
<title>Node4</title>
<g id="a_node4"><a xlink:href="classUtil_1_1INonCopyable.html" target="_top" xlink:title="Interface to delete copy constructor and copy assignment operator and thus make derived classes non&#45;c...">
<polygon fill="white" stroke="black" points="0,-38.5 0,-57.5 108,-57.5 108,-38.5 0,-38.5"/>
<text text-anchor="middle" x="54" y="-45.5" font-family="Helvetica,sans-Serif" font-size="10.00">Util::INonCopyable</text>
</a>
</g>
</g>
<!-- Node4&#45;&gt;Node3 -->
<g id="edge3" class="edge">
<title>Node4&#45;&gt;Node3</title>
<path fill="none" stroke="midnightblue" d="M118.5,-40.29C126.87,-39.27 135.49,-38.23 143.93,-37.2"/>
<polygon fill="midnightblue" stroke="midnightblue" points="117.93,-36.83 108.42,-41.51 118.77,-43.78 117.93,-36.83"/>
</g>
<!-- Node5 -->
<g id="node5" class="node">
<title>Node5</title>
<g id="a_node5"><a xlink:href="classDynExp_1_1Object.html" target="_top" xlink:title="Base class for all DynExp Objects like hardware adapters (DynExp::HardwareAdapterBase),...">
<polygon fill="white" stroke="black" points="8,-0.5 8,-19.5 100,-19.5 100,-0.5 8,-0.5"/>
<text text-anchor="middle" x="54" y="-7.5" font-family="Helvetica,sans-Serif" font-size="10.00">DynExp::Object</text>
</a>
</g>
</g>
<!-- Node5&#45;&gt;Node3 -->
<g id="edge4" class="edge">
<title>Node5&#45;&gt;Node3</title>
<path fill="none" stroke="midnightblue" d="M110.43,-16.73C121.26,-18.04 132.74,-19.44 143.91,-20.79"/>
<polygon fill="midnightblue" stroke="midnightblue" points="110.62,-13.23 100.27,-15.5 109.77,-20.18 110.62,-13.23"/>
</g>
<!-- Node7 -->
<g id="node7" class="node">
<title>Node7</title>
<g id="a_node7"><a xlink:href="classDynExpInstr_1_1NetworkSpectrometer.html" target="_top" xlink:title=" ">
<polygon fill="white" stroke="black" points="964,-19.5 964,-38.5 1153,-38.5 1153,-19.5 964,-19.5"/>
<text text-anchor="middle" x="1058.5" y="-26.5" font-family="Helvetica,sans-Serif" font-size="10.00">DynExpInstr::NetworkSpectrometer</text>
</a>
</g>
</g>
<!-- Node6&#45;&gt;Node7 -->
<g id="edge6" class="edge">
<title>Node6&#45;&gt;Node7</title>
<path fill="none" stroke="midnightblue" d="M938.33,-29C946.89,-29 955.41,-29 963.72,-29"/>
<polygon fill="midnightblue" stroke="midnightblue" points="938.25,-25.5 928.25,-29 938.25,-32.5 938.25,-25.5"/>
</g>
</g>
</svg>
