<?xml version="1.0" encoding="UTF-8" standalone="no"?>
<!DOCTYPE svg PUBLIC "-//W3C//DTD SVG 1.1//EN"
 "http://www.w3.org/Graphics/SVG/1.1/DTD/svg11.dtd">
<!-- Generated by graphviz version 2.43.0 (0)
 -->
<!-- Title: DynExpInstr::DataStreamInstrumentData Pages: 1 -->
<svg width="1570pt" height="356pt"
 viewBox="0.00 0.00 1570.00 355.50" xmlns="http://www.w3.org/2000/svg" xmlns:xlink="http://www.w3.org/1999/xlink">
<g id="graph0" class="graph" transform="scale(1 1) rotate(0) translate(4 351.5)">
<title>DynExpInstr::DataStreamInstrumentData</title>
<polygon fill="white" stroke="transparent" points="-4,4 -4,-351.5 1566,-351.5 1566,4 -4,4"/>
<!-- Node1 -->
<g id="node1" class="node">
<title>Node1</title>
<g id="a_node1"><a xlink:title="Data class for DataStreamInstrument.">
<polygon fill="#bfbfbf" stroke="black" points="520,-57.5 520,-76.5 737,-76.5 737,-57.5 520,-57.5"/>
<text text-anchor="middle" x="628.5" y="-64.5" font-family="Helvetica,sans-Serif" font-size="10.00">DynExpInstr::DataStreamInstrumentData</text>
</a>
</g>
</g>
<!-- Node5 -->
<g id="node5" class="node">
<title>Node5</title>
<g id="a_node5"><a xlink:href="classDynExpInstr_1_1FunctionGeneratorData.html" target="_top" xlink:title="Data class for FunctionGenerator.">
<polygon fill="white" stroke="black" points="773,-221.5 773,-240.5 968,-240.5 968,-221.5 773,-221.5"/>
<text text-anchor="middle" x="870.5" y="-228.5" font-family="Helvetica,sans-Serif" font-size="10.00">DynExpInstr::FunctionGeneratorData</text>
</a>
</g>
</g>
<!-- Node1&#45;&gt;Node5 -->
<g id="edge4" class="edge">
<title>Node1&#45;&gt;Node5</title>
<path fill="none" stroke="midnightblue" d="M651.74,-82.19C700.47,-115.5 815.54,-194.13 855.52,-221.45"/>
<polygon fill="midnightblue" stroke="midnightblue" points="653.67,-79.28 643.44,-76.53 649.72,-85.06 653.67,-79.28"/>
</g>
<!-- Node15 -->
<g id="node15" class="node">
<title>Node15</title>
<g id="a_node15"><a xlink:href="classDynExpInstr_1_1InputPortData.html" target="_top" xlink:title="Data class for InputPort.">
<polygon fill="white" stroke="black" points="796,-76.5 796,-95.5 945,-95.5 945,-76.5 796,-76.5"/>
<text text-anchor="middle" x="870.5" y="-83.5" font-family="Helvetica,sans-Serif" font-size="10.00">DynExpInstr::InputPortData</text>
</a>
</g>
</g>
<!-- Node1&#45;&gt;Node15 -->
<g id="edge14" class="edge">
<title>Node1&#45;&gt;Node15</title>
<path fill="none" stroke="midnightblue" d="M747.46,-76.34C763.94,-77.64 780.48,-78.95 795.82,-80.17"/>
<polygon fill="midnightblue" stroke="midnightblue" points="747.46,-72.83 737.21,-75.53 746.91,-79.81 747.46,-72.83"/>
</g>
<!-- Node20 -->
<g id="node20" class="node">
<title>Node20</title>
<g id="a_node20"><a xlink:href="classDynExpInstr_1_1LockinAmplifierData.html" target="_top" xlink:title="Data class for LockinAmplifier.">
<polygon fill="white" stroke="black" points="780,-38.5 780,-57.5 961,-57.5 961,-38.5 780,-38.5"/>
<text text-anchor="middle" x="870.5" y="-45.5" font-family="Helvetica,sans-Serif" font-size="10.00">DynExpInstr::LockinAmplifierData</text>
</a>
</g>
</g>
<!-- Node1&#45;&gt;Node20 -->
<g id="edge19" class="edge">
<title>Node1&#45;&gt;Node20</title>
<path fill="none" stroke="midnightblue" d="M747.23,-57.68C758.16,-56.81 769.11,-55.95 779.72,-55.11"/>
<polygon fill="midnightblue" stroke="midnightblue" points="746.91,-54.19 737.21,-58.47 747.46,-61.17 746.91,-54.19"/>
</g>
<!-- Node22 -->
<g id="node22" class="node">
<title>Node22</title>
<g id="a_node22"><a xlink:href="classDynExpInstr_1_1TimeTaggerData.html" target="_top" xlink:title="Data class for TimeTagger.">
<polygon fill="white" stroke="black" points="789.5,-0.5 789.5,-19.5 951.5,-19.5 951.5,-0.5 789.5,-0.5"/>
<text text-anchor="middle" x="870.5" y="-7.5" font-family="Helvetica,sans-Serif" font-size="10.00">DynExpInstr::TimeTaggerData</text>
</a>
</g>
</g>
<!-- Node1&#45;&gt;Node22 -->
<g id="edge21" class="edge">
<title>Node1&#45;&gt;Node22</title>
<path fill="none" stroke="midnightblue" d="M672.97,-54.71C701.34,-46.88 739.23,-36.79 773,-29 787.48,-25.66 803.26,-22.4 817.79,-19.54"/>
<polygon fill="midnightblue" stroke="midnightblue" points="671.68,-51.43 662.98,-57.48 673.55,-58.18 671.68,-51.43"/>
</g>
<!-- Node2 -->
<g id="node2" class="node">
<title>Node2</title>
<g id="a_node2"><a xlink:href="classDynExp_1_1InstrumentDataBase.html" target="_top" xlink:title="Data structure to contain data which is synchronized in between different threads....">
<polygon fill="white" stroke="black" points="323,-57.5 323,-76.5 484,-76.5 484,-57.5 323,-57.5"/>
<text text-anchor="middle" x="403.5" y="-64.5" font-family="Helvetica,sans-Serif" font-size="10.00">DynExp::InstrumentDataBase</text>
</a>
</g>
</g>
<!-- Node2&#45;&gt;Node1 -->
<g id="edge1" class="edge">
<title>Node2&#45;&gt;Node1</title>
<path fill="none" stroke="midnightblue" d="M494.26,-67C502.71,-67 511.33,-67 519.91,-67"/>
<polygon fill="midnightblue" stroke="midnightblue" points="494.06,-63.5 484.06,-67 494.06,-70.5 494.06,-63.5"/>
</g>
<!-- Node3 -->
<g id="node3" class="node">
<title>Node3</title>
<g id="a_node3"><a xlink:href="classUtil_1_1ISynchronizedPointerLockable.html" target="_top" xlink:title="Interface to allow synchronizing the access to derived classes between different threads by making th...">
<polygon fill="white" stroke="black" points="144,-52 144,-82 287,-82 287,-52 144,-52"/>
<text text-anchor="start" x="152" y="-70" font-family="Helvetica,sans-Serif" font-size="10.00">Util::ISynchronizedPointer</text>
<text text-anchor="middle" x="215.5" y="-59" font-family="Helvetica,sans-Serif" font-size="10.00">Lockable</text>
</a>
</g>
</g>
<!-- Node3&#45;&gt;Node2 -->
<g id="edge2" class="edge">
<title>Node3&#45;&gt;Node2</title>
<path fill="none" stroke="midnightblue" d="M297.35,-67C305.84,-67 314.47,-67 322.94,-67"/>
<polygon fill="midnightblue" stroke="midnightblue" points="297.08,-63.5 287.08,-67 297.08,-70.5 297.08,-63.5"/>
</g>
<!-- Node4 -->
<g id="node4" class="node">
<title>Node4</title>
<g id="a_node4"><a xlink:href="classUtil_1_1INonCopyable.html" target="_top" xlink:title="Interface to delete copy constructor and copy assignment operator and thus make derived classes non&#45;c...">
<polygon fill="white" stroke="black" points="0,-57.5 0,-76.5 108,-76.5 108,-57.5 0,-57.5"/>
<text text-anchor="middle" x="54" y="-64.5" font-family="Helvetica,sans-Serif" font-size="10.00">Util::INonCopyable</text>
</a>
</g>
</g>
<!-- Node4&#45;&gt;Node3 -->
<g id="edge3" class="edge">
<title>Node4&#45;&gt;Node3</title>
<path fill="none" stroke="midnightblue" d="M118.19,-67C126.58,-67 135.23,-67 143.74,-67"/>
<polygon fill="midnightblue" stroke="midnightblue" points="118.11,-63.5 108.11,-67 118.11,-70.5 118.11,-63.5"/>
</g>
<!-- Node6 -->
<g id="node6" class="node">
<title>Node6</title>
<g id="a_node6"><a xlink:href="classDynExpInstr_1_1DummyDataStreamInstrumentData.html" target="_top" xlink:title=" ">
<polygon fill="white" stroke="black" points="1005.5,-317 1005.5,-347 1184.5,-347 1184.5,-317 1005.5,-317"/>
<text text-anchor="start" x="1013.5" y="-335" font-family="Helvetica,sans-Serif" font-size="10.00">DynExpInstr::DummyDataStream</text>
<text text-anchor="middle" x="1095" y="-324" font-family="Helvetica,sans-Serif" font-size="10.00">InstrumentData</text>
</a>
</g>
</g>
<!-- Node5&#45;&gt;Node6 -->
<g id="edge5" class="edge">
<title>Node5&#45;&gt;Node6</title>
<path fill="none" stroke="midnightblue" d="M894.21,-246.39C919.91,-263.22 963.47,-290.06 1004,-307 1012.83,-310.69 1022.37,-314.01 1031.82,-316.93"/>
<polygon fill="midnightblue" stroke="midnightblue" points="895.86,-243.28 885.59,-240.67 892,-249.12 895.86,-243.28"/>
</g>
<!-- Node7 -->
<g id="node7" class="node">
<title>Node7</title>
<g id="a_node7"><a xlink:href="classDynExpInstr_1_1OutputPortData.html" target="_top" xlink:title="Data class for OutputPort.">
<polygon fill="white" stroke="black" points="1016,-278.5 1016,-297.5 1174,-297.5 1174,-278.5 1016,-278.5"/>
<text text-anchor="middle" x="1095" y="-285.5" font-family="Helvetica,sans-Serif" font-size="10.00">DynExpInstr::OutputPortData</text>
</a>
</g>
</g>
<!-- Node5&#45;&gt;Node7 -->
<g id="edge6" class="edge">
<title>Node5&#45;&gt;Node7</title>
<path fill="none" stroke="midnightblue" d="M912.3,-243.52C938.4,-251.32 973.04,-261.3 1004,-269 1017.48,-272.35 1032.2,-275.62 1045.75,-278.47"/>
<polygon fill="midnightblue" stroke="midnightblue" points="912.97,-240.06 902.39,-240.53 910.96,-246.77 912.97,-240.06"/>
</g>
<!-- Node12 -->
<g id="node12" class="node">
<title>Node12</title>
<g id="a_node12"><a xlink:href="classDynExpInstr_1_1RS__SMB100BData.html" target="_top" xlink:title=" ">
<polygon fill="white" stroke="black" points="1010,-240.5 1010,-259.5 1180,-259.5 1180,-240.5 1010,-240.5"/>
<text text-anchor="middle" x="1095" y="-247.5" font-family="Helvetica,sans-Serif" font-size="10.00">DynExpInstr::RS_SMB100BData</text>
</a>
</g>
</g>
<!-- Node5&#45;&gt;Node12 -->
<g id="edge11" class="edge">
<title>Node5&#45;&gt;Node12</title>
<path fill="none" stroke="midnightblue" d="M978.22,-240.11C988.78,-241.01 999.39,-241.92 1009.68,-242.8"/>
<polygon fill="midnightblue" stroke="midnightblue" points="978.38,-236.61 968.12,-239.25 977.79,-243.59 978.38,-236.61"/>
</g>
<!-- Node13 -->
<g id="node13" class="node">
<title>Node13</title>
<g id="a_node13"><a xlink:href="classDynExpInstr_1_1RS__SMC100AData.html" target="_top" xlink:title=" ">
<polygon fill="white" stroke="black" points="1010,-202.5 1010,-221.5 1180,-221.5 1180,-202.5 1010,-202.5"/>
<text text-anchor="middle" x="1095" y="-209.5" font-family="Helvetica,sans-Serif" font-size="10.00">DynExpInstr::RS_SMC100AData</text>
</a>
</g>
</g>
<!-- Node5&#45;&gt;Node13 -->
<g id="edge12" class="edge">
<title>Node5&#45;&gt;Node13</title>
<path fill="none" stroke="midnightblue" d="M978.22,-221.89C988.78,-220.99 999.39,-220.08 1009.68,-219.2"/>
<polygon fill="midnightblue" stroke="midnightblue" points="977.79,-218.41 968.12,-222.75 978.38,-225.39 977.79,-218.41"/>
</g>
<!-- Node14 -->
<g id="node14" class="node">
<title>Node14</title>
<g id="a_node14"><a xlink:href="classDynExpInstr_1_1SwabianInstrumentsPulseStreamerData.html" target="_top" xlink:title=" ">
<polygon fill="white" stroke="black" points="1004,-153 1004,-183 1186,-183 1186,-153 1004,-153"/>
<text text-anchor="start" x="1012" y="-171" font-family="Helvetica,sans-Serif" font-size="10.00">DynExpInstr::SwabianInstruments</text>
<text text-anchor="middle" x="1095" y="-160" font-family="Helvetica,sans-Serif" font-size="10.00">PulseStreamerData</text>
</a>
</g>
</g>
<!-- Node5&#45;&gt;Node14 -->
<g id="edge13" class="edge">
<title>Node5&#45;&gt;Node14</title>
<path fill="none" stroke="midnightblue" d="M914.31,-218.62C940.25,-211.15 974.01,-201.47 1004,-193 1015.39,-189.78 1027.61,-186.37 1039.25,-183.13"/>
<polygon fill="midnightblue" stroke="midnightblue" points="913.06,-215.34 904.42,-221.48 915,-222.07 913.06,-215.34"/>
</g>
<!-- Node8 -->
<g id="node8" class="node">
<title>Node8</title>
<g id="a_node8"><a xlink:href="classDynExpInstr_1_1AnalogOutData.html" target="_top" xlink:title="Data class for AnalogOut.">
<polygon fill="white" stroke="black" points="1222,-299.5 1222,-318.5 1378,-318.5 1378,-299.5 1222,-299.5"/>
<text text-anchor="middle" x="1300" y="-306.5" font-family="Helvetica,sans-Serif" font-size="10.00">DynExpInstr::AnalogOutData</text>
</a>
</g>
</g>
<!-- Node7&#45;&gt;Node8 -->
<g id="edge7" class="edge">
<title>Node7&#45;&gt;Node8</title>
<path fill="none" stroke="midnightblue" d="M1184.18,-297.12C1196.72,-298.42 1209.54,-299.75 1221.85,-301.02"/>
<polygon fill="midnightblue" stroke="midnightblue" points="1184.5,-293.64 1174.19,-296.09 1183.78,-300.6 1184.5,-293.64"/>
</g>
<!-- Node10 -->
<g id="node10" class="node">
<title>Node10</title>
<g id="a_node10"><a xlink:href="classDynExpInstr_1_1DigitalOutData.html" target="_top" xlink:title="Data class for DigitalOut.">
<polygon fill="white" stroke="black" points="1222.5,-256.5 1222.5,-275.5 1377.5,-275.5 1377.5,-256.5 1222.5,-256.5"/>
<text text-anchor="middle" x="1300" y="-263.5" font-family="Helvetica,sans-Serif" font-size="10.00">DynExpInstr::DigitalOutData</text>
</a>
</g>
</g>
<!-- Node7&#45;&gt;Node10 -->
<g id="edge9" class="edge">
<title>Node7&#45;&gt;Node10</title>
<path fill="none" stroke="midnightblue" d="M1184.25,-278.44C1196.88,-277.07 1209.79,-275.67 1222.18,-274.32"/>
<polygon fill="midnightblue" stroke="midnightblue" points="1183.76,-274.97 1174.19,-279.53 1184.51,-281.93 1183.76,-274.97"/>
</g>
<!-- Node9 -->
<g id="node9" class="node">
<title>Node9</title>
<g id="a_node9"><a xlink:href="classDynExpInstr_1_1NIDAQAnalogOutData.html" target="_top" xlink:title=" ">
<polygon fill="white" stroke="black" points="1414,-297 1414,-327 1562,-327 1562,-297 1414,-297"/>
<text text-anchor="start" x="1422" y="-315" font-family="Helvetica,sans-Serif" font-size="10.00">DynExpInstr::NIDAQAnalog</text>
<text text-anchor="middle" x="1488" y="-304" font-family="Helvetica,sans-Serif" font-size="10.00">OutData</text>
</a>
</g>
</g>
<!-- Node8&#45;&gt;Node9 -->
<g id="edge8" class="edge">
<title>Node8&#45;&gt;Node9</title>
<path fill="none" stroke="midnightblue" d="M1388.27,-310.41C1396.83,-310.55 1405.45,-310.68 1413.85,-310.82"/>
<polygon fill="midnightblue" stroke="midnightblue" points="1388.32,-306.91 1378.26,-310.25 1388.21,-313.91 1388.32,-306.91"/>
</g>
<!-- Node11 -->
<g id="node11" class="node">
<title>Node11</title>
<g id="a_node11"><a xlink:href="classDynExpInstr_1_1NIDAQDigitalOutData.html" target="_top" xlink:title=" ">
<polygon fill="white" stroke="black" points="1415,-248 1415,-278 1561,-278 1561,-248 1415,-248"/>
<text text-anchor="start" x="1423" y="-266" font-family="Helvetica,sans-Serif" font-size="10.00">DynExpInstr::NIDAQDigital</text>
<text text-anchor="middle" x="1488" y="-255" font-family="Helvetica,sans-Serif" font-size="10.00">OutData</text>
</a>
</g>
</g>
<!-- Node10&#45;&gt;Node11 -->
<g id="edge10" class="edge">
<title>Node10&#45;&gt;Node11</title>
<path fill="none" stroke="midnightblue" d="M1387.89,-264.6C1396.94,-264.45 1406.07,-264.31 1414.93,-264.16"/>
<polygon fill="midnightblue" stroke="midnightblue" points="1387.67,-261.1 1377.73,-264.76 1387.78,-268.1 1387.67,-261.1"/>
</g>
<!-- Node16 -->
<g id="node16" class="node">
<title>Node16</title>
<g id="a_node16"><a xlink:href="classDynExpInstr_1_1AnalogInData.html" target="_top" xlink:title="Data class for AnalogIn.">
<polygon fill="white" stroke="black" points="1021,-114.5 1021,-133.5 1169,-133.5 1169,-114.5 1021,-114.5"/>
<text text-anchor="middle" x="1095" y="-121.5" font-family="Helvetica,sans-Serif" font-size="10.00">DynExpInstr::AnalogInData</text>
</a>
</g>
</g>
<!-- Node15&#45;&gt;Node16 -->
<g id="edge15" class="edge">
<title>Node15&#45;&gt;Node16</title>
<path fill="none" stroke="midnightblue" d="M937.52,-97.28C969.53,-102.74 1007.57,-109.24 1038.12,-114.46"/>
<polygon fill="midnightblue" stroke="midnightblue" points="937.81,-93.77 927.36,-95.54 936.63,-100.67 937.81,-93.77"/>
</g>
<!-- Node18 -->
<g id="node18" class="node">
<title>Node18</title>
<g id="a_node18"><a xlink:href="classDynExpInstr_1_1DigitalInData.html" target="_top" xlink:title="Data class for DigitalIn.">
<polygon fill="white" stroke="black" points="1022,-76.5 1022,-95.5 1168,-95.5 1168,-76.5 1022,-76.5"/>
<text text-anchor="middle" x="1095" y="-83.5" font-family="Helvetica,sans-Serif" font-size="10.00">DynExpInstr::DigitalInData</text>
</a>
</g>
</g>
<!-- Node15&#45;&gt;Node18 -->
<g id="edge17" class="edge">
<title>Node15&#45;&gt;Node18</title>
<path fill="none" stroke="midnightblue" d="M955.54,-86C977.4,-86 1000.75,-86 1021.93,-86"/>
<polygon fill="midnightblue" stroke="midnightblue" points="955.28,-82.5 945.28,-86 955.28,-89.5 955.28,-82.5"/>
</g>
<!-- Node17 -->
<g id="node17" class="node">
<title>Node17</title>
<g id="a_node17"><a xlink:href="classDynExpInstr_1_1NIDAQAnalogInData.html" target="_top" xlink:title=" ">
<polygon fill="white" stroke="black" points="1226,-114 1226,-144 1374,-144 1374,-114 1226,-114"/>
<text text-anchor="start" x="1234" y="-132" font-family="Helvetica,sans-Serif" font-size="10.00">DynExpInstr::NIDAQAnalog</text>
<text text-anchor="middle" x="1300" y="-121" font-family="Helvetica,sans-Serif" font-size="10.00">InData</text>
</a>
</g>
</g>
<!-- Node16&#45;&gt;Node17 -->
<g id="edge16" class="edge">
<title>Node16&#45;&gt;Node17</title>
<path fill="none" stroke="midnightblue" d="M1179.11,-126.05C1194.64,-126.43 1210.76,-126.83 1225.96,-127.2"/>
<polygon fill="midnightblue" stroke="midnightblue" points="1179.08,-122.55 1169,-125.8 1178.91,-129.54 1179.08,-122.55"/>
</g>
<!-- Node19 -->
<g id="node19" class="node">
<title>Node19</title>
<g id="a_node19"><a xlink:href="classDynExpInstr_1_1NIDAQDigitalInData.html" target="_top" xlink:title=" ">
<polygon fill="white" stroke="black" points="1227,-65 1227,-95 1373,-95 1373,-65 1227,-65"/>
<text text-anchor="start" x="1235" y="-83" font-family="Helvetica,sans-Serif" font-size="10.00">DynExpInstr::NIDAQDigital</text>
<text text-anchor="middle" x="1300" y="-72" font-family="Helvetica,sans-Serif" font-size="10.00">InData</text>
</a>
</g>
</g>
<!-- Node18&#45;&gt;Node19 -->
<g id="edge18" class="edge">
<title>Node18&#45;&gt;Node19</title>
<path fill="none" stroke="midnightblue" d="M1178.53,-83.56C1194.51,-83.09 1211.13,-82.6 1226.75,-82.14"/>
<polygon fill="midnightblue" stroke="midnightblue" points="1178.03,-80.07 1168.14,-83.87 1178.24,-87.07 1178.03,-80.07"/>
</g>
<!-- Node21 -->
<g id="node21" class="node">
<title>Node21</title>
<g id="a_node21"><a xlink:href="classDynExpInstr_1_1ZI__MFLIData.html" target="_top" xlink:title=" ">
<polygon fill="white" stroke="black" points="1023.5,-38.5 1023.5,-57.5 1166.5,-57.5 1166.5,-38.5 1023.5,-38.5"/>
<text text-anchor="middle" x="1095" y="-45.5" font-family="Helvetica,sans-Serif" font-size="10.00">DynExpInstr::ZI_MFLIData</text>
</a>
</g>
</g>
<!-- Node20&#45;&gt;Node21 -->
<g id="edge20" class="edge">
<title>Node20&#45;&gt;Node21</title>
<path fill="none" stroke="midnightblue" d="M971.33,-48C988.91,-48 1006.88,-48 1023.45,-48"/>
<polygon fill="midnightblue" stroke="midnightblue" points="971.04,-44.5 961.04,-48 971.04,-51.5 971.04,-44.5"/>
</g>
<!-- Node23 -->
<g id="node23" class="node">
<title>Node23</title>
<g id="a_node23"><a xlink:href="classDynExpInstr_1_1QutoolsQuTAGData.html" target="_top" xlink:title=" ">
<polygon fill="white" stroke="black" points="1007,-0.5 1007,-19.5 1183,-19.5 1183,-0.5 1007,-0.5"/>
<text text-anchor="middle" x="1095" y="-7.5" font-family="Helvetica,sans-Serif" font-size="10.00">DynExpInstr::QutoolsQuTAGData</text>
</a>
</g>
</g>
<!-- Node22&#45;&gt;Node23 -->
<g id="edge22" class="edge">
<title>Node22&#45;&gt;Node23</title>
<path fill="none" stroke="midnightblue" d="M961.72,-10C976.59,-10 991.99,-10 1006.79,-10"/>
<polygon fill="midnightblue" stroke="midnightblue" points="961.51,-6.5 951.51,-10 961.51,-13.5 961.51,-6.5"/>
</g>
</g>
</svg>
