<?xml version="1.0" encoding="UTF-8" standalone="no"?>
<!DOCTYPE svg PUBLIC "-//W3C//DTD SVG 1.1//EN"
 "http://www.w3.org/Graphics/SVG/1.1/DTD/svg11.dtd">
<!-- Generated by graphviz version 2.43.0 (0)
 -->
<!-- Title: DynExpInstr::PI_C_862_Configurator Pages: 1 -->
<svg width="205pt" height="269pt"
 viewBox="0.00 0.00 205.00 269.00" xmlns="http://www.w3.org/2000/svg" xmlns:xlink="http://www.w3.org/1999/xlink">
<g id="graph0" class="graph" transform="scale(1 1) rotate(0) translate(4 265)">
<title>DynExpInstr::PI_C_862_Configurator</title>
<!-- Node1 -->
<g id="Node000001" class="node">
<title>Node1</title>
<g id="a_Node000001"><a xlink:title=" ">
<polygon fill="#999999" stroke="#666666" points="161.5,-30 35.5,-30 35.5,0 161.5,0 161.5,-30"/>
<text text-anchor="start" x="43.5" y="-18" font-family="Helvetica,sans-Serif" font-size="10.00">DynExpInstr::PI_C_862</text>
<text text-anchor="middle" x="98.5" y="-7" font-family="Helvetica,sans-Serif" font-size="10.00">_Configurator</text>
</a>
</g>
</g>
<!-- Node2 -->
<g id="Node000002" class="node">
<title>Node2</title>
<g id="a_Node000002"><a xlink:href="classDynExpInstr_1_1PositionerStageConfigurator.html" target="_top" xlink:title="Configurator class for PositionerStage.">
<polygon fill="white" stroke="#666666" points="177.5,-96 19.5,-96 19.5,-66 177.5,-66 177.5,-96"/>
<text text-anchor="start" x="27.5" y="-84" font-family="Helvetica,sans-Serif" font-size="10.00">DynExpInstr::PositionerStage</text>
<text text-anchor="middle" x="98.5" y="-73" font-family="Helvetica,sans-Serif" font-size="10.00">Configurator</text>
</a>
</g>
</g>
<!-- Node2&#45;&gt;Node1 -->
<g id="edge1_Node000001_Node000002" class="edge">
<title>Node2&#45;&gt;Node1</title>
<g id="a_edge1_Node000001_Node000002"><a xlink:title=" ">
<path fill="none" stroke="#63b8ff" d="M98.5,-55.54C98.5,-46.96 98.5,-37.61 98.5,-30.16"/>
<polygon fill="#63b8ff" stroke="#63b8ff" points="95,-55.8 98.5,-65.8 102,-55.8 95,-55.8"/>
</a>
</g>
</g>
<!-- Node3 -->
<g id="Node000003" class="node">
<title>Node3</title>
<g id="a_Node000003"><a xlink:href="classDynExp_1_1InstrumentConfiguratorBase.html" target="_top" xlink:title="Configurator class for InstrumentBase.">
<polygon fill="white" stroke="#666666" points="197,-151 0,-151 0,-132 197,-132 197,-151"/>
<text text-anchor="middle" x="98.5" y="-139" font-family="Helvetica,sans-Serif" font-size="10.00">DynExp::InstrumentConfiguratorBase</text>
</a>
</g>
</g>
<!-- Node3&#45;&gt;Node2 -->
<g id="edge2_Node000002_Node000003" class="edge">
<title>Node3&#45;&gt;Node2</title>
<g id="a_edge2_Node000002_Node000003"><a xlink:title=" ">
<path fill="none" stroke="#63b8ff" d="M98.5,-121.65C98.5,-113.36 98.5,-103.78 98.5,-96.11"/>
<polygon fill="#63b8ff" stroke="#63b8ff" points="95,-121.87 98.5,-131.87 102,-121.87 95,-121.87"/>
</a>
</g>
</g>
<!-- Node4 -->
<g id="Node000004" class="node">
<title>Node4</title>
<g id="a_Node000004"><a xlink:href="classDynExp_1_1RunnableObjectConfigurator.html" target="_top" xlink:title="Configurator class for RunnableObject.">
<polygon fill="white" stroke="#666666" points="197,-206 0,-206 0,-187 197,-187 197,-206"/>
<text text-anchor="middle" x="98.5" y="-194" font-family="Helvetica,sans-Serif" font-size="10.00">DynExp::RunnableObjectConfigurator</text>
</a>
</g>
</g>
<!-- Node4&#45;&gt;Node3 -->
<g id="edge3_Node000003_Node000004" class="edge">
<title>Node4&#45;&gt;Node3</title>
<g id="a_edge3_Node000003_Node000004"><a xlink:title=" ">
<path fill="none" stroke="#63b8ff" d="M98.5,-176.66C98.5,-167.93 98.5,-157.99 98.5,-151.09"/>
<polygon fill="#63b8ff" stroke="#63b8ff" points="95,-176.75 98.5,-186.75 102,-176.75 95,-176.75"/>
</a>
</g>
</g>
<!-- Node5 -->
<g id="Node000005" class="node">
<title>Node5</title>
<g id="a_Node000005"><a xlink:href="classDynExp_1_1ConfiguratorBase.html" target="_top" xlink:title="The configurator classes have the task to generate parameter objects (refer to DynExp::ParamsBase) of...">
<polygon fill="white" stroke="#666666" points="170.5,-261 26.5,-261 26.5,-242 170.5,-242 170.5,-261"/>
<text text-anchor="middle" x="98.5" y="-249" font-family="Helvetica,sans-Serif" font-size="10.00">DynExp::ConfiguratorBase</text>
</a>
</g>
</g>
<!-- Node5&#45;&gt;Node4 -->
<g id="edge4_Node000004_Node000005" class="edge">
<title>Node5&#45;&gt;Node4</title>
<g id="a_edge4_Node000004_Node000005"><a xlink:title=" ">
<path fill="none" stroke="#63b8ff" d="M98.5,-231.66C98.5,-222.93 98.5,-212.99 98.5,-206.09"/>
<polygon fill="#63b8ff" stroke="#63b8ff" points="95,-231.75 98.5,-241.75 102,-231.75 95,-231.75"/>
</a>
</g>
</g>
</g>
</svg>
