<?xml version="1.0" encoding="UTF-8" standalone="no"?>
<!DOCTYPE svg PUBLIC "-//W3C//DTD SVG 1.1//EN"
 "http://www.w3.org/Graphics/SVG/1.1/DTD/svg11.dtd">
<!-- Generated by graphviz version 2.43.0 (0)
 -->
<!-- Title: DynExp::QModuleParamsBase Pages: 1 -->
<svg width="1264pt" height="519pt"
 viewBox="0.00 0.00 1264.00 519.00" xmlns="http://www.w3.org/2000/svg" xmlns:xlink="http://www.w3.org/1999/xlink">
<g id="graph0" class="graph" transform="scale(1 1) rotate(0) translate(4 515)">
<title>DynExp::QModuleParamsBase</title>
<polygon fill="white" stroke="transparent" points="-4,4 -4,-515 1260,-515 1260,4 -4,4"/>
<!-- Node1 -->
<g id="node1" class="node">
<title>Node1</title>
<g id="a_node1"><a xlink:title="Parameter class for QModuleBase.">
<polygon fill="#bfbfbf" stroke="black" points="880,-241 880,-260 1044,-260 1044,-241 880,-241"/>
<text text-anchor="middle" x="962" y="-248" font-family="Helvetica,sans-Serif" font-size="10.00">DynExp::QModuleParamsBase</text>
</a>
</g>
</g>
<!-- Node7 -->
<g id="node7" class="node">
<title>Node7</title>
<g id="a_node7"><a xlink:href="classDynExpModule_1_1ImageViewer_1_1ImageViewerParams.html" target="_top" xlink:title=" ">
<polygon fill="white" stroke="black" points="1087.5,-480.5 1087.5,-510.5 1248.5,-510.5 1248.5,-480.5 1087.5,-480.5"/>
<text text-anchor="start" x="1095.5" y="-498.5" font-family="Helvetica,sans-Serif" font-size="10.00">DynExpModule::ImageViewer</text>
<text text-anchor="middle" x="1168" y="-487.5" font-family="Helvetica,sans-Serif" font-size="10.00">::ImageViewerParams</text>
</a>
</g>
</g>
<!-- Node1&#45;&gt;Node7 -->
<g id="edge6" class="edge">
<title>Node1&#45;&gt;Node7</title>
<path fill="none" stroke="midnightblue" d="M967.69,-270.04C979.09,-313.22 1012.42,-417.24 1080,-471.5 1084.28,-474.93 1089.01,-477.88 1093.99,-480.4"/>
<polygon fill="midnightblue" stroke="midnightblue" points="971.05,-269.05 965.2,-260.22 964.27,-270.77 971.05,-269.05"/>
</g>
<!-- Node8 -->
<g id="node8" class="node">
<title>Node8</title>
<g id="a_node8"><a xlink:href="classDynExpModule_1_1InputPortReaderParams.html" target="_top" xlink:title=" ">
<polygon fill="white" stroke="black" points="1080.5,-431.5 1080.5,-461.5 1255.5,-461.5 1255.5,-431.5 1080.5,-431.5"/>
<text text-anchor="start" x="1088.5" y="-449.5" font-family="Helvetica,sans-Serif" font-size="10.00">DynExpModule::InputPortReader</text>
<text text-anchor="middle" x="1168" y="-438.5" font-family="Helvetica,sans-Serif" font-size="10.00">Params</text>
</a>
</g>
</g>
<!-- Node1&#45;&gt;Node8 -->
<g id="edge7" class="edge">
<title>Node1&#45;&gt;Node8</title>
<path fill="none" stroke="midnightblue" d="M970.68,-269.74C985.95,-305.47 1023.58,-382.11 1080,-422.5 1084.84,-425.97 1090.16,-428.93 1095.71,-431.47"/>
<polygon fill="midnightblue" stroke="midnightblue" points="973.73,-267.94 966.66,-260.05 967.26,-270.62 973.73,-267.94"/>
</g>
<!-- Node9 -->
<g id="node9" class="node">
<title>Node9</title>
<g id="a_node9"><a xlink:href="classDynExpModule_1_1LockinAmplifierControlParams.html" target="_top" xlink:title=" ">
<polygon fill="white" stroke="black" points="1082,-382.5 1082,-412.5 1254,-412.5 1254,-382.5 1082,-382.5"/>
<text text-anchor="start" x="1090" y="-400.5" font-family="Helvetica,sans-Serif" font-size="10.00">DynExpModule::LockinAmplifier</text>
<text text-anchor="middle" x="1168" y="-389.5" font-family="Helvetica,sans-Serif" font-size="10.00">ControlParams</text>
</a>
</g>
</g>
<!-- Node1&#45;&gt;Node9 -->
<g id="edge8" class="edge">
<title>Node1&#45;&gt;Node9</title>
<path fill="none" stroke="midnightblue" d="M975.27,-268.66C994.44,-295.62 1034.09,-345.99 1080,-373.5 1085.78,-376.96 1092.07,-379.94 1098.54,-382.5"/>
<polygon fill="midnightblue" stroke="midnightblue" points="977.95,-266.39 969.37,-260.18 972.21,-270.39 977.95,-266.39"/>
</g>
<!-- Node10 -->
<g id="node10" class="node">
<title>Node10</title>
<g id="a_node10"><a xlink:href="classDynExpModule_1_1ODMR_1_1ODMRParams.html" target="_top" xlink:title=" ">
<polygon fill="white" stroke="black" points="1104.5,-333.5 1104.5,-363.5 1231.5,-363.5 1231.5,-333.5 1104.5,-333.5"/>
<text text-anchor="start" x="1112.5" y="-351.5" font-family="Helvetica,sans-Serif" font-size="10.00">DynExpModule::ODMR</text>
<text text-anchor="middle" x="1168" y="-340.5" font-family="Helvetica,sans-Serif" font-size="10.00">::ODMRParams</text>
</a>
</g>
</g>
<!-- Node1&#45;&gt;Node10 -->
<g id="edge9" class="edge">
<title>Node1&#45;&gt;Node10</title>
<path fill="none" stroke="midnightblue" d="M983.42,-266.06C1005.98,-282.6 1043.91,-308.53 1080,-324.5 1087.74,-327.92 1096.08,-330.97 1104.43,-333.65"/>
<polygon fill="midnightblue" stroke="midnightblue" points="985.4,-263.17 975.29,-260.02 981.23,-268.79 985.4,-263.17"/>
</g>
<!-- Node11 -->
<g id="node11" class="node">
<title>Node11</title>
<g id="a_node11"><a xlink:href="classDynExpModule_1_1OutputPortWriterParams.html" target="_top" xlink:title=" ">
<polygon fill="white" stroke="black" points="1093.5,-284.5 1093.5,-314.5 1242.5,-314.5 1242.5,-284.5 1093.5,-284.5"/>
<text text-anchor="start" x="1101.5" y="-302.5" font-family="Helvetica,sans-Serif" font-size="10.00">DynExpModule::OutputPort</text>
<text text-anchor="middle" x="1168" y="-291.5" font-family="Helvetica,sans-Serif" font-size="10.00">WriterParams</text>
</a>
</g>
</g>
<!-- Node1&#45;&gt;Node11 -->
<g id="edge10" class="edge">
<title>Node1&#45;&gt;Node11</title>
<path fill="none" stroke="midnightblue" d="M1012.65,-262.43C1040.28,-269.06 1074.93,-277.39 1104.4,-284.46"/>
<polygon fill="midnightblue" stroke="midnightblue" points="1013.36,-259 1002.82,-260.06 1011.72,-265.8 1013.36,-259"/>
</g>
<!-- Node12 -->
<g id="node12" class="node">
<title>Node12</title>
<g id="a_node12"><a xlink:href="classDynExpModule_1_1SignalDesignerParams.html" target="_top" xlink:title=" ">
<polygon fill="white" stroke="black" points="1083,-235.5 1083,-265.5 1253,-265.5 1253,-235.5 1083,-235.5"/>
<text text-anchor="start" x="1091" y="-253.5" font-family="Helvetica,sans-Serif" font-size="10.00">DynExpModule::SignalDesigner</text>
<text text-anchor="middle" x="1168" y="-242.5" font-family="Helvetica,sans-Serif" font-size="10.00">Params</text>
</a>
</g>
</g>
<!-- Node1&#45;&gt;Node12 -->
<g id="edge11" class="edge">
<title>Node1&#45;&gt;Node12</title>
<path fill="none" stroke="midnightblue" d="M1054.39,-250.5C1063.82,-250.5 1073.37,-250.5 1082.73,-250.5"/>
<polygon fill="midnightblue" stroke="midnightblue" points="1054.21,-247 1044.21,-250.5 1054.21,-254 1054.21,-247"/>
</g>
<!-- Node13 -->
<g id="node13" class="node">
<title>Node13</title>
<g id="a_node13"><a xlink:href="classDynExpModule_1_1SignalPlotterParams.html" target="_top" xlink:title=" ">
<polygon fill="white" stroke="black" points="1089,-186.5 1089,-216.5 1247,-216.5 1247,-186.5 1089,-186.5"/>
<text text-anchor="start" x="1097" y="-204.5" font-family="Helvetica,sans-Serif" font-size="10.00">DynExpModule::SignalPlotter</text>
<text text-anchor="middle" x="1168" y="-193.5" font-family="Helvetica,sans-Serif" font-size="10.00">Params</text>
</a>
</g>
</g>
<!-- Node1&#45;&gt;Node13 -->
<g id="edge12" class="edge">
<title>Node1&#45;&gt;Node13</title>
<path fill="none" stroke="midnightblue" d="M1012.65,-238.57C1040.28,-231.94 1074.93,-223.61 1104.4,-216.54"/>
<polygon fill="midnightblue" stroke="midnightblue" points="1011.72,-235.2 1002.82,-240.94 1013.36,-242 1011.72,-235.2"/>
</g>
<!-- Node14 -->
<g id="node14" class="node">
<title>Node14</title>
<g id="a_node14"><a xlink:href="classDynExpModule_1_1SpectrumViewer_1_1SpectrumViewerParams.html" target="_top" xlink:title=" ">
<polygon fill="white" stroke="black" points="1080,-137.5 1080,-167.5 1256,-167.5 1256,-137.5 1080,-137.5"/>
<text text-anchor="start" x="1088" y="-155.5" font-family="Helvetica,sans-Serif" font-size="10.00">DynExpModule::SpectrumViewer</text>
<text text-anchor="middle" x="1168" y="-144.5" font-family="Helvetica,sans-Serif" font-size="10.00">::SpectrumViewerParams</text>
</a>
</g>
</g>
<!-- Node1&#45;&gt;Node14 -->
<g id="edge13" class="edge">
<title>Node1&#45;&gt;Node14</title>
<path fill="none" stroke="midnightblue" d="M983.42,-234.94C1005.98,-218.4 1043.91,-192.47 1080,-176.5 1087.59,-173.14 1095.77,-170.14 1103.97,-167.5"/>
<polygon fill="midnightblue" stroke="midnightblue" points="981.23,-232.21 975.29,-240.98 985.4,-237.83 981.23,-232.21"/>
</g>
<!-- Node15 -->
<g id="node15" class="node">
<title>Node15</title>
<g id="a_node15"><a xlink:href="classDynExpModule_1_1Stage1DParams.html" target="_top" xlink:title=" ">
<polygon fill="white" stroke="black" points="1081.5,-99 1081.5,-118 1254.5,-118 1254.5,-99 1081.5,-99"/>
<text text-anchor="middle" x="1168" y="-106" font-family="Helvetica,sans-Serif" font-size="10.00">DynExpModule::Stage1DParams</text>
</a>
</g>
</g>
<!-- Node1&#45;&gt;Node15 -->
<g id="edge14" class="edge">
<title>Node1&#45;&gt;Node15</title>
<path fill="none" stroke="midnightblue" d="M974.81,-232.42C993.63,-205.15 1033.13,-153.88 1080,-127.5 1086.87,-123.63 1094.46,-120.55 1102.2,-118.1"/>
<polygon fill="midnightblue" stroke="midnightblue" points="971.72,-230.74 969.04,-240.99 977.53,-234.65 971.72,-230.74"/>
</g>
<!-- Node16 -->
<g id="node16" class="node">
<title>Node16</title>
<g id="a_node16"><a xlink:href="classDynExpModule_1_1Trajectory1DParams.html" target="_top" xlink:title=" ">
<polygon fill="white" stroke="black" points="1093,-49.5 1093,-79.5 1243,-79.5 1243,-49.5 1093,-49.5"/>
<text text-anchor="start" x="1101" y="-67.5" font-family="Helvetica,sans-Serif" font-size="10.00">DynExpModule::Trajectory1</text>
<text text-anchor="middle" x="1168" y="-56.5" font-family="Helvetica,sans-Serif" font-size="10.00">DParams</text>
</a>
</g>
</g>
<!-- Node1&#45;&gt;Node16 -->
<g id="edge15" class="edge">
<title>Node1&#45;&gt;Node16</title>
<path fill="none" stroke="midnightblue" d="M971.52,-231.59C987.7,-197.84 1026.14,-127.23 1080,-89.5 1085.53,-85.62 1091.66,-82.34 1098.03,-79.57"/>
<polygon fill="midnightblue" stroke="midnightblue" points="968.28,-230.26 967.22,-240.81 974.62,-233.22 968.28,-230.26"/>
</g>
<!-- Node17 -->
<g id="node17" class="node">
<title>Node17</title>
<g id="a_node17"><a xlink:href="classDynExpModule_1_1Widefield_1_1WidefieldMicroscopeParams.html" target="_top" xlink:title=" ">
<polygon fill="white" stroke="black" points="1088,-0.5 1088,-30.5 1248,-30.5 1248,-0.5 1088,-0.5"/>
<text text-anchor="start" x="1096" y="-18.5" font-family="Helvetica,sans-Serif" font-size="10.00">DynExpModule::Widefield</text>
<text text-anchor="middle" x="1168" y="-7.5" font-family="Helvetica,sans-Serif" font-size="10.00">::WidefieldMicroscopeParams</text>
</a>
</g>
</g>
<!-- Node1&#45;&gt;Node17 -->
<g id="edge16" class="edge">
<title>Node1&#45;&gt;Node17</title>
<path fill="none" stroke="midnightblue" d="M968.21,-230.99C980.38,-189.24 1014.74,-90.87 1080,-39.5 1084.31,-36.11 1089.07,-33.2 1094.07,-30.69"/>
<polygon fill="midnightblue" stroke="midnightblue" points="964.8,-230.18 965.47,-240.75 971.54,-232.07 964.8,-230.18"/>
</g>
<!-- Node2 -->
<g id="node2" class="node">
<title>Node2</title>
<g id="a_node2"><a xlink:href="classDynExp_1_1ModuleParamsBase.html" target="_top" xlink:title="Parameter class for ModuleBase.">
<polygon fill="white" stroke="black" points="688,-241 688,-260 844,-260 844,-241 688,-241"/>
<text text-anchor="middle" x="766" y="-248" font-family="Helvetica,sans-Serif" font-size="10.00">DynExp::ModuleParamsBase</text>
</a>
</g>
</g>
<!-- Node2&#45;&gt;Node1 -->
<g id="edge1" class="edge">
<title>Node2&#45;&gt;Node1</title>
<path fill="none" stroke="midnightblue" d="M854.49,-250.5C862.95,-250.5 871.5,-250.5 879.9,-250.5"/>
<polygon fill="midnightblue" stroke="midnightblue" points="854.23,-247 844.23,-250.5 854.23,-254 854.23,-247"/>
</g>
<!-- Node3 -->
<g id="node3" class="node">
<title>Node3</title>
<g id="a_node3"><a xlink:href="classDynExp_1_1RunnableObjectParams.html" target="_top" xlink:title="Parameter class for RunnableObject.">
<polygon fill="white" stroke="black" points="479,-241 479,-260 652,-260 652,-241 479,-241"/>
<text text-anchor="middle" x="565.5" y="-248" font-family="Helvetica,sans-Serif" font-size="10.00">DynExp::RunnableObjectParams</text>
</a>
</g>
</g>
<!-- Node3&#45;&gt;Node2 -->
<g id="edge2" class="edge">
<title>Node3&#45;&gt;Node2</title>
<path fill="none" stroke="midnightblue" d="M662.17,-250.5C670.76,-250.5 679.39,-250.5 687.79,-250.5"/>
<polygon fill="midnightblue" stroke="midnightblue" points="662.12,-247 652.12,-250.5 662.12,-254 662.12,-247"/>
</g>
<!-- Node4 -->
<g id="node4" class="node">
<title>Node4</title>
<g id="a_node4"><a xlink:href="classDynExp_1_1ParamsBase.html" target="_top" xlink:title="Abstract base class for object parameter classes. Each class derived from class Object must be accomp...">
<polygon fill="white" stroke="black" points="323,-241 323,-260 443,-260 443,-241 323,-241"/>
<text text-anchor="middle" x="383" y="-248" font-family="Helvetica,sans-Serif" font-size="10.00">DynExp::ParamsBase</text>
</a>
</g>
</g>
<!-- Node4&#45;&gt;Node3 -->
<g id="edge3" class="edge">
<title>Node4&#45;&gt;Node3</title>
<path fill="none" stroke="midnightblue" d="M453.17,-250.5C461.54,-250.5 470.17,-250.5 478.75,-250.5"/>
<polygon fill="midnightblue" stroke="midnightblue" points="453.1,-247 443.1,-250.5 453.1,-254 453.1,-247"/>
</g>
<!-- Node5 -->
<g id="node5" class="node">
<title>Node5</title>
<g id="a_node5"><a xlink:href="classUtil_1_1ISynchronizedPointerLockable.html" target="_top" xlink:title="Interface to allow synchronizing the access to derived classes between different threads by making th...">
<polygon fill="white" stroke="black" points="144,-235.5 144,-265.5 287,-265.5 287,-235.5 144,-235.5"/>
<text text-anchor="start" x="152" y="-253.5" font-family="Helvetica,sans-Serif" font-size="10.00">Util::ISynchronizedPointer</text>
<text text-anchor="middle" x="215.5" y="-242.5" font-family="Helvetica,sans-Serif" font-size="10.00">Lockable</text>
</a>
</g>
</g>
<!-- Node5&#45;&gt;Node4 -->
<g id="edge4" class="edge">
<title>Node5&#45;&gt;Node4</title>
<path fill="none" stroke="midnightblue" d="M297.23,-250.5C305.84,-250.5 314.47,-250.5 322.76,-250.5"/>
<polygon fill="midnightblue" stroke="midnightblue" points="297.17,-247 287.17,-250.5 297.17,-254 297.17,-247"/>
</g>
<!-- Node6 -->
<g id="node6" class="node">
<title>Node6</title>
<g id="a_node6"><a xlink:href="classUtil_1_1INonCopyable.html" target="_top" xlink:title="Interface to delete copy constructor and copy assignment operator and thus make derived classes non&#45;c...">
<polygon fill="white" stroke="black" points="0,-241 0,-260 108,-260 108,-241 0,-241"/>
<text text-anchor="middle" x="54" y="-248" font-family="Helvetica,sans-Serif" font-size="10.00">Util::INonCopyable</text>
</a>
</g>
</g>
<!-- Node6&#45;&gt;Node5 -->
<g id="edge5" class="edge">
<title>Node6&#45;&gt;Node5</title>
<path fill="none" stroke="midnightblue" d="M118.19,-250.5C126.58,-250.5 135.23,-250.5 143.74,-250.5"/>
<polygon fill="midnightblue" stroke="midnightblue" points="118.11,-247 108.11,-250.5 118.11,-254 118.11,-247"/>
</g>
</g>
</svg>
