<?xml version="1.0" encoding="UTF-8" standalone="no"?>
<!DOCTYPE svg PUBLIC "-//W3C//DTD SVG 1.1//EN"
 "http://www.w3.org/Graphics/SVG/1.1/DTD/svg11.dtd">
<!-- Generated by graphviz version 2.43.0 (0)
 -->
<!-- Title: DynExp::ParamsBase::TypedParamBase&lt; ParamType &gt; Pages: 1 -->
<svg width="845pt" height="571pt"
 viewBox="0.00 0.00 845.00 571.00" xmlns="http://www.w3.org/2000/svg" xmlns:xlink="http://www.w3.org/1999/xlink">
<g id="graph0" class="graph" transform="scale(1 1) rotate(0) translate(4 567)">
<title>DynExp::ParamsBase::TypedParamBase&lt; ParamType &gt;</title>
<polygon fill="white" stroke="transparent" points="-4,4 -4,-567 841,-567 841,4 -4,4"/>
<!-- Node1 -->
<g id="node1" class="node">
<title>Node1</title>
<g id="a_node1"><a xlink:title="Base class of parameters containing a single value.">
<polygon fill="#bfbfbf" stroke="black" points="156,-281 156,-311 338,-311 338,-281 156,-281"/>
<text text-anchor="start" x="164" y="-299" font-family="Helvetica,sans-Serif" font-size="10.00">DynExp::ParamsBase</text>
<text text-anchor="middle" x="247" y="-288" font-family="Helvetica,sans-Serif" font-size="10.00">::TypedParamBase&lt; ParamType &gt;</text>
</a>
</g>
</g>
<!-- Node3 -->
<g id="node3" class="node">
<title>Node3</title>
<g id="a_node3"><a xlink:href="classDynExp_1_1ParamsBase_1_1LinkParamBase.html" target="_top" xlink:title="Base class for link parameters to a single Object of any type specifying the underlying parameter typ...">
<polygon fill="white" stroke="black" points="419,-516 419,-546 595,-546 595,-516 419,-516"/>
<text text-anchor="start" x="427" y="-534" font-family="Helvetica,sans-Serif" font-size="10.00">DynExp::ParamsBase</text>
<text text-anchor="middle" x="507" y="-523" font-family="Helvetica,sans-Serif" font-size="10.00">::LinkParamBase&lt; ItemIDType &gt;</text>
</a>
</g>
</g>
<!-- Node1&#45;&gt;Node3 -->
<g id="edge2" class="edge">
<title>Node1&#45;&gt;Node3</title>
<path fill="none" stroke="midnightblue" d="M255.43,-320.96C270.14,-365.8 307.48,-459.63 374,-506 387.2,-515.2 402.88,-521.26 418.73,-525.2"/>
<polygon fill="midnightblue" stroke="midnightblue" points="258.68,-319.64 252.32,-311.17 252.01,-321.76 258.68,-319.64"/>
</g>
<!-- Node5 -->
<g id="node5" class="node">
<title>Node5</title>
<g id="a_node5"><a xlink:href="classDynExp_1_1ParamsBase_1_1Param_3_01ArithmeticType_00_01std_1_1enable__if__t_3_01std_1_1is__a36b43486ae7f42f950ffc5a7719f2151.html" target="_top" xlink:title="Parameter for numbers. If ParamType is an arithmetic type (integral or floating point),...">
<polygon fill="white" stroke="black" points="399,-445 399,-497 615,-497 615,-445 399,-445"/>
<text text-anchor="start" x="407" y="-485" font-family="Helvetica,sans-Serif" font-size="10.00">DynExp::ParamsBase</text>
<text text-anchor="start" x="407" y="-474" font-family="Helvetica,sans-Serif" font-size="10.00">::Param&lt; ArithmeticType,</text>
<text text-anchor="start" x="407" y="-463" font-family="Helvetica,sans-Serif" font-size="10.00"> std::enable_if_t&lt; std</text>
<text text-anchor="middle" x="507" y="-452" font-family="Helvetica,sans-Serif" font-size="10.00">::is_arithmetic_v&lt; ArithmeticType &gt; &gt; &gt;</text>
</a>
</g>
</g>
<!-- Node1&#45;&gt;Node5 -->
<g id="edge4" class="edge">
<title>Node1&#45;&gt;Node5</title>
<path fill="none" stroke="midnightblue" d="M263.03,-319.64C284.07,-350.77 325.23,-405.08 374,-435 381.79,-439.78 390.23,-443.94 398.94,-447.55"/>
<polygon fill="midnightblue" stroke="midnightblue" points="265.84,-317.54 257.4,-311.14 260.01,-321.41 265.84,-317.54"/>
</g>
<!-- Node6 -->
<g id="node6" class="node">
<title>Node6</title>
<g id="a_node6"><a xlink:href="classDynExp_1_1ParamsBase_1_1Param_3_01EnumType_00_01std_1_1enable__if__t_3_01std_1_1is__enum__v_3_01EnumType_01_4_01_4_01_4.html" target="_top" xlink:title="Parameter for enumerations which are convertible to a numeric type. If ParamType is an enum,...">
<polygon fill="white" stroke="black" points="429,-374 429,-426 585,-426 585,-374 429,-374"/>
<text text-anchor="start" x="437" y="-414" font-family="Helvetica,sans-Serif" font-size="10.00">DynExp::ParamsBase</text>
<text text-anchor="start" x="437" y="-403" font-family="Helvetica,sans-Serif" font-size="10.00">::Param&lt; EnumType, std</text>
<text text-anchor="start" x="437" y="-392" font-family="Helvetica,sans-Serif" font-size="10.00">::enable_if_t&lt; std::is</text>
<text text-anchor="middle" x="507" y="-381" font-family="Helvetica,sans-Serif" font-size="10.00">_enum_v&lt; EnumType &gt; &gt; &gt;</text>
</a>
</g>
</g>
<!-- Node1&#45;&gt;Node6 -->
<g id="edge5" class="edge">
<title>Node1&#45;&gt;Node6</title>
<path fill="none" stroke="midnightblue" d="M280.48,-316.21C305.36,-331.02 340.91,-350.76 374,-364 391.42,-370.97 410.66,-377.07 428.94,-382.17"/>
<polygon fill="midnightblue" stroke="midnightblue" points="282.2,-313.16 271.83,-311 278.59,-319.16 282.2,-313.16"/>
</g>
<!-- Node7 -->
<g id="node7" class="node">
<title>Node7</title>
<g id="a_node7"><a xlink:href="classDynExp_1_1ParamsBase_1_1Param_3_01ParamType_00_01std_1_1enable__if__t_3_01_9std_1_1is__arit5c6f823427478a0e4e010e91feab235c.html" target="_top" xlink:title="General parameter for any ParamType (except the ones which are further specified below).">
<polygon fill="white" stroke="black" points="374,-237 374,-355 640,-355 640,-237 374,-237"/>
<text text-anchor="start" x="382" y="-343" font-family="Helvetica,sans-Serif" font-size="10.00">DynExp::ParamsBase</text>
<text text-anchor="start" x="382" y="-332" font-family="Helvetica,sans-Serif" font-size="10.00">::Param&lt; ParamType,</text>
<text text-anchor="start" x="382" y="-321" font-family="Helvetica,sans-Serif" font-size="10.00"> std::enable_if_t&lt; !std</text>
<text text-anchor="start" x="382" y="-310" font-family="Helvetica,sans-Serif" font-size="10.00">::is_arithmetic_v&lt; ParamType</text>
<text text-anchor="start" x="382" y="-299" font-family="Helvetica,sans-Serif" font-size="10.00"> &gt; &amp;&amp;!std::is_base_of_v&lt; Text,</text>
<text text-anchor="start" x="382" y="-288" font-family="Helvetica,sans-Serif" font-size="10.00"> ParamType &gt; &amp;&amp;!std::is_base</text>
<text text-anchor="start" x="382" y="-277" font-family="Helvetica,sans-Serif" font-size="10.00">_of_v&lt; TextList, ParamType &gt; &amp;&amp;!std</text>
<text text-anchor="start" x="382" y="-266" font-family="Helvetica,sans-Serif" font-size="10.00">::is_base_of_v&lt; IndexedTextList, ParamType</text>
<text text-anchor="start" x="382" y="-255" font-family="Helvetica,sans-Serif" font-size="10.00"> &gt; &amp;&amp;!std::is_enum_v&lt; ParamType &gt; &amp;&amp;!std</text>
<text text-anchor="middle" x="507" y="-244" font-family="Helvetica,sans-Serif" font-size="10.00">::is_base_of_v&lt; ObjectLinkBase, ParamType &gt; &gt; &gt;</text>
</a>
</g>
</g>
<!-- Node1&#45;&gt;Node7 -->
<g id="edge6" class="edge">
<title>Node1&#45;&gt;Node7</title>
<path fill="none" stroke="midnightblue" d="M348.29,-296C356.62,-296 365.11,-296 373.62,-296"/>
<polygon fill="midnightblue" stroke="midnightblue" points="348.24,-292.5 338.24,-296 348.24,-299.5 348.24,-292.5"/>
</g>
<!-- Node8 -->
<g id="node8" class="node">
<title>Node8</title>
<g id="a_node8"><a xlink:href="classDynExp_1_1ParamsBase_1_1Param_3_01ParamType_00_01std_1_1enable__if__t_3_01std_1_1is__base__61e5ea03adee3aef656dbb91b4f60725.html" target="_top" xlink:title="Parameter for indexed strings selected from a predefined list of strings. If ParamType is of type Par...">
<polygon fill="white" stroke="black" points="419,-154.5 419,-217.5 595,-217.5 595,-154.5 419,-154.5"/>
<text text-anchor="start" x="427" y="-205.5" font-family="Helvetica,sans-Serif" font-size="10.00">DynExp::ParamsBase</text>
<text text-anchor="start" x="427" y="-194.5" font-family="Helvetica,sans-Serif" font-size="10.00">::Param&lt; ParamType,</text>
<text text-anchor="start" x="427" y="-183.5" font-family="Helvetica,sans-Serif" font-size="10.00"> std::enable_if_t&lt; std</text>
<text text-anchor="start" x="427" y="-172.5" font-family="Helvetica,sans-Serif" font-size="10.00">::is_base_of_v&lt; IndexedTextList,</text>
<text text-anchor="middle" x="507" y="-161.5" font-family="Helvetica,sans-Serif" font-size="10.00"> ParamType &gt; &gt; &gt;</text>
</a>
</g>
</g>
<!-- Node1&#45;&gt;Node8 -->
<g id="edge7" class="edge">
<title>Node1&#45;&gt;Node8</title>
<path fill="none" stroke="midnightblue" d="M281.05,-275.52C305.95,-260.68 341.28,-240.88 374,-227 388.25,-220.96 403.7,-215.36 418.84,-210.36"/>
<polygon fill="midnightblue" stroke="midnightblue" points="279.13,-272.59 272.37,-280.74 282.74,-278.58 279.13,-272.59"/>
</g>
<!-- Node9 -->
<g id="node9" class="node">
<title>Node9</title>
<g id="a_node9"><a xlink:href="classDynExp_1_1ParamsBase_1_1Param_3_01ParamType_00_01std_1_1enable__if__t_3_01std_1_1is__base__25c315537ff24e78133025dad145e98b.html" target="_top" xlink:title="Parameter for strings. If ParamType is of type ParamsBase::Text, then extend TypedParamBase&#39;s functio...">
<polygon fill="white" stroke="black" points="402,-83 402,-135 612,-135 612,-83 402,-83"/>
<text text-anchor="start" x="410" y="-123" font-family="Helvetica,sans-Serif" font-size="10.00">DynExp::ParamsBase</text>
<text text-anchor="start" x="410" y="-112" font-family="Helvetica,sans-Serif" font-size="10.00">::Param&lt; ParamType,</text>
<text text-anchor="start" x="410" y="-101" font-family="Helvetica,sans-Serif" font-size="10.00"> std::enable_if_t&lt; std</text>
<text text-anchor="middle" x="507" y="-90" font-family="Helvetica,sans-Serif" font-size="10.00">::is_base_of_v&lt; Text, ParamType &gt; &gt; &gt;</text>
</a>
</g>
</g>
<!-- Node1&#45;&gt;Node9 -->
<g id="edge8" class="edge">
<title>Node1&#45;&gt;Node9</title>
<path fill="none" stroke="midnightblue" d="M261.33,-272.29C281.39,-238.8 322.53,-178.05 374,-145 382.59,-139.48 392.03,-134.8 401.77,-130.83"/>
<polygon fill="midnightblue" stroke="midnightblue" points="258.28,-270.57 256.24,-280.96 264.32,-274.11 258.28,-270.57"/>
</g>
<!-- Node10 -->
<g id="node10" class="node">
<title>Node10</title>
<g id="a_node10"><a xlink:href="classDynExp_1_1ParamsBase_1_1Param_3_01ParamType_00_01std_1_1enable__if__t_3_01std_1_1is__base__2b5582aed1efd379ec593c5120d42ff9.html" target="_top" xlink:title="Parameter for strings selected from a predefined list of strings. If ParamType is of type ParamsBase:...">
<polygon fill="white" stroke="black" points="438.5,-0.5 438.5,-63.5 575.5,-63.5 575.5,-0.5 438.5,-0.5"/>
<text text-anchor="start" x="446.5" y="-51.5" font-family="Helvetica,sans-Serif" font-size="10.00">DynExp::ParamsBase</text>
<text text-anchor="start" x="446.5" y="-40.5" font-family="Helvetica,sans-Serif" font-size="10.00">::Param&lt; ParamType,</text>
<text text-anchor="start" x="446.5" y="-29.5" font-family="Helvetica,sans-Serif" font-size="10.00"> std::enable_if_t&lt; std</text>
<text text-anchor="start" x="446.5" y="-18.5" font-family="Helvetica,sans-Serif" font-size="10.00">::is_base_of_v&lt; TextList,</text>
<text text-anchor="middle" x="507" y="-7.5" font-family="Helvetica,sans-Serif" font-size="10.00"> ParamType &gt; &gt; &gt;</text>
</a>
</g>
</g>
<!-- Node1&#45;&gt;Node10 -->
<g id="edge9" class="edge">
<title>Node1&#45;&gt;Node10</title>
<path fill="none" stroke="midnightblue" d="M255.22,-271.24C269.88,-225.28 307.54,-126.62 374,-73 392.4,-58.16 416.18,-48.67 438.48,-42.61"/>
<polygon fill="midnightblue" stroke="midnightblue" points="251.82,-270.38 252.21,-280.97 258.51,-272.45 251.82,-270.38"/>
</g>
<!-- Node2 -->
<g id="node2" class="node">
<title>Node2</title>
<g id="a_node2"><a xlink:href="classDynExp_1_1ParamsBase_1_1ParamBase.html" target="_top" xlink:title="Abstract base class for a single object parameter. Parameters derived from this class are automatical...">
<polygon fill="white" stroke="black" points="0,-281 0,-311 120,-311 120,-281 0,-281"/>
<text text-anchor="start" x="8" y="-299" font-family="Helvetica,sans-Serif" font-size="10.00">DynExp::ParamsBase</text>
<text text-anchor="middle" x="60" y="-288" font-family="Helvetica,sans-Serif" font-size="10.00">::ParamBase</text>
</a>
</g>
</g>
<!-- Node2&#45;&gt;Node1 -->
<g id="edge1" class="edge">
<title>Node2&#45;&gt;Node1</title>
<path fill="none" stroke="midnightblue" d="M130.12,-296C138.52,-296 147.18,-296 155.82,-296"/>
<polygon fill="midnightblue" stroke="midnightblue" points="130.04,-292.5 120.04,-296 130.04,-299.5 130.04,-292.5"/>
</g>
<!-- Node4 -->
<g id="node4" class="node">
<title>Node4</title>
<g id="a_node4"><a xlink:href="classDynExp_1_1ParamsBase_1_1Param_3_01LinkType_00_01std_1_1enable__if__t_3_01std_1_1is__base__odd85ddee3349917fa7e32c83ff1f8ec2.html" target="_top" xlink:title="Parameter for links to a single Object. If LinkType is derived from ObjectLinkBase,...">
<polygon fill="white" stroke="black" points="676,-499.5 676,-562.5 837,-562.5 837,-499.5 676,-499.5"/>
<text text-anchor="start" x="684" y="-550.5" font-family="Helvetica,sans-Serif" font-size="10.00">DynExp::ParamsBase</text>
<text text-anchor="start" x="684" y="-539.5" font-family="Helvetica,sans-Serif" font-size="10.00">::Param&lt; LinkType, std</text>
<text text-anchor="start" x="684" y="-528.5" font-family="Helvetica,sans-Serif" font-size="10.00">::enable_if_t&lt; std::is</text>
<text text-anchor="start" x="684" y="-517.5" font-family="Helvetica,sans-Serif" font-size="10.00">_base_of_v&lt; ObjectLinkBase,</text>
<text text-anchor="middle" x="756.5" y="-506.5" font-family="Helvetica,sans-Serif" font-size="10.00"> LinkType &gt; &gt; &gt;</text>
</a>
</g>
</g>
<!-- Node3&#45;&gt;Node4 -->
<g id="edge3" class="edge">
<title>Node3&#45;&gt;Node4</title>
<path fill="none" stroke="midnightblue" d="M605.49,-531C628.74,-531 653.29,-531 675.64,-531"/>
<polygon fill="midnightblue" stroke="midnightblue" points="605.26,-527.5 595.26,-531 605.26,-534.5 605.26,-527.5"/>
</g>
</g>
</svg>
