<?xml version="1.0" encoding="UTF-8" standalone="no"?>
<!DOCTYPE svg PUBLIC "-//W3C//DTD SVG 1.1//EN"
 "http://www.w3.org/Graphics/SVG/1.1/DTD/svg11.dtd">
<!-- Generated by graphviz version 2.43.0 (0)
 -->
<!-- Title: DynExpInstr::ZI_MFLITasks::ZI_MFLITaskBase Pages: 1 -->
<svg width="340pt" height="921pt"
 viewBox="0.00 0.00 340.00 921.00" xmlns="http://www.w3.org/2000/svg" xmlns:xlink="http://www.w3.org/1999/xlink">
<g id="graph0" class="graph" transform="scale(1 1) rotate(0) translate(4 917)">
<title>DynExpInstr::ZI_MFLITasks::ZI_MFLITaskBase</title>
<polygon fill="white" stroke="transparent" points="-4,4 -4,-917 336,-917 336,4 -4,4"/>
<!-- Node1 -->
<g id="node1" class="node">
<title>Node1</title>
<g id="a_node1"><a xlink:title=" ">
<polygon fill="#bfbfbf" stroke="black" points="0,-441.5 0,-471.5 147,-471.5 147,-441.5 0,-441.5"/>
<text text-anchor="start" x="8" y="-459.5" font-family="Helvetica,sans-Serif" font-size="10.00">DynExpInstr::ZI_MFLITasks</text>
<text text-anchor="middle" x="73.5" y="-448.5" font-family="Helvetica,sans-Serif" font-size="10.00">::ZI_MFLITaskBase</text>
</a>
</g>
</g>
<!-- Node2 -->
<g id="node2" class="node">
<title>Node2</title>
<g id="a_node2"><a xlink:href="classDynExpInstr_1_1ZI__MFLITasks_1_1AutoAdjustPhaseTask.html" target="_top" xlink:title=" ">
<polygon fill="white" stroke="black" points="184,-882.5 184,-912.5 331,-912.5 331,-882.5 184,-882.5"/>
<text text-anchor="start" x="192" y="-900.5" font-family="Helvetica,sans-Serif" font-size="10.00">DynExpInstr::ZI_MFLITasks</text>
<text text-anchor="middle" x="257.5" y="-889.5" font-family="Helvetica,sans-Serif" font-size="10.00">::AutoAdjustPhaseTask</text>
</a>
</g>
</g>
<!-- Node1&#45;&gt;Node2 -->
<g id="edge1" class="edge">
<title>Node1&#45;&gt;Node2</title>
<path fill="none" stroke="#8b1a1a" d="M77.88,-481.85C89.21,-563.12 128.17,-815.22 183,-873.5 186.22,-876.92 189.93,-879.86 193.94,-882.37"/>
<polygon fill="#8b1a1a" stroke="#8b1a1a" points="81.3,-480.99 76.47,-471.56 74.36,-481.94 81.3,-480.99"/>
</g>
<!-- Node3 -->
<g id="node3" class="node">
<title>Node3</title>
<g id="a_node3"><a xlink:href="classDynExpInstr_1_1ZI__MFLITasks_1_1AutoAdjustSensitivityTask.html" target="_top" xlink:title=" ">
<polygon fill="white" stroke="black" points="183,-833.5 183,-863.5 332,-863.5 332,-833.5 183,-833.5"/>
<text text-anchor="start" x="191" y="-851.5" font-family="Helvetica,sans-Serif" font-size="10.00">DynExpInstr::ZI_MFLITasks</text>
<text text-anchor="middle" x="257.5" y="-840.5" font-family="Helvetica,sans-Serif" font-size="10.00">::AutoAdjustSensitivityTask</text>
</a>
</g>
</g>
<!-- Node1&#45;&gt;Node3 -->
<g id="edge2" class="edge">
<title>Node1&#45;&gt;Node3</title>
<path fill="none" stroke="#8b1a1a" d="M74.36,-481.79C75.39,-547.63 87.35,-726.05 183,-824.5 186.37,-827.97 190.24,-830.93 194.41,-833.47"/>
<polygon fill="#8b1a1a" stroke="#8b1a1a" points="77.85,-481.51 74.27,-471.53 70.86,-481.56 77.85,-481.51"/>
</g>
<!-- Node4 -->
<g id="node4" class="node">
<title>Node4</title>
<g id="a_node4"><a xlink:href="classDynExpInstr_1_1ZI__MFLITasks_1_1ClearDataTask.html" target="_top" xlink:title=" ">
<polygon fill="white" stroke="black" points="184,-784.5 184,-814.5 331,-814.5 331,-784.5 184,-784.5"/>
<text text-anchor="start" x="192" y="-802.5" font-family="Helvetica,sans-Serif" font-size="10.00">DynExpInstr::ZI_MFLITasks</text>
<text text-anchor="middle" x="257.5" y="-791.5" font-family="Helvetica,sans-Serif" font-size="10.00">::ClearDataTask</text>
</a>
</g>
</g>
<!-- Node1&#45;&gt;Node4 -->
<g id="edge3" class="edge">
<title>Node1&#45;&gt;Node4</title>
<path fill="none" stroke="#8b1a1a" d="M75.7,-481.65C79.91,-541.25 98.77,-692.29 183,-775.5 186.44,-778.9 190.36,-781.81 194.57,-784.31"/>
<polygon fill="#8b1a1a" stroke="#8b1a1a" points="79.19,-481.39 75.07,-471.62 72.2,-481.82 79.19,-481.39"/>
</g>
<!-- Node5 -->
<g id="node5" class="node">
<title>Node5</title>
<g id="a_node5"><a xlink:href="classDynExpInstr_1_1ZI__MFLITasks_1_1ExitTask.html" target="_top" xlink:title=" ">
<polygon fill="white" stroke="black" points="184,-735.5 184,-765.5 331,-765.5 331,-735.5 184,-735.5"/>
<text text-anchor="start" x="192" y="-753.5" font-family="Helvetica,sans-Serif" font-size="10.00">DynExpInstr::ZI_MFLITasks</text>
<text text-anchor="middle" x="257.5" y="-742.5" font-family="Helvetica,sans-Serif" font-size="10.00">::ExitTask</text>
</a>
</g>
</g>
<!-- Node1&#45;&gt;Node5 -->
<g id="edge4" class="edge">
<title>Node1&#45;&gt;Node5</title>
<path fill="none" stroke="#8b1a1a" d="M77.5,-481.71C85.14,-534.7 110.16,-658.35 183,-726.5 186.63,-729.89 190.74,-732.81 195.12,-735.31"/>
<polygon fill="#8b1a1a" stroke="#8b1a1a" points="80.93,-480.96 76.12,-471.52 73.99,-481.9 80.93,-480.96"/>
</g>
<!-- Node6 -->
<g id="node6" class="node">
<title>Node6</title>
<g id="a_node6"><a xlink:href="classDynExpInstr_1_1ZI__MFLITasks_1_1ForceTriggerTask.html" target="_top" xlink:title=" ">
<polygon fill="white" stroke="black" points="184,-686.5 184,-716.5 331,-716.5 331,-686.5 184,-686.5"/>
<text text-anchor="start" x="192" y="-704.5" font-family="Helvetica,sans-Serif" font-size="10.00">DynExpInstr::ZI_MFLITasks</text>
<text text-anchor="middle" x="257.5" y="-693.5" font-family="Helvetica,sans-Serif" font-size="10.00">::ForceTriggerTask</text>
</a>
</g>
</g>
<!-- Node1&#45;&gt;Node6 -->
<g id="edge5" class="edge">
<title>Node1&#45;&gt;Node6</title>
<path fill="none" stroke="#8b1a1a" d="M79.98,-481.53C91.24,-527.12 121.3,-623.93 183,-677.5 186.95,-680.93 191.41,-683.88 196.12,-686.4"/>
<polygon fill="#8b1a1a" stroke="#8b1a1a" points="83.34,-480.53 77.63,-471.6 76.53,-482.14 83.34,-480.53"/>
</g>
<!-- Node7 -->
<g id="node7" class="node">
<title>Node7</title>
<g id="a_node7"><a xlink:href="classDynExpInstr_1_1ZI__MFLITasks_1_1InitTask.html" target="_top" xlink:title=" ">
<polygon fill="white" stroke="black" points="184,-637.5 184,-667.5 331,-667.5 331,-637.5 184,-637.5"/>
<text text-anchor="start" x="192" y="-655.5" font-family="Helvetica,sans-Serif" font-size="10.00">DynExpInstr::ZI_MFLITasks</text>
<text text-anchor="middle" x="257.5" y="-644.5" font-family="Helvetica,sans-Serif" font-size="10.00">::InitTask</text>
</a>
</g>
</g>
<!-- Node1&#45;&gt;Node7 -->
<g id="edge6" class="edge">
<title>Node1&#45;&gt;Node7</title>
<path fill="none" stroke="#8b1a1a" d="M83.66,-481.19C98.72,-518.46 132.21,-588.93 183,-628.5 187.45,-631.96 192.41,-634.94 197.61,-637.49"/>
<polygon fill="#8b1a1a" stroke="#8b1a1a" points="86.81,-479.64 79.9,-471.61 80.3,-482.2 86.81,-479.64"/>
</g>
<!-- Node8 -->
<g id="node8" class="node">
<title>Node8</title>
<g id="a_node8"><a xlink:href="classDynExpInstr_1_1ZI__MFLITasks_1_1ReadTask.html" target="_top" xlink:title=" ">
<polygon fill="white" stroke="black" points="184,-588.5 184,-618.5 331,-618.5 331,-588.5 184,-588.5"/>
<text text-anchor="start" x="192" y="-606.5" font-family="Helvetica,sans-Serif" font-size="10.00">DynExpInstr::ZI_MFLITasks</text>
<text text-anchor="middle" x="257.5" y="-595.5" font-family="Helvetica,sans-Serif" font-size="10.00">::ReadTask</text>
</a>
</g>
</g>
<!-- Node1&#45;&gt;Node8 -->
<g id="edge7" class="edge">
<title>Node1&#45;&gt;Node8</title>
<path fill="none" stroke="#8b1a1a" d="M89.68,-480.35C108.43,-507.97 142.82,-553.07 183,-579.5 188.16,-582.89 193.84,-585.84 199.68,-588.4"/>
<polygon fill="#8b1a1a" stroke="#8b1a1a" points="92.38,-478.09 83.93,-471.7 86.55,-481.96 92.38,-478.09"/>
</g>
<!-- Node9 -->
<g id="node9" class="node">
<title>Node9</title>
<g id="a_node9"><a xlink:href="classDynExpInstr_1_1ZI__MFLITasks_1_1SetEnableTask.html" target="_top" xlink:title=" ">
<polygon fill="white" stroke="black" points="184,-539.5 184,-569.5 331,-569.5 331,-539.5 184,-539.5"/>
<text text-anchor="start" x="192" y="-557.5" font-family="Helvetica,sans-Serif" font-size="10.00">DynExpInstr::ZI_MFLITasks</text>
<text text-anchor="middle" x="257.5" y="-546.5" font-family="Helvetica,sans-Serif" font-size="10.00">::SetEnableTask</text>
</a>
</g>
</g>
<!-- Node1&#45;&gt;Node9 -->
<g id="edge8" class="edge">
<title>Node1&#45;&gt;Node9</title>
<path fill="none" stroke="#8b1a1a" d="M101.26,-477.94C122.46,-494.1 153.33,-515.91 183,-530.5 189.62,-533.76 196.8,-536.72 203.97,-539.37"/>
<polygon fill="#8b1a1a" stroke="#8b1a1a" points="103.14,-474.96 93.09,-471.61 98.85,-480.5 103.14,-474.96"/>
</g>
<!-- Node10 -->
<g id="node10" class="node">
<title>Node10</title>
<g id="a_node10"><a xlink:href="classDynExpInstr_1_1ZI__MFLITasks_1_1SetFilterOrderTask.html" target="_top" xlink:title=" ">
<polygon fill="white" stroke="black" points="184,-490.5 184,-520.5 331,-520.5 331,-490.5 184,-490.5"/>
<text text-anchor="start" x="192" y="-508.5" font-family="Helvetica,sans-Serif" font-size="10.00">DynExpInstr::ZI_MFLITasks</text>
<text text-anchor="middle" x="257.5" y="-497.5" font-family="Helvetica,sans-Serif" font-size="10.00">::SetFilterOrderTask</text>
</a>
</g>
</g>
<!-- Node1&#45;&gt;Node10 -->
<g id="edge9" class="edge">
<title>Node1&#45;&gt;Node10</title>
<path fill="none" stroke="#8b1a1a" d="M140.42,-474.25C160.15,-479.56 181.58,-485.33 200.59,-490.45"/>
<polygon fill="#8b1a1a" stroke="#8b1a1a" points="141.16,-470.82 130.59,-471.6 139.34,-477.58 141.16,-470.82"/>
</g>
<!-- Node11 -->
<g id="node11" class="node">
<title>Node11</title>
<g id="a_node11"><a xlink:href="classDynExpInstr_1_1ZI__MFLITasks_1_1SetPhaseTask.html" target="_top" xlink:title=" ">
<polygon fill="white" stroke="black" points="184,-441.5 184,-471.5 331,-471.5 331,-441.5 184,-441.5"/>
<text text-anchor="start" x="192" y="-459.5" font-family="Helvetica,sans-Serif" font-size="10.00">DynExpInstr::ZI_MFLITasks</text>
<text text-anchor="middle" x="257.5" y="-448.5" font-family="Helvetica,sans-Serif" font-size="10.00">::SetPhaseTask</text>
</a>
</g>
</g>
<!-- Node1&#45;&gt;Node11 -->
<g id="edge10" class="edge">
<title>Node1&#45;&gt;Node11</title>
<path fill="none" stroke="#8b1a1a" d="M157.49,-456.5C166.31,-456.5 175.22,-456.5 183.9,-456.5"/>
<polygon fill="#8b1a1a" stroke="#8b1a1a" points="157.22,-453 147.22,-456.5 157.22,-460 157.22,-453"/>
</g>
<!-- Node12 -->
<g id="node12" class="node">
<title>Node12</title>
<g id="a_node12"><a xlink:href="classDynExpInstr_1_1ZI__MFLITasks_1_1SetSamplingRateTask.html" target="_top" xlink:title=" ">
<polygon fill="white" stroke="black" points="184,-392.5 184,-422.5 331,-422.5 331,-392.5 184,-392.5"/>
<text text-anchor="start" x="192" y="-410.5" font-family="Helvetica,sans-Serif" font-size="10.00">DynExpInstr::ZI_MFLITasks</text>
<text text-anchor="middle" x="257.5" y="-399.5" font-family="Helvetica,sans-Serif" font-size="10.00">::SetSamplingRateTask</text>
</a>
</g>
</g>
<!-- Node1&#45;&gt;Node12 -->
<g id="edge11" class="edge">
<title>Node1&#45;&gt;Node12</title>
<path fill="none" stroke="#8b1a1a" d="M140.42,-438.75C160.15,-433.44 181.58,-427.67 200.59,-422.55"/>
<polygon fill="#8b1a1a" stroke="#8b1a1a" points="139.34,-435.42 130.59,-441.4 141.16,-442.18 139.34,-435.42"/>
</g>
<!-- Node13 -->
<g id="node13" class="node">
<title>Node13</title>
<g id="a_node13"><a xlink:href="classDynExpInstr_1_1ZI__MFLITasks_1_1SetSensitivityTask.html" target="_top" xlink:title=" ">
<polygon fill="white" stroke="black" points="184,-343.5 184,-373.5 331,-373.5 331,-343.5 184,-343.5"/>
<text text-anchor="start" x="192" y="-361.5" font-family="Helvetica,sans-Serif" font-size="10.00">DynExpInstr::ZI_MFLITasks</text>
<text text-anchor="middle" x="257.5" y="-350.5" font-family="Helvetica,sans-Serif" font-size="10.00">::SetSensitivityTask</text>
</a>
</g>
</g>
<!-- Node1&#45;&gt;Node13 -->
<g id="edge12" class="edge">
<title>Node1&#45;&gt;Node13</title>
<path fill="none" stroke="#8b1a1a" d="M101.75,-435.19C122.98,-419.34 153.68,-398.03 183,-383.5 190.37,-379.85 198.4,-376.52 206.35,-373.56"/>
<polygon fill="#8b1a1a" stroke="#8b1a1a" points="99.4,-432.57 93.54,-441.4 103.63,-438.16 99.4,-432.57"/>
</g>
<!-- Node14 -->
<g id="node14" class="node">
<title>Node14</title>
<g id="a_node14"><a xlink:href="classDynExpInstr_1_1ZI__MFLITasks_1_1SetSignalTypeTask.html" target="_top" xlink:title=" ">
<polygon fill="white" stroke="black" points="184,-294.5 184,-324.5 331,-324.5 331,-294.5 184,-294.5"/>
<text text-anchor="start" x="192" y="-312.5" font-family="Helvetica,sans-Serif" font-size="10.00">DynExpInstr::ZI_MFLITasks</text>
<text text-anchor="middle" x="257.5" y="-301.5" font-family="Helvetica,sans-Serif" font-size="10.00">::SetSignalTypeTask</text>
</a>
</g>
</g>
<!-- Node1&#45;&gt;Node14 -->
<g id="edge13" class="edge">
<title>Node1&#45;&gt;Node14</title>
<path fill="none" stroke="#8b1a1a" d="M89.78,-432.94C108.62,-405.62 143.11,-360.97 183,-334.5 188.73,-330.7 195.09,-327.42 201.61,-324.61"/>
<polygon fill="#8b1a1a" stroke="#8b1a1a" points="86.7,-431.24 84,-441.49 92.5,-435.16 86.7,-431.24"/>
</g>
<!-- Node15 -->
<g id="node15" class="node">
<title>Node15</title>
<g id="a_node15"><a xlink:href="classDynExpInstr_1_1ZI__MFLITasks_1_1SetTimeConstantTask.html" target="_top" xlink:title=" ">
<polygon fill="white" stroke="black" points="184,-245.5 184,-275.5 331,-275.5 331,-245.5 184,-245.5"/>
<text text-anchor="start" x="192" y="-263.5" font-family="Helvetica,sans-Serif" font-size="10.00">DynExpInstr::ZI_MFLITasks</text>
<text text-anchor="middle" x="257.5" y="-252.5" font-family="Helvetica,sans-Serif" font-size="10.00">::SetTimeConstantTask</text>
</a>
</g>
</g>
<!-- Node1&#45;&gt;Node15 -->
<g id="edge14" class="edge">
<title>Node1&#45;&gt;Node15</title>
<path fill="none" stroke="#8b1a1a" d="M83.88,-431.75C99.12,-394.73 132.74,-325.05 183,-285.5 187.87,-281.67 193.37,-278.4 199.1,-275.63"/>
<polygon fill="#8b1a1a" stroke="#8b1a1a" points="80.53,-430.69 80.06,-441.28 87.03,-433.29 80.53,-430.69"/>
</g>
<!-- Node16 -->
<g id="node16" class="node">
<title>Node16</title>
<g id="a_node16"><a xlink:href="classDynExpInstr_1_1ZI__MFLITasks_1_1SetTriggerEdgeTask.html" target="_top" xlink:title=" ">
<polygon fill="white" stroke="black" points="184,-196.5 184,-226.5 331,-226.5 331,-196.5 184,-196.5"/>
<text text-anchor="start" x="192" y="-214.5" font-family="Helvetica,sans-Serif" font-size="10.00">DynExpInstr::ZI_MFLITasks</text>
<text text-anchor="middle" x="257.5" y="-203.5" font-family="Helvetica,sans-Serif" font-size="10.00">::SetTriggerEdgeTask</text>
</a>
</g>
</g>
<!-- Node1&#45;&gt;Node16 -->
<g id="edge15" class="edge">
<title>Node1&#45;&gt;Node16</title>
<path fill="none" stroke="#8b1a1a" d="M80.16,-431.32C91.65,-385.92 121.95,-290.07 183,-236.5 187.36,-232.68 192.32,-229.43 197.57,-226.68"/>
<polygon fill="#8b1a1a" stroke="#8b1a1a" points="76.71,-430.68 77.75,-441.22 83.52,-432.33 76.71,-430.68"/>
</g>
<!-- Node17 -->
<g id="node17" class="node">
<title>Node17</title>
<g id="a_node17"><a xlink:href="classDynExpInstr_1_1ZI__MFLITasks_1_1SetTriggerModeTask.html" target="_top" xlink:title=" ">
<polygon fill="white" stroke="black" points="184,-147.5 184,-177.5 331,-177.5 331,-147.5 184,-147.5"/>
<text text-anchor="start" x="192" y="-165.5" font-family="Helvetica,sans-Serif" font-size="10.00">DynExpInstr::ZI_MFLITasks</text>
<text text-anchor="middle" x="257.5" y="-154.5" font-family="Helvetica,sans-Serif" font-size="10.00">::SetTriggerModeTask</text>
</a>
</g>
</g>
<!-- Node1&#45;&gt;Node17 -->
<g id="edge16" class="edge">
<title>Node1&#45;&gt;Node17</title>
<path fill="none" stroke="#8b1a1a" d="M77.65,-431.08C85.53,-378.2 110.94,-255.67 183,-187.5 187.11,-183.61 191.85,-180.32 196.91,-177.55"/>
<polygon fill="#8b1a1a" stroke="#8b1a1a" points="74.15,-430.87 76.22,-441.26 81.08,-431.84 74.15,-430.87"/>
</g>
<!-- Node18 -->
<g id="node18" class="node">
<title>Node18</title>
<g id="a_node18"><a xlink:href="classDynExpInstr_1_1ZI__MFLITasks_1_1StartTask.html" target="_top" xlink:title=" ">
<polygon fill="white" stroke="black" points="184,-98.5 184,-128.5 331,-128.5 331,-98.5 184,-98.5"/>
<text text-anchor="start" x="192" y="-116.5" font-family="Helvetica,sans-Serif" font-size="10.00">DynExpInstr::ZI_MFLITasks</text>
<text text-anchor="middle" x="257.5" y="-105.5" font-family="Helvetica,sans-Serif" font-size="10.00">::StartTask</text>
</a>
</g>
</g>
<!-- Node1&#45;&gt;Node18 -->
<g id="edge17" class="edge">
<title>Node1&#45;&gt;Node18</title>
<path fill="none" stroke="#8b1a1a" d="M75.82,-431.12C80.28,-371.6 99.65,-221.77 183,-138.5 186.91,-134.59 191.45,-131.3 196.32,-128.52"/>
<polygon fill="#8b1a1a" stroke="#8b1a1a" points="72.3,-431.25 75.13,-441.46 79.29,-431.72 72.3,-431.25"/>
</g>
<!-- Node19 -->
<g id="node19" class="node">
<title>Node19</title>
<g id="a_node19"><a xlink:href="classDynExpInstr_1_1ZI__MFLITasks_1_1StopTask.html" target="_top" xlink:title=" ">
<polygon fill="white" stroke="black" points="184,-49.5 184,-79.5 331,-79.5 331,-49.5 184,-49.5"/>
<text text-anchor="start" x="192" y="-67.5" font-family="Helvetica,sans-Serif" font-size="10.00">DynExpInstr::ZI_MFLITasks</text>
<text text-anchor="middle" x="257.5" y="-56.5" font-family="Helvetica,sans-Serif" font-size="10.00">::StopTask</text>
</a>
</g>
</g>
<!-- Node1&#45;&gt;Node19 -->
<g id="edge18" class="edge">
<title>Node1&#45;&gt;Node19</title>
<path fill="none" stroke="#8b1a1a" d="M74.46,-430.89C75.76,-365.02 88.38,-188.03 183,-89.5 186.73,-85.61 191.1,-82.33 195.8,-79.55"/>
<polygon fill="#8b1a1a" stroke="#8b1a1a" points="70.95,-431.12 74.33,-441.17 77.95,-431.21 70.95,-431.12"/>
</g>
<!-- Node20 -->
<g id="node20" class="node">
<title>Node20</title>
<g id="a_node20"><a xlink:href="classDynExpInstr_1_1ZI__MFLITasks_1_1UpdateTask.html" target="_top" xlink:title=" ">
<polygon fill="white" stroke="black" points="184,-0.5 184,-30.5 331,-30.5 331,-0.5 184,-0.5"/>
<text text-anchor="start" x="192" y="-18.5" font-family="Helvetica,sans-Serif" font-size="10.00">DynExpInstr::ZI_MFLITasks</text>
<text text-anchor="middle" x="257.5" y="-7.5" font-family="Helvetica,sans-Serif" font-size="10.00">::UpdateTask</text>
</a>
</g>
</g>
<!-- Node1&#45;&gt;Node20 -->
<g id="edge19" class="edge">
<title>Node1&#45;&gt;Node20</title>
<path fill="none" stroke="#8b1a1a" d="M77.92,-431.23C89.36,-350.24 128.63,-98.97 183,-40.5 186.58,-36.65 190.77,-33.39 195.31,-30.64"/>
<polygon fill="#8b1a1a" stroke="#8b1a1a" points="74.41,-431.11 76.49,-441.49 81.34,-432.07 74.41,-431.11"/>
</g>
</g>
</svg>
