<?xml version="1.0" encoding="UTF-8" standalone="no"?>
<!DOCTYPE svg PUBLIC "-//W3C//DTD SVG 1.1//EN"
 "http://www.w3.org/Graphics/SVG/1.1/DTD/svg11.dtd">
<!-- Generated by graphviz version 2.43.0 (0)
 -->
<!-- Title: DynExpInstr::LockinAmplifierData Pages: 1 -->
<svg width="225pt" height="319pt"
 viewBox="0.00 0.00 225.00 319.00" xmlns="http://www.w3.org/2000/svg" xmlns:xlink="http://www.w3.org/1999/xlink">
<g id="graph0" class="graph" transform="scale(1 1) rotate(0) translate(4 315)">
<title>DynExpInstr::LockinAmplifierData</title>
<polygon fill="white" stroke="transparent" points="-4,4 -4,-315 221,-315 221,4 -4,4"/>
<!-- Node1 -->
<g id="node1" class="node">
<title>Node1</title>
<g id="a_node1"><a xlink:title="Data class for LockinAmplifier.">
<polygon fill="#bfbfbf" stroke="black" points="18,-56.5 18,-75.5 199,-75.5 199,-56.5 18,-56.5"/>
<text text-anchor="middle" x="108.5" y="-63.5" font-family="Helvetica,sans-Serif" font-size="10.00">DynExpInstr::LockinAmplifierData</text>
</a>
</g>
</g>
<!-- Node6 -->
<g id="node6" class="node">
<title>Node6</title>
<g id="a_node6"><a xlink:href="classDynExpInstr_1_1ZI__MFLIData.html" target="_top" xlink:title=" ">
<polygon fill="white" stroke="black" points="37,-0.5 37,-19.5 180,-19.5 180,-0.5 37,-0.5"/>
<text text-anchor="middle" x="108.5" y="-7.5" font-family="Helvetica,sans-Serif" font-size="10.00">DynExpInstr::ZI_MFLIData</text>
</a>
</g>
</g>
<!-- Node1&#45;&gt;Node6 -->
<g id="edge5" class="edge">
<title>Node1&#45;&gt;Node6</title>
<path fill="none" stroke="midnightblue" d="M108.5,-45.8C108.5,-36.91 108.5,-26.78 108.5,-19.75"/>
<polygon fill="midnightblue" stroke="midnightblue" points="105,-46.08 108.5,-56.08 112,-46.08 105,-46.08"/>
</g>
<!-- Node2 -->
<g id="node2" class="node">
<title>Node2</title>
<g id="a_node2"><a xlink:href="classDynExpInstr_1_1DataStreamInstrumentData.html" target="_top" xlink:title="Data class for DataStreamInstrument.">
<polygon fill="white" stroke="black" points="0,-112.5 0,-131.5 217,-131.5 217,-112.5 0,-112.5"/>
<text text-anchor="middle" x="108.5" y="-119.5" font-family="Helvetica,sans-Serif" font-size="10.00">DynExpInstr::DataStreamInstrumentData</text>
</a>
</g>
</g>
<!-- Node2&#45;&gt;Node1 -->
<g id="edge1" class="edge">
<title>Node2&#45;&gt;Node1</title>
<path fill="none" stroke="midnightblue" d="M108.5,-101.8C108.5,-92.91 108.5,-82.78 108.5,-75.75"/>
<polygon fill="midnightblue" stroke="midnightblue" points="105,-102.08 108.5,-112.08 112,-102.08 105,-102.08"/>
</g>
<!-- Node3 -->
<g id="node3" class="node">
<title>Node3</title>
<g id="a_node3"><a xlink:href="classDynExp_1_1InstrumentDataBase.html" target="_top" xlink:title="Data structure to contain data which is synchronized in between different threads....">
<polygon fill="white" stroke="black" points="28,-168.5 28,-187.5 189,-187.5 189,-168.5 28,-168.5"/>
<text text-anchor="middle" x="108.5" y="-175.5" font-family="Helvetica,sans-Serif" font-size="10.00">DynExp::InstrumentDataBase</text>
</a>
</g>
</g>
<!-- Node3&#45;&gt;Node2 -->
<g id="edge2" class="edge">
<title>Node3&#45;&gt;Node2</title>
<path fill="none" stroke="midnightblue" d="M108.5,-157.8C108.5,-148.91 108.5,-138.78 108.5,-131.75"/>
<polygon fill="midnightblue" stroke="midnightblue" points="105,-158.08 108.5,-168.08 112,-158.08 105,-158.08"/>
</g>
<!-- Node4 -->
<g id="node4" class="node">
<title>Node4</title>
<g id="a_node4"><a xlink:href="classUtil_1_1ISynchronizedPointerLockable.html" target="_top" xlink:title="Interface to allow synchronizing the access to derived classes between different threads by making th...">
<polygon fill="white" stroke="black" points="37,-224.5 37,-254.5 180,-254.5 180,-224.5 37,-224.5"/>
<text text-anchor="start" x="45" y="-242.5" font-family="Helvetica,sans-Serif" font-size="10.00">Util::ISynchronizedPointer</text>
<text text-anchor="middle" x="108.5" y="-231.5" font-family="Helvetica,sans-Serif" font-size="10.00">Lockable</text>
</a>
</g>
</g>
<!-- Node4&#45;&gt;Node3 -->
<g id="edge3" class="edge">
<title>Node4&#45;&gt;Node3</title>
<path fill="none" stroke="midnightblue" d="M108.5,-214.29C108.5,-204.86 108.5,-194.65 108.5,-187.66"/>
<polygon fill="midnightblue" stroke="midnightblue" points="105,-214.4 108.5,-224.4 112,-214.4 105,-214.4"/>
</g>
<!-- Node5 -->
<g id="node5" class="node">
<title>Node5</title>
<g id="a_node5"><a xlink:href="classUtil_1_1INonCopyable.html" target="_top" xlink:title="Interface to delete copy constructor and copy assignment operator and thus make derived classes non&#45;c...">
<polygon fill="white" stroke="black" points="54.5,-291.5 54.5,-310.5 162.5,-310.5 162.5,-291.5 54.5,-291.5"/>
<text text-anchor="middle" x="108.5" y="-298.5" font-family="Helvetica,sans-Serif" font-size="10.00">Util::INonCopyable</text>
</a>
</g>
</g>
<!-- Node5&#45;&gt;Node4 -->
<g id="edge4" class="edge">
<title>Node5&#45;&gt;Node4</title>
<path fill="none" stroke="midnightblue" d="M108.5,-281.23C108.5,-272.59 108.5,-262.5 108.5,-254.52"/>
<polygon fill="midnightblue" stroke="midnightblue" points="105,-281.48 108.5,-291.48 112,-281.48 105,-281.48"/>
</g>
</g>
</svg>
