<?xml version="1.0" encoding="UTF-8" standalone="no"?>
<!DOCTYPE svg PUBLIC "-//W3C//DTD SVG 1.1//EN"
 "http://www.w3.org/Graphics/SVG/1.1/DTD/svg11.dtd">
<!-- Generated by graphviz version 2.43.0 (0)
 -->
<!-- Title: DynExpModule::NetworkDataStreamInstrumentT&lt; gRPCServices &gt;::CallDataSetStreamSize Pages: 1 -->
<svg width="529pt" height="83pt"
 viewBox="0.00 0.00 529.00 83.00" xmlns="http://www.w3.org/2000/svg" xmlns:xlink="http://www.w3.org/1999/xlink">
<g id="graph0" class="graph" transform="scale(1 1) rotate(0) translate(4 79)">
<title>DynExpModule::NetworkDataStreamInstrumentT&lt; gRPCServices &gt;::CallDataSetStreamSize</title>
<polygon fill="white" stroke="transparent" points="-4,4 -4,-79 525,-79 525,4 -4,4"/>
<!-- Node1 -->
<g id="node1" class="node">
<title>Node1</title>
<g id="a_node1"><a xlink:title=" ">
<polygon fill="#bfbfbf" stroke="black" points="332,-17 332,-58 521,-58 521,-17 332,-17"/>
<text text-anchor="start" x="340" y="-46" font-family="Helvetica,sans-Serif" font-size="10.00">DynExpModule::NetworkData</text>
<text text-anchor="start" x="340" y="-35" font-family="Helvetica,sans-Serif" font-size="10.00">StreamInstrumentT&lt; gRPCServices</text>
<text text-anchor="middle" x="426.5" y="-24" font-family="Helvetica,sans-Serif" font-size="10.00"> &gt;::CallDataSetStreamSize</text>
</a>
</g>
</g>
<!-- Node2 -->
<g id="node2" class="node">
<title>Node2</title>
<g id="a_node2"><a xlink:title=" ">
<polygon fill="white" stroke="#bfbfbf" points="0,-0.5 0,-74.5 296,-74.5 296,-0.5 0,-0.5"/>
<text text-anchor="start" x="8" y="-62.5" font-family="Helvetica,sans-Serif" font-size="10.00">gRPCModule::template</text>
<text text-anchor="start" x="8" y="-51.5" font-family="Helvetica,sans-Serif" font-size="10.00"> TypedCallDataBase&lt; CallData</text>
<text text-anchor="start" x="8" y="-40.5" font-family="Helvetica,sans-Serif" font-size="10.00">SetStreamSize, ThisServiceType,</text>
<text text-anchor="start" x="8" y="-29.5" font-family="Helvetica,sans-Serif" font-size="10.00"> DynExpProto::NetworkDataStreamInstrument</text>
<text text-anchor="start" x="8" y="-18.5" font-family="Helvetica,sans-Serif" font-size="10.00">::StreamSizeMessage, DynExpProto::NetworkDataStream</text>
<text text-anchor="middle" x="148" y="-7.5" font-family="Helvetica,sans-Serif" font-size="10.00">Instrument::StreamSizeMessage &gt;</text>
</a>
</g>
</g>
<!-- Node2&#45;&gt;Node1 -->
<g id="edge1" class="edge">
<title>Node2&#45;&gt;Node1</title>
<path fill="none" stroke="midnightblue" d="M306.35,-37.5C315.01,-37.5 323.56,-37.5 331.87,-37.5"/>
<polygon fill="midnightblue" stroke="midnightblue" points="306.16,-34 296.16,-37.5 306.16,-41 306.16,-34"/>
</g>
</g>
</svg>
