<?xml version="1.0" encoding="UTF-8" standalone="no"?>
<!DOCTYPE svg PUBLIC "-//W3C//DTD SVG 1.1//EN"
 "http://www.w3.org/Graphics/SVG/1.1/DTD/svg11.dtd">
<!-- Generated by graphviz version 2.43.0 (0)
 -->
<!-- Title: DynExp::SerialCommunicationHardwareAdapterParams Pages: 1 -->
<svg width="360pt" height="401pt"
 viewBox="0.00 0.00 360.00 401.00" xmlns="http://www.w3.org/2000/svg" xmlns:xlink="http://www.w3.org/1999/xlink">
<g id="graph0" class="graph" transform="scale(1 1) rotate(0) translate(4 397)">
<title>DynExp::SerialCommunicationHardwareAdapterParams</title>
<!-- Node1 -->
<g id="Node000001" class="node">
<title>Node1</title>
<g id="a_Node000001"><a xlink:title="Parameter class for SerialCommunicationHardwareAdapter.">
<polygon fill="#999999" stroke="#666666" points="261,-162 96,-162 96,-132 261,-132 261,-162"/>
<text text-anchor="start" x="104" y="-150" font-family="Helvetica,sans-Serif" font-size="10.00">DynExp::SerialCommunication</text>
<text text-anchor="middle" x="178.5" y="-139" font-family="Helvetica,sans-Serif" font-size="10.00">HardwareAdapterParams</text>
</a>
</g>
</g>
<!-- Node6 -->
<g id="Node000006" class="node">
<title>Node6</title>
<g id="a_Node000006"><a xlink:href="classDynExp_1_1QSerialCommunicationHardwareAdapterParams.html" target="_top" xlink:title="Parameter class for QSerialCommunicationHardwareAdapter.">
<polygon fill="white" stroke="#666666" points="265,-96 92,-96 92,-66 265,-66 265,-96"/>
<text text-anchor="start" x="100" y="-84" font-family="Helvetica,sans-Serif" font-size="10.00">DynExp::QSerialCommunication</text>
<text text-anchor="middle" x="178.5" y="-73" font-family="Helvetica,sans-Serif" font-size="10.00">HardwareAdapterParams</text>
</a>
</g>
</g>
<!-- Node1&#45;&gt;Node6 -->
<g id="edge5_Node000001_Node000006" class="edge">
<title>Node1&#45;&gt;Node6</title>
<g id="a_edge5_Node000001_Node000006"><a xlink:title=" ">
<path fill="none" stroke="#63b8ff" d="M178.5,-121.54C178.5,-112.96 178.5,-103.61 178.5,-96.16"/>
<polygon fill="#63b8ff" stroke="#63b8ff" points="175,-121.8 178.5,-131.8 182,-121.8 175,-121.8"/>
</a>
</g>
</g>
<!-- Node2 -->
<g id="Node000002" class="node">
<title>Node2</title>
<g id="a_Node000002"><a xlink:href="classDynExp_1_1HardwareAdapterParamsBase.html" target="_top" xlink:title="Parameter class for HardwareAdapterBase.">
<polygon fill="white" stroke="#666666" points="281.5,-217 75.5,-217 75.5,-198 281.5,-198 281.5,-217"/>
<text text-anchor="middle" x="178.5" y="-205" font-family="Helvetica,sans-Serif" font-size="10.00">DynExp::HardwareAdapterParamsBase</text>
</a>
</g>
</g>
<!-- Node2&#45;&gt;Node1 -->
<g id="edge1_Node000001_Node000002" class="edge">
<title>Node2&#45;&gt;Node1</title>
<g id="a_edge1_Node000001_Node000002"><a xlink:title=" ">
<path fill="none" stroke="#63b8ff" d="M178.5,-187.65C178.5,-179.36 178.5,-169.78 178.5,-162.11"/>
<polygon fill="#63b8ff" stroke="#63b8ff" points="175,-187.87 178.5,-197.87 182,-187.87 175,-187.87"/>
</a>
</g>
</g>
<!-- Node3 -->
<g id="Node000003" class="node">
<title>Node3</title>
<g id="a_Node000003"><a xlink:href="classDynExp_1_1ParamsBase.html" target="_top" xlink:title="Abstract base class for object parameter classes. Each class derived from class Object must be accomp...">
<polygon fill="white" stroke="#666666" points="238.5,-272 118.5,-272 118.5,-253 238.5,-253 238.5,-272"/>
<text text-anchor="middle" x="178.5" y="-260" font-family="Helvetica,sans-Serif" font-size="10.00">DynExp::ParamsBase</text>
</a>
</g>
</g>
<!-- Node3&#45;&gt;Node2 -->
<g id="edge2_Node000002_Node000003" class="edge">
<title>Node3&#45;&gt;Node2</title>
<g id="a_edge2_Node000002_Node000003"><a xlink:title=" ">
<path fill="none" stroke="#63b8ff" d="M178.5,-242.66C178.5,-233.93 178.5,-223.99 178.5,-217.09"/>
<polygon fill="#63b8ff" stroke="#63b8ff" points="175,-242.75 178.5,-252.75 182,-242.75 175,-242.75"/>
</a>
</g>
</g>
<!-- Node4 -->
<g id="Node000004" class="node">
<title>Node4</title>
<g id="a_Node000004"><a xlink:href="classUtil_1_1ISynchronizedPointerLockable.html" target="_top" xlink:title="Interface to allow synchronizing the access to derived classes between different threads by making th...">
<polygon fill="white" stroke="#666666" points="250,-338 107,-338 107,-308 250,-308 250,-338"/>
<text text-anchor="start" x="115" y="-326" font-family="Helvetica,sans-Serif" font-size="10.00">Util::ISynchronizedPointer</text>
<text text-anchor="middle" x="178.5" y="-315" font-family="Helvetica,sans-Serif" font-size="10.00">Lockable</text>
</a>
</g>
</g>
<!-- Node4&#45;&gt;Node3 -->
<g id="edge3_Node000003_Node000004" class="edge">
<title>Node4&#45;&gt;Node3</title>
<g id="a_edge3_Node000003_Node000004"><a xlink:title=" ">
<path fill="none" stroke="#63b8ff" d="M178.5,-297.75C178.5,-288.72 178.5,-279.03 178.5,-272.27"/>
<polygon fill="#63b8ff" stroke="#63b8ff" points="175,-297.84 178.5,-307.84 182,-297.84 175,-297.84"/>
</a>
</g>
</g>
<!-- Node5 -->
<g id="Node000005" class="node">
<title>Node5</title>
<g id="a_Node000005"><a xlink:href="classUtil_1_1INonCopyable.html" target="_top" xlink:title="Interface to delete copy constructor and copy assignment operator and thus make derived classes non&#45;c...">
<polygon fill="white" stroke="#666666" points="232.5,-393 124.5,-393 124.5,-374 232.5,-374 232.5,-393"/>
<text text-anchor="middle" x="178.5" y="-381" font-family="Helvetica,sans-Serif" font-size="10.00">Util::INonCopyable</text>
</a>
</g>
</g>
<!-- Node5&#45;&gt;Node4 -->
<g id="edge4_Node000004_Node000005" class="edge">
<title>Node5&#45;&gt;Node4</title>
<g id="a_edge4_Node000004_Node000005"><a xlink:title=" ">
<path fill="none" stroke="#63b8ff" d="M178.5,-363.65C178.5,-355.36 178.5,-345.78 178.5,-338.11"/>
<polygon fill="#63b8ff" stroke="#63b8ff" points="175,-363.87 178.5,-373.87 182,-363.87 175,-363.87"/>
</a>
</g>
</g>
<!-- Node7 -->
<g id="Node000007" class="node">
<title>Node7</title>
<g id="a_Node000007"><a xlink:href="classDynExp_1_1HardwareAdapterSerialPortParams.html" target="_top" xlink:title="Parameter class for HardwareAdapterSerialPort.">
<polygon fill="white" stroke="#666666" points="173,-30 0,-30 0,0 173,0 173,-30"/>
<text text-anchor="start" x="8" y="-18" font-family="Helvetica,sans-Serif" font-size="10.00">DynExp::HardwareAdapterSerial</text>
<text text-anchor="middle" x="86.5" y="-7" font-family="Helvetica,sans-Serif" font-size="10.00">PortParams</text>
</a>
</g>
</g>
<!-- Node6&#45;&gt;Node7 -->
<g id="edge6_Node000006_Node000007" class="edge">
<title>Node6&#45;&gt;Node7</title>
<g id="a_edge6_Node000006_Node000007"><a xlink:title=" ">
<path fill="none" stroke="#63b8ff" d="M149.79,-60.03C135.87,-50.34 119.47,-38.94 106.86,-30.16"/>
<polygon fill="#63b8ff" stroke="#63b8ff" points="147.87,-62.96 158.08,-65.8 151.87,-57.21 147.87,-62.96"/>
</a>
</g>
</g>
<!-- Node8 -->
<g id="Node000008" class="node">
<title>Node8</title>
<g id="a_Node000008"><a xlink:href="classDynExp_1_1HardwareAdapterTcpSocketParams.html" target="_top" xlink:title="Parameter class for HardwareAdapterTcpSocket.">
<polygon fill="white" stroke="#666666" points="352,-30 191,-30 191,0 352,0 352,-30"/>
<text text-anchor="start" x="199" y="-18" font-family="Helvetica,sans-Serif" font-size="10.00">DynExp::HardwareAdapterTcp</text>
<text text-anchor="middle" x="271.5" y="-7" font-family="Helvetica,sans-Serif" font-size="10.00">SocketParams</text>
</a>
</g>
</g>
<!-- Node6&#45;&gt;Node8 -->
<g id="edge7_Node000006_Node000008" class="edge">
<title>Node6&#45;&gt;Node8</title>
<g id="a_edge7_Node000006_Node000008"><a xlink:title=" ">
<path fill="none" stroke="#63b8ff" d="M207.52,-60.03C221.59,-50.34 238.17,-38.94 250.92,-30.16"/>
<polygon fill="#63b8ff" stroke="#63b8ff" points="205.39,-57.24 199.14,-65.8 209.36,-63.01 205.39,-57.24"/>
</a>
</g>
</g>
</g>
</svg>
