<?xml version="1.0" encoding="UTF-8" standalone="no"?>
<!DOCTYPE svg PUBLIC "-//W3C//DTD SVG 1.1//EN"
 "http://www.w3.org/Graphics/SVG/1.1/DTD/svg11.dtd">
<!-- Generated by graphviz version 2.43.0 (0)
 -->
<!-- Title: Util::Exception Pages: 1 -->
<svg width="816pt" height="901pt"
 viewBox="0.00 0.00 816.00 901.00" xmlns="http://www.w3.org/2000/svg" xmlns:xlink="http://www.w3.org/1999/xlink">
<g id="graph0" class="graph" transform="scale(1 1) rotate(0) translate(4 897)">
<title>Util::Exception</title>
<polygon fill="white" stroke="transparent" points="-4,4 -4,-897 812,-897 812,4 -4,4"/>
<!-- Node1 -->
<g id="node1" class="node">
<title>Node1</title>
<g id="a_node1"><a xlink:title="DynExp exceptions are derived from this class. It contains basic information about the cause of the e...">
<polygon fill="#bfbfbf" stroke="black" points="262,-418.5 262,-437.5 350,-437.5 350,-418.5 262,-418.5"/>
<text text-anchor="middle" x="306" y="-425.5" font-family="Helvetica,sans-Serif" font-size="10.00">Util::Exception</text>
</a>
</g>
</g>
<!-- Node4 -->
<g id="node4" class="node">
<title>Node4</title>
<g id="a_node4"><a xlink:href="classDynExp_1_1SerialCommunicationException.html" target="_top" xlink:title="Defines an exception caused by a serial communication operation of a hardware adapter.">
<polygon fill="white" stroke="black" points="410,-849 410,-879 575,-879 575,-849 410,-849"/>
<text text-anchor="start" x="418" y="-867" font-family="Helvetica,sans-Serif" font-size="10.00">DynExp::SerialCommunication</text>
<text text-anchor="middle" x="492.5" y="-856" font-family="Helvetica,sans-Serif" font-size="10.00">Exception</text>
</a>
</g>
</g>
<!-- Node1&#45;&gt;Node4 -->
<g id="edge3" class="edge">
<title>Node1&#45;&gt;Node4</title>
<path fill="none" stroke="midnightblue" d="M308.04,-447.88C312.31,-522.1 331.01,-781.6 386,-839 392.71,-846 400.98,-851.19 409.93,-855.03"/>
<polygon fill="midnightblue" stroke="midnightblue" points="311.52,-447.41 307.47,-437.62 304.53,-447.8 311.52,-447.41"/>
</g>
<!-- Node7 -->
<g id="node7" class="node">
<title>Node7</title>
<g id="a_node7"><a xlink:href="classDynExpHardware_1_1NIDAQException.html" target="_top" xlink:title=" ">
<polygon fill="white" stroke="black" points="398.5,-810.5 398.5,-829.5 586.5,-829.5 586.5,-810.5 398.5,-810.5"/>
<text text-anchor="middle" x="492.5" y="-817.5" font-family="Helvetica,sans-Serif" font-size="10.00">DynExpHardware::NIDAQException</text>
</a>
</g>
</g>
<!-- Node1&#45;&gt;Node7 -->
<g id="edge6" class="edge">
<title>Node1&#45;&gt;Node7</title>
<path fill="none" stroke="midnightblue" d="M308.36,-447.92C313.54,-517.92 334.46,-751.01 386,-801 389.74,-804.63 393.92,-807.69 398.41,-810.27"/>
<polygon fill="midnightblue" stroke="midnightblue" points="311.84,-447.54 307.64,-437.81 304.86,-448.04 311.84,-447.54"/>
</g>
<!-- Node8 -->
<g id="node8" class="node">
<title>Node8</title>
<g id="a_node8"><a xlink:href="classDynExpHardware_1_1PVCamException.html" target="_top" xlink:title=" ">
<polygon fill="white" stroke="black" points="397,-772.5 397,-791.5 588,-791.5 588,-772.5 397,-772.5"/>
<text text-anchor="middle" x="492.5" y="-779.5" font-family="Helvetica,sans-Serif" font-size="10.00">DynExpHardware::PVCamException</text>
</a>
</g>
</g>
<!-- Node1&#45;&gt;Node8 -->
<g id="edge7" class="edge">
<title>Node1&#45;&gt;Node8</title>
<path fill="none" stroke="midnightblue" d="M308.88,-447.98C315.43,-513.3 339.46,-718.89 386,-763 389.92,-766.71 394.3,-769.83 398.99,-772.43"/>
<polygon fill="midnightblue" stroke="midnightblue" points="312.34,-447.41 307.89,-437.79 305.37,-448.09 312.34,-447.41"/>
</g>
<!-- Node9 -->
<g id="node9" class="node">
<title>Node9</title>
<g id="a_node9"><a xlink:href="classDynExpHardware_1_1QutoolsTDCException.html" target="_top" xlink:title=" ">
<polygon fill="white" stroke="black" points="386,-734.5 386,-753.5 599,-753.5 599,-734.5 386,-734.5"/>
<text text-anchor="middle" x="492.5" y="-741.5" font-family="Helvetica,sans-Serif" font-size="10.00">DynExpHardware::QutoolsTDCException</text>
</a>
</g>
</g>
<!-- Node1&#45;&gt;Node9 -->
<g id="edge8" class="edge">
<title>Node1&#45;&gt;Node9</title>
<path fill="none" stroke="midnightblue" d="M309.48,-447.64C317.44,-507.61 344.34,-686.62 386,-725 389.97,-728.66 394.39,-731.73 399.12,-734.3"/>
<polygon fill="midnightblue" stroke="midnightblue" points="312.93,-447.06 308.17,-437.6 305.99,-447.96 312.93,-447.06"/>
</g>
<!-- Node10 -->
<g id="node10" class="node">
<title>Node10</title>
<g id="a_node10"><a xlink:href="classDynExpHardware_1_1SmarActException.html" target="_top" xlink:title=" ">
<polygon fill="white" stroke="black" points="394,-696.5 394,-715.5 591,-715.5 591,-696.5 394,-696.5"/>
<text text-anchor="middle" x="492.5" y="-703.5" font-family="Helvetica,sans-Serif" font-size="10.00">DynExpHardware::SmarActException</text>
</a>
</g>
</g>
<!-- Node1&#45;&gt;Node10 -->
<g id="edge9" class="edge">
<title>Node1&#45;&gt;Node10</title>
<path fill="none" stroke="midnightblue" d="M306.58,-447.74C306.7,-496.49 314.26,-623.26 386,-687 390.17,-690.71 394.82,-693.81 399.77,-696.39"/>
<polygon fill="midnightblue" stroke="midnightblue" points="310.08,-447.62 306.67,-437.59 303.08,-447.56 310.08,-447.62"/>
</g>
<!-- Node11 -->
<g id="node11" class="node">
<title>Node11</title>
<g id="a_node11"><a xlink:href="classDynExpHardware_1_1ZILabOneException.html" target="_top" xlink:title=" ">
<polygon fill="white" stroke="black" points="415.5,-647 415.5,-677 569.5,-677 569.5,-647 415.5,-647"/>
<text text-anchor="start" x="423.5" y="-665" font-family="Helvetica,sans-Serif" font-size="10.00">DynExpHardware::ZILabOne</text>
<text text-anchor="middle" x="492.5" y="-654" font-family="Helvetica,sans-Serif" font-size="10.00">Exception</text>
</a>
</g>
</g>
<!-- Node1&#45;&gt;Node11 -->
<g id="edge10" class="edge">
<title>Node1&#45;&gt;Node11</title>
<path fill="none" stroke="midnightblue" d="M308.48,-447.87C312.69,-489.55 328.47,-586.44 386,-637 394.41,-644.39 404.61,-649.7 415.32,-653.49"/>
<polygon fill="midnightblue" stroke="midnightblue" points="311.94,-447.31 307.57,-437.66 304.97,-447.93 311.94,-447.31"/>
</g>
<!-- Node12 -->
<g id="node12" class="node">
<title>Node12</title>
<g id="a_node12"><a xlink:href="classDynExpHardware_1_1gRPCException.html" target="_top" xlink:title="Defines an exception caused by an operation involving the gRPC library and communication over a TCP s...">
<polygon fill="white" stroke="black" points="402,-608.5 402,-627.5 583,-627.5 583,-608.5 402,-608.5"/>
<text text-anchor="middle" x="492.5" y="-615.5" font-family="Helvetica,sans-Serif" font-size="10.00">DynExpHardware::gRPCException</text>
</a>
</g>
</g>
<!-- Node1&#45;&gt;Node12 -->
<g id="edge11" class="edge">
<title>Node1&#45;&gt;Node12</title>
<path fill="none" stroke="midnightblue" d="M310.1,-447.92C316.87,-484.17 336.51,-560.74 386,-599 390.86,-602.76 396.22,-605.86 401.87,-608.42"/>
<polygon fill="midnightblue" stroke="midnightblue" points="313.48,-446.92 308.34,-437.66 306.59,-448.11 313.48,-446.92"/>
</g>
<!-- Node13 -->
<g id="node13" class="node">
<title>Node13</title>
<g id="a_node13"><a xlink:href="classUtil_1_1EmptyException.html" target="_top" xlink:title="Thrown when a list is expected to contain entries and when a query results in an empty answer or an e...">
<polygon fill="white" stroke="black" points="433,-570.5 433,-589.5 552,-589.5 552,-570.5 433,-570.5"/>
<text text-anchor="middle" x="492.5" y="-577.5" font-family="Helvetica,sans-Serif" font-size="10.00">Util::EmptyException</text>
</a>
</g>
</g>
<!-- Node1&#45;&gt;Node13 -->
<g id="edge12" class="edge">
<title>Node1&#45;&gt;Node13</title>
<path fill="none" stroke="midnightblue" d="M312.68,-447.22C322.48,-476.77 345.51,-532.91 386,-561 399.61,-570.44 416.51,-575.61 432.76,-578.35"/>
<polygon fill="midnightblue" stroke="midnightblue" points="316,-446.12 309.66,-437.63 309.33,-448.22 316,-446.12"/>
</g>
<!-- Node14 -->
<g id="node14" class="node">
<title>Node14</title>
<g id="a_node14"><a xlink:href="classUtil_1_1FileIOErrorException.html" target="_top" xlink:title="Thrown when reading from or writing to a file failed.">
<polygon fill="white" stroke="black" points="423,-532.5 423,-551.5 562,-551.5 562,-532.5 423,-532.5"/>
<text text-anchor="middle" x="492.5" y="-539.5" font-family="Helvetica,sans-Serif" font-size="10.00">Util::FileIOErrorException</text>
</a>
</g>
</g>
<!-- Node1&#45;&gt;Node14 -->
<g id="edge13" class="edge">
<title>Node1&#45;&gt;Node14</title>
<path fill="none" stroke="midnightblue" d="M316.92,-446.46C329.78,-468.46 354.36,-504.56 386,-523 397.18,-529.51 410.06,-533.89 422.9,-536.81"/>
<polygon fill="midnightblue" stroke="midnightblue" points="319.96,-444.71 312,-437.72 313.86,-448.15 319.96,-444.71"/>
</g>
<!-- Node15 -->
<g id="node15" class="node">
<title>Node15</title>
<g id="a_node15"><a xlink:href="classUtil_1_1ForwardedException.html" target="_top" xlink:title="Class to forward an Exception instance from one DynExp::Object instance to another DynExp::Object ins...">
<polygon fill="white" stroke="black" points="423,-494.5 423,-513.5 562,-513.5 562,-494.5 423,-494.5"/>
<text text-anchor="middle" x="492.5" y="-501.5" font-family="Helvetica,sans-Serif" font-size="10.00">Util::ForwardedException</text>
</a>
</g>
</g>
<!-- Node1&#45;&gt;Node15 -->
<g id="edge14" class="edge">
<title>Node1&#45;&gt;Node15</title>
<path fill="none" stroke="midnightblue" d="M324.86,-444.52C340,-457.57 362.88,-475.18 386,-485 397.56,-489.91 410.36,-493.55 422.94,-496.25"/>
<polygon fill="midnightblue" stroke="midnightblue" points="327.1,-441.83 317.3,-437.81 322.46,-447.06 327.1,-441.83"/>
</g>
<!-- Node16 -->
<g id="node16" class="node">
<title>Node16</title>
<g id="a_node16"><a xlink:href="classUtil_1_1InvalidArgException.html" target="_top" xlink:title="An invalid argument like a null pointer has been passed to a function.">
<polygon fill="white" stroke="black" points="424,-456.5 424,-475.5 561,-475.5 561,-456.5 424,-456.5"/>
<text text-anchor="middle" x="492.5" y="-463.5" font-family="Helvetica,sans-Serif" font-size="10.00">Util::InvalidArgException</text>
</a>
</g>
</g>
<!-- Node1&#45;&gt;Node16 -->
<g id="edge15" class="edge">
<title>Node1&#45;&gt;Node16</title>
<path fill="none" stroke="midnightblue" d="M354.41,-439.87C364.8,-442.34 375.75,-444.85 386,-447 401.94,-450.35 419.3,-453.63 435.26,-456.49"/>
<polygon fill="midnightblue" stroke="midnightblue" points="355.21,-436.47 344.67,-437.53 353.58,-443.27 355.21,-436.47"/>
</g>
<!-- Node17 -->
<g id="node17" class="node">
<title>Node17</title>
<g id="a_node17"><a xlink:href="classUtil_1_1InvalidCallException.html" target="_top" xlink:title="Thrown when a function call is not allowed to a specific thread in a multi&#45;threading context.">
<polygon fill="white" stroke="black" points="422.5,-418.5 422.5,-437.5 562.5,-437.5 562.5,-418.5 422.5,-418.5"/>
<text text-anchor="middle" x="492.5" y="-425.5" font-family="Helvetica,sans-Serif" font-size="10.00">Util::InvalidCallException</text>
</a>
</g>
</g>
<!-- Node1&#45;&gt;Node17 -->
<g id="edge16" class="edge">
<title>Node1&#45;&gt;Node17</title>
<path fill="none" stroke="midnightblue" d="M360.36,-428C379.65,-428 401.71,-428 422.17,-428"/>
<polygon fill="midnightblue" stroke="midnightblue" points="360.26,-424.5 350.26,-428 360.26,-431.5 360.26,-424.5"/>
</g>
<!-- Node18 -->
<g id="node18" class="node">
<title>Node18</title>
<g id="a_node18"><a xlink:href="classUtil_1_1InvalidDataException.html" target="_top" xlink:title="Data to operate on is invalid for a specific purpose. This indicates a corrupted data structure or fu...">
<polygon fill="white" stroke="black" points="420.5,-380.5 420.5,-399.5 564.5,-399.5 564.5,-380.5 420.5,-380.5"/>
<text text-anchor="middle" x="492.5" y="-387.5" font-family="Helvetica,sans-Serif" font-size="10.00">Util::InvalidDataException</text>
</a>
</g>
</g>
<!-- Node1&#45;&gt;Node18 -->
<g id="edge17" class="edge">
<title>Node1&#45;&gt;Node18</title>
<path fill="none" stroke="midnightblue" d="M354.41,-416.13C364.8,-413.66 375.75,-411.15 386,-409 401.94,-405.65 419.3,-402.37 435.26,-399.51"/>
<polygon fill="midnightblue" stroke="midnightblue" points="353.58,-412.73 344.67,-418.47 355.21,-419.53 353.58,-412.73"/>
</g>
<!-- Node19 -->
<g id="node19" class="node">
<title>Node19</title>
<g id="a_node19"><a xlink:href="classUtil_1_1InvalidStateException.html" target="_top" xlink:title="An operation cannot be performed currently since the related object is in an invalid state like an er...">
<polygon fill="white" stroke="black" points="419.5,-342.5 419.5,-361.5 565.5,-361.5 565.5,-342.5 419.5,-342.5"/>
<text text-anchor="middle" x="492.5" y="-349.5" font-family="Helvetica,sans-Serif" font-size="10.00">Util::InvalidStateException</text>
</a>
</g>
</g>
<!-- Node1&#45;&gt;Node19 -->
<g id="edge18" class="edge">
<title>Node1&#45;&gt;Node19</title>
<path fill="none" stroke="midnightblue" d="M324.86,-411.48C340,-398.43 362.88,-380.82 386,-371 396.45,-366.56 407.91,-363.16 419.3,-360.55"/>
<polygon fill="midnightblue" stroke="midnightblue" points="322.46,-408.94 317.3,-418.19 327.1,-414.17 322.46,-408.94"/>
</g>
<!-- Node22 -->
<g id="node22" class="node">
<title>Node22</title>
<g id="a_node22"><a xlink:href="classUtil_1_1NotAvailableException.html" target="_top" xlink:title="Thrown when some operation or feature is temporarily or permanently not available.">
<polygon fill="white" stroke="black" points="417.5,-304.5 417.5,-323.5 567.5,-323.5 567.5,-304.5 417.5,-304.5"/>
<text text-anchor="middle" x="492.5" y="-311.5" font-family="Helvetica,sans-Serif" font-size="10.00">Util::NotAvailableException</text>
</a>
</g>
</g>
<!-- Node1&#45;&gt;Node22 -->
<g id="edge21" class="edge">
<title>Node1&#45;&gt;Node22</title>
<path fill="none" stroke="midnightblue" d="M316.92,-409.54C329.78,-387.54 354.36,-351.44 386,-333 395.57,-327.42 406.39,-323.41 417.36,-320.54"/>
<polygon fill="midnightblue" stroke="midnightblue" points="313.86,-407.85 312,-418.28 319.96,-411.29 313.86,-407.85"/>
</g>
<!-- Node23 -->
<g id="node23" class="node">
<title>Node23</title>
<g id="a_node23"><a xlink:href="classUtil_1_1NotFoundException.html" target="_top" xlink:title="Thrown when a requested ressource does not exist.">
<polygon fill="white" stroke="black" points="425.5,-266.5 425.5,-285.5 559.5,-285.5 559.5,-266.5 425.5,-266.5"/>
<text text-anchor="middle" x="492.5" y="-273.5" font-family="Helvetica,sans-Serif" font-size="10.00">Util::NotFoundException</text>
</a>
</g>
</g>
<!-- Node1&#45;&gt;Node23 -->
<g id="edge22" class="edge">
<title>Node1&#45;&gt;Node23</title>
<path fill="none" stroke="midnightblue" d="M312.68,-408.78C322.48,-379.23 345.51,-323.09 386,-295 397.55,-286.99 411.46,-282.05 425.33,-279.07"/>
<polygon fill="midnightblue" stroke="midnightblue" points="309.33,-407.78 309.66,-418.37 316,-409.88 309.33,-407.78"/>
</g>
<!-- Node24 -->
<g id="node24" class="node">
<title>Node24</title>
<g id="a_node24"><a xlink:href="classUtil_1_1NotImplementedException.html" target="_top" xlink:title="Thrown when a requested feature is either under development and thus not implemented yet or when a sp...">
<polygon fill="white" stroke="black" points="407.5,-228.5 407.5,-247.5 577.5,-247.5 577.5,-228.5 407.5,-228.5"/>
<text text-anchor="middle" x="492.5" y="-235.5" font-family="Helvetica,sans-Serif" font-size="10.00">Util::NotImplementedException</text>
</a>
</g>
</g>
<!-- Node1&#45;&gt;Node24 -->
<g id="edge23" class="edge">
<title>Node1&#45;&gt;Node24</title>
<path fill="none" stroke="midnightblue" d="M310.1,-408.08C316.87,-371.83 336.51,-295.26 386,-257 392.4,-252.05 399.68,-248.23 407.34,-245.31"/>
<polygon fill="midnightblue" stroke="midnightblue" points="306.59,-407.89 308.34,-418.34 313.48,-409.08 306.59,-407.89"/>
</g>
<!-- Node25 -->
<g id="node25" class="node">
<title>Node25</title>
<g id="a_node25"><a xlink:href="classUtil_1_1OutOfRangeException.html" target="_top" xlink:title="Thrown when an argument passed to a function exceeds the valid range.">
<polygon fill="white" stroke="black" points="419,-190.5 419,-209.5 566,-209.5 566,-190.5 419,-190.5"/>
<text text-anchor="middle" x="492.5" y="-197.5" font-family="Helvetica,sans-Serif" font-size="10.00">Util::OutOfRangeException</text>
</a>
</g>
</g>
<!-- Node1&#45;&gt;Node25 -->
<g id="edge24" class="edge">
<title>Node1&#45;&gt;Node25</title>
<path fill="none" stroke="midnightblue" d="M308.24,-408.15C312.01,-366.14 326.99,-268.08 386,-219 395.37,-211.21 406.85,-206.16 418.75,-202.96"/>
<polygon fill="midnightblue" stroke="midnightblue" points="304.75,-407.97 307.47,-418.21 311.73,-408.51 304.75,-407.97"/>
</g>
<!-- Node26 -->
<g id="node26" class="node">
<title>Node26</title>
<g id="a_node26"><a xlink:href="classUtil_1_1OverflowException.html" target="_top" xlink:title="Thrown when a numeric operation would result in an overflow (e.g. due to incompatible data types)">
<polygon fill="white" stroke="black" points="427,-152.5 427,-171.5 558,-171.5 558,-152.5 427,-152.5"/>
<text text-anchor="middle" x="492.5" y="-159.5" font-family="Helvetica,sans-Serif" font-size="10.00">Util::OverflowException</text>
</a>
</g>
</g>
<!-- Node1&#45;&gt;Node26 -->
<g id="edge25" class="edge">
<title>Node1&#45;&gt;Node26</title>
<path fill="none" stroke="midnightblue" d="M306.92,-408.22C307.89,-361 317.35,-241.18 386,-181 397.34,-171.06 412.06,-165.51 426.89,-162.57"/>
<polygon fill="midnightblue" stroke="midnightblue" points="303.42,-408.31 306.83,-418.34 310.42,-408.37 303.42,-408.31"/>
</g>
<!-- Node27 -->
<g id="node27" class="node">
<title>Node27</title>
<g id="a_node27"><a xlink:href="classUtil_1_1ServiceFailedException.html" target="_top" xlink:title="Denotes that e.g. a remote gRPC service failed.">
<polygon fill="white" stroke="black" points="416.5,-114.5 416.5,-133.5 568.5,-133.5 568.5,-114.5 416.5,-114.5"/>
<text text-anchor="middle" x="492.5" y="-121.5" font-family="Helvetica,sans-Serif" font-size="10.00">Util::ServiceFailedException</text>
</a>
</g>
</g>
<!-- Node1&#45;&gt;Node27 -->
<g id="edge26" class="edge">
<title>Node1&#45;&gt;Node27</title>
<path fill="none" stroke="midnightblue" d="M309.71,-408.4C318.15,-350.1 345.89,-179.57 386,-143 394.53,-135.23 405.11,-130.1 416.26,-126.8"/>
<polygon fill="midnightblue" stroke="midnightblue" points="306.21,-408.1 308.28,-418.49 313.14,-409.08 306.21,-408.1"/>
</g>
<!-- Node28 -->
<g id="node28" class="node">
<title>Node28</title>
<g id="a_node28"><a xlink:href="classUtil_1_1TimeoutException.html" target="_top" xlink:title="Thrown when an operation timed out before it could be completed, especially used for locking shared d...">
<polygon fill="white" stroke="black" points="428.5,-76.5 428.5,-95.5 556.5,-95.5 556.5,-76.5 428.5,-76.5"/>
<text text-anchor="middle" x="492.5" y="-83.5" font-family="Helvetica,sans-Serif" font-size="10.00">Util::TimeoutException</text>
</a>
</g>
</g>
<!-- Node1&#45;&gt;Node28 -->
<g id="edge27" class="edge">
<title>Node1&#45;&gt;Node28</title>
<path fill="none" stroke="midnightblue" d="M309.08,-407.92C316.1,-344.04 341.06,-147.25 386,-105 397.46,-94.23 412.85,-88.5 428.32,-85.65"/>
<polygon fill="midnightblue" stroke="midnightblue" points="305.56,-407.92 307.97,-418.23 312.52,-408.66 305.56,-407.92"/>
</g>
<!-- Node30 -->
<g id="node30" class="node">
<title>Node30</title>
<g id="a_node30"><a xlink:href="classUtil_1_1TypeErrorException.html" target="_top" xlink:title="Thrown when an attempt was made to convert two incompatible types into each other.">
<polygon fill="white" stroke="black" points="425.5,-38.5 425.5,-57.5 559.5,-57.5 559.5,-38.5 425.5,-38.5"/>
<text text-anchor="middle" x="492.5" y="-45.5" font-family="Helvetica,sans-Serif" font-size="10.00">Util::TypeErrorException</text>
</a>
</g>
</g>
<!-- Node1&#45;&gt;Node30 -->
<g id="edge29" class="edge">
<title>Node1&#45;&gt;Node30</title>
<path fill="none" stroke="midnightblue" d="M308.53,-407.84C314.16,-339.03 336.1,-115.07 386,-67 396.66,-56.73 410.87,-51.01 425.4,-48"/>
<polygon fill="midnightblue" stroke="midnightblue" points="305.01,-407.91 307.71,-418.16 311.99,-408.47 305.01,-407.91"/>
</g>
<!-- Node31 -->
<g id="node31" class="node">
<title>Node31</title>
<g id="a_node31"><a xlink:href="classUtil_1_1UnderflowException.html" target="_top" xlink:title="Thrown when a numeric operation would result in an underflow (e.g. due to incompatible data types)">
<polygon fill="white" stroke="black" points="424,-0.5 424,-19.5 561,-19.5 561,-0.5 424,-0.5"/>
<text text-anchor="middle" x="492.5" y="-7.5" font-family="Helvetica,sans-Serif" font-size="10.00">Util::UnderflowException</text>
</a>
</g>
</g>
<!-- Node1&#45;&gt;Node31 -->
<g id="edge30" class="edge">
<title>Node1&#45;&gt;Node31</title>
<path fill="none" stroke="midnightblue" d="M308.06,-408.12C312.36,-335.1 331.02,-83.03 386,-29 396.22,-18.95 409.84,-13.23 423.88,-10.14"/>
<polygon fill="midnightblue" stroke="midnightblue" points="304.56,-408.07 307.49,-418.25 311.54,-408.46 304.56,-408.07"/>
</g>
<!-- Node2 -->
<g id="node2" class="node">
<title>Node2</title>
<g id="a_node2"><a xlink:title=" ">
<polygon fill="white" stroke="#bfbfbf" points="122,-418.5 122,-437.5 226,-437.5 226,-418.5 122,-418.5"/>
<text text-anchor="middle" x="174" y="-425.5" font-family="Helvetica,sans-Serif" font-size="10.00">std::runtime_error</text>
</a>
</g>
</g>
<!-- Node2&#45;&gt;Node1 -->
<g id="edge1" class="edge">
<title>Node2&#45;&gt;Node1</title>
<path fill="none" stroke="midnightblue" d="M236.09,-428C244.74,-428 253.49,-428 261.71,-428"/>
<polygon fill="midnightblue" stroke="midnightblue" points="236.01,-424.5 226.01,-428 236.01,-431.5 236.01,-424.5"/>
</g>
<!-- Node3 -->
<g id="node3" class="node">
<title>Node3</title>
<g id="a_node3"><a xlink:title=" ">
<polygon fill="white" stroke="#bfbfbf" points="0,-418.5 0,-437.5 86,-437.5 86,-418.5 0,-418.5"/>
<text text-anchor="middle" x="43" y="-425.5" font-family="Helvetica,sans-Serif" font-size="10.00">std::exception</text>
</a>
</g>
</g>
<!-- Node3&#45;&gt;Node2 -->
<g id="edge2" class="edge">
<title>Node3&#45;&gt;Node2</title>
<path fill="none" stroke="midnightblue" d="M96.27,-428C104.65,-428 113.31,-428 121.66,-428"/>
<polygon fill="midnightblue" stroke="midnightblue" points="96.24,-424.5 86.24,-428 96.24,-431.5 96.24,-424.5"/>
</g>
<!-- Node5 -->
<g id="node5" class="node">
<title>Node5</title>
<g id="a_node5"><a xlink:href="classDynExp_1_1NetworkException.html" target="_top" xlink:title="Defines an exception caused by a hardware operation on an ethernet interface (e.g....">
<polygon fill="white" stroke="black" points="647,-873.5 647,-892.5 796,-892.5 796,-873.5 647,-873.5"/>
<text text-anchor="middle" x="721.5" y="-880.5" font-family="Helvetica,sans-Serif" font-size="10.00">DynExp::NetworkException</text>
</a>
</g>
</g>
<!-- Node4&#45;&gt;Node5 -->
<g id="edge4" class="edge">
<title>Node4&#45;&gt;Node5</title>
<path fill="none" stroke="midnightblue" d="M585.1,-871.67C605.6,-873.38 627.09,-875.18 646.76,-876.83"/>
<polygon fill="midnightblue" stroke="midnightblue" points="585.39,-868.18 575.13,-870.83 584.8,-875.15 585.39,-868.18"/>
</g>
<!-- Node6 -->
<g id="node6" class="node">
<title>Node6</title>
<g id="a_node6"><a xlink:href="classDynExp_1_1SerialPortException.html" target="_top" xlink:title="Defines an exception caused by a hardware operation on a COM port (e.g. reading/writing data to a COM...">
<polygon fill="white" stroke="black" points="644,-835.5 644,-854.5 799,-854.5 799,-835.5 644,-835.5"/>
<text text-anchor="middle" x="721.5" y="-842.5" font-family="Helvetica,sans-Serif" font-size="10.00">DynExp::SerialPortException</text>
</a>
</g>
</g>
<!-- Node4&#45;&gt;Node6 -->
<g id="edge5" class="edge">
<title>Node4&#45;&gt;Node6</title>
<path fill="none" stroke="midnightblue" d="M585.2,-856.32C604.63,-854.7 624.95,-853 643.76,-851.42"/>
<polygon fill="midnightblue" stroke="midnightblue" points="584.8,-852.85 575.13,-857.17 585.39,-859.82 584.8,-852.85"/>
</g>
<!-- Node20 -->
<g id="node20" class="node">
<title>Node20</title>
<g id="a_node20"><a xlink:href="classUtil_1_1InvalidObjectLinkException.html" target="_top" xlink:title="Thrown when RunnableInstance cannot lock an object to be used by another object due to an invalid lin...">
<polygon fill="white" stroke="black" points="635,-364.5 635,-383.5 808,-383.5 808,-364.5 635,-364.5"/>
<text text-anchor="middle" x="721.5" y="-371.5" font-family="Helvetica,sans-Serif" font-size="10.00">Util::InvalidObjectLinkException</text>
</a>
</g>
</g>
<!-- Node19&#45;&gt;Node20 -->
<g id="edge19" class="edge">
<title>Node19&#45;&gt;Node20</title>
<path fill="none" stroke="midnightblue" d="M575.82,-359.98C594.95,-361.83 615.37,-363.81 634.66,-365.68"/>
<polygon fill="midnightblue" stroke="midnightblue" points="575.93,-356.47 565.64,-358.99 575.25,-363.44 575.93,-356.47"/>
</g>
<!-- Node21 -->
<g id="node21" class="node">
<title>Node21</title>
<g id="a_node21"><a xlink:href="classUtil_1_1LinkedObjectNotLockedException.html" target="_top" xlink:title="Thrown when RunnableInstance::LockObject() has not been called on an object link parameter to establi...">
<polygon fill="white" stroke="black" points="644.5,-315 644.5,-345 798.5,-345 798.5,-315 644.5,-315"/>
<text text-anchor="start" x="652.5" y="-333" font-family="Helvetica,sans-Serif" font-size="10.00">Util::LinkedObjectNotLocked</text>
<text text-anchor="middle" x="721.5" y="-322" font-family="Helvetica,sans-Serif" font-size="10.00">Exception</text>
</a>
</g>
</g>
<!-- Node19&#45;&gt;Node21 -->
<g id="edge20" class="edge">
<title>Node19&#45;&gt;Node21</title>
<path fill="none" stroke="midnightblue" d="M575.77,-344.03C598.13,-341.86 622.23,-339.52 644.24,-337.39"/>
<polygon fill="midnightblue" stroke="midnightblue" points="575.25,-340.56 565.64,-345.01 575.93,-347.53 575.25,-340.56"/>
</g>
<!-- Node29 -->
<g id="node29" class="node">
<title>Node29</title>
<g id="a_node29"><a xlink:href="classUtil_1_1ThreadDidNotRespondException.html" target="_top" xlink:title="Thrown in a multi&#45;threading context when an answer is expected from another thread an when the commun...">
<polygon fill="white" stroke="black" points="647,-71 647,-101 796,-101 796,-71 647,-71"/>
<text text-anchor="start" x="655" y="-89" font-family="Helvetica,sans-Serif" font-size="10.00">Util::ThreadDidNotRespond</text>
<text text-anchor="middle" x="721.5" y="-78" font-family="Helvetica,sans-Serif" font-size="10.00">Exception</text>
</a>
</g>
</g>
<!-- Node28&#45;&gt;Node29 -->
<g id="edge28" class="edge">
<title>Node28&#45;&gt;Node29</title>
<path fill="none" stroke="midnightblue" d="M566.75,-86C592.36,-86 621.12,-86 646.77,-86"/>
<polygon fill="midnightblue" stroke="midnightblue" points="566.73,-82.5 556.73,-86 566.73,-89.5 566.73,-82.5"/>
</g>
</g>
</svg>
