<?xml version="1.0" encoding="UTF-8" standalone="no"?>
<!DOCTYPE svg PUBLIC "-//W3C//DTD SVG 1.1//EN"
 "http://www.w3.org/Graphics/SVG/1.1/DTD/svg11.dtd">
<!-- Generated by graphviz version 2.43.0 (0)
 -->
<!-- Title: DynExp::InstrumentBase Pages: 1 -->
<svg width="1612pt" height="492pt"
 viewBox="0.00 0.00 1612.00 491.50" xmlns="http://www.w3.org/2000/svg" xmlns:xlink="http://www.w3.org/1999/xlink">
<g id="graph0" class="graph" transform="scale(1 1) rotate(0) translate(4 487.5)">
<title>DynExp::InstrumentBase</title>
<polygon fill="white" stroke="transparent" points="-4,4 -4,-487.5 1608,-487.5 1608,4 -4,4"/>
<!-- Node1 -->
<g id="node1" class="node">
<title>Node1</title>
<g id="a_node1"><a xlink:title="Base class for instruments. Instruments comprise virtual devices (meta instruments) and physial devic...">
<polygon fill="#bfbfbf" stroke="black" points="317,-202.5 317,-221.5 454,-221.5 454,-202.5 317,-202.5"/>
<text text-anchor="middle" x="385.5" y="-209.5" font-family="Helvetica,sans-Serif" font-size="10.00">DynExp::InstrumentBase</text>
</a>
</g>
</g>
<!-- Node5 -->
<g id="node5" class="node">
<title>Node5</title>
<g id="a_node5"><a xlink:href="classDynExpInstr_1_1gRPCInstrument.html" target="_top" xlink:title=" ">
<polygon fill="white" stroke="black" points="490,-403 490,-455 695,-455 695,-403 490,-403"/>
<text text-anchor="start" x="498" y="-443" font-family="Helvetica,sans-Serif" font-size="10.00">DynExpInstr::gRPCInstrument</text>
<text text-anchor="start" x="498" y="-432" font-family="Helvetica,sans-Serif" font-size="10.00">&lt; DynExp::InstrumentBase,</text>
<text text-anchor="start" x="498" y="-421" font-family="Helvetica,sans-Serif" font-size="10.00"> 0, DynExpProto::WidefieldLocalization</text>
<text text-anchor="middle" x="592.5" y="-410" font-family="Helvetica,sans-Serif" font-size="10.00">::WidefieldLocalization &gt;</text>
</a>
</g>
</g>
<!-- Node1&#45;&gt;Node5 -->
<g id="edge4" class="edge">
<title>Node1&#45;&gt;Node5</title>
<path fill="none" stroke="midnightblue" d="M393.69,-231.34C407.46,-266 440.61,-339.16 490,-383 498.68,-390.71 508.87,-397.33 519.38,-402.95"/>
<polygon fill="midnightblue" stroke="midnightblue" points="396.91,-229.96 390.05,-221.89 390.38,-232.48 396.91,-229.96"/>
</g>
<!-- Node7 -->
<g id="node7" class="node">
<title>Node7</title>
<g id="a_node7"><a xlink:href="classDynExpInstr_1_1Camera.html" target="_top" xlink:title="Meta instrument for an image capturing (camera) device.">
<polygon fill="white" stroke="black" points="532.5,-354.5 532.5,-373.5 652.5,-373.5 652.5,-354.5 532.5,-354.5"/>
<text text-anchor="middle" x="592.5" y="-361.5" font-family="Helvetica,sans-Serif" font-size="10.00">DynExpInstr::Camera</text>
</a>
</g>
</g>
<!-- Node1&#45;&gt;Node7 -->
<g id="edge6" class="edge">
<title>Node1&#45;&gt;Node7</title>
<path fill="none" stroke="midnightblue" d="M407.53,-227.59C449.88,-258.99 544.32,-329.02 578.68,-354.5"/>
<polygon fill="midnightblue" stroke="midnightblue" points="409.44,-224.65 399.32,-221.51 405.27,-230.28 409.44,-224.65"/>
</g>
<!-- Node10 -->
<g id="node10" class="node">
<title>Node10</title>
<g id="a_node10"><a xlink:href="classDynExpInstr_1_1DataStreamInstrument.html" target="_top" xlink:title="Implementation of the data stream meta instrument, which is a base class for all instruments reading/...">
<polygon fill="white" stroke="black" points="495.5,-224.5 495.5,-243.5 689.5,-243.5 689.5,-224.5 495.5,-224.5"/>
<text text-anchor="middle" x="592.5" y="-231.5" font-family="Helvetica,sans-Serif" font-size="10.00">DynExpInstr::DataStreamInstrument</text>
</a>
</g>
</g>
<!-- Node1&#45;&gt;Node10 -->
<g id="edge9" class="edge">
<title>Node1&#45;&gt;Node10</title>
<path fill="none" stroke="midnightblue" d="M464.15,-220.33C476.74,-221.68 489.85,-223.09 502.67,-224.47"/>
<polygon fill="midnightblue" stroke="midnightblue" points="464.51,-216.85 454.19,-219.26 463.76,-223.81 464.51,-216.85"/>
</g>
<!-- Node30 -->
<g id="node30" class="node">
<title>Node30</title>
<g id="a_node30"><a xlink:href="classDynExpInstr_1_1InterModuleCommunicator.html" target="_top" xlink:title="Defines an inter&#45;module communicator instrument to exchange events in between DynExp modules....">
<polygon fill="white" stroke="black" points="522.5,-175 522.5,-205 662.5,-205 662.5,-175 522.5,-175"/>
<text text-anchor="start" x="530.5" y="-193" font-family="Helvetica,sans-Serif" font-size="10.00">DynExpInstr::InterModule</text>
<text text-anchor="middle" x="592.5" y="-182" font-family="Helvetica,sans-Serif" font-size="10.00">Communicator</text>
</a>
</g>
</g>
<!-- Node1&#45;&gt;Node30 -->
<g id="edge29" class="edge">
<title>Node1&#45;&gt;Node30</title>
<path fill="none" stroke="midnightblue" d="M464.36,-203.64C483.48,-201.59 503.81,-199.41 522.48,-197.41"/>
<polygon fill="midnightblue" stroke="midnightblue" points="463.76,-200.19 454.19,-204.74 464.51,-207.15 463.76,-200.19"/>
</g>
<!-- Node31 -->
<g id="node31" class="node">
<title>Node31</title>
<g id="a_node31"><a xlink:href="classDynExpInstr_1_1PositionerStage.html" target="_top" xlink:title="Implementation of a meta instrument to control single&#45;axis positioner stages.">
<polygon fill="white" stroke="black" points="513.5,-123.5 513.5,-142.5 671.5,-142.5 671.5,-123.5 513.5,-123.5"/>
<text text-anchor="middle" x="592.5" y="-130.5" font-family="Helvetica,sans-Serif" font-size="10.00">DynExpInstr::PositionerStage</text>
</a>
</g>
</g>
<!-- Node1&#45;&gt;Node31 -->
<g id="edge30" class="edge">
<title>Node1&#45;&gt;Node31</title>
<path fill="none" stroke="midnightblue" d="M414.79,-198.03C435.37,-188.15 464.07,-174.93 490,-165 512.26,-156.47 537.86,-148.41 557.78,-142.52"/>
<polygon fill="midnightblue" stroke="midnightblue" points="413.13,-194.95 405.66,-202.45 416.19,-201.25 413.13,-194.95"/>
</g>
<!-- Node35 -->
<g id="node35" class="node">
<title>Node35</title>
<g id="a_node35"><a xlink:href="classDynExpInstr_1_1Spectrometer.html" target="_top" xlink:title="Meta instrument for a spectrometer.">
<polygon fill="white" stroke="black" points="518.5,-48.5 518.5,-67.5 666.5,-67.5 666.5,-48.5 518.5,-48.5"/>
<text text-anchor="middle" x="592.5" y="-55.5" font-family="Helvetica,sans-Serif" font-size="10.00">DynExpInstr::Spectrometer</text>
</a>
</g>
</g>
<!-- Node1&#45;&gt;Node35 -->
<g id="edge34" class="edge">
<title>Node1&#45;&gt;Node35</title>
<path fill="none" stroke="midnightblue" d="M402.06,-194.8C421.38,-174.05 455.96,-138.88 490,-114 516.16,-94.88 549.56,-77.66 570.75,-67.51"/>
<polygon fill="midnightblue" stroke="midnightblue" points="399.41,-192.51 395.21,-202.24 404.56,-197.25 399.41,-192.51"/>
</g>
<!-- Node2 -->
<g id="node2" class="node">
<title>Node2</title>
<g id="a_node2"><a xlink:href="classDynExp_1_1RunnableObject.html" target="_top" xlink:title="Defines an Object which possesses a thread it runs in. The RunnableObject can be started and stopped ...">
<polygon fill="white" stroke="black" points="144,-202.5 144,-221.5 281,-221.5 281,-202.5 144,-202.5"/>
<text text-anchor="middle" x="212.5" y="-209.5" font-family="Helvetica,sans-Serif" font-size="10.00">DynExp::RunnableObject</text>
</a>
</g>
</g>
<!-- Node2&#45;&gt;Node1 -->
<g id="edge1" class="edge">
<title>Node2&#45;&gt;Node1</title>
<path fill="none" stroke="midnightblue" d="M291.1,-212C299.69,-212 308.39,-212 316.85,-212"/>
<polygon fill="midnightblue" stroke="midnightblue" points="291.08,-208.5 281.08,-212 291.08,-215.5 291.08,-208.5"/>
</g>
<!-- Node3 -->
<g id="node3" class="node">
<title>Node3</title>
<g id="a_node3"><a xlink:href="classUtil_1_1INonCopyable.html" target="_top" xlink:title="Interface to delete copy constructor and copy assignment operator and thus make derived classes non&#45;c...">
<polygon fill="white" stroke="black" points="0,-221.5 0,-240.5 108,-240.5 108,-221.5 0,-221.5"/>
<text text-anchor="middle" x="54" y="-228.5" font-family="Helvetica,sans-Serif" font-size="10.00">Util::INonCopyable</text>
</a>
</g>
</g>
<!-- Node3&#45;&gt;Node2 -->
<g id="edge2" class="edge">
<title>Node3&#45;&gt;Node2</title>
<path fill="none" stroke="midnightblue" d="M118.5,-223.29C126.87,-222.27 135.49,-221.23 143.93,-220.2"/>
<polygon fill="midnightblue" stroke="midnightblue" points="117.93,-219.83 108.42,-224.51 118.77,-226.78 117.93,-219.83"/>
</g>
<!-- Node4 -->
<g id="node4" class="node">
<title>Node4</title>
<g id="a_node4"><a xlink:href="classDynExp_1_1Object.html" target="_top" xlink:title="Base class for all DynExp Objects like hardware adapters (DynExp::HardwareAdapterBase),...">
<polygon fill="white" stroke="black" points="8,-183.5 8,-202.5 100,-202.5 100,-183.5 8,-183.5"/>
<text text-anchor="middle" x="54" y="-190.5" font-family="Helvetica,sans-Serif" font-size="10.00">DynExp::Object</text>
</a>
</g>
</g>
<!-- Node4&#45;&gt;Node2 -->
<g id="edge3" class="edge">
<title>Node4&#45;&gt;Node2</title>
<path fill="none" stroke="midnightblue" d="M110.43,-199.73C121.26,-201.04 132.74,-202.44 143.91,-203.79"/>
<polygon fill="midnightblue" stroke="midnightblue" points="110.62,-196.23 100.27,-198.5 109.77,-203.18 110.62,-196.23"/>
</g>
<!-- Node6 -->
<g id="node6" class="node">
<title>Node6</title>
<g id="a_node6"><a xlink:href="classDynExpInstr_1_1WidefieldLocalization.html" target="_top" xlink:title=" ">
<polygon fill="white" stroke="black" points="765,-430.5 765,-449.5 951,-449.5 951,-430.5 765,-430.5"/>
<text text-anchor="middle" x="858" y="-437.5" font-family="Helvetica,sans-Serif" font-size="10.00">DynExpInstr::WidefieldLocalization</text>
</a>
</g>
</g>
<!-- Node5&#45;&gt;Node6 -->
<g id="edge5" class="edge">
<title>Node5&#45;&gt;Node6</title>
<path fill="none" stroke="midnightblue" d="M705.37,-433.67C725.2,-434.5 745.65,-435.35 764.87,-436.15"/>
<polygon fill="midnightblue" stroke="midnightblue" points="705.51,-430.17 695.38,-433.25 705.22,-437.17 705.51,-430.17"/>
</g>
<!-- Node8 -->
<g id="node8" class="node">
<title>Node8</title>
<g id="a_node8"><a xlink:href="classDynExpInstr_1_1DummyCamera.html" target="_top" xlink:title=" ">
<polygon fill="white" stroke="black" points="778.5,-392.5 778.5,-411.5 937.5,-411.5 937.5,-392.5 778.5,-392.5"/>
<text text-anchor="middle" x="858" y="-399.5" font-family="Helvetica,sans-Serif" font-size="10.00">DynExpInstr::DummyCamera</text>
</a>
</g>
</g>
<!-- Node7&#45;&gt;Node8 -->
<g id="edge7" class="edge">
<title>Node7&#45;&gt;Node8</title>
<path fill="none" stroke="midnightblue" d="M662.76,-373.99C702.46,-379.71 752,-386.86 791.12,-392.5"/>
<polygon fill="midnightblue" stroke="midnightblue" points="663.03,-370.49 652.63,-372.53 662.03,-377.42 663.03,-370.49"/>
</g>
<!-- Node9 -->
<g id="node9" class="node">
<title>Node9</title>
<g id="a_node9"><a xlink:href="classDynExpInstr_1_1PVCam.html" target="_top" xlink:title=" ">
<polygon fill="white" stroke="black" points="799.5,-354.5 799.5,-373.5 916.5,-373.5 916.5,-354.5 799.5,-354.5"/>
<text text-anchor="middle" x="858" y="-361.5" font-family="Helvetica,sans-Serif" font-size="10.00">DynExpInstr::PVCam</text>
</a>
</g>
</g>
<!-- Node7&#45;&gt;Node9 -->
<g id="edge8" class="edge">
<title>Node7&#45;&gt;Node9</title>
<path fill="none" stroke="midnightblue" d="M662.64,-364C705.22,-364 759.17,-364 799.42,-364"/>
<polygon fill="midnightblue" stroke="midnightblue" points="662.63,-360.5 652.63,-364 662.63,-367.5 662.63,-360.5"/>
</g>
<!-- Node11 -->
<g id="node11" class="node">
<title>Node11</title>
<g id="a_node11"><a xlink:href="classDynExpInstr_1_1FunctionGenerator.html" target="_top" xlink:title="Function generator meta instrument based on the data stream meta instrument to generate waveforms by ...">
<polygon fill="white" stroke="black" points="772,-316.5 772,-335.5 944,-335.5 944,-316.5 772,-316.5"/>
<text text-anchor="middle" x="858" y="-323.5" font-family="Helvetica,sans-Serif" font-size="10.00">DynExpInstr::FunctionGenerator</text>
</a>
</g>
</g>
<!-- Node10&#45;&gt;Node11 -->
<g id="edge10" class="edge">
<title>Node10&#45;&gt;Node11</title>
<path fill="none" stroke="midnightblue" d="M630.68,-246.98C684.32,-265.71 782.16,-299.87 829.67,-316.46"/>
<polygon fill="midnightblue" stroke="midnightblue" points="631.8,-243.66 621.2,-243.67 629.49,-250.27 631.8,-243.66"/>
</g>
<!-- Node21 -->
<g id="node21" class="node">
<title>Node21</title>
<g id="a_node21"><a xlink:href="classDynExpInstr_1_1InputPort.html" target="_top" xlink:title="Generic input port meta instrument based on the data stream meta instrument to read data from hardwar...">
<polygon fill="white" stroke="black" points="795,-250.5 795,-269.5 921,-269.5 921,-250.5 795,-250.5"/>
<text text-anchor="middle" x="858" y="-257.5" font-family="Helvetica,sans-Serif" font-size="10.00">DynExpInstr::InputPort</text>
</a>
</g>
</g>
<!-- Node10&#45;&gt;Node21 -->
<g id="edge20" class="edge">
<title>Node10&#45;&gt;Node21</title>
<path fill="none" stroke="midnightblue" d="M700.09,-244.52C732.21,-247.69 766.39,-251.06 794.63,-253.85"/>
<polygon fill="midnightblue" stroke="midnightblue" points="700.04,-241 689.75,-243.5 699.36,-247.96 700.04,-241"/>
</g>
<!-- Node26 -->
<g id="node26" class="node">
<title>Node26</title>
<g id="a_node26"><a xlink:href="classDynExpInstr_1_1LockinAmplifier.html" target="_top" xlink:title="Meta instrument for a lock&#45;in amplifier based on the data stream meta instrument.">
<polygon fill="white" stroke="black" points="779,-212.5 779,-231.5 937,-231.5 937,-212.5 779,-212.5"/>
<text text-anchor="middle" x="858" y="-219.5" font-family="Helvetica,sans-Serif" font-size="10.00">DynExpInstr::LockinAmplifier</text>
</a>
</g>
</g>
<!-- Node10&#45;&gt;Node26 -->
<g id="edge25" class="edge">
<title>Node10&#45;&gt;Node26</title>
<path fill="none" stroke="midnightblue" d="M699.78,-229.16C726.15,-227.96 753.95,-226.69 778.71,-225.57"/>
<polygon fill="midnightblue" stroke="midnightblue" points="699.58,-225.67 689.75,-229.62 699.9,-232.66 699.58,-225.67"/>
</g>
<!-- Node28 -->
<g id="node28" class="node">
<title>Node28</title>
<g id="a_node28"><a xlink:href="classDynExpInstr_1_1TimeTagger.html" target="_top" xlink:title="Meta instrument for a time tagging device to assign timestamps to (e.g. photon) detection events base...">
<polygon fill="white" stroke="black" points="788.5,-174.5 788.5,-193.5 927.5,-193.5 927.5,-174.5 788.5,-174.5"/>
<text text-anchor="middle" x="858" y="-181.5" font-family="Helvetica,sans-Serif" font-size="10.00">DynExpInstr::TimeTagger</text>
</a>
</g>
</g>
<!-- Node10&#45;&gt;Node28 -->
<g id="edge27" class="edge">
<title>Node10&#45;&gt;Node28</title>
<path fill="none" stroke="midnightblue" d="M657.16,-222.49C669.75,-219.92 682.83,-217.05 695,-214 711.23,-209.93 714.68,-206.7 731,-203 749.45,-198.81 769.63,-195.31 788.32,-192.49"/>
<polygon fill="midnightblue" stroke="midnightblue" points="656.32,-219.09 647.19,-224.48 657.69,-225.95 656.32,-219.09"/>
</g>
<!-- Node12 -->
<g id="node12" class="node">
<title>Node12</title>
<g id="a_node12"><a xlink:href="classDynExpInstr_1_1DummyDataStreamInstrument.html" target="_top" xlink:title=" ">
<polygon fill="white" stroke="black" points="1026,-453 1026,-483 1205,-483 1205,-453 1026,-453"/>
<text text-anchor="start" x="1034" y="-471" font-family="Helvetica,sans-Serif" font-size="10.00">DynExpInstr::DummyDataStream</text>
<text text-anchor="middle" x="1115.5" y="-460" font-family="Helvetica,sans-Serif" font-size="10.00">Instrument</text>
</a>
</g>
</g>
<!-- Node11&#45;&gt;Node12 -->
<g id="edge11" class="edge">
<title>Node11&#45;&gt;Node12</title>
<path fill="none" stroke="midnightblue" d="M954.15,-329C965.35,-332.51 975.98,-337.65 985,-345 1020.96,-374.33 986.73,-411.71 1021,-443 1025.22,-446.85 1029.97,-450.12 1035.03,-452.9"/>
<polygon fill="midnightblue" stroke="midnightblue" points="954.76,-325.53 944.19,-326.31 952.93,-332.29 954.76,-325.53"/>
</g>
<!-- Node13 -->
<g id="node13" class="node">
<title>Node13</title>
<g id="a_node13"><a xlink:href="classDynExpInstr_1_1OutputPort.html" target="_top" xlink:title="Generic output port meta instrument based on the data stream and function generator meta instruments ...">
<polygon fill="white" stroke="black" points="1048.5,-414.5 1048.5,-433.5 1182.5,-433.5 1182.5,-414.5 1048.5,-414.5"/>
<text text-anchor="middle" x="1115.5" y="-421.5" font-family="Helvetica,sans-Serif" font-size="10.00">DynExpInstr::OutputPort</text>
</a>
</g>
</g>
<!-- Node11&#45;&gt;Node13 -->
<g id="edge12" class="edge">
<title>Node11&#45;&gt;Node13</title>
<path fill="none" stroke="midnightblue" d="M953.93,-330.95C964.97,-334.18 975.62,-338.72 985,-345 1010.84,-362.3 995.61,-387.05 1021,-405 1029.12,-410.74 1038.56,-414.83 1048.27,-417.73"/>
<polygon fill="midnightblue" stroke="midnightblue" points="954.7,-327.54 944.14,-328.44 952.96,-334.32 954.7,-327.54"/>
</g>
<!-- Node18 -->
<g id="node18" class="node">
<title>Node18</title>
<g id="a_node18"><a xlink:href="classDynExpInstr_1_1RS__SMB100B.html" target="_top" xlink:title=" ">
<polygon fill="white" stroke="black" points="1042.5,-376.5 1042.5,-395.5 1188.5,-395.5 1188.5,-376.5 1042.5,-376.5"/>
<text text-anchor="middle" x="1115.5" y="-383.5" font-family="Helvetica,sans-Serif" font-size="10.00">DynExpInstr::RS_SMB100B</text>
</a>
</g>
</g>
<!-- Node11&#45;&gt;Node18 -->
<g id="edge17" class="edge">
<title>Node11&#45;&gt;Node18</title>
<path fill="none" stroke="midnightblue" d="M954.29,-336.2C964.81,-338.55 975.23,-341.44 985,-345 1002.62,-351.41 1003.55,-360.14 1021,-367 1030.71,-370.82 1041.31,-373.91 1051.76,-376.4"/>
<polygon fill="midnightblue" stroke="midnightblue" points="954.71,-332.72 944.2,-334.11 953.29,-339.57 954.71,-332.72"/>
</g>
<!-- Node19 -->
<g id="node19" class="node">
<title>Node19</title>
<g id="a_node19"><a xlink:href="classDynExpInstr_1_1RS__SMC100A.html" target="_top" xlink:title=" ">
<polygon fill="white" stroke="black" points="1042.5,-338.5 1042.5,-357.5 1188.5,-357.5 1188.5,-338.5 1042.5,-338.5"/>
<text text-anchor="middle" x="1115.5" y="-345.5" font-family="Helvetica,sans-Serif" font-size="10.00">DynExpInstr::RS_SMC100A</text>
</a>
</g>
</g>
<!-- Node11&#45;&gt;Node19 -->
<g id="edge18" class="edge">
<title>Node11&#45;&gt;Node19</title>
<path fill="none" stroke="midnightblue" d="M954.26,-334.2C983.36,-336.71 1014.86,-339.42 1042.18,-341.77"/>
<polygon fill="midnightblue" stroke="midnightblue" points="954.34,-330.7 944.08,-333.33 953.74,-337.67 954.34,-330.7"/>
</g>
<!-- Node20 -->
<g id="node20" class="node">
<title>Node20</title>
<g id="a_node20"><a xlink:href="classDynExpInstr_1_1SwabianInstrumentsPulseStreamer.html" target="_top" xlink:title=" ">
<polygon fill="white" stroke="black" points="1024.5,-289 1024.5,-319 1206.5,-319 1206.5,-289 1024.5,-289"/>
<text text-anchor="start" x="1032.5" y="-307" font-family="Helvetica,sans-Serif" font-size="10.00">DynExpInstr::SwabianInstruments</text>
<text text-anchor="middle" x="1115.5" y="-296" font-family="Helvetica,sans-Serif" font-size="10.00">PulseStreamer</text>
</a>
</g>
</g>
<!-- Node11&#45;&gt;Node20 -->
<g id="edge19" class="edge">
<title>Node11&#45;&gt;Node20</title>
<path fill="none" stroke="midnightblue" d="M954.13,-317.81C977.03,-315.84 1001.42,-313.74 1024.1,-311.78"/>
<polygon fill="midnightblue" stroke="midnightblue" points="953.74,-314.33 944.08,-318.67 954.34,-321.3 953.74,-314.33"/>
</g>
<!-- Node14 -->
<g id="node14" class="node">
<title>Node14</title>
<g id="a_node14"><a xlink:href="classDynExpInstr_1_1AnalogOut.html" target="_top" xlink:title="Meta instrument for a single analog output port based on the data stream, function generator,...">
<polygon fill="white" stroke="black" points="1258,-433.5 1258,-452.5 1391,-452.5 1391,-433.5 1258,-433.5"/>
<text text-anchor="middle" x="1324.5" y="-440.5" font-family="Helvetica,sans-Serif" font-size="10.00">DynExpInstr::AnalogOut</text>
</a>
</g>
</g>
<!-- Node13&#45;&gt;Node14 -->
<g id="edge13" class="edge">
<title>Node13&#45;&gt;Node14</title>
<path fill="none" stroke="midnightblue" d="M1192.58,-430.98C1213.94,-432.94 1236.99,-435.06 1257.71,-436.96"/>
<polygon fill="midnightblue" stroke="midnightblue" points="1192.84,-427.49 1182.57,-430.06 1192.2,-434.46 1192.84,-427.49"/>
</g>
<!-- Node16 -->
<g id="node16" class="node">
<title>Node16</title>
<g id="a_node16"><a xlink:href="classDynExpInstr_1_1DigitalOut.html" target="_top" xlink:title="Meta instrument for a single digital output port based on the data stream, function generator,...">
<polygon fill="white" stroke="black" points="1259,-395.5 1259,-414.5 1390,-414.5 1390,-395.5 1259,-395.5"/>
<text text-anchor="middle" x="1324.5" y="-402.5" font-family="Helvetica,sans-Serif" font-size="10.00">DynExpInstr::DigitalOut</text>
</a>
</g>
</g>
<!-- Node13&#45;&gt;Node16 -->
<g id="edge15" class="edge">
<title>Node13&#45;&gt;Node16</title>
<path fill="none" stroke="midnightblue" d="M1192.73,-417C1214.42,-415.01 1237.83,-412.86 1258.77,-410.94"/>
<polygon fill="midnightblue" stroke="midnightblue" points="1192.2,-413.54 1182.57,-417.94 1192.84,-420.51 1192.2,-413.54"/>
</g>
<!-- Node15 -->
<g id="node15" class="node">
<title>Node15</title>
<g id="a_node15"><a xlink:href="classDynExpInstr_1_1NIDAQAnalogOut.html" target="_top" xlink:title=" ">
<polygon fill="white" stroke="black" points="1439,-433.5 1439,-452.5 1604,-452.5 1604,-433.5 1439,-433.5"/>
<text text-anchor="middle" x="1521.5" y="-440.5" font-family="Helvetica,sans-Serif" font-size="10.00">DynExpInstr::NIDAQAnalogOut</text>
</a>
</g>
</g>
<!-- Node14&#45;&gt;Node15 -->
<g id="edge14" class="edge">
<title>Node14&#45;&gt;Node15</title>
<path fill="none" stroke="midnightblue" d="M1401.41,-443C1413.66,-443 1426.4,-443 1438.78,-443"/>
<polygon fill="midnightblue" stroke="midnightblue" points="1401.25,-439.5 1391.25,-443 1401.25,-446.5 1401.25,-439.5"/>
</g>
<!-- Node17 -->
<g id="node17" class="node">
<title>Node17</title>
<g id="a_node17"><a xlink:href="classDynExpInstr_1_1NIDAQDigitalOut.html" target="_top" xlink:title=" ">
<polygon fill="white" stroke="black" points="1439.5,-395.5 1439.5,-414.5 1603.5,-414.5 1603.5,-395.5 1439.5,-395.5"/>
<text text-anchor="middle" x="1521.5" y="-402.5" font-family="Helvetica,sans-Serif" font-size="10.00">DynExpInstr::NIDAQDigitalOut</text>
</a>
</g>
</g>
<!-- Node16&#45;&gt;Node17 -->
<g id="edge16" class="edge">
<title>Node16&#45;&gt;Node17</title>
<path fill="none" stroke="midnightblue" d="M1400.28,-405C1413.06,-405 1426.4,-405 1439.34,-405"/>
<polygon fill="midnightblue" stroke="midnightblue" points="1400.16,-401.5 1390.16,-405 1400.16,-408.5 1400.16,-401.5"/>
</g>
<!-- Node22 -->
<g id="node22" class="node">
<title>Node22</title>
<g id="a_node22"><a xlink:href="classDynExpInstr_1_1AnalogIn.html" target="_top" xlink:title="Meta instrument for a single analog input port based on the data stream and generic input port meta i...">
<polygon fill="white" stroke="black" points="1053,-250.5 1053,-269.5 1178,-269.5 1178,-250.5 1053,-250.5"/>
<text text-anchor="middle" x="1115.5" y="-257.5" font-family="Helvetica,sans-Serif" font-size="10.00">DynExpInstr::AnalogIn</text>
</a>
</g>
</g>
<!-- Node21&#45;&gt;Node22 -->
<g id="edge21" class="edge">
<title>Node21&#45;&gt;Node22</title>
<path fill="none" stroke="midnightblue" d="M931.25,-260C969.63,-260 1016.29,-260 1052.93,-260"/>
<polygon fill="midnightblue" stroke="midnightblue" points="931.18,-256.5 921.18,-260 931.18,-263.5 931.18,-256.5"/>
</g>
<!-- Node24 -->
<g id="node24" class="node">
<title>Node24</title>
<g id="a_node24"><a xlink:href="classDynExpInstr_1_1DigitalIn.html" target="_top" xlink:title="Meta instrument for a single digital input port based on the data stream and generic input port meta ...">
<polygon fill="white" stroke="black" points="1054,-212.5 1054,-231.5 1177,-231.5 1177,-212.5 1054,-212.5"/>
<text text-anchor="middle" x="1115.5" y="-219.5" font-family="Helvetica,sans-Serif" font-size="10.00">DynExpInstr::DigitalIn</text>
</a>
</g>
</g>
<!-- Node21&#45;&gt;Node24 -->
<g id="edge23" class="edge">
<title>Node21&#45;&gt;Node24</title>
<path fill="none" stroke="midnightblue" d="M931.33,-249.24C970,-243.49 1017.07,-236.49 1053.81,-231.03"/>
<polygon fill="midnightblue" stroke="midnightblue" points="930.55,-245.82 921.18,-250.75 931.58,-252.74 930.55,-245.82"/>
</g>
<!-- Node23 -->
<g id="node23" class="node">
<title>Node23</title>
<g id="a_node23"><a xlink:href="classDynExpInstr_1_1NIDAQAnalogIn.html" target="_top" xlink:title=" ">
<polygon fill="white" stroke="black" points="1246,-250.5 1246,-269.5 1403,-269.5 1403,-250.5 1246,-250.5"/>
<text text-anchor="middle" x="1324.5" y="-257.5" font-family="Helvetica,sans-Serif" font-size="10.00">DynExpInstr::NIDAQAnalogIn</text>
</a>
</g>
</g>
<!-- Node22&#45;&gt;Node23 -->
<g id="edge22" class="edge">
<title>Node22&#45;&gt;Node23</title>
<path fill="none" stroke="midnightblue" d="M1188.18,-260C1206.73,-260 1226.79,-260 1245.65,-260"/>
<polygon fill="midnightblue" stroke="midnightblue" points="1188.05,-256.5 1178.05,-260 1188.05,-263.5 1188.05,-256.5"/>
</g>
<!-- Node25 -->
<g id="node25" class="node">
<title>Node25</title>
<g id="a_node25"><a xlink:href="classDynExpInstr_1_1NIDAQDigitalIn.html" target="_top" xlink:title=" ">
<polygon fill="white" stroke="black" points="1247,-212.5 1247,-231.5 1402,-231.5 1402,-212.5 1247,-212.5"/>
<text text-anchor="middle" x="1324.5" y="-219.5" font-family="Helvetica,sans-Serif" font-size="10.00">DynExpInstr::NIDAQDigitalIn</text>
</a>
</g>
</g>
<!-- Node24&#45;&gt;Node25 -->
<g id="edge24" class="edge">
<title>Node24&#45;&gt;Node25</title>
<path fill="none" stroke="midnightblue" d="M1187.38,-222C1206.59,-222 1227.46,-222 1246.96,-222"/>
<polygon fill="midnightblue" stroke="midnightblue" points="1187.21,-218.5 1177.21,-222 1187.21,-225.5 1187.21,-218.5"/>
</g>
<!-- Node27 -->
<g id="node27" class="node">
<title>Node27</title>
<g id="a_node27"><a xlink:href="classDynExpInstr_1_1ZI__MFLI.html" target="_top" xlink:title=" ">
<polygon fill="white" stroke="black" points="1055.5,-174.5 1055.5,-193.5 1175.5,-193.5 1175.5,-174.5 1055.5,-174.5"/>
<text text-anchor="middle" x="1115.5" y="-181.5" font-family="Helvetica,sans-Serif" font-size="10.00">DynExpInstr::ZI_MFLI</text>
</a>
</g>
</g>
<!-- Node26&#45;&gt;Node27 -->
<g id="edge26" class="edge">
<title>Node26&#45;&gt;Node27</title>
<path fill="none" stroke="midnightblue" d="M933.33,-210.95C972.09,-205.18 1018.85,-198.23 1055.15,-192.83"/>
<polygon fill="midnightblue" stroke="midnightblue" points="932.52,-207.53 923.14,-212.46 933.55,-214.45 932.52,-207.53"/>
</g>
<!-- Node29 -->
<g id="node29" class="node">
<title>Node29</title>
<g id="a_node29"><a xlink:href="classDynExpInstr_1_1QutoolsQuTAG.html" target="_top" xlink:title=" ">
<polygon fill="white" stroke="black" points="1039.5,-136.5 1039.5,-155.5 1191.5,-155.5 1191.5,-136.5 1039.5,-136.5"/>
<text text-anchor="middle" x="1115.5" y="-143.5" font-family="Helvetica,sans-Serif" font-size="10.00">DynExpInstr::QutoolsQuTAG</text>
</a>
</g>
</g>
<!-- Node28&#45;&gt;Node29 -->
<g id="edge28" class="edge">
<title>Node28&#45;&gt;Node29</title>
<path fill="none" stroke="midnightblue" d="M933.39,-172.94C970.44,-167.43 1014.79,-160.83 1050.33,-155.54"/>
<polygon fill="midnightblue" stroke="midnightblue" points="932.52,-169.53 923.14,-174.46 933.55,-176.45 932.52,-169.53"/>
</g>
<!-- Node32 -->
<g id="node32" class="node">
<title>Node32</title>
<g id="a_node32"><a xlink:href="classDynExpInstr_1_1NenionLeakvalveF3.html" target="_top" xlink:title=" ">
<polygon fill="white" stroke="black" points="768.5,-136.5 768.5,-155.5 947.5,-155.5 947.5,-136.5 768.5,-136.5"/>
<text text-anchor="middle" x="858" y="-143.5" font-family="Helvetica,sans-Serif" font-size="10.00">DynExpInstr::NenionLeakvalveF3</text>
</a>
</g>
</g>
<!-- Node31&#45;&gt;Node32 -->
<g id="edge31" class="edge">
<title>Node31&#45;&gt;Node32</title>
<path fill="none" stroke="midnightblue" d="M681.95,-137.36C709.77,-138.74 740.49,-140.25 768.33,-141.63"/>
<polygon fill="midnightblue" stroke="midnightblue" points="682.01,-133.86 671.85,-136.87 681.66,-140.85 682.01,-133.86"/>
</g>
<!-- Node33 -->
<g id="node33" class="node">
<title>Node33</title>
<g id="a_node33"><a xlink:href="classDynExpInstr_1_1PI__C__862.html" target="_top" xlink:title=" ">
<polygon fill="white" stroke="black" points="795,-98.5 795,-117.5 921,-117.5 921,-98.5 795,-98.5"/>
<text text-anchor="middle" x="858" y="-105.5" font-family="Helvetica,sans-Serif" font-size="10.00">DynExpInstr::PI_C_862</text>
</a>
</g>
</g>
<!-- Node31&#45;&gt;Node33 -->
<g id="edge32" class="edge">
<title>Node31&#45;&gt;Node33</title>
<path fill="none" stroke="midnightblue" d="M682.13,-124.59C719.13,-121.08 761.22,-117.09 794.83,-113.9"/>
<polygon fill="midnightblue" stroke="midnightblue" points="681.47,-121.14 671.85,-125.57 682.13,-128.11 681.47,-121.14"/>
</g>
<!-- Node34 -->
<g id="node34" class="node">
<title>Node34</title>
<g id="a_node34"><a xlink:href="classDynExpInstr_1_1SmarAct.html" target="_top" xlink:title=" ">
<polygon fill="white" stroke="black" points="796.5,-60.5 796.5,-79.5 919.5,-79.5 919.5,-60.5 796.5,-60.5"/>
<text text-anchor="middle" x="858" y="-67.5" font-family="Helvetica,sans-Serif" font-size="10.00">DynExpInstr::SmarAct</text>
</a>
</g>
</g>
<!-- Node31&#45;&gt;Node34 -->
<g id="edge33" class="edge">
<title>Node31&#45;&gt;Node34</title>
<path fill="none" stroke="midnightblue" d="M628.58,-120.06C656.11,-110.32 695.57,-97.28 731,-89 752.11,-84.06 775.52,-80.12 796.38,-77.14"/>
<polygon fill="midnightblue" stroke="midnightblue" points="627.24,-116.82 619,-123.48 629.6,-123.41 627.24,-116.82"/>
</g>
<!-- Node36 -->
<g id="node36" class="node">
<title>Node36</title>
<g id="a_node36"><a xlink:href="classDynExpInstr_1_1gRPCInstrument.html" target="_top" xlink:title=" ">
<polygon fill="white" stroke="black" points="731,-0.5 731,-41.5 985,-41.5 985,-0.5 731,-0.5"/>
<text text-anchor="start" x="739" y="-29.5" font-family="Helvetica,sans-Serif" font-size="10.00">DynExpInstr::gRPCInstrument</text>
<text text-anchor="start" x="739" y="-18.5" font-family="Helvetica,sans-Serif" font-size="10.00">&lt; Spectrometer, 0, DynExpProto</text>
<text text-anchor="middle" x="858" y="-7.5" font-family="Helvetica,sans-Serif" font-size="10.00">::NetworkSpectrometer::NetworkSpectrometer &gt;</text>
</a>
</g>
</g>
<!-- Node35&#45;&gt;Node36 -->
<g id="edge35" class="edge">
<title>Node35&#45;&gt;Node36</title>
<path fill="none" stroke="midnightblue" d="M671.27,-47.08C690,-44.45 710.48,-41.57 730.79,-38.72"/>
<polygon fill="midnightblue" stroke="midnightblue" points="670.77,-43.61 661.36,-48.47 671.75,-50.55 670.77,-43.61"/>
</g>
<!-- Node37 -->
<g id="node37" class="node">
<title>Node37</title>
<g id="a_node37"><a xlink:href="classDynExpInstr_1_1NetworkSpectrometer.html" target="_top" xlink:title=" ">
<polygon fill="white" stroke="black" points="1021,-11.5 1021,-30.5 1210,-30.5 1210,-11.5 1021,-11.5"/>
<text text-anchor="middle" x="1115.5" y="-18.5" font-family="Helvetica,sans-Serif" font-size="10.00">DynExpInstr::NetworkSpectrometer</text>
</a>
</g>
</g>
<!-- Node36&#45;&gt;Node37 -->
<g id="edge36" class="edge">
<title>Node36&#45;&gt;Node37</title>
<path fill="none" stroke="midnightblue" d="M995.33,-21C1003.89,-21 1012.41,-21 1020.72,-21"/>
<polygon fill="midnightblue" stroke="midnightblue" points="995.25,-17.5 985.25,-21 995.25,-24.5 995.25,-17.5"/>
</g>
</g>
</svg>
