<?xml version="1.0" encoding="UTF-8" standalone="no"?>
<!DOCTYPE svg PUBLIC "-//W3C//DTD SVG 1.1//EN"
 "http://www.w3.org/Graphics/SVG/1.1/DTD/svg11.dtd">
<!-- Generated by graphviz version 2.43.0 (0)
 -->
<!-- Title: DynExp::QModuleParamsBase Pages: 1 -->
<svg width="1264pt" height="508pt"
 viewBox="0.00 0.00 1264.00 508.00" xmlns="http://www.w3.org/2000/svg" xmlns:xlink="http://www.w3.org/1999/xlink">
<g id="graph0" class="graph" transform="scale(1 1) rotate(0) translate(4 504)">
<title>DynExp::QModuleParamsBase</title>
<!-- Node1 -->
<g id="Node000001" class="node">
<title>Node1</title>
<g id="a_Node000001"><a xlink:title="Parameter class for QModuleBase.">
<polygon fill="#999999" stroke="#666666" points="1044,-254.5 880,-254.5 880,-235.5 1044,-235.5 1044,-254.5"/>
<text text-anchor="middle" x="962" y="-242.5" font-family="Helvetica,sans-Serif" font-size="10.00">DynExp::QModuleParamsBase</text>
</a>
</g>
</g>
<!-- Node7 -->
<g id="Node000007" class="node">
<title>Node7</title>
<g id="a_Node000007"><a xlink:href="classDynExpModule_1_1ImageViewer_1_1ImageViewerParams.html" target="_top" xlink:title=" ">
<polygon fill="white" stroke="#666666" points="1248.5,-500 1087.5,-500 1087.5,-470 1248.5,-470 1248.5,-500"/>
<text text-anchor="start" x="1095.5" y="-488" font-family="Helvetica,sans-Serif" font-size="10.00">DynExpModule::ImageViewer</text>
<text text-anchor="middle" x="1168" y="-477" font-family="Helvetica,sans-Serif" font-size="10.00">::ImageViewerParams</text>
</a>
</g>
</g>
<!-- Node1&#45;&gt;Node7 -->
<g id="edge6_Node000001_Node000007" class="edge">
<title>Node1&#45;&gt;Node7</title>
<g id="a_edge6_Node000001_Node000007"><a xlink:title=" ">
<path fill="none" stroke="#63b8ff" d="M967.9,-264.37C979.65,-306.75 1013.5,-408.13 1080,-461 1084.29,-464.41 1089.04,-467.34 1094.03,-469.85"/>
<polygon fill="#63b8ff" stroke="#63b8ff" points="971.23,-263.26 965.28,-254.5 964.47,-265.07 971.23,-263.26"/>
</a>
</g>
</g>
<!-- Node8 -->
<g id="Node000008" class="node">
<title>Node8</title>
<g id="a_Node000008"><a xlink:href="classDynExpModule_1_1InputPortReaderParams.html" target="_top" xlink:title=" ">
<polygon fill="white" stroke="#666666" points="1255.5,-452 1080.5,-452 1080.5,-422 1255.5,-422 1255.5,-452"/>
<text text-anchor="start" x="1088.5" y="-440" font-family="Helvetica,sans-Serif" font-size="10.00">DynExpModule::InputPortReader</text>
<text text-anchor="middle" x="1168" y="-429" font-family="Helvetica,sans-Serif" font-size="10.00">Params</text>
</a>
</g>
</g>
<!-- Node1&#45;&gt;Node8 -->
<g id="edge7_Node000001_Node000008" class="edge">
<title>Node1&#45;&gt;Node8</title>
<g id="a_edge7_Node000001_Node000008"><a xlink:title=" ">
<path fill="none" stroke="#63b8ff" d="M971.03,-264.29C986.64,-299.4 1024.52,-373.74 1080,-413 1084.86,-416.44 1090.19,-419.39 1095.76,-421.91"/>
<polygon fill="#63b8ff" stroke="#63b8ff" points="974.08,-262.53 966.9,-254.73 967.65,-265.3 974.08,-262.53"/>
</a>
</g>
</g>
<!-- Node9 -->
<g id="Node000009" class="node">
<title>Node9</title>
<g id="a_Node000009"><a xlink:href="classDynExpModule_1_1LockinAmplifierControlParams.html" target="_top" xlink:title=" ">
<polygon fill="white" stroke="#666666" points="1254,-404 1082,-404 1082,-374 1254,-374 1254,-404"/>
<text text-anchor="start" x="1090" y="-392" font-family="Helvetica,sans-Serif" font-size="10.00">DynExpModule::LockinAmplifier</text>
<text text-anchor="middle" x="1168" y="-381" font-family="Helvetica,sans-Serif" font-size="10.00">ControlParams</text>
</a>
</g>
</g>
<!-- Node1&#45;&gt;Node9 -->
<g id="edge8_Node000001_Node000009" class="edge">
<title>Node1&#45;&gt;Node9</title>
<g id="a_edge8_Node000001_Node000009"><a xlink:title=" ">
<path fill="none" stroke="#63b8ff" d="M975.66,-263.1C995.08,-289.48 1034.73,-338.26 1080,-365 1085.8,-368.43 1092.11,-371.38 1098.59,-373.92"/>
<polygon fill="#63b8ff" stroke="#63b8ff" points="978.35,-260.84 969.67,-254.77 972.67,-264.93 978.35,-260.84"/>
</a>
</g>
</g>
<!-- Node10 -->
<g id="Node000010" class="node">
<title>Node10</title>
<g id="a_Node000010"><a xlink:href="classDynExpModule_1_1ODMR_1_1ODMRParams.html" target="_top" xlink:title=" ">
<polygon fill="white" stroke="#666666" points="1231.5,-356 1104.5,-356 1104.5,-326 1231.5,-326 1231.5,-356"/>
<text text-anchor="start" x="1112.5" y="-344" font-family="Helvetica,sans-Serif" font-size="10.00">DynExpModule::ODMR</text>
<text text-anchor="middle" x="1168" y="-333" font-family="Helvetica,sans-Serif" font-size="10.00">::ODMRParams</text>
</a>
</g>
</g>
<!-- Node1&#45;&gt;Node10 -->
<g id="edge9_Node000001_Node000010" class="edge">
<title>Node1&#45;&gt;Node10</title>
<g id="a_edge9_Node000001_Node000010"><a xlink:title=" ">
<path fill="none" stroke="#63b8ff" d="M984.23,-260.63C1006.93,-276.71 1044.48,-301.54 1080,-317 1087.76,-320.38 1096.11,-323.4 1104.47,-326.06"/>
<polygon fill="#63b8ff" stroke="#63b8ff" points="986.17,-257.72 976.01,-254.73 982.09,-263.4 986.17,-257.72"/>
</a>
</g>
</g>
<!-- Node11 -->
<g id="Node000011" class="node">
<title>Node11</title>
<g id="a_Node000011"><a xlink:href="classDynExpModule_1_1OutputPortWriterParams.html" target="_top" xlink:title=" ">
<polygon fill="white" stroke="#666666" points="1242.5,-308 1093.5,-308 1093.5,-278 1242.5,-278 1242.5,-308"/>
<text text-anchor="start" x="1101.5" y="-296" font-family="Helvetica,sans-Serif" font-size="10.00">DynExpModule::OutputPort</text>
<text text-anchor="middle" x="1168" y="-285" font-family="Helvetica,sans-Serif" font-size="10.00">WriterParams</text>
</a>
</g>
</g>
<!-- Node1&#45;&gt;Node11 -->
<g id="edge10_Node000001_Node000011" class="edge">
<title>Node1&#45;&gt;Node11</title>
<g id="a_edge10_Node000001_Node000011"><a xlink:title=" ">
<path fill="none" stroke="#63b8ff" d="M1013.8,-256.95C1040.79,-263.3 1074.23,-271.17 1102.98,-277.94"/>
<polygon fill="#63b8ff" stroke="#63b8ff" points="1014.33,-253.48 1003.79,-254.6 1012.72,-260.3 1014.33,-253.48"/>
</a>
</g>
</g>
<!-- Node12 -->
<g id="Node000012" class="node">
<title>Node12</title>
<g id="a_Node000012"><a xlink:href="classDynExpModule_1_1SignalDesignerParams.html" target="_top" xlink:title=" ">
<polygon fill="white" stroke="#666666" points="1253,-260 1083,-260 1083,-230 1253,-230 1253,-260"/>
<text text-anchor="start" x="1091" y="-248" font-family="Helvetica,sans-Serif" font-size="10.00">DynExpModule::SignalDesigner</text>
<text text-anchor="middle" x="1168" y="-237" font-family="Helvetica,sans-Serif" font-size="10.00">Params</text>
</a>
</g>
</g>
<!-- Node1&#45;&gt;Node12 -->
<g id="edge11_Node000001_Node000012" class="edge">
<title>Node1&#45;&gt;Node12</title>
<g id="a_edge11_Node000001_Node000012"><a xlink:title=" ">
<path fill="none" stroke="#63b8ff" d="M1054.39,-245C1063.82,-245 1073.37,-245 1082.73,-245"/>
<polygon fill="#63b8ff" stroke="#63b8ff" points="1054.21,-241.5 1044.21,-245 1054.21,-248.5 1054.21,-241.5"/>
</a>
</g>
</g>
<!-- Node13 -->
<g id="Node000013" class="node">
<title>Node13</title>
<g id="a_Node000013"><a xlink:href="classDynExpModule_1_1SignalPlotterParams.html" target="_top" xlink:title=" ">
<polygon fill="white" stroke="#666666" points="1247,-212 1089,-212 1089,-182 1247,-182 1247,-212"/>
<text text-anchor="start" x="1097" y="-200" font-family="Helvetica,sans-Serif" font-size="10.00">DynExpModule::SignalPlotter</text>
<text text-anchor="middle" x="1168" y="-189" font-family="Helvetica,sans-Serif" font-size="10.00">Params</text>
</a>
</g>
</g>
<!-- Node1&#45;&gt;Node13 -->
<g id="edge12_Node000001_Node000013" class="edge">
<title>Node1&#45;&gt;Node13</title>
<g id="a_edge12_Node000001_Node000013"><a xlink:title=" ">
<path fill="none" stroke="#63b8ff" d="M1013.8,-233.05C1040.79,-226.7 1074.23,-218.83 1102.98,-212.06"/>
<polygon fill="#63b8ff" stroke="#63b8ff" points="1012.72,-229.7 1003.79,-235.4 1014.33,-236.52 1012.72,-229.7"/>
</a>
</g>
</g>
<!-- Node14 -->
<g id="Node000014" class="node">
<title>Node14</title>
<g id="a_Node000014"><a xlink:href="classDynExpModule_1_1SpectrumViewer_1_1SpectrumViewerParams.html" target="_top" xlink:title=" ">
<polygon fill="white" stroke="#666666" points="1256,-164 1080,-164 1080,-134 1256,-134 1256,-164"/>
<text text-anchor="start" x="1088" y="-152" font-family="Helvetica,sans-Serif" font-size="10.00">DynExpModule::SpectrumViewer</text>
<text text-anchor="middle" x="1168" y="-141" font-family="Helvetica,sans-Serif" font-size="10.00">::SpectrumViewerParams</text>
</a>
</g>
</g>
<!-- Node1&#45;&gt;Node14 -->
<g id="edge13_Node000001_Node000014" class="edge">
<title>Node1&#45;&gt;Node14</title>
<g id="a_edge13_Node000001_Node000014"><a xlink:title=" ">
<path fill="none" stroke="#63b8ff" d="M984.23,-229.37C1006.93,-213.29 1044.48,-188.46 1080,-173 1087.61,-169.69 1095.81,-166.72 1104.01,-164.09"/>
<polygon fill="#63b8ff" stroke="#63b8ff" points="982.09,-226.6 976.01,-235.27 986.17,-232.28 982.09,-226.6"/>
</a>
</g>
</g>
<!-- Node15 -->
<g id="Node000015" class="node">
<title>Node15</title>
<g id="a_Node000015"><a xlink:href="classDynExpModule_1_1Stage1DParams.html" target="_top" xlink:title=" ">
<polygon fill="white" stroke="#666666" points="1254.5,-115.5 1081.5,-115.5 1081.5,-96.5 1254.5,-96.5 1254.5,-115.5"/>
<text text-anchor="middle" x="1168" y="-103.5" font-family="Helvetica,sans-Serif" font-size="10.00">DynExpModule::Stage1DParams</text>
</a>
</g>
</g>
<!-- Node1&#45;&gt;Node15 -->
<g id="edge14_Node000001_Node000015" class="edge">
<title>Node1&#45;&gt;Node15</title>
<g id="a_edge14_Node000001_Node000015"><a xlink:title=" ">
<path fill="none" stroke="#63b8ff" d="M975.2,-226.98C994.27,-200.28 1033.8,-150.63 1080,-125 1087.03,-121.1 1094.79,-118 1102.7,-115.54"/>
<polygon fill="#63b8ff" stroke="#63b8ff" points="972.18,-225.18 969.33,-235.38 977.92,-229.19 972.18,-225.18"/>
</a>
</g>
</g>
<!-- Node16 -->
<g id="Node000016" class="node">
<title>Node16</title>
<g id="a_Node000016"><a xlink:href="classDynExpModule_1_1Trajectory1DParams.html" target="_top" xlink:title=" ">
<polygon fill="white" stroke="#666666" points="1243,-78 1093,-78 1093,-48 1243,-48 1243,-78"/>
<text text-anchor="start" x="1101" y="-66" font-family="Helvetica,sans-Serif" font-size="10.00">DynExpModule::Trajectory1</text>
<text text-anchor="middle" x="1168" y="-55" font-family="Helvetica,sans-Serif" font-size="10.00">DParams</text>
</a>
</g>
</g>
<!-- Node1&#45;&gt;Node16 -->
<g id="edge15_Node000001_Node000016" class="edge">
<title>Node1&#45;&gt;Node16</title>
<g id="a_edge15_Node000001_Node000016"><a xlink:title=" ">
<path fill="none" stroke="#63b8ff" d="M971.58,-226.39C987.85,-193.18 1026.43,-123.75 1080,-87 1085.04,-83.54 1090.56,-80.58 1096.3,-78.05"/>
<polygon fill="#63b8ff" stroke="#63b8ff" points="968.4,-224.92 967.25,-235.46 974.72,-227.94 968.4,-224.92"/>
</a>
</g>
</g>
<!-- Node17 -->
<g id="Node000017" class="node">
<title>Node17</title>
<g id="a_Node000017"><a xlink:href="classDynExpModule_1_1Widefield_1_1WidefieldMicroscopeParams.html" target="_top" xlink:title=" ">
<polygon fill="white" stroke="#666666" points="1248,-30 1088,-30 1088,0 1248,0 1248,-30"/>
<text text-anchor="start" x="1096" y="-18" font-family="Helvetica,sans-Serif" font-size="10.00">DynExpModule::Widefield</text>
<text text-anchor="middle" x="1168" y="-7" font-family="Helvetica,sans-Serif" font-size="10.00">::WidefieldMicroscopeParams</text>
</a>
</g>
</g>
<!-- Node1&#45;&gt;Node17 -->
<g id="edge16_Node000001_Node000017" class="edge">
<title>Node1&#45;&gt;Node17</title>
<g id="a_edge16_Node000001_Node000017"><a xlink:title=" ">
<path fill="none" stroke="#63b8ff" d="M968.43,-225.69C980.95,-184.77 1015.8,-89.01 1080,-39 1084.45,-35.53 1089.37,-32.57 1094.54,-30.03"/>
<polygon fill="#63b8ff" stroke="#63b8ff" points="965.01,-224.9 965.54,-235.48 971.73,-226.88 965.01,-224.9"/>
</a>
</g>
</g>
<!-- Node2 -->
<g id="Node000002" class="node">
<title>Node2</title>
<g id="a_Node000002"><a xlink:href="classDynExp_1_1ModuleParamsBase.html" target="_top" xlink:title="Parameter class for ModuleBase.">
<polygon fill="white" stroke="#666666" points="844,-254.5 688,-254.5 688,-235.5 844,-235.5 844,-254.5"/>
<text text-anchor="middle" x="766" y="-242.5" font-family="Helvetica,sans-Serif" font-size="10.00">DynExp::ModuleParamsBase</text>
</a>
</g>
</g>
<!-- Node2&#45;&gt;Node1 -->
<g id="edge1_Node000001_Node000002" class="edge">
<title>Node2&#45;&gt;Node1</title>
<g id="a_edge1_Node000001_Node000002"><a xlink:title=" ">
<path fill="none" stroke="#63b8ff" d="M854.49,-245C862.95,-245 871.5,-245 879.9,-245"/>
<polygon fill="#63b8ff" stroke="#63b8ff" points="854.23,-241.5 844.23,-245 854.23,-248.5 854.23,-241.5"/>
</a>
</g>
</g>
<!-- Node3 -->
<g id="Node000003" class="node">
<title>Node3</title>
<g id="a_Node000003"><a xlink:href="classDynExp_1_1RunnableObjectParams.html" target="_top" xlink:title="Parameter class for RunnableObject.">
<polygon fill="white" stroke="#666666" points="652,-254.5 479,-254.5 479,-235.5 652,-235.5 652,-254.5"/>
<text text-anchor="middle" x="565.5" y="-242.5" font-family="Helvetica,sans-Serif" font-size="10.00">DynExp::RunnableObjectParams</text>
</a>
</g>
</g>
<!-- Node3&#45;&gt;Node2 -->
<g id="edge2_Node000002_Node000003" class="edge">
<title>Node3&#45;&gt;Node2</title>
<g id="a_edge2_Node000002_Node000003"><a xlink:title=" ">
<path fill="none" stroke="#63b8ff" d="M662.17,-245C670.76,-245 679.39,-245 687.79,-245"/>
<polygon fill="#63b8ff" stroke="#63b8ff" points="662.12,-241.5 652.12,-245 662.12,-248.5 662.12,-241.5"/>
</a>
</g>
</g>
<!-- Node4 -->
<g id="Node000004" class="node">
<title>Node4</title>
<g id="a_Node000004"><a xlink:href="classDynExp_1_1ParamsBase.html" target="_top" xlink:title="Abstract base class for object parameter classes. Each class derived from class Object must be accomp...">
<polygon fill="white" stroke="#666666" points="443,-254.5 323,-254.5 323,-235.5 443,-235.5 443,-254.5"/>
<text text-anchor="middle" x="383" y="-242.5" font-family="Helvetica,sans-Serif" font-size="10.00">DynExp::ParamsBase</text>
</a>
</g>
</g>
<!-- Node4&#45;&gt;Node3 -->
<g id="edge3_Node000003_Node000004" class="edge">
<title>Node4&#45;&gt;Node3</title>
<g id="a_edge3_Node000003_Node000004"><a xlink:title=" ">
<path fill="none" stroke="#63b8ff" d="M453.17,-245C461.54,-245 470.17,-245 478.75,-245"/>
<polygon fill="#63b8ff" stroke="#63b8ff" points="453.1,-241.5 443.1,-245 453.1,-248.5 453.1,-241.5"/>
</a>
</g>
</g>
<!-- Node5 -->
<g id="Node000005" class="node">
<title>Node5</title>
<g id="a_Node000005"><a xlink:href="classUtil_1_1ISynchronizedPointerLockable.html" target="_top" xlink:title="Interface to allow synchronizing the access to derived classes between different threads by making th...">
<polygon fill="white" stroke="#666666" points="287,-260 144,-260 144,-230 287,-230 287,-260"/>
<text text-anchor="start" x="152" y="-248" font-family="Helvetica,sans-Serif" font-size="10.00">Util::ISynchronizedPointer</text>
<text text-anchor="middle" x="215.5" y="-237" font-family="Helvetica,sans-Serif" font-size="10.00">Lockable</text>
</a>
</g>
</g>
<!-- Node5&#45;&gt;Node4 -->
<g id="edge4_Node000004_Node000005" class="edge">
<title>Node5&#45;&gt;Node4</title>
<g id="a_edge4_Node000004_Node000005"><a xlink:title=" ">
<path fill="none" stroke="#63b8ff" d="M297.23,-245C305.84,-245 314.47,-245 322.76,-245"/>
<polygon fill="#63b8ff" stroke="#63b8ff" points="297.17,-241.5 287.17,-245 297.17,-248.5 297.17,-241.5"/>
</a>
</g>
</g>
<!-- Node6 -->
<g id="Node000006" class="node">
<title>Node6</title>
<g id="a_Node000006"><a xlink:href="classUtil_1_1INonCopyable.html" target="_top" xlink:title="Interface to delete copy constructor and copy assignment operator and thus make derived classes non&#45;c...">
<polygon fill="white" stroke="#666666" points="108,-254.5 0,-254.5 0,-235.5 108,-235.5 108,-254.5"/>
<text text-anchor="middle" x="54" y="-242.5" font-family="Helvetica,sans-Serif" font-size="10.00">Util::INonCopyable</text>
</a>
</g>
</g>
<!-- Node6&#45;&gt;Node5 -->
<g id="edge5_Node000005_Node000006" class="edge">
<title>Node6&#45;&gt;Node5</title>
<g id="a_edge5_Node000005_Node000006"><a xlink:title=" ">
<path fill="none" stroke="#63b8ff" d="M118.19,-245C126.58,-245 135.23,-245 143.74,-245"/>
<polygon fill="#63b8ff" stroke="#63b8ff" points="118.11,-241.5 108.11,-245 118.11,-248.5 118.11,-241.5"/>
</a>
</g>
</g>
</g>
</svg>
