<?xml version="1.0" encoding="UTF-8" standalone="no"?>
<!DOCTYPE svg PUBLIC "-//W3C//DTD SVG 1.1//EN"
 "http://www.w3.org/Graphics/SVG/1.1/DTD/svg11.dtd">
<!-- Generated by graphviz version 2.43.0 (0)
 -->
<!-- Title: DynExpModule::NetworkTimeTaggerT&lt; gRPCServices &gt;::CallDataGetStreamMode Pages: 1 -->
<svg width="412pt" height="83pt"
 viewBox="0.00 0.00 412.00 83.00" xmlns="http://www.w3.org/2000/svg" xmlns:xlink="http://www.w3.org/1999/xlink">
<g id="graph0" class="graph" transform="scale(1 1) rotate(0) translate(4 79)">
<title>DynExpModule::NetworkTimeTaggerT&lt; gRPCServices &gt;::CallDataGetStreamMode</title>
<polygon fill="white" stroke="transparent" points="-4,4 -4,-79 408,-79 408,4 -4,4"/>
<!-- Node1 -->
<g id="node1" class="node">
<title>Node1</title>
<g id="a_node1"><a xlink:title=" ">
<polygon fill="#bfbfbf" stroke="black" points="242,-17 242,-58 404,-58 404,-17 242,-17"/>
<text text-anchor="start" x="250" y="-46" font-family="Helvetica,sans-Serif" font-size="10.00">DynExpModule::NetworkTime</text>
<text text-anchor="start" x="250" y="-35" font-family="Helvetica,sans-Serif" font-size="10.00">TaggerT&lt; gRPCServices &gt;</text>
<text text-anchor="middle" x="323" y="-24" font-family="Helvetica,sans-Serif" font-size="10.00">::CallDataGetStreamMode</text>
</a>
</g>
</g>
<!-- Node2 -->
<g id="node2" class="node">
<title>Node2</title>
<g id="a_node2"><a xlink:title=" ">
<polygon fill="white" stroke="#bfbfbf" points="0,-0.5 0,-74.5 206,-74.5 206,-0.5 0,-0.5"/>
<text text-anchor="start" x="8" y="-62.5" font-family="Helvetica,sans-Serif" font-size="10.00">gRPCModule::template</text>
<text text-anchor="start" x="8" y="-51.5" font-family="Helvetica,sans-Serif" font-size="10.00"> TypedCallDataBase&lt; CallData</text>
<text text-anchor="start" x="8" y="-40.5" font-family="Helvetica,sans-Serif" font-size="10.00">GetStreamMode, ThisServiceType,</text>
<text text-anchor="start" x="8" y="-29.5" font-family="Helvetica,sans-Serif" font-size="10.00"> DynExpProto::Common::VoidMessage,</text>
<text text-anchor="start" x="8" y="-18.5" font-family="Helvetica,sans-Serif" font-size="10.00"> DynExpProto::NetworkTimeTagger</text>
<text text-anchor="middle" x="103" y="-7.5" font-family="Helvetica,sans-Serif" font-size="10.00">::StreamModeMessage &gt;</text>
</a>
</g>
</g>
<!-- Node2&#45;&gt;Node1 -->
<g id="edge1" class="edge">
<title>Node2&#45;&gt;Node1</title>
<path fill="none" stroke="midnightblue" d="M216.39,-37.5C224.99,-37.5 233.56,-37.5 241.89,-37.5"/>
<polygon fill="midnightblue" stroke="midnightblue" points="216.3,-34 206.3,-37.5 216.3,-41 216.3,-34"/>
</g>
</g>
</svg>
