<?xml version="1.0" encoding="UTF-8" standalone="no"?>
<!DOCTYPE svg PUBLIC "-//W3C//DTD SVG 1.1//EN"
 "http://www.w3.org/Graphics/SVG/1.1/DTD/svg11.dtd">
<!-- Generated by graphviz version 2.43.0 (0)
 -->
<!-- Title: DynExp::Object Pages: 1 -->
<svg width="1085pt" height="1053pt"
 viewBox="0.00 0.00 1085.00 1052.50" xmlns="http://www.w3.org/2000/svg" xmlns:xlink="http://www.w3.org/1999/xlink">
<g id="graph0" class="graph" transform="scale(1 1) rotate(0) translate(4 1048.5)">
<title>DynExp::Object</title>
<polygon fill="white" stroke="transparent" points="-4,4 -4,-1048.5 1081,-1048.5 1081,4 -4,4"/>
<!-- Node1 -->
<g id="node1" class="node">
<title>Node1</title>
<g id="a_node1"><a xlink:title="Base class for all DynExp Objects like hardware adapters (DynExp::HardwareAdapterBase),...">
<polygon fill="#bfbfbf" stroke="black" points="0,-716 0,-735 92,-735 92,-716 0,-716"/>
<text text-anchor="middle" x="46" y="-723" font-family="Helvetica,sans-Serif" font-size="10.00">DynExp::Object</text>
</a>
</g>
</g>
<!-- Node2 -->
<g id="node2" class="node">
<title>Node2</title>
<g id="a_node2"><a xlink:href="classDynExp_1_1HardwareAdapterBase.html" target="_top" xlink:title="Defines the base class for a hardware adapter object. Hardware adapters describe interfaces/connectio...">
<polygon fill="white" stroke="black" points="128,-812 128,-831 298,-831 298,-812 128,-812"/>
<text text-anchor="middle" x="213" y="-819" font-family="Helvetica,sans-Serif" font-size="10.00">DynExp::HardwareAdapterBase</text>
</a>
</g>
</g>
<!-- Node1&#45;&gt;Node2 -->
<g id="edge1" class="edge">
<title>Node1&#45;&gt;Node2</title>
<path fill="none" stroke="midnightblue" d="M72.36,-740.25C106.64,-760.2 166.78,-795.19 195.64,-811.98"/>
<polygon fill="midnightblue" stroke="midnightblue" points="73.83,-737.06 63.42,-735.06 70.31,-743.11 73.83,-737.06"/>
</g>
<!-- Node15 -->
<g id="node15" class="node">
<title>Node15</title>
<g id="a_node15"><a xlink:href="classDynExp_1_1RunnableObject.html" target="_top" xlink:title="Defines an Object which possesses a thread it runs in. The RunnableObject can be started and stopped ...">
<polygon fill="white" stroke="black" points="144.5,-621 144.5,-640 281.5,-640 281.5,-621 144.5,-621"/>
<text text-anchor="middle" x="213" y="-628" font-family="Helvetica,sans-Serif" font-size="10.00">DynExp::RunnableObject</text>
</a>
</g>
</g>
<!-- Node1&#45;&gt;Node15 -->
<g id="edge14" class="edge">
<title>Node1&#45;&gt;Node15</title>
<path fill="none" stroke="midnightblue" d="M72.65,-710.73C106.81,-691.07 166.29,-656.82 195.23,-640.16"/>
<polygon fill="midnightblue" stroke="midnightblue" points="70.65,-707.85 63.73,-715.87 74.14,-713.91 70.65,-707.85"/>
</g>
<!-- Node3 -->
<g id="node3" class="node">
<title>Node3</title>
<g id="a_node3"><a xlink:href="classDynExpHardware_1_1gRPCHardwareAdapter.html" target="_top" xlink:title=" ">
<polygon fill="white" stroke="black" points="350,-1003 350,-1044 530,-1044 530,-1003 350,-1003"/>
<text text-anchor="start" x="358" y="-1032" font-family="Helvetica,sans-Serif" font-size="10.00">DynExpHardware::gRPCHardware</text>
<text text-anchor="start" x="358" y="-1021" font-family="Helvetica,sans-Serif" font-size="10.00">Adapter&lt; pulse_streamer</text>
<text text-anchor="middle" x="440" y="-1010" font-family="Helvetica,sans-Serif" font-size="10.00">::PulseStreamer &gt;</text>
</a>
</g>
</g>
<!-- Node2&#45;&gt;Node3 -->
<g id="edge2" class="edge">
<title>Node2&#45;&gt;Node3</title>
<path fill="none" stroke="midnightblue" d="M221.85,-840.23C237.66,-875.68 276.82,-952.68 334,-993.5 338.94,-997.02 344.28,-1000.14 349.85,-1002.89"/>
<polygon fill="midnightblue" stroke="midnightblue" points="225.04,-838.8 217.85,-831.02 218.62,-841.59 225.04,-838.8"/>
</g>
<!-- Node5 -->
<g id="node5" class="node">
<title>Node5</title>
<g id="a_node5"><a xlink:href="classDynExp_1_1SerialCommunicationHardwareAdapter.html" target="_top" xlink:title="Defines a hardware adapter for serial communication. Logical const&#45;ness: see declaration of class Dyn...">
<polygon fill="white" stroke="black" points="357.5,-953.5 357.5,-983.5 522.5,-983.5 522.5,-953.5 357.5,-953.5"/>
<text text-anchor="start" x="365.5" y="-971.5" font-family="Helvetica,sans-Serif" font-size="10.00">DynExp::SerialCommunication</text>
<text text-anchor="middle" x="440" y="-960.5" font-family="Helvetica,sans-Serif" font-size="10.00">HardwareAdapter</text>
</a>
</g>
</g>
<!-- Node2&#45;&gt;Node5 -->
<g id="edge4" class="edge">
<title>Node2&#45;&gt;Node5</title>
<path fill="none" stroke="midnightblue" d="M226.29,-839.56C245.8,-866.76 286.55,-917.88 334,-944.5 341.26,-948.57 349.16,-951.95 357.28,-954.76"/>
<polygon fill="midnightblue" stroke="midnightblue" points="229.12,-837.5 220.51,-831.32 223.39,-841.52 229.12,-837.5"/>
</g>
<!-- Node9 -->
<g id="node9" class="node">
<title>Node9</title>
<g id="a_node9"><a xlink:href="classDynExpHardware_1_1NIDAQHardwareAdapter.html" target="_top" xlink:title=" ">
<polygon fill="white" stroke="black" points="346.5,-904.5 346.5,-934.5 533.5,-934.5 533.5,-904.5 346.5,-904.5"/>
<text text-anchor="start" x="354.5" y="-922.5" font-family="Helvetica,sans-Serif" font-size="10.00">DynExpHardware::NIDAQHardware</text>
<text text-anchor="middle" x="440" y="-911.5" font-family="Helvetica,sans-Serif" font-size="10.00">Adapter</text>
</a>
</g>
</g>
<!-- Node2&#45;&gt;Node9 -->
<g id="edge8" class="edge">
<title>Node2&#45;&gt;Node9</title>
<path fill="none" stroke="midnightblue" d="M234.88,-837.35C257.96,-854.13 296.81,-880.27 334,-895.5 342.31,-898.9 351.19,-901.87 360.14,-904.45"/>
<polygon fill="midnightblue" stroke="midnightblue" points="236.68,-834.33 226.56,-831.2 232.52,-839.96 236.68,-834.33"/>
</g>
<!-- Node10 -->
<g id="node10" class="node">
<title>Node10</title>
<g id="a_node10"><a xlink:href="classDynExpHardware_1_1PVCamHardwareAdapter.html" target="_top" xlink:title=" ">
<polygon fill="white" stroke="black" points="345,-855.5 345,-885.5 535,-885.5 535,-855.5 345,-855.5"/>
<text text-anchor="start" x="353" y="-873.5" font-family="Helvetica,sans-Serif" font-size="10.00">DynExpHardware::PVCamHardware</text>
<text text-anchor="middle" x="440" y="-862.5" font-family="Helvetica,sans-Serif" font-size="10.00">Adapter</text>
</a>
</g>
</g>
<!-- Node2&#45;&gt;Node10 -->
<g id="edge9" class="edge">
<title>Node2&#45;&gt;Node10</title>
<path fill="none" stroke="midnightblue" d="M267.69,-833.19C298.29,-839.86 336.95,-848.27 369.8,-855.43"/>
<polygon fill="midnightblue" stroke="midnightblue" points="268.16,-829.71 257.65,-831.01 266.68,-836.55 268.16,-829.71"/>
</g>
<!-- Node11 -->
<g id="node11" class="node">
<title>Node11</title>
<g id="a_node11"><a xlink:href="classDynExpHardware_1_1QutoolsTDCHardwareAdapter.html" target="_top" xlink:title=" ">
<polygon fill="white" stroke="black" points="334,-806.5 334,-836.5 546,-836.5 546,-806.5 334,-806.5"/>
<text text-anchor="start" x="342" y="-824.5" font-family="Helvetica,sans-Serif" font-size="10.00">DynExpHardware::QutoolsTDCHardware</text>
<text text-anchor="middle" x="440" y="-813.5" font-family="Helvetica,sans-Serif" font-size="10.00">Adapter</text>
</a>
</g>
</g>
<!-- Node2&#45;&gt;Node11 -->
<g id="edge10" class="edge">
<title>Node2&#45;&gt;Node11</title>
<path fill="none" stroke="midnightblue" d="M308.26,-821.5C316.66,-821.5 325.2,-821.5 333.68,-821.5"/>
<polygon fill="midnightblue" stroke="midnightblue" points="308.1,-818 298.1,-821.5 308.1,-825 308.1,-818"/>
</g>
<!-- Node12 -->
<g id="node12" class="node">
<title>Node12</title>
<g id="a_node12"><a xlink:href="classDynExpHardware_1_1SmarActHardwareAdapter.html" target="_top" xlink:title=" ">
<polygon fill="white" stroke="black" points="342,-757.5 342,-787.5 538,-787.5 538,-757.5 342,-757.5"/>
<text text-anchor="start" x="350" y="-775.5" font-family="Helvetica,sans-Serif" font-size="10.00">DynExpHardware::SmarActHardware</text>
<text text-anchor="middle" x="440" y="-764.5" font-family="Helvetica,sans-Serif" font-size="10.00">Adapter</text>
</a>
</g>
</g>
<!-- Node2&#45;&gt;Node12 -->
<g id="edge11" class="edge">
<title>Node2&#45;&gt;Node12</title>
<path fill="none" stroke="midnightblue" d="M267.69,-809.81C298.29,-803.14 336.95,-794.73 369.8,-787.57"/>
<polygon fill="midnightblue" stroke="midnightblue" points="266.68,-806.45 257.65,-811.99 268.16,-813.29 266.68,-806.45"/>
</g>
<!-- Node13 -->
<g id="node13" class="node">
<title>Node13</title>
<g id="a_node13"><a xlink:href="classDynExpHardware_1_1ZILabOneHardwareAdapter.html" target="_top" xlink:title=" ">
<polygon fill="white" stroke="black" points="363,-708.5 363,-738.5 517,-738.5 517,-708.5 363,-708.5"/>
<text text-anchor="start" x="371" y="-726.5" font-family="Helvetica,sans-Serif" font-size="10.00">DynExpHardware::ZILabOne</text>
<text text-anchor="middle" x="440" y="-715.5" font-family="Helvetica,sans-Serif" font-size="10.00">HardwareAdapter</text>
</a>
</g>
</g>
<!-- Node2&#45;&gt;Node13 -->
<g id="edge12" class="edge">
<title>Node2&#45;&gt;Node13</title>
<path fill="none" stroke="midnightblue" d="M234.94,-805.95C258.07,-789.45 296.97,-763.73 334,-748.5 343.27,-744.69 353.25,-741.38 363.25,-738.52"/>
<polygon fill="midnightblue" stroke="midnightblue" points="232.65,-803.28 226.6,-811.98 236.75,-808.95 232.65,-803.28"/>
</g>
<!-- Node14 -->
<g id="node14" class="node">
<title>Node14</title>
<g id="a_node14"><a xlink:href="classDynExpHardware_1_1gRPCHardwareAdapter.html" target="_top" xlink:title="This template class provides basic functionality to design hardware adapters for instruments which co...">
<polygon fill="white" stroke="black" points="350,-659.5 350,-689.5 530,-689.5 530,-659.5 350,-659.5"/>
<text text-anchor="start" x="358" y="-677.5" font-family="Helvetica,sans-Serif" font-size="10.00">DynExpHardware::gRPCHardware</text>
<text text-anchor="middle" x="440" y="-666.5" font-family="Helvetica,sans-Serif" font-size="10.00">Adapter&lt; gRPCStub &gt;</text>
</a>
</g>
</g>
<!-- Node2&#45;&gt;Node14 -->
<g id="edge13" class="edge">
<title>Node2&#45;&gt;Node14</title>
<path fill="none" stroke="midnightblue" d="M226.36,-803.64C245.95,-776.74 286.81,-726.13 334,-699.5 340.85,-695.63 348.29,-692.36 355.92,-689.59"/>
<polygon fill="midnightblue" stroke="midnightblue" points="223.5,-801.61 220.55,-811.79 229.2,-805.68 223.5,-801.61"/>
</g>
<!-- Node4 -->
<g id="node4" class="node">
<title>Node4</title>
<g id="a_node4"><a xlink:href="classDynExpHardware_1_1SIPulseStreamerHardwareAdapter.html" target="_top" xlink:title=" ">
<polygon fill="white" stroke="black" points="590.5,-1008.5 590.5,-1038.5 778.5,-1038.5 778.5,-1008.5 590.5,-1008.5"/>
<text text-anchor="start" x="598.5" y="-1026.5" font-family="Helvetica,sans-Serif" font-size="10.00">DynExpHardware::SIPulseStreamer</text>
<text text-anchor="middle" x="684.5" y="-1015.5" font-family="Helvetica,sans-Serif" font-size="10.00">HardwareAdapter</text>
</a>
</g>
</g>
<!-- Node3&#45;&gt;Node4 -->
<g id="edge3" class="edge">
<title>Node3&#45;&gt;Node4</title>
<path fill="none" stroke="midnightblue" d="M540.46,-1023.5C556.96,-1023.5 574.02,-1023.5 590.36,-1023.5"/>
<polygon fill="midnightblue" stroke="midnightblue" points="540.26,-1020 530.26,-1023.5 540.26,-1027 540.26,-1020"/>
</g>
<!-- Node6 -->
<g id="node6" class="node">
<title>Node6</title>
<g id="a_node6"><a xlink:href="classDynExp_1_1QSerialCommunicationHardwareAdapter.html" target="_top" xlink:title="SerialCommunicationHardwareAdapter is based on a Qt communication object (wrapped by QSerialCommunica...">
<polygon fill="white" stroke="black" points="598,-953.5 598,-983.5 771,-983.5 771,-953.5 598,-953.5"/>
<text text-anchor="start" x="606" y="-971.5" font-family="Helvetica,sans-Serif" font-size="10.00">DynExp::QSerialCommunication</text>
<text text-anchor="middle" x="684.5" y="-960.5" font-family="Helvetica,sans-Serif" font-size="10.00">HardwareAdapter</text>
</a>
</g>
</g>
<!-- Node5&#45;&gt;Node6 -->
<g id="edge5" class="edge">
<title>Node5&#45;&gt;Node6</title>
<path fill="none" stroke="midnightblue" d="M532.81,-968.5C554.18,-968.5 576.86,-968.5 597.95,-968.5"/>
<polygon fill="midnightblue" stroke="midnightblue" points="532.76,-965 522.76,-968.5 532.76,-972 532.76,-965"/>
</g>
<!-- Node7 -->
<g id="node7" class="node">
<title>Node7</title>
<g id="a_node7"><a xlink:href="classDynExp_1_1HardwareAdapterSerialPort.html" target="_top" xlink:title="Implements a hardware adapter to communicate with text&#45;based commands over COM ports.">
<polygon fill="white" stroke="black" points="853.5,-981 853.5,-1000 1046.5,-1000 1046.5,-981 853.5,-981"/>
<text text-anchor="middle" x="950" y="-988" font-family="Helvetica,sans-Serif" font-size="10.00">DynExp::HardwareAdapterSerialPort</text>
</a>
</g>
</g>
<!-- Node6&#45;&gt;Node7 -->
<g id="edge6" class="edge">
<title>Node6&#45;&gt;Node7</title>
<path fill="none" stroke="midnightblue" d="M781.03,-976.48C804.59,-978.44 829.82,-980.55 853.39,-982.52"/>
<polygon fill="midnightblue" stroke="midnightblue" points="781.31,-972.99 771.05,-975.64 780.72,-979.96 781.31,-972.99"/>
</g>
<!-- Node8 -->
<g id="node8" class="node">
<title>Node8</title>
<g id="a_node8"><a xlink:href="classDynExp_1_1HardwareAdapterTcpSocket.html" target="_top" xlink:title="Implements a hardware adapter to communicate with text&#45;based commands over TCP sockets.">
<polygon fill="white" stroke="black" points="869.5,-931.5 869.5,-961.5 1030.5,-961.5 1030.5,-931.5 869.5,-931.5"/>
<text text-anchor="start" x="877.5" y="-949.5" font-family="Helvetica,sans-Serif" font-size="10.00">DynExp::HardwareAdapterTcp</text>
<text text-anchor="middle" x="950" y="-938.5" font-family="Helvetica,sans-Serif" font-size="10.00">Socket</text>
</a>
</g>
</g>
<!-- Node6&#45;&gt;Node8 -->
<g id="edge7" class="edge">
<title>Node6&#45;&gt;Node8</title>
<path fill="none" stroke="midnightblue" d="M781.16,-960.51C810.07,-958.1 841.49,-955.48 869.24,-953.16"/>
<polygon fill="midnightblue" stroke="midnightblue" points="780.72,-957.04 771.05,-961.36 781.31,-964.01 780.72,-957.04"/>
</g>
<!-- Node16 -->
<g id="node16" class="node">
<title>Node16</title>
<g id="a_node16"><a xlink:href="classDynExp_1_1InstrumentBase.html" target="_top" xlink:title="Base class for instruments. Instruments comprise virtual devices (meta instruments) and physial devic...">
<polygon fill="white" stroke="black" points="371.5,-621 371.5,-640 508.5,-640 508.5,-621 371.5,-621"/>
<text text-anchor="middle" x="440" y="-628" font-family="Helvetica,sans-Serif" font-size="10.00">DynExp::InstrumentBase</text>
</a>
</g>
</g>
<!-- Node15&#45;&gt;Node16 -->
<g id="edge15" class="edge">
<title>Node15&#45;&gt;Node16</title>
<path fill="none" stroke="midnightblue" d="M291.65,-630.5C317.51,-630.5 346.09,-630.5 371.15,-630.5"/>
<polygon fill="midnightblue" stroke="midnightblue" points="291.51,-627 281.51,-630.5 291.51,-634 291.51,-627"/>
</g>
<!-- Node50 -->
<g id="node34" class="node">
<title>Node50</title>
<g id="a_node34"><a xlink:href="classDynExp_1_1ModuleBase.html" target="_top" xlink:title="Base class for modules. Modules implement programs on their own (e.g. measurement protocols or server...">
<polygon fill="white" stroke="black" points="380,-184 380,-203 500,-203 500,-184 380,-184"/>
<text text-anchor="middle" x="440" y="-191" font-family="Helvetica,sans-Serif" font-size="10.00">DynExp::ModuleBase</text>
</a>
</g>
</g>
<!-- Node15&#45;&gt;Node50 -->
<g id="edge33" class="edge">
<title>Node15&#45;&gt;Node50</title>
<path fill="none" stroke="midnightblue" d="M223.65,-611.76C262.3,-536.69 405.26,-259.03 433.96,-203.28"/>
<polygon fill="midnightblue" stroke="midnightblue" points="220.37,-610.47 218.91,-620.97 226.6,-613.68 220.37,-610.47"/>
</g>
<!-- Node17 -->
<g id="node17" class="node">
<title>Node17</title>
<g id="a_node17"><a xlink:href="classDynExpInstr_1_1gRPCInstrument.html" target="_top" xlink:title=" ">
<polygon fill="white" stroke="black" points="582,-835.5 582,-887.5 787,-887.5 787,-835.5 582,-835.5"/>
<text text-anchor="start" x="590" y="-875.5" font-family="Helvetica,sans-Serif" font-size="10.00">DynExpInstr::gRPCInstrument</text>
<text text-anchor="start" x="590" y="-864.5" font-family="Helvetica,sans-Serif" font-size="10.00">&lt; DynExp::InstrumentBase,</text>
<text text-anchor="start" x="590" y="-853.5" font-family="Helvetica,sans-Serif" font-size="10.00"> 0, DynExpProto::WidefieldLocalization</text>
<text text-anchor="middle" x="684.5" y="-842.5" font-family="Helvetica,sans-Serif" font-size="10.00">::WidefieldLocalization &gt;</text>
</a>
</g>
</g>
<!-- Node16&#45;&gt;Node17 -->
<g id="edge16" class="edge">
<title>Node16&#45;&gt;Node17</title>
<path fill="none" stroke="midnightblue" d="M518.64,-634.49C528.81,-637.94 538.34,-643.05 546,-650.5 599.5,-702.53 535.27,-756.32 582,-814.5 588.69,-822.83 597.19,-829.75 606.41,-835.48"/>
<polygon fill="midnightblue" stroke="midnightblue" points="519.31,-631.04 508.74,-631.68 517.4,-637.78 519.31,-631.04"/>
</g>
<!-- Node19 -->
<g id="node19" class="node">
<title>Node19</title>
<g id="a_node19"><a xlink:href="classDynExpInstr_1_1Camera.html" target="_top" xlink:title="Meta instrument for an image capturing (camera) device.">
<polygon fill="white" stroke="black" points="624.5,-786 624.5,-805 744.5,-805 744.5,-786 624.5,-786"/>
<text text-anchor="middle" x="684.5" y="-793" font-family="Helvetica,sans-Serif" font-size="10.00">DynExpInstr::Camera</text>
</a>
</g>
</g>
<!-- Node16&#45;&gt;Node19 -->
<g id="edge18" class="edge">
<title>Node16&#45;&gt;Node19</title>
<path fill="none" stroke="midnightblue" d="M518.38,-638.21C528.13,-641.17 537.61,-645.15 546,-650.5 569.09,-665.22 563.92,-679.94 582,-700.5 611.8,-734.39 652.22,-769.46 671.85,-785.9"/>
<polygon fill="midnightblue" stroke="midnightblue" points="519.13,-634.79 508.57,-635.58 517.32,-641.55 519.13,-634.79"/>
</g>
<!-- Node22 -->
<g id="node22" class="node">
<title>Node22</title>
<g id="a_node22"><a xlink:href="classDynExpInstr_1_1DataStreamInstrument.html" target="_top" xlink:title="Implementation of the data stream meta instrument, which is a base class for all instruments reading/...">
<polygon fill="white" stroke="black" points="587.5,-672 587.5,-691 781.5,-691 781.5,-672 587.5,-672"/>
<text text-anchor="middle" x="684.5" y="-679" font-family="Helvetica,sans-Serif" font-size="10.00">DynExpInstr::DataStreamInstrument</text>
</a>
</g>
</g>
<!-- Node16&#45;&gt;Node22 -->
<g id="edge21" class="edge">
<title>Node16&#45;&gt;Node22</title>
<path fill="none" stroke="midnightblue" d="M503.01,-641.95C517.15,-644.67 532.11,-647.61 546,-650.5 578.7,-657.3 615.62,-665.66 642.97,-671.99"/>
<polygon fill="midnightblue" stroke="midnightblue" points="503.35,-638.46 492.87,-640.02 502.04,-645.33 503.35,-638.46"/>
</g>
<!-- Node42 -->
<g id="node27" class="node">
<title>Node42</title>
<g id="a_node27"><a xlink:href="classDynExpInstr_1_1InterModuleCommunicator.html" target="_top" xlink:title="Defines an inter&#45;module communicator instrument to exchange events in between DynExp modules....">
<polygon fill="white" stroke="black" points="614.5,-615.5 614.5,-645.5 754.5,-645.5 754.5,-615.5 614.5,-615.5"/>
<text text-anchor="start" x="622.5" y="-633.5" font-family="Helvetica,sans-Serif" font-size="10.00">DynExpInstr::InterModule</text>
<text text-anchor="middle" x="684.5" y="-622.5" font-family="Helvetica,sans-Serif" font-size="10.00">Communicator</text>
</a>
</g>
</g>
<!-- Node16&#45;&gt;Node42 -->
<g id="edge26" class="edge">
<title>Node16&#45;&gt;Node42</title>
<path fill="none" stroke="midnightblue" d="M518.78,-630.5C549.45,-630.5 584.41,-630.5 614.2,-630.5"/>
<polygon fill="midnightblue" stroke="midnightblue" points="518.55,-627 508.55,-630.5 518.55,-634 518.55,-627"/>
</g>
<!-- Node43 -->
<g id="node28" class="node">
<title>Node43</title>
<g id="a_node28"><a xlink:href="classDynExpInstr_1_1PositionerStage.html" target="_top" xlink:title="Implementation of a meta instrument to control single&#45;axis positioner stages.">
<polygon fill="white" stroke="black" points="605.5,-564 605.5,-583 763.5,-583 763.5,-564 605.5,-564"/>
<text text-anchor="middle" x="684.5" y="-571" font-family="Helvetica,sans-Serif" font-size="10.00">DynExpInstr::PositionerStage</text>
</a>
</g>
</g>
<!-- Node16&#45;&gt;Node43 -->
<g id="edge27" class="edge">
<title>Node16&#45;&gt;Node43</title>
<path fill="none" stroke="midnightblue" d="M491.41,-618.65C536.29,-608.1 601.11,-592.87 642.78,-583.07"/>
<polygon fill="midnightblue" stroke="midnightblue" points="490.52,-615.26 481.59,-620.96 492.12,-622.08 490.52,-615.26"/>
</g>
<!-- Node47 -->
<g id="node32" class="node">
<title>Node47</title>
<g id="a_node32"><a xlink:href="classDynExpInstr_1_1Spectrometer.html" target="_top" xlink:title="Meta instrument for a spectrometer.">
<polygon fill="white" stroke="black" points="610.5,-498 610.5,-517 758.5,-517 758.5,-498 610.5,-498"/>
<text text-anchor="middle" x="684.5" y="-505" font-family="Helvetica,sans-Serif" font-size="10.00">DynExpInstr::Spectrometer</text>
</a>
</g>
</g>
<!-- Node16&#45;&gt;Node47 -->
<g id="edge31" class="edge">
<title>Node16&#45;&gt;Node47</title>
<path fill="none" stroke="midnightblue" d="M466.99,-615.88C495.09,-600.21 541.34,-574.85 582,-554.5 609.26,-540.86 641.26,-526.27 661.93,-517.03"/>
<polygon fill="midnightblue" stroke="midnightblue" points="465.21,-612.86 458.19,-620.8 468.62,-618.97 465.21,-612.86"/>
</g>
<!-- Node18 -->
<g id="node18" class="node">
<title>Node18</title>
<g id="a_node18"><a xlink:href="classDynExpInstr_1_1WidefieldLocalization.html" target="_top" xlink:title=" ">
<polygon fill="white" stroke="black" points="857,-862 857,-881 1043,-881 1043,-862 857,-862"/>
<text text-anchor="middle" x="950" y="-869" font-family="Helvetica,sans-Serif" font-size="10.00">DynExpInstr::WidefieldLocalization</text>
</a>
</g>
</g>
<!-- Node17&#45;&gt;Node18 -->
<g id="edge17" class="edge">
<title>Node17&#45;&gt;Node18</title>
<path fill="none" stroke="midnightblue" d="M797.64,-865.76C817.39,-866.51 837.74,-867.28 856.87,-868"/>
<polygon fill="midnightblue" stroke="midnightblue" points="797.5,-862.25 787.38,-865.37 797.24,-869.24 797.5,-862.25"/>
</g>
<!-- Node20 -->
<g id="node20" class="node">
<title>Node20</title>
<g id="a_node20"><a xlink:href="classDynExpInstr_1_1DummyCamera.html" target="_top" xlink:title=" ">
<polygon fill="white" stroke="black" points="870.5,-824 870.5,-843 1029.5,-843 1029.5,-824 870.5,-824"/>
<text text-anchor="middle" x="950" y="-831" font-family="Helvetica,sans-Serif" font-size="10.00">DynExpInstr::DummyCamera</text>
</a>
</g>
</g>
<!-- Node19&#45;&gt;Node20 -->
<g id="edge19" class="edge">
<title>Node19&#45;&gt;Node20</title>
<path fill="none" stroke="midnightblue" d="M754.76,-805.49C794.46,-811.21 844,-818.36 883.12,-824"/>
<polygon fill="midnightblue" stroke="midnightblue" points="755.03,-801.99 744.63,-804.03 754.03,-808.92 755.03,-801.99"/>
</g>
<!-- Node21 -->
<g id="node21" class="node">
<title>Node21</title>
<g id="a_node21"><a xlink:href="classDynExpInstr_1_1PVCam.html" target="_top" xlink:title=" ">
<polygon fill="white" stroke="black" points="891.5,-786 891.5,-805 1008.5,-805 1008.5,-786 891.5,-786"/>
<text text-anchor="middle" x="950" y="-793" font-family="Helvetica,sans-Serif" font-size="10.00">DynExpInstr::PVCam</text>
</a>
</g>
</g>
<!-- Node19&#45;&gt;Node21 -->
<g id="edge20" class="edge">
<title>Node19&#45;&gt;Node21</title>
<path fill="none" stroke="midnightblue" d="M754.64,-795.5C797.22,-795.5 851.17,-795.5 891.42,-795.5"/>
<polygon fill="midnightblue" stroke="midnightblue" points="754.63,-792 744.63,-795.5 754.63,-799 754.63,-792"/>
</g>
<!-- Node23 -->
<g id="node23" class="node">
<title>Node23</title>
<g id="a_node23"><a xlink:href="classDynExpInstr_1_1FunctionGenerator.html" target="_top" xlink:title="Function generator meta instrument based on the data stream meta instrument to generate waveforms by ...">
<polygon fill="white" stroke="red" points="864,-748 864,-767 1036,-767 1036,-748 864,-748"/>
<text text-anchor="middle" x="950" y="-755" font-family="Helvetica,sans-Serif" font-size="10.00">DynExpInstr::FunctionGenerator</text>
</a>
</g>
</g>
<!-- Node22&#45;&gt;Node23 -->
<g id="edge22" class="edge">
<title>Node22&#45;&gt;Node23</title>
<path fill="none" stroke="midnightblue" d="M713.88,-695.66C741.19,-708.71 783.98,-727.64 823,-738.5 836.85,-742.35 851.79,-745.48 866.38,-747.99"/>
<polygon fill="midnightblue" stroke="midnightblue" points="715.08,-692.36 704.55,-691.15 712.03,-698.66 715.08,-692.36"/>
</g>
<!-- Node33 -->
<g id="node24" class="node">
<title>Node33</title>
<g id="a_node24"><a xlink:href="classDynExpInstr_1_1InputPort.html" target="_top" xlink:title="Generic input port meta instrument based on the data stream meta instrument to read data from hardwar...">
<polygon fill="white" stroke="red" points="887,-710 887,-729 1013,-729 1013,-710 887,-710"/>
<text text-anchor="middle" x="950" y="-717" font-family="Helvetica,sans-Serif" font-size="10.00">DynExpInstr::InputPort</text>
</a>
</g>
</g>
<!-- Node22&#45;&gt;Node33 -->
<g id="edge23" class="edge">
<title>Node22&#45;&gt;Node33</title>
<path fill="none" stroke="midnightblue" d="M761.57,-692.47C801.34,-698.21 849.4,-705.14 886.9,-710.54"/>
<polygon fill="midnightblue" stroke="midnightblue" points="762.05,-689 751.65,-691.04 761.05,-695.93 762.05,-689"/>
</g>
<!-- Node38 -->
<g id="node25" class="node">
<title>Node38</title>
<g id="a_node25"><a xlink:href="classDynExpInstr_1_1LockinAmplifier.html" target="_top" xlink:title="Meta instrument for a lock&#45;in amplifier based on the data stream meta instrument.">
<polygon fill="white" stroke="red" points="871,-672 871,-691 1029,-691 1029,-672 871,-672"/>
<text text-anchor="middle" x="950" y="-679" font-family="Helvetica,sans-Serif" font-size="10.00">DynExpInstr::LockinAmplifier</text>
</a>
</g>
</g>
<!-- Node22&#45;&gt;Node38 -->
<g id="edge24" class="edge">
<title>Node22&#45;&gt;Node38</title>
<path fill="none" stroke="midnightblue" d="M791.78,-681.5C818.15,-681.5 845.95,-681.5 870.71,-681.5"/>
<polygon fill="midnightblue" stroke="midnightblue" points="791.75,-678 781.75,-681.5 791.75,-685 791.75,-678"/>
</g>
<!-- Node40 -->
<g id="node26" class="node">
<title>Node40</title>
<g id="a_node26"><a xlink:href="classDynExpInstr_1_1TimeTagger.html" target="_top" xlink:title="Meta instrument for a time tagging device to assign timestamps to (e.g. photon) detection events base...">
<polygon fill="white" stroke="red" points="880.5,-634 880.5,-653 1019.5,-653 1019.5,-634 880.5,-634"/>
<text text-anchor="middle" x="950" y="-641" font-family="Helvetica,sans-Serif" font-size="10.00">DynExpInstr::TimeTagger</text>
</a>
</g>
</g>
<!-- Node22&#45;&gt;Node40 -->
<g id="edge25" class="edge">
<title>Node22&#45;&gt;Node40</title>
<path fill="none" stroke="midnightblue" d="M761.73,-670.51C800.04,-664.98 846.01,-658.35 882.82,-653.04"/>
<polygon fill="midnightblue" stroke="midnightblue" points="761.05,-667.07 751.65,-671.96 762.05,-674 761.05,-667.07"/>
</g>
<!-- Node44 -->
<g id="node29" class="node">
<title>Node44</title>
<g id="a_node29"><a xlink:href="classDynExpInstr_1_1NenionLeakvalveF3.html" target="_top" xlink:title=" ">
<polygon fill="white" stroke="black" points="860.5,-596 860.5,-615 1039.5,-615 1039.5,-596 860.5,-596"/>
<text text-anchor="middle" x="950" y="-603" font-family="Helvetica,sans-Serif" font-size="10.00">DynExpInstr::NenionLeakvalveF3</text>
</a>
</g>
</g>
<!-- Node43&#45;&gt;Node44 -->
<g id="edge28" class="edge">
<title>Node43&#45;&gt;Node44</title>
<path fill="none" stroke="midnightblue" d="M773.86,-584.23C805.14,-588.03 840.1,-592.27 870.5,-595.97"/>
<polygon fill="midnightblue" stroke="midnightblue" points="774.19,-580.75 763.85,-583.01 773.35,-587.69 774.19,-580.75"/>
</g>
<!-- Node45 -->
<g id="node30" class="node">
<title>Node45</title>
<g id="a_node30"><a xlink:href="classDynExpInstr_1_1PI__C__862.html" target="_top" xlink:title=" ">
<polygon fill="white" stroke="black" points="887,-558 887,-577 1013,-577 1013,-558 887,-558"/>
<text text-anchor="middle" x="950" y="-565" font-family="Helvetica,sans-Serif" font-size="10.00">DynExpInstr::PI_C_862</text>
</a>
</g>
</g>
<!-- Node43&#45;&gt;Node45 -->
<g id="edge29" class="edge">
<title>Node43&#45;&gt;Node45</title>
<path fill="none" stroke="midnightblue" d="M774.13,-571.48C811.13,-570.64 853.22,-569.68 886.83,-568.92"/>
<polygon fill="midnightblue" stroke="midnightblue" points="773.76,-567.99 763.85,-571.72 773.92,-574.99 773.76,-567.99"/>
</g>
<!-- Node46 -->
<g id="node31" class="node">
<title>Node46</title>
<g id="a_node31"><a xlink:href="classDynExpInstr_1_1SmarAct.html" target="_top" xlink:title=" ">
<polygon fill="white" stroke="black" points="888.5,-520 888.5,-539 1011.5,-539 1011.5,-520 888.5,-520"/>
<text text-anchor="middle" x="950" y="-527" font-family="Helvetica,sans-Serif" font-size="10.00">DynExpInstr::SmarAct</text>
</a>
</g>
</g>
<!-- Node43&#45;&gt;Node46 -->
<g id="edge30" class="edge">
<title>Node43&#45;&gt;Node46</title>
<path fill="none" stroke="midnightblue" d="M745.75,-562.14C769.76,-557.72 797.66,-552.71 823,-548.5 844.28,-544.96 867.62,-541.36 888.38,-538.26"/>
<polygon fill="midnightblue" stroke="midnightblue" points="744.92,-558.73 735.72,-563.99 746.19,-565.62 744.92,-558.73"/>
</g>
<!-- Node48 -->
<g id="node33" class="node">
<title>Node48</title>
<g id="a_node33"><a xlink:href="classDynExpInstr_1_1gRPCInstrument.html" target="_top" xlink:title=" ">
<polygon fill="white" stroke="red" points="823,-460 823,-501 1077,-501 1077,-460 823,-460"/>
<text text-anchor="start" x="831" y="-489" font-family="Helvetica,sans-Serif" font-size="10.00">DynExpInstr::gRPCInstrument</text>
<text text-anchor="start" x="831" y="-478" font-family="Helvetica,sans-Serif" font-size="10.00">&lt; Spectrometer, 0, DynExpProto</text>
<text text-anchor="middle" x="950" y="-467" font-family="Helvetica,sans-Serif" font-size="10.00">::NetworkSpectrometer::NetworkSpectrometer &gt;</text>
</a>
</g>
</g>
<!-- Node47&#45;&gt;Node48 -->
<g id="edge32" class="edge">
<title>Node47&#45;&gt;Node48</title>
<path fill="none" stroke="midnightblue" d="M768.58,-498.99C785.89,-497.21 804.51,-495.31 822.97,-493.41"/>
<polygon fill="midnightblue" stroke="midnightblue" points="768.14,-495.51 758.55,-500.01 768.85,-502.48 768.14,-495.51"/>
</g>
<!-- Node51 -->
<g id="node35" class="node">
<title>Node51</title>
<g id="a_node35"><a xlink:href="classDynExpModule_1_1gRPCModule.html" target="_top" xlink:title=" ">
<polygon fill="white" stroke="black" points="605.5,-361.5 605.5,-391.5 763.5,-391.5 763.5,-361.5 605.5,-361.5"/>
<text text-anchor="start" x="613.5" y="-379.5" font-family="Helvetica,sans-Serif" font-size="10.00">DynExpModule::gRPCModule</text>
<text text-anchor="middle" x="684.5" y="-368.5" font-family="Helvetica,sans-Serif" font-size="10.00">&lt; gRPCServices... &gt;</text>
</a>
</g>
</g>
<!-- Node50&#45;&gt;Node51 -->
<g id="edge34" class="edge">
<title>Node50&#45;&gt;Node51</title>
<path fill="none" stroke="midnightblue" d="M461.77,-209.17C507.84,-243.94 618.1,-327.15 663.47,-361.39"/>
<polygon fill="midnightblue" stroke="midnightblue" points="463.79,-206.31 453.7,-203.08 459.57,-211.9 463.79,-206.31"/>
</g>
<!-- Node59 -->
<g id="node38" class="node">
<title>Node59</title>
<g id="a_node38"><a xlink:href="classDynExp_1_1QModuleBase.html" target="_top" xlink:title="Base class for modules with a Qt&#45;based user interface. Derive from this class to implement modules wi...">
<polygon fill="white" stroke="red" points="620.5,-206 620.5,-225 748.5,-225 748.5,-206 620.5,-206"/>
<text text-anchor="middle" x="684.5" y="-213" font-family="Helvetica,sans-Serif" font-size="10.00">DynExp::QModuleBase</text>
</a>
</g>
</g>
<!-- Node50&#45;&gt;Node59 -->
<g id="edge37" class="edge">
<title>Node50&#45;&gt;Node59</title>
<path fill="none" stroke="midnightblue" d="M510.07,-199.77C544.79,-202.92 586.55,-206.7 620.4,-209.78"/>
<polygon fill="midnightblue" stroke="midnightblue" points="510.29,-196.27 500.01,-198.85 509.65,-203.24 510.29,-196.27"/>
</g>
<!-- Node71 -->
<g id="node47" class="node">
<title>Node71</title>
<g id="a_node47"><a xlink:href="classDynExpModule_1_1ArbitraryFunctionFromCSV.html" target="_top" xlink:title=" ">
<polygon fill="white" stroke="black" points="594.5,-156.5 594.5,-186.5 774.5,-186.5 774.5,-156.5 594.5,-156.5"/>
<text text-anchor="start" x="602.5" y="-174.5" font-family="Helvetica,sans-Serif" font-size="10.00">DynExpModule::ArbitraryFunction</text>
<text text-anchor="middle" x="684.5" y="-163.5" font-family="Helvetica,sans-Serif" font-size="10.00">FromCSV</text>
</a>
</g>
</g>
<!-- Node50&#45;&gt;Node71 -->
<g id="edge46" class="edge">
<title>Node50&#45;&gt;Node71</title>
<path fill="none" stroke="midnightblue" d="M510.21,-187.22C536.38,-184.85 566.55,-182.11 594.3,-179.59"/>
<polygon fill="midnightblue" stroke="midnightblue" points="509.65,-183.76 500.01,-188.15 510.29,-190.73 509.65,-183.76"/>
</g>
<!-- Node72 -->
<g id="node48" class="node">
<title>Node72</title>
<g id="a_node48"><a xlink:href="classDynExpModule_1_1StreamManipulator.html" target="_top" xlink:title="Module to process data stored in data stream instrument(s) with a Python script and to write the resu...">
<polygon fill="white" stroke="black" points="589.5,-118 589.5,-137 779.5,-137 779.5,-118 589.5,-118"/>
<text text-anchor="middle" x="684.5" y="-125" font-family="Helvetica,sans-Serif" font-size="10.00">DynExpModule::StreamManipulator</text>
</a>
</g>
</g>
<!-- Node50&#45;&gt;Node72 -->
<g id="edge47" class="edge">
<title>Node50&#45;&gt;Node72</title>
<path fill="none" stroke="midnightblue" d="M476.43,-180.62C504.73,-170.66 545.56,-157 582,-147.5 597.03,-143.58 613.5,-140.03 628.71,-137.04"/>
<polygon fill="midnightblue" stroke="midnightblue" points="475.22,-177.34 466.97,-183.98 477.56,-183.94 475.22,-177.34"/>
</g>
<!-- Node73 -->
<g id="node49" class="node">
<title>Node73</title>
<g id="a_node49"><a xlink:href="classDynExpModule_1_1gRPCModule.html" target="_top" xlink:title="Module template for building gRPC servers listening on TCP sockets for network instruments to connect...">
<polygon fill="white" stroke="black" points="605.5,-68.5 605.5,-98.5 763.5,-98.5 763.5,-68.5 605.5,-68.5"/>
<text text-anchor="start" x="613.5" y="-86.5" font-family="Helvetica,sans-Serif" font-size="10.00">DynExpModule::gRPCModule</text>
<text text-anchor="middle" x="684.5" y="-75.5" font-family="Helvetica,sans-Serif" font-size="10.00">&lt; gRPCServices &gt;</text>
</a>
</g>
</g>
<!-- Node50&#45;&gt;Node73 -->
<g id="edge48" class="edge">
<title>Node50&#45;&gt;Node73</title>
<path fill="none" stroke="midnightblue" d="M462.09,-177.99C488.76,-159.05 536.67,-127.24 582,-108.5 591.14,-104.72 600.99,-101.42 610.83,-98.56"/>
<polygon fill="midnightblue" stroke="midnightblue" points="459.97,-175.2 453.9,-183.88 464.06,-180.88 459.97,-175.2"/>
</g>
<!-- Node52 -->
<g id="node36" class="node">
<title>Node52</title>
<g id="a_node36"><a xlink:href="classDynExpModule_1_1NetworkDataStreamInstrumentT.html" target="_top" xlink:title=" ">
<polygon fill="white" stroke="red" points="845.5,-410.5 845.5,-440.5 1054.5,-440.5 1054.5,-410.5 845.5,-410.5"/>
<text text-anchor="start" x="853.5" y="-428.5" font-family="Helvetica,sans-Serif" font-size="10.00">DynExpModule::NetworkData</text>
<text text-anchor="middle" x="950" y="-417.5" font-family="Helvetica,sans-Serif" font-size="10.00">StreamInstrumentT&lt; gRPCServices... &gt;</text>
</a>
</g>
</g>
<!-- Node51&#45;&gt;Node52 -->
<g id="edge35" class="edge">
<title>Node51&#45;&gt;Node52</title>
<path fill="none" stroke="midnightblue" d="M774.03,-392.96C804.49,-398.63 838.41,-404.93 868.22,-410.48"/>
<polygon fill="midnightblue" stroke="midnightblue" points="774.32,-389.46 763.85,-391.07 773.04,-396.34 774.32,-389.46"/>
</g>
<!-- Node58 -->
<g id="node37" class="node">
<title>Node58</title>
<g id="a_node37"><a xlink:href="classDynExpModule_1_1NetworkDataStreamInstrumentT.html" target="_top" xlink:title=" ">
<polygon fill="white" stroke="black" points="850,-361.5 850,-391.5 1050,-391.5 1050,-361.5 850,-361.5"/>
<text text-anchor="start" x="858" y="-379.5" font-family="Helvetica,sans-Serif" font-size="10.00">DynExpModule::NetworkData</text>
<text text-anchor="middle" x="950" y="-368.5" font-family="Helvetica,sans-Serif" font-size="10.00">StreamInstrumentT&lt; gRPCServices &gt;</text>
</a>
</g>
</g>
<!-- Node51&#45;&gt;Node58 -->
<g id="edge36" class="edge">
<title>Node51&#45;&gt;Node58</title>
<path fill="none" stroke="midnightblue" d="M774.13,-376.5C798.47,-376.5 825.01,-376.5 849.9,-376.5"/>
<polygon fill="midnightblue" stroke="midnightblue" points="773.85,-373 763.85,-376.5 773.85,-380 773.85,-373"/>
</g>
<!-- Node60 -->
<g id="node39" class="node">
<title>Node60</title>
<g id="a_node39"><a xlink:href="classDynExpModule_1_1ImageViewer_1_1ImageViewer.html" target="_top" xlink:title=" ">
<polygon fill="white" stroke="black" points="869.5,-312.5 869.5,-342.5 1030.5,-342.5 1030.5,-312.5 869.5,-312.5"/>
<text text-anchor="start" x="877.5" y="-330.5" font-family="Helvetica,sans-Serif" font-size="10.00">DynExpModule::ImageViewer</text>
<text text-anchor="middle" x="950" y="-319.5" font-family="Helvetica,sans-Serif" font-size="10.00">::ImageViewer</text>
</a>
</g>
</g>
<!-- Node59&#45;&gt;Node60 -->
<g id="edge38" class="edge">
<title>Node59&#45;&gt;Node60</title>
<path fill="none" stroke="midnightblue" d="M705.33,-231.41C730.97,-251.15 777.71,-284.41 823,-302.5 837.6,-308.33 853.72,-312.85 869.4,-316.33"/>
<polygon fill="midnightblue" stroke="midnightblue" points="707.22,-228.44 697.18,-225.04 702.91,-233.96 707.22,-228.44"/>
</g>
<!-- Node61 -->
<g id="node40" class="node">
<title>Node61</title>
<g id="a_node40"><a xlink:href="classDynExpModule_1_1InputPortReader.html" target="_top" xlink:title=" ">
<polygon fill="white" stroke="black" points="862.5,-274 862.5,-293 1037.5,-293 1037.5,-274 862.5,-274"/>
<text text-anchor="middle" x="950" y="-281" font-family="Helvetica,sans-Serif" font-size="10.00">DynExpModule::InputPortReader</text>
</a>
</g>
</g>
<!-- Node59&#45;&gt;Node61 -->
<g id="edge39" class="edge">
<title>Node59&#45;&gt;Node61</title>
<path fill="none" stroke="midnightblue" d="M717.45,-228.87C744.98,-239.91 786,-255.21 823,-264.5 838.02,-268.27 854.25,-271.4 869.9,-273.96"/>
<polygon fill="midnightblue" stroke="midnightblue" points="718.54,-225.53 707.96,-225.02 715.91,-232.02 718.54,-225.53"/>
</g>
<!-- Node62 -->
<g id="node41" class="node">
<title>Node62</title>
<g id="a_node41"><a xlink:href="classDynExpModule_1_1LockinAmplifierControl.html" target="_top" xlink:title=" ">
<polygon fill="white" stroke="black" points="864,-224.5 864,-254.5 1036,-254.5 1036,-224.5 864,-224.5"/>
<text text-anchor="start" x="872" y="-242.5" font-family="Helvetica,sans-Serif" font-size="10.00">DynExpModule::LockinAmplifier</text>
<text text-anchor="middle" x="950" y="-231.5" font-family="Helvetica,sans-Serif" font-size="10.00">Control</text>
</a>
</g>
</g>
<!-- Node59&#45;&gt;Node62 -->
<g id="edge40" class="edge">
<title>Node59&#45;&gt;Node62</title>
<path fill="none" stroke="midnightblue" d="M758.98,-222.19C791.58,-225.16 830.14,-228.67 863.98,-231.76"/>
<polygon fill="midnightblue" stroke="midnightblue" points="758.89,-218.67 748.61,-221.25 758.26,-225.64 758.89,-218.67"/>
</g>
<!-- Node63 -->
<g id="node42" class="node">
<title>Node63</title>
<g id="a_node42"><a xlink:href="classDynExpModule_1_1ODMR_1_1ODMR.html" target="_top" xlink:title=" ">
<polygon fill="white" stroke="black" points="886.5,-175.5 886.5,-205.5 1013.5,-205.5 1013.5,-175.5 886.5,-175.5"/>
<text text-anchor="start" x="894.5" y="-193.5" font-family="Helvetica,sans-Serif" font-size="10.00">DynExpModule::ODMR</text>
<text text-anchor="middle" x="950" y="-182.5" font-family="Helvetica,sans-Serif" font-size="10.00">::ODMR</text>
</a>
</g>
</g>
<!-- Node59&#45;&gt;Node63 -->
<g id="edge41" class="edge">
<title>Node59&#45;&gt;Node63</title>
<path fill="none" stroke="midnightblue" d="M758.61,-208.56C798.76,-204.75 848.04,-200.08 886.4,-196.44"/>
<polygon fill="midnightblue" stroke="midnightblue" points="758.24,-205.08 748.61,-209.51 758.9,-212.05 758.24,-205.08"/>
</g>
<!-- Node64 -->
<g id="node43" class="node">
<title>Node64</title>
<g id="a_node43"><a xlink:href="classDynExpModule_1_1OutputPortWriter.html" target="_top" xlink:title=" ">
<polygon fill="white" stroke="black" points="875.5,-126.5 875.5,-156.5 1024.5,-156.5 1024.5,-126.5 875.5,-126.5"/>
<text text-anchor="start" x="883.5" y="-144.5" font-family="Helvetica,sans-Serif" font-size="10.00">DynExpModule::OutputPort</text>
<text text-anchor="middle" x="950" y="-133.5" font-family="Helvetica,sans-Serif" font-size="10.00">Writer</text>
</a>
</g>
</g>
<!-- Node59&#45;&gt;Node64 -->
<g id="edge42" class="edge">
<title>Node59&#45;&gt;Node64</title>
<path fill="none" stroke="midnightblue" d="M758.39,-206.54C768.26,-203.99 778.06,-200.71 787,-196.5 805.84,-187.63 804.2,-175.47 823,-166.5 839.2,-158.77 857.67,-153.43 875.38,-149.74"/>
<polygon fill="midnightblue" stroke="midnightblue" points="757.46,-203.16 748.53,-208.85 759.06,-209.97 757.46,-203.16"/>
</g>
<!-- Node65 -->
<g id="node44" class="node">
<title>Node65</title>
<g id="a_node44"><a xlink:href="classDynExpModule_1_1SignalDesigner.html" target="_top" xlink:title=" ">
<polygon fill="white" stroke="black" points="865,-88 865,-107 1035,-107 1035,-88 865,-88"/>
<text text-anchor="middle" x="950" y="-95" font-family="Helvetica,sans-Serif" font-size="10.00">DynExpModule::SignalDesigner</text>
</a>
</g>
</g>
<!-- Node59&#45;&gt;Node65 -->
<g id="edge43" class="edge">
<title>Node59&#45;&gt;Node65</title>
<path fill="none" stroke="midnightblue" d="M758.46,-210.66C768.75,-207.56 778.66,-203.03 787,-196.5 817.38,-172.72 792.29,-140.86 823,-117.5 835.16,-108.25 849.92,-102.53 865,-99.11"/>
<polygon fill="midnightblue" stroke="midnightblue" points="757.32,-207.34 748.5,-213.22 759.06,-214.12 757.32,-207.34"/>
</g>
<!-- Node66 -->
<g id="node45" class="node">
<title>Node66</title>
<g id="a_node45"><a xlink:href="classDynExpModule_1_1SignalPlotter.html" target="_top" xlink:title=" ">
<polygon fill="white" stroke="black" points="871,-50 871,-69 1029,-69 1029,-50 871,-50"/>
<text text-anchor="middle" x="950" y="-57" font-family="Helvetica,sans-Serif" font-size="10.00">DynExpModule::SignalPlotter</text>
</a>
</g>
</g>
<!-- Node59&#45;&gt;Node66 -->
<g id="edge44" class="edge">
<title>Node59&#45;&gt;Node66</title>
<path fill="none" stroke="midnightblue" d="M758.34,-211.89C768.86,-208.67 778.87,-203.78 787,-196.5 827.86,-159.94 781.5,-114.33 823,-78.5 836.31,-67.01 853.51,-60.82 870.89,-57.75"/>
<polygon fill="midnightblue" stroke="midnightblue" points="757.38,-208.53 748.57,-214.41 759.12,-215.31 757.38,-208.53"/>
</g>
<!-- Node67 -->
<g id="node46" class="node">
<title>Node67</title>
<g id="a_node46"><a xlink:href="classDynExpModule_1_1SpectrumViewer_1_1SpectrumViewer.html" target="_top" xlink:title=" ">
<polygon fill="white" stroke="black" points="862,-0.5 862,-30.5 1038,-30.5 1038,-0.5 862,-0.5"/>
<text text-anchor="start" x="870" y="-18.5" font-family="Helvetica,sans-Serif" font-size="10.00">DynExpModule::SpectrumViewer</text>
<text text-anchor="middle" x="950" y="-7.5" font-family="Helvetica,sans-Serif" font-size="10.00">::SpectrumViewer</text>
</a>
</g>
</g>
<!-- Node59&#45;&gt;Node67 -->
<g id="edge45" class="edge">
<title>Node59&#45;&gt;Node67</title>
<path fill="none" stroke="midnightblue" d="M758.39,-212.5C769.01,-209.22 779.03,-204.15 787,-196.5 838.35,-147.25 771.91,-90.03 823,-40.5 833.73,-30.1 847.47,-23.43 861.92,-19.25"/>
<polygon fill="midnightblue" stroke="midnightblue" points="757.33,-209.16 748.52,-215.04 759.07,-215.94 757.33,-209.16"/>
</g>
</g>
</svg>
