<?xml version="1.0" encoding="UTF-8" standalone="no"?>
<!DOCTYPE svg PUBLIC "-//W3C//DTD SVG 1.1//EN"
 "http://www.w3.org/Graphics/SVG/1.1/DTD/svg11.dtd">
<!-- Generated by graphviz version 2.43.0 (0)
 -->
<!-- Title: DynExpInstr::NetworkDataStreamInstrumentData&lt; BaseInstr,, gRPCStubs &gt; Pages: 1 -->
<svg width="196pt" height="170pt"
 viewBox="0.00 0.00 196.00 170.00" xmlns="http://www.w3.org/2000/svg" xmlns:xlink="http://www.w3.org/1999/xlink">
<g id="graph0" class="graph" transform="scale(1 1) rotate(0) translate(4 166)">
<title>DynExpInstr::NetworkDataStreamInstrumentData&lt; BaseInstr,, gRPCStubs &gt;</title>
<!-- Node1 -->
<g id="Node000001" class="node">
<title>Node1</title>
<g id="a_Node000001"><a xlink:title=" ">
<polygon fill="#999999" stroke="#666666" points="167,-41 21,-41 21,0 167,0 167,-41"/>
<text text-anchor="start" x="29" y="-29" font-family="Helvetica,sans-Serif" font-size="10.00">DynExpInstr::NetworkData</text>
<text text-anchor="start" x="29" y="-18" font-family="Helvetica,sans-Serif" font-size="10.00">StreamInstrumentData&lt;</text>
<text text-anchor="middle" x="94" y="-7" font-family="Helvetica,sans-Serif" font-size="10.00"> BaseInstr,, gRPCStubs &gt;</text>
</a>
</g>
</g>
<!-- Node2 -->
<g id="Node000002" class="node">
<title>Node2</title>
<g id="a_Node000002"><a xlink:href="classDynExpInstr_1_1gRPCInstrumentData.html" target="_top" xlink:title=" ">
<polygon fill="white" stroke="#666666" points="188,-107 0,-107 0,-77 188,-77 188,-107"/>
<text text-anchor="start" x="8" y="-95" font-family="Helvetica,sans-Serif" font-size="10.00">DynExpInstr::gRPCInstrument</text>
<text text-anchor="middle" x="94" y="-84" font-family="Helvetica,sans-Serif" font-size="10.00">Data&lt; BaseInstr, 0, gRPCStubs... &gt;</text>
</a>
</g>
</g>
<!-- Node2&#45;&gt;Node1 -->
<g id="edge1_Node000001_Node000002" class="edge">
<title>Node2&#45;&gt;Node1</title>
<g id="a_edge1_Node000001_Node000002"><a xlink:title=" ">
<path fill="none" stroke="#63b8ff" d="M94,-66.91C94,-58.47 94,-49.1 94,-41.07"/>
<polygon fill="#63b8ff" stroke="#63b8ff" points="90.5,-66.94 94,-76.94 97.5,-66.94 90.5,-66.94"/>
</a>
</g>
</g>
<!-- Node3 -->
<g id="Node000003" class="node">
<title>Node3</title>
<g id="a_Node000003"><a xlink:title=" ">
<polygon fill="white" stroke="#666666" points="177.5,-162 10.5,-162 10.5,-143 177.5,-143 177.5,-162"/>
<text text-anchor="middle" x="94" y="-150" font-family="Helvetica,sans-Serif" font-size="10.00">BaseInstr::InstrumentDataType</text>
</a>
</g>
</g>
<!-- Node3&#45;&gt;Node2 -->
<g id="edge2_Node000002_Node000003" class="edge">
<title>Node3&#45;&gt;Node2</title>
<g id="a_edge2_Node000002_Node000003"><a xlink:title=" ">
<path fill="none" stroke="#63b8ff" d="M94,-132.65C94,-124.36 94,-114.78 94,-107.11"/>
<polygon fill="#63b8ff" stroke="#63b8ff" points="90.5,-132.87 94,-142.87 97.5,-132.87 90.5,-132.87"/>
</a>
</g>
</g>
</g>
</svg>
