<?xml version="1.0" encoding="UTF-8" standalone="no"?>
<!DOCTYPE svg PUBLIC "-//W3C//DTD SVG 1.1//EN"
 "http://www.w3.org/Graphics/SVG/1.1/DTD/svg11.dtd">
<!-- Generated by graphviz version 2.43.0 (0)
 -->
<!-- Title: DynExpModule::NetworkTimeTaggerT&lt; gRPCServices &gt;::CallDataSetExposureTime Pages: 1 -->
<svg width="411pt" height="83pt"
 viewBox="0.00 0.00 411.00 83.00" xmlns="http://www.w3.org/2000/svg" xmlns:xlink="http://www.w3.org/1999/xlink">
<g id="graph0" class="graph" transform="scale(1 1) rotate(0) translate(4 79)">
<title>DynExpModule::NetworkTimeTaggerT&lt; gRPCServices &gt;::CallDataSetExposureTime</title>
<polygon fill="white" stroke="transparent" points="-4,4 -4,-79 407,-79 407,4 -4,4"/>
<!-- Node1 -->
<g id="node1" class="node">
<title>Node1</title>
<g id="a_node1"><a xlink:title=" ">
<polygon fill="#bfbfbf" stroke="black" points="241,-17 241,-58 403,-58 403,-17 241,-17"/>
<text text-anchor="start" x="249" y="-46" font-family="Helvetica,sans-Serif" font-size="10.00">DynExpModule::NetworkTime</text>
<text text-anchor="start" x="249" y="-35" font-family="Helvetica,sans-Serif" font-size="10.00">TaggerT&lt; gRPCServices &gt;</text>
<text text-anchor="middle" x="322" y="-24" font-family="Helvetica,sans-Serif" font-size="10.00">::CallDataSetExposureTime</text>
</a>
</g>
</g>
<!-- Node2 -->
<g id="node2" class="node">
<title>Node2</title>
<g id="a_node2"><a xlink:title=" ">
<polygon fill="white" stroke="#bfbfbf" points="0,-0.5 0,-74.5 205,-74.5 205,-0.5 0,-0.5"/>
<text text-anchor="start" x="8" y="-62.5" font-family="Helvetica,sans-Serif" font-size="10.00">gRPCModule::template</text>
<text text-anchor="start" x="8" y="-51.5" font-family="Helvetica,sans-Serif" font-size="10.00"> TypedCallDataBase&lt; CallData</text>
<text text-anchor="start" x="8" y="-40.5" font-family="Helvetica,sans-Serif" font-size="10.00">SetExposureTime, ThisServiceType,</text>
<text text-anchor="start" x="8" y="-29.5" font-family="Helvetica,sans-Serif" font-size="10.00"> DynExpProto::NetworkTimeTagger</text>
<text text-anchor="start" x="8" y="-18.5" font-family="Helvetica,sans-Serif" font-size="10.00">::ExposureTimeMessage, DynExpProto</text>
<text text-anchor="middle" x="102.5" y="-7.5" font-family="Helvetica,sans-Serif" font-size="10.00">::Common::VoidMessage &gt;</text>
</a>
</g>
</g>
<!-- Node2&#45;&gt;Node1 -->
<g id="edge1" class="edge">
<title>Node2&#45;&gt;Node1</title>
<path fill="none" stroke="midnightblue" d="M215.33,-37.5C223.93,-37.5 232.5,-37.5 240.83,-37.5"/>
<polygon fill="midnightblue" stroke="midnightblue" points="215.25,-34 205.25,-37.5 215.25,-41 215.25,-34"/>
</g>
</g>
</svg>
