<?xml version="1.0" encoding="UTF-8" standalone="no"?>
<!DOCTYPE svg PUBLIC "-//W3C//DTD SVG 1.1//EN"
 "http://www.w3.org/Graphics/SVG/1.1/DTD/svg11.dtd">
<!-- Generated by graphviz version 2.43.0 (0)
 -->
<!-- Title: DynExpInstr::NetworkAnalogOutTasks::UpdateTask&lt; BaseInstr,, gRPCStubs &gt; Pages: 1 -->
<svg width="761pt" height="61pt"
 viewBox="0.00 0.00 761.00 61.00" xmlns="http://www.w3.org/2000/svg" xmlns:xlink="http://www.w3.org/1999/xlink">
<g id="graph0" class="graph" transform="scale(1 1) rotate(0) translate(4 57)">
<title>DynExpInstr::NetworkAnalogOutTasks::UpdateTask&lt; BaseInstr,, gRPCStubs &gt;</title>
<polygon fill="white" stroke="transparent" points="-4,4 -4,-57 757,-57 757,4 -4,4"/>
<!-- Node1 -->
<g id="node1" class="node">
<title>Node1</title>
<g id="a_node1"><a xlink:title=" ">
<polygon fill="#bfbfbf" stroke="black" points="569,-6 569,-47 753,-47 753,-6 569,-6"/>
<text text-anchor="start" x="577" y="-35" font-family="Helvetica,sans-Serif" font-size="10.00">DynExpInstr::NetworkAnalog</text>
<text text-anchor="start" x="577" y="-24" font-family="Helvetica,sans-Serif" font-size="10.00">OutTasks::UpdateTask&lt; BaseInstr,</text>
<text text-anchor="middle" x="661" y="-13" font-family="Helvetica,sans-Serif" font-size="10.00">, gRPCStubs &gt;</text>
</a>
</g>
</g>
<!-- Node2 -->
<g id="node2" class="node">
<title>Node2</title>
<g id="a_node2"><a xlink:href="classDynExpInstr_1_1NetworkDataStreamInstrumentTasks_1_1UpdateTask.html" target="_top" xlink:title=" ">
<polygon fill="white" stroke="black" points="387,-0.5 387,-52.5 533,-52.5 533,-0.5 387,-0.5"/>
<text text-anchor="start" x="395" y="-40.5" font-family="Helvetica,sans-Serif" font-size="10.00">DynExpInstr::NetworkData</text>
<text text-anchor="start" x="395" y="-29.5" font-family="Helvetica,sans-Serif" font-size="10.00">StreamInstrumentTasks</text>
<text text-anchor="start" x="395" y="-18.5" font-family="Helvetica,sans-Serif" font-size="10.00">::UpdateTask&lt; BaseInstr,</text>
<text text-anchor="middle" x="460" y="-7.5" font-family="Helvetica,sans-Serif" font-size="10.00"> 0, gRPCStubs... &gt;</text>
</a>
</g>
</g>
<!-- Node2&#45;&gt;Node1 -->
<g id="edge1" class="edge">
<title>Node2&#45;&gt;Node1</title>
<path fill="none" stroke="midnightblue" d="M543.27,-26.5C551.68,-26.5 560.25,-26.5 568.74,-26.5"/>
<polygon fill="midnightblue" stroke="midnightblue" points="543.12,-23 533.12,-26.5 543.12,-30 543.12,-23"/>
</g>
<!-- Node3 -->
<g id="node3" class="node">
<title>Node3</title>
<g id="a_node3"><a xlink:href="classDynExpInstr_1_1gRPCInstrumentTasks_1_1UpdateTask.html" target="_top" xlink:title="Defines a task for updating an instrument within an instrument inheritance hierarchy....">
<polygon fill="white" stroke="black" points="184,-6 184,-47 351,-47 351,-6 184,-6"/>
<text text-anchor="start" x="192" y="-35" font-family="Helvetica,sans-Serif" font-size="10.00">DynExpInstr::gRPCInstrument</text>
<text text-anchor="start" x="192" y="-24" font-family="Helvetica,sans-Serif" font-size="10.00">Tasks::UpdateTask&lt; BaseInstr,</text>
<text text-anchor="middle" x="267.5" y="-13" font-family="Helvetica,sans-Serif" font-size="10.00">, gRPCStubs &gt;</text>
</a>
</g>
</g>
<!-- Node3&#45;&gt;Node2 -->
<g id="edge2" class="edge">
<title>Node3&#45;&gt;Node2</title>
<path fill="none" stroke="midnightblue" d="M361.27,-26.5C369.85,-26.5 378.45,-26.5 386.81,-26.5"/>
<polygon fill="midnightblue" stroke="midnightblue" points="361.22,-23 351.22,-26.5 361.22,-30 361.22,-23"/>
</g>
<!-- Node4 -->
<g id="node4" class="node">
<title>Node4</title>
<g id="a_node4"><a xlink:title=" ">
<polygon fill="white" stroke="#bfbfbf" points="0,-17 0,-36 148,-36 148,-17 0,-17"/>
<text text-anchor="middle" x="74" y="-24" font-family="Helvetica,sans-Serif" font-size="10.00">BaseInstr::UpdateTaskType</text>
</a>
</g>
</g>
<!-- Node4&#45;&gt;Node3 -->
<g id="edge3" class="edge">
<title>Node4&#45;&gt;Node3</title>
<path fill="none" stroke="midnightblue" d="M158.39,-26.5C166.8,-26.5 175.33,-26.5 183.73,-26.5"/>
<polygon fill="midnightblue" stroke="midnightblue" points="158.22,-23 148.22,-26.5 158.22,-30 158.22,-23"/>
</g>
</g>
</svg>
