<?xml version="1.0" encoding="UTF-8" standalone="no"?>
<!DOCTYPE svg PUBLIC "-//W3C//DTD SVG 1.1//EN"
 "http://www.w3.org/Graphics/SVG/1.1/DTD/svg11.dtd">
<!-- Generated by graphviz version 2.43.0 (0)
 -->
<!-- Title: DynExp::HardwareAdapterSerialPort Pages: 1 -->
<svg width="270pt" height="330pt"
 viewBox="0.00 0.00 269.50 330.00" xmlns="http://www.w3.org/2000/svg" xmlns:xlink="http://www.w3.org/1999/xlink">
<g id="graph0" class="graph" transform="scale(1 1) rotate(0) translate(4 326)">
<title>DynExp::HardwareAdapterSerialPort</title>
<polygon fill="white" stroke="transparent" points="-4,4 -4,-326 265.5,-326 265.5,4 -4,4"/>
<!-- Node1 -->
<g id="node1" class="node">
<title>Node1</title>
<g id="a_node1"><a xlink:title="Implements a hardware adapter to communicate with text&#45;based commands over COM ports.">
<polygon fill="#bfbfbf" stroke="black" points="0,-0.5 0,-19.5 193,-19.5 193,-0.5 0,-0.5"/>
<text text-anchor="middle" x="96.5" y="-7.5" font-family="Helvetica,sans-Serif" font-size="10.00">DynExp::HardwareAdapterSerialPort</text>
</a>
</g>
</g>
<!-- Node2 -->
<g id="node2" class="node">
<title>Node2</title>
<g id="a_node2"><a xlink:href="classDynExp_1_1QSerialCommunicationHardwareAdapter.html" target="_top" xlink:title="SerialCommunicationHardwareAdapter is based on a Qt communication object (wrapped by QSerialCommunica...">
<polygon fill="white" stroke="black" points="10,-56.5 10,-86.5 183,-86.5 183,-56.5 10,-56.5"/>
<text text-anchor="start" x="18" y="-74.5" font-family="Helvetica,sans-Serif" font-size="10.00">DynExp::QSerialCommunication</text>
<text text-anchor="middle" x="96.5" y="-63.5" font-family="Helvetica,sans-Serif" font-size="10.00">HardwareAdapter</text>
</a>
</g>
</g>
<!-- Node2&#45;&gt;Node1 -->
<g id="edge1" class="edge">
<title>Node2&#45;&gt;Node1</title>
<path fill="none" stroke="midnightblue" d="M96.5,-46.29C96.5,-36.86 96.5,-26.65 96.5,-19.66"/>
<polygon fill="midnightblue" stroke="midnightblue" points="93,-46.4 96.5,-56.4 100,-46.4 93,-46.4"/>
</g>
<!-- Node3 -->
<g id="node3" class="node">
<title>Node3</title>
<g id="a_node3"><a xlink:title=" ">
<polygon fill="white" stroke="#bfbfbf" points="4.5,-129 4.5,-148 60.5,-148 60.5,-129 4.5,-129"/>
<text text-anchor="middle" x="32.5" y="-136" font-family="Helvetica,sans-Serif" font-size="10.00">QObject</text>
</a>
</g>
</g>
<!-- Node3&#45;&gt;Node2 -->
<g id="edge2" class="edge">
<title>Node3&#45;&gt;Node2</title>
<path fill="none" stroke="midnightblue" d="M48.45,-121.3C58.95,-110.63 72.57,-96.8 82.63,-86.59"/>
<polygon fill="midnightblue" stroke="midnightblue" points="45.65,-119.15 41.13,-128.73 50.64,-124.06 45.65,-119.15"/>
</g>
<!-- Node4 -->
<g id="node4" class="node">
<title>Node4</title>
<g id="a_node4"><a xlink:href="classDynExp_1_1SerialCommunicationHardwareAdapter.html" target="_top" xlink:title="Defines a hardware adapter for serial communication. Logical const&#45;ness: see declaration of class Dyn...">
<polygon fill="white" stroke="black" points="79,-123.5 79,-153.5 244,-153.5 244,-123.5 79,-123.5"/>
<text text-anchor="start" x="87" y="-141.5" font-family="Helvetica,sans-Serif" font-size="10.00">DynExp::SerialCommunication</text>
<text text-anchor="middle" x="161.5" y="-130.5" font-family="Helvetica,sans-Serif" font-size="10.00">HardwareAdapter</text>
</a>
</g>
</g>
<!-- Node4&#45;&gt;Node2 -->
<g id="edge3" class="edge">
<title>Node4&#45;&gt;Node2</title>
<path fill="none" stroke="midnightblue" d="M140.31,-116.31C130.56,-106.56 119.26,-95.26 110.58,-86.58"/>
<polygon fill="midnightblue" stroke="midnightblue" points="137.85,-118.8 147.4,-123.4 142.8,-113.85 137.85,-118.8"/>
</g>
<!-- Node5 -->
<g id="node5" class="node">
<title>Node5</title>
<g id="a_node5"><a xlink:href="classDynExp_1_1HardwareAdapterBase.html" target="_top" xlink:title="Defines the base class for a hardware adapter object. Hardware adapters describe interfaces/connectio...">
<polygon fill="white" stroke="black" points="76.5,-190.5 76.5,-209.5 246.5,-209.5 246.5,-190.5 76.5,-190.5"/>
<text text-anchor="middle" x="161.5" y="-197.5" font-family="Helvetica,sans-Serif" font-size="10.00">DynExp::HardwareAdapterBase</text>
</a>
</g>
</g>
<!-- Node5&#45;&gt;Node4 -->
<g id="edge4" class="edge">
<title>Node5&#45;&gt;Node4</title>
<path fill="none" stroke="midnightblue" d="M161.5,-180.23C161.5,-171.59 161.5,-161.5 161.5,-153.52"/>
<polygon fill="midnightblue" stroke="midnightblue" points="158,-180.48 161.5,-190.48 165,-180.48 158,-180.48"/>
</g>
<!-- Node6 -->
<g id="node6" class="node">
<title>Node6</title>
<g id="a_node6"><a xlink:href="classUtil_1_1ILockable.html" target="_top" xlink:title="Interface to allow synchronizing the access to derived classes between different threads by providing...">
<polygon fill="white" stroke="black" points="65.5,-246.5 65.5,-265.5 151.5,-265.5 151.5,-246.5 65.5,-246.5"/>
<text text-anchor="middle" x="108.5" y="-253.5" font-family="Helvetica,sans-Serif" font-size="10.00">Util::ILockable</text>
</a>
</g>
</g>
<!-- Node6&#45;&gt;Node5 -->
<g id="edge5" class="edge">
<title>Node6&#45;&gt;Node5</title>
<path fill="none" stroke="midnightblue" d="M124.48,-238.72C133.82,-229.2 145.25,-217.56 152.91,-209.75"/>
<polygon fill="midnightblue" stroke="midnightblue" points="121.76,-236.49 117.25,-246.08 126.75,-241.4 121.76,-236.49"/>
</g>
<!-- Node7 -->
<g id="node7" class="node">
<title>Node7</title>
<g id="a_node7"><a xlink:href="classUtil_1_1INonCopyable.html" target="_top" xlink:title="Interface to delete copy constructor and copy assignment operator and thus make derived classes non&#45;c...">
<polygon fill="white" stroke="black" points="54.5,-302.5 54.5,-321.5 162.5,-321.5 162.5,-302.5 54.5,-302.5"/>
<text text-anchor="middle" x="108.5" y="-309.5" font-family="Helvetica,sans-Serif" font-size="10.00">Util::INonCopyable</text>
</a>
</g>
</g>
<!-- Node7&#45;&gt;Node6 -->
<g id="edge6" class="edge">
<title>Node7&#45;&gt;Node6</title>
<path fill="none" stroke="midnightblue" d="M108.5,-291.8C108.5,-282.91 108.5,-272.78 108.5,-265.75"/>
<polygon fill="midnightblue" stroke="midnightblue" points="105,-292.08 108.5,-302.08 112,-292.08 105,-292.08"/>
</g>
<!-- Node8 -->
<g id="node8" class="node">
<title>Node8</title>
<g id="a_node8"><a xlink:href="classDynExp_1_1Object.html" target="_top" xlink:title="Base class for all DynExp Objects like hardware adapters (DynExp::HardwareAdapterBase),...">
<polygon fill="white" stroke="black" points="169.5,-246.5 169.5,-265.5 261.5,-265.5 261.5,-246.5 169.5,-246.5"/>
<text text-anchor="middle" x="215.5" y="-253.5" font-family="Helvetica,sans-Serif" font-size="10.00">DynExp::Object</text>
</a>
</g>
</g>
<!-- Node8&#45;&gt;Node5 -->
<g id="edge7" class="edge">
<title>Node8&#45;&gt;Node5</title>
<path fill="none" stroke="midnightblue" d="M199.5,-239C189.93,-229.43 178.14,-217.64 170.25,-209.75"/>
<polygon fill="midnightblue" stroke="midnightblue" points="197.04,-241.49 206.58,-246.08 201.99,-236.54 197.04,-241.49"/>
</g>
</g>
</svg>
