<?xml version="1.0" encoding="UTF-8" standalone="no"?>
<!DOCTYPE svg PUBLIC "-//W3C//DTD SVG 1.1//EN"
 "http://www.w3.org/Graphics/SVG/1.1/DTD/svg11.dtd">
<!-- Generated by graphviz version 2.43.0 (0)
 -->
<!-- Title: DynExp::InitTaskBase Pages: 1 -->
<svg width="1308pt" height="553pt"
 viewBox="0.00 0.00 1308.00 553.00" xmlns="http://www.w3.org/2000/svg" xmlns:xlink="http://www.w3.org/1999/xlink">
<g id="graph0" class="graph" transform="scale(1 1) rotate(0) translate(4 549)">
<title>DynExp::InitTaskBase</title>
<polygon fill="white" stroke="transparent" points="-4,4 -4,-549 1304,-549 1304,4 -4,4"/>
<!-- Node1 -->
<g id="node1" class="node">
<title>Node1</title>
<g id="a_node1"><a xlink:title="Defines a task for initializing an instrument within an instrument inheritance hierarchy....">
<polygon fill="#bfbfbf" stroke="black" points="142,-153 142,-172 264,-172 264,-153 142,-153"/>
<text text-anchor="middle" x="203" y="-160" font-family="Helvetica,sans-Serif" font-size="10.00">DynExp::InitTaskBase</text>
</a>
</g>
</g>
<!-- Node3 -->
<g id="node3" class="node">
<title>Node3</title>
<g id="a_node3"><a xlink:href="classDynExpInstr_1_1CameraTasks_1_1InitTask.html" target="_top" xlink:title="Defines a task for initializing an instrument within an instrument inheritance hierarchy....">
<polygon fill="white" stroke="black" points="323.5,-416.5 323.5,-446.5 470.5,-446.5 470.5,-416.5 323.5,-416.5"/>
<text text-anchor="start" x="331.5" y="-434.5" font-family="Helvetica,sans-Serif" font-size="10.00">DynExpInstr::CameraTasks</text>
<text text-anchor="middle" x="397" y="-423.5" font-family="Helvetica,sans-Serif" font-size="10.00">::InitTask</text>
</a>
</g>
</g>
<!-- Node1&#45;&gt;Node3 -->
<g id="edge2" class="edge">
<title>Node1&#45;&gt;Node3</title>
<path fill="none" stroke="midnightblue" d="M216.68,-180.27C252.2,-230.03 352.18,-370.11 385.24,-416.42"/>
<polygon fill="midnightblue" stroke="midnightblue" points="219.49,-178.18 210.83,-172.07 213.79,-182.25 219.49,-178.18"/>
</g>
<!-- Node6 -->
<g id="node6" class="node">
<title>Node6</title>
<g id="a_node6"><a xlink:href="classDynExpInstr_1_1DataStreamInstrumentTasks_1_1InitTask.html" target="_top" xlink:title="Defines a task for initializing an instrument within an instrument inheritance hierarchy....">
<polygon fill="white" stroke="black" points="300,-196.5 300,-226.5 494,-226.5 494,-196.5 300,-196.5"/>
<text text-anchor="start" x="308" y="-214.5" font-family="Helvetica,sans-Serif" font-size="10.00">DynExpInstr::DataStreamInstrument</text>
<text text-anchor="middle" x="397" y="-203.5" font-family="Helvetica,sans-Serif" font-size="10.00">Tasks::InitTask</text>
</a>
</g>
</g>
<!-- Node1&#45;&gt;Node6 -->
<g id="edge5" class="edge">
<title>Node1&#45;&gt;Node6</title>
<path fill="none" stroke="midnightblue" d="M251.42,-174.6C277.3,-181.21 309.59,-189.45 337.08,-196.46"/>
<polygon fill="midnightblue" stroke="midnightblue" points="252.03,-171.15 241.48,-172.06 250.3,-177.93 252.03,-171.15"/>
</g>
<!-- Node26 -->
<g id="node26" class="node">
<title>Node26</title>
<g id="a_node26"><a xlink:href="classDynExpInstr_1_1InterModuleCommunicatorTasks_1_1InitTask.html" target="_top" xlink:title="Defines a task for initializing an instrument within an instrument inheritance hierarchy....">
<polygon fill="white" stroke="black" points="317.5,-147.5 317.5,-177.5 476.5,-177.5 476.5,-147.5 317.5,-147.5"/>
<text text-anchor="start" x="325.5" y="-165.5" font-family="Helvetica,sans-Serif" font-size="10.00">DynExpInstr::InterModule</text>
<text text-anchor="middle" x="397" y="-154.5" font-family="Helvetica,sans-Serif" font-size="10.00">CommunicatorTasks::InitTask</text>
</a>
</g>
</g>
<!-- Node1&#45;&gt;Node26 -->
<g id="edge25" class="edge">
<title>Node1&#45;&gt;Node26</title>
<path fill="none" stroke="midnightblue" d="M274.26,-162.5C288.26,-162.5 303.05,-162.5 317.31,-162.5"/>
<polygon fill="midnightblue" stroke="midnightblue" points="274.22,-159 264.22,-162.5 274.22,-166 274.22,-159"/>
</g>
<!-- Node27 -->
<g id="node27" class="node">
<title>Node27</title>
<g id="a_node27"><a xlink:href="classDynExpInstr_1_1PositionerStageTasks_1_1InitTask.html" target="_top" xlink:title="Defines a task for initializing an instrument within an instrument inheritance hierarchy....">
<polygon fill="white" stroke="black" points="318,-98.5 318,-128.5 476,-128.5 476,-98.5 318,-98.5"/>
<text text-anchor="start" x="326" y="-116.5" font-family="Helvetica,sans-Serif" font-size="10.00">DynExpInstr::PositionerStage</text>
<text text-anchor="middle" x="397" y="-105.5" font-family="Helvetica,sans-Serif" font-size="10.00">Tasks::InitTask</text>
</a>
</g>
</g>
<!-- Node1&#45;&gt;Node27 -->
<g id="edge26" class="edge">
<title>Node1&#45;&gt;Node27</title>
<path fill="none" stroke="midnightblue" d="M250.46,-150.3C266.18,-146.2 283.85,-141.62 300,-137.5 311.49,-134.57 323.75,-131.47 335.55,-128.52"/>
<polygon fill="midnightblue" stroke="midnightblue" points="249.24,-147.01 240.45,-152.92 251.01,-153.78 249.24,-147.01"/>
</g>
<!-- Node31 -->
<g id="node31" class="node">
<title>Node31</title>
<g id="a_node31"><a xlink:href="classDynExpInstr_1_1SpectrometerTasks_1_1InitTask.html" target="_top" xlink:title="Defines a task for initializing an instrument within an instrument inheritance hierarchy....">
<polygon fill="white" stroke="black" points="323,-49.5 323,-79.5 471,-79.5 471,-49.5 323,-49.5"/>
<text text-anchor="start" x="331" y="-67.5" font-family="Helvetica,sans-Serif" font-size="10.00">DynExpInstr::Spectrometer</text>
<text text-anchor="middle" x="397" y="-56.5" font-family="Helvetica,sans-Serif" font-size="10.00">Tasks::InitTask</text>
</a>
</g>
</g>
<!-- Node1&#45;&gt;Node31 -->
<g id="edge30" class="edge">
<title>Node1&#45;&gt;Node31</title>
<path fill="none" stroke="midnightblue" d="M221.15,-145.68C239.29,-128.82 269.45,-103.29 300,-88.5 307.19,-85.02 314.94,-82.01 322.8,-79.42"/>
<polygon fill="midnightblue" stroke="midnightblue" points="218.55,-143.33 213.71,-152.75 223.37,-148.4 218.55,-143.33"/>
</g>
<!-- Node2 -->
<g id="node2" class="node">
<title>Node2</title>
<g id="a_node2"><a xlink:href="classDynExp_1_1TaskBase.html" target="_top" xlink:title="Base class for all tasks being processed by instruments. The class must not contain public virtual fu...">
<polygon fill="white" stroke="black" points="0,-153 0,-172 106,-172 106,-153 0,-153"/>
<text text-anchor="middle" x="53" y="-160" font-family="Helvetica,sans-Serif" font-size="10.00">DynExp::TaskBase</text>
</a>
</g>
</g>
<!-- Node2&#45;&gt;Node1 -->
<g id="edge1" class="edge">
<title>Node2&#45;&gt;Node1</title>
<path fill="none" stroke="midnightblue" d="M116.38,-162.5C124.85,-162.5 133.52,-162.5 141.95,-162.5"/>
<polygon fill="midnightblue" stroke="midnightblue" points="116.18,-159 106.18,-162.5 116.18,-166 116.18,-159"/>
</g>
<!-- Node4 -->
<g id="node4" class="node">
<title>Node4</title>
<g id="a_node4"><a xlink:href="classDynExpInstr_1_1DummyCameraTasks_1_1InitTask.html" target="_top" xlink:title=" ">
<polygon fill="white" stroke="black" points="536.5,-465.5 536.5,-495.5 695.5,-495.5 695.5,-465.5 536.5,-465.5"/>
<text text-anchor="start" x="544.5" y="-483.5" font-family="Helvetica,sans-Serif" font-size="10.00">DynExpInstr::DummyCamera</text>
<text text-anchor="middle" x="616" y="-472.5" font-family="Helvetica,sans-Serif" font-size="10.00">Tasks::InitTask</text>
</a>
</g>
</g>
<!-- Node3&#45;&gt;Node4 -->
<g id="edge3" class="edge">
<title>Node3&#45;&gt;Node4</title>
<path fill="none" stroke="midnightblue" d="M474.43,-448.76C498.61,-454.22 525.12,-460.21 548.54,-465.49"/>
<polygon fill="midnightblue" stroke="midnightblue" points="475.11,-445.32 464.58,-446.53 473.57,-452.15 475.11,-445.32"/>
</g>
<!-- Node5 -->
<g id="node5" class="node">
<title>Node5</title>
<g id="a_node5"><a xlink:href="classDynExpInstr_1_1PVCamTasks_1_1InitTask.html" target="_top" xlink:title=" ">
<polygon fill="white" stroke="black" points="544,-416.5 544,-446.5 688,-446.5 688,-416.5 544,-416.5"/>
<text text-anchor="start" x="552" y="-434.5" font-family="Helvetica,sans-Serif" font-size="10.00">DynExpInstr::PVCamTasks</text>
<text text-anchor="middle" x="616" y="-423.5" font-family="Helvetica,sans-Serif" font-size="10.00">::InitTask</text>
</a>
</g>
</g>
<!-- Node3&#45;&gt;Node5 -->
<g id="edge4" class="edge">
<title>Node3&#45;&gt;Node5</title>
<path fill="none" stroke="midnightblue" d="M480.68,-431.5C501.54,-431.5 523.75,-431.5 543.98,-431.5"/>
<polygon fill="midnightblue" stroke="midnightblue" points="480.56,-428 470.56,-431.5 480.56,-435 480.56,-428"/>
</g>
<!-- Node7 -->
<g id="node7" class="node">
<title>Node7</title>
<g id="a_node7"><a xlink:href="classDynExpInstr_1_1FunctionGeneratorTasks_1_1InitTask.html" target="_top" xlink:title="Defines a task for initializing an instrument within an instrument inheritance hierarchy....">
<polygon fill="white" stroke="black" points="530,-367.5 530,-397.5 702,-397.5 702,-367.5 530,-367.5"/>
<text text-anchor="start" x="538" y="-385.5" font-family="Helvetica,sans-Serif" font-size="10.00">DynExpInstr::FunctionGenerator</text>
<text text-anchor="middle" x="616" y="-374.5" font-family="Helvetica,sans-Serif" font-size="10.00">Tasks::InitTask</text>
</a>
</g>
</g>
<!-- Node6&#45;&gt;Node7 -->
<g id="edge6" class="edge">
<title>Node6&#45;&gt;Node7</title>
<path fill="none" stroke="midnightblue" d="M425.32,-233.03C469.89,-268.15 557.14,-336.9 595.79,-367.36"/>
<polygon fill="midnightblue" stroke="midnightblue" points="427.28,-230.12 417.26,-226.68 422.95,-235.61 427.28,-230.12"/>
</g>
<!-- Node17 -->
<g id="node17" class="node">
<title>Node17</title>
<g id="a_node17"><a xlink:href="classDynExpInstr_1_1InputPortTasks_1_1InitTask.html" target="_top" xlink:title="Defines a task for initializing an instrument within an instrument inheritance hierarchy....">
<polygon fill="white" stroke="black" points="539.5,-245.5 539.5,-275.5 692.5,-275.5 692.5,-245.5 539.5,-245.5"/>
<text text-anchor="start" x="547.5" y="-263.5" font-family="Helvetica,sans-Serif" font-size="10.00">DynExpInstr::InputPortTasks</text>
<text text-anchor="middle" x="616" y="-252.5" font-family="Helvetica,sans-Serif" font-size="10.00">::InitTask</text>
</a>
</g>
</g>
<!-- Node6&#45;&gt;Node17 -->
<g id="edge16" class="edge">
<title>Node6&#45;&gt;Node17</title>
<path fill="none" stroke="midnightblue" d="M474.43,-228.76C498.61,-234.22 525.12,-240.21 548.54,-245.49"/>
<polygon fill="midnightblue" stroke="midnightblue" points="475.11,-225.32 464.58,-226.53 473.57,-232.15 475.11,-225.32"/>
</g>
<!-- Node22 -->
<g id="node22" class="node">
<title>Node22</title>
<g id="a_node22"><a xlink:href="classDynExpInstr_1_1LockinAmplifierTasks_1_1InitTask.html" target="_top" xlink:title="Defines a task for initializing an instrument within an instrument inheritance hierarchy....">
<polygon fill="white" stroke="black" points="537,-196.5 537,-226.5 695,-226.5 695,-196.5 537,-196.5"/>
<text text-anchor="start" x="545" y="-214.5" font-family="Helvetica,sans-Serif" font-size="10.00">DynExpInstr::LockinAmplifier</text>
<text text-anchor="middle" x="616" y="-203.5" font-family="Helvetica,sans-Serif" font-size="10.00">Tasks::InitTask</text>
</a>
</g>
</g>
<!-- Node6&#45;&gt;Node22 -->
<g id="edge21" class="edge">
<title>Node6&#45;&gt;Node22</title>
<path fill="none" stroke="midnightblue" d="M504.21,-211.5C515.2,-211.5 526.23,-211.5 536.84,-211.5"/>
<polygon fill="midnightblue" stroke="midnightblue" points="504.13,-208 494.13,-211.5 504.13,-215 504.13,-208"/>
</g>
<!-- Node24 -->
<g id="node24" class="node">
<title>Node24</title>
<g id="a_node24"><a xlink:href="classDynExpInstr_1_1TimeTaggerTasks_1_1InitTask.html" target="_top" xlink:title="Defines a task for initializing an instrument within an instrument inheritance hierarchy....">
<polygon fill="white" stroke="black" points="533,-147.5 533,-177.5 699,-177.5 699,-147.5 533,-147.5"/>
<text text-anchor="start" x="541" y="-165.5" font-family="Helvetica,sans-Serif" font-size="10.00">DynExpInstr::TimeTaggerTasks</text>
<text text-anchor="middle" x="616" y="-154.5" font-family="Helvetica,sans-Serif" font-size="10.00">::InitTask</text>
</a>
</g>
</g>
<!-- Node6&#45;&gt;Node24 -->
<g id="edge23" class="edge">
<title>Node6&#45;&gt;Node24</title>
<path fill="none" stroke="midnightblue" d="M474.43,-194.24C498.61,-188.78 525.12,-182.79 548.54,-177.51"/>
<polygon fill="midnightblue" stroke="midnightblue" points="473.57,-190.85 464.58,-196.47 475.11,-197.68 473.57,-190.85"/>
</g>
<!-- Node8 -->
<g id="node8" class="node">
<title>Node8</title>
<g id="a_node8"><a xlink:href="classDynExpInstr_1_1DummyDataStreamInstrumentTasks_1_1InitTask.html" target="_top" xlink:title=" ">
<polygon fill="white" stroke="black" points="739.5,-514.5 739.5,-544.5 918.5,-544.5 918.5,-514.5 739.5,-514.5"/>
<text text-anchor="start" x="747.5" y="-532.5" font-family="Helvetica,sans-Serif" font-size="10.00">DynExpInstr::DummyDataStream</text>
<text text-anchor="middle" x="829" y="-521.5" font-family="Helvetica,sans-Serif" font-size="10.00">InstrumentTasks::InitTask</text>
</a>
</g>
</g>
<!-- Node7&#45;&gt;Node8 -->
<g id="edge7" class="edge">
<title>Node7&#45;&gt;Node8</title>
<path fill="none" stroke="midnightblue" d="M696.67,-403.05C698.53,-404.44 700.31,-405.92 702,-407.5 735.88,-439.21 703.72,-474.22 738,-505.5 741.7,-508.88 745.83,-511.79 750.22,-514.3"/>
<polygon fill="midnightblue" stroke="midnightblue" points="698.37,-399.99 688.06,-397.55 694.6,-405.88 698.37,-399.99"/>
</g>
<!-- Node9 -->
<g id="node9" class="node">
<title>Node9</title>
<g id="a_node9"><a xlink:href="classDynExpInstr_1_1OutputPortTasks_1_1InitTask.html" target="_top" xlink:title="Defines a task for initializing an instrument within an instrument inheritance hierarchy....">
<polygon fill="white" stroke="black" points="748.5,-465.5 748.5,-495.5 909.5,-495.5 909.5,-465.5 748.5,-465.5"/>
<text text-anchor="start" x="756.5" y="-483.5" font-family="Helvetica,sans-Serif" font-size="10.00">DynExpInstr::OutputPortTasks</text>
<text text-anchor="middle" x="829" y="-472.5" font-family="Helvetica,sans-Serif" font-size="10.00">::InitTask</text>
</a>
</g>
</g>
<!-- Node7&#45;&gt;Node9 -->
<g id="edge8" class="edge">
<title>Node7&#45;&gt;Node9</title>
<path fill="none" stroke="midnightblue" d="M693,-401.95C696.12,-403.65 699.14,-405.5 702,-407.5 724.12,-423.02 715.68,-441.27 738,-456.5 743.08,-459.96 748.63,-462.93 754.4,-465.47"/>
<polygon fill="midnightblue" stroke="midnightblue" points="694.45,-398.77 683.93,-397.54 691.39,-405.06 694.45,-398.77"/>
</g>
<!-- Node14 -->
<g id="node14" class="node">
<title>Node14</title>
<g id="a_node14"><a xlink:href="classDynExpInstr_1_1RS__SMB100BTasks_1_1InitTask.html" target="_top" xlink:title=" ">
<polygon fill="white" stroke="black" points="742.5,-416.5 742.5,-446.5 915.5,-446.5 915.5,-416.5 742.5,-416.5"/>
<text text-anchor="start" x="750.5" y="-434.5" font-family="Helvetica,sans-Serif" font-size="10.00">DynExpInstr::RS_SMB100BTasks</text>
<text text-anchor="middle" x="829" y="-423.5" font-family="Helvetica,sans-Serif" font-size="10.00">::InitTask</text>
</a>
</g>
</g>
<!-- Node7&#45;&gt;Node14 -->
<g id="edge13" class="edge">
<title>Node7&#45;&gt;Node14</title>
<path fill="none" stroke="midnightblue" d="M691.63,-399.83C715.06,-405.27 740.71,-411.23 763.38,-416.49"/>
<polygon fill="midnightblue" stroke="midnightblue" points="692.27,-396.39 681.74,-397.53 690.69,-403.21 692.27,-396.39"/>
</g>
<!-- Node15 -->
<g id="node15" class="node">
<title>Node15</title>
<g id="a_node15"><a xlink:href="classDynExpInstr_1_1RS__SMC100ATasks_1_1InitTask.html" target="_top" xlink:title=" ">
<polygon fill="white" stroke="black" points="742.5,-367.5 742.5,-397.5 915.5,-397.5 915.5,-367.5 742.5,-367.5"/>
<text text-anchor="start" x="750.5" y="-385.5" font-family="Helvetica,sans-Serif" font-size="10.00">DynExpInstr::RS_SMC100ATasks</text>
<text text-anchor="middle" x="829" y="-374.5" font-family="Helvetica,sans-Serif" font-size="10.00">::InitTask</text>
</a>
</g>
</g>
<!-- Node7&#45;&gt;Node15 -->
<g id="edge14" class="edge">
<title>Node7&#45;&gt;Node15</title>
<path fill="none" stroke="midnightblue" d="M712.23,-382.5C722.31,-382.5 732.51,-382.5 742.47,-382.5"/>
<polygon fill="midnightblue" stroke="midnightblue" points="712.21,-379 702.21,-382.5 712.21,-386 712.21,-379"/>
</g>
<!-- Node16 -->
<g id="node16" class="node">
<title>Node16</title>
<g id="a_node16"><a xlink:href="classDynExpInstr_1_1SwabianInstrumentsPulseStreamerTasks_1_1InitTask.html" target="_top" xlink:title=" ">
<polygon fill="white" stroke="black" points="738,-318.5 738,-348.5 920,-348.5 920,-318.5 738,-318.5"/>
<text text-anchor="start" x="746" y="-336.5" font-family="Helvetica,sans-Serif" font-size="10.00">DynExpInstr::SwabianInstruments</text>
<text text-anchor="middle" x="829" y="-325.5" font-family="Helvetica,sans-Serif" font-size="10.00">PulseStreamerTasks::InitTask</text>
</a>
</g>
</g>
<!-- Node7&#45;&gt;Node16 -->
<g id="edge15" class="edge">
<title>Node7&#45;&gt;Node16</title>
<path fill="none" stroke="midnightblue" d="M691.63,-365.17C715.06,-359.73 740.71,-353.77 763.38,-348.51"/>
<polygon fill="midnightblue" stroke="midnightblue" points="690.69,-361.79 681.74,-367.47 692.27,-368.61 690.69,-361.79"/>
</g>
<!-- Node10 -->
<g id="node10" class="node">
<title>Node10</title>
<g id="a_node10"><a xlink:href="classDynExpInstr_1_1AnalogOutTasks_1_1InitTask.html" target="_top" xlink:title="Defines a task for initializing an instrument within an instrument inheritance hierarchy....">
<polygon fill="white" stroke="black" points="956,-489.5 956,-519.5 1116,-519.5 1116,-489.5 956,-489.5"/>
<text text-anchor="start" x="964" y="-507.5" font-family="Helvetica,sans-Serif" font-size="10.00">DynExpInstr::AnalogOutTasks</text>
<text text-anchor="middle" x="1036" y="-496.5" font-family="Helvetica,sans-Serif" font-size="10.00">::InitTask</text>
</a>
</g>
</g>
<!-- Node9&#45;&gt;Node10 -->
<g id="edge9" class="edge">
<title>Node9&#45;&gt;Node10</title>
<path fill="none" stroke="midnightblue" d="M919.61,-490.99C931.67,-492.4 943.97,-493.84 955.83,-495.23"/>
<polygon fill="midnightblue" stroke="midnightblue" points="919.89,-487.5 909.55,-489.81 919.08,-494.45 919.89,-487.5"/>
</g>
<!-- Node12 -->
<g id="node12" class="node">
<title>Node12</title>
<g id="a_node12"><a xlink:href="classDynExpInstr_1_1DigitalOutTasks_1_1InitTask.html" target="_top" xlink:title="Defines a task for initializing an instrument within an instrument inheritance hierarchy....">
<polygon fill="white" stroke="black" points="957,-440.5 957,-470.5 1115,-470.5 1115,-440.5 957,-440.5"/>
<text text-anchor="start" x="965" y="-458.5" font-family="Helvetica,sans-Serif" font-size="10.00">DynExpInstr::DigitalOutTasks</text>
<text text-anchor="middle" x="1036" y="-447.5" font-family="Helvetica,sans-Serif" font-size="10.00">::InitTask</text>
</a>
</g>
</g>
<!-- Node9&#45;&gt;Node12 -->
<g id="edge11" class="edge">
<title>Node9&#45;&gt;Node12</title>
<path fill="none" stroke="midnightblue" d="M919.83,-469.54C932.16,-468.04 944.74,-466.51 956.84,-465.03"/>
<polygon fill="midnightblue" stroke="midnightblue" points="919.05,-466.11 909.55,-470.8 919.9,-473.06 919.05,-466.11"/>
</g>
<!-- Node11 -->
<g id="node11" class="node">
<title>Node11</title>
<g id="a_node11"><a xlink:href="classDynExpInstr_1_1NIDAQAnalogOutTasks_1_1InitTask.html" target="_top" xlink:title=" ">
<polygon fill="white" stroke="black" points="1152,-489.5 1152,-519.5 1300,-519.5 1300,-489.5 1152,-489.5"/>
<text text-anchor="start" x="1160" y="-507.5" font-family="Helvetica,sans-Serif" font-size="10.00">DynExpInstr::NIDAQAnalog</text>
<text text-anchor="middle" x="1226" y="-496.5" font-family="Helvetica,sans-Serif" font-size="10.00">OutTasks::InitTask</text>
</a>
</g>
</g>
<!-- Node10&#45;&gt;Node11 -->
<g id="edge10" class="edge">
<title>Node10&#45;&gt;Node11</title>
<path fill="none" stroke="midnightblue" d="M1126.23,-504.5C1134.83,-504.5 1143.48,-504.5 1151.9,-504.5"/>
<polygon fill="midnightblue" stroke="midnightblue" points="1126.18,-501 1116.18,-504.5 1126.18,-508 1126.18,-501"/>
</g>
<!-- Node13 -->
<g id="node13" class="node">
<title>Node13</title>
<g id="a_node13"><a xlink:href="classDynExpInstr_1_1NIDAQDigitalOutTasks_1_1InitTask.html" target="_top" xlink:title=" ">
<polygon fill="white" stroke="black" points="1153,-440.5 1153,-470.5 1299,-470.5 1299,-440.5 1153,-440.5"/>
<text text-anchor="start" x="1161" y="-458.5" font-family="Helvetica,sans-Serif" font-size="10.00">DynExpInstr::NIDAQDigital</text>
<text text-anchor="middle" x="1226" y="-447.5" font-family="Helvetica,sans-Serif" font-size="10.00">OutTasks::InitTask</text>
</a>
</g>
</g>
<!-- Node12&#45;&gt;Node13 -->
<g id="edge12" class="edge">
<title>Node12&#45;&gt;Node13</title>
<path fill="none" stroke="midnightblue" d="M1125.13,-455.5C1134.42,-455.5 1143.79,-455.5 1152.86,-455.5"/>
<polygon fill="midnightblue" stroke="midnightblue" points="1125.1,-452 1115.1,-455.5 1125.1,-459 1125.1,-452"/>
</g>
<!-- Node18 -->
<g id="node18" class="node">
<title>Node18</title>
<g id="a_node18"><a xlink:href="classDynExpInstr_1_1AnalogInTasks_1_1InitTask.html" target="_top" xlink:title="Defines a task for initializing an instrument within an instrument inheritance hierarchy....">
<polygon fill="white" stroke="black" points="753,-269.5 753,-299.5 905,-299.5 905,-269.5 753,-269.5"/>
<text text-anchor="start" x="761" y="-287.5" font-family="Helvetica,sans-Serif" font-size="10.00">DynExpInstr::AnalogInTasks</text>
<text text-anchor="middle" x="829" y="-276.5" font-family="Helvetica,sans-Serif" font-size="10.00">::InitTask</text>
</a>
</g>
</g>
<!-- Node17&#45;&gt;Node18 -->
<g id="edge17" class="edge">
<title>Node17&#45;&gt;Node18</title>
<path fill="none" stroke="midnightblue" d="M702.82,-270.26C719.43,-272.15 736.71,-274.12 752.95,-275.96"/>
<polygon fill="midnightblue" stroke="midnightblue" points="702.91,-266.75 692.58,-269.1 702.12,-273.7 702.91,-266.75"/>
</g>
<!-- Node20 -->
<g id="node20" class="node">
<title>Node20</title>
<g id="a_node20"><a xlink:href="classDynExpInstr_1_1DigitalInTasks_1_1InitTask.html" target="_top" xlink:title="Defines a task for initializing an instrument within an instrument inheritance hierarchy....">
<polygon fill="white" stroke="black" points="754,-220.5 754,-250.5 904,-250.5 904,-220.5 754,-220.5"/>
<text text-anchor="start" x="762" y="-238.5" font-family="Helvetica,sans-Serif" font-size="10.00">DynExpInstr::DigitalInTasks</text>
<text text-anchor="middle" x="829" y="-227.5" font-family="Helvetica,sans-Serif" font-size="10.00">::InitTask</text>
</a>
</g>
</g>
<!-- Node17&#45;&gt;Node20 -->
<g id="edge19" class="edge">
<title>Node17&#45;&gt;Node20</title>
<path fill="none" stroke="midnightblue" d="M702.94,-250.32C719.76,-248.32 737.26,-246.25 753.66,-244.31"/>
<polygon fill="midnightblue" stroke="midnightblue" points="702.1,-246.89 692.58,-251.55 702.92,-253.84 702.1,-246.89"/>
</g>
<!-- Node19 -->
<g id="node19" class="node">
<title>Node19</title>
<g id="a_node19"><a xlink:href="classDynExpInstr_1_1NIDAQAnalogInTasks_1_1InitTask.html" target="_top" xlink:title=" ">
<polygon fill="white" stroke="black" points="962,-269.5 962,-299.5 1110,-299.5 1110,-269.5 962,-269.5"/>
<text text-anchor="start" x="970" y="-287.5" font-family="Helvetica,sans-Serif" font-size="10.00">DynExpInstr::NIDAQAnalog</text>
<text text-anchor="middle" x="1036" y="-276.5" font-family="Helvetica,sans-Serif" font-size="10.00">InTasks::InitTask</text>
</a>
</g>
</g>
<!-- Node18&#45;&gt;Node19 -->
<g id="edge18" class="edge">
<title>Node18&#45;&gt;Node19</title>
<path fill="none" stroke="midnightblue" d="M915.26,-284.5C930.75,-284.5 946.79,-284.5 961.89,-284.5"/>
<polygon fill="midnightblue" stroke="midnightblue" points="915.17,-281 905.17,-284.5 915.17,-288 915.17,-281"/>
</g>
<!-- Node21 -->
<g id="node21" class="node">
<title>Node21</title>
<g id="a_node21"><a xlink:href="classDynExpInstr_1_1NIDAQDigitalInTasks_1_1InitTask.html" target="_top" xlink:title=" ">
<polygon fill="white" stroke="black" points="963,-220.5 963,-250.5 1109,-250.5 1109,-220.5 963,-220.5"/>
<text text-anchor="start" x="971" y="-238.5" font-family="Helvetica,sans-Serif" font-size="10.00">DynExpInstr::NIDAQDigital</text>
<text text-anchor="middle" x="1036" y="-227.5" font-family="Helvetica,sans-Serif" font-size="10.00">InTasks::InitTask</text>
</a>
</g>
</g>
<!-- Node20&#45;&gt;Node21 -->
<g id="edge20" class="edge">
<title>Node20&#45;&gt;Node21</title>
<path fill="none" stroke="midnightblue" d="M914.46,-235.5C930.51,-235.5 947.18,-235.5 962.81,-235.5"/>
<polygon fill="midnightblue" stroke="midnightblue" points="914.01,-232 904.01,-235.5 914.01,-239 914.01,-232"/>
</g>
<!-- Node23 -->
<g id="node23" class="node">
<title>Node23</title>
<g id="a_node23"><a xlink:href="classDynExpInstr_1_1ZI__MFLITasks_1_1InitTask.html" target="_top" xlink:title=" ">
<polygon fill="white" stroke="black" points="755.5,-171.5 755.5,-201.5 902.5,-201.5 902.5,-171.5 755.5,-171.5"/>
<text text-anchor="start" x="763.5" y="-189.5" font-family="Helvetica,sans-Serif" font-size="10.00">DynExpInstr::ZI_MFLITasks</text>
<text text-anchor="middle" x="829" y="-178.5" font-family="Helvetica,sans-Serif" font-size="10.00">::InitTask</text>
</a>
</g>
</g>
<!-- Node22&#45;&gt;Node23 -->
<g id="edge22" class="edge">
<title>Node22&#45;&gt;Node23</title>
<path fill="none" stroke="midnightblue" d="M705.53,-201.01C722.16,-199.04 739.37,-197 755.45,-195.1"/>
<polygon fill="midnightblue" stroke="midnightblue" points="704.79,-197.57 695.27,-202.23 705.61,-204.53 704.79,-197.57"/>
</g>
<!-- Node25 -->
<g id="node25" class="node">
<title>Node25</title>
<g id="a_node25"><a xlink:href="classDynExpInstr_1_1QutoolsQuTAGTasks_1_1InitTask.html" target="_top" xlink:title=" ">
<polygon fill="white" stroke="black" points="739.5,-122.5 739.5,-152.5 918.5,-152.5 918.5,-122.5 739.5,-122.5"/>
<text text-anchor="start" x="747.5" y="-140.5" font-family="Helvetica,sans-Serif" font-size="10.00">DynExpInstr::QutoolsQuTAGTasks</text>
<text text-anchor="middle" x="829" y="-129.5" font-family="Helvetica,sans-Serif" font-size="10.00">::InitTask</text>
</a>
</g>
</g>
<!-- Node24&#45;&gt;Node25 -->
<g id="edge24" class="edge">
<title>Node24&#45;&gt;Node25</title>
<path fill="none" stroke="midnightblue" d="M709.16,-151.58C719.2,-150.39 729.41,-149.18 739.41,-148"/>
<polygon fill="midnightblue" stroke="midnightblue" points="708.7,-148.11 699.18,-152.76 709.52,-155.06 708.7,-148.11"/>
</g>
<!-- Node28 -->
<g id="node28" class="node">
<title>Node28</title>
<g id="a_node28"><a xlink:href="classDynExpInstr_1_1NenionLeakvalveF3Tasks_1_1InitTask.html" target="_top" xlink:title=" ">
<polygon fill="white" stroke="black" points="532.5,-98.5 532.5,-128.5 699.5,-128.5 699.5,-98.5 532.5,-98.5"/>
<text text-anchor="start" x="540.5" y="-116.5" font-family="Helvetica,sans-Serif" font-size="10.00">DynExpInstr::NenionLeakvalve</text>
<text text-anchor="middle" x="616" y="-105.5" font-family="Helvetica,sans-Serif" font-size="10.00">F3Tasks::InitTask</text>
</a>
</g>
</g>
<!-- Node27&#45;&gt;Node28 -->
<g id="edge27" class="edge">
<title>Node27&#45;&gt;Node28</title>
<path fill="none" stroke="midnightblue" d="M486.4,-113.5C501.53,-113.5 517.19,-113.5 532.16,-113.5"/>
<polygon fill="midnightblue" stroke="midnightblue" points="486.04,-110 476.04,-113.5 486.04,-117 486.04,-110"/>
</g>
<!-- Node29 -->
<g id="node29" class="node">
<title>Node29</title>
<g id="a_node29"><a xlink:href="classDynExpInstr_1_1PI__C__862__Tasks_1_1InitTask.html" target="_top" xlink:title=" ">
<polygon fill="white" stroke="black" points="553,-49.5 553,-79.5 679,-79.5 679,-49.5 553,-49.5"/>
<text text-anchor="start" x="561" y="-67.5" font-family="Helvetica,sans-Serif" font-size="10.00">DynExpInstr::PI_C_862</text>
<text text-anchor="middle" x="616" y="-56.5" font-family="Helvetica,sans-Serif" font-size="10.00">_Tasks::InitTask</text>
</a>
</g>
</g>
<!-- Node27&#45;&gt;Node29 -->
<g id="edge28" class="edge">
<title>Node27&#45;&gt;Node29</title>
<path fill="none" stroke="midnightblue" d="M474.65,-96.19C500.31,-90.4 528.58,-84.01 552.99,-78.5"/>
<polygon fill="midnightblue" stroke="midnightblue" points="473.57,-92.85 464.58,-98.47 475.11,-99.68 473.57,-92.85"/>
</g>
<!-- Node30 -->
<g id="node30" class="node">
<title>Node30</title>
<g id="a_node30"><a xlink:href="classDynExpInstr_1_1SmarActTasks_1_1InitTask.html" target="_top" xlink:title=" ">
<polygon fill="white" stroke="black" points="541,-0.5 541,-30.5 691,-30.5 691,-0.5 541,-0.5"/>
<text text-anchor="start" x="549" y="-18.5" font-family="Helvetica,sans-Serif" font-size="10.00">DynExpInstr::SmarActTasks</text>
<text text-anchor="middle" x="616" y="-7.5" font-family="Helvetica,sans-Serif" font-size="10.00">::InitTask</text>
</a>
</g>
</g>
<!-- Node27&#45;&gt;Node30 -->
<g id="edge29" class="edge">
<title>Node27&#45;&gt;Node30</title>
<path fill="none" stroke="midnightblue" d="M484.78,-94.02C487.97,-92.33 491.06,-90.49 494,-88.5 516.36,-73.33 507.79,-54.9 530,-39.5 534.91,-36.09 540.3,-33.17 545.91,-30.65"/>
<polygon fill="midnightblue" stroke="midnightblue" points="483.06,-90.96 475.52,-98.4 486.06,-97.28 483.06,-90.96"/>
</g>
</g>
</svg>
