<?xml version="1.0" encoding="UTF-8" standalone="no"?>
<!DOCTYPE svg PUBLIC "-//W3C//DTD SVG 1.1//EN"
 "http://www.w3.org/Graphics/SVG/1.1/DTD/svg11.dtd">
<!-- Generated by graphviz version 2.43.0 (0)
 -->
<!-- Title: DynExpInstr::NetworkTimeTaggerParams&lt; BaseInstr,, gRPCStubs &gt; Pages: 1 -->
<svg width="208pt" height="251pt"
 viewBox="0.00 0.00 208.00 251.00" xmlns="http://www.w3.org/2000/svg" xmlns:xlink="http://www.w3.org/1999/xlink">
<g id="graph0" class="graph" transform="scale(1 1) rotate(0) translate(4 247)">
<title>DynExpInstr::NetworkTimeTaggerParams&lt; BaseInstr,, gRPCStubs &gt;</title>
<polygon fill="white" stroke="transparent" points="-4,4 -4,-247 204,-247 204,4 -4,4"/>
<!-- Node1 -->
<g id="node1" class="node">
<title>Node1</title>
<g id="a_node1"><a xlink:title=" ">
<polygon fill="#bfbfbf" stroke="black" points="26,-0.5 26,-41.5 174,-41.5 174,-0.5 26,-0.5"/>
<text text-anchor="start" x="34" y="-29.5" font-family="Helvetica,sans-Serif" font-size="10.00">DynExpInstr::NetworkTime</text>
<text text-anchor="start" x="34" y="-18.5" font-family="Helvetica,sans-Serif" font-size="10.00">TaggerParams&lt; BaseInstr,</text>
<text text-anchor="middle" x="100" y="-7.5" font-family="Helvetica,sans-Serif" font-size="10.00">, gRPCStubs &gt;</text>
</a>
</g>
</g>
<!-- Node2 -->
<g id="node2" class="node">
<title>Node2</title>
<g id="a_node2"><a xlink:href="classDynExpInstr_1_1NetworkDataStreamInstrumentParams.html" target="_top" xlink:title=" ">
<polygon fill="white" stroke="black" points="18,-78.5 18,-119.5 182,-119.5 182,-78.5 18,-78.5"/>
<text text-anchor="start" x="26" y="-107.5" font-family="Helvetica,sans-Serif" font-size="10.00">DynExpInstr::NetworkData</text>
<text text-anchor="start" x="26" y="-96.5" font-family="Helvetica,sans-Serif" font-size="10.00">StreamInstrumentParams</text>
<text text-anchor="middle" x="100" y="-85.5" font-family="Helvetica,sans-Serif" font-size="10.00">&lt; BaseInstr, 0, gRPCStubs... &gt;</text>
</a>
</g>
</g>
<!-- Node2&#45;&gt;Node1 -->
<g id="edge1" class="edge">
<title>Node2&#45;&gt;Node1</title>
<path fill="none" stroke="midnightblue" d="M100,-68.3C100,-59.3 100,-49.65 100,-41.51"/>
<polygon fill="midnightblue" stroke="midnightblue" points="96.5,-68.43 100,-78.43 103.5,-68.43 96.5,-68.43"/>
</g>
<!-- Node3 -->
<g id="node3" class="node">
<title>Node3</title>
<g id="a_node3"><a xlink:href="classDynExpInstr_1_1gRPCInstrumentParams.html" target="_top" xlink:title=" ">
<polygon fill="white" stroke="black" points="0,-156.5 0,-186.5 200,-186.5 200,-156.5 0,-156.5"/>
<text text-anchor="start" x="8" y="-174.5" font-family="Helvetica,sans-Serif" font-size="10.00">DynExpInstr::gRPCInstrument</text>
<text text-anchor="middle" x="100" y="-163.5" font-family="Helvetica,sans-Serif" font-size="10.00">Params&lt; BaseInstr, 0, gRPCStubs... &gt;</text>
</a>
</g>
</g>
<!-- Node3&#45;&gt;Node2 -->
<g id="edge2" class="edge">
<title>Node3&#45;&gt;Node2</title>
<path fill="none" stroke="midnightblue" d="M100,-145.98C100,-137.35 100,-127.76 100,-119.59"/>
<polygon fill="midnightblue" stroke="midnightblue" points="96.5,-146.23 100,-156.23 103.5,-146.23 96.5,-146.23"/>
</g>
<!-- Node4 -->
<g id="node4" class="node">
<title>Node4</title>
<g id="a_node4"><a xlink:title=" ">
<polygon fill="white" stroke="#bfbfbf" points="36.5,-223.5 36.5,-242.5 163.5,-242.5 163.5,-223.5 36.5,-223.5"/>
<text text-anchor="middle" x="100" y="-230.5" font-family="Helvetica,sans-Serif" font-size="10.00">BaseInstr::ParamsType</text>
</a>
</g>
</g>
<!-- Node4&#45;&gt;Node3 -->
<g id="edge3" class="edge">
<title>Node4&#45;&gt;Node3</title>
<path fill="none" stroke="midnightblue" d="M100,-213.23C100,-204.59 100,-194.5 100,-186.52"/>
<polygon fill="midnightblue" stroke="midnightblue" points="96.5,-213.48 100,-223.48 103.5,-213.48 96.5,-213.48"/>
</g>
</g>
</svg>
