<?xml version="1.0" encoding="UTF-8" standalone="no"?>
<!DOCTYPE svg PUBLIC "-//W3C//DTD SVG 1.1//EN"
 "http://www.w3.org/Graphics/SVG/1.1/DTD/svg11.dtd">
<!-- Generated by graphviz version 2.43.0 (0)
 -->
<!-- Title: DynExpHardware::SmarActHardwareAdapterParams Pages: 1 -->
<svg width="214pt" height="269pt"
 viewBox="0.00 0.00 214.00 269.00" xmlns="http://www.w3.org/2000/svg" xmlns:xlink="http://www.w3.org/1999/xlink">
<g id="graph0" class="graph" transform="scale(1 1) rotate(0) translate(4 265)">
<title>DynExpHardware::SmarActHardwareAdapterParams</title>
<!-- Node1 -->
<g id="Node000001" class="node">
<title>Node1</title>
<g id="a_Node000001"><a xlink:title=" ">
<polygon fill="#999999" stroke="#666666" points="201,-30 5,-30 5,0 201,0 201,-30"/>
<text text-anchor="start" x="13" y="-18" font-family="Helvetica,sans-Serif" font-size="10.00">DynExpHardware::SmarActHardware</text>
<text text-anchor="middle" x="103" y="-7" font-family="Helvetica,sans-Serif" font-size="10.00">AdapterParams</text>
</a>
</g>
</g>
<!-- Node2 -->
<g id="Node000002" class="node">
<title>Node2</title>
<g id="a_Node000002"><a xlink:href="classDynExp_1_1HardwareAdapterParamsBase.html" target="_top" xlink:title="Parameter class for HardwareAdapterBase.">
<polygon fill="white" stroke="#666666" points="206,-85 0,-85 0,-66 206,-66 206,-85"/>
<text text-anchor="middle" x="103" y="-73" font-family="Helvetica,sans-Serif" font-size="10.00">DynExp::HardwareAdapterParamsBase</text>
</a>
</g>
</g>
<!-- Node2&#45;&gt;Node1 -->
<g id="edge1_Node000001_Node000002" class="edge">
<title>Node2&#45;&gt;Node1</title>
<g id="a_edge1_Node000001_Node000002"><a xlink:title=" ">
<path fill="none" stroke="#63b8ff" d="M103,-55.65C103,-47.36 103,-37.78 103,-30.11"/>
<polygon fill="#63b8ff" stroke="#63b8ff" points="99.5,-55.87 103,-65.87 106.5,-55.87 99.5,-55.87"/>
</a>
</g>
</g>
<!-- Node3 -->
<g id="Node000003" class="node">
<title>Node3</title>
<g id="a_Node000003"><a xlink:href="classDynExp_1_1ParamsBase.html" target="_top" xlink:title="Abstract base class for object parameter classes. Each class derived from class Object must be accomp...">
<polygon fill="white" stroke="#666666" points="163,-140 43,-140 43,-121 163,-121 163,-140"/>
<text text-anchor="middle" x="103" y="-128" font-family="Helvetica,sans-Serif" font-size="10.00">DynExp::ParamsBase</text>
</a>
</g>
</g>
<!-- Node3&#45;&gt;Node2 -->
<g id="edge2_Node000002_Node000003" class="edge">
<title>Node3&#45;&gt;Node2</title>
<g id="a_edge2_Node000002_Node000003"><a xlink:title=" ">
<path fill="none" stroke="#63b8ff" d="M103,-110.66C103,-101.93 103,-91.99 103,-85.09"/>
<polygon fill="#63b8ff" stroke="#63b8ff" points="99.5,-110.75 103,-120.75 106.5,-110.75 99.5,-110.75"/>
</a>
</g>
</g>
<!-- Node4 -->
<g id="Node000004" class="node">
<title>Node4</title>
<g id="a_Node000004"><a xlink:href="classUtil_1_1ISynchronizedPointerLockable.html" target="_top" xlink:title="Interface to allow synchronizing the access to derived classes between different threads by making th...">
<polygon fill="white" stroke="#666666" points="174.5,-206 31.5,-206 31.5,-176 174.5,-176 174.5,-206"/>
<text text-anchor="start" x="39.5" y="-194" font-family="Helvetica,sans-Serif" font-size="10.00">Util::ISynchronizedPointer</text>
<text text-anchor="middle" x="103" y="-183" font-family="Helvetica,sans-Serif" font-size="10.00">Lockable</text>
</a>
</g>
</g>
<!-- Node4&#45;&gt;Node3 -->
<g id="edge3_Node000003_Node000004" class="edge">
<title>Node4&#45;&gt;Node3</title>
<g id="a_edge3_Node000003_Node000004"><a xlink:title=" ">
<path fill="none" stroke="#63b8ff" d="M103,-165.75C103,-156.72 103,-147.03 103,-140.27"/>
<polygon fill="#63b8ff" stroke="#63b8ff" points="99.5,-165.84 103,-175.84 106.5,-165.84 99.5,-165.84"/>
</a>
</g>
</g>
<!-- Node5 -->
<g id="Node000005" class="node">
<title>Node5</title>
<g id="a_Node000005"><a xlink:href="classUtil_1_1INonCopyable.html" target="_top" xlink:title="Interface to delete copy constructor and copy assignment operator and thus make derived classes non&#45;c...">
<polygon fill="white" stroke="#666666" points="157,-261 49,-261 49,-242 157,-242 157,-261"/>
<text text-anchor="middle" x="103" y="-249" font-family="Helvetica,sans-Serif" font-size="10.00">Util::INonCopyable</text>
</a>
</g>
</g>
<!-- Node5&#45;&gt;Node4 -->
<g id="edge4_Node000004_Node000005" class="edge">
<title>Node5&#45;&gt;Node4</title>
<g id="a_edge4_Node000004_Node000005"><a xlink:title=" ">
<path fill="none" stroke="#63b8ff" d="M103,-231.65C103,-223.36 103,-213.78 103,-206.11"/>
<polygon fill="#63b8ff" stroke="#63b8ff" points="99.5,-231.87 103,-241.87 106.5,-231.87 99.5,-231.87"/>
</a>
</g>
</g>
</g>
</svg>
