<?xml version="1.0" encoding="UTF-8" standalone="no"?>
<!DOCTYPE svg PUBLIC "-//W3C//DTD SVG 1.1//EN"
 "http://www.w3.org/Graphics/SVG/1.1/DTD/svg11.dtd">
<!-- Generated by graphviz version 2.43.0 (0)
 -->
<!-- Title: DynExp::QSerialCommunicationHardwareAdapterConfigurator Pages: 1 -->
<svg width="1037pt" height="88pt"
 viewBox="0.00 0.00 1037.00 88.00" xmlns="http://www.w3.org/2000/svg" xmlns:xlink="http://www.w3.org/1999/xlink">
<g id="graph0" class="graph" transform="scale(1 1) rotate(0) translate(4 84)">
<title>DynExp::QSerialCommunicationHardwareAdapterConfigurator</title>
<polygon fill="white" stroke="transparent" points="-4,4 -4,-84 1033,-84 1033,4 -4,4"/>
<!-- Node1 -->
<g id="node1" class="node">
<title>Node1</title>
<g id="a_node1"><a xlink:title="Configurator class for QSerialCommunicationHardwareAdapter.">
<polygon fill="#bfbfbf" stroke="black" points="647,-24.5 647,-54.5 820,-54.5 820,-24.5 647,-24.5"/>
<text text-anchor="start" x="655" y="-42.5" font-family="Helvetica,sans-Serif" font-size="10.00">DynExp::QSerialCommunication</text>
<text text-anchor="middle" x="733.5" y="-31.5" font-family="Helvetica,sans-Serif" font-size="10.00">HardwareAdapterConfigurator</text>
</a>
</g>
</g>
<!-- Node5 -->
<g id="node5" class="node">
<title>Node5</title>
<g id="a_node5"><a xlink:href="classDynExp_1_1HardwareAdapterSerialPortConfigurator.html" target="_top" xlink:title="Configurator class for HardwareAdapterSerialPort.">
<polygon fill="white" stroke="black" points="856,-49.5 856,-79.5 1029,-79.5 1029,-49.5 856,-49.5"/>
<text text-anchor="start" x="864" y="-67.5" font-family="Helvetica,sans-Serif" font-size="10.00">DynExp::HardwareAdapterSerial</text>
<text text-anchor="middle" x="942.5" y="-56.5" font-family="Helvetica,sans-Serif" font-size="10.00">PortConfigurator</text>
</a>
</g>
</g>
<!-- Node1&#45;&gt;Node5 -->
<g id="edge4" class="edge">
<title>Node1&#45;&gt;Node5</title>
<path fill="none" stroke="midnightblue" d="M830.2,-51.06C838.76,-52.09 847.4,-53.14 855.88,-54.16"/>
<polygon fill="midnightblue" stroke="midnightblue" points="830.54,-47.57 820.19,-49.85 829.7,-54.52 830.54,-47.57"/>
</g>
<!-- Node6 -->
<g id="node6" class="node">
<title>Node6</title>
<g id="a_node6"><a xlink:href="classDynExp_1_1HardwareAdapterTcpSocketConfigurator.html" target="_top" xlink:title="Configurator class for HardwareAdapterTcpSocket.">
<polygon fill="white" stroke="black" points="862,-0.5 862,-30.5 1023,-30.5 1023,-0.5 862,-0.5"/>
<text text-anchor="start" x="870" y="-18.5" font-family="Helvetica,sans-Serif" font-size="10.00">DynExp::HardwareAdapterTcp</text>
<text text-anchor="middle" x="942.5" y="-7.5" font-family="Helvetica,sans-Serif" font-size="10.00">SocketConfigurator</text>
</a>
</g>
</g>
<!-- Node1&#45;&gt;Node6 -->
<g id="edge5" class="edge">
<title>Node1&#45;&gt;Node6</title>
<path fill="none" stroke="midnightblue" d="M830.27,-28.4C840.84,-27.17 851.51,-25.93 861.85,-24.73"/>
<polygon fill="midnightblue" stroke="midnightblue" points="829.72,-24.94 820.19,-29.57 830.53,-31.89 829.72,-24.94"/>
</g>
<!-- Node2 -->
<g id="node2" class="node">
<title>Node2</title>
<g id="a_node2"><a xlink:href="classDynExp_1_1SerialCommunicationHardwareAdapterConfigurator.html" target="_top" xlink:title="Configurator class for SerialCommunicationHardwareAdapter.">
<polygon fill="white" stroke="black" points="446,-24.5 446,-54.5 611,-54.5 611,-24.5 446,-24.5"/>
<text text-anchor="start" x="454" y="-42.5" font-family="Helvetica,sans-Serif" font-size="10.00">DynExp::SerialCommunication</text>
<text text-anchor="middle" x="528.5" y="-31.5" font-family="Helvetica,sans-Serif" font-size="10.00">HardwareAdapterConfigurator</text>
</a>
</g>
</g>
<!-- Node2&#45;&gt;Node1 -->
<g id="edge1" class="edge">
<title>Node2&#45;&gt;Node1</title>
<path fill="none" stroke="midnightblue" d="M621.21,-39.5C629.79,-39.5 638.47,-39.5 647,-39.5"/>
<polygon fill="midnightblue" stroke="midnightblue" points="621.19,-36 611.19,-39.5 621.19,-43 621.19,-36"/>
</g>
<!-- Node3 -->
<g id="node3" class="node">
<title>Node3</title>
<g id="a_node3"><a xlink:href="classDynExp_1_1HardwareAdapterConfiguratorBase.html" target="_top" xlink:title="Configurator class for HardwareAdapterBase.">
<polygon fill="white" stroke="black" points="180,-30 180,-49 410,-49 410,-30 180,-30"/>
<text text-anchor="middle" x="295" y="-37" font-family="Helvetica,sans-Serif" font-size="10.00">DynExp::HardwareAdapterConfiguratorBase</text>
</a>
</g>
</g>
<!-- Node3&#45;&gt;Node2 -->
<g id="edge2" class="edge">
<title>Node3&#45;&gt;Node2</title>
<path fill="none" stroke="midnightblue" d="M420.26,-39.5C428.93,-39.5 437.54,-39.5 445.89,-39.5"/>
<polygon fill="midnightblue" stroke="midnightblue" points="420.05,-36 410.05,-39.5 420.05,-43 420.05,-36"/>
</g>
<!-- Node4 -->
<g id="node4" class="node">
<title>Node4</title>
<g id="a_node4"><a xlink:href="classDynExp_1_1ConfiguratorBase.html" target="_top" xlink:title="The configurator classes have the task to generate parameter objects (refer to DynExp::ParamsBase) of...">
<polygon fill="white" stroke="black" points="0,-30 0,-49 144,-49 144,-30 0,-30"/>
<text text-anchor="middle" x="72" y="-37" font-family="Helvetica,sans-Serif" font-size="10.00">DynExp::ConfiguratorBase</text>
</a>
</g>
</g>
<!-- Node4&#45;&gt;Node3 -->
<g id="edge3" class="edge">
<title>Node4&#45;&gt;Node3</title>
<path fill="none" stroke="midnightblue" d="M154.25,-39.5C162.65,-39.5 171.28,-39.5 179.95,-39.5"/>
<polygon fill="midnightblue" stroke="midnightblue" points="154.14,-36 144.14,-39.5 154.14,-43 154.14,-36"/>
</g>
</g>
</svg>
