<?xml version="1.0" encoding="UTF-8" standalone="no"?>
<!DOCTYPE svg PUBLIC "-//W3C//DTD SVG 1.1//EN"
 "http://www.w3.org/Graphics/SVG/1.1/DTD/svg11.dtd">
<!-- Generated by graphviz version 2.43.0 (0)
 -->
<!-- Title: DynExpInstr::FunctionGenerator Pages: 1 -->
<svg width="1488pt" height="203pt"
 viewBox="0.00 0.00 1488.00 203.00" xmlns="http://www.w3.org/2000/svg" xmlns:xlink="http://www.w3.org/1999/xlink">
<g id="graph0" class="graph" transform="scale(1 1) rotate(0) translate(4 199)">
<title>DynExpInstr::FunctionGenerator</title>
<polygon fill="white" stroke="transparent" points="-4,4 -4,-199 1484,-199 1484,4 -4,4"/>
<!-- Node1 -->
<g id="node1" class="node">
<title>Node1</title>
<g id="a_node1"><a xlink:title="Function generator meta instrument based on the data stream meta instrument to generate waveforms by ...">
<polygon fill="#bfbfbf" stroke="black" points="720,-88 720,-107 892,-107 892,-88 720,-88"/>
<text text-anchor="middle" x="806" y="-95" font-family="Helvetica,sans-Serif" font-size="10.00">DynExpInstr::FunctionGenerator</text>
</a>
</g>
</g>
<!-- Node7 -->
<g id="node7" class="node">
<title>Node7</title>
<g id="a_node7"><a xlink:href="classDynExpInstr_1_1DummyDataStreamInstrument.html" target="_top" xlink:title=" ">
<polygon fill="white" stroke="black" points="929.5,-164.5 929.5,-194.5 1108.5,-194.5 1108.5,-164.5 929.5,-164.5"/>
<text text-anchor="start" x="937.5" y="-182.5" font-family="Helvetica,sans-Serif" font-size="10.00">DynExpInstr::DummyDataStream</text>
<text text-anchor="middle" x="1019" y="-171.5" font-family="Helvetica,sans-Serif" font-size="10.00">Instrument</text>
</a>
</g>
</g>
<!-- Node1&#45;&gt;Node7 -->
<g id="edge6" class="edge">
<title>Node1&#45;&gt;Node7</title>
<path fill="none" stroke="midnightblue" d="M833.96,-111.82C858.11,-124.25 894.75,-142.15 928,-154.5 937.58,-158.06 947.89,-161.38 958,-164.36"/>
<polygon fill="midnightblue" stroke="midnightblue" points="835.52,-108.69 825.03,-107.18 832.29,-114.9 835.52,-108.69"/>
</g>
<!-- Node8 -->
<g id="node8" class="node">
<title>Node8</title>
<g id="a_node8"><a xlink:href="classDynExpInstr_1_1OutputPort.html" target="_top" xlink:title="Generic output port meta instrument based on the data stream and function generator meta instruments ...">
<polygon fill="white" stroke="black" points="952,-126 952,-145 1086,-145 1086,-126 952,-126"/>
<text text-anchor="middle" x="1019" y="-133" font-family="Helvetica,sans-Serif" font-size="10.00">DynExpInstr::OutputPort</text>
</a>
</g>
</g>
<!-- Node1&#45;&gt;Node8 -->
<g id="edge7" class="edge">
<title>Node1&#45;&gt;Node8</title>
<path fill="none" stroke="midnightblue" d="M870.01,-108.85C900.28,-114.3 936.16,-120.76 965.01,-125.96"/>
<polygon fill="midnightblue" stroke="midnightblue" points="870.43,-105.37 859.97,-107.04 869.19,-112.26 870.43,-105.37"/>
</g>
<!-- Node13 -->
<g id="node13" class="node">
<title>Node13</title>
<g id="a_node13"><a xlink:href="classDynExpInstr_1_1RS__SMB100B.html" target="_top" xlink:title=" ">
<polygon fill="white" stroke="black" points="946,-88 946,-107 1092,-107 1092,-88 946,-88"/>
<text text-anchor="middle" x="1019" y="-95" font-family="Helvetica,sans-Serif" font-size="10.00">DynExpInstr::RS_SMB100B</text>
</a>
</g>
</g>
<!-- Node1&#45;&gt;Node13 -->
<g id="edge12" class="edge">
<title>Node1&#45;&gt;Node13</title>
<path fill="none" stroke="midnightblue" d="M902.26,-97.5C916.84,-97.5 931.69,-97.5 945.68,-97.5"/>
<polygon fill="midnightblue" stroke="midnightblue" points="902.21,-94 892.21,-97.5 902.21,-101 902.21,-94"/>
</g>
<!-- Node14 -->
<g id="node14" class="node">
<title>Node14</title>
<g id="a_node14"><a xlink:href="classDynExpInstr_1_1RS__SMC100A.html" target="_top" xlink:title=" ">
<polygon fill="white" stroke="black" points="946,-50 946,-69 1092,-69 1092,-50 946,-50"/>
<text text-anchor="middle" x="1019" y="-57" font-family="Helvetica,sans-Serif" font-size="10.00">DynExpInstr::RS_SMC100A</text>
</a>
</g>
</g>
<!-- Node1&#45;&gt;Node14 -->
<g id="edge13" class="edge">
<title>Node1&#45;&gt;Node14</title>
<path fill="none" stroke="midnightblue" d="M870.01,-86.15C900.28,-80.7 936.16,-74.24 965.01,-69.04"/>
<polygon fill="midnightblue" stroke="midnightblue" points="869.19,-82.74 859.97,-87.96 870.43,-89.63 869.19,-82.74"/>
</g>
<!-- Node15 -->
<g id="node15" class="node">
<title>Node15</title>
<g id="a_node15"><a xlink:href="classDynExpInstr_1_1SwabianInstrumentsPulseStreamer.html" target="_top" xlink:title=" ">
<polygon fill="white" stroke="black" points="928,-0.5 928,-30.5 1110,-30.5 1110,-0.5 928,-0.5"/>
<text text-anchor="start" x="936" y="-18.5" font-family="Helvetica,sans-Serif" font-size="10.00">DynExpInstr::SwabianInstruments</text>
<text text-anchor="middle" x="1019" y="-7.5" font-family="Helvetica,sans-Serif" font-size="10.00">PulseStreamer</text>
</a>
</g>
</g>
<!-- Node1&#45;&gt;Node15 -->
<g id="edge14" class="edge">
<title>Node1&#45;&gt;Node15</title>
<path fill="none" stroke="midnightblue" d="M833.96,-83.18C858.11,-70.75 894.75,-52.85 928,-40.5 937.58,-36.94 947.89,-33.62 958,-30.64"/>
<polygon fill="midnightblue" stroke="midnightblue" points="832.29,-80.1 825.03,-87.82 835.52,-86.31 832.29,-80.1"/>
</g>
<!-- Node2 -->
<g id="node2" class="node">
<title>Node2</title>
<g id="a_node2"><a xlink:href="classDynExpInstr_1_1DataStreamInstrument.html" target="_top" xlink:title="Implementation of the data stream meta instrument, which is a base class for all instruments reading/...">
<polygon fill="white" stroke="black" points="490,-88 490,-107 684,-107 684,-88 490,-88"/>
<text text-anchor="middle" x="587" y="-95" font-family="Helvetica,sans-Serif" font-size="10.00">DynExpInstr::DataStreamInstrument</text>
</a>
</g>
</g>
<!-- Node2&#45;&gt;Node1 -->
<g id="edge1" class="edge">
<title>Node2&#45;&gt;Node1</title>
<path fill="none" stroke="midnightblue" d="M694.21,-97.5C702.81,-97.5 711.43,-97.5 719.86,-97.5"/>
<polygon fill="midnightblue" stroke="midnightblue" points="694.13,-94 684.13,-97.5 694.13,-101 694.13,-94"/>
</g>
<!-- Node3 -->
<g id="node3" class="node">
<title>Node3</title>
<g id="a_node3"><a xlink:href="classDynExp_1_1InstrumentBase.html" target="_top" xlink:title="Base class for instruments. Instruments comprise virtual devices (meta instruments) and physial devic...">
<polygon fill="white" stroke="black" points="317,-88 317,-107 454,-107 454,-88 317,-88"/>
<text text-anchor="middle" x="385.5" y="-95" font-family="Helvetica,sans-Serif" font-size="10.00">DynExp::InstrumentBase</text>
</a>
</g>
</g>
<!-- Node3&#45;&gt;Node2 -->
<g id="edge2" class="edge">
<title>Node3&#45;&gt;Node2</title>
<path fill="none" stroke="midnightblue" d="M464.18,-97.5C472.6,-97.5 481.24,-97.5 489.85,-97.5"/>
<polygon fill="midnightblue" stroke="midnightblue" points="464.04,-94 454.04,-97.5 464.04,-101 464.04,-94"/>
</g>
<!-- Node4 -->
<g id="node4" class="node">
<title>Node4</title>
<g id="a_node4"><a xlink:href="classDynExp_1_1RunnableObject.html" target="_top" xlink:title="Defines an Object which possesses a thread it runs in. The RunnableObject can be started and stopped ...">
<polygon fill="white" stroke="black" points="144,-88 144,-107 281,-107 281,-88 144,-88"/>
<text text-anchor="middle" x="212.5" y="-95" font-family="Helvetica,sans-Serif" font-size="10.00">DynExp::RunnableObject</text>
</a>
</g>
</g>
<!-- Node4&#45;&gt;Node3 -->
<g id="edge3" class="edge">
<title>Node4&#45;&gt;Node3</title>
<path fill="none" stroke="midnightblue" d="M291.1,-97.5C299.69,-97.5 308.39,-97.5 316.85,-97.5"/>
<polygon fill="midnightblue" stroke="midnightblue" points="291.08,-94 281.08,-97.5 291.08,-101 291.08,-94"/>
</g>
<!-- Node5 -->
<g id="node5" class="node">
<title>Node5</title>
<g id="a_node5"><a xlink:href="classUtil_1_1INonCopyable.html" target="_top" xlink:title="Interface to delete copy constructor and copy assignment operator and thus make derived classes non&#45;c...">
<polygon fill="white" stroke="black" points="0,-107 0,-126 108,-126 108,-107 0,-107"/>
<text text-anchor="middle" x="54" y="-114" font-family="Helvetica,sans-Serif" font-size="10.00">Util::INonCopyable</text>
</a>
</g>
</g>
<!-- Node5&#45;&gt;Node4 -->
<g id="edge4" class="edge">
<title>Node5&#45;&gt;Node4</title>
<path fill="none" stroke="midnightblue" d="M118.5,-108.79C126.87,-107.77 135.49,-106.73 143.93,-105.7"/>
<polygon fill="midnightblue" stroke="midnightblue" points="117.93,-105.33 108.42,-110.01 118.77,-112.28 117.93,-105.33"/>
</g>
<!-- Node6 -->
<g id="node6" class="node">
<title>Node6</title>
<g id="a_node6"><a xlink:href="classDynExp_1_1Object.html" target="_top" xlink:title="Base class for all DynExp Objects like hardware adapters (DynExp::HardwareAdapterBase),...">
<polygon fill="white" stroke="black" points="8,-69 8,-88 100,-88 100,-69 8,-69"/>
<text text-anchor="middle" x="54" y="-76" font-family="Helvetica,sans-Serif" font-size="10.00">DynExp::Object</text>
</a>
</g>
</g>
<!-- Node6&#45;&gt;Node4 -->
<g id="edge5" class="edge">
<title>Node6&#45;&gt;Node4</title>
<path fill="none" stroke="midnightblue" d="M110.43,-85.23C121.26,-86.54 132.74,-87.94 143.91,-89.29"/>
<polygon fill="midnightblue" stroke="midnightblue" points="110.62,-81.73 100.27,-84 109.77,-88.68 110.62,-81.73"/>
</g>
<!-- Node9 -->
<g id="node9" class="node">
<title>Node9</title>
<g id="a_node9"><a xlink:href="classDynExpInstr_1_1AnalogOut.html" target="_top" xlink:title="Meta instrument for a single analog output port based on the data stream, function generator,...">
<polygon fill="white" stroke="black" points="1146,-145 1146,-164 1279,-164 1279,-145 1146,-145"/>
<text text-anchor="middle" x="1212.5" y="-152" font-family="Helvetica,sans-Serif" font-size="10.00">DynExpInstr::AnalogOut</text>
</a>
</g>
</g>
<!-- Node8&#45;&gt;Node9 -->
<g id="edge8" class="edge">
<title>Node8&#45;&gt;Node9</title>
<path fill="none" stroke="midnightblue" d="M1096.29,-143.07C1112.74,-144.7 1129.98,-146.41 1145.97,-148"/>
<polygon fill="midnightblue" stroke="midnightblue" points="1096.47,-139.57 1086.17,-142.07 1095.78,-146.54 1096.47,-139.57"/>
</g>
<!-- Node11 -->
<g id="node11" class="node">
<title>Node11</title>
<g id="a_node11"><a xlink:href="classDynExpInstr_1_1DigitalOut.html" target="_top" xlink:title="Meta instrument for a single digital output port based on the data stream, function generator,...">
<polygon fill="white" stroke="black" points="1147,-107 1147,-126 1278,-126 1278,-107 1147,-107"/>
<text text-anchor="middle" x="1212.5" y="-114" font-family="Helvetica,sans-Serif" font-size="10.00">DynExpInstr::DigitalOut</text>
</a>
</g>
</g>
<!-- Node8&#45;&gt;Node11 -->
<g id="edge10" class="edge">
<title>Node8&#45;&gt;Node11</title>
<path fill="none" stroke="midnightblue" d="M1096.46,-127.91C1113.19,-126.25 1130.74,-124.51 1146.94,-122.91"/>
<polygon fill="midnightblue" stroke="midnightblue" points="1095.78,-124.46 1086.17,-128.93 1096.47,-131.43 1095.78,-124.46"/>
</g>
<!-- Node10 -->
<g id="node10" class="node">
<title>Node10</title>
<g id="a_node10"><a xlink:href="classDynExpInstr_1_1NIDAQAnalogOut.html" target="_top" xlink:title=" ">
<polygon fill="white" stroke="black" points="1315,-145 1315,-164 1480,-164 1480,-145 1315,-145"/>
<text text-anchor="middle" x="1397.5" y="-152" font-family="Helvetica,sans-Serif" font-size="10.00">DynExpInstr::NIDAQAnalogOut</text>
</a>
</g>
</g>
<!-- Node9&#45;&gt;Node10 -->
<g id="edge9" class="edge">
<title>Node9&#45;&gt;Node10</title>
<path fill="none" stroke="midnightblue" d="M1289.23,-154.5C1297.67,-154.5 1306.29,-154.5 1314.8,-154.5"/>
<polygon fill="midnightblue" stroke="midnightblue" points="1289.05,-151 1279.05,-154.5 1289.05,-158 1289.05,-151"/>
</g>
<!-- Node12 -->
<g id="node12" class="node">
<title>Node12</title>
<g id="a_node12"><a xlink:href="classDynExpInstr_1_1NIDAQDigitalOut.html" target="_top" xlink:title=" ">
<polygon fill="white" stroke="black" points="1315.5,-107 1315.5,-126 1479.5,-126 1479.5,-107 1315.5,-107"/>
<text text-anchor="middle" x="1397.5" y="-114" font-family="Helvetica,sans-Serif" font-size="10.00">DynExpInstr::NIDAQDigitalOut</text>
</a>
</g>
</g>
<!-- Node11&#45;&gt;Node12 -->
<g id="edge11" class="edge">
<title>Node11&#45;&gt;Node12</title>
<path fill="none" stroke="midnightblue" d="M1288.03,-116.5C1297,-116.5 1306.19,-116.5 1315.25,-116.5"/>
<polygon fill="midnightblue" stroke="midnightblue" points="1288.02,-113 1278.02,-116.5 1288.02,-120 1288.02,-113"/>
</g>
</g>
</svg>
