<?xml version="1.0" encoding="UTF-8" standalone="no"?>
<!DOCTYPE svg PUBLIC "-//W3C//DTD SVG 1.1//EN"
 "http://www.w3.org/Graphics/SVG/1.1/DTD/svg11.dtd">
<!-- Generated by graphviz version 2.43.0 (0)
 -->
<!-- Title: DynExpInstr::NIDAQAnalogOutData Pages: 1 -->
<svg width="225pt" height="442pt"
 viewBox="0.00 0.00 225.00 442.00" xmlns="http://www.w3.org/2000/svg" xmlns:xlink="http://www.w3.org/1999/xlink">
<g id="graph0" class="graph" transform="scale(1 1) rotate(0) translate(4 438)">
<title>DynExpInstr::NIDAQAnalogOutData</title>
<polygon fill="white" stroke="transparent" points="-4,4 -4,-438 221,-438 221,4 -4,4"/>
<!-- Node1 -->
<g id="node1" class="node">
<title>Node1</title>
<g id="a_node1"><a xlink:title=" ">
<polygon fill="#bfbfbf" stroke="black" points="34.5,-0.5 34.5,-30.5 182.5,-30.5 182.5,-0.5 34.5,-0.5"/>
<text text-anchor="start" x="42.5" y="-18.5" font-family="Helvetica,sans-Serif" font-size="10.00">DynExpInstr::NIDAQAnalog</text>
<text text-anchor="middle" x="108.5" y="-7.5" font-family="Helvetica,sans-Serif" font-size="10.00">OutData</text>
</a>
</g>
</g>
<!-- Node2 -->
<g id="node2" class="node">
<title>Node2</title>
<g id="a_node2"><a xlink:href="classDynExpInstr_1_1AnalogOutData.html" target="_top" xlink:title="Data class for AnalogOut.">
<polygon fill="white" stroke="black" points="30.5,-67.5 30.5,-86.5 186.5,-86.5 186.5,-67.5 30.5,-67.5"/>
<text text-anchor="middle" x="108.5" y="-74.5" font-family="Helvetica,sans-Serif" font-size="10.00">DynExpInstr::AnalogOutData</text>
</a>
</g>
</g>
<!-- Node2&#45;&gt;Node1 -->
<g id="edge1" class="edge">
<title>Node2&#45;&gt;Node1</title>
<path fill="none" stroke="midnightblue" d="M108.5,-57.23C108.5,-48.59 108.5,-38.5 108.5,-30.52"/>
<polygon fill="midnightblue" stroke="midnightblue" points="105,-57.48 108.5,-67.48 112,-57.48 105,-57.48"/>
</g>
<!-- Node3 -->
<g id="node3" class="node">
<title>Node3</title>
<g id="a_node3"><a xlink:href="classDynExpInstr_1_1OutputPortData.html" target="_top" xlink:title="Data class for OutputPort.">
<polygon fill="white" stroke="black" points="29.5,-123.5 29.5,-142.5 187.5,-142.5 187.5,-123.5 29.5,-123.5"/>
<text text-anchor="middle" x="108.5" y="-130.5" font-family="Helvetica,sans-Serif" font-size="10.00">DynExpInstr::OutputPortData</text>
</a>
</g>
</g>
<!-- Node3&#45;&gt;Node2 -->
<g id="edge2" class="edge">
<title>Node3&#45;&gt;Node2</title>
<path fill="none" stroke="midnightblue" d="M108.5,-112.8C108.5,-103.91 108.5,-93.78 108.5,-86.75"/>
<polygon fill="midnightblue" stroke="midnightblue" points="105,-113.08 108.5,-123.08 112,-113.08 105,-113.08"/>
</g>
<!-- Node4 -->
<g id="node4" class="node">
<title>Node4</title>
<g id="a_node4"><a xlink:href="classDynExpInstr_1_1FunctionGeneratorData.html" target="_top" xlink:title="Data class for FunctionGenerator.">
<polygon fill="white" stroke="black" points="11,-179.5 11,-198.5 206,-198.5 206,-179.5 11,-179.5"/>
<text text-anchor="middle" x="108.5" y="-186.5" font-family="Helvetica,sans-Serif" font-size="10.00">DynExpInstr::FunctionGeneratorData</text>
</a>
</g>
</g>
<!-- Node4&#45;&gt;Node3 -->
<g id="edge3" class="edge">
<title>Node4&#45;&gt;Node3</title>
<path fill="none" stroke="midnightblue" d="M108.5,-168.8C108.5,-159.91 108.5,-149.78 108.5,-142.75"/>
<polygon fill="midnightblue" stroke="midnightblue" points="105,-169.08 108.5,-179.08 112,-169.08 105,-169.08"/>
</g>
<!-- Node5 -->
<g id="node5" class="node">
<title>Node5</title>
<g id="a_node5"><a xlink:href="classDynExpInstr_1_1DataStreamInstrumentData.html" target="_top" xlink:title="Data class for DataStreamInstrument.">
<polygon fill="white" stroke="black" points="0,-235.5 0,-254.5 217,-254.5 217,-235.5 0,-235.5"/>
<text text-anchor="middle" x="108.5" y="-242.5" font-family="Helvetica,sans-Serif" font-size="10.00">DynExpInstr::DataStreamInstrumentData</text>
</a>
</g>
</g>
<!-- Node5&#45;&gt;Node4 -->
<g id="edge4" class="edge">
<title>Node5&#45;&gt;Node4</title>
<path fill="none" stroke="midnightblue" d="M108.5,-224.8C108.5,-215.91 108.5,-205.78 108.5,-198.75"/>
<polygon fill="midnightblue" stroke="midnightblue" points="105,-225.08 108.5,-235.08 112,-225.08 105,-225.08"/>
</g>
<!-- Node6 -->
<g id="node6" class="node">
<title>Node6</title>
<g id="a_node6"><a xlink:href="classDynExp_1_1InstrumentDataBase.html" target="_top" xlink:title="Data structure to contain data which is synchronized in between different threads....">
<polygon fill="white" stroke="black" points="28,-291.5 28,-310.5 189,-310.5 189,-291.5 28,-291.5"/>
<text text-anchor="middle" x="108.5" y="-298.5" font-family="Helvetica,sans-Serif" font-size="10.00">DynExp::InstrumentDataBase</text>
</a>
</g>
</g>
<!-- Node6&#45;&gt;Node5 -->
<g id="edge5" class="edge">
<title>Node6&#45;&gt;Node5</title>
<path fill="none" stroke="midnightblue" d="M108.5,-280.8C108.5,-271.91 108.5,-261.78 108.5,-254.75"/>
<polygon fill="midnightblue" stroke="midnightblue" points="105,-281.08 108.5,-291.08 112,-281.08 105,-281.08"/>
</g>
<!-- Node7 -->
<g id="node7" class="node">
<title>Node7</title>
<g id="a_node7"><a xlink:href="classUtil_1_1ISynchronizedPointerLockable.html" target="_top" xlink:title="Interface to allow synchronizing the access to derived classes between different threads by making th...">
<polygon fill="white" stroke="black" points="37,-347.5 37,-377.5 180,-377.5 180,-347.5 37,-347.5"/>
<text text-anchor="start" x="45" y="-365.5" font-family="Helvetica,sans-Serif" font-size="10.00">Util::ISynchronizedPointer</text>
<text text-anchor="middle" x="108.5" y="-354.5" font-family="Helvetica,sans-Serif" font-size="10.00">Lockable</text>
</a>
</g>
</g>
<!-- Node7&#45;&gt;Node6 -->
<g id="edge6" class="edge">
<title>Node7&#45;&gt;Node6</title>
<path fill="none" stroke="midnightblue" d="M108.5,-337.29C108.5,-327.86 108.5,-317.65 108.5,-310.66"/>
<polygon fill="midnightblue" stroke="midnightblue" points="105,-337.4 108.5,-347.4 112,-337.4 105,-337.4"/>
</g>
<!-- Node8 -->
<g id="node8" class="node">
<title>Node8</title>
<g id="a_node8"><a xlink:href="classUtil_1_1INonCopyable.html" target="_top" xlink:title="Interface to delete copy constructor and copy assignment operator and thus make derived classes non&#45;c...">
<polygon fill="white" stroke="black" points="54.5,-414.5 54.5,-433.5 162.5,-433.5 162.5,-414.5 54.5,-414.5"/>
<text text-anchor="middle" x="108.5" y="-421.5" font-family="Helvetica,sans-Serif" font-size="10.00">Util::INonCopyable</text>
</a>
</g>
</g>
<!-- Node8&#45;&gt;Node7 -->
<g id="edge7" class="edge">
<title>Node8&#45;&gt;Node7</title>
<path fill="none" stroke="midnightblue" d="M108.5,-404.23C108.5,-395.59 108.5,-385.5 108.5,-377.52"/>
<polygon fill="midnightblue" stroke="midnightblue" points="105,-404.48 108.5,-414.48 112,-404.48 105,-404.48"/>
</g>
</g>
</svg>
