<?xml version="1.0" encoding="UTF-8" standalone="no"?>
<!DOCTYPE svg PUBLIC "-//W3C//DTD SVG 1.1//EN"
 "http://www.w3.org/Graphics/SVG/1.1/DTD/svg11.dtd">
<!-- Generated by graphviz version 2.43.0 (0)
 -->
<!-- Title: DynExpInstr::DigitalInData Pages: 1 -->
<svg width="225pt" height="379pt"
 viewBox="0.00 0.00 225.00 379.00" xmlns="http://www.w3.org/2000/svg" xmlns:xlink="http://www.w3.org/1999/xlink">
<g id="graph0" class="graph" transform="scale(1 1) rotate(0) translate(4 375)">
<title>DynExpInstr::DigitalInData</title>
<!-- Node1 -->
<g id="Node000001" class="node">
<title>Node1</title>
<g id="a_Node000001"><a xlink:title="Data class for DigitalIn.">
<polygon fill="#999999" stroke="#666666" points="181.5,-85 35.5,-85 35.5,-66 181.5,-66 181.5,-85"/>
<text text-anchor="middle" x="108.5" y="-73" font-family="Helvetica,sans-Serif" font-size="10.00">DynExpInstr::DigitalInData</text>
</a>
</g>
</g>
<!-- Node7 -->
<g id="Node000007" class="node">
<title>Node7</title>
<g id="a_Node000007"><a xlink:href="classDynExpInstr_1_1NIDAQDigitalInData.html" target="_top" xlink:title=" ">
<polygon fill="white" stroke="#666666" points="181.5,-30 35.5,-30 35.5,0 181.5,0 181.5,-30"/>
<text text-anchor="start" x="43.5" y="-18" font-family="Helvetica,sans-Serif" font-size="10.00">DynExpInstr::NIDAQDigital</text>
<text text-anchor="middle" x="108.5" y="-7" font-family="Helvetica,sans-Serif" font-size="10.00">InData</text>
</a>
</g>
</g>
<!-- Node1&#45;&gt;Node7 -->
<g id="edge6_Node000001_Node000007" class="edge">
<title>Node1&#45;&gt;Node7</title>
<g id="a_edge6_Node000001_Node000007"><a xlink:title=" ">
<path fill="none" stroke="#63b8ff" d="M108.5,-55.65C108.5,-47.36 108.5,-37.78 108.5,-30.11"/>
<polygon fill="#63b8ff" stroke="#63b8ff" points="105,-55.87 108.5,-65.87 112,-55.87 105,-55.87"/>
</a>
</g>
</g>
<!-- Node2 -->
<g id="Node000002" class="node">
<title>Node2</title>
<g id="a_Node000002"><a xlink:href="classDynExpInstr_1_1InputPortData.html" target="_top" xlink:title="Data class for InputPort.">
<polygon fill="white" stroke="#666666" points="183,-140 34,-140 34,-121 183,-121 183,-140"/>
<text text-anchor="middle" x="108.5" y="-128" font-family="Helvetica,sans-Serif" font-size="10.00">DynExpInstr::InputPortData</text>
</a>
</g>
</g>
<!-- Node2&#45;&gt;Node1 -->
<g id="edge1_Node000001_Node000002" class="edge">
<title>Node2&#45;&gt;Node1</title>
<g id="a_edge1_Node000001_Node000002"><a xlink:title=" ">
<path fill="none" stroke="#63b8ff" d="M108.5,-110.66C108.5,-101.93 108.5,-91.99 108.5,-85.09"/>
<polygon fill="#63b8ff" stroke="#63b8ff" points="105,-110.75 108.5,-120.75 112,-110.75 105,-110.75"/>
</a>
</g>
</g>
<!-- Node3 -->
<g id="Node000003" class="node">
<title>Node3</title>
<g id="a_Node000003"><a xlink:href="classDynExpInstr_1_1DataStreamInstrumentData.html" target="_top" xlink:title="Data class for DataStreamInstrument.">
<polygon fill="white" stroke="#666666" points="217,-195 0,-195 0,-176 217,-176 217,-195"/>
<text text-anchor="middle" x="108.5" y="-183" font-family="Helvetica,sans-Serif" font-size="10.00">DynExpInstr::DataStreamInstrumentData</text>
</a>
</g>
</g>
<!-- Node3&#45;&gt;Node2 -->
<g id="edge2_Node000002_Node000003" class="edge">
<title>Node3&#45;&gt;Node2</title>
<g id="a_edge2_Node000002_Node000003"><a xlink:title=" ">
<path fill="none" stroke="#63b8ff" d="M108.5,-165.66C108.5,-156.93 108.5,-146.99 108.5,-140.09"/>
<polygon fill="#63b8ff" stroke="#63b8ff" points="105,-165.75 108.5,-175.75 112,-165.75 105,-165.75"/>
</a>
</g>
</g>
<!-- Node4 -->
<g id="Node000004" class="node">
<title>Node4</title>
<g id="a_Node000004"><a xlink:href="classDynExp_1_1InstrumentDataBase.html" target="_top" xlink:title="Data structure to contain data which is synchronized in between different threads....">
<polygon fill="white" stroke="#666666" points="189,-250 28,-250 28,-231 189,-231 189,-250"/>
<text text-anchor="middle" x="108.5" y="-238" font-family="Helvetica,sans-Serif" font-size="10.00">DynExp::InstrumentDataBase</text>
</a>
</g>
</g>
<!-- Node4&#45;&gt;Node3 -->
<g id="edge3_Node000003_Node000004" class="edge">
<title>Node4&#45;&gt;Node3</title>
<g id="a_edge3_Node000003_Node000004"><a xlink:title=" ">
<path fill="none" stroke="#63b8ff" d="M108.5,-220.66C108.5,-211.93 108.5,-201.99 108.5,-195.09"/>
<polygon fill="#63b8ff" stroke="#63b8ff" points="105,-220.75 108.5,-230.75 112,-220.75 105,-220.75"/>
</a>
</g>
</g>
<!-- Node5 -->
<g id="Node000005" class="node">
<title>Node5</title>
<g id="a_Node000005"><a xlink:href="classUtil_1_1ISynchronizedPointerLockable.html" target="_top" xlink:title="Interface to allow synchronizing the access to derived classes between different threads by making th...">
<polygon fill="white" stroke="#666666" points="180,-316 37,-316 37,-286 180,-286 180,-316"/>
<text text-anchor="start" x="45" y="-304" font-family="Helvetica,sans-Serif" font-size="10.00">Util::ISynchronizedPointer</text>
<text text-anchor="middle" x="108.5" y="-293" font-family="Helvetica,sans-Serif" font-size="10.00">Lockable</text>
</a>
</g>
</g>
<!-- Node5&#45;&gt;Node4 -->
<g id="edge4_Node000004_Node000005" class="edge">
<title>Node5&#45;&gt;Node4</title>
<g id="a_edge4_Node000004_Node000005"><a xlink:title=" ">
<path fill="none" stroke="#63b8ff" d="M108.5,-275.75C108.5,-266.72 108.5,-257.03 108.5,-250.27"/>
<polygon fill="#63b8ff" stroke="#63b8ff" points="105,-275.84 108.5,-285.84 112,-275.84 105,-275.84"/>
</a>
</g>
</g>
<!-- Node6 -->
<g id="Node000006" class="node">
<title>Node6</title>
<g id="a_Node000006"><a xlink:href="classUtil_1_1INonCopyable.html" target="_top" xlink:title="Interface to delete copy constructor and copy assignment operator and thus make derived classes non&#45;c...">
<polygon fill="white" stroke="#666666" points="162.5,-371 54.5,-371 54.5,-352 162.5,-352 162.5,-371"/>
<text text-anchor="middle" x="108.5" y="-359" font-family="Helvetica,sans-Serif" font-size="10.00">Util::INonCopyable</text>
</a>
</g>
</g>
<!-- Node6&#45;&gt;Node5 -->
<g id="edge5_Node000005_Node000006" class="edge">
<title>Node6&#45;&gt;Node5</title>
<g id="a_edge5_Node000005_Node000006"><a xlink:title=" ">
<path fill="none" stroke="#63b8ff" d="M108.5,-341.65C108.5,-333.36 108.5,-323.78 108.5,-316.11"/>
<polygon fill="#63b8ff" stroke="#63b8ff" points="105,-341.87 108.5,-351.87 112,-341.87 105,-341.87"/>
</a>
</g>
</g>
</g>
</svg>
