<?xml version="1.0" encoding="UTF-8" standalone="no"?>
<!DOCTYPE svg PUBLIC "-//W3C//DTD SVG 1.1//EN"
 "http://www.w3.org/Graphics/SVG/1.1/DTD/svg11.dtd">
<!-- Generated by graphviz version 2.43.0 (0)
 -->
<!-- Title: DynExpInstr::PVCamTasks::ExitTask Pages: 1 -->
<svg width="155pt" height="218pt"
 viewBox="0.00 0.00 155.00 218.00" xmlns="http://www.w3.org/2000/svg" xmlns:xlink="http://www.w3.org/1999/xlink">
<g id="graph0" class="graph" transform="scale(1 1) rotate(0) translate(4 214)">
<title>DynExpInstr::PVCamTasks::ExitTask</title>
<polygon fill="white" stroke="transparent" points="-4,4 -4,-214 151,-214 151,4 -4,4"/>
<!-- Node1 -->
<g id="node1" class="node">
<title>Node1</title>
<g id="a_node1"><a xlink:title=" ">
<polygon fill="#bfbfbf" stroke="black" points="1.5,-0.5 1.5,-30.5 145.5,-30.5 145.5,-0.5 1.5,-0.5"/>
<text text-anchor="start" x="9.5" y="-18.5" font-family="Helvetica,sans-Serif" font-size="10.00">DynExpInstr::PVCamTasks</text>
<text text-anchor="middle" x="73.5" y="-7.5" font-family="Helvetica,sans-Serif" font-size="10.00">::ExitTask</text>
</a>
</g>
</g>
<!-- Node2 -->
<g id="node2" class="node">
<title>Node2</title>
<g id="a_node2"><a xlink:href="classDynExpInstr_1_1CameraTasks_1_1ExitTask.html" target="_top" xlink:title="Defines a task for deinitializing an instrument within an instrument inheritance hierarchy....">
<polygon fill="white" stroke="black" points="0,-67.5 0,-97.5 147,-97.5 147,-67.5 0,-67.5"/>
<text text-anchor="start" x="8" y="-85.5" font-family="Helvetica,sans-Serif" font-size="10.00">DynExpInstr::CameraTasks</text>
<text text-anchor="middle" x="73.5" y="-74.5" font-family="Helvetica,sans-Serif" font-size="10.00">::ExitTask</text>
</a>
</g>
</g>
<!-- Node2&#45;&gt;Node1 -->
<g id="edge1" class="edge">
<title>Node2&#45;&gt;Node1</title>
<path fill="none" stroke="midnightblue" d="M73.5,-57.11C73.5,-48.15 73.5,-38.32 73.5,-30.58"/>
<polygon fill="midnightblue" stroke="midnightblue" points="70,-57.4 73.5,-67.4 77,-57.4 70,-57.4"/>
</g>
<!-- Node3 -->
<g id="node3" class="node">
<title>Node3</title>
<g id="a_node3"><a xlink:href="classDynExp_1_1ExitTaskBase.html" target="_top" xlink:title="Defines a task for deinitializing an instrument within an instrument inheritance hierarchy....">
<polygon fill="white" stroke="black" points="11,-134.5 11,-153.5 136,-153.5 136,-134.5 11,-134.5"/>
<text text-anchor="middle" x="73.5" y="-141.5" font-family="Helvetica,sans-Serif" font-size="10.00">DynExp::ExitTaskBase</text>
</a>
</g>
</g>
<!-- Node3&#45;&gt;Node2 -->
<g id="edge2" class="edge">
<title>Node3&#45;&gt;Node2</title>
<path fill="none" stroke="midnightblue" d="M73.5,-124.23C73.5,-115.59 73.5,-105.5 73.5,-97.52"/>
<polygon fill="midnightblue" stroke="midnightblue" points="70,-124.48 73.5,-134.48 77,-124.48 70,-124.48"/>
</g>
<!-- Node4 -->
<g id="node4" class="node">
<title>Node4</title>
<g id="a_node4"><a xlink:href="classDynExp_1_1TaskBase.html" target="_top" xlink:title="Base class for all tasks being processed by instruments. The class must not contain public virtual fu...">
<polygon fill="white" stroke="black" points="20.5,-190.5 20.5,-209.5 126.5,-209.5 126.5,-190.5 20.5,-190.5"/>
<text text-anchor="middle" x="73.5" y="-197.5" font-family="Helvetica,sans-Serif" font-size="10.00">DynExp::TaskBase</text>
</a>
</g>
</g>
<!-- Node4&#45;&gt;Node3 -->
<g id="edge3" class="edge">
<title>Node4&#45;&gt;Node3</title>
<path fill="none" stroke="midnightblue" d="M73.5,-179.8C73.5,-170.91 73.5,-160.78 73.5,-153.75"/>
<polygon fill="midnightblue" stroke="midnightblue" points="70,-180.08 73.5,-190.08 77,-180.08 70,-180.08"/>
</g>
</g>
</svg>
