<?xml version="1.0" encoding="UTF-8" standalone="no"?>
<!DOCTYPE svg PUBLIC "-//W3C//DTD SVG 1.1//EN"
 "http://www.w3.org/Graphics/SVG/1.1/DTD/svg11.dtd">
<!-- Generated by graphviz version 2.43.0 (0)
 -->
<!-- Title: DynExpInstr::NetworkTimeTaggerT&lt; BaseInstr,, gRPCStubs &gt; Pages: 1 -->
<svg width="193pt" height="240pt"
 viewBox="0.00 0.00 193.00 240.00" xmlns="http://www.w3.org/2000/svg" xmlns:xlink="http://www.w3.org/1999/xlink">
<g id="graph0" class="graph" transform="scale(1 1) rotate(0) translate(4 236)">
<title>DynExpInstr::NetworkTimeTaggerT&lt; BaseInstr,, gRPCStubs &gt;</title>
<polygon fill="white" stroke="transparent" points="-4,4 -4,-236 189,-236 189,4 -4,4"/>
<!-- Node1 -->
<g id="node1" class="node">
<title>Node1</title>
<g id="a_node1"><a xlink:title=" ">
<polygon fill="#bfbfbf" stroke="black" points="0,-0.5 0,-30.5 185,-30.5 185,-0.5 0,-0.5"/>
<text text-anchor="start" x="8" y="-18.5" font-family="Helvetica,sans-Serif" font-size="10.00">DynExpInstr::NetworkTime</text>
<text text-anchor="middle" x="92.5" y="-7.5" font-family="Helvetica,sans-Serif" font-size="10.00">TaggerT&lt; BaseInstr,, gRPCStubs &gt;</text>
</a>
</g>
</g>
<!-- Node2 -->
<g id="node2" class="node">
<title>Node2</title>
<g id="a_node2"><a xlink:href="classDynExpInstr_1_1NetworkDataStreamInstrumentT.html" target="_top" xlink:title=" ">
<polygon fill="white" stroke="black" points="7,-67.5 7,-108.5 178,-108.5 178,-67.5 7,-67.5"/>
<text text-anchor="start" x="15" y="-96.5" font-family="Helvetica,sans-Serif" font-size="10.00">DynExpInstr::NetworkData</text>
<text text-anchor="start" x="15" y="-85.5" font-family="Helvetica,sans-Serif" font-size="10.00">StreamInstrumentT&lt; BaseInstr,</text>
<text text-anchor="middle" x="92.5" y="-74.5" font-family="Helvetica,sans-Serif" font-size="10.00"> 0, gRPCStubs... &gt;</text>
</a>
</g>
</g>
<!-- Node2&#45;&gt;Node1 -->
<g id="edge1" class="edge">
<title>Node2&#45;&gt;Node1</title>
<path fill="none" stroke="midnightblue" d="M92.5,-57.08C92.5,-48.01 92.5,-38.45 92.5,-30.89"/>
<polygon fill="midnightblue" stroke="midnightblue" points="89,-57.36 92.5,-67.36 96,-57.36 89,-57.36"/>
</g>
<!-- Node3 -->
<g id="node3" class="node">
<title>Node3</title>
<g id="a_node3"><a xlink:href="classDynExpInstr_1_1gRPCInstrument.html" target="_top" xlink:title=" ">
<polygon fill="white" stroke="black" points="10.5,-145.5 10.5,-175.5 174.5,-175.5 174.5,-145.5 10.5,-145.5"/>
<text text-anchor="start" x="18.5" y="-163.5" font-family="Helvetica,sans-Serif" font-size="10.00">DynExpInstr::gRPCInstrument</text>
<text text-anchor="middle" x="92.5" y="-152.5" font-family="Helvetica,sans-Serif" font-size="10.00">&lt; BaseInstr, 0, gRPCStubs... &gt;</text>
</a>
</g>
</g>
<!-- Node3&#45;&gt;Node2 -->
<g id="edge2" class="edge">
<title>Node3&#45;&gt;Node2</title>
<path fill="none" stroke="midnightblue" d="M92.5,-134.98C92.5,-126.35 92.5,-116.76 92.5,-108.59"/>
<polygon fill="midnightblue" stroke="midnightblue" points="89,-135.23 92.5,-145.23 96,-135.23 89,-135.23"/>
</g>
<!-- Node4 -->
<g id="node4" class="node">
<title>Node4</title>
<g id="a_node4"><a xlink:title=" ">
<polygon fill="white" stroke="#bfbfbf" points="61.5,-212.5 61.5,-231.5 123.5,-231.5 123.5,-212.5 61.5,-212.5"/>
<text text-anchor="middle" x="92.5" y="-219.5" font-family="Helvetica,sans-Serif" font-size="10.00">BaseInstr</text>
</a>
</g>
</g>
<!-- Node4&#45;&gt;Node3 -->
<g id="edge3" class="edge">
<title>Node4&#45;&gt;Node3</title>
<path fill="none" stroke="midnightblue" d="M92.5,-202.23C92.5,-193.59 92.5,-183.5 92.5,-175.52"/>
<polygon fill="midnightblue" stroke="midnightblue" points="89,-202.48 92.5,-212.48 96,-202.48 89,-202.48"/>
</g>
</g>
</svg>
