<?xml version="1.0" encoding="UTF-8" standalone="no"?>
<!DOCTYPE svg PUBLIC "-//W3C//DTD SVG 1.1//EN"
 "http://www.w3.org/Graphics/SVG/1.1/DTD/svg11.dtd">
<!-- Generated by graphviz version 2.43.0 (0)
 -->
<!-- Title: DynExpInstr::ZI_MFLITasks::ZI_MFLITaskBase Pages: 1 -->
<svg width="340pt" height="902pt"
 viewBox="0.00 0.00 340.00 902.00" xmlns="http://www.w3.org/2000/svg" xmlns:xlink="http://www.w3.org/1999/xlink">
<g id="graph0" class="graph" transform="scale(1 1) rotate(0) translate(4 898)">
<title>DynExpInstr::ZI_MFLITasks::ZI_MFLITaskBase</title>
<!-- Node1 -->
<g id="Node000001" class="node">
<title>Node1</title>
<g id="a_Node000001"><a xlink:title=" ">
<polygon fill="#999999" stroke="#666666" points="147,-462 0,-462 0,-432 147,-432 147,-462"/>
<text text-anchor="start" x="8" y="-450" font-family="Helvetica,sans-Serif" font-size="10.00">DynExpInstr::ZI_MFLITasks</text>
<text text-anchor="middle" x="73.5" y="-439" font-family="Helvetica,sans-Serif" font-size="10.00">::ZI_MFLITaskBase</text>
</a>
</g>
</g>
<!-- Node2 -->
<g id="Node000002" class="node">
<title>Node2</title>
<g id="a_Node000002"><a xlink:href="classDynExpInstr_1_1ZI__MFLITasks_1_1AutoAdjustPhaseTask.html" target="_top" xlink:title=" ">
<polygon fill="white" stroke="#666666" points="331,-894 184,-894 184,-864 331,-864 331,-894"/>
<text text-anchor="start" x="192" y="-882" font-family="Helvetica,sans-Serif" font-size="10.00">DynExpInstr::ZI_MFLITasks</text>
<text text-anchor="middle" x="257.5" y="-871" font-family="Helvetica,sans-Serif" font-size="10.00">::AutoAdjustPhaseTask</text>
</a>
</g>
</g>
<!-- Node1&#45;&gt;Node2 -->
<g id="edge1_Node000001_Node000002" class="edge">
<title>Node1&#45;&gt;Node2</title>
<g id="a_edge1_Node000001_Node000002"><a xlink:title=" ">
<path fill="none" stroke="#8b1a1a" d="M78.04,-472.35C89.7,-552.44 129.25,-798.17 183,-855 186.23,-858.41 189.95,-861.34 193.96,-863.85"/>
<polygon fill="#8b1a1a" stroke="#8b1a1a" points="81.47,-471.58 76.58,-462.18 74.54,-472.58 81.47,-471.58"/>
</a>
</g>
</g>
<!-- Node3 -->
<g id="Node000003" class="node">
<title>Node3</title>
<g id="a_Node000003"><a xlink:href="classDynExpInstr_1_1ZI__MFLITasks_1_1AutoAdjustSensitivityTask.html" target="_top" xlink:title=" ">
<polygon fill="white" stroke="#666666" points="332,-846 183,-846 183,-816 332,-816 332,-846"/>
<text text-anchor="start" x="191" y="-834" font-family="Helvetica,sans-Serif" font-size="10.00">DynExpInstr::ZI_MFLITasks</text>
<text text-anchor="middle" x="257.5" y="-823" font-family="Helvetica,sans-Serif" font-size="10.00">::AutoAdjustSensitivityTask</text>
</a>
</g>
</g>
<!-- Node1&#45;&gt;Node3 -->
<g id="edge2_Node000001_Node000003" class="edge">
<title>Node1&#45;&gt;Node3</title>
<g id="a_edge2_Node000001_Node000003"><a xlink:title=" ">
<path fill="none" stroke="#8b1a1a" d="M74.55,-472.2C76.08,-537 89.19,-711.02 183,-807 186.38,-810.46 190.26,-813.41 194.44,-815.95"/>
<polygon fill="#8b1a1a" stroke="#8b1a1a" points="78.05,-472.03 74.39,-462.09 71.05,-472.14 78.05,-472.03"/>
</a>
</g>
</g>
<!-- Node4 -->
<g id="Node000004" class="node">
<title>Node4</title>
<g id="a_Node000004"><a xlink:href="classDynExpInstr_1_1ZI__MFLITasks_1_1ClearDataTask.html" target="_top" xlink:title=" ">
<polygon fill="white" stroke="#666666" points="331,-798 184,-798 184,-768 331,-768 331,-798"/>
<text text-anchor="start" x="192" y="-786" font-family="Helvetica,sans-Serif" font-size="10.00">DynExpInstr::ZI_MFLITasks</text>
<text text-anchor="middle" x="257.5" y="-775" font-family="Helvetica,sans-Serif" font-size="10.00">::ClearDataTask</text>
</a>
</g>
</g>
<!-- Node1&#45;&gt;Node4 -->
<g id="edge3_Node000001_Node000004" class="edge">
<title>Node1&#45;&gt;Node4</title>
<g id="a_edge3_Node000001_Node000004"><a xlink:title=" ">
<path fill="none" stroke="#8b1a1a" d="M75.94,-472.39C80.66,-531.23 100.51,-678.07 183,-759 186.55,-762.48 190.6,-765.45 194.95,-768"/>
<polygon fill="#8b1a1a" stroke="#8b1a1a" points="79.41,-471.87 75.21,-462.15 72.43,-472.37 79.41,-471.87"/>
</a>
</g>
</g>
<!-- Node5 -->
<g id="Node000005" class="node">
<title>Node5</title>
<g id="a_Node000005"><a xlink:href="classDynExpInstr_1_1ZI__MFLITasks_1_1ExitTask.html" target="_top" xlink:title=" ">
<polygon fill="white" stroke="#666666" points="331,-750 184,-750 184,-720 331,-720 331,-750"/>
<text text-anchor="start" x="192" y="-738" font-family="Helvetica,sans-Serif" font-size="10.00">DynExpInstr::ZI_MFLITasks</text>
<text text-anchor="middle" x="257.5" y="-727" font-family="Helvetica,sans-Serif" font-size="10.00">::ExitTask</text>
</a>
</g>
</g>
<!-- Node1&#45;&gt;Node5 -->
<g id="edge4_Node000001_Node000005" class="edge">
<title>Node1&#45;&gt;Node5</title>
<g id="a_edge4_Node000001_Node000005"><a xlink:title=" ">
<path fill="none" stroke="#8b1a1a" d="M77.73,-472.03C85.77,-524.07 111.46,-644.59 183,-711 186.74,-714.47 190.99,-717.44 195.51,-719.98"/>
<polygon fill="#8b1a1a" stroke="#8b1a1a" points="81.18,-471.4 76.28,-462.01 74.25,-472.41 81.18,-471.4"/>
</a>
</g>
</g>
<!-- Node6 -->
<g id="Node000006" class="node">
<title>Node6</title>
<g id="a_Node000006"><a xlink:href="classDynExpInstr_1_1ZI__MFLITasks_1_1ForceTriggerTask.html" target="_top" xlink:title=" ">
<polygon fill="white" stroke="#666666" points="331,-702 184,-702 184,-672 331,-672 331,-702"/>
<text text-anchor="start" x="192" y="-690" font-family="Helvetica,sans-Serif" font-size="10.00">DynExpInstr::ZI_MFLITasks</text>
<text text-anchor="middle" x="257.5" y="-679" font-family="Helvetica,sans-Serif" font-size="10.00">::ForceTriggerTask</text>
</a>
</g>
</g>
<!-- Node1&#45;&gt;Node6 -->
<g id="edge5_Node000001_Node000006" class="edge">
<title>Node1&#45;&gt;Node6</title>
<g id="a_edge5_Node000001_Node000006"><a xlink:title=" ">
<path fill="none" stroke="#8b1a1a" d="M80.23,-471.8C91.84,-516.5 122.33,-610.8 183,-663 186.97,-666.41 191.43,-669.35 196.15,-671.86"/>
<polygon fill="#8b1a1a" stroke="#8b1a1a" points="83.62,-470.9 77.8,-462.05 76.83,-472.6 83.62,-470.9"/>
</a>
</g>
</g>
<!-- Node7 -->
<g id="Node000007" class="node">
<title>Node7</title>
<g id="a_Node000007"><a xlink:href="classDynExpInstr_1_1ZI__MFLITasks_1_1InitTask.html" target="_top" xlink:title=" ">
<polygon fill="white" stroke="#666666" points="331,-654 184,-654 184,-624 331,-624 331,-654"/>
<text text-anchor="start" x="192" y="-642" font-family="Helvetica,sans-Serif" font-size="10.00">DynExpInstr::ZI_MFLITasks</text>
<text text-anchor="middle" x="257.5" y="-631" font-family="Helvetica,sans-Serif" font-size="10.00">::InitTask</text>
</a>
</g>
</g>
<!-- Node1&#45;&gt;Node7 -->
<g id="edge6_Node000001_Node000007" class="edge">
<title>Node1&#45;&gt;Node7</title>
<g id="a_edge6_Node000001_Node000007"><a xlink:title=" ">
<path fill="none" stroke="#8b1a1a" d="M83.93,-471.39C99.26,-507.87 132.97,-576.45 183,-615 187.47,-618.44 192.44,-621.4 197.65,-623.94"/>
<polygon fill="#8b1a1a" stroke="#8b1a1a" points="87.12,-469.94 80.1,-462.01 80.64,-472.59 87.12,-469.94"/>
</a>
</g>
</g>
<!-- Node8 -->
<g id="Node000008" class="node">
<title>Node8</title>
<g id="a_Node000008"><a xlink:href="classDynExpInstr_1_1ZI__MFLITasks_1_1ReadTask.html" target="_top" xlink:title=" ">
<polygon fill="white" stroke="#666666" points="331,-606 184,-606 184,-576 331,-576 331,-606"/>
<text text-anchor="start" x="192" y="-594" font-family="Helvetica,sans-Serif" font-size="10.00">DynExpInstr::ZI_MFLITasks</text>
<text text-anchor="middle" x="257.5" y="-583" font-family="Helvetica,sans-Serif" font-size="10.00">::ReadTask</text>
</a>
</g>
</g>
<!-- Node1&#45;&gt;Node8 -->
<g id="edge7_Node000001_Node000008" class="edge">
<title>Node1&#45;&gt;Node8</title>
<g id="a_edge7_Node000001_Node000008"><a xlink:title=" ">
<path fill="none" stroke="#8b1a1a" d="M90.11,-470.68C109.06,-497.66 143.42,-541.31 183,-567 188.29,-570.43 194.12,-573.42 200.1,-576"/>
<polygon fill="#8b1a1a" stroke="#8b1a1a" points="92.85,-468.48 84.3,-462.22 87.08,-472.44 92.85,-468.48"/>
</a>
</g>
</g>
<!-- Node9 -->
<g id="Node000009" class="node">
<title>Node9</title>
<g id="a_Node000009"><a xlink:href="classDynExpInstr_1_1ZI__MFLITasks_1_1SetEnableTask.html" target="_top" xlink:title=" ">
<polygon fill="white" stroke="#666666" points="331,-558 184,-558 184,-528 331,-528 331,-558"/>
<text text-anchor="start" x="192" y="-546" font-family="Helvetica,sans-Serif" font-size="10.00">DynExpInstr::ZI_MFLITasks</text>
<text text-anchor="middle" x="257.5" y="-535" font-family="Helvetica,sans-Serif" font-size="10.00">::SetEnableTask</text>
</a>
</g>
</g>
<!-- Node1&#45;&gt;Node9 -->
<g id="edge8_Node000001_Node000009" class="edge">
<title>Node1&#45;&gt;Node9</title>
<g id="a_edge8_Node000001_Node000009"><a xlink:title=" ">
<path fill="none" stroke="#8b1a1a" d="M102.13,-468.38C123.34,-484.03 153.85,-504.89 183,-519 189.77,-522.27 197.09,-525.27 204.4,-527.94"/>
<polygon fill="#8b1a1a" stroke="#8b1a1a" points="104.03,-465.43 93.92,-462.25 99.84,-471.04 104.03,-465.43"/>
</a>
</g>
</g>
<!-- Node10 -->
<g id="Node000010" class="node">
<title>Node10</title>
<g id="a_Node000010"><a xlink:href="classDynExpInstr_1_1ZI__MFLITasks_1_1SetFilterOrderTask.html" target="_top" xlink:title=" ">
<polygon fill="white" stroke="#666666" points="331,-510 184,-510 184,-480 331,-480 331,-510"/>
<text text-anchor="start" x="192" y="-498" font-family="Helvetica,sans-Serif" font-size="10.00">DynExpInstr::ZI_MFLITasks</text>
<text text-anchor="middle" x="257.5" y="-487" font-family="Helvetica,sans-Serif" font-size="10.00">::SetFilterOrderTask</text>
</a>
</g>
</g>
<!-- Node1&#45;&gt;Node10 -->
<g id="edge9_Node000001_Node000010" class="edge">
<title>Node1&#45;&gt;Node10</title>
<g id="a_edge9_Node000001_Node000010"><a xlink:title=" ">
<path fill="none" stroke="#8b1a1a" d="M141.42,-464.65C160.53,-469.69 181.17,-475.13 199.62,-480"/>
<polygon fill="#8b1a1a" stroke="#8b1a1a" points="142.15,-461.22 131.59,-462.06 140.36,-467.99 142.15,-461.22"/>
</a>
</g>
</g>
<!-- Node11 -->
<g id="Node000011" class="node">
<title>Node11</title>
<g id="a_Node000011"><a xlink:href="classDynExpInstr_1_1ZI__MFLITasks_1_1SetPhaseTask.html" target="_top" xlink:title=" ">
<polygon fill="white" stroke="#666666" points="331,-462 184,-462 184,-432 331,-432 331,-462"/>
<text text-anchor="start" x="192" y="-450" font-family="Helvetica,sans-Serif" font-size="10.00">DynExpInstr::ZI_MFLITasks</text>
<text text-anchor="middle" x="257.5" y="-439" font-family="Helvetica,sans-Serif" font-size="10.00">::SetPhaseTask</text>
</a>
</g>
</g>
<!-- Node1&#45;&gt;Node11 -->
<g id="edge10_Node000001_Node000011" class="edge">
<title>Node1&#45;&gt;Node11</title>
<g id="a_edge10_Node000001_Node000011"><a xlink:title=" ">
<path fill="none" stroke="#8b1a1a" d="M157.49,-447C166.31,-447 175.22,-447 183.9,-447"/>
<polygon fill="#8b1a1a" stroke="#8b1a1a" points="157.22,-443.5 147.22,-447 157.22,-450.5 157.22,-443.5"/>
</a>
</g>
</g>
<!-- Node12 -->
<g id="Node000012" class="node">
<title>Node12</title>
<g id="a_Node000012"><a xlink:href="classDynExpInstr_1_1ZI__MFLITasks_1_1SetSamplingRateTask.html" target="_top" xlink:title=" ">
<polygon fill="white" stroke="#666666" points="331,-414 184,-414 184,-384 331,-384 331,-414"/>
<text text-anchor="start" x="192" y="-402" font-family="Helvetica,sans-Serif" font-size="10.00">DynExpInstr::ZI_MFLITasks</text>
<text text-anchor="middle" x="257.5" y="-391" font-family="Helvetica,sans-Serif" font-size="10.00">::SetSamplingRateTask</text>
</a>
</g>
</g>
<!-- Node1&#45;&gt;Node12 -->
<g id="edge11_Node000001_Node000012" class="edge">
<title>Node1&#45;&gt;Node12</title>
<g id="a_edge11_Node000001_Node000012"><a xlink:title=" ">
<path fill="none" stroke="#8b1a1a" d="M141.42,-429.35C160.53,-424.31 181.17,-418.87 199.62,-414"/>
<polygon fill="#8b1a1a" stroke="#8b1a1a" points="140.36,-426.01 131.59,-431.94 142.15,-432.78 140.36,-426.01"/>
</a>
</g>
</g>
<!-- Node13 -->
<g id="Node000013" class="node">
<title>Node13</title>
<g id="a_Node000013"><a xlink:href="classDynExpInstr_1_1ZI__MFLITasks_1_1SetSensitivityTask.html" target="_top" xlink:title=" ">
<polygon fill="white" stroke="#666666" points="331,-366 184,-366 184,-336 331,-336 331,-366"/>
<text text-anchor="start" x="192" y="-354" font-family="Helvetica,sans-Serif" font-size="10.00">DynExpInstr::ZI_MFLITasks</text>
<text text-anchor="middle" x="257.5" y="-343" font-family="Helvetica,sans-Serif" font-size="10.00">::SetSensitivityTask</text>
</a>
</g>
</g>
<!-- Node1&#45;&gt;Node13 -->
<g id="edge12_Node000001_Node000013" class="edge">
<title>Node1&#45;&gt;Node13</title>
<g id="a_edge12_Node000001_Node000013"><a xlink:title=" ">
<path fill="none" stroke="#8b1a1a" d="M102.13,-425.62C123.34,-409.97 153.85,-389.11 183,-375 189.77,-371.73 197.09,-368.73 204.4,-366.06"/>
<polygon fill="#8b1a1a" stroke="#8b1a1a" points="99.84,-422.96 93.92,-431.75 104.03,-428.57 99.84,-422.96"/>
</a>
</g>
</g>
<!-- Node14 -->
<g id="Node000014" class="node">
<title>Node14</title>
<g id="a_Node000014"><a xlink:href="classDynExpInstr_1_1ZI__MFLITasks_1_1SetSignalTypeTask.html" target="_top" xlink:title=" ">
<polygon fill="white" stroke="#666666" points="331,-318 184,-318 184,-288 331,-288 331,-318"/>
<text text-anchor="start" x="192" y="-306" font-family="Helvetica,sans-Serif" font-size="10.00">DynExpInstr::ZI_MFLITasks</text>
<text text-anchor="middle" x="257.5" y="-295" font-family="Helvetica,sans-Serif" font-size="10.00">::SetSignalTypeTask</text>
</a>
</g>
</g>
<!-- Node1&#45;&gt;Node14 -->
<g id="edge13_Node000001_Node000014" class="edge">
<title>Node1&#45;&gt;Node14</title>
<g id="a_edge13_Node000001_Node000014"><a xlink:title=" ">
<path fill="none" stroke="#8b1a1a" d="M90.11,-423.32C109.06,-396.34 143.42,-352.69 183,-327 188.29,-323.57 194.12,-320.58 200.1,-318"/>
<polygon fill="#8b1a1a" stroke="#8b1a1a" points="87.08,-421.56 84.3,-431.78 92.85,-425.52 87.08,-421.56"/>
</a>
</g>
</g>
<!-- Node15 -->
<g id="Node000015" class="node">
<title>Node15</title>
<g id="a_Node000015"><a xlink:href="classDynExpInstr_1_1ZI__MFLITasks_1_1SetTimeConstantTask.html" target="_top" xlink:title=" ">
<polygon fill="white" stroke="#666666" points="331,-270 184,-270 184,-240 331,-240 331,-270"/>
<text text-anchor="start" x="192" y="-258" font-family="Helvetica,sans-Serif" font-size="10.00">DynExpInstr::ZI_MFLITasks</text>
<text text-anchor="middle" x="257.5" y="-247" font-family="Helvetica,sans-Serif" font-size="10.00">::SetTimeConstantTask</text>
</a>
</g>
</g>
<!-- Node1&#45;&gt;Node15 -->
<g id="edge14_Node000001_Node000015" class="edge">
<title>Node1&#45;&gt;Node15</title>
<g id="a_edge14_Node000001_Node000015"><a xlink:title=" ">
<path fill="none" stroke="#8b1a1a" d="M83.93,-422.61C99.26,-386.13 132.97,-317.55 183,-279 187.47,-275.56 192.44,-272.6 197.65,-270.06"/>
<polygon fill="#8b1a1a" stroke="#8b1a1a" points="80.64,-421.41 80.1,-431.99 87.12,-424.06 80.64,-421.41"/>
</a>
</g>
</g>
<!-- Node16 -->
<g id="Node000016" class="node">
<title>Node16</title>
<g id="a_Node000016"><a xlink:href="classDynExpInstr_1_1ZI__MFLITasks_1_1SetTriggerEdgeTask.html" target="_top" xlink:title=" ">
<polygon fill="white" stroke="#666666" points="331,-222 184,-222 184,-192 331,-192 331,-222"/>
<text text-anchor="start" x="192" y="-210" font-family="Helvetica,sans-Serif" font-size="10.00">DynExpInstr::ZI_MFLITasks</text>
<text text-anchor="middle" x="257.5" y="-199" font-family="Helvetica,sans-Serif" font-size="10.00">::SetTriggerEdgeTask</text>
</a>
</g>
</g>
<!-- Node1&#45;&gt;Node16 -->
<g id="edge15_Node000001_Node000016" class="edge">
<title>Node1&#45;&gt;Node16</title>
<g id="a_edge15_Node000001_Node000016"><a xlink:title=" ">
<path fill="none" stroke="#8b1a1a" d="M80.23,-422.2C91.84,-377.5 122.33,-283.2 183,-231 186.97,-227.59 191.43,-224.65 196.15,-222.14"/>
<polygon fill="#8b1a1a" stroke="#8b1a1a" points="76.83,-421.4 77.8,-431.95 83.62,-423.1 76.83,-421.4"/>
</a>
</g>
</g>
<!-- Node17 -->
<g id="Node000017" class="node">
<title>Node17</title>
<g id="a_Node000017"><a xlink:href="classDynExpInstr_1_1ZI__MFLITasks_1_1SetTriggerModeTask.html" target="_top" xlink:title=" ">
<polygon fill="white" stroke="#666666" points="331,-174 184,-174 184,-144 331,-144 331,-174"/>
<text text-anchor="start" x="192" y="-162" font-family="Helvetica,sans-Serif" font-size="10.00">DynExpInstr::ZI_MFLITasks</text>
<text text-anchor="middle" x="257.5" y="-151" font-family="Helvetica,sans-Serif" font-size="10.00">::SetTriggerModeTask</text>
</a>
</g>
</g>
<!-- Node1&#45;&gt;Node17 -->
<g id="edge16_Node000001_Node000017" class="edge">
<title>Node1&#45;&gt;Node17</title>
<g id="a_edge16_Node000001_Node000017"><a xlink:title=" ">
<path fill="none" stroke="#8b1a1a" d="M77.73,-421.97C85.77,-369.93 111.46,-249.41 183,-183 186.74,-179.53 190.99,-176.56 195.51,-174.02"/>
<polygon fill="#8b1a1a" stroke="#8b1a1a" points="74.25,-421.59 76.28,-431.99 81.18,-422.6 74.25,-421.59"/>
</a>
</g>
</g>
<!-- Node18 -->
<g id="Node000018" class="node">
<title>Node18</title>
<g id="a_Node000018"><a xlink:href="classDynExpInstr_1_1ZI__MFLITasks_1_1StartTask.html" target="_top" xlink:title=" ">
<polygon fill="white" stroke="#666666" points="331,-126 184,-126 184,-96 331,-96 331,-126"/>
<text text-anchor="start" x="192" y="-114" font-family="Helvetica,sans-Serif" font-size="10.00">DynExpInstr::ZI_MFLITasks</text>
<text text-anchor="middle" x="257.5" y="-103" font-family="Helvetica,sans-Serif" font-size="10.00">::StartTask</text>
</a>
</g>
</g>
<!-- Node1&#45;&gt;Node18 -->
<g id="edge17_Node000001_Node000018" class="edge">
<title>Node1&#45;&gt;Node18</title>
<g id="a_edge17_Node000001_Node000018"><a xlink:title=" ">
<path fill="none" stroke="#8b1a1a" d="M75.94,-421.61C80.66,-362.77 100.51,-215.93 183,-135 186.55,-131.52 190.6,-128.55 194.95,-126"/>
<polygon fill="#8b1a1a" stroke="#8b1a1a" points="72.43,-421.63 75.21,-431.85 79.41,-422.13 72.43,-421.63"/>
</a>
</g>
</g>
<!-- Node19 -->
<g id="Node000019" class="node">
<title>Node19</title>
<g id="a_Node000019"><a xlink:href="classDynExpInstr_1_1ZI__MFLITasks_1_1StopTask.html" target="_top" xlink:title=" ">
<polygon fill="white" stroke="#666666" points="331,-78 184,-78 184,-48 331,-48 331,-78"/>
<text text-anchor="start" x="192" y="-66" font-family="Helvetica,sans-Serif" font-size="10.00">DynExpInstr::ZI_MFLITasks</text>
<text text-anchor="middle" x="257.5" y="-55" font-family="Helvetica,sans-Serif" font-size="10.00">::StopTask</text>
</a>
</g>
</g>
<!-- Node1&#45;&gt;Node19 -->
<g id="edge18_Node000001_Node000019" class="edge">
<title>Node1&#45;&gt;Node19</title>
<g id="a_edge18_Node000001_Node000019"><a xlink:title=" ">
<path fill="none" stroke="#8b1a1a" d="M74.55,-421.8C76.08,-357 89.19,-182.98 183,-87 186.38,-83.54 190.26,-80.59 194.44,-78.05"/>
<polygon fill="#8b1a1a" stroke="#8b1a1a" points="71.05,-421.86 74.39,-431.91 78.05,-421.97 71.05,-421.86"/>
</a>
</g>
</g>
<!-- Node20 -->
<g id="Node000020" class="node">
<title>Node20</title>
<g id="a_Node000020"><a xlink:href="classDynExpInstr_1_1ZI__MFLITasks_1_1UpdateTask.html" target="_top" xlink:title=" ">
<polygon fill="white" stroke="#666666" points="331,-30 184,-30 184,0 331,0 331,-30"/>
<text text-anchor="start" x="192" y="-18" font-family="Helvetica,sans-Serif" font-size="10.00">DynExpInstr::ZI_MFLITasks</text>
<text text-anchor="middle" x="257.5" y="-7" font-family="Helvetica,sans-Serif" font-size="10.00">::UpdateTask</text>
</a>
</g>
</g>
<!-- Node1&#45;&gt;Node20 -->
<g id="edge19_Node000001_Node000020" class="edge">
<title>Node1&#45;&gt;Node20</title>
<g id="a_edge19_Node000001_Node000020"><a xlink:title=" ">
<path fill="none" stroke="#8b1a1a" d="M78.04,-421.65C89.7,-341.56 129.25,-95.83 183,-39 186.23,-35.59 189.95,-32.66 193.96,-30.15"/>
<polygon fill="#8b1a1a" stroke="#8b1a1a" points="74.54,-421.42 76.58,-431.82 81.47,-422.42 74.54,-421.42"/>
</a>
</g>
</g>
</g>
</svg>
