<?xml version="1.0" encoding="UTF-8" standalone="no"?>
<!DOCTYPE svg PUBLIC "-//W3C//DTD SVG 1.1//EN"
 "http://www.w3.org/Graphics/SVG/1.1/DTD/svg11.dtd">
<!-- Generated by graphviz version 2.43.0 (0)
 -->
<!-- Title: DynExpModule::ImageViewer::AutofocusEvent Pages: 1 -->
<svg width="178pt" height="214pt"
 viewBox="0.00 0.00 178.00 214.00" xmlns="http://www.w3.org/2000/svg" xmlns:xlink="http://www.w3.org/1999/xlink">
<g id="graph0" class="graph" transform="scale(1 1) rotate(0) translate(4 210)">
<title>DynExpModule::ImageViewer::AutofocusEvent</title>
<!-- Node1 -->
<g id="Node000001" class="node">
<title>Node1</title>
<g id="a_Node000001"><a xlink:title=" ">
<polygon fill="#999999" stroke="#666666" points="165.5,-30 4.5,-30 4.5,0 165.5,0 165.5,-30"/>
<text text-anchor="start" x="12.5" y="-18" font-family="Helvetica,sans-Serif" font-size="10.00">DynExpModule::ImageViewer</text>
<text text-anchor="middle" x="85" y="-7" font-family="Helvetica,sans-Serif" font-size="10.00">::AutofocusEvent</text>
</a>
</g>
</g>
<!-- Node2 -->
<g id="Node000002" class="node">
<title>Node2</title>
<g id="a_Node000002"><a xlink:href="classDynExp_1_1InterModuleEvent.html" target="_top" xlink:title=" ">
<polygon fill="white" stroke="#666666" points="158,-96 12,-96 12,-66 158,-66 158,-96"/>
<text text-anchor="start" x="20" y="-84" font-family="Helvetica,sans-Serif" font-size="10.00">DynExp::InterModuleEvent</text>
<text text-anchor="middle" x="85" y="-73" font-family="Helvetica,sans-Serif" font-size="10.00">&lt; AutofocusEvent, bool &gt;</text>
</a>
</g>
</g>
<!-- Node2&#45;&gt;Node1 -->
<g id="edge1_Node000001_Node000002" class="edge">
<title>Node2&#45;&gt;Node1</title>
<g id="a_edge1_Node000001_Node000002"><a xlink:title=" ">
<path fill="none" stroke="#63b8ff" d="M85,-55.54C85,-46.96 85,-37.61 85,-30.16"/>
<polygon fill="#63b8ff" stroke="#63b8ff" points="81.5,-55.8 85,-65.8 88.5,-55.8 81.5,-55.8"/>
</a>
</g>
</g>
<!-- Node3 -->
<g id="Node000003" class="node">
<title>Node3</title>
<g id="a_Node000003"><a xlink:href="classDynExp_1_1InterModuleEventBase.html" target="_top" xlink:title="Common base class for all inter&#45;module events.">
<polygon fill="white" stroke="#666666" points="170,-151 0,-151 0,-132 170,-132 170,-151"/>
<text text-anchor="middle" x="85" y="-139" font-family="Helvetica,sans-Serif" font-size="10.00">DynExp::InterModuleEventBase</text>
</a>
</g>
</g>
<!-- Node3&#45;&gt;Node2 -->
<g id="edge2_Node000002_Node000003" class="edge">
<title>Node3&#45;&gt;Node2</title>
<g id="a_edge2_Node000002_Node000003"><a xlink:title=" ">
<path fill="none" stroke="#63b8ff" d="M85,-121.65C85,-113.36 85,-103.78 85,-96.11"/>
<polygon fill="#63b8ff" stroke="#63b8ff" points="81.5,-121.87 85,-131.87 88.5,-121.87 81.5,-121.87"/>
</a>
</g>
</g>
<!-- Node4 -->
<g id="Node000004" class="node">
<title>Node4</title>
<g id="a_Node000004"><a xlink:href="classDynExp_1_1EventBase.html" target="_top" xlink:title="Common base class for all events to store them in a FIFO queue to be invoked later.">
<polygon fill="white" stroke="#666666" points="141,-206 29,-206 29,-187 141,-187 141,-206"/>
<text text-anchor="middle" x="85" y="-194" font-family="Helvetica,sans-Serif" font-size="10.00">DynExp::EventBase</text>
</a>
</g>
</g>
<!-- Node4&#45;&gt;Node3 -->
<g id="edge3_Node000003_Node000004" class="edge">
<title>Node4&#45;&gt;Node3</title>
<g id="a_edge3_Node000003_Node000004"><a xlink:title=" ">
<path fill="none" stroke="#63b8ff" d="M85,-176.66C85,-167.93 85,-157.99 85,-151.09"/>
<polygon fill="#63b8ff" stroke="#63b8ff" points="81.5,-176.75 85,-186.75 88.5,-176.75 81.5,-176.75"/>
</a>
</g>
</g>
</g>
</svg>
