<?xml version="1.0" encoding="UTF-8" standalone="no"?>
<!DOCTYPE svg PUBLIC "-//W3C//DTD SVG 1.1//EN"
 "http://www.w3.org/Graphics/SVG/1.1/DTD/svg11.dtd">
<!-- Generated by graphviz version 2.43.0 (0)
 -->
<!-- Title: DynExpInstr::NetworkAnalogInData&lt; BaseInstr,, gRPCStubs &gt; Pages: 1 -->
<svg width="196pt" height="240pt"
 viewBox="0.00 0.00 196.00 240.00" xmlns="http://www.w3.org/2000/svg" xmlns:xlink="http://www.w3.org/1999/xlink">
<g id="graph0" class="graph" transform="scale(1 1) rotate(0) translate(4 236)">
<title>DynExpInstr::NetworkAnalogInData&lt; BaseInstr,, gRPCStubs &gt;</title>
<polygon fill="white" stroke="transparent" points="-4,4 -4,-236 192,-236 192,4 -4,4"/>
<!-- Node1 -->
<g id="node1" class="node">
<title>Node1</title>
<g id="a_node1"><a xlink:title=" ">
<polygon fill="#bfbfbf" stroke="black" points="4.5,-0.5 4.5,-30.5 183.5,-30.5 183.5,-0.5 4.5,-0.5"/>
<text text-anchor="start" x="12.5" y="-18.5" font-family="Helvetica,sans-Serif" font-size="10.00">DynExpInstr::NetworkAnalog</text>
<text text-anchor="middle" x="94" y="-7.5" font-family="Helvetica,sans-Serif" font-size="10.00">InData&lt; BaseInstr,, gRPCStubs &gt;</text>
</a>
</g>
</g>
<!-- Node2 -->
<g id="node2" class="node">
<title>Node2</title>
<g id="a_node2"><a xlink:href="classDynExpInstr_1_1NetworkDataStreamInstrumentData.html" target="_top" xlink:title=" ">
<polygon fill="white" stroke="black" points="16,-67.5 16,-108.5 172,-108.5 172,-67.5 16,-67.5"/>
<text text-anchor="start" x="24" y="-96.5" font-family="Helvetica,sans-Serif" font-size="10.00">DynExpInstr::NetworkData</text>
<text text-anchor="start" x="24" y="-85.5" font-family="Helvetica,sans-Serif" font-size="10.00">StreamInstrumentData&lt;</text>
<text text-anchor="middle" x="94" y="-74.5" font-family="Helvetica,sans-Serif" font-size="10.00"> BaseInstr, 0, gRPCStubs... &gt;</text>
</a>
</g>
</g>
<!-- Node2&#45;&gt;Node1 -->
<g id="edge1" class="edge">
<title>Node2&#45;&gt;Node1</title>
<path fill="none" stroke="midnightblue" d="M94,-57.08C94,-48.01 94,-38.45 94,-30.89"/>
<polygon fill="midnightblue" stroke="midnightblue" points="90.5,-57.36 94,-67.36 97.5,-57.36 90.5,-57.36"/>
</g>
<!-- Node3 -->
<g id="node3" class="node">
<title>Node3</title>
<g id="a_node3"><a xlink:href="classDynExpInstr_1_1gRPCInstrumentData.html" target="_top" xlink:title=" ">
<polygon fill="white" stroke="black" points="0,-145.5 0,-175.5 188,-175.5 188,-145.5 0,-145.5"/>
<text text-anchor="start" x="8" y="-163.5" font-family="Helvetica,sans-Serif" font-size="10.00">DynExpInstr::gRPCInstrument</text>
<text text-anchor="middle" x="94" y="-152.5" font-family="Helvetica,sans-Serif" font-size="10.00">Data&lt; BaseInstr, 0, gRPCStubs... &gt;</text>
</a>
</g>
</g>
<!-- Node3&#45;&gt;Node2 -->
<g id="edge2" class="edge">
<title>Node3&#45;&gt;Node2</title>
<path fill="none" stroke="midnightblue" d="M94,-134.98C94,-126.35 94,-116.76 94,-108.59"/>
<polygon fill="midnightblue" stroke="midnightblue" points="90.5,-135.23 94,-145.23 97.5,-135.23 90.5,-135.23"/>
</g>
<!-- Node4 -->
<g id="node4" class="node">
<title>Node4</title>
<g id="a_node4"><a xlink:title=" ">
<polygon fill="white" stroke="#bfbfbf" points="10.5,-212.5 10.5,-231.5 177.5,-231.5 177.5,-212.5 10.5,-212.5"/>
<text text-anchor="middle" x="94" y="-219.5" font-family="Helvetica,sans-Serif" font-size="10.00">BaseInstr::InstrumentDataType</text>
</a>
</g>
</g>
<!-- Node4&#45;&gt;Node3 -->
<g id="edge3" class="edge">
<title>Node4&#45;&gt;Node3</title>
<path fill="none" stroke="midnightblue" d="M94,-202.23C94,-193.59 94,-183.5 94,-175.52"/>
<polygon fill="midnightblue" stroke="midnightblue" points="90.5,-202.48 94,-212.48 97.5,-202.48 90.5,-202.48"/>
</g>
</g>
</svg>
