<?xml version="1.0" encoding="UTF-8" standalone="no"?>
<!DOCTYPE svg PUBLIC "-//W3C//DTD SVG 1.1//EN"
 "http://www.w3.org/Graphics/SVG/1.1/DTD/svg11.dtd">
<!-- Generated by graphviz version 2.43.0 (0)
 -->
<!-- Title: DynExpInstr::NIDAQDigitalInData Pages: 1 -->
<svg width="225pt" height="386pt"
 viewBox="0.00 0.00 225.00 386.00" xmlns="http://www.w3.org/2000/svg" xmlns:xlink="http://www.w3.org/1999/xlink">
<g id="graph0" class="graph" transform="scale(1 1) rotate(0) translate(4 382)">
<title>DynExpInstr::NIDAQDigitalInData</title>
<polygon fill="white" stroke="transparent" points="-4,4 -4,-382 221,-382 221,4 -4,4"/>
<!-- Node1 -->
<g id="node1" class="node">
<title>Node1</title>
<g id="a_node1"><a xlink:title=" ">
<polygon fill="#bfbfbf" stroke="black" points="35.5,-0.5 35.5,-30.5 181.5,-30.5 181.5,-0.5 35.5,-0.5"/>
<text text-anchor="start" x="43.5" y="-18.5" font-family="Helvetica,sans-Serif" font-size="10.00">DynExpInstr::NIDAQDigital</text>
<text text-anchor="middle" x="108.5" y="-7.5" font-family="Helvetica,sans-Serif" font-size="10.00">InData</text>
</a>
</g>
</g>
<!-- Node2 -->
<g id="node2" class="node">
<title>Node2</title>
<g id="a_node2"><a xlink:href="classDynExpInstr_1_1DigitalInData.html" target="_top" xlink:title="Data class for DigitalIn.">
<polygon fill="white" stroke="black" points="35.5,-67.5 35.5,-86.5 181.5,-86.5 181.5,-67.5 35.5,-67.5"/>
<text text-anchor="middle" x="108.5" y="-74.5" font-family="Helvetica,sans-Serif" font-size="10.00">DynExpInstr::DigitalInData</text>
</a>
</g>
</g>
<!-- Node2&#45;&gt;Node1 -->
<g id="edge1" class="edge">
<title>Node2&#45;&gt;Node1</title>
<path fill="none" stroke="midnightblue" d="M108.5,-57.23C108.5,-48.59 108.5,-38.5 108.5,-30.52"/>
<polygon fill="midnightblue" stroke="midnightblue" points="105,-57.48 108.5,-67.48 112,-57.48 105,-57.48"/>
</g>
<!-- Node3 -->
<g id="node3" class="node">
<title>Node3</title>
<g id="a_node3"><a xlink:href="classDynExpInstr_1_1InputPortData.html" target="_top" xlink:title="Data class for InputPort.">
<polygon fill="white" stroke="black" points="34,-123.5 34,-142.5 183,-142.5 183,-123.5 34,-123.5"/>
<text text-anchor="middle" x="108.5" y="-130.5" font-family="Helvetica,sans-Serif" font-size="10.00">DynExpInstr::InputPortData</text>
</a>
</g>
</g>
<!-- Node3&#45;&gt;Node2 -->
<g id="edge2" class="edge">
<title>Node3&#45;&gt;Node2</title>
<path fill="none" stroke="midnightblue" d="M108.5,-112.8C108.5,-103.91 108.5,-93.78 108.5,-86.75"/>
<polygon fill="midnightblue" stroke="midnightblue" points="105,-113.08 108.5,-123.08 112,-113.08 105,-113.08"/>
</g>
<!-- Node4 -->
<g id="node4" class="node">
<title>Node4</title>
<g id="a_node4"><a xlink:href="classDynExpInstr_1_1DataStreamInstrumentData.html" target="_top" xlink:title="Data class for DataStreamInstrument.">
<polygon fill="white" stroke="black" points="0,-179.5 0,-198.5 217,-198.5 217,-179.5 0,-179.5"/>
<text text-anchor="middle" x="108.5" y="-186.5" font-family="Helvetica,sans-Serif" font-size="10.00">DynExpInstr::DataStreamInstrumentData</text>
</a>
</g>
</g>
<!-- Node4&#45;&gt;Node3 -->
<g id="edge3" class="edge">
<title>Node4&#45;&gt;Node3</title>
<path fill="none" stroke="midnightblue" d="M108.5,-168.8C108.5,-159.91 108.5,-149.78 108.5,-142.75"/>
<polygon fill="midnightblue" stroke="midnightblue" points="105,-169.08 108.5,-179.08 112,-169.08 105,-169.08"/>
</g>
<!-- Node5 -->
<g id="node5" class="node">
<title>Node5</title>
<g id="a_node5"><a xlink:href="classDynExp_1_1InstrumentDataBase.html" target="_top" xlink:title="Data structure to contain data which is synchronized in between different threads....">
<polygon fill="white" stroke="black" points="28,-235.5 28,-254.5 189,-254.5 189,-235.5 28,-235.5"/>
<text text-anchor="middle" x="108.5" y="-242.5" font-family="Helvetica,sans-Serif" font-size="10.00">DynExp::InstrumentDataBase</text>
</a>
</g>
</g>
<!-- Node5&#45;&gt;Node4 -->
<g id="edge4" class="edge">
<title>Node5&#45;&gt;Node4</title>
<path fill="none" stroke="midnightblue" d="M108.5,-224.8C108.5,-215.91 108.5,-205.78 108.5,-198.75"/>
<polygon fill="midnightblue" stroke="midnightblue" points="105,-225.08 108.5,-235.08 112,-225.08 105,-225.08"/>
</g>
<!-- Node6 -->
<g id="node6" class="node">
<title>Node6</title>
<g id="a_node6"><a xlink:href="classUtil_1_1ISynchronizedPointerLockable.html" target="_top" xlink:title="Interface to allow synchronizing the access to derived classes between different threads by making th...">
<polygon fill="white" stroke="black" points="37,-291.5 37,-321.5 180,-321.5 180,-291.5 37,-291.5"/>
<text text-anchor="start" x="45" y="-309.5" font-family="Helvetica,sans-Serif" font-size="10.00">Util::ISynchronizedPointer</text>
<text text-anchor="middle" x="108.5" y="-298.5" font-family="Helvetica,sans-Serif" font-size="10.00">Lockable</text>
</a>
</g>
</g>
<!-- Node6&#45;&gt;Node5 -->
<g id="edge5" class="edge">
<title>Node6&#45;&gt;Node5</title>
<path fill="none" stroke="midnightblue" d="M108.5,-281.29C108.5,-271.86 108.5,-261.65 108.5,-254.66"/>
<polygon fill="midnightblue" stroke="midnightblue" points="105,-281.4 108.5,-291.4 112,-281.4 105,-281.4"/>
</g>
<!-- Node7 -->
<g id="node7" class="node">
<title>Node7</title>
<g id="a_node7"><a xlink:href="classUtil_1_1INonCopyable.html" target="_top" xlink:title="Interface to delete copy constructor and copy assignment operator and thus make derived classes non&#45;c...">
<polygon fill="white" stroke="black" points="54.5,-358.5 54.5,-377.5 162.5,-377.5 162.5,-358.5 54.5,-358.5"/>
<text text-anchor="middle" x="108.5" y="-365.5" font-family="Helvetica,sans-Serif" font-size="10.00">Util::INonCopyable</text>
</a>
</g>
</g>
<!-- Node7&#45;&gt;Node6 -->
<g id="edge6" class="edge">
<title>Node7&#45;&gt;Node6</title>
<path fill="none" stroke="midnightblue" d="M108.5,-348.23C108.5,-339.59 108.5,-329.5 108.5,-321.52"/>
<polygon fill="midnightblue" stroke="midnightblue" points="105,-348.48 108.5,-358.48 112,-348.48 105,-348.48"/>
</g>
</g>
</svg>
