<?xml version="1.0" encoding="UTF-8" standalone="no"?>
<!DOCTYPE svg PUBLIC "-//W3C//DTD SVG 1.1//EN"
 "http://www.w3.org/Graphics/SVG/1.1/DTD/svg11.dtd">
<!-- Generated by graphviz version 2.43.0 (0)
 -->
<!-- Title: DynExp::RunnableInstance Pages: 1 -->
<svg width="318pt" height="140pt"
 viewBox="0.00 0.00 318.00 140.00" xmlns="http://www.w3.org/2000/svg" xmlns:xlink="http://www.w3.org/1999/xlink">
<g id="graph0" class="graph" transform="scale(1 1) rotate(0) translate(4 136)">
<title>DynExp::RunnableInstance</title>
<polygon fill="white" stroke="transparent" points="-4,4 -4,-136 314,-136 314,4 -4,4"/>
<!-- Node1 -->
<g id="node1" class="node">
<title>Node1</title>
<g id="a_node1"><a xlink:title="Defines data for a thread belonging to a RunnableObject instance. This data is only accessed by the R...">
<polygon fill="#bfbfbf" stroke="black" points="86,-56.5 86,-75.5 233,-75.5 233,-56.5 86,-56.5"/>
<text text-anchor="middle" x="159.5" y="-63.5" font-family="Helvetica,sans-Serif" font-size="10.00">DynExp::RunnableInstance</text>
</a>
</g>
</g>
<!-- Node3 -->
<g id="node3" class="node">
<title>Node3</title>
<g id="a_node3"><a xlink:href="classDynExp_1_1InstrumentInstance.html" target="_top" xlink:title="Defines data for a thread belonging to a InstrumentBase instance. Refer to RunnableInstance.">
<polygon fill="white" stroke="black" points="0,-0.5 0,-19.5 155,-19.5 155,-0.5 0,-0.5"/>
<text text-anchor="middle" x="77.5" y="-7.5" font-family="Helvetica,sans-Serif" font-size="10.00">DynExp::InstrumentInstance</text>
</a>
</g>
</g>
<!-- Node1&#45;&gt;Node3 -->
<g id="edge2" class="edge">
<title>Node1&#45;&gt;Node3</title>
<path fill="none" stroke="midnightblue" d="M137.67,-50.62C122.69,-40.76 103.3,-27.99 90.64,-19.65"/>
<polygon fill="midnightblue" stroke="midnightblue" points="136.05,-53.75 146.33,-56.32 139.9,-47.9 136.05,-53.75"/>
</g>
<!-- Node4 -->
<g id="node4" class="node">
<title>Node4</title>
<g id="a_node4"><a xlink:href="classDynExp_1_1ModuleInstance.html" target="_top" xlink:title="Defines data for a thread belonging to a ModuleBase instance. Refer to RunnableInstance.">
<polygon fill="white" stroke="black" points="173,-0.5 173,-19.5 310,-19.5 310,-0.5 173,-0.5"/>
<text text-anchor="middle" x="241.5" y="-7.5" font-family="Helvetica,sans-Serif" font-size="10.00">DynExp::ModuleInstance</text>
</a>
</g>
</g>
<!-- Node1&#45;&gt;Node4 -->
<g id="edge3" class="edge">
<title>Node1&#45;&gt;Node4</title>
<path fill="none" stroke="midnightblue" d="M181.33,-50.62C196.31,-40.76 215.7,-27.99 228.36,-19.65"/>
<polygon fill="midnightblue" stroke="midnightblue" points="179.1,-47.9 172.67,-56.32 182.95,-53.75 179.1,-47.9"/>
</g>
<!-- Node2 -->
<g id="node2" class="node">
<title>Node2</title>
<g id="a_node2"><a xlink:href="classUtil_1_1INonCopyable.html" target="_top" xlink:title="Interface to delete copy constructor and copy assignment operator and thus make derived classes non&#45;c...">
<polygon fill="white" stroke="black" points="105.5,-112.5 105.5,-131.5 213.5,-131.5 213.5,-112.5 105.5,-112.5"/>
<text text-anchor="middle" x="159.5" y="-119.5" font-family="Helvetica,sans-Serif" font-size="10.00">Util::INonCopyable</text>
</a>
</g>
</g>
<!-- Node2&#45;&gt;Node1 -->
<g id="edge1" class="edge">
<title>Node2&#45;&gt;Node1</title>
<path fill="none" stroke="midnightblue" d="M159.5,-101.8C159.5,-92.91 159.5,-82.78 159.5,-75.75"/>
<polygon fill="midnightblue" stroke="midnightblue" points="156,-102.08 159.5,-112.08 163,-102.08 156,-102.08"/>
</g>
</g>
</svg>
