<?xml version="1.0" encoding="UTF-8" standalone="no"?>
<!DOCTYPE svg PUBLIC "-//W3C//DTD SVG 1.1//EN"
 "http://www.w3.org/Graphics/SVG/1.1/DTD/svg11.dtd">
<!-- Generated by graphviz version 2.43.0 (0)
 -->
<!-- Title: Util::InvalidObjectLinkException Pages: 1 -->
<svg width="181pt" height="247pt"
 viewBox="0.00 0.00 181.00 247.00" xmlns="http://www.w3.org/2000/svg" xmlns:xlink="http://www.w3.org/1999/xlink">
<g id="graph0" class="graph" transform="scale(1 1) rotate(0) translate(4 243)">
<title>Util::InvalidObjectLinkException</title>
<!-- Node1 -->
<g id="Node000001" class="node">
<title>Node1</title>
<g id="a_Node000001"><a xlink:title="Thrown when RunnableInstance cannot lock an object to be used by another object due to an invalid lin...">
<polygon fill="#999999" stroke="#666666" points="173,-19 0,-19 0,0 173,0 173,-19"/>
<text text-anchor="middle" x="86.5" y="-7" font-family="Helvetica,sans-Serif" font-size="10.00">Util::InvalidObjectLinkException</text>
</a>
</g>
</g>
<!-- Node2 -->
<g id="Node000002" class="node">
<title>Node2</title>
<g id="a_Node000002"><a xlink:href="classUtil_1_1InvalidStateException.html" target="_top" xlink:title="An operation cannot be performed currently since the related object is in an invalid state like an er...">
<polygon fill="white" stroke="#666666" points="159.5,-74 13.5,-74 13.5,-55 159.5,-55 159.5,-74"/>
<text text-anchor="middle" x="86.5" y="-62" font-family="Helvetica,sans-Serif" font-size="10.00">Util::InvalidStateException</text>
</a>
</g>
</g>
<!-- Node2&#45;&gt;Node1 -->
<g id="edge1_Node000001_Node000002" class="edge">
<title>Node2&#45;&gt;Node1</title>
<g id="a_edge1_Node000001_Node000002"><a xlink:title=" ">
<path fill="none" stroke="#63b8ff" d="M86.5,-44.66C86.5,-35.93 86.5,-25.99 86.5,-19.09"/>
<polygon fill="#63b8ff" stroke="#63b8ff" points="83,-44.75 86.5,-54.75 90,-44.75 83,-44.75"/>
</a>
</g>
</g>
<!-- Node3 -->
<g id="Node000003" class="node">
<title>Node3</title>
<g id="a_Node000003"><a xlink:href="classUtil_1_1Exception.html" target="_top" xlink:title="DynExp exceptions are derived from this class. It contains basic information about the cause of the e...">
<polygon fill="white" stroke="#666666" points="130.5,-129 42.5,-129 42.5,-110 130.5,-110 130.5,-129"/>
<text text-anchor="middle" x="86.5" y="-117" font-family="Helvetica,sans-Serif" font-size="10.00">Util::Exception</text>
</a>
</g>
</g>
<!-- Node3&#45;&gt;Node2 -->
<g id="edge2_Node000002_Node000003" class="edge">
<title>Node3&#45;&gt;Node2</title>
<g id="a_edge2_Node000002_Node000003"><a xlink:title=" ">
<path fill="none" stroke="#63b8ff" d="M86.5,-99.66C86.5,-90.93 86.5,-80.99 86.5,-74.09"/>
<polygon fill="#63b8ff" stroke="#63b8ff" points="83,-99.75 86.5,-109.75 90,-99.75 83,-99.75"/>
</a>
</g>
</g>
<!-- Node4 -->
<g id="Node000004" class="node">
<title>Node4</title>
<g id="a_Node000004"><a xlink:title=" ">
<polygon fill="white" stroke="#666666" points="138.5,-184 34.5,-184 34.5,-165 138.5,-165 138.5,-184"/>
<text text-anchor="middle" x="86.5" y="-172" font-family="Helvetica,sans-Serif" font-size="10.00">std::runtime_error</text>
</a>
</g>
</g>
<!-- Node4&#45;&gt;Node3 -->
<g id="edge3_Node000003_Node000004" class="edge">
<title>Node4&#45;&gt;Node3</title>
<g id="a_edge3_Node000003_Node000004"><a xlink:title=" ">
<path fill="none" stroke="#63b8ff" d="M86.5,-154.66C86.5,-145.93 86.5,-135.99 86.5,-129.09"/>
<polygon fill="#63b8ff" stroke="#63b8ff" points="83,-154.75 86.5,-164.75 90,-154.75 83,-154.75"/>
</a>
</g>
</g>
<!-- Node5 -->
<g id="Node000005" class="node">
<title>Node5</title>
<g id="a_Node000005"><a xlink:title=" ">
<polygon fill="white" stroke="#666666" points="129.5,-239 43.5,-239 43.5,-220 129.5,-220 129.5,-239"/>
<text text-anchor="middle" x="86.5" y="-227" font-family="Helvetica,sans-Serif" font-size="10.00">std::exception</text>
</a>
</g>
</g>
<!-- Node5&#45;&gt;Node4 -->
<g id="edge4_Node000004_Node000005" class="edge">
<title>Node5&#45;&gt;Node4</title>
<g id="a_edge4_Node000004_Node000005"><a xlink:title=" ">
<path fill="none" stroke="#63b8ff" d="M86.5,-209.66C86.5,-200.93 86.5,-190.99 86.5,-184.09"/>
<polygon fill="#63b8ff" stroke="#63b8ff" points="83,-209.75 86.5,-219.75 90,-209.75 83,-209.75"/>
</a>
</g>
</g>
</g>
</svg>
