<?xml version="1.0" encoding="UTF-8" standalone="no"?>
<!DOCTYPE svg PUBLIC "-//W3C//DTD SVG 1.1//EN"
 "http://www.w3.org/Graphics/SVG/1.1/DTD/svg11.dtd">
<!-- Generated by graphviz version 2.43.0 (0)
 -->
<!-- Title: DynExp::HardwareAdapterTcpSocketParams Pages: 1 -->
<svg width="214pt" height="408pt"
 viewBox="0.00 0.00 214.00 408.00" xmlns="http://www.w3.org/2000/svg" xmlns:xlink="http://www.w3.org/1999/xlink">
<g id="graph0" class="graph" transform="scale(1 1) rotate(0) translate(4 404)">
<title>DynExp::HardwareAdapterTcpSocketParams</title>
<polygon fill="white" stroke="transparent" points="-4,4 -4,-404 210,-404 210,4 -4,4"/>
<!-- Node1 -->
<g id="node1" class="node">
<title>Node1</title>
<g id="a_node1"><a xlink:title="Parameter class for HardwareAdapterTcpSocket.">
<polygon fill="#bfbfbf" stroke="black" points="22.5,-0.5 22.5,-30.5 183.5,-30.5 183.5,-0.5 22.5,-0.5"/>
<text text-anchor="start" x="30.5" y="-18.5" font-family="Helvetica,sans-Serif" font-size="10.00">DynExp::HardwareAdapterTcp</text>
<text text-anchor="middle" x="103" y="-7.5" font-family="Helvetica,sans-Serif" font-size="10.00">SocketParams</text>
</a>
</g>
</g>
<!-- Node2 -->
<g id="node2" class="node">
<title>Node2</title>
<g id="a_node2"><a xlink:href="classDynExp_1_1QSerialCommunicationHardwareAdapterParams.html" target="_top" xlink:title="Parameter class for QSerialCommunicationHardwareAdapter.">
<polygon fill="white" stroke="black" points="16.5,-67.5 16.5,-97.5 189.5,-97.5 189.5,-67.5 16.5,-67.5"/>
<text text-anchor="start" x="24.5" y="-85.5" font-family="Helvetica,sans-Serif" font-size="10.00">DynExp::QSerialCommunication</text>
<text text-anchor="middle" x="103" y="-74.5" font-family="Helvetica,sans-Serif" font-size="10.00">HardwareAdapterParams</text>
</a>
</g>
</g>
<!-- Node2&#45;&gt;Node1 -->
<g id="edge1" class="edge">
<title>Node2&#45;&gt;Node1</title>
<path fill="none" stroke="midnightblue" d="M103,-57.11C103,-48.15 103,-38.32 103,-30.58"/>
<polygon fill="midnightblue" stroke="midnightblue" points="99.5,-57.4 103,-67.4 106.5,-57.4 99.5,-57.4"/>
</g>
<!-- Node3 -->
<g id="node3" class="node">
<title>Node3</title>
<g id="a_node3"><a xlink:href="classDynExp_1_1SerialCommunicationHardwareAdapterParams.html" target="_top" xlink:title="Parameter class for SerialCommunicationHardwareAdapter.">
<polygon fill="white" stroke="black" points="20.5,-134.5 20.5,-164.5 185.5,-164.5 185.5,-134.5 20.5,-134.5"/>
<text text-anchor="start" x="28.5" y="-152.5" font-family="Helvetica,sans-Serif" font-size="10.00">DynExp::SerialCommunication</text>
<text text-anchor="middle" x="103" y="-141.5" font-family="Helvetica,sans-Serif" font-size="10.00">HardwareAdapterParams</text>
</a>
</g>
</g>
<!-- Node3&#45;&gt;Node2 -->
<g id="edge2" class="edge">
<title>Node3&#45;&gt;Node2</title>
<path fill="none" stroke="midnightblue" d="M103,-124.11C103,-115.15 103,-105.32 103,-97.58"/>
<polygon fill="midnightblue" stroke="midnightblue" points="99.5,-124.4 103,-134.4 106.5,-124.4 99.5,-124.4"/>
</g>
<!-- Node4 -->
<g id="node4" class="node">
<title>Node4</title>
<g id="a_node4"><a xlink:href="classDynExp_1_1HardwareAdapterParamsBase.html" target="_top" xlink:title="Parameter class for HardwareAdapterBase.">
<polygon fill="white" stroke="black" points="0,-201.5 0,-220.5 206,-220.5 206,-201.5 0,-201.5"/>
<text text-anchor="middle" x="103" y="-208.5" font-family="Helvetica,sans-Serif" font-size="10.00">DynExp::HardwareAdapterParamsBase</text>
</a>
</g>
</g>
<!-- Node4&#45;&gt;Node3 -->
<g id="edge3" class="edge">
<title>Node4&#45;&gt;Node3</title>
<path fill="none" stroke="midnightblue" d="M103,-191.23C103,-182.59 103,-172.5 103,-164.52"/>
<polygon fill="midnightblue" stroke="midnightblue" points="99.5,-191.48 103,-201.48 106.5,-191.48 99.5,-191.48"/>
</g>
<!-- Node5 -->
<g id="node5" class="node">
<title>Node5</title>
<g id="a_node5"><a xlink:href="classDynExp_1_1ParamsBase.html" target="_top" xlink:title="Abstract base class for object parameter classes. Each class derived from class Object must be accomp...">
<polygon fill="white" stroke="black" points="43,-257.5 43,-276.5 163,-276.5 163,-257.5 43,-257.5"/>
<text text-anchor="middle" x="103" y="-264.5" font-family="Helvetica,sans-Serif" font-size="10.00">DynExp::ParamsBase</text>
</a>
</g>
</g>
<!-- Node5&#45;&gt;Node4 -->
<g id="edge4" class="edge">
<title>Node5&#45;&gt;Node4</title>
<path fill="none" stroke="midnightblue" d="M103,-246.8C103,-237.91 103,-227.78 103,-220.75"/>
<polygon fill="midnightblue" stroke="midnightblue" points="99.5,-247.08 103,-257.08 106.5,-247.08 99.5,-247.08"/>
</g>
<!-- Node6 -->
<g id="node6" class="node">
<title>Node6</title>
<g id="a_node6"><a xlink:href="classUtil_1_1ISynchronizedPointerLockable.html" target="_top" xlink:title="Interface to allow synchronizing the access to derived classes between different threads by making th...">
<polygon fill="white" stroke="black" points="31.5,-313.5 31.5,-343.5 174.5,-343.5 174.5,-313.5 31.5,-313.5"/>
<text text-anchor="start" x="39.5" y="-331.5" font-family="Helvetica,sans-Serif" font-size="10.00">Util::ISynchronizedPointer</text>
<text text-anchor="middle" x="103" y="-320.5" font-family="Helvetica,sans-Serif" font-size="10.00">Lockable</text>
</a>
</g>
</g>
<!-- Node6&#45;&gt;Node5 -->
<g id="edge5" class="edge">
<title>Node6&#45;&gt;Node5</title>
<path fill="none" stroke="midnightblue" d="M103,-303.29C103,-293.86 103,-283.65 103,-276.66"/>
<polygon fill="midnightblue" stroke="midnightblue" points="99.5,-303.4 103,-313.4 106.5,-303.4 99.5,-303.4"/>
</g>
<!-- Node7 -->
<g id="node7" class="node">
<title>Node7</title>
<g id="a_node7"><a xlink:href="classUtil_1_1INonCopyable.html" target="_top" xlink:title="Interface to delete copy constructor and copy assignment operator and thus make derived classes non&#45;c...">
<polygon fill="white" stroke="black" points="49,-380.5 49,-399.5 157,-399.5 157,-380.5 49,-380.5"/>
<text text-anchor="middle" x="103" y="-387.5" font-family="Helvetica,sans-Serif" font-size="10.00">Util::INonCopyable</text>
</a>
</g>
</g>
<!-- Node7&#45;&gt;Node6 -->
<g id="edge6" class="edge">
<title>Node7&#45;&gt;Node6</title>
<path fill="none" stroke="midnightblue" d="M103,-370.23C103,-361.59 103,-351.5 103,-343.52"/>
<polygon fill="midnightblue" stroke="midnightblue" points="99.5,-370.48 103,-380.48 106.5,-370.48 99.5,-370.48"/>
</g>
</g>
</svg>
