<?xml version="1.0" encoding="UTF-8" standalone="no"?>
<!DOCTYPE svg PUBLIC "-//W3C//DTD SVG 1.1//EN"
 "http://www.w3.org/Graphics/SVG/1.1/DTD/svg11.dtd">
<!-- Generated by graphviz version 2.43.0 (0)
 -->
<!-- Title: DynExpInstr::OutputPort Pages: 1 -->
<svg width="356pt" height="412pt"
 viewBox="0.00 0.00 355.50 412.00" xmlns="http://www.w3.org/2000/svg" xmlns:xlink="http://www.w3.org/1999/xlink">
<g id="graph0" class="graph" transform="scale(1 1) rotate(0) translate(4 408)">
<title>DynExpInstr::OutputPort</title>
<!-- Node1 -->
<g id="Node000001" class="node">
<title>Node1</title>
<g id="a_Node000001"><a xlink:title="Generic output port meta instrument based on the data stream and function generator meta instruments ...">
<polygon fill="#999999" stroke="#666666" points="240.5,-129 106.5,-129 106.5,-110 240.5,-110 240.5,-129"/>
<text text-anchor="middle" x="173.5" y="-117" font-family="Helvetica,sans-Serif" font-size="10.00">DynExpInstr::OutputPort</text>
</a>
</g>
</g>
<!-- Node8 -->
<g id="Node000008" class="node">
<title>Node8</title>
<g id="a_Node000008"><a xlink:href="classDynExpInstr_1_1AnalogOut.html" target="_top" xlink:title="Meta instrument for a single analog output port based on the data stream, function generator,...">
<polygon fill="white" stroke="#666666" points="165,-74 32,-74 32,-55 165,-55 165,-74"/>
<text text-anchor="middle" x="98.5" y="-62" font-family="Helvetica,sans-Serif" font-size="10.00">DynExpInstr::AnalogOut</text>
</a>
</g>
</g>
<!-- Node1&#45;&gt;Node8 -->
<g id="edge7_Node000001_Node000008" class="edge">
<title>Node1&#45;&gt;Node8</title>
<g id="a_edge7_Node000001_Node000008"><a xlink:title=" ">
<path fill="none" stroke="#63b8ff" d="M153.19,-104.15C139.64,-94.57 122.26,-82.29 110.77,-74.17"/>
<polygon fill="#63b8ff" stroke="#63b8ff" points="151.26,-107.07 161.45,-109.98 155.3,-101.36 151.26,-107.07"/>
</a>
</g>
</g>
<!-- Node10 -->
<g id="Node000010" class="node">
<title>Node10</title>
<g id="a_Node000010"><a xlink:href="classDynExpInstr_1_1DigitalOut.html" target="_top" xlink:title="Meta instrument for a single digital output port based on the data stream, function generator,...">
<polygon fill="white" stroke="#666666" points="322,-74 191,-74 191,-55 322,-55 322,-74"/>
<text text-anchor="middle" x="256.5" y="-62" font-family="Helvetica,sans-Serif" font-size="10.00">DynExpInstr::DigitalOut</text>
</a>
</g>
</g>
<!-- Node1&#45;&gt;Node10 -->
<g id="edge9_Node000001_Node000010" class="edge">
<title>Node1&#45;&gt;Node10</title>
<g id="a_edge9_Node000001_Node000010"><a xlink:title=" ">
<path fill="none" stroke="#63b8ff" d="M195.54,-104.42C210.61,-94.81 230.09,-82.37 242.92,-74.17"/>
<polygon fill="#63b8ff" stroke="#63b8ff" points="193.38,-101.65 186.84,-109.98 197.15,-107.55 193.38,-101.65"/>
</a>
</g>
</g>
<!-- Node2 -->
<g id="Node000002" class="node">
<title>Node2</title>
<g id="a_Node000002"><a xlink:href="classDynExpInstr_1_1FunctionGenerator.html" target="_top" xlink:title="Function generator meta instrument based on the data stream meta instrument to generate waveforms by ...">
<polygon fill="white" stroke="#666666" points="259.5,-184 87.5,-184 87.5,-165 259.5,-165 259.5,-184"/>
<text text-anchor="middle" x="173.5" y="-172" font-family="Helvetica,sans-Serif" font-size="10.00">DynExpInstr::FunctionGenerator</text>
</a>
</g>
</g>
<!-- Node2&#45;&gt;Node1 -->
<g id="edge1_Node000001_Node000002" class="edge">
<title>Node2&#45;&gt;Node1</title>
<g id="a_edge1_Node000001_Node000002"><a xlink:title=" ">
<path fill="none" stroke="#63b8ff" d="M173.5,-154.66C173.5,-145.93 173.5,-135.99 173.5,-129.09"/>
<polygon fill="#63b8ff" stroke="#63b8ff" points="170,-154.75 173.5,-164.75 177,-154.75 170,-154.75"/>
</a>
</g>
</g>
<!-- Node3 -->
<g id="Node000003" class="node">
<title>Node3</title>
<g id="a_Node000003"><a xlink:href="classDynExpInstr_1_1DataStreamInstrument.html" target="_top" xlink:title="Implementation of the data stream meta instrument, which is a base class for all instruments reading/...">
<polygon fill="white" stroke="#666666" points="270.5,-239 76.5,-239 76.5,-220 270.5,-220 270.5,-239"/>
<text text-anchor="middle" x="173.5" y="-227" font-family="Helvetica,sans-Serif" font-size="10.00">DynExpInstr::DataStreamInstrument</text>
</a>
</g>
</g>
<!-- Node3&#45;&gt;Node2 -->
<g id="edge2_Node000002_Node000003" class="edge">
<title>Node3&#45;&gt;Node2</title>
<g id="a_edge2_Node000002_Node000003"><a xlink:title=" ">
<path fill="none" stroke="#63b8ff" d="M173.5,-209.66C173.5,-200.93 173.5,-190.99 173.5,-184.09"/>
<polygon fill="#63b8ff" stroke="#63b8ff" points="170,-209.75 173.5,-219.75 177,-209.75 170,-209.75"/>
</a>
</g>
</g>
<!-- Node4 -->
<g id="Node000004" class="node">
<title>Node4</title>
<g id="a_Node000004"><a xlink:href="classDynExp_1_1InstrumentBase.html" target="_top" xlink:title="Base class for instruments. Instruments comprise virtual devices (meta instruments) and physial devic...">
<polygon fill="white" stroke="#666666" points="242,-294 105,-294 105,-275 242,-275 242,-294"/>
<text text-anchor="middle" x="173.5" y="-282" font-family="Helvetica,sans-Serif" font-size="10.00">DynExp::InstrumentBase</text>
</a>
</g>
</g>
<!-- Node4&#45;&gt;Node3 -->
<g id="edge3_Node000003_Node000004" class="edge">
<title>Node4&#45;&gt;Node3</title>
<g id="a_edge3_Node000003_Node000004"><a xlink:title=" ">
<path fill="none" stroke="#63b8ff" d="M173.5,-264.66C173.5,-255.93 173.5,-245.99 173.5,-239.09"/>
<polygon fill="#63b8ff" stroke="#63b8ff" points="170,-264.75 173.5,-274.75 177,-264.75 170,-264.75"/>
</a>
</g>
</g>
<!-- Node5 -->
<g id="Node000005" class="node">
<title>Node5</title>
<g id="a_Node000005"><a xlink:href="classDynExp_1_1RunnableObject.html" target="_top" xlink:title="Defines an Object which possesses a thread it runs in. The RunnableObject can be started and stopped ...">
<polygon fill="white" stroke="#666666" points="242,-349 105,-349 105,-330 242,-330 242,-349"/>
<text text-anchor="middle" x="173.5" y="-337" font-family="Helvetica,sans-Serif" font-size="10.00">DynExp::RunnableObject</text>
</a>
</g>
</g>
<!-- Node5&#45;&gt;Node4 -->
<g id="edge4_Node000004_Node000005" class="edge">
<title>Node5&#45;&gt;Node4</title>
<g id="a_edge4_Node000004_Node000005"><a xlink:title=" ">
<path fill="none" stroke="#63b8ff" d="M173.5,-319.66C173.5,-310.93 173.5,-300.99 173.5,-294.09"/>
<polygon fill="#63b8ff" stroke="#63b8ff" points="170,-319.75 173.5,-329.75 177,-319.75 170,-319.75"/>
</a>
</g>
</g>
<!-- Node6 -->
<g id="Node000006" class="node">
<title>Node6</title>
<g id="a_Node000006"><a xlink:href="classUtil_1_1INonCopyable.html" target="_top" xlink:title="Interface to delete copy constructor and copy assignment operator and thus make derived classes non&#45;c...">
<polygon fill="white" stroke="#666666" points="168.5,-404 60.5,-404 60.5,-385 168.5,-385 168.5,-404"/>
<text text-anchor="middle" x="114.5" y="-392" font-family="Helvetica,sans-Serif" font-size="10.00">Util::INonCopyable</text>
</a>
</g>
</g>
<!-- Node6&#45;&gt;Node5 -->
<g id="edge5_Node000005_Node000006" class="edge">
<title>Node6&#45;&gt;Node5</title>
<g id="a_edge5_Node000005_Node000006"><a xlink:title=" ">
<path fill="none" stroke="#63b8ff" d="M131.7,-378.04C142.17,-368.64 155.15,-356.98 163.85,-349.17"/>
<polygon fill="#63b8ff" stroke="#63b8ff" points="129.08,-375.7 123.98,-384.98 133.76,-380.91 129.08,-375.7"/>
</a>
</g>
</g>
<!-- Node7 -->
<g id="Node000007" class="node">
<title>Node7</title>
<g id="a_Node000007"><a xlink:href="classDynExp_1_1Object.html" target="_top" xlink:title="Base class for all DynExp Objects like hardware adapters (DynExp::HardwareAdapterBase),...">
<polygon fill="white" stroke="#666666" points="278.5,-404 186.5,-404 186.5,-385 278.5,-385 278.5,-404"/>
<text text-anchor="middle" x="232.5" y="-392" font-family="Helvetica,sans-Serif" font-size="10.00">DynExp::Object</text>
</a>
</g>
</g>
<!-- Node7&#45;&gt;Node5 -->
<g id="edge6_Node000005_Node000007" class="edge">
<title>Node7&#45;&gt;Node5</title>
<g id="a_edge6_Node000005_Node000007"><a xlink:title=" ">
<path fill="none" stroke="#63b8ff" d="M215.3,-378.04C204.83,-368.64 191.85,-356.98 183.15,-349.17"/>
<polygon fill="#63b8ff" stroke="#63b8ff" points="213.24,-380.91 223.02,-384.98 217.92,-375.7 213.24,-380.91"/>
</a>
</g>
</g>
<!-- Node9 -->
<g id="Node000009" class="node">
<title>Node9</title>
<g id="a_Node000009"><a xlink:href="classDynExpInstr_1_1NIDAQAnalogOut.html" target="_top" xlink:title=" ">
<polygon fill="white" stroke="#666666" points="165,-19 0,-19 0,0 165,0 165,-19"/>
<text text-anchor="middle" x="82.5" y="-7" font-family="Helvetica,sans-Serif" font-size="10.00">DynExpInstr::NIDAQAnalogOut</text>
</a>
</g>
</g>
<!-- Node8&#45;&gt;Node9 -->
<g id="edge8_Node000008_Node000009" class="edge">
<title>Node8&#45;&gt;Node9</title>
<g id="a_edge8_Node000008_Node000009"><a xlink:title=" ">
<path fill="none" stroke="#63b8ff" d="M92.9,-44.95C90.24,-36.15 87.2,-26.06 85.09,-19.09"/>
<polygon fill="#63b8ff" stroke="#63b8ff" points="89.62,-46.19 95.86,-54.75 96.32,-44.16 89.62,-46.19"/>
</a>
</g>
</g>
<!-- Node11 -->
<g id="Node000011" class="node">
<title>Node11</title>
<g id="a_Node000011"><a xlink:href="classDynExpInstr_1_1NIDAQDigitalOut.html" target="_top" xlink:title=" ">
<polygon fill="white" stroke="#666666" points="347.5,-19 183.5,-19 183.5,0 347.5,0 347.5,-19"/>
<text text-anchor="middle" x="265.5" y="-7" font-family="Helvetica,sans-Serif" font-size="10.00">DynExpInstr::NIDAQDigitalOut</text>
</a>
</g>
</g>
<!-- Node10&#45;&gt;Node11 -->
<g id="edge10_Node000010_Node000011" class="edge">
<title>Node10&#45;&gt;Node11</title>
<g id="a_edge10_Node000010_Node000011"><a xlink:title=" ">
<path fill="none" stroke="#63b8ff" d="M259.7,-44.66C261.18,-35.93 262.87,-25.99 264.04,-19.09"/>
<polygon fill="#63b8ff" stroke="#63b8ff" points="256.21,-44.3 257.99,-54.75 263.11,-45.48 256.21,-44.3"/>
</a>
</g>
</g>
</g>
</svg>
