<?xml version="1.0" encoding="UTF-8" standalone="no"?>
<!DOCTYPE svg PUBLIC "-//W3C//DTD SVG 1.1//EN"
 "http://www.w3.org/Graphics/SVG/1.1/DTD/svg11.dtd">
<!-- Generated by graphviz version 2.43.0 (0)
 -->
<!-- Title: DynExp::ParamsBase::ListParam&lt; ParamType, std::enable_if_t&lt; !std::is_arithmetic_v&lt; ParamType &gt; &amp;&amp;!std::is_base_of_v&lt; ObjectLinkBase, ParamType &gt; &gt; &gt; Pages: 1 -->
<svg width="205pt" height="228pt"
 viewBox="0.00 0.00 205.00 228.00" xmlns="http://www.w3.org/2000/svg" xmlns:xlink="http://www.w3.org/1999/xlink">
<g id="graph0" class="graph" transform="scale(1 1) rotate(0) translate(4 224)">
<title>DynExp::ParamsBase::ListParam&lt; ParamType, std::enable_if_t&lt; !std::is_arithmetic_v&lt; ParamType &gt; &amp;&amp;!std::is_base_of_v&lt; ObjectLinkBase, ParamType &gt; &gt; &gt;</title>
<polygon fill="white" stroke="transparent" points="-4,4 -4,-224 201,-224 201,4 -4,4"/>
<!-- Node1 -->
<g id="node1" class="node">
<title>Node1</title>
<g id="a_node1"><a xlink:title="General list parameter for any ParamType (except the ones which are further specified below).">
<polygon fill="#bfbfbf" stroke="black" points="0,-0.5 0,-74.5 197,-74.5 197,-0.5 0,-0.5"/>
<text text-anchor="start" x="8" y="-62.5" font-family="Helvetica,sans-Serif" font-size="10.00">DynExp::ParamsBase</text>
<text text-anchor="start" x="8" y="-51.5" font-family="Helvetica,sans-Serif" font-size="10.00">::ListParam&lt; ParamType,</text>
<text text-anchor="start" x="8" y="-40.5" font-family="Helvetica,sans-Serif" font-size="10.00"> std::enable_if_t&lt; !std</text>
<text text-anchor="start" x="8" y="-29.5" font-family="Helvetica,sans-Serif" font-size="10.00">::is_arithmetic_v&lt; ParamType</text>
<text text-anchor="start" x="8" y="-18.5" font-family="Helvetica,sans-Serif" font-size="10.00"> &gt; &amp;&amp;!std::is_base_of_v&lt; ObjectLink</text>
<text text-anchor="middle" x="98.5" y="-7.5" font-family="Helvetica,sans-Serif" font-size="10.00">Base, ParamType &gt; &gt; &gt;</text>
</a>
</g>
</g>
<!-- Node2 -->
<g id="node2" class="node">
<title>Node2</title>
<g id="a_node2"><a xlink:href="classDynExp_1_1ParamsBase_1_1TypedListParamBase.html" target="_top" xlink:title="Base class of parameters containing lists of values.">
<polygon fill="white" stroke="black" points="37,-111.5 37,-152.5 160,-152.5 160,-111.5 37,-111.5"/>
<text text-anchor="start" x="45" y="-140.5" font-family="Helvetica,sans-Serif" font-size="10.00">DynExp::ParamsBase</text>
<text text-anchor="start" x="45" y="-129.5" font-family="Helvetica,sans-Serif" font-size="10.00">::TypedListParamBase</text>
<text text-anchor="middle" x="98.5" y="-118.5" font-family="Helvetica,sans-Serif" font-size="10.00">&lt; ParamType &gt;</text>
</a>
</g>
</g>
<!-- Node2&#45;&gt;Node1 -->
<g id="edge1" class="edge">
<title>Node2&#45;&gt;Node1</title>
<path fill="none" stroke="midnightblue" d="M98.5,-101.18C98.5,-92.69 98.5,-83.34 98.5,-74.52"/>
<polygon fill="midnightblue" stroke="midnightblue" points="95,-101.38 98.5,-111.38 102,-101.38 95,-101.38"/>
</g>
<!-- Node3 -->
<g id="node3" class="node">
<title>Node3</title>
<g id="a_node3"><a xlink:href="classDynExp_1_1ParamsBase_1_1ParamBase.html" target="_top" xlink:title="Abstract base class for a single object parameter. Parameters derived from this class are automatical...">
<polygon fill="white" stroke="black" points="38.5,-189.5 38.5,-219.5 158.5,-219.5 158.5,-189.5 38.5,-189.5"/>
<text text-anchor="start" x="46.5" y="-207.5" font-family="Helvetica,sans-Serif" font-size="10.00">DynExp::ParamsBase</text>
<text text-anchor="middle" x="98.5" y="-196.5" font-family="Helvetica,sans-Serif" font-size="10.00">::ParamBase</text>
</a>
</g>
</g>
<!-- Node3&#45;&gt;Node2 -->
<g id="edge2" class="edge">
<title>Node3&#45;&gt;Node2</title>
<path fill="none" stroke="midnightblue" d="M98.5,-178.98C98.5,-170.35 98.5,-160.76 98.5,-152.59"/>
<polygon fill="midnightblue" stroke="midnightblue" points="95,-179.23 98.5,-189.23 102,-179.23 95,-179.23"/>
</g>
</g>
</svg>
