<?xml version="1.0" encoding="UTF-8" standalone="no"?>
<!DOCTYPE svg PUBLIC "-//W3C//DTD SVG 1.1//EN"
 "http://www.w3.org/Graphics/SVG/1.1/DTD/svg11.dtd">
<!-- Generated by graphviz version 2.43.0 (0)
 -->
<!-- Title: DynExpInstr::AnalogIn Pages: 1 -->
<svg width="348pt" height="357pt"
 viewBox="0.00 0.00 347.50 357.00" xmlns="http://www.w3.org/2000/svg" xmlns:xlink="http://www.w3.org/1999/xlink">
<g id="graph0" class="graph" transform="scale(1 1) rotate(0) translate(4 353)">
<title>DynExpInstr::AnalogIn</title>
<!-- Node1 -->
<g id="Node000001" class="node">
<title>Node1</title>
<g id="a_Node000001"><a xlink:title="Meta instrument for a single analog input port based on the data stream and generic input port meta i...">
<polygon fill="#999999" stroke="#666666" points="233.5,-74 108.5,-74 108.5,-55 233.5,-55 233.5,-74"/>
<text text-anchor="middle" x="171" y="-62" font-family="Helvetica,sans-Serif" font-size="10.00">DynExpInstr::AnalogIn</text>
</a>
</g>
</g>
<!-- Node8 -->
<g id="Node000008" class="node">
<title>Node8</title>
<g id="a_Node000008"><a xlink:href="classDynExpInstr_1_1DummyAnalogIn.html" target="_top" xlink:title=" ">
<polygon fill="white" stroke="#666666" points="164,-19 0,-19 0,0 164,0 164,-19"/>
<text text-anchor="middle" x="82" y="-7" font-family="Helvetica,sans-Serif" font-size="10.00">DynExpInstr::DummyAnalogIn</text>
</a>
</g>
</g>
<!-- Node1&#45;&gt;Node8 -->
<g id="edge7_Node000001_Node000008" class="edge">
<title>Node1&#45;&gt;Node8</title>
<g id="a_edge7_Node000001_Node000008"><a xlink:title=" ">
<path fill="none" stroke="#63b8ff" d="M147.82,-49.7C131.61,-40.04 110.45,-27.44 96.56,-19.17"/>
<polygon fill="#63b8ff" stroke="#63b8ff" points="146.32,-52.88 156.7,-54.98 149.9,-46.86 146.32,-52.88"/>
</a>
</g>
</g>
<!-- Node9 -->
<g id="Node000009" class="node">
<title>Node9</title>
<g id="a_Node000009"><a xlink:href="classDynExpInstr_1_1NIDAQAnalogIn.html" target="_top" xlink:title=" ">
<polygon fill="white" stroke="#666666" points="339.5,-19 182.5,-19 182.5,0 339.5,0 339.5,-19"/>
<text text-anchor="middle" x="261" y="-7" font-family="Helvetica,sans-Serif" font-size="10.00">DynExpInstr::NIDAQAnalogIn</text>
</a>
</g>
</g>
<!-- Node1&#45;&gt;Node9 -->
<g id="edge8_Node000001_Node000009" class="edge">
<title>Node1&#45;&gt;Node9</title>
<g id="a_edge8_Node000001_Node000009"><a xlink:title=" ">
<path fill="none" stroke="#63b8ff" d="M194.44,-49.7C210.84,-40.04 232.23,-27.44 246.28,-19.17"/>
<polygon fill="#63b8ff" stroke="#63b8ff" points="192.3,-46.89 185.46,-54.98 195.85,-52.93 192.3,-46.89"/>
</a>
</g>
</g>
<!-- Node2 -->
<g id="Node000002" class="node">
<title>Node2</title>
<g id="a_Node000002"><a xlink:href="classDynExpInstr_1_1InputPort.html" target="_top" xlink:title="Generic input port meta instrument based on the data stream meta instrument to read data from hardwar...">
<polygon fill="white" stroke="#666666" points="234,-129 108,-129 108,-110 234,-110 234,-129"/>
<text text-anchor="middle" x="171" y="-117" font-family="Helvetica,sans-Serif" font-size="10.00">DynExpInstr::InputPort</text>
</a>
</g>
</g>
<!-- Node2&#45;&gt;Node1 -->
<g id="edge1_Node000001_Node000002" class="edge">
<title>Node2&#45;&gt;Node1</title>
<g id="a_edge1_Node000001_Node000002"><a xlink:title=" ">
<path fill="none" stroke="#63b8ff" d="M171,-99.66C171,-90.93 171,-80.99 171,-74.09"/>
<polygon fill="#63b8ff" stroke="#63b8ff" points="167.5,-99.75 171,-109.75 174.5,-99.75 167.5,-99.75"/>
</a>
</g>
</g>
<!-- Node3 -->
<g id="Node000003" class="node">
<title>Node3</title>
<g id="a_Node000003"><a xlink:href="classDynExpInstr_1_1DataStreamInstrument.html" target="_top" xlink:title="Implementation of the data stream meta instrument, which is a base class for all instruments reading/...">
<polygon fill="white" stroke="#666666" points="268,-184 74,-184 74,-165 268,-165 268,-184"/>
<text text-anchor="middle" x="171" y="-172" font-family="Helvetica,sans-Serif" font-size="10.00">DynExpInstr::DataStreamInstrument</text>
</a>
</g>
</g>
<!-- Node3&#45;&gt;Node2 -->
<g id="edge2_Node000002_Node000003" class="edge">
<title>Node3&#45;&gt;Node2</title>
<g id="a_edge2_Node000002_Node000003"><a xlink:title=" ">
<path fill="none" stroke="#63b8ff" d="M171,-154.66C171,-145.93 171,-135.99 171,-129.09"/>
<polygon fill="#63b8ff" stroke="#63b8ff" points="167.5,-154.75 171,-164.75 174.5,-154.75 167.5,-154.75"/>
</a>
</g>
</g>
<!-- Node4 -->
<g id="Node000004" class="node">
<title>Node4</title>
<g id="a_Node000004"><a xlink:href="classDynExp_1_1InstrumentBase.html" target="_top" xlink:title="Base class for instruments. Instruments comprise virtual devices (meta instruments) and physial devic...">
<polygon fill="white" stroke="#666666" points="239.5,-239 102.5,-239 102.5,-220 239.5,-220 239.5,-239"/>
<text text-anchor="middle" x="171" y="-227" font-family="Helvetica,sans-Serif" font-size="10.00">DynExp::InstrumentBase</text>
</a>
</g>
</g>
<!-- Node4&#45;&gt;Node3 -->
<g id="edge3_Node000003_Node000004" class="edge">
<title>Node4&#45;&gt;Node3</title>
<g id="a_edge3_Node000003_Node000004"><a xlink:title=" ">
<path fill="none" stroke="#63b8ff" d="M171,-209.66C171,-200.93 171,-190.99 171,-184.09"/>
<polygon fill="#63b8ff" stroke="#63b8ff" points="167.5,-209.75 171,-219.75 174.5,-209.75 167.5,-209.75"/>
</a>
</g>
</g>
<!-- Node5 -->
<g id="Node000005" class="node">
<title>Node5</title>
<g id="a_Node000005"><a xlink:href="classDynExp_1_1RunnableObject.html" target="_top" xlink:title="Defines an Object which possesses a thread it runs in. The RunnableObject can be started and stopped ...">
<polygon fill="white" stroke="#666666" points="239.5,-294 102.5,-294 102.5,-275 239.5,-275 239.5,-294"/>
<text text-anchor="middle" x="171" y="-282" font-family="Helvetica,sans-Serif" font-size="10.00">DynExp::RunnableObject</text>
</a>
</g>
</g>
<!-- Node5&#45;&gt;Node4 -->
<g id="edge4_Node000004_Node000005" class="edge">
<title>Node5&#45;&gt;Node4</title>
<g id="a_edge4_Node000004_Node000005"><a xlink:title=" ">
<path fill="none" stroke="#63b8ff" d="M171,-264.66C171,-255.93 171,-245.99 171,-239.09"/>
<polygon fill="#63b8ff" stroke="#63b8ff" points="167.5,-264.75 171,-274.75 174.5,-264.75 167.5,-264.75"/>
</a>
</g>
</g>
<!-- Node6 -->
<g id="Node000006" class="node">
<title>Node6</title>
<g id="a_Node000006"><a xlink:href="classUtil_1_1INonCopyable.html" target="_top" xlink:title="Interface to delete copy constructor and copy assignment operator and thus make derived classes non&#45;c...">
<polygon fill="white" stroke="#666666" points="166,-349 58,-349 58,-330 166,-330 166,-349"/>
<text text-anchor="middle" x="112" y="-337" font-family="Helvetica,sans-Serif" font-size="10.00">Util::INonCopyable</text>
</a>
</g>
</g>
<!-- Node6&#45;&gt;Node5 -->
<g id="edge5_Node000005_Node000006" class="edge">
<title>Node6&#45;&gt;Node5</title>
<g id="a_edge5_Node000005_Node000006"><a xlink:title=" ">
<path fill="none" stroke="#63b8ff" d="M129.2,-323.04C139.67,-313.64 152.65,-301.98 161.35,-294.17"/>
<polygon fill="#63b8ff" stroke="#63b8ff" points="126.58,-320.7 121.48,-329.98 131.26,-325.91 126.58,-320.7"/>
</a>
</g>
</g>
<!-- Node7 -->
<g id="Node000007" class="node">
<title>Node7</title>
<g id="a_Node000007"><a xlink:href="classDynExp_1_1Object.html" target="_top" xlink:title="Base class for all DynExp Objects like hardware adapters (DynExp::HardwareAdapterBase),...">
<polygon fill="white" stroke="#666666" points="276,-349 184,-349 184,-330 276,-330 276,-349"/>
<text text-anchor="middle" x="230" y="-337" font-family="Helvetica,sans-Serif" font-size="10.00">DynExp::Object</text>
</a>
</g>
</g>
<!-- Node7&#45;&gt;Node5 -->
<g id="edge6_Node000005_Node000007" class="edge">
<title>Node7&#45;&gt;Node5</title>
<g id="a_edge6_Node000005_Node000007"><a xlink:title=" ">
<path fill="none" stroke="#63b8ff" d="M212.8,-323.04C202.33,-313.64 189.35,-301.98 180.65,-294.17"/>
<polygon fill="#63b8ff" stroke="#63b8ff" points="210.74,-325.91 220.52,-329.98 215.42,-320.7 210.74,-325.91"/>
</a>
</g>
</g>
</g>
</svg>
