<?xml version="1.0" encoding="UTF-8" standalone="no"?>
<!DOCTYPE svg PUBLIC "-//W3C//DTD SVG 1.1//EN"
 "http://www.w3.org/Graphics/SVG/1.1/DTD/svg11.dtd">
<!-- Generated by graphviz version 2.43.0 (0)
 -->
<!-- Title: DynExp::ParamsBase::LinkListParamBase Pages: 1 -->
<svg width="693pt" height="75pt"
 viewBox="0.00 0.00 693.00 74.50" xmlns="http://www.w3.org/2000/svg" xmlns:xlink="http://www.w3.org/1999/xlink">
<g id="graph0" class="graph" transform="scale(1 1) rotate(0) translate(4 70.5)">
<title>DynExp::ParamsBase::LinkListParamBase</title>
<polygon fill="white" stroke="transparent" points="-4,4 -4,-70.5 689,-70.5 689,4 -4,4"/>
<!-- Node1 -->
<g id="node1" class="node">
<title>Node1</title>
<g id="a_node1"><a xlink:title="Base class for link list parameters to multiple Object of any (but all the same) type specifying the ...">
<polygon fill="#bfbfbf" stroke="black" points="353,-19.5 353,-49.5 473,-49.5 473,-19.5 353,-19.5"/>
<text text-anchor="start" x="361" y="-37.5" font-family="Helvetica,sans-Serif" font-size="10.00">DynExp::ParamsBase</text>
<text text-anchor="middle" x="413" y="-26.5" font-family="Helvetica,sans-Serif" font-size="10.00">::LinkListParamBase</text>
</a>
</g>
</g>
<!-- Node5 -->
<g id="node5" class="node">
<title>Node5</title>
<g id="a_node5"><a xlink:href="classDynExp_1_1ParamsBase_1_1ListParam_3_01LinkType_00_01std_1_1enable__if__t_3_01std_1_1is__basd243784fc46965d1256228ffb7d1529c.html" target="_top" xlink:title="Parameter for link lists to multiple Object. If LinkType is derived from ObjectLinkBase,...">
<polygon fill="white" stroke="black" points="509,-3 509,-66 685,-66 685,-3 509,-3"/>
<text text-anchor="start" x="517" y="-54" font-family="Helvetica,sans-Serif" font-size="10.00">DynExp::ParamsBase</text>
<text text-anchor="start" x="517" y="-43" font-family="Helvetica,sans-Serif" font-size="10.00">::ListParam&lt; LinkType,</text>
<text text-anchor="start" x="517" y="-32" font-family="Helvetica,sans-Serif" font-size="10.00"> std::enable_if_t&lt; std</text>
<text text-anchor="start" x="517" y="-21" font-family="Helvetica,sans-Serif" font-size="10.00">::is_base_of_v&lt; ObjectLinkBase,</text>
<text text-anchor="middle" x="597" y="-10" font-family="Helvetica,sans-Serif" font-size="10.00"> LinkType &gt; &gt; &gt;</text>
</a>
</g>
</g>
<!-- Node1&#45;&gt;Node5 -->
<g id="edge4" class="edge">
<title>Node1&#45;&gt;Node5</title>
<path fill="none" stroke="midnightblue" d="M483.16,-34.5C491.54,-34.5 500.19,-34.5 508.79,-34.5"/>
<polygon fill="midnightblue" stroke="midnightblue" points="483.09,-31 473.09,-34.5 483.09,-38 483.09,-31"/>
</g>
<!-- Node2 -->
<g id="node2" class="node">
<title>Node2</title>
<g id="a_node2"><a xlink:href="classDynExp_1_1LinkBase.html" target="_top" xlink:title="Abstract base class of link parameters (to be saved in project files) describing relations between mu...">
<polygon fill="white" stroke="black" points="184.5,-44 184.5,-63 288.5,-63 288.5,-44 184.5,-44"/>
<text text-anchor="middle" x="236.5" y="-51" font-family="Helvetica,sans-Serif" font-size="10.00">DynExp::LinkBase</text>
</a>
</g>
</g>
<!-- Node2&#45;&gt;Node1 -->
<g id="edge1" class="edge">
<title>Node2&#45;&gt;Node1</title>
<path fill="none" stroke="midnightblue" d="M299.03,-46.8C316.56,-44.89 335.61,-42.82 352.98,-40.93"/>
<polygon fill="midnightblue" stroke="midnightblue" points="298.47,-43.34 288.91,-47.9 299.23,-50.3 298.47,-43.34"/>
</g>
<!-- Node3 -->
<g id="node3" class="node">
<title>Node3</title>
<g id="a_node3"><a xlink:href="classDynExp_1_1ParamsBase_1_1TypedListParamBase.html" target="_top" xlink:title="Base class of parameters containing lists of values.">
<polygon fill="white" stroke="black" points="156,-6 156,-25 317,-25 317,-6 156,-6"/>
<text text-anchor="middle" x="236.5" y="-13" font-family="Helvetica,sans-Serif" font-size="10.00">UnderlyingLinkListParamType</text>
</a>
</g>
</g>
<!-- Node3&#45;&gt;Node1 -->
<g id="edge2" class="edge">
<title>Node3&#45;&gt;Node1</title>
<path fill="none" stroke="midnightblue" d="M327.28,-25.28C335.96,-26.22 344.61,-27.16 352.89,-28.06"/>
<polygon fill="midnightblue" stroke="midnightblue" points="327.41,-21.77 317.09,-24.17 326.65,-28.73 327.41,-21.77"/>
</g>
<!-- Node4 -->
<g id="node4" class="node">
<title>Node4</title>
<g id="a_node4"><a xlink:href="classDynExp_1_1ParamsBase_1_1ParamBase.html" target="_top" xlink:title="Abstract base class for a single object parameter. Parameters derived from this class are automatical...">
<polygon fill="white" stroke="black" points="0,-0.5 0,-30.5 120,-30.5 120,-0.5 0,-0.5"/>
<text text-anchor="start" x="8" y="-18.5" font-family="Helvetica,sans-Serif" font-size="10.00">DynExp::ParamsBase</text>
<text text-anchor="middle" x="60" y="-7.5" font-family="Helvetica,sans-Serif" font-size="10.00">::ParamBase</text>
</a>
</g>
</g>
<!-- Node4&#45;&gt;Node3 -->
<g id="edge3" class="edge">
<title>Node4&#45;&gt;Node3</title>
<path fill="none" stroke="midnightblue" d="M130.18,-15.5C138.58,-15.5 147.21,-15.5 155.75,-15.5"/>
<polygon fill="midnightblue" stroke="midnightblue" points="130.08,-12 120.08,-15.5 130.08,-19 130.08,-12"/>
</g>
</g>
</svg>
