<?xml version="1.0" encoding="UTF-8" standalone="no"?>
<!DOCTYPE svg PUBLIC "-//W3C//DTD SVG 1.1//EN"
 "http://www.w3.org/Graphics/SVG/1.1/DTD/svg11.dtd">
<!-- Generated by graphviz version 2.43.0 (0)
 -->
<!-- Title: DynExp::ParamsBase::ParamBase Pages: 1 -->
<svg width="860pt" height="790pt"
 viewBox="0.00 0.00 860.00 790.00" xmlns="http://www.w3.org/2000/svg" xmlns:xlink="http://www.w3.org/1999/xlink">
<g id="graph0" class="graph" transform="scale(1 1) rotate(0) translate(4 786)">
<title>DynExp::ParamsBase::ParamBase</title>
<polygon fill="white" stroke="transparent" points="-4,4 -4,-786 856,-786 856,4 -4,4"/>
<!-- Node1 -->
<g id="node1" class="node">
<title>Node1</title>
<g id="a_node1"><a xlink:title="Abstract base class for a single object parameter. Parameters derived from this class are automatical...">
<polygon fill="#bfbfbf" stroke="black" points="0,-628 0,-658 120,-658 120,-628 0,-628"/>
<text text-anchor="start" x="8" y="-646" font-family="Helvetica,sans-Serif" font-size="10.00">DynExp::ParamsBase</text>
<text text-anchor="middle" x="60" y="-635" font-family="Helvetica,sans-Serif" font-size="10.00">::ParamBase</text>
</a>
</g>
</g>
<!-- Node2 -->
<g id="node2" class="node">
<title>Node2</title>
<g id="a_node2"><a xlink:href="classDynExp_1_1ParamsBase_1_1DummyParam.html" target="_top" xlink:title="Dummy parameter which is to be owned once by parameter classes that do not contain any other paramete...">
<polygon fill="white" stroke="black" points="187,-683 187,-713 307,-713 307,-683 187,-683"/>
<text text-anchor="start" x="195" y="-701" font-family="Helvetica,sans-Serif" font-size="10.00">DynExp::ParamsBase</text>
<text text-anchor="middle" x="247" y="-690" font-family="Helvetica,sans-Serif" font-size="10.00">::DummyParam</text>
</a>
</g>
</g>
<!-- Node1&#45;&gt;Node2 -->
<g id="edge1" class="edge">
<title>Node1&#45;&gt;Node2</title>
<path fill="none" stroke="midnightblue" d="M117.31,-661.14C130.01,-665.13 143.45,-669.28 156,-673 167.19,-676.32 179.21,-679.75 190.7,-682.97"/>
<polygon fill="midnightblue" stroke="midnightblue" points="118.36,-657.8 107.77,-658.13 116.25,-664.48 118.36,-657.8"/>
</g>
<!-- Node3 -->
<g id="node3" class="node">
<title>Node3</title>
<g id="a_node3"><a xlink:href="classDynExp_1_1ParamsBase_1_1TypedListParamBase.html" target="_top" xlink:title="Base class of parameters containing lists of values.">
<polygon fill="white" stroke="black" points="185.5,-622.5 185.5,-663.5 308.5,-663.5 308.5,-622.5 185.5,-622.5"/>
<text text-anchor="start" x="193.5" y="-651.5" font-family="Helvetica,sans-Serif" font-size="10.00">DynExp::ParamsBase</text>
<text text-anchor="start" x="193.5" y="-640.5" font-family="Helvetica,sans-Serif" font-size="10.00">::TypedListParamBase</text>
<text text-anchor="middle" x="247" y="-629.5" font-family="Helvetica,sans-Serif" font-size="10.00">&lt; ParamType &gt;</text>
</a>
</g>
</g>
<!-- Node1&#45;&gt;Node3 -->
<g id="edge2" class="edge">
<title>Node1&#45;&gt;Node3</title>
<path fill="none" stroke="midnightblue" d="M130.23,-643C148.32,-643 167.68,-643 185.29,-643"/>
<polygon fill="midnightblue" stroke="midnightblue" points="130.04,-639.5 120.04,-643 130.04,-646.5 130.04,-639.5"/>
</g>
<!-- Node8 -->
<g id="node8" class="node">
<title>Node8</title>
<g id="a_node8"><a xlink:href="classDynExp_1_1ParamsBase_1_1TypedParamBase.html" target="_top" xlink:title="Base class of parameters containing a single value.">
<polygon fill="white" stroke="black" points="156,-333 156,-363 338,-363 338,-333 156,-333"/>
<text text-anchor="start" x="164" y="-351" font-family="Helvetica,sans-Serif" font-size="10.00">DynExp::ParamsBase</text>
<text text-anchor="middle" x="247" y="-340" font-family="Helvetica,sans-Serif" font-size="10.00">::TypedParamBase&lt; ParamType &gt;</text>
</a>
</g>
</g>
<!-- Node1&#45;&gt;Node8 -->
<g id="edge7" class="edge">
<title>Node1&#45;&gt;Node8</title>
<path fill="none" stroke="midnightblue" d="M75.79,-619.41C112.41,-561.02 206.49,-411 236.59,-363"/>
<polygon fill="midnightblue" stroke="midnightblue" points="72.78,-617.63 70.43,-627.97 78.71,-621.35 72.78,-617.63"/>
</g>
<!-- Node4 -->
<g id="node4" class="node">
<title>Node4</title>
<g id="a_node4"><a xlink:href="classDynExp_1_1ParamsBase_1_1LinkListParamBase.html" target="_top" xlink:title="Base class for link list parameters to multiple Object of any (but all the same) type specifying the ...">
<polygon fill="white" stroke="black" points="447,-729.5 447,-770.5 567,-770.5 567,-729.5 447,-729.5"/>
<text text-anchor="start" x="455" y="-758.5" font-family="Helvetica,sans-Serif" font-size="10.00">DynExp::ParamsBase</text>
<text text-anchor="start" x="455" y="-747.5" font-family="Helvetica,sans-Serif" font-size="10.00">::LinkListParamBase</text>
<text text-anchor="middle" x="507" y="-736.5" font-family="Helvetica,sans-Serif" font-size="10.00">&lt; ItemIDType &gt;</text>
</a>
</g>
</g>
<!-- Node3&#45;&gt;Node4 -->
<g id="edge3" class="edge">
<title>Node3&#45;&gt;Node4</title>
<path fill="none" stroke="midnightblue" d="M318.44,-662.73C325.33,-665.98 331.99,-669.71 338,-674 359.14,-689.07 352.08,-706.1 374,-720 395.63,-733.72 422.78,-741.19 446.81,-745.25"/>
<polygon fill="midnightblue" stroke="midnightblue" points="319.5,-659.38 308.93,-658.61 316.71,-665.8 319.5,-659.38"/>
</g>
<!-- Node6 -->
<g id="node6" class="node">
<title>Node6</title>
<g id="a_node6"><a xlink:href="classDynExp_1_1ParamsBase_1_1ListParam_3_01ArithmeticType_00_01std_1_1enable__if__t_3_01std_1_1i54eb4f851b57d383b238b8718ca67a95.html" target="_top" xlink:title="List parameter for numbers. If ParamType is an arithmetic type (integral or floating point),...">
<polygon fill="white" stroke="black" points="406,-658 406,-710 608,-710 608,-658 406,-658"/>
<text text-anchor="start" x="414" y="-698" font-family="Helvetica,sans-Serif" font-size="10.00">DynExp::ParamsBase</text>
<text text-anchor="start" x="414" y="-687" font-family="Helvetica,sans-Serif" font-size="10.00">::ListParam&lt; ArithmeticType,</text>
<text text-anchor="start" x="414" y="-676" font-family="Helvetica,sans-Serif" font-size="10.00"> std::enable_if_t&lt; std::is</text>
<text text-anchor="middle" x="507" y="-665" font-family="Helvetica,sans-Serif" font-size="10.00">_arithmetic_v&lt; ArithmeticType &gt; &gt; &gt;</text>
</a>
</g>
</g>
<!-- Node3&#45;&gt;Node6 -->
<g id="edge5" class="edge">
<title>Node3&#45;&gt;Node6</title>
<path fill="none" stroke="midnightblue" d="M318.9,-654.27C345.78,-658.54 376.92,-663.49 405.99,-668.11"/>
<polygon fill="midnightblue" stroke="midnightblue" points="319.24,-650.78 308.82,-652.66 318.14,-657.69 319.24,-650.78"/>
</g>
<!-- Node7 -->
<g id="node7" class="node">
<title>Node7</title>
<g id="a_node7"><a xlink:href="classDynExp_1_1ParamsBase_1_1ListParam_3_01ParamType_00_01std_1_1enable__if__t_3_01_9std_1_1is__b8374ac5460e5f4598c20a5ad4c0acf7.html" target="_top" xlink:title="General list parameter for any ParamType (except the ones which are further specified below).">
<polygon fill="white" stroke="black" points="408.5,-565 408.5,-639 605.5,-639 605.5,-565 408.5,-565"/>
<text text-anchor="start" x="416.5" y="-627" font-family="Helvetica,sans-Serif" font-size="10.00">DynExp::ParamsBase</text>
<text text-anchor="start" x="416.5" y="-616" font-family="Helvetica,sans-Serif" font-size="10.00">::ListParam&lt; ParamType,</text>
<text text-anchor="start" x="416.5" y="-605" font-family="Helvetica,sans-Serif" font-size="10.00"> std::enable_if_t&lt; !std</text>
<text text-anchor="start" x="416.5" y="-594" font-family="Helvetica,sans-Serif" font-size="10.00">::is_arithmetic_v&lt; ParamType</text>
<text text-anchor="start" x="416.5" y="-583" font-family="Helvetica,sans-Serif" font-size="10.00"> &gt; &amp;&amp;!std::is_base_of_v&lt; ObjectLink</text>
<text text-anchor="middle" x="507" y="-572" font-family="Helvetica,sans-Serif" font-size="10.00">Base, ParamType &gt; &gt; &gt;</text>
</a>
</g>
</g>
<!-- Node3&#45;&gt;Node7 -->
<g id="edge6" class="edge">
<title>Node3&#45;&gt;Node7</title>
<path fill="none" stroke="midnightblue" d="M318.77,-631.75C346.39,-627.36 378.51,-622.26 408.26,-617.53"/>
<polygon fill="midnightblue" stroke="midnightblue" points="318.14,-628.31 308.82,-633.34 319.24,-635.22 318.14,-628.31"/>
</g>
<!-- Node5 -->
<g id="node5" class="node">
<title>Node5</title>
<g id="a_node5"><a xlink:href="classDynExp_1_1ParamsBase_1_1ListParam_3_01LinkType_00_01std_1_1enable__if__t_3_01std_1_1is__basd243784fc46965d1256228ffb7d1529c.html" target="_top" xlink:title="Parameter for link lists to multiple Object. If LinkType is derived from ObjectLinkBase,...">
<polygon fill="white" stroke="black" points="676,-718.5 676,-781.5 852,-781.5 852,-718.5 676,-718.5"/>
<text text-anchor="start" x="684" y="-769.5" font-family="Helvetica,sans-Serif" font-size="10.00">DynExp::ParamsBase</text>
<text text-anchor="start" x="684" y="-758.5" font-family="Helvetica,sans-Serif" font-size="10.00">::ListParam&lt; LinkType,</text>
<text text-anchor="start" x="684" y="-747.5" font-family="Helvetica,sans-Serif" font-size="10.00"> std::enable_if_t&lt; std</text>
<text text-anchor="start" x="684" y="-736.5" font-family="Helvetica,sans-Serif" font-size="10.00">::is_base_of_v&lt; ObjectLinkBase,</text>
<text text-anchor="middle" x="764" y="-725.5" font-family="Helvetica,sans-Serif" font-size="10.00"> LinkType &gt; &gt; &gt;</text>
</a>
</g>
</g>
<!-- Node4&#45;&gt;Node5 -->
<g id="edge4" class="edge">
<title>Node4&#45;&gt;Node5</title>
<path fill="none" stroke="midnightblue" d="M577.2,-750C607.54,-750 643.49,-750 675.64,-750"/>
<polygon fill="midnightblue" stroke="midnightblue" points="577.14,-746.5 567.14,-750 577.14,-753.5 577.14,-746.5"/>
</g>
<!-- Node9 -->
<g id="node9" class="node">
<title>Node9</title>
<g id="a_node9"><a xlink:href="classDynExp_1_1ParamsBase_1_1LinkParamBase.html" target="_top" xlink:title="Base class for link parameters to a single Object of any type specifying the underlying parameter typ...">
<polygon fill="white" stroke="black" points="419,-516 419,-546 595,-546 595,-516 419,-516"/>
<text text-anchor="start" x="427" y="-534" font-family="Helvetica,sans-Serif" font-size="10.00">DynExp::ParamsBase</text>
<text text-anchor="middle" x="507" y="-523" font-family="Helvetica,sans-Serif" font-size="10.00">::LinkParamBase&lt; ItemIDType &gt;</text>
</a>
</g>
</g>
<!-- Node8&#45;&gt;Node9 -->
<g id="edge8" class="edge">
<title>Node8&#45;&gt;Node9</title>
<path fill="none" stroke="midnightblue" d="M260.04,-372.51C278.99,-408.32 319.33,-474.21 374,-507 387.58,-515.15 403.26,-520.66 418.97,-524.36"/>
<polygon fill="midnightblue" stroke="midnightblue" points="262.96,-370.54 255.26,-363.26 256.74,-373.75 262.96,-370.54"/>
</g>
<!-- Node11 -->
<g id="node11" class="node">
<title>Node11</title>
<g id="a_node11"><a xlink:href="classDynExp_1_1ParamsBase_1_1Param_3_01ArithmeticType_00_01std_1_1enable__if__t_3_01std_1_1is__a36b43486ae7f42f950ffc5a7719f2151.html" target="_top" xlink:title="Parameter for numbers. If ParamType is an arithmetic type (integral or floating point),...">
<polygon fill="white" stroke="black" points="399,-445 399,-497 615,-497 615,-445 399,-445"/>
<text text-anchor="start" x="407" y="-485" font-family="Helvetica,sans-Serif" font-size="10.00">DynExp::ParamsBase</text>
<text text-anchor="start" x="407" y="-474" font-family="Helvetica,sans-Serif" font-size="10.00">::Param&lt; ArithmeticType,</text>
<text text-anchor="start" x="407" y="-463" font-family="Helvetica,sans-Serif" font-size="10.00"> std::enable_if_t&lt; std</text>
<text text-anchor="middle" x="507" y="-452" font-family="Helvetica,sans-Serif" font-size="10.00">::is_arithmetic_v&lt; ArithmeticType &gt; &gt; &gt;</text>
</a>
</g>
</g>
<!-- Node8&#45;&gt;Node11 -->
<g id="edge10" class="edge">
<title>Node8&#45;&gt;Node11</title>
<path fill="none" stroke="midnightblue" d="M273.54,-369.91C297.89,-389.77 336.33,-418.52 374,-436 381.96,-439.69 390.37,-443.05 398.95,-446.09"/>
<polygon fill="midnightblue" stroke="midnightblue" points="275.47,-366.97 265.54,-363.29 271.01,-372.36 275.47,-366.97"/>
</g>
<!-- Node12 -->
<g id="node12" class="node">
<title>Node12</title>
<g id="a_node12"><a xlink:href="classDynExp_1_1ParamsBase_1_1Param_3_01EnumType_00_01std_1_1enable__if__t_3_01std_1_1is__enum__v_3_01EnumType_01_4_01_4_01_4.html" target="_top" xlink:title="Parameter for enumerations which are convertible to a numeric type. If ParamType is an enum,...">
<polygon fill="white" stroke="black" points="429,-374 429,-426 585,-426 585,-374 429,-374"/>
<text text-anchor="start" x="437" y="-414" font-family="Helvetica,sans-Serif" font-size="10.00">DynExp::ParamsBase</text>
<text text-anchor="start" x="437" y="-403" font-family="Helvetica,sans-Serif" font-size="10.00">::Param&lt; EnumType, std</text>
<text text-anchor="start" x="437" y="-392" font-family="Helvetica,sans-Serif" font-size="10.00">::enable_if_t&lt; std::is</text>
<text text-anchor="middle" x="507" y="-381" font-family="Helvetica,sans-Serif" font-size="10.00">_enum_v&lt; EnumType &gt; &gt; &gt;</text>
</a>
</g>
</g>
<!-- Node8&#45;&gt;Node12 -->
<g id="edge11" class="edge">
<title>Node8&#45;&gt;Node12</title>
<path fill="none" stroke="midnightblue" d="M332.55,-365.04C363.58,-371.29 398.51,-378.34 428.85,-384.45"/>
<polygon fill="midnightblue" stroke="midnightblue" points="333.12,-361.59 322.62,-363.04 331.74,-368.45 333.12,-361.59"/>
</g>
<!-- Node13 -->
<g id="node13" class="node">
<title>Node13</title>
<g id="a_node13"><a xlink:href="classDynExp_1_1ParamsBase_1_1Param_3_01ParamType_00_01std_1_1enable__if__t_3_01_9std_1_1is__arit5c6f823427478a0e4e010e91feab235c.html" target="_top" xlink:title="General parameter for any ParamType (except the ones which are further specified below).">
<polygon fill="white" stroke="black" points="374,-237 374,-355 640,-355 640,-237 374,-237"/>
<text text-anchor="start" x="382" y="-343" font-family="Helvetica,sans-Serif" font-size="10.00">DynExp::ParamsBase</text>
<text text-anchor="start" x="382" y="-332" font-family="Helvetica,sans-Serif" font-size="10.00">::Param&lt; ParamType,</text>
<text text-anchor="start" x="382" y="-321" font-family="Helvetica,sans-Serif" font-size="10.00"> std::enable_if_t&lt; !std</text>
<text text-anchor="start" x="382" y="-310" font-family="Helvetica,sans-Serif" font-size="10.00">::is_arithmetic_v&lt; ParamType</text>
<text text-anchor="start" x="382" y="-299" font-family="Helvetica,sans-Serif" font-size="10.00"> &gt; &amp;&amp;!std::is_base_of_v&lt; Text,</text>
<text text-anchor="start" x="382" y="-288" font-family="Helvetica,sans-Serif" font-size="10.00"> ParamType &gt; &amp;&amp;!std::is_base</text>
<text text-anchor="start" x="382" y="-277" font-family="Helvetica,sans-Serif" font-size="10.00">_of_v&lt; TextList, ParamType &gt; &amp;&amp;!std</text>
<text text-anchor="start" x="382" y="-266" font-family="Helvetica,sans-Serif" font-size="10.00">::is_base_of_v&lt; IndexedTextList, ParamType</text>
<text text-anchor="start" x="382" y="-255" font-family="Helvetica,sans-Serif" font-size="10.00"> &gt; &amp;&amp;!std::is_enum_v&lt; ParamType &gt; &amp;&amp;!std</text>
<text text-anchor="middle" x="507" y="-244" font-family="Helvetica,sans-Serif" font-size="10.00">::is_base_of_v&lt; ObjectLinkBase, ParamType &gt; &gt; &gt;</text>
</a>
</g>
</g>
<!-- Node8&#45;&gt;Node13 -->
<g id="edge12" class="edge">
<title>Node8&#45;&gt;Node13</title>
<path fill="none" stroke="midnightblue" d="M332.58,-330.95C345.79,-328.29 359.71,-325.48 373.68,-322.67"/>
<polygon fill="midnightblue" stroke="midnightblue" points="331.74,-327.55 322.62,-332.96 333.12,-334.41 331.74,-327.55"/>
</g>
<!-- Node14 -->
<g id="node14" class="node">
<title>Node14</title>
<g id="a_node14"><a xlink:href="classDynExp_1_1ParamsBase_1_1Param_3_01ParamType_00_01std_1_1enable__if__t_3_01std_1_1is__base__61e5ea03adee3aef656dbb91b4f60725.html" target="_top" xlink:title="Parameter for indexed strings selected from a predefined list of strings. If ParamType is of type Par...">
<polygon fill="white" stroke="black" points="419,-154.5 419,-217.5 595,-217.5 595,-154.5 419,-154.5"/>
<text text-anchor="start" x="427" y="-205.5" font-family="Helvetica,sans-Serif" font-size="10.00">DynExp::ParamsBase</text>
<text text-anchor="start" x="427" y="-194.5" font-family="Helvetica,sans-Serif" font-size="10.00">::Param&lt; ParamType,</text>
<text text-anchor="start" x="427" y="-183.5" font-family="Helvetica,sans-Serif" font-size="10.00"> std::enable_if_t&lt; std</text>
<text text-anchor="start" x="427" y="-172.5" font-family="Helvetica,sans-Serif" font-size="10.00">::is_base_of_v&lt; IndexedTextList,</text>
<text text-anchor="middle" x="507" y="-161.5" font-family="Helvetica,sans-Serif" font-size="10.00"> ParamType &gt; &gt; &gt;</text>
</a>
</g>
</g>
<!-- Node8&#45;&gt;Node14 -->
<g id="edge13" class="edge">
<title>Node8&#45;&gt;Node14</title>
<path fill="none" stroke="midnightblue" d="M266.36,-325.08C289,-298.22 329.95,-254.08 374,-228 387.76,-219.85 403.28,-213.1 418.72,-207.58"/>
<polygon fill="midnightblue" stroke="midnightblue" points="263.62,-322.89 259.93,-332.82 269.01,-327.36 263.62,-322.89"/>
</g>
<!-- Node15 -->
<g id="node15" class="node">
<title>Node15</title>
<g id="a_node15"><a xlink:href="classDynExp_1_1ParamsBase_1_1Param_3_01ParamType_00_01std_1_1enable__if__t_3_01std_1_1is__base__25c315537ff24e78133025dad145e98b.html" target="_top" xlink:title="Parameter for strings. If ParamType is of type ParamsBase::Text, then extend TypedParamBase&#39;s functio...">
<polygon fill="white" stroke="black" points="402,-83 402,-135 612,-135 612,-83 402,-83"/>
<text text-anchor="start" x="410" y="-123" font-family="Helvetica,sans-Serif" font-size="10.00">DynExp::ParamsBase</text>
<text text-anchor="start" x="410" y="-112" font-family="Helvetica,sans-Serif" font-size="10.00">::Param&lt; ParamType,</text>
<text text-anchor="start" x="410" y="-101" font-family="Helvetica,sans-Serif" font-size="10.00"> std::enable_if_t&lt; std</text>
<text text-anchor="middle" x="507" y="-90" font-family="Helvetica,sans-Serif" font-size="10.00">::is_base_of_v&lt; Text, ParamType &gt; &gt; &gt;</text>
</a>
</g>
</g>
<!-- Node8&#45;&gt;Node15 -->
<g id="edge14" class="edge">
<title>Node8&#45;&gt;Node15</title>
<path fill="none" stroke="midnightblue" d="M256.48,-323.14C272.46,-280.11 311.18,-191.85 374,-145 382.47,-138.68 391.99,-133.47 401.93,-129.18"/>
<polygon fill="midnightblue" stroke="midnightblue" points="253.09,-322.22 252.99,-332.82 259.68,-324.6 253.09,-322.22"/>
</g>
<!-- Node16 -->
<g id="node16" class="node">
<title>Node16</title>
<g id="a_node16"><a xlink:href="classDynExp_1_1ParamsBase_1_1Param_3_01ParamType_00_01std_1_1enable__if__t_3_01std_1_1is__base__2b5582aed1efd379ec593c5120d42ff9.html" target="_top" xlink:title="Parameter for strings selected from a predefined list of strings. If ParamType is of type ParamsBase:...">
<polygon fill="white" stroke="black" points="438.5,-0.5 438.5,-63.5 575.5,-63.5 575.5,-0.5 438.5,-0.5"/>
<text text-anchor="start" x="446.5" y="-51.5" font-family="Helvetica,sans-Serif" font-size="10.00">DynExp::ParamsBase</text>
<text text-anchor="start" x="446.5" y="-40.5" font-family="Helvetica,sans-Serif" font-size="10.00">::Param&lt; ParamType,</text>
<text text-anchor="start" x="446.5" y="-29.5" font-family="Helvetica,sans-Serif" font-size="10.00"> std::enable_if_t&lt; std</text>
<text text-anchor="start" x="446.5" y="-18.5" font-family="Helvetica,sans-Serif" font-size="10.00">::is_base_of_v&lt; TextList,</text>
<text text-anchor="middle" x="507" y="-7.5" font-family="Helvetica,sans-Serif" font-size="10.00"> ParamType &gt; &gt; &gt;</text>
</a>
</g>
</g>
<!-- Node8&#45;&gt;Node16 -->
<g id="edge15" class="edge">
<title>Node8&#45;&gt;Node16</title>
<path fill="none" stroke="midnightblue" d="M252.53,-322.65C263.48,-268.85 296.38,-142.62 374,-74 391.93,-58.15 415.86,-48.28 438.42,-42.13"/>
<polygon fill="midnightblue" stroke="midnightblue" points="249.05,-322.2 250.58,-332.69 255.92,-323.54 249.05,-322.2"/>
</g>
<!-- Node10 -->
<g id="node10" class="node">
<title>Node10</title>
<g id="a_node10"><a xlink:href="classDynExp_1_1ParamsBase_1_1Param_3_01LinkType_00_01std_1_1enable__if__t_3_01std_1_1is__base__odd85ddee3349917fa7e32c83ff1f8ec2.html" target="_top" xlink:title="Parameter for links to a single Object. If LinkType is derived from ObjectLinkBase,...">
<polygon fill="white" stroke="black" points="683.5,-499.5 683.5,-562.5 844.5,-562.5 844.5,-499.5 683.5,-499.5"/>
<text text-anchor="start" x="691.5" y="-550.5" font-family="Helvetica,sans-Serif" font-size="10.00">DynExp::ParamsBase</text>
<text text-anchor="start" x="691.5" y="-539.5" font-family="Helvetica,sans-Serif" font-size="10.00">::Param&lt; LinkType, std</text>
<text text-anchor="start" x="691.5" y="-528.5" font-family="Helvetica,sans-Serif" font-size="10.00">::enable_if_t&lt; std::is</text>
<text text-anchor="start" x="691.5" y="-517.5" font-family="Helvetica,sans-Serif" font-size="10.00">_base_of_v&lt; ObjectLinkBase,</text>
<text text-anchor="middle" x="764" y="-506.5" font-family="Helvetica,sans-Serif" font-size="10.00"> LinkType &gt; &gt; &gt;</text>
</a>
</g>
</g>
<!-- Node9&#45;&gt;Node10 -->
<g id="edge9" class="edge">
<title>Node9&#45;&gt;Node10</title>
<path fill="none" stroke="midnightblue" d="M605.2,-531C630.97,-531 658.48,-531 683.2,-531"/>
<polygon fill="midnightblue" stroke="midnightblue" points="605.04,-527.5 595.04,-531 605.04,-534.5 605.04,-527.5"/>
</g>
</g>
</svg>
