<?xml version="1.0" encoding="UTF-8" standalone="no"?>
<!DOCTYPE svg PUBLIC "-//W3C//DTD SVG 1.1//EN"
 "http://www.w3.org/Graphics/SVG/1.1/DTD/svg11.dtd">
<!-- Generated by graphviz version 2.43.0 (0)
 -->
<!-- Title: DynExpInstr::InputPortTasks::InitTask Pages: 1 -->
<svg width="1070pt" height="182pt"
 viewBox="0.00 0.00 1070.00 182.00" xmlns="http://www.w3.org/2000/svg" xmlns:xlink="http://www.w3.org/1999/xlink">
<g id="graph0" class="graph" transform="scale(1 1) rotate(0) translate(4 178)">
<title>DynExpInstr::InputPortTasks::InitTask</title>
<!-- Node1 -->
<g id="Node000001" class="node">
<title>Node1</title>
<g id="a_Node000001"><a xlink:title="Defines a task for initializing an instrument within an instrument inheritance hierarchy....">
<polygon fill="#999999" stroke="#666666" points="683,-102 530,-102 530,-72 683,-72 683,-102"/>
<text text-anchor="start" x="538" y="-90" font-family="Helvetica,sans-Serif" font-size="10.00">DynExpInstr::InputPortTasks</text>
<text text-anchor="middle" x="606.5" y="-79" font-family="Helvetica,sans-Serif" font-size="10.00">::InitTask</text>
</a>
</g>
</g>
<!-- Node5 -->
<g id="Node000005" class="node">
<title>Node5</title>
<g id="a_Node000005"><a xlink:href="classDynExpInstr_1_1AnalogInTasks_1_1InitTask.html" target="_top" xlink:title="Defines a task for initializing an instrument within an instrument inheritance hierarchy....">
<polygon fill="white" stroke="#666666" points="871,-126 719,-126 719,-96 871,-96 871,-126"/>
<text text-anchor="start" x="727" y="-114" font-family="Helvetica,sans-Serif" font-size="10.00">DynExpInstr::AnalogInTasks</text>
<text text-anchor="middle" x="795" y="-103" font-family="Helvetica,sans-Serif" font-size="10.00">::InitTask</text>
</a>
</g>
</g>
<!-- Node1&#45;&gt;Node5 -->
<g id="edge4_Node000001_Node000005" class="edge">
<title>Node1&#45;&gt;Node5</title>
<g id="a_edge4_Node000001_Node000005"><a xlink:title=" ">
<path fill="none" stroke="#63b8ff" d="M693.13,-98.02C701.74,-99.13 710.43,-100.25 718.91,-101.34"/>
<polygon fill="#63b8ff" stroke="#63b8ff" points="693.45,-94.53 683.09,-96.73 692.56,-101.47 693.45,-94.53"/>
</a>
</g>
</g>
<!-- Node8 -->
<g id="Node000008" class="node">
<title>Node8</title>
<g id="a_Node000008"><a xlink:href="classDynExpInstr_1_1DigitalInTasks_1_1InitTask.html" target="_top" xlink:title="Defines a task for initializing an instrument within an instrument inheritance hierarchy....">
<polygon fill="white" stroke="#666666" points="870,-78 720,-78 720,-48 870,-48 870,-78"/>
<text text-anchor="start" x="728" y="-66" font-family="Helvetica,sans-Serif" font-size="10.00">DynExpInstr::DigitalInTasks</text>
<text text-anchor="middle" x="795" y="-55" font-family="Helvetica,sans-Serif" font-size="10.00">::InitTask</text>
</a>
</g>
</g>
<!-- Node1&#45;&gt;Node8 -->
<g id="edge7_Node000001_Node000008" class="edge">
<title>Node1&#45;&gt;Node8</title>
<g id="a_edge7_Node000001_Node000008"><a xlink:title=" ">
<path fill="none" stroke="#63b8ff" d="M693.1,-75.98C702.02,-74.84 711.04,-73.68 719.82,-72.55"/>
<polygon fill="#63b8ff" stroke="#63b8ff" points="692.56,-72.53 683.09,-77.27 693.45,-79.47 692.56,-72.53"/>
</a>
</g>
</g>
<!-- Node2 -->
<g id="Node000002" class="node">
<title>Node2</title>
<g id="a_Node000002"><a xlink:href="classDynExpInstr_1_1DataStreamInstrumentTasks_1_1InitTask.html" target="_top" xlink:title="Defines a task for initializing an instrument within an instrument inheritance hierarchy....">
<polygon fill="white" stroke="#666666" points="494,-102 300,-102 300,-72 494,-72 494,-102"/>
<text text-anchor="start" x="308" y="-90" font-family="Helvetica,sans-Serif" font-size="10.00">DynExpInstr::DataStreamInstrument</text>
<text text-anchor="middle" x="397" y="-79" font-family="Helvetica,sans-Serif" font-size="10.00">Tasks::InitTask</text>
</a>
</g>
</g>
<!-- Node2&#45;&gt;Node1 -->
<g id="edge1_Node000001_Node000002" class="edge">
<title>Node2&#45;&gt;Node1</title>
<g id="a_edge1_Node000001_Node000002"><a xlink:title=" ">
<path fill="none" stroke="#63b8ff" d="M504.28,-87C512.91,-87 521.52,-87 529.86,-87"/>
<polygon fill="#63b8ff" stroke="#63b8ff" points="504.16,-83.5 494.16,-87 504.16,-90.5 504.16,-83.5"/>
</a>
</g>
</g>
<!-- Node3 -->
<g id="Node000003" class="node">
<title>Node3</title>
<g id="a_Node000003"><a xlink:href="classDynExp_1_1InitTaskBase.html" target="_top" xlink:title="Defines a task for initializing an instrument within an instrument inheritance hierarchy....">
<polygon fill="white" stroke="#666666" points="264,-96.5 142,-96.5 142,-77.5 264,-77.5 264,-96.5"/>
<text text-anchor="middle" x="203" y="-84.5" font-family="Helvetica,sans-Serif" font-size="10.00">DynExp::InitTaskBase</text>
</a>
</g>
</g>
<!-- Node3&#45;&gt;Node2 -->
<g id="edge2_Node000002_Node000003" class="edge">
<title>Node3&#45;&gt;Node2</title>
<g id="a_edge2_Node000002_Node000003"><a xlink:title=" ">
<path fill="none" stroke="#63b8ff" d="M274.5,-87C282.74,-87 291.25,-87 299.76,-87"/>
<polygon fill="#63b8ff" stroke="#63b8ff" points="274.22,-83.5 264.22,-87 274.22,-90.5 274.22,-83.5"/>
</a>
</g>
</g>
<!-- Node4 -->
<g id="Node000004" class="node">
<title>Node4</title>
<g id="a_Node000004"><a xlink:href="classDynExp_1_1TaskBase.html" target="_top" xlink:title="Base class for all tasks being processed by instruments. The class must not contain public virtual fu...">
<polygon fill="white" stroke="#666666" points="106,-96.5 0,-96.5 0,-77.5 106,-77.5 106,-96.5"/>
<text text-anchor="middle" x="53" y="-84.5" font-family="Helvetica,sans-Serif" font-size="10.00">DynExp::TaskBase</text>
</a>
</g>
</g>
<!-- Node4&#45;&gt;Node3 -->
<g id="edge3_Node000003_Node000004" class="edge">
<title>Node4&#45;&gt;Node3</title>
<g id="a_edge3_Node000003_Node000004"><a xlink:title=" ">
<path fill="none" stroke="#63b8ff" d="M116.38,-87C124.85,-87 133.52,-87 141.95,-87"/>
<polygon fill="#63b8ff" stroke="#63b8ff" points="116.18,-83.5 106.18,-87 116.18,-90.5 116.18,-83.5"/>
</a>
</g>
</g>
<!-- Node6 -->
<g id="Node000006" class="node">
<title>Node6</title>
<g id="a_Node000006"><a xlink:href="classDynExpInstr_1_1DummyAnalogInTasks_1_1InitTask.html" target="_top" xlink:title=" ">
<polygon fill="white" stroke="#666666" points="1062,-174 907,-174 907,-144 1062,-144 1062,-174"/>
<text text-anchor="start" x="915" y="-162" font-family="Helvetica,sans-Serif" font-size="10.00">DynExpInstr::DummyAnalog</text>
<text text-anchor="middle" x="984.5" y="-151" font-family="Helvetica,sans-Serif" font-size="10.00">InTasks::InitTask</text>
</a>
</g>
</g>
<!-- Node5&#45;&gt;Node6 -->
<g id="edge5_Node000005_Node000006" class="edge">
<title>Node5&#45;&gt;Node6</title>
<g id="a_edge5_Node000005_Node000006"><a xlink:title=" ">
<path fill="none" stroke="#63b8ff" d="M864.67,-128.58C884.44,-133.64 905.8,-139.11 924.9,-144"/>
<polygon fill="#63b8ff" stroke="#63b8ff" points="865.37,-125.15 854.81,-126.06 863.63,-131.93 865.37,-125.15"/>
</a>
</g>
</g>
<!-- Node7 -->
<g id="Node000007" class="node">
<title>Node7</title>
<g id="a_Node000007"><a xlink:href="classDynExpInstr_1_1NIDAQAnalogInTasks_1_1InitTask.html" target="_top" xlink:title=" ">
<polygon fill="white" stroke="#666666" points="1058.5,-126 910.5,-126 910.5,-96 1058.5,-96 1058.5,-126"/>
<text text-anchor="start" x="918.5" y="-114" font-family="Helvetica,sans-Serif" font-size="10.00">DynExpInstr::NIDAQAnalog</text>
<text text-anchor="middle" x="984.5" y="-103" font-family="Helvetica,sans-Serif" font-size="10.00">InTasks::InitTask</text>
</a>
</g>
</g>
<!-- Node5&#45;&gt;Node7 -->
<g id="edge6_Node000005_Node000007" class="edge">
<title>Node5&#45;&gt;Node7</title>
<g id="a_edge6_Node000005_Node000007"><a xlink:title=" ">
<path fill="none" stroke="#63b8ff" d="M881.27,-111C891.01,-111 900.87,-111 910.44,-111"/>
<polygon fill="#63b8ff" stroke="#63b8ff" points="881.18,-107.5 871.18,-111 881.18,-114.5 881.18,-107.5"/>
</a>
</g>
</g>
<!-- Node9 -->
<g id="Node000009" class="node">
<title>Node9</title>
<g id="a_Node000009"><a xlink:href="classDynExpInstr_1_1DummyDigitalInTasks_1_1InitTask.html" target="_top" xlink:title=" ">
<polygon fill="white" stroke="#666666" points="1061,-78 908,-78 908,-48 1061,-48 1061,-78"/>
<text text-anchor="start" x="916" y="-66" font-family="Helvetica,sans-Serif" font-size="10.00">DynExpInstr::DummyDigital</text>
<text text-anchor="middle" x="984.5" y="-55" font-family="Helvetica,sans-Serif" font-size="10.00">InTasks::InitTask</text>
</a>
</g>
</g>
<!-- Node8&#45;&gt;Node9 -->
<g id="edge8_Node000008_Node000009" class="edge">
<title>Node8&#45;&gt;Node9</title>
<g id="a_edge8_Node000008_Node000009"><a xlink:title=" ">
<path fill="none" stroke="#63b8ff" d="M880.35,-63C889.49,-63 898.75,-63 907.78,-63"/>
<polygon fill="#63b8ff" stroke="#63b8ff" points="880.1,-59.5 870.1,-63 880.1,-66.5 880.1,-59.5"/>
</a>
</g>
</g>
<!-- Node10 -->
<g id="Node000010" class="node">
<title>Node10</title>
<g id="a_Node000010"><a xlink:href="classDynExpInstr_1_1NIDAQDigitalInTasks_1_1InitTask.html" target="_top" xlink:title=" ">
<polygon fill="white" stroke="#666666" points="1057.5,-30 911.5,-30 911.5,0 1057.5,0 1057.5,-30"/>
<text text-anchor="start" x="919.5" y="-18" font-family="Helvetica,sans-Serif" font-size="10.00">DynExpInstr::NIDAQDigital</text>
<text text-anchor="middle" x="984.5" y="-7" font-family="Helvetica,sans-Serif" font-size="10.00">InTasks::InitTask</text>
</a>
</g>
</g>
<!-- Node8&#45;&gt;Node10 -->
<g id="edge9_Node000008_Node000010" class="edge">
<title>Node8&#45;&gt;Node10</title>
<g id="a_edge9_Node000008_Node000010"><a xlink:title=" ">
<path fill="none" stroke="#63b8ff" d="M864.67,-45.42C884.44,-40.36 905.8,-34.89 924.9,-30"/>
<polygon fill="#63b8ff" stroke="#63b8ff" points="863.63,-42.07 854.81,-47.94 865.37,-48.85 863.63,-42.07"/>
</a>
</g>
</g>
</g>
</svg>
