<?xml version="1.0" encoding="UTF-8" standalone="no"?>
<!DOCTYPE svg PUBLIC "-//W3C//DTD SVG 1.1//EN"
 "http://www.w3.org/Graphics/SVG/1.1/DTD/svg11.dtd">
<!-- Generated by graphviz version 2.43.0 (0)
 -->
<!-- Title: DynExp::HardwareAdapterParamsBase Pages: 1 -->
<svg width="1374pt" height="386pt"
 viewBox="0.00 0.00 1374.00 385.50" xmlns="http://www.w3.org/2000/svg" xmlns:xlink="http://www.w3.org/1999/xlink">
<g id="graph0" class="graph" transform="scale(1 1) rotate(0) translate(4 381.5)">
<title>DynExp::HardwareAdapterParamsBase</title>
<!-- Node1 -->
<g id="Node000001" class="node">
<title>Node1</title>
<g id="a_Node000001"><a xlink:title="Parameter class for HardwareAdapterBase.">
<polygon fill="#999999" stroke="#666666" points="685,-192.5 479,-192.5 479,-173.5 685,-173.5 685,-192.5"/>
<text text-anchor="middle" x="582" y="-180.5" font-family="Helvetica,sans-Serif" font-size="10.00">DynExp::HardwareAdapterParamsBase</text>
</a>
</g>
</g>
<!-- Node5 -->
<g id="Node000005" class="node">
<title>Node5</title>
<g id="a_Node000005"><a xlink:href="classDynExpHardware_1_1gRPCHardwareAdapterParams.html" target="_top" xlink:title=" ">
<polygon fill="white" stroke="#666666" points="917,-377.5 737,-377.5 737,-336.5 917,-336.5 917,-377.5"/>
<text text-anchor="start" x="745" y="-365.5" font-family="Helvetica,sans-Serif" font-size="10.00">DynExpHardware::gRPCHardware</text>
<text text-anchor="start" x="745" y="-354.5" font-family="Helvetica,sans-Serif" font-size="10.00">AdapterParams&lt; pulse_streamer</text>
<text text-anchor="middle" x="827" y="-343.5" font-family="Helvetica,sans-Serif" font-size="10.00">::PulseStreamer &gt;</text>
</a>
</g>
</g>
<!-- Node1&#45;&gt;Node5 -->
<g id="edge4_Node000001_Node000005" class="edge">
<title>Node1&#45;&gt;Node5</title>
<g id="a_edge4_Node000001_Node000005"><a xlink:title=" ">
<path fill="none" stroke="#63b8ff" d="M595.38,-201.17C617.17,-231.75 665.37,-293.46 721,-327 726.85,-330.52 733.12,-333.65 739.6,-336.42"/>
<polygon fill="#63b8ff" stroke="#63b8ff" points="598.08,-198.93 589.49,-192.74 592.35,-202.94 598.08,-198.93"/>
</a>
</g>
</g>
<!-- Node7 -->
<g id="Node000007" class="node">
<title>Node7</title>
<g id="a_Node000007"><a xlink:href="classDynExp_1_1SerialCommunicationHardwareAdapterParams.html" target="_top" xlink:title="Parameter class for SerialCommunicationHardwareAdapter.">
<polygon fill="white" stroke="#666666" points="909.5,-318 744.5,-318 744.5,-288 909.5,-288 909.5,-318"/>
<text text-anchor="start" x="752.5" y="-306" font-family="Helvetica,sans-Serif" font-size="10.00">DynExp::SerialCommunication</text>
<text text-anchor="middle" x="827" y="-295" font-family="Helvetica,sans-Serif" font-size="10.00">HardwareAdapterParams</text>
</a>
</g>
</g>
<!-- Node1&#45;&gt;Node7 -->
<g id="edge6_Node000001_Node000007" class="edge">
<title>Node1&#45;&gt;Node7</title>
<g id="a_edge6_Node000001_Node000007"><a xlink:title=" ">
<path fill="none" stroke="#63b8ff" d="M601.2,-199.15C626.36,-220.6 674,-258.22 721,-279 728.78,-282.44 737.11,-285.42 745.56,-287.98"/>
<polygon fill="#63b8ff" stroke="#63b8ff" points="603.42,-196.43 593.57,-192.54 598.84,-201.73 603.42,-196.43"/>
</a>
</g>
</g>
<!-- Node11 -->
<g id="Node000011" class="node">
<title>Node11</title>
<g id="a_Node000011"><a xlink:href="classDynExpHardware_1_1NIDAQHardwareAdapterParams.html" target="_top" xlink:title=" ">
<polygon fill="white" stroke="#666666" points="920.5,-270 733.5,-270 733.5,-240 920.5,-240 920.5,-270"/>
<text text-anchor="start" x="741.5" y="-258" font-family="Helvetica,sans-Serif" font-size="10.00">DynExpHardware::NIDAQHardware</text>
<text text-anchor="middle" x="827" y="-247" font-family="Helvetica,sans-Serif" font-size="10.00">AdapterParams</text>
</a>
</g>
</g>
<!-- Node1&#45;&gt;Node11 -->
<g id="edge10_Node000001_Node000011" class="edge">
<title>Node1&#45;&gt;Node11</title>
<g id="a_edge10_Node000001_Node000011"><a xlink:title=" ">
<path fill="none" stroke="#63b8ff" d="M617.28,-196.11C645,-206.42 685.17,-220.71 721,-231 732.05,-234.18 743.86,-237.21 755.41,-239.99"/>
<polygon fill="#63b8ff" stroke="#63b8ff" points="618.26,-192.73 607.67,-192.5 615.8,-199.29 618.26,-192.73"/>
</a>
</g>
</g>
<!-- Node12 -->
<g id="Node000012" class="node">
<title>Node12</title>
<g id="a_Node000012"><a xlink:href="classDynExpHardware_1_1PVCamHardwareAdapterParams.html" target="_top" xlink:title=" ">
<polygon fill="white" stroke="#666666" points="922,-222 732,-222 732,-192 922,-192 922,-222"/>
<text text-anchor="start" x="740" y="-210" font-family="Helvetica,sans-Serif" font-size="10.00">DynExpHardware::PVCamHardware</text>
<text text-anchor="middle" x="827" y="-199" font-family="Helvetica,sans-Serif" font-size="10.00">AdapterParams</text>
</a>
</g>
</g>
<!-- Node1&#45;&gt;Node12 -->
<g id="edge11_Node000001_Node000012" class="edge">
<title>Node1&#45;&gt;Node12</title>
<g id="a_edge11_Node000001_Node000012"><a xlink:title=" ">
<path fill="none" stroke="#63b8ff" d="M689.55,-193.52C703.59,-194.91 717.9,-196.32 731.71,-197.69"/>
<polygon fill="#63b8ff" stroke="#63b8ff" points="689.68,-190.02 679.39,-192.52 689,-196.99 689.68,-190.02"/>
</a>
</g>
</g>
<!-- Node13 -->
<g id="Node000013" class="node">
<title>Node13</title>
<g id="a_Node000013"><a xlink:href="classDynExpHardware_1_1QutoolsTDCHardwareAdapterParams.html" target="_top" xlink:title=" ">
<polygon fill="white" stroke="#666666" points="933,-174 721,-174 721,-144 933,-144 933,-174"/>
<text text-anchor="start" x="729" y="-162" font-family="Helvetica,sans-Serif" font-size="10.00">DynExpHardware::QutoolsTDCHardware</text>
<text text-anchor="middle" x="827" y="-151" font-family="Helvetica,sans-Serif" font-size="10.00">AdapterParams</text>
</a>
</g>
</g>
<!-- Node1&#45;&gt;Node13 -->
<g id="edge12_Node000001_Node000013" class="edge">
<title>Node1&#45;&gt;Node13</title>
<g id="a_edge12_Node000001_Node000013"><a xlink:title=" ">
<path fill="none" stroke="#63b8ff" d="M689.37,-172.49C699.85,-171.46 710.47,-170.41 720.93,-169.38"/>
<polygon fill="#63b8ff" stroke="#63b8ff" points="689,-169.01 679.39,-173.48 689.68,-175.98 689,-169.01"/>
</a>
</g>
</g>
<!-- Node14 -->
<g id="Node000014" class="node">
<title>Node14</title>
<g id="a_Node000014"><a xlink:href="classDynExpHardware_1_1SmarActHardwareAdapterParams.html" target="_top" xlink:title=" ">
<polygon fill="white" stroke="#666666" points="925,-126 729,-126 729,-96 925,-96 925,-126"/>
<text text-anchor="start" x="737" y="-114" font-family="Helvetica,sans-Serif" font-size="10.00">DynExpHardware::SmarActHardware</text>
<text text-anchor="middle" x="827" y="-103" font-family="Helvetica,sans-Serif" font-size="10.00">AdapterParams</text>
</a>
</g>
</g>
<!-- Node1&#45;&gt;Node14 -->
<g id="edge13_Node000001_Node000014" class="edge">
<title>Node1&#45;&gt;Node14</title>
<g id="a_edge13_Node000001_Node000014"><a xlink:title=" ">
<path fill="none" stroke="#63b8ff" d="M617.28,-169.89C645,-159.58 685.17,-145.29 721,-135 732.05,-131.82 743.86,-128.79 755.41,-126.01"/>
<polygon fill="#63b8ff" stroke="#63b8ff" points="615.8,-166.71 607.67,-173.5 618.26,-173.27 615.8,-166.71"/>
</a>
</g>
</g>
<!-- Node15 -->
<g id="Node000015" class="node">
<title>Node15</title>
<g id="a_Node000015"><a xlink:href="classDynExpHardware_1_1ZILabOneHardwareAdapterParams.html" target="_top" xlink:title=" ">
<polygon fill="white" stroke="#666666" points="904,-78 750,-78 750,-48 904,-48 904,-78"/>
<text text-anchor="start" x="758" y="-66" font-family="Helvetica,sans-Serif" font-size="10.00">DynExpHardware::ZILabOne</text>
<text text-anchor="middle" x="827" y="-55" font-family="Helvetica,sans-Serif" font-size="10.00">HardwareAdapterParams</text>
</a>
</g>
</g>
<!-- Node1&#45;&gt;Node15 -->
<g id="edge14_Node000001_Node000015" class="edge">
<title>Node1&#45;&gt;Node15</title>
<g id="a_edge14_Node000001_Node000015"><a xlink:title=" ">
<path fill="none" stroke="#63b8ff" d="M601.2,-166.85C626.36,-145.4 674,-107.78 721,-87 730.06,-82.99 739.88,-79.62 749.74,-76.78"/>
<polygon fill="#63b8ff" stroke="#63b8ff" points="598.84,-164.27 593.57,-173.46 603.42,-169.57 598.84,-164.27"/>
</a>
</g>
</g>
<!-- Node16 -->
<g id="Node000016" class="node">
<title>Node16</title>
<g id="a_Node000016"><a xlink:href="classDynExpHardware_1_1gRPCHardwareAdapterParams.html" target="_top" xlink:title="Parameter class for gRPCHardwareAdapter.">
<polygon fill="white" stroke="#666666" points="917,-30 737,-30 737,0 917,0 917,-30"/>
<text text-anchor="start" x="745" y="-18" font-family="Helvetica,sans-Serif" font-size="10.00">DynExpHardware::gRPCHardware</text>
<text text-anchor="middle" x="827" y="-7" font-family="Helvetica,sans-Serif" font-size="10.00">AdapterParams&lt; gRPCStub &gt;</text>
</a>
</g>
</g>
<!-- Node1&#45;&gt;Node16 -->
<g id="edge15_Node000001_Node000016" class="edge">
<title>Node1&#45;&gt;Node16</title>
<g id="a_edge15_Node000001_Node000016"><a xlink:title=" ">
<path fill="none" stroke="#63b8ff" d="M594.88,-164.96C616.24,-134.05 664.22,-71.19 721,-39 727.1,-35.54 733.67,-32.58 740.43,-30.05"/>
<polygon fill="#63b8ff" stroke="#63b8ff" points="591.83,-163.21 589.13,-173.46 597.63,-167.14 591.83,-163.21"/>
</a>
</g>
</g>
<!-- Node2 -->
<g id="Node000002" class="node">
<title>Node2</title>
<g id="a_Node000002"><a xlink:href="classDynExp_1_1ParamsBase.html" target="_top" xlink:title="Abstract base class for object parameter classes. Each class derived from class Object must be accomp...">
<polygon fill="white" stroke="#666666" points="443,-192.5 323,-192.5 323,-173.5 443,-173.5 443,-192.5"/>
<text text-anchor="middle" x="383" y="-180.5" font-family="Helvetica,sans-Serif" font-size="10.00">DynExp::ParamsBase</text>
</a>
</g>
</g>
<!-- Node2&#45;&gt;Node1 -->
<g id="edge1_Node000001_Node000002" class="edge">
<title>Node2&#45;&gt;Node1</title>
<g id="a_edge1_Node000001_Node000002"><a xlink:title=" ">
<path fill="none" stroke="#63b8ff" d="M453.13,-183C461.48,-183 470.15,-183 478.85,-183"/>
<polygon fill="#63b8ff" stroke="#63b8ff" points="453.11,-179.5 443.11,-183 453.11,-186.5 453.11,-179.5"/>
</a>
</g>
</g>
<!-- Node3 -->
<g id="Node000003" class="node">
<title>Node3</title>
<g id="a_Node000003"><a xlink:href="classUtil_1_1ISynchronizedPointerLockable.html" target="_top" xlink:title="Interface to allow synchronizing the access to derived classes between different threads by making th...">
<polygon fill="white" stroke="#666666" points="287,-198 144,-198 144,-168 287,-168 287,-198"/>
<text text-anchor="start" x="152" y="-186" font-family="Helvetica,sans-Serif" font-size="10.00">Util::ISynchronizedPointer</text>
<text text-anchor="middle" x="215.5" y="-175" font-family="Helvetica,sans-Serif" font-size="10.00">Lockable</text>
</a>
</g>
</g>
<!-- Node3&#45;&gt;Node2 -->
<g id="edge2_Node000002_Node000003" class="edge">
<title>Node3&#45;&gt;Node2</title>
<g id="a_edge2_Node000002_Node000003"><a xlink:title=" ">
<path fill="none" stroke="#63b8ff" d="M297.23,-183C305.84,-183 314.47,-183 322.76,-183"/>
<polygon fill="#63b8ff" stroke="#63b8ff" points="297.17,-179.5 287.17,-183 297.17,-186.5 297.17,-179.5"/>
</a>
</g>
</g>
<!-- Node4 -->
<g id="Node000004" class="node">
<title>Node4</title>
<g id="a_Node000004"><a xlink:href="classUtil_1_1INonCopyable.html" target="_top" xlink:title="Interface to delete copy constructor and copy assignment operator and thus make derived classes non&#45;c...">
<polygon fill="white" stroke="#666666" points="108,-192.5 0,-192.5 0,-173.5 108,-173.5 108,-192.5"/>
<text text-anchor="middle" x="54" y="-180.5" font-family="Helvetica,sans-Serif" font-size="10.00">Util::INonCopyable</text>
</a>
</g>
</g>
<!-- Node4&#45;&gt;Node3 -->
<g id="edge3_Node000003_Node000004" class="edge">
<title>Node4&#45;&gt;Node3</title>
<g id="a_edge3_Node000003_Node000004"><a xlink:title=" ">
<path fill="none" stroke="#63b8ff" d="M118.19,-183C126.58,-183 135.23,-183 143.74,-183"/>
<polygon fill="#63b8ff" stroke="#63b8ff" points="118.11,-179.5 108.11,-183 118.11,-186.5 118.11,-179.5"/>
</a>
</g>
</g>
<!-- Node6 -->
<g id="Node000006" class="node">
<title>Node6</title>
<g id="a_Node000006"><a xlink:href="classDynExpHardware_1_1SIPulseStreamerHardwareAdapterParams.html" target="_top" xlink:title=" ">
<polygon fill="white" stroke="#666666" points="1157,-372 969,-372 969,-342 1157,-342 1157,-372"/>
<text text-anchor="start" x="977" y="-360" font-family="Helvetica,sans-Serif" font-size="10.00">DynExpHardware::SIPulseStreamer</text>
<text text-anchor="middle" x="1063" y="-349" font-family="Helvetica,sans-Serif" font-size="10.00">HardwareAdapterParams</text>
</a>
</g>
</g>
<!-- Node5&#45;&gt;Node6 -->
<g id="edge5_Node000005_Node000006" class="edge">
<title>Node5&#45;&gt;Node6</title>
<g id="a_edge5_Node000005_Node000006"><a xlink:title=" ">
<path fill="none" stroke="#63b8ff" d="M927.53,-357C941.23,-357 955.26,-357 968.84,-357"/>
<polygon fill="#63b8ff" stroke="#63b8ff" points="927.13,-353.5 917.13,-357 927.13,-360.5 927.13,-353.5"/>
</a>
</g>
</g>
<!-- Node8 -->
<g id="Node000008" class="node">
<title>Node8</title>
<g id="a_Node000008"><a xlink:href="classDynExp_1_1QSerialCommunicationHardwareAdapterParams.html" target="_top" xlink:title="Parameter class for QSerialCommunicationHardwareAdapter.">
<polygon fill="white" stroke="#666666" points="1149.5,-318 976.5,-318 976.5,-288 1149.5,-288 1149.5,-318"/>
<text text-anchor="start" x="984.5" y="-306" font-family="Helvetica,sans-Serif" font-size="10.00">DynExp::QSerialCommunication</text>
<text text-anchor="middle" x="1063" y="-295" font-family="Helvetica,sans-Serif" font-size="10.00">HardwareAdapterParams</text>
</a>
</g>
</g>
<!-- Node7&#45;&gt;Node8 -->
<g id="edge7_Node000007_Node000008" class="edge">
<title>Node7&#45;&gt;Node8</title>
<g id="a_edge7_Node000007_Node000008"><a xlink:title=" ">
<path fill="none" stroke="#63b8ff" d="M919.77,-303C938.42,-303 957.98,-303 976.41,-303"/>
<polygon fill="#63b8ff" stroke="#63b8ff" points="919.51,-299.5 909.51,-303 919.51,-306.5 919.51,-299.5"/>
</a>
</g>
</g>
<!-- Node9 -->
<g id="Node000009" class="node">
<title>Node9</title>
<g id="a_Node000009"><a xlink:href="classDynExp_1_1HardwareAdapterSerialPortParams.html" target="_top" xlink:title="Parameter class for HardwareAdapterSerialPort.">
<polygon fill="white" stroke="#666666" points="1366,-342 1193,-342 1193,-312 1366,-312 1366,-342"/>
<text text-anchor="start" x="1201" y="-330" font-family="Helvetica,sans-Serif" font-size="10.00">DynExp::HardwareAdapterSerial</text>
<text text-anchor="middle" x="1279.5" y="-319" font-family="Helvetica,sans-Serif" font-size="10.00">PortParams</text>
</a>
</g>
</g>
<!-- Node8&#45;&gt;Node9 -->
<g id="edge8_Node000008_Node000009" class="edge">
<title>Node8&#45;&gt;Node9</title>
<g id="a_edge8_Node000008_Node000009"><a xlink:title=" ">
<path fill="none" stroke="#63b8ff" d="M1159.78,-313.72C1170.83,-314.95 1182.04,-316.21 1192.94,-317.43"/>
<polygon fill="#63b8ff" stroke="#63b8ff" points="1160.03,-310.22 1149.7,-312.59 1159.25,-317.18 1160.03,-310.22"/>
</a>
</g>
</g>
<!-- Node10 -->
<g id="Node000010" class="node">
<title>Node10</title>
<g id="a_Node000010"><a xlink:href="classDynExp_1_1HardwareAdapterTcpSocketParams.html" target="_top" xlink:title="Parameter class for HardwareAdapterTcpSocket.">
<polygon fill="white" stroke="#666666" points="1360,-294 1199,-294 1199,-264 1360,-264 1360,-294"/>
<text text-anchor="start" x="1207" y="-282" font-family="Helvetica,sans-Serif" font-size="10.00">DynExp::HardwareAdapterTcp</text>
<text text-anchor="middle" x="1279.5" y="-271" font-family="Helvetica,sans-Serif" font-size="10.00">SocketParams</text>
</a>
</g>
</g>
<!-- Node8&#45;&gt;Node10 -->
<g id="edge9_Node000008_Node000010" class="edge">
<title>Node8&#45;&gt;Node10</title>
<g id="a_edge9_Node000008_Node000010"><a xlink:title=" ">
<path fill="none" stroke="#63b8ff" d="M1159.66,-292.3C1172.75,-290.83 1186.08,-289.34 1198.85,-287.91"/>
<polygon fill="#63b8ff" stroke="#63b8ff" points="1159.25,-288.82 1149.7,-293.41 1160.03,-295.78 1159.25,-288.82"/>
</a>
</g>
</g>
</g>
</svg>
