<?xml version="1.0" encoding="UTF-8" standalone="no"?>
<!DOCTYPE svg PUBLIC "-//W3C//DTD SVG 1.1//EN"
 "http://www.w3.org/Graphics/SVG/1.1/DTD/svg11.dtd">
<!-- Generated by graphviz version 2.43.0 (0)
 -->
<!-- Title: DynExpModule::NetworkAnalogInT&lt; gRPCServices &gt;::CallDataHardwareResolution Pages: 1 -->
<svg width="517pt" height="83pt"
 viewBox="0.00 0.00 517.00 83.00" xmlns="http://www.w3.org/2000/svg" xmlns:xlink="http://www.w3.org/1999/xlink">
<g id="graph0" class="graph" transform="scale(1 1) rotate(0) translate(4 79)">
<title>DynExpModule::NetworkAnalogInT&lt; gRPCServices &gt;::CallDataHardwareResolution</title>
<polygon fill="white" stroke="transparent" points="-4,4 -4,-79 513,-79 513,4 -4,4"/>
<!-- Node1 -->
<g id="node1" class="node">
<title>Node1</title>
<g id="a_node1"><a xlink:title=" ">
<polygon fill="#bfbfbf" stroke="black" points="293,-17 293,-58 509,-58 509,-17 293,-17"/>
<text text-anchor="start" x="301" y="-46" font-family="Helvetica,sans-Serif" font-size="10.00">DynExpModule::NetworkAnalog</text>
<text text-anchor="start" x="301" y="-35" font-family="Helvetica,sans-Serif" font-size="10.00">InT&lt; gRPCServices &gt;::CallDataHardware</text>
<text text-anchor="middle" x="401" y="-24" font-family="Helvetica,sans-Serif" font-size="10.00">Resolution</text>
</a>
</g>
</g>
<!-- Node2 -->
<g id="node2" class="node">
<title>Node2</title>
<g id="a_node2"><a xlink:title=" ">
<polygon fill="white" stroke="#bfbfbf" points="0,-0.5 0,-74.5 257,-74.5 257,-0.5 0,-0.5"/>
<text text-anchor="start" x="8" y="-62.5" font-family="Helvetica,sans-Serif" font-size="10.00">gRPCModule::template</text>
<text text-anchor="start" x="8" y="-51.5" font-family="Helvetica,sans-Serif" font-size="10.00"> TypedCallDataBase&lt; CallData</text>
<text text-anchor="start" x="8" y="-40.5" font-family="Helvetica,sans-Serif" font-size="10.00">HardwareResolution, ThisServiceType,</text>
<text text-anchor="start" x="8" y="-29.5" font-family="Helvetica,sans-Serif" font-size="10.00"> DynExpProto::Common::VoidMessage,</text>
<text text-anchor="start" x="8" y="-18.5" font-family="Helvetica,sans-Serif" font-size="10.00"> DynExpProto::NetworkAnalogIn::ValueResolution</text>
<text text-anchor="middle" x="128.5" y="-7.5" font-family="Helvetica,sans-Serif" font-size="10.00">Message &gt;</text>
</a>
</g>
</g>
<!-- Node2&#45;&gt;Node1 -->
<g id="edge1" class="edge">
<title>Node2&#45;&gt;Node1</title>
<path fill="none" stroke="midnightblue" d="M267.28,-37.5C275.84,-37.5 284.39,-37.5 292.79,-37.5"/>
<polygon fill="midnightblue" stroke="midnightblue" points="267.22,-34 257.22,-37.5 267.22,-41 267.22,-34"/>
</g>
</g>
</svg>
