<?xml version="1.0" encoding="UTF-8" standalone="no"?>
<!DOCTYPE svg PUBLIC "-//W3C//DTD SVG 1.1//EN"
 "http://www.w3.org/Graphics/SVG/1.1/DTD/svg11.dtd">
<!-- Generated by graphviz version 2.43.0 (0)
 -->
<!-- Title: DynExpHardware::SIPulseStreamerHardwareAdapterParams Pages: 1 -->
<svg width="214pt" height="346pt"
 viewBox="0.00 0.00 214.00 346.00" xmlns="http://www.w3.org/2000/svg" xmlns:xlink="http://www.w3.org/1999/xlink">
<g id="graph0" class="graph" transform="scale(1 1) rotate(0) translate(4 342)">
<title>DynExpHardware::SIPulseStreamerHardwareAdapterParams</title>
<!-- Node1 -->
<g id="Node000001" class="node">
<title>Node1</title>
<g id="a_Node000001"><a xlink:title=" ">
<polygon fill="#999999" stroke="#666666" points="197,-30 9,-30 9,0 197,0 197,-30"/>
<text text-anchor="start" x="17" y="-18" font-family="Helvetica,sans-Serif" font-size="10.00">DynExpHardware::SIPulseStreamer</text>
<text text-anchor="middle" x="103" y="-7" font-family="Helvetica,sans-Serif" font-size="10.00">HardwareAdapterParams</text>
</a>
</g>
</g>
<!-- Node2 -->
<g id="Node000002" class="node">
<title>Node2</title>
<g id="a_Node000002"><a xlink:href="classDynExpHardware_1_1gRPCHardwareAdapterParams.html" target="_top" xlink:title=" ">
<polygon fill="white" stroke="#666666" points="193,-107 13,-107 13,-66 193,-66 193,-107"/>
<text text-anchor="start" x="21" y="-95" font-family="Helvetica,sans-Serif" font-size="10.00">DynExpHardware::gRPCHardware</text>
<text text-anchor="start" x="21" y="-84" font-family="Helvetica,sans-Serif" font-size="10.00">AdapterParams&lt; pulse_streamer</text>
<text text-anchor="middle" x="103" y="-73" font-family="Helvetica,sans-Serif" font-size="10.00">::PulseStreamer &gt;</text>
</a>
</g>
</g>
<!-- Node2&#45;&gt;Node1 -->
<g id="edge1_Node000001_Node000002" class="edge">
<title>Node2&#45;&gt;Node1</title>
<g id="a_edge1_Node000001_Node000002"><a xlink:title=" ">
<path fill="none" stroke="#63b8ff" d="M103,-55.66C103,-46.76 103,-37.42 103,-30.04"/>
<polygon fill="#63b8ff" stroke="#63b8ff" points="99.5,-55.77 103,-65.77 106.5,-55.77 99.5,-55.77"/>
</a>
</g>
</g>
<!-- Node3 -->
<g id="Node000003" class="node">
<title>Node3</title>
<g id="a_Node000003"><a xlink:href="classDynExp_1_1HardwareAdapterParamsBase.html" target="_top" xlink:title="Parameter class for HardwareAdapterBase.">
<polygon fill="white" stroke="#666666" points="206,-162 0,-162 0,-143 206,-143 206,-162"/>
<text text-anchor="middle" x="103" y="-150" font-family="Helvetica,sans-Serif" font-size="10.00">DynExp::HardwareAdapterParamsBase</text>
</a>
</g>
</g>
<!-- Node3&#45;&gt;Node2 -->
<g id="edge2_Node000002_Node000003" class="edge">
<title>Node3&#45;&gt;Node2</title>
<g id="a_edge2_Node000002_Node000003"><a xlink:title=" ">
<path fill="none" stroke="#63b8ff" d="M103,-132.63C103,-124.56 103,-115.15 103,-107.01"/>
<polygon fill="#63b8ff" stroke="#63b8ff" points="99.5,-132.87 103,-142.87 106.5,-132.87 99.5,-132.87"/>
</a>
</g>
</g>
<!-- Node4 -->
<g id="Node000004" class="node">
<title>Node4</title>
<g id="a_Node000004"><a xlink:href="classDynExp_1_1ParamsBase.html" target="_top" xlink:title="Abstract base class for object parameter classes. Each class derived from class Object must be accomp...">
<polygon fill="white" stroke="#666666" points="163,-217 43,-217 43,-198 163,-198 163,-217"/>
<text text-anchor="middle" x="103" y="-205" font-family="Helvetica,sans-Serif" font-size="10.00">DynExp::ParamsBase</text>
</a>
</g>
</g>
<!-- Node4&#45;&gt;Node3 -->
<g id="edge3_Node000003_Node000004" class="edge">
<title>Node4&#45;&gt;Node3</title>
<g id="a_edge3_Node000003_Node000004"><a xlink:title=" ">
<path fill="none" stroke="#63b8ff" d="M103,-187.66C103,-178.93 103,-168.99 103,-162.09"/>
<polygon fill="#63b8ff" stroke="#63b8ff" points="99.5,-187.75 103,-197.75 106.5,-187.75 99.5,-187.75"/>
</a>
</g>
</g>
<!-- Node5 -->
<g id="Node000005" class="node">
<title>Node5</title>
<g id="a_Node000005"><a xlink:href="classUtil_1_1ISynchronizedPointerLockable.html" target="_top" xlink:title="Interface to allow synchronizing the access to derived classes between different threads by making th...">
<polygon fill="white" stroke="#666666" points="174.5,-283 31.5,-283 31.5,-253 174.5,-253 174.5,-283"/>
<text text-anchor="start" x="39.5" y="-271" font-family="Helvetica,sans-Serif" font-size="10.00">Util::ISynchronizedPointer</text>
<text text-anchor="middle" x="103" y="-260" font-family="Helvetica,sans-Serif" font-size="10.00">Lockable</text>
</a>
</g>
</g>
<!-- Node5&#45;&gt;Node4 -->
<g id="edge4_Node000004_Node000005" class="edge">
<title>Node5&#45;&gt;Node4</title>
<g id="a_edge4_Node000004_Node000005"><a xlink:title=" ">
<path fill="none" stroke="#63b8ff" d="M103,-242.75C103,-233.72 103,-224.03 103,-217.27"/>
<polygon fill="#63b8ff" stroke="#63b8ff" points="99.5,-242.84 103,-252.84 106.5,-242.84 99.5,-242.84"/>
</a>
</g>
</g>
<!-- Node6 -->
<g id="Node000006" class="node">
<title>Node6</title>
<g id="a_Node000006"><a xlink:href="classUtil_1_1INonCopyable.html" target="_top" xlink:title="Interface to delete copy constructor and copy assignment operator and thus make derived classes non&#45;c...">
<polygon fill="white" stroke="#666666" points="157,-338 49,-338 49,-319 157,-319 157,-338"/>
<text text-anchor="middle" x="103" y="-326" font-family="Helvetica,sans-Serif" font-size="10.00">Util::INonCopyable</text>
</a>
</g>
</g>
<!-- Node6&#45;&gt;Node5 -->
<g id="edge5_Node000005_Node000006" class="edge">
<title>Node6&#45;&gt;Node5</title>
<g id="a_edge5_Node000005_Node000006"><a xlink:title=" ">
<path fill="none" stroke="#63b8ff" d="M103,-308.65C103,-300.36 103,-290.78 103,-283.11"/>
<polygon fill="#63b8ff" stroke="#63b8ff" points="99.5,-308.87 103,-318.87 106.5,-308.87 99.5,-308.87"/>
</a>
</g>
</g>
</g>
</svg>
