<?xml version="1.0" encoding="UTF-8" standalone="no"?>
<!DOCTYPE svg PUBLIC "-//W3C//DTD SVG 1.1//EN"
 "http://www.w3.org/Graphics/SVG/1.1/DTD/svg11.dtd">
<!-- Generated by graphviz version 2.43.0 (0)
 -->
<!-- Title: DynExp::QModuleDataBase Pages: 1 -->
<svg width="895pt" height="488pt"
 viewBox="0.00 0.00 895.00 488.00" xmlns="http://www.w3.org/2000/svg" xmlns:xlink="http://www.w3.org/1999/xlink">
<g id="graph0" class="graph" transform="scale(1 1) rotate(0) translate(4 484)">
<title>DynExp::QModuleDataBase</title>
<polygon fill="white" stroke="transparent" points="-4,4 -4,-484 891,-484 891,4 -4,4"/>
<!-- Node1 -->
<g id="node1" class="node">
<title>Node1</title>
<g id="a_node1"><a xlink:title="Data class for QModuleBase.">
<polygon fill="#bfbfbf" stroke="black" points="502,-225 502,-244 653,-244 653,-225 502,-225"/>
<text text-anchor="middle" x="577.5" y="-232" font-family="Helvetica,sans-Serif" font-size="10.00">DynExp::QModuleDataBase</text>
</a>
</g>
</g>
<!-- Node5 -->
<g id="node5" class="node">
<title>Node5</title>
<g id="a_node5"><a xlink:href="classDynExpModule_1_1ImageViewer_1_1ImageViewerData.html" target="_top" xlink:title=" ">
<polygon fill="white" stroke="black" points="707.5,-449.5 707.5,-479.5 868.5,-479.5 868.5,-449.5 707.5,-449.5"/>
<text text-anchor="start" x="715.5" y="-467.5" font-family="Helvetica,sans-Serif" font-size="10.00">DynExpModule::ImageViewer</text>
<text text-anchor="middle" x="788" y="-456.5" font-family="Helvetica,sans-Serif" font-size="10.00">::ImageViewerData</text>
</a>
</g>
</g>
<!-- Node1&#45;&gt;Node5 -->
<g id="edge4" class="edge">
<title>Node1&#45;&gt;Node5</title>
<path fill="none" stroke="midnightblue" d="M583.25,-253.8C594.36,-294.67 625.95,-390.26 689,-439.5 694.54,-443.82 700.73,-447.41 707.25,-450.37"/>
<polygon fill="midnightblue" stroke="midnightblue" points="586.61,-252.81 580.71,-244.01 579.84,-254.57 586.61,-252.81"/>
</g>
<!-- Node6 -->
<g id="node6" class="node">
<title>Node6</title>
<g id="a_node6"><a xlink:href="classDynExpModule_1_1InputPortReaderData.html" target="_top" xlink:title=" ">
<polygon fill="white" stroke="black" points="689,-411 689,-430 887,-430 887,-411 689,-411"/>
<text text-anchor="middle" x="788" y="-418" font-family="Helvetica,sans-Serif" font-size="10.00">DynExpModule::InputPortReaderData</text>
</a>
</g>
</g>
<!-- Node1&#45;&gt;Node6 -->
<g id="edge5" class="edge">
<title>Node1&#45;&gt;Node6</title>
<path fill="none" stroke="midnightblue" d="M585.53,-254.08C599.37,-289.64 633.72,-364.58 689,-401.5 694.76,-405.35 701.12,-408.46 707.74,-410.97"/>
<polygon fill="midnightblue" stroke="midnightblue" points="588.68,-252.52 581.89,-244.39 582.13,-254.98 588.68,-252.52"/>
</g>
<!-- Node7 -->
<g id="node7" class="node">
<title>Node7</title>
<g id="a_node7"><a xlink:href="classDynExpModule_1_1LockinAmplifierControlData.html" target="_top" xlink:title=" ">
<polygon fill="white" stroke="black" points="702,-361.5 702,-391.5 874,-391.5 874,-361.5 702,-361.5"/>
<text text-anchor="start" x="710" y="-379.5" font-family="Helvetica,sans-Serif" font-size="10.00">DynExpModule::LockinAmplifier</text>
<text text-anchor="middle" x="788" y="-368.5" font-family="Helvetica,sans-Serif" font-size="10.00">ControlData</text>
</a>
</g>
</g>
<!-- Node1&#45;&gt;Node7 -->
<g id="edge6" class="edge">
<title>Node1&#45;&gt;Node7</title>
<path fill="none" stroke="midnightblue" d="M590.43,-252.82C608.52,-279.07 645.41,-327.01 689,-352.5 694.9,-355.95 701.27,-358.9 707.84,-361.44"/>
<polygon fill="midnightblue" stroke="midnightblue" points="593.13,-250.56 584.64,-244.22 587.32,-254.47 593.13,-250.56"/>
</g>
<!-- Node8 -->
<g id="node8" class="node">
<title>Node8</title>
<g id="a_node8"><a xlink:href="classDynExpModule_1_1ODMR_1_1ODMRData.html" target="_top" xlink:title=" ">
<polygon fill="white" stroke="black" points="724.5,-312.5 724.5,-342.5 851.5,-342.5 851.5,-312.5 724.5,-312.5"/>
<text text-anchor="start" x="732.5" y="-330.5" font-family="Helvetica,sans-Serif" font-size="10.00">DynExpModule::ODMR</text>
<text text-anchor="middle" x="788" y="-319.5" font-family="Helvetica,sans-Serif" font-size="10.00">::ODMRData</text>
</a>
</g>
</g>
<!-- Node1&#45;&gt;Node8 -->
<g id="edge7" class="edge">
<title>Node1&#45;&gt;Node8</title>
<path fill="none" stroke="midnightblue" d="M599.35,-250.36C620.77,-265.96 655.63,-289.42 689,-303.5 700.14,-308.2 712.39,-312.11 724.35,-315.31"/>
<polygon fill="midnightblue" stroke="midnightblue" points="601.15,-247.34 591.03,-244.21 596.99,-252.97 601.15,-247.34"/>
</g>
<!-- Node9 -->
<g id="node9" class="node">
<title>Node9</title>
<g id="a_node9"><a xlink:href="classDynExpModule_1_1OutputPortWriterData.html" target="_top" xlink:title=" ">
<polygon fill="white" stroke="black" points="713.5,-263.5 713.5,-293.5 862.5,-293.5 862.5,-263.5 713.5,-263.5"/>
<text text-anchor="start" x="721.5" y="-281.5" font-family="Helvetica,sans-Serif" font-size="10.00">DynExpModule::OutputPort</text>
<text text-anchor="middle" x="788" y="-270.5" font-family="Helvetica,sans-Serif" font-size="10.00">WriterData</text>
</a>
</g>
</g>
<!-- Node1&#45;&gt;Node9 -->
<g id="edge8" class="edge">
<title>Node1&#45;&gt;Node9</title>
<path fill="none" stroke="midnightblue" d="M633.81,-246.17C658.89,-251.46 688.86,-257.79 715.61,-263.43"/>
<polygon fill="midnightblue" stroke="midnightblue" points="634.25,-242.69 623.74,-244.05 632.8,-249.54 634.25,-242.69"/>
</g>
<!-- Node10 -->
<g id="node10" class="node">
<title>Node10</title>
<g id="a_node10"><a xlink:href="classDynExpModule_1_1SignalDesignerData.html" target="_top" xlink:title=" ">
<polygon fill="white" stroke="black" points="691.5,-225 691.5,-244 884.5,-244 884.5,-225 691.5,-225"/>
<text text-anchor="middle" x="788" y="-232" font-family="Helvetica,sans-Serif" font-size="10.00">DynExpModule::SignalDesignerData</text>
</a>
</g>
</g>
<!-- Node1&#45;&gt;Node10 -->
<g id="edge9" class="edge">
<title>Node1&#45;&gt;Node10</title>
<path fill="none" stroke="midnightblue" d="M663.46,-234.5C672.66,-234.5 682.07,-234.5 691.38,-234.5"/>
<polygon fill="midnightblue" stroke="midnightblue" points="663.18,-231 653.18,-234.5 663.18,-238 663.18,-231"/>
</g>
<!-- Node11 -->
<g id="node11" class="node">
<title>Node11</title>
<g id="a_node11"><a xlink:href="classDynExpModule_1_1SignalPlotterData.html" target="_top" xlink:title=" ">
<polygon fill="white" stroke="black" points="697,-187 697,-206 879,-206 879,-187 697,-187"/>
<text text-anchor="middle" x="788" y="-194" font-family="Helvetica,sans-Serif" font-size="10.00">DynExpModule::SignalPlotterData</text>
</a>
</g>
</g>
<!-- Node1&#45;&gt;Node11 -->
<g id="edge10" class="edge">
<title>Node1&#45;&gt;Node11</title>
<path fill="none" stroke="midnightblue" d="M640.76,-223.15C670.67,-217.7 706.13,-211.24 734.63,-206.04"/>
<polygon fill="midnightblue" stroke="midnightblue" points="640.05,-219.72 630.84,-224.96 641.31,-226.61 640.05,-219.72"/>
</g>
<!-- Node12 -->
<g id="node12" class="node">
<title>Node12</title>
<g id="a_node12"><a xlink:href="classDynExpModule_1_1SpectrumViewer_1_1SpectrumViewerData.html" target="_top" xlink:title=" ">
<polygon fill="white" stroke="black" points="700,-137.5 700,-167.5 876,-167.5 876,-137.5 700,-137.5"/>
<text text-anchor="start" x="708" y="-155.5" font-family="Helvetica,sans-Serif" font-size="10.00">DynExpModule::SpectrumViewer</text>
<text text-anchor="middle" x="788" y="-144.5" font-family="Helvetica,sans-Serif" font-size="10.00">::SpectrumViewerData</text>
</a>
</g>
</g>
<!-- Node1&#45;&gt;Node12 -->
<g id="edge11" class="edge">
<title>Node1&#45;&gt;Node12</title>
<path fill="none" stroke="midnightblue" d="M603.1,-219.75C625.01,-207.12 658.28,-189.17 689,-177.5 698.77,-173.79 709.29,-170.45 719.68,-167.52"/>
<polygon fill="midnightblue" stroke="midnightblue" points="601.31,-216.74 594.44,-224.81 604.84,-222.79 601.31,-216.74"/>
</g>
<!-- Node13 -->
<g id="node13" class="node">
<title>Node13</title>
<g id="a_node13"><a xlink:href="classDynExpModule_1_1Stage1DData.html" target="_top" xlink:title=" ">
<polygon fill="white" stroke="black" points="707.5,-99 707.5,-118 868.5,-118 868.5,-99 707.5,-99"/>
<text text-anchor="middle" x="788" y="-106" font-family="Helvetica,sans-Serif" font-size="10.00">DynExpModule::Stage1DData</text>
</a>
</g>
</g>
<!-- Node1&#45;&gt;Node13 -->
<g id="edge12" class="edge">
<title>Node1&#45;&gt;Node13</title>
<path fill="none" stroke="midnightblue" d="M591.49,-216.6C610.16,-192.3 647,-149.39 689,-127.5 696.45,-123.62 704.6,-120.52 712.91,-118.06"/>
<polygon fill="midnightblue" stroke="midnightblue" points="588.45,-214.82 585.25,-224.92 594.05,-219.02 588.45,-214.82"/>
</g>
<!-- Node14 -->
<g id="node14" class="node">
<title>Node14</title>
<g id="a_node14"><a xlink:href="classDynExpModule_1_1Trajectory1DData.html" target="_top" xlink:title=" ">
<polygon fill="white" stroke="black" points="713,-49.5 713,-79.5 863,-79.5 863,-49.5 713,-49.5"/>
<text text-anchor="start" x="721" y="-67.5" font-family="Helvetica,sans-Serif" font-size="10.00">DynExpModule::Trajectory1</text>
<text text-anchor="middle" x="788" y="-56.5" font-family="Helvetica,sans-Serif" font-size="10.00">DData</text>
</a>
</g>
</g>
<!-- Node1&#45;&gt;Node14 -->
<g id="edge13" class="edge">
<title>Node1&#45;&gt;Node14</title>
<path fill="none" stroke="midnightblue" d="M587.53,-215.63C603.48,-184.4 639.68,-122.15 689,-89.5 696.32,-84.65 704.52,-80.75 712.98,-77.6"/>
<polygon fill="midnightblue" stroke="midnightblue" points="584.22,-214.44 582.91,-224.95 590.49,-217.55 584.22,-214.44"/>
</g>
<!-- Node15 -->
<g id="node15" class="node">
<title>Node15</title>
<g id="a_node15"><a xlink:href="classDynExpModule_1_1Widefield_1_1WidefieldMicroscopeData.html" target="_top" xlink:title=" ">
<polygon fill="white" stroke="black" points="714.5,-0.5 714.5,-30.5 861.5,-30.5 861.5,-0.5 714.5,-0.5"/>
<text text-anchor="start" x="722.5" y="-18.5" font-family="Helvetica,sans-Serif" font-size="10.00">DynExpModule::Widefield</text>
<text text-anchor="middle" x="788" y="-7.5" font-family="Helvetica,sans-Serif" font-size="10.00">::WidefieldMicroscopeData</text>
</a>
</g>
</g>
<!-- Node1&#45;&gt;Node15 -->
<g id="edge14" class="edge">
<title>Node1&#45;&gt;Node15</title>
<path fill="none" stroke="midnightblue" d="M583.75,-215.29C595.54,-175.86 628.02,-85.64 689,-39.5 696.54,-33.79 705.26,-29.43 714.33,-26.09"/>
<polygon fill="midnightblue" stroke="midnightblue" points="580.36,-214.4 580.96,-224.98 587.09,-216.34 580.36,-214.4"/>
</g>
<!-- Node2 -->
<g id="node2" class="node">
<title>Node2</title>
<g id="a_node2"><a xlink:href="classDynExp_1_1ModuleDataBase.html" target="_top" xlink:title="Data structure to contain data which is synchronized in between different threads....">
<polygon fill="white" stroke="black" points="323,-225 323,-244 466,-244 466,-225 323,-225"/>
<text text-anchor="middle" x="394.5" y="-232" font-family="Helvetica,sans-Serif" font-size="10.00">DynExp::ModuleDataBase</text>
</a>
</g>
</g>
<!-- Node2&#45;&gt;Node1 -->
<g id="edge1" class="edge">
<title>Node2&#45;&gt;Node1</title>
<path fill="none" stroke="midnightblue" d="M476.5,-234.5C484.96,-234.5 493.53,-234.5 501.91,-234.5"/>
<polygon fill="midnightblue" stroke="midnightblue" points="476.26,-231 466.26,-234.5 476.26,-238 476.26,-231"/>
</g>
<!-- Node3 -->
<g id="node3" class="node">
<title>Node3</title>
<g id="a_node3"><a xlink:href="classUtil_1_1ISynchronizedPointerLockable.html" target="_top" xlink:title="Interface to allow synchronizing the access to derived classes between different threads by making th...">
<polygon fill="white" stroke="black" points="144,-219.5 144,-249.5 287,-249.5 287,-219.5 144,-219.5"/>
<text text-anchor="start" x="152" y="-237.5" font-family="Helvetica,sans-Serif" font-size="10.00">Util::ISynchronizedPointer</text>
<text text-anchor="middle" x="215.5" y="-226.5" font-family="Helvetica,sans-Serif" font-size="10.00">Lockable</text>
</a>
</g>
</g>
<!-- Node3&#45;&gt;Node2 -->
<g id="edge2" class="edge">
<title>Node3&#45;&gt;Node2</title>
<path fill="none" stroke="midnightblue" d="M297.49,-234.5C305.97,-234.5 314.54,-234.5 322.89,-234.5"/>
<polygon fill="midnightblue" stroke="midnightblue" points="297.22,-231 287.22,-234.5 297.22,-238 297.22,-231"/>
</g>
<!-- Node4 -->
<g id="node4" class="node">
<title>Node4</title>
<g id="a_node4"><a xlink:href="classUtil_1_1INonCopyable.html" target="_top" xlink:title="Interface to delete copy constructor and copy assignment operator and thus make derived classes non&#45;c...">
<polygon fill="white" stroke="black" points="0,-225 0,-244 108,-244 108,-225 0,-225"/>
<text text-anchor="middle" x="54" y="-232" font-family="Helvetica,sans-Serif" font-size="10.00">Util::INonCopyable</text>
</a>
</g>
</g>
<!-- Node4&#45;&gt;Node3 -->
<g id="edge3" class="edge">
<title>Node4&#45;&gt;Node3</title>
<path fill="none" stroke="midnightblue" d="M118.19,-234.5C126.58,-234.5 135.23,-234.5 143.74,-234.5"/>
<polygon fill="midnightblue" stroke="midnightblue" points="118.11,-231 108.11,-234.5 118.11,-238 118.11,-231"/>
</g>
</g>
</svg>
