<?xml version="1.0" encoding="UTF-8" standalone="no"?>
<!DOCTYPE svg PUBLIC "-//W3C//DTD SVG 1.1//EN"
 "http://www.w3.org/Graphics/SVG/1.1/DTD/svg11.dtd">
<!-- Generated by graphviz version 2.43.0 (0)
 -->
<!-- Title: DynExp::ParamsBase::ListParam&lt; LinkType, std::enable_if_t&lt; std::is_base_of_v&lt; ObjectLinkBase, LinkType &gt; &gt; &gt; Pages: 1 -->
<svg width="292pt" height="262pt"
 viewBox="0.00 0.00 291.50 262.00" xmlns="http://www.w3.org/2000/svg" xmlns:xlink="http://www.w3.org/1999/xlink">
<g id="graph0" class="graph" transform="scale(1 1) rotate(0) translate(4 258)">
<title>DynExp::ParamsBase::ListParam&lt; LinkType, std::enable_if_t&lt; std::is_base_of_v&lt; ObjectLinkBase, LinkType &gt; &gt; &gt;</title>
<polygon fill="white" stroke="transparent" points="-4,4 -4,-258 287.5,-258 287.5,4 -4,4"/>
<!-- Node1 -->
<g id="node1" class="node">
<title>Node1</title>
<g id="a_node1"><a xlink:title="Parameter for link lists to multiple Object. If LinkType is derived from ObjectLinkBase,...">
<polygon fill="#bfbfbf" stroke="black" points="39,-0.5 39,-63.5 215,-63.5 215,-0.5 39,-0.5"/>
<text text-anchor="start" x="47" y="-51.5" font-family="Helvetica,sans-Serif" font-size="10.00">DynExp::ParamsBase</text>
<text text-anchor="start" x="47" y="-40.5" font-family="Helvetica,sans-Serif" font-size="10.00">::ListParam&lt; LinkType,</text>
<text text-anchor="start" x="47" y="-29.5" font-family="Helvetica,sans-Serif" font-size="10.00"> std::enable_if_t&lt; std</text>
<text text-anchor="start" x="47" y="-18.5" font-family="Helvetica,sans-Serif" font-size="10.00">::is_base_of_v&lt; ObjectLinkBase,</text>
<text text-anchor="middle" x="127" y="-7.5" font-family="Helvetica,sans-Serif" font-size="10.00"> LinkType &gt; &gt; &gt;</text>
</a>
</g>
</g>
<!-- Node2 -->
<g id="node2" class="node">
<title>Node2</title>
<g id="a_node2"><a xlink:href="classDynExp_1_1ParamsBase_1_1LinkListParamBase.html" target="_top" xlink:title="Base class for link list parameters to multiple Object of any (but all the same) type specifying the ...">
<polygon fill="white" stroke="black" points="67,-100.5 67,-130.5 187,-130.5 187,-100.5 67,-100.5"/>
<text text-anchor="start" x="75" y="-118.5" font-family="Helvetica,sans-Serif" font-size="10.00">DynExp::ParamsBase</text>
<text text-anchor="middle" x="127" y="-107.5" font-family="Helvetica,sans-Serif" font-size="10.00">::LinkListParamBase</text>
</a>
</g>
</g>
<!-- Node2&#45;&gt;Node1 -->
<g id="edge1" class="edge">
<title>Node2&#45;&gt;Node1</title>
<path fill="none" stroke="midnightblue" d="M127,-90.12C127,-81.78 127,-72.34 127,-63.57"/>
<polygon fill="midnightblue" stroke="midnightblue" points="123.5,-90.3 127,-100.3 130.5,-90.3 123.5,-90.3"/>
</g>
<!-- Node3 -->
<g id="node3" class="node">
<title>Node3</title>
<g id="a_node3"><a xlink:href="classDynExp_1_1LinkBase.html" target="_top" xlink:title="Abstract base class of link parameters (to be saved in project files) describing relations between mu...">
<polygon fill="white" stroke="black" points="0,-167.5 0,-186.5 104,-186.5 104,-167.5 0,-167.5"/>
<text text-anchor="middle" x="52" y="-174.5" font-family="Helvetica,sans-Serif" font-size="10.00">DynExp::LinkBase</text>
</a>
</g>
</g>
<!-- Node3&#45;&gt;Node2 -->
<g id="edge2" class="edge">
<title>Node3&#45;&gt;Node2</title>
<path fill="none" stroke="midnightblue" d="M70.66,-161.2C82.49,-151.81 97.69,-139.75 109.32,-130.52"/>
<polygon fill="midnightblue" stroke="midnightblue" points="68.4,-158.52 62.75,-167.48 72.76,-164 68.4,-158.52"/>
</g>
<!-- Node4 -->
<g id="node4" class="node">
<title>Node4</title>
<g id="a_node4"><a xlink:href="classDynExp_1_1ParamsBase_1_1TypedListParamBase.html" target="_top" xlink:title="Base class of parameters containing lists of values.">
<polygon fill="white" stroke="black" points="122.5,-167.5 122.5,-186.5 283.5,-186.5 283.5,-167.5 122.5,-167.5"/>
<text text-anchor="middle" x="203" y="-174.5" font-family="Helvetica,sans-Serif" font-size="10.00">UnderlyingLinkListParamType</text>
</a>
</g>
</g>
<!-- Node4&#45;&gt;Node2 -->
<g id="edge3" class="edge">
<title>Node4&#45;&gt;Node2</title>
<path fill="none" stroke="midnightblue" d="M184.09,-161.2C172.11,-151.81 156.7,-139.75 144.91,-130.52"/>
<polygon fill="midnightblue" stroke="midnightblue" points="182.08,-164.07 192.11,-167.48 186.39,-158.55 182.08,-164.07"/>
</g>
<!-- Node5 -->
<g id="node5" class="node">
<title>Node5</title>
<g id="a_node5"><a xlink:href="classDynExp_1_1ParamsBase_1_1ParamBase.html" target="_top" xlink:title="Abstract base class for a single object parameter. Parameters derived from this class are automatical...">
<polygon fill="white" stroke="black" points="143,-223.5 143,-253.5 263,-253.5 263,-223.5 143,-223.5"/>
<text text-anchor="start" x="151" y="-241.5" font-family="Helvetica,sans-Serif" font-size="10.00">DynExp::ParamsBase</text>
<text text-anchor="middle" x="203" y="-230.5" font-family="Helvetica,sans-Serif" font-size="10.00">::ParamBase</text>
</a>
</g>
</g>
<!-- Node5&#45;&gt;Node4 -->
<g id="edge4" class="edge">
<title>Node5&#45;&gt;Node4</title>
<path fill="none" stroke="midnightblue" d="M203,-213.29C203,-203.86 203,-193.65 203,-186.66"/>
<polygon fill="midnightblue" stroke="midnightblue" points="199.5,-213.4 203,-223.4 206.5,-213.4 199.5,-213.4"/>
</g>
</g>
</svg>
