<?xml version="1.0" encoding="UTF-8" standalone="no"?>
<!DOCTYPE svg PUBLIC "-//W3C//DTD SVG 1.1//EN"
 "http://www.w3.org/Graphics/SVG/1.1/DTD/svg11.dtd">
<!-- Generated by graphviz version 2.43.0 (0)
 -->
<!-- Title: DynExpInstr::PositionerStageTasks::ExitTask Pages: 1 -->
<svg width="672pt" height="134pt"
 viewBox="0.00 0.00 672.00 134.00" xmlns="http://www.w3.org/2000/svg" xmlns:xlink="http://www.w3.org/1999/xlink">
<g id="graph0" class="graph" transform="scale(1 1) rotate(0) translate(4 130)">
<title>DynExpInstr::PositionerStageTasks::ExitTask</title>
<!-- Node1 -->
<g id="Node000001" class="node">
<title>Node1</title>
<g id="a_Node000001"><a xlink:title="Defines a task for deinitializing an instrument within an instrument inheritance hierarchy....">
<polygon fill="#999999" stroke="#666666" points="461,-78 303,-78 303,-48 461,-48 461,-78"/>
<text text-anchor="start" x="311" y="-66" font-family="Helvetica,sans-Serif" font-size="10.00">DynExpInstr::PositionerStage</text>
<text text-anchor="middle" x="382" y="-55" font-family="Helvetica,sans-Serif" font-size="10.00">Tasks::ExitTask</text>
</a>
</g>
</g>
<!-- Node4 -->
<g id="Node000004" class="node">
<title>Node4</title>
<g id="a_Node000004"><a xlink:href="classDynExpInstr_1_1NenionLeakvalveF3Tasks_1_1ExitTask.html" target="_top" xlink:title=" ">
<polygon fill="white" stroke="#666666" points="664,-126 497,-126 497,-96 664,-96 664,-126"/>
<text text-anchor="start" x="505" y="-114" font-family="Helvetica,sans-Serif" font-size="10.00">DynExpInstr::NenionLeakvalve</text>
<text text-anchor="middle" x="580.5" y="-103" font-family="Helvetica,sans-Serif" font-size="10.00">F3Tasks::ExitTask</text>
</a>
</g>
</g>
<!-- Node1&#45;&gt;Node4 -->
<g id="edge3_Node000001_Node000004" class="edge">
<title>Node1&#45;&gt;Node4</title>
<g id="a_edge3_Node000001_Node000004"><a xlink:title=" ">
<path fill="none" stroke="#63b8ff" d="M454.4,-80.44C475.27,-85.54 497.89,-91.07 518.08,-96"/>
<polygon fill="#63b8ff" stroke="#63b8ff" points="455.18,-77.03 444.63,-78.06 453.52,-83.83 455.18,-77.03"/>
</a>
</g>
</g>
<!-- Node5 -->
<g id="Node000005" class="node">
<title>Node5</title>
<g id="a_Node000005"><a xlink:href="classDynExpInstr_1_1PI__C__862__Tasks_1_1ExitTask.html" target="_top" xlink:title=" ">
<polygon fill="white" stroke="#666666" points="643.5,-78 517.5,-78 517.5,-48 643.5,-48 643.5,-78"/>
<text text-anchor="start" x="525.5" y="-66" font-family="Helvetica,sans-Serif" font-size="10.00">DynExpInstr::PI_C_862</text>
<text text-anchor="middle" x="580.5" y="-55" font-family="Helvetica,sans-Serif" font-size="10.00">_Tasks::ExitTask</text>
</a>
</g>
</g>
<!-- Node1&#45;&gt;Node5 -->
<g id="edge4_Node000001_Node000005" class="edge">
<title>Node1&#45;&gt;Node5</title>
<g id="a_edge4_Node000001_Node000005"><a xlink:title=" ">
<path fill="none" stroke="#63b8ff" d="M471.35,-63C486.84,-63 502.67,-63 517.27,-63"/>
<polygon fill="#63b8ff" stroke="#63b8ff" points="471.23,-59.5 461.23,-63 471.23,-66.5 471.23,-59.5"/>
</a>
</g>
</g>
<!-- Node6 -->
<g id="Node000006" class="node">
<title>Node6</title>
<g id="a_Node000006"><a xlink:href="classDynExpInstr_1_1SmarActTasks_1_1ExitTask.html" target="_top" xlink:title=" ">
<polygon fill="white" stroke="#666666" points="655.5,-30 505.5,-30 505.5,0 655.5,0 655.5,-30"/>
<text text-anchor="start" x="513.5" y="-18" font-family="Helvetica,sans-Serif" font-size="10.00">DynExpInstr::SmarActTasks</text>
<text text-anchor="middle" x="580.5" y="-7" font-family="Helvetica,sans-Serif" font-size="10.00">::ExitTask</text>
</a>
</g>
</g>
<!-- Node1&#45;&gt;Node6 -->
<g id="edge5_Node000001_Node000006" class="edge">
<title>Node1&#45;&gt;Node6</title>
<g id="a_edge5_Node000001_Node000006"><a xlink:title=" ">
<path fill="none" stroke="#63b8ff" d="M454.4,-45.56C475.27,-40.46 497.89,-34.93 518.08,-30"/>
<polygon fill="#63b8ff" stroke="#63b8ff" points="453.52,-42.17 444.63,-47.94 455.18,-48.97 453.52,-42.17"/>
</a>
</g>
</g>
<!-- Node2 -->
<g id="Node000002" class="node">
<title>Node2</title>
<g id="a_Node000002"><a xlink:href="classDynExp_1_1ExitTaskBase.html" target="_top" xlink:title="Defines a task for deinitializing an instrument within an instrument inheritance hierarchy....">
<polygon fill="white" stroke="#666666" points="267,-72.5 142,-72.5 142,-53.5 267,-53.5 267,-72.5"/>
<text text-anchor="middle" x="204.5" y="-60.5" font-family="Helvetica,sans-Serif" font-size="10.00">DynExp::ExitTaskBase</text>
</a>
</g>
</g>
<!-- Node2&#45;&gt;Node1 -->
<g id="edge1_Node000001_Node000002" class="edge">
<title>Node2&#45;&gt;Node1</title>
<g id="a_edge1_Node000001_Node000002"><a xlink:title=" ">
<path fill="none" stroke="#63b8ff" d="M277.44,-63C285.79,-63 294.34,-63 302.77,-63"/>
<polygon fill="#63b8ff" stroke="#63b8ff" points="277.37,-59.5 267.37,-63 277.37,-66.5 277.37,-59.5"/>
</a>
</g>
</g>
<!-- Node3 -->
<g id="Node000003" class="node">
<title>Node3</title>
<g id="a_Node000003"><a xlink:href="classDynExp_1_1TaskBase.html" target="_top" xlink:title="Base class for all tasks being processed by instruments. The class must not contain public virtual fu...">
<polygon fill="white" stroke="#666666" points="106,-72.5 0,-72.5 0,-53.5 106,-53.5 106,-72.5"/>
<text text-anchor="middle" x="53" y="-60.5" font-family="Helvetica,sans-Serif" font-size="10.00">DynExp::TaskBase</text>
</a>
</g>
</g>
<!-- Node3&#45;&gt;Node2 -->
<g id="edge2_Node000002_Node000003" class="edge">
<title>Node3&#45;&gt;Node2</title>
<g id="a_edge2_Node000002_Node000003"><a xlink:title=" ">
<path fill="none" stroke="#63b8ff" d="M116.38,-63C124.77,-63 133.37,-63 141.75,-63"/>
<polygon fill="#63b8ff" stroke="#63b8ff" points="116.29,-59.5 106.29,-63 116.29,-66.5 116.29,-59.5"/>
</a>
</g>
</g>
</g>
</svg>
