<?xml version="1.0" encoding="UTF-8" standalone="no"?>
<!DOCTYPE svg PUBLIC "-//W3C//DTD SVG 1.1//EN"
 "http://www.w3.org/Graphics/SVG/1.1/DTD/svg11.dtd">
<!-- Generated by graphviz version 2.43.0 (0)
 -->
<!-- Title: DynExp::InterModuleEventBase Pages: 1 -->
<svg width="787pt" height="761pt"
 viewBox="0.00 0.00 787.00 760.50" xmlns="http://www.w3.org/2000/svg" xmlns:xlink="http://www.w3.org/1999/xlink">
<g id="graph0" class="graph" transform="scale(1 1) rotate(0) translate(4 756.5)">
<title>DynExp::InterModuleEventBase</title>
<polygon fill="white" stroke="transparent" points="-4,4 -4,-756.5 783,-756.5 783,4 -4,4"/>
<!-- Node1 -->
<g id="node1" class="node">
<title>Node1</title>
<g id="a_node1"><a xlink:title="Common base class for all inter&#45;module events.">
<polygon fill="#bfbfbf" stroke="black" points="148,-373 148,-392 318,-392 318,-373 148,-373"/>
<text text-anchor="middle" x="233" y="-380" font-family="Helvetica,sans-Serif" font-size="10.00">DynExp::InterModuleEventBase</text>
</a>
</g>
</g>
<!-- Node3 -->
<g id="node3" class="node">
<title>Node3</title>
<g id="a_node3"><a xlink:href="classDynExp_1_1InterModuleEvent.html" target="_top" xlink:title=" ">
<polygon fill="white" stroke="black" points="382.5,-711 382.5,-752 528.5,-752 528.5,-711 382.5,-711"/>
<text text-anchor="start" x="390.5" y="-740" font-family="Helvetica,sans-Serif" font-size="10.00">DynExp::InterModuleEvent</text>
<text text-anchor="start" x="390.5" y="-729" font-family="Helvetica,sans-Serif" font-size="10.00">&lt; RecordSpectrumEvent,</text>
<text text-anchor="middle" x="455.5" y="-718" font-family="Helvetica,sans-Serif" font-size="10.00"> std::string &gt;</text>
</a>
</g>
</g>
<!-- Node1&#45;&gt;Node3 -->
<g id="edge2" class="edge">
<title>Node1&#45;&gt;Node3</title>
<path fill="none" stroke="midnightblue" d="M235.53,-402.55C240.88,-458.43 263.71,-617.29 354,-701.5 362.06,-709.01 371.92,-714.65 382.28,-718.88"/>
<polygon fill="midnightblue" stroke="midnightblue" points="238.99,-401.92 234.63,-392.26 232.01,-402.52 238.99,-401.92"/>
</g>
<!-- Node5 -->
<g id="node5" class="node">
<title>Node5</title>
<g id="a_node5"><a xlink:href="classDynExp_1_1InterModuleEvent.html" target="_top" xlink:title=" ">
<polygon fill="white" stroke="black" points="360,-661.5 360,-691.5 551,-691.5 551,-661.5 360,-661.5"/>
<text text-anchor="start" x="368" y="-679.5" font-family="Helvetica,sans-Serif" font-size="10.00">DynExp::InterModuleEvent</text>
<text text-anchor="middle" x="455.5" y="-668.5" font-family="Helvetica,sans-Serif" font-size="10.00">&lt; PauseSpectrumRecordingEvent &gt;</text>
</a>
</g>
</g>
<!-- Node1&#45;&gt;Node5 -->
<g id="edge4" class="edge">
<title>Node1&#45;&gt;Node5</title>
<path fill="none" stroke="midnightblue" d="M236.76,-402.35C244.82,-452.54 273.12,-585.27 354,-652.5 358.14,-655.94 362.69,-658.9 367.49,-661.45"/>
<polygon fill="midnightblue" stroke="midnightblue" points="240.18,-401.56 235.23,-392.2 233.26,-402.61 240.18,-401.56"/>
</g>
<!-- Node7 -->
<g id="node7" class="node">
<title>Node7</title>
<g id="a_node7"><a xlink:href="classDynExp_1_1InterModuleEvent.html" target="_top" xlink:title=" ">
<polygon fill="white" stroke="black" points="382.5,-612.5 382.5,-642.5 528.5,-642.5 528.5,-612.5 382.5,-612.5"/>
<text text-anchor="start" x="390.5" y="-630.5" font-family="Helvetica,sans-Serif" font-size="10.00">DynExp::InterModuleEvent</text>
<text text-anchor="middle" x="455.5" y="-619.5" font-family="Helvetica,sans-Serif" font-size="10.00">&lt; AutofocusEvent, bool &gt;</text>
</a>
</g>
</g>
<!-- Node1&#45;&gt;Node7 -->
<g id="edge6" class="edge">
<title>Node1&#45;&gt;Node7</title>
<path fill="none" stroke="midnightblue" d="M238.83,-402.22C250.57,-445.77 284.82,-550.49 354,-603.5 362.4,-609.94 372.27,-614.68 382.48,-618.17"/>
<polygon fill="midnightblue" stroke="midnightblue" points="242.16,-401.12 236.27,-392.31 235.38,-402.87 242.16,-401.12"/>
</g>
<!-- Node9 -->
<g id="node9" class="node">
<title>Node9</title>
<g id="a_node9"><a xlink:href="classDynExp_1_1InterModuleEvent.html" target="_top" xlink:title=" ">
<polygon fill="white" stroke="black" points="354.5,-563.5 354.5,-593.5 556.5,-593.5 556.5,-563.5 354.5,-563.5"/>
<text text-anchor="start" x="362.5" y="-581.5" font-family="Helvetica,sans-Serif" font-size="10.00">DynExp::InterModuleEvent</text>
<text text-anchor="middle" x="455.5" y="-570.5" font-family="Helvetica,sans-Serif" font-size="10.00">&lt; ResumeSpectrumRecordingEvent &gt;</text>
</a>
</g>
</g>
<!-- Node1&#45;&gt;Node9 -->
<g id="edge8" class="edge">
<title>Node1&#45;&gt;Node9</title>
<path fill="none" stroke="midnightblue" d="M241.69,-401.46C257.23,-437.3 295.94,-514.95 354,-554.5 359.04,-557.93 364.52,-560.88 370.22,-563.4"/>
<polygon fill="midnightblue" stroke="midnightblue" points="244.87,-400 237.76,-392.15 238.42,-402.72 244.87,-400"/>
</g>
<!-- Node11 -->
<g id="node11" class="node">
<title>Node11</title>
<g id="a_node11"><a xlink:href="classDynExp_1_1InterModuleEvent.html" target="_top" xlink:title=" ">
<polygon fill="white" stroke="black" points="382.5,-514.5 382.5,-544.5 528.5,-544.5 528.5,-514.5 382.5,-514.5"/>
<text text-anchor="start" x="390.5" y="-532.5" font-family="Helvetica,sans-Serif" font-size="10.00">DynExp::InterModuleEvent</text>
<text text-anchor="middle" x="455.5" y="-521.5" font-family="Helvetica,sans-Serif" font-size="10.00">&lt; StopEvent &gt;</text>
</a>
</g>
</g>
<!-- Node1&#45;&gt;Node11 -->
<g id="edge10" class="edge">
<title>Node1&#45;&gt;Node11</title>
<path fill="none" stroke="midnightblue" d="M246.32,-400.5C265.87,-427.63 306.68,-478.65 354,-505.5 362.74,-510.46 372.46,-514.39 382.32,-517.52"/>
<polygon fill="midnightblue" stroke="midnightblue" points="249.15,-398.44 240.53,-392.29 243.43,-402.48 249.15,-398.44"/>
</g>
<!-- Node13 -->
<g id="node13" class="node">
<title>Node13</title>
<g id="a_node13"><a xlink:href="classDynExp_1_1InterModuleEvent.html" target="_top" xlink:title=" ">
<polygon fill="white" stroke="black" points="368.5,-465.5 368.5,-495.5 542.5,-495.5 542.5,-465.5 368.5,-465.5"/>
<text text-anchor="start" x="376.5" y="-483.5" font-family="Helvetica,sans-Serif" font-size="10.00">DynExp::InterModuleEvent</text>
<text text-anchor="middle" x="455.5" y="-472.5" font-family="Helvetica,sans-Serif" font-size="10.00">&lt; RecordSpectrumEvent, bool &gt;</text>
</a>
</g>
</g>
<!-- Node1&#45;&gt;Node13 -->
<g id="edge12" class="edge">
<title>Node1&#45;&gt;Node13</title>
<path fill="none" stroke="midnightblue" d="M254.91,-398.28C278.01,-415 316.88,-441.09 354,-456.5 362.2,-459.9 370.99,-462.89 379.83,-465.49"/>
<polygon fill="midnightblue" stroke="midnightblue" points="256.71,-395.26 246.58,-392.16 252.56,-400.9 256.71,-395.26"/>
</g>
<!-- Node15 -->
<g id="node15" class="node">
<title>Node15</title>
<g id="a_node15"><a xlink:href="classDynExp_1_1InterModuleEvent.html" target="_top" xlink:title=" ">
<polygon fill="white" stroke="black" points="382.5,-416.5 382.5,-446.5 528.5,-446.5 528.5,-416.5 382.5,-416.5"/>
<text text-anchor="start" x="390.5" y="-434.5" font-family="Helvetica,sans-Serif" font-size="10.00">DynExp::InterModuleEvent</text>
<text text-anchor="middle" x="455.5" y="-423.5" font-family="Helvetica,sans-Serif" font-size="10.00">&lt; StartEvent &gt;</text>
</a>
</g>
</g>
<!-- Node1&#45;&gt;Node15 -->
<g id="edge14" class="edge">
<title>Node1&#45;&gt;Node15</title>
<path fill="none" stroke="midnightblue" d="M286.62,-394.19C316.6,-400.86 354.49,-409.27 386.68,-416.43"/>
<polygon fill="midnightblue" stroke="midnightblue" points="287.3,-390.76 276.78,-392.01 285.78,-397.59 287.3,-390.76"/>
</g>
<!-- Node17 -->
<g id="node17" class="node">
<title>Node17</title>
<g id="a_node17"><a xlink:href="classDynExp_1_1InterModuleEvent.html" target="_top" xlink:title=" ">
<polygon fill="white" stroke="black" points="366,-367.5 366,-397.5 545,-397.5 545,-367.5 366,-367.5"/>
<text text-anchor="start" x="374" y="-385.5" font-family="Helvetica,sans-Serif" font-size="10.00">DynExp::InterModuleEvent</text>
<text text-anchor="middle" x="455.5" y="-374.5" font-family="Helvetica,sans-Serif" font-size="10.00">&lt; ImageCapturingPausedEvent &gt;</text>
</a>
</g>
</g>
<!-- Node1&#45;&gt;Node17 -->
<g id="edge16" class="edge">
<title>Node1&#45;&gt;Node17</title>
<path fill="none" stroke="midnightblue" d="M328.61,-382.5C340.97,-382.5 353.59,-382.5 365.85,-382.5"/>
<polygon fill="midnightblue" stroke="midnightblue" points="328.31,-379 318.31,-382.5 328.31,-386 328.31,-379"/>
</g>
<!-- Node19 -->
<g id="node19" class="node">
<title>Node19</title>
<g id="a_node19"><a xlink:href="classDynExp_1_1InterModuleEvent.html" target="_top" xlink:title=" ">
<polygon fill="white" stroke="black" points="373,-307 373,-348 538,-348 538,-307 373,-307"/>
<text text-anchor="start" x="381" y="-336" font-family="Helvetica,sans-Serif" font-size="10.00">DynExp::InterModuleEvent</text>
<text text-anchor="start" x="381" y="-325" font-family="Helvetica,sans-Serif" font-size="10.00">&lt; PauseImageCapturingEvent,</text>
<text text-anchor="middle" x="455.5" y="-314" font-family="Helvetica,sans-Serif" font-size="10.00"> bool &gt;</text>
</a>
</g>
</g>
<!-- Node1&#45;&gt;Node19 -->
<g id="edge18" class="edge">
<title>Node1&#45;&gt;Node19</title>
<path fill="none" stroke="midnightblue" d="M281.98,-370.53C308.58,-363.9 342.37,-355.47 372.99,-347.83"/>
<polygon fill="midnightblue" stroke="midnightblue" points="281.01,-367.17 272.16,-372.98 282.71,-373.96 281.01,-367.17"/>
</g>
<!-- Node21 -->
<g id="node21" class="node">
<title>Node21</title>
<g id="a_node21"><a xlink:href="classDynExp_1_1InterModuleEvent.html" target="_top" xlink:title=" ">
<polygon fill="white" stroke="black" points="360,-257.5 360,-287.5 551,-287.5 551,-257.5 360,-257.5"/>
<text text-anchor="start" x="368" y="-275.5" font-family="Helvetica,sans-Serif" font-size="10.00">DynExp::InterModuleEvent</text>
<text text-anchor="middle" x="455.5" y="-264.5" font-family="Helvetica,sans-Serif" font-size="10.00">&lt; ImageCapturingResumedEvent &gt;</text>
</a>
</g>
</g>
<!-- Node1&#45;&gt;Node21 -->
<g id="edge20" class="edge">
<title>Node1&#45;&gt;Node21</title>
<path fill="none" stroke="midnightblue" d="M252.42,-366.08C274.88,-346.9 314.7,-315.53 354,-297.5 362.33,-293.68 371.34,-290.39 380.41,-287.56"/>
<polygon fill="midnightblue" stroke="midnightblue" points="249.97,-363.58 244.71,-372.78 254.55,-368.86 249.97,-363.58"/>
</g>
<!-- Node23 -->
<g id="node23" class="node">
<title>Node23</title>
<g id="a_node23"><a xlink:href="classDynExp_1_1InterModuleEvent.html" target="_top" xlink:title=" ">
<polygon fill="white" stroke="black" points="382.5,-208.5 382.5,-238.5 528.5,-238.5 528.5,-208.5 382.5,-208.5"/>
<text text-anchor="start" x="390.5" y="-226.5" font-family="Helvetica,sans-Serif" font-size="10.00">DynExp::InterModuleEvent</text>
<text text-anchor="middle" x="455.5" y="-215.5" font-family="Helvetica,sans-Serif" font-size="10.00">&lt; TriggerEvent &gt;</text>
</a>
</g>
</g>
<!-- Node1&#45;&gt;Node23 -->
<g id="edge22" class="edge">
<title>Node1&#45;&gt;Node23</title>
<path fill="none" stroke="midnightblue" d="M245.06,-364.02C263.69,-334.57 304.2,-277.3 354,-247.5 362.7,-242.3 372.45,-238.22 382.37,-235.03"/>
<polygon fill="midnightblue" stroke="midnightblue" points="241.88,-362.51 239.6,-372.86 247.83,-366.19 241.88,-362.51"/>
</g>
<!-- Node25 -->
<g id="node25" class="node">
<title>Node25</title>
<g id="a_node25"><a xlink:href="classDynExp_1_1InterModuleEvent.html" target="_top" xlink:title=" ">
<polygon fill="white" stroke="black" points="354,-159.5 354,-189.5 557,-189.5 557,-159.5 354,-159.5"/>
<text text-anchor="start" x="362" y="-177.5" font-family="Helvetica,sans-Serif" font-size="10.00">DynExp::InterModuleEvent</text>
<text text-anchor="middle" x="455.5" y="-166.5" font-family="Helvetica,sans-Serif" font-size="10.00">&lt; SpectrumFinishedRecordingEvent &gt;</text>
</a>
</g>
</g>
<!-- Node1&#45;&gt;Node25 -->
<g id="edge24" class="edge">
<title>Node1&#45;&gt;Node25</title>
<path fill="none" stroke="midnightblue" d="M240.91,-363.25C255.52,-325.41 293.3,-241.26 354,-198.5 358.91,-195.04 364.26,-192.07 369.85,-189.53"/>
<polygon fill="midnightblue" stroke="midnightblue" points="237.62,-362.04 237.4,-372.63 244.18,-364.49 237.62,-362.04"/>
</g>
<!-- Node27 -->
<g id="node27" class="node">
<title>Node27</title>
<g id="a_node27"><a xlink:href="classDynExp_1_1InterModuleEvent.html" target="_top" xlink:title=" ">
<polygon fill="white" stroke="black" points="363,-110.5 363,-140.5 548,-140.5 548,-110.5 363,-110.5"/>
<text text-anchor="start" x="371" y="-128.5" font-family="Helvetica,sans-Serif" font-size="10.00">DynExp::InterModuleEvent</text>
<text text-anchor="middle" x="455.5" y="-117.5" font-family="Helvetica,sans-Serif" font-size="10.00">&lt; ResumeImageCapturingEvent &gt;</text>
</a>
</g>
</g>
<!-- Node1&#45;&gt;Node27 -->
<g id="edge26" class="edge">
<title>Node1&#45;&gt;Node27</title>
<path fill="none" stroke="midnightblue" d="M238.27,-362.65C249.1,-317.35 282.03,-205.91 354,-149.5 358.38,-146.07 363.17,-143.12 368.21,-140.58"/>
<polygon fill="midnightblue" stroke="midnightblue" points="234.8,-362.14 235.99,-372.67 241.63,-363.7 234.8,-362.14"/>
</g>
<!-- Node29 -->
<g id="node29" class="node">
<title>Node29</title>
<g id="a_node29"><a xlink:href="classDynExp_1_1InterModuleEvent.html" target="_top" xlink:title=" ">
<polygon fill="white" stroke="black" points="381.5,-50 381.5,-91 529.5,-91 529.5,-50 381.5,-50"/>
<text text-anchor="start" x="389.5" y="-79" font-family="Helvetica,sans-Serif" font-size="10.00">DynExp::InterModuleEvent</text>
<text text-anchor="start" x="389.5" y="-68" font-family="Helvetica,sans-Serif" font-size="10.00">&lt; FinishedAutofocusEvent,</text>
<text text-anchor="middle" x="455.5" y="-57" font-family="Helvetica,sans-Serif" font-size="10.00"> bool, double &gt;</text>
</a>
</g>
</g>
<!-- Node1&#45;&gt;Node29 -->
<g id="edge28" class="edge">
<title>Node1&#45;&gt;Node29</title>
<path fill="none" stroke="midnightblue" d="M236.6,-362.73C244.39,-311.53 272.3,-173.51 354,-100.5 361.87,-93.46 371.34,-88.07 381.27,-83.95"/>
<polygon fill="midnightblue" stroke="midnightblue" points="233.11,-362.4 235.16,-372.79 240.04,-363.39 233.11,-362.4"/>
</g>
<!-- Node31 -->
<g id="node31" class="node">
<title>Node31</title>
<g id="a_node31"><a xlink:href="classDynExp_1_1InterModuleEvent.html" target="_top" xlink:title="Typed base class for inter&#45;module events to realize CRTP.">
<polygon fill="white" stroke="black" points="364,-0.5 364,-30.5 547,-30.5 547,-0.5 364,-0.5"/>
<text text-anchor="start" x="372" y="-18.5" font-family="Helvetica,sans-Serif" font-size="10.00">DynExp::InterModuleEvent</text>
<text text-anchor="middle" x="455.5" y="-7.5" font-family="Helvetica,sans-Serif" font-size="10.00">&lt; DerivedEvent, EventFuncArgs &gt;</text>
</a>
</g>
</g>
<!-- Node1&#45;&gt;Node31 -->
<g id="edge30" class="edge">
<title>Node1&#45;&gt;Node31</title>
<path fill="none" stroke="midnightblue" d="M234.72,-362.75C237.98,-304.15 255.86,-129.86 354,-40.5 358.25,-36.63 363.02,-33.33 368.09,-30.53"/>
<polygon fill="midnightblue" stroke="midnightblue" points="231.22,-362.71 234.25,-372.86 238.21,-363.04 231.22,-362.71"/>
</g>
<!-- Node2 -->
<g id="node2" class="node">
<title>Node2</title>
<g id="a_node2"><a xlink:href="classDynExp_1_1EventBase.html" target="_top" xlink:title="Common base class for all events to store them in a FIFO queue to be invoked later.">
<polygon fill="white" stroke="black" points="0,-373 0,-392 112,-392 112,-373 0,-373"/>
<text text-anchor="middle" x="56" y="-380" font-family="Helvetica,sans-Serif" font-size="10.00">DynExp::EventBase</text>
</a>
</g>
</g>
<!-- Node2&#45;&gt;Node1 -->
<g id="edge1" class="edge">
<title>Node2&#45;&gt;Node1</title>
<path fill="none" stroke="midnightblue" d="M122.64,-382.5C130.89,-382.5 139.42,-382.5 147.9,-382.5"/>
<polygon fill="midnightblue" stroke="midnightblue" points="122.37,-379 112.37,-382.5 122.37,-386 122.37,-379"/>
</g>
<!-- Node4 -->
<g id="node4" class="node">
<title>Node4</title>
<g id="a_node4"><a xlink:href="classDynExpModule_1_1SpectrumViewer_1_1RecordSpectrumEvent.html" target="_top" xlink:title=" ">
<polygon fill="white" stroke="black" points="598,-716.5 598,-746.5 774,-746.5 774,-716.5 598,-716.5"/>
<text text-anchor="start" x="606" y="-734.5" font-family="Helvetica,sans-Serif" font-size="10.00">DynExpModule::SpectrumViewer</text>
<text text-anchor="middle" x="686" y="-723.5" font-family="Helvetica,sans-Serif" font-size="10.00">::RecordSpectrumEvent</text>
</a>
</g>
</g>
<!-- Node3&#45;&gt;Node4 -->
<g id="edge3" class="edge">
<title>Node3&#45;&gt;Node4</title>
<path fill="none" stroke="midnightblue" d="M538.99,-731.5C558.15,-731.5 578.61,-731.5 597.96,-731.5"/>
<polygon fill="midnightblue" stroke="midnightblue" points="538.8,-728 528.8,-731.5 538.8,-735 538.8,-728"/>
</g>
<!-- Node6 -->
<g id="node6" class="node">
<title>Node6</title>
<g id="a_node6"><a xlink:href="classDynExpModule_1_1SpectrumViewer_1_1PauseSpectrumRecordingEvent.html" target="_top" xlink:title=" ">
<polygon fill="white" stroke="black" points="598,-661.5 598,-691.5 774,-691.5 774,-661.5 598,-661.5"/>
<text text-anchor="start" x="606" y="-679.5" font-family="Helvetica,sans-Serif" font-size="10.00">DynExpModule::SpectrumViewer</text>
<text text-anchor="middle" x="686" y="-668.5" font-family="Helvetica,sans-Serif" font-size="10.00">::PauseSpectrumRecordingEvent</text>
</a>
</g>
</g>
<!-- Node5&#45;&gt;Node6 -->
<g id="edge5" class="edge">
<title>Node5&#45;&gt;Node6</title>
<path fill="none" stroke="midnightblue" d="M561.3,-676.5C573.51,-676.5 585.87,-676.5 597.81,-676.5"/>
<polygon fill="midnightblue" stroke="midnightblue" points="561.09,-673 551.09,-676.5 561.09,-680 561.09,-673"/>
</g>
<!-- Node8 -->
<g id="node8" class="node">
<title>Node8</title>
<g id="a_node8"><a xlink:href="classDynExpModule_1_1ImageViewer_1_1AutofocusEvent.html" target="_top" xlink:title=" ">
<polygon fill="white" stroke="black" points="605.5,-612.5 605.5,-642.5 766.5,-642.5 766.5,-612.5 605.5,-612.5"/>
<text text-anchor="start" x="613.5" y="-630.5" font-family="Helvetica,sans-Serif" font-size="10.00">DynExpModule::ImageViewer</text>
<text text-anchor="middle" x="686" y="-619.5" font-family="Helvetica,sans-Serif" font-size="10.00">::AutofocusEvent</text>
</a>
</g>
</g>
<!-- Node7&#45;&gt;Node8 -->
<g id="edge7" class="edge">
<title>Node7&#45;&gt;Node8</title>
<path fill="none" stroke="midnightblue" d="M538.92,-627.5C560.53,-627.5 583.78,-627.5 605.24,-627.5"/>
<polygon fill="midnightblue" stroke="midnightblue" points="538.8,-624 528.8,-627.5 538.8,-631 538.8,-624"/>
</g>
<!-- Node10 -->
<g id="node10" class="node">
<title>Node10</title>
<g id="a_node10"><a xlink:href="classDynExpModule_1_1SpectrumViewer_1_1ResumeSpectrumRecordingEvent.html" target="_top" xlink:title=" ">
<polygon fill="white" stroke="black" points="593.5,-563.5 593.5,-593.5 778.5,-593.5 778.5,-563.5 593.5,-563.5"/>
<text text-anchor="start" x="601.5" y="-581.5" font-family="Helvetica,sans-Serif" font-size="10.00">DynExpModule::SpectrumViewer</text>
<text text-anchor="middle" x="686" y="-570.5" font-family="Helvetica,sans-Serif" font-size="10.00">::ResumeSpectrumRecordingEvent</text>
</a>
</g>
</g>
<!-- Node9&#45;&gt;Node10 -->
<g id="edge9" class="edge">
<title>Node9&#45;&gt;Node10</title>
<path fill="none" stroke="midnightblue" d="M566.79,-578.5C575.74,-578.5 584.71,-578.5 593.5,-578.5"/>
<polygon fill="midnightblue" stroke="midnightblue" points="566.72,-575 556.72,-578.5 566.72,-582 566.72,-575"/>
</g>
<!-- Node12 -->
<g id="node12" class="node">
<title>Node12</title>
<g id="a_node12"><a xlink:href="classDynExpModule_1_1StopEvent.html" target="_top" xlink:title="This event is intended to make the receiver stop an action (like a measurement).">
<polygon fill="white" stroke="black" points="613,-520 613,-539 759,-539 759,-520 613,-520"/>
<text text-anchor="middle" x="686" y="-527" font-family="Helvetica,sans-Serif" font-size="10.00">DynExpModule::StopEvent</text>
</a>
</g>
</g>
<!-- Node11&#45;&gt;Node12 -->
<g id="edge11" class="edge">
<title>Node11&#45;&gt;Node12</title>
<path fill="none" stroke="midnightblue" d="M539,-529.5C563.14,-529.5 589.33,-529.5 612.78,-529.5"/>
<polygon fill="midnightblue" stroke="midnightblue" points="538.8,-526 528.8,-529.5 538.8,-533 538.8,-526"/>
</g>
<!-- Node14 -->
<g id="node14" class="node">
<title>Node14</title>
<g id="a_node14"><a xlink:href="classDynExpModule_1_1SpectrumViewer_1_1SetSilentModeEvent.html" target="_top" xlink:title=" ">
<polygon fill="white" stroke="black" points="598,-465.5 598,-495.5 774,-495.5 774,-465.5 598,-465.5"/>
<text text-anchor="start" x="606" y="-483.5" font-family="Helvetica,sans-Serif" font-size="10.00">DynExpModule::SpectrumViewer</text>
<text text-anchor="middle" x="686" y="-472.5" font-family="Helvetica,sans-Serif" font-size="10.00">::SetSilentModeEvent</text>
</a>
</g>
</g>
<!-- Node13&#45;&gt;Node14 -->
<g id="edge13" class="edge">
<title>Node13&#45;&gt;Node14</title>
<path fill="none" stroke="midnightblue" d="M552.83,-480.5C567.78,-480.5 583.15,-480.5 597.88,-480.5"/>
<polygon fill="midnightblue" stroke="midnightblue" points="552.56,-477 542.56,-480.5 552.56,-484 552.56,-477"/>
</g>
<!-- Node16 -->
<g id="node16" class="node">
<title>Node16</title>
<g id="a_node16"><a xlink:href="classDynExpModule_1_1StartEvent.html" target="_top" xlink:title="This event is intended to make the receiver either directly start an action (like a measurement) or t...">
<polygon fill="white" stroke="black" points="612.5,-422 612.5,-441 759.5,-441 759.5,-422 612.5,-422"/>
<text text-anchor="middle" x="686" y="-429" font-family="Helvetica,sans-Serif" font-size="10.00">DynExpModule::StartEvent</text>
</a>
</g>
</g>
<!-- Node15&#45;&gt;Node16 -->
<g id="edge15" class="edge">
<title>Node15&#45;&gt;Node16</title>
<path fill="none" stroke="midnightblue" d="M538.95,-431.5C562.97,-431.5 589.02,-431.5 612.39,-431.5"/>
<polygon fill="midnightblue" stroke="midnightblue" points="538.8,-428 528.8,-431.5 538.8,-435 538.8,-428"/>
</g>
<!-- Node18 -->
<g id="node18" class="node">
<title>Node18</title>
<g id="a_node18"><a xlink:href="classDynExpModule_1_1ImageViewer_1_1ImageCapturingPausedEvent.html" target="_top" xlink:title=" ">
<polygon fill="white" stroke="black" points="604.5,-367.5 604.5,-397.5 767.5,-397.5 767.5,-367.5 604.5,-367.5"/>
<text text-anchor="start" x="612.5" y="-385.5" font-family="Helvetica,sans-Serif" font-size="10.00">DynExpModule::ImageViewer</text>
<text text-anchor="middle" x="686" y="-374.5" font-family="Helvetica,sans-Serif" font-size="10.00">::ImageCapturingPausedEvent</text>
</a>
</g>
</g>
<!-- Node17&#45;&gt;Node18 -->
<g id="edge17" class="edge">
<title>Node17&#45;&gt;Node18</title>
<path fill="none" stroke="midnightblue" d="M555.28,-382.5C571.62,-382.5 588.39,-382.5 604.22,-382.5"/>
<polygon fill="midnightblue" stroke="midnightblue" points="555.17,-379 545.17,-382.5 555.17,-386 555.17,-379"/>
</g>
<!-- Node20 -->
<g id="node20" class="node">
<title>Node20</title>
<g id="a_node20"><a xlink:href="classDynExpModule_1_1ImageViewer_1_1PauseImageCapturingEvent.html" target="_top" xlink:title=" ">
<polygon fill="white" stroke="black" points="605.5,-312.5 605.5,-342.5 766.5,-342.5 766.5,-312.5 605.5,-312.5"/>
<text text-anchor="start" x="613.5" y="-330.5" font-family="Helvetica,sans-Serif" font-size="10.00">DynExpModule::ImageViewer</text>
<text text-anchor="middle" x="686" y="-319.5" font-family="Helvetica,sans-Serif" font-size="10.00">::PauseImageCapturingEvent</text>
</a>
</g>
</g>
<!-- Node19&#45;&gt;Node20 -->
<g id="edge19" class="edge">
<title>Node19&#45;&gt;Node20</title>
<path fill="none" stroke="midnightblue" d="M548.15,-327.5C567.11,-327.5 586.94,-327.5 605.42,-327.5"/>
<polygon fill="midnightblue" stroke="midnightblue" points="548.03,-324 538.03,-327.5 548.03,-331 548.03,-324"/>
</g>
<!-- Node22 -->
<g id="node22" class="node">
<title>Node22</title>
<g id="a_node22"><a xlink:href="classDynExpModule_1_1ImageViewer_1_1ImageCapturingResumedEvent.html" target="_top" xlink:title=" ">
<polygon fill="white" stroke="black" points="599,-257.5 599,-287.5 773,-287.5 773,-257.5 599,-257.5"/>
<text text-anchor="start" x="607" y="-275.5" font-family="Helvetica,sans-Serif" font-size="10.00">DynExpModule::ImageViewer</text>
<text text-anchor="middle" x="686" y="-264.5" font-family="Helvetica,sans-Serif" font-size="10.00">::ImageCapturingResumedEvent</text>
</a>
</g>
</g>
<!-- Node21&#45;&gt;Node22 -->
<g id="edge21" class="edge">
<title>Node21&#45;&gt;Node22</title>
<path fill="none" stroke="midnightblue" d="M561.17,-272.5C573.8,-272.5 586.58,-272.5 598.9,-272.5"/>
<polygon fill="midnightblue" stroke="midnightblue" points="561.09,-269 551.09,-272.5 561.09,-276 561.09,-269"/>
</g>
<!-- Node24 -->
<g id="node24" class="node">
<title>Node24</title>
<g id="a_node24"><a xlink:href="classDynExpModule_1_1TriggerEvent.html" target="_top" xlink:title="This event is intended to make the receiver start an action (like a measurement) after it received a ...">
<polygon fill="white" stroke="black" points="607.5,-214 607.5,-233 764.5,-233 764.5,-214 607.5,-214"/>
<text text-anchor="middle" x="686" y="-221" font-family="Helvetica,sans-Serif" font-size="10.00">DynExpModule::TriggerEvent</text>
</a>
</g>
</g>
<!-- Node23&#45;&gt;Node24 -->
<g id="edge23" class="edge">
<title>Node23&#45;&gt;Node24</title>
<path fill="none" stroke="midnightblue" d="M538.9,-223.5C561.18,-223.5 585.22,-223.5 607.24,-223.5"/>
<polygon fill="midnightblue" stroke="midnightblue" points="538.8,-220 528.8,-223.5 538.8,-227 538.8,-220"/>
</g>
<!-- Node26 -->
<g id="node26" class="node">
<title>Node26</title>
<g id="a_node26"><a xlink:href="classDynExpModule_1_1SpectrumViewer_1_1SpectrumFinishedRecordingEvent.html" target="_top" xlink:title=" ">
<polygon fill="white" stroke="black" points="593,-159.5 593,-189.5 779,-189.5 779,-159.5 593,-159.5"/>
<text text-anchor="start" x="601" y="-177.5" font-family="Helvetica,sans-Serif" font-size="10.00">DynExpModule::SpectrumViewer</text>
<text text-anchor="middle" x="686" y="-166.5" font-family="Helvetica,sans-Serif" font-size="10.00">::SpectrumFinishedRecordingEvent</text>
</a>
</g>
</g>
<!-- Node25&#45;&gt;Node26 -->
<g id="edge25" class="edge">
<title>Node25&#45;&gt;Node26</title>
<path fill="none" stroke="midnightblue" d="M567.09,-174.5C575.66,-174.5 584.26,-174.5 592.7,-174.5"/>
<polygon fill="midnightblue" stroke="midnightblue" points="567.06,-171 557.06,-174.5 567.06,-178 567.06,-171"/>
</g>
<!-- Node28 -->
<g id="node28" class="node">
<title>Node28</title>
<g id="a_node28"><a xlink:href="classDynExpModule_1_1ImageViewer_1_1ResumeImageCapturingEvent.html" target="_top" xlink:title=" ">
<polygon fill="white" stroke="black" points="602,-110.5 602,-140.5 770,-140.5 770,-110.5 602,-110.5"/>
<text text-anchor="start" x="610" y="-128.5" font-family="Helvetica,sans-Serif" font-size="10.00">DynExpModule::ImageViewer</text>
<text text-anchor="middle" x="686" y="-117.5" font-family="Helvetica,sans-Serif" font-size="10.00">::ResumeImageCapturingEvent</text>
</a>
</g>
</g>
<!-- Node27&#45;&gt;Node28 -->
<g id="edge27" class="edge">
<title>Node27&#45;&gt;Node28</title>
<path fill="none" stroke="midnightblue" d="M558.18,-125.5C572.78,-125.5 587.67,-125.5 601.86,-125.5"/>
<polygon fill="midnightblue" stroke="midnightblue" points="558.12,-122 548.12,-125.5 558.12,-129 558.12,-122"/>
</g>
<!-- Node30 -->
<g id="node30" class="node">
<title>Node30</title>
<g id="a_node30"><a xlink:href="classDynExpModule_1_1ImageViewer_1_1FinishedAutofocusEvent.html" target="_top" xlink:title=" ">
<polygon fill="white" stroke="black" points="605.5,-55.5 605.5,-85.5 766.5,-85.5 766.5,-55.5 605.5,-55.5"/>
<text text-anchor="start" x="613.5" y="-73.5" font-family="Helvetica,sans-Serif" font-size="10.00">DynExpModule::ImageViewer</text>
<text text-anchor="middle" x="686" y="-62.5" font-family="Helvetica,sans-Serif" font-size="10.00">::FinishedAutofocusEvent</text>
</a>
</g>
</g>
<!-- Node29&#45;&gt;Node30 -->
<g id="edge29" class="edge">
<title>Node29&#45;&gt;Node30</title>
<path fill="none" stroke="midnightblue" d="M539.79,-70.5C561.22,-70.5 584.22,-70.5 605.46,-70.5"/>
<polygon fill="midnightblue" stroke="midnightblue" points="539.74,-67 529.74,-70.5 539.74,-74 539.74,-67"/>
</g>
</g>
</svg>
