<?xml version="1.0" encoding="UTF-8" standalone="no"?>
<!DOCTYPE svg PUBLIC "-//W3C//DTD SVG 1.1//EN"
 "http://www.w3.org/Graphics/SVG/1.1/DTD/svg11.dtd">
<!-- Generated by graphviz version 2.43.0 (0)
 -->
<!-- Title: DynExpInstr::NIDAQAnalogOut Pages: 1 -->
<svg width="226pt" height="420pt"
 viewBox="0.00 0.00 226.00 420.00" xmlns="http://www.w3.org/2000/svg" xmlns:xlink="http://www.w3.org/1999/xlink">
<g id="graph0" class="graph" transform="scale(1 1) rotate(0) translate(4 416)">
<title>DynExpInstr::NIDAQAnalogOut</title>
<polygon fill="white" stroke="transparent" points="-4,4 -4,-416 222,-416 222,4 -4,4"/>
<!-- Node1 -->
<g id="node1" class="node">
<title>Node1</title>
<g id="a_node1"><a xlink:title=" ">
<polygon fill="#bfbfbf" stroke="black" points="30.5,-0.5 30.5,-19.5 195.5,-19.5 195.5,-0.5 30.5,-0.5"/>
<text text-anchor="middle" x="113" y="-7.5" font-family="Helvetica,sans-Serif" font-size="10.00">DynExpInstr::NIDAQAnalogOut</text>
</a>
</g>
</g>
<!-- Node2 -->
<g id="node2" class="node">
<title>Node2</title>
<g id="a_node2"><a xlink:href="classDynExpInstr_1_1AnalogOut.html" target="_top" xlink:title="Meta instrument for a single analog output port based on the data stream, function generator,...">
<polygon fill="white" stroke="black" points="46.5,-56.5 46.5,-75.5 179.5,-75.5 179.5,-56.5 46.5,-56.5"/>
<text text-anchor="middle" x="113" y="-63.5" font-family="Helvetica,sans-Serif" font-size="10.00">DynExpInstr::AnalogOut</text>
</a>
</g>
</g>
<!-- Node2&#45;&gt;Node1 -->
<g id="edge1" class="edge">
<title>Node2&#45;&gt;Node1</title>
<path fill="none" stroke="midnightblue" d="M113,-45.8C113,-36.91 113,-26.78 113,-19.75"/>
<polygon fill="midnightblue" stroke="midnightblue" points="109.5,-46.08 113,-56.08 116.5,-46.08 109.5,-46.08"/>
</g>
<!-- Node3 -->
<g id="node3" class="node">
<title>Node3</title>
<g id="a_node3"><a xlink:href="classDynExpInstr_1_1OutputPort.html" target="_top" xlink:title="Generic output port meta instrument based on the data stream and function generator meta instruments ...">
<polygon fill="white" stroke="black" points="46,-112.5 46,-131.5 180,-131.5 180,-112.5 46,-112.5"/>
<text text-anchor="middle" x="113" y="-119.5" font-family="Helvetica,sans-Serif" font-size="10.00">DynExpInstr::OutputPort</text>
</a>
</g>
</g>
<!-- Node3&#45;&gt;Node2 -->
<g id="edge2" class="edge">
<title>Node3&#45;&gt;Node2</title>
<path fill="none" stroke="midnightblue" d="M113,-101.8C113,-92.91 113,-82.78 113,-75.75"/>
<polygon fill="midnightblue" stroke="midnightblue" points="109.5,-102.08 113,-112.08 116.5,-102.08 109.5,-102.08"/>
</g>
<!-- Node4 -->
<g id="node4" class="node">
<title>Node4</title>
<g id="a_node4"><a xlink:href="classDynExpInstr_1_1FunctionGenerator.html" target="_top" xlink:title="Function generator meta instrument based on the data stream meta instrument to generate waveforms by ...">
<polygon fill="white" stroke="black" points="27,-168.5 27,-187.5 199,-187.5 199,-168.5 27,-168.5"/>
<text text-anchor="middle" x="113" y="-175.5" font-family="Helvetica,sans-Serif" font-size="10.00">DynExpInstr::FunctionGenerator</text>
</a>
</g>
</g>
<!-- Node4&#45;&gt;Node3 -->
<g id="edge3" class="edge">
<title>Node4&#45;&gt;Node3</title>
<path fill="none" stroke="midnightblue" d="M113,-157.8C113,-148.91 113,-138.78 113,-131.75"/>
<polygon fill="midnightblue" stroke="midnightblue" points="109.5,-158.08 113,-168.08 116.5,-158.08 109.5,-158.08"/>
</g>
<!-- Node5 -->
<g id="node5" class="node">
<title>Node5</title>
<g id="a_node5"><a xlink:href="classDynExpInstr_1_1DataStreamInstrument.html" target="_top" xlink:title="Implementation of the data stream meta instrument, which is a base class for all instruments reading/...">
<polygon fill="white" stroke="black" points="16,-224.5 16,-243.5 210,-243.5 210,-224.5 16,-224.5"/>
<text text-anchor="middle" x="113" y="-231.5" font-family="Helvetica,sans-Serif" font-size="10.00">DynExpInstr::DataStreamInstrument</text>
</a>
</g>
</g>
<!-- Node5&#45;&gt;Node4 -->
<g id="edge4" class="edge">
<title>Node5&#45;&gt;Node4</title>
<path fill="none" stroke="midnightblue" d="M113,-213.8C113,-204.91 113,-194.78 113,-187.75"/>
<polygon fill="midnightblue" stroke="midnightblue" points="109.5,-214.08 113,-224.08 116.5,-214.08 109.5,-214.08"/>
</g>
<!-- Node6 -->
<g id="node6" class="node">
<title>Node6</title>
<g id="a_node6"><a xlink:href="classDynExp_1_1InstrumentBase.html" target="_top" xlink:title="Base class for instruments. Instruments comprise virtual devices (meta instruments) and physial devic...">
<polygon fill="white" stroke="black" points="44.5,-280.5 44.5,-299.5 181.5,-299.5 181.5,-280.5 44.5,-280.5"/>
<text text-anchor="middle" x="113" y="-287.5" font-family="Helvetica,sans-Serif" font-size="10.00">DynExp::InstrumentBase</text>
</a>
</g>
</g>
<!-- Node6&#45;&gt;Node5 -->
<g id="edge5" class="edge">
<title>Node6&#45;&gt;Node5</title>
<path fill="none" stroke="midnightblue" d="M113,-269.8C113,-260.91 113,-250.78 113,-243.75"/>
<polygon fill="midnightblue" stroke="midnightblue" points="109.5,-270.08 113,-280.08 116.5,-270.08 109.5,-270.08"/>
</g>
<!-- Node7 -->
<g id="node7" class="node">
<title>Node7</title>
<g id="a_node7"><a xlink:href="classDynExp_1_1RunnableObject.html" target="_top" xlink:title="Defines an Object which possesses a thread it runs in. The RunnableObject can be started and stopped ...">
<polygon fill="white" stroke="black" points="44.5,-336.5 44.5,-355.5 181.5,-355.5 181.5,-336.5 44.5,-336.5"/>
<text text-anchor="middle" x="113" y="-343.5" font-family="Helvetica,sans-Serif" font-size="10.00">DynExp::RunnableObject</text>
</a>
</g>
</g>
<!-- Node7&#45;&gt;Node6 -->
<g id="edge6" class="edge">
<title>Node7&#45;&gt;Node6</title>
<path fill="none" stroke="midnightblue" d="M113,-325.8C113,-316.91 113,-306.78 113,-299.75"/>
<polygon fill="midnightblue" stroke="midnightblue" points="109.5,-326.08 113,-336.08 116.5,-326.08 109.5,-326.08"/>
</g>
<!-- Node8 -->
<g id="node8" class="node">
<title>Node8</title>
<g id="a_node8"><a xlink:href="classUtil_1_1INonCopyable.html" target="_top" xlink:title="Interface to delete copy constructor and copy assignment operator and thus make derived classes non&#45;c...">
<polygon fill="white" stroke="black" points="0,-392.5 0,-411.5 108,-411.5 108,-392.5 0,-392.5"/>
<text text-anchor="middle" x="54" y="-399.5" font-family="Helvetica,sans-Serif" font-size="10.00">Util::INonCopyable</text>
</a>
</g>
</g>
<!-- Node8&#45;&gt;Node7 -->
<g id="edge7" class="edge">
<title>Node8&#45;&gt;Node7</title>
<path fill="none" stroke="midnightblue" d="M70.89,-385.54C81.41,-375.91 94.57,-363.87 103.35,-355.83"/>
<polygon fill="midnightblue" stroke="midnightblue" points="68.49,-382.99 63.48,-392.32 73.22,-388.15 68.49,-382.99"/>
</g>
<!-- Node9 -->
<g id="node9" class="node">
<title>Node9</title>
<g id="a_node9"><a xlink:href="classDynExp_1_1Object.html" target="_top" xlink:title="Base class for all DynExp Objects like hardware adapters (DynExp::HardwareAdapterBase),...">
<polygon fill="white" stroke="black" points="126,-392.5 126,-411.5 218,-411.5 218,-392.5 126,-392.5"/>
<text text-anchor="middle" x="172" y="-399.5" font-family="Helvetica,sans-Serif" font-size="10.00">DynExp::Object</text>
</a>
</g>
</g>
<!-- Node9&#45;&gt;Node7 -->
<g id="edge8" class="edge">
<title>Node9&#45;&gt;Node7</title>
<path fill="none" stroke="midnightblue" d="M155.11,-385.54C144.59,-375.91 131.43,-363.87 122.65,-355.83"/>
<polygon fill="midnightblue" stroke="midnightblue" points="152.78,-388.15 162.52,-392.32 157.51,-382.99 152.78,-388.15"/>
</g>
</g>
</svg>
