<?xml version="1.0" encoding="UTF-8" standalone="no"?>
<!DOCTYPE svg PUBLIC "-//W3C//DTD SVG 1.1//EN"
 "http://www.w3.org/Graphics/SVG/1.1/DTD/svg11.dtd">
<!-- Generated by graphviz version 2.43.0 (0)
 -->
<!-- Title: DynExp::RunnableObjectParams Pages: 1 -->
<svg width="1535pt" height="1129pt"
 viewBox="0.00 0.00 1535.00 1129.00" xmlns="http://www.w3.org/2000/svg" xmlns:xlink="http://www.w3.org/1999/xlink">
<g id="graph0" class="graph" transform="scale(1 1) rotate(0) translate(4 1125)">
<title>DynExp::RunnableObjectParams</title>
<polygon fill="white" stroke="transparent" points="-4,4 -4,-1125 1531,-1125 1531,4 -4,4"/>
<!-- Node1 -->
<g id="node1" class="node">
<title>Node1</title>
<g id="a_node1"><a xlink:title="Parameter class for RunnableObject.">
<polygon fill="#bfbfbf" stroke="black" points="479,-470 479,-489 652,-489 652,-470 479,-470"/>
<text text-anchor="middle" x="565.5" y="-477" font-family="Helvetica,sans-Serif" font-size="10.00">DynExp::RunnableObjectParams</text>
</a>
</g>
</g>
<!-- Node5 -->
<g id="node5" class="node">
<title>Node5</title>
<g id="a_node5"><a xlink:href="classDynExp_1_1InstrumentParamsBase.html" target="_top" xlink:title="Parameter class for InstrumentBase.">
<polygon fill="white" stroke="black" points="688,-737 688,-756 861,-756 861,-737 688,-737"/>
<text text-anchor="middle" x="774.5" y="-744" font-family="Helvetica,sans-Serif" font-size="10.00">DynExp::InstrumentParamsBase</text>
</a>
</g>
</g>
<!-- Node1&#45;&gt;Node5 -->
<g id="edge4" class="edge">
<title>Node1&#45;&gt;Node5</title>
<path fill="none" stroke="midnightblue" d="M580.21,-497.18C620.14,-548.69 735.46,-697.44 766,-736.83"/>
<polygon fill="midnightblue" stroke="midnightblue" points="582.76,-494.76 573.87,-489 577.23,-499.05 582.76,-494.76"/>
</g>
<!-- Node35 -->
<g id="node29" class="node">
<title>Node35</title>
<g id="a_node29"><a xlink:href="classDynExp_1_1ModuleParamsBase.html" target="_top" xlink:title="Parameter class for ModuleBase.">
<polygon fill="white" stroke="black" points="696.5,-268 696.5,-287 852.5,-287 852.5,-268 696.5,-268"/>
<text text-anchor="middle" x="774.5" y="-275" font-family="Helvetica,sans-Serif" font-size="10.00">DynExp::ModuleParamsBase</text>
</a>
</g>
</g>
<!-- Node1&#45;&gt;Node35 -->
<g id="edge28" class="edge">
<title>Node1&#45;&gt;Node35</title>
<path fill="none" stroke="midnightblue" d="M583.72,-462.7C625.42,-422 730.84,-319.13 763.62,-287.15"/>
<polygon fill="midnightblue" stroke="midnightblue" points="581.2,-460.27 576.48,-469.76 586.09,-465.28 581.2,-460.27"/>
</g>
<!-- Node2 -->
<g id="node2" class="node">
<title>Node2</title>
<g id="a_node2"><a xlink:href="classDynExp_1_1ParamsBase.html" target="_top" xlink:title="Abstract base class for object parameter classes. Each class derived from class Object must be accomp...">
<polygon fill="white" stroke="black" points="323,-470 323,-489 443,-489 443,-470 323,-470"/>
<text text-anchor="middle" x="383" y="-477" font-family="Helvetica,sans-Serif" font-size="10.00">DynExp::ParamsBase</text>
</a>
</g>
</g>
<!-- Node2&#45;&gt;Node1 -->
<g id="edge1" class="edge">
<title>Node2&#45;&gt;Node1</title>
<path fill="none" stroke="midnightblue" d="M453.17,-479.5C461.54,-479.5 470.17,-479.5 478.75,-479.5"/>
<polygon fill="midnightblue" stroke="midnightblue" points="453.1,-476 443.1,-479.5 453.1,-483 453.1,-476"/>
</g>
<!-- Node3 -->
<g id="node3" class="node">
<title>Node3</title>
<g id="a_node3"><a xlink:href="classUtil_1_1ISynchronizedPointerLockable.html" target="_top" xlink:title="Interface to allow synchronizing the access to derived classes between different threads by making th...">
<polygon fill="white" stroke="black" points="144,-464.5 144,-494.5 287,-494.5 287,-464.5 144,-464.5"/>
<text text-anchor="start" x="152" y="-482.5" font-family="Helvetica,sans-Serif" font-size="10.00">Util::ISynchronizedPointer</text>
<text text-anchor="middle" x="215.5" y="-471.5" font-family="Helvetica,sans-Serif" font-size="10.00">Lockable</text>
</a>
</g>
</g>
<!-- Node3&#45;&gt;Node2 -->
<g id="edge2" class="edge">
<title>Node3&#45;&gt;Node2</title>
<path fill="none" stroke="midnightblue" d="M297.23,-479.5C305.84,-479.5 314.47,-479.5 322.76,-479.5"/>
<polygon fill="midnightblue" stroke="midnightblue" points="297.17,-476 287.17,-479.5 297.17,-483 297.17,-476"/>
</g>
<!-- Node4 -->
<g id="node4" class="node">
<title>Node4</title>
<g id="a_node4"><a xlink:href="classUtil_1_1INonCopyable.html" target="_top" xlink:title="Interface to delete copy constructor and copy assignment operator and thus make derived classes non&#45;c...">
<polygon fill="white" stroke="black" points="0,-470 0,-489 108,-489 108,-470 0,-470"/>
<text text-anchor="middle" x="54" y="-477" font-family="Helvetica,sans-Serif" font-size="10.00">Util::INonCopyable</text>
</a>
</g>
</g>
<!-- Node4&#45;&gt;Node3 -->
<g id="edge3" class="edge">
<title>Node4&#45;&gt;Node3</title>
<path fill="none" stroke="midnightblue" d="M118.19,-479.5C126.58,-479.5 135.23,-479.5 143.74,-479.5"/>
<polygon fill="midnightblue" stroke="midnightblue" points="118.11,-476 108.11,-479.5 118.11,-483 118.11,-476"/>
</g>
<!-- Node6 -->
<g id="node6" class="node">
<title>Node6</title>
<g id="a_node6"><a xlink:href="classDynExpInstr_1_1CameraParams.html" target="_top" xlink:title="Parameter class for Camera.">
<polygon fill="white" stroke="black" points="916,-1020 916,-1039 1072,-1039 1072,-1020 916,-1020"/>
<text text-anchor="middle" x="994" y="-1027" font-family="Helvetica,sans-Serif" font-size="10.00">DynExpInstr::CameraParams</text>
</a>
</g>
</g>
<!-- Node5&#45;&gt;Node6 -->
<g id="edge5" class="edge">
<title>Node5&#45;&gt;Node6</title>
<path fill="none" stroke="midnightblue" d="M789.1,-764.2C830.48,-818.03 953.91,-978.63 985.54,-1019.8"/>
<polygon fill="midnightblue" stroke="midnightblue" points="791.86,-762.04 782.99,-756.24 786.31,-766.3 791.86,-762.04"/>
</g>
<!-- Node9 -->
<g id="node9" class="node">
<title>Node9</title>
<g id="a_node9"><a xlink:href="classDynExpInstr_1_1DataStreamInstrumentParams.html" target="_top" xlink:title="Parameter class for DataStreamInstrument.">
<polygon fill="white" stroke="black" points="897,-825.5 897,-855.5 1091,-855.5 1091,-825.5 897,-825.5"/>
<text text-anchor="start" x="905" y="-843.5" font-family="Helvetica,sans-Serif" font-size="10.00">DynExpInstr::DataStreamInstrument</text>
<text text-anchor="middle" x="994" y="-832.5" font-family="Helvetica,sans-Serif" font-size="10.00">Params</text>
</a>
</g>
</g>
<!-- Node5&#45;&gt;Node9 -->
<g id="edge8" class="edge">
<title>Node5&#45;&gt;Node9</title>
<path fill="none" stroke="midnightblue" d="M806.85,-760.05C846.96,-777.39 916.25,-807.33 958.03,-825.39"/>
<polygon fill="midnightblue" stroke="midnightblue" points="808.12,-756.78 797.55,-756.03 805.34,-763.21 808.12,-756.78"/>
</g>
<!-- Node29 -->
<g id="node23" class="node">
<title>Node29</title>
<g id="a_node23"><a xlink:href="classDynExpInstr_1_1InterModuleCommunicatorParams.html" target="_top" xlink:title="Parameter class for InterModuleCommunicator.">
<polygon fill="white" stroke="black" points="924,-756.5 924,-786.5 1064,-786.5 1064,-756.5 924,-756.5"/>
<text text-anchor="start" x="932" y="-774.5" font-family="Helvetica,sans-Serif" font-size="10.00">DynExpInstr::InterModule</text>
<text text-anchor="middle" x="994" y="-763.5" font-family="Helvetica,sans-Serif" font-size="10.00">CommunicatorParams</text>
</a>
</g>
</g>
<!-- Node5&#45;&gt;Node29 -->
<g id="edge22" class="edge">
<title>Node5&#45;&gt;Node29</title>
<path fill="none" stroke="midnightblue" d="M868.31,-757.17C886.93,-759.31 906.19,-761.52 923.83,-763.55"/>
<polygon fill="midnightblue" stroke="midnightblue" points="868.68,-753.69 858.35,-756.02 867.88,-760.64 868.68,-753.69"/>
</g>
<!-- Node30 -->
<g id="node24" class="node">
<title>Node30</title>
<g id="a_node24"><a xlink:href="classDynExpInstr_1_1PositionerStageParams.html" target="_top" xlink:title="Parameter class for PositionerStage.">
<polygon fill="white" stroke="black" points="915,-707.5 915,-737.5 1073,-737.5 1073,-707.5 915,-707.5"/>
<text text-anchor="start" x="923" y="-725.5" font-family="Helvetica,sans-Serif" font-size="10.00">DynExpInstr::PositionerStage</text>
<text text-anchor="middle" x="994" y="-714.5" font-family="Helvetica,sans-Serif" font-size="10.00">Params</text>
</a>
</g>
</g>
<!-- Node5&#45;&gt;Node30 -->
<g id="edge23" class="edge">
<title>Node5&#45;&gt;Node30</title>
<path fill="none" stroke="midnightblue" d="M871.19,-735.94C885.79,-734.33 900.7,-732.68 914.86,-731.12"/>
<polygon fill="midnightblue" stroke="midnightblue" points="870.71,-732.47 861.15,-737.05 871.47,-739.43 870.71,-732.47"/>
</g>
<!-- Node34 -->
<g id="node28" class="node">
<title>Node34</title>
<g id="a_node28"><a xlink:href="classDynExpInstr_1_1SpectrometerParams.html" target="_top" xlink:title="Parameter class for Spectrometer.">
<polygon fill="white" stroke="black" points="920,-658.5 920,-688.5 1068,-688.5 1068,-658.5 920,-658.5"/>
<text text-anchor="start" x="928" y="-676.5" font-family="Helvetica,sans-Serif" font-size="10.00">DynExpInstr::Spectrometer</text>
<text text-anchor="middle" x="994" y="-665.5" font-family="Helvetica,sans-Serif" font-size="10.00">Params</text>
</a>
</g>
</g>
<!-- Node5&#45;&gt;Node34 -->
<g id="edge27" class="edge">
<title>Node5&#45;&gt;Node34</title>
<path fill="none" stroke="midnightblue" d="M807.02,-732.83C831.32,-722.58 865.92,-708.64 897,-698.5 907.81,-694.97 919.42,-691.6 930.71,-688.54"/>
<polygon fill="midnightblue" stroke="midnightblue" points="805.43,-729.7 797.6,-736.83 808.17,-736.14 805.43,-729.7"/>
</g>
<!-- Node7 -->
<g id="node7" class="node">
<title>Node7</title>
<g id="a_node7"><a xlink:href="classDynExpInstr_1_1DummyCameraParams.html" target="_top" xlink:title=" ">
<polygon fill="white" stroke="black" points="1135.5,-1058.5 1135.5,-1088.5 1294.5,-1088.5 1294.5,-1058.5 1135.5,-1058.5"/>
<text text-anchor="start" x="1143.5" y="-1076.5" font-family="Helvetica,sans-Serif" font-size="10.00">DynExpInstr::DummyCamera</text>
<text text-anchor="middle" x="1215" y="-1065.5" font-family="Helvetica,sans-Serif" font-size="10.00">Params</text>
</a>
</g>
</g>
<!-- Node6&#45;&gt;Node7 -->
<g id="edge6" class="edge">
<title>Node6&#45;&gt;Node7</title>
<path fill="none" stroke="midnightblue" d="M1052.39,-1041.03C1078.88,-1046.35 1110.67,-1052.74 1139.02,-1058.43"/>
<polygon fill="midnightblue" stroke="midnightblue" points="1053.01,-1037.59 1042.52,-1039.05 1051.63,-1044.45 1053.01,-1037.59"/>
</g>
<!-- Node8 -->
<g id="node8" class="node">
<title>Node8</title>
<g id="a_node8"><a xlink:href="classDynExpInstr_1_1PVCamParams.html" target="_top" xlink:title=" ">
<polygon fill="white" stroke="black" points="1138.5,-1020 1138.5,-1039 1291.5,-1039 1291.5,-1020 1138.5,-1020"/>
<text text-anchor="middle" x="1215" y="-1027" font-family="Helvetica,sans-Serif" font-size="10.00">DynExpInstr::PVCamParams</text>
</a>
</g>
</g>
<!-- Node6&#45;&gt;Node8 -->
<g id="edge7" class="edge">
<title>Node6&#45;&gt;Node8</title>
<path fill="none" stroke="midnightblue" d="M1082.37,-1029.5C1100.85,-1029.5 1120.21,-1029.5 1138.22,-1029.5"/>
<polygon fill="midnightblue" stroke="midnightblue" points="1082.21,-1026 1072.21,-1029.5 1082.21,-1033 1082.21,-1026"/>
</g>
<!-- Node10 -->
<g id="node10" class="node">
<title>Node10</title>
<g id="a_node10"><a xlink:href="classDynExpInstr_1_1FunctionGeneratorParams.html" target="_top" xlink:title="Parameter class for FunctionGenerator.">
<polygon fill="white" stroke="black" points="1129,-970.5 1129,-1000.5 1301,-1000.5 1301,-970.5 1129,-970.5"/>
<text text-anchor="start" x="1137" y="-988.5" font-family="Helvetica,sans-Serif" font-size="10.00">DynExpInstr::FunctionGenerator</text>
<text text-anchor="middle" x="1215" y="-977.5" font-family="Helvetica,sans-Serif" font-size="10.00">Params</text>
</a>
</g>
</g>
<!-- Node9&#45;&gt;Node10 -->
<g id="edge9" class="edge">
<title>Node9&#45;&gt;Node10</title>
<path fill="none" stroke="midnightblue" d="M1026.46,-861.33C1071.15,-890.92 1151.97,-944.43 1191.29,-970.46"/>
<polygon fill="midnightblue" stroke="midnightblue" points="1028.29,-858.35 1018.02,-855.74 1024.43,-864.18 1028.29,-858.35"/>
</g>
<!-- Node20 -->
<g id="node16" class="node">
<title>Node20</title>
<g id="a_node16"><a xlink:href="classDynExpInstr_1_1InputPortParams.html" target="_top" xlink:title="Parameter class for InputPort.">
<polygon fill="white" stroke="black" points="1134,-875 1134,-894 1296,-894 1296,-875 1134,-875"/>
<text text-anchor="middle" x="1215" y="-882" font-family="Helvetica,sans-Serif" font-size="10.00">DynExpInstr::InputPortParams</text>
</a>
</g>
</g>
<!-- Node9&#45;&gt;Node20 -->
<g id="edge15" class="edge">
<title>Node9&#45;&gt;Node20</title>
<path fill="none" stroke="midnightblue" d="M1079.66,-857.51C1109.18,-863.44 1141.25,-869.88 1166.65,-874.99"/>
<polygon fill="midnightblue" stroke="midnightblue" points="1080.25,-854.06 1069.75,-855.52 1078.87,-860.92 1080.25,-854.06"/>
</g>
<!-- Node25 -->
<g id="node19" class="node">
<title>Node25</title>
<g id="a_node19"><a xlink:href="classDynExpInstr_1_1LockinAmplifierParams.html" target="_top" xlink:title="Parameter class for LockinAmplifier.">
<polygon fill="white" stroke="black" points="1136,-825.5 1136,-855.5 1294,-855.5 1294,-825.5 1136,-825.5"/>
<text text-anchor="start" x="1144" y="-843.5" font-family="Helvetica,sans-Serif" font-size="10.00">DynExpInstr::LockinAmplifier</text>
<text text-anchor="middle" x="1215" y="-832.5" font-family="Helvetica,sans-Serif" font-size="10.00">Params</text>
</a>
</g>
</g>
<!-- Node9&#45;&gt;Node25 -->
<g id="edge18" class="edge">
<title>Node9&#45;&gt;Node25</title>
<path fill="none" stroke="midnightblue" d="M1101.25,-840.5C1112.88,-840.5 1124.56,-840.5 1135.76,-840.5"/>
<polygon fill="midnightblue" stroke="midnightblue" points="1101.06,-837 1091.06,-840.5 1101.06,-844 1101.06,-837"/>
</g>
<!-- Node27 -->
<g id="node21" class="node">
<title>Node27</title>
<g id="a_node21"><a xlink:href="classDynExpInstr_1_1TimeTaggerParams.html" target="_top" xlink:title="Parameter class for TimeTagger.">
<polygon fill="white" stroke="black" points="1127.5,-787 1127.5,-806 1302.5,-806 1302.5,-787 1127.5,-787"/>
<text text-anchor="middle" x="1215" y="-794" font-family="Helvetica,sans-Serif" font-size="10.00">DynExpInstr::TimeTaggerParams</text>
</a>
</g>
</g>
<!-- Node9&#45;&gt;Node27 -->
<g id="edge20" class="edge">
<title>Node9&#45;&gt;Node27</title>
<path fill="none" stroke="midnightblue" d="M1079.66,-823.49C1109.18,-817.56 1141.25,-811.12 1166.65,-806.01"/>
<polygon fill="midnightblue" stroke="midnightblue" points="1078.87,-820.08 1069.75,-825.48 1080.25,-826.94 1078.87,-820.08"/>
</g>
<!-- Node11 -->
<g id="node11" class="node">
<title>Node11</title>
<g id="a_node11"><a xlink:href="classDynExpInstr_1_1DummyDataStreamInstrumentParams.html" target="_top" xlink:title=" ">
<polygon fill="white" stroke="black" points="1343.5,-1090.5 1343.5,-1120.5 1522.5,-1120.5 1522.5,-1090.5 1343.5,-1090.5"/>
<text text-anchor="start" x="1351.5" y="-1108.5" font-family="Helvetica,sans-Serif" font-size="10.00">DynExpInstr::DummyDataStream</text>
<text text-anchor="middle" x="1433" y="-1097.5" font-family="Helvetica,sans-Serif" font-size="10.00">InstrumentParams</text>
</a>
</g>
</g>
<!-- Node10&#45;&gt;Node11 -->
<g id="edge10" class="edge">
<title>Node10&#45;&gt;Node11</title>
<path fill="none" stroke="midnightblue" d="M1296.48,-1005.73C1298.75,-1007.21 1300.93,-1008.8 1303,-1010.5 1330.03,-1032.71 1311.78,-1058.52 1339,-1080.5 1343.81,-1084.39 1349.18,-1087.67 1354.83,-1090.45"/>
<polygon fill="midnightblue" stroke="midnightblue" points="1297.77,-1002.44 1287.35,-1000.55 1294.32,-1008.53 1297.77,-1002.44"/>
</g>
<!-- Node12 -->
<g id="node12" class="node">
<title>Node12</title>
<g id="a_node12"><a xlink:href="classDynExpInstr_1_1OutputPortParams.html" target="_top" xlink:title="Parameter class for OutputPort.">
<polygon fill="white" stroke="red" points="1348,-1052 1348,-1071 1518,-1071 1518,-1052 1348,-1052"/>
<text text-anchor="middle" x="1433" y="-1059" font-family="Helvetica,sans-Serif" font-size="10.00">DynExpInstr::OutputPortParams</text>
</a>
</g>
</g>
<!-- Node10&#45;&gt;Node12 -->
<g id="edge11" class="edge">
<title>Node10&#45;&gt;Node12</title>
<path fill="none" stroke="midnightblue" d="M1290.53,-1004.44C1294.83,-1006.29 1299.02,-1008.31 1303,-1010.5 1321.75,-1020.82 1319.86,-1032.92 1339,-1042.5 1346.81,-1046.41 1355.37,-1049.51 1364.04,-1051.98"/>
<polygon fill="midnightblue" stroke="midnightblue" points="1291.55,-1001.09 1280.97,-1000.65 1288.97,-1007.59 1291.55,-1001.09"/>
</g>
<!-- Node17 -->
<g id="node13" class="node">
<title>Node17</title>
<g id="a_node13"><a xlink:href="classDynExpInstr_1_1RS__SMB100BParams.html" target="_top" xlink:title=" ">
<polygon fill="white" stroke="black" points="1342,-1014 1342,-1033 1524,-1033 1524,-1014 1342,-1014"/>
<text text-anchor="middle" x="1433" y="-1021" font-family="Helvetica,sans-Serif" font-size="10.00">DynExpInstr::RS_SMB100BParams</text>
</a>
</g>
</g>
<!-- Node10&#45;&gt;Node17 -->
<g id="edge12" class="edge">
<title>Node10&#45;&gt;Node17</title>
<path fill="none" stroke="midnightblue" d="M1311.14,-1002.24C1333.98,-1006.26 1357.6,-1010.41 1377.84,-1013.97"/>
<polygon fill="midnightblue" stroke="midnightblue" points="1311.51,-998.75 1301.06,-1000.46 1310.3,-1005.64 1311.51,-998.75"/>
</g>
<!-- Node18 -->
<g id="node14" class="node">
<title>Node18</title>
<g id="a_node14"><a xlink:href="classDynExpInstr_1_1RS__SMC100AParams.html" target="_top" xlink:title=" ">
<polygon fill="white" stroke="black" points="1342,-976 1342,-995 1524,-995 1524,-976 1342,-976"/>
<text text-anchor="middle" x="1433" y="-983" font-family="Helvetica,sans-Serif" font-size="10.00">DynExpInstr::RS_SMC100AParams</text>
</a>
</g>
</g>
<!-- Node10&#45;&gt;Node18 -->
<g id="edge13" class="edge">
<title>Node10&#45;&gt;Node18</title>
<path fill="none" stroke="midnightblue" d="M1311.14,-985.5C1321.29,-985.5 1331.59,-985.5 1341.68,-985.5"/>
<polygon fill="midnightblue" stroke="midnightblue" points="1311.06,-982 1301.06,-985.5 1311.06,-989 1311.06,-982"/>
</g>
<!-- Node19 -->
<g id="node15" class="node">
<title>Node19</title>
<g id="a_node15"><a xlink:href="classDynExpInstr_1_1SwabianInstrumentsPulseStreamerParams.html" target="_top" xlink:title=" ">
<polygon fill="white" stroke="black" points="1342,-926.5 1342,-956.5 1524,-956.5 1524,-926.5 1342,-926.5"/>
<text text-anchor="start" x="1350" y="-944.5" font-family="Helvetica,sans-Serif" font-size="10.00">DynExpInstr::SwabianInstruments</text>
<text text-anchor="middle" x="1433" y="-933.5" font-family="Helvetica,sans-Serif" font-size="10.00">PulseStreamerParams</text>
</a>
</g>
</g>
<!-- Node10&#45;&gt;Node19 -->
<g id="edge14" class="edge">
<title>Node10&#45;&gt;Node19</title>
<path fill="none" stroke="midnightblue" d="M1299.71,-968.45C1319.01,-964.52 1339.4,-960.36 1358.23,-956.53"/>
<polygon fill="midnightblue" stroke="midnightblue" points="1298.83,-965.06 1289.73,-970.48 1300.23,-971.91 1298.83,-965.06"/>
</g>
<!-- Node21 -->
<g id="node17" class="node">
<title>Node21</title>
<g id="a_node17"><a xlink:href="classDynExpInstr_1_1AnalogInParams.html" target="_top" xlink:title="Parameter class for AnalogIn.">
<polygon fill="white" stroke="red" points="1352.5,-888 1352.5,-907 1513.5,-907 1513.5,-888 1352.5,-888"/>
<text text-anchor="middle" x="1433" y="-895" font-family="Helvetica,sans-Serif" font-size="10.00">DynExpInstr::AnalogInParams</text>
</a>
</g>
</g>
<!-- Node20&#45;&gt;Node21 -->
<g id="edge16" class="edge">
<title>Node20&#45;&gt;Node21</title>
<path fill="none" stroke="midnightblue" d="M1306.12,-889.92C1321.47,-890.85 1337.31,-891.8 1352.37,-892.71"/>
<polygon fill="midnightblue" stroke="midnightblue" points="1306.32,-886.43 1296.12,-889.32 1305.9,-893.42 1306.32,-886.43"/>
</g>
<!-- Node23 -->
<g id="node18" class="node">
<title>Node23</title>
<g id="a_node18"><a xlink:href="classDynExpInstr_1_1DigitalInParams.html" target="_top" xlink:title="Parameter class for DigitalIn.">
<polygon fill="white" stroke="red" points="1353.5,-850 1353.5,-869 1512.5,-869 1512.5,-850 1353.5,-850"/>
<text text-anchor="middle" x="1433" y="-857" font-family="Helvetica,sans-Serif" font-size="10.00">DynExpInstr::DigitalInParams</text>
</a>
</g>
</g>
<!-- Node20&#45;&gt;Node23 -->
<g id="edge17" class="edge">
<title>Node20&#45;&gt;Node23</title>
<path fill="none" stroke="midnightblue" d="M1306.32,-874.05C1321.97,-872.23 1338.14,-870.36 1353.44,-868.59"/>
<polygon fill="midnightblue" stroke="midnightblue" points="1305.65,-870.6 1296.12,-875.23 1306.46,-877.55 1305.65,-870.6"/>
</g>
<!-- Node26 -->
<g id="node20" class="node">
<title>Node26</title>
<g id="a_node20"><a xlink:href="classDynExpInstr_1_1ZI__MFLIParams.html" target="_top" xlink:title=" ">
<polygon fill="white" stroke="black" points="1355,-812 1355,-831 1511,-831 1511,-812 1355,-812"/>
<text text-anchor="middle" x="1433" y="-819" font-family="Helvetica,sans-Serif" font-size="10.00">DynExpInstr::ZI_MFLIParams</text>
</a>
</g>
</g>
<!-- Node25&#45;&gt;Node26 -->
<g id="edge19" class="edge">
<title>Node25&#45;&gt;Node26</title>
<path fill="none" stroke="midnightblue" d="M1304.55,-832.71C1321.18,-831.25 1338.45,-829.73 1354.7,-828.3"/>
<polygon fill="midnightblue" stroke="midnightblue" points="1303.94,-829.25 1294.29,-833.61 1304.55,-836.22 1303.94,-829.25"/>
</g>
<!-- Node28 -->
<g id="node22" class="node">
<title>Node28</title>
<g id="a_node22"><a xlink:href="classDynExpInstr_1_1QutoolsQuTAGParams.html" target="_top" xlink:title=" ">
<polygon fill="white" stroke="black" points="1339,-774 1339,-793 1527,-793 1527,-774 1339,-774"/>
<text text-anchor="middle" x="1433" y="-781" font-family="Helvetica,sans-Serif" font-size="10.00">DynExpInstr::QutoolsQuTAGParams</text>
</a>
</g>
</g>
<!-- Node27&#45;&gt;Node28 -->
<g id="edge21" class="edge">
<title>Node27&#45;&gt;Node28</title>
<path fill="none" stroke="midnightblue" d="M1312.68,-790.68C1321.32,-790.16 1330.04,-789.64 1338.65,-789.12"/>
<polygon fill="midnightblue" stroke="midnightblue" points="1312.38,-787.19 1302.61,-791.29 1312.8,-794.18 1312.38,-787.19"/>
</g>
<!-- Node31 -->
<g id="node25" class="node">
<title>Node31</title>
<g id="a_node25"><a xlink:href="classDynExpInstr_1_1NenionLeakvalveF3Params.html" target="_top" xlink:title=" ">
<polygon fill="white" stroke="black" points="1131.5,-737.5 1131.5,-767.5 1298.5,-767.5 1298.5,-737.5 1131.5,-737.5"/>
<text text-anchor="start" x="1139.5" y="-755.5" font-family="Helvetica,sans-Serif" font-size="10.00">DynExpInstr::NenionLeakvalve</text>
<text text-anchor="middle" x="1215" y="-744.5" font-family="Helvetica,sans-Serif" font-size="10.00">F3Params</text>
</a>
</g>
</g>
<!-- Node30&#45;&gt;Node31 -->
<g id="edge24" class="edge">
<title>Node30&#45;&gt;Node31</title>
<path fill="none" stroke="midnightblue" d="M1083.45,-734.62C1099.3,-736.79 1115.77,-739.04 1131.45,-741.19"/>
<polygon fill="midnightblue" stroke="midnightblue" points="1083.52,-731.09 1073.14,-733.2 1082.57,-738.03 1083.52,-731.09"/>
</g>
<!-- Node32 -->
<g id="node26" class="node">
<title>Node32</title>
<g id="a_node26"><a xlink:href="classDynExpInstr_1_1PI__C__862__Params.html" target="_top" xlink:title=" ">
<polygon fill="white" stroke="black" points="1152,-688.5 1152,-718.5 1278,-718.5 1278,-688.5 1152,-688.5"/>
<text text-anchor="start" x="1160" y="-706.5" font-family="Helvetica,sans-Serif" font-size="10.00">DynExpInstr::PI_C_862</text>
<text text-anchor="middle" x="1215" y="-695.5" font-family="Helvetica,sans-Serif" font-size="10.00">_Params</text>
</a>
</g>
</g>
<!-- Node30&#45;&gt;Node32 -->
<g id="edge25" class="edge">
<title>Node30&#45;&gt;Node32</title>
<path fill="none" stroke="midnightblue" d="M1083.23,-714.85C1106.17,-712.85 1130.42,-710.75 1151.71,-708.9"/>
<polygon fill="midnightblue" stroke="midnightblue" points="1082.8,-711.37 1073.14,-715.72 1083.4,-718.34 1082.8,-711.37"/>
</g>
<!-- Node33 -->
<g id="node27" class="node">
<title>Node33</title>
<g id="a_node27"><a xlink:href="classDynExpInstr_1_1SmarActParams.html" target="_top" xlink:title=" ">
<polygon fill="white" stroke="black" points="1135.5,-650 1135.5,-669 1294.5,-669 1294.5,-650 1135.5,-650"/>
<text text-anchor="middle" x="1215" y="-657" font-family="Helvetica,sans-Serif" font-size="10.00">DynExpInstr::SmarActParams</text>
</a>
</g>
</g>
<!-- Node30&#45;&gt;Node33 -->
<g id="edge26" class="edge">
<title>Node30&#45;&gt;Node33</title>
<path fill="none" stroke="midnightblue" d="M1073.76,-704.46C1079.65,-702.61 1085.45,-700.62 1091,-698.5 1107.9,-692.04 1110.04,-685.8 1127,-679.5 1138.19,-675.34 1150.51,-671.88 1162.28,-669.06"/>
<polygon fill="midnightblue" stroke="midnightblue" points="1072.38,-701.22 1063.8,-707.44 1074.39,-707.93 1072.38,-701.22"/>
</g>
<!-- Node36 -->
<g id="node30" class="node">
<title>Node36</title>
<g id="a_node30"><a xlink:href="classDynExpModule_1_1gRPCModuleParams.html" target="_top" xlink:title=" ">
<polygon fill="white" stroke="black" points="915,-535.5 915,-565.5 1073,-565.5 1073,-535.5 915,-535.5"/>
<text text-anchor="start" x="923" y="-553.5" font-family="Helvetica,sans-Serif" font-size="10.00">DynExpModule::gRPCModule</text>
<text text-anchor="middle" x="994" y="-542.5" font-family="Helvetica,sans-Serif" font-size="10.00">Params&lt; gRPCServices... &gt;</text>
</a>
</g>
</g>
<!-- Node35&#45;&gt;Node36 -->
<g id="edge29" class="edge">
<title>Node35&#45;&gt;Node36</title>
<path fill="none" stroke="midnightblue" d="M789.62,-295.22C829.63,-345.44 943.28,-488.1 980.81,-535.2"/>
<polygon fill="midnightblue" stroke="midnightblue" points="792.21,-292.86 783.24,-287.22 786.73,-297.22 792.21,-292.86"/>
</g>
<!-- Node44 -->
<g id="node35" class="node">
<title>Node44</title>
<g id="a_node35"><a xlink:href="classDynExp_1_1QModuleParamsBase.html" target="_top" xlink:title="Parameter class for QModuleBase.">
<polygon fill="white" stroke="black" points="912,-290 912,-309 1076,-309 1076,-290 912,-290"/>
<text text-anchor="middle" x="994" y="-297" font-family="Helvetica,sans-Serif" font-size="10.00">DynExp::QModuleParamsBase</text>
</a>
</g>
</g>
<!-- Node35&#45;&gt;Node44 -->
<g id="edge34" class="edge">
<title>Node35&#45;&gt;Node44</title>
<path fill="none" stroke="midnightblue" d="M862.79,-286.33C879.01,-287.97 895.89,-289.68 911.91,-291.3"/>
<polygon fill="midnightblue" stroke="midnightblue" points="863.1,-282.84 852.79,-285.32 862.39,-289.81 863.1,-282.84"/>
</g>
<!-- Node56 -->
<g id="node47" class="node">
<title>Node56</title>
<g id="a_node47"><a xlink:href="classDynExpModule_1_1ArbitraryFunctionFromCSVParams.html" target="_top" xlink:title=" ">
<polygon fill="white" stroke="black" points="904,-240.5 904,-270.5 1084,-270.5 1084,-240.5 904,-240.5"/>
<text text-anchor="start" x="912" y="-258.5" font-family="Helvetica,sans-Serif" font-size="10.00">DynExpModule::ArbitraryFunction</text>
<text text-anchor="middle" x="994" y="-247.5" font-family="Helvetica,sans-Serif" font-size="10.00">FromCSVParams</text>
</a>
</g>
</g>
<!-- Node35&#45;&gt;Node56 -->
<g id="edge46" class="edge">
<title>Node35&#45;&gt;Node56</title>
<path fill="none" stroke="midnightblue" d="M862.96,-268.65C876.38,-267.3 890.25,-265.89 903.71,-264.53"/>
<polygon fill="midnightblue" stroke="midnightblue" points="862.39,-265.19 852.79,-269.68 863.1,-272.16 862.39,-265.19"/>
</g>
<!-- Node57 -->
<g id="node48" class="node">
<title>Node57</title>
<g id="a_node48"><a xlink:href="classDynExpModule_1_1StreamManipulatorParams.html" target="_top" xlink:title="Parameter class for StreamManipulator.">
<polygon fill="white" stroke="black" points="899,-191.5 899,-221.5 1089,-221.5 1089,-191.5 899,-191.5"/>
<text text-anchor="start" x="907" y="-209.5" font-family="Helvetica,sans-Serif" font-size="10.00">DynExpModule::StreamManipulator</text>
<text text-anchor="middle" x="994" y="-198.5" font-family="Helvetica,sans-Serif" font-size="10.00">Params</text>
</a>
</g>
</g>
<!-- Node35&#45;&gt;Node57 -->
<g id="edge47" class="edge">
<title>Node35&#45;&gt;Node57</title>
<path fill="none" stroke="midnightblue" d="M807.02,-264.07C831.32,-254.01 865.92,-240.35 897,-230.5 906.99,-227.33 917.67,-224.31 928.14,-221.55"/>
<polygon fill="midnightblue" stroke="midnightblue" points="805.48,-260.92 797.6,-268 808.17,-267.38 805.48,-260.92"/>
</g>
<!-- Node58 -->
<g id="node49" class="node">
<title>Node58</title>
<g id="a_node49"><a xlink:href="classDynExpModule_1_1gRPCModuleParams.html" target="_top" xlink:title="Parameter class for gRPCModule.">
<polygon fill="white" stroke="black" points="915,-142.5 915,-172.5 1073,-172.5 1073,-142.5 915,-142.5"/>
<text text-anchor="start" x="923" y="-160.5" font-family="Helvetica,sans-Serif" font-size="10.00">DynExpModule::gRPCModule</text>
<text text-anchor="middle" x="994" y="-149.5" font-family="Helvetica,sans-Serif" font-size="10.00">Params&lt; gRPCServices &gt;</text>
</a>
</g>
</g>
<!-- Node35&#45;&gt;Node58 -->
<g id="edge48" class="edge">
<title>Node35&#45;&gt;Node58</title>
<path fill="none" stroke="midnightblue" d="M791.78,-260.82C813.71,-239.31 854.88,-202.2 897,-181.5 904.02,-178.05 911.57,-175.07 919.25,-172.5"/>
<polygon fill="midnightblue" stroke="midnightblue" points="789.21,-258.44 784.6,-267.98 794.15,-263.4 789.21,-258.44"/>
</g>
<!-- Node37 -->
<g id="node31" class="node">
<title>Node37</title>
<g id="a_node31"><a xlink:href="classDynExpModule_1_1NetworkDataStreamInstrumentParams.html" target="_top" xlink:title=" ">
<polygon fill="white" stroke="red" points="1134.5,-590 1134.5,-631 1295.5,-631 1295.5,-590 1134.5,-590"/>
<text text-anchor="start" x="1142.5" y="-619" font-family="Helvetica,sans-Serif" font-size="10.00">DynExpModule::NetworkData</text>
<text text-anchor="start" x="1142.5" y="-608" font-family="Helvetica,sans-Serif" font-size="10.00">StreamInstrumentParams</text>
<text text-anchor="middle" x="1215" y="-597" font-family="Helvetica,sans-Serif" font-size="10.00">&lt; gRPCServices... &gt;</text>
</a>
</g>
</g>
<!-- Node36&#45;&gt;Node37 -->
<g id="edge30" class="edge">
<title>Node36&#45;&gt;Node37</title>
<path fill="none" stroke="midnightblue" d="M1059.7,-568.23C1084.63,-575.06 1113.32,-582.92 1139.13,-589.99"/>
<polygon fill="midnightblue" stroke="midnightblue" points="1060.55,-564.83 1049.98,-565.56 1058.7,-571.58 1060.55,-564.83"/>
</g>
<!-- Node43 -->
<g id="node34" class="node">
<title>Node43</title>
<g id="a_node34"><a xlink:href="classDynExpModule_1_1NetworkDataStreamInstrumentParams.html" target="_top" xlink:title=" ">
<polygon fill="white" stroke="black" points="1134.5,-530 1134.5,-571 1295.5,-571 1295.5,-530 1134.5,-530"/>
<text text-anchor="start" x="1142.5" y="-559" font-family="Helvetica,sans-Serif" font-size="10.00">DynExpModule::NetworkData</text>
<text text-anchor="start" x="1142.5" y="-548" font-family="Helvetica,sans-Serif" font-size="10.00">StreamInstrumentParams</text>
<text text-anchor="middle" x="1215" y="-537" font-family="Helvetica,sans-Serif" font-size="10.00">&lt; gRPCServices &gt;</text>
</a>
</g>
</g>
<!-- Node36&#45;&gt;Node43 -->
<g id="edge33" class="edge">
<title>Node36&#45;&gt;Node43</title>
<path fill="none" stroke="midnightblue" d="M1083.52,-550.5C1100.35,-550.5 1117.88,-550.5 1134.42,-550.5"/>
<polygon fill="midnightblue" stroke="midnightblue" points="1083.14,-547 1073.14,-550.5 1083.14,-554 1083.14,-547"/>
</g>
<!-- Node38 -->
<g id="node32" class="node">
<title>Node38</title>
<g id="a_node32"><a xlink:href="classDynExpModule_1_1NetworkAnalogInParams.html" target="_top" xlink:title=" ">
<polygon fill="white" stroke="black" points="1347.5,-619.5 1347.5,-649.5 1518.5,-649.5 1518.5,-619.5 1347.5,-619.5"/>
<text text-anchor="start" x="1355.5" y="-637.5" font-family="Helvetica,sans-Serif" font-size="10.00">DynExpModule::NetworkAnalog</text>
<text text-anchor="middle" x="1433" y="-626.5" font-family="Helvetica,sans-Serif" font-size="10.00">InParams&lt; gRPCServices &gt;</text>
</a>
</g>
</g>
<!-- Node37&#45;&gt;Node38 -->
<g id="edge31" class="edge">
<title>Node37&#45;&gt;Node38</title>
<path fill="none" stroke="midnightblue" d="M1305.48,-620.44C1319.29,-621.98 1333.51,-623.56 1347.21,-625.08"/>
<polygon fill="midnightblue" stroke="midnightblue" points="1305.84,-616.96 1295.51,-619.33 1305.06,-623.92 1305.84,-616.96"/>
</g>
<!-- Node39 -->
<g id="node33" class="node">
<title>Node39</title>
<g id="a_node33"><a xlink:href="classDynExpModule_1_1NetworkAnalogOutParams.html" target="_top" xlink:title=" ">
<polygon fill="white" stroke="black" points="1347.5,-570.5 1347.5,-600.5 1518.5,-600.5 1518.5,-570.5 1347.5,-570.5"/>
<text text-anchor="start" x="1355.5" y="-588.5" font-family="Helvetica,sans-Serif" font-size="10.00">DynExpModule::NetworkAnalog</text>
<text text-anchor="middle" x="1433" y="-577.5" font-family="Helvetica,sans-Serif" font-size="10.00">OutParams&lt; gRPCServices &gt;</text>
</a>
</g>
</g>
<!-- Node37&#45;&gt;Node39 -->
<g id="edge32" class="edge">
<title>Node37&#45;&gt;Node39</title>
<path fill="none" stroke="midnightblue" d="M1305.48,-600.14C1319.29,-598.55 1333.51,-596.9 1347.21,-595.31"/>
<polygon fill="midnightblue" stroke="midnightblue" points="1305.04,-596.67 1295.51,-601.3 1305.85,-603.62 1305.04,-596.67"/>
</g>
<!-- Node45 -->
<g id="node36" class="node">
<title>Node45</title>
<g id="a_node36"><a xlink:href="classDynExpModule_1_1ImageViewer_1_1ImageViewerParams.html" target="_top" xlink:title=" ">
<polygon fill="white" stroke="black" points="1134.5,-480.5 1134.5,-510.5 1295.5,-510.5 1295.5,-480.5 1134.5,-480.5"/>
<text text-anchor="start" x="1142.5" y="-498.5" font-family="Helvetica,sans-Serif" font-size="10.00">DynExpModule::ImageViewer</text>
<text text-anchor="middle" x="1215" y="-487.5" font-family="Helvetica,sans-Serif" font-size="10.00">::ImageViewerParams</text>
</a>
</g>
</g>
<!-- Node44&#45;&gt;Node45 -->
<g id="edge35" class="edge">
<title>Node44&#45;&gt;Node45</title>
<path fill="none" stroke="midnightblue" d="M1004.44,-318.61C1022.95,-354.05 1067.42,-430.03 1127,-470.5 1132.72,-474.39 1139.04,-477.67 1145.6,-480.45"/>
<polygon fill="midnightblue" stroke="midnightblue" points="1007.39,-316.69 999.73,-309.37 1001.16,-319.87 1007.39,-316.69"/>
</g>
<!-- Node46 -->
<g id="node37" class="node">
<title>Node46</title>
<g id="a_node37"><a xlink:href="classDynExpModule_1_1InputPortReaderParams.html" target="_top" xlink:title=" ">
<polygon fill="white" stroke="black" points="1127.5,-431.5 1127.5,-461.5 1302.5,-461.5 1302.5,-431.5 1127.5,-431.5"/>
<text text-anchor="start" x="1135.5" y="-449.5" font-family="Helvetica,sans-Serif" font-size="10.00">DynExpModule::InputPortReader</text>
<text text-anchor="middle" x="1215" y="-438.5" font-family="Helvetica,sans-Serif" font-size="10.00">Params</text>
</a>
</g>
</g>
<!-- Node44&#45;&gt;Node46 -->
<g id="edge36" class="edge">
<title>Node44&#45;&gt;Node46</title>
<path fill="none" stroke="midnightblue" d="M1009.17,-317.04C1031.48,-343.51 1077.41,-393.57 1127,-421.5 1133.85,-425.36 1141.34,-428.66 1148.96,-431.48"/>
<polygon fill="midnightblue" stroke="midnightblue" points="1011.61,-314.49 1002.53,-309.02 1006.22,-318.96 1011.61,-314.49"/>
</g>
<!-- Node47 -->
<g id="node38" class="node">
<title>Node47</title>
<g id="a_node38"><a xlink:href="classDynExpModule_1_1LockinAmplifierControlParams.html" target="_top" xlink:title=" ">
<polygon fill="white" stroke="black" points="1129,-382.5 1129,-412.5 1301,-412.5 1301,-382.5 1129,-382.5"/>
<text text-anchor="start" x="1137" y="-400.5" font-family="Helvetica,sans-Serif" font-size="10.00">DynExpModule::LockinAmplifier</text>
<text text-anchor="middle" x="1215" y="-389.5" font-family="Helvetica,sans-Serif" font-size="10.00">ControlParams</text>
</a>
</g>
</g>
<!-- Node44&#45;&gt;Node47 -->
<g id="edge37" class="edge">
<title>Node44&#45;&gt;Node47</title>
<path fill="none" stroke="midnightblue" d="M1018.57,-314.68C1044.37,-330.77 1087.35,-356.09 1127,-372.5 1135.86,-376.17 1145.43,-379.51 1154.88,-382.46"/>
<polygon fill="midnightblue" stroke="midnightblue" points="1020.21,-311.57 1009.89,-309.2 1016.48,-317.5 1020.21,-311.57"/>
</g>
<!-- Node48 -->
<g id="node39" class="node">
<title>Node48</title>
<g id="a_node39"><a xlink:href="classDynExpModule_1_1ODMR_1_1ODMRParams.html" target="_top" xlink:title=" ">
<polygon fill="white" stroke="black" points="1151.5,-333.5 1151.5,-363.5 1278.5,-363.5 1278.5,-333.5 1151.5,-333.5"/>
<text text-anchor="start" x="1159.5" y="-351.5" font-family="Helvetica,sans-Serif" font-size="10.00">DynExpModule::ODMR</text>
<text text-anchor="middle" x="1215" y="-340.5" font-family="Helvetica,sans-Serif" font-size="10.00">::ODMRParams</text>
</a>
</g>
</g>
<!-- Node44&#45;&gt;Node48 -->
<g id="edge38" class="edge">
<title>Node44&#45;&gt;Node48</title>
<path fill="none" stroke="midnightblue" d="M1047.3,-311.2C1078.54,-318.19 1118.4,-327.11 1151.31,-334.47"/>
<polygon fill="midnightblue" stroke="midnightblue" points="1048.01,-307.77 1037.49,-309.01 1046.48,-314.6 1048.01,-307.77"/>
</g>
<!-- Node49 -->
<g id="node40" class="node">
<title>Node49</title>
<g id="a_node40"><a xlink:href="classDynExpModule_1_1OutputPortWriterParams.html" target="_top" xlink:title=" ">
<polygon fill="white" stroke="black" points="1140.5,-284.5 1140.5,-314.5 1289.5,-314.5 1289.5,-284.5 1140.5,-284.5"/>
<text text-anchor="start" x="1148.5" y="-302.5" font-family="Helvetica,sans-Serif" font-size="10.00">DynExpModule::OutputPort</text>
<text text-anchor="middle" x="1215" y="-291.5" font-family="Helvetica,sans-Serif" font-size="10.00">WriterParams</text>
</a>
</g>
</g>
<!-- Node44&#45;&gt;Node49 -->
<g id="edge39" class="edge">
<title>Node44&#45;&gt;Node49</title>
<path fill="none" stroke="midnightblue" d="M1086.46,-299.5C1104.47,-299.5 1123.16,-299.5 1140.49,-299.5"/>
<polygon fill="midnightblue" stroke="midnightblue" points="1086.24,-296 1076.24,-299.5 1086.24,-303 1086.24,-296"/>
</g>
<!-- Node50 -->
<g id="node41" class="node">
<title>Node50</title>
<g id="a_node41"><a xlink:href="classDynExpModule_1_1SignalDesignerParams.html" target="_top" xlink:title=" ">
<polygon fill="white" stroke="black" points="1130,-235.5 1130,-265.5 1300,-265.5 1300,-235.5 1130,-235.5"/>
<text text-anchor="start" x="1138" y="-253.5" font-family="Helvetica,sans-Serif" font-size="10.00">DynExpModule::SignalDesigner</text>
<text text-anchor="middle" x="1215" y="-242.5" font-family="Helvetica,sans-Serif" font-size="10.00">Params</text>
</a>
</g>
</g>
<!-- Node44&#45;&gt;Node50 -->
<g id="edge40" class="edge">
<title>Node44&#45;&gt;Node50</title>
<path fill="none" stroke="midnightblue" d="M1052.03,-287.87C1064.87,-285.19 1078.41,-282.3 1091,-279.5 1110.7,-275.13 1132.13,-270.15 1151.5,-265.57"/>
<polygon fill="midnightblue" stroke="midnightblue" points="1051,-284.51 1041.93,-289.98 1052.43,-291.37 1051,-284.51"/>
</g>
<!-- Node51 -->
<g id="node42" class="node">
<title>Node51</title>
<g id="a_node42"><a xlink:href="classDynExpModule_1_1SignalPlotterParams.html" target="_top" xlink:title=" ">
<polygon fill="white" stroke="black" points="1136,-186.5 1136,-216.5 1294,-216.5 1294,-186.5 1136,-186.5"/>
<text text-anchor="start" x="1144" y="-204.5" font-family="Helvetica,sans-Serif" font-size="10.00">DynExpModule::SignalPlotter</text>
<text text-anchor="middle" x="1215" y="-193.5" font-family="Helvetica,sans-Serif" font-size="10.00">Params</text>
</a>
</g>
</g>
<!-- Node44&#45;&gt;Node51 -->
<g id="edge41" class="edge">
<title>Node44&#45;&gt;Node51</title>
<path fill="none" stroke="midnightblue" d="M1079.67,-285.92C1083.63,-284.04 1087.43,-281.91 1091,-279.5 1114.9,-263.35 1103.62,-242.4 1127,-225.5 1131.7,-222.1 1136.86,-219.19 1142.24,-216.68"/>
<polygon fill="midnightblue" stroke="midnightblue" points="1078.09,-282.79 1070.21,-289.88 1080.78,-289.25 1078.09,-282.79"/>
</g>
<!-- Node52 -->
<g id="node43" class="node">
<title>Node52</title>
<g id="a_node43"><a xlink:href="classDynExpModule_1_1SpectrumViewer_1_1SpectrumViewerParams.html" target="_top" xlink:title=" ">
<polygon fill="white" stroke="black" points="1127,-137.5 1127,-167.5 1303,-167.5 1303,-137.5 1127,-137.5"/>
<text text-anchor="start" x="1135" y="-155.5" font-family="Helvetica,sans-Serif" font-size="10.00">DynExpModule::SpectrumViewer</text>
<text text-anchor="middle" x="1215" y="-144.5" font-family="Helvetica,sans-Serif" font-size="10.00">::SpectrumViewerParams</text>
</a>
</g>
</g>
<!-- Node44&#45;&gt;Node52 -->
<g id="edge42" class="edge">
<title>Node44&#45;&gt;Node52</title>
<path fill="none" stroke="midnightblue" d="M1083.49,-285.13C1086.13,-283.44 1088.64,-281.57 1091,-279.5 1127.46,-247.53 1091.58,-209.62 1127,-176.5 1130.66,-173.08 1134.77,-170.13 1139.15,-167.6"/>
<polygon fill="midnightblue" stroke="midnightblue" points="1081.78,-282.08 1074.7,-289.97 1085.15,-288.22 1081.78,-282.08"/>
</g>
<!-- Node53 -->
<g id="node44" class="node">
<title>Node53</title>
<g id="a_node44"><a xlink:href="classDynExpModule_1_1Stage1DParams.html" target="_top" xlink:title=" ">
<polygon fill="white" stroke="black" points="1128.5,-99 1128.5,-118 1301.5,-118 1301.5,-99 1128.5,-99"/>
<text text-anchor="middle" x="1215" y="-106" font-family="Helvetica,sans-Serif" font-size="10.00">DynExpModule::Stage1DParams</text>
</a>
</g>
</g>
<!-- Node44&#45;&gt;Node53 -->
<g id="edge43" class="edge">
<title>Node44&#45;&gt;Node53</title>
<path fill="none" stroke="midnightblue" d="M1084.88,-284.66C1087.03,-283.09 1089.08,-281.37 1091,-279.5 1140.75,-231.08 1077.48,-176.16 1127,-127.5 1130.86,-123.71 1135.29,-120.6 1140.06,-118.05"/>
<polygon fill="midnightblue" stroke="midnightblue" points="1082.8,-281.83 1076.11,-290.05 1086.46,-287.79 1082.8,-281.83"/>
</g>
<!-- Node54 -->
<g id="node45" class="node">
<title>Node54</title>
<g id="a_node45"><a xlink:href="classDynExpModule_1_1Trajectory1DParams.html" target="_top" xlink:title=" ">
<polygon fill="white" stroke="black" points="1140,-49.5 1140,-79.5 1290,-79.5 1290,-49.5 1140,-49.5"/>
<text text-anchor="start" x="1148" y="-67.5" font-family="Helvetica,sans-Serif" font-size="10.00">DynExpModule::Trajectory1</text>
<text text-anchor="middle" x="1215" y="-56.5" font-family="Helvetica,sans-Serif" font-size="10.00">DParams</text>
</a>
</g>
</g>
<!-- Node44&#45;&gt;Node54 -->
<g id="edge44" class="edge">
<title>Node44&#45;&gt;Node54</title>
<path fill="none" stroke="midnightblue" d="M1084.99,-284.77C1087.11,-283.17 1089.12,-281.41 1091,-279.5 1151.22,-218.18 1069.1,-153.02 1127,-89.5 1130.71,-85.43 1135.02,-82.01 1139.72,-79.14"/>
<polygon fill="midnightblue" stroke="midnightblue" points="1082.9,-281.95 1076.32,-290.26 1086.64,-287.87 1082.9,-281.95"/>
</g>
<!-- Node55 -->
<g id="node46" class="node">
<title>Node55</title>
<g id="a_node46"><a xlink:href="classDynExpModule_1_1Widefield_1_1WidefieldMicroscopeParams.html" target="_top" xlink:title=" ">
<polygon fill="white" stroke="black" points="1135,-0.5 1135,-30.5 1295,-30.5 1295,-0.5 1135,-0.5"/>
<text text-anchor="start" x="1143" y="-18.5" font-family="Helvetica,sans-Serif" font-size="10.00">DynExpModule::Widefield</text>
<text text-anchor="middle" x="1215" y="-7.5" font-family="Helvetica,sans-Serif" font-size="10.00">::WidefieldMicroscopeParams</text>
</a>
</g>
</g>
<!-- Node44&#45;&gt;Node55 -->
<g id="edge45" class="edge">
<title>Node44&#45;&gt;Node55</title>
<path fill="none" stroke="midnightblue" d="M1084.91,-285C1087.07,-283.33 1089.11,-281.5 1091,-279.5 1165.08,-201.11 1055.45,-120.21 1127,-39.5 1130.01,-36.1 1133.46,-33.16 1137.21,-30.63"/>
<polygon fill="midnightblue" stroke="midnightblue" points="1082.59,-282.34 1076.06,-290.68 1086.37,-288.23 1082.59,-282.34"/>
</g>
</g>
</svg>
