<?xml version="1.0" encoding="UTF-8" standalone="no"?>
<!DOCTYPE svg PUBLIC "-//W3C//DTD SVG 1.1//EN"
 "http://www.w3.org/Graphics/SVG/1.1/DTD/svg11.dtd">
<!-- Generated by graphviz version 2.43.0 (0)
 -->
<!-- Title: DynExp::ParamsBase::Param&lt; LinkType, std::enable_if_t&lt; std::is_base_of_v&lt; ObjectLinkBase, LinkType &gt; &gt; &gt; Pages: 1 -->
<svg width="274pt" height="262pt"
 viewBox="0.00 0.00 273.50 262.00" xmlns="http://www.w3.org/2000/svg" xmlns:xlink="http://www.w3.org/1999/xlink">
<g id="graph0" class="graph" transform="scale(1 1) rotate(0) translate(4 258)">
<title>DynExp::ParamsBase::Param&lt; LinkType, std::enable_if_t&lt; std::is_base_of_v&lt; ObjectLinkBase, LinkType &gt; &gt; &gt;</title>
<polygon fill="white" stroke="transparent" points="-4,4 -4,-258 269.5,-258 269.5,4 -4,4"/>
<!-- Node1 -->
<g id="node1" class="node">
<title>Node1</title>
<g id="a_node1"><a xlink:title="Parameter for links to a single Object. If LinkType is derived from ObjectLinkBase,...">
<polygon fill="#bfbfbf" stroke="black" points="42.5,-0.5 42.5,-63.5 203.5,-63.5 203.5,-0.5 42.5,-0.5"/>
<text text-anchor="start" x="50.5" y="-51.5" font-family="Helvetica,sans-Serif" font-size="10.00">DynExp::ParamsBase</text>
<text text-anchor="start" x="50.5" y="-40.5" font-family="Helvetica,sans-Serif" font-size="10.00">::Param&lt; LinkType, std</text>
<text text-anchor="start" x="50.5" y="-29.5" font-family="Helvetica,sans-Serif" font-size="10.00">::enable_if_t&lt; std::is</text>
<text text-anchor="start" x="50.5" y="-18.5" font-family="Helvetica,sans-Serif" font-size="10.00">_base_of_v&lt; ObjectLinkBase,</text>
<text text-anchor="middle" x="123" y="-7.5" font-family="Helvetica,sans-Serif" font-size="10.00"> LinkType &gt; &gt; &gt;</text>
</a>
</g>
</g>
<!-- Node2 -->
<g id="node2" class="node">
<title>Node2</title>
<g id="a_node2"><a xlink:href="classDynExp_1_1ParamsBase_1_1LinkParamBase.html" target="_top" xlink:title="Base class for link parameters to a single Object of any type specifying the underlying parameter typ...">
<polygon fill="white" stroke="black" points="63,-100.5 63,-130.5 183,-130.5 183,-100.5 63,-100.5"/>
<text text-anchor="start" x="71" y="-118.5" font-family="Helvetica,sans-Serif" font-size="10.00">DynExp::ParamsBase</text>
<text text-anchor="middle" x="123" y="-107.5" font-family="Helvetica,sans-Serif" font-size="10.00">::LinkParamBase</text>
</a>
</g>
</g>
<!-- Node2&#45;&gt;Node1 -->
<g id="edge1" class="edge">
<title>Node2&#45;&gt;Node1</title>
<path fill="none" stroke="midnightblue" d="M123,-90.12C123,-81.78 123,-72.34 123,-63.57"/>
<polygon fill="midnightblue" stroke="midnightblue" points="119.5,-90.3 123,-100.3 126.5,-90.3 119.5,-90.3"/>
</g>
<!-- Node3 -->
<g id="node3" class="node">
<title>Node3</title>
<g id="a_node3"><a xlink:href="classDynExp_1_1LinkBase.html" target="_top" xlink:title="Abstract base class of link parameters (to be saved in project files) describing relations between mu...">
<polygon fill="white" stroke="black" points="0,-167.5 0,-186.5 104,-186.5 104,-167.5 0,-167.5"/>
<text text-anchor="middle" x="52" y="-174.5" font-family="Helvetica,sans-Serif" font-size="10.00">DynExp::LinkBase</text>
</a>
</g>
</g>
<!-- Node3&#45;&gt;Node2 -->
<g id="edge2" class="edge">
<title>Node3&#45;&gt;Node2</title>
<path fill="none" stroke="midnightblue" d="M69.99,-160.92C81.14,-151.58 95.36,-139.66 106.27,-130.52"/>
<polygon fill="midnightblue" stroke="midnightblue" points="67.59,-158.37 62.17,-167.48 72.09,-163.73 67.59,-158.37"/>
</g>
<!-- Node4 -->
<g id="node4" class="node">
<title>Node4</title>
<g id="a_node4"><a xlink:href="classDynExp_1_1ParamsBase_1_1TypedParamBase.html" target="_top" xlink:title="Base class of parameters containing a single value.">
<polygon fill="white" stroke="black" points="122.5,-167.5 122.5,-186.5 265.5,-186.5 265.5,-167.5 122.5,-167.5"/>
<text text-anchor="middle" x="194" y="-174.5" font-family="Helvetica,sans-Serif" font-size="10.00">UnderlyingLinkParamType</text>
</a>
</g>
</g>
<!-- Node4&#45;&gt;Node2 -->
<g id="edge3" class="edge">
<title>Node4&#45;&gt;Node2</title>
<path fill="none" stroke="midnightblue" d="M176.01,-160.92C164.86,-151.58 150.64,-139.66 139.73,-130.52"/>
<polygon fill="midnightblue" stroke="midnightblue" points="173.91,-163.73 183.83,-167.48 178.41,-158.37 173.91,-163.73"/>
</g>
<!-- Node5 -->
<g id="node5" class="node">
<title>Node5</title>
<g id="a_node5"><a xlink:href="classDynExp_1_1ParamsBase_1_1ParamBase.html" target="_top" xlink:title="Abstract base class for a single object parameter. Parameters derived from this class are automatical...">
<polygon fill="white" stroke="black" points="134,-223.5 134,-253.5 254,-253.5 254,-223.5 134,-223.5"/>
<text text-anchor="start" x="142" y="-241.5" font-family="Helvetica,sans-Serif" font-size="10.00">DynExp::ParamsBase</text>
<text text-anchor="middle" x="194" y="-230.5" font-family="Helvetica,sans-Serif" font-size="10.00">::ParamBase</text>
</a>
</g>
</g>
<!-- Node5&#45;&gt;Node4 -->
<g id="edge4" class="edge">
<title>Node5&#45;&gt;Node4</title>
<path fill="none" stroke="midnightblue" d="M194,-213.29C194,-203.86 194,-193.65 194,-186.66"/>
<polygon fill="midnightblue" stroke="midnightblue" points="190.5,-213.4 194,-223.4 197.5,-213.4 190.5,-213.4"/>
</g>
</g>
</svg>
