<?xml version="1.0" encoding="UTF-8" standalone="no"?>
<!DOCTYPE svg PUBLIC "-//W3C//DTD SVG 1.1//EN"
 "http://www.w3.org/Graphics/SVG/1.1/DTD/svg11.dtd">
<!-- Generated by graphviz version 2.43.0 (0)
 -->
<!-- Title: DynExp::ModuleBase Pages: 1 -->
<svg width="1123pt" height="658pt"
 viewBox="0.00 0.00 1123.00 658.00" xmlns="http://www.w3.org/2000/svg" xmlns:xlink="http://www.w3.org/1999/xlink">
<g id="graph0" class="graph" transform="scale(1 1) rotate(0) translate(4 654)">
<title>DynExp::ModuleBase</title>
<!-- Node1 -->
<g id="Node000001" class="node">
<title>Node1</title>
<g id="a_Node000001"><a xlink:title="Base class for modules. Modules implement programs on their own (e.g. measurement protocols or server...">
<polygon fill="#999999" stroke="#666666" points="437,-205.5 317,-205.5 317,-186.5 437,-186.5 437,-205.5"/>
<text text-anchor="middle" x="377" y="-193.5" font-family="Helvetica,sans-Serif" font-size="10.00">DynExp::ModuleBase</text>
</a>
</g>
</g>
<!-- Node5 -->
<g id="Node000005" class="node">
<title>Node5</title>
<g id="a_Node000005"><a xlink:href="classDynExpModule_1_1gRPCModule.html" target="_top" xlink:title=" ">
<polygon fill="white" stroke="#666666" points="647,-506 489,-506 489,-476 647,-476 647,-506"/>
<text text-anchor="start" x="497" y="-494" font-family="Helvetica,sans-Serif" font-size="10.00">DynExpModule::gRPCModule</text>
<text text-anchor="middle" x="568" y="-483" font-family="Helvetica,sans-Serif" font-size="10.00">&lt; gRPCServices... &gt;</text>
</a>
</g>
</g>
<!-- Node1&#45;&gt;Node5 -->
<g id="edge4_Node000001_Node000005" class="edge">
<title>Node1&#45;&gt;Node5</title>
<g id="a_edge4_Node000001_Node000005"><a xlink:title=" ">
<path fill="none" stroke="#63b8ff" d="M389.78,-214.38C424.4,-268.43 525.44,-426.13 557.27,-475.82"/>
<polygon fill="#63b8ff" stroke="#63b8ff" points="392.63,-212.35 384.29,-205.82 386.74,-216.12 392.63,-212.35"/>
</a>
</g>
</g>
<!-- Node13 -->
<g id="Node000013" class="node">
<title>Node13</title>
<g id="a_Node000013"><a xlink:href="classDynExp_1_1QModuleBase.html" target="_top" xlink:title="Base class for modules with a Qt&#45;based user interface. Derive from this class to implement modules wi...">
<polygon fill="white" stroke="#666666" points="632,-248.5 504,-248.5 504,-229.5 632,-229.5 632,-248.5"/>
<text text-anchor="middle" x="568" y="-236.5" font-family="Helvetica,sans-Serif" font-size="10.00">DynExp::QModuleBase</text>
</a>
</g>
</g>
<!-- Node1&#45;&gt;Node13 -->
<g id="edge12_Node000001_Node000013" class="edge">
<title>Node1&#45;&gt;Node13</title>
<g id="a_edge12_Node000001_Node000013"><a xlink:title=" ">
<path fill="none" stroke="#63b8ff" d="M423.9,-208.07C439.45,-212.03 456.94,-216.35 473,-220 487.45,-223.28 503.21,-226.58 517.63,-229.48"/>
<polygon fill="#63b8ff" stroke="#63b8ff" points="424.55,-204.62 413.99,-205.53 422.81,-211.4 424.55,-204.62"/>
</a>
</g>
</g>
<!-- Node25 -->
<g id="Node000025" class="node">
<title>Node25</title>
<g id="a_Node000025"><a xlink:href="classDynExpModule_1_1ArbitraryFunctionFromCSV.html" target="_top" xlink:title=" ">
<polygon fill="white" stroke="#666666" points="658,-211 478,-211 478,-181 658,-181 658,-211"/>
<text text-anchor="start" x="486" y="-199" font-family="Helvetica,sans-Serif" font-size="10.00">DynExpModule::ArbitraryFunction</text>
<text text-anchor="middle" x="568" y="-188" font-family="Helvetica,sans-Serif" font-size="10.00">FromCSV</text>
</a>
</g>
</g>
<!-- Node1&#45;&gt;Node25 -->
<g id="edge24_Node000001_Node000025" class="edge">
<title>Node1&#45;&gt;Node25</title>
<g id="a_edge24_Node000001_Node000025"><a xlink:title=" ">
<path fill="none" stroke="#63b8ff" d="M447.26,-196C457.25,-196 467.65,-196 477.95,-196"/>
<polygon fill="#63b8ff" stroke="#63b8ff" points="447.02,-192.5 437.02,-196 447.02,-199.5 447.02,-192.5"/>
</a>
</g>
</g>
<!-- Node26 -->
<g id="Node000026" class="node">
<title>Node26</title>
<g id="a_Node000026"><a xlink:href="classDynExpModule_1_1StreamManipulator.html" target="_top" xlink:title="Module to process data stored in data stream instrument(s) with a Python script and to write the resu...">
<polygon fill="white" stroke="#666666" points="663,-162.5 473,-162.5 473,-143.5 663,-143.5 663,-162.5"/>
<text text-anchor="middle" x="568" y="-150.5" font-family="Helvetica,sans-Serif" font-size="10.00">DynExpModule::StreamManipulator</text>
</a>
</g>
</g>
<!-- Node1&#45;&gt;Node26 -->
<g id="edge25_Node000001_Node000026" class="edge">
<title>Node1&#45;&gt;Node26</title>
<g id="a_edge25_Node000001_Node000026"><a xlink:title=" ">
<path fill="none" stroke="#63b8ff" d="M423.9,-183.93C439.45,-179.97 456.94,-175.65 473,-172 487.45,-168.72 503.21,-165.42 517.63,-162.52"/>
<polygon fill="#63b8ff" stroke="#63b8ff" points="422.81,-180.6 413.99,-186.47 424.55,-187.38 422.81,-180.6"/>
</a>
</g>
</g>
<!-- Node27 -->
<g id="Node000027" class="node">
<title>Node27</title>
<g id="a_Node000027"><a xlink:href="classDynExpModule_1_1gRPCModule.html" target="_top" xlink:title="Module template for building gRPC servers listening on TCP sockets for network instruments to connect...">
<polygon fill="white" stroke="#666666" points="647,-125 489,-125 489,-95 647,-95 647,-125"/>
<text text-anchor="start" x="497" y="-113" font-family="Helvetica,sans-Serif" font-size="10.00">DynExpModule::gRPCModule</text>
<text text-anchor="middle" x="568" y="-102" font-family="Helvetica,sans-Serif" font-size="10.00">&lt; gRPCServices &gt;</text>
</a>
</g>
</g>
<!-- Node1&#45;&gt;Node27 -->
<g id="edge26_Node000001_Node000027" class="edge">
<title>Node1&#45;&gt;Node27</title>
<g id="a_edge26_Node000001_Node000027"><a xlink:title=" ">
<path fill="none" stroke="#63b8ff" d="M397.81,-180.27C416.3,-166.3 445.14,-146.25 473,-134 480.71,-130.61 488.99,-127.63 497.33,-125.03"/>
<polygon fill="#63b8ff" stroke="#63b8ff" points="395.64,-177.52 389.85,-186.4 399.91,-183.07 395.64,-177.52"/>
</a>
</g>
</g>
<!-- Node2 -->
<g id="Node000002" class="node">
<title>Node2</title>
<g id="a_Node000002"><a xlink:href="classDynExp_1_1RunnableObject.html" target="_top" xlink:title="Defines an Object which possesses a thread it runs in. The RunnableObject can be started and stopped ...">
<polygon fill="white" stroke="#666666" points="281,-205.5 144,-205.5 144,-186.5 281,-186.5 281,-205.5"/>
<text text-anchor="middle" x="212.5" y="-193.5" font-family="Helvetica,sans-Serif" font-size="10.00">DynExp::RunnableObject</text>
</a>
</g>
</g>
<!-- Node2&#45;&gt;Node1 -->
<g id="edge1_Node000001_Node000002" class="edge">
<title>Node2&#45;&gt;Node1</title>
<g id="a_edge1_Node000001_Node000002"><a xlink:title=" ">
<path fill="none" stroke="#63b8ff" d="M291.16,-196C299.85,-196 308.59,-196 316.99,-196"/>
<polygon fill="#63b8ff" stroke="#63b8ff" points="291,-192.5 281,-196 291,-199.5 291,-192.5"/>
</a>
</g>
</g>
<!-- Node3 -->
<g id="Node000003" class="node">
<title>Node3</title>
<g id="a_Node000003"><a xlink:href="classUtil_1_1INonCopyable.html" target="_top" xlink:title="Interface to delete copy constructor and copy assignment operator and thus make derived classes non&#45;c...">
<polygon fill="white" stroke="#666666" points="108,-224.5 0,-224.5 0,-205.5 108,-205.5 108,-224.5"/>
<text text-anchor="middle" x="54" y="-212.5" font-family="Helvetica,sans-Serif" font-size="10.00">Util::INonCopyable</text>
</a>
</g>
</g>
<!-- Node3&#45;&gt;Node2 -->
<g id="edge2_Node000002_Node000003" class="edge">
<title>Node3&#45;&gt;Node2</title>
<g id="a_edge2_Node000002_Node000003"><a xlink:title=" ">
<path fill="none" stroke="#63b8ff" d="M118.5,-207.29C126.87,-206.27 135.49,-205.23 143.93,-204.2"/>
<polygon fill="#63b8ff" stroke="#63b8ff" points="117.93,-203.83 108.42,-208.51 118.77,-210.78 117.93,-203.83"/>
</a>
</g>
</g>
<!-- Node4 -->
<g id="Node000004" class="node">
<title>Node4</title>
<g id="a_Node000004"><a xlink:href="classDynExp_1_1Object.html" target="_top" xlink:title="Base class for all DynExp Objects like hardware adapters (DynExp::HardwareAdapterBase),...">
<polygon fill="white" stroke="#666666" points="100,-187.5 8,-187.5 8,-168.5 100,-168.5 100,-187.5"/>
<text text-anchor="middle" x="54" y="-175.5" font-family="Helvetica,sans-Serif" font-size="10.00">DynExp::Object</text>
</a>
</g>
</g>
<!-- Node4&#45;&gt;Node2 -->
<g id="edge3_Node000002_Node000004" class="edge">
<title>Node4&#45;&gt;Node2</title>
<g id="a_edge3_Node000002_Node000004"><a xlink:title=" ">
<path fill="none" stroke="#63b8ff" d="M110.43,-184.38C121.26,-185.62 132.74,-186.94 143.91,-188.23"/>
<polygon fill="#63b8ff" stroke="#63b8ff" points="110.6,-180.87 100.27,-183.21 109.8,-187.83 110.6,-180.87"/>
</a>
</g>
</g>
<!-- Node6 -->
<g id="Node000006" class="node">
<title>Node6</title>
<g id="a_Node000006"><a xlink:href="classDynExpModule_1_1NetworkDataStreamInstrumentT.html" target="_top" xlink:title=" ">
<polygon fill="white" stroke="#666666" points="908,-554 699,-554 699,-524 908,-524 908,-554"/>
<text text-anchor="start" x="707" y="-542" font-family="Helvetica,sans-Serif" font-size="10.00">DynExpModule::NetworkData</text>
<text text-anchor="middle" x="803.5" y="-531" font-family="Helvetica,sans-Serif" font-size="10.00">StreamInstrumentT&lt; gRPCServices... &gt;</text>
</a>
</g>
</g>
<!-- Node5&#45;&gt;Node6 -->
<g id="edge5_Node000005_Node000006" class="edge">
<title>Node5&#45;&gt;Node6</title>
<g id="a_edge5_Node000005_Node000006"><a xlink:title=" ">
<path fill="none" stroke="#63b8ff" d="M652.17,-508.1C677.43,-513.29 704.98,-518.95 729.52,-524"/>
<polygon fill="#63b8ff" stroke="#63b8ff" points="652.74,-504.64 642.24,-506.06 651.33,-511.5 652.74,-504.64"/>
</a>
</g>
</g>
<!-- Node12 -->
<g id="Node000012" class="node">
<title>Node12</title>
<g id="a_Node000012"><a xlink:href="classDynExpModule_1_1NetworkDataStreamInstrumentT.html" target="_top" xlink:title=" ">
<polygon fill="white" stroke="#666666" points="903.5,-506 703.5,-506 703.5,-476 903.5,-476 903.5,-506"/>
<text text-anchor="start" x="711.5" y="-494" font-family="Helvetica,sans-Serif" font-size="10.00">DynExpModule::NetworkData</text>
<text text-anchor="middle" x="803.5" y="-483" font-family="Helvetica,sans-Serif" font-size="10.00">StreamInstrumentT&lt; gRPCServices &gt;</text>
</a>
</g>
</g>
<!-- Node5&#45;&gt;Node12 -->
<g id="edge11_Node000005_Node000012" class="edge">
<title>Node5&#45;&gt;Node12</title>
<g id="a_edge11_Node000005_Node000012"><a xlink:title=" ">
<path fill="none" stroke="#63b8ff" d="M657.35,-491C672.37,-491 688.05,-491 703.32,-491"/>
<polygon fill="#63b8ff" stroke="#63b8ff" points="657.08,-487.5 647.08,-491 657.08,-494.5 657.08,-487.5"/>
</a>
</g>
</g>
<!-- Node7 -->
<g id="Node000007" class="node">
<title>Node7</title>
<g id="a_Node000007"><a xlink:href="classDynExpModule_1_1NetworkAnalogInT.html" target="_top" xlink:title=" ">
<polygon fill="white" stroke="#666666" points="1115,-650 944,-650 944,-620 1115,-620 1115,-650"/>
<text text-anchor="start" x="952" y="-638" font-family="Helvetica,sans-Serif" font-size="10.00">DynExpModule::NetworkAnalog</text>
<text text-anchor="middle" x="1029.5" y="-627" font-family="Helvetica,sans-Serif" font-size="10.00">InT&lt; gRPCServices &gt;</text>
</a>
</g>
</g>
<!-- Node6&#45;&gt;Node7 -->
<g id="edge6_Node000006_Node000007" class="edge">
<title>Node6&#45;&gt;Node7</title>
<g id="a_edge6_Node000006_Node000007"><a xlink:title=" ">
<path fill="none" stroke="#63b8ff" d="M838.89,-559.21C866.58,-574.88 906.88,-596.32 944,-611 952.23,-614.25 961.06,-617.26 969.81,-619.98"/>
<polygon fill="#63b8ff" stroke="#63b8ff" points="840.42,-556.05 830,-554.13 836.95,-562.13 840.42,-556.05"/>
</a>
</g>
</g>
<!-- Node8 -->
<g id="Node000008" class="node">
<title>Node8</title>
<g id="a_Node000008"><a xlink:href="classDynExpModule_1_1NetworkAnalogOutT.html" target="_top" xlink:title=" ">
<polygon fill="white" stroke="#666666" points="1115,-602 944,-602 944,-572 1115,-572 1115,-602"/>
<text text-anchor="start" x="952" y="-590" font-family="Helvetica,sans-Serif" font-size="10.00">DynExpModule::NetworkAnalog</text>
<text text-anchor="middle" x="1029.5" y="-579" font-family="Helvetica,sans-Serif" font-size="10.00">OutT&lt; gRPCServices &gt;</text>
</a>
</g>
</g>
<!-- Node6&#45;&gt;Node8 -->
<g id="edge7_Node000006_Node000008" class="edge">
<title>Node6&#45;&gt;Node8</title>
<g id="a_edge7_Node000006_Node000008"><a xlink:title=" ">
<path fill="none" stroke="#63b8ff" d="M884.6,-556.17C908.75,-561.34 935.05,-566.98 958.49,-572"/>
<polygon fill="#63b8ff" stroke="#63b8ff" points="885.27,-552.73 874.76,-554.06 883.81,-559.57 885.27,-552.73"/>
</a>
</g>
</g>
<!-- Node9 -->
<g id="Node000009" class="node">
<title>Node9</title>
<g id="a_Node000009"><a xlink:href="classDynExpModule_1_1NetworkDigitalInT.html" target="_top" xlink:title=" ">
<polygon fill="white" stroke="#666666" points="1114.5,-554 944.5,-554 944.5,-524 1114.5,-524 1114.5,-554"/>
<text text-anchor="start" x="952.5" y="-542" font-family="Helvetica,sans-Serif" font-size="10.00">DynExpModule::NetworkDigital</text>
<text text-anchor="middle" x="1029.5" y="-531" font-family="Helvetica,sans-Serif" font-size="10.00">InT&lt; gRPCServices &gt;</text>
</a>
</g>
</g>
<!-- Node6&#45;&gt;Node9 -->
<g id="edge8_Node000006_Node000009" class="edge">
<title>Node6&#45;&gt;Node9</title>
<g id="a_edge8_Node000006_Node000009"><a xlink:title=" ">
<path fill="none" stroke="#63b8ff" d="M918.46,-539C927.12,-539 935.76,-539 944.17,-539"/>
<polygon fill="#63b8ff" stroke="#63b8ff" points="918.3,-535.5 908.3,-539 918.3,-542.5 918.3,-535.5"/>
</a>
</g>
</g>
<!-- Node10 -->
<g id="Node000010" class="node">
<title>Node10</title>
<g id="a_Node000010"><a xlink:href="classDynExpModule_1_1NetworkDigitalOutT.html" target="_top" xlink:title=" ">
<polygon fill="white" stroke="#666666" points="1114.5,-506 944.5,-506 944.5,-476 1114.5,-476 1114.5,-506"/>
<text text-anchor="start" x="952.5" y="-494" font-family="Helvetica,sans-Serif" font-size="10.00">DynExpModule::NetworkDigital</text>
<text text-anchor="middle" x="1029.5" y="-483" font-family="Helvetica,sans-Serif" font-size="10.00">OutT&lt; gRPCServices &gt;</text>
</a>
</g>
</g>
<!-- Node6&#45;&gt;Node10 -->
<g id="edge9_Node000006_Node000010" class="edge">
<title>Node6&#45;&gt;Node10</title>
<g id="a_edge9_Node000006_Node000010"><a xlink:title=" ">
<path fill="none" stroke="#63b8ff" d="M884.6,-521.83C908.75,-516.66 935.05,-511.02 958.49,-506"/>
<polygon fill="#63b8ff" stroke="#63b8ff" points="883.81,-518.43 874.76,-523.94 885.27,-525.27 883.81,-518.43"/>
</a>
</g>
</g>
<!-- Node11 -->
<g id="Node000011" class="node">
<title>Node11</title>
<g id="a_Node000011"><a xlink:href="classDynExpModule_1_1NetworkTimeTaggerT.html" target="_top" xlink:title=" ">
<polygon fill="white" stroke="#666666" points="1110.5,-458 948.5,-458 948.5,-428 1110.5,-428 1110.5,-458"/>
<text text-anchor="start" x="956.5" y="-446" font-family="Helvetica,sans-Serif" font-size="10.00">DynExpModule::NetworkTime</text>
<text text-anchor="middle" x="1029.5" y="-435" font-family="Helvetica,sans-Serif" font-size="10.00">TaggerT&lt; gRPCServices &gt;</text>
</a>
</g>
</g>
<!-- Node6&#45;&gt;Node11 -->
<g id="edge10_Node000006_Node000011" class="edge">
<title>Node6&#45;&gt;Node11</title>
<g id="a_edge10_Node000006_Node000011"><a xlink:title=" ">
<path fill="none" stroke="#63b8ff" d="M899.97,-519.7C902.73,-518.25 905.42,-516.68 908,-515 930.34,-500.44 922.02,-482.1 944,-467 949.03,-463.55 954.55,-460.58 960.28,-458.05"/>
<polygon fill="#63b8ff" stroke="#63b8ff" points="898.44,-516.56 890.89,-523.99 901.43,-522.88 898.44,-516.56"/>
</a>
</g>
</g>
<!-- Node14 -->
<g id="Node000014" class="node">
<title>Node14</title>
<g id="a_Node000014"><a xlink:href="classDynExpModule_1_1ImageViewer_1_1ImageViewer.html" target="_top" xlink:title=" ">
<polygon fill="white" stroke="#666666" points="884,-458 723,-458 723,-428 884,-428 884,-458"/>
<text text-anchor="start" x="731" y="-446" font-family="Helvetica,sans-Serif" font-size="10.00">DynExpModule::ImageViewer</text>
<text text-anchor="middle" x="803.5" y="-435" font-family="Helvetica,sans-Serif" font-size="10.00">::ImageViewer</text>
</a>
</g>
</g>
<!-- Node13&#45;&gt;Node14 -->
<g id="edge13_Node000013_Node000014" class="edge">
<title>Node13&#45;&gt;Node14</title>
<g id="a_edge13_Node000013_Node000014"><a xlink:title=" ">
<path fill="none" stroke="#63b8ff" d="M577.04,-257.88C593.87,-294.99 636.49,-377.46 699,-419 706.3,-423.85 714.45,-427.73 722.89,-430.82"/>
<polygon fill="#63b8ff" stroke="#63b8ff" points="580.22,-256.42 572.98,-248.68 573.82,-259.24 580.22,-256.42"/>
</a>
</g>
</g>
<!-- Node15 -->
<g id="Node000015" class="node">
<title>Node15</title>
<g id="a_Node000015"><a xlink:href="classDynExpModule_1_1InputPortReader.html" target="_top" xlink:title=" ">
<polygon fill="white" stroke="#666666" points="891,-409.5 716,-409.5 716,-390.5 891,-390.5 891,-409.5"/>
<text text-anchor="middle" x="803.5" y="-397.5" font-family="Helvetica,sans-Serif" font-size="10.00">DynExpModule::InputPortReader</text>
</a>
</g>
</g>
<!-- Node13&#45;&gt;Node15 -->
<g id="edge14_Node000013_Node000015" class="edge">
<title>Node13&#45;&gt;Node15</title>
<g id="a_edge14_Node000013_Node000015"><a xlink:title=" ">
<path fill="none" stroke="#63b8ff" d="M580.11,-257.45C599.83,-288.46 644.11,-350.62 699,-381 706.03,-384.89 713.71,-388.01 721.59,-390.5"/>
<polygon fill="#63b8ff" stroke="#63b8ff" points="582.83,-255.2 574.58,-248.55 576.88,-258.9 582.83,-255.2"/>
</a>
</g>
</g>
<!-- Node16 -->
<g id="Node000016" class="node">
<title>Node16</title>
<g id="a_Node000016"><a xlink:href="classDynExpModule_1_1LockinAmplifierControl.html" target="_top" xlink:title=" ">
<polygon fill="white" stroke="#666666" points="889.5,-372 717.5,-372 717.5,-342 889.5,-342 889.5,-372"/>
<text text-anchor="start" x="725.5" y="-360" font-family="Helvetica,sans-Serif" font-size="10.00">DynExpModule::LockinAmplifier</text>
<text text-anchor="middle" x="803.5" y="-349" font-family="Helvetica,sans-Serif" font-size="10.00">Control</text>
</a>
</g>
</g>
<!-- Node13&#45;&gt;Node16 -->
<g id="edge15_Node000013_Node000016" class="edge">
<title>Node13&#45;&gt;Node16</title>
<g id="a_edge15_Node000013_Node000016"><a xlink:title=" ">
<path fill="none" stroke="#63b8ff" d="M586.71,-255.42C610.46,-276.54 654.78,-312.88 699,-333 706.56,-336.44 714.65,-339.41 722.87,-341.97"/>
<polygon fill="#63b8ff" stroke="#63b8ff" points="588.97,-252.74 579.21,-248.64 584.28,-257.94 588.97,-252.74"/>
</a>
</g>
</g>
<!-- Node17 -->
<g id="Node000017" class="node">
<title>Node17</title>
<g id="a_Node000017"><a xlink:href="classDynExpModule_1_1ODMR_1_1ODMR.html" target="_top" xlink:title=" ">
<polygon fill="white" stroke="#666666" points="867,-324 740,-324 740,-294 867,-294 867,-324"/>
<text text-anchor="start" x="748" y="-312" font-family="Helvetica,sans-Serif" font-size="10.00">DynExpModule::ODMR</text>
<text text-anchor="middle" x="803.5" y="-301" font-family="Helvetica,sans-Serif" font-size="10.00">::ODMR</text>
</a>
</g>
</g>
<!-- Node13&#45;&gt;Node17 -->
<g id="edge16_Node000013_Node000017" class="edge">
<title>Node13&#45;&gt;Node17</title>
<g id="a_edge16_Node000013_Node000017"><a xlink:title=" ">
<path fill="none" stroke="#63b8ff" d="M603.06,-252.24C629.09,-262.06 665.99,-275.36 699,-285 712.1,-288.82 726.28,-292.44 739.81,-295.66"/>
<polygon fill="#63b8ff" stroke="#63b8ff" points="604.24,-248.94 593.65,-248.66 601.75,-255.48 604.24,-248.94"/>
</a>
</g>
</g>
<!-- Node18 -->
<g id="Node000018" class="node">
<title>Node18</title>
<g id="a_Node000018"><a xlink:href="classDynExpModule_1_1OutputPortWriter.html" target="_top" xlink:title=" ">
<polygon fill="white" stroke="#666666" points="878,-276 729,-276 729,-246 878,-246 878,-276"/>
<text text-anchor="start" x="737" y="-264" font-family="Helvetica,sans-Serif" font-size="10.00">DynExpModule::OutputPort</text>
<text text-anchor="middle" x="803.5" y="-253" font-family="Helvetica,sans-Serif" font-size="10.00">Writer</text>
</a>
</g>
</g>
<!-- Node13&#45;&gt;Node18 -->
<g id="edge17_Node000013_Node000018" class="edge">
<title>Node13&#45;&gt;Node18</title>
<g id="a_edge17_Node000013_Node000018"><a xlink:title=" ">
<path fill="none" stroke="#63b8ff" d="M642.18,-245.9C669.81,-248.5 701.25,-251.46 728.92,-254.07"/>
<polygon fill="#63b8ff" stroke="#63b8ff" points="642.47,-242.41 632.19,-244.95 641.82,-249.38 642.47,-242.41"/>
</a>
</g>
</g>
<!-- Node19 -->
<g id="Node000019" class="node">
<title>Node19</title>
<g id="a_Node000019"><a xlink:href="classDynExpModule_1_1SignalDesigner.html" target="_top" xlink:title=" ">
<polygon fill="white" stroke="#666666" points="888.5,-227.5 718.5,-227.5 718.5,-208.5 888.5,-208.5 888.5,-227.5"/>
<text text-anchor="middle" x="803.5" y="-215.5" font-family="Helvetica,sans-Serif" font-size="10.00">DynExpModule::SignalDesigner</text>
</a>
</g>
</g>
<!-- Node13&#45;&gt;Node19 -->
<g id="edge18_Node000013_Node000019" class="edge">
<title>Node13&#45;&gt;Node19</title>
<g id="a_edge18_Node000013_Node000019"><a xlink:title=" ">
<path fill="none" stroke="#63b8ff" d="M642.32,-232.41C666.41,-230.24 693.37,-227.81 718.21,-225.58"/>
<polygon fill="#63b8ff" stroke="#63b8ff" points="641.83,-228.94 632.19,-233.32 642.46,-235.91 641.83,-228.94"/>
</a>
</g>
</g>
<!-- Node20 -->
<g id="Node000020" class="node">
<title>Node20</title>
<g id="a_Node000020"><a xlink:href="classDynExpModule_1_1SignalPlotter.html" target="_top" xlink:title=" ">
<polygon fill="white" stroke="#666666" points="882.5,-190.5 724.5,-190.5 724.5,-171.5 882.5,-171.5 882.5,-190.5"/>
<text text-anchor="middle" x="803.5" y="-178.5" font-family="Helvetica,sans-Serif" font-size="10.00">DynExpModule::SignalPlotter</text>
</a>
</g>
</g>
<!-- Node13&#45;&gt;Node20 -->
<g id="edge19_Node000013_Node000020" class="edge">
<title>Node13&#45;&gt;Node20</title>
<g id="a_edge19_Node000013_Node000020"><a xlink:title=" ">
<path fill="none" stroke="#63b8ff" d="M640.1,-227.07C647.92,-225.04 655.7,-222.69 663,-220 680.17,-213.67 681.77,-206.18 699,-200 709.75,-196.15 721.42,-193.04 732.92,-190.55"/>
<polygon fill="#63b8ff" stroke="#63b8ff" points="639.08,-223.71 630.19,-229.48 640.73,-230.52 639.08,-223.71"/>
</a>
</g>
</g>
<!-- Node21 -->
<g id="Node000021" class="node">
<title>Node21</title>
<g id="a_Node000021"><a xlink:href="classDynExpModule_1_1SpectrumViewer_1_1SpectrumViewer.html" target="_top" xlink:title=" ">
<polygon fill="white" stroke="#666666" points="891.5,-153 715.5,-153 715.5,-123 891.5,-123 891.5,-153"/>
<text text-anchor="start" x="723.5" y="-141" font-family="Helvetica,sans-Serif" font-size="10.00">DynExpModule::SpectrumViewer</text>
<text text-anchor="middle" x="803.5" y="-130" font-family="Helvetica,sans-Serif" font-size="10.00">::SpectrumViewer</text>
</a>
</g>
</g>
<!-- Node13&#45;&gt;Node21 -->
<g id="edge20_Node000013_Node000021" class="edge">
<title>Node13&#45;&gt;Node21</title>
<g id="a_edge20_Node000013_Node000021"><a xlink:title=" ">
<path fill="none" stroke="#63b8ff" d="M641.76,-230.63C649.31,-227.95 656.56,-224.48 663,-220 687.91,-202.68 674.34,-179.67 699,-162 704.1,-158.35 709.67,-155.24 715.49,-152.6"/>
<polygon fill="#63b8ff" stroke="#63b8ff" points="640.59,-227.33 632.08,-233.63 642.66,-234.02 640.59,-227.33"/>
</a>
</g>
</g>
<!-- Node22 -->
<g id="Node000022" class="node">
<title>Node22</title>
<g id="a_Node000022"><a xlink:href="classDynExpModule_1_1Stage1D.html" target="_top" xlink:title=" ">
<polygon fill="white" stroke="#666666" points="872,-104.5 735,-104.5 735,-85.5 872,-85.5 872,-104.5"/>
<text text-anchor="middle" x="803.5" y="-92.5" font-family="Helvetica,sans-Serif" font-size="10.00">DynExpModule::Stage1D</text>
</a>
</g>
</g>
<!-- Node13&#45;&gt;Node22 -->
<g id="edge21_Node000013_Node000022" class="edge">
<title>Node13&#45;&gt;Node22</title>
<g id="a_edge21_Node000013_Node000022"><a xlink:title=" ">
<path fill="none" stroke="#63b8ff" d="M641.95,-232.4C649.63,-229.42 656.87,-225.39 663,-220 700.36,-187.14 661.35,-146.52 699,-114 709.09,-105.28 721.84,-99.99 734.92,-96.88"/>
<polygon fill="#63b8ff" stroke="#63b8ff" points="640.79,-229.09 632.39,-235.54 642.98,-235.74 640.79,-229.09"/>
</a>
</g>
</g>
<!-- Node23 -->
<g id="Node000023" class="node">
<title>Node23</title>
<g id="a_Node000023"><a xlink:href="classDynExpModule_1_1Trajectory1D.html" target="_top" xlink:title=" ">
<polygon fill="white" stroke="#666666" points="882.5,-67.5 724.5,-67.5 724.5,-48.5 882.5,-48.5 882.5,-67.5"/>
<text text-anchor="middle" x="803.5" y="-55.5" font-family="Helvetica,sans-Serif" font-size="10.00">DynExpModule::Trajectory1D</text>
</a>
</g>
</g>
<!-- Node13&#45;&gt;Node23 -->
<g id="edge22_Node000013_Node000023" class="edge">
<title>Node13&#45;&gt;Node23</title>
<g id="a_edge22_Node000013_Node000023"><a xlink:title=" ">
<path fill="none" stroke="#63b8ff" d="M642.06,-233.02C649.8,-229.94 657.01,-225.72 663,-220 710.7,-174.43 650.69,-120.92 699,-76 706.21,-69.29 714.99,-64.62 724.35,-61.41"/>
<polygon fill="#63b8ff" stroke="#63b8ff" points="640.79,-229.75 632.41,-236.24 643.01,-236.39 640.79,-229.75"/>
</a>
</g>
</g>
<!-- Node24 -->
<g id="Node000024" class="node">
<title>Node24</title>
<g id="a_Node000024"><a xlink:href="classDynExpModule_1_1Widefield_1_1WidefieldMicroscope.html" target="_top" xlink:title=" ">
<polygon fill="white" stroke="#666666" points="874.5,-30 732.5,-30 732.5,0 874.5,0 874.5,-30"/>
<text text-anchor="start" x="740.5" y="-18" font-family="Helvetica,sans-Serif" font-size="10.00">DynExpModule::Widefield</text>
<text text-anchor="middle" x="803.5" y="-7" font-family="Helvetica,sans-Serif" font-size="10.00">::WidefieldMicroscope</text>
</a>
</g>
</g>
<!-- Node13&#45;&gt;Node24 -->
<g id="edge23_Node000013_Node000024" class="edge">
<title>Node13&#45;&gt;Node24</title>
<g id="a_edge23_Node000013_Node000024"><a xlink:title=" ">
<path fill="none" stroke="#63b8ff" d="M641.75,-233.54C649.66,-230.39 657,-226.02 663,-220 720.91,-161.91 641.92,-97.9 699,-39 708.05,-29.66 719.96,-23.65 732.48,-19.83"/>
<polygon fill="#63b8ff" stroke="#63b8ff" points="640.63,-230.22 632.24,-236.69 642.84,-236.86 640.63,-230.22"/>
</a>
</g>
</g>
</g>
</svg>
