<?xml version="1.0" encoding="UTF-8" standalone="no"?>
<!DOCTYPE svg PUBLIC "-//W3C//DTD SVG 1.1//EN"
 "http://www.w3.org/Graphics/SVG/1.1/DTD/svg11.dtd">
<!-- Generated by graphviz version 2.43.0 (0)
 -->
<!-- Title: DynExpInstr::NenionLeakvalveF3Data Pages: 1 -->
<svg width="190pt" height="274pt"
 viewBox="0.00 0.00 190.00 274.00" xmlns="http://www.w3.org/2000/svg" xmlns:xlink="http://www.w3.org/1999/xlink">
<g id="graph0" class="graph" transform="scale(1 1) rotate(0) translate(4 270)">
<title>DynExpInstr::NenionLeakvalveF3Data</title>
<polygon fill="white" stroke="transparent" points="-4,4 -4,-270 186,-270 186,4 -4,4"/>
<!-- Node1 -->
<g id="node1" class="node">
<title>Node1</title>
<g id="a_node1"><a xlink:title=" ">
<polygon fill="#bfbfbf" stroke="black" points="7.5,-0.5 7.5,-30.5 174.5,-30.5 174.5,-0.5 7.5,-0.5"/>
<text text-anchor="start" x="15.5" y="-18.5" font-family="Helvetica,sans-Serif" font-size="10.00">DynExpInstr::NenionLeakvalve</text>
<text text-anchor="middle" x="91" y="-7.5" font-family="Helvetica,sans-Serif" font-size="10.00">F3Data</text>
</a>
</g>
</g>
<!-- Node2 -->
<g id="node2" class="node">
<title>Node2</title>
<g id="a_node2"><a xlink:href="classDynExpInstr_1_1PositionerStageData.html" target="_top" xlink:title="Data class for PositionerStage.">
<polygon fill="white" stroke="black" points="0,-67.5 0,-86.5 182,-86.5 182,-67.5 0,-67.5"/>
<text text-anchor="middle" x="91" y="-74.5" font-family="Helvetica,sans-Serif" font-size="10.00">DynExpInstr::PositionerStageData</text>
</a>
</g>
</g>
<!-- Node2&#45;&gt;Node1 -->
<g id="edge1" class="edge">
<title>Node2&#45;&gt;Node1</title>
<path fill="none" stroke="midnightblue" d="M91,-57.23C91,-48.59 91,-38.5 91,-30.52"/>
<polygon fill="midnightblue" stroke="midnightblue" points="87.5,-57.48 91,-67.48 94.5,-57.48 87.5,-57.48"/>
</g>
<!-- Node3 -->
<g id="node3" class="node">
<title>Node3</title>
<g id="a_node3"><a xlink:href="classDynExp_1_1InstrumentDataBase.html" target="_top" xlink:title="Data structure to contain data which is synchronized in between different threads....">
<polygon fill="white" stroke="black" points="10.5,-123.5 10.5,-142.5 171.5,-142.5 171.5,-123.5 10.5,-123.5"/>
<text text-anchor="middle" x="91" y="-130.5" font-family="Helvetica,sans-Serif" font-size="10.00">DynExp::InstrumentDataBase</text>
</a>
</g>
</g>
<!-- Node3&#45;&gt;Node2 -->
<g id="edge2" class="edge">
<title>Node3&#45;&gt;Node2</title>
<path fill="none" stroke="midnightblue" d="M91,-112.8C91,-103.91 91,-93.78 91,-86.75"/>
<polygon fill="midnightblue" stroke="midnightblue" points="87.5,-113.08 91,-123.08 94.5,-113.08 87.5,-113.08"/>
</g>
<!-- Node4 -->
<g id="node4" class="node">
<title>Node4</title>
<g id="a_node4"><a xlink:href="classUtil_1_1ISynchronizedPointerLockable.html" target="_top" xlink:title="Interface to allow synchronizing the access to derived classes between different threads by making th...">
<polygon fill="white" stroke="black" points="19.5,-179.5 19.5,-209.5 162.5,-209.5 162.5,-179.5 19.5,-179.5"/>
<text text-anchor="start" x="27.5" y="-197.5" font-family="Helvetica,sans-Serif" font-size="10.00">Util::ISynchronizedPointer</text>
<text text-anchor="middle" x="91" y="-186.5" font-family="Helvetica,sans-Serif" font-size="10.00">Lockable</text>
</a>
</g>
</g>
<!-- Node4&#45;&gt;Node3 -->
<g id="edge3" class="edge">
<title>Node4&#45;&gt;Node3</title>
<path fill="none" stroke="midnightblue" d="M91,-169.29C91,-159.86 91,-149.65 91,-142.66"/>
<polygon fill="midnightblue" stroke="midnightblue" points="87.5,-169.4 91,-179.4 94.5,-169.4 87.5,-169.4"/>
</g>
<!-- Node5 -->
<g id="node5" class="node">
<title>Node5</title>
<g id="a_node5"><a xlink:href="classUtil_1_1INonCopyable.html" target="_top" xlink:title="Interface to delete copy constructor and copy assignment operator and thus make derived classes non&#45;c...">
<polygon fill="white" stroke="black" points="37,-246.5 37,-265.5 145,-265.5 145,-246.5 37,-246.5"/>
<text text-anchor="middle" x="91" y="-253.5" font-family="Helvetica,sans-Serif" font-size="10.00">Util::INonCopyable</text>
</a>
</g>
</g>
<!-- Node5&#45;&gt;Node4 -->
<g id="edge4" class="edge">
<title>Node5&#45;&gt;Node4</title>
<path fill="none" stroke="midnightblue" d="M91,-236.23C91,-227.59 91,-217.5 91,-209.52"/>
<polygon fill="midnightblue" stroke="midnightblue" points="87.5,-236.48 91,-246.48 94.5,-236.48 87.5,-236.48"/>
</g>
</g>
</svg>
