<?xml version="1.0" encoding="UTF-8" standalone="no"?>
<!DOCTYPE svg PUBLIC "-//W3C//DTD SVG 1.1//EN"
 "http://www.w3.org/Graphics/SVG/1.1/DTD/svg11.dtd">
<!-- Generated by graphviz version 2.43.0 (0)
 -->
<!-- Title: DynExpInstr::NetworkDigitalInTasks::InitTask&lt; BaseInstr,, gRPCStubs &gt; Pages: 1 -->
<svg width="707pt" height="60pt"
 viewBox="0.00 0.00 707.00 60.00" xmlns="http://www.w3.org/2000/svg" xmlns:xlink="http://www.w3.org/1999/xlink">
<g id="graph0" class="graph" transform="scale(1 1) rotate(0) translate(4 56)">
<title>DynExpInstr::NetworkDigitalInTasks::InitTask&lt; BaseInstr,, gRPCStubs &gt;</title>
<!-- Node1 -->
<g id="Node000001" class="node">
<title>Node1</title>
<g id="a_Node000001"><a xlink:title=" ">
<polygon fill="#999999" stroke="#666666" points="699,-46.5 543,-46.5 543,-5.5 699,-5.5 699,-46.5"/>
<text text-anchor="start" x="551" y="-34.5" font-family="Helvetica,sans-Serif" font-size="10.00">DynExpInstr::NetworkDigital</text>
<text text-anchor="start" x="551" y="-23.5" font-family="Helvetica,sans-Serif" font-size="10.00">InTasks::InitTask&lt; BaseInstr,</text>
<text text-anchor="middle" x="621" y="-12.5" font-family="Helvetica,sans-Serif" font-size="10.00">, gRPCStubs &gt;</text>
</a>
</g>
</g>
<!-- Node2 -->
<g id="Node000002" class="node">
<title>Node2</title>
<g id="a_Node000002"><a xlink:href="classDynExpInstr_1_1NetworkDataStreamInstrumentTasks_1_1InitTask.html" target="_top" xlink:title=" ">
<polygon fill="white" stroke="#666666" points="507,-52 361,-52 361,0 507,0 507,-52"/>
<text text-anchor="start" x="369" y="-40" font-family="Helvetica,sans-Serif" font-size="10.00">DynExpInstr::NetworkData</text>
<text text-anchor="start" x="369" y="-29" font-family="Helvetica,sans-Serif" font-size="10.00">StreamInstrumentTasks</text>
<text text-anchor="start" x="369" y="-18" font-family="Helvetica,sans-Serif" font-size="10.00">::InitTask&lt; BaseInstr,</text>
<text text-anchor="middle" x="434" y="-7" font-family="Helvetica,sans-Serif" font-size="10.00"> 0, gRPCStubs... &gt;</text>
</a>
</g>
</g>
<!-- Node2&#45;&gt;Node1 -->
<g id="edge1_Node000001_Node000002" class="edge">
<title>Node2&#45;&gt;Node1</title>
<g id="a_edge1_Node000001_Node000002"><a xlink:title=" ">
<path fill="none" stroke="#63b8ff" d="M517.08,-26C525.68,-26 534.4,-26 542.94,-26"/>
<polygon fill="#63b8ff" stroke="#63b8ff" points="517.06,-22.5 507.06,-26 517.06,-29.5 517.06,-22.5"/>
</a>
</g>
</g>
<!-- Node3 -->
<g id="Node000003" class="node">
<title>Node3</title>
<g id="a_Node000003"><a xlink:href="classDynExpInstr_1_1gRPCInstrumentTasks_1_1InitTask.html" target="_top" xlink:title="Defines a task for initializing an instrument within an instrument inheritance hierarchy....">
<polygon fill="white" stroke="#666666" points="325,-46.5 164,-46.5 164,-5.5 325,-5.5 325,-46.5"/>
<text text-anchor="start" x="172" y="-34.5" font-family="Helvetica,sans-Serif" font-size="10.00">DynExpInstr::gRPCInstrument</text>
<text text-anchor="start" x="172" y="-23.5" font-family="Helvetica,sans-Serif" font-size="10.00">Tasks::InitTask&lt; BaseInstr,</text>
<text text-anchor="middle" x="244.5" y="-12.5" font-family="Helvetica,sans-Serif" font-size="10.00">, gRPCStubs &gt;</text>
</a>
</g>
</g>
<!-- Node3&#45;&gt;Node2 -->
<g id="edge2_Node000002_Node000003" class="edge">
<title>Node3&#45;&gt;Node2</title>
<g id="a_edge2_Node000002_Node000003"><a xlink:title=" ">
<path fill="none" stroke="#63b8ff" d="M335.1,-26C343.71,-26 352.38,-26 360.8,-26"/>
<polygon fill="#63b8ff" stroke="#63b8ff" points="335.02,-22.5 325.02,-26 335.02,-29.5 335.02,-22.5"/>
</a>
</g>
</g>
<!-- Node4 -->
<g id="Node000004" class="node">
<title>Node4</title>
<g id="a_Node000004"><a xlink:title=" ">
<polygon fill="white" stroke="#666666" points="128,-35.5 0,-35.5 0,-16.5 128,-16.5 128,-35.5"/>
<text text-anchor="middle" x="64" y="-23.5" font-family="Helvetica,sans-Serif" font-size="10.00">BaseInstr::InitTaskType</text>
</a>
</g>
</g>
<!-- Node4&#45;&gt;Node3 -->
<g id="edge3_Node000003_Node000004" class="edge">
<title>Node4&#45;&gt;Node3</title>
<g id="a_edge3_Node000003_Node000004"><a xlink:title=" ">
<path fill="none" stroke="#63b8ff" d="M138.32,-26C146.73,-26 155.34,-26 163.83,-26"/>
<polygon fill="#63b8ff" stroke="#63b8ff" points="138.18,-22.5 128.18,-26 138.18,-29.5 138.18,-22.5"/>
</a>
</g>
</g>
</g>
</svg>
