<?xml version="1.0" encoding="UTF-8" standalone="no"?>
<!DOCTYPE svg PUBLIC "-//W3C//DTD SVG 1.1//EN"
 "http://www.w3.org/Graphics/SVG/1.1/DTD/svg11.dtd">
<!-- Generated by graphviz version 2.43.0 (0)
 -->
<!-- Title: DynExpModule::NetworkAnalogInParams&lt; gRPCServices &gt; Pages: 1 -->
<svg width="181pt" height="475pt"
 viewBox="0.00 0.00 181.00 475.00" xmlns="http://www.w3.org/2000/svg" xmlns:xlink="http://www.w3.org/1999/xlink">
<g id="graph0" class="graph" transform="scale(1 1) rotate(0) translate(4 471)">
<title>DynExpModule::NetworkAnalogInParams&lt; gRPCServices &gt;</title>
<polygon fill="white" stroke="transparent" points="-4,4 -4,-471 177,-471 177,4 -4,4"/>
<!-- Node1 -->
<g id="node1" class="node">
<title>Node1</title>
<g id="a_node1"><a xlink:title=" ">
<polygon fill="#bfbfbf" stroke="black" points="1,-0.5 1,-30.5 172,-30.5 172,-0.5 1,-0.5"/>
<text text-anchor="start" x="9" y="-18.5" font-family="Helvetica,sans-Serif" font-size="10.00">DynExpModule::NetworkAnalog</text>
<text text-anchor="middle" x="86.5" y="-7.5" font-family="Helvetica,sans-Serif" font-size="10.00">InParams&lt; gRPCServices &gt;</text>
</a>
</g>
</g>
<!-- Node2 -->
<g id="node2" class="node">
<title>Node2</title>
<g id="a_node2"><a xlink:href="classDynExpModule_1_1NetworkDataStreamInstrumentParams.html" target="_top" xlink:title=" ">
<polygon fill="white" stroke="black" points="6,-67.5 6,-108.5 167,-108.5 167,-67.5 6,-67.5"/>
<text text-anchor="start" x="14" y="-96.5" font-family="Helvetica,sans-Serif" font-size="10.00">DynExpModule::NetworkData</text>
<text text-anchor="start" x="14" y="-85.5" font-family="Helvetica,sans-Serif" font-size="10.00">StreamInstrumentParams</text>
<text text-anchor="middle" x="86.5" y="-74.5" font-family="Helvetica,sans-Serif" font-size="10.00">&lt; gRPCServices... &gt;</text>
</a>
</g>
</g>
<!-- Node2&#45;&gt;Node1 -->
<g id="edge1" class="edge">
<title>Node2&#45;&gt;Node1</title>
<path fill="none" stroke="midnightblue" d="M86.5,-57.08C86.5,-48.01 86.5,-38.45 86.5,-30.89"/>
<polygon fill="midnightblue" stroke="midnightblue" points="83,-57.36 86.5,-67.36 90,-57.36 83,-57.36"/>
</g>
<!-- Node3 -->
<g id="node3" class="node">
<title>Node3</title>
<g id="a_node3"><a xlink:href="classDynExpModule_1_1gRPCModuleParams.html" target="_top" xlink:title=" ">
<polygon fill="white" stroke="black" points="7.5,-145.5 7.5,-175.5 165.5,-175.5 165.5,-145.5 7.5,-145.5"/>
<text text-anchor="start" x="15.5" y="-163.5" font-family="Helvetica,sans-Serif" font-size="10.00">DynExpModule::gRPCModule</text>
<text text-anchor="middle" x="86.5" y="-152.5" font-family="Helvetica,sans-Serif" font-size="10.00">Params&lt; gRPCServices... &gt;</text>
</a>
</g>
</g>
<!-- Node3&#45;&gt;Node2 -->
<g id="edge2" class="edge">
<title>Node3&#45;&gt;Node2</title>
<path fill="none" stroke="midnightblue" d="M86.5,-134.98C86.5,-126.35 86.5,-116.76 86.5,-108.59"/>
<polygon fill="midnightblue" stroke="midnightblue" points="83,-135.23 86.5,-145.23 90,-135.23 83,-135.23"/>
</g>
<!-- Node4 -->
<g id="node4" class="node">
<title>Node4</title>
<g id="a_node4"><a xlink:href="classDynExp_1_1ModuleParamsBase.html" target="_top" xlink:title="Parameter class for ModuleBase.">
<polygon fill="white" stroke="black" points="8.5,-212.5 8.5,-231.5 164.5,-231.5 164.5,-212.5 8.5,-212.5"/>
<text text-anchor="middle" x="86.5" y="-219.5" font-family="Helvetica,sans-Serif" font-size="10.00">DynExp::ModuleParamsBase</text>
</a>
</g>
</g>
<!-- Node4&#45;&gt;Node3 -->
<g id="edge3" class="edge">
<title>Node4&#45;&gt;Node3</title>
<path fill="none" stroke="midnightblue" d="M86.5,-202.23C86.5,-193.59 86.5,-183.5 86.5,-175.52"/>
<polygon fill="midnightblue" stroke="midnightblue" points="83,-202.48 86.5,-212.48 90,-202.48 83,-202.48"/>
</g>
<!-- Node5 -->
<g id="node5" class="node">
<title>Node5</title>
<g id="a_node5"><a xlink:href="classDynExp_1_1RunnableObjectParams.html" target="_top" xlink:title="Parameter class for RunnableObject.">
<polygon fill="white" stroke="black" points="0,-268.5 0,-287.5 173,-287.5 173,-268.5 0,-268.5"/>
<text text-anchor="middle" x="86.5" y="-275.5" font-family="Helvetica,sans-Serif" font-size="10.00">DynExp::RunnableObjectParams</text>
</a>
</g>
</g>
<!-- Node5&#45;&gt;Node4 -->
<g id="edge4" class="edge">
<title>Node5&#45;&gt;Node4</title>
<path fill="none" stroke="midnightblue" d="M86.5,-257.8C86.5,-248.91 86.5,-238.78 86.5,-231.75"/>
<polygon fill="midnightblue" stroke="midnightblue" points="83,-258.08 86.5,-268.08 90,-258.08 83,-258.08"/>
</g>
<!-- Node6 -->
<g id="node6" class="node">
<title>Node6</title>
<g id="a_node6"><a xlink:href="classDynExp_1_1ParamsBase.html" target="_top" xlink:title="Abstract base class for object parameter classes. Each class derived from class Object must be accomp...">
<polygon fill="white" stroke="black" points="26.5,-324.5 26.5,-343.5 146.5,-343.5 146.5,-324.5 26.5,-324.5"/>
<text text-anchor="middle" x="86.5" y="-331.5" font-family="Helvetica,sans-Serif" font-size="10.00">DynExp::ParamsBase</text>
</a>
</g>
</g>
<!-- Node6&#45;&gt;Node5 -->
<g id="edge5" class="edge">
<title>Node6&#45;&gt;Node5</title>
<path fill="none" stroke="midnightblue" d="M86.5,-313.8C86.5,-304.91 86.5,-294.78 86.5,-287.75"/>
<polygon fill="midnightblue" stroke="midnightblue" points="83,-314.08 86.5,-324.08 90,-314.08 83,-314.08"/>
</g>
<!-- Node7 -->
<g id="node7" class="node">
<title>Node7</title>
<g id="a_node7"><a xlink:href="classUtil_1_1ISynchronizedPointerLockable.html" target="_top" xlink:title="Interface to allow synchronizing the access to derived classes between different threads by making th...">
<polygon fill="white" stroke="black" points="15,-380.5 15,-410.5 158,-410.5 158,-380.5 15,-380.5"/>
<text text-anchor="start" x="23" y="-398.5" font-family="Helvetica,sans-Serif" font-size="10.00">Util::ISynchronizedPointer</text>
<text text-anchor="middle" x="86.5" y="-387.5" font-family="Helvetica,sans-Serif" font-size="10.00">Lockable</text>
</a>
</g>
</g>
<!-- Node7&#45;&gt;Node6 -->
<g id="edge6" class="edge">
<title>Node7&#45;&gt;Node6</title>
<path fill="none" stroke="midnightblue" d="M86.5,-370.29C86.5,-360.86 86.5,-350.65 86.5,-343.66"/>
<polygon fill="midnightblue" stroke="midnightblue" points="83,-370.4 86.5,-380.4 90,-370.4 83,-370.4"/>
</g>
<!-- Node8 -->
<g id="node8" class="node">
<title>Node8</title>
<g id="a_node8"><a xlink:href="classUtil_1_1INonCopyable.html" target="_top" xlink:title="Interface to delete copy constructor and copy assignment operator and thus make derived classes non&#45;c...">
<polygon fill="white" stroke="black" points="32.5,-447.5 32.5,-466.5 140.5,-466.5 140.5,-447.5 32.5,-447.5"/>
<text text-anchor="middle" x="86.5" y="-454.5" font-family="Helvetica,sans-Serif" font-size="10.00">Util::INonCopyable</text>
</a>
</g>
</g>
<!-- Node8&#45;&gt;Node7 -->
<g id="edge7" class="edge">
<title>Node8&#45;&gt;Node7</title>
<path fill="none" stroke="midnightblue" d="M86.5,-437.23C86.5,-428.59 86.5,-418.5 86.5,-410.52"/>
<polygon fill="midnightblue" stroke="midnightblue" points="83,-437.48 86.5,-447.48 90,-437.48 83,-437.48"/>
</g>
</g>
</svg>
