<?xml version="1.0" encoding="UTF-8" standalone="no"?>
<!DOCTYPE svg PUBLIC "-//W3C//DTD SVG 1.1//EN"
 "http://www.w3.org/Graphics/SVG/1.1/DTD/svg11.dtd">
<!-- Generated by graphviz version 2.43.0 (0)
 -->
<!-- Title: DynExp::ParamsBase::LinkListParamBase Pages: 1 -->
<svg width="693pt" height="73pt"
 viewBox="0.00 0.00 693.00 72.50" xmlns="http://www.w3.org/2000/svg" xmlns:xlink="http://www.w3.org/1999/xlink">
<g id="graph0" class="graph" transform="scale(1 1) rotate(0) translate(4 68.5)">
<title>DynExp::ParamsBase::LinkListParamBase</title>
<!-- Node1 -->
<g id="Node000001" class="node">
<title>Node1</title>
<g id="a_Node000001"><a xlink:title="Base class for link list parameters to multiple Object of any (but all the same) type specifying the ...">
<polygon fill="#999999" stroke="#666666" points="473,-48 353,-48 353,-18 473,-18 473,-48"/>
<text text-anchor="start" x="361" y="-36" font-family="Helvetica,sans-Serif" font-size="10.00">DynExp::ParamsBase</text>
<text text-anchor="middle" x="413" y="-25" font-family="Helvetica,sans-Serif" font-size="10.00">::LinkListParamBase</text>
</a>
</g>
</g>
<!-- Node5 -->
<g id="Node000005" class="node">
<title>Node5</title>
<g id="a_Node000005"><a xlink:href="classDynExp_1_1ParamsBase_1_1ListParam_3_01LinkType_00_01std_1_1enable__if__t_3_01std_1_1is__basd243784fc46965d1256228ffb7d1529c.html" target="_top" xlink:title="Parameter for link lists to multiple Object. If LinkType is derived from ObjectLinkBase,...">
<polygon fill="white" stroke="#666666" points="685,-64.5 509,-64.5 509,-1.5 685,-1.5 685,-64.5"/>
<text text-anchor="start" x="517" y="-52.5" font-family="Helvetica,sans-Serif" font-size="10.00">DynExp::ParamsBase</text>
<text text-anchor="start" x="517" y="-41.5" font-family="Helvetica,sans-Serif" font-size="10.00">::ListParam&lt; LinkType,</text>
<text text-anchor="start" x="517" y="-30.5" font-family="Helvetica,sans-Serif" font-size="10.00"> std::enable_if_t&lt; std</text>
<text text-anchor="start" x="517" y="-19.5" font-family="Helvetica,sans-Serif" font-size="10.00">::is_base_of_v&lt; ObjectLinkBase,</text>
<text text-anchor="middle" x="597" y="-8.5" font-family="Helvetica,sans-Serif" font-size="10.00"> LinkType &gt; &gt; &gt;</text>
</a>
</g>
</g>
<!-- Node1&#45;&gt;Node5 -->
<g id="edge4_Node000001_Node000005" class="edge">
<title>Node1&#45;&gt;Node5</title>
<g id="a_edge4_Node000001_Node000005"><a xlink:title=" ">
<path fill="none" stroke="#63b8ff" d="M483.16,-33C491.54,-33 500.19,-33 508.79,-33"/>
<polygon fill="#63b8ff" stroke="#63b8ff" points="483.09,-29.5 473.09,-33 483.09,-36.5 483.09,-29.5"/>
</a>
</g>
</g>
<!-- Node2 -->
<g id="Node000002" class="node">
<title>Node2</title>
<g id="a_Node000002"><a xlink:href="classDynExp_1_1LinkBase.html" target="_top" xlink:title="Abstract base class of link parameters (to be saved in project files) describing relations between mu...">
<polygon fill="white" stroke="#666666" points="288.5,-61.5 184.5,-61.5 184.5,-42.5 288.5,-42.5 288.5,-61.5"/>
<text text-anchor="middle" x="236.5" y="-49.5" font-family="Helvetica,sans-Serif" font-size="10.00">DynExp::LinkBase</text>
</a>
</g>
</g>
<!-- Node2&#45;&gt;Node1 -->
<g id="edge1_Node000001_Node000002" class="edge">
<title>Node2&#45;&gt;Node1</title>
<g id="a_edge1_Node000001_Node000002"><a xlink:title=" ">
<path fill="none" stroke="#63b8ff" d="M299.03,-45.3C316.56,-43.39 335.61,-41.32 352.98,-39.43"/>
<polygon fill="#63b8ff" stroke="#63b8ff" points="298.47,-41.84 288.91,-46.4 299.23,-48.8 298.47,-41.84"/>
</a>
</g>
</g>
<!-- Node3 -->
<g id="Node000003" class="node">
<title>Node3</title>
<g id="a_Node000003"><a xlink:href="classDynExp_1_1ParamsBase_1_1TypedListParamBase.html" target="_top" xlink:title="Base class of parameters containing lists of values.">
<polygon fill="white" stroke="#666666" points="317,-24.5 156,-24.5 156,-5.5 317,-5.5 317,-24.5"/>
<text text-anchor="middle" x="236.5" y="-12.5" font-family="Helvetica,sans-Serif" font-size="10.00">UnderlyingLinkListParamType</text>
</a>
</g>
</g>
<!-- Node3&#45;&gt;Node1 -->
<g id="edge2_Node000001_Node000003" class="edge">
<title>Node3&#45;&gt;Node1</title>
<g id="a_edge2_Node000001_Node000003"><a xlink:title=" ">
<path fill="none" stroke="#63b8ff" d="M327.28,-24.26C335.96,-25.16 344.61,-26.05 352.89,-26.9"/>
<polygon fill="#63b8ff" stroke="#63b8ff" points="327.4,-20.75 317.09,-23.21 326.68,-27.72 327.4,-20.75"/>
</a>
</g>
</g>
<!-- Node4 -->
<g id="Node000004" class="node">
<title>Node4</title>
<g id="a_Node000004"><a xlink:href="classDynExp_1_1ParamsBase_1_1ParamBase.html" target="_top" xlink:title="Abstract base class for a single object parameter. Parameters derived from this class are automatical...">
<polygon fill="white" stroke="#666666" points="120,-30 0,-30 0,0 120,0 120,-30"/>
<text text-anchor="start" x="8" y="-18" font-family="Helvetica,sans-Serif" font-size="10.00">DynExp::ParamsBase</text>
<text text-anchor="middle" x="60" y="-7" font-family="Helvetica,sans-Serif" font-size="10.00">::ParamBase</text>
</a>
</g>
</g>
<!-- Node4&#45;&gt;Node3 -->
<g id="edge3_Node000003_Node000004" class="edge">
<title>Node4&#45;&gt;Node3</title>
<g id="a_edge3_Node000003_Node000004"><a xlink:title=" ">
<path fill="none" stroke="#63b8ff" d="M130.18,-15C138.58,-15 147.21,-15 155.75,-15"/>
<polygon fill="#63b8ff" stroke="#63b8ff" points="130.08,-11.5 120.08,-15 130.08,-18.5 130.08,-11.5"/>
</a>
</g>
</g>
</g>
</svg>
