<?xml version="1.0" encoding="UTF-8" standalone="no"?>
<!DOCTYPE svg PUBLIC "-//W3C//DTD SVG 1.1//EN"
 "http://www.w3.org/Graphics/SVG/1.1/DTD/svg11.dtd">
<!-- Generated by graphviz version 2.43.0 (0)
 -->
<!-- Title: DynExpInstr::DataStreamInstrumentTasks::InitTask Pages: 1 -->
<svg width="1308pt" height="431pt"
 viewBox="0.00 0.00 1308.00 431.00" xmlns="http://www.w3.org/2000/svg" xmlns:xlink="http://www.w3.org/1999/xlink">
<g id="graph0" class="graph" transform="scale(1 1) rotate(0) translate(4 427)">
<title>DynExpInstr::DataStreamInstrumentTasks::InitTask</title>
<polygon fill="white" stroke="transparent" points="-4,4 -4,-427 1304,-427 1304,4 -4,4"/>
<!-- Node1 -->
<g id="node1" class="node">
<title>Node1</title>
<g id="a_node1"><a xlink:title="Defines a task for initializing an instrument within an instrument inheritance hierarchy....">
<polygon fill="#bfbfbf" stroke="black" points="300,-73.5 300,-103.5 494,-103.5 494,-73.5 300,-73.5"/>
<text text-anchor="start" x="308" y="-91.5" font-family="Helvetica,sans-Serif" font-size="10.00">DynExpInstr::DataStreamInstrument</text>
<text text-anchor="middle" x="397" y="-80.5" font-family="Helvetica,sans-Serif" font-size="10.00">Tasks::InitTask</text>
</a>
</g>
</g>
<!-- Node4 -->
<g id="node4" class="node">
<title>Node4</title>
<g id="a_node4"><a xlink:href="classDynExpInstr_1_1FunctionGeneratorTasks_1_1InitTask.html" target="_top" xlink:title="Defines a task for initializing an instrument within an instrument inheritance hierarchy....">
<polygon fill="white" stroke="black" points="530,-269.5 530,-299.5 702,-299.5 702,-269.5 530,-269.5"/>
<text text-anchor="start" x="538" y="-287.5" font-family="Helvetica,sans-Serif" font-size="10.00">DynExpInstr::FunctionGenerator</text>
<text text-anchor="middle" x="616" y="-276.5" font-family="Helvetica,sans-Serif" font-size="10.00">Tasks::InitTask</text>
</a>
</g>
</g>
<!-- Node1&#45;&gt;Node4 -->
<g id="edge3" class="edge">
<title>Node1&#45;&gt;Node4</title>
<path fill="none" stroke="midnightblue" d="M422.11,-110.28C466.5,-150.37 560.12,-234.93 598.28,-269.39"/>
<polygon fill="midnightblue" stroke="midnightblue" points="424.43,-107.66 414.67,-103.55 419.74,-112.85 424.43,-107.66"/>
</g>
<!-- Node14 -->
<g id="node14" class="node">
<title>Node14</title>
<g id="a_node14"><a xlink:href="classDynExpInstr_1_1InputPortTasks_1_1InitTask.html" target="_top" xlink:title="Defines a task for initializing an instrument within an instrument inheritance hierarchy....">
<polygon fill="white" stroke="black" points="539.5,-98.5 539.5,-128.5 692.5,-128.5 692.5,-98.5 539.5,-98.5"/>
<text text-anchor="start" x="547.5" y="-116.5" font-family="Helvetica,sans-Serif" font-size="10.00">DynExpInstr::InputPortTasks</text>
<text text-anchor="middle" x="616" y="-105.5" font-family="Helvetica,sans-Serif" font-size="10.00">::InitTask</text>
</a>
</g>
</g>
<!-- Node1&#45;&gt;Node14 -->
<g id="edge13" class="edge">
<title>Node1&#45;&gt;Node14</title>
<path fill="none" stroke="midnightblue" d="M504.13,-100.73C516.07,-102.1 528.04,-103.48 539.47,-104.8"/>
<polygon fill="midnightblue" stroke="midnightblue" points="504.46,-97.24 494.13,-99.57 503.66,-104.2 504.46,-97.24"/>
</g>
<!-- Node19 -->
<g id="node19" class="node">
<title>Node19</title>
<g id="a_node19"><a xlink:href="classDynExpInstr_1_1LockinAmplifierTasks_1_1InitTask.html" target="_top" xlink:title="Defines a task for initializing an instrument within an instrument inheritance hierarchy....">
<polygon fill="white" stroke="black" points="537,-49.5 537,-79.5 695,-79.5 695,-49.5 537,-49.5"/>
<text text-anchor="start" x="545" y="-67.5" font-family="Helvetica,sans-Serif" font-size="10.00">DynExpInstr::LockinAmplifier</text>
<text text-anchor="middle" x="616" y="-56.5" font-family="Helvetica,sans-Serif" font-size="10.00">Tasks::InitTask</text>
</a>
</g>
</g>
<!-- Node1&#45;&gt;Node19 -->
<g id="edge18" class="edge">
<title>Node1&#45;&gt;Node19</title>
<path fill="none" stroke="midnightblue" d="M504.21,-76.75C515.2,-75.54 526.23,-74.32 536.84,-73.14"/>
<polygon fill="midnightblue" stroke="midnightblue" points="503.68,-73.29 494.13,-77.87 504.45,-80.25 503.68,-73.29"/>
</g>
<!-- Node21 -->
<g id="node21" class="node">
<title>Node21</title>
<g id="a_node21"><a xlink:href="classDynExpInstr_1_1TimeTaggerTasks_1_1InitTask.html" target="_top" xlink:title="Defines a task for initializing an instrument within an instrument inheritance hierarchy....">
<polygon fill="white" stroke="black" points="533,-0.5 533,-30.5 699,-30.5 699,-0.5 533,-0.5"/>
<text text-anchor="start" x="541" y="-18.5" font-family="Helvetica,sans-Serif" font-size="10.00">DynExpInstr::TimeTaggerTasks</text>
<text text-anchor="middle" x="616" y="-7.5" font-family="Helvetica,sans-Serif" font-size="10.00">::InitTask</text>
</a>
</g>
</g>
<!-- Node1&#45;&gt;Node21 -->
<g id="edge20" class="edge">
<title>Node1&#45;&gt;Node21</title>
<path fill="none" stroke="midnightblue" d="M445.71,-69.74C470.65,-60.19 501.79,-48.7 530,-39.5 539.33,-36.46 549.31,-33.43 559.03,-30.61"/>
<polygon fill="midnightblue" stroke="midnightblue" points="444.2,-66.57 436.13,-73.42 446.72,-73.1 444.2,-66.57"/>
</g>
<!-- Node2 -->
<g id="node2" class="node">
<title>Node2</title>
<g id="a_node2"><a xlink:href="classDynExp_1_1InitTaskBase.html" target="_top" xlink:title="Defines a task for initializing an instrument within an instrument inheritance hierarchy....">
<polygon fill="white" stroke="black" points="142,-79 142,-98 264,-98 264,-79 142,-79"/>
<text text-anchor="middle" x="203" y="-86" font-family="Helvetica,sans-Serif" font-size="10.00">DynExp::InitTaskBase</text>
</a>
</g>
</g>
<!-- Node2&#45;&gt;Node1 -->
<g id="edge1" class="edge">
<title>Node2&#45;&gt;Node1</title>
<path fill="none" stroke="midnightblue" d="M274.5,-88.5C282.74,-88.5 291.25,-88.5 299.76,-88.5"/>
<polygon fill="midnightblue" stroke="midnightblue" points="274.22,-85 264.22,-88.5 274.22,-92 274.22,-85"/>
</g>
<!-- Node3 -->
<g id="node3" class="node">
<title>Node3</title>
<g id="a_node3"><a xlink:href="classDynExp_1_1TaskBase.html" target="_top" xlink:title="Base class for all tasks being processed by instruments. The class must not contain public virtual fu...">
<polygon fill="white" stroke="black" points="0,-79 0,-98 106,-98 106,-79 0,-79"/>
<text text-anchor="middle" x="53" y="-86" font-family="Helvetica,sans-Serif" font-size="10.00">DynExp::TaskBase</text>
</a>
</g>
</g>
<!-- Node3&#45;&gt;Node2 -->
<g id="edge2" class="edge">
<title>Node3&#45;&gt;Node2</title>
<path fill="none" stroke="midnightblue" d="M116.38,-88.5C124.85,-88.5 133.52,-88.5 141.95,-88.5"/>
<polygon fill="midnightblue" stroke="midnightblue" points="116.18,-85 106.18,-88.5 116.18,-92 116.18,-85"/>
</g>
<!-- Node5 -->
<g id="node5" class="node">
<title>Node5</title>
<g id="a_node5"><a xlink:href="classDynExpInstr_1_1DummyDataStreamInstrumentTasks_1_1InitTask.html" target="_top" xlink:title=" ">
<polygon fill="white" stroke="black" points="739.5,-392.5 739.5,-422.5 918.5,-422.5 918.5,-392.5 739.5,-392.5"/>
<text text-anchor="start" x="747.5" y="-410.5" font-family="Helvetica,sans-Serif" font-size="10.00">DynExpInstr::DummyDataStream</text>
<text text-anchor="middle" x="829" y="-399.5" font-family="Helvetica,sans-Serif" font-size="10.00">InstrumentTasks::InitTask</text>
</a>
</g>
</g>
<!-- Node4&#45;&gt;Node5 -->
<g id="edge4" class="edge">
<title>Node4&#45;&gt;Node5</title>
<path fill="none" stroke="midnightblue" d="M638.25,-306.75C660.93,-329.26 698.93,-363.5 738,-383.5 744.62,-386.89 751.77,-389.84 759.04,-392.39"/>
<polygon fill="midnightblue" stroke="midnightblue" points="640.69,-304.24 631.16,-299.61 635.72,-309.17 640.69,-304.24"/>
</g>
<!-- Node6 -->
<g id="node6" class="node">
<title>Node6</title>
<g id="a_node6"><a xlink:href="classDynExpInstr_1_1OutputPortTasks_1_1InitTask.html" target="_top" xlink:title="Defines a task for initializing an instrument within an instrument inheritance hierarchy....">
<polygon fill="white" stroke="black" points="748.5,-343.5 748.5,-373.5 909.5,-373.5 909.5,-343.5 748.5,-343.5"/>
<text text-anchor="start" x="756.5" y="-361.5" font-family="Helvetica,sans-Serif" font-size="10.00">DynExpInstr::OutputPortTasks</text>
<text text-anchor="middle" x="829" y="-350.5" font-family="Helvetica,sans-Serif" font-size="10.00">::InitTask</text>
</a>
</g>
</g>
<!-- Node4&#45;&gt;Node6 -->
<g id="edge5" class="edge">
<title>Node4&#45;&gt;Node6</title>
<path fill="none" stroke="midnightblue" d="M659.63,-303.72C682.58,-313.66 711.53,-325.54 738,-334.5 747.34,-337.66 757.35,-340.68 767.16,-343.44"/>
<polygon fill="midnightblue" stroke="midnightblue" points="660.76,-300.4 650.19,-299.6 657.96,-306.81 660.76,-300.4"/>
</g>
<!-- Node11 -->
<g id="node11" class="node">
<title>Node11</title>
<g id="a_node11"><a xlink:href="classDynExpInstr_1_1RS__SMB100BTasks_1_1InitTask.html" target="_top" xlink:title=" ">
<polygon fill="white" stroke="black" points="742.5,-294.5 742.5,-324.5 915.5,-324.5 915.5,-294.5 742.5,-294.5"/>
<text text-anchor="start" x="750.5" y="-312.5" font-family="Helvetica,sans-Serif" font-size="10.00">DynExpInstr::RS_SMB100BTasks</text>
<text text-anchor="middle" x="829" y="-301.5" font-family="Helvetica,sans-Serif" font-size="10.00">::InitTask</text>
</a>
</g>
</g>
<!-- Node4&#45;&gt;Node11 -->
<g id="edge10" class="edge">
<title>Node4&#45;&gt;Node11</title>
<path fill="none" stroke="midnightblue" d="M712.23,-295.78C722.31,-296.98 732.51,-298.19 742.47,-299.37"/>
<polygon fill="midnightblue" stroke="midnightblue" points="712.56,-292.3 702.21,-294.6 711.73,-299.25 712.56,-292.3"/>
</g>
<!-- Node12 -->
<g id="node12" class="node">
<title>Node12</title>
<g id="a_node12"><a xlink:href="classDynExpInstr_1_1RS__SMC100ATasks_1_1InitTask.html" target="_top" xlink:title=" ">
<polygon fill="white" stroke="black" points="742.5,-245.5 742.5,-275.5 915.5,-275.5 915.5,-245.5 742.5,-245.5"/>
<text text-anchor="start" x="750.5" y="-263.5" font-family="Helvetica,sans-Serif" font-size="10.00">DynExpInstr::RS_SMC100ATasks</text>
<text text-anchor="middle" x="829" y="-252.5" font-family="Helvetica,sans-Serif" font-size="10.00">::InitTask</text>
</a>
</g>
</g>
<!-- Node4&#45;&gt;Node12 -->
<g id="edge11" class="edge">
<title>Node4&#45;&gt;Node12</title>
<path fill="none" stroke="midnightblue" d="M712.23,-273.67C722.31,-272.52 732.51,-271.36 742.47,-270.23"/>
<polygon fill="midnightblue" stroke="midnightblue" points="711.75,-270.2 702.21,-274.81 712.55,-277.15 711.75,-270.2"/>
</g>
<!-- Node13 -->
<g id="node13" class="node">
<title>Node13</title>
<g id="a_node13"><a xlink:href="classDynExpInstr_1_1SwabianInstrumentsPulseStreamerTasks_1_1InitTask.html" target="_top" xlink:title=" ">
<polygon fill="white" stroke="black" points="738,-196.5 738,-226.5 920,-226.5 920,-196.5 738,-196.5"/>
<text text-anchor="start" x="746" y="-214.5" font-family="Helvetica,sans-Serif" font-size="10.00">DynExpInstr::SwabianInstruments</text>
<text text-anchor="middle" x="829" y="-203.5" font-family="Helvetica,sans-Serif" font-size="10.00">PulseStreamerTasks::InitTask</text>
</a>
</g>
</g>
<!-- Node4&#45;&gt;Node13 -->
<g id="edge12" class="edge">
<title>Node4&#45;&gt;Node13</title>
<path fill="none" stroke="midnightblue" d="M661.47,-265.54C684.16,-256.21 712.32,-245.13 738,-236.5 748.3,-233.04 759.37,-229.68 770.11,-226.6"/>
<polygon fill="midnightblue" stroke="midnightblue" points="660,-262.36 652.11,-269.42 662.68,-268.83 660,-262.36"/>
</g>
<!-- Node7 -->
<g id="node7" class="node">
<title>Node7</title>
<g id="a_node7"><a xlink:href="classDynExpInstr_1_1AnalogOutTasks_1_1InitTask.html" target="_top" xlink:title="Defines a task for initializing an instrument within an instrument inheritance hierarchy....">
<polygon fill="white" stroke="black" points="956,-367.5 956,-397.5 1116,-397.5 1116,-367.5 956,-367.5"/>
<text text-anchor="start" x="964" y="-385.5" font-family="Helvetica,sans-Serif" font-size="10.00">DynExpInstr::AnalogOutTasks</text>
<text text-anchor="middle" x="1036" y="-374.5" font-family="Helvetica,sans-Serif" font-size="10.00">::InitTask</text>
</a>
</g>
</g>
<!-- Node6&#45;&gt;Node7 -->
<g id="edge6" class="edge">
<title>Node6&#45;&gt;Node7</title>
<path fill="none" stroke="midnightblue" d="M919.61,-368.99C931.67,-370.4 943.97,-371.84 955.83,-373.23"/>
<polygon fill="midnightblue" stroke="midnightblue" points="919.89,-365.5 909.55,-367.81 919.08,-372.45 919.89,-365.5"/>
</g>
<!-- Node9 -->
<g id="node9" class="node">
<title>Node9</title>
<g id="a_node9"><a xlink:href="classDynExpInstr_1_1DigitalOutTasks_1_1InitTask.html" target="_top" xlink:title="Defines a task for initializing an instrument within an instrument inheritance hierarchy....">
<polygon fill="white" stroke="black" points="957,-318.5 957,-348.5 1115,-348.5 1115,-318.5 957,-318.5"/>
<text text-anchor="start" x="965" y="-336.5" font-family="Helvetica,sans-Serif" font-size="10.00">DynExpInstr::DigitalOutTasks</text>
<text text-anchor="middle" x="1036" y="-325.5" font-family="Helvetica,sans-Serif" font-size="10.00">::InitTask</text>
</a>
</g>
</g>
<!-- Node6&#45;&gt;Node9 -->
<g id="edge8" class="edge">
<title>Node6&#45;&gt;Node9</title>
<path fill="none" stroke="midnightblue" d="M919.83,-347.54C932.16,-346.04 944.74,-344.51 956.84,-343.03"/>
<polygon fill="midnightblue" stroke="midnightblue" points="919.05,-344.11 909.55,-348.8 919.9,-351.06 919.05,-344.11"/>
</g>
<!-- Node8 -->
<g id="node8" class="node">
<title>Node8</title>
<g id="a_node8"><a xlink:href="classDynExpInstr_1_1NIDAQAnalogOutTasks_1_1InitTask.html" target="_top" xlink:title=" ">
<polygon fill="white" stroke="black" points="1152,-367.5 1152,-397.5 1300,-397.5 1300,-367.5 1152,-367.5"/>
<text text-anchor="start" x="1160" y="-385.5" font-family="Helvetica,sans-Serif" font-size="10.00">DynExpInstr::NIDAQAnalog</text>
<text text-anchor="middle" x="1226" y="-374.5" font-family="Helvetica,sans-Serif" font-size="10.00">OutTasks::InitTask</text>
</a>
</g>
</g>
<!-- Node7&#45;&gt;Node8 -->
<g id="edge7" class="edge">
<title>Node7&#45;&gt;Node8</title>
<path fill="none" stroke="midnightblue" d="M1126.23,-382.5C1134.83,-382.5 1143.48,-382.5 1151.9,-382.5"/>
<polygon fill="midnightblue" stroke="midnightblue" points="1126.18,-379 1116.18,-382.5 1126.18,-386 1126.18,-379"/>
</g>
<!-- Node10 -->
<g id="node10" class="node">
<title>Node10</title>
<g id="a_node10"><a xlink:href="classDynExpInstr_1_1NIDAQDigitalOutTasks_1_1InitTask.html" target="_top" xlink:title=" ">
<polygon fill="white" stroke="black" points="1153,-318.5 1153,-348.5 1299,-348.5 1299,-318.5 1153,-318.5"/>
<text text-anchor="start" x="1161" y="-336.5" font-family="Helvetica,sans-Serif" font-size="10.00">DynExpInstr::NIDAQDigital</text>
<text text-anchor="middle" x="1226" y="-325.5" font-family="Helvetica,sans-Serif" font-size="10.00">OutTasks::InitTask</text>
</a>
</g>
</g>
<!-- Node9&#45;&gt;Node10 -->
<g id="edge9" class="edge">
<title>Node9&#45;&gt;Node10</title>
<path fill="none" stroke="midnightblue" d="M1125.13,-333.5C1134.42,-333.5 1143.79,-333.5 1152.86,-333.5"/>
<polygon fill="midnightblue" stroke="midnightblue" points="1125.1,-330 1115.1,-333.5 1125.1,-337 1125.1,-330"/>
</g>
<!-- Node15 -->
<g id="node15" class="node">
<title>Node15</title>
<g id="a_node15"><a xlink:href="classDynExpInstr_1_1AnalogInTasks_1_1InitTask.html" target="_top" xlink:title="Defines a task for initializing an instrument within an instrument inheritance hierarchy....">
<polygon fill="white" stroke="black" points="753,-147.5 753,-177.5 905,-177.5 905,-147.5 753,-147.5"/>
<text text-anchor="start" x="761" y="-165.5" font-family="Helvetica,sans-Serif" font-size="10.00">DynExpInstr::AnalogInTasks</text>
<text text-anchor="middle" x="829" y="-154.5" font-family="Helvetica,sans-Serif" font-size="10.00">::InitTask</text>
</a>
</g>
</g>
<!-- Node14&#45;&gt;Node15 -->
<g id="edge14" class="edge">
<title>Node14&#45;&gt;Node15</title>
<path fill="none" stroke="midnightblue" d="M691.63,-130.83C715.06,-136.27 740.71,-142.23 763.38,-147.49"/>
<polygon fill="midnightblue" stroke="midnightblue" points="692.27,-127.39 681.74,-128.53 690.69,-134.21 692.27,-127.39"/>
</g>
<!-- Node17 -->
<g id="node17" class="node">
<title>Node17</title>
<g id="a_node17"><a xlink:href="classDynExpInstr_1_1DigitalInTasks_1_1InitTask.html" target="_top" xlink:title="Defines a task for initializing an instrument within an instrument inheritance hierarchy....">
<polygon fill="white" stroke="black" points="754,-98.5 754,-128.5 904,-128.5 904,-98.5 754,-98.5"/>
<text text-anchor="start" x="762" y="-116.5" font-family="Helvetica,sans-Serif" font-size="10.00">DynExpInstr::DigitalInTasks</text>
<text text-anchor="middle" x="829" y="-105.5" font-family="Helvetica,sans-Serif" font-size="10.00">::InitTask</text>
</a>
</g>
</g>
<!-- Node14&#45;&gt;Node17 -->
<g id="edge16" class="edge">
<title>Node14&#45;&gt;Node17</title>
<path fill="none" stroke="midnightblue" d="M702.94,-113.5C719.76,-113.5 737.26,-113.5 753.66,-113.5"/>
<polygon fill="midnightblue" stroke="midnightblue" points="702.58,-110 692.58,-113.5 702.58,-117 702.58,-110"/>
</g>
<!-- Node16 -->
<g id="node16" class="node">
<title>Node16</title>
<g id="a_node16"><a xlink:href="classDynExpInstr_1_1NIDAQAnalogInTasks_1_1InitTask.html" target="_top" xlink:title=" ">
<polygon fill="white" stroke="black" points="962,-147.5 962,-177.5 1110,-177.5 1110,-147.5 962,-147.5"/>
<text text-anchor="start" x="970" y="-165.5" font-family="Helvetica,sans-Serif" font-size="10.00">DynExpInstr::NIDAQAnalog</text>
<text text-anchor="middle" x="1036" y="-154.5" font-family="Helvetica,sans-Serif" font-size="10.00">InTasks::InitTask</text>
</a>
</g>
</g>
<!-- Node15&#45;&gt;Node16 -->
<g id="edge15" class="edge">
<title>Node15&#45;&gt;Node16</title>
<path fill="none" stroke="midnightblue" d="M915.26,-162.5C930.75,-162.5 946.79,-162.5 961.89,-162.5"/>
<polygon fill="midnightblue" stroke="midnightblue" points="915.17,-159 905.17,-162.5 915.17,-166 915.17,-159"/>
</g>
<!-- Node18 -->
<g id="node18" class="node">
<title>Node18</title>
<g id="a_node18"><a xlink:href="classDynExpInstr_1_1NIDAQDigitalInTasks_1_1InitTask.html" target="_top" xlink:title=" ">
<polygon fill="white" stroke="black" points="963,-98.5 963,-128.5 1109,-128.5 1109,-98.5 963,-98.5"/>
<text text-anchor="start" x="971" y="-116.5" font-family="Helvetica,sans-Serif" font-size="10.00">DynExpInstr::NIDAQDigital</text>
<text text-anchor="middle" x="1036" y="-105.5" font-family="Helvetica,sans-Serif" font-size="10.00">InTasks::InitTask</text>
</a>
</g>
</g>
<!-- Node17&#45;&gt;Node18 -->
<g id="edge17" class="edge">
<title>Node17&#45;&gt;Node18</title>
<path fill="none" stroke="midnightblue" d="M914.46,-113.5C930.51,-113.5 947.18,-113.5 962.81,-113.5"/>
<polygon fill="midnightblue" stroke="midnightblue" points="914.01,-110 904.01,-113.5 914.01,-117 914.01,-110"/>
</g>
<!-- Node20 -->
<g id="node20" class="node">
<title>Node20</title>
<g id="a_node20"><a xlink:href="classDynExpInstr_1_1ZI__MFLITasks_1_1InitTask.html" target="_top" xlink:title=" ">
<polygon fill="white" stroke="black" points="755.5,-49.5 755.5,-79.5 902.5,-79.5 902.5,-49.5 755.5,-49.5"/>
<text text-anchor="start" x="763.5" y="-67.5" font-family="Helvetica,sans-Serif" font-size="10.00">DynExpInstr::ZI_MFLITasks</text>
<text text-anchor="middle" x="829" y="-56.5" font-family="Helvetica,sans-Serif" font-size="10.00">::InitTask</text>
</a>
</g>
</g>
<!-- Node19&#45;&gt;Node20 -->
<g id="edge19" class="edge">
<title>Node19&#45;&gt;Node20</title>
<path fill="none" stroke="midnightblue" d="M705.53,-64.5C722.16,-64.5 739.37,-64.5 755.45,-64.5"/>
<polygon fill="midnightblue" stroke="midnightblue" points="705.27,-61 695.27,-64.5 705.27,-68 705.27,-61"/>
</g>
<!-- Node22 -->
<g id="node22" class="node">
<title>Node22</title>
<g id="a_node22"><a xlink:href="classDynExpInstr_1_1QutoolsQuTAGTasks_1_1InitTask.html" target="_top" xlink:title=" ">
<polygon fill="white" stroke="black" points="739.5,-0.5 739.5,-30.5 918.5,-30.5 918.5,-0.5 739.5,-0.5"/>
<text text-anchor="start" x="747.5" y="-18.5" font-family="Helvetica,sans-Serif" font-size="10.00">DynExpInstr::QutoolsQuTAGTasks</text>
<text text-anchor="middle" x="829" y="-7.5" font-family="Helvetica,sans-Serif" font-size="10.00">::InitTask</text>
</a>
</g>
</g>
<!-- Node21&#45;&gt;Node22 -->
<g id="edge21" class="edge">
<title>Node21&#45;&gt;Node22</title>
<path fill="none" stroke="midnightblue" d="M709.47,-15.5C719.41,-15.5 729.51,-15.5 739.41,-15.5"/>
<polygon fill="midnightblue" stroke="midnightblue" points="709.18,-12 699.18,-15.5 709.18,-19 709.18,-12"/>
</g>
</g>
</svg>
