<?xml version="1.0" encoding="UTF-8" standalone="no"?>
<!DOCTYPE svg PUBLIC "-//W3C//DTD SVG 1.1//EN"
 "http://www.w3.org/Graphics/SVG/1.1/DTD/svg11.dtd">
<!-- Generated by graphviz version 2.43.0 (0)
 -->
<!-- Title: DynExpInstr::NetworkAnalogInTasks::InitTask&lt; BaseInstr,, gRPCStubs &gt; Pages: 1 -->
<svg width="708pt" height="61pt"
 viewBox="0.00 0.00 708.00 61.00" xmlns="http://www.w3.org/2000/svg" xmlns:xlink="http://www.w3.org/1999/xlink">
<g id="graph0" class="graph" transform="scale(1 1) rotate(0) translate(4 57)">
<title>DynExpInstr::NetworkAnalogInTasks::InitTask&lt; BaseInstr,, gRPCStubs &gt;</title>
<polygon fill="white" stroke="transparent" points="-4,4 -4,-57 704,-57 704,4 -4,4"/>
<!-- Node1 -->
<g id="node1" class="node">
<title>Node1</title>
<g id="a_node1"><a xlink:title=" ">
<polygon fill="#bfbfbf" stroke="black" points="543,-6 543,-47 700,-47 700,-6 543,-6"/>
<text text-anchor="start" x="551" y="-35" font-family="Helvetica,sans-Serif" font-size="10.00">DynExpInstr::NetworkAnalog</text>
<text text-anchor="start" x="551" y="-24" font-family="Helvetica,sans-Serif" font-size="10.00">InTasks::InitTask&lt; BaseInstr,</text>
<text text-anchor="middle" x="621.5" y="-13" font-family="Helvetica,sans-Serif" font-size="10.00">, gRPCStubs &gt;</text>
</a>
</g>
</g>
<!-- Node2 -->
<g id="node2" class="node">
<title>Node2</title>
<g id="a_node2"><a xlink:href="classDynExpInstr_1_1NetworkDataStreamInstrumentTasks_1_1InitTask.html" target="_top" xlink:title=" ">
<polygon fill="white" stroke="black" points="361,-0.5 361,-52.5 507,-52.5 507,-0.5 361,-0.5"/>
<text text-anchor="start" x="369" y="-40.5" font-family="Helvetica,sans-Serif" font-size="10.00">DynExpInstr::NetworkData</text>
<text text-anchor="start" x="369" y="-29.5" font-family="Helvetica,sans-Serif" font-size="10.00">StreamInstrumentTasks</text>
<text text-anchor="start" x="369" y="-18.5" font-family="Helvetica,sans-Serif" font-size="10.00">::InitTask&lt; BaseInstr,</text>
<text text-anchor="middle" x="434" y="-7.5" font-family="Helvetica,sans-Serif" font-size="10.00"> 0, gRPCStubs... &gt;</text>
</a>
</g>
</g>
<!-- Node2&#45;&gt;Node1 -->
<g id="edge1" class="edge">
<title>Node2&#45;&gt;Node1</title>
<path fill="none" stroke="midnightblue" d="M517.49,-26.5C525.95,-26.5 534.52,-26.5 542.92,-26.5"/>
<polygon fill="midnightblue" stroke="midnightblue" points="517.25,-23 507.25,-26.5 517.25,-30 517.25,-23"/>
</g>
<!-- Node3 -->
<g id="node3" class="node">
<title>Node3</title>
<g id="a_node3"><a xlink:href="classDynExpInstr_1_1gRPCInstrumentTasks_1_1InitTask.html" target="_top" xlink:title="Defines a task for initializing an instrument within an instrument inheritance hierarchy....">
<polygon fill="white" stroke="black" points="164,-6 164,-47 325,-47 325,-6 164,-6"/>
<text text-anchor="start" x="172" y="-35" font-family="Helvetica,sans-Serif" font-size="10.00">DynExpInstr::gRPCInstrument</text>
<text text-anchor="start" x="172" y="-24" font-family="Helvetica,sans-Serif" font-size="10.00">Tasks::InitTask&lt; BaseInstr,</text>
<text text-anchor="middle" x="244.5" y="-13" font-family="Helvetica,sans-Serif" font-size="10.00">, gRPCStubs &gt;</text>
</a>
</g>
</g>
<!-- Node3&#45;&gt;Node2 -->
<g id="edge2" class="edge">
<title>Node3&#45;&gt;Node2</title>
<path fill="none" stroke="midnightblue" d="M335.1,-26.5C343.71,-26.5 352.38,-26.5 360.8,-26.5"/>
<polygon fill="midnightblue" stroke="midnightblue" points="335.02,-23 325.02,-26.5 335.02,-30 335.02,-23"/>
</g>
<!-- Node4 -->
<g id="node4" class="node">
<title>Node4</title>
<g id="a_node4"><a xlink:title=" ">
<polygon fill="white" stroke="#bfbfbf" points="0,-17 0,-36 128,-36 128,-17 0,-17"/>
<text text-anchor="middle" x="64" y="-24" font-family="Helvetica,sans-Serif" font-size="10.00">BaseInstr::InitTaskType</text>
</a>
</g>
</g>
<!-- Node4&#45;&gt;Node3 -->
<g id="edge3" class="edge">
<title>Node4&#45;&gt;Node3</title>
<path fill="none" stroke="midnightblue" d="M138.32,-26.5C146.73,-26.5 155.34,-26.5 163.83,-26.5"/>
<polygon fill="midnightblue" stroke="midnightblue" points="138.18,-23 128.18,-26.5 138.18,-30 138.18,-23"/>
</g>
</g>
</svg>
