<?xml version="1.0" encoding="UTF-8" standalone="no"?>
<!DOCTYPE svg PUBLIC "-//W3C//DTD SVG 1.1//EN"
 "http://www.w3.org/Graphics/SVG/1.1/DTD/svg11.dtd">
<!-- Generated by graphviz version 2.43.0 (0)
 -->
<!-- Title: DynExpInstr::gRPCInstrumentTasks::ExitTask&lt; BaseInstr,, gRPCStubs &gt; Pages: 1 -->
<svg width="721pt" height="285pt"
 viewBox="0.00 0.00 721.00 285.00" xmlns="http://www.w3.org/2000/svg" xmlns:xlink="http://www.w3.org/1999/xlink">
<g id="graph0" class="graph" transform="scale(1 1) rotate(0) translate(4 281)">
<title>DynExpInstr::gRPCInstrumentTasks::ExitTask&lt; BaseInstr,, gRPCStubs &gt;</title>
<!-- Node1 -->
<g id="Node000001" class="node">
<title>Node1</title>
<g id="a_Node000001"><a xlink:title="Defines a task for deinitializing an instrument within an instrument inheritance hierarchy....">
<polygon fill="#999999" stroke="#666666" points="328,-124 167,-124 167,-83 328,-83 328,-124"/>
<text text-anchor="start" x="175" y="-112" font-family="Helvetica,sans-Serif" font-size="10.00">DynExpInstr::gRPCInstrument</text>
<text text-anchor="start" x="175" y="-101" font-family="Helvetica,sans-Serif" font-size="10.00">Tasks::ExitTask&lt; BaseInstr,</text>
<text text-anchor="middle" x="247.5" y="-90" font-family="Helvetica,sans-Serif" font-size="10.00">, gRPCStubs &gt;</text>
</a>
</g>
</g>
<!-- Node3 -->
<g id="Node000003" class="node">
<title>Node3</title>
<g id="a_Node000003"><a xlink:href="classDynExpInstr_1_1NetworkDataStreamInstrumentTasks_1_1ExitTask.html" target="_top" xlink:title=" ">
<polygon fill="white" stroke="#666666" points="510,-164.5 364,-164.5 364,-112.5 510,-112.5 510,-164.5"/>
<text text-anchor="start" x="372" y="-152.5" font-family="Helvetica,sans-Serif" font-size="10.00">DynExpInstr::NetworkData</text>
<text text-anchor="start" x="372" y="-141.5" font-family="Helvetica,sans-Serif" font-size="10.00">StreamInstrumentTasks</text>
<text text-anchor="start" x="372" y="-130.5" font-family="Helvetica,sans-Serif" font-size="10.00">::ExitTask&lt; BaseInstr,</text>
<text text-anchor="middle" x="437" y="-119.5" font-family="Helvetica,sans-Serif" font-size="10.00"> 0, gRPCStubs... &gt;</text>
</a>
</g>
</g>
<!-- Node1&#45;&gt;Node3 -->
<g id="edge2_Node000001_Node000003" class="edge">
<title>Node1&#45;&gt;Node3</title>
<g id="a_edge2_Node000001_Node000003"><a xlink:title=" ">
<path fill="none" stroke="#63b8ff" d="M338.1,-120.22C346.71,-121.83 355.38,-123.45 363.8,-125.02"/>
<polygon fill="#63b8ff" stroke="#63b8ff" points="338.49,-116.74 328.02,-118.34 337.2,-123.62 338.49,-116.74"/>
</a>
</g>
</g>
<!-- Node9 -->
<g id="Node000009" class="node">
<title>Node9</title>
<g id="a_Node000009"><a xlink:href="classDynExpInstr_1_1NetworkDataStreamInstrumentTasks_1_1ExitTask.html" target="_top" xlink:title=" ">
<polygon fill="white" stroke="#666666" points="510,-94.5 364,-94.5 364,-42.5 510,-42.5 510,-94.5"/>
<text text-anchor="start" x="372" y="-82.5" font-family="Helvetica,sans-Serif" font-size="10.00">DynExpInstr::NetworkData</text>
<text text-anchor="start" x="372" y="-71.5" font-family="Helvetica,sans-Serif" font-size="10.00">StreamInstrumentTasks</text>
<text text-anchor="start" x="372" y="-60.5" font-family="Helvetica,sans-Serif" font-size="10.00">::ExitTask&lt; BaseInstr,,</text>
<text text-anchor="middle" x="437" y="-49.5" font-family="Helvetica,sans-Serif" font-size="10.00"> gRPCStubs &gt;</text>
</a>
</g>
</g>
<!-- Node1&#45;&gt;Node9 -->
<g id="edge8_Node000001_Node000009" class="edge">
<title>Node1&#45;&gt;Node9</title>
<g id="a_edge8_Node000001_Node000009"><a xlink:title=" ">
<path fill="none" stroke="#63b8ff" d="M338.1,-86.78C346.71,-85.17 355.38,-83.55 363.8,-81.98"/>
<polygon fill="#63b8ff" stroke="#63b8ff" points="337.2,-83.38 328.02,-88.66 338.49,-90.26 337.2,-83.38"/>
</a>
</g>
</g>
<!-- Node2 -->
<g id="Node000002" class="node">
<title>Node2</title>
<g id="a_Node000002"><a xlink:title=" ">
<polygon fill="white" stroke="#666666" points="131,-113 0,-113 0,-94 131,-94 131,-113"/>
<text text-anchor="middle" x="65.5" y="-101" font-family="Helvetica,sans-Serif" font-size="10.00">BaseInstr::ExitTaskType</text>
</a>
</g>
</g>
<!-- Node2&#45;&gt;Node1 -->
<g id="edge1_Node000001_Node000002" class="edge">
<title>Node2&#45;&gt;Node1</title>
<g id="a_edge1_Node000001_Node000002"><a xlink:title=" ">
<path fill="none" stroke="#63b8ff" d="M141.41,-103.5C149.85,-103.5 158.47,-103.5 166.97,-103.5"/>
<polygon fill="#63b8ff" stroke="#63b8ff" points="141.23,-100 131.23,-103.5 141.23,-107 141.23,-100"/>
</a>
</g>
</g>
<!-- Node4 -->
<g id="Node000004" class="node">
<title>Node4</title>
<g id="a_Node000004"><a xlink:href="classDynExpInstr_1_1NetworkAnalogInTasks_1_1ExitTask.html" target="_top" xlink:title=" ">
<polygon fill="white" stroke="#666666" points="709,-277 550,-277 550,-236 709,-236 709,-277"/>
<text text-anchor="start" x="558" y="-265" font-family="Helvetica,sans-Serif" font-size="10.00">DynExpInstr::NetworkAnalog</text>
<text text-anchor="start" x="558" y="-254" font-family="Helvetica,sans-Serif" font-size="10.00">InTasks::ExitTask&lt; BaseInstr,</text>
<text text-anchor="middle" x="629.5" y="-243" font-family="Helvetica,sans-Serif" font-size="10.00">, gRPCStubs &gt;</text>
</a>
</g>
</g>
<!-- Node3&#45;&gt;Node4 -->
<g id="edge3_Node000003_Node000004" class="edge">
<title>Node3&#45;&gt;Node4</title>
<g id="a_edge3_Node000003_Node000004"><a xlink:title=" ">
<path fill="none" stroke="#63b8ff" d="M471.83,-171.67C492.05,-190.08 518.98,-212.26 546,-227.5 551.42,-230.56 557.22,-233.38 563.14,-235.97"/>
<polygon fill="#63b8ff" stroke="#63b8ff" points="474.15,-169.05 464.43,-164.83 469.4,-174.19 474.15,-169.05"/>
</a>
</g>
</g>
<!-- Node5 -->
<g id="Node000005" class="node">
<title>Node5</title>
<g id="a_Node000005"><a xlink:href="classDynExpInstr_1_1NetworkAnalogOutTasks_1_1ExitTask.html" target="_top" xlink:title=" ">
<polygon fill="white" stroke="#666666" points="713,-218 546,-218 546,-177 713,-177 713,-218"/>
<text text-anchor="start" x="554" y="-206" font-family="Helvetica,sans-Serif" font-size="10.00">DynExpInstr::NetworkAnalog</text>
<text text-anchor="start" x="554" y="-195" font-family="Helvetica,sans-Serif" font-size="10.00">OutTasks::ExitTask&lt; BaseInstr,</text>
<text text-anchor="middle" x="629.5" y="-184" font-family="Helvetica,sans-Serif" font-size="10.00">, gRPCStubs &gt;</text>
</a>
</g>
</g>
<!-- Node3&#45;&gt;Node5 -->
<g id="edge4_Node000003_Node000005" class="edge">
<title>Node3&#45;&gt;Node5</title>
<g id="a_edge4_Node000003_Node000005"><a xlink:title=" ">
<path fill="none" stroke="#63b8ff" d="M519.72,-163.81C533.84,-168.18 548.37,-172.68 562.03,-176.91"/>
<polygon fill="#63b8ff" stroke="#63b8ff" points="520.61,-160.42 510.02,-160.81 518.54,-167.11 520.61,-160.42"/>
</a>
</g>
</g>
<!-- Node6 -->
<g id="Node000006" class="node">
<title>Node6</title>
<g id="a_Node000006"><a xlink:href="classDynExpInstr_1_1NetworkDigitalInTasks_1_1ExitTask.html" target="_top" xlink:title=" ">
<polygon fill="white" stroke="#666666" points="709,-159 550,-159 550,-118 709,-118 709,-159"/>
<text text-anchor="start" x="558" y="-147" font-family="Helvetica,sans-Serif" font-size="10.00">DynExpInstr::NetworkDigital</text>
<text text-anchor="start" x="558" y="-136" font-family="Helvetica,sans-Serif" font-size="10.00">InTasks::ExitTask&lt; BaseInstr,</text>
<text text-anchor="middle" x="629.5" y="-125" font-family="Helvetica,sans-Serif" font-size="10.00">, gRPCStubs &gt;</text>
</a>
</g>
</g>
<!-- Node3&#45;&gt;Node6 -->
<g id="edge5_Node000003_Node000006" class="edge">
<title>Node3&#45;&gt;Node6</title>
<g id="a_edge5_Node000003_Node000006"><a xlink:title=" ">
<path fill="none" stroke="#63b8ff" d="M520.15,-138.5C529.95,-138.5 539.94,-138.5 549.69,-138.5"/>
<polygon fill="#63b8ff" stroke="#63b8ff" points="520.02,-135 510.02,-138.5 520.02,-142 520.02,-135"/>
</a>
</g>
</g>
<!-- Node7 -->
<g id="Node000007" class="node">
<title>Node7</title>
<g id="a_Node000007"><a xlink:href="classDynExpInstr_1_1NetworkDigitalOutTasks_1_1ExitTask.html" target="_top" xlink:title=" ">
<polygon fill="white" stroke="#666666" points="713,-100 546,-100 546,-59 713,-59 713,-100"/>
<text text-anchor="start" x="554" y="-88" font-family="Helvetica,sans-Serif" font-size="10.00">DynExpInstr::NetworkDigital</text>
<text text-anchor="start" x="554" y="-77" font-family="Helvetica,sans-Serif" font-size="10.00">OutTasks::ExitTask&lt; BaseInstr,</text>
<text text-anchor="middle" x="629.5" y="-66" font-family="Helvetica,sans-Serif" font-size="10.00">, gRPCStubs &gt;</text>
</a>
</g>
</g>
<!-- Node3&#45;&gt;Node7 -->
<g id="edge6_Node000003_Node000007" class="edge">
<title>Node3&#45;&gt;Node7</title>
<g id="a_edge6_Node000003_Node000007"><a xlink:title=" ">
<path fill="none" stroke="#63b8ff" d="M519.72,-113.19C533.84,-108.82 548.37,-104.32 562.03,-100.09"/>
<polygon fill="#63b8ff" stroke="#63b8ff" points="518.54,-109.89 510.02,-116.19 520.61,-116.58 518.54,-109.89"/>
</a>
</g>
</g>
<!-- Node8 -->
<g id="Node000008" class="node">
<title>Node8</title>
<g id="a_Node000008"><a xlink:href="classDynExpInstr_1_1NetworkTimeTaggerTasks_1_1ExitTask.html" target="_top" xlink:title=" ">
<polygon fill="white" stroke="#666666" points="703.5,-41 555.5,-41 555.5,0 703.5,0 703.5,-41"/>
<text text-anchor="start" x="563.5" y="-29" font-family="Helvetica,sans-Serif" font-size="10.00">DynExpInstr::NetworkTime</text>
<text text-anchor="start" x="563.5" y="-18" font-family="Helvetica,sans-Serif" font-size="10.00">TaggerTasks::ExitTask</text>
<text text-anchor="middle" x="629.5" y="-7" font-family="Helvetica,sans-Serif" font-size="10.00">&lt; BaseInstr,, gRPCStubs &gt;</text>
</a>
</g>
</g>
<!-- Node3&#45;&gt;Node8 -->
<g id="edge7_Node000003_Node000008" class="edge">
<title>Node3&#45;&gt;Node8</title>
<g id="a_edge7_Node000003_Node000008"><a xlink:title=" ">
<path fill="none" stroke="#63b8ff" d="M506.47,-106.43C507.68,-105.48 508.85,-104.5 510,-103.5 531.73,-84.53 523.22,-67.19 546,-49.5 549.96,-46.43 554.26,-43.66 558.77,-41.18"/>
<polygon fill="#63b8ff" stroke="#63b8ff" points="504.21,-103.75 498.14,-112.44 508.3,-109.43 504.21,-103.75"/>
</a>
</g>
</g>
</g>
</svg>
