<?xml version="1.0" encoding="UTF-8" standalone="no"?>
<!DOCTYPE svg PUBLIC "-//W3C//DTD SVG 1.1//EN"
 "http://www.w3.org/Graphics/SVG/1.1/DTD/svg11.dtd">
<!-- Generated by graphviz version 2.43.0 (0)
 -->
<!-- Title: DynExp::ModuleInstance Pages: 1 -->
<svg width="155pt" height="140pt"
 viewBox="0.00 0.00 155.00 140.00" xmlns="http://www.w3.org/2000/svg" xmlns:xlink="http://www.w3.org/1999/xlink">
<g id="graph0" class="graph" transform="scale(1 1) rotate(0) translate(4 136)">
<title>DynExp::ModuleInstance</title>
<polygon fill="white" stroke="transparent" points="-4,4 -4,-136 151,-136 151,4 -4,4"/>
<!-- Node1 -->
<g id="node1" class="node">
<title>Node1</title>
<g id="a_node1"><a xlink:title="Defines data for a thread belonging to a ModuleBase instance. Refer to RunnableInstance.">
<polygon fill="#bfbfbf" stroke="black" points="5,-0.5 5,-19.5 142,-19.5 142,-0.5 5,-0.5"/>
<text text-anchor="middle" x="73.5" y="-7.5" font-family="Helvetica,sans-Serif" font-size="10.00">DynExp::ModuleInstance</text>
</a>
</g>
</g>
<!-- Node2 -->
<g id="node2" class="node">
<title>Node2</title>
<g id="a_node2"><a xlink:href="classDynExp_1_1RunnableInstance.html" target="_top" xlink:title="Defines data for a thread belonging to a RunnableObject instance. This data is only accessed by the R...">
<polygon fill="white" stroke="black" points="0,-56.5 0,-75.5 147,-75.5 147,-56.5 0,-56.5"/>
<text text-anchor="middle" x="73.5" y="-63.5" font-family="Helvetica,sans-Serif" font-size="10.00">DynExp::RunnableInstance</text>
</a>
</g>
</g>
<!-- Node2&#45;&gt;Node1 -->
<g id="edge1" class="edge">
<title>Node2&#45;&gt;Node1</title>
<path fill="none" stroke="midnightblue" d="M73.5,-45.8C73.5,-36.91 73.5,-26.78 73.5,-19.75"/>
<polygon fill="midnightblue" stroke="midnightblue" points="70,-46.08 73.5,-56.08 77,-46.08 70,-46.08"/>
</g>
<!-- Node3 -->
<g id="node3" class="node">
<title>Node3</title>
<g id="a_node3"><a xlink:href="classUtil_1_1INonCopyable.html" target="_top" xlink:title="Interface to delete copy constructor and copy assignment operator and thus make derived classes non&#45;c...">
<polygon fill="white" stroke="black" points="19.5,-112.5 19.5,-131.5 127.5,-131.5 127.5,-112.5 19.5,-112.5"/>
<text text-anchor="middle" x="73.5" y="-119.5" font-family="Helvetica,sans-Serif" font-size="10.00">Util::INonCopyable</text>
</a>
</g>
</g>
<!-- Node3&#45;&gt;Node2 -->
<g id="edge2" class="edge">
<title>Node3&#45;&gt;Node2</title>
<path fill="none" stroke="midnightblue" d="M73.5,-101.8C73.5,-92.91 73.5,-82.78 73.5,-75.75"/>
<polygon fill="midnightblue" stroke="midnightblue" points="70,-102.08 73.5,-112.08 77,-102.08 70,-102.08"/>
</g>
</g>
</svg>
