<?xml version="1.0" encoding="UTF-8" standalone="no"?>
<!DOCTYPE svg PUBLIC "-//W3C//DTD SVG 1.1//EN"
 "http://www.w3.org/Graphics/SVG/1.1/DTD/svg11.dtd">
<!-- Generated by graphviz version 2.43.0 (0)
 -->
<!-- Title: DynExpInstr::DataStreamInstrumentTasks::ExitTask Pages: 1 -->
<svg width="1311pt" height="431pt"
 viewBox="0.00 0.00 1311.00 431.00" xmlns="http://www.w3.org/2000/svg" xmlns:xlink="http://www.w3.org/1999/xlink">
<g id="graph0" class="graph" transform="scale(1 1) rotate(0) translate(4 427)">
<title>DynExpInstr::DataStreamInstrumentTasks::ExitTask</title>
<polygon fill="white" stroke="transparent" points="-4,4 -4,-427 1307,-427 1307,4 -4,4"/>
<!-- Node1 -->
<g id="node1" class="node">
<title>Node1</title>
<g id="a_node1"><a xlink:title="Defines a task for deinitializing an instrument within an instrument inheritance hierarchy....">
<polygon fill="#bfbfbf" stroke="black" points="303,-73.5 303,-103.5 497,-103.5 497,-73.5 303,-73.5"/>
<text text-anchor="start" x="311" y="-91.5" font-family="Helvetica,sans-Serif" font-size="10.00">DynExpInstr::DataStreamInstrument</text>
<text text-anchor="middle" x="400" y="-80.5" font-family="Helvetica,sans-Serif" font-size="10.00">Tasks::ExitTask</text>
</a>
</g>
</g>
<!-- Node4 -->
<g id="node4" class="node">
<title>Node4</title>
<g id="a_node4"><a xlink:href="classDynExpInstr_1_1FunctionGeneratorTasks_1_1ExitTask.html" target="_top" xlink:title="Defines a task for deinitializing an instrument within an instrument inheritance hierarchy....">
<polygon fill="white" stroke="black" points="533,-269.5 533,-299.5 705,-299.5 705,-269.5 533,-269.5"/>
<text text-anchor="start" x="541" y="-287.5" font-family="Helvetica,sans-Serif" font-size="10.00">DynExpInstr::FunctionGenerator</text>
<text text-anchor="middle" x="619" y="-276.5" font-family="Helvetica,sans-Serif" font-size="10.00">Tasks::ExitTask</text>
</a>
</g>
</g>
<!-- Node1&#45;&gt;Node4 -->
<g id="edge3" class="edge">
<title>Node1&#45;&gt;Node4</title>
<path fill="none" stroke="midnightblue" d="M425.11,-110.28C469.5,-150.37 563.12,-234.93 601.28,-269.39"/>
<polygon fill="midnightblue" stroke="midnightblue" points="427.43,-107.66 417.67,-103.55 422.74,-112.85 427.43,-107.66"/>
</g>
<!-- Node14 -->
<g id="node14" class="node">
<title>Node14</title>
<g id="a_node14"><a xlink:href="classDynExpInstr_1_1InputPortTasks_1_1ExitTask.html" target="_top" xlink:title="Defines a task for deinitializing an instrument within an instrument inheritance hierarchy....">
<polygon fill="white" stroke="black" points="542.5,-98.5 542.5,-128.5 695.5,-128.5 695.5,-98.5 542.5,-98.5"/>
<text text-anchor="start" x="550.5" y="-116.5" font-family="Helvetica,sans-Serif" font-size="10.00">DynExpInstr::InputPortTasks</text>
<text text-anchor="middle" x="619" y="-105.5" font-family="Helvetica,sans-Serif" font-size="10.00">::ExitTask</text>
</a>
</g>
</g>
<!-- Node1&#45;&gt;Node14 -->
<g id="edge13" class="edge">
<title>Node1&#45;&gt;Node14</title>
<path fill="none" stroke="midnightblue" d="M507.13,-100.73C519.07,-102.1 531.04,-103.48 542.47,-104.8"/>
<polygon fill="midnightblue" stroke="midnightblue" points="507.46,-97.24 497.13,-99.57 506.66,-104.2 507.46,-97.24"/>
</g>
<!-- Node19 -->
<g id="node19" class="node">
<title>Node19</title>
<g id="a_node19"><a xlink:href="classDynExpInstr_1_1LockinAmplifierTasks_1_1ExitTask.html" target="_top" xlink:title="Defines a task for deinitializing an instrument within an instrument inheritance hierarchy....">
<polygon fill="white" stroke="black" points="540,-49.5 540,-79.5 698,-79.5 698,-49.5 540,-49.5"/>
<text text-anchor="start" x="548" y="-67.5" font-family="Helvetica,sans-Serif" font-size="10.00">DynExpInstr::LockinAmplifier</text>
<text text-anchor="middle" x="619" y="-56.5" font-family="Helvetica,sans-Serif" font-size="10.00">Tasks::ExitTask</text>
</a>
</g>
</g>
<!-- Node1&#45;&gt;Node19 -->
<g id="edge18" class="edge">
<title>Node1&#45;&gt;Node19</title>
<path fill="none" stroke="midnightblue" d="M507.21,-76.75C518.2,-75.54 529.23,-74.32 539.84,-73.14"/>
<polygon fill="midnightblue" stroke="midnightblue" points="506.68,-73.29 497.13,-77.87 507.45,-80.25 506.68,-73.29"/>
</g>
<!-- Node21 -->
<g id="node21" class="node">
<title>Node21</title>
<g id="a_node21"><a xlink:href="classDynExpInstr_1_1TimeTaggerTasks_1_1ExitTask.html" target="_top" xlink:title="Defines a task for deinitializing an instrument within an instrument inheritance hierarchy....">
<polygon fill="white" stroke="black" points="536,-0.5 536,-30.5 702,-30.5 702,-0.5 536,-0.5"/>
<text text-anchor="start" x="544" y="-18.5" font-family="Helvetica,sans-Serif" font-size="10.00">DynExpInstr::TimeTaggerTasks</text>
<text text-anchor="middle" x="619" y="-7.5" font-family="Helvetica,sans-Serif" font-size="10.00">::ExitTask</text>
</a>
</g>
</g>
<!-- Node1&#45;&gt;Node21 -->
<g id="edge20" class="edge">
<title>Node1&#45;&gt;Node21</title>
<path fill="none" stroke="midnightblue" d="M448.71,-69.74C473.65,-60.19 504.79,-48.7 533,-39.5 542.33,-36.46 552.31,-33.43 562.03,-30.61"/>
<polygon fill="midnightblue" stroke="midnightblue" points="447.2,-66.57 439.13,-73.42 449.72,-73.1 447.2,-66.57"/>
</g>
<!-- Node2 -->
<g id="node2" class="node">
<title>Node2</title>
<g id="a_node2"><a xlink:href="classDynExp_1_1ExitTaskBase.html" target="_top" xlink:title="Defines a task for deinitializing an instrument within an instrument inheritance hierarchy....">
<polygon fill="white" stroke="black" points="142,-79 142,-98 267,-98 267,-79 142,-79"/>
<text text-anchor="middle" x="204.5" y="-86" font-family="Helvetica,sans-Serif" font-size="10.00">DynExp::ExitTaskBase</text>
</a>
</g>
</g>
<!-- Node2&#45;&gt;Node1 -->
<g id="edge1" class="edge">
<title>Node2&#45;&gt;Node1</title>
<path fill="none" stroke="midnightblue" d="M277.3,-88.5C285.67,-88.5 294.29,-88.5 302.92,-88.5"/>
<polygon fill="midnightblue" stroke="midnightblue" points="277.26,-85 267.26,-88.5 277.26,-92 277.26,-85"/>
</g>
<!-- Node3 -->
<g id="node3" class="node">
<title>Node3</title>
<g id="a_node3"><a xlink:href="classDynExp_1_1TaskBase.html" target="_top" xlink:title="Base class for all tasks being processed by instruments. The class must not contain public virtual fu...">
<polygon fill="white" stroke="black" points="0,-79 0,-98 106,-98 106,-79 0,-79"/>
<text text-anchor="middle" x="53" y="-86" font-family="Helvetica,sans-Serif" font-size="10.00">DynExp::TaskBase</text>
</a>
</g>
</g>
<!-- Node3&#45;&gt;Node2 -->
<g id="edge2" class="edge">
<title>Node3&#45;&gt;Node2</title>
<path fill="none" stroke="midnightblue" d="M116.38,-88.5C124.77,-88.5 133.37,-88.5 141.75,-88.5"/>
<polygon fill="midnightblue" stroke="midnightblue" points="116.29,-85 106.29,-88.5 116.29,-92 116.29,-85"/>
</g>
<!-- Node5 -->
<g id="node5" class="node">
<title>Node5</title>
<g id="a_node5"><a xlink:href="classDynExpInstr_1_1DummyDataStreamInstrumentTasks_1_1ExitTask.html" target="_top" xlink:title=" ">
<polygon fill="white" stroke="black" points="742.5,-392.5 742.5,-422.5 921.5,-422.5 921.5,-392.5 742.5,-392.5"/>
<text text-anchor="start" x="750.5" y="-410.5" font-family="Helvetica,sans-Serif" font-size="10.00">DynExpInstr::DummyDataStream</text>
<text text-anchor="middle" x="832" y="-399.5" font-family="Helvetica,sans-Serif" font-size="10.00">InstrumentTasks::ExitTask</text>
</a>
</g>
</g>
<!-- Node4&#45;&gt;Node5 -->
<g id="edge4" class="edge">
<title>Node4&#45;&gt;Node5</title>
<path fill="none" stroke="midnightblue" d="M641.25,-306.75C663.93,-329.26 701.93,-363.5 741,-383.5 747.62,-386.89 754.77,-389.84 762.04,-392.39"/>
<polygon fill="midnightblue" stroke="midnightblue" points="643.69,-304.24 634.16,-299.61 638.72,-309.17 643.69,-304.24"/>
</g>
<!-- Node6 -->
<g id="node6" class="node">
<title>Node6</title>
<g id="a_node6"><a xlink:href="classDynExpInstr_1_1OutputPortTasks_1_1ExitTask.html" target="_top" xlink:title="Defines a task for deinitializing an instrument within an instrument inheritance hierarchy....">
<polygon fill="white" stroke="black" points="751.5,-343.5 751.5,-373.5 912.5,-373.5 912.5,-343.5 751.5,-343.5"/>
<text text-anchor="start" x="759.5" y="-361.5" font-family="Helvetica,sans-Serif" font-size="10.00">DynExpInstr::OutputPortTasks</text>
<text text-anchor="middle" x="832" y="-350.5" font-family="Helvetica,sans-Serif" font-size="10.00">::ExitTask</text>
</a>
</g>
</g>
<!-- Node4&#45;&gt;Node6 -->
<g id="edge5" class="edge">
<title>Node4&#45;&gt;Node6</title>
<path fill="none" stroke="midnightblue" d="M662.63,-303.72C685.58,-313.66 714.53,-325.54 741,-334.5 750.34,-337.66 760.35,-340.68 770.16,-343.44"/>
<polygon fill="midnightblue" stroke="midnightblue" points="663.76,-300.4 653.19,-299.6 660.96,-306.81 663.76,-300.4"/>
</g>
<!-- Node11 -->
<g id="node11" class="node">
<title>Node11</title>
<g id="a_node11"><a xlink:href="classDynExpInstr_1_1RS__SMB100BTasks_1_1ExitTask.html" target="_top" xlink:title=" ">
<polygon fill="white" stroke="black" points="745.5,-294.5 745.5,-324.5 918.5,-324.5 918.5,-294.5 745.5,-294.5"/>
<text text-anchor="start" x="753.5" y="-312.5" font-family="Helvetica,sans-Serif" font-size="10.00">DynExpInstr::RS_SMB100BTasks</text>
<text text-anchor="middle" x="832" y="-301.5" font-family="Helvetica,sans-Serif" font-size="10.00">::ExitTask</text>
</a>
</g>
</g>
<!-- Node4&#45;&gt;Node11 -->
<g id="edge10" class="edge">
<title>Node4&#45;&gt;Node11</title>
<path fill="none" stroke="midnightblue" d="M715.23,-295.78C725.31,-296.98 735.51,-298.19 745.47,-299.37"/>
<polygon fill="midnightblue" stroke="midnightblue" points="715.56,-292.3 705.21,-294.6 714.73,-299.25 715.56,-292.3"/>
</g>
<!-- Node12 -->
<g id="node12" class="node">
<title>Node12</title>
<g id="a_node12"><a xlink:href="classDynExpInstr_1_1RS__SMC100ATasks_1_1ExitTask.html" target="_top" xlink:title=" ">
<polygon fill="white" stroke="black" points="745.5,-245.5 745.5,-275.5 918.5,-275.5 918.5,-245.5 745.5,-245.5"/>
<text text-anchor="start" x="753.5" y="-263.5" font-family="Helvetica,sans-Serif" font-size="10.00">DynExpInstr::RS_SMC100ATasks</text>
<text text-anchor="middle" x="832" y="-252.5" font-family="Helvetica,sans-Serif" font-size="10.00">::ExitTask</text>
</a>
</g>
</g>
<!-- Node4&#45;&gt;Node12 -->
<g id="edge11" class="edge">
<title>Node4&#45;&gt;Node12</title>
<path fill="none" stroke="midnightblue" d="M715.23,-273.67C725.31,-272.52 735.51,-271.36 745.47,-270.23"/>
<polygon fill="midnightblue" stroke="midnightblue" points="714.75,-270.2 705.21,-274.81 715.55,-277.15 714.75,-270.2"/>
</g>
<!-- Node13 -->
<g id="node13" class="node">
<title>Node13</title>
<g id="a_node13"><a xlink:href="classDynExpInstr_1_1SwabianInstrumentsPulseStreamerTasks_1_1ExitTask.html" target="_top" xlink:title=" ">
<polygon fill="white" stroke="black" points="741,-196.5 741,-226.5 923,-226.5 923,-196.5 741,-196.5"/>
<text text-anchor="start" x="749" y="-214.5" font-family="Helvetica,sans-Serif" font-size="10.00">DynExpInstr::SwabianInstruments</text>
<text text-anchor="middle" x="832" y="-203.5" font-family="Helvetica,sans-Serif" font-size="10.00">PulseStreamerTasks::ExitTask</text>
</a>
</g>
</g>
<!-- Node4&#45;&gt;Node13 -->
<g id="edge12" class="edge">
<title>Node4&#45;&gt;Node13</title>
<path fill="none" stroke="midnightblue" d="M664.47,-265.54C687.16,-256.21 715.32,-245.13 741,-236.5 751.3,-233.04 762.37,-229.68 773.11,-226.6"/>
<polygon fill="midnightblue" stroke="midnightblue" points="663,-262.36 655.11,-269.42 665.68,-268.83 663,-262.36"/>
</g>
<!-- Node7 -->
<g id="node7" class="node">
<title>Node7</title>
<g id="a_node7"><a xlink:href="classDynExpInstr_1_1AnalogOutTasks_1_1ExitTask.html" target="_top" xlink:title="Defines a task for deinitializing an instrument within an instrument inheritance hierarchy....">
<polygon fill="white" stroke="black" points="959,-367.5 959,-397.5 1119,-397.5 1119,-367.5 959,-367.5"/>
<text text-anchor="start" x="967" y="-385.5" font-family="Helvetica,sans-Serif" font-size="10.00">DynExpInstr::AnalogOutTasks</text>
<text text-anchor="middle" x="1039" y="-374.5" font-family="Helvetica,sans-Serif" font-size="10.00">::ExitTask</text>
</a>
</g>
</g>
<!-- Node6&#45;&gt;Node7 -->
<g id="edge6" class="edge">
<title>Node6&#45;&gt;Node7</title>
<path fill="none" stroke="midnightblue" d="M922.61,-368.99C934.67,-370.4 946.97,-371.84 958.83,-373.23"/>
<polygon fill="midnightblue" stroke="midnightblue" points="922.89,-365.5 912.55,-367.81 922.08,-372.45 922.89,-365.5"/>
</g>
<!-- Node9 -->
<g id="node9" class="node">
<title>Node9</title>
<g id="a_node9"><a xlink:href="classDynExpInstr_1_1DigitalOutTasks_1_1ExitTask.html" target="_top" xlink:title="Defines a task for deinitializing an instrument within an instrument inheritance hierarchy....">
<polygon fill="white" stroke="black" points="960,-318.5 960,-348.5 1118,-348.5 1118,-318.5 960,-318.5"/>
<text text-anchor="start" x="968" y="-336.5" font-family="Helvetica,sans-Serif" font-size="10.00">DynExpInstr::DigitalOutTasks</text>
<text text-anchor="middle" x="1039" y="-325.5" font-family="Helvetica,sans-Serif" font-size="10.00">::ExitTask</text>
</a>
</g>
</g>
<!-- Node6&#45;&gt;Node9 -->
<g id="edge8" class="edge">
<title>Node6&#45;&gt;Node9</title>
<path fill="none" stroke="midnightblue" d="M922.83,-347.54C935.16,-346.04 947.74,-344.51 959.84,-343.03"/>
<polygon fill="midnightblue" stroke="midnightblue" points="922.05,-344.11 912.55,-348.8 922.9,-351.06 922.05,-344.11"/>
</g>
<!-- Node8 -->
<g id="node8" class="node">
<title>Node8</title>
<g id="a_node8"><a xlink:href="classDynExpInstr_1_1NIDAQAnalogOutTasks_1_1ExitTask.html" target="_top" xlink:title=" ">
<polygon fill="white" stroke="black" points="1155,-367.5 1155,-397.5 1303,-397.5 1303,-367.5 1155,-367.5"/>
<text text-anchor="start" x="1163" y="-385.5" font-family="Helvetica,sans-Serif" font-size="10.00">DynExpInstr::NIDAQAnalog</text>
<text text-anchor="middle" x="1229" y="-374.5" font-family="Helvetica,sans-Serif" font-size="10.00">OutTasks::ExitTask</text>
</a>
</g>
</g>
<!-- Node7&#45;&gt;Node8 -->
<g id="edge7" class="edge">
<title>Node7&#45;&gt;Node8</title>
<path fill="none" stroke="midnightblue" d="M1129.23,-382.5C1137.83,-382.5 1146.48,-382.5 1154.9,-382.5"/>
<polygon fill="midnightblue" stroke="midnightblue" points="1129.18,-379 1119.18,-382.5 1129.18,-386 1129.18,-379"/>
</g>
<!-- Node10 -->
<g id="node10" class="node">
<title>Node10</title>
<g id="a_node10"><a xlink:href="classDynExpInstr_1_1NIDAQDigitalOutTasks_1_1ExitTask.html" target="_top" xlink:title=" ">
<polygon fill="white" stroke="black" points="1156,-318.5 1156,-348.5 1302,-348.5 1302,-318.5 1156,-318.5"/>
<text text-anchor="start" x="1164" y="-336.5" font-family="Helvetica,sans-Serif" font-size="10.00">DynExpInstr::NIDAQDigital</text>
<text text-anchor="middle" x="1229" y="-325.5" font-family="Helvetica,sans-Serif" font-size="10.00">OutTasks::ExitTask</text>
</a>
</g>
</g>
<!-- Node9&#45;&gt;Node10 -->
<g id="edge9" class="edge">
<title>Node9&#45;&gt;Node10</title>
<path fill="none" stroke="midnightblue" d="M1128.13,-333.5C1137.42,-333.5 1146.79,-333.5 1155.86,-333.5"/>
<polygon fill="midnightblue" stroke="midnightblue" points="1128.1,-330 1118.1,-333.5 1128.1,-337 1128.1,-330"/>
</g>
<!-- Node15 -->
<g id="node15" class="node">
<title>Node15</title>
<g id="a_node15"><a xlink:href="classDynExpInstr_1_1AnalogInTasks_1_1ExitTask.html" target="_top" xlink:title="Defines a task for deinitializing an instrument within an instrument inheritance hierarchy....">
<polygon fill="white" stroke="black" points="756,-147.5 756,-177.5 908,-177.5 908,-147.5 756,-147.5"/>
<text text-anchor="start" x="764" y="-165.5" font-family="Helvetica,sans-Serif" font-size="10.00">DynExpInstr::AnalogInTasks</text>
<text text-anchor="middle" x="832" y="-154.5" font-family="Helvetica,sans-Serif" font-size="10.00">::ExitTask</text>
</a>
</g>
</g>
<!-- Node14&#45;&gt;Node15 -->
<g id="edge14" class="edge">
<title>Node14&#45;&gt;Node15</title>
<path fill="none" stroke="midnightblue" d="M694.63,-130.83C718.06,-136.27 743.71,-142.23 766.38,-147.49"/>
<polygon fill="midnightblue" stroke="midnightblue" points="695.27,-127.39 684.74,-128.53 693.69,-134.21 695.27,-127.39"/>
</g>
<!-- Node17 -->
<g id="node17" class="node">
<title>Node17</title>
<g id="a_node17"><a xlink:href="classDynExpInstr_1_1DigitalInTasks_1_1ExitTask.html" target="_top" xlink:title="Defines a task for deinitializing an instrument within an instrument inheritance hierarchy....">
<polygon fill="white" stroke="black" points="757,-98.5 757,-128.5 907,-128.5 907,-98.5 757,-98.5"/>
<text text-anchor="start" x="765" y="-116.5" font-family="Helvetica,sans-Serif" font-size="10.00">DynExpInstr::DigitalInTasks</text>
<text text-anchor="middle" x="832" y="-105.5" font-family="Helvetica,sans-Serif" font-size="10.00">::ExitTask</text>
</a>
</g>
</g>
<!-- Node14&#45;&gt;Node17 -->
<g id="edge16" class="edge">
<title>Node14&#45;&gt;Node17</title>
<path fill="none" stroke="midnightblue" d="M705.94,-113.5C722.76,-113.5 740.26,-113.5 756.66,-113.5"/>
<polygon fill="midnightblue" stroke="midnightblue" points="705.58,-110 695.58,-113.5 705.58,-117 705.58,-110"/>
</g>
<!-- Node16 -->
<g id="node16" class="node">
<title>Node16</title>
<g id="a_node16"><a xlink:href="classDynExpInstr_1_1NIDAQAnalogInTasks_1_1ExitTask.html" target="_top" xlink:title=" ">
<polygon fill="white" stroke="black" points="965,-147.5 965,-177.5 1113,-177.5 1113,-147.5 965,-147.5"/>
<text text-anchor="start" x="973" y="-165.5" font-family="Helvetica,sans-Serif" font-size="10.00">DynExpInstr::NIDAQAnalog</text>
<text text-anchor="middle" x="1039" y="-154.5" font-family="Helvetica,sans-Serif" font-size="10.00">InTasks::ExitTask</text>
</a>
</g>
</g>
<!-- Node15&#45;&gt;Node16 -->
<g id="edge15" class="edge">
<title>Node15&#45;&gt;Node16</title>
<path fill="none" stroke="midnightblue" d="M918.26,-162.5C933.75,-162.5 949.79,-162.5 964.89,-162.5"/>
<polygon fill="midnightblue" stroke="midnightblue" points="918.17,-159 908.17,-162.5 918.17,-166 918.17,-159"/>
</g>
<!-- Node18 -->
<g id="node18" class="node">
<title>Node18</title>
<g id="a_node18"><a xlink:href="classDynExpInstr_1_1NIDAQDigitalInTasks_1_1ExitTask.html" target="_top" xlink:title=" ">
<polygon fill="white" stroke="black" points="966,-98.5 966,-128.5 1112,-128.5 1112,-98.5 966,-98.5"/>
<text text-anchor="start" x="974" y="-116.5" font-family="Helvetica,sans-Serif" font-size="10.00">DynExpInstr::NIDAQDigital</text>
<text text-anchor="middle" x="1039" y="-105.5" font-family="Helvetica,sans-Serif" font-size="10.00">InTasks::ExitTask</text>
</a>
</g>
</g>
<!-- Node17&#45;&gt;Node18 -->
<g id="edge17" class="edge">
<title>Node17&#45;&gt;Node18</title>
<path fill="none" stroke="midnightblue" d="M917.46,-113.5C933.51,-113.5 950.18,-113.5 965.81,-113.5"/>
<polygon fill="midnightblue" stroke="midnightblue" points="917.01,-110 907.01,-113.5 917.01,-117 917.01,-110"/>
</g>
<!-- Node20 -->
<g id="node20" class="node">
<title>Node20</title>
<g id="a_node20"><a xlink:href="classDynExpInstr_1_1ZI__MFLITasks_1_1ExitTask.html" target="_top" xlink:title=" ">
<polygon fill="white" stroke="black" points="758.5,-49.5 758.5,-79.5 905.5,-79.5 905.5,-49.5 758.5,-49.5"/>
<text text-anchor="start" x="766.5" y="-67.5" font-family="Helvetica,sans-Serif" font-size="10.00">DynExpInstr::ZI_MFLITasks</text>
<text text-anchor="middle" x="832" y="-56.5" font-family="Helvetica,sans-Serif" font-size="10.00">::ExitTask</text>
</a>
</g>
</g>
<!-- Node19&#45;&gt;Node20 -->
<g id="edge19" class="edge">
<title>Node19&#45;&gt;Node20</title>
<path fill="none" stroke="midnightblue" d="M708.53,-64.5C725.16,-64.5 742.37,-64.5 758.45,-64.5"/>
<polygon fill="midnightblue" stroke="midnightblue" points="708.27,-61 698.27,-64.5 708.27,-68 708.27,-61"/>
</g>
<!-- Node22 -->
<g id="node22" class="node">
<title>Node22</title>
<g id="a_node22"><a xlink:href="classDynExpInstr_1_1QutoolsQuTAGTasks_1_1ExitTask.html" target="_top" xlink:title=" ">
<polygon fill="white" stroke="black" points="742.5,-0.5 742.5,-30.5 921.5,-30.5 921.5,-0.5 742.5,-0.5"/>
<text text-anchor="start" x="750.5" y="-18.5" font-family="Helvetica,sans-Serif" font-size="10.00">DynExpInstr::QutoolsQuTAGTasks</text>
<text text-anchor="middle" x="832" y="-7.5" font-family="Helvetica,sans-Serif" font-size="10.00">::ExitTask</text>
</a>
</g>
</g>
<!-- Node21&#45;&gt;Node22 -->
<g id="edge21" class="edge">
<title>Node21&#45;&gt;Node22</title>
<path fill="none" stroke="midnightblue" d="M712.47,-15.5C722.41,-15.5 732.51,-15.5 742.41,-15.5"/>
<polygon fill="midnightblue" stroke="midnightblue" points="712.18,-12 702.18,-15.5 712.18,-19 712.18,-12"/>
</g>
</g>
</svg>
