<?xml version="1.0" encoding="UTF-8" standalone="no"?>
<!DOCTYPE svg PUBLIC "-//W3C//DTD SVG 1.1//EN"
 "http://www.w3.org/Graphics/SVG/1.1/DTD/svg11.dtd">
<!-- Generated by graphviz version 2.43.0 (0)
 -->
<!-- Title: DynExp::Object Pages: 1 -->
<svg width="1085pt" height="987pt"
 viewBox="0.00 0.00 1085.00 987.00" xmlns="http://www.w3.org/2000/svg" xmlns:xlink="http://www.w3.org/1999/xlink">
<g id="graph0" class="graph" transform="scale(1 1) rotate(0) translate(4 983)">
<title>DynExp::Object</title>
<!-- Node1 -->
<g id="Node000001" class="node">
<title>Node1</title>
<g id="a_Node000001"><a xlink:title="Base class for all DynExp Objects like hardware adapters (DynExp::HardwareAdapterBase),...">
<polygon fill="#999999" stroke="#666666" points="92,-676 0,-676 0,-657 92,-657 92,-676"/>
<text text-anchor="middle" x="46" y="-664" font-family="Helvetica,sans-Serif" font-size="10.00">DynExp::Object</text>
</a>
</g>
</g>
<!-- Node2 -->
<g id="Node000002" class="node">
<title>Node2</title>
<g id="a_Node000002"><a xlink:href="classDynExp_1_1HardwareAdapterBase.html" target="_top" xlink:title="Defines the base class for a hardware adapter object. Hardware adapters describe interfaces/connectio...">
<polygon fill="white" stroke="#666666" points="298,-770 128,-770 128,-751 298,-751 298,-770"/>
<text text-anchor="middle" x="213" y="-758" font-family="Helvetica,sans-Serif" font-size="10.00">DynExp::HardwareAdapterBase</text>
</a>
</g>
</g>
<!-- Node1&#45;&gt;Node2 -->
<g id="edge1_Node000001_Node000002" class="edge">
<title>Node1&#45;&gt;Node2</title>
<g id="a_edge1_Node000001_Node000002"><a xlink:title=" ">
<path fill="none" stroke="#63b8ff" d="M72.65,-681.11C106.81,-700.57 166.29,-734.46 195.23,-750.94"/>
<polygon fill="#63b8ff" stroke="#63b8ff" points="74.15,-677.94 63.73,-676.03 70.69,-684.02 74.15,-677.94"/>
</a>
</g>
</g>
<!-- Node15 -->
<g id="Node000015" class="node">
<title>Node15</title>
<g id="a_Node000015"><a xlink:href="classDynExp_1_1RunnableObject.html" target="_top" xlink:title="Defines an Object which possesses a thread it runs in. The RunnableObject can be started and stopped ...">
<polygon fill="white" stroke="#666666" points="281.5,-583 144.5,-583 144.5,-564 281.5,-564 281.5,-583"/>
<text text-anchor="middle" x="213" y="-571" font-family="Helvetica,sans-Serif" font-size="10.00">DynExp::RunnableObject</text>
</a>
</g>
</g>
<!-- Node1&#45;&gt;Node15 -->
<g id="edge14_Node000001_Node000015" class="edge">
<title>Node1&#45;&gt;Node15</title>
<g id="a_edge14_Node000001_Node000015"><a xlink:title=" ">
<path fill="none" stroke="#63b8ff" d="M72.94,-651.88C106.98,-632.69 165.8,-599.54 194.81,-583.19"/>
<polygon fill="#63b8ff" stroke="#63b8ff" points="71.03,-648.94 64.04,-656.9 74.47,-655.04 71.03,-648.94"/>
</a>
</g>
</g>
<!-- Node3 -->
<g id="Node000003" class="node">
<title>Node3</title>
<g id="a_Node000003"><a xlink:href="classDynExpHardware_1_1gRPCHardwareAdapter.html" target="_top" xlink:title=" ">
<polygon fill="white" stroke="#666666" points="530,-979 350,-979 350,-938 530,-938 530,-979"/>
<text text-anchor="start" x="358" y="-967" font-family="Helvetica,sans-Serif" font-size="10.00">DynExpHardware::gRPCHardware</text>
<text text-anchor="start" x="358" y="-956" font-family="Helvetica,sans-Serif" font-size="10.00">Adapter&lt; pulse_streamer</text>
<text text-anchor="middle" x="440" y="-945" font-family="Helvetica,sans-Serif" font-size="10.00">::PulseStreamer &gt;</text>
</a>
</g>
</g>
<!-- Node2&#45;&gt;Node3 -->
<g id="edge2_Node000002_Node000003" class="edge">
<title>Node2&#45;&gt;Node3</title>
<g id="a_edge2_Node000002_Node000003"><a xlink:title=" ">
<path fill="none" stroke="#63b8ff" d="M222.41,-779.74C238.7,-814.77 278,-888.99 334,-928.5 339.03,-932.05 344.48,-935.19 350.16,-937.95"/>
<polygon fill="#63b8ff" stroke="#63b8ff" points="225.4,-777.87 218.09,-770.21 219.03,-780.76 225.4,-777.87"/>
</a>
</g>
</g>
<!-- Node5 -->
<g id="Node000005" class="node">
<title>Node5</title>
<g id="a_Node000005"><a xlink:href="classDynExp_1_1SerialCommunicationHardwareAdapter.html" target="_top" xlink:title="Defines a hardware adapter for serial communication. Logical const&#45;ness: see declaration of class Dyn...">
<polygon fill="white" stroke="#666666" points="522.5,-919.5 357.5,-919.5 357.5,-889.5 522.5,-889.5 522.5,-919.5"/>
<text text-anchor="start" x="365.5" y="-907.5" font-family="Helvetica,sans-Serif" font-size="10.00">DynExp::SerialCommunication</text>
<text text-anchor="middle" x="440" y="-896.5" font-family="Helvetica,sans-Serif" font-size="10.00">HardwareAdapter</text>
</a>
</g>
</g>
<!-- Node2&#45;&gt;Node5 -->
<g id="edge4_Node000002_Node000005" class="edge">
<title>Node2&#45;&gt;Node5</title>
<g id="a_edge4_Node000002_Node000005"><a xlink:title=" ">
<path fill="none" stroke="#63b8ff" d="M226.65,-778.46C246.4,-805.07 287.18,-854.61 334,-880.5 341.28,-884.53 349.21,-887.88 357.33,-890.67"/>
<polygon fill="#63b8ff" stroke="#63b8ff" points="229.28,-776.12 220.57,-770.08 223.61,-780.23 229.28,-776.12"/>
</a>
</g>
</g>
<!-- Node9 -->
<g id="Node000009" class="node">
<title>Node9</title>
<g id="a_Node000009"><a xlink:href="classDynExpHardware_1_1NIDAQHardwareAdapter.html" target="_top" xlink:title=" ">
<polygon fill="white" stroke="#666666" points="533.5,-871.5 346.5,-871.5 346.5,-841.5 533.5,-841.5 533.5,-871.5"/>
<text text-anchor="start" x="354.5" y="-859.5" font-family="Helvetica,sans-Serif" font-size="10.00">DynExpHardware::NIDAQHardware</text>
<text text-anchor="middle" x="440" y="-848.5" font-family="Helvetica,sans-Serif" font-size="10.00">Adapter</text>
</a>
</g>
</g>
<!-- Node2&#45;&gt;Node9 -->
<g id="edge8_Node000002_Node000009" class="edge">
<title>Node2&#45;&gt;Node9</title>
<g id="a_edge8_Node000002_Node000009"><a xlink:title=" ">
<path fill="none" stroke="#63b8ff" d="M235.32,-776.15C258.51,-792.47 297.19,-817.69 334,-832.5 342.41,-835.89 351.41,-838.85 360.46,-841.43"/>
<polygon fill="#63b8ff" stroke="#63b8ff" points="237.12,-773.14 226.95,-770.17 233.05,-778.83 237.12,-773.14"/>
</a>
</g>
</g>
<!-- Node10 -->
<g id="Node000010" class="node">
<title>Node10</title>
<g id="a_Node000010"><a xlink:href="classDynExpHardware_1_1PVCamHardwareAdapter.html" target="_top" xlink:title=" ">
<polygon fill="white" stroke="#666666" points="535,-823.5 345,-823.5 345,-793.5 535,-793.5 535,-823.5"/>
<text text-anchor="start" x="353" y="-811.5" font-family="Helvetica,sans-Serif" font-size="10.00">DynExpHardware::PVCamHardware</text>
<text text-anchor="middle" x="440" y="-800.5" font-family="Helvetica,sans-Serif" font-size="10.00">Adapter</text>
</a>
</g>
</g>
<!-- Node2&#45;&gt;Node10 -->
<g id="edge9_Node000002_Node000010" class="edge">
<title>Node2&#45;&gt;Node10</title>
<g id="a_edge9_Node000002_Node000010"><a xlink:title=" ">
<path fill="none" stroke="#63b8ff" d="M268.62,-772.15C298.71,-778.57 336.4,-786.61 368.67,-793.5"/>
<polygon fill="#63b8ff" stroke="#63b8ff" points="269.23,-768.7 258.72,-770.04 267.77,-775.55 269.23,-768.7"/>
</a>
</g>
</g>
<!-- Node11 -->
<g id="Node000011" class="node">
<title>Node11</title>
<g id="a_Node000011"><a xlink:href="classDynExpHardware_1_1QutoolsTDCHardwareAdapter.html" target="_top" xlink:title=" ">
<polygon fill="white" stroke="#666666" points="546,-775.5 334,-775.5 334,-745.5 546,-745.5 546,-775.5"/>
<text text-anchor="start" x="342" y="-763.5" font-family="Helvetica,sans-Serif" font-size="10.00">DynExpHardware::QutoolsTDCHardware</text>
<text text-anchor="middle" x="440" y="-752.5" font-family="Helvetica,sans-Serif" font-size="10.00">Adapter</text>
</a>
</g>
</g>
<!-- Node2&#45;&gt;Node11 -->
<g id="edge10_Node000002_Node000011" class="edge">
<title>Node2&#45;&gt;Node11</title>
<g id="a_edge10_Node000002_Node000011"><a xlink:title=" ">
<path fill="none" stroke="#63b8ff" d="M308.26,-760.5C316.66,-760.5 325.2,-760.5 333.68,-760.5"/>
<polygon fill="#63b8ff" stroke="#63b8ff" points="308.1,-757 298.1,-760.5 308.1,-764 308.1,-757"/>
</a>
</g>
</g>
<!-- Node12 -->
<g id="Node000012" class="node">
<title>Node12</title>
<g id="a_Node000012"><a xlink:href="classDynExpHardware_1_1SmarActHardwareAdapter.html" target="_top" xlink:title=" ">
<polygon fill="white" stroke="#666666" points="538,-727.5 342,-727.5 342,-697.5 538,-697.5 538,-727.5"/>
<text text-anchor="start" x="350" y="-715.5" font-family="Helvetica,sans-Serif" font-size="10.00">DynExpHardware::SmarActHardware</text>
<text text-anchor="middle" x="440" y="-704.5" font-family="Helvetica,sans-Serif" font-size="10.00">Adapter</text>
</a>
</g>
</g>
<!-- Node2&#45;&gt;Node12 -->
<g id="edge11_Node000002_Node000012" class="edge">
<title>Node2&#45;&gt;Node12</title>
<g id="a_edge11_Node000002_Node000012"><a xlink:title=" ">
<path fill="none" stroke="#63b8ff" d="M268.62,-748.85C298.71,-742.43 336.4,-734.39 368.67,-727.5"/>
<polygon fill="#63b8ff" stroke="#63b8ff" points="267.77,-745.45 258.72,-750.96 269.23,-752.3 267.77,-745.45"/>
</a>
</g>
</g>
<!-- Node13 -->
<g id="Node000013" class="node">
<title>Node13</title>
<g id="a_Node000013"><a xlink:href="classDynExpHardware_1_1ZILabOneHardwareAdapter.html" target="_top" xlink:title=" ">
<polygon fill="white" stroke="#666666" points="517,-679.5 363,-679.5 363,-649.5 517,-649.5 517,-679.5"/>
<text text-anchor="start" x="371" y="-667.5" font-family="Helvetica,sans-Serif" font-size="10.00">DynExpHardware::ZILabOne</text>
<text text-anchor="middle" x="440" y="-656.5" font-family="Helvetica,sans-Serif" font-size="10.00">HardwareAdapter</text>
</a>
</g>
</g>
<!-- Node2&#45;&gt;Node13 -->
<g id="edge12_Node000002_Node000013" class="edge">
<title>Node2&#45;&gt;Node13</title>
<g id="a_edge12_Node000002_Node000013"><a xlink:title=" ">
<path fill="none" stroke="#63b8ff" d="M235.32,-744.85C258.51,-728.53 297.19,-703.31 334,-688.5 343.19,-684.8 353.08,-681.6 362.98,-678.86"/>
<polygon fill="#63b8ff" stroke="#63b8ff" points="233.05,-742.17 226.95,-750.83 237.12,-747.86 233.05,-742.17"/>
</a>
</g>
</g>
<!-- Node14 -->
<g id="Node000014" class="node">
<title>Node14</title>
<g id="a_Node000014"><a xlink:href="classDynExpHardware_1_1gRPCHardwareAdapter.html" target="_top" xlink:title="This template class provides basic functionality to design hardware adapters for instruments which co...">
<polygon fill="white" stroke="#666666" points="530,-631.5 350,-631.5 350,-601.5 530,-601.5 530,-631.5"/>
<text text-anchor="start" x="358" y="-619.5" font-family="Helvetica,sans-Serif" font-size="10.00">DynExpHardware::gRPCHardware</text>
<text text-anchor="middle" x="440" y="-608.5" font-family="Helvetica,sans-Serif" font-size="10.00">Adapter&lt; gRPCStub &gt;</text>
</a>
</g>
</g>
<!-- Node2&#45;&gt;Node14 -->
<g id="edge13_Node000002_Node000014" class="edge">
<title>Node2&#45;&gt;Node14</title>
<g id="a_edge13_Node000002_Node000014"><a xlink:title=" ">
<path fill="none" stroke="#63b8ff" d="M226.65,-742.54C246.4,-715.93 287.18,-666.39 334,-640.5 340.22,-637.06 346.9,-634.12 353.78,-631.59"/>
<polygon fill="#63b8ff" stroke="#63b8ff" points="223.61,-740.77 220.57,-750.92 229.28,-744.88 223.61,-740.77"/>
</a>
</g>
</g>
<!-- Node4 -->
<g id="Node000004" class="node">
<title>Node4</title>
<g id="a_Node000004"><a xlink:href="classDynExpHardware_1_1SIPulseStreamerHardwareAdapter.html" target="_top" xlink:title=" ">
<polygon fill="white" stroke="#666666" points="778.5,-973.5 590.5,-973.5 590.5,-943.5 778.5,-943.5 778.5,-973.5"/>
<text text-anchor="start" x="598.5" y="-961.5" font-family="Helvetica,sans-Serif" font-size="10.00">DynExpHardware::SIPulseStreamer</text>
<text text-anchor="middle" x="684.5" y="-950.5" font-family="Helvetica,sans-Serif" font-size="10.00">HardwareAdapter</text>
</a>
</g>
</g>
<!-- Node3&#45;&gt;Node4 -->
<g id="edge3_Node000003_Node000004" class="edge">
<title>Node3&#45;&gt;Node4</title>
<g id="a_edge3_Node000003_Node000004"><a xlink:title=" ">
<path fill="none" stroke="#63b8ff" d="M540.46,-958.5C556.96,-958.5 574.02,-958.5 590.36,-958.5"/>
<polygon fill="#63b8ff" stroke="#63b8ff" points="540.26,-955 530.26,-958.5 540.26,-962 540.26,-955"/>
</a>
</g>
</g>
<!-- Node6 -->
<g id="Node000006" class="node">
<title>Node6</title>
<g id="a_Node000006"><a xlink:href="classDynExp_1_1QSerialCommunicationHardwareAdapter.html" target="_top" xlink:title="SerialCommunicationHardwareAdapter is based on a Qt communication object (wrapped by QSerialCommunica...">
<polygon fill="white" stroke="#666666" points="771,-919.5 598,-919.5 598,-889.5 771,-889.5 771,-919.5"/>
<text text-anchor="start" x="606" y="-907.5" font-family="Helvetica,sans-Serif" font-size="10.00">DynExp::QSerialCommunication</text>
<text text-anchor="middle" x="684.5" y="-896.5" font-family="Helvetica,sans-Serif" font-size="10.00">HardwareAdapter</text>
</a>
</g>
</g>
<!-- Node5&#45;&gt;Node6 -->
<g id="edge5_Node000005_Node000006" class="edge">
<title>Node5&#45;&gt;Node6</title>
<g id="a_edge5_Node000005_Node000006"><a xlink:title=" ">
<path fill="none" stroke="#63b8ff" d="M532.81,-904.5C554.18,-904.5 576.86,-904.5 597.95,-904.5"/>
<polygon fill="#63b8ff" stroke="#63b8ff" points="532.76,-901 522.76,-904.5 532.76,-908 532.76,-901"/>
</a>
</g>
</g>
<!-- Node7 -->
<g id="Node000007" class="node">
<title>Node7</title>
<g id="a_Node000007"><a xlink:href="classDynExp_1_1HardwareAdapterSerialPort.html" target="_top" xlink:title="Implements a hardware adapter to communicate with text&#45;based commands over COM ports.">
<polygon fill="white" stroke="#666666" points="1046.5,-957 853.5,-957 853.5,-938 1046.5,-938 1046.5,-957"/>
<text text-anchor="middle" x="950" y="-945" font-family="Helvetica,sans-Serif" font-size="10.00">DynExp::HardwareAdapterSerialPort</text>
</a>
</g>
</g>
<!-- Node6&#45;&gt;Node7 -->
<g id="edge6_Node000006_Node000007" class="edge">
<title>Node6&#45;&gt;Node7</title>
<g id="a_edge6_Node000006_Node000007"><a xlink:title=" ">
<path fill="none" stroke="#63b8ff" d="M779.76,-921.25C794.23,-923.74 809.01,-926.22 823,-928.5 842.76,-931.71 864.3,-935.03 883.88,-937.97"/>
<polygon fill="#63b8ff" stroke="#63b8ff" points="780.25,-917.78 769.8,-919.53 779.06,-924.68 780.25,-917.78"/>
</a>
</g>
</g>
<!-- Node8 -->
<g id="Node000008" class="node">
<title>Node8</title>
<g id="a_Node000008"><a xlink:href="classDynExp_1_1HardwareAdapterTcpSocket.html" target="_top" xlink:title="Implements a hardware adapter to communicate with text&#45;based commands over TCP sockets.">
<polygon fill="white" stroke="#666666" points="1030.5,-919.5 869.5,-919.5 869.5,-889.5 1030.5,-889.5 1030.5,-919.5"/>
<text text-anchor="start" x="877.5" y="-907.5" font-family="Helvetica,sans-Serif" font-size="10.00">DynExp::HardwareAdapterTcp</text>
<text text-anchor="middle" x="950" y="-896.5" font-family="Helvetica,sans-Serif" font-size="10.00">Socket</text>
</a>
</g>
</g>
<!-- Node6&#45;&gt;Node8 -->
<g id="edge7_Node000006_Node000008" class="edge">
<title>Node6&#45;&gt;Node8</title>
<g id="a_edge7_Node000006_Node000008"><a xlink:title=" ">
<path fill="none" stroke="#63b8ff" d="M781.16,-904.5C810.07,-904.5 841.49,-904.5 869.24,-904.5"/>
<polygon fill="#63b8ff" stroke="#63b8ff" points="781.05,-901 771.05,-904.5 781.05,-908 781.05,-901"/>
</a>
</g>
</g>
<!-- Node16 -->
<g id="Node000016" class="node">
<title>Node16</title>
<g id="a_Node000016"><a xlink:href="classDynExp_1_1InstrumentBase.html" target="_top" xlink:title="Base class for instruments. Instruments comprise virtual devices (meta instruments) and physial devic...">
<polygon fill="white" stroke="#666666" points="508.5,-583 371.5,-583 371.5,-564 508.5,-564 508.5,-583"/>
<text text-anchor="middle" x="440" y="-571" font-family="Helvetica,sans-Serif" font-size="10.00">DynExp::InstrumentBase</text>
</a>
</g>
</g>
<!-- Node15&#45;&gt;Node16 -->
<g id="edge15_Node000015_Node000016" class="edge">
<title>Node15&#45;&gt;Node16</title>
<g id="a_edge15_Node000015_Node000016"><a xlink:title=" ">
<path fill="none" stroke="#63b8ff" d="M291.65,-573.5C317.51,-573.5 346.09,-573.5 371.15,-573.5"/>
<polygon fill="#63b8ff" stroke="#63b8ff" points="291.51,-570 281.51,-573.5 291.51,-577 291.51,-570"/>
</a>
</g>
</g>
<!-- Node51 -->
<g id="Node000051" class="node">
<title>Node51</title>
<g id="a_Node000051"><a xlink:href="classDynExp_1_1ModuleBase.html" target="_top" xlink:title="Base class for modules. Modules implement programs on their own (e.g. measurement protocols or server...">
<polygon fill="white" stroke="#666666" points="500,-174 380,-174 380,-155 500,-155 500,-174"/>
<text text-anchor="middle" x="440" y="-162" font-family="Helvetica,sans-Serif" font-size="10.00">DynExp::ModuleBase</text>
</a>
</g>
</g>
<!-- Node15&#45;&gt;Node51 -->
<g id="edge34_Node000015_Node000051" class="edge">
<title>Node15&#45;&gt;Node51</title>
<g id="a_edge34_Node000015_Node000051"><a xlink:title=" ">
<path fill="none" stroke="#63b8ff" d="M224.18,-554.99C263.44,-483.62 404.25,-227.67 433.61,-174.3"/>
<polygon fill="#63b8ff" stroke="#63b8ff" points="221.09,-553.34 219.34,-563.79 227.23,-556.72 221.09,-553.34"/>
</a>
</g>
</g>
<!-- Node17 -->
<g id="Node000017" class="node">
<title>Node17</title>
<g id="a_Node000017"><a xlink:href="classDynExpInstr_1_1gRPCInstrument.html" target="_top" xlink:title=" ">
<polygon fill="white" stroke="#666666" points="787,-869.5 582,-869.5 582,-817.5 787,-817.5 787,-869.5"/>
<text text-anchor="start" x="590" y="-857.5" font-family="Helvetica,sans-Serif" font-size="10.00">DynExpInstr::gRPCInstrument</text>
<text text-anchor="start" x="590" y="-846.5" font-family="Helvetica,sans-Serif" font-size="10.00">&lt; DynExp::InstrumentBase,</text>
<text text-anchor="start" x="590" y="-835.5" font-family="Helvetica,sans-Serif" font-size="10.00"> 0, DynExpProto::WidefieldLocalization</text>
<text text-anchor="middle" x="684.5" y="-824.5" font-family="Helvetica,sans-Serif" font-size="10.00">::WidefieldLocalization &gt;</text>
</a>
</g>
</g>
<!-- Node16&#45;&gt;Node17 -->
<g id="edge16_Node000016_Node000017" class="edge">
<title>Node16&#45;&gt;Node17</title>
<g id="a_edge16_Node000016_Node000017"><a xlink:title=" ">
<path fill="none" stroke="#63b8ff" d="M518.22,-576.13C528.62,-579.53 538.33,-584.73 546,-592.5 613.78,-661.12 520.31,-732.36 582,-806.5 585.36,-810.54 589.2,-814.13 593.37,-817.34"/>
<polygon fill="#63b8ff" stroke="#63b8ff" points="519.08,-572.74 508.51,-573.49 517.25,-579.49 519.08,-572.74"/>
</a>
</g>
</g>
<!-- Node19 -->
<g id="Node000019" class="node">
<title>Node19</title>
<g id="a_Node000019"><a xlink:href="classDynExpInstr_1_1Camera.html" target="_top" xlink:title="Meta instrument for an image capturing (camera) device.">
<polygon fill="white" stroke="#666666" points="744.5,-797 624.5,-797 624.5,-778 744.5,-778 744.5,-797"/>
<text text-anchor="middle" x="684.5" y="-785" font-family="Helvetica,sans-Serif" font-size="10.00">DynExpInstr::Camera</text>
</a>
</g>
</g>
<!-- Node16&#45;&gt;Node19 -->
<g id="edge18_Node000016_Node000019" class="edge">
<title>Node16&#45;&gt;Node19</title>
<g id="a_edge18_Node000016_Node000019"><a xlink:title=" ">
<path fill="none" stroke="#63b8ff" d="M518.46,-579.53C528.27,-582.53 537.75,-586.71 546,-592.5 572.08,-610.8 564.3,-628 582,-654.5 614.11,-702.56 657.63,-756.27 675.42,-777.8"/>
<polygon fill="#63b8ff" stroke="#63b8ff" points="519.12,-576.08 508.56,-576.9 517.33,-582.85 519.12,-576.08"/>
</a>
</g>
</g>
<!-- Node22 -->
<g id="Node000022" class="node">
<title>Node22</title>
<g id="a_Node000022"><a xlink:href="classDynExpInstr_1_1DataStreamInstrument.html" target="_top" xlink:title="Implementation of the data stream meta instrument, which is a base class for all instruments reading/...">
<polygon fill="white" stroke="#666666" points="781.5,-645 587.5,-645 587.5,-626 781.5,-626 781.5,-645"/>
<text text-anchor="middle" x="684.5" y="-633" font-family="Helvetica,sans-Serif" font-size="10.00">DynExpInstr::DataStreamInstrument</text>
</a>
</g>
</g>
<!-- Node16&#45;&gt;Node22 -->
<g id="edge21_Node000016_Node000022" class="edge">
<title>Node16&#45;&gt;Node22</title>
<g id="a_edge21_Node000016_Node000022"><a xlink:title=" ">
<path fill="none" stroke="#63b8ff" d="M511.14,-584.94C522.84,-587.21 534.8,-589.75 546,-592.5 584.86,-602.05 628.86,-616.46 656.39,-625.92"/>
<polygon fill="#63b8ff" stroke="#63b8ff" points="511.44,-581.44 500.96,-583.03 510.14,-588.32 511.44,-581.44"/>
</a>
</g>
</g>
<!-- Node43 -->
<g id="Node000043" class="node">
<title>Node43</title>
<g id="a_Node000043"><a xlink:href="classDynExpInstr_1_1InterModuleCommunicator.html" target="_top" xlink:title="Defines an inter&#45;module communicator instrument to exchange events in between DynExp modules....">
<polygon fill="white" stroke="#666666" points="754.5,-588.5 614.5,-588.5 614.5,-558.5 754.5,-558.5 754.5,-588.5"/>
<text text-anchor="start" x="622.5" y="-576.5" font-family="Helvetica,sans-Serif" font-size="10.00">DynExpInstr::InterModule</text>
<text text-anchor="middle" x="684.5" y="-565.5" font-family="Helvetica,sans-Serif" font-size="10.00">Communicator</text>
</a>
</g>
</g>
<!-- Node16&#45;&gt;Node43 -->
<g id="edge27_Node000016_Node000043" class="edge">
<title>Node16&#45;&gt;Node43</title>
<g id="a_edge27_Node000016_Node000043"><a xlink:title=" ">
<path fill="none" stroke="#63b8ff" d="M518.78,-573.5C549.45,-573.5 584.41,-573.5 614.2,-573.5"/>
<polygon fill="#63b8ff" stroke="#63b8ff" points="518.55,-570 508.55,-573.5 518.55,-577 518.55,-570"/>
</a>
</g>
</g>
<!-- Node44 -->
<g id="Node000044" class="node">
<title>Node44</title>
<g id="a_Node000044"><a xlink:href="classDynExpInstr_1_1PositionerStage.html" target="_top" xlink:title="Implementation of a meta instrument to control single&#45;axis positioner stages.">
<polygon fill="white" stroke="#666666" points="763.5,-528 605.5,-528 605.5,-509 763.5,-509 763.5,-528"/>
<text text-anchor="middle" x="684.5" y="-516" font-family="Helvetica,sans-Serif" font-size="10.00">DynExpInstr::PositionerStage</text>
</a>
</g>
</g>
<!-- Node16&#45;&gt;Node44 -->
<g id="edge28_Node000016_Node000044" class="edge">
<title>Node16&#45;&gt;Node44</title>
<g id="a_edge28_Node000016_Node000044"><a xlink:title=" ">
<path fill="none" stroke="#63b8ff" d="M492.95,-561.72C537.21,-551.68 600.01,-537.44 641.24,-528.09"/>
<polygon fill="#63b8ff" stroke="#63b8ff" points="491.94,-558.36 482.96,-563.98 493.49,-565.18 491.94,-558.36"/>
</a>
</g>
</g>
<!-- Node48 -->
<g id="Node000048" class="node">
<title>Node48</title>
<g id="a_Node000048"><a xlink:href="classDynExpInstr_1_1Spectrometer.html" target="_top" xlink:title="Meta instrument for a spectrometer.">
<polygon fill="white" stroke="#666666" points="758.5,-461 610.5,-461 610.5,-442 758.5,-442 758.5,-461"/>
<text text-anchor="middle" x="684.5" y="-449" font-family="Helvetica,sans-Serif" font-size="10.00">DynExpInstr::Spectrometer</text>
</a>
</g>
</g>
<!-- Node16&#45;&gt;Node48 -->
<g id="edge32_Node000016_Node000048" class="edge">
<title>Node16&#45;&gt;Node48</title>
<g id="a_edge32_Node000016_Node000048"><a xlink:title=" ">
<path fill="none" stroke="#63b8ff" d="M468.06,-559.2C496.36,-544.32 542.13,-520.44 582,-500.5 610,-486.5 642.65,-470.86 663.2,-461.1"/>
<polygon fill="#63b8ff" stroke="#63b8ff" points="466.39,-556.13 459.17,-563.89 469.65,-562.32 466.39,-556.13"/>
</a>
</g>
</g>
<!-- Node18 -->
<g id="Node000018" class="node">
<title>Node18</title>
<g id="a_Node000018"><a xlink:href="classDynExpInstr_1_1WidefieldLocalization.html" target="_top" xlink:title=" ">
<polygon fill="white" stroke="#666666" points="1043,-871 857,-871 857,-852 1043,-852 1043,-871"/>
<text text-anchor="middle" x="950" y="-859" font-family="Helvetica,sans-Serif" font-size="10.00">DynExpInstr::WidefieldLocalization</text>
</a>
</g>
</g>
<!-- Node17&#45;&gt;Node18 -->
<g id="edge17_Node000017_Node000018" class="edge">
<title>Node17&#45;&gt;Node18</title>
<g id="a_edge17_Node000017_Node000018"><a xlink:title=" ">
<path fill="none" stroke="#63b8ff" d="M797.37,-851.14C817.2,-852.5 837.65,-853.89 856.87,-855.21"/>
<polygon fill="#63b8ff" stroke="#63b8ff" points="797.59,-847.65 787.38,-850.46 797.11,-854.63 797.59,-847.65"/>
</a>
</g>
</g>
<!-- Node20 -->
<g id="Node000020" class="node">
<title>Node20</title>
<g id="a_Node000020"><a xlink:href="classDynExpInstr_1_1DummyCamera.html" target="_top" xlink:title=" ">
<polygon fill="white" stroke="#666666" points="1029.5,-834 870.5,-834 870.5,-815 1029.5,-815 1029.5,-834"/>
<text text-anchor="middle" x="950" y="-822" font-family="Helvetica,sans-Serif" font-size="10.00">DynExpInstr::DummyCamera</text>
</a>
</g>
</g>
<!-- Node19&#45;&gt;Node20 -->
<g id="edge19_Node000019_Node000020" class="edge">
<title>Node19&#45;&gt;Node20</title>
<g id="a_edge19_Node000019_Node000020"><a xlink:title=" ">
<path fill="none" stroke="#63b8ff" d="M754.86,-797.24C793.9,-802.72 842.45,-809.54 881.23,-814.98"/>
<polygon fill="#63b8ff" stroke="#63b8ff" points="755.02,-793.73 744.63,-795.8 754.05,-800.66 755.02,-793.73"/>
</a>
</g>
</g>
<!-- Node21 -->
<g id="Node000021" class="node">
<title>Node21</title>
<g id="a_Node000021"><a xlink:href="classDynExpInstr_1_1PVCam.html" target="_top" xlink:title=" ">
<polygon fill="white" stroke="#666666" points="1008.5,-797 891.5,-797 891.5,-778 1008.5,-778 1008.5,-797"/>
<text text-anchor="middle" x="950" y="-785" font-family="Helvetica,sans-Serif" font-size="10.00">DynExpInstr::PVCam</text>
</a>
</g>
</g>
<!-- Node19&#45;&gt;Node21 -->
<g id="edge20_Node000019_Node000021" class="edge">
<title>Node19&#45;&gt;Node21</title>
<g id="a_edge20_Node000019_Node000021"><a xlink:title=" ">
<path fill="none" stroke="#63b8ff" d="M754.64,-787.5C797.22,-787.5 851.17,-787.5 891.42,-787.5"/>
<polygon fill="#63b8ff" stroke="#63b8ff" points="754.63,-784 744.63,-787.5 754.63,-791 754.63,-784"/>
</a>
</g>
</g>
<!-- Node23 -->
<g id="Node000023" class="node">
<title>Node23</title>
<g id="a_Node000023"><a xlink:href="classDynExpInstr_1_1gRPCInstrument.html" target="_top" xlink:title=" ">
<polygon fill="white" stroke="#666666" points="1030.5,-760 869.5,-760 869.5,-719 1030.5,-719 1030.5,-760"/>
<text text-anchor="start" x="877.5" y="-748" font-family="Helvetica,sans-Serif" font-size="10.00">DynExpInstr::gRPCInstrument</text>
<text text-anchor="start" x="877.5" y="-737" font-family="Helvetica,sans-Serif" font-size="10.00">&lt; DataStreamInstrument,</text>
<text text-anchor="middle" x="950" y="-726" font-family="Helvetica,sans-Serif" font-size="10.00"> 0, gRPCStubs... &gt;</text>
</a>
</g>
</g>
<!-- Node22&#45;&gt;Node23 -->
<g id="edge22_Node000022_Node000023" class="edge">
<title>Node22&#45;&gt;Node23</title>
<g id="a_edge22_Node000022_Node000023"><a xlink:title=" ">
<path fill="none" stroke="#63b8ff" d="M708.7,-650.74C735.3,-667.58 780.7,-694.44 823,-710.5 837.69,-716.08 853.77,-720.77 869.37,-724.65"/>
<polygon fill="#63b8ff" stroke="#63b8ff" points="710.42,-647.68 700.11,-645.23 706.64,-653.57 710.42,-647.68"/>
</a>
</g>
</g>
<!-- Node24 -->
<g id="Node000024" class="node">
<title>Node24</title>
<g id="a_Node000024"><a xlink:href="classDynExpInstr_1_1FunctionGenerator.html" target="_top" xlink:title="Function generator meta instrument based on the data stream meta instrument to generate waveforms by ...">
<polygon fill="#fff0f0" stroke="red" points="1036,-701 864,-701 864,-682 1036,-682 1036,-701"/>
<text text-anchor="middle" x="950" y="-689" font-family="Helvetica,sans-Serif" font-size="10.00">DynExpInstr::FunctionGenerator</text>
</a>
</g>
</g>
<!-- Node22&#45;&gt;Node24 -->
<g id="edge23_Node000022_Node000024" class="edge">
<title>Node22&#45;&gt;Node24</title>
<g id="a_edge23_Node000022_Node000024"><a xlink:title=" ">
<path fill="none" stroke="#63b8ff" d="M725.39,-647.98C752.66,-656.15 789.75,-666.56 823,-673.5 838.47,-676.73 855.12,-679.56 871.1,-681.96"/>
<polygon fill="#63b8ff" stroke="#63b8ff" points="726.39,-644.63 715.81,-645.08 724.37,-651.33 726.39,-644.63"/>
</a>
</g>
</g>
<!-- Node34 -->
<g id="Node000034" class="node">
<title>Node34</title>
<g id="a_Node000034"><a xlink:href="classDynExpInstr_1_1InputPort.html" target="_top" xlink:title="Generic input port meta instrument based on the data stream meta instrument to read data from hardwar...">
<polygon fill="#fff0f0" stroke="red" points="1013,-664 887,-664 887,-645 1013,-645 1013,-664"/>
<text text-anchor="middle" x="950" y="-652" font-family="Helvetica,sans-Serif" font-size="10.00">DynExpInstr::InputPort</text>
</a>
</g>
</g>
<!-- Node22&#45;&gt;Node34 -->
<g id="edge24_Node000022_Node000034" class="edge">
<title>Node22&#45;&gt;Node34</title>
<g id="a_edge24_Node000022_Node000034"><a xlink:title=" ">
<path fill="none" stroke="#63b8ff" d="M792.09,-643.19C824.21,-645.5 858.39,-647.97 886.63,-650"/>
<polygon fill="#63b8ff" stroke="#63b8ff" points="791.97,-639.67 781.75,-642.44 791.47,-646.65 791.97,-639.67"/>
</a>
</g>
</g>
<!-- Node39 -->
<g id="Node000039" class="node">
<title>Node39</title>
<g id="a_Node000039"><a xlink:href="classDynExpInstr_1_1LockinAmplifier.html" target="_top" xlink:title="Meta instrument for a lock&#45;in amplifier based on the data stream meta instrument.">
<polygon fill="#fff0f0" stroke="red" points="1029,-627 871,-627 871,-608 1029,-608 1029,-627"/>
<text text-anchor="middle" x="950" y="-615" font-family="Helvetica,sans-Serif" font-size="10.00">DynExpInstr::LockinAmplifier</text>
</a>
</g>
</g>
<!-- Node22&#45;&gt;Node39 -->
<g id="edge25_Node000022_Node000039" class="edge">
<title>Node22&#45;&gt;Node39</title>
<g id="a_edge25_Node000022_Node000039"><a xlink:title=" ">
<path fill="none" stroke="#63b8ff" d="M791.78,-628.24C818.15,-626.44 845.95,-624.54 870.71,-622.85"/>
<polygon fill="#63b8ff" stroke="#63b8ff" points="791.49,-624.75 781.75,-628.93 791.96,-631.74 791.49,-624.75"/>
</a>
</g>
</g>
<!-- Node41 -->
<g id="Node000041" class="node">
<title>Node41</title>
<g id="a_Node000041"><a xlink:href="classDynExpInstr_1_1TimeTagger.html" target="_top" xlink:title="Meta instrument for a time tagging device to assign timestamps to (e.g. photon) detection events base...">
<polygon fill="#fff0f0" stroke="red" points="1019.5,-590 880.5,-590 880.5,-571 1019.5,-571 1019.5,-590"/>
<text text-anchor="middle" x="950" y="-578" font-family="Helvetica,sans-Serif" font-size="10.00">DynExpInstr::TimeTagger</text>
</a>
</g>
</g>
<!-- Node22&#45;&gt;Node41 -->
<g id="edge26_Node000022_Node000041" class="edge">
<title>Node22&#45;&gt;Node41</title>
<g id="a_edge26_Node000022_Node000041"><a xlink:title=" ">
<path fill="none" stroke="#63b8ff" d="M727.96,-623.13C754.99,-615.57 790.85,-606.11 823,-599.5 841.53,-595.69 861.73,-592.3 880.43,-589.49"/>
<polygon fill="#63b8ff" stroke="#63b8ff" points="726.73,-619.85 718.05,-625.93 728.63,-626.58 726.73,-619.85"/>
</a>
</g>
</g>
<!-- Node45 -->
<g id="Node000045" class="node">
<title>Node45</title>
<g id="a_Node000045"><a xlink:href="classDynExpInstr_1_1NenionLeakvalveF3.html" target="_top" xlink:title=" ">
<polygon fill="white" stroke="#666666" points="1039.5,-553 860.5,-553 860.5,-534 1039.5,-534 1039.5,-553"/>
<text text-anchor="middle" x="950" y="-541" font-family="Helvetica,sans-Serif" font-size="10.00">DynExpInstr::NenionLeakvalveF3</text>
</a>
</g>
</g>
<!-- Node44&#45;&gt;Node45 -->
<g id="edge29_Node000044_Node000045" class="edge">
<title>Node44&#45;&gt;Node45</title>
<g id="a_edge29_Node000044_Node000045"><a xlink:title=" ">
<path fill="none" stroke="#63b8ff" d="M773.95,-526.89C801.77,-529.53 832.49,-532.45 860.33,-535.09"/>
<polygon fill="#63b8ff" stroke="#63b8ff" points="774.13,-523.39 763.85,-525.93 773.47,-530.36 774.13,-523.39"/>
</a>
</g>
</g>
<!-- Node46 -->
<g id="Node000046" class="node">
<title>Node46</title>
<g id="a_Node000046"><a xlink:href="classDynExpInstr_1_1PI__C__862.html" target="_top" xlink:title=" ">
<polygon fill="white" stroke="#666666" points="1013,-516 887,-516 887,-497 1013,-497 1013,-516"/>
<text text-anchor="middle" x="950" y="-504" font-family="Helvetica,sans-Serif" font-size="10.00">DynExpInstr::PI_C_862</text>
</a>
</g>
</g>
<!-- Node44&#45;&gt;Node46 -->
<g id="edge30_Node000044_Node000046" class="edge">
<title>Node44&#45;&gt;Node46</title>
<g id="a_edge30_Node000044_Node000046"><a xlink:title=" ">
<path fill="none" stroke="#63b8ff" d="M774.13,-514.46C811.13,-512.78 853.22,-510.86 886.83,-509.33"/>
<polygon fill="#63b8ff" stroke="#63b8ff" points="773.68,-510.98 763.85,-514.93 773.99,-517.97 773.68,-510.98"/>
</a>
</g>
</g>
<!-- Node47 -->
<g id="Node000047" class="node">
<title>Node47</title>
<g id="a_Node000047"><a xlink:href="classDynExpInstr_1_1SmarAct.html" target="_top" xlink:title=" ">
<polygon fill="white" stroke="#666666" points="1011.5,-479 888.5,-479 888.5,-460 1011.5,-460 1011.5,-479"/>
<text text-anchor="middle" x="950" y="-467" font-family="Helvetica,sans-Serif" font-size="10.00">DynExpInstr::SmarAct</text>
</a>
</g>
</g>
<!-- Node44&#45;&gt;Node47 -->
<g id="edge31_Node000044_Node000047" class="edge">
<title>Node44&#45;&gt;Node47</title>
<g id="a_edge31_Node000044_Node000047"><a xlink:title=" ">
<path fill="none" stroke="#63b8ff" d="M735.95,-506.67C761.88,-500.8 794.04,-493.84 823,-488.5 844.21,-484.59 867.54,-480.9 888.3,-477.84"/>
<polygon fill="#63b8ff" stroke="#63b8ff" points="734.94,-503.31 725.97,-508.94 736.5,-510.13 734.94,-503.31"/>
</a>
</g>
</g>
<!-- Node49 -->
<g id="Node000049" class="node">
<title>Node49</title>
<g id="a_Node000049"><a xlink:href="classDynExpInstr_1_1gRPCInstrument.html" target="_top" xlink:title=" ">
<polygon fill="#fff0f0" stroke="red" points="1077,-442 823,-442 823,-401 1077,-401 1077,-442"/>
<text text-anchor="start" x="831" y="-430" font-family="Helvetica,sans-Serif" font-size="10.00">DynExpInstr::gRPCInstrument</text>
<text text-anchor="start" x="831" y="-419" font-family="Helvetica,sans-Serif" font-size="10.00">&lt; Spectrometer, 0, DynExpProto</text>
<text text-anchor="middle" x="950" y="-408" font-family="Helvetica,sans-Serif" font-size="10.00">::NetworkSpectrometer::NetworkSpectrometer &gt;</text>
</a>
</g>
</g>
<!-- Node48&#45;&gt;Node49 -->
<g id="edge33_Node000048_Node000049" class="edge">
<title>Node48&#45;&gt;Node49</title>
<g id="a_edge33_Node000048_Node000049"><a xlink:title=" ">
<path fill="none" stroke="#63b8ff" d="M768.58,-442.04C785.89,-440.07 804.51,-437.95 822.97,-435.85"/>
<polygon fill="#63b8ff" stroke="#63b8ff" points="768.09,-438.57 758.55,-443.18 768.88,-445.53 768.09,-438.57"/>
</a>
</g>
</g>
<!-- Node52 -->
<g id="Node000052" class="node">
<title>Node52</title>
<g id="a_Node000052"><a xlink:href="classDynExpModule_1_1gRPCModule.html" target="_top" xlink:title=" ">
<polygon fill="white" stroke="#666666" points="763.5,-334.5 605.5,-334.5 605.5,-304.5 763.5,-304.5 763.5,-334.5"/>
<text text-anchor="start" x="613.5" y="-322.5" font-family="Helvetica,sans-Serif" font-size="10.00">DynExpModule::gRPCModule</text>
<text text-anchor="middle" x="684.5" y="-311.5" font-family="Helvetica,sans-Serif" font-size="10.00">&lt; gRPCServices... &gt;</text>
</a>
</g>
</g>
<!-- Node51&#45;&gt;Node52 -->
<g id="edge35_Node000051_Node000052" class="edge">
<title>Node51&#45;&gt;Node52</title>
<g id="a_edge35_Node000051_Node000052"><a xlink:title=" ">
<path fill="none" stroke="#63b8ff" d="M464.66,-179.62C511.01,-209.25 613.29,-274.62 659.73,-304.31"/>
<polygon fill="#63b8ff" stroke="#63b8ff" points="466.48,-176.63 456.17,-174.2 462.71,-182.53 466.48,-176.63"/>
</a>
</g>
</g>
<!-- Node60 -->
<g id="Node000060" class="node">
<title>Node60</title>
<g id="a_Node000060"><a xlink:href="classDynExp_1_1QModuleBase.html" target="_top" xlink:title="Base class for modules with a Qt&#45;based user interface. Derive from this class to implement modules wi...">
<polygon fill="#fff0f0" stroke="red" points="748.5,-195 620.5,-195 620.5,-176 748.5,-176 748.5,-195"/>
<text text-anchor="middle" x="684.5" y="-183" font-family="Helvetica,sans-Serif" font-size="10.00">DynExp::QModuleBase</text>
</a>
</g>
</g>
<!-- Node51&#45;&gt;Node60 -->
<g id="edge38_Node000051_Node000060" class="edge">
<title>Node51&#45;&gt;Node60</title>
<g id="a_edge38_Node000051_Node000060"><a xlink:title=" ">
<path fill="none" stroke="#63b8ff" d="M510.07,-170.48C544.79,-173.49 586.55,-177.1 620.4,-180.04"/>
<polygon fill="#63b8ff" stroke="#63b8ff" points="510.28,-166.99 500.01,-169.61 509.67,-173.96 510.28,-166.99"/>
</a>
</g>
</g>
<!-- Node72 -->
<g id="Node000072" class="node">
<title>Node72</title>
<g id="a_Node000072"><a xlink:href="classDynExpModule_1_1ArbitraryFunctionFromCSV.html" target="_top" xlink:title=" ">
<polygon fill="white" stroke="#666666" points="774.5,-157.5 594.5,-157.5 594.5,-127.5 774.5,-127.5 774.5,-157.5"/>
<text text-anchor="start" x="602.5" y="-145.5" font-family="Helvetica,sans-Serif" font-size="10.00">DynExpModule::ArbitraryFunction</text>
<text text-anchor="middle" x="684.5" y="-134.5" font-family="Helvetica,sans-Serif" font-size="10.00">FromCSV</text>
</a>
</g>
</g>
<!-- Node51&#45;&gt;Node72 -->
<g id="edge46_Node000051_Node000072" class="edge">
<title>Node51&#45;&gt;Node72</title>
<g id="a_edge46_Node000051_Node000072"><a xlink:title=" ">
<path fill="none" stroke="#63b8ff" d="M510.21,-158.22C536.38,-155.85 566.55,-153.11 594.3,-150.59"/>
<polygon fill="#63b8ff" stroke="#63b8ff" points="509.65,-154.76 500.01,-159.15 510.29,-161.73 509.65,-154.76"/>
</a>
</g>
</g>
<!-- Node73 -->
<g id="Node000073" class="node">
<title>Node73</title>
<g id="a_Node000073"><a xlink:href="classDynExpModule_1_1StreamManipulator.html" target="_top" xlink:title="Module to process data stored in data stream instrument(s) with a Python script and to write the resu...">
<polygon fill="white" stroke="#666666" points="779.5,-109 589.5,-109 589.5,-90 779.5,-90 779.5,-109"/>
<text text-anchor="middle" x="684.5" y="-97" font-family="Helvetica,sans-Serif" font-size="10.00">DynExpModule::StreamManipulator</text>
</a>
</g>
</g>
<!-- Node51&#45;&gt;Node73 -->
<g id="edge47_Node000051_Node000073" class="edge">
<title>Node51&#45;&gt;Node73</title>
<g id="a_edge47_Node000051_Node000073"><a xlink:title=" ">
<path fill="none" stroke="#63b8ff" d="M476.14,-151.62C504.45,-141.59 545.4,-127.85 582,-118.5 595.98,-114.93 611.21,-111.72 625.51,-109.01"/>
<polygon fill="#63b8ff" stroke="#63b8ff" points="474.93,-148.34 466.69,-155 477.28,-154.93 474.93,-148.34"/>
</a>
</g>
</g>
<!-- Node74 -->
<g id="Node000074" class="node">
<title>Node74</title>
<g id="a_Node000074"><a xlink:href="classDynExpModule_1_1gRPCModule.html" target="_top" xlink:title="Module template for building gRPC servers listening on TCP sockets for network instruments to connect...">
<polygon fill="white" stroke="#666666" points="763.5,-71.5 605.5,-71.5 605.5,-41.5 763.5,-41.5 763.5,-71.5"/>
<text text-anchor="start" x="613.5" y="-59.5" font-family="Helvetica,sans-Serif" font-size="10.00">DynExpModule::gRPCModule</text>
<text text-anchor="middle" x="684.5" y="-48.5" font-family="Helvetica,sans-Serif" font-size="10.00">&lt; gRPCServices &gt;</text>
</a>
</g>
</g>
<!-- Node51&#45;&gt;Node74 -->
<g id="edge48_Node000051_Node000074" class="edge">
<title>Node51&#45;&gt;Node74</title>
<g id="a_edge48_Node000051_Node000074"><a xlink:title=" ">
<path fill="none" stroke="#63b8ff" d="M462.57,-149.09C489.38,-130.59 537.09,-99.79 582,-81.5 591.24,-77.74 601.2,-74.43 611.14,-71.57"/>
<polygon fill="#63b8ff" stroke="#63b8ff" points="460.51,-146.26 454.32,-154.85 464.52,-152 460.51,-146.26"/>
</a>
</g>
</g>
<!-- Node53 -->
<g id="Node000053" class="node">
<title>Node53</title>
<g id="a_Node000053"><a xlink:href="classDynExpModule_1_1NetworkDataStreamInstrumentT.html" target="_top" xlink:title=" ">
<polygon fill="#fff0f0" stroke="red" points="1054.5,-382.5 845.5,-382.5 845.5,-352.5 1054.5,-352.5 1054.5,-382.5"/>
<text text-anchor="start" x="853.5" y="-370.5" font-family="Helvetica,sans-Serif" font-size="10.00">DynExpModule::NetworkData</text>
<text text-anchor="middle" x="950" y="-359.5" font-family="Helvetica,sans-Serif" font-size="10.00">StreamInstrumentT&lt; gRPCServices... &gt;</text>
</a>
</g>
</g>
<!-- Node52&#45;&gt;Node53 -->
<g id="edge36_Node000052_Node000053" class="edge">
<title>Node52&#45;&gt;Node53</title>
<g id="a_edge36_Node000052_Node000053"><a xlink:title=" ">
<path fill="none" stroke="#63b8ff" d="M773.84,-335.59C803.72,-341.04 836.96,-347.09 866.38,-352.45"/>
<polygon fill="#63b8ff" stroke="#63b8ff" points="774.31,-332.12 763.85,-333.77 773.06,-339.01 774.31,-332.12"/>
</a>
</g>
</g>
<!-- Node59 -->
<g id="Node000059" class="node">
<title>Node59</title>
<g id="a_Node000059"><a xlink:href="classDynExpModule_1_1NetworkDataStreamInstrumentT.html" target="_top" xlink:title=" ">
<polygon fill="white" stroke="#666666" points="1050,-334.5 850,-334.5 850,-304.5 1050,-304.5 1050,-334.5"/>
<text text-anchor="start" x="858" y="-322.5" font-family="Helvetica,sans-Serif" font-size="10.00">DynExpModule::NetworkData</text>
<text text-anchor="middle" x="950" y="-311.5" font-family="Helvetica,sans-Serif" font-size="10.00">StreamInstrumentT&lt; gRPCServices &gt;</text>
</a>
</g>
</g>
<!-- Node52&#45;&gt;Node59 -->
<g id="edge37_Node000052_Node000059" class="edge">
<title>Node52&#45;&gt;Node59</title>
<g id="a_edge37_Node000052_Node000059"><a xlink:title=" ">
<path fill="none" stroke="#63b8ff" d="M774.13,-319.5C798.47,-319.5 825.01,-319.5 849.9,-319.5"/>
<polygon fill="#63b8ff" stroke="#63b8ff" points="773.85,-316 763.85,-319.5 773.85,-323 773.85,-316"/>
</a>
</g>
</g>
<!-- Node61 -->
<g id="Node000061" class="node">
<title>Node61</title>
<g id="a_Node000061"><a xlink:href="classDynExpModule_1_1ImageViewer_1_1ImageViewer.html" target="_top" xlink:title=" ">
<polygon fill="white" stroke="#666666" points="1030.5,-286.5 869.5,-286.5 869.5,-256.5 1030.5,-256.5 1030.5,-286.5"/>
<text text-anchor="start" x="877.5" y="-274.5" font-family="Helvetica,sans-Serif" font-size="10.00">DynExpModule::ImageViewer</text>
<text text-anchor="middle" x="950" y="-263.5" font-family="Helvetica,sans-Serif" font-size="10.00">::ImageViewer</text>
</a>
</g>
</g>
<!-- Node60&#45;&gt;Node61 -->
<g id="edge39_Node000060_Node000061" class="edge">
<title>Node60&#45;&gt;Node61</title>
<g id="a_edge39_Node000060_Node000061"><a xlink:title=" ">
<path fill="none" stroke="#63b8ff" d="M712.09,-199.76C739.26,-213.79 783.02,-234.87 823,-247.5 837.76,-252.16 853.79,-256.06 869.32,-259.27"/>
<polygon fill="#63b8ff" stroke="#63b8ff" points="713.69,-196.65 703.2,-195.12 710.45,-202.85 713.69,-196.65"/>
</a>
</g>
</g>
<!-- Node62 -->
<g id="Node000062" class="node">
<title>Node62</title>
<g id="a_Node000062"><a xlink:href="classDynExpModule_1_1InputPortReader.html" target="_top" xlink:title=" ">
<polygon fill="white" stroke="#666666" points="1037.5,-238 862.5,-238 862.5,-219 1037.5,-219 1037.5,-238"/>
<text text-anchor="middle" x="950" y="-226" font-family="Helvetica,sans-Serif" font-size="10.00">DynExpModule::InputPortReader</text>
</a>
</g>
</g>
<!-- Node60&#45;&gt;Node62 -->
<g id="edge40_Node000060_Node000062" class="edge">
<title>Node60&#45;&gt;Node62</title>
<g id="a_edge40_Node000060_Node000062"><a xlink:title=" ">
<path fill="none" stroke="#63b8ff" d="M748.48,-196.81C771.86,-200.92 798.62,-205.54 823,-209.5 842.76,-212.71 864.3,-216.03 883.88,-218.97"/>
<polygon fill="#63b8ff" stroke="#63b8ff" points="748.8,-193.31 738.34,-195.02 747.58,-200.2 748.8,-193.31"/>
</a>
</g>
</g>
<!-- Node63 -->
<g id="Node000063" class="node">
<title>Node63</title>
<g id="a_Node000063"><a xlink:href="classDynExpModule_1_1LockinAmplifierControl.html" target="_top" xlink:title=" ">
<polygon fill="white" stroke="#666666" points="1036,-200.5 864,-200.5 864,-170.5 1036,-170.5 1036,-200.5"/>
<text text-anchor="start" x="872" y="-188.5" font-family="Helvetica,sans-Serif" font-size="10.00">DynExpModule::LockinAmplifier</text>
<text text-anchor="middle" x="950" y="-177.5" font-family="Helvetica,sans-Serif" font-size="10.00">Control</text>
</a>
</g>
</g>
<!-- Node60&#45;&gt;Node63 -->
<g id="edge41_Node000060_Node000063" class="edge">
<title>Node60&#45;&gt;Node63</title>
<g id="a_edge41_Node000060_Node000063"><a xlink:title=" ">
<path fill="none" stroke="#63b8ff" d="M758.98,-185.5C791.58,-185.5 830.14,-185.5 863.98,-185.5"/>
<polygon fill="#63b8ff" stroke="#63b8ff" points="758.61,-182 748.61,-185.5 758.61,-189 758.61,-182"/>
</a>
</g>
</g>
<!-- Node64 -->
<g id="Node000064" class="node">
<title>Node64</title>
<g id="a_Node000064"><a xlink:href="classDynExpModule_1_1ODMR_1_1ODMR.html" target="_top" xlink:title=" ">
<polygon fill="white" stroke="#666666" points="1013.5,-152.5 886.5,-152.5 886.5,-122.5 1013.5,-122.5 1013.5,-152.5"/>
<text text-anchor="start" x="894.5" y="-140.5" font-family="Helvetica,sans-Serif" font-size="10.00">DynExpModule::ODMR</text>
<text text-anchor="middle" x="950" y="-129.5" font-family="Helvetica,sans-Serif" font-size="10.00">::ODMR</text>
</a>
</g>
</g>
<!-- Node60&#45;&gt;Node64 -->
<g id="edge42_Node000060_Node000064" class="edge">
<title>Node60&#45;&gt;Node64</title>
<g id="a_edge42_Node000060_Node000064"><a xlink:title=" ">
<path fill="none" stroke="#63b8ff" d="M747.91,-174.13C789.6,-166.54 844.24,-156.58 886.04,-148.97"/>
<polygon fill="#63b8ff" stroke="#63b8ff" points="747.08,-170.72 737.87,-175.96 748.34,-177.61 747.08,-170.72"/>
</a>
</g>
</g>
<!-- Node65 -->
<g id="Node000065" class="node">
<title>Node65</title>
<g id="a_Node000065"><a xlink:href="classDynExpModule_1_1OutputPortWriter.html" target="_top" xlink:title=" ">
<polygon fill="white" stroke="#666666" points="1024.5,-104.5 875.5,-104.5 875.5,-74.5 1024.5,-74.5 1024.5,-104.5"/>
<text text-anchor="start" x="883.5" y="-92.5" font-family="Helvetica,sans-Serif" font-size="10.00">DynExpModule::OutputPort</text>
<text text-anchor="middle" x="950" y="-81.5" font-family="Helvetica,sans-Serif" font-size="10.00">Writer</text>
</a>
</g>
</g>
<!-- Node60&#45;&gt;Node65 -->
<g id="edge43_Node000060_Node000065" class="edge">
<title>Node60&#45;&gt;Node65</title>
<g id="a_edge43_Node000060_Node000065"><a xlink:title=" ">
<path fill="none" stroke="#63b8ff" d="M758.33,-179.14C768.47,-176.23 778.36,-172.15 787,-166.5 810.83,-150.9 799.2,-129.13 823,-113.5 838.45,-103.35 857.12,-97.26 875.31,-93.67"/>
<polygon fill="#63b8ff" stroke="#63b8ff" points="757.41,-175.76 748.57,-181.6 759.12,-182.55 757.41,-175.76"/>
</a>
</g>
</g>
<!-- Node66 -->
<g id="Node000066" class="node">
<title>Node66</title>
<g id="a_Node000066"><a xlink:href="classDynExpModule_1_1SignalDesigner.html" target="_top" xlink:title=" ">
<polygon fill="white" stroke="#666666" points="1035,-56 865,-56 865,-37 1035,-37 1035,-56"/>
<text text-anchor="middle" x="950" y="-44" font-family="Helvetica,sans-Serif" font-size="10.00">DynExpModule::SignalDesigner</text>
</a>
</g>
</g>
<!-- Node60&#45;&gt;Node66 -->
<g id="edge44_Node000060_Node000066" class="edge">
<title>Node60&#45;&gt;Node66</title>
<g id="a_edge44_Node000060_Node000066"><a xlink:title=" ">
<path fill="none" stroke="#63b8ff" d="M758.25,-181.5C768.74,-178.32 778.75,-173.54 787,-166.5 823.24,-135.56 786.22,-95.8 823,-65.5 834.87,-55.72 849.58,-49.86 864.71,-46.49"/>
<polygon fill="#63b8ff" stroke="#63b8ff" points="757.34,-178.12 748.52,-184 759.08,-184.9 757.34,-178.12"/>
</a>
</g>
</g>
<!-- Node67 -->
<g id="Node000067" class="node">
<title>Node67</title>
<g id="a_Node000067"><a xlink:href="classDynExpModule_1_1SignalPlotter.html" target="_top" xlink:title=" ">
<polygon fill="white" stroke="#666666" points="1029,-19 871,-19 871,0 1029,0 1029,-19"/>
<text text-anchor="middle" x="950" y="-7" font-family="Helvetica,sans-Serif" font-size="10.00">DynExpModule::SignalPlotter</text>
</a>
</g>
</g>
<!-- Node60&#45;&gt;Node67 -->
<g id="edge45_Node000060_Node000067" class="edge">
<title>Node60&#45;&gt;Node67</title>
<g id="a_edge45_Node000060_Node000067"><a xlink:title=" ">
<path fill="none" stroke="#63b8ff" d="M758.42,-182.25C768.98,-178.99 778.97,-173.99 787,-166.5 833.64,-122.94 775.43,-70.04 823,-27.5 836.18,-15.72 853.42,-9.54 870.91,-6.62"/>
<polygon fill="#63b8ff" stroke="#63b8ff" points="757.4,-178.9 748.6,-184.79 759.15,-185.68 757.4,-178.9"/>
</a>
</g>
</g>
</g>
</svg>
