<?xml version="1.0" encoding="UTF-8" standalone="no"?>
<!DOCTYPE svg PUBLIC "-//W3C//DTD SVG 1.1//EN"
 "http://www.w3.org/Graphics/SVG/1.1/DTD/svg11.dtd">
<!-- Generated by graphviz version 2.43.0 (0)
 -->
<!-- Title: DynExpModule::InputPortReaderParams Pages: 1 -->
<svg width="183pt" height="386pt"
 viewBox="0.00 0.00 183.00 386.00" xmlns="http://www.w3.org/2000/svg" xmlns:xlink="http://www.w3.org/1999/xlink">
<g id="graph0" class="graph" transform="scale(1 1) rotate(0) translate(4 382)">
<title>DynExpModule::InputPortReaderParams</title>
<polygon fill="white" stroke="transparent" points="-4,4 -4,-382 179,-382 179,4 -4,4"/>
<!-- Node1 -->
<g id="node1" class="node">
<title>Node1</title>
<g id="a_node1"><a xlink:title=" ">
<polygon fill="#bfbfbf" stroke="black" points="0,-0.5 0,-30.5 175,-30.5 175,-0.5 0,-0.5"/>
<text text-anchor="start" x="8" y="-18.5" font-family="Helvetica,sans-Serif" font-size="10.00">DynExpModule::InputPortReader</text>
<text text-anchor="middle" x="87.5" y="-7.5" font-family="Helvetica,sans-Serif" font-size="10.00">Params</text>
</a>
</g>
</g>
<!-- Node2 -->
<g id="node2" class="node">
<title>Node2</title>
<g id="a_node2"><a xlink:href="classDynExp_1_1QModuleParamsBase.html" target="_top" xlink:title="Parameter class for QModuleBase.">
<polygon fill="white" stroke="black" points="5.5,-67.5 5.5,-86.5 169.5,-86.5 169.5,-67.5 5.5,-67.5"/>
<text text-anchor="middle" x="87.5" y="-74.5" font-family="Helvetica,sans-Serif" font-size="10.00">DynExp::QModuleParamsBase</text>
</a>
</g>
</g>
<!-- Node2&#45;&gt;Node1 -->
<g id="edge1" class="edge">
<title>Node2&#45;&gt;Node1</title>
<path fill="none" stroke="midnightblue" d="M87.5,-57.23C87.5,-48.59 87.5,-38.5 87.5,-30.52"/>
<polygon fill="midnightblue" stroke="midnightblue" points="84,-57.48 87.5,-67.48 91,-57.48 84,-57.48"/>
</g>
<!-- Node3 -->
<g id="node3" class="node">
<title>Node3</title>
<g id="a_node3"><a xlink:href="classDynExp_1_1ModuleParamsBase.html" target="_top" xlink:title="Parameter class for ModuleBase.">
<polygon fill="white" stroke="black" points="9.5,-123.5 9.5,-142.5 165.5,-142.5 165.5,-123.5 9.5,-123.5"/>
<text text-anchor="middle" x="87.5" y="-130.5" font-family="Helvetica,sans-Serif" font-size="10.00">DynExp::ModuleParamsBase</text>
</a>
</g>
</g>
<!-- Node3&#45;&gt;Node2 -->
<g id="edge2" class="edge">
<title>Node3&#45;&gt;Node2</title>
<path fill="none" stroke="midnightblue" d="M87.5,-112.8C87.5,-103.91 87.5,-93.78 87.5,-86.75"/>
<polygon fill="midnightblue" stroke="midnightblue" points="84,-113.08 87.5,-123.08 91,-113.08 84,-113.08"/>
</g>
<!-- Node4 -->
<g id="node4" class="node">
<title>Node4</title>
<g id="a_node4"><a xlink:href="classDynExp_1_1RunnableObjectParams.html" target="_top" xlink:title="Parameter class for RunnableObject.">
<polygon fill="white" stroke="black" points="1,-179.5 1,-198.5 174,-198.5 174,-179.5 1,-179.5"/>
<text text-anchor="middle" x="87.5" y="-186.5" font-family="Helvetica,sans-Serif" font-size="10.00">DynExp::RunnableObjectParams</text>
</a>
</g>
</g>
<!-- Node4&#45;&gt;Node3 -->
<g id="edge3" class="edge">
<title>Node4&#45;&gt;Node3</title>
<path fill="none" stroke="midnightblue" d="M87.5,-168.8C87.5,-159.91 87.5,-149.78 87.5,-142.75"/>
<polygon fill="midnightblue" stroke="midnightblue" points="84,-169.08 87.5,-179.08 91,-169.08 84,-169.08"/>
</g>
<!-- Node5 -->
<g id="node5" class="node">
<title>Node5</title>
<g id="a_node5"><a xlink:href="classDynExp_1_1ParamsBase.html" target="_top" xlink:title="Abstract base class for object parameter classes. Each class derived from class Object must be accomp...">
<polygon fill="white" stroke="black" points="27.5,-235.5 27.5,-254.5 147.5,-254.5 147.5,-235.5 27.5,-235.5"/>
<text text-anchor="middle" x="87.5" y="-242.5" font-family="Helvetica,sans-Serif" font-size="10.00">DynExp::ParamsBase</text>
</a>
</g>
</g>
<!-- Node5&#45;&gt;Node4 -->
<g id="edge4" class="edge">
<title>Node5&#45;&gt;Node4</title>
<path fill="none" stroke="midnightblue" d="M87.5,-224.8C87.5,-215.91 87.5,-205.78 87.5,-198.75"/>
<polygon fill="midnightblue" stroke="midnightblue" points="84,-225.08 87.5,-235.08 91,-225.08 84,-225.08"/>
</g>
<!-- Node6 -->
<g id="node6" class="node">
<title>Node6</title>
<g id="a_node6"><a xlink:href="classUtil_1_1ISynchronizedPointerLockable.html" target="_top" xlink:title="Interface to allow synchronizing the access to derived classes between different threads by making th...">
<polygon fill="white" stroke="black" points="16,-291.5 16,-321.5 159,-321.5 159,-291.5 16,-291.5"/>
<text text-anchor="start" x="24" y="-309.5" font-family="Helvetica,sans-Serif" font-size="10.00">Util::ISynchronizedPointer</text>
<text text-anchor="middle" x="87.5" y="-298.5" font-family="Helvetica,sans-Serif" font-size="10.00">Lockable</text>
</a>
</g>
</g>
<!-- Node6&#45;&gt;Node5 -->
<g id="edge5" class="edge">
<title>Node6&#45;&gt;Node5</title>
<path fill="none" stroke="midnightblue" d="M87.5,-281.29C87.5,-271.86 87.5,-261.65 87.5,-254.66"/>
<polygon fill="midnightblue" stroke="midnightblue" points="84,-281.4 87.5,-291.4 91,-281.4 84,-281.4"/>
</g>
<!-- Node7 -->
<g id="node7" class="node">
<title>Node7</title>
<g id="a_node7"><a xlink:href="classUtil_1_1INonCopyable.html" target="_top" xlink:title="Interface to delete copy constructor and copy assignment operator and thus make derived classes non&#45;c...">
<polygon fill="white" stroke="black" points="33.5,-358.5 33.5,-377.5 141.5,-377.5 141.5,-358.5 33.5,-358.5"/>
<text text-anchor="middle" x="87.5" y="-365.5" font-family="Helvetica,sans-Serif" font-size="10.00">Util::INonCopyable</text>
</a>
</g>
</g>
<!-- Node7&#45;&gt;Node6 -->
<g id="edge6" class="edge">
<title>Node7&#45;&gt;Node6</title>
<path fill="none" stroke="midnightblue" d="M87.5,-348.23C87.5,-339.59 87.5,-329.5 87.5,-321.52"/>
<polygon fill="midnightblue" stroke="midnightblue" points="84,-348.48 87.5,-358.48 91,-348.48 84,-348.48"/>
</g>
</g>
</svg>
