<?xml version="1.0" encoding="UTF-8" standalone="no"?>
<!DOCTYPE svg PUBLIC "-//W3C//DTD SVG 1.1//EN"
 "http://www.w3.org/Graphics/SVG/1.1/DTD/svg11.dtd">
<!-- Generated by graphviz version 2.43.0 (0)
 -->
<!-- Title: DynExpInstr::QutoolsQuTAG Pages: 1 -->
<svg width="226pt" height="308pt"
 viewBox="0.00 0.00 226.00 308.00" xmlns="http://www.w3.org/2000/svg" xmlns:xlink="http://www.w3.org/1999/xlink">
<g id="graph0" class="graph" transform="scale(1 1) rotate(0) translate(4 304)">
<title>DynExpInstr::QutoolsQuTAG</title>
<polygon fill="white" stroke="transparent" points="-4,4 -4,-304 222,-304 222,4 -4,4"/>
<!-- Node1 -->
<g id="node1" class="node">
<title>Node1</title>
<g id="a_node1"><a xlink:title=" ">
<polygon fill="#bfbfbf" stroke="black" points="37,-0.5 37,-19.5 189,-19.5 189,-0.5 37,-0.5"/>
<text text-anchor="middle" x="113" y="-7.5" font-family="Helvetica,sans-Serif" font-size="10.00">DynExpInstr::QutoolsQuTAG</text>
</a>
</g>
</g>
<!-- Node2 -->
<g id="node2" class="node">
<title>Node2</title>
<g id="a_node2"><a xlink:href="classDynExpInstr_1_1TimeTagger.html" target="_top" xlink:title="Meta instrument for a time tagging device to assign timestamps to (e.g. photon) detection events base...">
<polygon fill="white" stroke="black" points="43.5,-56.5 43.5,-75.5 182.5,-75.5 182.5,-56.5 43.5,-56.5"/>
<text text-anchor="middle" x="113" y="-63.5" font-family="Helvetica,sans-Serif" font-size="10.00">DynExpInstr::TimeTagger</text>
</a>
</g>
</g>
<!-- Node2&#45;&gt;Node1 -->
<g id="edge1" class="edge">
<title>Node2&#45;&gt;Node1</title>
<path fill="none" stroke="midnightblue" d="M113,-45.8C113,-36.91 113,-26.78 113,-19.75"/>
<polygon fill="midnightblue" stroke="midnightblue" points="109.5,-46.08 113,-56.08 116.5,-46.08 109.5,-46.08"/>
</g>
<!-- Node3 -->
<g id="node3" class="node">
<title>Node3</title>
<g id="a_node3"><a xlink:href="classDynExpInstr_1_1DataStreamInstrument.html" target="_top" xlink:title="Implementation of the data stream meta instrument, which is a base class for all instruments reading/...">
<polygon fill="white" stroke="black" points="16,-112.5 16,-131.5 210,-131.5 210,-112.5 16,-112.5"/>
<text text-anchor="middle" x="113" y="-119.5" font-family="Helvetica,sans-Serif" font-size="10.00">DynExpInstr::DataStreamInstrument</text>
</a>
</g>
</g>
<!-- Node3&#45;&gt;Node2 -->
<g id="edge2" class="edge">
<title>Node3&#45;&gt;Node2</title>
<path fill="none" stroke="midnightblue" d="M113,-101.8C113,-92.91 113,-82.78 113,-75.75"/>
<polygon fill="midnightblue" stroke="midnightblue" points="109.5,-102.08 113,-112.08 116.5,-102.08 109.5,-102.08"/>
</g>
<!-- Node4 -->
<g id="node4" class="node">
<title>Node4</title>
<g id="a_node4"><a xlink:href="classDynExp_1_1InstrumentBase.html" target="_top" xlink:title="Base class for instruments. Instruments comprise virtual devices (meta instruments) and physial devic...">
<polygon fill="white" stroke="black" points="44.5,-168.5 44.5,-187.5 181.5,-187.5 181.5,-168.5 44.5,-168.5"/>
<text text-anchor="middle" x="113" y="-175.5" font-family="Helvetica,sans-Serif" font-size="10.00">DynExp::InstrumentBase</text>
</a>
</g>
</g>
<!-- Node4&#45;&gt;Node3 -->
<g id="edge3" class="edge">
<title>Node4&#45;&gt;Node3</title>
<path fill="none" stroke="midnightblue" d="M113,-157.8C113,-148.91 113,-138.78 113,-131.75"/>
<polygon fill="midnightblue" stroke="midnightblue" points="109.5,-158.08 113,-168.08 116.5,-158.08 109.5,-158.08"/>
</g>
<!-- Node5 -->
<g id="node5" class="node">
<title>Node5</title>
<g id="a_node5"><a xlink:href="classDynExp_1_1RunnableObject.html" target="_top" xlink:title="Defines an Object which possesses a thread it runs in. The RunnableObject can be started and stopped ...">
<polygon fill="white" stroke="black" points="44.5,-224.5 44.5,-243.5 181.5,-243.5 181.5,-224.5 44.5,-224.5"/>
<text text-anchor="middle" x="113" y="-231.5" font-family="Helvetica,sans-Serif" font-size="10.00">DynExp::RunnableObject</text>
</a>
</g>
</g>
<!-- Node5&#45;&gt;Node4 -->
<g id="edge4" class="edge">
<title>Node5&#45;&gt;Node4</title>
<path fill="none" stroke="midnightblue" d="M113,-213.8C113,-204.91 113,-194.78 113,-187.75"/>
<polygon fill="midnightblue" stroke="midnightblue" points="109.5,-214.08 113,-224.08 116.5,-214.08 109.5,-214.08"/>
</g>
<!-- Node6 -->
<g id="node6" class="node">
<title>Node6</title>
<g id="a_node6"><a xlink:href="classUtil_1_1INonCopyable.html" target="_top" xlink:title="Interface to delete copy constructor and copy assignment operator and thus make derived classes non&#45;c...">
<polygon fill="white" stroke="black" points="0,-280.5 0,-299.5 108,-299.5 108,-280.5 0,-280.5"/>
<text text-anchor="middle" x="54" y="-287.5" font-family="Helvetica,sans-Serif" font-size="10.00">Util::INonCopyable</text>
</a>
</g>
</g>
<!-- Node6&#45;&gt;Node5 -->
<g id="edge5" class="edge">
<title>Node6&#45;&gt;Node5</title>
<path fill="none" stroke="midnightblue" d="M70.89,-273.54C81.41,-263.91 94.57,-251.87 103.35,-243.83"/>
<polygon fill="midnightblue" stroke="midnightblue" points="68.49,-270.99 63.48,-280.32 73.22,-276.15 68.49,-270.99"/>
</g>
<!-- Node7 -->
<g id="node7" class="node">
<title>Node7</title>
<g id="a_node7"><a xlink:href="classDynExp_1_1Object.html" target="_top" xlink:title="Base class for all DynExp Objects like hardware adapters (DynExp::HardwareAdapterBase),...">
<polygon fill="white" stroke="black" points="126,-280.5 126,-299.5 218,-299.5 218,-280.5 126,-280.5"/>
<text text-anchor="middle" x="172" y="-287.5" font-family="Helvetica,sans-Serif" font-size="10.00">DynExp::Object</text>
</a>
</g>
</g>
<!-- Node7&#45;&gt;Node5 -->
<g id="edge6" class="edge">
<title>Node7&#45;&gt;Node5</title>
<path fill="none" stroke="midnightblue" d="M155.11,-273.54C144.59,-263.91 131.43,-251.87 122.65,-243.83"/>
<polygon fill="midnightblue" stroke="midnightblue" points="152.78,-276.15 162.52,-280.32 157.51,-270.99 152.78,-276.15"/>
</g>
</g>
</svg>
