<?xml version="1.0" encoding="UTF-8" standalone="no"?>
<!DOCTYPE svg PUBLIC "-//W3C//DTD SVG 1.1//EN"
 "http://www.w3.org/Graphics/SVG/1.1/DTD/svg11.dtd">
<!-- Generated by graphviz version 2.43.0 (0)
 -->
<!-- Title: DynExpInstr::WidefieldLocalizationData Pages: 1 -->
<svg width="661pt" height="60pt"
 viewBox="0.00 0.00 661.00 60.00" xmlns="http://www.w3.org/2000/svg" xmlns:xlink="http://www.w3.org/1999/xlink">
<g id="graph0" class="graph" transform="scale(1 1) rotate(0) translate(4 56)">
<title>DynExpInstr::WidefieldLocalizationData</title>
<!-- Node1 -->
<g id="Node000001" class="node">
<title>Node1</title>
<g id="a_Node000001"><a xlink:title=" ">
<polygon fill="#999999" stroke="#666666" points="653,-35.5 444,-35.5 444,-16.5 653,-16.5 653,-35.5"/>
<text text-anchor="middle" x="548.5" y="-23.5" font-family="Helvetica,sans-Serif" font-size="10.00">DynExpInstr::WidefieldLocalizationData</text>
</a>
</g>
</g>
<!-- Node2 -->
<g id="Node000002" class="node">
<title>Node2</title>
<g id="a_Node000002"><a xlink:href="classDynExpInstr_1_1gRPCInstrumentData.html" target="_top" xlink:title=" ">
<polygon fill="white" stroke="#666666" points="408,-52 203,-52 203,0 408,0 408,-52"/>
<text text-anchor="start" x="211" y="-40" font-family="Helvetica,sans-Serif" font-size="10.00">DynExpInstr::gRPCInstrument</text>
<text text-anchor="start" x="211" y="-29" font-family="Helvetica,sans-Serif" font-size="10.00">Data&lt; DynExp::InstrumentBase,</text>
<text text-anchor="start" x="211" y="-18" font-family="Helvetica,sans-Serif" font-size="10.00"> 0, DynExpProto::WidefieldLocalization</text>
<text text-anchor="middle" x="305.5" y="-7" font-family="Helvetica,sans-Serif" font-size="10.00">::WidefieldLocalization &gt;</text>
</a>
</g>
</g>
<!-- Node2&#45;&gt;Node1 -->
<g id="edge1_Node000001_Node000002" class="edge">
<title>Node2&#45;&gt;Node1</title>
<g id="a_edge1_Node000001_Node000002"><a xlink:title=" ">
<path fill="none" stroke="#63b8ff" d="M418.04,-26C426.62,-26 435.26,-26 443.79,-26"/>
<polygon fill="#63b8ff" stroke="#63b8ff" points="418.01,-22.5 408.01,-26 418.01,-29.5 418.01,-22.5"/>
</a>
</g>
</g>
<!-- Node3 -->
<g id="Node000003" class="node">
<title>Node3</title>
<g id="a_Node000003"><a xlink:title=" ">
<polygon fill="white" stroke="#666666" points="167,-35.5 0,-35.5 0,-16.5 167,-16.5 167,-35.5"/>
<text text-anchor="middle" x="83.5" y="-23.5" font-family="Helvetica,sans-Serif" font-size="10.00">BaseInstr::InstrumentDataType</text>
</a>
</g>
</g>
<!-- Node3&#45;&gt;Node2 -->
<g id="edge2_Node000002_Node000003" class="edge">
<title>Node3&#45;&gt;Node2</title>
<g id="a_edge2_Node000002_Node000003"><a xlink:title=" ">
<path fill="none" stroke="#63b8ff" d="M177.29,-26C185.76,-26 194.37,-26 202.91,-26"/>
<polygon fill="#63b8ff" stroke="#63b8ff" points="177.05,-22.5 167.05,-26 177.05,-29.5 177.05,-22.5"/>
</a>
</g>
</g>
</g>
</svg>
