<?xml version="1.0" encoding="UTF-8" standalone="no"?>
<!DOCTYPE svg PUBLIC "-//W3C//DTD SVG 1.1//EN"
 "http://www.w3.org/Graphics/SVG/1.1/DTD/svg11.dtd">
<!-- Generated by graphviz version 2.43.0 (0)
 -->
<!-- Title: DynExpModule::StreamManipulatorParams Pages: 1 -->
<svg width="198pt" height="324pt"
 viewBox="0.00 0.00 198.00 324.00" xmlns="http://www.w3.org/2000/svg" xmlns:xlink="http://www.w3.org/1999/xlink">
<g id="graph0" class="graph" transform="scale(1 1) rotate(0) translate(4 320)">
<title>DynExpModule::StreamManipulatorParams</title>
<!-- Node1 -->
<g id="Node000001" class="node">
<title>Node1</title>
<g id="a_Node000001"><a xlink:title="Parameter class for StreamManipulator.">
<polygon fill="#999999" stroke="#666666" points="190,-30 0,-30 0,0 190,0 190,-30"/>
<text text-anchor="start" x="8" y="-18" font-family="Helvetica,sans-Serif" font-size="10.00">DynExpModule::StreamManipulator</text>
<text text-anchor="middle" x="95" y="-7" font-family="Helvetica,sans-Serif" font-size="10.00">Params</text>
</a>
</g>
</g>
<!-- Node2 -->
<g id="Node000002" class="node">
<title>Node2</title>
<g id="a_Node000002"><a xlink:href="classDynExp_1_1ModuleParamsBase.html" target="_top" xlink:title="Parameter class for ModuleBase.">
<polygon fill="white" stroke="#666666" points="173,-85 17,-85 17,-66 173,-66 173,-85"/>
<text text-anchor="middle" x="95" y="-73" font-family="Helvetica,sans-Serif" font-size="10.00">DynExp::ModuleParamsBase</text>
</a>
</g>
</g>
<!-- Node2&#45;&gt;Node1 -->
<g id="edge1_Node000001_Node000002" class="edge">
<title>Node2&#45;&gt;Node1</title>
<g id="a_edge1_Node000001_Node000002"><a xlink:title=" ">
<path fill="none" stroke="#63b8ff" d="M95,-55.65C95,-47.36 95,-37.78 95,-30.11"/>
<polygon fill="#63b8ff" stroke="#63b8ff" points="91.5,-55.87 95,-65.87 98.5,-55.87 91.5,-55.87"/>
</a>
</g>
</g>
<!-- Node3 -->
<g id="Node000003" class="node">
<title>Node3</title>
<g id="a_Node000003"><a xlink:href="classDynExp_1_1RunnableObjectParams.html" target="_top" xlink:title="Parameter class for RunnableObject.">
<polygon fill="white" stroke="#666666" points="181.5,-140 8.5,-140 8.5,-121 181.5,-121 181.5,-140"/>
<text text-anchor="middle" x="95" y="-128" font-family="Helvetica,sans-Serif" font-size="10.00">DynExp::RunnableObjectParams</text>
</a>
</g>
</g>
<!-- Node3&#45;&gt;Node2 -->
<g id="edge2_Node000002_Node000003" class="edge">
<title>Node3&#45;&gt;Node2</title>
<g id="a_edge2_Node000002_Node000003"><a xlink:title=" ">
<path fill="none" stroke="#63b8ff" d="M95,-110.66C95,-101.93 95,-91.99 95,-85.09"/>
<polygon fill="#63b8ff" stroke="#63b8ff" points="91.5,-110.75 95,-120.75 98.5,-110.75 91.5,-110.75"/>
</a>
</g>
</g>
<!-- Node4 -->
<g id="Node000004" class="node">
<title>Node4</title>
<g id="a_Node000004"><a xlink:href="classDynExp_1_1ParamsBase.html" target="_top" xlink:title="Abstract base class for object parameter classes. Each class derived from class Object must be accomp...">
<polygon fill="white" stroke="#666666" points="155,-195 35,-195 35,-176 155,-176 155,-195"/>
<text text-anchor="middle" x="95" y="-183" font-family="Helvetica,sans-Serif" font-size="10.00">DynExp::ParamsBase</text>
</a>
</g>
</g>
<!-- Node4&#45;&gt;Node3 -->
<g id="edge3_Node000003_Node000004" class="edge">
<title>Node4&#45;&gt;Node3</title>
<g id="a_edge3_Node000003_Node000004"><a xlink:title=" ">
<path fill="none" stroke="#63b8ff" d="M95,-165.66C95,-156.93 95,-146.99 95,-140.09"/>
<polygon fill="#63b8ff" stroke="#63b8ff" points="91.5,-165.75 95,-175.75 98.5,-165.75 91.5,-165.75"/>
</a>
</g>
</g>
<!-- Node5 -->
<g id="Node000005" class="node">
<title>Node5</title>
<g id="a_Node000005"><a xlink:href="classUtil_1_1ISynchronizedPointerLockable.html" target="_top" xlink:title="Interface to allow synchronizing the access to derived classes between different threads by making th...">
<polygon fill="white" stroke="#666666" points="166.5,-261 23.5,-261 23.5,-231 166.5,-231 166.5,-261"/>
<text text-anchor="start" x="31.5" y="-249" font-family="Helvetica,sans-Serif" font-size="10.00">Util::ISynchronizedPointer</text>
<text text-anchor="middle" x="95" y="-238" font-family="Helvetica,sans-Serif" font-size="10.00">Lockable</text>
</a>
</g>
</g>
<!-- Node5&#45;&gt;Node4 -->
<g id="edge4_Node000004_Node000005" class="edge">
<title>Node5&#45;&gt;Node4</title>
<g id="a_edge4_Node000004_Node000005"><a xlink:title=" ">
<path fill="none" stroke="#63b8ff" d="M95,-220.75C95,-211.72 95,-202.03 95,-195.27"/>
<polygon fill="#63b8ff" stroke="#63b8ff" points="91.5,-220.84 95,-230.84 98.5,-220.84 91.5,-220.84"/>
</a>
</g>
</g>
<!-- Node6 -->
<g id="Node000006" class="node">
<title>Node6</title>
<g id="a_Node000006"><a xlink:href="classUtil_1_1INonCopyable.html" target="_top" xlink:title="Interface to delete copy constructor and copy assignment operator and thus make derived classes non&#45;c...">
<polygon fill="white" stroke="#666666" points="149,-316 41,-316 41,-297 149,-297 149,-316"/>
<text text-anchor="middle" x="95" y="-304" font-family="Helvetica,sans-Serif" font-size="10.00">Util::INonCopyable</text>
</a>
</g>
</g>
<!-- Node6&#45;&gt;Node5 -->
<g id="edge5_Node000005_Node000006" class="edge">
<title>Node6&#45;&gt;Node5</title>
<g id="a_edge5_Node000005_Node000006"><a xlink:title=" ">
<path fill="none" stroke="#63b8ff" d="M95,-286.65C95,-278.36 95,-268.78 95,-261.11"/>
<polygon fill="#63b8ff" stroke="#63b8ff" points="91.5,-286.87 95,-296.87 98.5,-286.87 91.5,-286.87"/>
</a>
</g>
</g>
</g>
</svg>
