<?xml version="1.0" encoding="UTF-8" standalone="no"?>
<!DOCTYPE svg PUBLIC "-//W3C//DTD SVG 1.1//EN"
 "http://www.w3.org/Graphics/SVG/1.1/DTD/svg11.dtd">
<!-- Generated by graphviz version 2.43.0 (0)
 -->
<!-- Title: DynExpModule::NetworkDataStreamInstrumentT&lt; gRPCServices &gt; Pages: 1 -->
<svg width="226pt" height="269pt"
 viewBox="0.00 0.00 226.00 269.00" xmlns="http://www.w3.org/2000/svg" xmlns:xlink="http://www.w3.org/1999/xlink">
<g id="graph0" class="graph" transform="scale(1 1) rotate(0) translate(4 265)">
<title>DynExpModule::NetworkDataStreamInstrumentT&lt; gRPCServices &gt;</title>
<!-- Node1 -->
<g id="Node000001" class="node">
<title>Node1</title>
<g id="a_Node000001"><a xlink:title=" ">
<polygon fill="#999999" stroke="#666666" points="213,-30 13,-30 13,0 213,0 213,-30"/>
<text text-anchor="start" x="21" y="-18" font-family="Helvetica,sans-Serif" font-size="10.00">DynExpModule::NetworkData</text>
<text text-anchor="middle" x="113" y="-7" font-family="Helvetica,sans-Serif" font-size="10.00">StreamInstrumentT&lt; gRPCServices &gt;</text>
</a>
</g>
</g>
<!-- Node2 -->
<g id="Node000002" class="node">
<title>Node2</title>
<g id="a_Node000002"><a xlink:href="classDynExpModule_1_1gRPCModule.html" target="_top" xlink:title=" ">
<polygon fill="white" stroke="#666666" points="192,-96 34,-96 34,-66 192,-66 192,-96"/>
<text text-anchor="start" x="42" y="-84" font-family="Helvetica,sans-Serif" font-size="10.00">DynExpModule::gRPCModule</text>
<text text-anchor="middle" x="113" y="-73" font-family="Helvetica,sans-Serif" font-size="10.00">&lt; gRPCServices... &gt;</text>
</a>
</g>
</g>
<!-- Node2&#45;&gt;Node1 -->
<g id="edge1_Node000001_Node000002" class="edge">
<title>Node2&#45;&gt;Node1</title>
<g id="a_edge1_Node000001_Node000002"><a xlink:title=" ">
<path fill="none" stroke="#63b8ff" d="M113,-55.54C113,-46.96 113,-37.61 113,-30.16"/>
<polygon fill="#63b8ff" stroke="#63b8ff" points="109.5,-55.8 113,-65.8 116.5,-55.8 109.5,-55.8"/>
</a>
</g>
</g>
<!-- Node3 -->
<g id="Node000003" class="node">
<title>Node3</title>
<g id="a_Node000003"><a xlink:href="classDynExp_1_1ModuleBase.html" target="_top" xlink:title="Base class for modules. Modules implement programs on their own (e.g. measurement protocols or server...">
<polygon fill="white" stroke="#666666" points="173,-151 53,-151 53,-132 173,-132 173,-151"/>
<text text-anchor="middle" x="113" y="-139" font-family="Helvetica,sans-Serif" font-size="10.00">DynExp::ModuleBase</text>
</a>
</g>
</g>
<!-- Node3&#45;&gt;Node2 -->
<g id="edge2_Node000002_Node000003" class="edge">
<title>Node3&#45;&gt;Node2</title>
<g id="a_edge2_Node000002_Node000003"><a xlink:title=" ">
<path fill="none" stroke="#63b8ff" d="M113,-121.65C113,-113.36 113,-103.78 113,-96.11"/>
<polygon fill="#63b8ff" stroke="#63b8ff" points="109.5,-121.87 113,-131.87 116.5,-121.87 109.5,-121.87"/>
</a>
</g>
</g>
<!-- Node4 -->
<g id="Node000004" class="node">
<title>Node4</title>
<g id="a_Node000004"><a xlink:href="classDynExp_1_1RunnableObject.html" target="_top" xlink:title="Defines an Object which possesses a thread it runs in. The RunnableObject can be started and stopped ...">
<polygon fill="white" stroke="#666666" points="181.5,-206 44.5,-206 44.5,-187 181.5,-187 181.5,-206"/>
<text text-anchor="middle" x="113" y="-194" font-family="Helvetica,sans-Serif" font-size="10.00">DynExp::RunnableObject</text>
</a>
</g>
</g>
<!-- Node4&#45;&gt;Node3 -->
<g id="edge3_Node000003_Node000004" class="edge">
<title>Node4&#45;&gt;Node3</title>
<g id="a_edge3_Node000003_Node000004"><a xlink:title=" ">
<path fill="none" stroke="#63b8ff" d="M113,-176.66C113,-167.93 113,-157.99 113,-151.09"/>
<polygon fill="#63b8ff" stroke="#63b8ff" points="109.5,-176.75 113,-186.75 116.5,-176.75 109.5,-176.75"/>
</a>
</g>
</g>
<!-- Node5 -->
<g id="Node000005" class="node">
<title>Node5</title>
<g id="a_Node000005"><a xlink:href="classUtil_1_1INonCopyable.html" target="_top" xlink:title="Interface to delete copy constructor and copy assignment operator and thus make derived classes non&#45;c...">
<polygon fill="white" stroke="#666666" points="108,-261 0,-261 0,-242 108,-242 108,-261"/>
<text text-anchor="middle" x="54" y="-249" font-family="Helvetica,sans-Serif" font-size="10.00">Util::INonCopyable</text>
</a>
</g>
</g>
<!-- Node5&#45;&gt;Node4 -->
<g id="edge4_Node000004_Node000005" class="edge">
<title>Node5&#45;&gt;Node4</title>
<g id="a_edge4_Node000004_Node000005"><a xlink:title=" ">
<path fill="none" stroke="#63b8ff" d="M71.2,-235.04C81.67,-225.64 94.65,-213.98 103.35,-206.17"/>
<polygon fill="#63b8ff" stroke="#63b8ff" points="68.58,-232.7 63.48,-241.98 73.26,-237.91 68.58,-232.7"/>
</a>
</g>
</g>
<!-- Node6 -->
<g id="Node000006" class="node">
<title>Node6</title>
<g id="a_Node000006"><a xlink:href="classDynExp_1_1Object.html" target="_top" xlink:title="Base class for all DynExp Objects like hardware adapters (DynExp::HardwareAdapterBase),...">
<polygon fill="white" stroke="#666666" points="218,-261 126,-261 126,-242 218,-242 218,-261"/>
<text text-anchor="middle" x="172" y="-249" font-family="Helvetica,sans-Serif" font-size="10.00">DynExp::Object</text>
</a>
</g>
</g>
<!-- Node6&#45;&gt;Node4 -->
<g id="edge5_Node000004_Node000006" class="edge">
<title>Node6&#45;&gt;Node4</title>
<g id="a_edge5_Node000004_Node000006"><a xlink:title=" ">
<path fill="none" stroke="#63b8ff" d="M154.8,-235.04C144.33,-225.64 131.35,-213.98 122.65,-206.17"/>
<polygon fill="#63b8ff" stroke="#63b8ff" points="152.74,-237.91 162.52,-241.98 157.42,-232.7 152.74,-237.91"/>
</a>
</g>
</g>
</g>
</svg>
