<?xml version="1.0" encoding="UTF-8" standalone="no"?>
<!DOCTYPE svg PUBLIC "-//W3C//DTD SVG 1.1//EN"
 "http://www.w3.org/Graphics/SVG/1.1/DTD/svg11.dtd">
<!-- Generated by graphviz version 2.43.0 (0)
 -->
<!-- Title: DynExpInstr::ZI_MFLIParams Pages: 1 -->
<svg width="202pt" height="445pt"
 viewBox="0.00 0.00 202.00 445.00" xmlns="http://www.w3.org/2000/svg" xmlns:xlink="http://www.w3.org/1999/xlink">
<g id="graph0" class="graph" transform="scale(1 1) rotate(0) translate(4 441)">
<title>DynExpInstr::ZI_MFLIParams</title>
<!-- Node1 -->
<g id="Node000001" class="node">
<title>Node1</title>
<g id="a_Node000001"><a xlink:title=" ">
<polygon fill="#999999" stroke="#666666" points="175,-19 19,-19 19,0 175,0 175,-19"/>
<text text-anchor="middle" x="97" y="-7" font-family="Helvetica,sans-Serif" font-size="10.00">DynExpInstr::ZI_MFLIParams</text>
</a>
</g>
</g>
<!-- Node2 -->
<g id="Node000002" class="node">
<title>Node2</title>
<g id="a_Node000002"><a xlink:href="classDynExpInstr_1_1LockinAmplifierParams.html" target="_top" xlink:title="Parameter class for LockinAmplifier.">
<polygon fill="white" stroke="#666666" points="176,-85 18,-85 18,-55 176,-55 176,-85"/>
<text text-anchor="start" x="26" y="-73" font-family="Helvetica,sans-Serif" font-size="10.00">DynExpInstr::LockinAmplifier</text>
<text text-anchor="middle" x="97" y="-62" font-family="Helvetica,sans-Serif" font-size="10.00">Params</text>
</a>
</g>
</g>
<!-- Node2&#45;&gt;Node1 -->
<g id="edge1_Node000001_Node000002" class="edge">
<title>Node2&#45;&gt;Node1</title>
<g id="a_edge1_Node000001_Node000002"><a xlink:title=" ">
<path fill="none" stroke="#63b8ff" d="M97,-44.75C97,-35.72 97,-26.03 97,-19.27"/>
<polygon fill="#63b8ff" stroke="#63b8ff" points="93.5,-44.84 97,-54.84 100.5,-44.84 93.5,-44.84"/>
</a>
</g>
</g>
<!-- Node3 -->
<g id="Node000003" class="node">
<title>Node3</title>
<g id="a_Node000003"><a xlink:href="classDynExpInstr_1_1DataStreamInstrumentParams.html" target="_top" xlink:title="Parameter class for DataStreamInstrument.">
<polygon fill="white" stroke="#666666" points="194,-151 0,-151 0,-121 194,-121 194,-151"/>
<text text-anchor="start" x="8" y="-139" font-family="Helvetica,sans-Serif" font-size="10.00">DynExpInstr::DataStreamInstrument</text>
<text text-anchor="middle" x="97" y="-128" font-family="Helvetica,sans-Serif" font-size="10.00">Params</text>
</a>
</g>
</g>
<!-- Node3&#45;&gt;Node2 -->
<g id="edge2_Node000002_Node000003" class="edge">
<title>Node3&#45;&gt;Node2</title>
<g id="a_edge2_Node000002_Node000003"><a xlink:title=" ">
<path fill="none" stroke="#63b8ff" d="M97,-110.54C97,-101.96 97,-92.61 97,-85.16"/>
<polygon fill="#63b8ff" stroke="#63b8ff" points="93.5,-110.8 97,-120.8 100.5,-110.8 93.5,-110.8"/>
</a>
</g>
</g>
<!-- Node4 -->
<g id="Node000004" class="node">
<title>Node4</title>
<g id="a_Node000004"><a xlink:href="classDynExp_1_1InstrumentParamsBase.html" target="_top" xlink:title="Parameter class for InstrumentBase.">
<polygon fill="white" stroke="#666666" points="183.5,-206 10.5,-206 10.5,-187 183.5,-187 183.5,-206"/>
<text text-anchor="middle" x="97" y="-194" font-family="Helvetica,sans-Serif" font-size="10.00">DynExp::InstrumentParamsBase</text>
</a>
</g>
</g>
<!-- Node4&#45;&gt;Node3 -->
<g id="edge3_Node000003_Node000004" class="edge">
<title>Node4&#45;&gt;Node3</title>
<g id="a_edge3_Node000003_Node000004"><a xlink:title=" ">
<path fill="none" stroke="#63b8ff" d="M97,-176.65C97,-168.36 97,-158.78 97,-151.11"/>
<polygon fill="#63b8ff" stroke="#63b8ff" points="93.5,-176.87 97,-186.87 100.5,-176.87 93.5,-176.87"/>
</a>
</g>
</g>
<!-- Node5 -->
<g id="Node000005" class="node">
<title>Node5</title>
<g id="a_Node000005"><a xlink:href="classDynExp_1_1RunnableObjectParams.html" target="_top" xlink:title="Parameter class for RunnableObject.">
<polygon fill="white" stroke="#666666" points="183.5,-261 10.5,-261 10.5,-242 183.5,-242 183.5,-261"/>
<text text-anchor="middle" x="97" y="-249" font-family="Helvetica,sans-Serif" font-size="10.00">DynExp::RunnableObjectParams</text>
</a>
</g>
</g>
<!-- Node5&#45;&gt;Node4 -->
<g id="edge4_Node000004_Node000005" class="edge">
<title>Node5&#45;&gt;Node4</title>
<g id="a_edge4_Node000004_Node000005"><a xlink:title=" ">
<path fill="none" stroke="#63b8ff" d="M97,-231.66C97,-222.93 97,-212.99 97,-206.09"/>
<polygon fill="#63b8ff" stroke="#63b8ff" points="93.5,-231.75 97,-241.75 100.5,-231.75 93.5,-231.75"/>
</a>
</g>
</g>
<!-- Node6 -->
<g id="Node000006" class="node">
<title>Node6</title>
<g id="a_Node000006"><a xlink:href="classDynExp_1_1ParamsBase.html" target="_top" xlink:title="Abstract base class for object parameter classes. Each class derived from class Object must be accomp...">
<polygon fill="white" stroke="#666666" points="157,-316 37,-316 37,-297 157,-297 157,-316"/>
<text text-anchor="middle" x="97" y="-304" font-family="Helvetica,sans-Serif" font-size="10.00">DynExp::ParamsBase</text>
</a>
</g>
</g>
<!-- Node6&#45;&gt;Node5 -->
<g id="edge5_Node000005_Node000006" class="edge">
<title>Node6&#45;&gt;Node5</title>
<g id="a_edge5_Node000005_Node000006"><a xlink:title=" ">
<path fill="none" stroke="#63b8ff" d="M97,-286.66C97,-277.93 97,-267.99 97,-261.09"/>
<polygon fill="#63b8ff" stroke="#63b8ff" points="93.5,-286.75 97,-296.75 100.5,-286.75 93.5,-286.75"/>
</a>
</g>
</g>
<!-- Node7 -->
<g id="Node000007" class="node">
<title>Node7</title>
<g id="a_Node000007"><a xlink:href="classUtil_1_1ISynchronizedPointerLockable.html" target="_top" xlink:title="Interface to allow synchronizing the access to derived classes between different threads by making th...">
<polygon fill="white" stroke="#666666" points="168.5,-382 25.5,-382 25.5,-352 168.5,-352 168.5,-382"/>
<text text-anchor="start" x="33.5" y="-370" font-family="Helvetica,sans-Serif" font-size="10.00">Util::ISynchronizedPointer</text>
<text text-anchor="middle" x="97" y="-359" font-family="Helvetica,sans-Serif" font-size="10.00">Lockable</text>
</a>
</g>
</g>
<!-- Node7&#45;&gt;Node6 -->
<g id="edge6_Node000006_Node000007" class="edge">
<title>Node7&#45;&gt;Node6</title>
<g id="a_edge6_Node000006_Node000007"><a xlink:title=" ">
<path fill="none" stroke="#63b8ff" d="M97,-341.75C97,-332.72 97,-323.03 97,-316.27"/>
<polygon fill="#63b8ff" stroke="#63b8ff" points="93.5,-341.84 97,-351.84 100.5,-341.84 93.5,-341.84"/>
</a>
</g>
</g>
<!-- Node8 -->
<g id="Node000008" class="node">
<title>Node8</title>
<g id="a_Node000008"><a xlink:href="classUtil_1_1INonCopyable.html" target="_top" xlink:title="Interface to delete copy constructor and copy assignment operator and thus make derived classes non&#45;c...">
<polygon fill="white" stroke="#666666" points="151,-437 43,-437 43,-418 151,-418 151,-437"/>
<text text-anchor="middle" x="97" y="-425" font-family="Helvetica,sans-Serif" font-size="10.00">Util::INonCopyable</text>
</a>
</g>
</g>
<!-- Node8&#45;&gt;Node7 -->
<g id="edge7_Node000007_Node000008" class="edge">
<title>Node8&#45;&gt;Node7</title>
<g id="a_edge7_Node000007_Node000008"><a xlink:title=" ">
<path fill="none" stroke="#63b8ff" d="M97,-407.65C97,-399.36 97,-389.78 97,-382.11"/>
<polygon fill="#63b8ff" stroke="#63b8ff" points="93.5,-407.87 97,-417.87 100.5,-407.87 93.5,-407.87"/>
</a>
</g>
</g>
</g>
</svg>
