<?xml version="1.0" encoding="UTF-8" standalone="no"?>
<!DOCTYPE svg PUBLIC "-//W3C//DTD SVG 1.1//EN"
 "http://www.w3.org/Graphics/SVG/1.1/DTD/svg11.dtd">
<!-- Generated by graphviz version 2.43.0 (0)
 -->
<!-- Title: DynExp::UpdateTaskBase Pages: 1 -->
<svg width="1327pt" height="542pt"
 viewBox="0.00 0.00 1327.00 542.00" xmlns="http://www.w3.org/2000/svg" xmlns:xlink="http://www.w3.org/1999/xlink">
<g id="graph0" class="graph" transform="scale(1 1) rotate(0) translate(4 538)">
<title>DynExp::UpdateTaskBase</title>
<!-- Node1 -->
<g id="Node000001" class="node">
<title>Node1</title>
<g id="a_Node000001"><a xlink:title="Defines a task for updating an instrument within an instrument inheritance hierarchy....">
<polygon fill="#999999" stroke="#666666" points="283,-168.5 142,-168.5 142,-149.5 283,-149.5 283,-168.5"/>
<text text-anchor="middle" x="212.5" y="-156.5" font-family="Helvetica,sans-Serif" font-size="10.00">DynExp::UpdateTaskBase</text>
</a>
</g>
</g>
<!-- Node3 -->
<g id="Node000003" class="node">
<title>Node3</title>
<g id="a_Node000003"><a xlink:href="classDynExpInstr_1_1CameraTasks_1_1UpdateTask.html" target="_top" xlink:title="Defines a task for updating an instrument within an instrument inheritance hierarchy....">
<polygon fill="white" stroke="#666666" points="489.5,-438 342.5,-438 342.5,-408 489.5,-408 489.5,-438"/>
<text text-anchor="start" x="350.5" y="-426" font-family="Helvetica,sans-Serif" font-size="10.00">DynExpInstr::CameraTasks</text>
<text text-anchor="middle" x="416" y="-415" font-family="Helvetica,sans-Serif" font-size="10.00">::UpdateTask</text>
</a>
</g>
</g>
<!-- Node1&#45;&gt;Node3 -->
<g id="edge2_Node000001_Node000003" class="edge">
<title>Node1&#45;&gt;Node3</title>
<g id="a_edge2_Node000001_Node000003"><a xlink:title=" ">
<path fill="none" stroke="#63b8ff" d="M227.09,-176.81C264.53,-225.86 368.68,-362.31 403.5,-407.93"/>
<polygon fill="#63b8ff" stroke="#63b8ff" points="229.76,-174.53 220.91,-168.71 224.2,-178.78 229.76,-174.53"/>
</a>
</g>
</g>
<!-- Node6 -->
<g id="Node000006" class="node">
<title>Node6</title>
<g id="a_Node000006"><a xlink:href="classDynExpInstr_1_1DataStreamInstrumentTasks_1_1UpdateTask.html" target="_top" xlink:title="Defines a task for updating an instrument within an instrument inheritance hierarchy....">
<polygon fill="white" stroke="#666666" points="513,-222 319,-222 319,-192 513,-192 513,-222"/>
<text text-anchor="start" x="327" y="-210" font-family="Helvetica,sans-Serif" font-size="10.00">DynExpInstr::DataStreamInstrument</text>
<text text-anchor="middle" x="416" y="-199" font-family="Helvetica,sans-Serif" font-size="10.00">Tasks::UpdateTask</text>
</a>
</g>
</g>
<!-- Node1&#45;&gt;Node6 -->
<g id="edge5_Node000001_Node000006" class="edge">
<title>Node1&#45;&gt;Node6</title>
<g id="a_edge5_Node000001_Node000006"><a xlink:title=" ">
<path fill="none" stroke="#63b8ff" d="M263.67,-170.95C290.33,-177.3 323.37,-185.17 351.77,-191.94"/>
<polygon fill="#63b8ff" stroke="#63b8ff" points="264.33,-167.51 253.79,-168.6 262.71,-174.32 264.33,-167.51"/>
</a>
</g>
</g>
<!-- Node26 -->
<g id="Node000026" class="node">
<title>Node26</title>
<g id="a_Node000026"><a xlink:href="classDynExpInstr_1_1InterModuleCommunicatorTasks_1_1UpdateTask.html" target="_top" xlink:title="Defines a task for updating an instrument within an instrument inheritance hierarchy....">
<polygon fill="white" stroke="#666666" points="505.5,-174 326.5,-174 326.5,-144 505.5,-144 505.5,-174"/>
<text text-anchor="start" x="334.5" y="-162" font-family="Helvetica,sans-Serif" font-size="10.00">DynExpInstr::InterModule</text>
<text text-anchor="middle" x="416" y="-151" font-family="Helvetica,sans-Serif" font-size="10.00">CommunicatorTasks::UpdateTask</text>
</a>
</g>
</g>
<!-- Node1&#45;&gt;Node26 -->
<g id="edge25_Node000001_Node000026" class="edge">
<title>Node1&#45;&gt;Node26</title>
<g id="a_edge25_Node000001_Node000026"><a xlink:title=" ">
<path fill="none" stroke="#63b8ff" d="M293.35,-159C304.13,-159 315.25,-159 326.18,-159"/>
<polygon fill="#63b8ff" stroke="#63b8ff" points="293.13,-155.5 283.13,-159 293.13,-162.5 293.13,-155.5"/>
</a>
</g>
</g>
<!-- Node27 -->
<g id="Node000027" class="node">
<title>Node27</title>
<g id="a_Node000027"><a xlink:href="classDynExpInstr_1_1PositionerStageTasks_1_1UpdateTask.html" target="_top" xlink:title="Defines a task for updating an instrument within an instrument inheritance hierarchy....">
<polygon fill="white" stroke="#666666" points="495,-126 337,-126 337,-96 495,-96 495,-126"/>
<text text-anchor="start" x="345" y="-114" font-family="Helvetica,sans-Serif" font-size="10.00">DynExpInstr::PositionerStage</text>
<text text-anchor="middle" x="416" y="-103" font-family="Helvetica,sans-Serif" font-size="10.00">Tasks::UpdateTask</text>
</a>
</g>
</g>
<!-- Node1&#45;&gt;Node27 -->
<g id="edge26_Node000001_Node000027" class="edge">
<title>Node1&#45;&gt;Node27</title>
<g id="a_edge26_Node000001_Node000027"><a xlink:title=" ">
<path fill="none" stroke="#63b8ff" d="M263.67,-147.05C290.33,-140.7 323.37,-132.83 351.77,-126.06"/>
<polygon fill="#63b8ff" stroke="#63b8ff" points="262.71,-143.68 253.79,-149.4 264.33,-150.49 262.71,-143.68"/>
</a>
</g>
</g>
<!-- Node31 -->
<g id="Node000031" class="node">
<title>Node31</title>
<g id="a_Node000031"><a xlink:href="classDynExpInstr_1_1SpectrometerTasks_1_1UpdateTask.html" target="_top" xlink:title="Defines a task for updating an instrument within an instrument inheritance hierarchy....">
<polygon fill="white" stroke="#666666" points="490,-78 342,-78 342,-48 490,-48 490,-78"/>
<text text-anchor="start" x="350" y="-66" font-family="Helvetica,sans-Serif" font-size="10.00">DynExpInstr::Spectrometer</text>
<text text-anchor="middle" x="416" y="-55" font-family="Helvetica,sans-Serif" font-size="10.00">Tasks::UpdateTask</text>
</a>
</g>
</g>
<!-- Node1&#45;&gt;Node31 -->
<g id="edge30_Node000001_Node000031" class="edge">
<title>Node1&#45;&gt;Node31</title>
<g id="a_edge30_Node000001_Node000031"><a xlink:title=" ">
<path fill="none" stroke="#63b8ff" d="M232.52,-142.92C252.74,-126.6 286.25,-101.7 319,-87 326.6,-83.59 334.77,-80.61 343.01,-78.02"/>
<polygon fill="#63b8ff" stroke="#63b8ff" points="230.21,-140.28 224.71,-149.33 234.66,-145.69 230.21,-140.28"/>
</a>
</g>
</g>
<!-- Node2 -->
<g id="Node000002" class="node">
<title>Node2</title>
<g id="a_Node000002"><a xlink:href="classDynExp_1_1TaskBase.html" target="_top" xlink:title="Base class for all tasks being processed by instruments. The class must not contain public virtual fu...">
<polygon fill="white" stroke="#666666" points="106,-168.5 0,-168.5 0,-149.5 106,-149.5 106,-168.5"/>
<text text-anchor="middle" x="53" y="-156.5" font-family="Helvetica,sans-Serif" font-size="10.00">DynExp::TaskBase</text>
</a>
</g>
</g>
<!-- Node2&#45;&gt;Node1 -->
<g id="edge1_Node000001_Node000002" class="edge">
<title>Node2&#45;&gt;Node1</title>
<g id="a_edge1_Node000001_Node000002"><a xlink:title=" ">
<path fill="none" stroke="#63b8ff" d="M116.14,-159C124.58,-159 133.29,-159 141.85,-159"/>
<polygon fill="#63b8ff" stroke="#63b8ff" points="116.01,-155.5 106.01,-159 116.01,-162.5 116.01,-155.5"/>
</a>
</g>
</g>
<!-- Node4 -->
<g id="Node000004" class="node">
<title>Node4</title>
<g id="a_Node000004"><a xlink:href="classDynExpInstr_1_1DummyCameraTasks_1_1UpdateTask.html" target="_top" xlink:title=" ">
<polygon fill="white" stroke="#666666" points="714.5,-486 555.5,-486 555.5,-456 714.5,-456 714.5,-486"/>
<text text-anchor="start" x="563.5" y="-474" font-family="Helvetica,sans-Serif" font-size="10.00">DynExpInstr::DummyCamera</text>
<text text-anchor="middle" x="635" y="-463" font-family="Helvetica,sans-Serif" font-size="10.00">Tasks::UpdateTask</text>
</a>
</g>
</g>
<!-- Node3&#45;&gt;Node4 -->
<g id="edge3_Node000003_Node000004" class="edge">
<title>Node3&#45;&gt;Node4</title>
<g id="a_edge3_Node000003_Node000004"><a xlink:title=" ">
<path fill="none" stroke="#63b8ff" d="M494.91,-440.23C518.22,-445.39 543.57,-451 566.18,-456"/>
<polygon fill="#63b8ff" stroke="#63b8ff" points="495.58,-436.8 485.06,-438.06 494.07,-443.63 495.58,-436.8"/>
</a>
</g>
</g>
<!-- Node5 -->
<g id="Node000005" class="node">
<title>Node5</title>
<g id="a_Node000005"><a xlink:href="classDynExpInstr_1_1PVCamTasks_1_1UpdateTask.html" target="_top" xlink:title=" ">
<polygon fill="white" stroke="#666666" points="707,-438 563,-438 563,-408 707,-408 707,-438"/>
<text text-anchor="start" x="571" y="-426" font-family="Helvetica,sans-Serif" font-size="10.00">DynExpInstr::PVCamTasks</text>
<text text-anchor="middle" x="635" y="-415" font-family="Helvetica,sans-Serif" font-size="10.00">::UpdateTask</text>
</a>
</g>
</g>
<!-- Node3&#45;&gt;Node5 -->
<g id="edge4_Node000003_Node000005" class="edge">
<title>Node3&#45;&gt;Node5</title>
<g id="a_edge4_Node000003_Node000005"><a xlink:title=" ">
<path fill="none" stroke="#63b8ff" d="M499.68,-423C520.54,-423 542.75,-423 562.98,-423"/>
<polygon fill="#63b8ff" stroke="#63b8ff" points="499.56,-419.5 489.56,-423 499.56,-426.5 499.56,-419.5"/>
</a>
</g>
</g>
<!-- Node7 -->
<g id="Node000007" class="node">
<title>Node7</title>
<g id="a_Node000007"><a xlink:href="classDynExpInstr_1_1FunctionGeneratorTasks_1_1UpdateTask.html" target="_top" xlink:title="Defines a task for updating an instrument within an instrument inheritance hierarchy....">
<polygon fill="white" stroke="#666666" points="721,-390 549,-390 549,-360 721,-360 721,-390"/>
<text text-anchor="start" x="557" y="-378" font-family="Helvetica,sans-Serif" font-size="10.00">DynExpInstr::FunctionGenerator</text>
<text text-anchor="middle" x="635" y="-367" font-family="Helvetica,sans-Serif" font-size="10.00">Tasks::UpdateTask</text>
</a>
</g>
</g>
<!-- Node6&#45;&gt;Node7 -->
<g id="edge6_Node000006_Node000007" class="edge">
<title>Node6&#45;&gt;Node7</title>
<g id="a_edge6_Node000006_Node000007"><a xlink:title=" ">
<path fill="none" stroke="#63b8ff" d="M444.72,-228.46C489.32,-262.99 575.91,-330.03 614.56,-359.95"/>
<polygon fill="#63b8ff" stroke="#63b8ff" points="446.69,-225.56 436.64,-222.21 442.4,-231.09 446.69,-225.56"/>
</a>
</g>
</g>
<!-- Node17 -->
<g id="Node000017" class="node">
<title>Node17</title>
<g id="a_Node000017"><a xlink:href="classDynExpInstr_1_1InputPortTasks_1_1UpdateTask.html" target="_top" xlink:title="Defines a task for updating an instrument within an instrument inheritance hierarchy....">
<polygon fill="white" stroke="#666666" points="711.5,-270 558.5,-270 558.5,-240 711.5,-240 711.5,-270"/>
<text text-anchor="start" x="566.5" y="-258" font-family="Helvetica,sans-Serif" font-size="10.00">DynExpInstr::InputPortTasks</text>
<text text-anchor="middle" x="635" y="-247" font-family="Helvetica,sans-Serif" font-size="10.00">::UpdateTask</text>
</a>
</g>
</g>
<!-- Node6&#45;&gt;Node17 -->
<g id="edge16_Node000006_Node000017" class="edge">
<title>Node6&#45;&gt;Node17</title>
<g id="a_edge16_Node000006_Node000017"><a xlink:title=" ">
<path fill="none" stroke="#63b8ff" d="M494.91,-224.23C518.22,-229.39 543.57,-235 566.18,-240"/>
<polygon fill="#63b8ff" stroke="#63b8ff" points="495.58,-220.8 485.06,-222.06 494.07,-227.63 495.58,-220.8"/>
</a>
</g>
</g>
<!-- Node22 -->
<g id="Node000022" class="node">
<title>Node22</title>
<g id="a_Node000022"><a xlink:href="classDynExpInstr_1_1LockinAmplifierTasks_1_1UpdateTask.html" target="_top" xlink:title="Defines a task for updating an instrument within an instrument inheritance hierarchy....">
<polygon fill="white" stroke="#666666" points="714,-222 556,-222 556,-192 714,-192 714,-222"/>
<text text-anchor="start" x="564" y="-210" font-family="Helvetica,sans-Serif" font-size="10.00">DynExpInstr::LockinAmplifier</text>
<text text-anchor="middle" x="635" y="-199" font-family="Helvetica,sans-Serif" font-size="10.00">Tasks::UpdateTask</text>
</a>
</g>
</g>
<!-- Node6&#45;&gt;Node22 -->
<g id="edge21_Node000006_Node000022" class="edge">
<title>Node6&#45;&gt;Node22</title>
<g id="a_edge21_Node000006_Node000022"><a xlink:title=" ">
<path fill="none" stroke="#63b8ff" d="M523.21,-207C534.2,-207 545.23,-207 555.84,-207"/>
<polygon fill="#63b8ff" stroke="#63b8ff" points="523.13,-203.5 513.13,-207 523.13,-210.5 523.13,-203.5"/>
</a>
</g>
</g>
<!-- Node24 -->
<g id="Node000024" class="node">
<title>Node24</title>
<g id="a_Node000024"><a xlink:href="classDynExpInstr_1_1TimeTaggerTasks_1_1UpdateTask.html" target="_top" xlink:title="Defines a task for updating an instrument within an instrument inheritance hierarchy....">
<polygon fill="white" stroke="#666666" points="718,-174 552,-174 552,-144 718,-144 718,-174"/>
<text text-anchor="start" x="560" y="-162" font-family="Helvetica,sans-Serif" font-size="10.00">DynExpInstr::TimeTaggerTasks</text>
<text text-anchor="middle" x="635" y="-151" font-family="Helvetica,sans-Serif" font-size="10.00">::UpdateTask</text>
</a>
</g>
</g>
<!-- Node6&#45;&gt;Node24 -->
<g id="edge23_Node000006_Node000024" class="edge">
<title>Node6&#45;&gt;Node24</title>
<g id="a_edge23_Node000006_Node000024"><a xlink:title=" ">
<path fill="none" stroke="#63b8ff" d="M494.91,-189.77C518.22,-184.61 543.57,-179 566.18,-174"/>
<polygon fill="#63b8ff" stroke="#63b8ff" points="494.07,-186.37 485.06,-191.94 495.58,-193.2 494.07,-186.37"/>
</a>
</g>
</g>
<!-- Node8 -->
<g id="Node000008" class="node">
<title>Node8</title>
<g id="a_Node000008"><a xlink:href="classDynExpInstr_1_1DummyDataStreamInstrumentTasks_1_1UpdateTask.html" target="_top" xlink:title=" ">
<polygon fill="white" stroke="#666666" points="937.5,-534 758.5,-534 758.5,-504 937.5,-504 937.5,-534"/>
<text text-anchor="start" x="766.5" y="-522" font-family="Helvetica,sans-Serif" font-size="10.00">DynExpInstr::DummyDataStream</text>
<text text-anchor="middle" x="848" y="-511" font-family="Helvetica,sans-Serif" font-size="10.00">InstrumentTasks::UpdateTask</text>
</a>
</g>
</g>
<!-- Node7&#45;&gt;Node8 -->
<g id="edge7_Node000007_Node000008" class="edge">
<title>Node7&#45;&gt;Node8</title>
<g id="a_edge7_Node000007_Node000008"><a xlink:title=" ">
<path fill="none" stroke="#63b8ff" d="M717.01,-395.64C718.39,-396.7 719.72,-397.82 721,-399 754.54,-429.85 723.24,-464.4 757,-495 760.71,-498.37 764.85,-501.27 769.25,-503.77"/>
<polygon fill="#63b8ff" stroke="#63b8ff" points="718.92,-392.71 708.65,-390.11 715.06,-398.54 718.92,-392.71"/>
</a>
</g>
</g>
<!-- Node9 -->
<g id="Node000009" class="node">
<title>Node9</title>
<g id="a_Node000009"><a xlink:href="classDynExpInstr_1_1OutputPortTasks_1_1UpdateTask.html" target="_top" xlink:title="Defines a task for updating an instrument within an instrument inheritance hierarchy....">
<polygon fill="white" stroke="#666666" points="928.5,-486 767.5,-486 767.5,-456 928.5,-456 928.5,-486"/>
<text text-anchor="start" x="775.5" y="-474" font-family="Helvetica,sans-Serif" font-size="10.00">DynExpInstr::OutputPortTasks</text>
<text text-anchor="middle" x="848" y="-463" font-family="Helvetica,sans-Serif" font-size="10.00">::UpdateTask</text>
</a>
</g>
</g>
<!-- Node7&#45;&gt;Node9 -->
<g id="edge8_Node000007_Node000009" class="edge">
<title>Node7&#45;&gt;Node9</title>
<g id="a_edge8_Node000007_Node000009"><a xlink:title=" ">
<path fill="none" stroke="#63b8ff" d="M713.59,-394.44C716.15,-395.86 718.63,-397.37 721,-399 742.99,-414.08 734.9,-432.08 757,-447 762.09,-450.44 767.66,-453.39 773.44,-455.91"/>
<polygon fill="#63b8ff" stroke="#63b8ff" points="715.14,-391.3 704.62,-390.02 712.04,-397.58 715.14,-391.3"/>
</a>
</g>
</g>
<!-- Node14 -->
<g id="Node000014" class="node">
<title>Node14</title>
<g id="a_Node000014"><a xlink:href="classDynExpInstr_1_1RS__SMB100BTasks_1_1UpdateTask.html" target="_top" xlink:title=" ">
<polygon fill="white" stroke="#666666" points="934.5,-438 761.5,-438 761.5,-408 934.5,-408 934.5,-438"/>
<text text-anchor="start" x="769.5" y="-426" font-family="Helvetica,sans-Serif" font-size="10.00">DynExpInstr::RS_SMB100BTasks</text>
<text text-anchor="middle" x="848" y="-415" font-family="Helvetica,sans-Serif" font-size="10.00">::UpdateTask</text>
</a>
</g>
</g>
<!-- Node7&#45;&gt;Node14 -->
<g id="edge13_Node000007_Node000014" class="edge">
<title>Node7&#45;&gt;Node14</title>
<g id="a_edge13_Node000007_Node000014"><a xlink:title=" ">
<path fill="none" stroke="#63b8ff" d="M712.06,-392.3C734.64,-397.44 759.17,-403.02 781.05,-408"/>
<polygon fill="#63b8ff" stroke="#63b8ff" points="712.71,-388.86 702.18,-390.06 711.16,-395.69 712.71,-388.86"/>
</a>
</g>
</g>
<!-- Node15 -->
<g id="Node000015" class="node">
<title>Node15</title>
<g id="a_Node000015"><a xlink:href="classDynExpInstr_1_1RS__SMC100ATasks_1_1UpdateTask.html" target="_top" xlink:title=" ">
<polygon fill="white" stroke="#666666" points="934.5,-390 761.5,-390 761.5,-360 934.5,-360 934.5,-390"/>
<text text-anchor="start" x="769.5" y="-378" font-family="Helvetica,sans-Serif" font-size="10.00">DynExpInstr::RS_SMC100ATasks</text>
<text text-anchor="middle" x="848" y="-367" font-family="Helvetica,sans-Serif" font-size="10.00">::UpdateTask</text>
</a>
</g>
</g>
<!-- Node7&#45;&gt;Node15 -->
<g id="edge14_Node000007_Node000015" class="edge">
<title>Node7&#45;&gt;Node15</title>
<g id="a_edge14_Node000007_Node000015"><a xlink:title=" ">
<path fill="none" stroke="#63b8ff" d="M731.23,-375C741.31,-375 751.51,-375 761.47,-375"/>
<polygon fill="#63b8ff" stroke="#63b8ff" points="731.21,-371.5 721.21,-375 731.21,-378.5 731.21,-371.5"/>
</a>
</g>
</g>
<!-- Node16 -->
<g id="Node000016" class="node">
<title>Node16</title>
<g id="a_Node000016"><a xlink:href="classDynExpInstr_1_1SwabianInstrumentsPulseStreamerTasks_1_1UpdateTask.html" target="_top" xlink:title=" ">
<polygon fill="white" stroke="#666666" points="939,-342 757,-342 757,-312 939,-312 939,-342"/>
<text text-anchor="start" x="765" y="-330" font-family="Helvetica,sans-Serif" font-size="10.00">DynExpInstr::SwabianInstruments</text>
<text text-anchor="middle" x="848" y="-319" font-family="Helvetica,sans-Serif" font-size="10.00">PulseStreamerTasks::UpdateTask</text>
</a>
</g>
</g>
<!-- Node7&#45;&gt;Node16 -->
<g id="edge15_Node000007_Node000016" class="edge">
<title>Node7&#45;&gt;Node16</title>
<g id="a_edge15_Node000007_Node000016"><a xlink:title=" ">
<path fill="none" stroke="#63b8ff" d="M712.06,-357.7C734.64,-352.56 759.17,-346.98 781.05,-342"/>
<polygon fill="#63b8ff" stroke="#63b8ff" points="711.16,-354.31 702.18,-359.94 712.71,-361.14 711.16,-354.31"/>
</a>
</g>
</g>
<!-- Node10 -->
<g id="Node000010" class="node">
<title>Node10</title>
<g id="a_Node000010"><a xlink:href="classDynExpInstr_1_1AnalogOutTasks_1_1UpdateTask.html" target="_top" xlink:title="Defines a task for updating an instrument within an instrument inheritance hierarchy....">
<polygon fill="white" stroke="#666666" points="1135,-510 975,-510 975,-480 1135,-480 1135,-510"/>
<text text-anchor="start" x="983" y="-498" font-family="Helvetica,sans-Serif" font-size="10.00">DynExpInstr::AnalogOutTasks</text>
<text text-anchor="middle" x="1055" y="-487" font-family="Helvetica,sans-Serif" font-size="10.00">::UpdateTask</text>
</a>
</g>
</g>
<!-- Node9&#45;&gt;Node10 -->
<g id="edge9_Node000009_Node000010" class="edge">
<title>Node9&#45;&gt;Node10</title>
<g id="a_edge9_Node000009_Node000010"><a xlink:title=" ">
<path fill="none" stroke="#63b8ff" d="M938.61,-481.49C950.67,-482.9 962.97,-484.34 974.83,-485.73"/>
<polygon fill="#63b8ff" stroke="#63b8ff" points="938.89,-478 928.55,-480.31 938.08,-484.95 938.89,-478"/>
</a>
</g>
</g>
<!-- Node12 -->
<g id="Node000012" class="node">
<title>Node12</title>
<g id="a_Node000012"><a xlink:href="classDynExpInstr_1_1DigitalOutTasks_1_1UpdateTask.html" target="_top" xlink:title="Defines a task for updating an instrument within an instrument inheritance hierarchy....">
<polygon fill="white" stroke="#666666" points="1134,-462 976,-462 976,-432 1134,-432 1134,-462"/>
<text text-anchor="start" x="984" y="-450" font-family="Helvetica,sans-Serif" font-size="10.00">DynExpInstr::DigitalOutTasks</text>
<text text-anchor="middle" x="1055" y="-439" font-family="Helvetica,sans-Serif" font-size="10.00">::UpdateTask</text>
</a>
</g>
</g>
<!-- Node9&#45;&gt;Node12 -->
<g id="edge11_Node000009_Node000012" class="edge">
<title>Node9&#45;&gt;Node12</title>
<g id="a_edge11_Node000009_Node000012"><a xlink:title=" ">
<path fill="none" stroke="#63b8ff" d="M938.83,-460.48C951.16,-459.04 963.74,-457.57 975.84,-456.15"/>
<polygon fill="#63b8ff" stroke="#63b8ff" points="938.08,-457.05 928.55,-461.69 938.89,-464 938.08,-457.05"/>
</a>
</g>
</g>
<!-- Node11 -->
<g id="Node000011" class="node">
<title>Node11</title>
<g id="a_Node000011"><a xlink:href="classDynExpInstr_1_1NIDAQAnalogOutTasks_1_1UpdateTask.html" target="_top" xlink:title=" ">
<polygon fill="white" stroke="#666666" points="1319,-510 1171,-510 1171,-480 1319,-480 1319,-510"/>
<text text-anchor="start" x="1179" y="-498" font-family="Helvetica,sans-Serif" font-size="10.00">DynExpInstr::NIDAQAnalog</text>
<text text-anchor="middle" x="1245" y="-487" font-family="Helvetica,sans-Serif" font-size="10.00">OutTasks::UpdateTask</text>
</a>
</g>
</g>
<!-- Node10&#45;&gt;Node11 -->
<g id="edge10_Node000010_Node000011" class="edge">
<title>Node10&#45;&gt;Node11</title>
<g id="a_edge10_Node000010_Node000011"><a xlink:title=" ">
<path fill="none" stroke="#63b8ff" d="M1145.23,-495C1153.83,-495 1162.48,-495 1170.9,-495"/>
<polygon fill="#63b8ff" stroke="#63b8ff" points="1145.18,-491.5 1135.18,-495 1145.18,-498.5 1145.18,-491.5"/>
</a>
</g>
</g>
<!-- Node13 -->
<g id="Node000013" class="node">
<title>Node13</title>
<g id="a_Node000013"><a xlink:href="classDynExpInstr_1_1NIDAQDigitalOutTasks_1_1UpdateTask.html" target="_top" xlink:title=" ">
<polygon fill="white" stroke="#666666" points="1318,-462 1172,-462 1172,-432 1318,-432 1318,-462"/>
<text text-anchor="start" x="1180" y="-450" font-family="Helvetica,sans-Serif" font-size="10.00">DynExpInstr::NIDAQDigital</text>
<text text-anchor="middle" x="1245" y="-439" font-family="Helvetica,sans-Serif" font-size="10.00">OutTasks::UpdateTask</text>
</a>
</g>
</g>
<!-- Node12&#45;&gt;Node13 -->
<g id="edge12_Node000012_Node000013" class="edge">
<title>Node12&#45;&gt;Node13</title>
<g id="a_edge12_Node000012_Node000013"><a xlink:title=" ">
<path fill="none" stroke="#63b8ff" d="M1144.13,-447C1153.42,-447 1162.79,-447 1171.86,-447"/>
<polygon fill="#63b8ff" stroke="#63b8ff" points="1144.1,-443.5 1134.1,-447 1144.1,-450.5 1144.1,-443.5"/>
</a>
</g>
</g>
<!-- Node18 -->
<g id="Node000018" class="node">
<title>Node18</title>
<g id="a_Node000018"><a xlink:href="classDynExpInstr_1_1AnalogInTasks_1_1UpdateTask.html" target="_top" xlink:title="Defines a task for updating an instrument within an instrument inheritance hierarchy....">
<polygon fill="white" stroke="#666666" points="924,-294 772,-294 772,-264 924,-264 924,-294"/>
<text text-anchor="start" x="780" y="-282" font-family="Helvetica,sans-Serif" font-size="10.00">DynExpInstr::AnalogInTasks</text>
<text text-anchor="middle" x="848" y="-271" font-family="Helvetica,sans-Serif" font-size="10.00">::UpdateTask</text>
</a>
</g>
</g>
<!-- Node17&#45;&gt;Node18 -->
<g id="edge17_Node000017_Node000018" class="edge">
<title>Node17&#45;&gt;Node18</title>
<g id="a_edge17_Node000017_Node000018"><a xlink:title=" ">
<path fill="none" stroke="#63b8ff" d="M721.82,-264.76C738.43,-266.65 755.71,-268.62 771.95,-270.46"/>
<polygon fill="#63b8ff" stroke="#63b8ff" points="721.91,-261.25 711.58,-263.6 721.12,-268.2 721.91,-261.25"/>
</a>
</g>
</g>
<!-- Node20 -->
<g id="Node000020" class="node">
<title>Node20</title>
<g id="a_Node000020"><a xlink:href="classDynExpInstr_1_1DigitalInTasks_1_1UpdateTask.html" target="_top" xlink:title="Defines a task for updating an instrument within an instrument inheritance hierarchy....">
<polygon fill="white" stroke="#666666" points="923,-246 773,-246 773,-216 923,-216 923,-246"/>
<text text-anchor="start" x="781" y="-234" font-family="Helvetica,sans-Serif" font-size="10.00">DynExpInstr::DigitalInTasks</text>
<text text-anchor="middle" x="848" y="-223" font-family="Helvetica,sans-Serif" font-size="10.00">::UpdateTask</text>
</a>
</g>
</g>
<!-- Node17&#45;&gt;Node20 -->
<g id="edge19_Node000017_Node000020" class="edge">
<title>Node17&#45;&gt;Node20</title>
<g id="a_edge19_Node000017_Node000020"><a xlink:title=" ">
<path fill="none" stroke="#63b8ff" d="M721.94,-245.22C738.76,-243.31 756.26,-241.32 772.66,-239.46"/>
<polygon fill="#63b8ff" stroke="#63b8ff" points="721.12,-241.8 711.58,-246.4 721.91,-248.75 721.12,-241.8"/>
</a>
</g>
</g>
<!-- Node19 -->
<g id="Node000019" class="node">
<title>Node19</title>
<g id="a_Node000019"><a xlink:href="classDynExpInstr_1_1NIDAQAnalogInTasks_1_1UpdateTask.html" target="_top" xlink:title=" ">
<polygon fill="white" stroke="#666666" points="1129,-294 981,-294 981,-264 1129,-264 1129,-294"/>
<text text-anchor="start" x="989" y="-282" font-family="Helvetica,sans-Serif" font-size="10.00">DynExpInstr::NIDAQAnalog</text>
<text text-anchor="middle" x="1055" y="-271" font-family="Helvetica,sans-Serif" font-size="10.00">InTasks::UpdateTask</text>
</a>
</g>
</g>
<!-- Node18&#45;&gt;Node19 -->
<g id="edge18_Node000018_Node000019" class="edge">
<title>Node18&#45;&gt;Node19</title>
<g id="a_edge18_Node000018_Node000019"><a xlink:title=" ">
<path fill="none" stroke="#63b8ff" d="M934.26,-279C949.75,-279 965.79,-279 980.89,-279"/>
<polygon fill="#63b8ff" stroke="#63b8ff" points="934.17,-275.5 924.17,-279 934.17,-282.5 934.17,-275.5"/>
</a>
</g>
</g>
<!-- Node21 -->
<g id="Node000021" class="node">
<title>Node21</title>
<g id="a_Node000021"><a xlink:href="classDynExpInstr_1_1NIDAQDigitalInTasks_1_1UpdateTask.html" target="_top" xlink:title=" ">
<polygon fill="white" stroke="#666666" points="1128,-246 982,-246 982,-216 1128,-216 1128,-246"/>
<text text-anchor="start" x="990" y="-234" font-family="Helvetica,sans-Serif" font-size="10.00">DynExpInstr::NIDAQDigital</text>
<text text-anchor="middle" x="1055" y="-223" font-family="Helvetica,sans-Serif" font-size="10.00">InTasks::UpdateTask</text>
</a>
</g>
</g>
<!-- Node20&#45;&gt;Node21 -->
<g id="edge20_Node000020_Node000021" class="edge">
<title>Node20&#45;&gt;Node21</title>
<g id="a_edge20_Node000020_Node000021"><a xlink:title=" ">
<path fill="none" stroke="#63b8ff" d="M933.46,-231C949.51,-231 966.18,-231 981.81,-231"/>
<polygon fill="#63b8ff" stroke="#63b8ff" points="933.01,-227.5 923.01,-231 933.01,-234.5 933.01,-227.5"/>
</a>
</g>
</g>
<!-- Node23 -->
<g id="Node000023" class="node">
<title>Node23</title>
<g id="a_Node000023"><a xlink:href="classDynExpInstr_1_1ZI__MFLITasks_1_1UpdateTask.html" target="_top" xlink:title=" ">
<polygon fill="white" stroke="#666666" points="921.5,-198 774.5,-198 774.5,-168 921.5,-168 921.5,-198"/>
<text text-anchor="start" x="782.5" y="-186" font-family="Helvetica,sans-Serif" font-size="10.00">DynExpInstr::ZI_MFLITasks</text>
<text text-anchor="middle" x="848" y="-175" font-family="Helvetica,sans-Serif" font-size="10.00">::UpdateTask</text>
</a>
</g>
</g>
<!-- Node22&#45;&gt;Node23 -->
<g id="edge22_Node000022_Node000023" class="edge">
<title>Node22&#45;&gt;Node23</title>
<g id="a_edge22_Node000022_Node000023"><a xlink:title=" ">
<path fill="none" stroke="#63b8ff" d="M724.53,-196.93C741.16,-195.04 758.37,-193.08 774.45,-191.25"/>
<polygon fill="#63b8ff" stroke="#63b8ff" points="723.81,-193.49 714.27,-198.1 724.6,-200.44 723.81,-193.49"/>
</a>
</g>
</g>
<!-- Node25 -->
<g id="Node000025" class="node">
<title>Node25</title>
<g id="a_Node000025"><a xlink:href="classDynExpInstr_1_1QutoolsQuTAGTasks_1_1UpdateTask.html" target="_top" xlink:title=" ">
<polygon fill="white" stroke="#666666" points="937.5,-150 758.5,-150 758.5,-120 937.5,-120 937.5,-150"/>
<text text-anchor="start" x="766.5" y="-138" font-family="Helvetica,sans-Serif" font-size="10.00">DynExpInstr::QutoolsQuTAGTasks</text>
<text text-anchor="middle" x="848" y="-127" font-family="Helvetica,sans-Serif" font-size="10.00">::UpdateTask</text>
</a>
</g>
</g>
<!-- Node24&#45;&gt;Node25 -->
<g id="edge24_Node000024_Node000025" class="edge">
<title>Node24&#45;&gt;Node25</title>
<g id="a_edge24_Node000024_Node000025"><a xlink:title=" ">
<path fill="none" stroke="#63b8ff" d="M728.16,-148.52C738.2,-147.38 748.41,-146.21 758.41,-145.08"/>
<polygon fill="#63b8ff" stroke="#63b8ff" points="727.72,-145.04 718.18,-149.65 728.51,-152 727.72,-145.04"/>
</a>
</g>
</g>
<!-- Node28 -->
<g id="Node000028" class="node">
<title>Node28</title>
<g id="a_Node000028"><a xlink:href="classDynExpInstr_1_1NenionLeakvalveF3Tasks_1_1UpdateTask.html" target="_top" xlink:title=" ">
<polygon fill="white" stroke="#666666" points="718.5,-126 551.5,-126 551.5,-96 718.5,-96 718.5,-126"/>
<text text-anchor="start" x="559.5" y="-114" font-family="Helvetica,sans-Serif" font-size="10.00">DynExpInstr::NenionLeakvalve</text>
<text text-anchor="middle" x="635" y="-103" font-family="Helvetica,sans-Serif" font-size="10.00">F3Tasks::UpdateTask</text>
</a>
</g>
</g>
<!-- Node27&#45;&gt;Node28 -->
<g id="edge27_Node000027_Node000028" class="edge">
<title>Node27&#45;&gt;Node28</title>
<g id="a_edge27_Node000027_Node000028"><a xlink:title=" ">
<path fill="none" stroke="#63b8ff" d="M505.4,-111C520.53,-111 536.19,-111 551.16,-111"/>
<polygon fill="#63b8ff" stroke="#63b8ff" points="505.04,-107.5 495.04,-111 505.04,-114.5 505.04,-107.5"/>
</a>
</g>
</g>
<!-- Node29 -->
<g id="Node000029" class="node">
<title>Node29</title>
<g id="a_Node000029"><a xlink:href="classDynExpInstr_1_1PI__C__862__Tasks_1_1UpdateTask.html" target="_top" xlink:title=" ">
<polygon fill="white" stroke="#666666" points="698,-78 572,-78 572,-48 698,-48 698,-78"/>
<text text-anchor="start" x="580" y="-66" font-family="Helvetica,sans-Serif" font-size="10.00">DynExpInstr::PI_C_862</text>
<text text-anchor="middle" x="635" y="-55" font-family="Helvetica,sans-Serif" font-size="10.00">_Tasks::UpdateTask</text>
</a>
</g>
</g>
<!-- Node27&#45;&gt;Node29 -->
<g id="edge28_Node000027_Node000029" class="edge">
<title>Node27&#45;&gt;Node29</title>
<g id="a_edge28_Node000027_Node000029"><a xlink:title=" ">
<path fill="none" stroke="#63b8ff" d="M494.96,-93.75C520.18,-88.18 547.78,-82.07 571.71,-76.78"/>
<polygon fill="#63b8ff" stroke="#63b8ff" points="494.07,-90.37 485.06,-95.94 495.58,-97.2 494.07,-90.37"/>
</a>
</g>
</g>
<!-- Node30 -->
<g id="Node000030" class="node">
<title>Node30</title>
<g id="a_Node000030"><a xlink:href="classDynExpInstr_1_1SmarActTasks_1_1UpdateTask.html" target="_top" xlink:title=" ">
<polygon fill="white" stroke="#666666" points="710,-30 560,-30 560,0 710,0 710,-30"/>
<text text-anchor="start" x="568" y="-18" font-family="Helvetica,sans-Serif" font-size="10.00">DynExpInstr::SmarActTasks</text>
<text text-anchor="middle" x="635" y="-7" font-family="Helvetica,sans-Serif" font-size="10.00">::UpdateTask</text>
</a>
</g>
</g>
<!-- Node27&#45;&gt;Node30 -->
<g id="edge29_Node000027_Node000030" class="edge">
<title>Node27&#45;&gt;Node30</title>
<g id="a_edge29_Node000027_Node000030"><a xlink:title=" ">
<path fill="none" stroke="#63b8ff" d="M504.5,-92.02C507.44,-90.48 510.28,-88.81 513,-87 535.22,-72.25 527.01,-54.08 549,-39 554.06,-35.53 559.61,-32.56 565.38,-30.02"/>
<polygon fill="#63b8ff" stroke="#63b8ff" points="503,-88.86 495.45,-96.29 505.99,-95.19 503,-88.86"/>
</a>
</g>
</g>
</g>
</svg>
