<?xml version="1.0" encoding="UTF-8" standalone="no"?>
<!DOCTYPE svg PUBLIC "-//W3C//DTD SVG 1.1//EN"
 "http://www.w3.org/Graphics/SVG/1.1/DTD/svg11.dtd">
<!-- Generated by graphviz version 2.43.0 (0)
 -->
<!-- Title: DynExpInstr::DataStreamInstrumentConfigurator Pages: 1 -->
<svg width="1744pt" height="359pt"
 viewBox="0.00 0.00 1744.00 358.50" xmlns="http://www.w3.org/2000/svg" xmlns:xlink="http://www.w3.org/1999/xlink">
<g id="graph0" class="graph" transform="scale(1 1) rotate(0) translate(4 354.5)">
<title>DynExpInstr::DataStreamInstrumentConfigurator</title>
<polygon fill="white" stroke="transparent" points="-4,4 -4,-354.5 1740,-354.5 1740,4 -4,4"/>
<!-- Node1 -->
<g id="node1" class="node">
<title>Node1</title>
<g id="a_node1"><a xlink:title="Configurator class for DataStreamInstrument.">
<polygon fill="#bfbfbf" stroke="black" points="646,-61 646,-91 840,-91 840,-61 646,-61"/>
<text text-anchor="start" x="654" y="-79" font-family="Helvetica,sans-Serif" font-size="10.00">DynExpInstr::DataStreamInstrument</text>
<text text-anchor="middle" x="743" y="-68" font-family="Helvetica,sans-Serif" font-size="10.00">Configurator</text>
</a>
</g>
</g>
<!-- Node5 -->
<g id="node5" class="node">
<title>Node5</title>
<g id="a_node5"><a xlink:href="classDynExpInstr_1_1FunctionGeneratorConfigurator.html" target="_top" xlink:title="Configurator class for FunctionGenerator.">
<polygon fill="white" stroke="black" points="889.5,-219 889.5,-249 1061.5,-249 1061.5,-219 889.5,-219"/>
<text text-anchor="start" x="897.5" y="-237" font-family="Helvetica,sans-Serif" font-size="10.00">DynExpInstr::FunctionGenerator</text>
<text text-anchor="middle" x="975.5" y="-226" font-family="Helvetica,sans-Serif" font-size="10.00">Configurator</text>
</a>
</g>
</g>
<!-- Node1&#45;&gt;Node5 -->
<g id="edge4" class="edge">
<title>Node1&#45;&gt;Node5</title>
<path fill="none" stroke="midnightblue" d="M774.38,-96.83C821.49,-129.12 911.04,-190.5 952.47,-218.9"/>
<polygon fill="midnightblue" stroke="midnightblue" points="776.33,-93.92 766.1,-91.15 772.37,-99.69 776.33,-93.92"/>
</g>
<!-- Node15 -->
<g id="node15" class="node">
<title>Node15</title>
<g id="a_node15"><a xlink:href="classDynExpInstr_1_1InputPortConfigurator.html" target="_top" xlink:title="Configurator class for InputPort.">
<polygon fill="white" stroke="black" points="882.5,-88.5 882.5,-107.5 1068.5,-107.5 1068.5,-88.5 882.5,-88.5"/>
<text text-anchor="middle" x="975.5" y="-95.5" font-family="Helvetica,sans-Serif" font-size="10.00">DynExpInstr::InputPortConfigurator</text>
</a>
</g>
</g>
<!-- Node1&#45;&gt;Node15 -->
<g id="edge14" class="edge">
<title>Node1&#45;&gt;Node15</title>
<path fill="none" stroke="midnightblue" d="M850.28,-86.14C860.96,-87.16 871.75,-88.19 882.27,-89.2"/>
<polygon fill="midnightblue" stroke="midnightblue" points="850.37,-82.64 840.08,-85.17 849.71,-89.61 850.37,-82.64"/>
</g>
<!-- Node20 -->
<g id="node20" class="node">
<title>Node20</title>
<g id="a_node20"><a xlink:href="classDynExpInstr_1_1LockinAmplifierConfigurator.html" target="_top" xlink:title="Configurator class for LockinAmplifier.">
<polygon fill="white" stroke="black" points="896.5,-39 896.5,-69 1054.5,-69 1054.5,-39 896.5,-39"/>
<text text-anchor="start" x="904.5" y="-57" font-family="Helvetica,sans-Serif" font-size="10.00">DynExpInstr::LockinAmplifier</text>
<text text-anchor="middle" x="975.5" y="-46" font-family="Helvetica,sans-Serif" font-size="10.00">Configurator</text>
</a>
</g>
</g>
<!-- Node1&#45;&gt;Node20 -->
<g id="edge19" class="edge">
<title>Node1&#45;&gt;Node20</title>
<path fill="none" stroke="midnightblue" d="M850.26,-65.86C865.81,-64.37 881.59,-62.87 896.44,-61.45"/>
<polygon fill="midnightblue" stroke="midnightblue" points="849.71,-62.39 840.08,-66.83 850.37,-69.36 849.71,-62.39"/>
</g>
<!-- Node22 -->
<g id="node22" class="node">
<title>Node22</title>
<g id="a_node22"><a xlink:href="classDynExpInstr_1_1TimeTaggerConfigurator.html" target="_top" xlink:title="Configurator class for TimeTagger.">
<polygon fill="white" stroke="black" points="876,-0.5 876,-19.5 1075,-19.5 1075,-0.5 876,-0.5"/>
<text text-anchor="middle" x="975.5" y="-7.5" font-family="Helvetica,sans-Serif" font-size="10.00">DynExpInstr::TimeTaggerConfigurator</text>
</a>
</g>
</g>
<!-- Node1&#45;&gt;Node22 -->
<g id="edge21" class="edge">
<title>Node1&#45;&gt;Node22</title>
<path fill="none" stroke="midnightblue" d="M790.94,-57.33C815.91,-47.9 847.31,-36.83 876,-29 889.19,-25.4 903.55,-22.22 917.13,-19.55"/>
<polygon fill="midnightblue" stroke="midnightblue" points="789.45,-54.15 781.35,-60.99 791.95,-60.69 789.45,-54.15"/>
</g>
<!-- Node2 -->
<g id="node2" class="node">
<title>Node2</title>
<g id="a_node2"><a xlink:href="classDynExp_1_1InstrumentConfiguratorBase.html" target="_top" xlink:title="Configurator class for InstrumentBase.">
<polygon fill="white" stroke="black" points="413,-66.5 413,-85.5 610,-85.5 610,-66.5 413,-66.5"/>
<text text-anchor="middle" x="511.5" y="-73.5" font-family="Helvetica,sans-Serif" font-size="10.00">DynExp::InstrumentConfiguratorBase</text>
</a>
</g>
</g>
<!-- Node2&#45;&gt;Node1 -->
<g id="edge1" class="edge">
<title>Node2&#45;&gt;Node1</title>
<path fill="none" stroke="midnightblue" d="M620.19,-76C628.77,-76 637.4,-76 645.89,-76"/>
<polygon fill="midnightblue" stroke="midnightblue" points="620.16,-72.5 610.16,-76 620.16,-79.5 620.16,-72.5"/>
</g>
<!-- Node3 -->
<g id="node3" class="node">
<title>Node3</title>
<g id="a_node3"><a xlink:href="classDynExp_1_1RunnableObjectConfigurator.html" target="_top" xlink:title="Configurator class for RunnableObject.">
<polygon fill="white" stroke="black" points="180,-66.5 180,-85.5 377,-85.5 377,-66.5 180,-66.5"/>
<text text-anchor="middle" x="278.5" y="-73.5" font-family="Helvetica,sans-Serif" font-size="10.00">DynExp::RunnableObjectConfigurator</text>
</a>
</g>
</g>
<!-- Node3&#45;&gt;Node2 -->
<g id="edge2" class="edge">
<title>Node3&#45;&gt;Node2</title>
<path fill="none" stroke="midnightblue" d="M387.15,-76C395.72,-76 404.35,-76 412.85,-76"/>
<polygon fill="midnightblue" stroke="midnightblue" points="387.13,-72.5 377.13,-76 387.13,-79.5 387.13,-72.5"/>
</g>
<!-- Node4 -->
<g id="node4" class="node">
<title>Node4</title>
<g id="a_node4"><a xlink:href="classDynExp_1_1ConfiguratorBase.html" target="_top" xlink:title="The configurator classes have the task to generate parameter objects (refer to DynExp::ParamsBase) of...">
<polygon fill="white" stroke="black" points="0,-66.5 0,-85.5 144,-85.5 144,-66.5 0,-66.5"/>
<text text-anchor="middle" x="72" y="-73.5" font-family="Helvetica,sans-Serif" font-size="10.00">DynExp::ConfiguratorBase</text>
</a>
</g>
</g>
<!-- Node4&#45;&gt;Node3 -->
<g id="edge3" class="edge">
<title>Node4&#45;&gt;Node3</title>
<path fill="none" stroke="midnightblue" d="M154.36,-76C162.76,-76 171.35,-76 179.89,-76"/>
<polygon fill="midnightblue" stroke="midnightblue" points="154.24,-72.5 144.24,-76 154.24,-79.5 154.24,-72.5"/>
</g>
<!-- Node6 -->
<g id="node6" class="node">
<title>Node6</title>
<g id="a_node6"><a xlink:href="classDynExpInstr_1_1DummyDataStreamInstrumentConfigurator.html" target="_top" xlink:title=" ">
<polygon fill="white" stroke="black" points="1127.5,-320 1127.5,-350 1306.5,-350 1306.5,-320 1127.5,-320"/>
<text text-anchor="start" x="1135.5" y="-338" font-family="Helvetica,sans-Serif" font-size="10.00">DynExpInstr::DummyDataStream</text>
<text text-anchor="middle" x="1217" y="-327" font-family="Helvetica,sans-Serif" font-size="10.00">InstrumentConfigurator</text>
</a>
</g>
</g>
<!-- Node5&#45;&gt;Node6 -->
<g id="edge5" class="edge">
<title>Node5&#45;&gt;Node6</title>
<path fill="none" stroke="midnightblue" d="M1007.3,-254.73C1033.79,-271.72 1073.54,-295.3 1111,-310 1120.59,-313.77 1130.91,-317.07 1141.2,-319.93"/>
<polygon fill="midnightblue" stroke="midnightblue" points="1009.14,-251.75 998.85,-249.24 1005.33,-257.62 1009.14,-251.75"/>
</g>
<!-- Node7 -->
<g id="node7" class="node">
<title>Node7</title>
<g id="a_node7"><a xlink:href="classDynExpInstr_1_1OutputPortConfigurator.html" target="_top" xlink:title="Configurator class for OutputPort.">
<polygon fill="white" stroke="black" points="1120,-281.5 1120,-300.5 1314,-300.5 1314,-281.5 1120,-281.5"/>
<text text-anchor="middle" x="1217" y="-288.5" font-family="Helvetica,sans-Serif" font-size="10.00">DynExpInstr::OutputPortConfigurator</text>
</a>
</g>
</g>
<!-- Node5&#45;&gt;Node7 -->
<g id="edge6" class="edge">
<title>Node5&#45;&gt;Node7</title>
<path fill="none" stroke="midnightblue" d="M1035.19,-251.91C1058.64,-258.71 1085.97,-266.21 1111,-272 1126.07,-275.48 1142.48,-278.72 1157.75,-281.49"/>
<polygon fill="midnightblue" stroke="midnightblue" points="1035.98,-248.49 1025.4,-249.04 1034.01,-255.21 1035.98,-248.49"/>
</g>
<!-- Node12 -->
<g id="node12" class="node">
<title>Node12</title>
<g id="a_node12"><a xlink:href="classDynExpInstr_1_1RS__SMB100BConfigurator.html" target="_top" xlink:title=" ">
<polygon fill="white" stroke="black" points="1114,-243.5 1114,-262.5 1320,-262.5 1320,-243.5 1114,-243.5"/>
<text text-anchor="middle" x="1217" y="-250.5" font-family="Helvetica,sans-Serif" font-size="10.00">DynExpInstr::RS_SMB100BConfigurator</text>
</a>
</g>
</g>
<!-- Node5&#45;&gt;Node12 -->
<g id="edge11" class="edge">
<title>Node5&#45;&gt;Node12</title>
<path fill="none" stroke="midnightblue" d="M1071.64,-241.55C1085.55,-242.65 1099.91,-243.79 1113.95,-244.9"/>
<polygon fill="midnightblue" stroke="midnightblue" points="1071.86,-238.05 1061.61,-240.75 1071.3,-245.03 1071.86,-238.05"/>
</g>
<!-- Node13 -->
<g id="node13" class="node">
<title>Node13</title>
<g id="a_node13"><a xlink:href="classDynExpInstr_1_1RS__SMC100AConfigurator.html" target="_top" xlink:title=" ">
<polygon fill="white" stroke="black" points="1114,-205.5 1114,-224.5 1320,-224.5 1320,-205.5 1114,-205.5"/>
<text text-anchor="middle" x="1217" y="-212.5" font-family="Helvetica,sans-Serif" font-size="10.00">DynExpInstr::RS_SMC100AConfigurator</text>
</a>
</g>
</g>
<!-- Node5&#45;&gt;Node13 -->
<g id="edge12" class="edge">
<title>Node5&#45;&gt;Node13</title>
<path fill="none" stroke="midnightblue" d="M1071.64,-226.45C1085.55,-225.35 1099.91,-224.21 1113.95,-223.1"/>
<polygon fill="midnightblue" stroke="midnightblue" points="1071.3,-222.97 1061.61,-227.25 1071.86,-229.95 1071.3,-222.97"/>
</g>
<!-- Node14 -->
<g id="node14" class="node">
<title>Node14</title>
<g id="a_node14"><a xlink:href="classDynExpInstr_1_1SwabianInstrumentsPulseStreamerConfigurator.html" target="_top" xlink:title=" ">
<polygon fill="white" stroke="black" points="1126,-156 1126,-186 1308,-186 1308,-156 1126,-156"/>
<text text-anchor="start" x="1134" y="-174" font-family="Helvetica,sans-Serif" font-size="10.00">DynExpInstr::SwabianInstruments</text>
<text text-anchor="middle" x="1217" y="-163" font-family="Helvetica,sans-Serif" font-size="10.00">PulseStreamerConfigurator</text>
</a>
</g>
</g>
<!-- Node5&#45;&gt;Node14 -->
<g id="edge13" class="edge">
<title>Node5&#45;&gt;Node14</title>
<path fill="none" stroke="midnightblue" d="M1037.41,-216.21C1060.41,-209.65 1086.86,-202.28 1111,-196 1123.88,-192.65 1137.69,-189.23 1150.92,-186.05"/>
<polygon fill="midnightblue" stroke="midnightblue" points="1036.43,-212.85 1027.78,-218.97 1038.35,-219.58 1036.43,-212.85"/>
</g>
<!-- Node8 -->
<g id="node8" class="node">
<title>Node8</title>
<g id="a_node8"><a xlink:href="classDynExpInstr_1_1AnalogOutConfigurator.html" target="_top" xlink:title="Configurator class for AnalogOut.">
<polygon fill="white" stroke="black" points="1359,-302.5 1359,-321.5 1552,-321.5 1552,-302.5 1359,-302.5"/>
<text text-anchor="middle" x="1455.5" y="-309.5" font-family="Helvetica,sans-Serif" font-size="10.00">DynExpInstr::AnalogOutConfigurator</text>
</a>
</g>
</g>
<!-- Node7&#45;&gt;Node8 -->
<g id="edge7" class="edge">
<title>Node7&#45;&gt;Node8</title>
<path fill="none" stroke="midnightblue" d="M1324.25,-300.43C1335.75,-301.46 1347.41,-302.49 1358.78,-303.5"/>
<polygon fill="midnightblue" stroke="midnightblue" points="1324.46,-296.94 1314.19,-299.54 1323.84,-303.91 1324.46,-296.94"/>
</g>
<!-- Node10 -->
<g id="node10" class="node">
<title>Node10</title>
<g id="a_node10"><a xlink:href="classDynExpInstr_1_1DigitalOutConfigurator.html" target="_top" xlink:title="Configurator class for DigitalOut.">
<polygon fill="white" stroke="black" points="1360,-259.5 1360,-278.5 1551,-278.5 1551,-259.5 1360,-259.5"/>
<text text-anchor="middle" x="1455.5" y="-266.5" font-family="Helvetica,sans-Serif" font-size="10.00">DynExpInstr::DigitalOutConfigurator</text>
</a>
</g>
</g>
<!-- Node7&#45;&gt;Node10 -->
<g id="edge9" class="edge">
<title>Node7&#45;&gt;Node10</title>
<path fill="none" stroke="midnightblue" d="M1324.16,-281.12C1336.08,-280.02 1348.16,-278.89 1359.92,-277.8"/>
<polygon fill="midnightblue" stroke="midnightblue" points="1323.83,-277.64 1314.19,-282.05 1324.47,-284.61 1323.83,-277.64"/>
</g>
<!-- Node9 -->
<g id="node9" class="node">
<title>Node9</title>
<g id="a_node9"><a xlink:href="classDynExpInstr_1_1NIDAQAnalogOutConfigurator.html" target="_top" xlink:title=" ">
<polygon fill="white" stroke="black" points="1588,-300 1588,-330 1736,-330 1736,-300 1588,-300"/>
<text text-anchor="start" x="1596" y="-318" font-family="Helvetica,sans-Serif" font-size="10.00">DynExpInstr::NIDAQAnalog</text>
<text text-anchor="middle" x="1662" y="-307" font-family="Helvetica,sans-Serif" font-size="10.00">OutConfigurator</text>
</a>
</g>
</g>
<!-- Node8&#45;&gt;Node9 -->
<g id="edge8" class="edge">
<title>Node8&#45;&gt;Node9</title>
<path fill="none" stroke="midnightblue" d="M1562.26,-313.55C1570.87,-313.68 1579.44,-313.8 1587.73,-313.93"/>
<polygon fill="midnightblue" stroke="midnightblue" points="1562.21,-310.05 1552.16,-313.4 1562.11,-317.05 1562.21,-310.05"/>
</g>
<!-- Node11 -->
<g id="node11" class="node">
<title>Node11</title>
<g id="a_node11"><a xlink:href="classDynExpInstr_1_1NIDAQDigitalOutConfigurator.html" target="_top" xlink:title=" ">
<polygon fill="white" stroke="black" points="1589,-251 1589,-281 1735,-281 1735,-251 1589,-251"/>
<text text-anchor="start" x="1597" y="-269" font-family="Helvetica,sans-Serif" font-size="10.00">DynExpInstr::NIDAQDigital</text>
<text text-anchor="middle" x="1662" y="-258" font-family="Helvetica,sans-Serif" font-size="10.00">OutConfigurator</text>
</a>
</g>
</g>
<!-- Node10&#45;&gt;Node11 -->
<g id="edge10" class="edge">
<title>Node10&#45;&gt;Node11</title>
<path fill="none" stroke="midnightblue" d="M1561.36,-267.46C1570.66,-267.33 1579.94,-267.19 1588.87,-267.06"/>
<polygon fill="midnightblue" stroke="midnightblue" points="1561.21,-263.96 1551.27,-267.61 1561.32,-270.96 1561.21,-263.96"/>
</g>
<!-- Node16 -->
<g id="node16" class="node">
<title>Node16</title>
<g id="a_node16"><a xlink:href="classDynExpInstr_1_1AnalogInConfigurator.html" target="_top" xlink:title="Configurator class for AnalogIn.">
<polygon fill="white" stroke="black" points="1124.5,-117.5 1124.5,-136.5 1309.5,-136.5 1309.5,-117.5 1124.5,-117.5"/>
<text text-anchor="middle" x="1217" y="-124.5" font-family="Helvetica,sans-Serif" font-size="10.00">DynExpInstr::AnalogInConfigurator</text>
</a>
</g>
</g>
<!-- Node15&#45;&gt;Node16 -->
<g id="edge15" class="edge">
<title>Node15&#45;&gt;Node16</title>
<path fill="none" stroke="midnightblue" d="M1065.25,-108.75C1088.85,-111.6 1114.17,-114.67 1137.2,-117.46"/>
<polygon fill="midnightblue" stroke="midnightblue" points="1065.6,-105.26 1055.25,-107.54 1064.76,-112.21 1065.6,-105.26"/>
</g>
<!-- Node18 -->
<g id="node18" class="node">
<title>Node18</title>
<g id="a_node18"><a xlink:href="classDynExpInstr_1_1DigitalInConfigurator.html" target="_top" xlink:title="Configurator class for DigitalIn.">
<polygon fill="white" stroke="black" points="1125.5,-79.5 1125.5,-98.5 1308.5,-98.5 1308.5,-79.5 1125.5,-79.5"/>
<text text-anchor="middle" x="1217" y="-86.5" font-family="Helvetica,sans-Serif" font-size="10.00">DynExpInstr::DigitalInConfigurator</text>
</a>
</g>
</g>
<!-- Node15&#45;&gt;Node18 -->
<g id="edge17" class="edge">
<title>Node15&#45;&gt;Node18</title>
<path fill="none" stroke="midnightblue" d="M1078.85,-94.15C1094.32,-93.57 1110.18,-92.98 1125.37,-92.41"/>
<polygon fill="midnightblue" stroke="midnightblue" points="1078.62,-90.66 1068.75,-94.53 1078.88,-97.66 1078.62,-90.66"/>
</g>
<!-- Node17 -->
<g id="node17" class="node">
<title>Node17</title>
<g id="a_node17"><a xlink:href="classDynExpInstr_1_1NIDAQAnalogInConfigurator.html" target="_top" xlink:title=" ">
<polygon fill="white" stroke="black" points="1381.5,-117 1381.5,-147 1529.5,-147 1529.5,-117 1381.5,-117"/>
<text text-anchor="start" x="1389.5" y="-135" font-family="Helvetica,sans-Serif" font-size="10.00">DynExpInstr::NIDAQAnalog</text>
<text text-anchor="middle" x="1455.5" y="-124" font-family="Helvetica,sans-Serif" font-size="10.00">InConfigurator</text>
</a>
</g>
</g>
<!-- Node16&#45;&gt;Node17 -->
<g id="edge16" class="edge">
<title>Node16&#45;&gt;Node17</title>
<path fill="none" stroke="midnightblue" d="M1319.88,-129.15C1340.59,-129.59 1361.99,-130.04 1381.46,-130.46"/>
<polygon fill="midnightblue" stroke="midnightblue" points="1319.85,-125.65 1309.78,-128.94 1319.7,-132.65 1319.85,-125.65"/>
</g>
<!-- Node19 -->
<g id="node19" class="node">
<title>Node19</title>
<g id="a_node19"><a xlink:href="classDynExpInstr_1_1NIDAQDigitalInConfigurator.html" target="_top" xlink:title=" ">
<polygon fill="white" stroke="black" points="1382.5,-68 1382.5,-98 1528.5,-98 1528.5,-68 1382.5,-68"/>
<text text-anchor="start" x="1390.5" y="-86" font-family="Helvetica,sans-Serif" font-size="10.00">DynExpInstr::NIDAQDigital</text>
<text text-anchor="middle" x="1455.5" y="-75" font-family="Helvetica,sans-Serif" font-size="10.00">InConfigurator</text>
</a>
</g>
</g>
<!-- Node18&#45;&gt;Node19 -->
<g id="edge18" class="edge">
<title>Node18&#45;&gt;Node19</title>
<path fill="none" stroke="midnightblue" d="M1318.83,-86.44C1340.18,-85.9 1362.3,-85.34 1382.33,-84.83"/>
<polygon fill="midnightblue" stroke="midnightblue" points="1318.67,-82.94 1308.76,-86.7 1318.85,-89.94 1318.67,-82.94"/>
</g>
<!-- Node21 -->
<g id="node21" class="node">
<title>Node21</title>
<g id="a_node21"><a xlink:href="classDynExpInstr_1_1ZI__MFLIConfigurator.html" target="_top" xlink:title=" ">
<polygon fill="white" stroke="black" points="1127,-41.5 1127,-60.5 1307,-60.5 1307,-41.5 1127,-41.5"/>
<text text-anchor="middle" x="1217" y="-48.5" font-family="Helvetica,sans-Serif" font-size="10.00">DynExpInstr::ZI_MFLIConfigurator</text>
</a>
</g>
</g>
<!-- Node20&#45;&gt;Node21 -->
<g id="edge20" class="edge">
<title>Node20&#45;&gt;Node21</title>
<path fill="none" stroke="midnightblue" d="M1064.73,-52.89C1084.97,-52.64 1106.51,-52.37 1126.8,-52.12"/>
<polygon fill="midnightblue" stroke="midnightblue" points="1064.55,-49.4 1054.59,-53.02 1064.63,-56.4 1064.55,-49.4"/>
</g>
<!-- Node23 -->
<g id="node23" class="node">
<title>Node23</title>
<g id="a_node23"><a xlink:href="classDynExpInstr_1_1QutoolsQuTAGConfigurator.html" target="_top" xlink:title=" ">
<polygon fill="white" stroke="black" points="1111,-0.5 1111,-19.5 1323,-19.5 1323,-0.5 1111,-0.5"/>
<text text-anchor="middle" x="1217" y="-7.5" font-family="Helvetica,sans-Serif" font-size="10.00">DynExpInstr::QutoolsQuTAGConfigurator</text>
</a>
</g>
</g>
<!-- Node22&#45;&gt;Node23 -->
<g id="edge22" class="edge">
<title>Node22&#45;&gt;Node23</title>
<path fill="none" stroke="midnightblue" d="M1085.52,-10C1093.95,-10 1102.44,-10 1110.83,-10"/>
<polygon fill="midnightblue" stroke="midnightblue" points="1085.3,-6.5 1075.3,-10 1085.3,-13.5 1085.3,-6.5"/>
</g>
</g>
</svg>
