<?xml version="1.0" encoding="UTF-8" standalone="no"?>
<!DOCTYPE svg PUBLIC "-//W3C//DTD SVG 1.1//EN"
 "http://www.w3.org/Graphics/SVG/1.1/DTD/svg11.dtd">
<!-- Generated by graphviz version 2.43.0 (0)
 -->
<!-- Title: DynExpInstr::PVCamConfigurator Pages: 1 -->
<svg width="205pt" height="252pt"
 viewBox="0.00 0.00 205.00 252.00" xmlns="http://www.w3.org/2000/svg" xmlns:xlink="http://www.w3.org/1999/xlink">
<g id="graph0" class="graph" transform="scale(1 1) rotate(0) translate(4 248)">
<title>DynExpInstr::PVCamConfigurator</title>
<polygon fill="white" stroke="transparent" points="-4,4 -4,-248 201,-248 201,4 -4,4"/>
<!-- Node1 -->
<g id="node1" class="node">
<title>Node1</title>
<g id="a_node1"><a xlink:title=" ">
<polygon fill="#bfbfbf" stroke="black" points="10,-0.5 10,-19.5 187,-19.5 187,-0.5 10,-0.5"/>
<text text-anchor="middle" x="98.5" y="-7.5" font-family="Helvetica,sans-Serif" font-size="10.00">DynExpInstr::PVCamConfigurator</text>
</a>
</g>
</g>
<!-- Node2 -->
<g id="node2" class="node">
<title>Node2</title>
<g id="a_node2"><a xlink:href="classDynExpInstr_1_1CameraConfigurator.html" target="_top" xlink:title="Configurator class for Camera.">
<polygon fill="white" stroke="black" points="8.5,-56.5 8.5,-75.5 188.5,-75.5 188.5,-56.5 8.5,-56.5"/>
<text text-anchor="middle" x="98.5" y="-63.5" font-family="Helvetica,sans-Serif" font-size="10.00">DynExpInstr::CameraConfigurator</text>
</a>
</g>
</g>
<!-- Node2&#45;&gt;Node1 -->
<g id="edge1" class="edge">
<title>Node2&#45;&gt;Node1</title>
<path fill="none" stroke="midnightblue" d="M98.5,-45.8C98.5,-36.91 98.5,-26.78 98.5,-19.75"/>
<polygon fill="midnightblue" stroke="midnightblue" points="95,-46.08 98.5,-56.08 102,-46.08 95,-46.08"/>
</g>
<!-- Node3 -->
<g id="node3" class="node">
<title>Node3</title>
<g id="a_node3"><a xlink:href="classDynExp_1_1InstrumentConfiguratorBase.html" target="_top" xlink:title="Configurator class for InstrumentBase.">
<polygon fill="white" stroke="black" points="0,-112.5 0,-131.5 197,-131.5 197,-112.5 0,-112.5"/>
<text text-anchor="middle" x="98.5" y="-119.5" font-family="Helvetica,sans-Serif" font-size="10.00">DynExp::InstrumentConfiguratorBase</text>
</a>
</g>
</g>
<!-- Node3&#45;&gt;Node2 -->
<g id="edge2" class="edge">
<title>Node3&#45;&gt;Node2</title>
<path fill="none" stroke="midnightblue" d="M98.5,-101.8C98.5,-92.91 98.5,-82.78 98.5,-75.75"/>
<polygon fill="midnightblue" stroke="midnightblue" points="95,-102.08 98.5,-112.08 102,-102.08 95,-102.08"/>
</g>
<!-- Node4 -->
<g id="node4" class="node">
<title>Node4</title>
<g id="a_node4"><a xlink:href="classDynExp_1_1RunnableObjectConfigurator.html" target="_top" xlink:title="Configurator class for RunnableObject.">
<polygon fill="white" stroke="black" points="0,-168.5 0,-187.5 197,-187.5 197,-168.5 0,-168.5"/>
<text text-anchor="middle" x="98.5" y="-175.5" font-family="Helvetica,sans-Serif" font-size="10.00">DynExp::RunnableObjectConfigurator</text>
</a>
</g>
</g>
<!-- Node4&#45;&gt;Node3 -->
<g id="edge3" class="edge">
<title>Node4&#45;&gt;Node3</title>
<path fill="none" stroke="midnightblue" d="M98.5,-157.8C98.5,-148.91 98.5,-138.78 98.5,-131.75"/>
<polygon fill="midnightblue" stroke="midnightblue" points="95,-158.08 98.5,-168.08 102,-158.08 95,-158.08"/>
</g>
<!-- Node5 -->
<g id="node5" class="node">
<title>Node5</title>
<g id="a_node5"><a xlink:href="classDynExp_1_1ConfiguratorBase.html" target="_top" xlink:title="The configurator classes have the task to generate parameter objects (refer to DynExp::ParamsBase) of...">
<polygon fill="white" stroke="black" points="26.5,-224.5 26.5,-243.5 170.5,-243.5 170.5,-224.5 26.5,-224.5"/>
<text text-anchor="middle" x="98.5" y="-231.5" font-family="Helvetica,sans-Serif" font-size="10.00">DynExp::ConfiguratorBase</text>
</a>
</g>
</g>
<!-- Node5&#45;&gt;Node4 -->
<g id="edge4" class="edge">
<title>Node5&#45;&gt;Node4</title>
<path fill="none" stroke="midnightblue" d="M98.5,-213.8C98.5,-204.91 98.5,-194.78 98.5,-187.75"/>
<polygon fill="midnightblue" stroke="midnightblue" points="95,-214.08 98.5,-224.08 102,-214.08 95,-214.08"/>
</g>
</g>
</svg>
