<?xml version="1.0" encoding="UTF-8" standalone="no"?>
<!DOCTYPE svg PUBLIC "-//W3C//DTD SVG 1.1//EN"
 "http://www.w3.org/Graphics/SVG/1.1/DTD/svg11.dtd">
<!-- Generated by graphviz version 2.43.0 (0)
 -->
<!-- Title: DynExp::HardwareAdapterSerialPortParams Pages: 1 -->
<svg width="214pt" height="401pt"
 viewBox="0.00 0.00 214.00 401.00" xmlns="http://www.w3.org/2000/svg" xmlns:xlink="http://www.w3.org/1999/xlink">
<g id="graph0" class="graph" transform="scale(1 1) rotate(0) translate(4 397)">
<title>DynExp::HardwareAdapterSerialPortParams</title>
<!-- Node1 -->
<g id="Node000001" class="node">
<title>Node1</title>
<g id="a_Node000001"><a xlink:title="Parameter class for HardwareAdapterSerialPort.">
<polygon fill="#999999" stroke="#666666" points="189.5,-30 16.5,-30 16.5,0 189.5,0 189.5,-30"/>
<text text-anchor="start" x="24.5" y="-18" font-family="Helvetica,sans-Serif" font-size="10.00">DynExp::HardwareAdapterSerial</text>
<text text-anchor="middle" x="103" y="-7" font-family="Helvetica,sans-Serif" font-size="10.00">PortParams</text>
</a>
</g>
</g>
<!-- Node2 -->
<g id="Node000002" class="node">
<title>Node2</title>
<g id="a_Node000002"><a xlink:href="classDynExp_1_1QSerialCommunicationHardwareAdapterParams.html" target="_top" xlink:title="Parameter class for QSerialCommunicationHardwareAdapter.">
<polygon fill="white" stroke="#666666" points="189.5,-96 16.5,-96 16.5,-66 189.5,-66 189.5,-96"/>
<text text-anchor="start" x="24.5" y="-84" font-family="Helvetica,sans-Serif" font-size="10.00">DynExp::QSerialCommunication</text>
<text text-anchor="middle" x="103" y="-73" font-family="Helvetica,sans-Serif" font-size="10.00">HardwareAdapterParams</text>
</a>
</g>
</g>
<!-- Node2&#45;&gt;Node1 -->
<g id="edge1_Node000001_Node000002" class="edge">
<title>Node2&#45;&gt;Node1</title>
<g id="a_edge1_Node000001_Node000002"><a xlink:title=" ">
<path fill="none" stroke="#63b8ff" d="M103,-55.54C103,-46.96 103,-37.61 103,-30.16"/>
<polygon fill="#63b8ff" stroke="#63b8ff" points="99.5,-55.8 103,-65.8 106.5,-55.8 99.5,-55.8"/>
</a>
</g>
</g>
<!-- Node3 -->
<g id="Node000003" class="node">
<title>Node3</title>
<g id="a_Node000003"><a xlink:href="classDynExp_1_1SerialCommunicationHardwareAdapterParams.html" target="_top" xlink:title="Parameter class for SerialCommunicationHardwareAdapter.">
<polygon fill="white" stroke="#666666" points="185.5,-162 20.5,-162 20.5,-132 185.5,-132 185.5,-162"/>
<text text-anchor="start" x="28.5" y="-150" font-family="Helvetica,sans-Serif" font-size="10.00">DynExp::SerialCommunication</text>
<text text-anchor="middle" x="103" y="-139" font-family="Helvetica,sans-Serif" font-size="10.00">HardwareAdapterParams</text>
</a>
</g>
</g>
<!-- Node3&#45;&gt;Node2 -->
<g id="edge2_Node000002_Node000003" class="edge">
<title>Node3&#45;&gt;Node2</title>
<g id="a_edge2_Node000002_Node000003"><a xlink:title=" ">
<path fill="none" stroke="#63b8ff" d="M103,-121.54C103,-112.96 103,-103.61 103,-96.16"/>
<polygon fill="#63b8ff" stroke="#63b8ff" points="99.5,-121.8 103,-131.8 106.5,-121.8 99.5,-121.8"/>
</a>
</g>
</g>
<!-- Node4 -->
<g id="Node000004" class="node">
<title>Node4</title>
<g id="a_Node000004"><a xlink:href="classDynExp_1_1HardwareAdapterParamsBase.html" target="_top" xlink:title="Parameter class for HardwareAdapterBase.">
<polygon fill="white" stroke="#666666" points="206,-217 0,-217 0,-198 206,-198 206,-217"/>
<text text-anchor="middle" x="103" y="-205" font-family="Helvetica,sans-Serif" font-size="10.00">DynExp::HardwareAdapterParamsBase</text>
</a>
</g>
</g>
<!-- Node4&#45;&gt;Node3 -->
<g id="edge3_Node000003_Node000004" class="edge">
<title>Node4&#45;&gt;Node3</title>
<g id="a_edge3_Node000003_Node000004"><a xlink:title=" ">
<path fill="none" stroke="#63b8ff" d="M103,-187.65C103,-179.36 103,-169.78 103,-162.11"/>
<polygon fill="#63b8ff" stroke="#63b8ff" points="99.5,-187.87 103,-197.87 106.5,-187.87 99.5,-187.87"/>
</a>
</g>
</g>
<!-- Node5 -->
<g id="Node000005" class="node">
<title>Node5</title>
<g id="a_Node000005"><a xlink:href="classDynExp_1_1ParamsBase.html" target="_top" xlink:title="Abstract base class for object parameter classes. Each class derived from class Object must be accomp...">
<polygon fill="white" stroke="#666666" points="163,-272 43,-272 43,-253 163,-253 163,-272"/>
<text text-anchor="middle" x="103" y="-260" font-family="Helvetica,sans-Serif" font-size="10.00">DynExp::ParamsBase</text>
</a>
</g>
</g>
<!-- Node5&#45;&gt;Node4 -->
<g id="edge4_Node000004_Node000005" class="edge">
<title>Node5&#45;&gt;Node4</title>
<g id="a_edge4_Node000004_Node000005"><a xlink:title=" ">
<path fill="none" stroke="#63b8ff" d="M103,-242.66C103,-233.93 103,-223.99 103,-217.09"/>
<polygon fill="#63b8ff" stroke="#63b8ff" points="99.5,-242.75 103,-252.75 106.5,-242.75 99.5,-242.75"/>
</a>
</g>
</g>
<!-- Node6 -->
<g id="Node000006" class="node">
<title>Node6</title>
<g id="a_Node000006"><a xlink:href="classUtil_1_1ISynchronizedPointerLockable.html" target="_top" xlink:title="Interface to allow synchronizing the access to derived classes between different threads by making th...">
<polygon fill="white" stroke="#666666" points="174.5,-338 31.5,-338 31.5,-308 174.5,-308 174.5,-338"/>
<text text-anchor="start" x="39.5" y="-326" font-family="Helvetica,sans-Serif" font-size="10.00">Util::ISynchronizedPointer</text>
<text text-anchor="middle" x="103" y="-315" font-family="Helvetica,sans-Serif" font-size="10.00">Lockable</text>
</a>
</g>
</g>
<!-- Node6&#45;&gt;Node5 -->
<g id="edge5_Node000005_Node000006" class="edge">
<title>Node6&#45;&gt;Node5</title>
<g id="a_edge5_Node000005_Node000006"><a xlink:title=" ">
<path fill="none" stroke="#63b8ff" d="M103,-297.75C103,-288.72 103,-279.03 103,-272.27"/>
<polygon fill="#63b8ff" stroke="#63b8ff" points="99.5,-297.84 103,-307.84 106.5,-297.84 99.5,-297.84"/>
</a>
</g>
</g>
<!-- Node7 -->
<g id="Node000007" class="node">
<title>Node7</title>
<g id="a_Node000007"><a xlink:href="classUtil_1_1INonCopyable.html" target="_top" xlink:title="Interface to delete copy constructor and copy assignment operator and thus make derived classes non&#45;c...">
<polygon fill="white" stroke="#666666" points="157,-393 49,-393 49,-374 157,-374 157,-393"/>
<text text-anchor="middle" x="103" y="-381" font-family="Helvetica,sans-Serif" font-size="10.00">Util::INonCopyable</text>
</a>
</g>
</g>
<!-- Node7&#45;&gt;Node6 -->
<g id="edge6_Node000006_Node000007" class="edge">
<title>Node7&#45;&gt;Node6</title>
<g id="a_edge6_Node000006_Node000007"><a xlink:title=" ">
<path fill="none" stroke="#63b8ff" d="M103,-363.65C103,-355.36 103,-345.78 103,-338.11"/>
<polygon fill="#63b8ff" stroke="#63b8ff" points="99.5,-363.87 103,-373.87 106.5,-363.87 99.5,-363.87"/>
</a>
</g>
</g>
</g>
</svg>
