<?xml version="1.0" encoding="UTF-8" standalone="no"?>
<!DOCTYPE svg PUBLIC "-//W3C//DTD SVG 1.1//EN"
 "http://www.w3.org/Graphics/SVG/1.1/DTD/svg11.dtd">
<!-- Generated by graphviz version 2.43.0 (0)
 -->
<!-- Title: DynExp::QModuleDataBase Pages: 1 -->
<svg width="895pt" height="477pt"
 viewBox="0.00 0.00 895.00 477.00" xmlns="http://www.w3.org/2000/svg" xmlns:xlink="http://www.w3.org/1999/xlink">
<g id="graph0" class="graph" transform="scale(1 1) rotate(0) translate(4 473)">
<title>DynExp::QModuleDataBase</title>
<!-- Node1 -->
<g id="Node000001" class="node">
<title>Node1</title>
<g id="a_Node000001"><a xlink:title="Data class for QModuleBase.">
<polygon fill="#999999" stroke="#666666" points="653,-238.5 502,-238.5 502,-219.5 653,-219.5 653,-238.5"/>
<text text-anchor="middle" x="577.5" y="-226.5" font-family="Helvetica,sans-Serif" font-size="10.00">DynExp::QModuleDataBase</text>
</a>
</g>
</g>
<!-- Node5 -->
<g id="Node000005" class="node">
<title>Node5</title>
<g id="a_Node000005"><a xlink:href="classDynExpModule_1_1ImageViewer_1_1ImageViewerData.html" target="_top" xlink:title=" ">
<polygon fill="white" stroke="#666666" points="868.5,-469 707.5,-469 707.5,-439 868.5,-439 868.5,-469"/>
<text text-anchor="start" x="715.5" y="-457" font-family="Helvetica,sans-Serif" font-size="10.00">DynExpModule::ImageViewer</text>
<text text-anchor="middle" x="788" y="-446" font-family="Helvetica,sans-Serif" font-size="10.00">::ImageViewerData</text>
</a>
</g>
</g>
<!-- Node1&#45;&gt;Node5 -->
<g id="edge4_Node000001_Node000005" class="edge">
<title>Node1&#45;&gt;Node5</title>
<g id="a_edge4_Node000001_Node000005"><a xlink:title=" ">
<path fill="none" stroke="#63b8ff" d="M583.49,-248.54C594.89,-289.02 626.76,-382.28 689,-430 694.56,-434.26 700.78,-437.78 707.31,-440.68"/>
<polygon fill="#63b8ff" stroke="#63b8ff" points="586.85,-247.55 580.87,-238.81 580.09,-249.37 586.85,-247.55"/>
</a>
</g>
</g>
<!-- Node6 -->
<g id="Node000006" class="node">
<title>Node6</title>
<g id="a_Node000006"><a xlink:href="classDynExpModule_1_1InputPortReaderData.html" target="_top" xlink:title=" ">
<polygon fill="white" stroke="#666666" points="887,-420.5 689,-420.5 689,-401.5 887,-401.5 887,-420.5"/>
<text text-anchor="middle" x="788" y="-408.5" font-family="Helvetica,sans-Serif" font-size="10.00">DynExpModule::InputPortReaderData</text>
</a>
</g>
</g>
<!-- Node1&#45;&gt;Node6 -->
<g id="edge5_Node000001_Node000006" class="edge">
<title>Node1&#45;&gt;Node6</title>
<g id="a_edge5_Node000001_Node000006"><a xlink:title=" ">
<path fill="none" stroke="#63b8ff" d="M585.66,-248.11C599.73,-282.83 634.43,-355.99 689,-392 694.79,-395.82 701.16,-398.91 707.79,-401.4"/>
<polygon fill="#63b8ff" stroke="#63b8ff" points="588.87,-246.69 581.96,-238.66 582.35,-249.24 588.87,-246.69"/>
</a>
</g>
</g>
<!-- Node7 -->
<g id="Node000007" class="node">
<title>Node7</title>
<g id="a_Node000007"><a xlink:href="classDynExpModule_1_1LockinAmplifierControlData.html" target="_top" xlink:title=" ">
<polygon fill="white" stroke="#666666" points="874,-383 702,-383 702,-353 874,-353 874,-383"/>
<text text-anchor="start" x="710" y="-371" font-family="Helvetica,sans-Serif" font-size="10.00">DynExpModule::LockinAmplifier</text>
<text text-anchor="middle" x="788" y="-360" font-family="Helvetica,sans-Serif" font-size="10.00">ControlData</text>
</a>
</g>
</g>
<!-- Node1&#45;&gt;Node7 -->
<g id="edge6_Node000001_Node000007" class="edge">
<title>Node1&#45;&gt;Node7</title>
<g id="a_edge6_Node000001_Node000007"><a xlink:title=" ">
<path fill="none" stroke="#63b8ff" d="M590.82,-247.23C609.14,-272.88 646.05,-319.25 689,-344 694.99,-347.45 701.47,-350.41 708.14,-352.95"/>
<polygon fill="#63b8ff" stroke="#63b8ff" points="593.52,-244.99 584.93,-238.8 587.78,-249 593.52,-244.99"/>
</a>
</g>
</g>
<!-- Node8 -->
<g id="Node000008" class="node">
<title>Node8</title>
<g id="a_Node000008"><a xlink:href="classDynExpModule_1_1ODMR_1_1ODMRData.html" target="_top" xlink:title=" ">
<polygon fill="white" stroke="#666666" points="851.5,-335 724.5,-335 724.5,-305 851.5,-305 851.5,-335"/>
<text text-anchor="start" x="732.5" y="-323" font-family="Helvetica,sans-Serif" font-size="10.00">DynExpModule::ODMR</text>
<text text-anchor="middle" x="788" y="-312" font-family="Helvetica,sans-Serif" font-size="10.00">::ODMRData</text>
</a>
</g>
</g>
<!-- Node1&#45;&gt;Node8 -->
<g id="edge7_Node000001_Node000008" class="edge">
<title>Node1&#45;&gt;Node8</title>
<g id="a_edge7_Node000001_Node000008"><a xlink:title=" ">
<path fill="none" stroke="#63b8ff" d="M599.77,-244.62C621.29,-259.74 655.99,-282.33 689,-296 700.17,-300.62 712.43,-304.5 724.4,-307.69"/>
<polygon fill="#63b8ff" stroke="#63b8ff" points="601.58,-241.6 591.4,-238.64 597.51,-247.3 601.58,-241.6"/>
</a>
</g>
</g>
<!-- Node9 -->
<g id="Node000009" class="node">
<title>Node9</title>
<g id="a_Node000009"><a xlink:href="classDynExpModule_1_1OutputPortWriterData.html" target="_top" xlink:title=" ">
<polygon fill="white" stroke="#666666" points="862.5,-287 713.5,-287 713.5,-257 862.5,-257 862.5,-287"/>
<text text-anchor="start" x="721.5" y="-275" font-family="Helvetica,sans-Serif" font-size="10.00">DynExpModule::OutputPort</text>
<text text-anchor="middle" x="788" y="-264" font-family="Helvetica,sans-Serif" font-size="10.00">WriterData</text>
</a>
</g>
</g>
<!-- Node1&#45;&gt;Node9 -->
<g id="edge8_Node000001_Node000009" class="edge">
<title>Node1&#45;&gt;Node9</title>
<g id="a_edge8_Node000001_Node000009"><a xlink:title=" ">
<path fill="none" stroke="#63b8ff" d="M634.62,-240.57C659.1,-245.62 688.12,-251.61 714.24,-256.99"/>
<polygon fill="#63b8ff" stroke="#63b8ff" points="635.27,-237.14 624.77,-238.54 633.86,-243.99 635.27,-237.14"/>
</a>
</g>
</g>
<!-- Node10 -->
<g id="Node000010" class="node">
<title>Node10</title>
<g id="a_Node000010"><a xlink:href="classDynExpModule_1_1SignalDesignerData.html" target="_top" xlink:title=" ">
<polygon fill="white" stroke="#666666" points="884.5,-238.5 691.5,-238.5 691.5,-219.5 884.5,-219.5 884.5,-238.5"/>
<text text-anchor="middle" x="788" y="-226.5" font-family="Helvetica,sans-Serif" font-size="10.00">DynExpModule::SignalDesignerData</text>
</a>
</g>
</g>
<!-- Node1&#45;&gt;Node10 -->
<g id="edge9_Node000001_Node000010" class="edge">
<title>Node1&#45;&gt;Node10</title>
<g id="a_edge9_Node000001_Node000010"><a xlink:title=" ">
<path fill="none" stroke="#63b8ff" d="M663.46,-229C672.66,-229 682.07,-229 691.38,-229"/>
<polygon fill="#63b8ff" stroke="#63b8ff" points="663.18,-225.5 653.18,-229 663.18,-232.5 663.18,-225.5"/>
</a>
</g>
</g>
<!-- Node11 -->
<g id="Node000011" class="node">
<title>Node11</title>
<g id="a_Node000011"><a xlink:href="classDynExpModule_1_1SignalPlotterData.html" target="_top" xlink:title=" ">
<polygon fill="white" stroke="#666666" points="879,-201.5 697,-201.5 697,-182.5 879,-182.5 879,-201.5"/>
<text text-anchor="middle" x="788" y="-189.5" font-family="Helvetica,sans-Serif" font-size="10.00">DynExpModule::SignalPlotterData</text>
</a>
</g>
</g>
<!-- Node1&#45;&gt;Node11 -->
<g id="edge10_Node000001_Node000011" class="edge">
<title>Node1&#45;&gt;Node11</title>
<g id="a_edge10_Node000001_Node000011"><a xlink:title=" ">
<path fill="none" stroke="#63b8ff" d="M642.25,-217.69C671.32,-212.53 705.36,-206.49 733.13,-201.56"/>
<polygon fill="#63b8ff" stroke="#63b8ff" points="641.43,-214.28 632.19,-219.47 642.65,-221.17 641.43,-214.28"/>
</a>
</g>
</g>
<!-- Node12 -->
<g id="Node000012" class="node">
<title>Node12</title>
<g id="a_Node000012"><a xlink:href="classDynExpModule_1_1SpectrumViewer_1_1SpectrumViewerData.html" target="_top" xlink:title=" ">
<polygon fill="white" stroke="#666666" points="876,-164 700,-164 700,-134 876,-134 876,-164"/>
<text text-anchor="start" x="708" y="-152" font-family="Helvetica,sans-Serif" font-size="10.00">DynExpModule::SpectrumViewer</text>
<text text-anchor="middle" x="788" y="-141" font-family="Helvetica,sans-Serif" font-size="10.00">::SpectrumViewerData</text>
</a>
</g>
</g>
<!-- Node1&#45;&gt;Node12 -->
<g id="edge11_Node000001_Node000012" class="edge">
<title>Node1&#45;&gt;Node12</title>
<g id="a_edge11_Node000001_Node000012"><a xlink:title=" ">
<path fill="none" stroke="#63b8ff" d="M603.4,-214.3C625.32,-201.87 658.43,-184.32 689,-173 697.95,-169.69 707.53,-166.69 717.07,-164.04"/>
<polygon fill="#63b8ff" stroke="#63b8ff" points="601.37,-211.43 594.45,-219.44 604.86,-217.49 601.37,-211.43"/>
</a>
</g>
</g>
<!-- Node13 -->
<g id="Node000013" class="node">
<title>Node13</title>
<g id="a_Node000013"><a xlink:href="classDynExpModule_1_1Stage1DData.html" target="_top" xlink:title=" ">
<polygon fill="white" stroke="#666666" points="868.5,-115.5 707.5,-115.5 707.5,-96.5 868.5,-96.5 868.5,-115.5"/>
<text text-anchor="middle" x="788" y="-103.5" font-family="Helvetica,sans-Serif" font-size="10.00">DynExpModule::Stage1DData</text>
</a>
</g>
</g>
<!-- Node1&#45;&gt;Node13 -->
<g id="edge12_Node000001_Node000013" class="edge">
<title>Node1&#45;&gt;Node13</title>
<g id="a_edge12_Node000001_Node000013"><a xlink:title=" ">
<path fill="none" stroke="#63b8ff" d="M591.89,-211.26C610.79,-187.58 647.62,-146.19 689,-125 696.64,-121.09 704.98,-117.98 713.48,-115.51"/>
<polygon fill="#63b8ff" stroke="#63b8ff" points="588.94,-209.34 585.55,-219.38 594.46,-213.65 588.94,-209.34"/>
</a>
</g>
</g>
<!-- Node14 -->
<g id="Node000014" class="node">
<title>Node14</title>
<g id="a_Node000014"><a xlink:href="classDynExpModule_1_1Trajectory1DData.html" target="_top" xlink:title=" ">
<polygon fill="white" stroke="#666666" points="863,-78 713,-78 713,-48 863,-48 863,-78"/>
<text text-anchor="start" x="721" y="-66" font-family="Helvetica,sans-Serif" font-size="10.00">DynExpModule::Trajectory1</text>
<text text-anchor="middle" x="788" y="-55" font-family="Helvetica,sans-Serif" font-size="10.00">DData</text>
</a>
</g>
</g>
<!-- Node1&#45;&gt;Node14 -->
<g id="edge13_Node000001_Node000014" class="edge">
<title>Node1&#45;&gt;Node14</title>
<g id="a_edge13_Node000001_Node000014"><a xlink:title=" ">
<path fill="none" stroke="#63b8ff" d="M587.84,-210.03C604.01,-179.22 640.24,-118.59 689,-87 696.28,-82.29 704.4,-78.5 712.78,-75.45"/>
<polygon fill="#63b8ff" stroke="#63b8ff" points="584.56,-208.75 583.13,-219.25 590.79,-211.93 584.56,-208.75"/>
</a>
</g>
</g>
<!-- Node15 -->
<g id="Node000015" class="node">
<title>Node15</title>
<g id="a_Node000015"><a xlink:href="classDynExpModule_1_1Widefield_1_1WidefieldMicroscopeData.html" target="_top" xlink:title=" ">
<polygon fill="white" stroke="#666666" points="861.5,-30 714.5,-30 714.5,0 861.5,0 861.5,-30"/>
<text text-anchor="start" x="722.5" y="-18" font-family="Helvetica,sans-Serif" font-size="10.00">DynExpModule::Widefield</text>
<text text-anchor="middle" x="788" y="-7" font-family="Helvetica,sans-Serif" font-size="10.00">::WidefieldMicroscopeData</text>
</a>
</g>
</g>
<!-- Node1&#45;&gt;Node15 -->
<g id="edge14_Node000001_Node000015" class="edge">
<title>Node1&#45;&gt;Node15</title>
<g id="a_edge14_Node000001_Node000015"><a xlink:title=" ">
<path fill="none" stroke="#63b8ff" d="M584.22,-209.23C596.56,-170.28 629.48,-83.51 689,-39 696.58,-33.34 705.31,-28.99 714.39,-25.67"/>
<polygon fill="#63b8ff" stroke="#63b8ff" points="580.73,-208.7 581.17,-219.28 587.43,-210.74 580.73,-208.7"/>
</a>
</g>
</g>
<!-- Node2 -->
<g id="Node000002" class="node">
<title>Node2</title>
<g id="a_Node000002"><a xlink:href="classDynExp_1_1ModuleDataBase.html" target="_top" xlink:title="Data structure to contain data which is synchronized in between different threads....">
<polygon fill="white" stroke="#666666" points="466,-238.5 323,-238.5 323,-219.5 466,-219.5 466,-238.5"/>
<text text-anchor="middle" x="394.5" y="-226.5" font-family="Helvetica,sans-Serif" font-size="10.00">DynExp::ModuleDataBase</text>
</a>
</g>
</g>
<!-- Node2&#45;&gt;Node1 -->
<g id="edge1_Node000001_Node000002" class="edge">
<title>Node2&#45;&gt;Node1</title>
<g id="a_edge1_Node000001_Node000002"><a xlink:title=" ">
<path fill="none" stroke="#63b8ff" d="M476.5,-229C484.96,-229 493.53,-229 501.91,-229"/>
<polygon fill="#63b8ff" stroke="#63b8ff" points="476.26,-225.5 466.26,-229 476.26,-232.5 476.26,-225.5"/>
</a>
</g>
</g>
<!-- Node3 -->
<g id="Node000003" class="node">
<title>Node3</title>
<g id="a_Node000003"><a xlink:href="classUtil_1_1ISynchronizedPointerLockable.html" target="_top" xlink:title="Interface to allow synchronizing the access to derived classes between different threads by making th...">
<polygon fill="white" stroke="#666666" points="287,-244 144,-244 144,-214 287,-214 287,-244"/>
<text text-anchor="start" x="152" y="-232" font-family="Helvetica,sans-Serif" font-size="10.00">Util::ISynchronizedPointer</text>
<text text-anchor="middle" x="215.5" y="-221" font-family="Helvetica,sans-Serif" font-size="10.00">Lockable</text>
</a>
</g>
</g>
<!-- Node3&#45;&gt;Node2 -->
<g id="edge2_Node000002_Node000003" class="edge">
<title>Node3&#45;&gt;Node2</title>
<g id="a_edge2_Node000002_Node000003"><a xlink:title=" ">
<path fill="none" stroke="#63b8ff" d="M297.49,-229C305.97,-229 314.54,-229 322.89,-229"/>
<polygon fill="#63b8ff" stroke="#63b8ff" points="297.22,-225.5 287.22,-229 297.22,-232.5 297.22,-225.5"/>
</a>
</g>
</g>
<!-- Node4 -->
<g id="Node000004" class="node">
<title>Node4</title>
<g id="a_Node000004"><a xlink:href="classUtil_1_1INonCopyable.html" target="_top" xlink:title="Interface to delete copy constructor and copy assignment operator and thus make derived classes non&#45;c...">
<polygon fill="white" stroke="#666666" points="108,-238.5 0,-238.5 0,-219.5 108,-219.5 108,-238.5"/>
<text text-anchor="middle" x="54" y="-226.5" font-family="Helvetica,sans-Serif" font-size="10.00">Util::INonCopyable</text>
</a>
</g>
</g>
<!-- Node4&#45;&gt;Node3 -->
<g id="edge3_Node000003_Node000004" class="edge">
<title>Node4&#45;&gt;Node3</title>
<g id="a_edge3_Node000003_Node000004"><a xlink:title=" ">
<path fill="none" stroke="#63b8ff" d="M118.19,-229C126.58,-229 135.23,-229 143.74,-229"/>
<polygon fill="#63b8ff" stroke="#63b8ff" points="118.11,-225.5 108.11,-229 118.11,-232.5 118.11,-225.5"/>
</a>
</g>
</g>
</g>
</svg>
