<?xml version="1.0" encoding="UTF-8" standalone="no"?>
<!DOCTYPE svg PUBLIC "-//W3C//DTD SVG 1.1//EN"
 "http://www.w3.org/Graphics/SVG/1.1/DTD/svg11.dtd">
<!-- Generated by graphviz version 2.43.0 (0)
 -->
<!-- Title: DynExpModule::NetworkAnalogInParams&lt; gRPCServices &gt; Pages: 1 -->
<svg width="181pt" height="467pt"
 viewBox="0.00 0.00 181.00 467.00" xmlns="http://www.w3.org/2000/svg" xmlns:xlink="http://www.w3.org/1999/xlink">
<g id="graph0" class="graph" transform="scale(1 1) rotate(0) translate(4 463)">
<title>DynExpModule::NetworkAnalogInParams&lt; gRPCServices &gt;</title>
<!-- Node1 -->
<g id="Node000001" class="node">
<title>Node1</title>
<g id="a_Node000001"><a xlink:title=" ">
<polygon fill="#999999" stroke="#666666" points="172,-30 1,-30 1,0 172,0 172,-30"/>
<text text-anchor="start" x="9" y="-18" font-family="Helvetica,sans-Serif" font-size="10.00">DynExpModule::NetworkAnalog</text>
<text text-anchor="middle" x="86.5" y="-7" font-family="Helvetica,sans-Serif" font-size="10.00">InParams&lt; gRPCServices &gt;</text>
</a>
</g>
</g>
<!-- Node2 -->
<g id="Node000002" class="node">
<title>Node2</title>
<g id="a_Node000002"><a xlink:href="classDynExpModule_1_1NetworkDataStreamInstrumentParams.html" target="_top" xlink:title=" ">
<polygon fill="white" stroke="#666666" points="167,-107 6,-107 6,-66 167,-66 167,-107"/>
<text text-anchor="start" x="14" y="-95" font-family="Helvetica,sans-Serif" font-size="10.00">DynExpModule::NetworkData</text>
<text text-anchor="start" x="14" y="-84" font-family="Helvetica,sans-Serif" font-size="10.00">StreamInstrumentParams</text>
<text text-anchor="middle" x="86.5" y="-73" font-family="Helvetica,sans-Serif" font-size="10.00">&lt; gRPCServices... &gt;</text>
</a>
</g>
</g>
<!-- Node2&#45;&gt;Node1 -->
<g id="edge1_Node000001_Node000002" class="edge">
<title>Node2&#45;&gt;Node1</title>
<g id="a_edge1_Node000001_Node000002"><a xlink:title=" ">
<path fill="none" stroke="#63b8ff" d="M86.5,-55.66C86.5,-46.76 86.5,-37.42 86.5,-30.04"/>
<polygon fill="#63b8ff" stroke="#63b8ff" points="83,-55.77 86.5,-65.77 90,-55.77 83,-55.77"/>
</a>
</g>
</g>
<!-- Node3 -->
<g id="Node000003" class="node">
<title>Node3</title>
<g id="a_Node000003"><a xlink:href="classDynExpModule_1_1gRPCModuleParams.html" target="_top" xlink:title=" ">
<polygon fill="white" stroke="#666666" points="165.5,-173 7.5,-173 7.5,-143 165.5,-143 165.5,-173"/>
<text text-anchor="start" x="15.5" y="-161" font-family="Helvetica,sans-Serif" font-size="10.00">DynExpModule::gRPCModule</text>
<text text-anchor="middle" x="86.5" y="-150" font-family="Helvetica,sans-Serif" font-size="10.00">Params&lt; gRPCServices... &gt;</text>
</a>
</g>
</g>
<!-- Node3&#45;&gt;Node2 -->
<g id="edge2_Node000002_Node000003" class="edge">
<title>Node3&#45;&gt;Node2</title>
<g id="a_edge2_Node000002_Node000003"><a xlink:title=" ">
<path fill="none" stroke="#63b8ff" d="M86.5,-132.91C86.5,-124.47 86.5,-115.1 86.5,-107.07"/>
<polygon fill="#63b8ff" stroke="#63b8ff" points="83,-132.94 86.5,-142.94 90,-132.94 83,-132.94"/>
</a>
</g>
</g>
<!-- Node4 -->
<g id="Node000004" class="node">
<title>Node4</title>
<g id="a_Node000004"><a xlink:href="classDynExp_1_1ModuleParamsBase.html" target="_top" xlink:title="Parameter class for ModuleBase.">
<polygon fill="white" stroke="#666666" points="164.5,-228 8.5,-228 8.5,-209 164.5,-209 164.5,-228"/>
<text text-anchor="middle" x="86.5" y="-216" font-family="Helvetica,sans-Serif" font-size="10.00">DynExp::ModuleParamsBase</text>
</a>
</g>
</g>
<!-- Node4&#45;&gt;Node3 -->
<g id="edge3_Node000003_Node000004" class="edge">
<title>Node4&#45;&gt;Node3</title>
<g id="a_edge3_Node000003_Node000004"><a xlink:title=" ">
<path fill="none" stroke="#63b8ff" d="M86.5,-198.65C86.5,-190.36 86.5,-180.78 86.5,-173.11"/>
<polygon fill="#63b8ff" stroke="#63b8ff" points="83,-198.87 86.5,-208.87 90,-198.87 83,-198.87"/>
</a>
</g>
</g>
<!-- Node5 -->
<g id="Node000005" class="node">
<title>Node5</title>
<g id="a_Node000005"><a xlink:href="classDynExp_1_1RunnableObjectParams.html" target="_top" xlink:title="Parameter class for RunnableObject.">
<polygon fill="white" stroke="#666666" points="173,-283 0,-283 0,-264 173,-264 173,-283"/>
<text text-anchor="middle" x="86.5" y="-271" font-family="Helvetica,sans-Serif" font-size="10.00">DynExp::RunnableObjectParams</text>
</a>
</g>
</g>
<!-- Node5&#45;&gt;Node4 -->
<g id="edge4_Node000004_Node000005" class="edge">
<title>Node5&#45;&gt;Node4</title>
<g id="a_edge4_Node000004_Node000005"><a xlink:title=" ">
<path fill="none" stroke="#63b8ff" d="M86.5,-253.66C86.5,-244.93 86.5,-234.99 86.5,-228.09"/>
<polygon fill="#63b8ff" stroke="#63b8ff" points="83,-253.75 86.5,-263.75 90,-253.75 83,-253.75"/>
</a>
</g>
</g>
<!-- Node6 -->
<g id="Node000006" class="node">
<title>Node6</title>
<g id="a_Node000006"><a xlink:href="classDynExp_1_1ParamsBase.html" target="_top" xlink:title="Abstract base class for object parameter classes. Each class derived from class Object must be accomp...">
<polygon fill="white" stroke="#666666" points="146.5,-338 26.5,-338 26.5,-319 146.5,-319 146.5,-338"/>
<text text-anchor="middle" x="86.5" y="-326" font-family="Helvetica,sans-Serif" font-size="10.00">DynExp::ParamsBase</text>
</a>
</g>
</g>
<!-- Node6&#45;&gt;Node5 -->
<g id="edge5_Node000005_Node000006" class="edge">
<title>Node6&#45;&gt;Node5</title>
<g id="a_edge5_Node000005_Node000006"><a xlink:title=" ">
<path fill="none" stroke="#63b8ff" d="M86.5,-308.66C86.5,-299.93 86.5,-289.99 86.5,-283.09"/>
<polygon fill="#63b8ff" stroke="#63b8ff" points="83,-308.75 86.5,-318.75 90,-308.75 83,-308.75"/>
</a>
</g>
</g>
<!-- Node7 -->
<g id="Node000007" class="node">
<title>Node7</title>
<g id="a_Node000007"><a xlink:href="classUtil_1_1ISynchronizedPointerLockable.html" target="_top" xlink:title="Interface to allow synchronizing the access to derived classes between different threads by making th...">
<polygon fill="white" stroke="#666666" points="158,-404 15,-404 15,-374 158,-374 158,-404"/>
<text text-anchor="start" x="23" y="-392" font-family="Helvetica,sans-Serif" font-size="10.00">Util::ISynchronizedPointer</text>
<text text-anchor="middle" x="86.5" y="-381" font-family="Helvetica,sans-Serif" font-size="10.00">Lockable</text>
</a>
</g>
</g>
<!-- Node7&#45;&gt;Node6 -->
<g id="edge6_Node000006_Node000007" class="edge">
<title>Node7&#45;&gt;Node6</title>
<g id="a_edge6_Node000006_Node000007"><a xlink:title=" ">
<path fill="none" stroke="#63b8ff" d="M86.5,-363.75C86.5,-354.72 86.5,-345.03 86.5,-338.27"/>
<polygon fill="#63b8ff" stroke="#63b8ff" points="83,-363.84 86.5,-373.84 90,-363.84 83,-363.84"/>
</a>
</g>
</g>
<!-- Node8 -->
<g id="Node000008" class="node">
<title>Node8</title>
<g id="a_Node000008"><a xlink:href="classUtil_1_1INonCopyable.html" target="_top" xlink:title="Interface to delete copy constructor and copy assignment operator and thus make derived classes non&#45;c...">
<polygon fill="white" stroke="#666666" points="140.5,-459 32.5,-459 32.5,-440 140.5,-440 140.5,-459"/>
<text text-anchor="middle" x="86.5" y="-447" font-family="Helvetica,sans-Serif" font-size="10.00">Util::INonCopyable</text>
</a>
</g>
</g>
<!-- Node8&#45;&gt;Node7 -->
<g id="edge7_Node000007_Node000008" class="edge">
<title>Node8&#45;&gt;Node7</title>
<g id="a_edge7_Node000007_Node000008"><a xlink:title=" ">
<path fill="none" stroke="#63b8ff" d="M86.5,-429.65C86.5,-421.36 86.5,-411.78 86.5,-404.11"/>
<polygon fill="#63b8ff" stroke="#63b8ff" points="83,-429.87 86.5,-439.87 90,-429.87 83,-429.87"/>
</a>
</g>
</g>
</g>
</svg>
