<?xml version="1.0" encoding="UTF-8" standalone="no"?>
<!DOCTYPE svg PUBLIC "-//W3C//DTD SVG 1.1//EN"
 "http://www.w3.org/Graphics/SVG/1.1/DTD/svg11.dtd">
<!-- Generated by graphviz version 2.43.0 (0)
 -->
<!-- Title: DynExp::RunnableObjectConfigurator Pages: 1 -->
<svg width="1331pt" height="1104pt"
 viewBox="0.00 0.00 1331.00 1104.00" xmlns="http://www.w3.org/2000/svg" xmlns:xlink="http://www.w3.org/1999/xlink">
<g id="graph0" class="graph" transform="scale(1 1) rotate(0) translate(4 1100)">
<title>DynExp::RunnableObjectConfigurator</title>
<!-- Node1 -->
<g id="Node000001" class="node">
<title>Node1</title>
<g id="a_Node000001"><a xlink:title="Configurator class for RunnableObject.">
<polygon fill="#999999" stroke="#666666" points="377,-479.5 180,-479.5 180,-460.5 377,-460.5 377,-479.5"/>
<text text-anchor="middle" x="278.5" y="-467.5" font-family="Helvetica,sans-Serif" font-size="10.00">DynExp::RunnableObjectConfigurator</text>
</a>
</g>
</g>
<!-- Node3 -->
<g id="Node000003" class="node">
<title>Node3</title>
<g id="a_Node000003"><a xlink:href="classDynExp_1_1InstrumentConfiguratorBase.html" target="_top" xlink:title="Configurator class for InstrumentBase.">
<polygon fill="white" stroke="#666666" points="610,-741.5 413,-741.5 413,-722.5 610,-722.5 610,-741.5"/>
<text text-anchor="middle" x="511.5" y="-729.5" font-family="Helvetica,sans-Serif" font-size="10.00">DynExp::InstrumentConfiguratorBase</text>
</a>
</g>
</g>
<!-- Node1&#45;&gt;Node3 -->
<g id="edge2_Node000001_Node000003" class="edge">
<title>Node1&#45;&gt;Node3</title>
<g id="a_edge2_Node000001_Node000003"><a xlink:title=" ">
<path fill="none" stroke="#63b8ff" d="M294.85,-487.41C339.36,-537.9 467.55,-683.28 501.93,-722.28"/>
<polygon fill="#63b8ff" stroke="#63b8ff" points="297.23,-484.82 288,-479.64 291.98,-489.45 297.23,-484.82"/>
</a>
</g>
</g>
<!-- Node33 -->
<g id="Node000033" class="node">
<title>Node33</title>
<g id="a_Node000033"><a xlink:href="classDynExp_1_1ModuleConfiguratorBase.html" target="_top" xlink:title="Configurator class for ModuleBase.">
<polygon fill="white" stroke="#666666" points="601.5,-281.5 421.5,-281.5 421.5,-262.5 601.5,-262.5 601.5,-281.5"/>
<text text-anchor="middle" x="511.5" y="-269.5" font-family="Helvetica,sans-Serif" font-size="10.00">DynExp::ModuleConfiguratorBase</text>
</a>
</g>
</g>
<!-- Node1&#45;&gt;Node33 -->
<g id="edge26_Node000001_Node000033" class="edge">
<title>Node1&#45;&gt;Node33</title>
<g id="a_edge26_Node000001_Node000033"><a xlink:title=" ">
<path fill="none" stroke="#63b8ff" d="M298.4,-453.8C344.62,-414.18 462.23,-313.37 499.2,-281.69"/>
<polygon fill="#63b8ff" stroke="#63b8ff" points="295.96,-451.28 290.64,-460.45 300.51,-456.6 295.96,-451.28"/>
</a>
</g>
</g>
<!-- Node2 -->
<g id="Node000002" class="node">
<title>Node2</title>
<g id="a_Node000002"><a xlink:href="classDynExp_1_1ConfiguratorBase.html" target="_top" xlink:title="The configurator classes have the task to generate parameter objects (refer to DynExp::ParamsBase) of...">
<polygon fill="white" stroke="#666666" points="144,-479.5 0,-479.5 0,-460.5 144,-460.5 144,-479.5"/>
<text text-anchor="middle" x="72" y="-467.5" font-family="Helvetica,sans-Serif" font-size="10.00">DynExp::ConfiguratorBase</text>
</a>
</g>
</g>
<!-- Node2&#45;&gt;Node1 -->
<g id="edge1_Node000001_Node000002" class="edge">
<title>Node2&#45;&gt;Node1</title>
<g id="a_edge1_Node000001_Node000002"><a xlink:title=" ">
<path fill="none" stroke="#63b8ff" d="M154.36,-470C162.76,-470 171.35,-470 179.89,-470"/>
<polygon fill="#63b8ff" stroke="#63b8ff" points="154.24,-466.5 144.24,-470 154.24,-473.5 154.24,-466.5"/>
</a>
</g>
</g>
<!-- Node4 -->
<g id="Node000004" class="node">
<title>Node4</title>
<g id="a_Node000004"><a xlink:href="classDynExpInstr_1_1CameraConfigurator.html" target="_top" xlink:title="Configurator class for Camera.">
<polygon fill="white" stroke="#666666" points="833,-1016.5 653,-1016.5 653,-997.5 833,-997.5 833,-1016.5"/>
<text text-anchor="middle" x="743" y="-1004.5" font-family="Helvetica,sans-Serif" font-size="10.00">DynExpInstr::CameraConfigurator</text>
</a>
</g>
</g>
<!-- Node3&#45;&gt;Node4 -->
<g id="edge3_Node000003_Node000004" class="edge">
<title>Node3&#45;&gt;Node4</title>
<g id="a_edge3_Node000003_Node000004"><a xlink:title=" ">
<path fill="none" stroke="#63b8ff" d="M527.17,-749.58C571.05,-802.16 700.3,-957.04 733.93,-997.33"/>
<polygon fill="#63b8ff" stroke="#63b8ff" points="529.76,-747.22 520.67,-741.79 524.39,-751.71 529.76,-747.22"/>
</a>
</g>
</g>
<!-- Node7 -->
<g id="Node000007" class="node">
<title>Node7</title>
<g id="a_Node000007"><a xlink:href="classDynExpInstr_1_1DataStreamInstrumentConfigurator.html" target="_top" xlink:title="Configurator class for DataStreamInstrument.">
<polygon fill="white" stroke="#666666" points="840,-838 646,-838 646,-808 840,-808 840,-838"/>
<text text-anchor="start" x="654" y="-826" font-family="Helvetica,sans-Serif" font-size="10.00">DynExpInstr::DataStreamInstrument</text>
<text text-anchor="middle" x="743" y="-815" font-family="Helvetica,sans-Serif" font-size="10.00">Configurator</text>
</a>
</g>
</g>
<!-- Node3&#45;&gt;Node7 -->
<g id="edge6_Node000003_Node000007" class="edge">
<title>Node3&#45;&gt;Node7</title>
<g id="a_edge6_Node000003_Node000007"><a xlink:title=" ">
<path fill="none" stroke="#63b8ff" d="M546.12,-745.33C588.11,-761.98 659.77,-790.39 703.79,-807.85"/>
<polygon fill="#63b8ff" stroke="#63b8ff" points="547.21,-742 536.63,-741.57 544.63,-748.51 547.21,-742"/>
</a>
</g>
</g>
<!-- Node27 -->
<g id="Node000027" class="node">
<title>Node27</title>
<g id="a_Node000027"><a xlink:href="classDynExpInstr_1_1InterModuleCommunicatorConfigurator.html" target="_top" xlink:title="Configurator class for InterModuleCommunicator.">
<polygon fill="white" stroke="#666666" points="817.5,-771 668.5,-771 668.5,-741 817.5,-741 817.5,-771"/>
<text text-anchor="start" x="676.5" y="-759" font-family="Helvetica,sans-Serif" font-size="10.00">DynExpInstr::InterModule</text>
<text text-anchor="middle" x="743" y="-748" font-family="Helvetica,sans-Serif" font-size="10.00">CommunicatorConfigurator</text>
</a>
</g>
</g>
<!-- Node3&#45;&gt;Node27 -->
<g id="edge20_Node000003_Node000027" class="edge">
<title>Node3&#45;&gt;Node27</title>
<g id="a_edge20_Node000003_Node000027"><a xlink:title=" ">
<path fill="none" stroke="#63b8ff" d="M613.7,-742.58C632.1,-744.51 650.97,-746.48 668.39,-748.3"/>
<polygon fill="#63b8ff" stroke="#63b8ff" points="613.84,-739.08 603.53,-741.52 613.12,-746.04 613.84,-739.08"/>
</a>
</g>
</g>
<!-- Node28 -->
<g id="Node000028" class="node">
<title>Node28</title>
<g id="a_Node000028"><a xlink:href="classDynExpInstr_1_1PositionerStageConfigurator.html" target="_top" xlink:title="Configurator class for PositionerStage.">
<polygon fill="white" stroke="#666666" points="822,-723 664,-723 664,-693 822,-693 822,-723"/>
<text text-anchor="start" x="672" y="-711" font-family="Helvetica,sans-Serif" font-size="10.00">DynExpInstr::PositionerStage</text>
<text text-anchor="middle" x="743" y="-700" font-family="Helvetica,sans-Serif" font-size="10.00">Configurator</text>
</a>
</g>
</g>
<!-- Node3&#45;&gt;Node28 -->
<g id="edge21_Node000003_Node000028" class="edge">
<title>Node3&#45;&gt;Node28</title>
<g id="a_edge21_Node000003_Node000028"><a xlink:title=" ">
<path fill="none" stroke="#63b8ff" d="M613.87,-721.4C630.57,-719.65 647.65,-717.87 663.68,-716.19"/>
<polygon fill="#63b8ff" stroke="#63b8ff" points="613.12,-717.96 603.53,-722.48 613.84,-724.92 613.12,-717.96"/>
</a>
</g>
</g>
<!-- Node32 -->
<g id="Node000032" class="node">
<title>Node32</title>
<g id="a_Node000032"><a xlink:href="classDynExpInstr_1_1SpectrometerConfigurator.html" target="_top" xlink:title="Configurator class for Spectrometer.">
<polygon fill="white" stroke="#666666" points="817,-675 669,-675 669,-645 817,-645 817,-675"/>
<text text-anchor="start" x="677" y="-663" font-family="Helvetica,sans-Serif" font-size="10.00">DynExpInstr::Spectrometer</text>
<text text-anchor="middle" x="743" y="-652" font-family="Helvetica,sans-Serif" font-size="10.00">Configurator</text>
</a>
</g>
</g>
<!-- Node3&#45;&gt;Node32 -->
<g id="edge25_Node000003_Node000032" class="edge">
<title>Node3&#45;&gt;Node32</title>
<g id="a_edge25_Node000003_Node000032"><a xlink:title=" ">
<path fill="none" stroke="#63b8ff" d="M546.52,-718.7C573.32,-708.49 611.73,-694.42 646,-684 656.27,-680.88 667.25,-677.85 677.98,-675.06"/>
<polygon fill="#63b8ff" stroke="#63b8ff" points="544.94,-715.56 536.86,-722.41 547.45,-722.09 544.94,-715.56"/>
</a>
</g>
</g>
<!-- Node5 -->
<g id="Node000005" class="node">
<title>Node5</title>
<g id="a_Node000005"><a xlink:href="classDynExpInstr_1_1DummyCameraConfigurator.html" target="_top" xlink:title=" ">
<polygon fill="white" stroke="#666666" points="1055,-1065 896,-1065 896,-1035 1055,-1035 1055,-1065"/>
<text text-anchor="start" x="904" y="-1053" font-family="Helvetica,sans-Serif" font-size="10.00">DynExpInstr::DummyCamera</text>
<text text-anchor="middle" x="975.5" y="-1042" font-family="Helvetica,sans-Serif" font-size="10.00">Configurator</text>
</a>
</g>
</g>
<!-- Node4&#45;&gt;Node5 -->
<g id="edge4_Node000004_Node000005" class="edge">
<title>Node4&#45;&gt;Node5</title>
<g id="a_edge4_Node000004_Node000005"><a xlink:title=" ">
<path fill="none" stroke="#63b8ff" d="M805.14,-1018.41C832.95,-1023.59 866.21,-1029.8 895.85,-1035.33"/>
<polygon fill="#63b8ff" stroke="#63b8ff" points="805.63,-1014.94 795.16,-1016.54 804.34,-1021.82 805.63,-1014.94"/>
</a>
</g>
</g>
<!-- Node6 -->
<g id="Node000006" class="node">
<title>Node6</title>
<g id="a_Node000006"><a xlink:href="classDynExpInstr_1_1PVCamConfigurator.html" target="_top" xlink:title=" ">
<polygon fill="white" stroke="#666666" points="1064,-1016.5 887,-1016.5 887,-997.5 1064,-997.5 1064,-1016.5"/>
<text text-anchor="middle" x="975.5" y="-1004.5" font-family="Helvetica,sans-Serif" font-size="10.00">DynExpInstr::PVCamConfigurator</text>
</a>
</g>
</g>
<!-- Node4&#45;&gt;Node6 -->
<g id="edge5_Node000004_Node000006" class="edge">
<title>Node4&#45;&gt;Node6</title>
<g id="a_edge5_Node000004_Node000006"><a xlink:title=" ">
<path fill="none" stroke="#63b8ff" d="M843.52,-1007C857.91,-1007 872.63,-1007 886.76,-1007"/>
<polygon fill="#63b8ff" stroke="#63b8ff" points="843.12,-1003.5 833.12,-1007 843.12,-1010.5 843.12,-1003.5"/>
</a>
</g>
</g>
<!-- Node8 -->
<g id="Node000008" class="node">
<title>Node8</title>
<g id="a_Node000008"><a xlink:href="classDynExpInstr_1_1FunctionGeneratorConfigurator.html" target="_top" xlink:title="Configurator class for FunctionGenerator.">
<polygon fill="white" stroke="#666666" points="1061.5,-979 889.5,-979 889.5,-949 1061.5,-949 1061.5,-979"/>
<text text-anchor="start" x="897.5" y="-967" font-family="Helvetica,sans-Serif" font-size="10.00">DynExpInstr::FunctionGenerator</text>
<text text-anchor="middle" x="975.5" y="-956" font-family="Helvetica,sans-Serif" font-size="10.00">Configurator</text>
</a>
</g>
</g>
<!-- Node7&#45;&gt;Node8 -->
<g id="edge7_Node000007_Node000008" class="edge">
<title>Node7&#45;&gt;Node8</title>
<g id="a_edge7_Node000007_Node000008"><a xlink:title=" ">
<path fill="none" stroke="#63b8ff" d="M777.21,-843.32C823.93,-871.89 907.98,-923.31 949.66,-948.81"/>
<polygon fill="#63b8ff" stroke="#63b8ff" points="779.02,-840.32 768.67,-838.09 775.37,-846.29 779.02,-840.32"/>
</a>
</g>
</g>
<!-- Node18 -->
<g id="Node000018" class="node">
<title>Node18</title>
<g id="a_Node000018"><a xlink:href="classDynExpInstr_1_1InputPortConfigurator.html" target="_top" xlink:title="Configurator class for InputPort.">
<polygon fill="white" stroke="#666666" points="1068.5,-875.5 882.5,-875.5 882.5,-856.5 1068.5,-856.5 1068.5,-875.5"/>
<text text-anchor="middle" x="975.5" y="-863.5" font-family="Helvetica,sans-Serif" font-size="10.00">DynExpInstr::InputPortConfigurator</text>
</a>
</g>
</g>
<!-- Node7&#45;&gt;Node18 -->
<g id="edge13_Node000007_Node000018" class="edge">
<title>Node7&#45;&gt;Node18</title>
<g id="a_edge13_Node000007_Node000018"><a xlink:title=" ">
<path fill="none" stroke="#63b8ff" d="M834.74,-839.93C864.89,-845.55 897.39,-851.62 923.46,-856.48"/>
<polygon fill="#63b8ff" stroke="#63b8ff" points="835.09,-836.43 824.62,-838.04 833.81,-843.31 835.09,-836.43"/>
</a>
</g>
</g>
<!-- Node23 -->
<g id="Node000023" class="node">
<title>Node23</title>
<g id="a_Node000023"><a xlink:href="classDynExpInstr_1_1LockinAmplifierConfigurator.html" target="_top" xlink:title="Configurator class for LockinAmplifier.">
<polygon fill="white" stroke="#666666" points="1054.5,-838 896.5,-838 896.5,-808 1054.5,-808 1054.5,-838"/>
<text text-anchor="start" x="904.5" y="-826" font-family="Helvetica,sans-Serif" font-size="10.00">DynExpInstr::LockinAmplifier</text>
<text text-anchor="middle" x="975.5" y="-815" font-family="Helvetica,sans-Serif" font-size="10.00">Configurator</text>
</a>
</g>
</g>
<!-- Node7&#45;&gt;Node23 -->
<g id="edge16_Node000007_Node000023" class="edge">
<title>Node7&#45;&gt;Node23</title>
<g id="a_edge16_Node000007_Node000023"><a xlink:title=" ">
<path fill="none" stroke="#63b8ff" d="M850.26,-823C865.81,-823 881.59,-823 896.44,-823"/>
<polygon fill="#63b8ff" stroke="#63b8ff" points="850.08,-819.5 840.08,-823 850.08,-826.5 850.08,-819.5"/>
</a>
</g>
</g>
<!-- Node25 -->
<g id="Node000025" class="node">
<title>Node25</title>
<g id="a_Node000025"><a xlink:href="classDynExpInstr_1_1TimeTaggerConfigurator.html" target="_top" xlink:title="Configurator class for TimeTagger.">
<polygon fill="white" stroke="#666666" points="1075,-789.5 876,-789.5 876,-770.5 1075,-770.5 1075,-789.5"/>
<text text-anchor="middle" x="975.5" y="-777.5" font-family="Helvetica,sans-Serif" font-size="10.00">DynExpInstr::TimeTaggerConfigurator</text>
</a>
</g>
</g>
<!-- Node7&#45;&gt;Node25 -->
<g id="edge18_Node000007_Node000025" class="edge">
<title>Node7&#45;&gt;Node25</title>
<g id="a_edge18_Node000007_Node000025"><a xlink:title=" ">
<path fill="none" stroke="#63b8ff" d="M834.74,-806.07C864.89,-800.45 897.39,-794.38 923.46,-789.52"/>
<polygon fill="#63b8ff" stroke="#63b8ff" points="833.81,-802.69 824.62,-807.96 835.09,-809.57 833.81,-802.69"/>
</a>
</g>
</g>
<!-- Node9 -->
<g id="Node000009" class="node">
<title>Node9</title>
<g id="a_Node000009"><a xlink:href="classDynExpInstr_1_1DummyDataStreamInstrumentConfigurator.html" target="_top" xlink:title=" ">
<polygon fill="white" stroke="#666666" points="1306.5,-1096 1127.5,-1096 1127.5,-1066 1306.5,-1066 1306.5,-1096"/>
<text text-anchor="start" x="1135.5" y="-1084" font-family="Helvetica,sans-Serif" font-size="10.00">DynExpInstr::DummyDataStream</text>
<text text-anchor="middle" x="1217" y="-1073" font-family="Helvetica,sans-Serif" font-size="10.00">InstrumentConfigurator</text>
</a>
</g>
</g>
<!-- Node8&#45;&gt;Node9 -->
<g id="edge8_Node000008_Node000009" class="edge">
<title>Node8&#45;&gt;Node9</title>
<g id="a_edge8_Node000008_Node000009"><a xlink:title=" ">
<path fill="none" stroke="#63b8ff" d="M1068.35,-984.31C1070.65,-985.77 1072.88,-987.33 1075,-989 1101.88,-1010.13 1083.87,-1036.19 1111,-1057 1116.04,-1060.87 1121.6,-1064.13 1127.45,-1066.89"/>
<polygon fill="#63b8ff" stroke="#63b8ff" points="1069.57,-980.99 1059.13,-979.19 1066.17,-987.11 1069.57,-980.99"/>
</a>
</g>
</g>
<!-- Node10 -->
<g id="Node000010" class="node">
<title>Node10</title>
<g id="a_Node000010"><a xlink:href="classDynExpInstr_1_1OutputPortConfigurator.html" target="_top" xlink:title="Configurator class for OutputPort.">
<polygon fill="#fff0f0" stroke="red" points="1314,-1047.5 1120,-1047.5 1120,-1028.5 1314,-1028.5 1314,-1047.5"/>
<text text-anchor="middle" x="1217" y="-1035.5" font-family="Helvetica,sans-Serif" font-size="10.00">DynExpInstr::OutputPortConfigurator</text>
</a>
</g>
</g>
<!-- Node8&#45;&gt;Node10 -->
<g id="edge9_Node000008_Node000010" class="edge">
<title>Node8&#45;&gt;Node10</title>
<g id="a_edge9_Node000008_Node000010"><a xlink:title=" ">
<path fill="none" stroke="#63b8ff" d="M1060.82,-982.55C1065.7,-984.5 1070.47,-986.64 1075,-989 1093.73,-998.75 1091.9,-1011 1111,-1020 1118.28,-1023.43 1126.11,-1026.21 1134.11,-1028.47"/>
<polygon fill="#63b8ff" stroke="#63b8ff" points="1061.88,-979.21 1051.29,-979.04 1059.46,-985.78 1061.88,-979.21"/>
</a>
</g>
</g>
<!-- Node15 -->
<g id="Node000015" class="node">
<title>Node15</title>
<g id="a_Node000015"><a xlink:href="classDynExpInstr_1_1RS__SMB100BConfigurator.html" target="_top" xlink:title=" ">
<polygon fill="white" stroke="#666666" points="1320,-1010.5 1114,-1010.5 1114,-991.5 1320,-991.5 1320,-1010.5"/>
<text text-anchor="middle" x="1217" y="-998.5" font-family="Helvetica,sans-Serif" font-size="10.00">DynExpInstr::RS_SMB100BConfigurator</text>
</a>
</g>
</g>
<!-- Node8&#45;&gt;Node15 -->
<g id="edge10_Node000008_Node000015" class="edge">
<title>Node8&#45;&gt;Node15</title>
<g id="a_edge10_Node000008_Node000015"><a xlink:title=" ">
<path fill="none" stroke="#63b8ff" d="M1071.78,-978.72C1099.63,-983.02 1129.33,-987.61 1154.49,-991.5"/>
<polygon fill="#63b8ff" stroke="#63b8ff" points="1072.03,-975.22 1061.61,-977.15 1070.96,-982.13 1072.03,-975.22"/>
</a>
</g>
</g>
<!-- Node16 -->
<g id="Node000016" class="node">
<title>Node16</title>
<g id="a_Node000016"><a xlink:href="classDynExpInstr_1_1RS__SMC100AConfigurator.html" target="_top" xlink:title=" ">
<polygon fill="white" stroke="#666666" points="1320,-973.5 1114,-973.5 1114,-954.5 1320,-954.5 1320,-973.5"/>
<text text-anchor="middle" x="1217" y="-961.5" font-family="Helvetica,sans-Serif" font-size="10.00">DynExpInstr::RS_SMC100AConfigurator</text>
</a>
</g>
</g>
<!-- Node8&#45;&gt;Node16 -->
<g id="edge11_Node000008_Node000016" class="edge">
<title>Node8&#45;&gt;Node16</title>
<g id="a_edge11_Node000008_Node000016"><a xlink:title=" ">
<path fill="none" stroke="#63b8ff" d="M1071.64,-964C1085.55,-964 1099.91,-964 1113.95,-964"/>
<polygon fill="#63b8ff" stroke="#63b8ff" points="1071.61,-960.5 1061.61,-964 1071.61,-967.5 1071.61,-960.5"/>
</a>
</g>
</g>
<!-- Node17 -->
<g id="Node000017" class="node">
<title>Node17</title>
<g id="a_Node000017"><a xlink:href="classDynExpInstr_1_1SwabianInstrumentsPulseStreamerConfigurator.html" target="_top" xlink:title=" ">
<polygon fill="white" stroke="#666666" points="1308,-936 1126,-936 1126,-906 1308,-906 1308,-936"/>
<text text-anchor="start" x="1134" y="-924" font-family="Helvetica,sans-Serif" font-size="10.00">DynExpInstr::SwabianInstruments</text>
<text text-anchor="middle" x="1217" y="-913" font-family="Helvetica,sans-Serif" font-size="10.00">PulseStreamerConfigurator</text>
</a>
</g>
</g>
<!-- Node8&#45;&gt;Node17 -->
<g id="edge12_Node000008_Node000017" class="edge">
<title>Node8&#45;&gt;Node17</title>
<g id="a_edge12_Node000008_Node000017"><a xlink:title=" ">
<path fill="none" stroke="#63b8ff" d="M1070.22,-947.17C1090.69,-943.5 1112.23,-939.63 1132.28,-936.03"/>
<polygon fill="#63b8ff" stroke="#63b8ff" points="1069.49,-943.75 1060.27,-948.96 1070.73,-950.64 1069.49,-943.75"/>
</a>
</g>
</g>
<!-- Node19 -->
<g id="Node000019" class="node">
<title>Node19</title>
<g id="a_Node000019"><a xlink:href="classDynExpInstr_1_1AnalogInConfigurator.html" target="_top" xlink:title="Configurator class for AnalogIn.">
<polygon fill="#fff0f0" stroke="red" points="1309.5,-887.5 1124.5,-887.5 1124.5,-868.5 1309.5,-868.5 1309.5,-887.5"/>
<text text-anchor="middle" x="1217" y="-875.5" font-family="Helvetica,sans-Serif" font-size="10.00">DynExpInstr::AnalogInConfigurator</text>
</a>
</g>
</g>
<!-- Node18&#45;&gt;Node19 -->
<g id="edge14_Node000018_Node000019" class="edge">
<title>Node18&#45;&gt;Node19</title>
<g id="a_edge14_Node000018_Node000019"><a xlink:title=" ">
<path fill="none" stroke="#63b8ff" d="M1079.07,-871.14C1094.06,-871.89 1109.43,-872.66 1124.19,-873.4"/>
<polygon fill="#63b8ff" stroke="#63b8ff" points="1078.92,-867.63 1068.75,-870.62 1078.57,-874.62 1078.92,-867.63"/>
</a>
</g>
</g>
<!-- Node21 -->
<g id="Node000021" class="node">
<title>Node21</title>
<g id="a_Node000021"><a xlink:href="classDynExpInstr_1_1DigitalInConfigurator.html" target="_top" xlink:title="Configurator class for DigitalIn.">
<polygon fill="#fff0f0" stroke="red" points="1308.5,-850.5 1125.5,-850.5 1125.5,-831.5 1308.5,-831.5 1308.5,-850.5"/>
<text text-anchor="middle" x="1217" y="-838.5" font-family="Helvetica,sans-Serif" font-size="10.00">DynExpInstr::DigitalInConfigurator</text>
</a>
</g>
</g>
<!-- Node18&#45;&gt;Node21 -->
<g id="edge15_Node000018_Node000021" class="edge">
<title>Node18&#45;&gt;Node21</title>
<g id="a_edge15_Node000018_Node000021"><a xlink:title=" ">
<path fill="none" stroke="#63b8ff" d="M1078,-855.4C1093.75,-853.76 1109.93,-852.07 1125.42,-850.45"/>
<polygon fill="#63b8ff" stroke="#63b8ff" points="1077.31,-851.96 1067.73,-856.48 1078.04,-858.92 1077.31,-851.96"/>
</a>
</g>
</g>
<!-- Node24 -->
<g id="Node000024" class="node">
<title>Node24</title>
<g id="a_Node000024"><a xlink:href="classDynExpInstr_1_1ZI__MFLIConfigurator.html" target="_top" xlink:title=" ">
<polygon fill="white" stroke="#666666" points="1307,-813.5 1127,-813.5 1127,-794.5 1307,-794.5 1307,-813.5"/>
<text text-anchor="middle" x="1217" y="-801.5" font-family="Helvetica,sans-Serif" font-size="10.00">DynExpInstr::ZI_MFLIConfigurator</text>
</a>
</g>
</g>
<!-- Node23&#45;&gt;Node24 -->
<g id="edge17_Node000023_Node000024" class="edge">
<title>Node23&#45;&gt;Node24</title>
<g id="a_edge17_Node000023_Node000024"><a xlink:title=" ">
<path fill="none" stroke="#63b8ff" d="M1064.73,-816C1084.97,-814.39 1106.51,-812.69 1126.8,-811.08"/>
<polygon fill="#63b8ff" stroke="#63b8ff" points="1064.28,-812.53 1054.59,-816.8 1064.84,-819.5 1064.28,-812.53"/>
</a>
</g>
</g>
<!-- Node26 -->
<g id="Node000026" class="node">
<title>Node26</title>
<g id="a_Node000026"><a xlink:href="classDynExpInstr_1_1QutoolsQuTAGConfigurator.html" target="_top" xlink:title=" ">
<polygon fill="white" stroke="#666666" points="1323,-776.5 1111,-776.5 1111,-757.5 1323,-757.5 1323,-776.5"/>
<text text-anchor="middle" x="1217" y="-764.5" font-family="Helvetica,sans-Serif" font-size="10.00">DynExpInstr::QutoolsQuTAGConfigurator</text>
</a>
</g>
</g>
<!-- Node25&#45;&gt;Node26 -->
<g id="edge19_Node000025_Node000026" class="edge">
<title>Node25&#45;&gt;Node26</title>
<g id="a_edge19_Node000025_Node000026"><a xlink:title=" ">
<path fill="none" stroke="#63b8ff" d="M1085.52,-774.08C1093.95,-773.63 1102.44,-773.16 1110.83,-772.71"/>
<polygon fill="#63b8ff" stroke="#63b8ff" points="1085.09,-770.6 1075.3,-774.64 1085.47,-777.59 1085.09,-770.6"/>
</a>
</g>
</g>
<!-- Node29 -->
<g id="Node000029" class="node">
<title>Node29</title>
<g id="a_Node000029"><a xlink:href="classDynExpInstr_1_1NenionLeakvalveF3Configurator.html" target="_top" xlink:title=" ">
<polygon fill="white" stroke="#666666" points="1059,-752 892,-752 892,-722 1059,-722 1059,-752"/>
<text text-anchor="start" x="900" y="-740" font-family="Helvetica,sans-Serif" font-size="10.00">DynExpInstr::NenionLeakvalve</text>
<text text-anchor="middle" x="975.5" y="-729" font-family="Helvetica,sans-Serif" font-size="10.00">F3Configurator</text>
</a>
</g>
</g>
<!-- Node28&#45;&gt;Node29 -->
<g id="edge22_Node000028_Node000029" class="edge">
<title>Node28&#45;&gt;Node29</title>
<g id="a_edge22_Node000028_Node000029"><a xlink:title=" ">
<path fill="none" stroke="#63b8ff" d="M832.17,-719.09C851.76,-721.56 872.45,-724.16 891.81,-726.6"/>
<polygon fill="#63b8ff" stroke="#63b8ff" points="832.4,-715.59 822.04,-717.82 831.52,-722.54 832.4,-715.59"/>
</a>
</g>
</g>
<!-- Node30 -->
<g id="Node000030" class="node">
<title>Node30</title>
<g id="a_Node000030"><a xlink:href="classDynExpInstr_1_1PI__C__862__Configurator.html" target="_top" xlink:title=" ">
<polygon fill="white" stroke="#666666" points="1038.5,-704 912.5,-704 912.5,-674 1038.5,-674 1038.5,-704"/>
<text text-anchor="start" x="920.5" y="-692" font-family="Helvetica,sans-Serif" font-size="10.00">DynExpInstr::PI_C_862</text>
<text text-anchor="middle" x="975.5" y="-681" font-family="Helvetica,sans-Serif" font-size="10.00">_Configurator</text>
</a>
</g>
</g>
<!-- Node28&#45;&gt;Node30 -->
<g id="edge23_Node000028_Node000030" class="edge">
<title>Node28&#45;&gt;Node30</title>
<g id="a_edge23_Node000028_Node000030"><a xlink:title=" ">
<path fill="none" stroke="#63b8ff" d="M832.15,-700.73C858.83,-698.53 887.57,-696.17 912.19,-694.14"/>
<polygon fill="#63b8ff" stroke="#63b8ff" points="831.72,-697.26 822.04,-701.57 832.29,-704.23 831.72,-697.26"/>
</a>
</g>
</g>
<!-- Node31 -->
<g id="Node000031" class="node">
<title>Node31</title>
<g id="a_Node000031"><a xlink:href="classDynExpInstr_1_1SmarActConfigurator.html" target="_top" xlink:title=" ">
<polygon fill="white" stroke="#666666" points="1067,-655.5 884,-655.5 884,-636.5 1067,-636.5 1067,-655.5"/>
<text text-anchor="middle" x="975.5" y="-643.5" font-family="Helvetica,sans-Serif" font-size="10.00">DynExpInstr::SmarActConfigurator</text>
</a>
</g>
</g>
<!-- Node28&#45;&gt;Node31 -->
<g id="edge24_Node000028_Node000031" class="edge">
<title>Node28&#45;&gt;Node31</title>
<g id="a_edge24_Node000028_Node000031"><a xlink:title=" ">
<path fill="none" stroke="#63b8ff" d="M822.76,-689.96C828.65,-688.11 834.45,-686.12 840,-684 856.9,-677.54 858.93,-671 876,-665 886.93,-661.16 898.82,-658.03 910.45,-655.51"/>
<polygon fill="#63b8ff" stroke="#63b8ff" points="821.38,-686.72 812.8,-692.94 823.39,-693.43 821.38,-686.72"/>
</a>
</g>
</g>
<!-- Node34 -->
<g id="Node000034" class="node">
<title>Node34</title>
<g id="a_Node000034"><a xlink:href="classDynExpModule_1_1gRPCModuleConfigurator.html" target="_top" xlink:title=" ">
<polygon fill="white" stroke="#666666" points="830.5,-554 655.5,-554 655.5,-524 830.5,-524 830.5,-554"/>
<text text-anchor="start" x="663.5" y="-542" font-family="Helvetica,sans-Serif" font-size="10.00">DynExpModule::gRPCModule</text>
<text text-anchor="middle" x="743" y="-531" font-family="Helvetica,sans-Serif" font-size="10.00">Configurator&lt; gRPCServices... &gt;</text>
</a>
</g>
</g>
<!-- Node33&#45;&gt;Node34 -->
<g id="edge27_Node000033_Node000034" class="edge">
<title>Node33&#45;&gt;Node34</title>
<g id="a_edge27_Node000033_Node000034"><a xlink:title=" ">
<path fill="none" stroke="#63b8ff" d="M527.38,-289.31C569.48,-338.29 688.94,-477.27 728.84,-523.69"/>
<polygon fill="#63b8ff" stroke="#63b8ff" points="529.84,-286.8 520.67,-281.5 524.53,-291.37 529.84,-286.8"/>
</a>
</g>
</g>
<!-- Node42 -->
<g id="Node000042" class="node">
<title>Node42</title>
<g id="a_Node000042"><a xlink:href="classDynExp_1_1QModuleConfiguratorBase.html" target="_top" xlink:title="Configurator class for QModuleBase.">
<polygon fill="white" stroke="#666666" points="837,-302.5 649,-302.5 649,-283.5 837,-283.5 837,-302.5"/>
<text text-anchor="middle" x="743" y="-290.5" font-family="Helvetica,sans-Serif" font-size="10.00">DynExp::QModuleConfiguratorBase</text>
</a>
</g>
</g>
<!-- Node33&#45;&gt;Node42 -->
<g id="edge34_Node000033_Node000042" class="edge">
<title>Node33&#45;&gt;Node42</title>
<g id="a_edge34_Node000033_Node000042"><a xlink:title=" ">
<path fill="none" stroke="#63b8ff" d="M611.81,-281.09C624.1,-282.21 636.63,-283.36 648.82,-284.47"/>
<polygon fill="#63b8ff" stroke="#63b8ff" points="611.84,-277.58 601.56,-280.15 611.2,-284.55 611.84,-277.58"/>
</a>
</g>
</g>
<!-- Node54 -->
<g id="Node000054" class="node">
<title>Node54</title>
<g id="a_Node000054"><a xlink:href="classDynExpModule_1_1ArbitraryFunctionFromCSVConfigurator.html" target="_top" xlink:title=" ">
<polygon fill="white" stroke="#666666" points="833,-265 653,-265 653,-235 833,-235 833,-265"/>
<text text-anchor="start" x="661" y="-253" font-family="Helvetica,sans-Serif" font-size="10.00">DynExpModule::ArbitraryFunction</text>
<text text-anchor="middle" x="743" y="-242" font-family="Helvetica,sans-Serif" font-size="10.00">FromCSVConfigurator</text>
</a>
</g>
</g>
<!-- Node33&#45;&gt;Node54 -->
<g id="edge46_Node000033_Node000054" class="edge">
<title>Node33&#45;&gt;Node54</title>
<g id="a_edge46_Node000033_Node000054"><a xlink:title=" ">
<path fill="none" stroke="#63b8ff" d="M611.53,-262.51C625.31,-261.19 639.41,-259.83 652.99,-258.53"/>
<polygon fill="#63b8ff" stroke="#63b8ff" points="611.18,-259.02 601.56,-263.46 611.85,-265.99 611.18,-259.02"/>
</a>
</g>
</g>
<!-- Node55 -->
<g id="Node000055" class="node">
<title>Node55</title>
<g id="a_Node000055"><a xlink:href="classDynExpModule_1_1StreamManipulatorConfigurator.html" target="_top" xlink:title="Configurator class for StreamManipulator.">
<polygon fill="white" stroke="#666666" points="838,-217 648,-217 648,-187 838,-187 838,-217"/>
<text text-anchor="start" x="656" y="-205" font-family="Helvetica,sans-Serif" font-size="10.00">DynExpModule::StreamManipulator</text>
<text text-anchor="middle" x="743" y="-194" font-family="Helvetica,sans-Serif" font-size="10.00">Configurator</text>
</a>
</g>
</g>
<!-- Node33&#45;&gt;Node55 -->
<g id="edge47_Node000033_Node000055" class="edge">
<title>Node33&#45;&gt;Node55</title>
<g id="a_edge47_Node000033_Node000055"><a xlink:title=" ">
<path fill="none" stroke="#63b8ff" d="M548.06,-258.8C574.8,-249.11 612.45,-235.95 646,-226 656.46,-222.9 667.64,-219.86 678.53,-217.04"/>
<polygon fill="#63b8ff" stroke="#63b8ff" points="546.57,-255.62 538.38,-262.34 548.97,-262.2 546.57,-255.62"/>
</a>
</g>
</g>
<!-- Node56 -->
<g id="Node000056" class="node">
<title>Node56</title>
<g id="a_Node000056"><a xlink:href="classDynExpModule_1_1gRPCModuleConfigurator.html" target="_top" xlink:title="Configurator class for gRPCModule.">
<polygon fill="white" stroke="#666666" points="826,-169 660,-169 660,-139 826,-139 826,-169"/>
<text text-anchor="start" x="668" y="-157" font-family="Helvetica,sans-Serif" font-size="10.00">DynExpModule::gRPCModule</text>
<text text-anchor="middle" x="743" y="-146" font-family="Helvetica,sans-Serif" font-size="10.00">Configurator&lt; gRPCServices &gt;</text>
</a>
</g>
</g>
<!-- Node33&#45;&gt;Node56 -->
<g id="edge48_Node000033_Node000056" class="edge">
<title>Node33&#45;&gt;Node56</title>
<g id="a_edge48_Node000033_Node000056"><a xlink:title=" ">
<path fill="none" stroke="#63b8ff" d="M530.83,-255.72C555.37,-234.76 601.04,-198.58 646,-178 653.42,-174.6 661.39,-171.64 669.45,-169.07"/>
<polygon fill="#63b8ff" stroke="#63b8ff" points="528.33,-253.26 523.07,-262.45 532.91,-258.54 528.33,-253.26"/>
</a>
</g>
</g>
<!-- Node35 -->
<g id="Node000035" class="node">
<title>Node35</title>
<g id="a_Node000035"><a xlink:href="classDynExpModule_1_1NetworkDataStreamInstrumentConfigurator.html" target="_top" xlink:title=" ">
<polygon fill="#fff0f0" stroke="red" points="1058,-618.5 893,-618.5 893,-577.5 1058,-577.5 1058,-618.5"/>
<text text-anchor="start" x="901" y="-606.5" font-family="Helvetica,sans-Serif" font-size="10.00">DynExpModule::NetworkData</text>
<text text-anchor="start" x="901" y="-595.5" font-family="Helvetica,sans-Serif" font-size="10.00">StreamInstrumentConfigurator</text>
<text text-anchor="middle" x="975.5" y="-584.5" font-family="Helvetica,sans-Serif" font-size="10.00">&lt; gRPCServices... &gt;</text>
</a>
</g>
</g>
<!-- Node34&#45;&gt;Node35 -->
<g id="edge28_Node000034_Node000035" class="edge">
<title>Node34&#45;&gt;Node35</title>
<g id="a_edge28_Node000034_Node000035"><a xlink:title=" ">
<path fill="none" stroke="#63b8ff" d="M812.74,-556.59C838.32,-563.14 867.57,-570.63 894.1,-577.42"/>
<polygon fill="#63b8ff" stroke="#63b8ff" points="813.32,-553.13 802.76,-554.04 811.58,-559.91 813.32,-553.13"/>
</a>
</g>
</g>
<!-- Node41 -->
<g id="Node000041" class="node">
<title>Node41</title>
<g id="a_Node000041"><a xlink:href="classDynExpModule_1_1NetworkDataStreamInstrumentConfigurator.html" target="_top" xlink:title=" ">
<polygon fill="white" stroke="#666666" points="1058,-559.5 893,-559.5 893,-518.5 1058,-518.5 1058,-559.5"/>
<text text-anchor="start" x="901" y="-547.5" font-family="Helvetica,sans-Serif" font-size="10.00">DynExpModule::NetworkData</text>
<text text-anchor="start" x="901" y="-536.5" font-family="Helvetica,sans-Serif" font-size="10.00">StreamInstrumentConfigurator</text>
<text text-anchor="middle" x="975.5" y="-525.5" font-family="Helvetica,sans-Serif" font-size="10.00">&lt; gRPCServices &gt;</text>
</a>
</g>
</g>
<!-- Node34&#45;&gt;Node41 -->
<g id="edge33_Node000034_Node000041" class="edge">
<title>Node34&#45;&gt;Node41</title>
<g id="a_edge33_Node000034_Node000041"><a xlink:title=" ">
<path fill="none" stroke="#63b8ff" d="M840.89,-539C858.13,-539 875.94,-539 892.71,-539"/>
<polygon fill="#63b8ff" stroke="#63b8ff" points="840.81,-535.5 830.81,-539 840.81,-542.5 840.81,-535.5"/>
</a>
</g>
</g>
<!-- Node36 -->
<g id="Node000036" class="node">
<title>Node36</title>
<g id="a_Node000036"><a xlink:href="classDynExpModule_1_1NetworkAnalogInConfigurator.html" target="_top" xlink:title=" ">
<polygon fill="white" stroke="#666666" points="1304.5,-685 1129.5,-685 1129.5,-655 1304.5,-655 1304.5,-685"/>
<text text-anchor="start" x="1137.5" y="-673" font-family="Helvetica,sans-Serif" font-size="10.00">DynExpModule::NetworkAnalog</text>
<text text-anchor="middle" x="1217" y="-662" font-family="Helvetica,sans-Serif" font-size="10.00">InConfigurator&lt; gRPCServices &gt;</text>
</a>
</g>
</g>
<!-- Node35&#45;&gt;Node36 -->
<g id="edge29_Node000035_Node000036" class="edge">
<title>Node35&#45;&gt;Node36</title>
<g id="a_edge29_Node000035_Node000036"><a xlink:title=" ">
<path fill="none" stroke="#63b8ff" d="M1058.55,-621.84C1064.15,-623.82 1069.68,-625.88 1075,-628 1091.61,-634.63 1094.16,-639.96 1111,-646 1120.33,-649.34 1130.3,-652.33 1140.24,-654.97"/>
<polygon fill="#63b8ff" stroke="#63b8ff" points="1059.66,-618.52 1049.07,-618.58 1057.39,-625.14 1059.66,-618.52"/>
</a>
</g>
</g>
<!-- Node37 -->
<g id="Node000037" class="node">
<title>Node37</title>
<g id="a_Node000037"><a xlink:href="classDynExpModule_1_1NetworkAnalogOutConfigurator.html" target="_top" xlink:title=" ">
<polygon fill="white" stroke="#666666" points="1308.5,-637 1125.5,-637 1125.5,-607 1308.5,-607 1308.5,-637"/>
<text text-anchor="start" x="1133.5" y="-625" font-family="Helvetica,sans-Serif" font-size="10.00">DynExpModule::NetworkAnalog</text>
<text text-anchor="middle" x="1217" y="-614" font-family="Helvetica,sans-Serif" font-size="10.00">OutConfigurator&lt; gRPCServices &gt;</text>
</a>
</g>
</g>
<!-- Node35&#45;&gt;Node37 -->
<g id="edge30_Node000035_Node000037" class="edge">
<title>Node35&#45;&gt;Node37</title>
<g id="a_edge30_Node000035_Node000037"><a xlink:title=" ">
<path fill="none" stroke="#63b8ff" d="M1068.22,-607.19C1086.89,-609.06 1106.53,-611.03 1125.17,-612.9"/>
<polygon fill="#63b8ff" stroke="#63b8ff" points="1068.55,-603.71 1058.25,-606.19 1067.85,-610.67 1068.55,-603.71"/>
</a>
</g>
</g>
<!-- Node38 -->
<g id="Node000038" class="node">
<title>Node38</title>
<g id="a_Node000038"><a xlink:href="classDynExpModule_1_1NetworkDigitalInConfigurator.html" target="_top" xlink:title=" ">
<polygon fill="white" stroke="#666666" points="1304.5,-589 1129.5,-589 1129.5,-559 1304.5,-559 1304.5,-589"/>
<text text-anchor="start" x="1137.5" y="-577" font-family="Helvetica,sans-Serif" font-size="10.00">DynExpModule::NetworkDigital</text>
<text text-anchor="middle" x="1217" y="-566" font-family="Helvetica,sans-Serif" font-size="10.00">InConfigurator&lt; gRPCServices &gt;</text>
</a>
</g>
</g>
<!-- Node35&#45;&gt;Node38 -->
<g id="edge31_Node000035_Node000038" class="edge">
<title>Node35&#45;&gt;Node38</title>
<g id="a_edge31_Node000035_Node000038"><a xlink:title=" ">
<path fill="none" stroke="#63b8ff" d="M1068.3,-588.8C1088.33,-586.79 1109.47,-584.67 1129.3,-582.69"/>
<polygon fill="#63b8ff" stroke="#63b8ff" points="1067.85,-585.33 1058.25,-589.81 1068.55,-592.29 1067.85,-585.33"/>
</a>
</g>
</g>
<!-- Node39 -->
<g id="Node000039" class="node">
<title>Node39</title>
<g id="a_Node000039"><a xlink:href="classDynExpModule_1_1NetworkDigitalOutConfigurator.html" target="_top" xlink:title=" ">
<polygon fill="white" stroke="#666666" points="1308.5,-541 1125.5,-541 1125.5,-511 1308.5,-511 1308.5,-541"/>
<text text-anchor="start" x="1133.5" y="-529" font-family="Helvetica,sans-Serif" font-size="10.00">DynExpModule::NetworkDigital</text>
<text text-anchor="middle" x="1217" y="-518" font-family="Helvetica,sans-Serif" font-size="10.00">OutConfigurator&lt; gRPCServices &gt;</text>
</a>
</g>
</g>
<!-- Node35&#45;&gt;Node39 -->
<g id="edge32_Node000035_Node000039" class="edge">
<title>Node35&#45;&gt;Node39</title>
<g id="a_edge32_Node000035_Node000039"><a xlink:title=" ">
<path fill="none" stroke="#63b8ff" d="M1061.54,-574.14C1066.12,-572.49 1070.64,-570.77 1075,-569 1091.76,-562.19 1094.04,-556.29 1111,-550 1120.03,-546.65 1129.67,-543.68 1139.32,-541.07"/>
<polygon fill="#63b8ff" stroke="#63b8ff" points="1060.35,-570.85 1052.06,-577.44 1062.65,-577.46 1060.35,-570.85"/>
</a>
</g>
</g>
<!-- Node43 -->
<g id="Node000043" class="node">
<title>Node43</title>
<g id="a_Node000043"><a xlink:href="classDynExpModule_1_1ImageViewer_1_1ImageViewerConfigurator.html" target="_top" xlink:title=" ">
<polygon fill="white" stroke="#666666" points="1056,-500 895,-500 895,-470 1056,-470 1056,-500"/>
<text text-anchor="start" x="903" y="-488" font-family="Helvetica,sans-Serif" font-size="10.00">DynExpModule::ImageViewer</text>
<text text-anchor="middle" x="975.5" y="-477" font-family="Helvetica,sans-Serif" font-size="10.00">::ImageViewerConfigurator</text>
</a>
</g>
</g>
<!-- Node42&#45;&gt;Node43 -->
<g id="edge35_Node000042_Node000043" class="edge">
<title>Node42&#45;&gt;Node43</title>
<g id="a_edge35_Node000042_Node000043"><a xlink:title=" ">
<path fill="none" stroke="#63b8ff" d="M753.38,-312C771.79,-347.19 816.1,-422.45 876,-461 881.85,-464.76 888.23,-467.94 894.85,-470.61"/>
<polygon fill="#63b8ff" stroke="#63b8ff" points="756.36,-310.14 748.7,-302.82 750.13,-313.32 756.36,-310.14"/>
</a>
</g>
</g>
<!-- Node44 -->
<g id="Node000044" class="node">
<title>Node44</title>
<g id="a_Node000044"><a xlink:href="classDynExpModule_1_1InputPortReaderConfigurator.html" target="_top" xlink:title=" ">
<polygon fill="white" stroke="#666666" points="1063,-452 888,-452 888,-422 1063,-422 1063,-452"/>
<text text-anchor="start" x="896" y="-440" font-family="Helvetica,sans-Serif" font-size="10.00">DynExpModule::InputPortReader</text>
<text text-anchor="middle" x="975.5" y="-429" font-family="Helvetica,sans-Serif" font-size="10.00">Configurator</text>
</a>
</g>
</g>
<!-- Node42&#45;&gt;Node44 -->
<g id="edge36_Node000042_Node000044" class="edge">
<title>Node42&#45;&gt;Node44</title>
<g id="a_edge36_Node000042_Node000044"><a xlink:title=" ">
<path fill="none" stroke="#63b8ff" d="M758.09,-310.49C780.31,-336.85 826.12,-386.5 876,-413 882.53,-416.47 889.57,-419.45 896.77,-422"/>
<polygon fill="#63b8ff" stroke="#63b8ff" points="760.56,-307.98 751.49,-302.51 755.17,-312.44 760.56,-307.98"/>
</a>
</g>
</g>
<!-- Node45 -->
<g id="Node000045" class="node">
<title>Node45</title>
<g id="a_Node000045"><a xlink:href="classDynExpModule_1_1LockinAmplifierControlConfigurator.html" target="_top" xlink:title=" ">
<polygon fill="white" stroke="#666666" points="1061.5,-404 889.5,-404 889.5,-374 1061.5,-374 1061.5,-404"/>
<text text-anchor="start" x="897.5" y="-392" font-family="Helvetica,sans-Serif" font-size="10.00">DynExpModule::LockinAmplifier</text>
<text text-anchor="middle" x="975.5" y="-381" font-family="Helvetica,sans-Serif" font-size="10.00">ControlConfigurator</text>
</a>
</g>
</g>
<!-- Node42&#45;&gt;Node45 -->
<g id="edge37_Node000042_Node000045" class="edge">
<title>Node42&#45;&gt;Node45</title>
<g id="a_edge37_Node000042_Node000045"><a xlink:title=" ">
<path fill="none" stroke="#63b8ff" d="M767.06,-308C792.73,-324.11 835.89,-349.48 876,-365 884.62,-368.33 893.84,-371.31 903.07,-373.94"/>
<polygon fill="#63b8ff" stroke="#63b8ff" points="768.75,-304.93 758.44,-302.52 765,-310.84 768.75,-304.93"/>
</a>
</g>
</g>
<!-- Node46 -->
<g id="Node000046" class="node">
<title>Node46</title>
<g id="a_Node000046"><a xlink:href="classDynExpModule_1_1ODMR_1_1ODMRConfigurator.html" target="_top" xlink:title=" ">
<polygon fill="white" stroke="#666666" points="1039,-356 912,-356 912,-326 1039,-326 1039,-356"/>
<text text-anchor="start" x="920" y="-344" font-family="Helvetica,sans-Serif" font-size="10.00">DynExpModule::ODMR</text>
<text text-anchor="middle" x="975.5" y="-333" font-family="Helvetica,sans-Serif" font-size="10.00">::ODMRConfigurator</text>
</a>
</g>
</g>
<!-- Node42&#45;&gt;Node46 -->
<g id="edge38_Node000042_Node000046" class="edge">
<title>Node42&#45;&gt;Node46</title>
<g id="a_edge38_Node000042_Node000046"><a xlink:title=" ">
<path fill="none" stroke="#63b8ff" d="M799.98,-304.66C833.74,-311.69 876.83,-320.66 911.75,-327.93"/>
<polygon fill="#63b8ff" stroke="#63b8ff" points="800.32,-301.15 789.81,-302.54 798.89,-308.01 800.32,-301.15"/>
</a>
</g>
</g>
<!-- Node47 -->
<g id="Node000047" class="node">
<title>Node47</title>
<g id="a_Node000047"><a xlink:href="classDynExpModule_1_1OutputPortWriterConfigurator.html" target="_top" xlink:title=" ">
<polygon fill="white" stroke="#666666" points="1050,-308 901,-308 901,-278 1050,-278 1050,-308"/>
<text text-anchor="start" x="909" y="-296" font-family="Helvetica,sans-Serif" font-size="10.00">DynExpModule::OutputPort</text>
<text text-anchor="middle" x="975.5" y="-285" font-family="Helvetica,sans-Serif" font-size="10.00">WriterConfigurator</text>
</a>
</g>
</g>
<!-- Node42&#45;&gt;Node47 -->
<g id="edge39_Node000042_Node000047" class="edge">
<title>Node42&#45;&gt;Node47</title>
<g id="a_edge39_Node000042_Node000047"><a xlink:title=" ">
<path fill="none" stroke="#63b8ff" d="M847.11,-293C865.24,-293 883.78,-293 900.91,-293"/>
<polygon fill="#63b8ff" stroke="#63b8ff" points="847.09,-289.5 837.09,-293 847.09,-296.5 847.09,-289.5"/>
</a>
</g>
</g>
<!-- Node48 -->
<g id="Node000048" class="node">
<title>Node48</title>
<g id="a_Node000048"><a xlink:href="classDynExpModule_1_1SignalDesignerConfigurator.html" target="_top" xlink:title=" ">
<polygon fill="white" stroke="#666666" points="1060.5,-260 890.5,-260 890.5,-230 1060.5,-230 1060.5,-260"/>
<text text-anchor="start" x="898.5" y="-248" font-family="Helvetica,sans-Serif" font-size="10.00">DynExpModule::SignalDesigner</text>
<text text-anchor="middle" x="975.5" y="-237" font-family="Helvetica,sans-Serif" font-size="10.00">Configurator</text>
</a>
</g>
</g>
<!-- Node42&#45;&gt;Node48 -->
<g id="edge40_Node000042_Node000048" class="edge">
<title>Node42&#45;&gt;Node48</title>
<g id="a_edge40_Node000042_Node000048"><a xlink:title=" ">
<path fill="none" stroke="#63b8ff" d="M802.99,-281.49C815.23,-279.05 828.04,-276.47 840,-274 861.4,-269.57 884.69,-264.61 905.78,-260.05"/>
<polygon fill="#63b8ff" stroke="#63b8ff" points="802,-278.12 792.87,-283.49 803.36,-284.98 802,-278.12"/>
</a>
</g>
</g>
<!-- Node49 -->
<g id="Node000049" class="node">
<title>Node49</title>
<g id="a_Node000049"><a xlink:href="classDynExpModule_1_1SignalPlotterConfigurator.html" target="_top" xlink:title=" ">
<polygon fill="white" stroke="#666666" points="1054.5,-212 896.5,-212 896.5,-182 1054.5,-182 1054.5,-212"/>
<text text-anchor="start" x="904.5" y="-200" font-family="Helvetica,sans-Serif" font-size="10.00">DynExpModule::SignalPlotter</text>
<text text-anchor="middle" x="975.5" y="-189" font-family="Helvetica,sans-Serif" font-size="10.00">Configurator</text>
</a>
</g>
</g>
<!-- Node42&#45;&gt;Node49 -->
<g id="edge41_Node000042_Node000049" class="edge">
<title>Node42&#45;&gt;Node49</title>
<g id="a_edge41_Node000042_Node000049"><a xlink:title=" ">
<path fill="none" stroke="#63b8ff" d="M830.58,-279.37C833.85,-277.77 837.01,-275.98 840,-274 863.74,-258.28 852.6,-237.23 876,-221 882.22,-216.69 889.13,-213.14 896.32,-210.24"/>
<polygon fill="#63b8ff" stroke="#63b8ff" points="828.92,-276.28 821.11,-283.44 831.68,-282.71 828.92,-276.28"/>
</a>
</g>
</g>
<!-- Node50 -->
<g id="Node000050" class="node">
<title>Node50</title>
<g id="a_Node000050"><a xlink:href="classDynExpModule_1_1SpectrumViewer_1_1SpectrumViewerConfigurator.html" target="_top" xlink:title=" ">
<polygon fill="white" stroke="#666666" points="1063.5,-164 887.5,-164 887.5,-134 1063.5,-134 1063.5,-164"/>
<text text-anchor="start" x="895.5" y="-152" font-family="Helvetica,sans-Serif" font-size="10.00">DynExpModule::SpectrumViewer</text>
<text text-anchor="middle" x="975.5" y="-141" font-family="Helvetica,sans-Serif" font-size="10.00">::SpectrumViewerConfigurator</text>
</a>
</g>
</g>
<!-- Node42&#45;&gt;Node50 -->
<g id="edge42_Node000042_Node000050" class="edge">
<title>Node42&#45;&gt;Node50</title>
<g id="a_edge42_Node000042_Node000050"><a xlink:title=" ">
<path fill="none" stroke="#63b8ff" d="M834.42,-278.28C836.36,-276.96 838.22,-275.53 840,-274 876.08,-242.87 840.61,-204.91 876,-173 879.79,-169.58 883.99,-166.63 888.45,-164.08"/>
<polygon fill="#63b8ff" stroke="#63b8ff" points="832.41,-275.4 825.5,-283.43 835.91,-281.46 832.41,-275.4"/>
</a>
</g>
</g>
<!-- Node51 -->
<g id="Node000051" class="node">
<title>Node51</title>
<g id="a_Node000051"><a xlink:href="classDynExpModule_1_1Stage1DConfigurator.html" target="_top" xlink:title=" ">
<polygon fill="white" stroke="#666666" points="1074,-115.5 877,-115.5 877,-96.5 1074,-96.5 1074,-115.5"/>
<text text-anchor="middle" x="975.5" y="-103.5" font-family="Helvetica,sans-Serif" font-size="10.00">DynExpModule::Stage1DConfigurator</text>
</a>
</g>
</g>
<!-- Node42&#45;&gt;Node51 -->
<g id="edge43_Node000042_Node000051" class="edge">
<title>Node42&#45;&gt;Node51</title>
<g id="a_edge43_Node000042_Node000051"><a xlink:title=" ">
<path fill="none" stroke="#63b8ff" d="M835.38,-277.97C836.98,-276.73 838.53,-275.41 840,-274 889.17,-226.84 826.72,-172.04 876,-125 879.91,-121.27 884.31,-118.17 889.03,-115.59"/>
<polygon fill="#63b8ff" stroke="#63b8ff" points="833.37,-275.1 826.86,-283.46 837.16,-280.98 833.37,-275.1"/>
</a>
</g>
</g>
<!-- Node52 -->
<g id="Node000052" class="node">
<title>Node52</title>
<g id="a_Node000052"><a xlink:href="classDynExpModule_1_1Trajectory1DConfigurator.html" target="_top" xlink:title=" ">
<polygon fill="white" stroke="#666666" points="1050.5,-78 900.5,-78 900.5,-48 1050.5,-48 1050.5,-78"/>
<text text-anchor="start" x="908.5" y="-66" font-family="Helvetica,sans-Serif" font-size="10.00">DynExpModule::Trajectory1</text>
<text text-anchor="middle" x="975.5" y="-55" font-family="Helvetica,sans-Serif" font-size="10.00">DConfigurator</text>
</a>
</g>
</g>
<!-- Node42&#45;&gt;Node52 -->
<g id="edge44_Node000042_Node000052" class="edge">
<title>Node42&#45;&gt;Node52</title>
<g id="a_edge44_Node000042_Node000052"><a xlink:title=" ">
<path fill="none" stroke="#63b8ff" d="M836,-277.63C837.39,-276.49 838.72,-275.28 840,-274 899.69,-214 817.63,-148.29 876,-87 882.68,-79.99 891.03,-74.88 900.03,-71.19"/>
<polygon fill="#63b8ff" stroke="#63b8ff" points="833.8,-274.9 827.51,-283.42 837.74,-280.68 833.8,-274.9"/>
</a>
</g>
</g>
<!-- Node53 -->
<g id="Node000053" class="node">
<title>Node53</title>
<g id="a_Node000053"><a xlink:href="classDynExpModule_1_1Widefield_1_1WidefieldMicroscopeConfigurator.html" target="_top" xlink:title=" ">
<polygon fill="white" stroke="#666666" points="1067.5,-30 883.5,-30 883.5,0 1067.5,0 1067.5,-30"/>
<text text-anchor="start" x="891.5" y="-18" font-family="Helvetica,sans-Serif" font-size="10.00">DynExpModule::Widefield</text>
<text text-anchor="middle" x="975.5" y="-7" font-family="Helvetica,sans-Serif" font-size="10.00">::WidefieldMicroscopeConfigurator</text>
</a>
</g>
</g>
<!-- Node42&#45;&gt;Node53 -->
<g id="edge45_Node000042_Node000053" class="edge">
<title>Node42&#45;&gt;Node53</title>
<g id="a_edge45_Node000042_Node000053"><a xlink:title=" ">
<path fill="none" stroke="#63b8ff" d="M836.56,-277.28C837.75,-276.24 838.9,-275.15 840,-274 913.08,-197.68 804.6,-116.89 876,-39 879.09,-35.63 882.57,-32.69 886.33,-30.14"/>
<polygon fill="#63b8ff" stroke="#63b8ff" points="834.2,-274.66 828.11,-283.33 838.28,-280.35 834.2,-274.66"/>
</a>
</g>
</g>
</g>
</svg>
