<?xml version="1.0" encoding="UTF-8" standalone="no"?>
<!DOCTYPE svg PUBLIC "-//W3C//DTD SVG 1.1//EN"
 "http://www.w3.org/Graphics/SVG/1.1/DTD/svg11.dtd">
<!-- Generated by graphviz version 2.43.0 (0)
 -->
<!-- Title: DynExpInstr::FunctionGeneratorTasks::UpdateTask Pages: 1 -->
<svg width="1327pt" height="235pt"
 viewBox="0.00 0.00 1327.00 235.00" xmlns="http://www.w3.org/2000/svg" xmlns:xlink="http://www.w3.org/1999/xlink">
<g id="graph0" class="graph" transform="scale(1 1) rotate(0) translate(4 231)">
<title>DynExpInstr::FunctionGeneratorTasks::UpdateTask</title>
<polygon fill="white" stroke="transparent" points="-4,4 -4,-231 1323,-231 1323,4 -4,4"/>
<!-- Node1 -->
<g id="node1" class="node">
<title>Node1</title>
<g id="a_node1"><a xlink:title="Defines a task for updating an instrument within an instrument inheritance hierarchy....">
<polygon fill="#bfbfbf" stroke="black" points="549,-98.5 549,-128.5 721,-128.5 721,-98.5 549,-98.5"/>
<text text-anchor="start" x="557" y="-116.5" font-family="Helvetica,sans-Serif" font-size="10.00">DynExpInstr::FunctionGenerator</text>
<text text-anchor="middle" x="635" y="-105.5" font-family="Helvetica,sans-Serif" font-size="10.00">Tasks::UpdateTask</text>
</a>
</g>
</g>
<!-- Node5 -->
<g id="node5" class="node">
<title>Node5</title>
<g id="a_node5"><a xlink:href="classDynExpInstr_1_1DummyDataStreamInstrumentTasks_1_1UpdateTask.html" target="_top" xlink:title=" ">
<polygon fill="white" stroke="black" points="758.5,-196.5 758.5,-226.5 937.5,-226.5 937.5,-196.5 758.5,-196.5"/>
<text text-anchor="start" x="766.5" y="-214.5" font-family="Helvetica,sans-Serif" font-size="10.00">DynExpInstr::DummyDataStream</text>
<text text-anchor="middle" x="848" y="-203.5" font-family="Helvetica,sans-Serif" font-size="10.00">InstrumentTasks::UpdateTask</text>
</a>
</g>
</g>
<!-- Node1&#45;&gt;Node5 -->
<g id="edge4" class="edge">
<title>Node1&#45;&gt;Node5</title>
<path fill="none" stroke="midnightblue" d="M665.45,-134.4C689.23,-150.48 724.04,-172.29 757,-186.5 765.64,-190.22 774.98,-193.54 784.27,-196.45"/>
<polygon fill="midnightblue" stroke="midnightblue" points="667.13,-131.31 656.91,-128.54 663.18,-137.08 667.13,-131.31"/>
</g>
<!-- Node6 -->
<g id="node6" class="node">
<title>Node6</title>
<g id="a_node6"><a xlink:href="classDynExpInstr_1_1OutputPortTasks_1_1UpdateTask.html" target="_top" xlink:title="Defines a task for updating an instrument within an instrument inheritance hierarchy....">
<polygon fill="white" stroke="black" points="767.5,-147.5 767.5,-177.5 928.5,-177.5 928.5,-147.5 767.5,-147.5"/>
<text text-anchor="start" x="775.5" y="-165.5" font-family="Helvetica,sans-Serif" font-size="10.00">DynExpInstr::OutputPortTasks</text>
<text text-anchor="middle" x="848" y="-154.5" font-family="Helvetica,sans-Serif" font-size="10.00">::UpdateTask</text>
</a>
</g>
</g>
<!-- Node1&#45;&gt;Node6 -->
<g id="edge5" class="edge">
<title>Node1&#45;&gt;Node6</title>
<path fill="none" stroke="midnightblue" d="M710.63,-130.83C734.06,-136.27 759.71,-142.23 782.38,-147.49"/>
<polygon fill="midnightblue" stroke="midnightblue" points="711.27,-127.39 700.74,-128.53 709.69,-134.21 711.27,-127.39"/>
</g>
<!-- Node11 -->
<g id="node11" class="node">
<title>Node11</title>
<g id="a_node11"><a xlink:href="classDynExpInstr_1_1RS__SMB100BTasks_1_1UpdateTask.html" target="_top" xlink:title=" ">
<polygon fill="white" stroke="black" points="761.5,-98.5 761.5,-128.5 934.5,-128.5 934.5,-98.5 761.5,-98.5"/>
<text text-anchor="start" x="769.5" y="-116.5" font-family="Helvetica,sans-Serif" font-size="10.00">DynExpInstr::RS_SMB100BTasks</text>
<text text-anchor="middle" x="848" y="-105.5" font-family="Helvetica,sans-Serif" font-size="10.00">::UpdateTask</text>
</a>
</g>
</g>
<!-- Node1&#45;&gt;Node11 -->
<g id="edge10" class="edge">
<title>Node1&#45;&gt;Node11</title>
<path fill="none" stroke="midnightblue" d="M731.23,-113.5C741.31,-113.5 751.51,-113.5 761.47,-113.5"/>
<polygon fill="midnightblue" stroke="midnightblue" points="731.21,-110 721.21,-113.5 731.21,-117 731.21,-110"/>
</g>
<!-- Node12 -->
<g id="node12" class="node">
<title>Node12</title>
<g id="a_node12"><a xlink:href="classDynExpInstr_1_1RS__SMC100ATasks_1_1UpdateTask.html" target="_top" xlink:title=" ">
<polygon fill="white" stroke="black" points="761.5,-49.5 761.5,-79.5 934.5,-79.5 934.5,-49.5 761.5,-49.5"/>
<text text-anchor="start" x="769.5" y="-67.5" font-family="Helvetica,sans-Serif" font-size="10.00">DynExpInstr::RS_SMC100ATasks</text>
<text text-anchor="middle" x="848" y="-56.5" font-family="Helvetica,sans-Serif" font-size="10.00">::UpdateTask</text>
</a>
</g>
</g>
<!-- Node1&#45;&gt;Node12 -->
<g id="edge11" class="edge">
<title>Node1&#45;&gt;Node12</title>
<path fill="none" stroke="midnightblue" d="M710.63,-96.17C734.06,-90.73 759.71,-84.77 782.38,-79.51"/>
<polygon fill="midnightblue" stroke="midnightblue" points="709.69,-92.79 700.74,-98.47 711.27,-99.61 709.69,-92.79"/>
</g>
<!-- Node13 -->
<g id="node13" class="node">
<title>Node13</title>
<g id="a_node13"><a xlink:href="classDynExpInstr_1_1SwabianInstrumentsPulseStreamerTasks_1_1UpdateTask.html" target="_top" xlink:title=" ">
<polygon fill="white" stroke="black" points="757,-0.5 757,-30.5 939,-30.5 939,-0.5 757,-0.5"/>
<text text-anchor="start" x="765" y="-18.5" font-family="Helvetica,sans-Serif" font-size="10.00">DynExpInstr::SwabianInstruments</text>
<text text-anchor="middle" x="848" y="-7.5" font-family="Helvetica,sans-Serif" font-size="10.00">PulseStreamerTasks::UpdateTask</text>
</a>
</g>
</g>
<!-- Node1&#45;&gt;Node13 -->
<g id="edge12" class="edge">
<title>Node1&#45;&gt;Node13</title>
<path fill="none" stroke="midnightblue" d="M664.62,-92.71C688.37,-76.29 723.54,-53.84 757,-39.5 764.73,-36.19 773.03,-33.23 781.36,-30.62"/>
<polygon fill="midnightblue" stroke="midnightblue" points="662.6,-89.86 656.42,-98.46 666.62,-95.59 662.6,-89.86"/>
</g>
<!-- Node2 -->
<g id="node2" class="node">
<title>Node2</title>
<g id="a_node2"><a xlink:href="classDynExpInstr_1_1DataStreamInstrumentTasks_1_1UpdateTask.html" target="_top" xlink:title="Defines a task for updating an instrument within an instrument inheritance hierarchy....">
<polygon fill="white" stroke="black" points="319,-98.5 319,-128.5 513,-128.5 513,-98.5 319,-98.5"/>
<text text-anchor="start" x="327" y="-116.5" font-family="Helvetica,sans-Serif" font-size="10.00">DynExpInstr::DataStreamInstrument</text>
<text text-anchor="middle" x="416" y="-105.5" font-family="Helvetica,sans-Serif" font-size="10.00">Tasks::UpdateTask</text>
</a>
</g>
</g>
<!-- Node2&#45;&gt;Node1 -->
<g id="edge1" class="edge">
<title>Node2&#45;&gt;Node1</title>
<path fill="none" stroke="midnightblue" d="M523.21,-113.5C531.81,-113.5 540.43,-113.5 548.86,-113.5"/>
<polygon fill="midnightblue" stroke="midnightblue" points="523.13,-110 513.13,-113.5 523.13,-117 523.13,-110"/>
</g>
<!-- Node3 -->
<g id="node3" class="node">
<title>Node3</title>
<g id="a_node3"><a xlink:href="classDynExp_1_1UpdateTaskBase.html" target="_top" xlink:title="Defines a task for updating an instrument within an instrument inheritance hierarchy....">
<polygon fill="white" stroke="black" points="142,-104 142,-123 283,-123 283,-104 142,-104"/>
<text text-anchor="middle" x="212.5" y="-111" font-family="Helvetica,sans-Serif" font-size="10.00">DynExp::UpdateTaskBase</text>
</a>
</g>
</g>
<!-- Node3&#45;&gt;Node2 -->
<g id="edge2" class="edge">
<title>Node3&#45;&gt;Node2</title>
<path fill="none" stroke="midnightblue" d="M293.22,-113.5C301.6,-113.5 310.17,-113.5 318.71,-113.5"/>
<polygon fill="midnightblue" stroke="midnightblue" points="293.13,-110 283.13,-113.5 293.13,-117 293.13,-110"/>
</g>
<!-- Node4 -->
<g id="node4" class="node">
<title>Node4</title>
<g id="a_node4"><a xlink:href="classDynExp_1_1TaskBase.html" target="_top" xlink:title="Base class for all tasks being processed by instruments. The class must not contain public virtual fu...">
<polygon fill="white" stroke="black" points="0,-104 0,-123 106,-123 106,-104 0,-104"/>
<text text-anchor="middle" x="53" y="-111" font-family="Helvetica,sans-Serif" font-size="10.00">DynExp::TaskBase</text>
</a>
</g>
</g>
<!-- Node4&#45;&gt;Node3 -->
<g id="edge3" class="edge">
<title>Node4&#45;&gt;Node3</title>
<path fill="none" stroke="midnightblue" d="M116.14,-113.5C124.58,-113.5 133.29,-113.5 141.85,-113.5"/>
<polygon fill="midnightblue" stroke="midnightblue" points="116.01,-110 106.01,-113.5 116.01,-117 116.01,-110"/>
</g>
<!-- Node7 -->
<g id="node7" class="node">
<title>Node7</title>
<g id="a_node7"><a xlink:href="classDynExpInstr_1_1AnalogOutTasks_1_1UpdateTask.html" target="_top" xlink:title="Defines a task for updating an instrument within an instrument inheritance hierarchy....">
<polygon fill="white" stroke="black" points="975,-171.5 975,-201.5 1135,-201.5 1135,-171.5 975,-171.5"/>
<text text-anchor="start" x="983" y="-189.5" font-family="Helvetica,sans-Serif" font-size="10.00">DynExpInstr::AnalogOutTasks</text>
<text text-anchor="middle" x="1055" y="-178.5" font-family="Helvetica,sans-Serif" font-size="10.00">::UpdateTask</text>
</a>
</g>
</g>
<!-- Node6&#45;&gt;Node7 -->
<g id="edge6" class="edge">
<title>Node6&#45;&gt;Node7</title>
<path fill="none" stroke="midnightblue" d="M938.61,-172.99C950.67,-174.4 962.97,-175.84 974.83,-177.23"/>
<polygon fill="midnightblue" stroke="midnightblue" points="938.89,-169.5 928.55,-171.81 938.08,-176.45 938.89,-169.5"/>
</g>
<!-- Node9 -->
<g id="node9" class="node">
<title>Node9</title>
<g id="a_node9"><a xlink:href="classDynExpInstr_1_1DigitalOutTasks_1_1UpdateTask.html" target="_top" xlink:title="Defines a task for updating an instrument within an instrument inheritance hierarchy....">
<polygon fill="white" stroke="black" points="976,-122.5 976,-152.5 1134,-152.5 1134,-122.5 976,-122.5"/>
<text text-anchor="start" x="984" y="-140.5" font-family="Helvetica,sans-Serif" font-size="10.00">DynExpInstr::DigitalOutTasks</text>
<text text-anchor="middle" x="1055" y="-129.5" font-family="Helvetica,sans-Serif" font-size="10.00">::UpdateTask</text>
</a>
</g>
</g>
<!-- Node6&#45;&gt;Node9 -->
<g id="edge8" class="edge">
<title>Node6&#45;&gt;Node9</title>
<path fill="none" stroke="midnightblue" d="M938.83,-151.54C951.16,-150.04 963.74,-148.51 975.84,-147.03"/>
<polygon fill="midnightblue" stroke="midnightblue" points="938.05,-148.11 928.55,-152.8 938.9,-155.06 938.05,-148.11"/>
</g>
<!-- Node8 -->
<g id="node8" class="node">
<title>Node8</title>
<g id="a_node8"><a xlink:href="classDynExpInstr_1_1NIDAQAnalogOutTasks_1_1UpdateTask.html" target="_top" xlink:title=" ">
<polygon fill="white" stroke="black" points="1171,-171.5 1171,-201.5 1319,-201.5 1319,-171.5 1171,-171.5"/>
<text text-anchor="start" x="1179" y="-189.5" font-family="Helvetica,sans-Serif" font-size="10.00">DynExpInstr::NIDAQAnalog</text>
<text text-anchor="middle" x="1245" y="-178.5" font-family="Helvetica,sans-Serif" font-size="10.00">OutTasks::UpdateTask</text>
</a>
</g>
</g>
<!-- Node7&#45;&gt;Node8 -->
<g id="edge7" class="edge">
<title>Node7&#45;&gt;Node8</title>
<path fill="none" stroke="midnightblue" d="M1145.23,-186.5C1153.83,-186.5 1162.48,-186.5 1170.9,-186.5"/>
<polygon fill="midnightblue" stroke="midnightblue" points="1145.18,-183 1135.18,-186.5 1145.18,-190 1145.18,-183"/>
</g>
<!-- Node10 -->
<g id="node10" class="node">
<title>Node10</title>
<g id="a_node10"><a xlink:href="classDynExpInstr_1_1NIDAQDigitalOutTasks_1_1UpdateTask.html" target="_top" xlink:title=" ">
<polygon fill="white" stroke="black" points="1172,-122.5 1172,-152.5 1318,-152.5 1318,-122.5 1172,-122.5"/>
<text text-anchor="start" x="1180" y="-140.5" font-family="Helvetica,sans-Serif" font-size="10.00">DynExpInstr::NIDAQDigital</text>
<text text-anchor="middle" x="1245" y="-129.5" font-family="Helvetica,sans-Serif" font-size="10.00">OutTasks::UpdateTask</text>
</a>
</g>
</g>
<!-- Node9&#45;&gt;Node10 -->
<g id="edge9" class="edge">
<title>Node9&#45;&gt;Node10</title>
<path fill="none" stroke="midnightblue" d="M1144.13,-137.5C1153.42,-137.5 1162.79,-137.5 1171.86,-137.5"/>
<polygon fill="midnightblue" stroke="midnightblue" points="1144.1,-134 1134.1,-137.5 1144.1,-141 1144.1,-134"/>
</g>
</g>
</svg>
