<?xml version="1.0" encoding="UTF-8" standalone="no"?>
<!DOCTYPE svg PUBLIC "-//W3C//DTD SVG 1.1//EN"
 "http://www.w3.org/Graphics/SVG/1.1/DTD/svg11.dtd">
<!-- Generated by graphviz version 2.43.0 (0)
 -->
<!-- Title: DynExp::ModuleParamsBase Pages: 1 -->
<svg width="1547pt" height="873pt"
 viewBox="0.00 0.00 1547.00 873.00" xmlns="http://www.w3.org/2000/svg" xmlns:xlink="http://www.w3.org/1999/xlink">
<g id="graph0" class="graph" transform="scale(1 1) rotate(0) translate(4 869)">
<title>DynExp::ModuleParamsBase</title>
<!-- Node1 -->
<g id="Node000001" class="node">
<title>Node1</title>
<g id="a_Node000001"><a xlink:title="Parameter class for ModuleBase.">
<polygon fill="#999999" stroke="#666666" points="844,-307.5 688,-307.5 688,-288.5 844,-288.5 844,-307.5"/>
<text text-anchor="middle" x="766" y="-295.5" font-family="Helvetica,sans-Serif" font-size="10.00">DynExp::ModuleParamsBase</text>
</a>
</g>
</g>
<!-- Node6 -->
<g id="Node000006" class="node">
<title>Node6</title>
<g id="a_Node000006"><a xlink:href="classDynExpModule_1_1gRPCModuleParams.html" target="_top" xlink:title=" ">
<polygon fill="white" stroke="#666666" points="1054,-710 896,-710 896,-680 1054,-680 1054,-710"/>
<text text-anchor="start" x="904" y="-698" font-family="Helvetica,sans-Serif" font-size="10.00">DynExpModule::gRPCModule</text>
<text text-anchor="middle" x="975" y="-687" font-family="Helvetica,sans-Serif" font-size="10.00">Params&lt; gRPCServices... &gt;</text>
</a>
</g>
</g>
<!-- Node1&#45;&gt;Node6 -->
<g id="edge5_Node000001_Node000006" class="edge">
<title>Node1&#45;&gt;Node6</title>
<g id="a_edge5_Node000001_Node000006"><a xlink:title=" ">
<path fill="none" stroke="#63b8ff" d="M776.9,-316.98C812.48,-385.23 933.54,-617.39 965.96,-679.57"/>
<polygon fill="#63b8ff" stroke="#63b8ff" points="779.84,-315.06 772.12,-307.81 773.64,-318.3 779.84,-315.06"/>
</a>
</g>
</g>
<!-- Node14 -->
<g id="Node000014" class="node">
<title>Node14</title>
<g id="a_Node000014"><a xlink:href="classDynExp_1_1QModuleParamsBase.html" target="_top" xlink:title="Parameter class for QModuleBase.">
<polygon fill="white" stroke="#666666" points="1057,-350.5 893,-350.5 893,-331.5 1057,-331.5 1057,-350.5"/>
<text text-anchor="middle" x="975" y="-338.5" font-family="Helvetica,sans-Serif" font-size="10.00">DynExp::QModuleParamsBase</text>
</a>
</g>
</g>
<!-- Node1&#45;&gt;Node14 -->
<g id="edge13_Node000001_Node000014" class="edge">
<title>Node1&#45;&gt;Node14</title>
<g id="a_edge13_Node000001_Node000014"><a xlink:title=" ">
<path fill="none" stroke="#63b8ff" d="M821.06,-309.6C839.73,-313.57 860.77,-318.02 880,-322 895,-325.11 911.36,-328.44 926.16,-331.43"/>
<polygon fill="#63b8ff" stroke="#63b8ff" points="821.76,-306.17 811.25,-307.5 820.3,-313.01 821.76,-306.17"/>
</a>
</g>
</g>
<!-- Node29 -->
<g id="Node000029" class="node">
<title>Node29</title>
<g id="a_Node000029"><a xlink:href="classDynExpModule_1_1ArbitraryFunctionFromCSVParams.html" target="_top" xlink:title=" ">
<polygon fill="white" stroke="#666666" points="1065,-313 885,-313 885,-283 1065,-283 1065,-313"/>
<text text-anchor="start" x="893" y="-301" font-family="Helvetica,sans-Serif" font-size="10.00">DynExpModule::ArbitraryFunction</text>
<text text-anchor="middle" x="975" y="-290" font-family="Helvetica,sans-Serif" font-size="10.00">FromCSVParams</text>
</a>
</g>
</g>
<!-- Node1&#45;&gt;Node29 -->
<g id="edge28_Node000001_Node000029" class="edge">
<title>Node1&#45;&gt;Node29</title>
<g id="a_edge28_Node000001_Node000029"><a xlink:title=" ">
<path fill="none" stroke="#63b8ff" d="M854.18,-298C864.37,-298 874.78,-298 884.99,-298"/>
<polygon fill="#63b8ff" stroke="#63b8ff" points="854.08,-294.5 844.08,-298 854.08,-301.5 854.08,-294.5"/>
</a>
</g>
</g>
<!-- Node30 -->
<g id="Node000030" class="node">
<title>Node30</title>
<g id="a_Node000030"><a xlink:href="classDynExpModule_1_1StreamManipulatorParams.html" target="_top" xlink:title="Parameter class for StreamManipulator.">
<polygon fill="white" stroke="#666666" points="1070,-265 880,-265 880,-235 1070,-235 1070,-265"/>
<text text-anchor="start" x="888" y="-253" font-family="Helvetica,sans-Serif" font-size="10.00">DynExpModule::StreamManipulator</text>
<text text-anchor="middle" x="975" y="-242" font-family="Helvetica,sans-Serif" font-size="10.00">Params</text>
</a>
</g>
</g>
<!-- Node1&#45;&gt;Node30 -->
<g id="edge29_Node000001_Node000030" class="edge">
<title>Node1&#45;&gt;Node30</title>
<g id="a_edge29_Node000001_Node000030"><a xlink:title=" ">
<path fill="none" stroke="#63b8ff" d="M818.18,-286.13C845.63,-279.77 879.74,-271.86 909.04,-265.06"/>
<polygon fill="#63b8ff" stroke="#63b8ff" points="817.34,-282.73 808.39,-288.4 818.92,-289.55 817.34,-282.73"/>
</a>
</g>
</g>
<!-- Node31 -->
<g id="Node000031" class="node">
<title>Node31</title>
<g id="a_Node000031"><a xlink:href="classDynExpModule_1_1gRPCModuleParams.html" target="_top" xlink:title="Parameter class for gRPCModule.">
<polygon fill="white" stroke="#666666" points="1054,-217 896,-217 896,-187 1054,-187 1054,-217"/>
<text text-anchor="start" x="904" y="-205" font-family="Helvetica,sans-Serif" font-size="10.00">DynExpModule::gRPCModule</text>
<text text-anchor="middle" x="975" y="-194" font-family="Helvetica,sans-Serif" font-size="10.00">Params&lt; gRPCServices &gt;</text>
</a>
</g>
</g>
<!-- Node1&#45;&gt;Node31 -->
<g id="edge30_Node000001_Node000031" class="edge">
<title>Node1&#45;&gt;Node31</title>
<g id="a_edge30_Node000001_Node000031"><a xlink:title=" ">
<path fill="none" stroke="#63b8ff" d="M787.29,-282.24C809.09,-266.01 845.29,-241.03 880,-226 887.81,-222.62 896.19,-219.64 904.62,-217.03"/>
<polygon fill="#63b8ff" stroke="#63b8ff" points="785.01,-279.58 779.14,-288.4 789.23,-285.16 785.01,-279.58"/>
</a>
</g>
</g>
<!-- Node2 -->
<g id="Node000002" class="node">
<title>Node2</title>
<g id="a_Node000002"><a xlink:href="classDynExp_1_1RunnableObjectParams.html" target="_top" xlink:title="Parameter class for RunnableObject.">
<polygon fill="white" stroke="#666666" points="652,-307.5 479,-307.5 479,-288.5 652,-288.5 652,-307.5"/>
<text text-anchor="middle" x="565.5" y="-295.5" font-family="Helvetica,sans-Serif" font-size="10.00">DynExp::RunnableObjectParams</text>
</a>
</g>
</g>
<!-- Node2&#45;&gt;Node1 -->
<g id="edge1_Node000001_Node000002" class="edge">
<title>Node2&#45;&gt;Node1</title>
<g id="a_edge1_Node000001_Node000002"><a xlink:title=" ">
<path fill="none" stroke="#63b8ff" d="M662.17,-298C670.76,-298 679.39,-298 687.79,-298"/>
<polygon fill="#63b8ff" stroke="#63b8ff" points="662.12,-294.5 652.12,-298 662.12,-301.5 662.12,-294.5"/>
</a>
</g>
</g>
<!-- Node3 -->
<g id="Node000003" class="node">
<title>Node3</title>
<g id="a_Node000003"><a xlink:href="classDynExp_1_1ParamsBase.html" target="_top" xlink:title="Abstract base class for object parameter classes. Each class derived from class Object must be accomp...">
<polygon fill="white" stroke="#666666" points="443,-307.5 323,-307.5 323,-288.5 443,-288.5 443,-307.5"/>
<text text-anchor="middle" x="383" y="-295.5" font-family="Helvetica,sans-Serif" font-size="10.00">DynExp::ParamsBase</text>
</a>
</g>
</g>
<!-- Node3&#45;&gt;Node2 -->
<g id="edge2_Node000002_Node000003" class="edge">
<title>Node3&#45;&gt;Node2</title>
<g id="a_edge2_Node000002_Node000003"><a xlink:title=" ">
<path fill="none" stroke="#63b8ff" d="M453.17,-298C461.54,-298 470.17,-298 478.75,-298"/>
<polygon fill="#63b8ff" stroke="#63b8ff" points="453.1,-294.5 443.1,-298 453.1,-301.5 453.1,-294.5"/>
</a>
</g>
</g>
<!-- Node4 -->
<g id="Node000004" class="node">
<title>Node4</title>
<g id="a_Node000004"><a xlink:href="classUtil_1_1ISynchronizedPointerLockable.html" target="_top" xlink:title="Interface to allow synchronizing the access to derived classes between different threads by making th...">
<polygon fill="white" stroke="#666666" points="287,-313 144,-313 144,-283 287,-283 287,-313"/>
<text text-anchor="start" x="152" y="-301" font-family="Helvetica,sans-Serif" font-size="10.00">Util::ISynchronizedPointer</text>
<text text-anchor="middle" x="215.5" y="-290" font-family="Helvetica,sans-Serif" font-size="10.00">Lockable</text>
</a>
</g>
</g>
<!-- Node4&#45;&gt;Node3 -->
<g id="edge3_Node000003_Node000004" class="edge">
<title>Node4&#45;&gt;Node3</title>
<g id="a_edge3_Node000003_Node000004"><a xlink:title=" ">
<path fill="none" stroke="#63b8ff" d="M297.23,-298C305.84,-298 314.47,-298 322.76,-298"/>
<polygon fill="#63b8ff" stroke="#63b8ff" points="297.17,-294.5 287.17,-298 297.17,-301.5 297.17,-294.5"/>
</a>
</g>
</g>
<!-- Node5 -->
<g id="Node000005" class="node">
<title>Node5</title>
<g id="a_Node000005"><a xlink:href="classUtil_1_1INonCopyable.html" target="_top" xlink:title="Interface to delete copy constructor and copy assignment operator and thus make derived classes non&#45;c...">
<polygon fill="white" stroke="#666666" points="108,-307.5 0,-307.5 0,-288.5 108,-288.5 108,-307.5"/>
<text text-anchor="middle" x="54" y="-295.5" font-family="Helvetica,sans-Serif" font-size="10.00">Util::INonCopyable</text>
</a>
</g>
</g>
<!-- Node5&#45;&gt;Node4 -->
<g id="edge4_Node000004_Node000005" class="edge">
<title>Node5&#45;&gt;Node4</title>
<g id="a_edge4_Node000004_Node000005"><a xlink:title=" ">
<path fill="none" stroke="#63b8ff" d="M118.19,-298C126.58,-298 135.23,-298 143.74,-298"/>
<polygon fill="#63b8ff" stroke="#63b8ff" points="118.11,-294.5 108.11,-298 118.11,-301.5 118.11,-294.5"/>
</a>
</g>
</g>
<!-- Node7 -->
<g id="Node000007" class="node">
<title>Node7</title>
<g id="a_Node000007"><a xlink:href="classDynExpModule_1_1NetworkDataStreamInstrumentParams.html" target="_top" xlink:title=" ">
<polygon fill="white" stroke="#666666" points="1298,-774.5 1137,-774.5 1137,-733.5 1298,-733.5 1298,-774.5"/>
<text text-anchor="start" x="1145" y="-762.5" font-family="Helvetica,sans-Serif" font-size="10.00">DynExpModule::NetworkData</text>
<text text-anchor="start" x="1145" y="-751.5" font-family="Helvetica,sans-Serif" font-size="10.00">StreamInstrumentParams</text>
<text text-anchor="middle" x="1217.5" y="-740.5" font-family="Helvetica,sans-Serif" font-size="10.00">&lt; gRPCServices... &gt;</text>
</a>
</g>
</g>
<!-- Node6&#45;&gt;Node7 -->
<g id="edge6_Node000006_Node000007" class="edge">
<title>Node6&#45;&gt;Node7</title>
<g id="a_edge6_Node000006_Node000007"><a xlink:title=" ">
<path fill="none" stroke="#63b8ff" d="M1047.07,-712.44C1075.22,-719.34 1107.71,-727.31 1136.67,-734.42"/>
<polygon fill="#63b8ff" stroke="#63b8ff" points="1047.86,-709.02 1037.31,-710.04 1046.19,-715.82 1047.86,-709.02"/>
</a>
</g>
</g>
<!-- Node13 -->
<g id="Node000013" class="node">
<title>Node13</title>
<g id="a_Node000013"><a xlink:href="classDynExpModule_1_1NetworkDataStreamInstrumentParams.html" target="_top" xlink:title=" ">
<polygon fill="white" stroke="#666666" points="1298,-715.5 1137,-715.5 1137,-674.5 1298,-674.5 1298,-715.5"/>
<text text-anchor="start" x="1145" y="-703.5" font-family="Helvetica,sans-Serif" font-size="10.00">DynExpModule::NetworkData</text>
<text text-anchor="start" x="1145" y="-692.5" font-family="Helvetica,sans-Serif" font-size="10.00">StreamInstrumentParams</text>
<text text-anchor="middle" x="1217.5" y="-681.5" font-family="Helvetica,sans-Serif" font-size="10.00">&lt; gRPCServices &gt;</text>
</a>
</g>
</g>
<!-- Node6&#45;&gt;Node13 -->
<g id="edge12_Node000006_Node000013" class="edge">
<title>Node6&#45;&gt;Node13</title>
<g id="a_edge12_Node000006_Node000013"><a xlink:title=" ">
<path fill="none" stroke="#63b8ff" d="M1064.14,-695C1087.91,-695 1113.47,-695 1136.75,-695"/>
<polygon fill="#63b8ff" stroke="#63b8ff" points="1064.08,-691.5 1054.08,-695 1064.08,-698.5 1064.08,-691.5"/>
</a>
</g>
</g>
<!-- Node8 -->
<g id="Node000008" class="node">
<title>Node8</title>
<g id="a_Node000008"><a xlink:href="classDynExpModule_1_1NetworkAnalogInParams.html" target="_top" xlink:title=" ">
<polygon fill="white" stroke="#666666" points="1537.5,-865 1366.5,-865 1366.5,-835 1537.5,-835 1537.5,-865"/>
<text text-anchor="start" x="1374.5" y="-853" font-family="Helvetica,sans-Serif" font-size="10.00">DynExpModule::NetworkAnalog</text>
<text text-anchor="middle" x="1452" y="-842" font-family="Helvetica,sans-Serif" font-size="10.00">InParams&lt; gRPCServices &gt;</text>
</a>
</g>
</g>
<!-- Node7&#45;&gt;Node8 -->
<g id="edge7_Node000007_Node000008" class="edge">
<title>Node7&#45;&gt;Node8</title>
<g id="a_edge7_Node000007_Node000008"><a xlink:title=" ">
<path fill="none" stroke="#63b8ff" d="M1264.47,-779.32C1292.86,-794.27 1330.36,-812.78 1365,-826 1373.4,-829.2 1382.41,-832.19 1391.32,-834.89"/>
<polygon fill="#63b8ff" stroke="#63b8ff" points="1266.06,-776.21 1255.59,-774.61 1262.78,-782.39 1266.06,-776.21"/>
</a>
</g>
</g>
<!-- Node9 -->
<g id="Node000009" class="node">
<title>Node9</title>
<g id="a_Node000009"><a xlink:href="classDynExpModule_1_1NetworkAnalogOutParams.html" target="_top" xlink:title=" ">
<polygon fill="white" stroke="#666666" points="1537.5,-817 1366.5,-817 1366.5,-787 1537.5,-787 1537.5,-817"/>
<text text-anchor="start" x="1374.5" y="-805" font-family="Helvetica,sans-Serif" font-size="10.00">DynExpModule::NetworkAnalog</text>
<text text-anchor="middle" x="1452" y="-794" font-family="Helvetica,sans-Serif" font-size="10.00">OutParams&lt; gRPCServices &gt;</text>
</a>
</g>
</g>
<!-- Node7&#45;&gt;Node9 -->
<g id="edge8_Node000007_Node000009" class="edge">
<title>Node7&#45;&gt;Node9</title>
<g id="a_edge8_Node000007_Node000009"><a xlink:title=" ">
<path fill="none" stroke="#63b8ff" d="M1308.01,-772.48C1331.18,-777.26 1355.85,-782.36 1378.05,-786.94"/>
<polygon fill="#63b8ff" stroke="#63b8ff" points="1308.69,-769.05 1298.19,-770.45 1307.27,-775.9 1308.69,-769.05"/>
</a>
</g>
</g>
<!-- Node10 -->
<g id="Node000010" class="node">
<title>Node10</title>
<g id="a_Node000010"><a xlink:href="classDynExpModule_1_1NetworkDigitalInParams.html" target="_top" xlink:title=" ">
<polygon fill="white" stroke="#666666" points="1537,-769 1367,-769 1367,-739 1537,-739 1537,-769"/>
<text text-anchor="start" x="1375" y="-757" font-family="Helvetica,sans-Serif" font-size="10.00">DynExpModule::NetworkDigital</text>
<text text-anchor="middle" x="1452" y="-746" font-family="Helvetica,sans-Serif" font-size="10.00">InParams&lt; gRPCServices &gt;</text>
</a>
</g>
</g>
<!-- Node7&#45;&gt;Node10 -->
<g id="edge9_Node000007_Node000010" class="edge">
<title>Node7&#45;&gt;Node10</title>
<g id="a_edge9_Node000007_Node000010"><a xlink:title=" ">
<path fill="none" stroke="#63b8ff" d="M1308.4,-754C1327.56,-754 1347.72,-754 1366.66,-754"/>
<polygon fill="#63b8ff" stroke="#63b8ff" points="1308.19,-750.5 1298.19,-754 1308.19,-757.5 1308.19,-750.5"/>
</a>
</g>
</g>
<!-- Node11 -->
<g id="Node000011" class="node">
<title>Node11</title>
<g id="a_Node000011"><a xlink:href="classDynExpModule_1_1NetworkDigitalOutParams.html" target="_top" xlink:title=" ">
<polygon fill="white" stroke="#666666" points="1537,-721 1367,-721 1367,-691 1537,-691 1537,-721"/>
<text text-anchor="start" x="1375" y="-709" font-family="Helvetica,sans-Serif" font-size="10.00">DynExpModule::NetworkDigital</text>
<text text-anchor="middle" x="1452" y="-698" font-family="Helvetica,sans-Serif" font-size="10.00">OutParams&lt; gRPCServices &gt;</text>
</a>
</g>
</g>
<!-- Node7&#45;&gt;Node11 -->
<g id="edge10_Node000007_Node000011" class="edge">
<title>Node7&#45;&gt;Node11</title>
<g id="a_edge10_Node000007_Node000011"><a xlink:title=" ">
<path fill="none" stroke="#63b8ff" d="M1308.01,-735.52C1331.18,-730.74 1355.85,-725.64 1378.05,-721.06"/>
<polygon fill="#63b8ff" stroke="#63b8ff" points="1307.27,-732.1 1298.19,-737.55 1308.69,-738.95 1307.27,-732.1"/>
</a>
</g>
</g>
<!-- Node12 -->
<g id="Node000012" class="node">
<title>Node12</title>
<g id="a_Node000012"><a xlink:href="classDynExpModule_1_1NetworkTimeTaggerParams.html" target="_top" xlink:title=" ">
<polygon fill="white" stroke="#666666" points="1539,-673 1365,-673 1365,-643 1539,-643 1539,-673"/>
<text text-anchor="start" x="1373" y="-661" font-family="Helvetica,sans-Serif" font-size="10.00">DynExpModule::NetworkTime</text>
<text text-anchor="middle" x="1452" y="-650" font-family="Helvetica,sans-Serif" font-size="10.00">TaggerParams&lt; gRPCServices &gt;</text>
</a>
</g>
</g>
<!-- Node7&#45;&gt;Node12 -->
<g id="edge11_Node000007_Node000012" class="edge">
<title>Node7&#45;&gt;Node12</title>
<g id="a_edge11_Node000007_Node000012"><a xlink:title=" ">
<path fill="none" stroke="#63b8ff" d="M1307.8,-735.83C1315.22,-732.76 1322.41,-729.18 1329,-725 1350.05,-711.65 1344.06,-695.51 1365,-682 1370.34,-678.55 1376.18,-675.6 1382.21,-673.06"/>
<polygon fill="#63b8ff" stroke="#63b8ff" points="1306.38,-732.63 1298.28,-739.45 1308.87,-739.17 1306.38,-732.63"/>
</a>
</g>
</g>
<!-- Node15 -->
<g id="Node000015" class="node">
<title>Node15</title>
<g id="a_Node000015"><a xlink:href="classDynExpModule_1_1EventSenderParams.html" target="_top" xlink:title=" ">
<polygon fill="white" stroke="#666666" points="1296.5,-656 1138.5,-656 1138.5,-626 1296.5,-626 1296.5,-656"/>
<text text-anchor="start" x="1146.5" y="-644" font-family="Helvetica,sans-Serif" font-size="10.00">DynExpModule::EventSender</text>
<text text-anchor="middle" x="1217.5" y="-633" font-family="Helvetica,sans-Serif" font-size="10.00">Params</text>
</a>
</g>
</g>
<!-- Node14&#45;&gt;Node15 -->
<g id="edge14_Node000014_Node000015" class="edge">
<title>Node14&#45;&gt;Node15</title>
<g id="a_edge14_Node000014_Node000015"><a xlink:title=" ">
<path fill="none" stroke="#63b8ff" d="M979.18,-360.75C988.5,-411.84 1020.66,-549.08 1106,-617 1115.45,-624.52 1126.73,-629.81 1138.43,-633.51"/>
<polygon fill="#63b8ff" stroke="#63b8ff" points="982.6,-359.96 977.45,-350.71 975.7,-361.16 982.6,-359.96"/>
</a>
</g>
</g>
<!-- Node16 -->
<g id="Node000016" class="node">
<title>Node16</title>
<g id="a_Node000016"><a xlink:href="classDynExpModule_1_1ImageViewer_1_1ImageViewerParams.html" target="_top" xlink:title=" ">
<polygon fill="white" stroke="#666666" points="1298,-608 1137,-608 1137,-578 1298,-578 1298,-608"/>
<text text-anchor="start" x="1145" y="-596" font-family="Helvetica,sans-Serif" font-size="10.00">DynExpModule::ImageViewer</text>
<text text-anchor="middle" x="1217.5" y="-585" font-family="Helvetica,sans-Serif" font-size="10.00">::ImageViewerParams</text>
</a>
</g>
</g>
<!-- Node14&#45;&gt;Node16 -->
<g id="edge15_Node000014_Node000016" class="edge">
<title>Node14&#45;&gt;Node16</title>
<g id="a_edge15_Node000014_Node000016"><a xlink:title=" ">
<path fill="none" stroke="#63b8ff" d="M981.21,-360.57C994.15,-405.19 1032.18,-514.81 1106,-569 1115.18,-575.74 1125.87,-580.65 1136.92,-584.23"/>
<polygon fill="#63b8ff" stroke="#63b8ff" points="984.51,-359.38 978.45,-350.69 977.77,-361.27 984.51,-359.38"/>
</a>
</g>
</g>
<!-- Node17 -->
<g id="Node000017" class="node">
<title>Node17</title>
<g id="a_Node000017"><a xlink:href="classDynExpModule_1_1InputPortReaderParams.html" target="_top" xlink:title=" ">
<polygon fill="white" stroke="#666666" points="1305,-560 1130,-560 1130,-530 1305,-530 1305,-560"/>
<text text-anchor="start" x="1138" y="-548" font-family="Helvetica,sans-Serif" font-size="10.00">DynExpModule::InputPortReader</text>
<text text-anchor="middle" x="1217.5" y="-537" font-family="Helvetica,sans-Serif" font-size="10.00">Params</text>
</a>
</g>
</g>
<!-- Node14&#45;&gt;Node17 -->
<g id="edge16_Node000014_Node000017" class="edge">
<title>Node14&#45;&gt;Node17</title>
<g id="a_edge16_Node000014_Node000017"><a xlink:title=" ">
<path fill="none" stroke="#63b8ff" d="M983.99,-359.95C1000.73,-397.2 1043.21,-479.9 1106,-521 1113.31,-525.78 1121.42,-529.63 1129.82,-532.72"/>
<polygon fill="#63b8ff" stroke="#63b8ff" points="987.17,-358.48 979.96,-350.72 980.76,-361.29 987.17,-358.48"/>
</a>
</g>
</g>
<!-- Node18 -->
<g id="Node000018" class="node">
<title>Node18</title>
<g id="a_Node000018"><a xlink:href="classDynExpModule_1_1LaserControlParams.html" target="_top" xlink:title=" ">
<polygon fill="white" stroke="#666666" points="1296.5,-512 1138.5,-512 1138.5,-482 1296.5,-482 1296.5,-512"/>
<text text-anchor="start" x="1146.5" y="-500" font-family="Helvetica,sans-Serif" font-size="10.00">DynExpModule::LaserControl</text>
<text text-anchor="middle" x="1217.5" y="-489" font-family="Helvetica,sans-Serif" font-size="10.00">Params</text>
</a>
</g>
</g>
<!-- Node14&#45;&gt;Node18 -->
<g id="edge17_Node000014_Node000018" class="edge">
<title>Node14&#45;&gt;Node18</title>
<g id="a_edge17_Node000014_Node000018"><a xlink:title=" ">
<path fill="none" stroke="#63b8ff" d="M988.43,-359.21C1009.21,-388.15 1053.88,-444.3 1106,-473 1115.97,-478.49 1127.1,-482.73 1138.34,-486"/>
<polygon fill="#63b8ff" stroke="#63b8ff" points="991.16,-357.01 982.55,-350.84 985.43,-361.04 991.16,-357.01"/>
</a>
</g>
</g>
<!-- Node19 -->
<g id="Node000019" class="node">
<title>Node19</title>
<g id="a_Node000019"><a xlink:href="classDynExpModule_1_1LaserScanningSpectroscopy_1_1LaserScanningSpectroscopyParams.html" target="_top" xlink:title=" ">
<polygon fill="white" stroke="#666666" points="1329,-463.5 1106,-463.5 1106,-422.5 1329,-422.5 1329,-463.5"/>
<text text-anchor="start" x="1114" y="-451.5" font-family="Helvetica,sans-Serif" font-size="10.00">DynExpModule::LaserScanning</text>
<text text-anchor="start" x="1114" y="-440.5" font-family="Helvetica,sans-Serif" font-size="10.00">Spectroscopy::LaserScanningSpectroscopy</text>
<text text-anchor="middle" x="1217.5" y="-429.5" font-family="Helvetica,sans-Serif" font-size="10.00">Params</text>
</a>
</g>
</g>
<!-- Node14&#45;&gt;Node19 -->
<g id="edge18_Node000014_Node000019" class="edge">
<title>Node14&#45;&gt;Node19</title>
<g id="a_edge18_Node000014_Node000019"><a xlink:title=" ">
<path fill="none" stroke="#63b8ff" d="M999.17,-356.09C1024.53,-372.06 1066.82,-397.1 1106,-413 1114.47,-416.44 1123.47,-419.61 1132.53,-422.5"/>
<polygon fill="#63b8ff" stroke="#63b8ff" points="1000.94,-353.07 990.63,-350.65 997.18,-358.97 1000.94,-353.07"/>
</a>
</g>
</g>
<!-- Node20 -->
<g id="Node000020" class="node">
<title>Node20</title>
<g id="a_Node000020"><a xlink:href="classDynExpModule_1_1LockinAmplifierControlParams.html" target="_top" xlink:title=" ">
<polygon fill="white" stroke="#666666" points="1303.5,-404 1131.5,-404 1131.5,-374 1303.5,-374 1303.5,-404"/>
<text text-anchor="start" x="1139.5" y="-392" font-family="Helvetica,sans-Serif" font-size="10.00">DynExpModule::LockinAmplifier</text>
<text text-anchor="middle" x="1217.5" y="-381" font-family="Helvetica,sans-Serif" font-size="10.00">ControlParams</text>
</a>
</g>
</g>
<!-- Node14&#45;&gt;Node20 -->
<g id="edge19_Node000014_Node000020" class="edge">
<title>Node14&#45;&gt;Node20</title>
<g id="a_edge19_Node000014_Node000020"><a xlink:title=" ">
<path fill="none" stroke="#63b8ff" d="M1033.96,-352.57C1066.2,-359 1106.68,-367.08 1141.33,-374"/>
<polygon fill="#63b8ff" stroke="#63b8ff" points="1034.29,-349.07 1023.8,-350.54 1032.92,-355.93 1034.29,-349.07"/>
</a>
</g>
</g>
<!-- Node21 -->
<g id="Node000021" class="node">
<title>Node21</title>
<g id="a_Node000021"><a xlink:href="classDynExpModule_1_1ODMR_1_1ODMRParams.html" target="_top" xlink:title=" ">
<polygon fill="white" stroke="#666666" points="1281,-356 1154,-356 1154,-326 1281,-326 1281,-356"/>
<text text-anchor="start" x="1162" y="-344" font-family="Helvetica,sans-Serif" font-size="10.00">DynExpModule::ODMR</text>
<text text-anchor="middle" x="1217.5" y="-333" font-family="Helvetica,sans-Serif" font-size="10.00">::ODMRParams</text>
</a>
</g>
</g>
<!-- Node14&#45;&gt;Node21 -->
<g id="edge20_Node000014_Node000021" class="edge">
<title>Node14&#45;&gt;Node21</title>
<g id="a_edge20_Node000014_Node000021"><a xlink:title=" ">
<path fill="none" stroke="#63b8ff" d="M1067.18,-341C1096.01,-341 1127.23,-341 1153.62,-341"/>
<polygon fill="#63b8ff" stroke="#63b8ff" points="1067.09,-337.5 1057.09,-341 1067.09,-344.5 1067.09,-337.5"/>
</a>
</g>
</g>
<!-- Node22 -->
<g id="Node000022" class="node">
<title>Node22</title>
<g id="a_Node000022"><a xlink:href="classDynExpModule_1_1OutputPortWriterParams.html" target="_top" xlink:title=" ">
<polygon fill="white" stroke="#666666" points="1292,-308 1143,-308 1143,-278 1292,-278 1292,-308"/>
<text text-anchor="start" x="1151" y="-296" font-family="Helvetica,sans-Serif" font-size="10.00">DynExpModule::OutputPort</text>
<text text-anchor="middle" x="1217.5" y="-285" font-family="Helvetica,sans-Serif" font-size="10.00">WriterParams</text>
</a>
</g>
</g>
<!-- Node14&#45;&gt;Node22 -->
<g id="edge21_Node000014_Node000022" class="edge">
<title>Node14&#45;&gt;Node22</title>
<g id="a_edge21_Node000014_Node000022"><a xlink:title=" ">
<path fill="none" stroke="#63b8ff" d="M1033.67,-329.49C1066.38,-322.96 1107.67,-314.72 1142.73,-307.72"/>
<polygon fill="#63b8ff" stroke="#63b8ff" points="1032.92,-326.07 1023.8,-331.46 1034.29,-332.93 1032.92,-326.07"/>
</a>
</g>
</g>
<!-- Node23 -->
<g id="Node000023" class="node">
<title>Node23</title>
<g id="a_Node000023"><a xlink:href="classDynExpModule_1_1SignalDesignerParams.html" target="_top" xlink:title=" ">
<polygon fill="white" stroke="#666666" points="1302.5,-260 1132.5,-260 1132.5,-230 1302.5,-230 1302.5,-260"/>
<text text-anchor="start" x="1140.5" y="-248" font-family="Helvetica,sans-Serif" font-size="10.00">DynExpModule::SignalDesigner</text>
<text text-anchor="middle" x="1217.5" y="-237" font-family="Helvetica,sans-Serif" font-size="10.00">Params</text>
</a>
</g>
</g>
<!-- Node14&#45;&gt;Node23 -->
<g id="edge22_Node000014_Node000023" class="edge">
<title>Node14&#45;&gt;Node23</title>
<g id="a_edge22_Node000014_Node000023"><a xlink:title=" ">
<path fill="none" stroke="#63b8ff" d="M1060.25,-327.55C1063.64,-325.9 1066.91,-324.06 1070,-322 1093.71,-306.23 1082.4,-284.94 1106,-269 1113.97,-263.62 1122.94,-259.41 1132.23,-256.14"/>
<polygon fill="#63b8ff" stroke="#63b8ff" points="1058.86,-324.34 1051.03,-331.48 1061.6,-330.78 1058.86,-324.34"/>
</a>
</g>
</g>
<!-- Node24 -->
<g id="Node000024" class="node">
<title>Node24</title>
<g id="a_Node000024"><a xlink:href="classDynExpModule_1_1SignalPlotterParams.html" target="_top" xlink:title=" ">
<polygon fill="white" stroke="#666666" points="1296.5,-212 1138.5,-212 1138.5,-182 1296.5,-182 1296.5,-212"/>
<text text-anchor="start" x="1146.5" y="-200" font-family="Helvetica,sans-Serif" font-size="10.00">DynExpModule::SignalPlotter</text>
<text text-anchor="middle" x="1217.5" y="-189" font-family="Helvetica,sans-Serif" font-size="10.00">Params</text>
</a>
</g>
</g>
<!-- Node14&#45;&gt;Node24 -->
<g id="edge23_Node000014_Node000024" class="edge">
<title>Node14&#45;&gt;Node24</title>
<g id="a_edge23_Node000014_Node000024"><a xlink:title=" ">
<path fill="none" stroke="#63b8ff" d="M1064.37,-326.32C1066.33,-324.99 1068.21,-323.55 1070,-322 1106.02,-290.8 1070.21,-252.46 1106,-221 1115.22,-212.9 1126.52,-207.32 1138.34,-203.52"/>
<polygon fill="#63b8ff" stroke="#63b8ff" points="1062.29,-323.48 1055.36,-331.5 1065.78,-329.55 1062.29,-323.48"/>
</a>
</g>
</g>
<!-- Node25 -->
<g id="Node000025" class="node">
<title>Node25</title>
<g id="a_Node000025"><a xlink:href="classDynExpModule_1_1SpectrumViewer_1_1SpectrumViewerParams.html" target="_top" xlink:title=" ">
<polygon fill="white" stroke="#666666" points="1305.5,-164 1129.5,-164 1129.5,-134 1305.5,-134 1305.5,-164"/>
<text text-anchor="start" x="1137.5" y="-152" font-family="Helvetica,sans-Serif" font-size="10.00">DynExpModule::SpectrumViewer</text>
<text text-anchor="middle" x="1217.5" y="-141" font-family="Helvetica,sans-Serif" font-size="10.00">::SpectrumViewerParams</text>
</a>
</g>
</g>
<!-- Node14&#45;&gt;Node25 -->
<g id="edge24_Node000014_Node000025" class="edge">
<title>Node14&#45;&gt;Node25</title>
<g id="a_edge24_Node000014_Node000025"><a xlink:title=" ">
<path fill="none" stroke="#63b8ff" d="M1065.87,-325.59C1067.3,-324.47 1068.68,-323.27 1070,-322 1119.07,-274.74 1057.27,-220.61 1106,-173 1112.67,-166.48 1120.67,-161.56 1129.27,-157.86"/>
<polygon fill="#63b8ff" stroke="#63b8ff" points="1063.6,-322.9 1057.15,-331.31 1067.43,-328.75 1063.6,-322.9"/>
</a>
</g>
</g>
<!-- Node26 -->
<g id="Node000026" class="node">
<title>Node26</title>
<g id="a_Node000026"><a xlink:href="classDynExpModule_1_1Stage1DParams.html" target="_top" xlink:title=" ">
<polygon fill="white" stroke="#666666" points="1304,-115.5 1131,-115.5 1131,-96.5 1304,-96.5 1304,-115.5"/>
<text text-anchor="middle" x="1217.5" y="-103.5" font-family="Helvetica,sans-Serif" font-size="10.00">DynExpModule::Stage1DParams</text>
</a>
</g>
</g>
<!-- Node14&#45;&gt;Node26 -->
<g id="edge25_Node000014_Node000026" class="edge">
<title>Node14&#45;&gt;Node26</title>
<g id="a_edge25_Node000014_Node000026"><a xlink:title=" ">
<path fill="none" stroke="#63b8ff" d="M1065.97,-325.69C1067.37,-324.54 1068.72,-323.31 1070,-322 1132.35,-258.48 1042.74,-187.61 1106,-125 1113.06,-118.02 1121.69,-113.06 1130.98,-109.6"/>
<polygon fill="#63b8ff" stroke="#63b8ff" points="1063.68,-323.02 1057.39,-331.55 1067.62,-328.8 1063.68,-323.02"/>
</a>
</g>
</g>
<!-- Node27 -->
<g id="Node000027" class="node">
<title>Node27</title>
<g id="a_Node000027"><a xlink:href="classDynExpModule_1_1Trajectory1DParams.html" target="_top" xlink:title=" ">
<polygon fill="white" stroke="#666666" points="1292.5,-78 1142.5,-78 1142.5,-48 1292.5,-48 1292.5,-78"/>
<text text-anchor="start" x="1150.5" y="-66" font-family="Helvetica,sans-Serif" font-size="10.00">DynExpModule::Trajectory1</text>
<text text-anchor="middle" x="1217.5" y="-55" font-family="Helvetica,sans-Serif" font-size="10.00">DParams</text>
</a>
</g>
</g>
<!-- Node14&#45;&gt;Node27 -->
<g id="edge26_Node000014_Node000027" class="edge">
<title>Node14&#45;&gt;Node27</title>
<g id="a_edge26_Node000014_Node000027"><a xlink:title=" ">
<path fill="none" stroke="#63b8ff" d="M1065.5,-326.18C1067.07,-324.88 1068.58,-323.49 1070,-322 1142.92,-245.53 1033.63,-163.99 1106,-87 1115.68,-76.7 1128.66,-70.3 1142.31,-66.41"/>
<polygon fill="#63b8ff" stroke="#63b8ff" points="1063.38,-323.39 1057.08,-331.92 1067.32,-329.18 1063.38,-323.39"/>
</a>
</g>
</g>
<!-- Node28 -->
<g id="Node000028" class="node">
<title>Node28</title>
<g id="a_Node000028"><a xlink:href="classDynExpModule_1_1Widefield_1_1WidefieldMicroscopeParams.html" target="_top" xlink:title=" ">
<polygon fill="white" stroke="#666666" points="1297.5,-30 1137.5,-30 1137.5,0 1297.5,0 1297.5,-30"/>
<text text-anchor="start" x="1145.5" y="-18" font-family="Helvetica,sans-Serif" font-size="10.00">DynExpModule::Widefield</text>
<text text-anchor="middle" x="1217.5" y="-7" font-family="Helvetica,sans-Serif" font-size="10.00">::WidefieldMicroscopeParams</text>
</a>
</g>
</g>
<!-- Node14&#45;&gt;Node28 -->
<g id="edge27_Node000014_Node000028" class="edge">
<title>Node14&#45;&gt;Node28</title>
<g id="a_edge27_Node000014_Node000028"><a xlink:title=" ">
<path fill="none" stroke="#63b8ff" d="M1065.55,-326.23C1067.11,-324.92 1068.6,-323.51 1070,-322 1156.33,-229.14 1020.34,-132.48 1106,-39 1114.42,-29.81 1125.46,-23.7 1137.31,-19.71"/>
<polygon fill="#63b8ff" stroke="#63b8ff" points="1063.42,-323.45 1057.2,-332.03 1067.41,-329.2 1063.42,-323.45"/>
</a>
</g>
</g>
</g>
</svg>
