<?xml version="1.0" encoding="UTF-8" standalone="no"?>
<!DOCTYPE svg PUBLIC "-//W3C//DTD SVG 1.1//EN"
 "http://www.w3.org/Graphics/SVG/1.1/DTD/svg11.dtd">
<!-- Generated by graphviz version 2.43.0 (0)
 -->
<!-- Title: DynExp::ConfiguratorBase Pages: 1 -->
<svg width="1131pt" height="1168pt"
 viewBox="0.00 0.00 1131.00 1167.50" xmlns="http://www.w3.org/2000/svg" xmlns:xlink="http://www.w3.org/1999/xlink">
<g id="graph0" class="graph" transform="scale(1 1) rotate(0) translate(4 1163.5)">
<title>DynExp::ConfiguratorBase</title>
<polygon fill="white" stroke="transparent" points="-4,4 -4,-1163.5 1127,-1163.5 1127,4 -4,4"/>
<!-- Node1 -->
<g id="node1" class="node">
<title>Node1</title>
<g id="a_node1"><a xlink:title="The configurator classes have the task to generate parameter objects (refer to DynExp::ParamsBase) of...">
<polygon fill="#bfbfbf" stroke="black" points="0,-831 0,-850 144,-850 144,-831 0,-831"/>
<text text-anchor="middle" x="72" y="-838" font-family="Helvetica,sans-Serif" font-size="10.00">DynExp::ConfiguratorBase</text>
</a>
</g>
</g>
<!-- Node2 -->
<g id="node2" class="node">
<title>Node2</title>
<g id="a_node2"><a xlink:href="classDynExp_1_1HardwareAdapterConfiguratorBase.html" target="_top" xlink:title="Configurator class for HardwareAdapterBase.">
<polygon fill="white" stroke="black" points="180,-927 180,-946 410,-946 410,-927 180,-927"/>
<text text-anchor="middle" x="295" y="-934" font-family="Helvetica,sans-Serif" font-size="10.00">DynExp::HardwareAdapterConfiguratorBase</text>
</a>
</g>
</g>
<!-- Node1&#45;&gt;Node2 -->
<g id="edge1" class="edge">
<title>Node1&#45;&gt;Node2</title>
<path fill="none" stroke="midnightblue" d="M104.36,-854.12C149.76,-873.85 232.69,-909.87 272.09,-926.98"/>
<polygon fill="midnightblue" stroke="midnightblue" points="105.56,-850.83 95,-850.06 102.78,-857.25 105.56,-850.83"/>
</g>
<!-- Node15 -->
<g id="node15" class="node">
<title>Node15</title>
<g id="a_node15"><a xlink:href="classDynExp_1_1RunnableObjectConfigurator.html" target="_top" xlink:title="Configurator class for RunnableObject.">
<polygon fill="white" stroke="black" points="196.5,-736 196.5,-755 393.5,-755 393.5,-736 196.5,-736"/>
<text text-anchor="middle" x="295" y="-743" font-family="Helvetica,sans-Serif" font-size="10.00">DynExp::RunnableObjectConfigurator</text>
</a>
</g>
</g>
<!-- Node1&#45;&gt;Node15 -->
<g id="edge14" class="edge">
<title>Node1&#45;&gt;Node15</title>
<path fill="none" stroke="midnightblue" d="M104.78,-826.84C150.18,-807.32 232.49,-771.94 271.86,-755.02"/>
<polygon fill="midnightblue" stroke="midnightblue" points="103.21,-823.7 95.41,-830.87 105.98,-830.13 103.21,-823.7"/>
</g>
<!-- Node3 -->
<g id="node3" class="node">
<title>Node3</title>
<g id="a_node3"><a xlink:href="classDynExpHardware_1_1gRPCHardwareAdapterConfigurator.html" target="_top" xlink:title=" ">
<polygon fill="white" stroke="black" points="462,-1118 462,-1159 642,-1159 642,-1118 462,-1118"/>
<text text-anchor="start" x="470" y="-1147" font-family="Helvetica,sans-Serif" font-size="10.00">DynExpHardware::gRPCHardware</text>
<text text-anchor="start" x="470" y="-1136" font-family="Helvetica,sans-Serif" font-size="10.00">AdapterConfigurator&lt; pulse</text>
<text text-anchor="middle" x="552" y="-1125" font-family="Helvetica,sans-Serif" font-size="10.00">_streamer::PulseStreamer &gt;</text>
</a>
</g>
</g>
<!-- Node2&#45;&gt;Node3 -->
<g id="edge2" class="edge">
<title>Node2&#45;&gt;Node3</title>
<path fill="none" stroke="midnightblue" d="M306.79,-954.75C328.55,-989.93 381.19,-1067.33 446,-1108.5 451.6,-1112.06 457.63,-1115.2 463.87,-1117.98"/>
<polygon fill="midnightblue" stroke="midnightblue" points="309.67,-952.74 301.49,-946 303.68,-956.37 309.67,-952.74"/>
</g>
<!-- Node5 -->
<g id="node5" class="node">
<title>Node5</title>
<g id="a_node5"><a xlink:href="classDynExp_1_1SerialCommunicationHardwareAdapterConfigurator.html" target="_top" xlink:title="Configurator class for SerialCommunicationHardwareAdapter.">
<polygon fill="white" stroke="black" points="469.5,-1068.5 469.5,-1098.5 634.5,-1098.5 634.5,-1068.5 469.5,-1068.5"/>
<text text-anchor="start" x="477.5" y="-1086.5" font-family="Helvetica,sans-Serif" font-size="10.00">DynExp::SerialCommunication</text>
<text text-anchor="middle" x="552" y="-1075.5" font-family="Helvetica,sans-Serif" font-size="10.00">HardwareAdapterConfigurator</text>
</a>
</g>
</g>
<!-- Node2&#45;&gt;Node5 -->
<g id="edge4" class="edge">
<title>Node2&#45;&gt;Node5</title>
<path fill="none" stroke="midnightblue" d="M311.73,-953.76C337.23,-980.63 390.37,-1032.23 446,-1059.5 453.39,-1063.12 461.34,-1066.21 469.44,-1068.83"/>
<polygon fill="midnightblue" stroke="midnightblue" points="314.12,-951.18 304.73,-946.26 309,-955.96 314.12,-951.18"/>
</g>
<!-- Node9 -->
<g id="node9" class="node">
<title>Node9</title>
<g id="a_node9"><a xlink:href="classDynExpHardware_1_1NIDAQHardwareAdapterConfigurator.html" target="_top" xlink:title=" ">
<polygon fill="white" stroke="black" points="458.5,-1019.5 458.5,-1049.5 645.5,-1049.5 645.5,-1019.5 458.5,-1019.5"/>
<text text-anchor="start" x="466.5" y="-1037.5" font-family="Helvetica,sans-Serif" font-size="10.00">DynExpHardware::NIDAQHardware</text>
<text text-anchor="middle" x="552" y="-1026.5" font-family="Helvetica,sans-Serif" font-size="10.00">AdapterConfigurator</text>
</a>
</g>
</g>
<!-- Node2&#45;&gt;Node9 -->
<g id="edge8" class="edge">
<title>Node2&#45;&gt;Node9</title>
<path fill="none" stroke="midnightblue" d="M321.16,-951.19C350.33,-967.68 400.28,-994.25 446,-1010.5 455.43,-1013.85 465.5,-1016.85 475.54,-1019.5"/>
<polygon fill="midnightblue" stroke="midnightblue" points="322.52,-947.94 312.1,-946.02 319.04,-954.02 322.52,-947.94"/>
</g>
<!-- Node10 -->
<g id="node10" class="node">
<title>Node10</title>
<g id="a_node10"><a xlink:href="classDynExpHardware_1_1PVCamHardwareAdapterConfigurator.html" target="_top" xlink:title=" ">
<polygon fill="white" stroke="black" points="457,-970.5 457,-1000.5 647,-1000.5 647,-970.5 457,-970.5"/>
<text text-anchor="start" x="465" y="-988.5" font-family="Helvetica,sans-Serif" font-size="10.00">DynExpHardware::PVCamHardware</text>
<text text-anchor="middle" x="552" y="-977.5" font-family="Helvetica,sans-Serif" font-size="10.00">AdapterConfigurator</text>
</a>
</g>
</g>
<!-- Node2&#45;&gt;Node10 -->
<g id="edge9" class="edge">
<title>Node2&#45;&gt;Node10</title>
<path fill="none" stroke="midnightblue" d="M355.5,-947.93C390.38,-954.64 434.85,-963.18 472.57,-970.43"/>
<polygon fill="midnightblue" stroke="midnightblue" points="355.95,-944.46 345.47,-946.01 354.63,-951.33 355.95,-944.46"/>
</g>
<!-- Node11 -->
<g id="node11" class="node">
<title>Node11</title>
<g id="a_node11"><a xlink:href="classDynExpHardware_1_1QutoolsTDCHardwareAdapterConfigurator.html" target="_top" xlink:title=" ">
<polygon fill="white" stroke="black" points="446,-921.5 446,-951.5 658,-951.5 658,-921.5 446,-921.5"/>
<text text-anchor="start" x="454" y="-939.5" font-family="Helvetica,sans-Serif" font-size="10.00">DynExpHardware::QutoolsTDCHardware</text>
<text text-anchor="middle" x="552" y="-928.5" font-family="Helvetica,sans-Serif" font-size="10.00">AdapterConfigurator</text>
</a>
</g>
</g>
<!-- Node2&#45;&gt;Node11 -->
<g id="edge10" class="edge">
<title>Node2&#45;&gt;Node11</title>
<path fill="none" stroke="midnightblue" d="M420.17,-936.5C428.79,-936.5 437.43,-936.5 445.93,-936.5"/>
<polygon fill="midnightblue" stroke="midnightblue" points="420.07,-933 410.07,-936.5 420.07,-940 420.07,-933"/>
</g>
<!-- Node12 -->
<g id="node12" class="node">
<title>Node12</title>
<g id="a_node12"><a xlink:href="classDynExpHardware_1_1SmarActHardwareAdapterConfigurator.html" target="_top" xlink:title=" ">
<polygon fill="white" stroke="black" points="454,-872.5 454,-902.5 650,-902.5 650,-872.5 454,-872.5"/>
<text text-anchor="start" x="462" y="-890.5" font-family="Helvetica,sans-Serif" font-size="10.00">DynExpHardware::SmarActHardware</text>
<text text-anchor="middle" x="552" y="-879.5" font-family="Helvetica,sans-Serif" font-size="10.00">AdapterConfigurator</text>
</a>
</g>
</g>
<!-- Node2&#45;&gt;Node12 -->
<g id="edge11" class="edge">
<title>Node2&#45;&gt;Node12</title>
<path fill="none" stroke="midnightblue" d="M355.5,-925.07C390.38,-918.36 434.85,-909.82 472.57,-902.57"/>
<polygon fill="midnightblue" stroke="midnightblue" points="354.63,-921.67 345.47,-926.99 355.95,-928.54 354.63,-921.67"/>
</g>
<!-- Node13 -->
<g id="node13" class="node">
<title>Node13</title>
<g id="a_node13"><a xlink:href="classDynExpHardware_1_1ZILabOneHardwareAdapterConfigurator.html" target="_top" xlink:title=" ">
<polygon fill="white" stroke="black" points="471,-823.5 471,-853.5 633,-853.5 633,-823.5 471,-823.5"/>
<text text-anchor="start" x="479" y="-841.5" font-family="Helvetica,sans-Serif" font-size="10.00">DynExpHardware::ZILabOne</text>
<text text-anchor="middle" x="552" y="-830.5" font-family="Helvetica,sans-Serif" font-size="10.00">HardwareAdapterConfigurator</text>
</a>
</g>
</g>
<!-- Node2&#45;&gt;Node13 -->
<g id="edge12" class="edge">
<title>Node2&#45;&gt;Node13</title>
<path fill="none" stroke="midnightblue" d="M321.3,-922.05C350.54,-905.87 400.47,-879.77 446,-863.5 456.41,-859.78 467.6,-856.44 478.66,-853.52"/>
<polygon fill="midnightblue" stroke="midnightblue" points="319.59,-919 312.57,-926.93 323.01,-925.11 319.59,-919"/>
</g>
<!-- Node14 -->
<g id="node14" class="node">
<title>Node14</title>
<g id="a_node14"><a xlink:href="classDynExpHardware_1_1gRPCHardwareAdapterConfigurator.html" target="_top" xlink:title="Configurator class for gRPCHardwareAdapter.">
<polygon fill="white" stroke="black" points="459.5,-774.5 459.5,-804.5 644.5,-804.5 644.5,-774.5 459.5,-774.5"/>
<text text-anchor="start" x="467.5" y="-792.5" font-family="Helvetica,sans-Serif" font-size="10.00">DynExpHardware::gRPCHardware</text>
<text text-anchor="middle" x="552" y="-781.5" font-family="Helvetica,sans-Serif" font-size="10.00">AdapterConfigurator&lt; gRPCStub &gt;</text>
</a>
</g>
</g>
<!-- Node2&#45;&gt;Node14 -->
<g id="edge13" class="edge">
<title>Node2&#45;&gt;Node14</title>
<path fill="none" stroke="midnightblue" d="M311.79,-919.45C337.37,-892.88 390.62,-841.82 446,-814.5 453.81,-810.65 462.25,-807.37 470.83,-804.58"/>
<polygon fill="midnightblue" stroke="midnightblue" points="309.11,-917.19 304.77,-926.85 314.19,-922.01 309.11,-917.19"/>
</g>
<!-- Node4 -->
<g id="node4" class="node">
<title>Node4</title>
<g id="a_node4"><a xlink:href="classDynExpHardware_1_1SIPulseStreamerHardwareAdapterConfigurator.html" target="_top" xlink:title=" ">
<polygon fill="white" stroke="black" points="697,-1123.5 697,-1153.5 885,-1153.5 885,-1123.5 697,-1123.5"/>
<text text-anchor="start" x="705" y="-1141.5" font-family="Helvetica,sans-Serif" font-size="10.00">DynExpHardware::SIPulseStreamer</text>
<text text-anchor="middle" x="791" y="-1130.5" font-family="Helvetica,sans-Serif" font-size="10.00">HardwareAdapterConfigurator</text>
</a>
</g>
</g>
<!-- Node3&#45;&gt;Node4 -->
<g id="edge3" class="edge">
<title>Node3&#45;&gt;Node4</title>
<path fill="none" stroke="midnightblue" d="M652.39,-1138.5C667.12,-1138.5 682.27,-1138.5 696.87,-1138.5"/>
<polygon fill="midnightblue" stroke="midnightblue" points="652.26,-1135 642.26,-1138.5 652.26,-1142 652.26,-1135"/>
</g>
<!-- Node6 -->
<g id="node6" class="node">
<title>Node6</title>
<g id="a_node6"><a xlink:href="classDynExp_1_1QSerialCommunicationHardwareAdapterConfigurator.html" target="_top" xlink:title="Configurator class for QSerialCommunicationHardwareAdapter.">
<polygon fill="white" stroke="black" points="704.5,-1068.5 704.5,-1098.5 877.5,-1098.5 877.5,-1068.5 704.5,-1068.5"/>
<text text-anchor="start" x="712.5" y="-1086.5" font-family="Helvetica,sans-Serif" font-size="10.00">DynExp::QSerialCommunication</text>
<text text-anchor="middle" x="791" y="-1075.5" font-family="Helvetica,sans-Serif" font-size="10.00">HardwareAdapterConfigurator</text>
</a>
</g>
</g>
<!-- Node5&#45;&gt;Node6 -->
<g id="edge5" class="edge">
<title>Node5&#45;&gt;Node6</title>
<path fill="none" stroke="midnightblue" d="M644.7,-1083.5C664.28,-1083.5 684.9,-1083.5 704.25,-1083.5"/>
<polygon fill="midnightblue" stroke="midnightblue" points="644.56,-1080 634.56,-1083.5 644.56,-1087 644.56,-1080"/>
</g>
<!-- Node7 -->
<g id="node7" class="node">
<title>Node7</title>
<g id="a_node7"><a xlink:href="classDynExp_1_1HardwareAdapterSerialPortConfigurator.html" target="_top" xlink:title="Configurator class for HardwareAdapterSerialPort.">
<polygon fill="white" stroke="black" points="937,-1111.5 937,-1141.5 1110,-1141.5 1110,-1111.5 937,-1111.5"/>
<text text-anchor="start" x="945" y="-1129.5" font-family="Helvetica,sans-Serif" font-size="10.00">DynExp::HardwareAdapterSerial</text>
<text text-anchor="middle" x="1023.5" y="-1118.5" font-family="Helvetica,sans-Serif" font-size="10.00">PortConfigurator</text>
</a>
</g>
</g>
<!-- Node6&#45;&gt;Node7 -->
<g id="edge6" class="edge">
<title>Node6&#45;&gt;Node7</title>
<path fill="none" stroke="midnightblue" d="M882.47,-1100.38C902.09,-1104.04 922.72,-1107.89 941.93,-1111.47"/>
<polygon fill="midnightblue" stroke="midnightblue" points="883.09,-1096.93 872.62,-1098.54 881.81,-1103.81 883.09,-1096.93"/>
</g>
<!-- Node8 -->
<g id="node8" class="node">
<title>Node8</title>
<g id="a_node8"><a xlink:href="classDynExp_1_1HardwareAdapterTcpSocketConfigurator.html" target="_top" xlink:title="Configurator class for HardwareAdapterTcpSocket.">
<polygon fill="white" stroke="black" points="943,-1062.5 943,-1092.5 1104,-1092.5 1104,-1062.5 943,-1062.5"/>
<text text-anchor="start" x="951" y="-1080.5" font-family="Helvetica,sans-Serif" font-size="10.00">DynExp::HardwareAdapterTcp</text>
<text text-anchor="middle" x="1023.5" y="-1069.5" font-family="Helvetica,sans-Serif" font-size="10.00">SocketConfigurator</text>
</a>
</g>
</g>
<!-- Node6&#45;&gt;Node8 -->
<g id="edge7" class="edge">
<title>Node6&#45;&gt;Node8</title>
<path fill="none" stroke="midnightblue" d="M887.63,-1081.01C906,-1080.53 925.06,-1080.04 942.86,-1079.57"/>
<polygon fill="midnightblue" stroke="midnightblue" points="887.41,-1077.52 877.5,-1081.27 887.59,-1084.51 887.41,-1077.52"/>
</g>
<!-- Node16 -->
<g id="node16" class="node">
<title>Node16</title>
<g id="a_node16"><a xlink:href="classDynExp_1_1InstrumentConfiguratorBase.html" target="_top" xlink:title="Configurator class for InstrumentBase.">
<polygon fill="white" stroke="black" points="453.5,-736 453.5,-755 650.5,-755 650.5,-736 453.5,-736"/>
<text text-anchor="middle" x="552" y="-743" font-family="Helvetica,sans-Serif" font-size="10.00">DynExp::InstrumentConfiguratorBase</text>
</a>
</g>
</g>
<!-- Node15&#45;&gt;Node16 -->
<g id="edge15" class="edge">
<title>Node15&#45;&gt;Node16</title>
<path fill="none" stroke="midnightblue" d="M404,-745.5C420.4,-745.5 437.24,-745.5 453.4,-745.5"/>
<polygon fill="midnightblue" stroke="midnightblue" points="403.86,-742 393.86,-745.5 403.86,-749 403.86,-742"/>
</g>
<!-- Node46 -->
<g id="node31" class="node">
<title>Node46</title>
<g id="a_node31"><a xlink:href="classDynExp_1_1ModuleConfiguratorBase.html" target="_top" xlink:title="Configurator class for ModuleBase.">
<polygon fill="white" stroke="black" points="462,-268 462,-287 642,-287 642,-268 462,-268"/>
<text text-anchor="middle" x="552" y="-275" font-family="Helvetica,sans-Serif" font-size="10.00">DynExp::ModuleConfiguratorBase</text>
</a>
</g>
</g>
<!-- Node15&#45;&gt;Node46 -->
<g id="edge30" class="edge">
<title>Node15&#45;&gt;Node46</title>
<path fill="none" stroke="midnightblue" d="M306.12,-726.93C348.88,-648.46 513.96,-345.48 545.7,-287.22"/>
<polygon fill="midnightblue" stroke="midnightblue" points="303.04,-725.27 301.33,-735.73 309.18,-728.62 303.04,-725.27"/>
</g>
<!-- Node17 -->
<g id="node17" class="node">
<title>Node17</title>
<g id="a_node17"><a xlink:href="classDynExpInstr_1_1CameraConfigurator.html" target="_top" xlink:title="Configurator class for Camera.">
<polygon fill="white" stroke="black" points="701,-963 701,-982 881,-982 881,-963 701,-963"/>
<text text-anchor="middle" x="791" y="-970" font-family="Helvetica,sans-Serif" font-size="10.00">DynExpInstr::CameraConfigurator</text>
</a>
</g>
</g>
<!-- Node16&#45;&gt;Node17 -->
<g id="edge16" class="edge">
<title>Node16&#45;&gt;Node17</title>
<path fill="none" stroke="midnightblue" d="M650.42,-759.9C653.07,-761.6 655.61,-763.46 658,-765.5 693.92,-796.17 669.78,-824.95 694,-865.5 718.31,-906.21 759.42,-945.43 779,-962.95"/>
<polygon fill="midnightblue" stroke="midnightblue" points="652.05,-756.81 641.61,-755.05 648.68,-762.94 652.05,-756.81"/>
</g>
<!-- Node20 -->
<g id="node20" class="node">
<title>Node20</title>
<g id="a_node20"><a xlink:href="classDynExpInstr_1_1DataStreamInstrumentConfigurator.html" target="_top" xlink:title="Configurator class for DataStreamInstrument.">
<polygon fill="white" stroke="black" points="694,-825.5 694,-855.5 888,-855.5 888,-825.5 694,-825.5"/>
<text text-anchor="start" x="702" y="-843.5" font-family="Helvetica,sans-Serif" font-size="10.00">DynExpInstr::DataStreamInstrument</text>
<text text-anchor="middle" x="791" y="-832.5" font-family="Helvetica,sans-Serif" font-size="10.00">Configurator</text>
</a>
</g>
</g>
<!-- Node16&#45;&gt;Node20 -->
<g id="edge19" class="edge">
<title>Node16&#45;&gt;Node20</title>
<path fill="none" stroke="midnightblue" d="M638.87,-757.94C645.48,-760.08 651.94,-762.57 658,-765.5 677.02,-774.68 676.23,-785.1 694,-796.5 711.59,-807.78 732.55,-817.74 750.39,-825.32"/>
<polygon fill="midnightblue" stroke="midnightblue" points="639.68,-754.53 629.1,-755.07 637.71,-761.25 639.68,-754.53"/>
</g>
<!-- Node40 -->
<g id="node25" class="node">
<title>Node40</title>
<g id="a_node25"><a xlink:href="classDynExpInstr_1_1InterModuleCommunicatorConfigurator.html" target="_top" xlink:title="Configurator class for InterModuleCommunicator.">
<polygon fill="white" stroke="black" points="716.5,-756.5 716.5,-786.5 865.5,-786.5 865.5,-756.5 716.5,-756.5"/>
<text text-anchor="start" x="724.5" y="-774.5" font-family="Helvetica,sans-Serif" font-size="10.00">DynExpInstr::InterModule</text>
<text text-anchor="middle" x="791" y="-763.5" font-family="Helvetica,sans-Serif" font-size="10.00">CommunicatorConfigurator</text>
</a>
</g>
</g>
<!-- Node16&#45;&gt;Node40 -->
<g id="edge24" class="edge">
<title>Node16&#45;&gt;Node40</title>
<path fill="none" stroke="midnightblue" d="M650,-756.14C672.16,-758.57 695.36,-761.12 716.36,-763.42"/>
<polygon fill="midnightblue" stroke="midnightblue" points="650.23,-752.65 639.9,-755.03 649.46,-759.6 650.23,-752.65"/>
</g>
<!-- Node41 -->
<g id="node26" class="node">
<title>Node41</title>
<g id="a_node26"><a xlink:href="classDynExpInstr_1_1PositionerStageConfigurator.html" target="_top" xlink:title="Configurator class for PositionerStage.">
<polygon fill="white" stroke="black" points="712,-707.5 712,-737.5 870,-737.5 870,-707.5 712,-707.5"/>
<text text-anchor="start" x="720" y="-725.5" font-family="Helvetica,sans-Serif" font-size="10.00">DynExpInstr::PositionerStage</text>
<text text-anchor="middle" x="791" y="-714.5" font-family="Helvetica,sans-Serif" font-size="10.00">Configurator</text>
</a>
</g>
</g>
<!-- Node16&#45;&gt;Node41 -->
<g id="edge25" class="edge">
<title>Node16&#45;&gt;Node41</title>
<path fill="none" stroke="midnightblue" d="M660.86,-735.03C678.09,-733.36 695.63,-731.66 711.99,-730.07"/>
<polygon fill="midnightblue" stroke="midnightblue" points="660.38,-731.56 650.77,-736.01 661.06,-738.53 660.38,-731.56"/>
</g>
<!-- Node45 -->
<g id="node30" class="node">
<title>Node45</title>
<g id="a_node30"><a xlink:href="classDynExpInstr_1_1SpectrometerConfigurator.html" target="_top" xlink:title="Configurator class for Spectrometer.">
<polygon fill="white" stroke="black" points="717,-658.5 717,-688.5 865,-688.5 865,-658.5 717,-658.5"/>
<text text-anchor="start" x="725" y="-676.5" font-family="Helvetica,sans-Serif" font-size="10.00">DynExpInstr::Spectrometer</text>
<text text-anchor="middle" x="791" y="-665.5" font-family="Helvetica,sans-Serif" font-size="10.00">Configurator</text>
</a>
</g>
</g>
<!-- Node16&#45;&gt;Node45 -->
<g id="edge29" class="edge">
<title>Node16&#45;&gt;Node45</title>
<path fill="none" stroke="midnightblue" d="M589.36,-732.64C617.71,-722.79 658.15,-709.13 694,-698.5 705.48,-695.1 717.8,-691.7 729.66,-688.55"/>
<polygon fill="midnightblue" stroke="midnightblue" points="588.15,-729.35 579.86,-735.95 590.46,-735.96 588.15,-729.35"/>
</g>
<!-- Node18 -->
<g id="node18" class="node">
<title>Node18</title>
<g id="a_node18"><a xlink:href="classDynExpInstr_1_1DummyCameraConfigurator.html" target="_top" xlink:title=" ">
<polygon fill="white" stroke="black" points="944,-1001.5 944,-1031.5 1103,-1031.5 1103,-1001.5 944,-1001.5"/>
<text text-anchor="start" x="952" y="-1019.5" font-family="Helvetica,sans-Serif" font-size="10.00">DynExpInstr::DummyCamera</text>
<text text-anchor="middle" x="1023.5" y="-1008.5" font-family="Helvetica,sans-Serif" font-size="10.00">Configurator</text>
</a>
</g>
</g>
<!-- Node17&#45;&gt;Node18 -->
<g id="edge17" class="edge">
<title>Node17&#45;&gt;Node18</title>
<path fill="none" stroke="midnightblue" d="M852.04,-983.96C879.99,-989.3 913.61,-995.71 943.58,-1001.43"/>
<polygon fill="midnightblue" stroke="midnightblue" points="852.49,-980.48 842.02,-982.05 851.18,-987.36 852.49,-980.48"/>
</g>
<!-- Node19 -->
<g id="node19" class="node">
<title>Node19</title>
<g id="a_node19"><a xlink:href="classDynExpInstr_1_1PVCamConfigurator.html" target="_top" xlink:title=" ">
<polygon fill="white" stroke="black" points="935,-963 935,-982 1112,-982 1112,-963 935,-963"/>
<text text-anchor="middle" x="1023.5" y="-970" font-family="Helvetica,sans-Serif" font-size="10.00">DynExpInstr::PVCamConfigurator</text>
</a>
</g>
</g>
<!-- Node17&#45;&gt;Node19 -->
<g id="edge18" class="edge">
<title>Node17&#45;&gt;Node19</title>
<path fill="none" stroke="midnightblue" d="M891.52,-972.5C905.91,-972.5 920.63,-972.5 934.76,-972.5"/>
<polygon fill="midnightblue" stroke="midnightblue" points="891.12,-969 881.12,-972.5 891.12,-976 891.12,-969"/>
</g>
<!-- Node21 -->
<g id="node21" class="node">
<title>Node21</title>
<g id="a_node21"><a xlink:href="classDynExpInstr_1_1FunctionGeneratorConfigurator.html" target="_top" xlink:title="Configurator class for FunctionGenerator.">
<polygon fill="white" stroke="red" points="937.5,-913.5 937.5,-943.5 1109.5,-943.5 1109.5,-913.5 937.5,-913.5"/>
<text text-anchor="start" x="945.5" y="-931.5" font-family="Helvetica,sans-Serif" font-size="10.00">DynExpInstr::FunctionGenerator</text>
<text text-anchor="middle" x="1023.5" y="-920.5" font-family="Helvetica,sans-Serif" font-size="10.00">Configurator</text>
</a>
</g>
</g>
<!-- Node20&#45;&gt;Node21 -->
<g id="edge20" class="edge">
<title>Node20&#45;&gt;Node21</title>
<path fill="none" stroke="midnightblue" d="M828.75,-860.45C854.78,-873.97 890.82,-891.5 924,-903.5 934.12,-907.16 945.01,-910.49 955.73,-913.45"/>
<polygon fill="midnightblue" stroke="midnightblue" points="830.12,-857.21 819.64,-855.66 826.86,-863.41 830.12,-857.21"/>
</g>
<!-- Node31 -->
<g id="node22" class="node">
<title>Node31</title>
<g id="a_node22"><a xlink:href="classDynExpInstr_1_1InputPortConfigurator.html" target="_top" xlink:title="Configurator class for InputPort.">
<polygon fill="white" stroke="red" points="930.5,-875 930.5,-894 1116.5,-894 1116.5,-875 930.5,-875"/>
<text text-anchor="middle" x="1023.5" y="-882" font-family="Helvetica,sans-Serif" font-size="10.00">DynExpInstr::InputPortConfigurator</text>
</a>
</g>
</g>
<!-- Node20&#45;&gt;Node31 -->
<g id="edge21" class="edge">
<title>Node20&#45;&gt;Node31</title>
<path fill="none" stroke="midnightblue" d="M880.7,-857.43C911.89,-863.39 945.82,-869.86 972.67,-874.99"/>
<polygon fill="midnightblue" stroke="midnightblue" points="881.16,-853.96 870.68,-855.52 879.85,-860.83 881.16,-853.96"/>
</g>
<!-- Node36 -->
<g id="node23" class="node">
<title>Node36</title>
<g id="a_node23"><a xlink:href="classDynExpInstr_1_1LockinAmplifierConfigurator.html" target="_top" xlink:title="Configurator class for LockinAmplifier.">
<polygon fill="white" stroke="red" points="944.5,-825.5 944.5,-855.5 1102.5,-855.5 1102.5,-825.5 944.5,-825.5"/>
<text text-anchor="start" x="952.5" y="-843.5" font-family="Helvetica,sans-Serif" font-size="10.00">DynExpInstr::LockinAmplifier</text>
<text text-anchor="middle" x="1023.5" y="-832.5" font-family="Helvetica,sans-Serif" font-size="10.00">Configurator</text>
</a>
</g>
</g>
<!-- Node20&#45;&gt;Node36 -->
<g id="edge22" class="edge">
<title>Node20&#45;&gt;Node36</title>
<path fill="none" stroke="midnightblue" d="M898.26,-840.5C913.81,-840.5 929.59,-840.5 944.44,-840.5"/>
<polygon fill="midnightblue" stroke="midnightblue" points="898.08,-837 888.08,-840.5 898.08,-844 898.08,-837"/>
</g>
<!-- Node38 -->
<g id="node24" class="node">
<title>Node38</title>
<g id="a_node24"><a xlink:href="classDynExpInstr_1_1TimeTaggerConfigurator.html" target="_top" xlink:title="Configurator class for TimeTagger.">
<polygon fill="white" stroke="red" points="924,-787 924,-806 1123,-806 1123,-787 924,-787"/>
<text text-anchor="middle" x="1023.5" y="-794" font-family="Helvetica,sans-Serif" font-size="10.00">DynExpInstr::TimeTaggerConfigurator</text>
</a>
</g>
</g>
<!-- Node20&#45;&gt;Node38 -->
<g id="edge23" class="edge">
<title>Node20&#45;&gt;Node38</title>
<path fill="none" stroke="midnightblue" d="M880.7,-823.57C911.89,-817.61 945.82,-811.14 972.67,-806.01"/>
<polygon fill="midnightblue" stroke="midnightblue" points="879.85,-820.17 870.68,-825.48 881.16,-827.04 879.85,-820.17"/>
</g>
<!-- Node42 -->
<g id="node27" class="node">
<title>Node42</title>
<g id="a_node27"><a xlink:href="classDynExpInstr_1_1NenionLeakvalveF3Configurator.html" target="_top" xlink:title=" ">
<polygon fill="white" stroke="black" points="940,-737.5 940,-767.5 1107,-767.5 1107,-737.5 940,-737.5"/>
<text text-anchor="start" x="948" y="-755.5" font-family="Helvetica,sans-Serif" font-size="10.00">DynExpInstr::NenionLeakvalve</text>
<text text-anchor="middle" x="1023.5" y="-744.5" font-family="Helvetica,sans-Serif" font-size="10.00">F3Configurator</text>
</a>
</g>
</g>
<!-- Node41&#45;&gt;Node42 -->
<g id="edge26" class="edge">
<title>Node41&#45;&gt;Node42</title>
<path fill="none" stroke="midnightblue" d="M880.17,-733.98C899.76,-736.52 920.45,-739.22 939.81,-741.74"/>
<polygon fill="midnightblue" stroke="midnightblue" points="880.4,-730.48 870.04,-732.66 879.5,-737.42 880.4,-730.48"/>
</g>
<!-- Node43 -->
<g id="node28" class="node">
<title>Node43</title>
<g id="a_node28"><a xlink:href="classDynExpInstr_1_1PI__C__862__Configurator.html" target="_top" xlink:title=" ">
<polygon fill="white" stroke="black" points="960.5,-688.5 960.5,-718.5 1086.5,-718.5 1086.5,-688.5 960.5,-688.5"/>
<text text-anchor="start" x="968.5" y="-706.5" font-family="Helvetica,sans-Serif" font-size="10.00">DynExpInstr::PI_C_862</text>
<text text-anchor="middle" x="1023.5" y="-695.5" font-family="Helvetica,sans-Serif" font-size="10.00">_Configurator</text>
</a>
</g>
</g>
<!-- Node41&#45;&gt;Node43 -->
<g id="edge27" class="edge">
<title>Node41&#45;&gt;Node43</title>
<path fill="none" stroke="midnightblue" d="M880.15,-715.23C906.83,-713.03 935.57,-710.67 960.19,-708.64"/>
<polygon fill="midnightblue" stroke="midnightblue" points="879.72,-711.76 870.04,-716.07 880.29,-718.73 879.72,-711.76"/>
</g>
<!-- Node44 -->
<g id="node29" class="node">
<title>Node44</title>
<g id="a_node29"><a xlink:href="classDynExpInstr_1_1SmarActConfigurator.html" target="_top" xlink:title=" ">
<polygon fill="white" stroke="black" points="932,-650 932,-669 1115,-669 1115,-650 932,-650"/>
<text text-anchor="middle" x="1023.5" y="-657" font-family="Helvetica,sans-Serif" font-size="10.00">DynExpInstr::SmarActConfigurator</text>
</a>
</g>
</g>
<!-- Node41&#45;&gt;Node44 -->
<g id="edge28" class="edge">
<title>Node41&#45;&gt;Node44</title>
<path fill="none" stroke="midnightblue" d="M870.76,-704.46C876.65,-702.61 882.45,-700.62 888,-698.5 904.9,-692.04 906.96,-685.58 924,-679.5 935.91,-675.25 948.98,-671.8 961.59,-669.04"/>
<polygon fill="midnightblue" stroke="midnightblue" points="869.38,-701.22 860.8,-707.44 871.39,-707.93 869.38,-701.22"/>
</g>
<!-- Node47 -->
<g id="node32" class="node">
<title>Node47</title>
<g id="a_node32"><a xlink:href="classDynExpModule_1_1gRPCModuleConfigurator.html" target="_top" xlink:title=" ">
<polygon fill="white" stroke="black" points="703.5,-535.5 703.5,-565.5 878.5,-565.5 878.5,-535.5 703.5,-535.5"/>
<text text-anchor="start" x="711.5" y="-553.5" font-family="Helvetica,sans-Serif" font-size="10.00">DynExpModule::gRPCModule</text>
<text text-anchor="middle" x="791" y="-542.5" font-family="Helvetica,sans-Serif" font-size="10.00">Configurator&lt; gRPCServices... &gt;</text>
</a>
</g>
</g>
<!-- Node46&#45;&gt;Node47 -->
<g id="edge31" class="edge">
<title>Node46&#45;&gt;Node47</title>
<path fill="none" stroke="midnightblue" d="M568.11,-294.91C611.47,-344.85 735.74,-488 776.72,-535.2"/>
<polygon fill="midnightblue" stroke="midnightblue" points="570.63,-292.47 561.43,-287.22 565.35,-297.06 570.63,-292.47"/>
</g>
<!-- Node55 -->
<g id="node35" class="node">
<title>Node55</title>
<g id="a_node35"><a xlink:href="classDynExp_1_1QModuleConfiguratorBase.html" target="_top" xlink:title="Configurator class for QModuleBase.">
<polygon fill="white" stroke="black" points="697,-290 697,-309 885,-309 885,-290 697,-290"/>
<text text-anchor="middle" x="791" y="-297" font-family="Helvetica,sans-Serif" font-size="10.00">DynExp::QModuleConfiguratorBase</text>
</a>
</g>
</g>
<!-- Node46&#45;&gt;Node55 -->
<g id="edge34" class="edge">
<title>Node46&#45;&gt;Node55</title>
<path fill="none" stroke="midnightblue" d="M652.39,-286.73C667.12,-288.09 682.27,-289.5 696.87,-290.85"/>
<polygon fill="midnightblue" stroke="midnightblue" points="652.54,-283.23 642.26,-285.79 651.9,-290.2 652.54,-283.23"/>
</g>
<!-- Node67 -->
<g id="node47" class="node">
<title>Node67</title>
<g id="a_node47"><a xlink:href="classDynExpModule_1_1ArbitraryFunctionFromCSVConfigurator.html" target="_top" xlink:title=" ">
<polygon fill="white" stroke="black" points="701,-240.5 701,-270.5 881,-270.5 881,-240.5 701,-240.5"/>
<text text-anchor="start" x="709" y="-258.5" font-family="Helvetica,sans-Serif" font-size="10.00">DynExpModule::ArbitraryFunction</text>
<text text-anchor="middle" x="791" y="-247.5" font-family="Helvetica,sans-Serif" font-size="10.00">FromCSVConfigurator</text>
</a>
</g>
</g>
<!-- Node46&#45;&gt;Node67 -->
<g id="edge46" class="edge">
<title>Node46&#45;&gt;Node67</title>
<path fill="none" stroke="midnightblue" d="M652.23,-268.29C668.35,-266.79 684.96,-265.25 700.82,-263.78"/>
<polygon fill="midnightblue" stroke="midnightblue" points="651.9,-264.8 642.26,-269.21 652.54,-271.77 651.9,-264.8"/>
</g>
<!-- Node68 -->
<g id="node48" class="node">
<title>Node68</title>
<g id="a_node48"><a xlink:href="classDynExpModule_1_1StreamManipulatorConfigurator.html" target="_top" xlink:title="Configurator class for StreamManipulator.">
<polygon fill="white" stroke="black" points="696,-191.5 696,-221.5 886,-221.5 886,-191.5 696,-191.5"/>
<text text-anchor="start" x="704" y="-209.5" font-family="Helvetica,sans-Serif" font-size="10.00">DynExpModule::StreamManipulator</text>
<text text-anchor="middle" x="791" y="-198.5" font-family="Helvetica,sans-Serif" font-size="10.00">Configurator</text>
</a>
</g>
</g>
<!-- Node46&#45;&gt;Node68 -->
<g id="edge47" class="edge">
<title>Node46&#45;&gt;Node68</title>
<path fill="none" stroke="midnightblue" d="M590.17,-264.69C618.49,-255.1 658.52,-241.9 694,-231.5 705.57,-228.11 717.99,-224.7 729.93,-221.55"/>
<polygon fill="midnightblue" stroke="midnightblue" points="589.01,-261.39 580.67,-267.92 591.26,-268.02 589.01,-261.39"/>
</g>
<!-- Node69 -->
<g id="node49" class="node">
<title>Node69</title>
<g id="a_node49"><a xlink:href="classDynExpModule_1_1gRPCModuleConfigurator.html" target="_top" xlink:title="Configurator class for gRPCModule.">
<polygon fill="white" stroke="black" points="708,-142.5 708,-172.5 874,-172.5 874,-142.5 708,-142.5"/>
<text text-anchor="start" x="716" y="-160.5" font-family="Helvetica,sans-Serif" font-size="10.00">DynExpModule::gRPCModule</text>
<text text-anchor="middle" x="791" y="-149.5" font-family="Helvetica,sans-Serif" font-size="10.00">Configurator&lt; gRPCServices &gt;</text>
</a>
</g>
</g>
<!-- Node46&#45;&gt;Node69 -->
<g id="edge48" class="edge">
<title>Node46&#45;&gt;Node69</title>
<path fill="none" stroke="midnightblue" d="M572.19,-261.44C598.21,-240.42 646.86,-203.77 694,-182.5 702.4,-178.71 711.48,-175.41 720.59,-172.57"/>
<polygon fill="midnightblue" stroke="midnightblue" points="569.79,-258.88 564.27,-267.92 574.22,-264.3 569.79,-258.88"/>
</g>
<!-- Node48 -->
<g id="node33" class="node">
<title>Node48</title>
<g id="a_node33"><a xlink:href="classDynExpModule_1_1NetworkDataStreamInstrumentConfigurator.html" target="_top" xlink:title=" ">
<polygon fill="white" stroke="red" points="941,-590 941,-631 1106,-631 1106,-590 941,-590"/>
<text text-anchor="start" x="949" y="-619" font-family="Helvetica,sans-Serif" font-size="10.00">DynExpModule::NetworkData</text>
<text text-anchor="start" x="949" y="-608" font-family="Helvetica,sans-Serif" font-size="10.00">StreamInstrumentConfigurator</text>
<text text-anchor="middle" x="1023.5" y="-597" font-family="Helvetica,sans-Serif" font-size="10.00">&lt; gRPCServices... &gt;</text>
</a>
</g>
</g>
<!-- Node47&#45;&gt;Node48 -->
<g id="edge32" class="edge">
<title>Node47&#45;&gt;Node48</title>
<path fill="none" stroke="midnightblue" d="M859.75,-568.13C886.07,-574.99 916.41,-582.88 943.7,-589.99"/>
<polygon fill="midnightblue" stroke="midnightblue" points="860.43,-564.7 849.87,-565.56 858.66,-571.47 860.43,-564.7"/>
</g>
<!-- Node54 -->
<g id="node34" class="node">
<title>Node54</title>
<g id="a_node34"><a xlink:href="classDynExpModule_1_1NetworkDataStreamInstrumentConfigurator.html" target="_top" xlink:title=" ">
<polygon fill="white" stroke="black" points="941,-530 941,-571 1106,-571 1106,-530 941,-530"/>
<text text-anchor="start" x="949" y="-559" font-family="Helvetica,sans-Serif" font-size="10.00">DynExpModule::NetworkData</text>
<text text-anchor="start" x="949" y="-548" font-family="Helvetica,sans-Serif" font-size="10.00">StreamInstrumentConfigurator</text>
<text text-anchor="middle" x="1023.5" y="-537" font-family="Helvetica,sans-Serif" font-size="10.00">&lt; gRPCServices &gt;</text>
</a>
</g>
</g>
<!-- Node47&#45;&gt;Node54 -->
<g id="edge33" class="edge">
<title>Node47&#45;&gt;Node54</title>
<path fill="none" stroke="midnightblue" d="M888.89,-550.5C906.13,-550.5 923.94,-550.5 940.71,-550.5"/>
<polygon fill="midnightblue" stroke="midnightblue" points="888.81,-547 878.81,-550.5 888.81,-554 888.81,-547"/>
</g>
<!-- Node56 -->
<g id="node36" class="node">
<title>Node56</title>
<g id="a_node36"><a xlink:href="classDynExpModule_1_1ImageViewer_1_1ImageViewerConfigurator.html" target="_top" xlink:title=" ">
<polygon fill="white" stroke="black" points="943,-480.5 943,-510.5 1104,-510.5 1104,-480.5 943,-480.5"/>
<text text-anchor="start" x="951" y="-498.5" font-family="Helvetica,sans-Serif" font-size="10.00">DynExpModule::ImageViewer</text>
<text text-anchor="middle" x="1023.5" y="-487.5" font-family="Helvetica,sans-Serif" font-size="10.00">::ImageViewerConfigurator</text>
</a>
</g>
</g>
<!-- Node55&#45;&gt;Node56 -->
<g id="edge35" class="edge">
<title>Node55&#45;&gt;Node56</title>
<path fill="none" stroke="midnightblue" d="M801,-318.44C819.04,-354.25 863.15,-431.84 924,-471.5 929.82,-475.3 936.2,-478.49 942.81,-481.18"/>
<polygon fill="midnightblue" stroke="midnightblue" points="803.98,-316.57 796.43,-309.14 797.7,-319.65 803.98,-316.57"/>
</g>
<!-- Node57 -->
<g id="node37" class="node">
<title>Node57</title>
<g id="a_node37"><a xlink:href="classDynExpModule_1_1InputPortReaderConfigurator.html" target="_top" xlink:title=" ">
<polygon fill="white" stroke="black" points="936,-431.5 936,-461.5 1111,-461.5 1111,-431.5 936,-431.5"/>
<text text-anchor="start" x="944" y="-449.5" font-family="Helvetica,sans-Serif" font-size="10.00">DynExpModule::InputPortReader</text>
<text text-anchor="middle" x="1023.5" y="-438.5" font-family="Helvetica,sans-Serif" font-size="10.00">Configurator</text>
</a>
</g>
</g>
<!-- Node55&#45;&gt;Node57 -->
<g id="edge36" class="edge">
<title>Node55&#45;&gt;Node57</title>
<path fill="none" stroke="midnightblue" d="M805.71,-317.09C827.69,-344.03 873.5,-395.27 924,-422.5 930.43,-425.97 937.36,-428.94 944.47,-431.49"/>
<polygon fill="midnightblue" stroke="midnightblue" points="808.42,-314.87 799.43,-309.25 802.95,-319.25 808.42,-314.87"/>
</g>
<!-- Node58 -->
<g id="node38" class="node">
<title>Node58</title>
<g id="a_node38"><a xlink:href="classDynExpModule_1_1LockinAmplifierControlConfigurator.html" target="_top" xlink:title=" ">
<polygon fill="white" stroke="black" points="937.5,-382.5 937.5,-412.5 1109.5,-412.5 1109.5,-382.5 937.5,-382.5"/>
<text text-anchor="start" x="945.5" y="-400.5" font-family="Helvetica,sans-Serif" font-size="10.00">DynExpModule::LockinAmplifier</text>
<text text-anchor="middle" x="1023.5" y="-389.5" font-family="Helvetica,sans-Serif" font-size="10.00">ControlConfigurator</text>
</a>
</g>
</g>
<!-- Node55&#45;&gt;Node58 -->
<g id="edge37" class="edge">
<title>Node55&#45;&gt;Node58</title>
<path fill="none" stroke="midnightblue" d="M814.58,-314.69C840.14,-331.26 883.5,-357.56 924,-373.5 932.52,-376.85 941.64,-379.83 950.77,-382.45"/>
<polygon fill="midnightblue" stroke="midnightblue" points="816.29,-311.62 806.01,-309.06 812.45,-317.47 816.29,-311.62"/>
</g>
<!-- Node59 -->
<g id="node39" class="node">
<title>Node59</title>
<g id="a_node39"><a xlink:href="classDynExpModule_1_1ODMR_1_1ODMRConfigurator.html" target="_top" xlink:title=" ">
<polygon fill="white" stroke="black" points="960,-333.5 960,-363.5 1087,-363.5 1087,-333.5 960,-333.5"/>
<text text-anchor="start" x="968" y="-351.5" font-family="Helvetica,sans-Serif" font-size="10.00">DynExpModule::ODMR</text>
<text text-anchor="middle" x="1023.5" y="-340.5" font-family="Helvetica,sans-Serif" font-size="10.00">::ODMRConfigurator</text>
</a>
</g>
</g>
<!-- Node55&#45;&gt;Node59 -->
<g id="edge38" class="edge">
<title>Node55&#45;&gt;Node59</title>
<path fill="none" stroke="midnightblue" d="M846.9,-311.17C880.77,-318.37 924.34,-327.63 959.6,-335.13"/>
<polygon fill="midnightblue" stroke="midnightblue" points="847.23,-307.66 836.72,-309.01 845.77,-314.51 847.23,-307.66"/>
</g>
<!-- Node60 -->
<g id="node40" class="node">
<title>Node60</title>
<g id="a_node40"><a xlink:href="classDynExpModule_1_1OutputPortWriterConfigurator.html" target="_top" xlink:title=" ">
<polygon fill="white" stroke="black" points="949,-284.5 949,-314.5 1098,-314.5 1098,-284.5 949,-284.5"/>
<text text-anchor="start" x="957" y="-302.5" font-family="Helvetica,sans-Serif" font-size="10.00">DynExpModule::OutputPort</text>
<text text-anchor="middle" x="1023.5" y="-291.5" font-family="Helvetica,sans-Serif" font-size="10.00">WriterConfigurator</text>
</a>
</g>
</g>
<!-- Node55&#45;&gt;Node60 -->
<g id="edge39" class="edge">
<title>Node55&#45;&gt;Node60</title>
<path fill="none" stroke="midnightblue" d="M895.11,-299.5C913.24,-299.5 931.78,-299.5 948.91,-299.5"/>
<polygon fill="midnightblue" stroke="midnightblue" points="895.09,-296 885.09,-299.5 895.09,-303 895.09,-296"/>
</g>
<!-- Node61 -->
<g id="node41" class="node">
<title>Node61</title>
<g id="a_node41"><a xlink:href="classDynExpModule_1_1SignalDesignerConfigurator.html" target="_top" xlink:title=" ">
<polygon fill="white" stroke="black" points="938.5,-235.5 938.5,-265.5 1108.5,-265.5 1108.5,-235.5 938.5,-235.5"/>
<text text-anchor="start" x="946.5" y="-253.5" font-family="Helvetica,sans-Serif" font-size="10.00">DynExpModule::SignalDesigner</text>
<text text-anchor="middle" x="1023.5" y="-242.5" font-family="Helvetica,sans-Serif" font-size="10.00">Configurator</text>
</a>
</g>
</g>
<!-- Node55&#45;&gt;Node61 -->
<g id="edge40" class="edge">
<title>Node55&#45;&gt;Node61</title>
<path fill="none" stroke="midnightblue" d="M851.4,-287.98C863.52,-285.56 876.18,-282.99 888,-280.5 910.36,-275.79 934.75,-270.43 956.55,-265.54"/>
<polygon fill="midnightblue" stroke="midnightblue" points="850.51,-284.58 841.38,-289.96 851.87,-291.45 850.51,-284.58"/>
</g>
<!-- Node62 -->
<g id="node42" class="node">
<title>Node62</title>
<g id="a_node42"><a xlink:href="classDynExpModule_1_1SignalPlotterConfigurator.html" target="_top" xlink:title=" ">
<polygon fill="white" stroke="black" points="944.5,-186.5 944.5,-216.5 1102.5,-216.5 1102.5,-186.5 944.5,-186.5"/>
<text text-anchor="start" x="952.5" y="-204.5" font-family="Helvetica,sans-Serif" font-size="10.00">DynExpModule::SignalPlotter</text>
<text text-anchor="middle" x="1023.5" y="-193.5" font-family="Helvetica,sans-Serif" font-size="10.00">Configurator</text>
</a>
</g>
</g>
<!-- Node55&#45;&gt;Node62 -->
<g id="edge41" class="edge">
<title>Node55&#45;&gt;Node62</title>
<path fill="none" stroke="midnightblue" d="M878.6,-285.91C881.87,-284.29 885.01,-282.5 888,-280.5 911.98,-264.47 900.45,-243.16 924,-226.5 930.19,-222.12 937.09,-218.5 944.27,-215.52"/>
<polygon fill="midnightblue" stroke="midnightblue" points="876.94,-282.81 869.15,-290 879.71,-289.24 876.94,-282.81"/>
</g>
<!-- Node63 -->
<g id="node43" class="node">
<title>Node63</title>
<g id="a_node43"><a xlink:href="classDynExpModule_1_1SpectrumViewer_1_1SpectrumViewerConfigurator.html" target="_top" xlink:title=" ">
<polygon fill="white" stroke="black" points="935.5,-137.5 935.5,-167.5 1111.5,-167.5 1111.5,-137.5 935.5,-137.5"/>
<text text-anchor="start" x="943.5" y="-155.5" font-family="Helvetica,sans-Serif" font-size="10.00">DynExpModule::SpectrumViewer</text>
<text text-anchor="middle" x="1023.5" y="-144.5" font-family="Helvetica,sans-Serif" font-size="10.00">::SpectrumViewerConfigurator</text>
</a>
</g>
</g>
<!-- Node55&#45;&gt;Node63 -->
<g id="edge42" class="edge">
<title>Node55&#45;&gt;Node63</title>
<path fill="none" stroke="midnightblue" d="M882.43,-284.79C884.37,-283.47 886.23,-282.04 888,-280.5 924.62,-248.71 888.24,-210.25 924,-177.5 928.16,-173.69 932.82,-170.44 937.79,-167.67"/>
<polygon fill="midnightblue" stroke="midnightblue" points="880.42,-281.91 873.53,-289.96 883.93,-287.97 880.42,-281.91"/>
</g>
<!-- Node64 -->
<g id="node44" class="node">
<title>Node64</title>
<g id="a_node44"><a xlink:href="classDynExpModule_1_1Stage1DConfigurator.html" target="_top" xlink:title=" ">
<polygon fill="white" stroke="black" points="925,-99 925,-118 1122,-118 1122,-99 925,-99"/>
<text text-anchor="middle" x="1023.5" y="-106" font-family="Helvetica,sans-Serif" font-size="10.00">DynExpModule::Stage1DConfigurator</text>
</a>
</g>
</g>
<!-- Node55&#45;&gt;Node64 -->
<g id="edge43" class="edge">
<title>Node55&#45;&gt;Node64</title>
<path fill="none" stroke="midnightblue" d="M883.39,-284.48C884.99,-283.24 886.53,-281.91 888,-280.5 937.99,-232.33 874.12,-176.79 924,-128.5 928.26,-124.37 933.13,-120.99 938.37,-118.22"/>
<polygon fill="midnightblue" stroke="midnightblue" points="881.38,-281.61 874.88,-289.98 885.18,-287.49 881.38,-281.61"/>
</g>
<!-- Node65 -->
<g id="node45" class="node">
<title>Node65</title>
<g id="a_node45"><a xlink:href="classDynExpModule_1_1Trajectory1DConfigurator.html" target="_top" xlink:title=" ">
<polygon fill="white" stroke="black" points="948.5,-49.5 948.5,-79.5 1098.5,-79.5 1098.5,-49.5 948.5,-49.5"/>
<text text-anchor="start" x="956.5" y="-67.5" font-family="Helvetica,sans-Serif" font-size="10.00">DynExpModule::Trajectory1</text>
<text text-anchor="middle" x="1023.5" y="-56.5" font-family="Helvetica,sans-Serif" font-size="10.00">DConfigurator</text>
</a>
</g>
</g>
<!-- Node55&#45;&gt;Node65 -->
<g id="edge44" class="edge">
<title>Node55&#45;&gt;Node65</title>
<path fill="none" stroke="midnightblue" d="M884,-284.14C885.39,-283 886.73,-281.79 888,-280.5 948.8,-219.14 864.85,-152.45 924,-89.5 930.77,-82.3 939.28,-77.05 948.47,-73.25"/>
<polygon fill="midnightblue" stroke="midnightblue" points="881.8,-281.4 875.53,-289.94 885.76,-287.18 881.8,-281.4"/>
</g>
<!-- Node66 -->
<g id="node46" class="node">
<title>Node66</title>
<g id="a_node46"><a xlink:href="classDynExpModule_1_1Widefield_1_1WidefieldMicroscopeConfigurator.html" target="_top" xlink:title=" ">
<polygon fill="white" stroke="black" points="931.5,-0.5 931.5,-30.5 1115.5,-30.5 1115.5,-0.5 931.5,-0.5"/>
<text text-anchor="start" x="939.5" y="-18.5" font-family="Helvetica,sans-Serif" font-size="10.00">DynExpModule::Widefield</text>
<text text-anchor="middle" x="1023.5" y="-7.5" font-family="Helvetica,sans-Serif" font-size="10.00">::WidefieldMicroscopeConfigurator</text>
</a>
</g>
</g>
<!-- Node55&#45;&gt;Node66 -->
<g id="edge45" class="edge">
<title>Node55&#45;&gt;Node66</title>
<path fill="none" stroke="midnightblue" d="M884.56,-283.78C885.75,-282.75 886.9,-281.65 888,-280.5 962.75,-202.14 850.97,-119.47 924,-39.5 927.09,-36.12 930.56,-33.18 934.31,-30.62"/>
<polygon fill="midnightblue" stroke="midnightblue" points="882.21,-281.17 876.13,-289.84 886.29,-286.85 882.21,-281.17"/>
</g>
</g>
</svg>
