<?xml version="1.0" encoding="UTF-8" standalone="no"?>
<!DOCTYPE svg PUBLIC "-//W3C//DTD SVG 1.1//EN"
 "http://www.w3.org/Graphics/SVG/1.1/DTD/svg11.dtd">
<!-- Generated by graphviz version 2.43.0 (0)
 -->
<!-- Title: DynExp::HardwareAdapterTcpSocket Pages: 1 -->
<svg width="265pt" height="341pt"
 viewBox="0.00 0.00 265.00 341.00" xmlns="http://www.w3.org/2000/svg" xmlns:xlink="http://www.w3.org/1999/xlink">
<g id="graph0" class="graph" transform="scale(1 1) rotate(0) translate(4 337)">
<title>DynExp::HardwareAdapterTcpSocket</title>
<polygon fill="white" stroke="transparent" points="-4,4 -4,-337 261,-337 261,4 -4,4"/>
<!-- Node1 -->
<g id="node1" class="node">
<title>Node1</title>
<g id="a_node1"><a xlink:title="Implements a hardware adapter to communicate with text&#45;based commands over TCP sockets.">
<polygon fill="#bfbfbf" stroke="black" points="11.5,-0.5 11.5,-30.5 172.5,-30.5 172.5,-0.5 11.5,-0.5"/>
<text text-anchor="start" x="19.5" y="-18.5" font-family="Helvetica,sans-Serif" font-size="10.00">DynExp::HardwareAdapterTcp</text>
<text text-anchor="middle" x="92" y="-7.5" font-family="Helvetica,sans-Serif" font-size="10.00">Socket</text>
</a>
</g>
</g>
<!-- Node2 -->
<g id="node2" class="node">
<title>Node2</title>
<g id="a_node2"><a xlink:href="classDynExp_1_1QSerialCommunicationHardwareAdapter.html" target="_top" xlink:title="SerialCommunicationHardwareAdapter is based on a Qt communication object (wrapped by QSerialCommunica...">
<polygon fill="white" stroke="black" points="5.5,-67.5 5.5,-97.5 178.5,-97.5 178.5,-67.5 5.5,-67.5"/>
<text text-anchor="start" x="13.5" y="-85.5" font-family="Helvetica,sans-Serif" font-size="10.00">DynExp::QSerialCommunication</text>
<text text-anchor="middle" x="92" y="-74.5" font-family="Helvetica,sans-Serif" font-size="10.00">HardwareAdapter</text>
</a>
</g>
</g>
<!-- Node2&#45;&gt;Node1 -->
<g id="edge1" class="edge">
<title>Node2&#45;&gt;Node1</title>
<path fill="none" stroke="midnightblue" d="M92,-57.11C92,-48.15 92,-38.32 92,-30.58"/>
<polygon fill="midnightblue" stroke="midnightblue" points="88.5,-57.4 92,-67.4 95.5,-57.4 88.5,-57.4"/>
</g>
<!-- Node3 -->
<g id="node3" class="node">
<title>Node3</title>
<g id="a_node3"><a xlink:title=" ">
<polygon fill="white" stroke="#bfbfbf" points="0,-140 0,-159 56,-159 56,-140 0,-140"/>
<text text-anchor="middle" x="28" y="-147" font-family="Helvetica,sans-Serif" font-size="10.00">QObject</text>
</a>
</g>
</g>
<!-- Node3&#45;&gt;Node2 -->
<g id="edge2" class="edge">
<title>Node3&#45;&gt;Node2</title>
<path fill="none" stroke="midnightblue" d="M43.95,-132.3C54.45,-121.63 68.07,-107.8 78.13,-97.59"/>
<polygon fill="midnightblue" stroke="midnightblue" points="41.15,-130.15 36.63,-139.73 46.14,-135.06 41.15,-130.15"/>
</g>
<!-- Node4 -->
<g id="node4" class="node">
<title>Node4</title>
<g id="a_node4"><a xlink:href="classDynExp_1_1SerialCommunicationHardwareAdapter.html" target="_top" xlink:title="Defines a hardware adapter for serial communication. Logical const&#45;ness: see declaration of class Dyn...">
<polygon fill="white" stroke="black" points="74.5,-134.5 74.5,-164.5 239.5,-164.5 239.5,-134.5 74.5,-134.5"/>
<text text-anchor="start" x="82.5" y="-152.5" font-family="Helvetica,sans-Serif" font-size="10.00">DynExp::SerialCommunication</text>
<text text-anchor="middle" x="157" y="-141.5" font-family="Helvetica,sans-Serif" font-size="10.00">HardwareAdapter</text>
</a>
</g>
</g>
<!-- Node4&#45;&gt;Node2 -->
<g id="edge3" class="edge">
<title>Node4&#45;&gt;Node2</title>
<path fill="none" stroke="midnightblue" d="M135.81,-127.31C126.06,-117.56 114.76,-106.26 106.08,-97.58"/>
<polygon fill="midnightblue" stroke="midnightblue" points="133.35,-129.8 142.9,-134.4 138.3,-124.85 133.35,-129.8"/>
</g>
<!-- Node5 -->
<g id="node5" class="node">
<title>Node5</title>
<g id="a_node5"><a xlink:href="classDynExp_1_1HardwareAdapterBase.html" target="_top" xlink:title="Defines the base class for a hardware adapter object. Hardware adapters describe interfaces/connectio...">
<polygon fill="white" stroke="black" points="72,-201.5 72,-220.5 242,-220.5 242,-201.5 72,-201.5"/>
<text text-anchor="middle" x="157" y="-208.5" font-family="Helvetica,sans-Serif" font-size="10.00">DynExp::HardwareAdapterBase</text>
</a>
</g>
</g>
<!-- Node5&#45;&gt;Node4 -->
<g id="edge4" class="edge">
<title>Node5&#45;&gt;Node4</title>
<path fill="none" stroke="midnightblue" d="M157,-191.23C157,-182.59 157,-172.5 157,-164.52"/>
<polygon fill="midnightblue" stroke="midnightblue" points="153.5,-191.48 157,-201.48 160.5,-191.48 153.5,-191.48"/>
</g>
<!-- Node6 -->
<g id="node6" class="node">
<title>Node6</title>
<g id="a_node6"><a xlink:href="classUtil_1_1ILockable.html" target="_top" xlink:title="Interface to allow synchronizing the access to derived classes between different threads by providing...">
<polygon fill="white" stroke="black" points="61,-257.5 61,-276.5 147,-276.5 147,-257.5 61,-257.5"/>
<text text-anchor="middle" x="104" y="-264.5" font-family="Helvetica,sans-Serif" font-size="10.00">Util::ILockable</text>
</a>
</g>
</g>
<!-- Node6&#45;&gt;Node5 -->
<g id="edge5" class="edge">
<title>Node6&#45;&gt;Node5</title>
<path fill="none" stroke="midnightblue" d="M119.98,-249.72C129.32,-240.2 140.75,-228.56 148.41,-220.75"/>
<polygon fill="midnightblue" stroke="midnightblue" points="117.26,-247.49 112.75,-257.08 122.25,-252.4 117.26,-247.49"/>
</g>
<!-- Node7 -->
<g id="node7" class="node">
<title>Node7</title>
<g id="a_node7"><a xlink:href="classUtil_1_1INonCopyable.html" target="_top" xlink:title="Interface to delete copy constructor and copy assignment operator and thus make derived classes non&#45;c...">
<polygon fill="white" stroke="black" points="50,-313.5 50,-332.5 158,-332.5 158,-313.5 50,-313.5"/>
<text text-anchor="middle" x="104" y="-320.5" font-family="Helvetica,sans-Serif" font-size="10.00">Util::INonCopyable</text>
</a>
</g>
</g>
<!-- Node7&#45;&gt;Node6 -->
<g id="edge6" class="edge">
<title>Node7&#45;&gt;Node6</title>
<path fill="none" stroke="midnightblue" d="M104,-302.8C104,-293.91 104,-283.78 104,-276.75"/>
<polygon fill="midnightblue" stroke="midnightblue" points="100.5,-303.08 104,-313.08 107.5,-303.08 100.5,-303.08"/>
</g>
<!-- Node8 -->
<g id="node8" class="node">
<title>Node8</title>
<g id="a_node8"><a xlink:href="classDynExp_1_1Object.html" target="_top" xlink:title="Base class for all DynExp Objects like hardware adapters (DynExp::HardwareAdapterBase),...">
<polygon fill="white" stroke="black" points="165,-257.5 165,-276.5 257,-276.5 257,-257.5 165,-257.5"/>
<text text-anchor="middle" x="211" y="-264.5" font-family="Helvetica,sans-Serif" font-size="10.00">DynExp::Object</text>
</a>
</g>
</g>
<!-- Node8&#45;&gt;Node5 -->
<g id="edge7" class="edge">
<title>Node8&#45;&gt;Node5</title>
<path fill="none" stroke="midnightblue" d="M195,-250C185.43,-240.43 173.64,-228.64 165.75,-220.75"/>
<polygon fill="midnightblue" stroke="midnightblue" points="192.54,-252.49 202.08,-257.08 197.49,-247.54 192.54,-252.49"/>
</g>
</g>
</svg>
