<?xml version="1.0" encoding="UTF-8" standalone="no"?>
<!DOCTYPE svg PUBLIC "-//W3C//DTD SVG 1.1//EN"
 "http://www.w3.org/Graphics/SVG/1.1/DTD/svg11.dtd">
<!-- Generated by graphviz version 2.43.0 (0)
 -->
<!-- Title: DynExpInstr::TimeTaggerParams Pages: 1 -->
<svg width="202pt" height="442pt"
 viewBox="0.00 0.00 202.00 442.00" xmlns="http://www.w3.org/2000/svg" xmlns:xlink="http://www.w3.org/1999/xlink">
<g id="graph0" class="graph" transform="scale(1 1) rotate(0) translate(4 438)">
<title>DynExpInstr::TimeTaggerParams</title>
<polygon fill="white" stroke="transparent" points="-4,4 -4,-438 198,-438 198,4 -4,4"/>
<!-- Node1 -->
<g id="node1" class="node">
<title>Node1</title>
<g id="a_node1"><a xlink:title="Parameter class for TimeTagger.">
<polygon fill="#bfbfbf" stroke="black" points="9.5,-56.5 9.5,-75.5 184.5,-75.5 184.5,-56.5 9.5,-56.5"/>
<text text-anchor="middle" x="97" y="-63.5" font-family="Helvetica,sans-Serif" font-size="10.00">DynExpInstr::TimeTaggerParams</text>
</a>
</g>
</g>
<!-- Node8 -->
<g id="node8" class="node">
<title>Node8</title>
<g id="a_node8"><a xlink:href="classDynExpInstr_1_1QutoolsQuTAGParams.html" target="_top" xlink:title=" ">
<polygon fill="white" stroke="black" points="3,-0.5 3,-19.5 191,-19.5 191,-0.5 3,-0.5"/>
<text text-anchor="middle" x="97" y="-7.5" font-family="Helvetica,sans-Serif" font-size="10.00">DynExpInstr::QutoolsQuTAGParams</text>
</a>
</g>
</g>
<!-- Node1&#45;&gt;Node8 -->
<g id="edge7" class="edge">
<title>Node1&#45;&gt;Node8</title>
<path fill="none" stroke="midnightblue" d="M97,-45.8C97,-36.91 97,-26.78 97,-19.75"/>
<polygon fill="midnightblue" stroke="midnightblue" points="93.5,-46.08 97,-56.08 100.5,-46.08 93.5,-46.08"/>
</g>
<!-- Node2 -->
<g id="node2" class="node">
<title>Node2</title>
<g id="a_node2"><a xlink:href="classDynExpInstr_1_1DataStreamInstrumentParams.html" target="_top" xlink:title="Parameter class for DataStreamInstrument.">
<polygon fill="white" stroke="black" points="0,-112.5 0,-142.5 194,-142.5 194,-112.5 0,-112.5"/>
<text text-anchor="start" x="8" y="-130.5" font-family="Helvetica,sans-Serif" font-size="10.00">DynExpInstr::DataStreamInstrument</text>
<text text-anchor="middle" x="97" y="-119.5" font-family="Helvetica,sans-Serif" font-size="10.00">Params</text>
</a>
</g>
</g>
<!-- Node2&#45;&gt;Node1 -->
<g id="edge1" class="edge">
<title>Node2&#45;&gt;Node1</title>
<path fill="none" stroke="midnightblue" d="M97,-102.29C97,-92.86 97,-82.65 97,-75.66"/>
<polygon fill="midnightblue" stroke="midnightblue" points="93.5,-102.4 97,-112.4 100.5,-102.4 93.5,-102.4"/>
</g>
<!-- Node3 -->
<g id="node3" class="node">
<title>Node3</title>
<g id="a_node3"><a xlink:href="classDynExp_1_1InstrumentParamsBase.html" target="_top" xlink:title="Parameter class for InstrumentBase.">
<polygon fill="white" stroke="black" points="10.5,-179.5 10.5,-198.5 183.5,-198.5 183.5,-179.5 10.5,-179.5"/>
<text text-anchor="middle" x="97" y="-186.5" font-family="Helvetica,sans-Serif" font-size="10.00">DynExp::InstrumentParamsBase</text>
</a>
</g>
</g>
<!-- Node3&#45;&gt;Node2 -->
<g id="edge2" class="edge">
<title>Node3&#45;&gt;Node2</title>
<path fill="none" stroke="midnightblue" d="M97,-169.23C97,-160.59 97,-150.5 97,-142.52"/>
<polygon fill="midnightblue" stroke="midnightblue" points="93.5,-169.48 97,-179.48 100.5,-169.48 93.5,-169.48"/>
</g>
<!-- Node4 -->
<g id="node4" class="node">
<title>Node4</title>
<g id="a_node4"><a xlink:href="classDynExp_1_1RunnableObjectParams.html" target="_top" xlink:title="Parameter class for RunnableObject.">
<polygon fill="white" stroke="black" points="10.5,-235.5 10.5,-254.5 183.5,-254.5 183.5,-235.5 10.5,-235.5"/>
<text text-anchor="middle" x="97" y="-242.5" font-family="Helvetica,sans-Serif" font-size="10.00">DynExp::RunnableObjectParams</text>
</a>
</g>
</g>
<!-- Node4&#45;&gt;Node3 -->
<g id="edge3" class="edge">
<title>Node4&#45;&gt;Node3</title>
<path fill="none" stroke="midnightblue" d="M97,-224.8C97,-215.91 97,-205.78 97,-198.75"/>
<polygon fill="midnightblue" stroke="midnightblue" points="93.5,-225.08 97,-235.08 100.5,-225.08 93.5,-225.08"/>
</g>
<!-- Node5 -->
<g id="node5" class="node">
<title>Node5</title>
<g id="a_node5"><a xlink:href="classDynExp_1_1ParamsBase.html" target="_top" xlink:title="Abstract base class for object parameter classes. Each class derived from class Object must be accomp...">
<polygon fill="white" stroke="black" points="37,-291.5 37,-310.5 157,-310.5 157,-291.5 37,-291.5"/>
<text text-anchor="middle" x="97" y="-298.5" font-family="Helvetica,sans-Serif" font-size="10.00">DynExp::ParamsBase</text>
</a>
</g>
</g>
<!-- Node5&#45;&gt;Node4 -->
<g id="edge4" class="edge">
<title>Node5&#45;&gt;Node4</title>
<path fill="none" stroke="midnightblue" d="M97,-280.8C97,-271.91 97,-261.78 97,-254.75"/>
<polygon fill="midnightblue" stroke="midnightblue" points="93.5,-281.08 97,-291.08 100.5,-281.08 93.5,-281.08"/>
</g>
<!-- Node6 -->
<g id="node6" class="node">
<title>Node6</title>
<g id="a_node6"><a xlink:href="classUtil_1_1ISynchronizedPointerLockable.html" target="_top" xlink:title="Interface to allow synchronizing the access to derived classes between different threads by making th...">
<polygon fill="white" stroke="black" points="25.5,-347.5 25.5,-377.5 168.5,-377.5 168.5,-347.5 25.5,-347.5"/>
<text text-anchor="start" x="33.5" y="-365.5" font-family="Helvetica,sans-Serif" font-size="10.00">Util::ISynchronizedPointer</text>
<text text-anchor="middle" x="97" y="-354.5" font-family="Helvetica,sans-Serif" font-size="10.00">Lockable</text>
</a>
</g>
</g>
<!-- Node6&#45;&gt;Node5 -->
<g id="edge5" class="edge">
<title>Node6&#45;&gt;Node5</title>
<path fill="none" stroke="midnightblue" d="M97,-337.29C97,-327.86 97,-317.65 97,-310.66"/>
<polygon fill="midnightblue" stroke="midnightblue" points="93.5,-337.4 97,-347.4 100.5,-337.4 93.5,-337.4"/>
</g>
<!-- Node7 -->
<g id="node7" class="node">
<title>Node7</title>
<g id="a_node7"><a xlink:href="classUtil_1_1INonCopyable.html" target="_top" xlink:title="Interface to delete copy constructor and copy assignment operator and thus make derived classes non&#45;c...">
<polygon fill="white" stroke="black" points="43,-414.5 43,-433.5 151,-433.5 151,-414.5 43,-414.5"/>
<text text-anchor="middle" x="97" y="-421.5" font-family="Helvetica,sans-Serif" font-size="10.00">Util::INonCopyable</text>
</a>
</g>
</g>
<!-- Node7&#45;&gt;Node6 -->
<g id="edge6" class="edge">
<title>Node7&#45;&gt;Node6</title>
<path fill="none" stroke="midnightblue" d="M97,-404.23C97,-395.59 97,-385.5 97,-377.52"/>
<polygon fill="midnightblue" stroke="midnightblue" points="93.5,-404.48 97,-414.48 100.5,-404.48 93.5,-404.48"/>
</g>
</g>
</svg>
