<?xml version="1.0" encoding="UTF-8" standalone="no"?>
<!DOCTYPE svg PUBLIC "-//W3C//DTD SVG 1.1//EN"
 "http://www.w3.org/Graphics/SVG/1.1/DTD/svg11.dtd">
<!-- Generated by graphviz version 2.43.0 (0)
 -->
<!-- Title: Util::Exception Pages: 1 -->
<svg width="816pt" height="877pt"
 viewBox="0.00 0.00 816.00 877.00" xmlns="http://www.w3.org/2000/svg" xmlns:xlink="http://www.w3.org/1999/xlink">
<g id="graph0" class="graph" transform="scale(1 1) rotate(0) translate(4 873)">
<title>Util::Exception</title>
<!-- Node1 -->
<g id="Node000001" class="node">
<title>Node1</title>
<g id="a_Node000001"><a xlink:title="DynExp exceptions are derived from this class. It contains basic information about the cause of the e...">
<polygon fill="#999999" stroke="#666666" points="350,-426 262,-426 262,-407 350,-407 350,-426"/>
<text text-anchor="middle" x="306" y="-414" font-family="Helvetica,sans-Serif" font-size="10.00">Util::Exception</text>
</a>
</g>
</g>
<!-- Node4 -->
<g id="Node000004" class="node">
<title>Node4</title>
<g id="a_Node000004"><a xlink:href="classDynExp_1_1SerialCommunicationException.html" target="_top" xlink:title="Defines an exception caused by a serial communication operation of a hardware adapter.">
<polygon fill="white" stroke="#666666" points="575,-856.5 410,-856.5 410,-826.5 575,-826.5 575,-856.5"/>
<text text-anchor="start" x="418" y="-844.5" font-family="Helvetica,sans-Serif" font-size="10.00">DynExp::SerialCommunication</text>
<text text-anchor="middle" x="492.5" y="-833.5" font-family="Helvetica,sans-Serif" font-size="10.00">Exception</text>
</a>
</g>
</g>
<!-- Node1&#45;&gt;Node4 -->
<g id="edge3_Node000001_Node000004" class="edge">
<title>Node1&#45;&gt;Node4</title>
<g id="a_edge3_Node000001_Node000004"><a xlink:title=" ">
<path fill="none" stroke="#63b8ff" d="M308.12,-436.39C312.66,-509.5 332.03,-761.94 386,-817.5 392.74,-824.44 401.04,-829.56 409.99,-833.31"/>
<polygon fill="#63b8ff" stroke="#63b8ff" points="311.61,-436.03 307.52,-426.26 304.62,-436.45 311.61,-436.03"/>
</a>
</g>
</g>
<!-- Node7 -->
<g id="Node000007" class="node">
<title>Node7</title>
<g id="a_Node000007"><a xlink:href="classDynExpHardware_1_1NIDAQException.html" target="_top" xlink:title=" ">
<polygon fill="white" stroke="#666666" points="586.5,-808 398.5,-808 398.5,-789 586.5,-789 586.5,-808"/>
<text text-anchor="middle" x="492.5" y="-796" font-family="Helvetica,sans-Serif" font-size="10.00">DynExpHardware::NIDAQException</text>
</a>
</g>
</g>
<!-- Node1&#45;&gt;Node7 -->
<g id="edge6_Node000001_Node000007" class="edge">
<title>Node1&#45;&gt;Node7</title>
<g id="a_edge6_Node000001_Node000007"><a xlink:title=" ">
<path fill="none" stroke="#63b8ff" d="M308.45,-436.39C313.89,-505.28 335.41,-732.13 386,-780.5 389.76,-784.1 393.96,-787.12 398.46,-789.66"/>
<polygon fill="#63b8ff" stroke="#63b8ff" points="311.91,-435.79 307.67,-426.09 304.94,-436.32 311.91,-435.79"/>
</a>
</g>
</g>
<!-- Node8 -->
<g id="Node000008" class="node">
<title>Node8</title>
<g id="a_Node000008"><a xlink:href="classDynExpHardware_1_1PVCamException.html" target="_top" xlink:title=" ">
<polygon fill="white" stroke="#666666" points="588,-771 397,-771 397,-752 588,-752 588,-771"/>
<text text-anchor="middle" x="492.5" y="-759" font-family="Helvetica,sans-Serif" font-size="10.00">DynExpHardware::PVCamException</text>
</a>
</g>
</g>
<!-- Node1&#45;&gt;Node8 -->
<g id="edge7_Node000001_Node000008" class="edge">
<title>Node1&#45;&gt;Node8</title>
<g id="a_edge7_Node000001_Node000008"><a xlink:title=" ">
<path fill="none" stroke="#63b8ff" d="M308.94,-436.02C315.67,-499.85 340.2,-700.72 386,-743.5 389.39,-746.67 393.13,-749.39 397.11,-751.73"/>
<polygon fill="#63b8ff" stroke="#63b8ff" points="312.42,-435.66 307.91,-426.07 305.45,-436.37 312.42,-435.66"/>
</a>
</g>
</g>
<!-- Node9 -->
<g id="Node000009" class="node">
<title>Node9</title>
<g id="a_Node000009"><a xlink:href="classDynExpHardware_1_1QutoolsTDCException.html" target="_top" xlink:title=" ">
<polygon fill="white" stroke="#666666" points="599,-734 386,-734 386,-715 599,-715 599,-734"/>
<text text-anchor="middle" x="492.5" y="-722" font-family="Helvetica,sans-Serif" font-size="10.00">DynExpHardware::QutoolsTDCException</text>
</a>
</g>
</g>
<!-- Node1&#45;&gt;Node9 -->
<g id="edge8_Node000001_Node000009" class="edge">
<title>Node1&#45;&gt;Node9</title>
<g id="a_edge8_Node000001_Node000009"><a xlink:title=" ">
<path fill="none" stroke="#63b8ff" d="M309.64,-436.46C317.89,-495.82 345.15,-669.43 386,-706.5 389.58,-709.75 393.52,-712.52 397.71,-714.88"/>
<polygon fill="#63b8ff" stroke="#63b8ff" points="313.06,-435.62 308.24,-426.18 306.12,-436.56 313.06,-435.62"/>
</a>
</g>
</g>
<!-- Node10 -->
<g id="Node000010" class="node">
<title>Node10</title>
<g id="a_Node000010"><a xlink:href="classDynExpHardware_1_1SmarActException.html" target="_top" xlink:title=" ">
<polygon fill="white" stroke="#666666" points="591,-697 394,-697 394,-678 591,-678 591,-697"/>
<text text-anchor="middle" x="492.5" y="-685" font-family="Helvetica,sans-Serif" font-size="10.00">DynExpHardware::SmarActException</text>
</a>
</g>
</g>
<!-- Node1&#45;&gt;Node10 -->
<g id="edge9_Node000001_Node000010" class="edge">
<title>Node1&#45;&gt;Node10</title>
<g id="a_edge9_Node000001_Node000010"><a xlink:title=" ">
<path fill="none" stroke="#63b8ff" d="M306.78,-436.34C307.4,-484.26 316.1,-606.87 386,-668.5 390.19,-672.19 394.84,-675.28 399.8,-677.85"/>
<polygon fill="#63b8ff" stroke="#63b8ff" points="310.28,-436.08 306.76,-426.09 303.28,-436.1 310.28,-436.08"/>
</a>
</g>
</g>
<!-- Node11 -->
<g id="Node000011" class="node">
<title>Node11</title>
<g id="a_Node000011"><a xlink:href="classDynExpHardware_1_1ZILabOneException.html" target="_top" xlink:title=" ">
<polygon fill="white" stroke="#666666" points="569.5,-659.5 415.5,-659.5 415.5,-629.5 569.5,-629.5 569.5,-659.5"/>
<text text-anchor="start" x="423.5" y="-647.5" font-family="Helvetica,sans-Serif" font-size="10.00">DynExpHardware::ZILabOne</text>
<text text-anchor="middle" x="492.5" y="-636.5" font-family="Helvetica,sans-Serif" font-size="10.00">Exception</text>
</a>
</g>
</g>
<!-- Node1&#45;&gt;Node11 -->
<g id="edge10_Node000001_Node000011" class="edge">
<title>Node1&#45;&gt;Node11</title>
<g id="a_edge10_Node000001_Node000011"><a xlink:title=" ">
<path fill="none" stroke="#63b8ff" d="M308.67,-436.52C313.2,-477.61 329.52,-571.71 386,-620.5 394.46,-627.81 404.68,-633.01 415.4,-636.7"/>
<polygon fill="#63b8ff" stroke="#63b8ff" points="312.13,-436.03 307.68,-426.41 305.17,-436.71 312.13,-436.03"/>
</a>
</g>
</g>
<!-- Node12 -->
<g id="Node000012" class="node">
<title>Node12</title>
<g id="a_Node000012"><a xlink:href="classDynExpHardware_1_1gRPCException.html" target="_top" xlink:title="Defines an exception caused by an operation involving the gRPC library and communication over a TCP s...">
<polygon fill="white" stroke="#666666" points="583,-611 402,-611 402,-592 583,-592 583,-611"/>
<text text-anchor="middle" x="492.5" y="-599" font-family="Helvetica,sans-Serif" font-size="10.00">DynExpHardware::gRPCException</text>
</a>
</g>
</g>
<!-- Node1&#45;&gt;Node12 -->
<g id="edge11_Node000001_Node000012" class="edge">
<title>Node1&#45;&gt;Node12</title>
<g id="a_edge11_Node000001_Node000012"><a xlink:title=" ">
<path fill="none" stroke="#63b8ff" d="M310.32,-436.51C317.37,-472.21 337.35,-546.59 386,-583.5 390.89,-587.21 396.26,-590.26 401.93,-592.76"/>
<polygon fill="#63b8ff" stroke="#63b8ff" points="313.71,-435.58 308.47,-426.37 306.82,-436.84 313.71,-435.58"/>
</a>
</g>
</g>
<!-- Node13 -->
<g id="Node000013" class="node">
<title>Node13</title>
<g id="a_Node000013"><a xlink:href="classUtil_1_1EmptyException.html" target="_top" xlink:title="Thrown when a list is expected to contain entries and when a query results in an empty answer or an e...">
<polygon fill="white" stroke="#666666" points="552,-574 433,-574 433,-555 552,-555 552,-574"/>
<text text-anchor="middle" x="492.5" y="-562" font-family="Helvetica,sans-Serif" font-size="10.00">Util::EmptyException</text>
</a>
</g>
</g>
<!-- Node1&#45;&gt;Node13 -->
<g id="edge12_Node000001_Node000013" class="edge">
<title>Node1&#45;&gt;Node13</title>
<g id="a_edge12_Node000001_Node000013"><a xlink:title=" ">
<path fill="none" stroke="#63b8ff" d="M313.06,-436.14C323.14,-465.31 346.29,-519.52 386,-546.5 399.68,-555.79 416.6,-560.8 432.85,-563.38"/>
<polygon fill="#63b8ff" stroke="#63b8ff" points="316.27,-434.71 309.83,-426.3 309.62,-436.89 316.27,-434.71"/>
</a>
</g>
</g>
<!-- Node14 -->
<g id="Node000014" class="node">
<title>Node14</title>
<g id="a_Node000014"><a xlink:href="classUtil_1_1FileIOErrorException.html" target="_top" xlink:title="Thrown when reading from or writing to a file failed.">
<polygon fill="white" stroke="#666666" points="562,-537 423,-537 423,-518 562,-518 562,-537"/>
<text text-anchor="middle" x="492.5" y="-525" font-family="Helvetica,sans-Serif" font-size="10.00">Util::FileIOErrorException</text>
</a>
</g>
</g>
<!-- Node1&#45;&gt;Node14 -->
<g id="edge13_Node000001_Node000014" class="edge">
<title>Node1&#45;&gt;Node14</title>
<g id="a_edge13_Node000001_Node000014"><a xlink:title=" ">
<path fill="none" stroke="#63b8ff" d="M317.17,-434.91C330.15,-456.53 354.71,-491.68 386,-509.5 397.22,-515.89 410.12,-520.14 422.97,-522.94"/>
<polygon fill="#63b8ff" stroke="#63b8ff" points="320.08,-432.95 312.04,-426.04 314.02,-436.45 320.08,-432.95"/>
</a>
</g>
</g>
<!-- Node15 -->
<g id="Node000015" class="node">
<title>Node15</title>
<g id="a_Node000015"><a xlink:href="classUtil_1_1ForwardedException.html" target="_top" xlink:title="Class to forward an Exception instance from one DynExp::Object instance to another DynExp::Object ins...">
<polygon fill="white" stroke="#666666" points="562,-500 423,-500 423,-481 562,-481 562,-500"/>
<text text-anchor="middle" x="492.5" y="-488" font-family="Helvetica,sans-Serif" font-size="10.00">Util::ForwardedException</text>
</a>
</g>
</g>
<!-- Node1&#45;&gt;Node15 -->
<g id="edge14_Node000001_Node000015" class="edge">
<title>Node1&#45;&gt;Node15</title>
<g id="a_edge14_Node000001_Node000015"><a xlink:title=" ">
<path fill="none" stroke="#63b8ff" d="M325.65,-432.99C340.85,-445.51 363.42,-462.13 386,-471.5 397.52,-476.28 410.23,-479.86 422.73,-482.53"/>
<polygon fill="#63b8ff" stroke="#63b8ff" points="327.5,-429.97 317.61,-426.17 322.97,-435.31 327.5,-429.97"/>
</a>
</g>
</g>
<!-- Node16 -->
<g id="Node000016" class="node">
<title>Node16</title>
<g id="a_Node000016"><a xlink:href="classUtil_1_1InvalidArgException.html" target="_top" xlink:title="An invalid argument like a null pointer has been passed to a function.">
<polygon fill="white" stroke="#666666" points="561,-463 424,-463 424,-444 561,-444 561,-463"/>
<text text-anchor="middle" x="492.5" y="-451" font-family="Helvetica,sans-Serif" font-size="10.00">Util::InvalidArgException</text>
</a>
</g>
</g>
<!-- Node1&#45;&gt;Node16 -->
<g id="edge15_Node000001_Node000016" class="edge">
<title>Node1&#45;&gt;Node16</title>
<g id="a_edge15_Node000001_Node000016"><a xlink:title=" ">
<path fill="none" stroke="#63b8ff" d="M356.96,-428.25C366.58,-430.41 376.59,-432.58 386,-434.5 402.14,-437.79 419.73,-441.08 435.83,-443.97"/>
<polygon fill="#63b8ff" stroke="#63b8ff" points="357.64,-424.81 347.11,-426.01 356.09,-431.64 357.64,-424.81"/>
</a>
</g>
</g>
<!-- Node17 -->
<g id="Node000017" class="node">
<title>Node17</title>
<g id="a_Node000017"><a xlink:href="classUtil_1_1InvalidCallException.html" target="_top" xlink:title="Thrown when a function call is not allowed to a specific thread in a multi&#45;threading context.">
<polygon fill="white" stroke="#666666" points="562.5,-426 422.5,-426 422.5,-407 562.5,-407 562.5,-426"/>
<text text-anchor="middle" x="492.5" y="-414" font-family="Helvetica,sans-Serif" font-size="10.00">Util::InvalidCallException</text>
</a>
</g>
</g>
<!-- Node1&#45;&gt;Node17 -->
<g id="edge16_Node000001_Node000017" class="edge">
<title>Node1&#45;&gt;Node17</title>
<g id="a_edge16_Node000001_Node000017"><a xlink:title=" ">
<path fill="none" stroke="#63b8ff" d="M360.36,-416.5C379.65,-416.5 401.71,-416.5 422.17,-416.5"/>
<polygon fill="#63b8ff" stroke="#63b8ff" points="360.26,-413 350.26,-416.5 360.26,-420 360.26,-413"/>
</a>
</g>
</g>
<!-- Node18 -->
<g id="Node000018" class="node">
<title>Node18</title>
<g id="a_Node000018"><a xlink:href="classUtil_1_1InvalidDataException.html" target="_top" xlink:title="Data to operate on is invalid for a specific purpose. This indicates a corrupted data structure or fu...">
<polygon fill="white" stroke="#666666" points="564.5,-389 420.5,-389 420.5,-370 564.5,-370 564.5,-389"/>
<text text-anchor="middle" x="492.5" y="-377" font-family="Helvetica,sans-Serif" font-size="10.00">Util::InvalidDataException</text>
</a>
</g>
</g>
<!-- Node1&#45;&gt;Node18 -->
<g id="edge17_Node000001_Node000018" class="edge">
<title>Node1&#45;&gt;Node18</title>
<g id="a_edge17_Node000001_Node000018"><a xlink:title=" ">
<path fill="none" stroke="#63b8ff" d="M354.08,-404.63C364.56,-402.14 375.63,-399.63 386,-397.5 400.65,-394.49 416.52,-391.6 431.39,-389.04"/>
<polygon fill="#63b8ff" stroke="#63b8ff" points="353.16,-401.25 344.26,-407 354.8,-408.06 353.16,-401.25"/>
</a>
</g>
</g>
<!-- Node19 -->
<g id="Node000019" class="node">
<title>Node19</title>
<g id="a_Node000019"><a xlink:href="classUtil_1_1InvalidStateException.html" target="_top" xlink:title="An operation cannot be performed currently since the related object is in an invalid state like an er...">
<polygon fill="white" stroke="#666666" points="565.5,-352 419.5,-352 419.5,-333 565.5,-333 565.5,-352"/>
<text text-anchor="middle" x="492.5" y="-340" font-family="Helvetica,sans-Serif" font-size="10.00">Util::InvalidStateException</text>
</a>
</g>
</g>
<!-- Node1&#45;&gt;Node19 -->
<g id="edge18_Node000001_Node000019" class="edge">
<title>Node1&#45;&gt;Node19</title>
<g id="a_edge18_Node000001_Node000019"><a xlink:title=" ">
<path fill="none" stroke="#63b8ff" d="M324.89,-400.22C340.05,-387.37 362.94,-370.06 386,-360.5 396.47,-356.16 407.94,-352.87 419.34,-350.37"/>
<polygon fill="#63b8ff" stroke="#63b8ff" points="322.55,-397.62 317.31,-406.83 327.15,-402.9 322.55,-397.62"/>
</a>
</g>
</g>
<!-- Node22 -->
<g id="Node000022" class="node">
<title>Node22</title>
<g id="a_Node000022"><a xlink:href="classUtil_1_1NotAvailableException.html" target="_top" xlink:title="Thrown when some operation or feature is temporarily or permanently not available.">
<polygon fill="white" stroke="#666666" points="567.5,-315 417.5,-315 417.5,-296 567.5,-296 567.5,-315"/>
<text text-anchor="middle" x="492.5" y="-303" font-family="Helvetica,sans-Serif" font-size="10.00">Util::NotAvailableException</text>
</a>
</g>
</g>
<!-- Node1&#45;&gt;Node22 -->
<g id="edge21_Node000001_Node000022" class="edge">
<title>Node1&#45;&gt;Node22</title>
<g id="a_edge21_Node000001_Node000022"><a xlink:title=" ">
<path fill="none" stroke="#63b8ff" d="M317.17,-398.09C330.15,-376.47 354.71,-341.32 386,-323.5 395.61,-318.03 406.45,-314.13 417.43,-311.36"/>
<polygon fill="#63b8ff" stroke="#63b8ff" points="314.02,-396.55 312.04,-406.96 320.08,-400.05 314.02,-396.55"/>
</a>
</g>
</g>
<!-- Node23 -->
<g id="Node000023" class="node">
<title>Node23</title>
<g id="a_Node000023"><a xlink:href="classUtil_1_1NotFoundException.html" target="_top" xlink:title="Thrown when a requested ressource does not exist.">
<polygon fill="white" stroke="#666666" points="559.5,-278 425.5,-278 425.5,-259 559.5,-259 559.5,-278"/>
<text text-anchor="middle" x="492.5" y="-266" font-family="Helvetica,sans-Serif" font-size="10.00">Util::NotFoundException</text>
</a>
</g>
</g>
<!-- Node1&#45;&gt;Node23 -->
<g id="edge22_Node000001_Node000023" class="edge">
<title>Node1&#45;&gt;Node23</title>
<g id="a_edge22_Node000001_Node000023"><a xlink:title=" ">
<path fill="none" stroke="#63b8ff" d="M313.06,-396.86C323.14,-367.69 346.29,-313.48 386,-286.5 397.6,-278.62 411.54,-273.82 425.42,-270.97"/>
<polygon fill="#63b8ff" stroke="#63b8ff" points="309.62,-396.11 309.83,-406.7 316.27,-398.29 309.62,-396.11"/>
</a>
</g>
</g>
<!-- Node24 -->
<g id="Node000024" class="node">
<title>Node24</title>
<g id="a_Node000024"><a xlink:href="classUtil_1_1NotImplementedException.html" target="_top" xlink:title="Thrown when a requested feature is either under development and thus not implemented yet or when a sp...">
<polygon fill="white" stroke="#666666" points="577.5,-241 407.5,-241 407.5,-222 577.5,-222 577.5,-241"/>
<text text-anchor="middle" x="492.5" y="-229" font-family="Helvetica,sans-Serif" font-size="10.00">Util::NotImplementedException</text>
</a>
</g>
</g>
<!-- Node1&#45;&gt;Node24 -->
<g id="edge23_Node000001_Node000024" class="edge">
<title>Node1&#45;&gt;Node24</title>
<g id="a_edge23_Node000001_Node000024"><a xlink:title=" ">
<path fill="none" stroke="#63b8ff" d="M310.32,-396.49C317.37,-360.79 337.35,-286.41 386,-249.5 392.44,-244.62 399.74,-240.87 407.41,-238.02"/>
<polygon fill="#63b8ff" stroke="#63b8ff" points="306.82,-396.16 308.47,-406.63 313.71,-397.42 306.82,-396.16"/>
</a>
</g>
</g>
<!-- Node25 -->
<g id="Node000025" class="node">
<title>Node25</title>
<g id="a_Node000025"><a xlink:href="classUtil_1_1OutOfRangeException.html" target="_top" xlink:title="Thrown when an argument passed to a function exceeds the valid range.">
<polygon fill="white" stroke="#666666" points="566,-204 419,-204 419,-185 566,-185 566,-204"/>
<text text-anchor="middle" x="492.5" y="-192" font-family="Helvetica,sans-Serif" font-size="10.00">Util::OutOfRangeException</text>
</a>
</g>
</g>
<!-- Node1&#45;&gt;Node25 -->
<g id="edge24_Node000001_Node000025" class="edge">
<title>Node1&#45;&gt;Node25</title>
<g id="a_edge24_Node000001_Node000025"><a xlink:title=" ">
<path fill="none" stroke="#63b8ff" d="M308.4,-396.81C312.44,-355.55 327.94,-259.95 386,-212.5 395.42,-204.8 406.93,-199.86 418.84,-196.77"/>
<polygon fill="#63b8ff" stroke="#63b8ff" points="304.9,-396.66 307.53,-406.92 311.87,-397.25 304.9,-396.66"/>
</a>
</g>
</g>
<!-- Node26 -->
<g id="Node000026" class="node">
<title>Node26</title>
<g id="a_Node000026"><a xlink:href="classUtil_1_1OverflowException.html" target="_top" xlink:title="Thrown when a numeric operation would result in an overflow (e.g. due to incompatible data types)">
<polygon fill="white" stroke="#666666" points="558,-167 427,-167 427,-148 558,-148 558,-167"/>
<text text-anchor="middle" x="492.5" y="-155" font-family="Helvetica,sans-Serif" font-size="10.00">Util::OverflowException</text>
</a>
</g>
</g>
<!-- Node1&#45;&gt;Node26 -->
<g id="edge25_Node000001_Node000026" class="edge">
<title>Node1&#45;&gt;Node26</title>
<g id="a_edge25_Node000001_Node000026"><a xlink:title=" ">
<path fill="none" stroke="#63b8ff" d="M307.07,-396.53C308.41,-349.93 318.67,-233.55 386,-175.5 397.4,-165.67 412.15,-160.26 426.98,-157.46"/>
<polygon fill="#63b8ff" stroke="#63b8ff" points="303.57,-396.74 306.9,-406.8 310.57,-396.86 303.57,-396.74"/>
</a>
</g>
</g>
<!-- Node27 -->
<g id="Node000027" class="node">
<title>Node27</title>
<g id="a_Node000027"><a xlink:href="classUtil_1_1ServiceFailedException.html" target="_top" xlink:title="Denotes that e.g. a remote gRPC service failed.">
<polygon fill="white" stroke="#666666" points="568.5,-130 416.5,-130 416.5,-111 568.5,-111 568.5,-130"/>
<text text-anchor="middle" x="492.5" y="-118" font-family="Helvetica,sans-Serif" font-size="10.00">Util::ServiceFailedException</text>
</a>
</g>
</g>
<!-- Node1&#45;&gt;Node27 -->
<g id="edge26_Node000001_Node000027" class="edge">
<title>Node1&#45;&gt;Node27</title>
<g id="a_edge26_Node000001_Node000027"><a xlink:title=" ">
<path fill="none" stroke="#63b8ff" d="M309.82,-396.98C318.5,-339.69 346.62,-173.85 386,-138.5 394.57,-130.81 405.18,-125.78 416.34,-122.59"/>
<polygon fill="#63b8ff" stroke="#63b8ff" points="306.35,-396.51 308.35,-406.92 313.28,-397.54 306.35,-396.51"/>
</a>
</g>
</g>
<!-- Node28 -->
<g id="Node000028" class="node">
<title>Node28</title>
<g id="a_Node000028"><a xlink:href="classUtil_1_1TimeoutException.html" target="_top" xlink:title="Thrown when an operation timed out before it could be completed, especially used for locking shared d...">
<polygon fill="white" stroke="#666666" points="556.5,-93 428.5,-93 428.5,-74 556.5,-74 556.5,-93"/>
<text text-anchor="middle" x="492.5" y="-81" font-family="Helvetica,sans-Serif" font-size="10.00">Util::TimeoutException</text>
</a>
</g>
</g>
<!-- Node1&#45;&gt;Node28 -->
<g id="edge27_Node000001_Node000028" class="edge">
<title>Node1&#45;&gt;Node28</title>
<g id="a_edge27_Node000001_Node000028"><a xlink:title=" ">
<path fill="none" stroke="#63b8ff" d="M309.14,-396.89C316.34,-334.53 341.8,-142.43 386,-101.5 397.52,-90.83 412.93,-85.25 428.41,-82.55"/>
<polygon fill="#63b8ff" stroke="#63b8ff" points="305.64,-396.63 308,-406.96 312.6,-397.42 305.64,-396.63"/>
</a>
</g>
</g>
<!-- Node30 -->
<g id="Node000030" class="node">
<title>Node30</title>
<g id="a_Node000030"><a xlink:href="classUtil_1_1TypeErrorException.html" target="_top" xlink:title="Thrown when an attempt was made to convert two incompatible types into each other.">
<polygon fill="white" stroke="#666666" points="559.5,-56 425.5,-56 425.5,-37 559.5,-37 559.5,-56"/>
<text text-anchor="middle" x="492.5" y="-44" font-family="Helvetica,sans-Serif" font-size="10.00">Util::TypeErrorException</text>
</a>
</g>
</g>
<!-- Node1&#45;&gt;Node30 -->
<g id="edge29_Node000001_Node000030" class="edge">
<title>Node1&#45;&gt;Node30</title>
<g id="a_edge29_Node000001_Node000030"><a xlink:title=" ">
<path fill="none" stroke="#63b8ff" d="M308.59,-396.82C314.43,-329.66 336.95,-111.08 386,-64.5 396.71,-54.33 410.95,-48.74 425.48,-45.87"/>
<polygon fill="#63b8ff" stroke="#63b8ff" points="305.09,-396.63 307.74,-406.89 312.07,-397.22 305.09,-396.63"/>
</a>
</g>
</g>
<!-- Node31 -->
<g id="Node000031" class="node">
<title>Node31</title>
<g id="a_Node000031"><a xlink:href="classUtil_1_1UnderflowException.html" target="_top" xlink:title="Thrown when a numeric operation would result in an underflow (e.g. due to incompatible data types)">
<polygon fill="white" stroke="#666666" points="561,-19 424,-19 424,0 561,0 561,-19"/>
<text text-anchor="middle" x="492.5" y="-7" font-family="Helvetica,sans-Serif" font-size="10.00">Util::UnderflowException</text>
</a>
</g>
</g>
<!-- Node1&#45;&gt;Node31 -->
<g id="edge30_Node000001_Node000031" class="edge">
<title>Node1&#45;&gt;Node31</title>
<g id="a_edge30_Node000001_Node000031"><a xlink:title=" ">
<path fill="none" stroke="#63b8ff" d="M308.15,-396.66C312.72,-324.82 332.09,-79.74 386,-27.5 396.27,-17.54 409.91,-11.95 423.96,-8.99"/>
<polygon fill="#63b8ff" stroke="#63b8ff" points="304.63,-396.79 307.52,-406.98 311.62,-397.22 304.63,-396.79"/>
</a>
</g>
</g>
<!-- Node2 -->
<g id="Node000002" class="node">
<title>Node2</title>
<g id="a_Node000002"><a xlink:title=" ">
<polygon fill="white" stroke="#666666" points="226,-426 122,-426 122,-407 226,-407 226,-426"/>
<text text-anchor="middle" x="174" y="-414" font-family="Helvetica,sans-Serif" font-size="10.00">std::runtime_error</text>
</a>
</g>
</g>
<!-- Node2&#45;&gt;Node1 -->
<g id="edge1_Node000001_Node000002" class="edge">
<title>Node2&#45;&gt;Node1</title>
<g id="a_edge1_Node000001_Node000002"><a xlink:title=" ">
<path fill="none" stroke="#63b8ff" d="M236.09,-416.5C244.74,-416.5 253.49,-416.5 261.71,-416.5"/>
<polygon fill="#63b8ff" stroke="#63b8ff" points="236.01,-413 226.01,-416.5 236.01,-420 236.01,-413"/>
</a>
</g>
</g>
<!-- Node3 -->
<g id="Node000003" class="node">
<title>Node3</title>
<g id="a_Node000003"><a xlink:title=" ">
<polygon fill="white" stroke="#666666" points="86,-426 0,-426 0,-407 86,-407 86,-426"/>
<text text-anchor="middle" x="43" y="-414" font-family="Helvetica,sans-Serif" font-size="10.00">std::exception</text>
</a>
</g>
</g>
<!-- Node3&#45;&gt;Node2 -->
<g id="edge2_Node000002_Node000003" class="edge">
<title>Node3&#45;&gt;Node2</title>
<g id="a_edge2_Node000002_Node000003"><a xlink:title=" ">
<path fill="none" stroke="#63b8ff" d="M96.27,-416.5C104.65,-416.5 113.31,-416.5 121.66,-416.5"/>
<polygon fill="#63b8ff" stroke="#63b8ff" points="96.24,-413 86.24,-416.5 96.24,-420 96.24,-413"/>
</a>
</g>
</g>
<!-- Node5 -->
<g id="Node000005" class="node">
<title>Node5</title>
<g id="a_Node000005"><a xlink:href="classDynExp_1_1NetworkException.html" target="_top" xlink:title="Defines an exception caused by a hardware operation on an ethernet interface (e.g....">
<polygon fill="white" stroke="#666666" points="796,-869 647,-869 647,-850 796,-850 796,-869"/>
<text text-anchor="middle" x="721.5" y="-857" font-family="Helvetica,sans-Serif" font-size="10.00">DynExp::NetworkException</text>
</a>
</g>
</g>
<!-- Node4&#45;&gt;Node5 -->
<g id="edge4_Node000004_Node000005" class="edge">
<title>Node4&#45;&gt;Node5</title>
<g id="a_edge4_Node000004_Node000005"><a xlink:title=" ">
<path fill="none" stroke="#63b8ff" d="M585.1,-848.76C605.6,-850.39 627.09,-852.09 646.76,-853.65"/>
<polygon fill="#63b8ff" stroke="#63b8ff" points="585.38,-845.27 575.13,-847.97 584.82,-852.25 585.38,-845.27"/>
</a>
</g>
</g>
<!-- Node6 -->
<g id="Node000006" class="node">
<title>Node6</title>
<g id="a_Node000006"><a xlink:href="classDynExp_1_1SerialPortException.html" target="_top" xlink:title="Defines an exception caused by a hardware operation on a COM port (e.g. reading/writing data to a COM...">
<polygon fill="white" stroke="#666666" points="799,-832 644,-832 644,-813 799,-813 799,-832"/>
<text text-anchor="middle" x="721.5" y="-820" font-family="Helvetica,sans-Serif" font-size="10.00">DynExp::SerialPortException</text>
</a>
</g>
</g>
<!-- Node4&#45;&gt;Node6 -->
<g id="edge5_Node000004_Node000006" class="edge">
<title>Node4&#45;&gt;Node6</title>
<g id="a_edge5_Node000004_Node000006"><a xlink:title=" ">
<path fill="none" stroke="#63b8ff" d="M585.2,-833.82C604.63,-832.2 624.95,-830.5 643.76,-828.92"/>
<polygon fill="#63b8ff" stroke="#63b8ff" points="584.8,-830.35 575.13,-834.67 585.39,-837.32 584.8,-830.35"/>
</a>
</g>
</g>
<!-- Node20 -->
<g id="Node000020" class="node">
<title>Node20</title>
<g id="a_Node000020"><a xlink:href="classUtil_1_1InvalidObjectLinkException.html" target="_top" xlink:title="Thrown when RunnableInstance cannot lock an object to be used by another object due to an invalid lin...">
<polygon fill="white" stroke="#666666" points="808,-373 635,-373 635,-354 808,-354 808,-373"/>
<text text-anchor="middle" x="721.5" y="-361" font-family="Helvetica,sans-Serif" font-size="10.00">Util::InvalidObjectLinkException</text>
</a>
</g>
</g>
<!-- Node19&#45;&gt;Node20 -->
<g id="edge19_Node000019_Node000020" class="edge">
<title>Node19&#45;&gt;Node20</title>
<g id="a_edge19_Node000019_Node000020"><a xlink:title=" ">
<path fill="none" stroke="#63b8ff" d="M575.82,-350.12C594.95,-351.89 615.37,-353.77 634.66,-355.56"/>
<polygon fill="#63b8ff" stroke="#63b8ff" points="575.92,-346.61 565.64,-349.17 575.27,-353.58 575.92,-346.61"/>
</a>
</g>
</g>
<!-- Node21 -->
<g id="Node000021" class="node">
<title>Node21</title>
<g id="a_Node000021"><a xlink:href="classUtil_1_1LinkedObjectNotLockedException.html" target="_top" xlink:title="Thrown when RunnableInstance::LockObject() has not been called on an object link parameter to establi...">
<polygon fill="white" stroke="#666666" points="798.5,-335.5 644.5,-335.5 644.5,-305.5 798.5,-305.5 798.5,-335.5"/>
<text text-anchor="start" x="652.5" y="-323.5" font-family="Helvetica,sans-Serif" font-size="10.00">Util::LinkedObjectNotLocked</text>
<text text-anchor="middle" x="721.5" y="-312.5" font-family="Helvetica,sans-Serif" font-size="10.00">Exception</text>
</a>
</g>
</g>
<!-- Node19&#45;&gt;Node21 -->
<g id="edge20_Node000019_Node000021" class="edge">
<title>Node19&#45;&gt;Node21</title>
<g id="a_edge20_Node000019_Node000021"><a xlink:title=" ">
<path fill="none" stroke="#63b8ff" d="M575.77,-334.53C598.13,-332.36 622.23,-330.02 644.24,-327.89"/>
<polygon fill="#63b8ff" stroke="#63b8ff" points="575.25,-331.06 565.64,-335.51 575.93,-338.03 575.25,-331.06"/>
</a>
</g>
</g>
<!-- Node29 -->
<g id="Node000029" class="node">
<title>Node29</title>
<g id="a_Node000029"><a xlink:href="classUtil_1_1ThreadDidNotRespondException.html" target="_top" xlink:title="Thrown in a multi&#45;threading context when an answer is expected from another thread an when the commun...">
<polygon fill="white" stroke="#666666" points="796,-98.5 647,-98.5 647,-68.5 796,-68.5 796,-98.5"/>
<text text-anchor="start" x="655" y="-86.5" font-family="Helvetica,sans-Serif" font-size="10.00">Util::ThreadDidNotRespond</text>
<text text-anchor="middle" x="721.5" y="-75.5" font-family="Helvetica,sans-Serif" font-size="10.00">Exception</text>
</a>
</g>
</g>
<!-- Node28&#45;&gt;Node29 -->
<g id="edge28_Node000028_Node000029" class="edge">
<title>Node28&#45;&gt;Node29</title>
<g id="a_edge28_Node000028_Node000029"><a xlink:title=" ">
<path fill="none" stroke="#63b8ff" d="M566.75,-83.5C592.36,-83.5 621.12,-83.5 646.77,-83.5"/>
<polygon fill="#63b8ff" stroke="#63b8ff" points="566.73,-80 556.73,-83.5 566.73,-87 566.73,-80"/>
</a>
</g>
</g>
</g>
</svg>
