<?xml version="1.0" encoding="UTF-8" standalone="no"?>
<!DOCTYPE svg PUBLIC "-//W3C//DTD SVG 1.1//EN"
 "http://www.w3.org/Graphics/SVG/1.1/DTD/svg11.dtd">
<!-- Generated by graphviz version 2.43.0 (0)
 -->
<!-- Title: DynExpHardware::PVCamHardwareAdapter::PVCamInitializer Pages: 1 -->
<svg width="198pt" height="151pt"
 viewBox="0.00 0.00 198.00 151.00" xmlns="http://www.w3.org/2000/svg" xmlns:xlink="http://www.w3.org/1999/xlink">
<g id="graph0" class="graph" transform="scale(1 1) rotate(0) translate(4 147)">
<title>DynExpHardware::PVCamHardwareAdapter::PVCamInitializer</title>
<polygon fill="white" stroke="transparent" points="-4,4 -4,-147 194,-147 194,4 -4,4"/>
<!-- Node1 -->
<g id="node1" class="node">
<title>Node1</title>
<g id="a_node1"><a xlink:title="Only one instance of this class is allowed for synchronizing calls to the PVCam library from any PVCa...">
<polygon fill="#bfbfbf" stroke="black" points="0,-0.5 0,-30.5 190,-30.5 190,-0.5 0,-0.5"/>
<text text-anchor="start" x="8" y="-18.5" font-family="Helvetica,sans-Serif" font-size="10.00">DynExpHardware::PVCamHardware</text>
<text text-anchor="middle" x="95" y="-7.5" font-family="Helvetica,sans-Serif" font-size="10.00">Adapter::PVCamInitializer</text>
</a>
</g>
</g>
<!-- Node2 -->
<g id="node2" class="node">
<title>Node2</title>
<g id="a_node2"><a xlink:href="classUtil_1_1ILockable.html" target="_top" xlink:title="Interface to allow synchronizing the access to derived classes between different threads by providing...">
<polygon fill="white" stroke="black" points="52,-67.5 52,-86.5 138,-86.5 138,-67.5 52,-67.5"/>
<text text-anchor="middle" x="95" y="-74.5" font-family="Helvetica,sans-Serif" font-size="10.00">Util::ILockable</text>
</a>
</g>
</g>
<!-- Node2&#45;&gt;Node1 -->
<g id="edge1" class="edge">
<title>Node2&#45;&gt;Node1</title>
<path fill="none" stroke="midnightblue" d="M95,-57.23C95,-48.59 95,-38.5 95,-30.52"/>
<polygon fill="midnightblue" stroke="midnightblue" points="91.5,-57.48 95,-67.48 98.5,-57.48 91.5,-57.48"/>
</g>
<!-- Node3 -->
<g id="node3" class="node">
<title>Node3</title>
<g id="a_node3"><a xlink:href="classUtil_1_1INonCopyable.html" target="_top" xlink:title="Interface to delete copy constructor and copy assignment operator and thus make derived classes non&#45;c...">
<polygon fill="white" stroke="black" points="41,-123.5 41,-142.5 149,-142.5 149,-123.5 41,-123.5"/>
<text text-anchor="middle" x="95" y="-130.5" font-family="Helvetica,sans-Serif" font-size="10.00">Util::INonCopyable</text>
</a>
</g>
</g>
<!-- Node3&#45;&gt;Node2 -->
<g id="edge2" class="edge">
<title>Node3&#45;&gt;Node2</title>
<path fill="none" stroke="midnightblue" d="M95,-112.8C95,-103.91 95,-93.78 95,-86.75"/>
<polygon fill="midnightblue" stroke="midnightblue" points="91.5,-113.08 95,-123.08 98.5,-113.08 91.5,-113.08"/>
</g>
</g>
</svg>
