<?xml version="1.0" encoding="UTF-8" standalone="no"?>
<!DOCTYPE svg PUBLIC "-//W3C//DTD SVG 1.1//EN"
 "http://www.w3.org/Graphics/SVG/1.1/DTD/svg11.dtd">
<!-- Generated by graphviz version 2.43.0 (0)
 -->
<!-- Title: DynExp::ParamsBase::Param&lt; ParamType, std::enable_if_t&lt; std::is_base_of_v&lt; TextList, ParamType &gt; &gt; &gt; Pages: 1 -->
<svg width="169pt" height="195pt"
 viewBox="0.00 0.00 169.00 195.00" xmlns="http://www.w3.org/2000/svg" xmlns:xlink="http://www.w3.org/1999/xlink">
<g id="graph0" class="graph" transform="scale(1 1) rotate(0) translate(4 191)">
<title>DynExp::ParamsBase::Param&lt; ParamType, std::enable_if_t&lt; std::is_base_of_v&lt; TextList, ParamType &gt; &gt; &gt;</title>
<polygon fill="white" stroke="transparent" points="-4,4 -4,-191 165,-191 165,4 -4,4"/>
<!-- Node1 -->
<g id="node1" class="node">
<title>Node1</title>
<g id="a_node1"><a xlink:title="Parameter for strings selected from a predefined list of strings. If ParamType is of type ParamsBase:...">
<polygon fill="#bfbfbf" stroke="black" points="12,-0.5 12,-63.5 149,-63.5 149,-0.5 12,-0.5"/>
<text text-anchor="start" x="20" y="-51.5" font-family="Helvetica,sans-Serif" font-size="10.00">DynExp::ParamsBase</text>
<text text-anchor="start" x="20" y="-40.5" font-family="Helvetica,sans-Serif" font-size="10.00">::Param&lt; ParamType,</text>
<text text-anchor="start" x="20" y="-29.5" font-family="Helvetica,sans-Serif" font-size="10.00"> std::enable_if_t&lt; std</text>
<text text-anchor="start" x="20" y="-18.5" font-family="Helvetica,sans-Serif" font-size="10.00">::is_base_of_v&lt; TextList,</text>
<text text-anchor="middle" x="80.5" y="-7.5" font-family="Helvetica,sans-Serif" font-size="10.00"> ParamType &gt; &gt; &gt;</text>
</a>
</g>
</g>
<!-- Node2 -->
<g id="node2" class="node">
<title>Node2</title>
<g id="a_node2"><a xlink:href="classDynExp_1_1ParamsBase_1_1TypedParamBase.html" target="_top" xlink:title="Base class of parameters containing a single value.">
<polygon fill="white" stroke="black" points="0,-100.5 0,-119.5 161,-119.5 161,-100.5 0,-100.5"/>
<text text-anchor="middle" x="80.5" y="-107.5" font-family="Helvetica,sans-Serif" font-size="10.00">UnderlyingTextListParamType</text>
</a>
</g>
</g>
<!-- Node2&#45;&gt;Node1 -->
<g id="edge1" class="edge">
<title>Node2&#45;&gt;Node1</title>
<path fill="none" stroke="midnightblue" d="M80.5,-90.19C80.5,-82.16 80.5,-72.59 80.5,-63.59"/>
<polygon fill="midnightblue" stroke="midnightblue" points="77,-90.28 80.5,-100.28 84,-90.28 77,-90.28"/>
</g>
<!-- Node3 -->
<g id="node3" class="node">
<title>Node3</title>
<g id="a_node3"><a xlink:href="classDynExp_1_1ParamsBase_1_1ParamBase.html" target="_top" xlink:title="Abstract base class for a single object parameter. Parameters derived from this class are automatical...">
<polygon fill="white" stroke="black" points="20.5,-156.5 20.5,-186.5 140.5,-186.5 140.5,-156.5 20.5,-156.5"/>
<text text-anchor="start" x="28.5" y="-174.5" font-family="Helvetica,sans-Serif" font-size="10.00">DynExp::ParamsBase</text>
<text text-anchor="middle" x="80.5" y="-163.5" font-family="Helvetica,sans-Serif" font-size="10.00">::ParamBase</text>
</a>
</g>
</g>
<!-- Node3&#45;&gt;Node2 -->
<g id="edge2" class="edge">
<title>Node3&#45;&gt;Node2</title>
<path fill="none" stroke="midnightblue" d="M80.5,-146.29C80.5,-136.86 80.5,-126.65 80.5,-119.66"/>
<polygon fill="midnightblue" stroke="midnightblue" points="77,-146.4 80.5,-156.4 84,-146.4 77,-146.4"/>
</g>
</g>
</svg>
