<?xml version="1.0" encoding="UTF-8" standalone="no"?>
<!DOCTYPE svg PUBLIC "-//W3C//DTD SVG 1.1//EN"
 "http://www.w3.org/Graphics/SVG/1.1/DTD/svg11.dtd">
<!-- Generated by graphviz version 2.43.0 (0)
 -->
<!-- Title: DynExpModule::ODMR::ODMRData Pages: 1 -->
<svg width="159pt" height="274pt"
 viewBox="0.00 0.00 159.00 274.00" xmlns="http://www.w3.org/2000/svg" xmlns:xlink="http://www.w3.org/1999/xlink">
<g id="graph0" class="graph" transform="scale(1 1) rotate(0) translate(4 270)">
<title>DynExpModule::ODMR::ODMRData</title>
<polygon fill="white" stroke="transparent" points="-4,4 -4,-270 155,-270 155,4 -4,4"/>
<!-- Node1 -->
<g id="node1" class="node">
<title>Node1</title>
<g id="a_node1"><a xlink:title=" ">
<polygon fill="#bfbfbf" stroke="black" points="12,-0.5 12,-30.5 139,-30.5 139,-0.5 12,-0.5"/>
<text text-anchor="start" x="20" y="-18.5" font-family="Helvetica,sans-Serif" font-size="10.00">DynExpModule::ODMR</text>
<text text-anchor="middle" x="75.5" y="-7.5" font-family="Helvetica,sans-Serif" font-size="10.00">::ODMRData</text>
</a>
</g>
</g>
<!-- Node2 -->
<g id="node2" class="node">
<title>Node2</title>
<g id="a_node2"><a xlink:href="classDynExp_1_1QModuleDataBase.html" target="_top" xlink:title="Data class for QModuleBase.">
<polygon fill="white" stroke="black" points="0,-67.5 0,-86.5 151,-86.5 151,-67.5 0,-67.5"/>
<text text-anchor="middle" x="75.5" y="-74.5" font-family="Helvetica,sans-Serif" font-size="10.00">DynExp::QModuleDataBase</text>
</a>
</g>
</g>
<!-- Node2&#45;&gt;Node1 -->
<g id="edge1" class="edge">
<title>Node2&#45;&gt;Node1</title>
<path fill="none" stroke="midnightblue" d="M75.5,-57.23C75.5,-48.59 75.5,-38.5 75.5,-30.52"/>
<polygon fill="midnightblue" stroke="midnightblue" points="72,-57.48 75.5,-67.48 79,-57.48 72,-57.48"/>
</g>
<!-- Node3 -->
<g id="node3" class="node">
<title>Node3</title>
<g id="a_node3"><a xlink:href="classDynExp_1_1ModuleDataBase.html" target="_top" xlink:title="Data structure to contain data which is synchronized in between different threads....">
<polygon fill="white" stroke="black" points="4,-123.5 4,-142.5 147,-142.5 147,-123.5 4,-123.5"/>
<text text-anchor="middle" x="75.5" y="-130.5" font-family="Helvetica,sans-Serif" font-size="10.00">DynExp::ModuleDataBase</text>
</a>
</g>
</g>
<!-- Node3&#45;&gt;Node2 -->
<g id="edge2" class="edge">
<title>Node3&#45;&gt;Node2</title>
<path fill="none" stroke="midnightblue" d="M75.5,-112.8C75.5,-103.91 75.5,-93.78 75.5,-86.75"/>
<polygon fill="midnightblue" stroke="midnightblue" points="72,-113.08 75.5,-123.08 79,-113.08 72,-113.08"/>
</g>
<!-- Node4 -->
<g id="node4" class="node">
<title>Node4</title>
<g id="a_node4"><a xlink:href="classUtil_1_1ISynchronizedPointerLockable.html" target="_top" xlink:title="Interface to allow synchronizing the access to derived classes between different threads by making th...">
<polygon fill="white" stroke="black" points="4,-179.5 4,-209.5 147,-209.5 147,-179.5 4,-179.5"/>
<text text-anchor="start" x="12" y="-197.5" font-family="Helvetica,sans-Serif" font-size="10.00">Util::ISynchronizedPointer</text>
<text text-anchor="middle" x="75.5" y="-186.5" font-family="Helvetica,sans-Serif" font-size="10.00">Lockable</text>
</a>
</g>
</g>
<!-- Node4&#45;&gt;Node3 -->
<g id="edge3" class="edge">
<title>Node4&#45;&gt;Node3</title>
<path fill="none" stroke="midnightblue" d="M75.5,-169.29C75.5,-159.86 75.5,-149.65 75.5,-142.66"/>
<polygon fill="midnightblue" stroke="midnightblue" points="72,-169.4 75.5,-179.4 79,-169.4 72,-169.4"/>
</g>
<!-- Node5 -->
<g id="node5" class="node">
<title>Node5</title>
<g id="a_node5"><a xlink:href="classUtil_1_1INonCopyable.html" target="_top" xlink:title="Interface to delete copy constructor and copy assignment operator and thus make derived classes non&#45;c...">
<polygon fill="white" stroke="black" points="21.5,-246.5 21.5,-265.5 129.5,-265.5 129.5,-246.5 21.5,-246.5"/>
<text text-anchor="middle" x="75.5" y="-253.5" font-family="Helvetica,sans-Serif" font-size="10.00">Util::INonCopyable</text>
</a>
</g>
</g>
<!-- Node5&#45;&gt;Node4 -->
<g id="edge4" class="edge">
<title>Node5&#45;&gt;Node4</title>
<path fill="none" stroke="midnightblue" d="M75.5,-236.23C75.5,-227.59 75.5,-217.5 75.5,-209.52"/>
<polygon fill="midnightblue" stroke="midnightblue" points="72,-236.48 75.5,-246.48 79,-236.48 72,-236.48"/>
</g>
</g>
</svg>
