<?xml version="1.0" encoding="UTF-8" standalone="no"?>
<!DOCTYPE svg PUBLIC "-//W3C//DTD SVG 1.1//EN"
 "http://www.w3.org/Graphics/SVG/1.1/DTD/svg11.dtd">
<!-- Generated by graphviz version 2.43.0 (0)
 -->
<!-- Title: DynExp::QModuleBase Pages: 1 -->
<svg width="821pt" height="466pt"
 viewBox="0.00 0.00 821.00 466.00" xmlns="http://www.w3.org/2000/svg" xmlns:xlink="http://www.w3.org/1999/xlink">
<g id="graph0" class="graph" transform="scale(1 1) rotate(0) translate(4 462)">
<title>DynExp::QModuleBase</title>
<!-- Node1 -->
<g id="Node000001" class="node">
<title>Node1</title>
<g id="a_Node000001"><a xlink:title="Base class for modules with a Qt&#45;based user interface. Derive from this class to implement modules wi...">
<polygon fill="#999999" stroke="#666666" points="601,-227.5 473,-227.5 473,-208.5 601,-208.5 601,-227.5"/>
<text text-anchor="middle" x="537" y="-215.5" font-family="Helvetica,sans-Serif" font-size="10.00">DynExp::QModuleBase</text>
</a>
</g>
</g>
<!-- Node6 -->
<g id="Node000006" class="node">
<title>Node6</title>
<g id="a_Node000006"><a xlink:href="classDynExpModule_1_1ImageViewer_1_1ImageViewer.html" target="_top" xlink:title=" ">
<polygon fill="white" stroke="#666666" points="805.5,-458 644.5,-458 644.5,-428 805.5,-428 805.5,-458"/>
<text text-anchor="start" x="652.5" y="-446" font-family="Helvetica,sans-Serif" font-size="10.00">DynExpModule::ImageViewer</text>
<text text-anchor="middle" x="725" y="-435" font-family="Helvetica,sans-Serif" font-size="10.00">::ImageViewer</text>
</a>
</g>
</g>
<!-- Node1&#45;&gt;Node6 -->
<g id="edge5_Node000001_Node000006" class="edge">
<title>Node1&#45;&gt;Node6</title>
<g id="a_edge5_Node000001_Node000006"><a xlink:title=" ">
<path fill="none" stroke="#63b8ff" d="M542.01,-237.62C551.29,-277.91 578.1,-370.27 637,-419 641.1,-422.4 645.65,-425.31 650.46,-427.82"/>
<polygon fill="#63b8ff" stroke="#63b8ff" points="545.4,-236.74 539.85,-227.71 538.56,-238.23 545.4,-236.74"/>
</a>
</g>
</g>
<!-- Node7 -->
<g id="Node000007" class="node">
<title>Node7</title>
<g id="a_Node000007"><a xlink:href="classDynExpModule_1_1InputPortReader.html" target="_top" xlink:title=" ">
<polygon fill="white" stroke="#666666" points="812.5,-409.5 637.5,-409.5 637.5,-390.5 812.5,-390.5 812.5,-409.5"/>
<text text-anchor="middle" x="725" y="-397.5" font-family="Helvetica,sans-Serif" font-size="10.00">DynExpModule::InputPortReader</text>
</a>
</g>
</g>
<!-- Node1&#45;&gt;Node7 -->
<g id="edge6_Node000001_Node000007" class="edge">
<title>Node1&#45;&gt;Node7</title>
<g id="a_edge6_Node000001_Node000007"><a xlink:title=" ">
<path fill="none" stroke="#63b8ff" d="M544.06,-237.41C555.94,-272.07 585.69,-344.37 637,-381 642.41,-384.86 648.46,-387.96 654.78,-390.45"/>
<polygon fill="#63b8ff" stroke="#63b8ff" points="547.28,-235.98 540.83,-227.58 540.63,-238.17 547.28,-235.98"/>
</a>
</g>
</g>
<!-- Node8 -->
<g id="Node000008" class="node">
<title>Node8</title>
<g id="a_Node000008"><a xlink:href="classDynExpModule_1_1LockinAmplifierControl.html" target="_top" xlink:title=" ">
<polygon fill="white" stroke="#666666" points="811,-372 639,-372 639,-342 811,-342 811,-372"/>
<text text-anchor="start" x="647" y="-360" font-family="Helvetica,sans-Serif" font-size="10.00">DynExpModule::LockinAmplifier</text>
<text text-anchor="middle" x="725" y="-349" font-family="Helvetica,sans-Serif" font-size="10.00">Control</text>
</a>
</g>
</g>
<!-- Node1&#45;&gt;Node8 -->
<g id="edge7_Node000001_Node000008" class="edge">
<title>Node1&#45;&gt;Node8</title>
<g id="a_edge7_Node000001_Node000008"><a xlink:title=" ">
<path fill="none" stroke="#63b8ff" d="M548.88,-236.43C564.91,-261.99 597.33,-307.88 637,-333 642.43,-336.44 648.35,-339.39 654.46,-341.92"/>
<polygon fill="#63b8ff" stroke="#63b8ff" points="551.75,-234.43 543.55,-227.72 545.78,-238.08 551.75,-234.43"/>
</a>
</g>
</g>
<!-- Node9 -->
<g id="Node000009" class="node">
<title>Node9</title>
<g id="a_Node000009"><a xlink:href="classDynExpModule_1_1ODMR_1_1ODMR.html" target="_top" xlink:title=" ">
<polygon fill="white" stroke="#666666" points="788.5,-324 661.5,-324 661.5,-294 788.5,-294 788.5,-324"/>
<text text-anchor="start" x="669.5" y="-312" font-family="Helvetica,sans-Serif" font-size="10.00">DynExpModule::ODMR</text>
<text text-anchor="middle" x="725" y="-301" font-family="Helvetica,sans-Serif" font-size="10.00">::ODMR</text>
</a>
</g>
</g>
<!-- Node1&#45;&gt;Node9 -->
<g id="edge8_Node000001_Node000009" class="edge">
<title>Node1&#45;&gt;Node9</title>
<g id="a_edge8_Node000001_Node000009"><a xlink:title=" ">
<path fill="none" stroke="#63b8ff" d="M557.39,-233.95C576.56,-249.01 607.26,-271.28 637,-285 644.68,-288.54 653,-291.66 661.33,-294.37"/>
<polygon fill="#63b8ff" stroke="#63b8ff" points="559.43,-231.1 549.44,-227.59 555.06,-236.57 559.43,-231.1"/>
</a>
</g>
</g>
<!-- Node10 -->
<g id="Node000010" class="node">
<title>Node10</title>
<g id="a_Node000010"><a xlink:href="classDynExpModule_1_1OutputPortWriter.html" target="_top" xlink:title=" ">
<polygon fill="white" stroke="#666666" points="799.5,-276 650.5,-276 650.5,-246 799.5,-246 799.5,-276"/>
<text text-anchor="start" x="658.5" y="-264" font-family="Helvetica,sans-Serif" font-size="10.00">DynExpModule::OutputPort</text>
<text text-anchor="middle" x="725" y="-253" font-family="Helvetica,sans-Serif" font-size="10.00">Writer</text>
</a>
</g>
</g>
<!-- Node1&#45;&gt;Node10 -->
<g id="edge9_Node000001_Node000010" class="edge">
<title>Node1&#45;&gt;Node10</title>
<g id="a_edge9_Node000001_Node000010"><a xlink:title=" ">
<path fill="none" stroke="#63b8ff" d="M589.23,-229.84C610.82,-234.84 636.21,-240.7 659.09,-245.99"/>
<polygon fill="#63b8ff" stroke="#63b8ff" points="589.81,-226.39 579.28,-227.54 588.23,-233.21 589.81,-226.39"/>
</a>
</g>
</g>
<!-- Node11 -->
<g id="Node000011" class="node">
<title>Node11</title>
<g id="a_Node000011"><a xlink:href="classDynExpModule_1_1SignalDesigner.html" target="_top" xlink:title=" ">
<polygon fill="white" stroke="#666666" points="810,-227.5 640,-227.5 640,-208.5 810,-208.5 810,-227.5"/>
<text text-anchor="middle" x="725" y="-215.5" font-family="Helvetica,sans-Serif" font-size="10.00">DynExpModule::SignalDesigner</text>
</a>
</g>
</g>
<!-- Node1&#45;&gt;Node11 -->
<g id="edge10_Node000001_Node000011" class="edge">
<title>Node1&#45;&gt;Node11</title>
<g id="a_edge10_Node000001_Node000011"><a xlink:title=" ">
<path fill="none" stroke="#63b8ff" d="M611.28,-218C620.66,-218 630.33,-218 639.87,-218"/>
<polygon fill="#63b8ff" stroke="#63b8ff" points="611.23,-214.5 601.23,-218 611.23,-221.5 611.23,-214.5"/>
</a>
</g>
</g>
<!-- Node12 -->
<g id="Node000012" class="node">
<title>Node12</title>
<g id="a_Node000012"><a xlink:href="classDynExpModule_1_1SignalPlotter.html" target="_top" xlink:title=" ">
<polygon fill="white" stroke="#666666" points="804,-190.5 646,-190.5 646,-171.5 804,-171.5 804,-190.5"/>
<text text-anchor="middle" x="725" y="-178.5" font-family="Helvetica,sans-Serif" font-size="10.00">DynExpModule::SignalPlotter</text>
</a>
</g>
</g>
<!-- Node1&#45;&gt;Node12 -->
<g id="edge11_Node000001_Node000012" class="edge">
<title>Node1&#45;&gt;Node12</title>
<g id="a_edge11_Node000001_Node000012"><a xlink:title=" ">
<path fill="none" stroke="#63b8ff" d="M595.89,-206.48C621.6,-201.37 651.49,-195.42 675.94,-190.56"/>
<polygon fill="#63b8ff" stroke="#63b8ff" points="595.02,-203.09 585.9,-208.47 596.39,-209.95 595.02,-203.09"/>
</a>
</g>
</g>
<!-- Node13 -->
<g id="Node000013" class="node">
<title>Node13</title>
<g id="a_Node000013"><a xlink:href="classDynExpModule_1_1SpectrumViewer_1_1SpectrumViewer.html" target="_top" xlink:title=" ">
<polygon fill="white" stroke="#666666" points="813,-153 637,-153 637,-123 813,-123 813,-153"/>
<text text-anchor="start" x="645" y="-141" font-family="Helvetica,sans-Serif" font-size="10.00">DynExpModule::SpectrumViewer</text>
<text text-anchor="middle" x="725" y="-130" font-family="Helvetica,sans-Serif" font-size="10.00">::SpectrumViewer</text>
</a>
</g>
</g>
<!-- Node1&#45;&gt;Node13 -->
<g id="edge12_Node000001_Node000013" class="edge">
<title>Node1&#45;&gt;Node13</title>
<g id="a_edge12_Node000001_Node000013"><a xlink:title=" ">
<path fill="none" stroke="#63b8ff" d="M560.7,-203.02C580.26,-190.65 609.59,-173.33 637,-162 644.96,-158.71 653.52,-155.72 662.05,-153.06"/>
<polygon fill="#63b8ff" stroke="#63b8ff" points="558.72,-200.14 552.19,-208.48 562.5,-206.03 558.72,-200.14"/>
</a>
</g>
</g>
<!-- Node14 -->
<g id="Node000014" class="node">
<title>Node14</title>
<g id="a_Node000014"><a xlink:href="classDynExpModule_1_1Stage1D.html" target="_top" xlink:title=" ">
<polygon fill="white" stroke="#666666" points="793.5,-104.5 656.5,-104.5 656.5,-85.5 793.5,-85.5 793.5,-104.5"/>
<text text-anchor="middle" x="725" y="-92.5" font-family="Helvetica,sans-Serif" font-size="10.00">DynExpModule::Stage1D</text>
</a>
</g>
</g>
<!-- Node1&#45;&gt;Node14 -->
<g id="edge13_Node000001_Node000014" class="edge">
<title>Node1&#45;&gt;Node14</title>
<g id="a_edge13_Node000001_Node000014"><a xlink:title=" ">
<path fill="none" stroke="#63b8ff" d="M549.85,-200.05C566.43,-176.45 598.83,-135.48 637,-114 643.87,-110.13 651.46,-107.05 659.2,-104.6"/>
<polygon fill="#63b8ff" stroke="#63b8ff" points="546.87,-198.22 544.11,-208.45 552.64,-202.17 546.87,-198.22"/>
</a>
</g>
</g>
<!-- Node15 -->
<g id="Node000015" class="node">
<title>Node15</title>
<g id="a_Node000015"><a xlink:href="classDynExpModule_1_1Trajectory1D.html" target="_top" xlink:title=" ">
<polygon fill="white" stroke="#666666" points="804,-67.5 646,-67.5 646,-48.5 804,-48.5 804,-67.5"/>
<text text-anchor="middle" x="725" y="-55.5" font-family="Helvetica,sans-Serif" font-size="10.00">DynExpModule::Trajectory1D</text>
</a>
</g>
</g>
<!-- Node1&#45;&gt;Node15 -->
<g id="edge14_Node000001_Node000015" class="edge">
<title>Node1&#45;&gt;Node15</title>
<g id="a_edge14_Node000001_Node000015"><a xlink:title=" ">
<path fill="none" stroke="#63b8ff" d="M545.7,-198.85C559.23,-167.77 590.34,-106.77 637,-76 642.15,-72.6 647.82,-69.83 653.71,-67.56"/>
<polygon fill="#63b8ff" stroke="#63b8ff" points="542.43,-197.57 541.78,-208.15 548.89,-200.29 542.43,-197.57"/>
</a>
</g>
</g>
<!-- Node16 -->
<g id="Node000016" class="node">
<title>Node16</title>
<g id="a_Node000016"><a xlink:href="classDynExpModule_1_1Widefield_1_1WidefieldMicroscope.html" target="_top" xlink:title=" ">
<polygon fill="white" stroke="#666666" points="796,-30 654,-30 654,0 796,0 796,-30"/>
<text text-anchor="start" x="662" y="-18" font-family="Helvetica,sans-Serif" font-size="10.00">DynExpModule::Widefield</text>
<text text-anchor="middle" x="725" y="-7" font-family="Helvetica,sans-Serif" font-size="10.00">::WidefieldMicroscope</text>
</a>
</g>
</g>
<!-- Node1&#45;&gt;Node16 -->
<g id="edge15_Node000001_Node000016" class="edge">
<title>Node1&#45;&gt;Node16</title>
<g id="a_edge15_Node000001_Node000016"><a xlink:title=" ">
<path fill="none" stroke="#63b8ff" d="M543.41,-198.02C554.5,-160.89 583.41,-81.23 637,-39 642.05,-35.02 647.71,-31.71 653.66,-28.94"/>
<polygon fill="#63b8ff" stroke="#63b8ff" points="539.91,-197.51 540.53,-208.08 546.64,-199.43 539.91,-197.51"/>
</a>
</g>
</g>
<!-- Node2 -->
<g id="Node000002" class="node">
<title>Node2</title>
<g id="a_Node000002"><a xlink:href="classDynExp_1_1ModuleBase.html" target="_top" xlink:title="Base class for modules. Modules implement programs on their own (e.g. measurement protocols or server...">
<polygon fill="white" stroke="#666666" points="437,-227.5 317,-227.5 317,-208.5 437,-208.5 437,-227.5"/>
<text text-anchor="middle" x="377" y="-215.5" font-family="Helvetica,sans-Serif" font-size="10.00">DynExp::ModuleBase</text>
</a>
</g>
</g>
<!-- Node2&#45;&gt;Node1 -->
<g id="edge1_Node000001_Node000002" class="edge">
<title>Node2&#45;&gt;Node1</title>
<g id="a_edge1_Node000001_Node000002"><a xlink:title=" ">
<path fill="none" stroke="#63b8ff" d="M447.51,-218C455.97,-218 464.59,-218 472.95,-218"/>
<polygon fill="#63b8ff" stroke="#63b8ff" points="447.28,-214.5 437.28,-218 447.28,-221.5 447.28,-214.5"/>
</a>
</g>
</g>
<!-- Node3 -->
<g id="Node000003" class="node">
<title>Node3</title>
<g id="a_Node000003"><a xlink:href="classDynExp_1_1RunnableObject.html" target="_top" xlink:title="Defines an Object which possesses a thread it runs in. The RunnableObject can be started and stopped ...">
<polygon fill="white" stroke="#666666" points="281,-227.5 144,-227.5 144,-208.5 281,-208.5 281,-227.5"/>
<text text-anchor="middle" x="212.5" y="-215.5" font-family="Helvetica,sans-Serif" font-size="10.00">DynExp::RunnableObject</text>
</a>
</g>
</g>
<!-- Node3&#45;&gt;Node2 -->
<g id="edge2_Node000002_Node000003" class="edge">
<title>Node3&#45;&gt;Node2</title>
<g id="a_edge2_Node000002_Node000003"><a xlink:title=" ">
<path fill="none" stroke="#63b8ff" d="M291.16,-218C299.85,-218 308.59,-218 316.99,-218"/>
<polygon fill="#63b8ff" stroke="#63b8ff" points="291,-214.5 281,-218 291,-221.5 291,-214.5"/>
</a>
</g>
</g>
<!-- Node4 -->
<g id="Node000004" class="node">
<title>Node4</title>
<g id="a_Node000004"><a xlink:href="classUtil_1_1INonCopyable.html" target="_top" xlink:title="Interface to delete copy constructor and copy assignment operator and thus make derived classes non&#45;c...">
<polygon fill="white" stroke="#666666" points="108,-246.5 0,-246.5 0,-227.5 108,-227.5 108,-246.5"/>
<text text-anchor="middle" x="54" y="-234.5" font-family="Helvetica,sans-Serif" font-size="10.00">Util::INonCopyable</text>
</a>
</g>
</g>
<!-- Node4&#45;&gt;Node3 -->
<g id="edge3_Node000003_Node000004" class="edge">
<title>Node4&#45;&gt;Node3</title>
<g id="a_edge3_Node000003_Node000004"><a xlink:title=" ">
<path fill="none" stroke="#63b8ff" d="M118.5,-229.29C126.87,-228.27 135.49,-227.23 143.93,-226.2"/>
<polygon fill="#63b8ff" stroke="#63b8ff" points="117.93,-225.83 108.42,-230.51 118.77,-232.78 117.93,-225.83"/>
</a>
</g>
</g>
<!-- Node5 -->
<g id="Node000005" class="node">
<title>Node5</title>
<g id="a_Node000005"><a xlink:href="classDynExp_1_1Object.html" target="_top" xlink:title="Base class for all DynExp Objects like hardware adapters (DynExp::HardwareAdapterBase),...">
<polygon fill="white" stroke="#666666" points="100,-209.5 8,-209.5 8,-190.5 100,-190.5 100,-209.5"/>
<text text-anchor="middle" x="54" y="-197.5" font-family="Helvetica,sans-Serif" font-size="10.00">DynExp::Object</text>
</a>
</g>
</g>
<!-- Node5&#45;&gt;Node3 -->
<g id="edge4_Node000003_Node000005" class="edge">
<title>Node5&#45;&gt;Node3</title>
<g id="a_edge4_Node000003_Node000005"><a xlink:title=" ">
<path fill="none" stroke="#63b8ff" d="M110.43,-206.38C121.26,-207.62 132.74,-208.94 143.91,-210.23"/>
<polygon fill="#63b8ff" stroke="#63b8ff" points="110.6,-202.87 100.27,-205.21 109.8,-209.83 110.6,-202.87"/>
</a>
</g>
</g>
</g>
</svg>
