<?xml version="1.0" encoding="UTF-8" standalone="no"?>
<!DOCTYPE svg PUBLIC "-//W3C//DTD SVG 1.1//EN"
 "http://www.w3.org/Graphics/SVG/1.1/DTD/svg11.dtd">
<!-- Generated by graphviz version 2.43.0 (0)
 -->
<!-- Title: DynExpInstr::WidefieldLocalization Pages: 1 -->
<svg width="925pt" height="66pt"
 viewBox="0.00 0.00 925.00 66.00" xmlns="http://www.w3.org/2000/svg" xmlns:xlink="http://www.w3.org/1999/xlink">
<g id="graph0" class="graph" transform="scale(1 1) rotate(0) translate(4 62)">
<title>DynExpInstr::WidefieldLocalization</title>
<polygon fill="white" stroke="transparent" points="-4,4 -4,-62 921,-62 921,4 -4,4"/>
<!-- Node1 -->
<g id="node1" class="node">
<title>Node1</title>
<g id="a_node1"><a xlink:title=" ">
<polygon fill="#bfbfbf" stroke="black" points="731,-19.5 731,-38.5 917,-38.5 917,-19.5 731,-19.5"/>
<text text-anchor="middle" x="824" y="-26.5" font-family="Helvetica,sans-Serif" font-size="10.00">DynExpInstr::WidefieldLocalization</text>
</a>
</g>
</g>
<!-- Node2 -->
<g id="node2" class="node">
<title>Node2</title>
<g id="a_node2"><a xlink:href="classDynExpInstr_1_1gRPCInstrument.html" target="_top" xlink:title=" ">
<polygon fill="white" stroke="black" points="490,-3 490,-55 695,-55 695,-3 490,-3"/>
<text text-anchor="start" x="498" y="-43" font-family="Helvetica,sans-Serif" font-size="10.00">DynExpInstr::gRPCInstrument</text>
<text text-anchor="start" x="498" y="-32" font-family="Helvetica,sans-Serif" font-size="10.00">&lt; DynExp::InstrumentBase,</text>
<text text-anchor="start" x="498" y="-21" font-family="Helvetica,sans-Serif" font-size="10.00"> 0, DynExpProto::WidefieldLocalization</text>
<text text-anchor="middle" x="592.5" y="-10" font-family="Helvetica,sans-Serif" font-size="10.00">::WidefieldLocalization &gt;</text>
</a>
</g>
</g>
<!-- Node2&#45;&gt;Node1 -->
<g id="edge1" class="edge">
<title>Node2&#45;&gt;Node1</title>
<path fill="none" stroke="midnightblue" d="M705.21,-29C713.79,-29 722.39,-29 730.82,-29"/>
<polygon fill="midnightblue" stroke="midnightblue" points="705.16,-25.5 695.16,-29 705.16,-32.5 705.16,-25.5"/>
</g>
<!-- Node3 -->
<g id="node3" class="node">
<title>Node3</title>
<g id="a_node3"><a xlink:href="classDynExp_1_1InstrumentBase.html" target="_top" xlink:title="Base class for instruments. Instruments comprise virtual devices (meta instruments) and physial devic...">
<polygon fill="white" stroke="black" points="317,-19.5 317,-38.5 454,-38.5 454,-19.5 317,-19.5"/>
<text text-anchor="middle" x="385.5" y="-26.5" font-family="Helvetica,sans-Serif" font-size="10.00">DynExp::InstrumentBase</text>
</a>
</g>
</g>
<!-- Node3&#45;&gt;Node2 -->
<g id="edge2" class="edge">
<title>Node3&#45;&gt;Node2</title>
<path fill="none" stroke="midnightblue" d="M464.25,-29C472.61,-29 481.2,-29 489.78,-29"/>
<polygon fill="midnightblue" stroke="midnightblue" points="464.19,-25.5 454.19,-29 464.19,-32.5 464.19,-25.5"/>
</g>
<!-- Node4 -->
<g id="node4" class="node">
<title>Node4</title>
<g id="a_node4"><a xlink:href="classDynExp_1_1RunnableObject.html" target="_top" xlink:title="Defines an Object which possesses a thread it runs in. The RunnableObject can be started and stopped ...">
<polygon fill="white" stroke="black" points="144,-19.5 144,-38.5 281,-38.5 281,-19.5 144,-19.5"/>
<text text-anchor="middle" x="212.5" y="-26.5" font-family="Helvetica,sans-Serif" font-size="10.00">DynExp::RunnableObject</text>
</a>
</g>
</g>
<!-- Node4&#45;&gt;Node3 -->
<g id="edge3" class="edge">
<title>Node4&#45;&gt;Node3</title>
<path fill="none" stroke="midnightblue" d="M291.1,-29C299.69,-29 308.39,-29 316.85,-29"/>
<polygon fill="midnightblue" stroke="midnightblue" points="291.08,-25.5 281.08,-29 291.08,-32.5 291.08,-25.5"/>
</g>
<!-- Node5 -->
<g id="node5" class="node">
<title>Node5</title>
<g id="a_node5"><a xlink:href="classUtil_1_1INonCopyable.html" target="_top" xlink:title="Interface to delete copy constructor and copy assignment operator and thus make derived classes non&#45;c...">
<polygon fill="white" stroke="black" points="0,-38.5 0,-57.5 108,-57.5 108,-38.5 0,-38.5"/>
<text text-anchor="middle" x="54" y="-45.5" font-family="Helvetica,sans-Serif" font-size="10.00">Util::INonCopyable</text>
</a>
</g>
</g>
<!-- Node5&#45;&gt;Node4 -->
<g id="edge4" class="edge">
<title>Node5&#45;&gt;Node4</title>
<path fill="none" stroke="midnightblue" d="M118.5,-40.29C126.87,-39.27 135.49,-38.23 143.93,-37.2"/>
<polygon fill="midnightblue" stroke="midnightblue" points="117.93,-36.83 108.42,-41.51 118.77,-43.78 117.93,-36.83"/>
</g>
<!-- Node6 -->
<g id="node6" class="node">
<title>Node6</title>
<g id="a_node6"><a xlink:href="classDynExp_1_1Object.html" target="_top" xlink:title="Base class for all DynExp Objects like hardware adapters (DynExp::HardwareAdapterBase),...">
<polygon fill="white" stroke="black" points="8,-0.5 8,-19.5 100,-19.5 100,-0.5 8,-0.5"/>
<text text-anchor="middle" x="54" y="-7.5" font-family="Helvetica,sans-Serif" font-size="10.00">DynExp::Object</text>
</a>
</g>
</g>
<!-- Node6&#45;&gt;Node4 -->
<g id="edge5" class="edge">
<title>Node6&#45;&gt;Node4</title>
<path fill="none" stroke="midnightblue" d="M110.43,-16.73C121.26,-18.04 132.74,-19.44 143.91,-20.79"/>
<polygon fill="midnightblue" stroke="midnightblue" points="110.62,-13.23 100.27,-15.5 109.77,-20.18 110.62,-13.23"/>
</g>
</g>
</svg>
