<?xml version="1.0" encoding="UTF-8" standalone="no"?>
<!DOCTYPE svg PUBLIC "-//W3C//DTD SVG 1.1//EN"
 "http://www.w3.org/Graphics/SVG/1.1/DTD/svg11.dtd">
<!-- Generated by graphviz version 2.43.0 (0)
 -->
<!-- Title: Util::InvalidStateException Pages: 1 -->
<svg width="354pt" height="263pt"
 viewBox="0.00 0.00 353.50 263.00" xmlns="http://www.w3.org/2000/svg" xmlns:xlink="http://www.w3.org/1999/xlink">
<g id="graph0" class="graph" transform="scale(1 1) rotate(0) translate(4 259)">
<title>Util::InvalidStateException</title>
<polygon fill="white" stroke="transparent" points="-4,4 -4,-259 349.5,-259 349.5,4 -4,4"/>
<!-- Node1 -->
<g id="node1" class="node">
<title>Node1</title>
<g id="a_node1"><a xlink:title="An operation cannot be performed currently since the related object is in an invalid state like an er...">
<polygon fill="#bfbfbf" stroke="black" points="104.5,-67.5 104.5,-86.5 250.5,-86.5 250.5,-67.5 104.5,-67.5"/>
<text text-anchor="middle" x="177.5" y="-74.5" font-family="Helvetica,sans-Serif" font-size="10.00">Util::InvalidStateException</text>
</a>
</g>
</g>
<!-- Node5 -->
<g id="node5" class="node">
<title>Node5</title>
<g id="a_node5"><a xlink:href="classUtil_1_1InvalidObjectLinkException.html" target="_top" xlink:title="Thrown when RunnableInstance cannot lock an object to be used by another object due to an invalid lin...">
<polygon fill="white" stroke="black" points="0,-6 0,-25 173,-25 173,-6 0,-6"/>
<text text-anchor="middle" x="86.5" y="-13" font-family="Helvetica,sans-Serif" font-size="10.00">Util::InvalidObjectLinkException</text>
</a>
</g>
</g>
<!-- Node1&#45;&gt;Node5 -->
<g id="edge4" class="edge">
<title>Node1&#45;&gt;Node5</title>
<path fill="none" stroke="midnightblue" d="M155.98,-61.93C138.44,-50.46 114.23,-34.63 99.51,-25.01"/>
<polygon fill="midnightblue" stroke="midnightblue" points="154.18,-64.93 164.46,-67.48 158.01,-59.07 154.18,-64.93"/>
</g>
<!-- Node6 -->
<g id="node6" class="node">
<title>Node6</title>
<g id="a_node6"><a xlink:href="classUtil_1_1LinkedObjectNotLockedException.html" target="_top" xlink:title="Thrown when RunnableInstance::LockObject() has not been called on an object link parameter to establi...">
<polygon fill="white" stroke="black" points="191.5,-0.5 191.5,-30.5 345.5,-30.5 345.5,-0.5 191.5,-0.5"/>
<text text-anchor="start" x="199.5" y="-18.5" font-family="Helvetica,sans-Serif" font-size="10.00">Util::LinkedObjectNotLocked</text>
<text text-anchor="middle" x="268.5" y="-7.5" font-family="Helvetica,sans-Serif" font-size="10.00">Exception</text>
</a>
</g>
</g>
<!-- Node1&#45;&gt;Node6 -->
<g id="edge5" class="edge">
<title>Node1&#45;&gt;Node6</title>
<path fill="none" stroke="midnightblue" d="M199.31,-61.74C213.77,-52.28 232.67,-39.93 247.05,-30.52"/>
<polygon fill="midnightblue" stroke="midnightblue" points="196.99,-59.07 190.54,-67.48 200.82,-64.93 196.99,-59.07"/>
</g>
<!-- Node2 -->
<g id="node2" class="node">
<title>Node2</title>
<g id="a_node2"><a xlink:href="classUtil_1_1Exception.html" target="_top" xlink:title="DynExp exceptions are derived from this class. It contains basic information about the cause of the e...">
<polygon fill="white" stroke="black" points="133.5,-123.5 133.5,-142.5 221.5,-142.5 221.5,-123.5 133.5,-123.5"/>
<text text-anchor="middle" x="177.5" y="-130.5" font-family="Helvetica,sans-Serif" font-size="10.00">Util::Exception</text>
</a>
</g>
</g>
<!-- Node2&#45;&gt;Node1 -->
<g id="edge1" class="edge">
<title>Node2&#45;&gt;Node1</title>
<path fill="none" stroke="midnightblue" d="M177.5,-112.8C177.5,-103.91 177.5,-93.78 177.5,-86.75"/>
<polygon fill="midnightblue" stroke="midnightblue" points="174,-113.08 177.5,-123.08 181,-113.08 174,-113.08"/>
</g>
<!-- Node3 -->
<g id="node3" class="node">
<title>Node3</title>
<g id="a_node3"><a xlink:title=" ">
<polygon fill="white" stroke="#bfbfbf" points="125.5,-179.5 125.5,-198.5 229.5,-198.5 229.5,-179.5 125.5,-179.5"/>
<text text-anchor="middle" x="177.5" y="-186.5" font-family="Helvetica,sans-Serif" font-size="10.00">std::runtime_error</text>
</a>
</g>
</g>
<!-- Node3&#45;&gt;Node2 -->
<g id="edge2" class="edge">
<title>Node3&#45;&gt;Node2</title>
<path fill="none" stroke="midnightblue" d="M177.5,-168.8C177.5,-159.91 177.5,-149.78 177.5,-142.75"/>
<polygon fill="midnightblue" stroke="midnightblue" points="174,-169.08 177.5,-179.08 181,-169.08 174,-169.08"/>
</g>
<!-- Node4 -->
<g id="node4" class="node">
<title>Node4</title>
<g id="a_node4"><a xlink:title=" ">
<polygon fill="white" stroke="#bfbfbf" points="134.5,-235.5 134.5,-254.5 220.5,-254.5 220.5,-235.5 134.5,-235.5"/>
<text text-anchor="middle" x="177.5" y="-242.5" font-family="Helvetica,sans-Serif" font-size="10.00">std::exception</text>
</a>
</g>
</g>
<!-- Node4&#45;&gt;Node3 -->
<g id="edge3" class="edge">
<title>Node4&#45;&gt;Node3</title>
<path fill="none" stroke="midnightblue" d="M177.5,-224.8C177.5,-215.91 177.5,-205.78 177.5,-198.75"/>
<polygon fill="midnightblue" stroke="midnightblue" points="174,-225.08 177.5,-235.08 181,-225.08 174,-225.08"/>
</g>
</g>
</svg>
