<?xml version="1.0" encoding="UTF-8" standalone="no"?>
<!DOCTYPE svg PUBLIC "-//W3C//DTD SVG 1.1//EN"
 "http://www.w3.org/Graphics/SVG/1.1/DTD/svg11.dtd">
<!-- Generated by graphviz version 2.43.0 (0)
 -->
<!-- Title: DynExp::ModuleBase Pages: 1 -->
<svg width="1142pt" height="785pt"
 viewBox="0.00 0.00 1142.00 785.00" xmlns="http://www.w3.org/2000/svg" xmlns:xlink="http://www.w3.org/1999/xlink">
<g id="graph0" class="graph" transform="scale(1 1) rotate(0) translate(4 781)">
<title>DynExp::ModuleBase</title>
<!-- Node1 -->
<g id="Node000001" class="node">
<title>Node1</title>
<g id="a_Node000001"><a xlink:title="Base class for modules. Modules implement programs on their own (e.g. measurement protocols or server...">
<polygon fill="#999999" stroke="#666666" points="437,-261.5 317,-261.5 317,-242.5 437,-242.5 437,-261.5"/>
<text text-anchor="middle" x="377" y="-249.5" font-family="Helvetica,sans-Serif" font-size="10.00">DynExp::ModuleBase</text>
</a>
</g>
</g>
<!-- Node5 -->
<g id="Node000005" class="node">
<title>Node5</title>
<g id="a_Node000005"><a xlink:href="classDynExpModule_1_1gRPCModule.html" target="_top" xlink:title=" ">
<polygon fill="white" stroke="#666666" points="647,-594 489,-594 489,-564 647,-564 647,-594"/>
<text text-anchor="start" x="497" y="-582" font-family="Helvetica,sans-Serif" font-size="10.00">DynExpModule::gRPCModule</text>
<text text-anchor="middle" x="568" y="-571" font-family="Helvetica,sans-Serif" font-size="10.00">&lt; gRPCServices... &gt;</text>
</a>
</g>
</g>
<!-- Node1&#45;&gt;Node5 -->
<g id="edge4_Node000001_Node000005" class="edge">
<title>Node1&#45;&gt;Node5</title>
<g id="a_edge4_Node000001_Node000005"><a xlink:title=" ">
<path fill="none" stroke="#63b8ff" d="M388.83,-270.74C422.9,-329.68 527.4,-510.48 558.3,-563.95"/>
<polygon fill="#63b8ff" stroke="#63b8ff" points="391.69,-268.69 383.66,-261.79 385.63,-272.2 391.69,-268.69"/>
</a>
</g>
</g>
<!-- Node13 -->
<g id="Node000013" class="node">
<title>Node13</title>
<g id="a_Node000013"><a xlink:href="classDynExp_1_1QModuleBase.html" target="_top" xlink:title="Base class for modules with a Qt&#45;based user interface. Derive from this class to implement modules wi...">
<polygon fill="white" stroke="#666666" points="632,-304.5 504,-304.5 504,-285.5 632,-285.5 632,-304.5"/>
<text text-anchor="middle" x="568" y="-292.5" font-family="Helvetica,sans-Serif" font-size="10.00">DynExp::QModuleBase</text>
</a>
</g>
</g>
<!-- Node1&#45;&gt;Node13 -->
<g id="edge12_Node000001_Node000013" class="edge">
<title>Node1&#45;&gt;Node13</title>
<g id="a_edge12_Node000001_Node000013"><a xlink:title=" ">
<path fill="none" stroke="#63b8ff" d="M423.9,-264.07C439.45,-268.03 456.94,-272.35 473,-276 487.45,-279.28 503.21,-282.58 517.63,-285.48"/>
<polygon fill="#63b8ff" stroke="#63b8ff" points="424.55,-260.62 413.99,-261.53 422.81,-267.4 424.55,-260.62"/>
</a>
</g>
</g>
<!-- Node29 -->
<g id="Node000029" class="node">
<title>Node29</title>
<g id="a_Node000029"><a xlink:href="classDynExpModule_1_1ArbitraryFunctionFromCSV.html" target="_top" xlink:title=" ">
<polygon fill="white" stroke="#666666" points="658,-267 478,-267 478,-237 658,-237 658,-267"/>
<text text-anchor="start" x="486" y="-255" font-family="Helvetica,sans-Serif" font-size="10.00">DynExpModule::ArbitraryFunction</text>
<text text-anchor="middle" x="568" y="-244" font-family="Helvetica,sans-Serif" font-size="10.00">FromCSV</text>
</a>
</g>
</g>
<!-- Node1&#45;&gt;Node29 -->
<g id="edge28_Node000001_Node000029" class="edge">
<title>Node1&#45;&gt;Node29</title>
<g id="a_edge28_Node000001_Node000029"><a xlink:title=" ">
<path fill="none" stroke="#63b8ff" d="M447.26,-252C457.25,-252 467.65,-252 477.95,-252"/>
<polygon fill="#63b8ff" stroke="#63b8ff" points="447.02,-248.5 437.02,-252 447.02,-255.5 447.02,-248.5"/>
</a>
</g>
</g>
<!-- Node30 -->
<g id="Node000030" class="node">
<title>Node30</title>
<g id="a_Node000030"><a xlink:href="classDynExpModule_1_1StreamManipulator.html" target="_top" xlink:title="Module to process data stored in data stream instrument(s) with a Python script and to write the resu...">
<polygon fill="white" stroke="#666666" points="663,-218.5 473,-218.5 473,-199.5 663,-199.5 663,-218.5"/>
<text text-anchor="middle" x="568" y="-206.5" font-family="Helvetica,sans-Serif" font-size="10.00">DynExpModule::StreamManipulator</text>
</a>
</g>
</g>
<!-- Node1&#45;&gt;Node30 -->
<g id="edge29_Node000001_Node000030" class="edge">
<title>Node1&#45;&gt;Node30</title>
<g id="a_edge29_Node000001_Node000030"><a xlink:title=" ">
<path fill="none" stroke="#63b8ff" d="M423.9,-239.93C439.45,-235.97 456.94,-231.65 473,-228 487.45,-224.72 503.21,-221.42 517.63,-218.52"/>
<polygon fill="#63b8ff" stroke="#63b8ff" points="422.81,-236.6 413.99,-242.47 424.55,-243.38 422.81,-236.6"/>
</a>
</g>
</g>
<!-- Node31 -->
<g id="Node000031" class="node">
<title>Node31</title>
<g id="a_Node000031"><a xlink:href="classDynExpModule_1_1gRPCModule.html" target="_top" xlink:title="Module template for building gRPC servers listening on TCP sockets for network instruments to connect...">
<polygon fill="white" stroke="#666666" points="647,-181 489,-181 489,-151 647,-151 647,-181"/>
<text text-anchor="start" x="497" y="-169" font-family="Helvetica,sans-Serif" font-size="10.00">DynExpModule::gRPCModule</text>
<text text-anchor="middle" x="568" y="-158" font-family="Helvetica,sans-Serif" font-size="10.00">&lt; gRPCServices &gt;</text>
</a>
</g>
</g>
<!-- Node1&#45;&gt;Node31 -->
<g id="edge30_Node000001_Node000031" class="edge">
<title>Node1&#45;&gt;Node31</title>
<g id="a_edge30_Node000001_Node000031"><a xlink:title=" ">
<path fill="none" stroke="#63b8ff" d="M397.81,-236.27C416.3,-222.3 445.14,-202.25 473,-190 480.71,-186.61 488.99,-183.63 497.33,-181.03"/>
<polygon fill="#63b8ff" stroke="#63b8ff" points="395.64,-233.52 389.85,-242.4 399.91,-239.07 395.64,-233.52"/>
</a>
</g>
</g>
<!-- Node2 -->
<g id="Node000002" class="node">
<title>Node2</title>
<g id="a_Node000002"><a xlink:href="classDynExp_1_1RunnableObject.html" target="_top" xlink:title="Defines an Object which possesses a thread it runs in. The RunnableObject can be started and stopped ...">
<polygon fill="white" stroke="#666666" points="281,-261.5 144,-261.5 144,-242.5 281,-242.5 281,-261.5"/>
<text text-anchor="middle" x="212.5" y="-249.5" font-family="Helvetica,sans-Serif" font-size="10.00">DynExp::RunnableObject</text>
</a>
</g>
</g>
<!-- Node2&#45;&gt;Node1 -->
<g id="edge1_Node000001_Node000002" class="edge">
<title>Node2&#45;&gt;Node1</title>
<g id="a_edge1_Node000001_Node000002"><a xlink:title=" ">
<path fill="none" stroke="#63b8ff" d="M291.16,-252C299.85,-252 308.59,-252 316.99,-252"/>
<polygon fill="#63b8ff" stroke="#63b8ff" points="291,-248.5 281,-252 291,-255.5 291,-248.5"/>
</a>
</g>
</g>
<!-- Node3 -->
<g id="Node000003" class="node">
<title>Node3</title>
<g id="a_Node000003"><a xlink:href="classUtil_1_1INonCopyable.html" target="_top" xlink:title="Interface to delete copy constructor and copy assignment operator and thus make derived classes non&#45;c...">
<polygon fill="white" stroke="#666666" points="108,-280.5 0,-280.5 0,-261.5 108,-261.5 108,-280.5"/>
<text text-anchor="middle" x="54" y="-268.5" font-family="Helvetica,sans-Serif" font-size="10.00">Util::INonCopyable</text>
</a>
</g>
</g>
<!-- Node3&#45;&gt;Node2 -->
<g id="edge2_Node000002_Node000003" class="edge">
<title>Node3&#45;&gt;Node2</title>
<g id="a_edge2_Node000002_Node000003"><a xlink:title=" ">
<path fill="none" stroke="#63b8ff" d="M118.5,-263.29C126.87,-262.27 135.49,-261.23 143.93,-260.2"/>
<polygon fill="#63b8ff" stroke="#63b8ff" points="117.93,-259.83 108.42,-264.51 118.77,-266.78 117.93,-259.83"/>
</a>
</g>
</g>
<!-- Node4 -->
<g id="Node000004" class="node">
<title>Node4</title>
<g id="a_Node000004"><a xlink:href="classDynExp_1_1Object.html" target="_top" xlink:title="Base class for all DynExp Objects like hardware adapters (DynExp::HardwareAdapterBase),...">
<polygon fill="white" stroke="#666666" points="100,-243.5 8,-243.5 8,-224.5 100,-224.5 100,-243.5"/>
<text text-anchor="middle" x="54" y="-231.5" font-family="Helvetica,sans-Serif" font-size="10.00">DynExp::Object</text>
</a>
</g>
</g>
<!-- Node4&#45;&gt;Node2 -->
<g id="edge3_Node000002_Node000004" class="edge">
<title>Node4&#45;&gt;Node2</title>
<g id="a_edge3_Node000002_Node000004"><a xlink:title=" ">
<path fill="none" stroke="#63b8ff" d="M110.43,-240.38C121.26,-241.62 132.74,-242.94 143.91,-244.23"/>
<polygon fill="#63b8ff" stroke="#63b8ff" points="110.6,-236.87 100.27,-239.21 109.8,-243.83 110.6,-236.87"/>
</a>
</g>
</g>
<!-- Node6 -->
<g id="Node000006" class="node">
<title>Node6</title>
<g id="a_Node000006"><a xlink:href="classDynExpModule_1_1NetworkDataStreamInstrumentT.html" target="_top" xlink:title=" ">
<polygon fill="white" stroke="#666666" points="915,-668 706,-668 706,-638 915,-638 915,-668"/>
<text text-anchor="start" x="714" y="-656" font-family="Helvetica,sans-Serif" font-size="10.00">DynExpModule::NetworkData</text>
<text text-anchor="middle" x="810.5" y="-645" font-family="Helvetica,sans-Serif" font-size="10.00">StreamInstrumentT&lt; gRPCServices... &gt;</text>
</a>
</g>
</g>
<!-- Node5&#45;&gt;Node6 -->
<g id="edge5_Node000005_Node000006" class="edge">
<title>Node5&#45;&gt;Node6</title>
<g id="a_edge5_Node000005_Node000006"><a xlink:title=" ">
<path fill="none" stroke="#63b8ff" d="M627.76,-597.08C668.53,-609.62 722.18,-626.13 760.61,-637.96"/>
<polygon fill="#63b8ff" stroke="#63b8ff" points="628.55,-593.66 617.96,-594.06 626.49,-600.35 628.55,-593.66"/>
</a>
</g>
</g>
<!-- Node12 -->
<g id="Node000012" class="node">
<title>Node12</title>
<g id="a_Node000012"><a xlink:href="classDynExpModule_1_1NetworkDataStreamInstrumentT.html" target="_top" xlink:title=" ">
<polygon fill="white" stroke="#666666" points="910.5,-594 710.5,-594 710.5,-564 910.5,-564 910.5,-594"/>
<text text-anchor="start" x="718.5" y="-582" font-family="Helvetica,sans-Serif" font-size="10.00">DynExpModule::NetworkData</text>
<text text-anchor="middle" x="810.5" y="-571" font-family="Helvetica,sans-Serif" font-size="10.00">StreamInstrumentT&lt; gRPCServices &gt;</text>
</a>
</g>
</g>
<!-- Node5&#45;&gt;Node12 -->
<g id="edge11_Node000005_Node000012" class="edge">
<title>Node5&#45;&gt;Node12</title>
<g id="a_edge11_Node000005_Node000012"><a xlink:title=" ">
<path fill="none" stroke="#63b8ff" d="M657.14,-579C674.43,-579 692.68,-579 710.3,-579"/>
<polygon fill="#63b8ff" stroke="#63b8ff" points="657.08,-575.5 647.08,-579 657.08,-582.5 657.08,-575.5"/>
</a>
</g>
</g>
<!-- Node7 -->
<g id="Node000007" class="node">
<title>Node7</title>
<g id="a_Node000007"><a xlink:href="classDynExpModule_1_1NetworkAnalogInT.html" target="_top" xlink:title=" ">
<polygon fill="white" stroke="#666666" points="1131.5,-777 960.5,-777 960.5,-747 1131.5,-747 1131.5,-777"/>
<text text-anchor="start" x="968.5" y="-765" font-family="Helvetica,sans-Serif" font-size="10.00">DynExpModule::NetworkAnalog</text>
<text text-anchor="middle" x="1046" y="-754" font-family="Helvetica,sans-Serif" font-size="10.00">InT&lt; gRPCServices &gt;</text>
</a>
</g>
</g>
<!-- Node6&#45;&gt;Node7 -->
<g id="edge6_Node000006_Node000007" class="edge">
<title>Node6&#45;&gt;Node7</title>
<g id="a_edge6_Node000006_Node000007"><a xlink:title=" ">
<path fill="none" stroke="#63b8ff" d="M841.81,-673.69C870.63,-692.61 915.74,-720.26 958,-738 965.8,-741.27 974.18,-744.24 982.55,-746.87"/>
<polygon fill="#63b8ff" stroke="#63b8ff" points="843.67,-670.73 833.41,-668.13 839.81,-676.57 843.67,-670.73"/>
</a>
</g>
</g>
<!-- Node8 -->
<g id="Node000008" class="node">
<title>Node8</title>
<g id="a_Node000008"><a xlink:href="classDynExpModule_1_1NetworkAnalogOutT.html" target="_top" xlink:title=" ">
<polygon fill="white" stroke="#666666" points="1131.5,-729 960.5,-729 960.5,-699 1131.5,-699 1131.5,-729"/>
<text text-anchor="start" x="968.5" y="-717" font-family="Helvetica,sans-Serif" font-size="10.00">DynExpModule::NetworkAnalog</text>
<text text-anchor="middle" x="1046" y="-706" font-family="Helvetica,sans-Serif" font-size="10.00">OutT&lt; gRPCServices &gt;</text>
</a>
</g>
</g>
<!-- Node6&#45;&gt;Node8 -->
<g id="edge7_Node000006_Node000008" class="edge">
<title>Node6&#45;&gt;Node8</title>
<g id="a_edge7_Node000006_Node000008"><a xlink:title=" ">
<path fill="none" stroke="#63b8ff" d="M878.87,-670.6C913.22,-679.57 954.55,-690.37 987.4,-698.95"/>
<polygon fill="#63b8ff" stroke="#63b8ff" points="879.48,-667.14 868.92,-668 877.71,-673.91 879.48,-667.14"/>
</a>
</g>
</g>
<!-- Node9 -->
<g id="Node000009" class="node">
<title>Node9</title>
<g id="a_Node000009"><a xlink:href="classDynExpModule_1_1NetworkDigitalInT.html" target="_top" xlink:title=" ">
<polygon fill="white" stroke="#666666" points="1131,-681 961,-681 961,-651 1131,-651 1131,-681"/>
<text text-anchor="start" x="969" y="-669" font-family="Helvetica,sans-Serif" font-size="10.00">DynExpModule::NetworkDigital</text>
<text text-anchor="middle" x="1046" y="-658" font-family="Helvetica,sans-Serif" font-size="10.00">InT&lt; gRPCServices &gt;</text>
</a>
</g>
</g>
<!-- Node6&#45;&gt;Node9 -->
<g id="edge8_Node000006_Node000009" class="edge">
<title>Node6&#45;&gt;Node9</title>
<g id="a_edge8_Node000006_Node000009"><a xlink:title=" ">
<path fill="none" stroke="#63b8ff" d="M925.3,-659.34C937.26,-660 949.26,-660.67 960.79,-661.31"/>
<polygon fill="#63b8ff" stroke="#63b8ff" points="925.46,-655.84 915.28,-658.78 925.07,-662.83 925.46,-655.84"/>
</a>
</g>
</g>
<!-- Node10 -->
<g id="Node000010" class="node">
<title>Node10</title>
<g id="a_Node000010"><a xlink:href="classDynExpModule_1_1NetworkDigitalOutT.html" target="_top" xlink:title=" ">
<polygon fill="white" stroke="#666666" points="1131,-633 961,-633 961,-603 1131,-603 1131,-633"/>
<text text-anchor="start" x="969" y="-621" font-family="Helvetica,sans-Serif" font-size="10.00">DynExpModule::NetworkDigital</text>
<text text-anchor="middle" x="1046" y="-610" font-family="Helvetica,sans-Serif" font-size="10.00">OutT&lt; gRPCServices &gt;</text>
</a>
</g>
</g>
<!-- Node6&#45;&gt;Node10 -->
<g id="edge9_Node000006_Node000010" class="edge">
<title>Node6&#45;&gt;Node10</title>
<g id="a_edge9_Node000006_Node000010"><a xlink:title=" ">
<path fill="none" stroke="#63b8ff" d="M921.87,-636.46C934.97,-634.49 948.17,-632.51 960.82,-630.62"/>
<polygon fill="#63b8ff" stroke="#63b8ff" points="921.25,-633.01 911.88,-637.95 922.29,-639.93 921.25,-633.01"/>
</a>
</g>
</g>
<!-- Node11 -->
<g id="Node000011" class="node">
<title>Node11</title>
<g id="a_Node000011"><a xlink:href="classDynExpModule_1_1NetworkTimeTaggerT.html" target="_top" xlink:title=" ">
<polygon fill="white" stroke="#666666" points="1127,-585 965,-585 965,-555 1127,-555 1127,-585"/>
<text text-anchor="start" x="973" y="-573" font-family="Helvetica,sans-Serif" font-size="10.00">DynExpModule::NetworkTime</text>
<text text-anchor="middle" x="1046" y="-562" font-family="Helvetica,sans-Serif" font-size="10.00">TaggerT&lt; gRPCServices &gt;</text>
</a>
</g>
</g>
<!-- Node6&#45;&gt;Node11 -->
<g id="edge10_Node000006_Node000011" class="edge">
<title>Node6&#45;&gt;Node11</title>
<g id="a_edge10_Node000006_Node000011"><a xlink:title=" ">
<path fill="none" stroke="#63b8ff" d="M855.11,-633.92C883.99,-621.66 922.88,-605.87 958,-594 967.2,-590.89 977.05,-587.88 986.69,-585.1"/>
<polygon fill="#63b8ff" stroke="#63b8ff" points="853.54,-630.79 845.72,-637.93 856.29,-637.22 853.54,-630.79"/>
</a>
</g>
</g>
<!-- Node14 -->
<g id="Node000014" class="node">
<title>Node14</title>
<g id="a_Node000014"><a xlink:href="classDynExp_1_1QMLModuleBase.html" target="_top" xlink:title="Base class for modules with a QML&#45;based user interface. Derive from this class to implement modules w...">
<polygon fill="white" stroke="#666666" points="881.5,-531.5 739.5,-531.5 739.5,-512.5 881.5,-512.5 881.5,-531.5"/>
<text text-anchor="middle" x="810.5" y="-519.5" font-family="Helvetica,sans-Serif" font-size="10.00">DynExp::QMLModuleBase</text>
</a>
</g>
</g>
<!-- Node13&#45;&gt;Node14 -->
<g id="edge13_Node000013_Node000014" class="edge">
<title>Node13&#45;&gt;Node14</title>
<g id="a_edge13_Node000013_Node000014"><a xlink:title=" ">
<path fill="none" stroke="#63b8ff" d="M575,-314.65C589.05,-357.01 628.35,-456.91 699,-504 710.89,-511.92 725.06,-516.78 739.22,-519.68"/>
<polygon fill="#63b8ff" stroke="#63b8ff" points="578.29,-313.42 571.9,-304.96 571.62,-315.55 578.29,-313.42"/>
</a>
</g>
</g>
<!-- Node17 -->
<g id="Node000017" class="node">
<title>Node17</title>
<g id="a_Node000017"><a xlink:href="classDynExpModule_1_1EventSender.html" target="_top" xlink:title=" ">
<polygon fill="white" stroke="#666666" points="889.5,-494.5 731.5,-494.5 731.5,-475.5 889.5,-475.5 889.5,-494.5"/>
<text text-anchor="middle" x="810.5" y="-482.5" font-family="Helvetica,sans-Serif" font-size="10.00">DynExpModule::EventSender</text>
</a>
</g>
</g>
<!-- Node13&#45;&gt;Node17 -->
<g id="edge16_Node000013_Node000017" class="edge">
<title>Node13&#45;&gt;Node17</title>
<g id="a_edge16_Node000013_Node000017"><a xlink:title=" ">
<path fill="none" stroke="#63b8ff" d="M577.58,-314.21C594.85,-350.46 637.49,-428.66 699,-466 708.82,-471.96 719.98,-476.18 731.34,-479.15"/>
<polygon fill="#63b8ff" stroke="#63b8ff" points="580.59,-312.39 573.21,-304.78 574.24,-315.33 580.59,-312.39"/>
</a>
</g>
</g>
<!-- Node18 -->
<g id="Node000018" class="node">
<title>Node18</title>
<g id="a_Node000018"><a xlink:href="classDynExpModule_1_1ImageViewer_1_1ImageViewer.html" target="_top" xlink:title=" ">
<polygon fill="white" stroke="#666666" points="891,-457 730,-457 730,-427 891,-427 891,-457"/>
<text text-anchor="start" x="738" y="-445" font-family="Helvetica,sans-Serif" font-size="10.00">DynExpModule::ImageViewer</text>
<text text-anchor="middle" x="810.5" y="-434" font-family="Helvetica,sans-Serif" font-size="10.00">::ImageViewer</text>
</a>
</g>
</g>
<!-- Node13&#45;&gt;Node18 -->
<g id="edge17_Node000013_Node000018" class="edge">
<title>Node13&#45;&gt;Node18</title>
<g id="a_edge17_Node000013_Node000018"><a xlink:title=" ">
<path fill="none" stroke="#63b8ff" d="M582.64,-313.1C604.2,-340.35 648.89,-391.54 699,-418 708.55,-423.04 719.09,-427.02 729.77,-430.17"/>
<polygon fill="#63b8ff" stroke="#63b8ff" points="585.13,-310.6 576.24,-304.85 579.6,-314.89 585.13,-310.6"/>
</a>
</g>
</g>
<!-- Node19 -->
<g id="Node000019" class="node">
<title>Node19</title>
<g id="a_Node000019"><a xlink:href="classDynExpModule_1_1InputPortReader.html" target="_top" xlink:title=" ">
<polygon fill="white" stroke="#666666" points="898,-408.5 723,-408.5 723,-389.5 898,-389.5 898,-408.5"/>
<text text-anchor="middle" x="810.5" y="-396.5" font-family="Helvetica,sans-Serif" font-size="10.00">DynExpModule::InputPortReader</text>
</a>
</g>
</g>
<!-- Node13&#45;&gt;Node19 -->
<g id="edge18_Node000013_Node000019" class="edge">
<title>Node13&#45;&gt;Node19</title>
<g id="a_edge18_Node000013_Node000019"><a xlink:title=" ">
<path fill="none" stroke="#63b8ff" d="M587.85,-311.26C611.93,-331.09 655.68,-364.05 699,-381 707.78,-384.43 717.2,-387.21 726.7,-389.46"/>
<polygon fill="#63b8ff" stroke="#63b8ff" points="589.82,-308.35 579.91,-304.6 585.32,-313.71 589.82,-308.35"/>
</a>
</g>
</g>
<!-- Node20 -->
<g id="Node000020" class="node">
<title>Node20</title>
<g id="a_Node000020"><a xlink:href="classDynExpModule_1_1LaserControl.html" target="_top" xlink:title=" ">
<polygon fill="white" stroke="#666666" points="889.5,-371.5 731.5,-371.5 731.5,-352.5 889.5,-352.5 889.5,-371.5"/>
<text text-anchor="middle" x="810.5" y="-359.5" font-family="Helvetica,sans-Serif" font-size="10.00">DynExpModule::LaserControl</text>
</a>
</g>
</g>
<!-- Node13&#45;&gt;Node20 -->
<g id="edge19_Node000013_Node000020" class="edge">
<title>Node13&#45;&gt;Node20</title>
<g id="a_edge19_Node000013_Node000020"><a xlink:title=" ">
<path fill="none" stroke="#63b8ff" d="M600.48,-308.48C626.49,-319.16 664.59,-333.77 699,-343 712.82,-346.71 727.81,-349.85 742.16,-352.45"/>
<polygon fill="#63b8ff" stroke="#63b8ff" points="601.72,-305.2 591.14,-304.6 599.03,-311.67 601.72,-305.2"/>
</a>
</g>
</g>
<!-- Node21 -->
<g id="Node000021" class="node">
<title>Node21</title>
<g id="a_Node000021"><a xlink:href="classDynExpModule_1_1LaserScanningSpectroscopy_1_1LaserScanningSpectroscopy.html" target="_top" xlink:title=" ">
<polygon fill="white" stroke="#666666" points="922,-334 699,-334 699,-304 922,-304 922,-334"/>
<text text-anchor="start" x="707" y="-322" font-family="Helvetica,sans-Serif" font-size="10.00">DynExpModule::LaserScanning</text>
<text text-anchor="middle" x="810.5" y="-311" font-family="Helvetica,sans-Serif" font-size="10.00">Spectroscopy::LaserScanningSpectroscopy</text>
</a>
</g>
</g>
<!-- Node13&#45;&gt;Node21 -->
<g id="edge20_Node000013_Node000021" class="edge">
<title>Node13&#45;&gt;Node21</title>
<g id="a_edge20_Node000013_Node000021"><a xlink:title=" ">
<path fill="none" stroke="#63b8ff" d="M642.47,-302.33C660.29,-304.11 679.72,-306.05 698.84,-307.96"/>
<polygon fill="#63b8ff" stroke="#63b8ff" points="642.49,-298.82 632.19,-301.31 641.79,-305.78 642.49,-298.82"/>
</a>
</g>
</g>
<!-- Node22 -->
<g id="Node000022" class="node">
<title>Node22</title>
<g id="a_Node000022"><a xlink:href="classDynExpModule_1_1LockinAmplifierControl.html" target="_top" xlink:title=" ">
<polygon fill="white" stroke="#666666" points="896.5,-286 724.5,-286 724.5,-256 896.5,-256 896.5,-286"/>
<text text-anchor="start" x="732.5" y="-274" font-family="Helvetica,sans-Serif" font-size="10.00">DynExpModule::LockinAmplifier</text>
<text text-anchor="middle" x="810.5" y="-263" font-family="Helvetica,sans-Serif" font-size="10.00">Control</text>
</a>
</g>
</g>
<!-- Node13&#45;&gt;Node22 -->
<g id="edge21_Node000013_Node000022" class="edge">
<title>Node13&#45;&gt;Node22</title>
<g id="a_edge21_Node000013_Node000022"><a xlink:title=" ">
<path fill="none" stroke="#63b8ff" d="M642.28,-287.69C668.12,-285.11 697.38,-282.19 724.13,-279.52"/>
<polygon fill="#63b8ff" stroke="#63b8ff" points="641.79,-284.22 632.19,-288.69 642.49,-291.18 641.79,-284.22"/>
</a>
</g>
</g>
<!-- Node23 -->
<g id="Node000023" class="node">
<title>Node23</title>
<g id="a_Node000023"><a xlink:href="classDynExpModule_1_1ODMR_1_1ODMR.html" target="_top" xlink:title=" ">
<polygon fill="white" stroke="#666666" points="874,-238 747,-238 747,-208 874,-208 874,-238"/>
<text text-anchor="start" x="755" y="-226" font-family="Helvetica,sans-Serif" font-size="10.00">DynExpModule::ODMR</text>
<text text-anchor="middle" x="810.5" y="-215" font-family="Helvetica,sans-Serif" font-size="10.00">::ODMR</text>
</a>
</g>
</g>
<!-- Node13&#45;&gt;Node23 -->
<g id="edge22_Node000013_Node000023" class="edge">
<title>Node13&#45;&gt;Node23</title>
<g id="a_edge22_Node000013_Node000023"><a xlink:title=" ">
<path fill="none" stroke="#63b8ff" d="M641.98,-283.89C649.24,-281.72 656.37,-279.11 663,-276 681.6,-267.27 680.46,-255.86 699,-247 713.79,-239.93 730.69,-234.92 746.74,-231.37"/>
<polygon fill="#63b8ff" stroke="#63b8ff" points="640.76,-280.6 632.03,-286.61 642.6,-287.35 640.76,-280.6"/>
</a>
</g>
</g>
<!-- Node24 -->
<g id="Node000024" class="node">
<title>Node24</title>
<g id="a_Node000024"><a xlink:href="classDynExpModule_1_1OutputPortWriter.html" target="_top" xlink:title=" ">
<polygon fill="white" stroke="#666666" points="885,-190 736,-190 736,-160 885,-160 885,-190"/>
<text text-anchor="start" x="744" y="-178" font-family="Helvetica,sans-Serif" font-size="10.00">DynExpModule::OutputPort</text>
<text text-anchor="middle" x="810.5" y="-167" font-family="Helvetica,sans-Serif" font-size="10.00">Writer</text>
</a>
</g>
</g>
<!-- Node13&#45;&gt;Node24 -->
<g id="edge23_Node000013_Node000024" class="edge">
<title>Node13&#45;&gt;Node24</title>
<g id="a_edge23_Node000013_Node000024"><a xlink:title=" ">
<path fill="none" stroke="#63b8ff" d="M641.97,-287.5C649.54,-284.67 656.74,-280.92 663,-276 692.69,-252.65 669.48,-222.57 699,-199 709.66,-190.49 722.68,-184.83 735.99,-181.1"/>
<polygon fill="#63b8ff" stroke="#63b8ff" points="640.68,-284.24 632.23,-290.63 642.82,-290.91 640.68,-284.24"/>
</a>
</g>
</g>
<!-- Node25 -->
<g id="Node000025" class="node">
<title>Node25</title>
<g id="a_Node000025"><a xlink:href="classDynExpModule_1_1SignalDesigner.html" target="_top" xlink:title=" ">
<polygon fill="white" stroke="#666666" points="895.5,-141.5 725.5,-141.5 725.5,-122.5 895.5,-122.5 895.5,-141.5"/>
<text text-anchor="middle" x="810.5" y="-129.5" font-family="Helvetica,sans-Serif" font-size="10.00">DynExpModule::SignalDesigner</text>
</a>
</g>
</g>
<!-- Node13&#45;&gt;Node25 -->
<g id="edge24_Node000013_Node000025" class="edge">
<title>Node13&#45;&gt;Node25</title>
<g id="a_edge24_Node000013_Node000025"><a xlink:title=" ">
<path fill="none" stroke="#63b8ff" d="M641.86,-288.81C649.63,-285.77 656.91,-281.62 663,-276 705.5,-236.81 655.93,-189.57 699,-151 706.61,-144.18 715.75,-139.36 725.47,-136.01"/>
<polygon fill="#63b8ff" stroke="#63b8ff" points="640.59,-285.54 632.19,-292 642.78,-292.19 640.59,-285.54"/>
</a>
</g>
</g>
<!-- Node26 -->
<g id="Node000026" class="node">
<title>Node26</title>
<g id="a_Node000026"><a xlink:href="classDynExpModule_1_1Stage1D.html" target="_top" xlink:title=" ">
<polygon fill="white" stroke="#666666" points="879,-104.5 742,-104.5 742,-85.5 879,-85.5 879,-104.5"/>
<text text-anchor="middle" x="810.5" y="-92.5" font-family="Helvetica,sans-Serif" font-size="10.00">DynExpModule::Stage1D</text>
</a>
</g>
</g>
<!-- Node13&#45;&gt;Node26 -->
<g id="edge25_Node000013_Node000026" class="edge">
<title>Node13&#45;&gt;Node26</title>
<g id="a_edge25_Node000013_Node000026"><a xlink:title=" ">
<path fill="none" stroke="#63b8ff" d="M641.63,-289.41C649.56,-286.29 656.94,-281.95 663,-276 715.93,-224.01 645.09,-163.97 699,-113 710.58,-102.05 726.08,-96.27 741.8,-93.47"/>
<polygon fill="#63b8ff" stroke="#63b8ff" points="640.51,-286.1 632.11,-292.55 642.7,-292.75 640.51,-286.1"/>
</a>
</g>
</g>
<!-- Node27 -->
<g id="Node000027" class="node">
<title>Node27</title>
<g id="a_Node000027"><a xlink:href="classDynExpModule_1_1Trajectory1D.html" target="_top" xlink:title=" ">
<polygon fill="white" stroke="#666666" points="889.5,-67.5 731.5,-67.5 731.5,-48.5 889.5,-48.5 889.5,-67.5"/>
<text text-anchor="middle" x="810.5" y="-55.5" font-family="Helvetica,sans-Serif" font-size="10.00">DynExpModule::Trajectory1D</text>
</a>
</g>
</g>
<!-- Node13&#45;&gt;Node27 -->
<g id="edge26_Node000013_Node000027" class="edge">
<title>Node13&#45;&gt;Node27</title>
<g id="a_edge26_Node000013_Node000027"><a xlink:title=" ">
<path fill="none" stroke="#63b8ff" d="M641.85,-289.64C649.75,-286.48 657.06,-282.07 663,-276 726.18,-211.46 634.61,-139.33 699,-76 707.87,-67.28 719.21,-61.79 731.23,-58.47"/>
<polygon fill="#63b8ff" stroke="#63b8ff" points="640.74,-286.32 632.36,-292.81 642.96,-292.96 640.74,-286.32"/>
</a>
</g>
</g>
<!-- Node28 -->
<g id="Node000028" class="node">
<title>Node28</title>
<g id="a_Node000028"><a xlink:href="classDynExpModule_1_1Widefield_1_1WidefieldMicroscope.html" target="_top" xlink:title=" ">
<polygon fill="white" stroke="#666666" points="881.5,-30 739.5,-30 739.5,0 881.5,0 881.5,-30"/>
<text text-anchor="start" x="747.5" y="-18" font-family="Helvetica,sans-Serif" font-size="10.00">DynExpModule::Widefield</text>
<text text-anchor="middle" x="810.5" y="-7" font-family="Helvetica,sans-Serif" font-size="10.00">::WidefieldMicroscope</text>
</a>
</g>
</g>
<!-- Node13&#45;&gt;Node28 -->
<g id="edge27_Node000013_Node000028" class="edge">
<title>Node13&#45;&gt;Node28</title>
<g id="a_edge27_Node000013_Node000028"><a xlink:title=" ">
<path fill="none" stroke="#63b8ff" d="M641.68,-289.93C649.68,-286.73 657.06,-282.24 663,-276 736.48,-198.85 626.08,-116.68 699,-39 709.61,-27.69 724.2,-21.08 739.3,-17.34"/>
<polygon fill="#63b8ff" stroke="#63b8ff" points="640.45,-286.65 632.06,-293.12 642.66,-293.29 640.45,-286.65"/>
</a>
</g>
</g>
<!-- Node15 -->
<g id="Node000015" class="node">
<title>Node15</title>
<g id="a_Node000015"><a xlink:href="classDynExpModule_1_1SignalPlotter_1_1SignalPlotter.html" target="_top" xlink:title=" ">
<polygon fill="white" stroke="#666666" points="1125,-537 967,-537 967,-507 1125,-507 1125,-537"/>
<text text-anchor="start" x="975" y="-525" font-family="Helvetica,sans-Serif" font-size="10.00">DynExpModule::SignalPlotter</text>
<text text-anchor="middle" x="1046" y="-514" font-family="Helvetica,sans-Serif" font-size="10.00">::SignalPlotter</text>
</a>
</g>
</g>
<!-- Node14&#45;&gt;Node15 -->
<g id="edge14_Node000014_Node000015" class="edge">
<title>Node14&#45;&gt;Node15</title>
<g id="a_edge14_Node000014_Node000015"><a xlink:title=" ">
<path fill="none" stroke="#63b8ff" d="M891.8,-522C916.08,-522 942.69,-522 966.82,-522"/>
<polygon fill="#63b8ff" stroke="#63b8ff" points="891.56,-518.5 881.56,-522 891.56,-525.5 891.56,-518.5"/>
</a>
</g>
</g>
<!-- Node16 -->
<g id="Node000016" class="node">
<title>Node16</title>
<g id="a_Node000016"><a xlink:href="classDynExpModule_1_1SpectrumViewer_1_1SpectrumViewer.html" target="_top" xlink:title=" ">
<polygon fill="white" stroke="#666666" points="1134,-489 958,-489 958,-459 1134,-459 1134,-489"/>
<text text-anchor="start" x="966" y="-477" font-family="Helvetica,sans-Serif" font-size="10.00">DynExpModule::SpectrumViewer</text>
<text text-anchor="middle" x="1046" y="-466" font-family="Helvetica,sans-Serif" font-size="10.00">::SpectrumViewer</text>
</a>
</g>
</g>
<!-- Node14&#45;&gt;Node16 -->
<g id="edge15_Node000014_Node000016" class="edge">
<title>Node14&#45;&gt;Node16</title>
<g id="a_edge15_Node000014_Node000016"><a xlink:title=" ">
<path fill="none" stroke="#63b8ff" d="M885.52,-510.76C897.73,-508.67 910.24,-506.39 922,-504 943.43,-499.65 966.79,-494.15 987.33,-489.05"/>
<polygon fill="#63b8ff" stroke="#63b8ff" points="884.63,-507.36 875.35,-512.47 885.79,-514.26 884.63,-507.36"/>
</a>
</g>
</g>
</g>
</svg>
