<?xml version="1.0" encoding="UTF-8" standalone="no"?>
<!DOCTYPE svg PUBLIC "-//W3C//DTD SVG 1.1//EN"
 "http://www.w3.org/Graphics/SVG/1.1/DTD/svg11.dtd">
<!-- Generated by graphviz version 2.43.0 (0)
 -->
<!-- Title: DynExpInstr::InputPortTasks::ExitTask Pages: 1 -->
<svg width="1066pt" height="88pt"
 viewBox="0.00 0.00 1066.00 88.00" xmlns="http://www.w3.org/2000/svg" xmlns:xlink="http://www.w3.org/1999/xlink">
<g id="graph0" class="graph" transform="scale(1 1) rotate(0) translate(4 84)">
<title>DynExpInstr::InputPortTasks::ExitTask</title>
<polygon fill="white" stroke="transparent" points="-4,4 -4,-84 1062,-84 1062,4 -4,4"/>
<!-- Node1 -->
<g id="node1" class="node">
<title>Node1</title>
<g id="a_node1"><a xlink:title="Defines a task for deinitializing an instrument within an instrument inheritance hierarchy....">
<polygon fill="#bfbfbf" stroke="black" points="533,-24.5 533,-54.5 686,-54.5 686,-24.5 533,-24.5"/>
<text text-anchor="start" x="541" y="-42.5" font-family="Helvetica,sans-Serif" font-size="10.00">DynExpInstr::InputPortTasks</text>
<text text-anchor="middle" x="609.5" y="-31.5" font-family="Helvetica,sans-Serif" font-size="10.00">::ExitTask</text>
</a>
</g>
</g>
<!-- Node5 -->
<g id="node5" class="node">
<title>Node5</title>
<g id="a_node5"><a xlink:href="classDynExpInstr_1_1AnalogInTasks_1_1ExitTask.html" target="_top" xlink:title="Defines a task for deinitializing an instrument within an instrument inheritance hierarchy....">
<polygon fill="white" stroke="black" points="722,-49.5 722,-79.5 874,-79.5 874,-49.5 722,-49.5"/>
<text text-anchor="start" x="730" y="-67.5" font-family="Helvetica,sans-Serif" font-size="10.00">DynExpInstr::AnalogInTasks</text>
<text text-anchor="middle" x="798" y="-56.5" font-family="Helvetica,sans-Serif" font-size="10.00">::ExitTask</text>
</a>
</g>
</g>
<!-- Node1&#45;&gt;Node5 -->
<g id="edge4" class="edge">
<title>Node1&#45;&gt;Node5</title>
<path fill="none" stroke="midnightblue" d="M696.13,-50.98C704.74,-52.13 713.43,-53.3 721.91,-54.43"/>
<polygon fill="midnightblue" stroke="midnightblue" points="696.46,-47.49 686.09,-49.63 695.53,-54.43 696.46,-47.49"/>
</g>
<!-- Node7 -->
<g id="node7" class="node">
<title>Node7</title>
<g id="a_node7"><a xlink:href="classDynExpInstr_1_1DigitalInTasks_1_1ExitTask.html" target="_top" xlink:title="Defines a task for deinitializing an instrument within an instrument inheritance hierarchy....">
<polygon fill="white" stroke="black" points="723,-0.5 723,-30.5 873,-30.5 873,-0.5 723,-0.5"/>
<text text-anchor="start" x="731" y="-18.5" font-family="Helvetica,sans-Serif" font-size="10.00">DynExpInstr::DigitalInTasks</text>
<text text-anchor="middle" x="798" y="-7.5" font-family="Helvetica,sans-Serif" font-size="10.00">::ExitTask</text>
</a>
</g>
</g>
<!-- Node1&#45;&gt;Node7 -->
<g id="edge6" class="edge">
<title>Node1&#45;&gt;Node7</title>
<path fill="none" stroke="midnightblue" d="M696.1,-28.48C705.02,-27.34 714.04,-26.18 722.82,-25.05"/>
<polygon fill="midnightblue" stroke="midnightblue" points="695.56,-25.03 686.09,-29.77 696.45,-31.97 695.56,-25.03"/>
</g>
<!-- Node2 -->
<g id="node2" class="node">
<title>Node2</title>
<g id="a_node2"><a xlink:href="classDynExpInstr_1_1DataStreamInstrumentTasks_1_1ExitTask.html" target="_top" xlink:title="Defines a task for deinitializing an instrument within an instrument inheritance hierarchy....">
<polygon fill="white" stroke="black" points="303,-24.5 303,-54.5 497,-54.5 497,-24.5 303,-24.5"/>
<text text-anchor="start" x="311" y="-42.5" font-family="Helvetica,sans-Serif" font-size="10.00">DynExpInstr::DataStreamInstrument</text>
<text text-anchor="middle" x="400" y="-31.5" font-family="Helvetica,sans-Serif" font-size="10.00">Tasks::ExitTask</text>
</a>
</g>
</g>
<!-- Node2&#45;&gt;Node1 -->
<g id="edge1" class="edge">
<title>Node2&#45;&gt;Node1</title>
<path fill="none" stroke="midnightblue" d="M507.28,-39.5C515.91,-39.5 524.52,-39.5 532.86,-39.5"/>
<polygon fill="midnightblue" stroke="midnightblue" points="507.16,-36 497.16,-39.5 507.16,-43 507.16,-36"/>
</g>
<!-- Node3 -->
<g id="node3" class="node">
<title>Node3</title>
<g id="a_node3"><a xlink:href="classDynExp_1_1ExitTaskBase.html" target="_top" xlink:title="Defines a task for deinitializing an instrument within an instrument inheritance hierarchy....">
<polygon fill="white" stroke="black" points="142,-30 142,-49 267,-49 267,-30 142,-30"/>
<text text-anchor="middle" x="204.5" y="-37" font-family="Helvetica,sans-Serif" font-size="10.00">DynExp::ExitTaskBase</text>
</a>
</g>
</g>
<!-- Node3&#45;&gt;Node2 -->
<g id="edge2" class="edge">
<title>Node3&#45;&gt;Node2</title>
<path fill="none" stroke="midnightblue" d="M277.3,-39.5C285.67,-39.5 294.29,-39.5 302.92,-39.5"/>
<polygon fill="midnightblue" stroke="midnightblue" points="277.26,-36 267.26,-39.5 277.26,-43 277.26,-36"/>
</g>
<!-- Node4 -->
<g id="node4" class="node">
<title>Node4</title>
<g id="a_node4"><a xlink:href="classDynExp_1_1TaskBase.html" target="_top" xlink:title="Base class for all tasks being processed by instruments. The class must not contain public virtual fu...">
<polygon fill="white" stroke="black" points="0,-30 0,-49 106,-49 106,-30 0,-30"/>
<text text-anchor="middle" x="53" y="-37" font-family="Helvetica,sans-Serif" font-size="10.00">DynExp::TaskBase</text>
</a>
</g>
</g>
<!-- Node4&#45;&gt;Node3 -->
<g id="edge3" class="edge">
<title>Node4&#45;&gt;Node3</title>
<path fill="none" stroke="midnightblue" d="M116.38,-39.5C124.77,-39.5 133.37,-39.5 141.75,-39.5"/>
<polygon fill="midnightblue" stroke="midnightblue" points="116.29,-36 106.29,-39.5 116.29,-43 116.29,-36"/>
</g>
<!-- Node6 -->
<g id="node6" class="node">
<title>Node6</title>
<g id="a_node6"><a xlink:href="classDynExpInstr_1_1NIDAQAnalogInTasks_1_1ExitTask.html" target="_top" xlink:title=" ">
<polygon fill="white" stroke="black" points="910,-49.5 910,-79.5 1058,-79.5 1058,-49.5 910,-49.5"/>
<text text-anchor="start" x="918" y="-67.5" font-family="Helvetica,sans-Serif" font-size="10.00">DynExpInstr::NIDAQAnalog</text>
<text text-anchor="middle" x="984" y="-56.5" font-family="Helvetica,sans-Serif" font-size="10.00">InTasks::ExitTask</text>
</a>
</g>
</g>
<!-- Node5&#45;&gt;Node6 -->
<g id="edge5" class="edge">
<title>Node5&#45;&gt;Node6</title>
<path fill="none" stroke="midnightblue" d="M884.16,-64.5C892.76,-64.5 901.45,-64.5 909.92,-64.5"/>
<polygon fill="midnightblue" stroke="midnightblue" points="884.11,-61 874.11,-64.5 884.11,-68 884.11,-61"/>
</g>
<!-- Node8 -->
<g id="node8" class="node">
<title>Node8</title>
<g id="a_node8"><a xlink:href="classDynExpInstr_1_1NIDAQDigitalInTasks_1_1ExitTask.html" target="_top" xlink:title=" ">
<polygon fill="white" stroke="black" points="911,-0.5 911,-30.5 1057,-30.5 1057,-0.5 911,-0.5"/>
<text text-anchor="start" x="919" y="-18.5" font-family="Helvetica,sans-Serif" font-size="10.00">DynExpInstr::NIDAQDigital</text>
<text text-anchor="middle" x="984" y="-7.5" font-family="Helvetica,sans-Serif" font-size="10.00">InTasks::ExitTask</text>
</a>
</g>
</g>
<!-- Node7&#45;&gt;Node8 -->
<g id="edge7" class="edge">
<title>Node7&#45;&gt;Node8</title>
<path fill="none" stroke="midnightblue" d="M883.07,-15.5C892.37,-15.5 901.77,-15.5 910.9,-15.5"/>
<polygon fill="midnightblue" stroke="midnightblue" points="883.04,-12 873.04,-15.5 883.04,-19 883.04,-12"/>
</g>
</g>
</svg>
