<?xml version="1.0" encoding="UTF-8" standalone="no"?>
<!DOCTYPE svg PUBLIC "-//W3C//DTD SVG 1.1//EN"
 "http://www.w3.org/Graphics/SVG/1.1/DTD/svg11.dtd">
<!-- Generated by graphviz version 2.43.0 (0)
 -->
<!-- Title: DynExpInstr::SpectrometerTasks::InitTask Pages: 1 -->
<svg width="156pt" height="151pt"
 viewBox="0.00 0.00 156.00 151.00" xmlns="http://www.w3.org/2000/svg" xmlns:xlink="http://www.w3.org/1999/xlink">
<g id="graph0" class="graph" transform="scale(1 1) rotate(0) translate(4 147)">
<title>DynExpInstr::SpectrometerTasks::InitTask</title>
<polygon fill="white" stroke="transparent" points="-4,4 -4,-147 152,-147 152,4 -4,4"/>
<!-- Node1 -->
<g id="node1" class="node">
<title>Node1</title>
<g id="a_node1"><a xlink:title="Defines a task for initializing an instrument within an instrument inheritance hierarchy....">
<polygon fill="#bfbfbf" stroke="black" points="0,-0.5 0,-30.5 148,-30.5 148,-0.5 0,-0.5"/>
<text text-anchor="start" x="8" y="-18.5" font-family="Helvetica,sans-Serif" font-size="10.00">DynExpInstr::Spectrometer</text>
<text text-anchor="middle" x="74" y="-7.5" font-family="Helvetica,sans-Serif" font-size="10.00">Tasks::InitTask</text>
</a>
</g>
</g>
<!-- Node2 -->
<g id="node2" class="node">
<title>Node2</title>
<g id="a_node2"><a xlink:href="classDynExp_1_1InitTaskBase.html" target="_top" xlink:title="Defines a task for initializing an instrument within an instrument inheritance hierarchy....">
<polygon fill="white" stroke="black" points="13,-67.5 13,-86.5 135,-86.5 135,-67.5 13,-67.5"/>
<text text-anchor="middle" x="74" y="-74.5" font-family="Helvetica,sans-Serif" font-size="10.00">DynExp::InitTaskBase</text>
</a>
</g>
</g>
<!-- Node2&#45;&gt;Node1 -->
<g id="edge1" class="edge">
<title>Node2&#45;&gt;Node1</title>
<path fill="none" stroke="midnightblue" d="M74,-57.23C74,-48.59 74,-38.5 74,-30.52"/>
<polygon fill="midnightblue" stroke="midnightblue" points="70.5,-57.48 74,-67.48 77.5,-57.48 70.5,-57.48"/>
</g>
<!-- Node3 -->
<g id="node3" class="node">
<title>Node3</title>
<g id="a_node3"><a xlink:href="classDynExp_1_1TaskBase.html" target="_top" xlink:title="Base class for all tasks being processed by instruments. The class must not contain public virtual fu...">
<polygon fill="white" stroke="black" points="21,-123.5 21,-142.5 127,-142.5 127,-123.5 21,-123.5"/>
<text text-anchor="middle" x="74" y="-130.5" font-family="Helvetica,sans-Serif" font-size="10.00">DynExp::TaskBase</text>
</a>
</g>
</g>
<!-- Node3&#45;&gt;Node2 -->
<g id="edge2" class="edge">
<title>Node3&#45;&gt;Node2</title>
<path fill="none" stroke="midnightblue" d="M74,-112.8C74,-103.91 74,-93.78 74,-86.75"/>
<polygon fill="midnightblue" stroke="midnightblue" points="70.5,-113.08 74,-123.08 77.5,-113.08 70.5,-113.08"/>
</g>
</g>
</svg>
