<?xml version="1.0" encoding="UTF-8" standalone="no"?>
<!DOCTYPE svg PUBLIC "-//W3C//DTD SVG 1.1//EN"
 "http://www.w3.org/Graphics/SVG/1.1/DTD/svg11.dtd">
<!-- Generated by graphviz version 2.43.0 (0)
 -->
<!-- Title: DynExpInstr::CameraConfigurator Pages: 1 -->
<svg width="362pt" height="258pt"
 viewBox="0.00 0.00 362.00 258.00" xmlns="http://www.w3.org/2000/svg" xmlns:xlink="http://www.w3.org/1999/xlink">
<g id="graph0" class="graph" transform="scale(1 1) rotate(0) translate(4 254)">
<title>DynExpInstr::CameraConfigurator</title>
<!-- Node1 -->
<g id="Node000001" class="node">
<title>Node1</title>
<g id="a_Node000001"><a xlink:title="Configurator class for Camera.">
<polygon fill="#999999" stroke="#666666" points="262.5,-85 82.5,-85 82.5,-66 262.5,-66 262.5,-85"/>
<text text-anchor="middle" x="172.5" y="-73" font-family="Helvetica,sans-Serif" font-size="10.00">DynExpInstr::CameraConfigurator</text>
</a>
</g>
</g>
<!-- Node5 -->
<g id="Node000005" class="node">
<title>Node5</title>
<g id="a_Node000005"><a xlink:href="classDynExpInstr_1_1DummyCameraConfigurator.html" target="_top" xlink:title=" ">
<polygon fill="white" stroke="#666666" points="159,-30 0,-30 0,0 159,0 159,-30"/>
<text text-anchor="start" x="8" y="-18" font-family="Helvetica,sans-Serif" font-size="10.00">DynExpInstr::DummyCamera</text>
<text text-anchor="middle" x="79.5" y="-7" font-family="Helvetica,sans-Serif" font-size="10.00">Configurator</text>
</a>
</g>
</g>
<!-- Node1&#45;&gt;Node5 -->
<g id="edge4_Node000001_Node000005" class="edge">
<title>Node1&#45;&gt;Node5</title>
<g id="a_edge4_Node000001_Node000005"><a xlink:title=" ">
<path fill="none" stroke="#63b8ff" d="M149.91,-60.29C135.35,-51.13 116.48,-39.26 101.94,-30.11"/>
<polygon fill="#63b8ff" stroke="#63b8ff" points="148.45,-63.51 158.78,-65.87 152.18,-57.58 148.45,-63.51"/>
</a>
</g>
</g>
<!-- Node6 -->
<g id="Node000006" class="node">
<title>Node6</title>
<g id="a_Node000006"><a xlink:href="classDynExpInstr_1_1PVCamConfigurator.html" target="_top" xlink:title=" ">
<polygon fill="white" stroke="#666666" points="354,-24.5 177,-24.5 177,-5.5 354,-5.5 354,-24.5"/>
<text text-anchor="middle" x="265.5" y="-12.5" font-family="Helvetica,sans-Serif" font-size="10.00">DynExpInstr::PVCamConfigurator</text>
</a>
</g>
</g>
<!-- Node1&#45;&gt;Node6 -->
<g id="edge5_Node000001_Node000006" class="edge">
<title>Node1&#45;&gt;Node6</title>
<g id="a_edge5_Node000001_Node000006"><a xlink:title=" ">
<path fill="none" stroke="#63b8ff" d="M194.81,-60.47C212.52,-49.32 236.72,-34.1 251.72,-24.67"/>
<polygon fill="#63b8ff" stroke="#63b8ff" points="192.82,-57.58 186.22,-65.87 196.55,-63.51 192.82,-57.58"/>
</a>
</g>
</g>
<!-- Node2 -->
<g id="Node000002" class="node">
<title>Node2</title>
<g id="a_Node000002"><a xlink:href="classDynExp_1_1InstrumentConfiguratorBase.html" target="_top" xlink:title="Configurator class for InstrumentBase.">
<polygon fill="white" stroke="#666666" points="271,-140 74,-140 74,-121 271,-121 271,-140"/>
<text text-anchor="middle" x="172.5" y="-128" font-family="Helvetica,sans-Serif" font-size="10.00">DynExp::InstrumentConfiguratorBase</text>
</a>
</g>
</g>
<!-- Node2&#45;&gt;Node1 -->
<g id="edge1_Node000001_Node000002" class="edge">
<title>Node2&#45;&gt;Node1</title>
<g id="a_edge1_Node000001_Node000002"><a xlink:title=" ">
<path fill="none" stroke="#63b8ff" d="M172.5,-110.66C172.5,-101.93 172.5,-91.99 172.5,-85.09"/>
<polygon fill="#63b8ff" stroke="#63b8ff" points="169,-110.75 172.5,-120.75 176,-110.75 169,-110.75"/>
</a>
</g>
</g>
<!-- Node3 -->
<g id="Node000003" class="node">
<title>Node3</title>
<g id="a_Node000003"><a xlink:href="classDynExp_1_1RunnableObjectConfigurator.html" target="_top" xlink:title="Configurator class for RunnableObject.">
<polygon fill="white" stroke="#666666" points="271,-195 74,-195 74,-176 271,-176 271,-195"/>
<text text-anchor="middle" x="172.5" y="-183" font-family="Helvetica,sans-Serif" font-size="10.00">DynExp::RunnableObjectConfigurator</text>
</a>
</g>
</g>
<!-- Node3&#45;&gt;Node2 -->
<g id="edge2_Node000002_Node000003" class="edge">
<title>Node3&#45;&gt;Node2</title>
<g id="a_edge2_Node000002_Node000003"><a xlink:title=" ">
<path fill="none" stroke="#63b8ff" d="M172.5,-165.66C172.5,-156.93 172.5,-146.99 172.5,-140.09"/>
<polygon fill="#63b8ff" stroke="#63b8ff" points="169,-165.75 172.5,-175.75 176,-165.75 169,-165.75"/>
</a>
</g>
</g>
<!-- Node4 -->
<g id="Node000004" class="node">
<title>Node4</title>
<g id="a_Node000004"><a xlink:href="classDynExp_1_1ConfiguratorBase.html" target="_top" xlink:title="The configurator classes have the task to generate parameter objects (refer to DynExp::ParamsBase) of...">
<polygon fill="white" stroke="#666666" points="244.5,-250 100.5,-250 100.5,-231 244.5,-231 244.5,-250"/>
<text text-anchor="middle" x="172.5" y="-238" font-family="Helvetica,sans-Serif" font-size="10.00">DynExp::ConfiguratorBase</text>
</a>
</g>
</g>
<!-- Node4&#45;&gt;Node3 -->
<g id="edge3_Node000003_Node000004" class="edge">
<title>Node4&#45;&gt;Node3</title>
<g id="a_edge3_Node000003_Node000004"><a xlink:title=" ">
<path fill="none" stroke="#63b8ff" d="M172.5,-220.66C172.5,-211.93 172.5,-201.99 172.5,-195.09"/>
<polygon fill="#63b8ff" stroke="#63b8ff" points="169,-220.75 172.5,-230.75 176,-220.75 169,-220.75"/>
</a>
</g>
</g>
</g>
</svg>
