<?xml version="1.0" encoding="UTF-8" standalone="no"?>
<!DOCTYPE svg PUBLIC "-//W3C//DTD SVG 1.1//EN"
 "http://www.w3.org/Graphics/SVG/1.1/DTD/svg11.dtd">
<!-- Generated by graphviz version 2.43.0 (0)
 -->
<!-- Title: DynExpInstr::PositionerStageParams Pages: 1 -->
<svg width="1266pt" height="124pt"
 viewBox="0.00 0.00 1266.00 123.50" xmlns="http://www.w3.org/2000/svg" xmlns:xlink="http://www.w3.org/1999/xlink">
<g id="graph0" class="graph" transform="scale(1 1) rotate(0) translate(4 119.5)">
<title>DynExpInstr::PositionerStageParams</title>
<!-- Node1 -->
<g id="Node000001" class="node">
<title>Node1</title>
<g id="a_Node000001"><a xlink:title="Parameter class for PositionerStage.">
<polygon fill="#999999" stroke="#666666" points="1055,-67.5 897,-67.5 897,-37.5 1055,-37.5 1055,-67.5"/>
<text text-anchor="start" x="905" y="-55.5" font-family="Helvetica,sans-Serif" font-size="10.00">DynExpInstr::PositionerStage</text>
<text text-anchor="middle" x="976" y="-44.5" font-family="Helvetica,sans-Serif" font-size="10.00">Params</text>
</a>
</g>
</g>
<!-- Node7 -->
<g id="Node000007" class="node">
<title>Node7</title>
<g id="a_Node000007"><a xlink:href="classDynExpInstr_1_1NenionLeakvalveF3Params.html" target="_top" xlink:title=" ">
<polygon fill="white" stroke="#666666" points="1258,-115.5 1091,-115.5 1091,-85.5 1258,-85.5 1258,-115.5"/>
<text text-anchor="start" x="1099" y="-103.5" font-family="Helvetica,sans-Serif" font-size="10.00">DynExpInstr::NenionLeakvalve</text>
<text text-anchor="middle" x="1174.5" y="-92.5" font-family="Helvetica,sans-Serif" font-size="10.00">F3Params</text>
</a>
</g>
</g>
<!-- Node1&#45;&gt;Node7 -->
<g id="edge6_Node000001_Node000007" class="edge">
<title>Node1&#45;&gt;Node7</title>
<g id="a_edge6_Node000001_Node000007"><a xlink:title=" ">
<path fill="none" stroke="#63b8ff" d="M1048.4,-69.94C1069.27,-75.04 1091.89,-80.57 1112.08,-85.5"/>
<polygon fill="#63b8ff" stroke="#63b8ff" points="1049.18,-66.53 1038.63,-67.56 1047.52,-73.33 1049.18,-66.53"/>
</a>
</g>
</g>
<!-- Node8 -->
<g id="Node000008" class="node">
<title>Node8</title>
<g id="a_Node000008"><a xlink:href="classDynExpInstr_1_1PI__C__862__Params.html" target="_top" xlink:title=" ">
<polygon fill="white" stroke="#666666" points="1237.5,-67.5 1111.5,-67.5 1111.5,-37.5 1237.5,-37.5 1237.5,-67.5"/>
<text text-anchor="start" x="1119.5" y="-55.5" font-family="Helvetica,sans-Serif" font-size="10.00">DynExpInstr::PI_C_862</text>
<text text-anchor="middle" x="1174.5" y="-44.5" font-family="Helvetica,sans-Serif" font-size="10.00">_Params</text>
</a>
</g>
</g>
<!-- Node1&#45;&gt;Node8 -->
<g id="edge7_Node000001_Node000008" class="edge">
<title>Node1&#45;&gt;Node8</title>
<g id="a_edge7_Node000001_Node000008"><a xlink:title=" ">
<path fill="none" stroke="#63b8ff" d="M1065.35,-52.5C1080.84,-52.5 1096.67,-52.5 1111.27,-52.5"/>
<polygon fill="#63b8ff" stroke="#63b8ff" points="1065.23,-49 1055.23,-52.5 1065.23,-56 1065.23,-49"/>
</a>
</g>
</g>
<!-- Node9 -->
<g id="Node000009" class="node">
<title>Node9</title>
<g id="a_Node000009"><a xlink:href="classDynExpInstr_1_1SmarActParams.html" target="_top" xlink:title=" ">
<polygon fill="white" stroke="#666666" points="1254,-19 1095,-19 1095,0 1254,0 1254,-19"/>
<text text-anchor="middle" x="1174.5" y="-7" font-family="Helvetica,sans-Serif" font-size="10.00">DynExpInstr::SmarActParams</text>
</a>
</g>
</g>
<!-- Node1&#45;&gt;Node9 -->
<g id="edge8_Node000001_Node000009" class="edge">
<title>Node1&#45;&gt;Node9</title>
<g id="a_edge8_Node000001_Node000009"><a xlink:title=" ">
<path fill="none" stroke="#63b8ff" d="M1055.7,-35.28C1081.02,-29.74 1108.15,-23.8 1129.99,-19.02"/>
<polygon fill="#63b8ff" stroke="#63b8ff" points="1054.75,-31.9 1045.73,-37.46 1056.24,-38.74 1054.75,-31.9"/>
</a>
</g>
</g>
<!-- Node2 -->
<g id="Node000002" class="node">
<title>Node2</title>
<g id="a_Node000002"><a xlink:href="classDynExp_1_1InstrumentParamsBase.html" target="_top" xlink:title="Parameter class for InstrumentBase.">
<polygon fill="white" stroke="#666666" points="861,-62 688,-62 688,-43 861,-43 861,-62"/>
<text text-anchor="middle" x="774.5" y="-50" font-family="Helvetica,sans-Serif" font-size="10.00">DynExp::InstrumentParamsBase</text>
</a>
</g>
</g>
<!-- Node2&#45;&gt;Node1 -->
<g id="edge1_Node000001_Node000002" class="edge">
<title>Node2&#45;&gt;Node1</title>
<g id="a_edge1_Node000001_Node000002"><a xlink:title=" ">
<path fill="none" stroke="#63b8ff" d="M871.29,-52.5C879.86,-52.5 888.47,-52.5 896.87,-52.5"/>
<polygon fill="#63b8ff" stroke="#63b8ff" points="871.26,-49 861.26,-52.5 871.26,-56 871.26,-49"/>
</a>
</g>
</g>
<!-- Node3 -->
<g id="Node000003" class="node">
<title>Node3</title>
<g id="a_Node000003"><a xlink:href="classDynExp_1_1RunnableObjectParams.html" target="_top" xlink:title="Parameter class for RunnableObject.">
<polygon fill="white" stroke="#666666" points="652,-62 479,-62 479,-43 652,-43 652,-62"/>
<text text-anchor="middle" x="565.5" y="-50" font-family="Helvetica,sans-Serif" font-size="10.00">DynExp::RunnableObjectParams</text>
</a>
</g>
</g>
<!-- Node3&#45;&gt;Node2 -->
<g id="edge2_Node000002_Node000003" class="edge">
<title>Node3&#45;&gt;Node2</title>
<g id="a_edge2_Node000002_Node000003"><a xlink:title=" ">
<path fill="none" stroke="#63b8ff" d="M662.2,-52.5C670.76,-52.5 679.4,-52.5 687.88,-52.5"/>
<polygon fill="#63b8ff" stroke="#63b8ff" points="662.19,-49 652.19,-52.5 662.19,-56 662.19,-49"/>
</a>
</g>
</g>
<!-- Node4 -->
<g id="Node000004" class="node">
<title>Node4</title>
<g id="a_Node000004"><a xlink:href="classDynExp_1_1ParamsBase.html" target="_top" xlink:title="Abstract base class for object parameter classes. Each class derived from class Object must be accomp...">
<polygon fill="white" stroke="#666666" points="443,-62 323,-62 323,-43 443,-43 443,-62"/>
<text text-anchor="middle" x="383" y="-50" font-family="Helvetica,sans-Serif" font-size="10.00">DynExp::ParamsBase</text>
</a>
</g>
</g>
<!-- Node4&#45;&gt;Node3 -->
<g id="edge3_Node000003_Node000004" class="edge">
<title>Node4&#45;&gt;Node3</title>
<g id="a_edge3_Node000003_Node000004"><a xlink:title=" ">
<path fill="none" stroke="#63b8ff" d="M453.17,-52.5C461.54,-52.5 470.17,-52.5 478.75,-52.5"/>
<polygon fill="#63b8ff" stroke="#63b8ff" points="453.1,-49 443.1,-52.5 453.1,-56 453.1,-49"/>
</a>
</g>
</g>
<!-- Node5 -->
<g id="Node000005" class="node">
<title>Node5</title>
<g id="a_Node000005"><a xlink:href="classUtil_1_1ISynchronizedPointerLockable.html" target="_top" xlink:title="Interface to allow synchronizing the access to derived classes between different threads by making th...">
<polygon fill="white" stroke="#666666" points="287,-67.5 144,-67.5 144,-37.5 287,-37.5 287,-67.5"/>
<text text-anchor="start" x="152" y="-55.5" font-family="Helvetica,sans-Serif" font-size="10.00">Util::ISynchronizedPointer</text>
<text text-anchor="middle" x="215.5" y="-44.5" font-family="Helvetica,sans-Serif" font-size="10.00">Lockable</text>
</a>
</g>
</g>
<!-- Node5&#45;&gt;Node4 -->
<g id="edge4_Node000004_Node000005" class="edge">
<title>Node5&#45;&gt;Node4</title>
<g id="a_edge4_Node000004_Node000005"><a xlink:title=" ">
<path fill="none" stroke="#63b8ff" d="M297.23,-52.5C305.84,-52.5 314.47,-52.5 322.76,-52.5"/>
<polygon fill="#63b8ff" stroke="#63b8ff" points="297.17,-49 287.17,-52.5 297.17,-56 297.17,-49"/>
</a>
</g>
</g>
<!-- Node6 -->
<g id="Node000006" class="node">
<title>Node6</title>
<g id="a_Node000006"><a xlink:href="classUtil_1_1INonCopyable.html" target="_top" xlink:title="Interface to delete copy constructor and copy assignment operator and thus make derived classes non&#45;c...">
<polygon fill="white" stroke="#666666" points="108,-62 0,-62 0,-43 108,-43 108,-62"/>
<text text-anchor="middle" x="54" y="-50" font-family="Helvetica,sans-Serif" font-size="10.00">Util::INonCopyable</text>
</a>
</g>
</g>
<!-- Node6&#45;&gt;Node5 -->
<g id="edge5_Node000005_Node000006" class="edge">
<title>Node6&#45;&gt;Node5</title>
<g id="a_edge5_Node000005_Node000006"><a xlink:title=" ">
<path fill="none" stroke="#63b8ff" d="M118.19,-52.5C126.58,-52.5 135.23,-52.5 143.74,-52.5"/>
<polygon fill="#63b8ff" stroke="#63b8ff" points="118.11,-49 108.11,-52.5 118.11,-56 118.11,-49"/>
</a>
</g>
</g>
</g>
</svg>
