<?xml version="1.0" encoding="UTF-8" standalone="no"?>
<!DOCTYPE svg PUBLIC "-//W3C//DTD SVG 1.1//EN"
 "http://www.w3.org/Graphics/SVG/1.1/DTD/svg11.dtd">
<!-- Generated by graphviz version 2.43.0 (0)
 -->
<!-- Title: DynExpInstr::WidefieldLocalizationTasks::UpdateTask Pages: 1 -->
<svg width="662pt" height="61pt"
 viewBox="0.00 0.00 662.00 61.00" xmlns="http://www.w3.org/2000/svg" xmlns:xlink="http://www.w3.org/1999/xlink">
<g id="graph0" class="graph" transform="scale(1 1) rotate(0) translate(4 57)">
<title>DynExpInstr::WidefieldLocalizationTasks::UpdateTask</title>
<polygon fill="white" stroke="transparent" points="-4,4 -4,-57 658,-57 658,4 -4,4"/>
<!-- Node1 -->
<g id="node1" class="node">
<title>Node1</title>
<g id="a_node1"><a xlink:title=" ">
<polygon fill="#bfbfbf" stroke="black" points="468,-11.5 468,-41.5 654,-41.5 654,-11.5 468,-11.5"/>
<text text-anchor="start" x="476" y="-29.5" font-family="Helvetica,sans-Serif" font-size="10.00">DynExpInstr::WidefieldLocalization</text>
<text text-anchor="middle" x="561" y="-18.5" font-family="Helvetica,sans-Serif" font-size="10.00">Tasks::UpdateTask</text>
</a>
</g>
</g>
<!-- Node2 -->
<g id="node2" class="node">
<title>Node2</title>
<g id="a_node2"><a xlink:href="classDynExpInstr_1_1gRPCInstrumentTasks_1_1UpdateTask.html" target="_top" xlink:title=" ">
<polygon fill="white" stroke="black" points="184,-0.5 184,-52.5 432,-52.5 432,-0.5 184,-0.5"/>
<text text-anchor="start" x="192" y="-40.5" font-family="Helvetica,sans-Serif" font-size="10.00">DynExpInstr::gRPCInstrument</text>
<text text-anchor="start" x="192" y="-29.5" font-family="Helvetica,sans-Serif" font-size="10.00">Tasks::UpdateTask&lt; DynExp</text>
<text text-anchor="start" x="192" y="-18.5" font-family="Helvetica,sans-Serif" font-size="10.00">::InstrumentBase, 0, DynExpProto</text>
<text text-anchor="middle" x="308" y="-7.5" font-family="Helvetica,sans-Serif" font-size="10.00">::WidefieldLocalization::WidefieldLocalization &gt;</text>
</a>
</g>
</g>
<!-- Node2&#45;&gt;Node1 -->
<g id="edge1" class="edge">
<title>Node2&#45;&gt;Node1</title>
<path fill="none" stroke="midnightblue" d="M442.33,-26.5C450.87,-26.5 459.37,-26.5 467.65,-26.5"/>
<polygon fill="midnightblue" stroke="midnightblue" points="442.29,-23 432.29,-26.5 442.29,-30 442.29,-23"/>
</g>
<!-- Node3 -->
<g id="node3" class="node">
<title>Node3</title>
<g id="a_node3"><a xlink:title=" ">
<polygon fill="white" stroke="#bfbfbf" points="0,-17 0,-36 148,-36 148,-17 0,-17"/>
<text text-anchor="middle" x="74" y="-24" font-family="Helvetica,sans-Serif" font-size="10.00">BaseInstr::UpdateTaskType</text>
</a>
</g>
</g>
<!-- Node3&#45;&gt;Node2 -->
<g id="edge2" class="edge">
<title>Node3&#45;&gt;Node2</title>
<path fill="none" stroke="midnightblue" d="M158.14,-26.5C166.5,-26.5 175.1,-26.5 183.75,-26.5"/>
<polygon fill="midnightblue" stroke="midnightblue" points="158.09,-23 148.09,-26.5 158.09,-30 158.09,-23"/>
</g>
</g>
</svg>
