<?xml version="1.0" encoding="UTF-8" standalone="no"?>
<!DOCTYPE svg PUBLIC "-//W3C//DTD SVG 1.1//EN"
 "http://www.w3.org/Graphics/SVG/1.1/DTD/svg11.dtd">
<!-- Generated by graphviz version 2.43.0 (0)
 -->
<!-- Title: DynExpInstr::DigitalInTasks::UpdateTask Pages: 1 -->
<svg width="1085pt" height="86pt"
 viewBox="0.00 0.00 1085.00 86.00" xmlns="http://www.w3.org/2000/svg" xmlns:xlink="http://www.w3.org/1999/xlink">
<g id="graph0" class="graph" transform="scale(1 1) rotate(0) translate(4 82)">
<title>DynExpInstr::DigitalInTasks::UpdateTask</title>
<!-- Node1 -->
<g id="Node000001" class="node">
<title>Node1</title>
<g id="a_Node000001"><a xlink:title="Defines a task for updating an instrument within an instrument inheritance hierarchy....">
<polygon fill="#999999" stroke="#666666" points="888,-54 738,-54 738,-24 888,-24 888,-54"/>
<text text-anchor="start" x="746" y="-42" font-family="Helvetica,sans-Serif" font-size="10.00">DynExpInstr::DigitalInTasks</text>
<text text-anchor="middle" x="813" y="-31" font-family="Helvetica,sans-Serif" font-size="10.00">::UpdateTask</text>
</a>
</g>
</g>
<!-- Node6 -->
<g id="Node000006" class="node">
<title>Node6</title>
<g id="a_Node000006"><a xlink:href="classDynExpInstr_1_1DummyDigitalInTasks_1_1UpdateTask.html" target="_top" xlink:title=" ">
<polygon fill="white" stroke="#666666" points="1077,-78 924,-78 924,-48 1077,-48 1077,-78"/>
<text text-anchor="start" x="932" y="-66" font-family="Helvetica,sans-Serif" font-size="10.00">DynExpInstr::DummyDigital</text>
<text text-anchor="middle" x="1000.5" y="-55" font-family="Helvetica,sans-Serif" font-size="10.00">InTasks::UpdateTask</text>
</a>
</g>
</g>
<!-- Node1&#45;&gt;Node6 -->
<g id="edge5_Node000001_Node000006" class="edge">
<title>Node1&#45;&gt;Node6</title>
<g id="a_edge5_Node000001_Node000006"><a xlink:title=" ">
<path fill="none" stroke="#63b8ff" d="M898.16,-49.89C906.77,-51 915.48,-52.13 923.99,-53.23"/>
<polygon fill="#63b8ff" stroke="#63b8ff" points="898.48,-46.4 888.11,-48.59 897.58,-53.34 898.48,-46.4"/>
</a>
</g>
</g>
<!-- Node7 -->
<g id="Node000007" class="node">
<title>Node7</title>
<g id="a_Node000007"><a xlink:href="classDynExpInstr_1_1NIDAQDigitalInTasks_1_1UpdateTask.html" target="_top" xlink:title=" ">
<polygon fill="white" stroke="#666666" points="1073.5,-30 927.5,-30 927.5,0 1073.5,0 1073.5,-30"/>
<text text-anchor="start" x="935.5" y="-18" font-family="Helvetica,sans-Serif" font-size="10.00">DynExpInstr::NIDAQDigital</text>
<text text-anchor="middle" x="1000.5" y="-7" font-family="Helvetica,sans-Serif" font-size="10.00">InTasks::UpdateTask</text>
</a>
</g>
</g>
<!-- Node1&#45;&gt;Node7 -->
<g id="edge6_Node000001_Node000007" class="edge">
<title>Node1&#45;&gt;Node7</title>
<g id="a_edge6_Node000001_Node000007"><a xlink:title=" ">
<path fill="none" stroke="#63b8ff" d="M898.19,-28.11C907.91,-26.85 917.77,-25.57 927.32,-24.34"/>
<polygon fill="#63b8ff" stroke="#63b8ff" points="897.58,-24.66 888.11,-29.41 898.48,-31.6 897.58,-24.66"/>
</a>
</g>
</g>
<!-- Node2 -->
<g id="Node000002" class="node">
<title>Node2</title>
<g id="a_Node000002"><a xlink:href="classDynExpInstr_1_1InputPortTasks_1_1UpdateTask.html" target="_top" xlink:title="Defines a task for updating an instrument within an instrument inheritance hierarchy....">
<polygon fill="white" stroke="#666666" points="702,-54 549,-54 549,-24 702,-24 702,-54"/>
<text text-anchor="start" x="557" y="-42" font-family="Helvetica,sans-Serif" font-size="10.00">DynExpInstr::InputPortTasks</text>
<text text-anchor="middle" x="625.5" y="-31" font-family="Helvetica,sans-Serif" font-size="10.00">::UpdateTask</text>
</a>
</g>
</g>
<!-- Node2&#45;&gt;Node1 -->
<g id="edge1_Node000001_Node000002" class="edge">
<title>Node2&#45;&gt;Node1</title>
<g id="a_edge1_Node000001_Node000002"><a xlink:title=" ">
<path fill="none" stroke="#63b8ff" d="M712.46,-39C720.9,-39 729.41,-39 737.72,-39"/>
<polygon fill="#63b8ff" stroke="#63b8ff" points="712.22,-35.5 702.22,-39 712.22,-42.5 712.22,-35.5"/>
</a>
</g>
</g>
<!-- Node3 -->
<g id="Node000003" class="node">
<title>Node3</title>
<g id="a_Node000003"><a xlink:href="classDynExpInstr_1_1DataStreamInstrumentTasks_1_1UpdateTask.html" target="_top" xlink:title="Defines a task for updating an instrument within an instrument inheritance hierarchy....">
<polygon fill="white" stroke="#666666" points="513,-54 319,-54 319,-24 513,-24 513,-54"/>
<text text-anchor="start" x="327" y="-42" font-family="Helvetica,sans-Serif" font-size="10.00">DynExpInstr::DataStreamInstrument</text>
<text text-anchor="middle" x="416" y="-31" font-family="Helvetica,sans-Serif" font-size="10.00">Tasks::UpdateTask</text>
</a>
</g>
</g>
<!-- Node3&#45;&gt;Node2 -->
<g id="edge2_Node000002_Node000003" class="edge">
<title>Node3&#45;&gt;Node2</title>
<g id="a_edge2_Node000002_Node000003"><a xlink:title=" ">
<path fill="none" stroke="#63b8ff" d="M523.28,-39C531.91,-39 540.52,-39 548.86,-39"/>
<polygon fill="#63b8ff" stroke="#63b8ff" points="523.16,-35.5 513.16,-39 523.16,-42.5 523.16,-35.5"/>
</a>
</g>
</g>
<!-- Node4 -->
<g id="Node000004" class="node">
<title>Node4</title>
<g id="a_Node000004"><a xlink:href="classDynExp_1_1UpdateTaskBase.html" target="_top" xlink:title="Defines a task for updating an instrument within an instrument inheritance hierarchy....">
<polygon fill="white" stroke="#666666" points="283,-48.5 142,-48.5 142,-29.5 283,-29.5 283,-48.5"/>
<text text-anchor="middle" x="212.5" y="-36.5" font-family="Helvetica,sans-Serif" font-size="10.00">DynExp::UpdateTaskBase</text>
</a>
</g>
</g>
<!-- Node4&#45;&gt;Node3 -->
<g id="edge3_Node000003_Node000004" class="edge">
<title>Node4&#45;&gt;Node3</title>
<g id="a_edge3_Node000003_Node000004"><a xlink:title=" ">
<path fill="none" stroke="#63b8ff" d="M293.22,-39C301.6,-39 310.17,-39 318.71,-39"/>
<polygon fill="#63b8ff" stroke="#63b8ff" points="293.13,-35.5 283.13,-39 293.13,-42.5 293.13,-35.5"/>
</a>
</g>
</g>
<!-- Node5 -->
<g id="Node000005" class="node">
<title>Node5</title>
<g id="a_Node000005"><a xlink:href="classDynExp_1_1TaskBase.html" target="_top" xlink:title="Base class for all tasks being processed by instruments. The class must not contain public virtual fu...">
<polygon fill="white" stroke="#666666" points="106,-48.5 0,-48.5 0,-29.5 106,-29.5 106,-48.5"/>
<text text-anchor="middle" x="53" y="-36.5" font-family="Helvetica,sans-Serif" font-size="10.00">DynExp::TaskBase</text>
</a>
</g>
</g>
<!-- Node5&#45;&gt;Node4 -->
<g id="edge4_Node000004_Node000005" class="edge">
<title>Node5&#45;&gt;Node4</title>
<g id="a_edge4_Node000004_Node000005"><a xlink:title=" ">
<path fill="none" stroke="#63b8ff" d="M116.14,-39C124.58,-39 133.29,-39 141.85,-39"/>
<polygon fill="#63b8ff" stroke="#63b8ff" points="116.01,-35.5 106.01,-39 116.01,-42.5 116.01,-35.5"/>
</a>
</g>
</g>
</g>
</svg>
