<?xml version="1.0" encoding="UTF-8" standalone="no"?>
<!DOCTYPE svg PUBLIC "-//W3C//DTD SVG 1.1//EN"
 "http://www.w3.org/Graphics/SVG/1.1/DTD/svg11.dtd">
<!-- Generated by graphviz version 2.43.0 (0)
 -->
<!-- Title: DynExpInstr::WidefieldLocalizationTasks::ImageProcessingTaskBase Pages: 1 -->
<svg width="416pt" height="186pt"
 viewBox="0.00 0.00 416.00 186.00" xmlns="http://www.w3.org/2000/svg" xmlns:xlink="http://www.w3.org/1999/xlink">
<g id="graph0" class="graph" transform="scale(1 1) rotate(0) translate(4 182)">
<title>DynExpInstr::WidefieldLocalizationTasks::ImageProcessingTaskBase</title>
<polygon fill="white" stroke="transparent" points="-4,4 -4,-182 412,-182 412,4 -4,4"/>
<!-- Node1 -->
<g id="node1" class="node">
<title>Node1</title>
<g id="a_node1"><a xlink:title=" ">
<polygon fill="#bfbfbf" stroke="black" points="0,-73.5 0,-103.5 186,-103.5 186,-73.5 0,-73.5"/>
<text text-anchor="start" x="8" y="-91.5" font-family="Helvetica,sans-Serif" font-size="10.00">DynExpInstr::WidefieldLocalization</text>
<text text-anchor="middle" x="93" y="-80.5" font-family="Helvetica,sans-Serif" font-size="10.00">Tasks::ImageProcessingTaskBase</text>
</a>
</g>
</g>
<!-- Node2 -->
<g id="node2" class="node">
<title>Node2</title>
<g id="a_node2"><a xlink:href="classDynExpInstr_1_1WidefieldLocalizationTasks_1_1AnalyzeDistortionTask.html" target="_top" xlink:title=" ">
<polygon fill="white" stroke="black" points="222,-147.5 222,-177.5 408,-177.5 408,-147.5 222,-147.5"/>
<text text-anchor="start" x="230" y="-165.5" font-family="Helvetica,sans-Serif" font-size="10.00">DynExpInstr::WidefieldLocalization</text>
<text text-anchor="middle" x="315" y="-154.5" font-family="Helvetica,sans-Serif" font-size="10.00">Tasks::AnalyzeDistortionTask</text>
</a>
</g>
</g>
<!-- Node1&#45;&gt;Node2 -->
<g id="edge1" class="edge">
<title>Node1&#45;&gt;Node2</title>
<path fill="none" stroke="#8b1a1a" d="M138.53,-107.38C162.93,-117.35 193.85,-129.37 222,-138.5 231.73,-141.66 242.15,-144.7 252.35,-147.48"/>
<polygon fill="#8b1a1a" stroke="#8b1a1a" points="139.76,-104.1 129.18,-103.53 137.1,-110.57 139.76,-104.1"/>
</g>
<!-- Node3 -->
<g id="node3" class="node">
<title>Node3</title>
<g id="a_node3"><a xlink:href="classDynExpInstr_1_1WidefieldLocalizationTasks_1_1AnalyzeWidefieldTask.html" target="_top" xlink:title=" ">
<polygon fill="white" stroke="black" points="222,-98.5 222,-128.5 408,-128.5 408,-98.5 222,-98.5"/>
<text text-anchor="start" x="230" y="-116.5" font-family="Helvetica,sans-Serif" font-size="10.00">DynExpInstr::WidefieldLocalization</text>
<text text-anchor="middle" x="315" y="-105.5" font-family="Helvetica,sans-Serif" font-size="10.00">Tasks::AnalyzeWidefieldTask</text>
</a>
</g>
</g>
<!-- Node1&#45;&gt;Node3 -->
<g id="edge2" class="edge">
<title>Node1&#45;&gt;Node3</title>
<path fill="none" stroke="#8b1a1a" d="M196.11,-100.1C204.75,-101.08 213.44,-102.07 221.99,-103.04"/>
<polygon fill="#8b1a1a" stroke="#8b1a1a" points="196.36,-96.61 186.03,-98.96 195.57,-103.56 196.36,-96.61"/>
</g>
<!-- Node4 -->
<g id="node4" class="node">
<title>Node4</title>
<g id="a_node4"><a xlink:href="classDynExpInstr_1_1WidefieldLocalizationTasks_1_1ReadCellIDTask.html" target="_top" xlink:title=" ">
<polygon fill="white" stroke="black" points="222,-49.5 222,-79.5 408,-79.5 408,-49.5 222,-49.5"/>
<text text-anchor="start" x="230" y="-67.5" font-family="Helvetica,sans-Serif" font-size="10.00">DynExpInstr::WidefieldLocalization</text>
<text text-anchor="middle" x="315" y="-56.5" font-family="Helvetica,sans-Serif" font-size="10.00">Tasks::ReadCellIDTask</text>
</a>
</g>
</g>
<!-- Node1&#45;&gt;Node4 -->
<g id="edge3" class="edge">
<title>Node1&#45;&gt;Node4</title>
<path fill="none" stroke="#8b1a1a" d="M196.11,-77.36C204.75,-76.42 213.44,-75.47 221.99,-74.54"/>
<polygon fill="#8b1a1a" stroke="#8b1a1a" points="195.59,-73.9 186.03,-78.46 196.35,-80.86 195.59,-73.9"/>
</g>
<!-- Node5 -->
<g id="node5" class="node">
<title>Node5</title>
<g id="a_node5"><a xlink:href="classDynExpInstr_1_1WidefieldLocalizationTasks_1_1RecallPositionsTask.html" target="_top" xlink:title=" ">
<polygon fill="white" stroke="black" points="222,-0.5 222,-30.5 408,-30.5 408,-0.5 222,-0.5"/>
<text text-anchor="start" x="230" y="-18.5" font-family="Helvetica,sans-Serif" font-size="10.00">DynExpInstr::WidefieldLocalization</text>
<text text-anchor="middle" x="315" y="-7.5" font-family="Helvetica,sans-Serif" font-size="10.00">Tasks::RecallPositionsTask</text>
</a>
</g>
</g>
<!-- Node1&#45;&gt;Node5 -->
<g id="edge4" class="edge">
<title>Node1&#45;&gt;Node5</title>
<path fill="none" stroke="#8b1a1a" d="M140.8,-69.75C164.87,-60.41 194.8,-49.27 222,-40.5 232.71,-37.04 244.22,-33.66 255.36,-30.55"/>
<polygon fill="#8b1a1a" stroke="#8b1a1a" points="139.24,-66.6 131.2,-73.5 141.79,-73.12 139.24,-66.6"/>
</g>
</g>
</svg>
