<?xml version="1.0" encoding="UTF-8" standalone="no"?>
<!DOCTYPE svg PUBLIC "-//W3C//DTD SVG 1.1//EN"
 "http://www.w3.org/Graphics/SVG/1.1/DTD/svg11.dtd">
<!-- Generated by graphviz version 2.43.0 (0)
 -->
<!-- Title: Util::QWorker Pages: 1 -->
<svg width="360pt" height="218pt"
 viewBox="0.00 0.00 360.00 218.00" xmlns="http://www.w3.org/2000/svg" xmlns:xlink="http://www.w3.org/1999/xlink">
<g id="graph0" class="graph" transform="scale(1 1) rotate(0) translate(4 214)">
<title>Util::QWorker</title>
<polygon fill="white" stroke="transparent" points="-4,4 -4,-214 356,-214 356,4 -4,4"/>
<!-- Node1 -->
<g id="node1" class="node">
<title>Node1</title>
<g id="a_node1"><a xlink:title="Implements a QObject belonging to a hardware adapter (derived from DynExp::HardwareAdapterBase) that ...">
<polygon fill="#bfbfbf" stroke="black" points="138,-134.5 138,-153.5 219,-153.5 219,-134.5 138,-134.5"/>
<text text-anchor="middle" x="178.5" y="-141.5" font-family="Helvetica,sans-Serif" font-size="10.00">Util::QWorker</text>
</a>
</g>
</g>
<!-- Node3 -->
<g id="node3" class="node">
<title>Node3</title>
<g id="a_node3"><a xlink:href="classDynExp_1_1QSerialCommunicationHardwareAdapterWorker.html" target="_top" xlink:title="Qt worker which performs actual serial communication hardware operations in a separate thread in orde...">
<polygon fill="white" stroke="black" points="92,-67.5 92,-97.5 265,-97.5 265,-67.5 92,-67.5"/>
<text text-anchor="start" x="100" y="-85.5" font-family="Helvetica,sans-Serif" font-size="10.00">DynExp::QSerialCommunication</text>
<text text-anchor="middle" x="178.5" y="-74.5" font-family="Helvetica,sans-Serif" font-size="10.00">HardwareAdapterWorker</text>
</a>
</g>
</g>
<!-- Node1&#45;&gt;Node3 -->
<g id="edge2" class="edge">
<title>Node1&#45;&gt;Node3</title>
<path fill="none" stroke="midnightblue" d="M178.5,-124.23C178.5,-115.59 178.5,-105.5 178.5,-97.52"/>
<polygon fill="midnightblue" stroke="midnightblue" points="175,-124.48 178.5,-134.48 182,-124.48 175,-124.48"/>
</g>
<!-- Node2 -->
<g id="node2" class="node">
<title>Node2</title>
<g id="a_node2"><a xlink:title=" ">
<polygon fill="white" stroke="#bfbfbf" points="150.5,-190.5 150.5,-209.5 206.5,-209.5 206.5,-190.5 150.5,-190.5"/>
<text text-anchor="middle" x="178.5" y="-197.5" font-family="Helvetica,sans-Serif" font-size="10.00">QObject</text>
</a>
</g>
</g>
<!-- Node2&#45;&gt;Node1 -->
<g id="edge1" class="edge">
<title>Node2&#45;&gt;Node1</title>
<path fill="none" stroke="midnightblue" d="M178.5,-179.8C178.5,-170.91 178.5,-160.78 178.5,-153.75"/>
<polygon fill="midnightblue" stroke="midnightblue" points="175,-180.08 178.5,-190.08 182,-180.08 175,-180.08"/>
</g>
<!-- Node4 -->
<g id="node4" class="node">
<title>Node4</title>
<g id="a_node4"><a xlink:href="classDynExp_1_1HardwareAdapterSerialPortWorker.html" target="_top" xlink:title="Qt worker for serial/COM port communication in a separate thread.">
<polygon fill="white" stroke="black" points="0,-0.5 0,-30.5 173,-30.5 173,-0.5 0,-0.5"/>
<text text-anchor="start" x="8" y="-18.5" font-family="Helvetica,sans-Serif" font-size="10.00">DynExp::HardwareAdapterSerial</text>
<text text-anchor="middle" x="86.5" y="-7.5" font-family="Helvetica,sans-Serif" font-size="10.00">PortWorker</text>
</a>
</g>
</g>
<!-- Node3&#45;&gt;Node4 -->
<g id="edge3" class="edge">
<title>Node3&#45;&gt;Node4</title>
<path fill="none" stroke="midnightblue" d="M150.12,-61.45C135.97,-51.45 119.19,-39.6 106.42,-30.58"/>
<polygon fill="midnightblue" stroke="midnightblue" points="148.35,-64.48 158.54,-67.4 152.39,-58.77 148.35,-64.48"/>
</g>
<!-- Node5 -->
<g id="node5" class="node">
<title>Node5</title>
<g id="a_node5"><a xlink:href="classDynExp_1_1HardwareAdapterTcpSocketWorker.html" target="_top" xlink:title="Qt worker for network communication in a separate thread.">
<polygon fill="white" stroke="black" points="191,-0.5 191,-30.5 352,-30.5 352,-0.5 191,-0.5"/>
<text text-anchor="start" x="199" y="-18.5" font-family="Helvetica,sans-Serif" font-size="10.00">DynExp::HardwareAdapterTcp</text>
<text text-anchor="middle" x="271.5" y="-7.5" font-family="Helvetica,sans-Serif" font-size="10.00">SocketWorker</text>
</a>
</g>
</g>
<!-- Node3&#45;&gt;Node5 -->
<g id="edge4" class="edge">
<title>Node3&#45;&gt;Node5</title>
<path fill="none" stroke="midnightblue" d="M207.19,-61.45C221.49,-51.45 238.45,-39.6 251.36,-30.58"/>
<polygon fill="midnightblue" stroke="midnightblue" points="204.87,-58.8 198.68,-67.4 208.88,-64.54 204.87,-58.8"/>
</g>
</g>
</svg>
