<?xml version="1.0" encoding="UTF-8" standalone="no"?>
<!DOCTYPE svg PUBLIC "-//W3C//DTD SVG 1.1//EN"
 "http://www.w3.org/Graphics/SVG/1.1/DTD/svg11.dtd">
<!-- Generated by graphviz version 2.43.0 (0)
 -->
<!-- Title: DynExp::ParamsBase::Param&lt; ParamType, std::enable_if_t&lt; std::is_base_of_v&lt; IndexedTextList, ParamType &gt; &gt; &gt; Pages: 1 -->
<svg width="184pt" height="206pt"
 viewBox="0.00 0.00 184.00 206.00" xmlns="http://www.w3.org/2000/svg" xmlns:xlink="http://www.w3.org/1999/xlink">
<g id="graph0" class="graph" transform="scale(1 1) rotate(0) translate(4 202)">
<title>DynExp::ParamsBase::Param&lt; ParamType, std::enable_if_t&lt; std::is_base_of_v&lt; IndexedTextList, ParamType &gt; &gt; &gt;</title>
<polygon fill="white" stroke="transparent" points="-4,4 -4,-202 180,-202 180,4 -4,4"/>
<!-- Node1 -->
<g id="node1" class="node">
<title>Node1</title>
<g id="a_node1"><a xlink:title="Parameter for indexed strings selected from a predefined list of strings. If ParamType is of type Par...">
<polygon fill="#bfbfbf" stroke="black" points="0,-0.5 0,-63.5 176,-63.5 176,-0.5 0,-0.5"/>
<text text-anchor="start" x="8" y="-51.5" font-family="Helvetica,sans-Serif" font-size="10.00">DynExp::ParamsBase</text>
<text text-anchor="start" x="8" y="-40.5" font-family="Helvetica,sans-Serif" font-size="10.00">::Param&lt; ParamType,</text>
<text text-anchor="start" x="8" y="-29.5" font-family="Helvetica,sans-Serif" font-size="10.00"> std::enable_if_t&lt; std</text>
<text text-anchor="start" x="8" y="-18.5" font-family="Helvetica,sans-Serif" font-size="10.00">::is_base_of_v&lt; IndexedTextList,</text>
<text text-anchor="middle" x="88" y="-7.5" font-family="Helvetica,sans-Serif" font-size="10.00"> ParamType &gt; &gt; &gt;</text>
</a>
</g>
</g>
<!-- Node2 -->
<g id="node2" class="node">
<title>Node2</title>
<g id="a_node2"><a xlink:href="classDynExp_1_1ParamsBase_1_1TypedParamBase.html" target="_top" xlink:title="Base class of parameters containing a single value.">
<polygon fill="white" stroke="black" points="15,-100.5 15,-130.5 161,-130.5 161,-100.5 15,-100.5"/>
<text text-anchor="start" x="23" y="-118.5" font-family="Helvetica,sans-Serif" font-size="10.00">UnderlyingIndexedTextList</text>
<text text-anchor="middle" x="88" y="-107.5" font-family="Helvetica,sans-Serif" font-size="10.00">ParamType</text>
</a>
</g>
</g>
<!-- Node2&#45;&gt;Node1 -->
<g id="edge1" class="edge">
<title>Node2&#45;&gt;Node1</title>
<path fill="none" stroke="midnightblue" d="M88,-90.12C88,-81.78 88,-72.34 88,-63.57"/>
<polygon fill="midnightblue" stroke="midnightblue" points="84.5,-90.3 88,-100.3 91.5,-90.3 84.5,-90.3"/>
</g>
<!-- Node3 -->
<g id="node3" class="node">
<title>Node3</title>
<g id="a_node3"><a xlink:href="classDynExp_1_1ParamsBase_1_1ParamBase.html" target="_top" xlink:title="Abstract base class for a single object parameter. Parameters derived from this class are automatical...">
<polygon fill="white" stroke="black" points="28,-167.5 28,-197.5 148,-197.5 148,-167.5 28,-167.5"/>
<text text-anchor="start" x="36" y="-185.5" font-family="Helvetica,sans-Serif" font-size="10.00">DynExp::ParamsBase</text>
<text text-anchor="middle" x="88" y="-174.5" font-family="Helvetica,sans-Serif" font-size="10.00">::ParamBase</text>
</a>
</g>
</g>
<!-- Node3&#45;&gt;Node2 -->
<g id="edge2" class="edge">
<title>Node3&#45;&gt;Node2</title>
<path fill="none" stroke="midnightblue" d="M88,-157.11C88,-148.15 88,-138.32 88,-130.58"/>
<polygon fill="midnightblue" stroke="midnightblue" points="84.5,-157.4 88,-167.4 91.5,-157.4 84.5,-157.4"/>
</g>
</g>
</svg>
