<?xml version="1.0" encoding="UTF-8" standalone="no"?>
<!DOCTYPE svg PUBLIC "-//W3C//DTD SVG 1.1//EN"
 "http://www.w3.org/Graphics/SVG/1.1/DTD/svg11.dtd">
<!-- Generated by graphviz version 2.43.0 (0)
 -->
<!-- Title: DynExp::NetworkException Pages: 1 -->
<svg width="173pt" height="258pt"
 viewBox="0.00 0.00 173.00 258.00" xmlns="http://www.w3.org/2000/svg" xmlns:xlink="http://www.w3.org/1999/xlink">
<g id="graph0" class="graph" transform="scale(1 1) rotate(0) translate(4 254)">
<title>DynExp::NetworkException</title>
<!-- Node1 -->
<g id="Node000001" class="node">
<title>Node1</title>
<g id="a_Node000001"><a xlink:title="Defines an exception caused by a hardware operation on an ethernet interface (e.g....">
<polygon fill="#999999" stroke="#666666" points="157,-19 8,-19 8,0 157,0 157,-19"/>
<text text-anchor="middle" x="82.5" y="-7" font-family="Helvetica,sans-Serif" font-size="10.00">DynExp::NetworkException</text>
</a>
</g>
</g>
<!-- Node2 -->
<g id="Node000002" class="node">
<title>Node2</title>
<g id="a_Node000002"><a xlink:href="classDynExp_1_1SerialCommunicationException.html" target="_top" xlink:title="Defines an exception caused by a serial communication operation of a hardware adapter.">
<polygon fill="white" stroke="#666666" points="165,-85 0,-85 0,-55 165,-55 165,-85"/>
<text text-anchor="start" x="8" y="-73" font-family="Helvetica,sans-Serif" font-size="10.00">DynExp::SerialCommunication</text>
<text text-anchor="middle" x="82.5" y="-62" font-family="Helvetica,sans-Serif" font-size="10.00">Exception</text>
</a>
</g>
</g>
<!-- Node2&#45;&gt;Node1 -->
<g id="edge1_Node000001_Node000002" class="edge">
<title>Node2&#45;&gt;Node1</title>
<g id="a_edge1_Node000001_Node000002"><a xlink:title=" ">
<path fill="none" stroke="#63b8ff" d="M82.5,-44.75C82.5,-35.72 82.5,-26.03 82.5,-19.27"/>
<polygon fill="#63b8ff" stroke="#63b8ff" points="79,-44.84 82.5,-54.84 86,-44.84 79,-44.84"/>
</a>
</g>
</g>
<!-- Node3 -->
<g id="Node000003" class="node">
<title>Node3</title>
<g id="a_Node000003"><a xlink:href="classUtil_1_1Exception.html" target="_top" xlink:title="DynExp exceptions are derived from this class. It contains basic information about the cause of the e...">
<polygon fill="white" stroke="#666666" points="126.5,-140 38.5,-140 38.5,-121 126.5,-121 126.5,-140"/>
<text text-anchor="middle" x="82.5" y="-128" font-family="Helvetica,sans-Serif" font-size="10.00">Util::Exception</text>
</a>
</g>
</g>
<!-- Node3&#45;&gt;Node2 -->
<g id="edge2_Node000002_Node000003" class="edge">
<title>Node3&#45;&gt;Node2</title>
<g id="a_edge2_Node000002_Node000003"><a xlink:title=" ">
<path fill="none" stroke="#63b8ff" d="M82.5,-110.65C82.5,-102.36 82.5,-92.78 82.5,-85.11"/>
<polygon fill="#63b8ff" stroke="#63b8ff" points="79,-110.87 82.5,-120.87 86,-110.87 79,-110.87"/>
</a>
</g>
</g>
<!-- Node4 -->
<g id="Node000004" class="node">
<title>Node4</title>
<g id="a_Node000004"><a xlink:title=" ">
<polygon fill="white" stroke="#666666" points="134.5,-195 30.5,-195 30.5,-176 134.5,-176 134.5,-195"/>
<text text-anchor="middle" x="82.5" y="-183" font-family="Helvetica,sans-Serif" font-size="10.00">std::runtime_error</text>
</a>
</g>
</g>
<!-- Node4&#45;&gt;Node3 -->
<g id="edge3_Node000003_Node000004" class="edge">
<title>Node4&#45;&gt;Node3</title>
<g id="a_edge3_Node000003_Node000004"><a xlink:title=" ">
<path fill="none" stroke="#63b8ff" d="M82.5,-165.66C82.5,-156.93 82.5,-146.99 82.5,-140.09"/>
<polygon fill="#63b8ff" stroke="#63b8ff" points="79,-165.75 82.5,-175.75 86,-165.75 79,-165.75"/>
</a>
</g>
</g>
<!-- Node5 -->
<g id="Node000005" class="node">
<title>Node5</title>
<g id="a_Node000005"><a xlink:title=" ">
<polygon fill="white" stroke="#666666" points="125.5,-250 39.5,-250 39.5,-231 125.5,-231 125.5,-250"/>
<text text-anchor="middle" x="82.5" y="-238" font-family="Helvetica,sans-Serif" font-size="10.00">std::exception</text>
</a>
</g>
</g>
<!-- Node5&#45;&gt;Node4 -->
<g id="edge4_Node000004_Node000005" class="edge">
<title>Node5&#45;&gt;Node4</title>
<g id="a_edge4_Node000004_Node000005"><a xlink:title=" ">
<path fill="none" stroke="#63b8ff" d="M82.5,-220.66C82.5,-211.93 82.5,-201.99 82.5,-195.09"/>
<polygon fill="#63b8ff" stroke="#63b8ff" points="79,-220.75 82.5,-230.75 86,-220.75 79,-220.75"/>
</a>
</g>
</g>
</g>
</svg>
