<?xml version="1.0" encoding="UTF-8" standalone="no"?>
<!DOCTYPE svg PUBLIC "-//W3C//DTD SVG 1.1//EN"
 "http://www.w3.org/Graphics/SVG/1.1/DTD/svg11.dtd">
<!-- Generated by graphviz version 2.43.0 (0)
 -->
<!-- Title: DynExpHardware::QutoolsTDCHardwareAdapter::QutoolsTDCSynchronizer Pages: 1 -->
<svg width="220pt" height="148pt"
 viewBox="0.00 0.00 220.00 148.00" xmlns="http://www.w3.org/2000/svg" xmlns:xlink="http://www.w3.org/1999/xlink">
<g id="graph0" class="graph" transform="scale(1 1) rotate(0) translate(4 144)">
<title>DynExpHardware::QutoolsTDCHardwareAdapter::QutoolsTDCSynchronizer</title>
<!-- Node1 -->
<g id="Node000001" class="node">
<title>Node1</title>
<g id="a_Node000001"><a xlink:title="Only one instance of this class is allowed for synchronizing calls to connected qutools time taggers....">
<polygon fill="#999999" stroke="#666666" points="212,-30 0,-30 0,0 212,0 212,-30"/>
<text text-anchor="start" x="8" y="-18" font-family="Helvetica,sans-Serif" font-size="10.00">DynExpHardware::QutoolsTDCHardware</text>
<text text-anchor="middle" x="106" y="-7" font-family="Helvetica,sans-Serif" font-size="10.00">Adapter::QutoolsTDCSynchronizer</text>
</a>
</g>
</g>
<!-- Node2 -->
<g id="Node000002" class="node">
<title>Node2</title>
<g id="a_Node000002"><a xlink:href="classUtil_1_1ILockable.html" target="_top" xlink:title="Interface to allow synchronizing the access to derived classes between different threads by providing...">
<polygon fill="white" stroke="#666666" points="149,-85 63,-85 63,-66 149,-66 149,-85"/>
<text text-anchor="middle" x="106" y="-73" font-family="Helvetica,sans-Serif" font-size="10.00">Util::ILockable</text>
</a>
</g>
</g>
<!-- Node2&#45;&gt;Node1 -->
<g id="edge1_Node000001_Node000002" class="edge">
<title>Node2&#45;&gt;Node1</title>
<g id="a_edge1_Node000001_Node000002"><a xlink:title=" ">
<path fill="none" stroke="#63b8ff" d="M106,-55.65C106,-47.36 106,-37.78 106,-30.11"/>
<polygon fill="#63b8ff" stroke="#63b8ff" points="102.5,-55.87 106,-65.87 109.5,-55.87 102.5,-55.87"/>
</a>
</g>
</g>
<!-- Node3 -->
<g id="Node000003" class="node">
<title>Node3</title>
<g id="a_Node000003"><a xlink:href="classUtil_1_1INonCopyable.html" target="_top" xlink:title="Interface to delete copy constructor and copy assignment operator and thus make derived classes non&#45;c...">
<polygon fill="white" stroke="#666666" points="160,-140 52,-140 52,-121 160,-121 160,-140"/>
<text text-anchor="middle" x="106" y="-128" font-family="Helvetica,sans-Serif" font-size="10.00">Util::INonCopyable</text>
</a>
</g>
</g>
<!-- Node3&#45;&gt;Node2 -->
<g id="edge2_Node000002_Node000003" class="edge">
<title>Node3&#45;&gt;Node2</title>
<g id="a_edge2_Node000002_Node000003"><a xlink:title=" ">
<path fill="none" stroke="#63b8ff" d="M106,-110.66C106,-101.93 106,-91.99 106,-85.09"/>
<polygon fill="#63b8ff" stroke="#63b8ff" points="102.5,-110.75 106,-120.75 109.5,-110.75 102.5,-110.75"/>
</a>
</g>
</g>
</g>
</svg>
