<?xml version="1.0" encoding="UTF-8" standalone="no"?>
<!DOCTYPE svg PUBLIC "-//W3C//DTD SVG 1.1//EN"
 "http://www.w3.org/Graphics/SVG/1.1/DTD/svg11.dtd">
<!-- Generated by graphviz version 2.43.0 (0)
 -->
<!-- Title: DynExp::InterModuleEventBase Pages: 1 -->
<svg width="787pt" height="746pt"
 viewBox="0.00 0.00 787.00 746.00" xmlns="http://www.w3.org/2000/svg" xmlns:xlink="http://www.w3.org/1999/xlink">
<g id="graph0" class="graph" transform="scale(1 1) rotate(0) translate(4 742)">
<title>DynExp::InterModuleEventBase</title>
<!-- Node1 -->
<g id="Node000001" class="node">
<title>Node1</title>
<g id="a_Node000001"><a xlink:title="Common base class for all inter&#45;module events.">
<polygon fill="#999999" stroke="#666666" points="318,-366.5 148,-366.5 148,-347.5 318,-347.5 318,-366.5"/>
<text text-anchor="middle" x="233" y="-354.5" font-family="Helvetica,sans-Serif" font-size="10.00">DynExp::InterModuleEventBase</text>
</a>
</g>
</g>
<!-- Node3 -->
<g id="Node000003" class="node">
<title>Node3</title>
<g id="a_Node000003"><a xlink:href="classDynExp_1_1InterModuleEvent.html" target="_top" xlink:title=" ">
<polygon fill="white" stroke="#666666" points="528.5,-738 382.5,-738 382.5,-708 528.5,-708 528.5,-738"/>
<text text-anchor="start" x="390.5" y="-726" font-family="Helvetica,sans-Serif" font-size="10.00">DynExp::InterModuleEvent</text>
<text text-anchor="middle" x="455.5" y="-715" font-family="Helvetica,sans-Serif" font-size="10.00">&lt; AutofocusEvent, bool &gt;</text>
</a>
</g>
</g>
<!-- Node1&#45;&gt;Node3 -->
<g id="edge2_Node000001_Node000003" class="edge">
<title>Node1&#45;&gt;Node3</title>
<g id="a_edge2_Node000001_Node000003"><a xlink:title=" ">
<path fill="none" stroke="#63b8ff" d="M234.68,-376.8C237.83,-435.51 255.44,-610.1 354,-699 362.06,-706.27 371.92,-711.44 382.29,-715.1"/>
<polygon fill="#63b8ff" stroke="#63b8ff" points="238.17,-376.49 234.23,-366.66 231.18,-376.81 238.17,-376.49"/>
</a>
</g>
</g>
<!-- Node5 -->
<g id="Node000005" class="node">
<title>Node5</title>
<g id="a_Node000005"><a xlink:href="classDynExp_1_1InterModuleEvent.html" target="_top" xlink:title=" ">
<polygon fill="white" stroke="#666666" points="529.5,-689.5 381.5,-689.5 381.5,-648.5 529.5,-648.5 529.5,-689.5"/>
<text text-anchor="start" x="389.5" y="-677.5" font-family="Helvetica,sans-Serif" font-size="10.00">DynExp::InterModuleEvent</text>
<text text-anchor="start" x="389.5" y="-666.5" font-family="Helvetica,sans-Serif" font-size="10.00">&lt; FinishedAutofocusEvent,</text>
<text text-anchor="middle" x="455.5" y="-655.5" font-family="Helvetica,sans-Serif" font-size="10.00"> bool, double &gt;</text>
</a>
</g>
</g>
<!-- Node1&#45;&gt;Node5 -->
<g id="edge4_Node000001_Node000005" class="edge">
<title>Node1&#45;&gt;Node5</title>
<g id="a_edge4_Node000001_Node000005"><a xlink:title=" ">
<path fill="none" stroke="#63b8ff" d="M236.6,-376.77C244.39,-427.97 272.3,-565.99 354,-639 361.87,-646.04 371.34,-651.43 381.27,-655.55"/>
<polygon fill="#63b8ff" stroke="#63b8ff" points="240.04,-376.11 235.16,-366.71 233.11,-377.1 240.04,-376.11"/>
</a>
</g>
</g>
<!-- Node7 -->
<g id="Node000007" class="node">
<title>Node7</title>
<g id="a_Node000007"><a xlink:href="classDynExp_1_1InterModuleEvent.html" target="_top" xlink:title=" ">
<polygon fill="white" stroke="#666666" points="545,-630 366,-630 366,-600 545,-600 545,-630"/>
<text text-anchor="start" x="374" y="-618" font-family="Helvetica,sans-Serif" font-size="10.00">DynExp::InterModuleEvent</text>
<text text-anchor="middle" x="455.5" y="-607" font-family="Helvetica,sans-Serif" font-size="10.00">&lt; ImageCapturingPausedEvent &gt;</text>
</a>
</g>
</g>
<!-- Node1&#45;&gt;Node7 -->
<g id="edge6_Node000001_Node000007" class="edge">
<title>Node1&#45;&gt;Node7</title>
<g id="a_edge6_Node000001_Node000007"><a xlink:title=" ">
<path fill="none" stroke="#63b8ff" d="M238.18,-376.65C248.88,-421.95 281.68,-534.21 354,-591 358.37,-594.43 363.16,-597.39 368.2,-599.93"/>
<polygon fill="#63b8ff" stroke="#63b8ff" points="241.59,-375.86 235.97,-366.87 234.76,-377.4 241.59,-375.86"/>
</a>
</g>
</g>
<!-- Node9 -->
<g id="Node000009" class="node">
<title>Node9</title>
<g id="a_Node000009"><a xlink:href="classDynExp_1_1InterModuleEvent.html" target="_top" xlink:title=" ">
<polygon fill="white" stroke="#666666" points="551,-582 360,-582 360,-552 551,-552 551,-582"/>
<text text-anchor="start" x="368" y="-570" font-family="Helvetica,sans-Serif" font-size="10.00">DynExp::InterModuleEvent</text>
<text text-anchor="middle" x="455.5" y="-559" font-family="Helvetica,sans-Serif" font-size="10.00">&lt; ImageCapturingResumedEvent &gt;</text>
</a>
</g>
</g>
<!-- Node1&#45;&gt;Node9 -->
<g id="edge8_Node000001_Node000009" class="edge">
<title>Node1&#45;&gt;Node9</title>
<g id="a_edge8_Node000001_Node000009"><a xlink:title=" ">
<path fill="none" stroke="#63b8ff" d="M240.83,-376.41C255.32,-414.64 292.91,-499.75 354,-543 358.83,-546.42 364.09,-549.36 369.58,-551.88"/>
<polygon fill="#63b8ff" stroke="#63b8ff" points="243.94,-374.72 237.21,-366.54 237.37,-377.13 243.94,-374.72"/>
</a>
</g>
</g>
<!-- Node11 -->
<g id="Node000011" class="node">
<title>Node11</title>
<g id="a_Node000011"><a xlink:href="classDynExp_1_1InterModuleEvent.html" target="_top" xlink:title=" ">
<polygon fill="white" stroke="#666666" points="538,-533.5 373,-533.5 373,-492.5 538,-492.5 538,-533.5"/>
<text text-anchor="start" x="381" y="-521.5" font-family="Helvetica,sans-Serif" font-size="10.00">DynExp::InterModuleEvent</text>
<text text-anchor="start" x="381" y="-510.5" font-family="Helvetica,sans-Serif" font-size="10.00">&lt; PauseImageCapturingEvent,</text>
<text text-anchor="middle" x="455.5" y="-499.5" font-family="Helvetica,sans-Serif" font-size="10.00"> bool &gt;</text>
</a>
</g>
</g>
<!-- Node1&#45;&gt;Node11 -->
<g id="edge10_Node000001_Node000011" class="edge">
<title>Node1&#45;&gt;Node11</title>
<g id="a_edge10_Node000001_Node000011"><a xlink:title=" ">
<path fill="none" stroke="#63b8ff" d="M246.41,-375.12C266.08,-402.49 307.03,-454.21 354,-483 359.9,-486.62 366.26,-489.82 372.82,-492.65"/>
<polygon fill="#63b8ff" stroke="#63b8ff" points="249.2,-373 240.58,-366.84 243.48,-377.04 249.2,-373"/>
</a>
</g>
</g>
<!-- Node13 -->
<g id="Node000013" class="node">
<title>Node13</title>
<g id="a_Node000013"><a xlink:href="classDynExp_1_1InterModuleEvent.html" target="_top" xlink:title=" ">
<polygon fill="white" stroke="#666666" points="548,-474 363,-474 363,-444 548,-444 548,-474"/>
<text text-anchor="start" x="371" y="-462" font-family="Helvetica,sans-Serif" font-size="10.00">DynExp::InterModuleEvent</text>
<text text-anchor="middle" x="455.5" y="-451" font-family="Helvetica,sans-Serif" font-size="10.00">&lt; ResumeImageCapturingEvent &gt;</text>
</a>
</g>
</g>
<!-- Node1&#45;&gt;Node13 -->
<g id="edge12_Node000001_Node000013" class="edge">
<title>Node1&#45;&gt;Node13</title>
<g id="a_edge12_Node000001_Node000013"><a xlink:title=" ">
<path fill="none" stroke="#63b8ff" d="M253.72,-372.89C276.56,-390.53 315.94,-418.66 354,-435 361.91,-438.4 370.39,-441.36 378.95,-443.94"/>
<polygon fill="#63b8ff" stroke="#63b8ff" points="255.84,-370.1 245.82,-366.69 251.52,-375.61 255.84,-370.1"/>
</a>
</g>
</g>
<!-- Node15 -->
<g id="Node000015" class="node">
<title>Node15</title>
<g id="a_Node000015"><a xlink:href="classDynExp_1_1InterModuleEvent.html" target="_top" xlink:title=" ">
<polygon fill="white" stroke="#666666" points="551,-426 360,-426 360,-396 551,-396 551,-426"/>
<text text-anchor="start" x="368" y="-414" font-family="Helvetica,sans-Serif" font-size="10.00">DynExp::InterModuleEvent</text>
<text text-anchor="middle" x="455.5" y="-403" font-family="Helvetica,sans-Serif" font-size="10.00">&lt; PauseSpectrumRecordingEvent &gt;</text>
</a>
</g>
</g>
<!-- Node1&#45;&gt;Node15 -->
<g id="edge14_Node000001_Node000015" class="edge">
<title>Node1&#45;&gt;Node15</title>
<g id="a_edge14_Node000001_Node000015"><a xlink:title=" ">
<path fill="none" stroke="#63b8ff" d="M282.65,-368.91C315.17,-376.88 358.21,-387.42 393.09,-395.96"/>
<polygon fill="#63b8ff" stroke="#63b8ff" points="283.46,-365.51 272.91,-366.53 281.79,-372.31 283.46,-365.51"/>
</a>
</g>
</g>
<!-- Node17 -->
<g id="Node000017" class="node">
<title>Node17</title>
<g id="a_Node000017"><a xlink:href="classDynExp_1_1InterModuleEvent.html" target="_top" xlink:title=" ">
<polygon fill="white" stroke="#666666" points="528.5,-377.5 382.5,-377.5 382.5,-336.5 528.5,-336.5 528.5,-377.5"/>
<text text-anchor="start" x="390.5" y="-365.5" font-family="Helvetica,sans-Serif" font-size="10.00">DynExp::InterModuleEvent</text>
<text text-anchor="start" x="390.5" y="-354.5" font-family="Helvetica,sans-Serif" font-size="10.00">&lt; RecordSpectrumEvent,</text>
<text text-anchor="middle" x="455.5" y="-343.5" font-family="Helvetica,sans-Serif" font-size="10.00"> std::string &gt;</text>
</a>
</g>
</g>
<!-- Node1&#45;&gt;Node17 -->
<g id="edge16_Node000001_Node000017" class="edge">
<title>Node1&#45;&gt;Node17</title>
<g id="a_edge16_Node000001_Node000017"><a xlink:title=" ">
<path fill="none" stroke="#63b8ff" d="M328.31,-357C346.44,-357 365.17,-357 382.46,-357"/>
<polygon fill="#63b8ff" stroke="#63b8ff" points="328.31,-353.5 318.31,-357 328.31,-360.5 328.31,-353.5"/>
</a>
</g>
</g>
<!-- Node19 -->
<g id="Node000019" class="node">
<title>Node19</title>
<g id="a_Node000019"><a xlink:href="classDynExp_1_1InterModuleEvent.html" target="_top" xlink:title=" ">
<polygon fill="white" stroke="#666666" points="556.5,-318 354.5,-318 354.5,-288 556.5,-288 556.5,-318"/>
<text text-anchor="start" x="362.5" y="-306" font-family="Helvetica,sans-Serif" font-size="10.00">DynExp::InterModuleEvent</text>
<text text-anchor="middle" x="455.5" y="-295" font-family="Helvetica,sans-Serif" font-size="10.00">&lt; ResumeSpectrumRecordingEvent &gt;</text>
</a>
</g>
</g>
<!-- Node1&#45;&gt;Node19 -->
<g id="edge18_Node000001_Node000019" class="edge">
<title>Node1&#45;&gt;Node19</title>
<g id="a_edge18_Node000001_Node000019"><a xlink:title=" ">
<path fill="none" stroke="#63b8ff" d="M281.58,-344.98C303.6,-339.45 330.12,-332.84 354,-327 366.02,-324.06 378.87,-320.96 391.21,-318.01"/>
<polygon fill="#63b8ff" stroke="#63b8ff" points="280.65,-341.61 271.81,-347.44 282.36,-348.4 280.65,-341.61"/>
</a>
</g>
</g>
<!-- Node21 -->
<g id="Node000021" class="node">
<title>Node21</title>
<g id="a_Node000021"><a xlink:href="classDynExp_1_1InterModuleEvent.html" target="_top" xlink:title=" ">
<polygon fill="white" stroke="#666666" points="542.5,-270 368.5,-270 368.5,-240 542.5,-240 542.5,-270"/>
<text text-anchor="start" x="376.5" y="-258" font-family="Helvetica,sans-Serif" font-size="10.00">DynExp::InterModuleEvent</text>
<text text-anchor="middle" x="455.5" y="-247" font-family="Helvetica,sans-Serif" font-size="10.00">&lt; RecordSpectrumEvent, bool &gt;</text>
</a>
</g>
</g>
<!-- Node1&#45;&gt;Node21 -->
<g id="edge20_Node000001_Node000021" class="edge">
<title>Node1&#45;&gt;Node21</title>
<g id="a_edge20_Node000001_Node000021"><a xlink:title=" ">
<path fill="none" stroke="#63b8ff" d="M253.72,-341.11C276.56,-323.47 315.94,-295.34 354,-279 361.91,-275.6 370.39,-272.64 378.95,-270.06"/>
<polygon fill="#63b8ff" stroke="#63b8ff" points="251.52,-338.39 245.82,-347.31 255.84,-343.9 251.52,-338.39"/>
</a>
</g>
</g>
<!-- Node23 -->
<g id="Node000023" class="node">
<title>Node23</title>
<g id="a_Node000023"><a xlink:href="classDynExp_1_1InterModuleEvent.html" target="_top" xlink:title=" ">
<polygon fill="white" stroke="#666666" points="557,-222 354,-222 354,-192 557,-192 557,-222"/>
<text text-anchor="start" x="362" y="-210" font-family="Helvetica,sans-Serif" font-size="10.00">DynExp::InterModuleEvent</text>
<text text-anchor="middle" x="455.5" y="-199" font-family="Helvetica,sans-Serif" font-size="10.00">&lt; SpectrumFinishedRecordingEvent &gt;</text>
</a>
</g>
</g>
<!-- Node1&#45;&gt;Node23 -->
<g id="edge22_Node000001_Node000023" class="edge">
<title>Node1&#45;&gt;Node23</title>
<g id="a_edge22_Node000001_Node000023"><a xlink:title=" ">
<path fill="none" stroke="#63b8ff" d="M245.93,-338.96C265.23,-311.27 306.01,-258.61 354,-231 359.99,-227.56 366.44,-224.6 373.1,-222.08"/>
<polygon fill="#63b8ff" stroke="#63b8ff" points="242.97,-337.09 240.23,-347.32 248.76,-341.03 242.97,-337.09"/>
</a>
</g>
</g>
<!-- Node25 -->
<g id="Node000025" class="node">
<title>Node25</title>
<g id="a_Node000025"><a xlink:href="classDynExp_1_1InterModuleEvent.html" target="_top" xlink:title=" ">
<polygon fill="white" stroke="#666666" points="528.5,-174 382.5,-174 382.5,-144 528.5,-144 528.5,-174"/>
<text text-anchor="start" x="390.5" y="-162" font-family="Helvetica,sans-Serif" font-size="10.00">DynExp::InterModuleEvent</text>
<text text-anchor="middle" x="455.5" y="-151" font-family="Helvetica,sans-Serif" font-size="10.00">&lt; StartEvent &gt;</text>
</a>
</g>
</g>
<!-- Node1&#45;&gt;Node25 -->
<g id="edge24_Node000001_Node000025" class="edge">
<title>Node1&#45;&gt;Node25</title>
<g id="a_edge24_Node000001_Node000025"><a xlink:title=" ">
<path fill="none" stroke="#63b8ff" d="M241.62,-337.82C257.06,-301.56 295.59,-223.02 354,-183 362.51,-177.17 372.27,-172.75 382.28,-169.4"/>
<polygon fill="#63b8ff" stroke="#63b8ff" points="238.31,-336.66 237.73,-347.24 244.78,-339.34 238.31,-336.66"/>
</a>
</g>
</g>
<!-- Node27 -->
<g id="Node000027" class="node">
<title>Node27</title>
<g id="a_Node000027"><a xlink:href="classDynExp_1_1InterModuleEvent.html" target="_top" xlink:title=" ">
<polygon fill="white" stroke="#666666" points="528.5,-126 382.5,-126 382.5,-96 528.5,-96 528.5,-126"/>
<text text-anchor="start" x="390.5" y="-114" font-family="Helvetica,sans-Serif" font-size="10.00">DynExp::InterModuleEvent</text>
<text text-anchor="middle" x="455.5" y="-103" font-family="Helvetica,sans-Serif" font-size="10.00">&lt; StopEvent &gt;</text>
</a>
</g>
</g>
<!-- Node1&#45;&gt;Node27 -->
<g id="edge26_Node000001_Node000027" class="edge">
<title>Node1&#45;&gt;Node27</title>
<g id="a_edge26_Node000001_Node000027"><a xlink:title=" ">
<path fill="none" stroke="#63b8ff" d="M238.8,-337.19C250.48,-293.45 284.63,-188.26 354,-135 362.39,-128.55 372.26,-123.8 382.47,-120.31"/>
<polygon fill="#63b8ff" stroke="#63b8ff" points="235.35,-336.59 236.26,-347.14 242.13,-338.32 235.35,-336.59"/>
</a>
</g>
</g>
<!-- Node29 -->
<g id="Node000029" class="node">
<title>Node29</title>
<g id="a_Node000029"><a xlink:href="classDynExp_1_1InterModuleEvent.html" target="_top" xlink:title=" ">
<polygon fill="white" stroke="#666666" points="528.5,-78 382.5,-78 382.5,-48 528.5,-48 528.5,-78"/>
<text text-anchor="start" x="390.5" y="-66" font-family="Helvetica,sans-Serif" font-size="10.00">DynExp::InterModuleEvent</text>
<text text-anchor="middle" x="455.5" y="-55" font-family="Helvetica,sans-Serif" font-size="10.00">&lt; TriggerEvent &gt;</text>
</a>
</g>
</g>
<!-- Node1&#45;&gt;Node29 -->
<g id="edge28_Node000001_Node000029" class="edge">
<title>Node1&#45;&gt;Node29</title>
<g id="a_edge28_Node000001_Node000029"><a xlink:title=" ">
<path fill="none" stroke="#63b8ff" d="M236.76,-337.15C244.82,-286.96 273.12,-154.23 354,-87 362.21,-80.18 372.03,-75.23 382.27,-71.65"/>
<polygon fill="#63b8ff" stroke="#63b8ff" points="233.26,-336.89 235.23,-347.3 240.18,-337.94 233.26,-336.89"/>
</a>
</g>
</g>
<!-- Node31 -->
<g id="Node000031" class="node">
<title>Node31</title>
<g id="a_Node000031"><a xlink:href="classDynExp_1_1InterModuleEvent.html" target="_top" xlink:title="Typed base class for inter&#45;module events to realize CRTP.">
<polygon fill="white" stroke="#666666" points="547,-30 364,-30 364,0 547,0 547,-30"/>
<text text-anchor="start" x="372" y="-18" font-family="Helvetica,sans-Serif" font-size="10.00">DynExp::InterModuleEvent</text>
<text text-anchor="middle" x="455.5" y="-7" font-family="Helvetica,sans-Serif" font-size="10.00">&lt; DerivedEvent, EventFuncArgs &gt;</text>
</a>
</g>
</g>
<!-- Node1&#45;&gt;Node31 -->
<g id="edge30_Node000001_Node000031" class="edge">
<title>Node1&#45;&gt;Node31</title>
<g id="a_edge30_Node000001_Node000031"><a xlink:title=" ">
<path fill="none" stroke="#63b8ff" d="M235.28,-337.12C240.01,-281.08 261.4,-120.57 354,-39 357.9,-35.56 362.21,-32.59 366.78,-30.03"/>
<polygon fill="#63b8ff" stroke="#63b8ff" points="231.77,-337.2 234.51,-347.43 238.75,-337.72 231.77,-337.2"/>
</a>
</g>
</g>
<!-- Node2 -->
<g id="Node000002" class="node">
<title>Node2</title>
<g id="a_Node000002"><a xlink:href="classDynExp_1_1EventBase.html" target="_top" xlink:title="Common base class for all events to store them in a FIFO queue to be invoked later.">
<polygon fill="white" stroke="#666666" points="112,-366.5 0,-366.5 0,-347.5 112,-347.5 112,-366.5"/>
<text text-anchor="middle" x="56" y="-354.5" font-family="Helvetica,sans-Serif" font-size="10.00">DynExp::EventBase</text>
</a>
</g>
</g>
<!-- Node2&#45;&gt;Node1 -->
<g id="edge1_Node000001_Node000002" class="edge">
<title>Node2&#45;&gt;Node1</title>
<g id="a_edge1_Node000001_Node000002"><a xlink:title=" ">
<path fill="none" stroke="#63b8ff" d="M122.64,-357C130.89,-357 139.42,-357 147.9,-357"/>
<polygon fill="#63b8ff" stroke="#63b8ff" points="122.37,-353.5 112.37,-357 122.37,-360.5 122.37,-353.5"/>
</a>
</g>
</g>
<!-- Node4 -->
<g id="Node000004" class="node">
<title>Node4</title>
<g id="a_Node000004"><a xlink:href="classDynExpModule_1_1ImageViewer_1_1AutofocusEvent.html" target="_top" xlink:title=" ">
<polygon fill="white" stroke="#666666" points="766.5,-738 605.5,-738 605.5,-708 766.5,-708 766.5,-738"/>
<text text-anchor="start" x="613.5" y="-726" font-family="Helvetica,sans-Serif" font-size="10.00">DynExpModule::ImageViewer</text>
<text text-anchor="middle" x="686" y="-715" font-family="Helvetica,sans-Serif" font-size="10.00">::AutofocusEvent</text>
</a>
</g>
</g>
<!-- Node3&#45;&gt;Node4 -->
<g id="edge3_Node000003_Node000004" class="edge">
<title>Node3&#45;&gt;Node4</title>
<g id="a_edge3_Node000003_Node000004"><a xlink:title=" ">
<path fill="none" stroke="#63b8ff" d="M538.92,-723C560.53,-723 583.78,-723 605.24,-723"/>
<polygon fill="#63b8ff" stroke="#63b8ff" points="538.8,-719.5 528.8,-723 538.8,-726.5 538.8,-719.5"/>
</a>
</g>
</g>
<!-- Node6 -->
<g id="Node000006" class="node">
<title>Node6</title>
<g id="a_Node000006"><a xlink:href="classDynExpModule_1_1ImageViewer_1_1FinishedAutofocusEvent.html" target="_top" xlink:title=" ">
<polygon fill="white" stroke="#666666" points="766.5,-684 605.5,-684 605.5,-654 766.5,-654 766.5,-684"/>
<text text-anchor="start" x="613.5" y="-672" font-family="Helvetica,sans-Serif" font-size="10.00">DynExpModule::ImageViewer</text>
<text text-anchor="middle" x="686" y="-661" font-family="Helvetica,sans-Serif" font-size="10.00">::FinishedAutofocusEvent</text>
</a>
</g>
</g>
<!-- Node5&#45;&gt;Node6 -->
<g id="edge5_Node000005_Node000006" class="edge">
<title>Node5&#45;&gt;Node6</title>
<g id="a_edge5_Node000005_Node000006"><a xlink:title=" ">
<path fill="none" stroke="#63b8ff" d="M539.79,-669C561.22,-669 584.22,-669 605.46,-669"/>
<polygon fill="#63b8ff" stroke="#63b8ff" points="539.74,-665.5 529.74,-669 539.74,-672.5 539.74,-665.5"/>
</a>
</g>
</g>
<!-- Node8 -->
<g id="Node000008" class="node">
<title>Node8</title>
<g id="a_Node000008"><a xlink:href="classDynExpModule_1_1ImageViewer_1_1ImageCapturingPausedEvent.html" target="_top" xlink:title=" ">
<polygon fill="white" stroke="#666666" points="767.5,-630 604.5,-630 604.5,-600 767.5,-600 767.5,-630"/>
<text text-anchor="start" x="612.5" y="-618" font-family="Helvetica,sans-Serif" font-size="10.00">DynExpModule::ImageViewer</text>
<text text-anchor="middle" x="686" y="-607" font-family="Helvetica,sans-Serif" font-size="10.00">::ImageCapturingPausedEvent</text>
</a>
</g>
</g>
<!-- Node7&#45;&gt;Node8 -->
<g id="edge7_Node000007_Node000008" class="edge">
<title>Node7&#45;&gt;Node8</title>
<g id="a_edge7_Node000007_Node000008"><a xlink:title=" ">
<path fill="none" stroke="#63b8ff" d="M555.28,-615C571.62,-615 588.39,-615 604.22,-615"/>
<polygon fill="#63b8ff" stroke="#63b8ff" points="555.17,-611.5 545.17,-615 555.17,-618.5 555.17,-611.5"/>
</a>
</g>
</g>
<!-- Node10 -->
<g id="Node000010" class="node">
<title>Node10</title>
<g id="a_Node000010"><a xlink:href="classDynExpModule_1_1ImageViewer_1_1ImageCapturingResumedEvent.html" target="_top" xlink:title=" ">
<polygon fill="white" stroke="#666666" points="773,-582 599,-582 599,-552 773,-552 773,-582"/>
<text text-anchor="start" x="607" y="-570" font-family="Helvetica,sans-Serif" font-size="10.00">DynExpModule::ImageViewer</text>
<text text-anchor="middle" x="686" y="-559" font-family="Helvetica,sans-Serif" font-size="10.00">::ImageCapturingResumedEvent</text>
</a>
</g>
</g>
<!-- Node9&#45;&gt;Node10 -->
<g id="edge9_Node000009_Node000010" class="edge">
<title>Node9&#45;&gt;Node10</title>
<g id="a_edge9_Node000009_Node000010"><a xlink:title=" ">
<path fill="none" stroke="#63b8ff" d="M561.17,-567C573.8,-567 586.58,-567 598.9,-567"/>
<polygon fill="#63b8ff" stroke="#63b8ff" points="561.09,-563.5 551.09,-567 561.09,-570.5 561.09,-563.5"/>
</a>
</g>
</g>
<!-- Node12 -->
<g id="Node000012" class="node">
<title>Node12</title>
<g id="a_Node000012"><a xlink:href="classDynExpModule_1_1ImageViewer_1_1PauseImageCapturingEvent.html" target="_top" xlink:title=" ">
<polygon fill="white" stroke="#666666" points="766.5,-528 605.5,-528 605.5,-498 766.5,-498 766.5,-528"/>
<text text-anchor="start" x="613.5" y="-516" font-family="Helvetica,sans-Serif" font-size="10.00">DynExpModule::ImageViewer</text>
<text text-anchor="middle" x="686" y="-505" font-family="Helvetica,sans-Serif" font-size="10.00">::PauseImageCapturingEvent</text>
</a>
</g>
</g>
<!-- Node11&#45;&gt;Node12 -->
<g id="edge11_Node000011_Node000012" class="edge">
<title>Node11&#45;&gt;Node12</title>
<g id="a_edge11_Node000011_Node000012"><a xlink:title=" ">
<path fill="none" stroke="#63b8ff" d="M548.15,-513C567.11,-513 586.94,-513 605.42,-513"/>
<polygon fill="#63b8ff" stroke="#63b8ff" points="548.03,-509.5 538.03,-513 548.03,-516.5 548.03,-509.5"/>
</a>
</g>
</g>
<!-- Node14 -->
<g id="Node000014" class="node">
<title>Node14</title>
<g id="a_Node000014"><a xlink:href="classDynExpModule_1_1ImageViewer_1_1ResumeImageCapturingEvent.html" target="_top" xlink:title=" ">
<polygon fill="white" stroke="#666666" points="770,-474 602,-474 602,-444 770,-444 770,-474"/>
<text text-anchor="start" x="610" y="-462" font-family="Helvetica,sans-Serif" font-size="10.00">DynExpModule::ImageViewer</text>
<text text-anchor="middle" x="686" y="-451" font-family="Helvetica,sans-Serif" font-size="10.00">::ResumeImageCapturingEvent</text>
</a>
</g>
</g>
<!-- Node13&#45;&gt;Node14 -->
<g id="edge13_Node000013_Node000014" class="edge">
<title>Node13&#45;&gt;Node14</title>
<g id="a_edge13_Node000013_Node000014"><a xlink:title=" ">
<path fill="none" stroke="#63b8ff" d="M558.18,-459C572.78,-459 587.67,-459 601.86,-459"/>
<polygon fill="#63b8ff" stroke="#63b8ff" points="558.12,-455.5 548.12,-459 558.12,-462.5 558.12,-455.5"/>
</a>
</g>
</g>
<!-- Node16 -->
<g id="Node000016" class="node">
<title>Node16</title>
<g id="a_Node000016"><a xlink:href="classDynExpModule_1_1SpectrumViewer_1_1PauseSpectrumRecordingEvent.html" target="_top" xlink:title=" ">
<polygon fill="white" stroke="#666666" points="774,-426 598,-426 598,-396 774,-396 774,-426"/>
<text text-anchor="start" x="606" y="-414" font-family="Helvetica,sans-Serif" font-size="10.00">DynExpModule::SpectrumViewer</text>
<text text-anchor="middle" x="686" y="-403" font-family="Helvetica,sans-Serif" font-size="10.00">::PauseSpectrumRecordingEvent</text>
</a>
</g>
</g>
<!-- Node15&#45;&gt;Node16 -->
<g id="edge15_Node000015_Node000016" class="edge">
<title>Node15&#45;&gt;Node16</title>
<g id="a_edge15_Node000015_Node000016"><a xlink:title=" ">
<path fill="none" stroke="#63b8ff" d="M561.3,-411C573.51,-411 585.87,-411 597.81,-411"/>
<polygon fill="#63b8ff" stroke="#63b8ff" points="561.09,-407.5 551.09,-411 561.09,-414.5 561.09,-407.5"/>
</a>
</g>
</g>
<!-- Node18 -->
<g id="Node000018" class="node">
<title>Node18</title>
<g id="a_Node000018"><a xlink:href="classDynExpModule_1_1SpectrumViewer_1_1RecordSpectrumEvent.html" target="_top" xlink:title=" ">
<polygon fill="white" stroke="#666666" points="774,-372 598,-372 598,-342 774,-342 774,-372"/>
<text text-anchor="start" x="606" y="-360" font-family="Helvetica,sans-Serif" font-size="10.00">DynExpModule::SpectrumViewer</text>
<text text-anchor="middle" x="686" y="-349" font-family="Helvetica,sans-Serif" font-size="10.00">::RecordSpectrumEvent</text>
</a>
</g>
</g>
<!-- Node17&#45;&gt;Node18 -->
<g id="edge17_Node000017_Node000018" class="edge">
<title>Node17&#45;&gt;Node18</title>
<g id="a_edge17_Node000017_Node000018"><a xlink:title=" ">
<path fill="none" stroke="#63b8ff" d="M538.99,-357C558.15,-357 578.61,-357 597.96,-357"/>
<polygon fill="#63b8ff" stroke="#63b8ff" points="538.8,-353.5 528.8,-357 538.8,-360.5 538.8,-353.5"/>
</a>
</g>
</g>
<!-- Node20 -->
<g id="Node000020" class="node">
<title>Node20</title>
<g id="a_Node000020"><a xlink:href="classDynExpModule_1_1SpectrumViewer_1_1ResumeSpectrumRecordingEvent.html" target="_top" xlink:title=" ">
<polygon fill="white" stroke="#666666" points="778.5,-318 593.5,-318 593.5,-288 778.5,-288 778.5,-318"/>
<text text-anchor="start" x="601.5" y="-306" font-family="Helvetica,sans-Serif" font-size="10.00">DynExpModule::SpectrumViewer</text>
<text text-anchor="middle" x="686" y="-295" font-family="Helvetica,sans-Serif" font-size="10.00">::ResumeSpectrumRecordingEvent</text>
</a>
</g>
</g>
<!-- Node19&#45;&gt;Node20 -->
<g id="edge19_Node000019_Node000020" class="edge">
<title>Node19&#45;&gt;Node20</title>
<g id="a_edge19_Node000019_Node000020"><a xlink:title=" ">
<path fill="none" stroke="#63b8ff" d="M566.79,-303C575.74,-303 584.71,-303 593.5,-303"/>
<polygon fill="#63b8ff" stroke="#63b8ff" points="566.72,-299.5 556.72,-303 566.72,-306.5 566.72,-299.5"/>
</a>
</g>
</g>
<!-- Node22 -->
<g id="Node000022" class="node">
<title>Node22</title>
<g id="a_Node000022"><a xlink:href="classDynExpModule_1_1SpectrumViewer_1_1SetSilentModeEvent.html" target="_top" xlink:title=" ">
<polygon fill="white" stroke="#666666" points="774,-270 598,-270 598,-240 774,-240 774,-270"/>
<text text-anchor="start" x="606" y="-258" font-family="Helvetica,sans-Serif" font-size="10.00">DynExpModule::SpectrumViewer</text>
<text text-anchor="middle" x="686" y="-247" font-family="Helvetica,sans-Serif" font-size="10.00">::SetSilentModeEvent</text>
</a>
</g>
</g>
<!-- Node21&#45;&gt;Node22 -->
<g id="edge21_Node000021_Node000022" class="edge">
<title>Node21&#45;&gt;Node22</title>
<g id="a_edge21_Node000021_Node000022"><a xlink:title=" ">
<path fill="none" stroke="#63b8ff" d="M552.83,-255C567.78,-255 583.15,-255 597.88,-255"/>
<polygon fill="#63b8ff" stroke="#63b8ff" points="552.56,-251.5 542.56,-255 552.56,-258.5 552.56,-251.5"/>
</a>
</g>
</g>
<!-- Node24 -->
<g id="Node000024" class="node">
<title>Node24</title>
<g id="a_Node000024"><a xlink:href="classDynExpModule_1_1SpectrumViewer_1_1SpectrumFinishedRecordingEvent.html" target="_top" xlink:title=" ">
<polygon fill="white" stroke="#666666" points="779,-222 593,-222 593,-192 779,-192 779,-222"/>
<text text-anchor="start" x="601" y="-210" font-family="Helvetica,sans-Serif" font-size="10.00">DynExpModule::SpectrumViewer</text>
<text text-anchor="middle" x="686" y="-199" font-family="Helvetica,sans-Serif" font-size="10.00">::SpectrumFinishedRecordingEvent</text>
</a>
</g>
</g>
<!-- Node23&#45;&gt;Node24 -->
<g id="edge23_Node000023_Node000024" class="edge">
<title>Node23&#45;&gt;Node24</title>
<g id="a_edge23_Node000023_Node000024"><a xlink:title=" ">
<path fill="none" stroke="#63b8ff" d="M567.09,-207C575.66,-207 584.26,-207 592.7,-207"/>
<polygon fill="#63b8ff" stroke="#63b8ff" points="567.06,-203.5 557.06,-207 567.06,-210.5 567.06,-203.5"/>
</a>
</g>
</g>
<!-- Node26 -->
<g id="Node000026" class="node">
<title>Node26</title>
<g id="a_Node000026"><a xlink:href="classDynExpModule_1_1StartEvent.html" target="_top" xlink:title="This event is intended to make the receiver either directly start an action (like a measurement) or t...">
<polygon fill="white" stroke="#666666" points="759.5,-168.5 612.5,-168.5 612.5,-149.5 759.5,-149.5 759.5,-168.5"/>
<text text-anchor="middle" x="686" y="-156.5" font-family="Helvetica,sans-Serif" font-size="10.00">DynExpModule::StartEvent</text>
</a>
</g>
</g>
<!-- Node25&#45;&gt;Node26 -->
<g id="edge25_Node000025_Node000026" class="edge">
<title>Node25&#45;&gt;Node26</title>
<g id="a_edge25_Node000025_Node000026"><a xlink:title=" ">
<path fill="none" stroke="#63b8ff" d="M538.95,-159C562.97,-159 589.02,-159 612.39,-159"/>
<polygon fill="#63b8ff" stroke="#63b8ff" points="538.8,-155.5 528.8,-159 538.8,-162.5 538.8,-155.5"/>
</a>
</g>
</g>
<!-- Node28 -->
<g id="Node000028" class="node">
<title>Node28</title>
<g id="a_Node000028"><a xlink:href="classDynExpModule_1_1StopEvent.html" target="_top" xlink:title="This event is intended to make the receiver stop an action (like a measurement).">
<polygon fill="white" stroke="#666666" points="759,-120.5 613,-120.5 613,-101.5 759,-101.5 759,-120.5"/>
<text text-anchor="middle" x="686" y="-108.5" font-family="Helvetica,sans-Serif" font-size="10.00">DynExpModule::StopEvent</text>
</a>
</g>
</g>
<!-- Node27&#45;&gt;Node28 -->
<g id="edge27_Node000027_Node000028" class="edge">
<title>Node27&#45;&gt;Node28</title>
<g id="a_edge27_Node000027_Node000028"><a xlink:title=" ">
<path fill="none" stroke="#63b8ff" d="M539,-111C563.14,-111 589.33,-111 612.78,-111"/>
<polygon fill="#63b8ff" stroke="#63b8ff" points="538.8,-107.5 528.8,-111 538.8,-114.5 538.8,-107.5"/>
</a>
</g>
</g>
<!-- Node30 -->
<g id="Node000030" class="node">
<title>Node30</title>
<g id="a_Node000030"><a xlink:href="classDynExpModule_1_1TriggerEvent.html" target="_top" xlink:title="This event is intended to make the receiver start an action (like a measurement) after it received a ...">
<polygon fill="white" stroke="#666666" points="764.5,-72.5 607.5,-72.5 607.5,-53.5 764.5,-53.5 764.5,-72.5"/>
<text text-anchor="middle" x="686" y="-60.5" font-family="Helvetica,sans-Serif" font-size="10.00">DynExpModule::TriggerEvent</text>
</a>
</g>
</g>
<!-- Node29&#45;&gt;Node30 -->
<g id="edge29_Node000029_Node000030" class="edge">
<title>Node29&#45;&gt;Node30</title>
<g id="a_edge29_Node000029_Node000030"><a xlink:title=" ">
<path fill="none" stroke="#63b8ff" d="M538.9,-63C561.18,-63 585.22,-63 607.24,-63"/>
<polygon fill="#63b8ff" stroke="#63b8ff" points="538.8,-59.5 528.8,-63 538.8,-66.5 538.8,-59.5"/>
</a>
</g>
</g>
</g>
</svg>
