<?xml version="1.0" encoding="UTF-8" standalone="no"?>
<!DOCTYPE svg PUBLIC "-//W3C//DTD SVG 1.1//EN"
 "http://www.w3.org/Graphics/SVG/1.1/DTD/svg11.dtd">
<!-- Generated by graphviz version 2.43.0 (0)
 -->
<!-- Title: DynExp::HardwareAdapterBase Pages: 1 -->
<svg width="1151pt" height="386pt"
 viewBox="0.00 0.00 1151.00 385.50" xmlns="http://www.w3.org/2000/svg" xmlns:xlink="http://www.w3.org/1999/xlink">
<g id="graph0" class="graph" transform="scale(1 1) rotate(0) translate(4 381.5)">
<title>DynExp::HardwareAdapterBase</title>
<!-- Node1 -->
<g id="Node000001" class="node">
<title>Node1</title>
<g id="a_Node000001"><a xlink:title="Defines the base class for a hardware adapter object. Hardware adapters describe interfaces/connectio...">
<polygon fill="#999999" stroke="#666666" points="442,-192.5 272,-192.5 272,-173.5 442,-173.5 442,-192.5"/>
<text text-anchor="middle" x="357" y="-180.5" font-family="Helvetica,sans-Serif" font-size="10.00">DynExp::HardwareAdapterBase</text>
</a>
</g>
</g>
<!-- Node5 -->
<g id="Node000005" class="node">
<title>Node5</title>
<g id="a_Node000005"><a xlink:href="classDynExpHardware_1_1gRPCHardwareAdapter.html" target="_top" xlink:title=" ">
<polygon fill="white" stroke="#666666" points="674,-377.5 494,-377.5 494,-336.5 674,-336.5 674,-377.5"/>
<text text-anchor="start" x="502" y="-365.5" font-family="Helvetica,sans-Serif" font-size="10.00">DynExpHardware::gRPCHardware</text>
<text text-anchor="start" x="502" y="-354.5" font-family="Helvetica,sans-Serif" font-size="10.00">Adapter&lt; pulse_streamer</text>
<text text-anchor="middle" x="584" y="-343.5" font-family="Helvetica,sans-Serif" font-size="10.00">::PulseStreamer &gt;</text>
</a>
</g>
</g>
<!-- Node1&#45;&gt;Node5 -->
<g id="edge4_Node000001_Node000005" class="edge">
<title>Node1&#45;&gt;Node5</title>
<g id="a_edge4_Node000001_Node000005"><a xlink:title=" ">
<path fill="none" stroke="#63b8ff" d="M368.4,-201.61C386.57,-232.4 427.06,-293.83 478,-327 483.4,-330.52 489.22,-333.63 495.25,-336.38"/>
<polygon fill="#63b8ff" stroke="#63b8ff" points="371.33,-199.68 363.3,-192.77 365.26,-203.18 371.33,-199.68"/>
</a>
</g>
</g>
<!-- Node7 -->
<g id="Node000007" class="node">
<title>Node7</title>
<g id="a_Node000007"><a xlink:href="classDynExp_1_1SerialCommunicationHardwareAdapter.html" target="_top" xlink:title="Defines a hardware adapter for serial communication. Logical const&#45;ness: see declaration of class Dyn...">
<polygon fill="white" stroke="#666666" points="666.5,-318 501.5,-318 501.5,-288 666.5,-288 666.5,-318"/>
<text text-anchor="start" x="509.5" y="-306" font-family="Helvetica,sans-Serif" font-size="10.00">DynExp::SerialCommunication</text>
<text text-anchor="middle" x="584" y="-295" font-family="Helvetica,sans-Serif" font-size="10.00">HardwareAdapter</text>
</a>
</g>
</g>
<!-- Node1&#45;&gt;Node7 -->
<g id="edge6_Node000001_Node000007" class="edge">
<title>Node1&#45;&gt;Node7</title>
<g id="a_edge6_Node000001_Node000007"><a xlink:title=" ">
<path fill="none" stroke="#63b8ff" d="M373.97,-199.82C395.52,-221.48 436.06,-258.75 478,-279 485.41,-282.58 493.37,-285.63 501.48,-288.24"/>
<polygon fill="#63b8ff" stroke="#63b8ff" points="376.42,-197.31 366.92,-192.6 371.41,-202.2 376.42,-197.31"/>
</a>
</g>
</g>
<!-- Node11 -->
<g id="Node000011" class="node">
<title>Node11</title>
<g id="a_Node000011"><a xlink:href="classDynExpHardware_1_1NIDAQHardwareAdapter.html" target="_top" xlink:title=" ">
<polygon fill="white" stroke="#666666" points="677.5,-270 490.5,-270 490.5,-240 677.5,-240 677.5,-270"/>
<text text-anchor="start" x="498.5" y="-258" font-family="Helvetica,sans-Serif" font-size="10.00">DynExpHardware::NIDAQHardware</text>
<text text-anchor="middle" x="584" y="-247" font-family="Helvetica,sans-Serif" font-size="10.00">Adapter</text>
</a>
</g>
</g>
<!-- Node1&#45;&gt;Node11 -->
<g id="edge10_Node000001_Node000011" class="edge">
<title>Node1&#45;&gt;Node11</title>
<g id="a_edge10_Node000001_Node000011"><a xlink:title=" ">
<path fill="none" stroke="#63b8ff" d="M388.16,-196.59C412.14,-207.02 446.75,-221.24 478,-231 488.35,-234.23 499.4,-237.23 510.31,-239.94"/>
<polygon fill="#63b8ff" stroke="#63b8ff" points="389.45,-193.33 378.88,-192.51 386.63,-199.74 389.45,-193.33"/>
</a>
</g>
</g>
<!-- Node12 -->
<g id="Node000012" class="node">
<title>Node12</title>
<g id="a_Node000012"><a xlink:href="classDynExpHardware_1_1PVCamHardwareAdapter.html" target="_top" xlink:title=" ">
<polygon fill="white" stroke="#666666" points="679,-222 489,-222 489,-192 679,-192 679,-222"/>
<text text-anchor="start" x="497" y="-210" font-family="Helvetica,sans-Serif" font-size="10.00">DynExpHardware::PVCamHardware</text>
<text text-anchor="middle" x="584" y="-199" font-family="Helvetica,sans-Serif" font-size="10.00">Adapter</text>
</a>
</g>
</g>
<!-- Node1&#45;&gt;Node12 -->
<g id="edge11_Node000001_Node000012" class="edge">
<title>Node1&#45;&gt;Node12</title>
<g id="a_edge11_Node000001_Node000012"><a xlink:title=" ">
<path fill="none" stroke="#63b8ff" d="M452.19,-193.05C464.29,-194.34 476.69,-195.66 488.8,-196.95"/>
<polygon fill="#63b8ff" stroke="#63b8ff" points="452.42,-189.55 442.1,-191.97 451.67,-196.51 452.42,-189.55"/>
</a>
</g>
</g>
<!-- Node13 -->
<g id="Node000013" class="node">
<title>Node13</title>
<g id="a_Node000013"><a xlink:href="classDynExpHardware_1_1QutoolsTDCHardwareAdapter.html" target="_top" xlink:title=" ">
<polygon fill="white" stroke="#666666" points="690,-174 478,-174 478,-144 690,-144 690,-174"/>
<text text-anchor="start" x="486" y="-162" font-family="Helvetica,sans-Serif" font-size="10.00">DynExpHardware::QutoolsTDCHardware</text>
<text text-anchor="middle" x="584" y="-151" font-family="Helvetica,sans-Serif" font-size="10.00">Adapter</text>
</a>
</g>
</g>
<!-- Node1&#45;&gt;Node13 -->
<g id="edge12_Node000001_Node000013" class="edge">
<title>Node1&#45;&gt;Node13</title>
<g id="a_edge12_Node000001_Node000013"><a xlink:title=" ">
<path fill="none" stroke="#63b8ff" d="M452.26,-172.95C460.66,-172.05 469.2,-171.14 477.68,-170.23"/>
<polygon fill="#63b8ff" stroke="#63b8ff" points="451.67,-169.49 442.1,-174.03 452.42,-176.45 451.67,-169.49"/>
</a>
</g>
</g>
<!-- Node14 -->
<g id="Node000014" class="node">
<title>Node14</title>
<g id="a_Node000014"><a xlink:href="classDynExpHardware_1_1SmarActHardwareAdapter.html" target="_top" xlink:title=" ">
<polygon fill="white" stroke="#666666" points="682,-126 486,-126 486,-96 682,-96 682,-126"/>
<text text-anchor="start" x="494" y="-114" font-family="Helvetica,sans-Serif" font-size="10.00">DynExpHardware::SmarActHardware</text>
<text text-anchor="middle" x="584" y="-103" font-family="Helvetica,sans-Serif" font-size="10.00">Adapter</text>
</a>
</g>
</g>
<!-- Node1&#45;&gt;Node14 -->
<g id="edge13_Node000001_Node000014" class="edge">
<title>Node1&#45;&gt;Node14</title>
<g id="a_edge13_Node000001_Node000014"><a xlink:title=" ">
<path fill="none" stroke="#63b8ff" d="M388.16,-169.41C412.14,-158.98 446.75,-144.76 478,-135 488.35,-131.77 499.4,-128.77 510.31,-126.06"/>
<polygon fill="#63b8ff" stroke="#63b8ff" points="386.63,-166.26 378.88,-173.49 389.45,-172.67 386.63,-166.26"/>
</a>
</g>
</g>
<!-- Node15 -->
<g id="Node000015" class="node">
<title>Node15</title>
<g id="a_Node000015"><a xlink:href="classDynExpHardware_1_1ZILabOneHardwareAdapter.html" target="_top" xlink:title=" ">
<polygon fill="white" stroke="#666666" points="661,-78 507,-78 507,-48 661,-48 661,-78"/>
<text text-anchor="start" x="515" y="-66" font-family="Helvetica,sans-Serif" font-size="10.00">DynExpHardware::ZILabOne</text>
<text text-anchor="middle" x="584" y="-55" font-family="Helvetica,sans-Serif" font-size="10.00">HardwareAdapter</text>
</a>
</g>
</g>
<!-- Node1&#45;&gt;Node15 -->
<g id="edge14_Node000001_Node000015" class="edge">
<title>Node1&#45;&gt;Node15</title>
<g id="a_edge14_Node000001_Node000015"><a xlink:title=" ">
<path fill="none" stroke="#63b8ff" d="M373.97,-166.18C395.52,-144.52 436.06,-107.25 478,-87 487.01,-82.65 496.84,-79.07 506.75,-76.13"/>
<polygon fill="#63b8ff" stroke="#63b8ff" points="371.41,-163.8 366.92,-173.4 376.42,-168.69 371.41,-163.8"/>
</a>
</g>
</g>
<!-- Node16 -->
<g id="Node000016" class="node">
<title>Node16</title>
<g id="a_Node000016"><a xlink:href="classDynExpHardware_1_1gRPCHardwareAdapter.html" target="_top" xlink:title="This template class provides basic functionality to design hardware adapters for instruments which co...">
<polygon fill="white" stroke="#666666" points="674,-30 494,-30 494,0 674,0 674,-30"/>
<text text-anchor="start" x="502" y="-18" font-family="Helvetica,sans-Serif" font-size="10.00">DynExpHardware::gRPCHardware</text>
<text text-anchor="middle" x="584" y="-7" font-family="Helvetica,sans-Serif" font-size="10.00">Adapter&lt; gRPCStub &gt;</text>
</a>
</g>
</g>
<!-- Node1&#45;&gt;Node16 -->
<g id="edge15_Node000001_Node000016" class="edge">
<title>Node1&#45;&gt;Node16</title>
<g id="a_edge15_Node000001_Node000016"><a xlink:title=" ">
<path fill="none" stroke="#63b8ff" d="M367.95,-164.54C385.71,-133.45 425.94,-70.95 478,-39 483.66,-35.53 489.77,-32.56 496.09,-30.02"/>
<polygon fill="#63b8ff" stroke="#63b8ff" points="364.8,-163.01 362.99,-173.44 370.91,-166.41 364.8,-163.01"/>
</a>
</g>
</g>
<!-- Node2 -->
<g id="Node000002" class="node">
<title>Node2</title>
<g id="a_Node000002"><a xlink:href="classUtil_1_1ILockable.html" target="_top" xlink:title="Interface to allow synchronizing the access to derived classes between different threads by providing...">
<polygon fill="white" stroke="#666666" points="233,-211.5 147,-211.5 147,-192.5 233,-192.5 233,-211.5"/>
<text text-anchor="middle" x="190" y="-199.5" font-family="Helvetica,sans-Serif" font-size="10.00">Util::ILockable</text>
</a>
</g>
</g>
<!-- Node2&#45;&gt;Node1 -->
<g id="edge1_Node000001_Node000002" class="edge">
<title>Node2&#45;&gt;Node1</title>
<g id="a_edge1_Node000001_Node000002"><a xlink:title=" ">
<path fill="none" stroke="#63b8ff" d="M243.19,-195.99C252.77,-194.89 262.99,-193.71 273.22,-192.53"/>
<polygon fill="#63b8ff" stroke="#63b8ff" points="242.6,-192.54 233.06,-197.16 243.4,-199.49 242.6,-192.54"/>
</a>
</g>
</g>
<!-- Node3 -->
<g id="Node000003" class="node">
<title>Node3</title>
<g id="a_Node000003"><a xlink:href="classUtil_1_1INonCopyable.html" target="_top" xlink:title="Interface to delete copy constructor and copy assignment operator and thus make derived classes non&#45;c...">
<polygon fill="white" stroke="#666666" points="108,-211.5 0,-211.5 0,-192.5 108,-192.5 108,-211.5"/>
<text text-anchor="middle" x="54" y="-199.5" font-family="Helvetica,sans-Serif" font-size="10.00">Util::INonCopyable</text>
</a>
</g>
</g>
<!-- Node3&#45;&gt;Node2 -->
<g id="edge2_Node000002_Node000003" class="edge">
<title>Node3&#45;&gt;Node2</title>
<g id="a_edge2_Node000002_Node000003"><a xlink:title=" ">
<path fill="none" stroke="#63b8ff" d="M118.39,-202C128.09,-202 137.89,-202 146.98,-202"/>
<polygon fill="#63b8ff" stroke="#63b8ff" points="118.35,-198.5 108.35,-202 118.35,-205.5 118.35,-198.5"/>
</a>
</g>
</g>
<!-- Node4 -->
<g id="Node000004" class="node">
<title>Node4</title>
<g id="a_Node000004"><a xlink:href="classDynExp_1_1Object.html" target="_top" xlink:title="Base class for all DynExp Objects like hardware adapters (DynExp::HardwareAdapterBase),...">
<polygon fill="white" stroke="#666666" points="236,-174.5 144,-174.5 144,-155.5 236,-155.5 236,-174.5"/>
<text text-anchor="middle" x="190" y="-162.5" font-family="Helvetica,sans-Serif" font-size="10.00">DynExp::Object</text>
</a>
</g>
</g>
<!-- Node4&#45;&gt;Node1 -->
<g id="edge3_Node000001_Node000004" class="edge">
<title>Node4&#45;&gt;Node1</title>
<g id="a_edge3_Node000001_Node000004"><a xlink:title=" ">
<path fill="none" stroke="#63b8ff" d="M246.03,-171C254.38,-171.91 263.15,-172.87 271.94,-173.83"/>
<polygon fill="#63b8ff" stroke="#63b8ff" points="246.41,-167.52 236.09,-169.92 245.65,-174.48 246.41,-167.52"/>
</a>
</g>
</g>
<!-- Node6 -->
<g id="Node000006" class="node">
<title>Node6</title>
<g id="a_Node000006"><a xlink:href="classDynExpHardware_1_1SIPulseStreamerHardwareAdapter.html" target="_top" xlink:title=" ">
<polygon fill="white" stroke="#666666" points="914,-372 726,-372 726,-342 914,-342 914,-372"/>
<text text-anchor="start" x="734" y="-360" font-family="Helvetica,sans-Serif" font-size="10.00">DynExpHardware::SIPulseStreamer</text>
<text text-anchor="middle" x="820" y="-349" font-family="Helvetica,sans-Serif" font-size="10.00">HardwareAdapter</text>
</a>
</g>
</g>
<!-- Node5&#45;&gt;Node6 -->
<g id="edge5_Node000005_Node000006" class="edge">
<title>Node5&#45;&gt;Node6</title>
<g id="a_edge5_Node000005_Node000006"><a xlink:title=" ">
<path fill="none" stroke="#63b8ff" d="M684.53,-357C698.23,-357 712.26,-357 725.84,-357"/>
<polygon fill="#63b8ff" stroke="#63b8ff" points="684.13,-353.5 674.13,-357 684.13,-360.5 684.13,-353.5"/>
</a>
</g>
</g>
<!-- Node8 -->
<g id="Node000008" class="node">
<title>Node8</title>
<g id="a_Node000008"><a xlink:href="classDynExp_1_1QSerialCommunicationHardwareAdapter.html" target="_top" xlink:title="SerialCommunicationHardwareAdapter is based on a Qt communication object (wrapped by QSerialCommunica...">
<polygon fill="white" stroke="#666666" points="906.5,-318 733.5,-318 733.5,-288 906.5,-288 906.5,-318"/>
<text text-anchor="start" x="741.5" y="-306" font-family="Helvetica,sans-Serif" font-size="10.00">DynExp::QSerialCommunication</text>
<text text-anchor="middle" x="820" y="-295" font-family="Helvetica,sans-Serif" font-size="10.00">HardwareAdapter</text>
</a>
</g>
</g>
<!-- Node7&#45;&gt;Node8 -->
<g id="edge7_Node000007_Node000008" class="edge">
<title>Node7&#45;&gt;Node8</title>
<g id="a_edge7_Node000007_Node000008"><a xlink:title=" ">
<path fill="none" stroke="#63b8ff" d="M676.77,-303C695.42,-303 714.98,-303 733.41,-303"/>
<polygon fill="#63b8ff" stroke="#63b8ff" points="676.51,-299.5 666.51,-303 676.51,-306.5 676.51,-299.5"/>
</a>
</g>
</g>
<!-- Node9 -->
<g id="Node000009" class="node">
<title>Node9</title>
<g id="a_Node000009"><a xlink:href="classDynExp_1_1HardwareAdapterSerialPort.html" target="_top" xlink:title="Implements a hardware adapter to communicate with text&#45;based commands over COM ports.">
<polygon fill="white" stroke="#666666" points="1143,-334.5 950,-334.5 950,-315.5 1143,-315.5 1143,-334.5"/>
<text text-anchor="middle" x="1046.5" y="-322.5" font-family="Helvetica,sans-Serif" font-size="10.00">DynExp::HardwareAdapterSerialPort</text>
</a>
</g>
</g>
<!-- Node8&#45;&gt;Node9 -->
<g id="edge8_Node000008_Node000009" class="edge">
<title>Node8&#45;&gt;Node9</title>
<g id="a_edge8_Node000008_Node000009"><a xlink:title=" ">
<path fill="none" stroke="#63b8ff" d="M916.53,-312.36C927.52,-313.44 938.73,-314.54 949.72,-315.61"/>
<polygon fill="#63b8ff" stroke="#63b8ff" points="916.81,-308.87 906.51,-311.38 916.13,-315.84 916.81,-308.87"/>
</a>
</g>
</g>
<!-- Node10 -->
<g id="Node000010" class="node">
<title>Node10</title>
<g id="a_Node000010"><a xlink:href="classDynExp_1_1HardwareAdapterTcpSocket.html" target="_top" xlink:title="Implements a hardware adapter to communicate with text&#45;based commands over TCP sockets.">
<polygon fill="white" stroke="#666666" points="1127,-297 966,-297 966,-267 1127,-267 1127,-297"/>
<text text-anchor="start" x="974" y="-285" font-family="Helvetica,sans-Serif" font-size="10.00">DynExp::HardwareAdapterTcp</text>
<text text-anchor="middle" x="1046.5" y="-274" font-family="Helvetica,sans-Serif" font-size="10.00">Socket</text>
</a>
</g>
</g>
<!-- Node8&#45;&gt;Node10 -->
<g id="edge9_Node000008_Node000010" class="edge">
<title>Node8&#45;&gt;Node10</title>
<g id="a_edge9_Node000008_Node000010"><a xlink:title=" ">
<path fill="none" stroke="#63b8ff" d="M916.63,-294.05C933.01,-292.52 949.86,-290.95 965.76,-289.46"/>
<polygon fill="#63b8ff" stroke="#63b8ff" points="916.14,-290.58 906.51,-295 916.8,-297.55 916.14,-290.58"/>
</a>
</g>
</g>
</g>
</svg>
