<?xml version="1.0" encoding="UTF-8" standalone="no"?>
<!DOCTYPE svg PUBLIC "-//W3C//DTD SVG 1.1//EN"
 "http://www.w3.org/Graphics/SVG/1.1/DTD/svg11.dtd">
<!-- Generated by graphviz version 2.43.0 (0)
 -->
<!-- Title: DynExpInstr::DataStreamInstrumentParams Pages: 1 -->
<svg width="1923pt" height="359pt"
 viewBox="0.00 0.00 1923.00 358.50" xmlns="http://www.w3.org/2000/svg" xmlns:xlink="http://www.w3.org/1999/xlink">
<g id="graph0" class="graph" transform="scale(1 1) rotate(0) translate(4 354.5)">
<title>DynExpInstr::DataStreamInstrumentParams</title>
<polygon fill="white" stroke="transparent" points="-4,4 -4,-354.5 1919,-354.5 1919,4 -4,4"/>
<!-- Node1 -->
<g id="node1" class="node">
<title>Node1</title>
<g id="a_node1"><a xlink:title="Parameter class for DataStreamInstrument.">
<polygon fill="#bfbfbf" stroke="black" points="897,-61 897,-91 1091,-91 1091,-61 897,-61"/>
<text text-anchor="start" x="905" y="-79" font-family="Helvetica,sans-Serif" font-size="10.00">DynExpInstr::DataStreamInstrument</text>
<text text-anchor="middle" x="994" y="-68" font-family="Helvetica,sans-Serif" font-size="10.00">Params</text>
</a>
</g>
</g>
<!-- Node7 -->
<g id="node7" class="node">
<title>Node7</title>
<g id="a_node7"><a xlink:href="classDynExpInstr_1_1FunctionGeneratorParams.html" target="_top" xlink:title="Parameter class for FunctionGenerator.">
<polygon fill="white" stroke="black" points="1128.5,-219 1128.5,-249 1300.5,-249 1300.5,-219 1128.5,-219"/>
<text text-anchor="start" x="1136.5" y="-237" font-family="Helvetica,sans-Serif" font-size="10.00">DynExpInstr::FunctionGenerator</text>
<text text-anchor="middle" x="1214.5" y="-226" font-family="Helvetica,sans-Serif" font-size="10.00">Params</text>
</a>
</g>
</g>
<!-- Node1&#45;&gt;Node7 -->
<g id="edge6" class="edge">
<title>Node1&#45;&gt;Node7</title>
<path fill="none" stroke="midnightblue" d="M1024.08,-97.03C1068.81,-129.37 1153.43,-190.56 1192.61,-218.9"/>
<polygon fill="midnightblue" stroke="midnightblue" points="1026.1,-94.17 1015.95,-91.15 1022,-99.85 1026.1,-94.17"/>
</g>
<!-- Node17 -->
<g id="node17" class="node">
<title>Node17</title>
<g id="a_node17"><a xlink:href="classDynExpInstr_1_1InputPortParams.html" target="_top" xlink:title="Parameter class for InputPort.">
<polygon fill="white" stroke="black" points="1133.5,-88.5 1133.5,-107.5 1295.5,-107.5 1295.5,-88.5 1133.5,-88.5"/>
<text text-anchor="middle" x="1214.5" y="-95.5" font-family="Helvetica,sans-Serif" font-size="10.00">DynExpInstr::InputPortParams</text>
</a>
</g>
</g>
<!-- Node1&#45;&gt;Node17 -->
<g id="edge16" class="edge">
<title>Node1&#45;&gt;Node17</title>
<path fill="none" stroke="midnightblue" d="M1101.43,-86.72C1112.16,-87.8 1122.94,-88.88 1133.33,-89.93"/>
<polygon fill="midnightblue" stroke="midnightblue" points="1101.46,-83.2 1091.16,-85.68 1100.75,-90.17 1101.46,-83.2"/>
</g>
<!-- Node22 -->
<g id="node22" class="node">
<title>Node22</title>
<g id="a_node22"><a xlink:href="classDynExpInstr_1_1LockinAmplifierParams.html" target="_top" xlink:title="Parameter class for LockinAmplifier.">
<polygon fill="white" stroke="black" points="1135.5,-39 1135.5,-69 1293.5,-69 1293.5,-39 1135.5,-39"/>
<text text-anchor="start" x="1143.5" y="-57" font-family="Helvetica,sans-Serif" font-size="10.00">DynExpInstr::LockinAmplifier</text>
<text text-anchor="middle" x="1214.5" y="-46" font-family="Helvetica,sans-Serif" font-size="10.00">Params</text>
</a>
</g>
</g>
<!-- Node1&#45;&gt;Node22 -->
<g id="edge21" class="edge">
<title>Node1&#45;&gt;Node22</title>
<path fill="none" stroke="midnightblue" d="M1101.23,-65.3C1112.72,-64.15 1124.26,-62.99 1135.34,-61.87"/>
<polygon fill="midnightblue" stroke="midnightblue" points="1100.75,-61.83 1091.16,-66.32 1101.46,-68.8 1100.75,-61.83"/>
</g>
<!-- Node24 -->
<g id="node24" class="node">
<title>Node24</title>
<g id="a_node24"><a xlink:href="classDynExpInstr_1_1TimeTaggerParams.html" target="_top" xlink:title="Parameter class for TimeTagger.">
<polygon fill="white" stroke="black" points="1127,-0.5 1127,-19.5 1302,-19.5 1302,-0.5 1127,-0.5"/>
<text text-anchor="middle" x="1214.5" y="-7.5" font-family="Helvetica,sans-Serif" font-size="10.00">DynExpInstr::TimeTaggerParams</text>
</a>
</g>
</g>
<!-- Node1&#45;&gt;Node24 -->
<g id="edge23" class="edge">
<title>Node1&#45;&gt;Node24</title>
<path fill="none" stroke="midnightblue" d="M1042.84,-57.33C1067.7,-48.04 1098.72,-37.11 1127,-29 1139.12,-25.53 1152.35,-22.33 1164.74,-19.59"/>
<polygon fill="midnightblue" stroke="midnightblue" points="1041.41,-54.13 1033.28,-60.93 1043.88,-60.68 1041.41,-54.13"/>
</g>
<!-- Node2 -->
<g id="node2" class="node">
<title>Node2</title>
<g id="a_node2"><a xlink:href="classDynExp_1_1InstrumentParamsBase.html" target="_top" xlink:title="Parameter class for InstrumentBase.">
<polygon fill="white" stroke="black" points="688,-66.5 688,-85.5 861,-85.5 861,-66.5 688,-66.5"/>
<text text-anchor="middle" x="774.5" y="-73.5" font-family="Helvetica,sans-Serif" font-size="10.00">DynExp::InstrumentParamsBase</text>
</a>
</g>
</g>
<!-- Node2&#45;&gt;Node1 -->
<g id="edge1" class="edge">
<title>Node2&#45;&gt;Node1</title>
<path fill="none" stroke="midnightblue" d="M871.33,-76C879.73,-76 888.24,-76 896.64,-76"/>
<polygon fill="midnightblue" stroke="midnightblue" points="871.15,-72.5 861.15,-76 871.15,-79.5 871.15,-72.5"/>
</g>
<!-- Node3 -->
<g id="node3" class="node">
<title>Node3</title>
<g id="a_node3"><a xlink:href="classDynExp_1_1RunnableObjectParams.html" target="_top" xlink:title="Parameter class for RunnableObject.">
<polygon fill="white" stroke="black" points="479,-66.5 479,-85.5 652,-85.5 652,-66.5 479,-66.5"/>
<text text-anchor="middle" x="565.5" y="-73.5" font-family="Helvetica,sans-Serif" font-size="10.00">DynExp::RunnableObjectParams</text>
</a>
</g>
</g>
<!-- Node3&#45;&gt;Node2 -->
<g id="edge2" class="edge">
<title>Node3&#45;&gt;Node2</title>
<path fill="none" stroke="midnightblue" d="M662.2,-76C670.76,-76 679.4,-76 687.88,-76"/>
<polygon fill="midnightblue" stroke="midnightblue" points="662.19,-72.5 652.19,-76 662.19,-79.5 662.19,-72.5"/>
</g>
<!-- Node4 -->
<g id="node4" class="node">
<title>Node4</title>
<g id="a_node4"><a xlink:href="classDynExp_1_1ParamsBase.html" target="_top" xlink:title="Abstract base class for object parameter classes. Each class derived from class Object must be accomp...">
<polygon fill="white" stroke="black" points="323,-66.5 323,-85.5 443,-85.5 443,-66.5 323,-66.5"/>
<text text-anchor="middle" x="383" y="-73.5" font-family="Helvetica,sans-Serif" font-size="10.00">DynExp::ParamsBase</text>
</a>
</g>
</g>
<!-- Node4&#45;&gt;Node3 -->
<g id="edge3" class="edge">
<title>Node4&#45;&gt;Node3</title>
<path fill="none" stroke="midnightblue" d="M453.17,-76C461.54,-76 470.17,-76 478.75,-76"/>
<polygon fill="midnightblue" stroke="midnightblue" points="453.1,-72.5 443.1,-76 453.1,-79.5 453.1,-72.5"/>
</g>
<!-- Node5 -->
<g id="node5" class="node">
<title>Node5</title>
<g id="a_node5"><a xlink:href="classUtil_1_1ISynchronizedPointerLockable.html" target="_top" xlink:title="Interface to allow synchronizing the access to derived classes between different threads by making th...">
<polygon fill="white" stroke="black" points="144,-61 144,-91 287,-91 287,-61 144,-61"/>
<text text-anchor="start" x="152" y="-79" font-family="Helvetica,sans-Serif" font-size="10.00">Util::ISynchronizedPointer</text>
<text text-anchor="middle" x="215.5" y="-68" font-family="Helvetica,sans-Serif" font-size="10.00">Lockable</text>
</a>
</g>
</g>
<!-- Node5&#45;&gt;Node4 -->
<g id="edge4" class="edge">
<title>Node5&#45;&gt;Node4</title>
<path fill="none" stroke="midnightblue" d="M297.23,-76C305.84,-76 314.47,-76 322.76,-76"/>
<polygon fill="midnightblue" stroke="midnightblue" points="297.17,-72.5 287.17,-76 297.17,-79.5 297.17,-72.5"/>
</g>
<!-- Node6 -->
<g id="node6" class="node">
<title>Node6</title>
<g id="a_node6"><a xlink:href="classUtil_1_1INonCopyable.html" target="_top" xlink:title="Interface to delete copy constructor and copy assignment operator and thus make derived classes non&#45;c...">
<polygon fill="white" stroke="black" points="0,-66.5 0,-85.5 108,-85.5 108,-66.5 0,-66.5"/>
<text text-anchor="middle" x="54" y="-73.5" font-family="Helvetica,sans-Serif" font-size="10.00">Util::INonCopyable</text>
</a>
</g>
</g>
<!-- Node6&#45;&gt;Node5 -->
<g id="edge5" class="edge">
<title>Node6&#45;&gt;Node5</title>
<path fill="none" stroke="midnightblue" d="M118.19,-76C126.58,-76 135.23,-76 143.74,-76"/>
<polygon fill="midnightblue" stroke="midnightblue" points="118.11,-72.5 108.11,-76 118.11,-79.5 118.11,-72.5"/>
</g>
<!-- Node8 -->
<g id="node8" class="node">
<title>Node8</title>
<g id="a_node8"><a xlink:href="classDynExpInstr_1_1DummyDataStreamInstrumentParams.html" target="_top" xlink:title=" ">
<polygon fill="white" stroke="black" points="1342.5,-320 1342.5,-350 1521.5,-350 1521.5,-320 1342.5,-320"/>
<text text-anchor="start" x="1350.5" y="-338" font-family="Helvetica,sans-Serif" font-size="10.00">DynExpInstr::DummyDataStream</text>
<text text-anchor="middle" x="1432" y="-327" font-family="Helvetica,sans-Serif" font-size="10.00">InstrumentParams</text>
</a>
</g>
</g>
<!-- Node7&#45;&gt;Node8 -->
<g id="edge7" class="edge">
<title>Node7&#45;&gt;Node8</title>
<path fill="none" stroke="midnightblue" d="M1244.01,-255.05C1268.03,-271.94 1303.84,-295.2 1338,-310 1346.59,-313.72 1355.87,-317.01 1365.13,-319.88"/>
<polygon fill="midnightblue" stroke="midnightblue" points="1245.89,-252.1 1235.72,-249.14 1241.83,-257.8 1245.89,-252.1"/>
</g>
<!-- Node9 -->
<g id="node9" class="node">
<title>Node9</title>
<g id="a_node9"><a xlink:href="classDynExpInstr_1_1OutputPortParams.html" target="_top" xlink:title="Parameter class for OutputPort.">
<polygon fill="white" stroke="black" points="1347,-281.5 1347,-300.5 1517,-300.5 1517,-281.5 1347,-281.5"/>
<text text-anchor="middle" x="1432" y="-288.5" font-family="Helvetica,sans-Serif" font-size="10.00">DynExpInstr::OutputPortParams</text>
</a>
</g>
</g>
<!-- Node7&#45;&gt;Node9 -->
<g id="edge8" class="edge">
<title>Node7&#45;&gt;Node9</title>
<path fill="none" stroke="midnightblue" d="M1270.04,-252.19C1291.13,-258.89 1315.56,-266.24 1338,-272 1351.41,-275.44 1366.03,-278.67 1379.63,-281.45"/>
<polygon fill="midnightblue" stroke="midnightblue" points="1270.87,-248.78 1260.28,-249.06 1268.74,-255.45 1270.87,-248.78"/>
</g>
<!-- Node14 -->
<g id="node14" class="node">
<title>Node14</title>
<g id="a_node14"><a xlink:href="classDynExpInstr_1_1RS__SMB100BParams.html" target="_top" xlink:title=" ">
<polygon fill="white" stroke="black" points="1341,-243.5 1341,-262.5 1523,-262.5 1523,-243.5 1341,-243.5"/>
<text text-anchor="middle" x="1432" y="-250.5" font-family="Helvetica,sans-Serif" font-size="10.00">DynExpInstr::RS_SMB100BParams</text>
</a>
</g>
</g>
<!-- Node7&#45;&gt;Node14 -->
<g id="edge13" class="edge">
<title>Node7&#45;&gt;Node14</title>
<path fill="none" stroke="midnightblue" d="M1310.94,-242.41C1320.86,-243.29 1330.92,-244.18 1340.78,-245.05"/>
<polygon fill="midnightblue" stroke="midnightblue" points="1310.94,-238.9 1300.67,-241.51 1310.33,-245.87 1310.94,-238.9"/>
</g>
<!-- Node15 -->
<g id="node15" class="node">
<title>Node15</title>
<g id="a_node15"><a xlink:href="classDynExpInstr_1_1RS__SMC100AParams.html" target="_top" xlink:title=" ">
<polygon fill="white" stroke="black" points="1341,-205.5 1341,-224.5 1523,-224.5 1523,-205.5 1341,-205.5"/>
<text text-anchor="middle" x="1432" y="-212.5" font-family="Helvetica,sans-Serif" font-size="10.00">DynExpInstr::RS_SMC100AParams</text>
</a>
</g>
</g>
<!-- Node7&#45;&gt;Node15 -->
<g id="edge14" class="edge">
<title>Node7&#45;&gt;Node15</title>
<path fill="none" stroke="midnightblue" d="M1310.94,-225.59C1320.86,-224.71 1330.92,-223.82 1340.78,-222.95"/>
<polygon fill="midnightblue" stroke="midnightblue" points="1310.33,-222.13 1300.67,-226.49 1310.94,-229.1 1310.33,-222.13"/>
</g>
<!-- Node16 -->
<g id="node16" class="node">
<title>Node16</title>
<g id="a_node16"><a xlink:href="classDynExpInstr_1_1SwabianInstrumentsPulseStreamerParams.html" target="_top" xlink:title=" ">
<polygon fill="white" stroke="black" points="1341,-156 1341,-186 1523,-186 1523,-156 1341,-156"/>
<text text-anchor="start" x="1349" y="-174" font-family="Helvetica,sans-Serif" font-size="10.00">DynExpInstr::SwabianInstruments</text>
<text text-anchor="middle" x="1432" y="-163" font-family="Helvetica,sans-Serif" font-size="10.00">PulseStreamerParams</text>
</a>
</g>
</g>
<!-- Node7&#45;&gt;Node16 -->
<g id="edge15" class="edge">
<title>Node7&#45;&gt;Node16</title>
<path fill="none" stroke="midnightblue" d="M1272.08,-215.95C1292.77,-209.49 1316.4,-202.25 1338,-196 1349.4,-192.7 1361.63,-189.31 1373.36,-186.13"/>
<polygon fill="midnightblue" stroke="midnightblue" points="1270.99,-212.63 1262.49,-218.96 1273.08,-219.31 1270.99,-212.63"/>
</g>
<!-- Node10 -->
<g id="node10" class="node">
<title>Node10</title>
<g id="a_node10"><a xlink:href="classDynExpInstr_1_1AnalogOutParams.html" target="_top" xlink:title="Parameter class for AnalogOut.">
<polygon fill="white" stroke="black" points="1562,-302.5 1562,-321.5 1731,-321.5 1731,-302.5 1562,-302.5"/>
<text text-anchor="middle" x="1646.5" y="-309.5" font-family="Helvetica,sans-Serif" font-size="10.00">DynExpInstr::AnalogOutParams</text>
</a>
</g>
</g>
<!-- Node9&#45;&gt;Node10 -->
<g id="edge9" class="edge">
<title>Node9&#45;&gt;Node10</title>
<path fill="none" stroke="midnightblue" d="M1527.29,-300.32C1538.74,-301.45 1550.38,-302.6 1561.66,-303.71"/>
<polygon fill="midnightblue" stroke="midnightblue" points="1527.59,-296.83 1517.29,-299.33 1526.9,-303.8 1527.59,-296.83"/>
</g>
<!-- Node12 -->
<g id="node12" class="node">
<title>Node12</title>
<g id="a_node12"><a xlink:href="classDynExpInstr_1_1DigitalOutParams.html" target="_top" xlink:title="Parameter class for DigitalOut.">
<polygon fill="white" stroke="black" points="1563,-259.5 1563,-278.5 1730,-278.5 1730,-259.5 1563,-259.5"/>
<text text-anchor="middle" x="1646.5" y="-266.5" font-family="Helvetica,sans-Serif" font-size="10.00">DynExpInstr::DigitalOutParams</text>
</a>
</g>
</g>
<!-- Node9&#45;&gt;Node12 -->
<g id="edge11" class="edge">
<title>Node9&#45;&gt;Node12</title>
<path fill="none" stroke="midnightblue" d="M1527.53,-281.21C1539.25,-280 1551.17,-278.77 1562.7,-277.57"/>
<polygon fill="midnightblue" stroke="midnightblue" points="1526.88,-277.76 1517.29,-282.27 1527.6,-284.72 1526.88,-277.76"/>
</g>
<!-- Node11 -->
<g id="node11" class="node">
<title>Node11</title>
<g id="a_node11"><a xlink:href="classDynExpInstr_1_1NIDAQAnalogOutParams.html" target="_top" xlink:title=" ">
<polygon fill="white" stroke="black" points="1767,-300 1767,-330 1915,-330 1915,-300 1767,-300"/>
<text text-anchor="start" x="1775" y="-318" font-family="Helvetica,sans-Serif" font-size="10.00">DynExpInstr::NIDAQAnalog</text>
<text text-anchor="middle" x="1841" y="-307" font-family="Helvetica,sans-Serif" font-size="10.00">OutParams</text>
</a>
</g>
</g>
<!-- Node10&#45;&gt;Node11 -->
<g id="edge10" class="edge">
<title>Node10&#45;&gt;Node11</title>
<path fill="none" stroke="midnightblue" d="M1741.16,-313.46C1749.75,-313.59 1758.38,-313.73 1766.75,-313.86"/>
<polygon fill="midnightblue" stroke="midnightblue" points="1741.15,-309.96 1731.09,-313.3 1741.04,-316.96 1741.15,-309.96"/>
</g>
<!-- Node13 -->
<g id="node13" class="node">
<title>Node13</title>
<g id="a_node13"><a xlink:href="classDynExpInstr_1_1NIDAQDigitalOutParams.html" target="_top" xlink:title=" ">
<polygon fill="white" stroke="black" points="1768,-251 1768,-281 1914,-281 1914,-251 1768,-251"/>
<text text-anchor="start" x="1776" y="-269" font-family="Helvetica,sans-Serif" font-size="10.00">DynExpInstr::NIDAQDigital</text>
<text text-anchor="middle" x="1841" y="-258" font-family="Helvetica,sans-Serif" font-size="10.00">OutParams</text>
</a>
</g>
</g>
<!-- Node12&#45;&gt;Node13 -->
<g id="edge12" class="edge">
<title>Node12&#45;&gt;Node13</title>
<path fill="none" stroke="midnightblue" d="M1740.29,-267.55C1749.57,-267.41 1758.9,-267.26 1767.92,-267.12"/>
<polygon fill="midnightblue" stroke="midnightblue" points="1740.2,-264.05 1730.25,-267.71 1740.31,-271.05 1740.2,-264.05"/>
</g>
<!-- Node18 -->
<g id="node18" class="node">
<title>Node18</title>
<g id="a_node18"><a xlink:href="classDynExpInstr_1_1AnalogInParams.html" target="_top" xlink:title="Parameter class for AnalogIn.">
<polygon fill="white" stroke="black" points="1351.5,-117.5 1351.5,-136.5 1512.5,-136.5 1512.5,-117.5 1351.5,-117.5"/>
<text text-anchor="middle" x="1432" y="-124.5" font-family="Helvetica,sans-Serif" font-size="10.00">DynExpInstr::AnalogInParams</text>
</a>
</g>
</g>
<!-- Node17&#45;&gt;Node18 -->
<g id="edge17" class="edge">
<title>Node17&#45;&gt;Node18</title>
<path fill="none" stroke="midnightblue" d="M1296.5,-108.9C1317.4,-111.71 1339.75,-114.72 1360.1,-117.46"/>
<polygon fill="midnightblue" stroke="midnightblue" points="1296.74,-105.4 1286.36,-107.54 1295.81,-112.34 1296.74,-105.4"/>
</g>
<!-- Node20 -->
<g id="node20" class="node">
<title>Node20</title>
<g id="a_node20"><a xlink:href="classDynExpInstr_1_1DigitalInParams.html" target="_top" xlink:title="Parameter class for DigitalIn.">
<polygon fill="white" stroke="black" points="1352.5,-79.5 1352.5,-98.5 1511.5,-98.5 1511.5,-79.5 1352.5,-79.5"/>
<text text-anchor="middle" x="1432" y="-86.5" font-family="Helvetica,sans-Serif" font-size="10.00">DynExpInstr::DigitalInParams</text>
</a>
</g>
</g>
<!-- Node17&#45;&gt;Node20 -->
<g id="edge19" class="edge">
<title>Node17&#45;&gt;Node20</title>
<path fill="none" stroke="midnightblue" d="M1305.84,-94.23C1321.34,-93.58 1337.33,-92.91 1352.48,-92.28"/>
<polygon fill="midnightblue" stroke="midnightblue" points="1305.59,-90.73 1295.74,-94.65 1305.88,-97.73 1305.59,-90.73"/>
</g>
<!-- Node19 -->
<g id="node19" class="node">
<title>Node19</title>
<g id="a_node19"><a xlink:href="classDynExpInstr_1_1NIDAQAnalogInParams.html" target="_top" xlink:title=" ">
<polygon fill="white" stroke="black" points="1572.5,-117 1572.5,-147 1720.5,-147 1720.5,-117 1572.5,-117"/>
<text text-anchor="start" x="1580.5" y="-135" font-family="Helvetica,sans-Serif" font-size="10.00">DynExpInstr::NIDAQAnalog</text>
<text text-anchor="middle" x="1646.5" y="-124" font-family="Helvetica,sans-Serif" font-size="10.00">InParams</text>
</a>
</g>
</g>
<!-- Node18&#45;&gt;Node19 -->
<g id="edge18" class="edge">
<title>Node18&#45;&gt;Node19</title>
<path fill="none" stroke="midnightblue" d="M1522.91,-129.12C1539.39,-129.5 1556.41,-129.9 1572.33,-130.28"/>
<polygon fill="midnightblue" stroke="midnightblue" points="1522.81,-125.61 1512.73,-128.88 1522.65,-132.61 1522.81,-125.61"/>
</g>
<!-- Node21 -->
<g id="node21" class="node">
<title>Node21</title>
<g id="a_node21"><a xlink:href="classDynExpInstr_1_1NIDAQDigitalInParams.html" target="_top" xlink:title=" ">
<polygon fill="white" stroke="black" points="1573.5,-68 1573.5,-98 1719.5,-98 1719.5,-68 1573.5,-68"/>
<text text-anchor="start" x="1581.5" y="-86" font-family="Helvetica,sans-Serif" font-size="10.00">DynExpInstr::NIDAQDigital</text>
<text text-anchor="middle" x="1646.5" y="-75" font-family="Helvetica,sans-Serif" font-size="10.00">InParams</text>
</a>
</g>
</g>
<!-- Node20&#45;&gt;Node21 -->
<g id="edge20" class="edge">
<title>Node20&#45;&gt;Node21</title>
<path fill="none" stroke="midnightblue" d="M1521.58,-86.5C1538.8,-86.01 1556.66,-85.51 1573.28,-85.04"/>
<polygon fill="midnightblue" stroke="midnightblue" points="1521.42,-83 1511.52,-86.78 1521.62,-90 1521.42,-83"/>
</g>
<!-- Node23 -->
<g id="node23" class="node">
<title>Node23</title>
<g id="a_node23"><a xlink:href="classDynExpInstr_1_1ZI__MFLIParams.html" target="_top" xlink:title=" ">
<polygon fill="white" stroke="black" points="1354,-41.5 1354,-60.5 1510,-60.5 1510,-41.5 1354,-41.5"/>
<text text-anchor="middle" x="1432" y="-48.5" font-family="Helvetica,sans-Serif" font-size="10.00">DynExpInstr::ZI_MFLIParams</text>
</a>
</g>
</g>
<!-- Node22&#45;&gt;Node23 -->
<g id="edge22" class="edge">
<title>Node22&#45;&gt;Node23</title>
<path fill="none" stroke="midnightblue" d="M1303.84,-52.77C1320.43,-52.54 1337.66,-52.3 1353.88,-52.07"/>
<polygon fill="midnightblue" stroke="midnightblue" points="1303.56,-49.27 1293.61,-52.91 1303.65,-56.27 1303.56,-49.27"/>
</g>
<!-- Node25 -->
<g id="node25" class="node">
<title>Node25</title>
<g id="a_node25"><a xlink:href="classDynExpInstr_1_1QutoolsQuTAGParams.html" target="_top" xlink:title=" ">
<polygon fill="white" stroke="black" points="1338,-0.5 1338,-19.5 1526,-19.5 1526,-0.5 1338,-0.5"/>
<text text-anchor="middle" x="1432" y="-7.5" font-family="Helvetica,sans-Serif" font-size="10.00">DynExpInstr::QutoolsQuTAGParams</text>
</a>
</g>
</g>
<!-- Node24&#45;&gt;Node25 -->
<g id="edge24" class="edge">
<title>Node24&#45;&gt;Node25</title>
<path fill="none" stroke="midnightblue" d="M1312.44,-10C1320.86,-10 1329.37,-10 1337.76,-10"/>
<polygon fill="midnightblue" stroke="midnightblue" points="1312.22,-6.5 1302.22,-10 1312.22,-13.5 1312.22,-6.5"/>
</g>
</g>
</svg>
