<?xml version="1.0" encoding="UTF-8" standalone="no"?>
<!DOCTYPE svg PUBLIC "-//W3C//DTD SVG 1.1//EN"
 "http://www.w3.org/Graphics/SVG/1.1/DTD/svg11.dtd">
<!-- Generated by graphviz version 2.43.0 (0)
 -->
<!-- Title: DynExpInstr::BasicSampleStream Pages: 1 -->
<svg width="172pt" height="229pt"
 viewBox="0.00 0.00 172.00 229.00" xmlns="http://www.w3.org/2000/svg" xmlns:xlink="http://www.w3.org/1999/xlink">
<g id="graph0" class="graph" transform="scale(1 1) rotate(0) translate(4 225)">
<title>DynExpInstr::BasicSampleStream</title>
<polygon fill="white" stroke="transparent" points="-4,4 -4,-225 168,-225 168,4 -4,4"/>
<!-- Node1 -->
<g id="node1" class="node">
<title>Node1</title>
<g id="a_node1"><a xlink:title="Implements a circular data stream based on Util::circularbuf using samples of type BasicSample.">
<polygon fill="#bfbfbf" stroke="black" points="9.5,-0.5 9.5,-30.5 154.5,-30.5 154.5,-0.5 9.5,-0.5"/>
<text text-anchor="start" x="17.5" y="-18.5" font-family="Helvetica,sans-Serif" font-size="10.00">DynExpInstr::BasicSample</text>
<text text-anchor="middle" x="82" y="-7.5" font-family="Helvetica,sans-Serif" font-size="10.00">Stream</text>
</a>
</g>
</g>
<!-- Node2 -->
<g id="node2" class="node">
<title>Node2</title>
<g id="a_node2"><a xlink:href="classDynExpInstr_1_1CircularDataStream.html" target="_top" xlink:title=" ">
<polygon fill="white" stroke="black" points="10.5,-67.5 10.5,-97.5 153.5,-97.5 153.5,-67.5 10.5,-67.5"/>
<text text-anchor="start" x="18.5" y="-85.5" font-family="Helvetica,sans-Serif" font-size="10.00">DynExpInstr::CircularData</text>
<text text-anchor="middle" x="82" y="-74.5" font-family="Helvetica,sans-Serif" font-size="10.00">Stream&lt; BasicSample &gt;</text>
</a>
</g>
</g>
<!-- Node2&#45;&gt;Node1 -->
<g id="edge1" class="edge">
<title>Node2&#45;&gt;Node1</title>
<path fill="none" stroke="midnightblue" d="M82,-57.11C82,-48.15 82,-38.32 82,-30.58"/>
<polygon fill="midnightblue" stroke="midnightblue" points="78.5,-57.4 82,-67.4 85.5,-57.4 78.5,-57.4"/>
</g>
<!-- Node3 -->
<g id="node3" class="node">
<title>Node3</title>
<g id="a_node3"><a xlink:href="classDynExpInstr_1_1CircularDataStreamBase.html" target="_top" xlink:title="Base class for all circular data streams based on Util::circularbuf.">
<polygon fill="white" stroke="black" points="10.5,-134.5 10.5,-164.5 153.5,-164.5 153.5,-134.5 10.5,-134.5"/>
<text text-anchor="start" x="18.5" y="-152.5" font-family="Helvetica,sans-Serif" font-size="10.00">DynExpInstr::CircularData</text>
<text text-anchor="middle" x="82" y="-141.5" font-family="Helvetica,sans-Serif" font-size="10.00">StreamBase</text>
</a>
</g>
</g>
<!-- Node3&#45;&gt;Node2 -->
<g id="edge2" class="edge">
<title>Node3&#45;&gt;Node2</title>
<path fill="none" stroke="midnightblue" d="M82,-124.11C82,-115.15 82,-105.32 82,-97.58"/>
<polygon fill="midnightblue" stroke="midnightblue" points="78.5,-124.4 82,-134.4 85.5,-124.4 78.5,-124.4"/>
</g>
<!-- Node4 -->
<g id="node4" class="node">
<title>Node4</title>
<g id="a_node4"><a xlink:href="classDynExpInstr_1_1DataStreamBase.html" target="_top" xlink:title="Base class for all data streams compatible with the data stream instrument&#39;s data class DataStreamIns...">
<polygon fill="white" stroke="black" points="0,-201.5 0,-220.5 164,-220.5 164,-201.5 0,-201.5"/>
<text text-anchor="middle" x="82" y="-208.5" font-family="Helvetica,sans-Serif" font-size="10.00">DynExpInstr::DataStreamBase</text>
</a>
</g>
</g>
<!-- Node4&#45;&gt;Node3 -->
<g id="edge3" class="edge">
<title>Node4&#45;&gt;Node3</title>
<path fill="none" stroke="midnightblue" d="M82,-191.23C82,-182.59 82,-172.5 82,-164.52"/>
<polygon fill="midnightblue" stroke="midnightblue" points="78.5,-191.48 82,-201.48 85.5,-191.48 78.5,-191.48"/>
</g>
</g>
</svg>
