<?xml version="1.0" encoding="UTF-8" standalone="no"?>
<!DOCTYPE svg PUBLIC "-//W3C//DTD SVG 1.1//EN"
 "http://www.w3.org/Graphics/SVG/1.1/DTD/svg11.dtd">
<!-- Generated by graphviz version 2.43.0 (0)
 -->
<!-- Title: DynExpInstr::NIDAQDigitalInConfigurator Pages: 1 -->
<svg width="205pt" height="386pt"
 viewBox="0.00 0.00 205.00 386.00" xmlns="http://www.w3.org/2000/svg" xmlns:xlink="http://www.w3.org/1999/xlink">
<g id="graph0" class="graph" transform="scale(1 1) rotate(0) translate(4 382)">
<title>DynExpInstr::NIDAQDigitalInConfigurator</title>
<polygon fill="white" stroke="transparent" points="-4,4 -4,-382 201,-382 201,4 -4,4"/>
<!-- Node1 -->
<g id="node1" class="node">
<title>Node1</title>
<g id="a_node1"><a xlink:title=" ">
<polygon fill="#bfbfbf" stroke="black" points="25.5,-0.5 25.5,-30.5 171.5,-30.5 171.5,-0.5 25.5,-0.5"/>
<text text-anchor="start" x="33.5" y="-18.5" font-family="Helvetica,sans-Serif" font-size="10.00">DynExpInstr::NIDAQDigital</text>
<text text-anchor="middle" x="98.5" y="-7.5" font-family="Helvetica,sans-Serif" font-size="10.00">InConfigurator</text>
</a>
</g>
</g>
<!-- Node2 -->
<g id="node2" class="node">
<title>Node2</title>
<g id="a_node2"><a xlink:href="classDynExpInstr_1_1DigitalInConfigurator.html" target="_top" xlink:title="Configurator class for DigitalIn.">
<polygon fill="white" stroke="black" points="7,-67.5 7,-86.5 190,-86.5 190,-67.5 7,-67.5"/>
<text text-anchor="middle" x="98.5" y="-74.5" font-family="Helvetica,sans-Serif" font-size="10.00">DynExpInstr::DigitalInConfigurator</text>
</a>
</g>
</g>
<!-- Node2&#45;&gt;Node1 -->
<g id="edge1" class="edge">
<title>Node2&#45;&gt;Node1</title>
<path fill="none" stroke="midnightblue" d="M98.5,-57.23C98.5,-48.59 98.5,-38.5 98.5,-30.52"/>
<polygon fill="midnightblue" stroke="midnightblue" points="95,-57.48 98.5,-67.48 102,-57.48 95,-57.48"/>
</g>
<!-- Node3 -->
<g id="node3" class="node">
<title>Node3</title>
<g id="a_node3"><a xlink:href="classDynExpInstr_1_1InputPortConfigurator.html" target="_top" xlink:title="Configurator class for InputPort.">
<polygon fill="white" stroke="black" points="5.5,-123.5 5.5,-142.5 191.5,-142.5 191.5,-123.5 5.5,-123.5"/>
<text text-anchor="middle" x="98.5" y="-130.5" font-family="Helvetica,sans-Serif" font-size="10.00">DynExpInstr::InputPortConfigurator</text>
</a>
</g>
</g>
<!-- Node3&#45;&gt;Node2 -->
<g id="edge2" class="edge">
<title>Node3&#45;&gt;Node2</title>
<path fill="none" stroke="midnightblue" d="M98.5,-112.8C98.5,-103.91 98.5,-93.78 98.5,-86.75"/>
<polygon fill="midnightblue" stroke="midnightblue" points="95,-113.08 98.5,-123.08 102,-113.08 95,-113.08"/>
</g>
<!-- Node4 -->
<g id="node4" class="node">
<title>Node4</title>
<g id="a_node4"><a xlink:href="classDynExpInstr_1_1DataStreamInstrumentConfigurator.html" target="_top" xlink:title="Configurator class for DataStreamInstrument.">
<polygon fill="white" stroke="black" points="1.5,-179.5 1.5,-209.5 195.5,-209.5 195.5,-179.5 1.5,-179.5"/>
<text text-anchor="start" x="9.5" y="-197.5" font-family="Helvetica,sans-Serif" font-size="10.00">DynExpInstr::DataStreamInstrument</text>
<text text-anchor="middle" x="98.5" y="-186.5" font-family="Helvetica,sans-Serif" font-size="10.00">Configurator</text>
</a>
</g>
</g>
<!-- Node4&#45;&gt;Node3 -->
<g id="edge3" class="edge">
<title>Node4&#45;&gt;Node3</title>
<path fill="none" stroke="midnightblue" d="M98.5,-169.29C98.5,-159.86 98.5,-149.65 98.5,-142.66"/>
<polygon fill="midnightblue" stroke="midnightblue" points="95,-169.4 98.5,-179.4 102,-169.4 95,-169.4"/>
</g>
<!-- Node5 -->
<g id="node5" class="node">
<title>Node5</title>
<g id="a_node5"><a xlink:href="classDynExp_1_1InstrumentConfiguratorBase.html" target="_top" xlink:title="Configurator class for InstrumentBase.">
<polygon fill="white" stroke="black" points="0,-246.5 0,-265.5 197,-265.5 197,-246.5 0,-246.5"/>
<text text-anchor="middle" x="98.5" y="-253.5" font-family="Helvetica,sans-Serif" font-size="10.00">DynExp::InstrumentConfiguratorBase</text>
</a>
</g>
</g>
<!-- Node5&#45;&gt;Node4 -->
<g id="edge4" class="edge">
<title>Node5&#45;&gt;Node4</title>
<path fill="none" stroke="midnightblue" d="M98.5,-236.23C98.5,-227.59 98.5,-217.5 98.5,-209.52"/>
<polygon fill="midnightblue" stroke="midnightblue" points="95,-236.48 98.5,-246.48 102,-236.48 95,-236.48"/>
</g>
<!-- Node6 -->
<g id="node6" class="node">
<title>Node6</title>
<g id="a_node6"><a xlink:href="classDynExp_1_1RunnableObjectConfigurator.html" target="_top" xlink:title="Configurator class for RunnableObject.">
<polygon fill="white" stroke="black" points="0,-302.5 0,-321.5 197,-321.5 197,-302.5 0,-302.5"/>
<text text-anchor="middle" x="98.5" y="-309.5" font-family="Helvetica,sans-Serif" font-size="10.00">DynExp::RunnableObjectConfigurator</text>
</a>
</g>
</g>
<!-- Node6&#45;&gt;Node5 -->
<g id="edge5" class="edge">
<title>Node6&#45;&gt;Node5</title>
<path fill="none" stroke="midnightblue" d="M98.5,-291.8C98.5,-282.91 98.5,-272.78 98.5,-265.75"/>
<polygon fill="midnightblue" stroke="midnightblue" points="95,-292.08 98.5,-302.08 102,-292.08 95,-292.08"/>
</g>
<!-- Node7 -->
<g id="node7" class="node">
<title>Node7</title>
<g id="a_node7"><a xlink:href="classDynExp_1_1ConfiguratorBase.html" target="_top" xlink:title="The configurator classes have the task to generate parameter objects (refer to DynExp::ParamsBase) of...">
<polygon fill="white" stroke="black" points="26.5,-358.5 26.5,-377.5 170.5,-377.5 170.5,-358.5 26.5,-358.5"/>
<text text-anchor="middle" x="98.5" y="-365.5" font-family="Helvetica,sans-Serif" font-size="10.00">DynExp::ConfiguratorBase</text>
</a>
</g>
</g>
<!-- Node7&#45;&gt;Node6 -->
<g id="edge6" class="edge">
<title>Node7&#45;&gt;Node6</title>
<path fill="none" stroke="midnightblue" d="M98.5,-347.8C98.5,-338.91 98.5,-328.78 98.5,-321.75"/>
<polygon fill="midnightblue" stroke="midnightblue" points="95,-348.08 98.5,-358.08 102,-348.08 95,-348.08"/>
</g>
</g>
</svg>
