<?xml version="1.0" encoding="UTF-8" standalone="no"?>
<!DOCTYPE svg PUBLIC "-//W3C//DTD SVG 1.1//EN"
 "http://www.w3.org/Graphics/SVG/1.1/DTD/svg11.dtd">
<!-- Generated by graphviz version 2.43.0 (0)
 -->
<!-- Title: Util::ILockable Pages: 1 -->
<svg width="1187pt" height="455pt"
 viewBox="0.00 0.00 1187.00 454.50" xmlns="http://www.w3.org/2000/svg" xmlns:xlink="http://www.w3.org/1999/xlink">
<g id="graph0" class="graph" transform="scale(1 1) rotate(0) translate(4 450.5)">
<title>Util::ILockable</title>
<polygon fill="white" stroke="transparent" points="-4,4 -4,-450.5 1183,-450.5 1183,4 -4,4"/>
<!-- Node1 -->
<g id="node1" class="node">
<title>Node1</title>
<g id="a_node1"><a xlink:title="Interface to allow synchronizing the access to derived classes between different threads by providing...">
<polygon fill="#bfbfbf" stroke="black" points="144,-131.5 144,-150.5 230,-150.5 230,-131.5 144,-131.5"/>
<text text-anchor="middle" x="187" y="-138.5" font-family="Helvetica,sans-Serif" font-size="10.00">Util::ILockable</text>
</a>
</g>
</g>
<!-- Node3 -->
<g id="node3" class="node">
<title>Node3</title>
<g id="a_node3"><a xlink:href="classDynExp_1_1EventListenersBase.html" target="_top" xlink:title="Common base class for all managers of event listeners of type TypedEventListeners....">
<polygon fill="white" stroke="black" points="294,-336.5 294,-355.5 450,-355.5 450,-336.5 294,-336.5"/>
<text text-anchor="middle" x="372" y="-343.5" font-family="Helvetica,sans-Serif" font-size="10.00">DynExp::EventListenersBase</text>
</a>
</g>
</g>
<!-- Node1&#45;&gt;Node3 -->
<g id="edge2" class="edge">
<title>Node1&#45;&gt;Node3</title>
<path fill="none" stroke="midnightblue" d="M200.54,-158.67C215.42,-179.28 241.33,-214.09 266,-242 298.46,-278.72 340.93,-318.54 360.41,-336.39"/>
<polygon fill="midnightblue" stroke="midnightblue" points="203.37,-156.61 194.7,-150.52 197.68,-160.69 203.37,-156.61"/>
</g>
<!-- Node5 -->
<g id="node5" class="node">
<title>Node5</title>
<g id="a_node5"><a xlink:href="classDynExp_1_1HardwareAdapterBase.html" target="_top" xlink:title="Defines the base class for a hardware adapter object. Hardware adapters describe interfaces/connectio...">
<polygon fill="white" stroke="black" points="287,-213.5 287,-232.5 457,-232.5 457,-213.5 287,-213.5"/>
<text text-anchor="middle" x="372" y="-220.5" font-family="Helvetica,sans-Serif" font-size="10.00">DynExp::HardwareAdapterBase</text>
</a>
</g>
</g>
<!-- Node1&#45;&gt;Node5 -->
<g id="edge4" class="edge">
<title>Node1&#45;&gt;Node5</title>
<path fill="none" stroke="midnightblue" d="M204.28,-158.33C218.99,-172.88 241.96,-193 266,-204 274.51,-207.89 283.74,-210.99 293.09,-213.45"/>
<polygon fill="midnightblue" stroke="midnightblue" points="206.51,-155.6 197.01,-150.91 201.51,-160.5 206.51,-155.6"/>
</g>
<!-- Node18 -->
<g id="node18" class="node">
<title>Node18</title>
<g id="a_node18"><a xlink:href="classDynExp_1_1ObjectUserList.html" target="_top" xlink:title="Helper class to enable keeping track of instances of class Object making use of the owner of the resp...">
<polygon fill="white" stroke="black" points="306.5,-175.5 306.5,-194.5 437.5,-194.5 437.5,-175.5 306.5,-175.5"/>
<text text-anchor="middle" x="372" y="-182.5" font-family="Helvetica,sans-Serif" font-size="10.00">DynExp::ObjectUserList</text>
</a>
</g>
</g>
<!-- Node1&#45;&gt;Node18 -->
<g id="edge17" class="edge">
<title>Node1&#45;&gt;Node18</title>
<path fill="none" stroke="midnightblue" d="M226.06,-153.63C238.69,-157.57 252.87,-161.74 266,-165 281.76,-168.91 299.01,-172.49 314.9,-175.5"/>
<polygon fill="midnightblue" stroke="midnightblue" points="226.91,-150.23 216.32,-150.54 224.79,-156.9 226.91,-150.23"/>
</g>
<!-- Node19 -->
<g id="node19" class="node">
<title>Node19</title>
<g id="a_node19"><a xlink:href="classDynExpHardware_1_1PVCamHardwareAdapter_1_1PVCamInitializer.html" target="_top" xlink:title="Only one instance of this class is allowed for synchronizing calls to the PVCam library from any PVCa...">
<polygon fill="white" stroke="black" points="277,-126 277,-156 467,-156 467,-126 277,-126"/>
<text text-anchor="start" x="285" y="-144" font-family="Helvetica,sans-Serif" font-size="10.00">DynExpHardware::PVCamHardware</text>
<text text-anchor="middle" x="372" y="-133" font-family="Helvetica,sans-Serif" font-size="10.00">Adapter::PVCamInitializer</text>
</a>
</g>
</g>
<!-- Node1&#45;&gt;Node19 -->
<g id="edge18" class="edge">
<title>Node1&#45;&gt;Node19</title>
<path fill="none" stroke="midnightblue" d="M240.57,-141C251.93,-141 264.27,-141 276.69,-141"/>
<polygon fill="midnightblue" stroke="midnightblue" points="240.44,-137.5 230.44,-141 240.44,-144.5 240.44,-137.5"/>
</g>
<!-- Node20 -->
<g id="node20" class="node">
<title>Node20</title>
<g id="a_node20"><a xlink:href="classDynExpHardware_1_1QutoolsTDCHardwareAdapter_1_1QutoolsTDCSynchronizer.html" target="_top" xlink:title="Only one instance of this class is allowed for synchronizing calls to connected qutools time taggers....">
<polygon fill="white" stroke="black" points="266,-77 266,-107 478,-107 478,-77 266,-77"/>
<text text-anchor="start" x="274" y="-95" font-family="Helvetica,sans-Serif" font-size="10.00">DynExpHardware::QutoolsTDCHardware</text>
<text text-anchor="middle" x="372" y="-84" font-family="Helvetica,sans-Serif" font-size="10.00">Adapter::QutoolsTDCSynchronizer</text>
</a>
</g>
</g>
<!-- Node1&#45;&gt;Node20 -->
<g id="edge19" class="edge">
<title>Node1&#45;&gt;Node20</title>
<path fill="none" stroke="midnightblue" d="M225.79,-128.17C238.49,-124.05 252.8,-119.62 266,-116 277.36,-112.89 289.49,-109.85 301.32,-107.05"/>
<polygon fill="midnightblue" stroke="midnightblue" points="224.4,-124.94 215.99,-131.39 226.58,-131.6 224.4,-124.94"/>
</g>
<!-- Node21 -->
<g id="node21" class="node">
<title>Node21</title>
<g id="a_node21"><a xlink:href="classUtil_1_1EventLogger.html" target="_top" xlink:title="Logs events like errors and writes them immediately to a HTML file in a human&#45;readable format....">
<polygon fill="white" stroke="black" points="321.5,-38.5 321.5,-57.5 422.5,-57.5 422.5,-38.5 321.5,-38.5"/>
<text text-anchor="middle" x="372" y="-45.5" font-family="Helvetica,sans-Serif" font-size="10.00">Util::EventLogger</text>
</a>
</g>
</g>
<!-- Node1&#45;&gt;Node21 -->
<g id="edge20" class="edge">
<title>Node1&#45;&gt;Node21</title>
<path fill="none" stroke="midnightblue" d="M201.42,-123.31C215.52,-106.06 239.34,-80.51 266,-67 282.94,-58.42 303.14,-53.66 321.29,-51.04"/>
<polygon fill="midnightblue" stroke="midnightblue" points="198.42,-121.45 194.96,-131.47 203.91,-125.8 198.42,-121.45"/>
</g>
<!-- Node22 -->
<g id="node22" class="node">
<title>Node22</title>
<g id="a_node22"><a xlink:href="classUtil_1_1Warning.html" target="_top" xlink:title="Class to store information about warnings in a thread&#45;safe manner (deriving from ILockable)....">
<polygon fill="white" stroke="black" points="332,-0.5 332,-19.5 412,-19.5 412,-0.5 332,-0.5"/>
<text text-anchor="middle" x="372" y="-7.5" font-family="Helvetica,sans-Serif" font-size="10.00">Util::Warning</text>
</a>
</g>
</g>
<!-- Node1&#45;&gt;Node22 -->
<g id="edge21" class="edge">
<title>Node1&#45;&gt;Node22</title>
<path fill="none" stroke="midnightblue" d="M195.68,-121.91C207.02,-96.35 230.77,-51.62 266,-29 285.49,-16.49 310.98,-11.67 331.96,-10.01"/>
<polygon fill="midnightblue" stroke="midnightblue" points="192.39,-120.7 191.7,-131.28 198.84,-123.44 192.39,-120.7"/>
</g>
<!-- Node2 -->
<g id="node2" class="node">
<title>Node2</title>
<g id="a_node2"><a xlink:href="classUtil_1_1INonCopyable.html" target="_top" xlink:title="Interface to delete copy constructor and copy assignment operator and thus make derived classes non&#45;c...">
<polygon fill="white" stroke="black" points="0,-131.5 0,-150.5 108,-150.5 108,-131.5 0,-131.5"/>
<text text-anchor="middle" x="54" y="-138.5" font-family="Helvetica,sans-Serif" font-size="10.00">Util::INonCopyable</text>
</a>
</g>
</g>
<!-- Node2&#45;&gt;Node1 -->
<g id="edge1" class="edge">
<title>Node2&#45;&gt;Node1</title>
<path fill="none" stroke="midnightblue" d="M118.3,-141C126.88,-141 135.51,-141 143.6,-141"/>
<polygon fill="midnightblue" stroke="midnightblue" points="118.28,-137.5 108.28,-141 118.28,-144.5 118.28,-137.5"/>
</g>
<!-- Node4 -->
<g id="node4" class="node">
<title>Node4</title>
<g id="a_node4"><a xlink:href="classDynExp_1_1TypedEventListeners.html" target="_top" xlink:title="Typed managers of event listeners class whose instances are owned by classes derived from InterModule...">
<polygon fill="white" stroke="black" points="539.5,-416 539.5,-446 700.5,-446 700.5,-416 539.5,-416"/>
<text text-anchor="start" x="547.5" y="-434" font-family="Helvetica,sans-Serif" font-size="10.00">DynExp::TypedEventListeners</text>
<text text-anchor="middle" x="620" y="-423" font-family="Helvetica,sans-Serif" font-size="10.00">&lt; EventFuncArgs &gt;</text>
</a>
</g>
</g>
<!-- Node3&#45;&gt;Node4 -->
<g id="edge3" class="edge">
<title>Node3&#45;&gt;Node4</title>
<path fill="none" stroke="midnightblue" d="M401.92,-360.01C430.04,-373.22 474.22,-392.9 514,-406 525.04,-409.63 536.88,-412.97 548.51,-415.95"/>
<polygon fill="midnightblue" stroke="midnightblue" points="403.21,-356.75 392.67,-355.63 400.21,-363.07 403.21,-356.75"/>
</g>
<!-- Node6 -->
<g id="node6" class="node">
<title>Node6</title>
<g id="a_node6"><a xlink:href="classDynExpHardware_1_1gRPCHardwareAdapter.html" target="_top" xlink:title=" ">
<polygon fill="white" stroke="black" points="530,-355.5 530,-396.5 710,-396.5 710,-355.5 530,-355.5"/>
<text text-anchor="start" x="538" y="-384.5" font-family="Helvetica,sans-Serif" font-size="10.00">DynExpHardware::gRPCHardware</text>
<text text-anchor="start" x="538" y="-373.5" font-family="Helvetica,sans-Serif" font-size="10.00">Adapter&lt; pulse_streamer</text>
<text text-anchor="middle" x="620" y="-362.5" font-family="Helvetica,sans-Serif" font-size="10.00">::PulseStreamer &gt;</text>
</a>
</g>
</g>
<!-- Node5&#45;&gt;Node6 -->
<g id="edge5" class="edge">
<title>Node5&#45;&gt;Node6</title>
<path fill="none" stroke="midnightblue" d="M388.47,-240.49C412.7,-266.85 462.23,-316.7 514,-345 521.17,-348.92 528.9,-352.4 536.79,-355.47"/>
<polygon fill="midnightblue" stroke="midnightblue" points="390.82,-237.87 381.52,-232.81 385.63,-242.57 390.82,-237.87"/>
</g>
<!-- Node8 -->
<g id="node8" class="node">
<title>Node8</title>
<g id="a_node8"><a xlink:href="classDynExp_1_1SerialCommunicationHardwareAdapter.html" target="_top" xlink:title="Defines a hardware adapter for serial communication. Logical const&#45;ness: see declaration of class Dyn...">
<polygon fill="white" stroke="black" points="537.5,-306 537.5,-336 702.5,-336 702.5,-306 537.5,-306"/>
<text text-anchor="start" x="545.5" y="-324" font-family="Helvetica,sans-Serif" font-size="10.00">DynExp::SerialCommunication</text>
<text text-anchor="middle" x="620" y="-313" font-family="Helvetica,sans-Serif" font-size="10.00">HardwareAdapter</text>
</a>
</g>
</g>
<!-- Node5&#45;&gt;Node8 -->
<g id="edge7" class="edge">
<title>Node5&#45;&gt;Node8</title>
<path fill="none" stroke="midnightblue" d="M397.38,-237.97C424.84,-254.26 471.24,-280.11 514,-296 524.1,-299.75 534.96,-303.08 545.73,-305.99"/>
<polygon fill="midnightblue" stroke="midnightblue" points="398.87,-234.78 388.49,-232.63 395.26,-240.78 398.87,-234.78"/>
</g>
<!-- Node12 -->
<g id="node12" class="node">
<title>Node12</title>
<g id="a_node12"><a xlink:href="classDynExpHardware_1_1NIDAQHardwareAdapter.html" target="_top" xlink:title=" ">
<polygon fill="white" stroke="black" points="526.5,-257 526.5,-287 713.5,-287 713.5,-257 526.5,-257"/>
<text text-anchor="start" x="534.5" y="-275" font-family="Helvetica,sans-Serif" font-size="10.00">DynExpHardware::NIDAQHardware</text>
<text text-anchor="middle" x="620" y="-264" font-family="Helvetica,sans-Serif" font-size="10.00">Adapter</text>
</a>
</g>
</g>
<!-- Node5&#45;&gt;Node12 -->
<g id="edge11" class="edge">
<title>Node5&#45;&gt;Node12</title>
<path fill="none" stroke="midnightblue" d="M430.83,-234.52C464.42,-241.21 507.11,-249.71 543.34,-256.93"/>
<polygon fill="midnightblue" stroke="midnightblue" points="431.21,-231.03 420.72,-232.51 429.85,-237.89 431.21,-231.03"/>
</g>
<!-- Node13 -->
<g id="node13" class="node">
<title>Node13</title>
<g id="a_node13"><a xlink:href="classDynExpHardware_1_1PVCamHardwareAdapter.html" target="_top" xlink:title=" ">
<polygon fill="white" stroke="black" points="525,-208 525,-238 715,-238 715,-208 525,-208"/>
<text text-anchor="start" x="533" y="-226" font-family="Helvetica,sans-Serif" font-size="10.00">DynExpHardware::PVCamHardware</text>
<text text-anchor="middle" x="620" y="-215" font-family="Helvetica,sans-Serif" font-size="10.00">Adapter</text>
</a>
</g>
</g>
<!-- Node5&#45;&gt;Node13 -->
<g id="edge12" class="edge">
<title>Node5&#45;&gt;Node13</title>
<path fill="none" stroke="midnightblue" d="M467.34,-223C486.14,-223 505.88,-223 524.67,-223"/>
<polygon fill="midnightblue" stroke="midnightblue" points="467.32,-219.5 457.32,-223 467.32,-226.5 467.32,-219.5"/>
</g>
<!-- Node14 -->
<g id="node14" class="node">
<title>Node14</title>
<g id="a_node14"><a xlink:href="classDynExpHardware_1_1QutoolsTDCHardwareAdapter.html" target="_top" xlink:title=" ">
<polygon fill="white" stroke="black" points="514,-159 514,-189 726,-189 726,-159 514,-159"/>
<text text-anchor="start" x="522" y="-177" font-family="Helvetica,sans-Serif" font-size="10.00">DynExpHardware::QutoolsTDCHardware</text>
<text text-anchor="middle" x="620" y="-166" font-family="Helvetica,sans-Serif" font-size="10.00">Adapter</text>
</a>
</g>
</g>
<!-- Node5&#45;&gt;Node14 -->
<g id="edge13" class="edge">
<title>Node5&#45;&gt;Node14</title>
<path fill="none" stroke="midnightblue" d="M437.63,-211.63C450.99,-209.18 464.96,-206.57 478,-204 501.57,-199.36 527.3,-193.98 550.24,-189.07"/>
<polygon fill="midnightblue" stroke="midnightblue" points="436.77,-208.23 427.56,-213.46 438.02,-215.11 436.77,-208.23"/>
</g>
<!-- Node15 -->
<g id="node15" class="node">
<title>Node15</title>
<g id="a_node15"><a xlink:href="classDynExpHardware_1_1SmarActHardwareAdapter.html" target="_top" xlink:title=" ">
<polygon fill="white" stroke="black" points="522,-110 522,-140 718,-140 718,-110 522,-110"/>
<text text-anchor="start" x="530" y="-128" font-family="Helvetica,sans-Serif" font-size="10.00">DynExpHardware::SmarActHardware</text>
<text text-anchor="middle" x="620" y="-117" font-family="Helvetica,sans-Serif" font-size="10.00">Adapter</text>
</a>
</g>
</g>
<!-- Node5&#45;&gt;Node15 -->
<g id="edge14" class="edge">
<title>Node5&#45;&gt;Node15</title>
<path fill="none" stroke="midnightblue" d="M466.61,-210.36C470.57,-208.5 474.39,-206.39 478,-204 502.36,-187.86 490.02,-165.69 514,-149 518.99,-145.53 524.4,-142.55 530.05,-140"/>
<polygon fill="midnightblue" stroke="midnightblue" points="465.03,-207.23 457.12,-214.28 467.7,-213.7 465.03,-207.23"/>
</g>
<!-- Node16 -->
<g id="node16" class="node">
<title>Node16</title>
<g id="a_node16"><a xlink:href="classDynExpHardware_1_1ZILabOneHardwareAdapter.html" target="_top" xlink:title=" ">
<polygon fill="white" stroke="black" points="543,-61 543,-91 697,-91 697,-61 543,-61"/>
<text text-anchor="start" x="551" y="-79" font-family="Helvetica,sans-Serif" font-size="10.00">DynExpHardware::ZILabOne</text>
<text text-anchor="middle" x="620" y="-68" font-family="Helvetica,sans-Serif" font-size="10.00">HardwareAdapter</text>
</a>
</g>
</g>
<!-- Node5&#45;&gt;Node16 -->
<g id="edge15" class="edge">
<title>Node5&#45;&gt;Node16</title>
<path fill="none" stroke="midnightblue" d="M466.39,-211.99C470.52,-209.71 474.42,-207.07 478,-204 515.15,-172.18 477.59,-132.66 514,-100 522.21,-92.63 532.22,-87.39 542.75,-83.68"/>
<polygon fill="midnightblue" stroke="midnightblue" points="464.58,-208.97 457.02,-216.4 467.56,-215.3 464.58,-208.97"/>
</g>
<!-- Node17 -->
<g id="node17" class="node">
<title>Node17</title>
<g id="a_node17"><a xlink:href="classDynExpHardware_1_1gRPCHardwareAdapter.html" target="_top" xlink:title="This template class provides basic functionality to design hardware adapters for instruments which co...">
<polygon fill="white" stroke="black" points="530,-12 530,-42 710,-42 710,-12 530,-12"/>
<text text-anchor="start" x="538" y="-30" font-family="Helvetica,sans-Serif" font-size="10.00">DynExpHardware::gRPCHardware</text>
<text text-anchor="middle" x="620" y="-19" font-family="Helvetica,sans-Serif" font-size="10.00">Adapter&lt; gRPCStub &gt;</text>
</a>
</g>
</g>
<!-- Node5&#45;&gt;Node17 -->
<g id="edge16" class="edge">
<title>Node5&#45;&gt;Node17</title>
<path fill="none" stroke="midnightblue" d="M466.17,-212.78C470.43,-210.31 474.41,-207.41 478,-204 528.67,-155.91 464.45,-100.24 514,-51 518.64,-46.39 523.98,-42.59 529.73,-39.46"/>
<polygon fill="midnightblue" stroke="midnightblue" points="464.51,-209.69 457.09,-217.25 467.6,-215.97 464.51,-209.69"/>
</g>
<!-- Node7 -->
<g id="node7" class="node">
<title>Node7</title>
<g id="a_node7"><a xlink:href="classDynExpHardware_1_1SIPulseStreamerHardwareAdapter.html" target="_top" xlink:title=" ">
<polygon fill="white" stroke="black" points="762,-361 762,-391 950,-391 950,-361 762,-361"/>
<text text-anchor="start" x="770" y="-379" font-family="Helvetica,sans-Serif" font-size="10.00">DynExpHardware::SIPulseStreamer</text>
<text text-anchor="middle" x="856" y="-368" font-family="Helvetica,sans-Serif" font-size="10.00">HardwareAdapter</text>
</a>
</g>
</g>
<!-- Node6&#45;&gt;Node7 -->
<g id="edge6" class="edge">
<title>Node6&#45;&gt;Node7</title>
<path fill="none" stroke="midnightblue" d="M720.53,-376C734.23,-376 748.26,-376 761.84,-376"/>
<polygon fill="midnightblue" stroke="midnightblue" points="720.13,-372.5 710.13,-376 720.13,-379.5 720.13,-372.5"/>
</g>
<!-- Node9 -->
<g id="node9" class="node">
<title>Node9</title>
<g id="a_node9"><a xlink:href="classDynExp_1_1QSerialCommunicationHardwareAdapter.html" target="_top" xlink:title="SerialCommunicationHardwareAdapter is based on a Qt communication object (wrapped by QSerialCommunica...">
<polygon fill="white" stroke="black" points="769.5,-306 769.5,-336 942.5,-336 942.5,-306 769.5,-306"/>
<text text-anchor="start" x="777.5" y="-324" font-family="Helvetica,sans-Serif" font-size="10.00">DynExp::QSerialCommunication</text>
<text text-anchor="middle" x="856" y="-313" font-family="Helvetica,sans-Serif" font-size="10.00">HardwareAdapter</text>
</a>
</g>
</g>
<!-- Node8&#45;&gt;Node9 -->
<g id="edge8" class="edge">
<title>Node8&#45;&gt;Node9</title>
<path fill="none" stroke="midnightblue" d="M712.77,-321C731.42,-321 750.98,-321 769.41,-321"/>
<polygon fill="midnightblue" stroke="midnightblue" points="712.51,-317.5 702.51,-321 712.51,-324.5 712.51,-317.5"/>
</g>
<!-- Node10 -->
<g id="node10" class="node">
<title>Node10</title>
<g id="a_node10"><a xlink:href="classDynExp_1_1HardwareAdapterSerialPort.html" target="_top" xlink:title="Implements a hardware adapter to communicate with text&#45;based commands over COM ports.">
<polygon fill="white" stroke="black" points="986,-333.5 986,-352.5 1179,-352.5 1179,-333.5 986,-333.5"/>
<text text-anchor="middle" x="1082.5" y="-340.5" font-family="Helvetica,sans-Serif" font-size="10.00">DynExp::HardwareAdapterSerialPort</text>
</a>
</g>
</g>
<!-- Node9&#45;&gt;Node10 -->
<g id="edge9" class="edge">
<title>Node9&#45;&gt;Node10</title>
<path fill="none" stroke="midnightblue" d="M952.53,-330.36C963.52,-331.44 974.73,-332.54 985.72,-333.61"/>
<polygon fill="midnightblue" stroke="midnightblue" points="952.81,-326.87 942.51,-329.38 952.13,-333.84 952.81,-326.87"/>
</g>
<!-- Node11 -->
<g id="node11" class="node">
<title>Node11</title>
<g id="a_node11"><a xlink:href="classDynExp_1_1HardwareAdapterTcpSocket.html" target="_top" xlink:title="Implements a hardware adapter to communicate with text&#45;based commands over TCP sockets.">
<polygon fill="white" stroke="black" points="1002,-284 1002,-314 1163,-314 1163,-284 1002,-284"/>
<text text-anchor="start" x="1010" y="-302" font-family="Helvetica,sans-Serif" font-size="10.00">DynExp::HardwareAdapterTcp</text>
<text text-anchor="middle" x="1082.5" y="-291" font-family="Helvetica,sans-Serif" font-size="10.00">Socket</text>
</a>
</g>
</g>
<!-- Node9&#45;&gt;Node11 -->
<g id="edge10" class="edge">
<title>Node9&#45;&gt;Node11</title>
<path fill="none" stroke="midnightblue" d="M952.63,-311.63C969.01,-310.02 985.86,-308.37 1001.76,-306.81"/>
<polygon fill="midnightblue" stroke="midnightblue" points="952.13,-308.16 942.51,-312.62 952.81,-315.13 952.13,-308.16"/>
</g>
</g>
</svg>
