<?xml version="1.0" encoding="UTF-8" standalone="no"?>
<!DOCTYPE svg PUBLIC "-//W3C//DTD SVG 1.1//EN"
 "http://www.w3.org/Graphics/SVG/1.1/DTD/svg11.dtd">
<!-- Generated by graphviz version 2.43.0 (0)
 -->
<!-- Title: DynExpInstr::DataStreamBase Pages: 1 -->
<svg width="726pt" height="86pt"
 viewBox="0.00 0.00 726.00 86.00" xmlns="http://www.w3.org/2000/svg" xmlns:xlink="http://www.w3.org/1999/xlink">
<g id="graph0" class="graph" transform="scale(1 1) rotate(0) translate(4 82)">
<title>DynExpInstr::DataStreamBase</title>
<!-- Node1 -->
<g id="Node000001" class="node">
<title>Node1</title>
<g id="a_Node000001"><a xlink:title="Base class for all data streams compatible with the data stream instrument&#39;s data class DataStreamIns...">
<polygon fill="#999999" stroke="#666666" points="164,-48.5 0,-48.5 0,-29.5 164,-29.5 164,-48.5"/>
<text text-anchor="middle" x="82" y="-36.5" font-family="Helvetica,sans-Serif" font-size="10.00">DynExpInstr::DataStreamBase</text>
</a>
</g>
</g>
<!-- Node2 -->
<g id="Node000002" class="node">
<title>Node2</title>
<g id="a_Node000002"><a xlink:href="classDynExpInstr_1_1CircularDataStreamBase.html" target="_top" xlink:title="Base class for all circular data streams based on Util::circularbuf.">
<polygon fill="white" stroke="#666666" points="343,-54 200,-54 200,-24 343,-24 343,-54"/>
<text text-anchor="start" x="208" y="-42" font-family="Helvetica,sans-Serif" font-size="10.00">DynExpInstr::CircularData</text>
<text text-anchor="middle" x="271.5" y="-31" font-family="Helvetica,sans-Serif" font-size="10.00">StreamBase</text>
</a>
</g>
</g>
<!-- Node1&#45;&gt;Node2 -->
<g id="edge1_Node000001_Node000002" class="edge">
<title>Node1&#45;&gt;Node2</title>
<g id="a_edge1_Node000001_Node000002"><a xlink:title=" ">
<path fill="none" stroke="#63b8ff" d="M174.22,-39C182.82,-39 191.45,-39 199.82,-39"/>
<polygon fill="#63b8ff" stroke="#63b8ff" points="174.15,-35.5 164.15,-39 174.15,-42.5 174.15,-35.5"/>
</a>
</g>
</g>
<!-- Node3 -->
<g id="Node000003" class="node">
<title>Node3</title>
<g id="a_Node000003"><a xlink:href="classDynExpInstr_1_1CircularDataStream.html" target="_top" xlink:title=" ">
<polygon fill="white" stroke="#666666" points="522,-78 379,-78 379,-48 522,-48 522,-78"/>
<text text-anchor="start" x="387" y="-66" font-family="Helvetica,sans-Serif" font-size="10.00">DynExpInstr::CircularData</text>
<text text-anchor="middle" x="450.5" y="-55" font-family="Helvetica,sans-Serif" font-size="10.00">Stream&lt; BasicSample &gt;</text>
</a>
</g>
</g>
<!-- Node2&#45;&gt;Node3 -->
<g id="edge2_Node000002_Node000003" class="edge">
<title>Node2&#45;&gt;Node3</title>
<g id="a_edge2_Node000002_Node000003"><a xlink:title=" ">
<path fill="none" stroke="#63b8ff" d="M353.21,-49.94C361.78,-51.11 370.45,-52.28 378.89,-53.43"/>
<polygon fill="#63b8ff" stroke="#63b8ff" points="353.6,-46.46 343.22,-48.59 352.66,-53.4 353.6,-46.46"/>
</a>
</g>
</g>
<!-- Node5 -->
<g id="Node000005" class="node">
<title>Node5</title>
<g id="a_Node000005"><a xlink:href="classDynExpInstr_1_1CircularDataStream.html" target="_top" xlink:title="Implements a circular data stream based on Util::circularbuf.">
<polygon fill="white" stroke="#666666" points="522,-30 379,-30 379,0 522,0 522,-30"/>
<text text-anchor="start" x="387" y="-18" font-family="Helvetica,sans-Serif" font-size="10.00">DynExpInstr::CircularData</text>
<text text-anchor="middle" x="450.5" y="-7" font-family="Helvetica,sans-Serif" font-size="10.00">Stream&lt; SampleT, &gt;</text>
</a>
</g>
</g>
<!-- Node2&#45;&gt;Node5 -->
<g id="edge4_Node000002_Node000005" class="edge">
<title>Node2&#45;&gt;Node5</title>
<g id="a_edge4_Node000002_Node000005"><a xlink:title=" ">
<path fill="none" stroke="#63b8ff" d="M353.21,-28.06C361.78,-26.89 370.45,-25.72 378.89,-24.57"/>
<polygon fill="#63b8ff" stroke="#63b8ff" points="352.66,-24.6 343.22,-29.41 353.6,-31.54 352.66,-24.6"/>
</a>
</g>
</g>
<!-- Node4 -->
<g id="Node000004" class="node">
<title>Node4</title>
<g id="a_Node000004"><a xlink:href="classDynExpInstr_1_1BasicSampleStream.html" target="_top" xlink:title="Implements a circular data stream based on Util::circularbuf using samples of type BasicSample.">
<polygon fill="white" stroke="#666666" points="710.5,-78 565.5,-78 565.5,-48 710.5,-48 710.5,-78"/>
<text text-anchor="start" x="573.5" y="-66" font-family="Helvetica,sans-Serif" font-size="10.00">DynExpInstr::BasicSample</text>
<text text-anchor="middle" x="638" y="-55" font-family="Helvetica,sans-Serif" font-size="10.00">Stream</text>
</a>
</g>
</g>
<!-- Node3&#45;&gt;Node4 -->
<g id="edge3_Node000003_Node000004" class="edge">
<title>Node3&#45;&gt;Node4</title>
<g id="a_edge3_Node000003_Node000004"><a xlink:title=" ">
<path fill="none" stroke="#63b8ff" d="M532.19,-63C543.21,-63 554.46,-63 565.31,-63"/>
<polygon fill="#63b8ff" stroke="#63b8ff" points="532.16,-59.5 522.16,-63 532.16,-66.5 532.16,-59.5"/>
</a>
</g>
</g>
<!-- Node6 -->
<g id="Node000006" class="node">
<title>Node6</title>
<g id="a_Node000006"><a xlink:href="classDynExpInstr_1_1NumericSampleStream.html" target="_top" xlink:title="Implements a circular data stream based on Util::circularbuf using samples of an arithmetic type Samp...">
<polygon fill="white" stroke="#666666" points="718,-30 558,-30 558,0 718,0 718,-30"/>
<text text-anchor="start" x="566" y="-18" font-family="Helvetica,sans-Serif" font-size="10.00">DynExpInstr::NumericSample</text>
<text text-anchor="middle" x="638" y="-7" font-family="Helvetica,sans-Serif" font-size="10.00">Stream&lt; SampleT, &gt;</text>
</a>
</g>
</g>
<!-- Node5&#45;&gt;Node6 -->
<g id="edge5_Node000005_Node000006" class="edge">
<title>Node5&#45;&gt;Node6</title>
<g id="a_edge5_Node000005_Node000006"><a xlink:title=" ">
<path fill="none" stroke="#63b8ff" d="M532.39,-15C540.84,-15 549.43,-15 557.86,-15"/>
<polygon fill="#63b8ff" stroke="#63b8ff" points="532.16,-11.5 522.16,-15 532.16,-18.5 532.16,-11.5"/>
</a>
</g>
</g>
</g>
</svg>
