<?xml version="1.0" encoding="UTF-8" standalone="no"?>
<!DOCTYPE svg PUBLIC "-//W3C//DTD SVG 1.1//EN"
 "http://www.w3.org/Graphics/SVG/1.1/DTD/svg11.dtd">
<!-- Generated by graphviz version 2.43.0 (0)
 -->
<!-- Title: DynExp::QSerialCommunicationHardwareAdapter Pages: 1 -->
<svg width="380pt" height="341pt"
 viewBox="0.00 0.00 380.00 341.00" xmlns="http://www.w3.org/2000/svg" xmlns:xlink="http://www.w3.org/1999/xlink">
<g id="graph0" class="graph" transform="scale(1 1) rotate(0) translate(4 337)">
<title>DynExp::QSerialCommunicationHardwareAdapter</title>
<polygon fill="white" stroke="transparent" points="-4,4 -4,-337 376,-337 376,4 -4,4"/>
<!-- Node1 -->
<g id="node1" class="node">
<title>Node1</title>
<g id="a_node1"><a xlink:title="SerialCommunicationHardwareAdapter is based on a Qt communication object (wrapped by QSerialCommunica...">
<polygon fill="#bfbfbf" stroke="black" points="107,-67.5 107,-97.5 280,-97.5 280,-67.5 107,-67.5"/>
<text text-anchor="start" x="115" y="-85.5" font-family="Helvetica,sans-Serif" font-size="10.00">DynExp::QSerialCommunication</text>
<text text-anchor="middle" x="193.5" y="-74.5" font-family="Helvetica,sans-Serif" font-size="10.00">HardwareAdapter</text>
</a>
</g>
</g>
<!-- Node8 -->
<g id="node8" class="node">
<title>Node8</title>
<g id="a_node8"><a xlink:href="classDynExp_1_1HardwareAdapterSerialPort.html" target="_top" xlink:title="Implements a hardware adapter to communicate with text&#45;based commands over COM ports.">
<polygon fill="white" stroke="black" points="0,-6 0,-25 193,-25 193,-6 0,-6"/>
<text text-anchor="middle" x="96.5" y="-13" font-family="Helvetica,sans-Serif" font-size="10.00">DynExp::HardwareAdapterSerialPort</text>
</a>
</g>
</g>
<!-- Node1&#45;&gt;Node8 -->
<g id="edge7" class="edge">
<title>Node1&#45;&gt;Node8</title>
<path fill="none" stroke="midnightblue" d="M163.86,-61.64C145.56,-49.37 123.01,-34.26 109.2,-25.01"/>
<polygon fill="midnightblue" stroke="midnightblue" points="162.2,-64.74 172.45,-67.4 166.09,-58.92 162.2,-64.74"/>
</g>
<!-- Node9 -->
<g id="node9" class="node">
<title>Node9</title>
<g id="a_node9"><a xlink:href="classDynExp_1_1HardwareAdapterTcpSocket.html" target="_top" xlink:title="Implements a hardware adapter to communicate with text&#45;based commands over TCP sockets.">
<polygon fill="white" stroke="black" points="211,-0.5 211,-30.5 372,-30.5 372,-0.5 211,-0.5"/>
<text text-anchor="start" x="219" y="-18.5" font-family="Helvetica,sans-Serif" font-size="10.00">DynExp::HardwareAdapterTcp</text>
<text text-anchor="middle" x="291.5" y="-7.5" font-family="Helvetica,sans-Serif" font-size="10.00">Socket</text>
</a>
</g>
</g>
<!-- Node1&#45;&gt;Node9 -->
<g id="edge8" class="edge">
<title>Node1&#45;&gt;Node9</title>
<path fill="none" stroke="midnightblue" d="M223.3,-61.73C238.47,-51.68 256.54,-39.68 270.28,-30.58"/>
<polygon fill="midnightblue" stroke="midnightblue" points="221.16,-58.95 214.76,-67.4 225.03,-64.79 221.16,-58.95"/>
</g>
<!-- Node2 -->
<g id="node2" class="node">
<title>Node2</title>
<g id="a_node2"><a xlink:title=" ">
<polygon fill="white" stroke="#bfbfbf" points="101.5,-140 101.5,-159 157.5,-159 157.5,-140 101.5,-140"/>
<text text-anchor="middle" x="129.5" y="-147" font-family="Helvetica,sans-Serif" font-size="10.00">QObject</text>
</a>
</g>
</g>
<!-- Node2&#45;&gt;Node1 -->
<g id="edge1" class="edge">
<title>Node2&#45;&gt;Node1</title>
<path fill="none" stroke="midnightblue" d="M145.45,-132.3C155.95,-121.63 169.57,-107.8 179.63,-97.59"/>
<polygon fill="midnightblue" stroke="midnightblue" points="142.65,-130.15 138.13,-139.73 147.64,-135.06 142.65,-130.15"/>
</g>
<!-- Node3 -->
<g id="node3" class="node">
<title>Node3</title>
<g id="a_node3"><a xlink:href="classDynExp_1_1SerialCommunicationHardwareAdapter.html" target="_top" xlink:title="Defines a hardware adapter for serial communication. Logical const&#45;ness: see declaration of class Dyn...">
<polygon fill="white" stroke="black" points="176,-134.5 176,-164.5 341,-164.5 341,-134.5 176,-134.5"/>
<text text-anchor="start" x="184" y="-152.5" font-family="Helvetica,sans-Serif" font-size="10.00">DynExp::SerialCommunication</text>
<text text-anchor="middle" x="258.5" y="-141.5" font-family="Helvetica,sans-Serif" font-size="10.00">HardwareAdapter</text>
</a>
</g>
</g>
<!-- Node3&#45;&gt;Node1 -->
<g id="edge2" class="edge">
<title>Node3&#45;&gt;Node1</title>
<path fill="none" stroke="midnightblue" d="M237.31,-127.31C227.56,-117.56 216.26,-106.26 207.58,-97.58"/>
<polygon fill="midnightblue" stroke="midnightblue" points="234.85,-129.8 244.4,-134.4 239.8,-124.85 234.85,-129.8"/>
</g>
<!-- Node4 -->
<g id="node4" class="node">
<title>Node4</title>
<g id="a_node4"><a xlink:href="classDynExp_1_1HardwareAdapterBase.html" target="_top" xlink:title="Defines the base class for a hardware adapter object. Hardware adapters describe interfaces/connectio...">
<polygon fill="white" stroke="black" points="173.5,-201.5 173.5,-220.5 343.5,-220.5 343.5,-201.5 173.5,-201.5"/>
<text text-anchor="middle" x="258.5" y="-208.5" font-family="Helvetica,sans-Serif" font-size="10.00">DynExp::HardwareAdapterBase</text>
</a>
</g>
</g>
<!-- Node4&#45;&gt;Node3 -->
<g id="edge3" class="edge">
<title>Node4&#45;&gt;Node3</title>
<path fill="none" stroke="midnightblue" d="M258.5,-191.23C258.5,-182.59 258.5,-172.5 258.5,-164.52"/>
<polygon fill="midnightblue" stroke="midnightblue" points="255,-191.48 258.5,-201.48 262,-191.48 255,-191.48"/>
</g>
<!-- Node5 -->
<g id="node5" class="node">
<title>Node5</title>
<g id="a_node5"><a xlink:href="classUtil_1_1ILockable.html" target="_top" xlink:title="Interface to allow synchronizing the access to derived classes between different threads by providing...">
<polygon fill="white" stroke="black" points="162.5,-257.5 162.5,-276.5 248.5,-276.5 248.5,-257.5 162.5,-257.5"/>
<text text-anchor="middle" x="205.5" y="-264.5" font-family="Helvetica,sans-Serif" font-size="10.00">Util::ILockable</text>
</a>
</g>
</g>
<!-- Node5&#45;&gt;Node4 -->
<g id="edge4" class="edge">
<title>Node5&#45;&gt;Node4</title>
<path fill="none" stroke="midnightblue" d="M221.48,-249.72C230.82,-240.2 242.25,-228.56 249.91,-220.75"/>
<polygon fill="midnightblue" stroke="midnightblue" points="218.76,-247.49 214.25,-257.08 223.75,-252.4 218.76,-247.49"/>
</g>
<!-- Node6 -->
<g id="node6" class="node">
<title>Node6</title>
<g id="a_node6"><a xlink:href="classUtil_1_1INonCopyable.html" target="_top" xlink:title="Interface to delete copy constructor and copy assignment operator and thus make derived classes non&#45;c...">
<polygon fill="white" stroke="black" points="151.5,-313.5 151.5,-332.5 259.5,-332.5 259.5,-313.5 151.5,-313.5"/>
<text text-anchor="middle" x="205.5" y="-320.5" font-family="Helvetica,sans-Serif" font-size="10.00">Util::INonCopyable</text>
</a>
</g>
</g>
<!-- Node6&#45;&gt;Node5 -->
<g id="edge5" class="edge">
<title>Node6&#45;&gt;Node5</title>
<path fill="none" stroke="midnightblue" d="M205.5,-302.8C205.5,-293.91 205.5,-283.78 205.5,-276.75"/>
<polygon fill="midnightblue" stroke="midnightblue" points="202,-303.08 205.5,-313.08 209,-303.08 202,-303.08"/>
</g>
<!-- Node7 -->
<g id="node7" class="node">
<title>Node7</title>
<g id="a_node7"><a xlink:href="classDynExp_1_1Object.html" target="_top" xlink:title="Base class for all DynExp Objects like hardware adapters (DynExp::HardwareAdapterBase),...">
<polygon fill="white" stroke="black" points="266.5,-257.5 266.5,-276.5 358.5,-276.5 358.5,-257.5 266.5,-257.5"/>
<text text-anchor="middle" x="312.5" y="-264.5" font-family="Helvetica,sans-Serif" font-size="10.00">DynExp::Object</text>
</a>
</g>
</g>
<!-- Node7&#45;&gt;Node4 -->
<g id="edge6" class="edge">
<title>Node7&#45;&gt;Node4</title>
<path fill="none" stroke="midnightblue" d="M296.5,-250C286.93,-240.43 275.14,-228.64 267.25,-220.75"/>
<polygon fill="midnightblue" stroke="midnightblue" points="294.04,-252.49 303.58,-257.08 298.99,-247.54 294.04,-252.49"/>
</g>
</g>
</svg>
