<?xml version="1.0" encoding="UTF-8" standalone="no"?>
<!DOCTYPE svg PUBLIC "-//W3C//DTD SVG 1.1//EN"
 "http://www.w3.org/Graphics/SVG/1.1/DTD/svg11.dtd">
<!-- Generated by graphviz version 2.43.0 (0)
 -->
<!-- Title: DynExpInstr::CameraConfigurator Pages: 1 -->
<svg width="362pt" height="263pt"
 viewBox="0.00 0.00 362.00 263.00" xmlns="http://www.w3.org/2000/svg" xmlns:xlink="http://www.w3.org/1999/xlink">
<g id="graph0" class="graph" transform="scale(1 1) rotate(0) translate(4 259)">
<title>DynExpInstr::CameraConfigurator</title>
<polygon fill="white" stroke="transparent" points="-4,4 -4,-259 358,-259 358,4 -4,4"/>
<!-- Node1 -->
<g id="node1" class="node">
<title>Node1</title>
<g id="a_node1"><a xlink:title="Configurator class for Camera.">
<polygon fill="#bfbfbf" stroke="black" points="82.5,-67.5 82.5,-86.5 262.5,-86.5 262.5,-67.5 82.5,-67.5"/>
<text text-anchor="middle" x="172.5" y="-74.5" font-family="Helvetica,sans-Serif" font-size="10.00">DynExpInstr::CameraConfigurator</text>
</a>
</g>
</g>
<!-- Node5 -->
<g id="node5" class="node">
<title>Node5</title>
<g id="a_node5"><a xlink:href="classDynExpInstr_1_1DummyCameraConfigurator.html" target="_top" xlink:title=" ">
<polygon fill="white" stroke="black" points="0,-0.5 0,-30.5 159,-30.5 159,-0.5 0,-0.5"/>
<text text-anchor="start" x="8" y="-18.5" font-family="Helvetica,sans-Serif" font-size="10.00">DynExpInstr::DummyCamera</text>
<text text-anchor="middle" x="79.5" y="-7.5" font-family="Helvetica,sans-Serif" font-size="10.00">Configurator</text>
</a>
</g>
</g>
<!-- Node1&#45;&gt;Node5 -->
<g id="edge4" class="edge">
<title>Node1&#45;&gt;Node5</title>
<path fill="none" stroke="midnightblue" d="M150.63,-62.01C135.8,-52.52 116.26,-40.02 101.42,-30.52"/>
<polygon fill="midnightblue" stroke="midnightblue" points="148.87,-65.03 159.18,-67.48 152.64,-59.14 148.87,-65.03"/>
</g>
<!-- Node6 -->
<g id="node6" class="node">
<title>Node6</title>
<g id="a_node6"><a xlink:href="classDynExpInstr_1_1PVCamConfigurator.html" target="_top" xlink:title=" ">
<polygon fill="white" stroke="black" points="177,-6 177,-25 354,-25 354,-6 177,-6"/>
<text text-anchor="middle" x="265.5" y="-13" font-family="Helvetica,sans-Serif" font-size="10.00">DynExpInstr::PVCamConfigurator</text>
</a>
</g>
</g>
<!-- Node1&#45;&gt;Node6 -->
<g id="edge5" class="edge">
<title>Node1&#45;&gt;Node6</title>
<path fill="none" stroke="midnightblue" d="M194.49,-61.93C212.42,-50.46 237.16,-34.63 252.2,-25.01"/>
<polygon fill="midnightblue" stroke="midnightblue" points="192.36,-59.14 185.82,-67.48 196.13,-65.03 192.36,-59.14"/>
</g>
<!-- Node2 -->
<g id="node2" class="node">
<title>Node2</title>
<g id="a_node2"><a xlink:href="classDynExp_1_1InstrumentConfiguratorBase.html" target="_top" xlink:title="Configurator class for InstrumentBase.">
<polygon fill="white" stroke="black" points="74,-123.5 74,-142.5 271,-142.5 271,-123.5 74,-123.5"/>
<text text-anchor="middle" x="172.5" y="-130.5" font-family="Helvetica,sans-Serif" font-size="10.00">DynExp::InstrumentConfiguratorBase</text>
</a>
</g>
</g>
<!-- Node2&#45;&gt;Node1 -->
<g id="edge1" class="edge">
<title>Node2&#45;&gt;Node1</title>
<path fill="none" stroke="midnightblue" d="M172.5,-112.8C172.5,-103.91 172.5,-93.78 172.5,-86.75"/>
<polygon fill="midnightblue" stroke="midnightblue" points="169,-113.08 172.5,-123.08 176,-113.08 169,-113.08"/>
</g>
<!-- Node3 -->
<g id="node3" class="node">
<title>Node3</title>
<g id="a_node3"><a xlink:href="classDynExp_1_1RunnableObjectConfigurator.html" target="_top" xlink:title="Configurator class for RunnableObject.">
<polygon fill="white" stroke="black" points="74,-179.5 74,-198.5 271,-198.5 271,-179.5 74,-179.5"/>
<text text-anchor="middle" x="172.5" y="-186.5" font-family="Helvetica,sans-Serif" font-size="10.00">DynExp::RunnableObjectConfigurator</text>
</a>
</g>
</g>
<!-- Node3&#45;&gt;Node2 -->
<g id="edge2" class="edge">
<title>Node3&#45;&gt;Node2</title>
<path fill="none" stroke="midnightblue" d="M172.5,-168.8C172.5,-159.91 172.5,-149.78 172.5,-142.75"/>
<polygon fill="midnightblue" stroke="midnightblue" points="169,-169.08 172.5,-179.08 176,-169.08 169,-169.08"/>
</g>
<!-- Node4 -->
<g id="node4" class="node">
<title>Node4</title>
<g id="a_node4"><a xlink:href="classDynExp_1_1ConfiguratorBase.html" target="_top" xlink:title="The configurator classes have the task to generate parameter objects (refer to DynExp::ParamsBase) of...">
<polygon fill="white" stroke="black" points="100.5,-235.5 100.5,-254.5 244.5,-254.5 244.5,-235.5 100.5,-235.5"/>
<text text-anchor="middle" x="172.5" y="-242.5" font-family="Helvetica,sans-Serif" font-size="10.00">DynExp::ConfiguratorBase</text>
</a>
</g>
</g>
<!-- Node4&#45;&gt;Node3 -->
<g id="edge3" class="edge">
<title>Node4&#45;&gt;Node3</title>
<path fill="none" stroke="midnightblue" d="M172.5,-224.8C172.5,-215.91 172.5,-205.78 172.5,-198.75"/>
<polygon fill="midnightblue" stroke="midnightblue" points="169,-225.08 172.5,-235.08 176,-225.08 169,-225.08"/>
</g>
</g>
</svg>
