<?xml version="1.0" encoding="UTF-8" standalone="no"?>
<!DOCTYPE svg PUBLIC "-//W3C//DTD SVG 1.1//EN"
 "http://www.w3.org/Graphics/SVG/1.1/DTD/svg11.dtd">
<!-- Generated by graphviz version 2.43.0 (0)
 -->
<!-- Title: DynExpInstr::FunctionGeneratorData Pages: 1 -->
<svg width="1570pt" height="198pt"
 viewBox="0.00 0.00 1570.00 198.00" xmlns="http://www.w3.org/2000/svg" xmlns:xlink="http://www.w3.org/1999/xlink">
<g id="graph0" class="graph" transform="scale(1 1) rotate(0) translate(4 194)">
<title>DynExpInstr::FunctionGeneratorData</title>
<!-- Node1 -->
<g id="Node000001" class="node">
<title>Node1</title>
<g id="a_Node000001"><a xlink:title="Data class for FunctionGenerator.">
<polygon fill="#999999" stroke="#666666" points="968,-104.5 773,-104.5 773,-85.5 968,-85.5 968,-104.5"/>
<text text-anchor="middle" x="870.5" y="-92.5" font-family="Helvetica,sans-Serif" font-size="10.00">DynExpInstr::FunctionGeneratorData</text>
</a>
</g>
</g>
<!-- Node6 -->
<g id="Node000006" class="node">
<title>Node6</title>
<g id="a_Node000006"><a xlink:href="classDynExpInstr_1_1DummyDataStreamInstrumentData.html" target="_top" xlink:title=" ">
<polygon fill="white" stroke="#666666" points="1184.5,-190 1005.5,-190 1005.5,-160 1184.5,-160 1184.5,-190"/>
<text text-anchor="start" x="1013.5" y="-178" font-family="Helvetica,sans-Serif" font-size="10.00">DynExpInstr::DummyDataStream</text>
<text text-anchor="middle" x="1095" y="-167" font-family="Helvetica,sans-Serif" font-size="10.00">InstrumentData</text>
</a>
</g>
</g>
<!-- Node1&#45;&gt;Node6 -->
<g id="edge5_Node000001_Node000006" class="edge">
<title>Node1&#45;&gt;Node6</title>
<g id="a_edge5_Node000001_Node000006"><a xlink:title=" ">
<path fill="none" stroke="#63b8ff" d="M901.46,-108.67C928.05,-120.51 968.14,-137.63 1004,-150 1014.12,-153.49 1025,-156.84 1035.58,-159.9"/>
<polygon fill="#63b8ff" stroke="#63b8ff" points="902.86,-105.47 892.31,-104.57 900,-111.85 902.86,-105.47"/>
</a>
</g>
</g>
<!-- Node7 -->
<g id="Node000007" class="node">
<title>Node7</title>
<g id="a_Node000007"><a xlink:href="classDynExpInstr_1_1OutputPortData.html" target="_top" xlink:title="Data class for OutputPort.">
<polygon fill="white" stroke="#666666" points="1174,-141.5 1016,-141.5 1016,-122.5 1174,-122.5 1174,-141.5"/>
<text text-anchor="middle" x="1095" y="-129.5" font-family="Helvetica,sans-Serif" font-size="10.00">DynExpInstr::OutputPortData</text>
</a>
</g>
</g>
<!-- Node1&#45;&gt;Node7 -->
<g id="edge6_Node000001_Node000007" class="edge">
<title>Node1&#45;&gt;Node7</title>
<g id="a_edge6_Node000001_Node000007"><a xlink:title=" ">
<path fill="none" stroke="#63b8ff" d="M938.72,-106.18C969.92,-111.37 1006.62,-117.47 1036.51,-122.44"/>
<polygon fill="#63b8ff" stroke="#63b8ff" points="939.24,-102.72 928.8,-104.53 938.09,-109.62 939.24,-102.72"/>
</a>
</g>
</g>
<!-- Node12 -->
<g id="Node000012" class="node">
<title>Node12</title>
<g id="a_Node000012"><a xlink:href="classDynExpInstr_1_1RS__SMB100BData.html" target="_top" xlink:title=" ">
<polygon fill="white" stroke="#666666" points="1180,-104.5 1010,-104.5 1010,-85.5 1180,-85.5 1180,-104.5"/>
<text text-anchor="middle" x="1095" y="-92.5" font-family="Helvetica,sans-Serif" font-size="10.00">DynExpInstr::RS_SMB100BData</text>
</a>
</g>
</g>
<!-- Node1&#45;&gt;Node12 -->
<g id="edge11_Node000001_Node000012" class="edge">
<title>Node1&#45;&gt;Node12</title>
<g id="a_edge11_Node000001_Node000012"><a xlink:title=" ">
<path fill="none" stroke="#63b8ff" d="M978.22,-95C988.78,-95 999.39,-95 1009.68,-95"/>
<polygon fill="#63b8ff" stroke="#63b8ff" points="978.12,-91.5 968.12,-95 978.12,-98.5 978.12,-91.5"/>
</a>
</g>
</g>
<!-- Node13 -->
<g id="Node000013" class="node">
<title>Node13</title>
<g id="a_Node000013"><a xlink:href="classDynExpInstr_1_1RS__SMC100AData.html" target="_top" xlink:title=" ">
<polygon fill="white" stroke="#666666" points="1180,-67.5 1010,-67.5 1010,-48.5 1180,-48.5 1180,-67.5"/>
<text text-anchor="middle" x="1095" y="-55.5" font-family="Helvetica,sans-Serif" font-size="10.00">DynExpInstr::RS_SMC100AData</text>
</a>
</g>
</g>
<!-- Node1&#45;&gt;Node13 -->
<g id="edge12_Node000001_Node000013" class="edge">
<title>Node1&#45;&gt;Node13</title>
<g id="a_edge12_Node000001_Node000013"><a xlink:title=" ">
<path fill="none" stroke="#63b8ff" d="M938.72,-83.82C969.92,-78.63 1006.62,-72.53 1036.51,-67.56"/>
<polygon fill="#63b8ff" stroke="#63b8ff" points="938.09,-80.38 928.8,-85.47 939.24,-87.28 938.09,-80.38"/>
</a>
</g>
</g>
<!-- Node14 -->
<g id="Node000014" class="node">
<title>Node14</title>
<g id="a_Node000014"><a xlink:href="classDynExpInstr_1_1SwabianInstrumentsPulseStreamerData.html" target="_top" xlink:title=" ">
<polygon fill="white" stroke="#666666" points="1186,-30 1004,-30 1004,0 1186,0 1186,-30"/>
<text text-anchor="start" x="1012" y="-18" font-family="Helvetica,sans-Serif" font-size="10.00">DynExpInstr::SwabianInstruments</text>
<text text-anchor="middle" x="1095" y="-7" font-family="Helvetica,sans-Serif" font-size="10.00">PulseStreamerData</text>
</a>
</g>
</g>
<!-- Node1&#45;&gt;Node14 -->
<g id="edge13_Node000001_Node000014" class="edge">
<title>Node1&#45;&gt;Node14</title>
<g id="a_edge13_Node000001_Node000014"><a xlink:title=" ">
<path fill="none" stroke="#63b8ff" d="M900.94,-81.16C927.49,-69.02 967.81,-51.41 1004,-39 1013.18,-35.85 1023,-32.86 1032.65,-30.13"/>
<polygon fill="#63b8ff" stroke="#63b8ff" points="899.43,-78 891.81,-85.37 902.36,-84.36 899.43,-78"/>
</a>
</g>
</g>
<!-- Node2 -->
<g id="Node000002" class="node">
<title>Node2</title>
<g id="a_Node000002"><a xlink:href="classDynExpInstr_1_1DataStreamInstrumentData.html" target="_top" xlink:title="Data class for DataStreamInstrument.">
<polygon fill="white" stroke="#666666" points="737,-104.5 520,-104.5 520,-85.5 737,-85.5 737,-104.5"/>
<text text-anchor="middle" x="628.5" y="-92.5" font-family="Helvetica,sans-Serif" font-size="10.00">DynExpInstr::DataStreamInstrumentData</text>
</a>
</g>
</g>
<!-- Node2&#45;&gt;Node1 -->
<g id="edge1_Node000001_Node000002" class="edge">
<title>Node2&#45;&gt;Node1</title>
<g id="a_edge1_Node000001_Node000002"><a xlink:title=" ">
<path fill="none" stroke="#63b8ff" d="M747.23,-95C755.78,-95 764.34,-95 772.75,-95"/>
<polygon fill="#63b8ff" stroke="#63b8ff" points="747.21,-91.5 737.21,-95 747.21,-98.5 747.21,-91.5"/>
</a>
</g>
</g>
<!-- Node3 -->
<g id="Node000003" class="node">
<title>Node3</title>
<g id="a_Node000003"><a xlink:href="classDynExp_1_1InstrumentDataBase.html" target="_top" xlink:title="Data structure to contain data which is synchronized in between different threads....">
<polygon fill="white" stroke="#666666" points="484,-104.5 323,-104.5 323,-85.5 484,-85.5 484,-104.5"/>
<text text-anchor="middle" x="403.5" y="-92.5" font-family="Helvetica,sans-Serif" font-size="10.00">DynExp::InstrumentDataBase</text>
</a>
</g>
</g>
<!-- Node3&#45;&gt;Node2 -->
<g id="edge2_Node000002_Node000003" class="edge">
<title>Node3&#45;&gt;Node2</title>
<g id="a_edge2_Node000002_Node000003"><a xlink:title=" ">
<path fill="none" stroke="#63b8ff" d="M494.26,-95C502.71,-95 511.33,-95 519.91,-95"/>
<polygon fill="#63b8ff" stroke="#63b8ff" points="494.06,-91.5 484.06,-95 494.06,-98.5 494.06,-91.5"/>
</a>
</g>
</g>
<!-- Node4 -->
<g id="Node000004" class="node">
<title>Node4</title>
<g id="a_Node000004"><a xlink:href="classUtil_1_1ISynchronizedPointerLockable.html" target="_top" xlink:title="Interface to allow synchronizing the access to derived classes between different threads by making th...">
<polygon fill="white" stroke="#666666" points="287,-110 144,-110 144,-80 287,-80 287,-110"/>
<text text-anchor="start" x="152" y="-98" font-family="Helvetica,sans-Serif" font-size="10.00">Util::ISynchronizedPointer</text>
<text text-anchor="middle" x="215.5" y="-87" font-family="Helvetica,sans-Serif" font-size="10.00">Lockable</text>
</a>
</g>
</g>
<!-- Node4&#45;&gt;Node3 -->
<g id="edge3_Node000003_Node000004" class="edge">
<title>Node4&#45;&gt;Node3</title>
<g id="a_edge3_Node000003_Node000004"><a xlink:title=" ">
<path fill="none" stroke="#63b8ff" d="M297.35,-95C305.84,-95 314.47,-95 322.94,-95"/>
<polygon fill="#63b8ff" stroke="#63b8ff" points="297.08,-91.5 287.08,-95 297.08,-98.5 297.08,-91.5"/>
</a>
</g>
</g>
<!-- Node5 -->
<g id="Node000005" class="node">
<title>Node5</title>
<g id="a_Node000005"><a xlink:href="classUtil_1_1INonCopyable.html" target="_top" xlink:title="Interface to delete copy constructor and copy assignment operator and thus make derived classes non&#45;c...">
<polygon fill="white" stroke="#666666" points="108,-104.5 0,-104.5 0,-85.5 108,-85.5 108,-104.5"/>
<text text-anchor="middle" x="54" y="-92.5" font-family="Helvetica,sans-Serif" font-size="10.00">Util::INonCopyable</text>
</a>
</g>
</g>
<!-- Node5&#45;&gt;Node4 -->
<g id="edge4_Node000004_Node000005" class="edge">
<title>Node5&#45;&gt;Node4</title>
<g id="a_edge4_Node000004_Node000005"><a xlink:title=" ">
<path fill="none" stroke="#63b8ff" d="M118.19,-95C126.58,-95 135.23,-95 143.74,-95"/>
<polygon fill="#63b8ff" stroke="#63b8ff" points="118.11,-91.5 108.11,-95 118.11,-98.5 118.11,-91.5"/>
</a>
</g>
</g>
<!-- Node8 -->
<g id="Node000008" class="node">
<title>Node8</title>
<g id="a_Node000008"><a xlink:href="classDynExpInstr_1_1AnalogOutData.html" target="_top" xlink:title="Data class for AnalogOut.">
<polygon fill="white" stroke="#666666" points="1378,-161.5 1222,-161.5 1222,-142.5 1378,-142.5 1378,-161.5"/>
<text text-anchor="middle" x="1300" y="-149.5" font-family="Helvetica,sans-Serif" font-size="10.00">DynExpInstr::AnalogOutData</text>
</a>
</g>
</g>
<!-- Node7&#45;&gt;Node8 -->
<g id="edge7_Node000007_Node000008" class="edge">
<title>Node7&#45;&gt;Node8</title>
<g id="a_edge7_Node000007_Node000008"><a xlink:title=" ">
<path fill="none" stroke="#63b8ff" d="M1184.18,-140.69C1196.72,-141.92 1209.54,-143.19 1221.85,-144.4"/>
<polygon fill="#63b8ff" stroke="#63b8ff" points="1184.49,-137.2 1174.19,-139.7 1183.8,-144.17 1184.49,-137.2"/>
</a>
</g>
</g>
<!-- Node10 -->
<g id="Node000010" class="node">
<title>Node10</title>
<g id="a_Node000010"><a xlink:href="classDynExpInstr_1_1DigitalOutData.html" target="_top" xlink:title="Data class for DigitalOut.">
<polygon fill="white" stroke="#666666" points="1377.5,-121.5 1222.5,-121.5 1222.5,-102.5 1377.5,-102.5 1377.5,-121.5"/>
<text text-anchor="middle" x="1300" y="-109.5" font-family="Helvetica,sans-Serif" font-size="10.00">DynExpInstr::DigitalOutData</text>
</a>
</g>
</g>
<!-- Node7&#45;&gt;Node10 -->
<g id="edge9_Node000007_Node000010" class="edge">
<title>Node7&#45;&gt;Node10</title>
<g id="a_edge9_Node000007_Node000010"><a xlink:title=" ">
<path fill="none" stroke="#63b8ff" d="M1184.25,-123.31C1196.88,-122.06 1209.79,-120.79 1222.18,-119.57"/>
<polygon fill="#63b8ff" stroke="#63b8ff" points="1183.8,-119.83 1174.19,-124.3 1184.49,-126.8 1183.8,-119.83"/>
</a>
</g>
</g>
<!-- Node9 -->
<g id="Node000009" class="node">
<title>Node9</title>
<g id="a_Node000009"><a xlink:href="classDynExpInstr_1_1NIDAQAnalogOutData.html" target="_top" xlink:title=" ">
<polygon fill="white" stroke="#666666" points="1562,-170 1414,-170 1414,-140 1562,-140 1562,-170"/>
<text text-anchor="start" x="1422" y="-158" font-family="Helvetica,sans-Serif" font-size="10.00">DynExpInstr::NIDAQAnalog</text>
<text text-anchor="middle" x="1488" y="-147" font-family="Helvetica,sans-Serif" font-size="10.00">OutData</text>
</a>
</g>
</g>
<!-- Node8&#45;&gt;Node9 -->
<g id="edge8_Node000008_Node000009" class="edge">
<title>Node8&#45;&gt;Node9</title>
<g id="a_edge8_Node000008_Node000009"><a xlink:title=" ">
<path fill="none" stroke="#63b8ff" d="M1388.27,-153.41C1396.83,-153.55 1405.45,-153.68 1413.85,-153.82"/>
<polygon fill="#63b8ff" stroke="#63b8ff" points="1388.32,-149.91 1378.26,-153.25 1388.21,-156.91 1388.32,-149.91"/>
</a>
</g>
</g>
<!-- Node11 -->
<g id="Node000011" class="node">
<title>Node11</title>
<g id="a_Node000011"><a xlink:href="classDynExpInstr_1_1NIDAQDigitalOutData.html" target="_top" xlink:title=" ">
<polygon fill="white" stroke="#666666" points="1561,-122 1415,-122 1415,-92 1561,-92 1561,-122"/>
<text text-anchor="start" x="1423" y="-110" font-family="Helvetica,sans-Serif" font-size="10.00">DynExpInstr::NIDAQDigital</text>
<text text-anchor="middle" x="1488" y="-99" font-family="Helvetica,sans-Serif" font-size="10.00">OutData</text>
</a>
</g>
</g>
<!-- Node10&#45;&gt;Node11 -->
<g id="edge10_Node000010_Node000011" class="edge">
<title>Node10&#45;&gt;Node11</title>
<g id="a_edge10_Node000010_Node000011"><a xlink:title=" ">
<path fill="none" stroke="#63b8ff" d="M1387.89,-109.66C1396.94,-109.42 1406.07,-109.18 1414.93,-108.94"/>
<polygon fill="#63b8ff" stroke="#63b8ff" points="1387.63,-106.17 1377.73,-109.94 1387.82,-113.17 1387.63,-106.17"/>
</a>
</g>
</g>
</g>
</svg>
