<?xml version="1.0" encoding="UTF-8" standalone="no"?>
<!DOCTYPE svg PUBLIC "-//W3C//DTD SVG 1.1//EN"
 "http://www.w3.org/Graphics/SVG/1.1/DTD/svg11.dtd">
<!-- Generated by graphviz version 2.43.0 (0)
 -->
<!-- Title: DynExpInstr::gRPCInstrumentTasks::InitTask&lt; BaseInstr,, gRPCStubs &gt; Pages: 1 -->
<svg width="715pt" height="285pt"
 viewBox="0.00 0.00 715.00 285.00" xmlns="http://www.w3.org/2000/svg" xmlns:xlink="http://www.w3.org/1999/xlink">
<g id="graph0" class="graph" transform="scale(1 1) rotate(0) translate(4 281)">
<title>DynExpInstr::gRPCInstrumentTasks::InitTask&lt; BaseInstr,, gRPCStubs &gt;</title>
<!-- Node1 -->
<g id="Node000001" class="node">
<title>Node1</title>
<g id="a_Node000001"><a xlink:title="Defines a task for initializing an instrument within an instrument inheritance hierarchy....">
<polygon fill="#999999" stroke="#666666" points="325,-124 164,-124 164,-83 325,-83 325,-124"/>
<text text-anchor="start" x="172" y="-112" font-family="Helvetica,sans-Serif" font-size="10.00">DynExpInstr::gRPCInstrument</text>
<text text-anchor="start" x="172" y="-101" font-family="Helvetica,sans-Serif" font-size="10.00">Tasks::InitTask&lt; BaseInstr,</text>
<text text-anchor="middle" x="244.5" y="-90" font-family="Helvetica,sans-Serif" font-size="10.00">, gRPCStubs &gt;</text>
</a>
</g>
</g>
<!-- Node3 -->
<g id="Node000003" class="node">
<title>Node3</title>
<g id="a_Node000003"><a xlink:href="classDynExpInstr_1_1NetworkDataStreamInstrumentTasks_1_1InitTask.html" target="_top" xlink:title=" ">
<polygon fill="white" stroke="#666666" points="507,-164.5 361,-164.5 361,-112.5 507,-112.5 507,-164.5"/>
<text text-anchor="start" x="369" y="-152.5" font-family="Helvetica,sans-Serif" font-size="10.00">DynExpInstr::NetworkData</text>
<text text-anchor="start" x="369" y="-141.5" font-family="Helvetica,sans-Serif" font-size="10.00">StreamInstrumentTasks</text>
<text text-anchor="start" x="369" y="-130.5" font-family="Helvetica,sans-Serif" font-size="10.00">::InitTask&lt; BaseInstr,</text>
<text text-anchor="middle" x="434" y="-119.5" font-family="Helvetica,sans-Serif" font-size="10.00"> 0, gRPCStubs... &gt;</text>
</a>
</g>
</g>
<!-- Node1&#45;&gt;Node3 -->
<g id="edge2_Node000001_Node000003" class="edge">
<title>Node1&#45;&gt;Node3</title>
<g id="a_edge2_Node000001_Node000003"><a xlink:title=" ">
<path fill="none" stroke="#63b8ff" d="M335.1,-120.22C343.71,-121.83 352.38,-123.45 360.8,-125.02"/>
<polygon fill="#63b8ff" stroke="#63b8ff" points="335.49,-116.74 325.02,-118.34 334.2,-123.62 335.49,-116.74"/>
</a>
</g>
</g>
<!-- Node9 -->
<g id="Node000009" class="node">
<title>Node9</title>
<g id="a_Node000009"><a xlink:href="classDynExpInstr_1_1NetworkDataStreamInstrumentTasks_1_1InitTask.html" target="_top" xlink:title=" ">
<polygon fill="white" stroke="#666666" points="507,-94.5 361,-94.5 361,-42.5 507,-42.5 507,-94.5"/>
<text text-anchor="start" x="369" y="-82.5" font-family="Helvetica,sans-Serif" font-size="10.00">DynExpInstr::NetworkData</text>
<text text-anchor="start" x="369" y="-71.5" font-family="Helvetica,sans-Serif" font-size="10.00">StreamInstrumentTasks</text>
<text text-anchor="start" x="369" y="-60.5" font-family="Helvetica,sans-Serif" font-size="10.00">::InitTask&lt; BaseInstr,,</text>
<text text-anchor="middle" x="434" y="-49.5" font-family="Helvetica,sans-Serif" font-size="10.00"> gRPCStubs &gt;</text>
</a>
</g>
</g>
<!-- Node1&#45;&gt;Node9 -->
<g id="edge8_Node000001_Node000009" class="edge">
<title>Node1&#45;&gt;Node9</title>
<g id="a_edge8_Node000001_Node000009"><a xlink:title=" ">
<path fill="none" stroke="#63b8ff" d="M335.1,-86.78C343.71,-85.17 352.38,-83.55 360.8,-81.98"/>
<polygon fill="#63b8ff" stroke="#63b8ff" points="334.2,-83.38 325.02,-88.66 335.49,-90.26 334.2,-83.38"/>
</a>
</g>
</g>
<!-- Node2 -->
<g id="Node000002" class="node">
<title>Node2</title>
<g id="a_Node000002"><a xlink:title=" ">
<polygon fill="white" stroke="#666666" points="128,-113 0,-113 0,-94 128,-94 128,-113"/>
<text text-anchor="middle" x="64" y="-101" font-family="Helvetica,sans-Serif" font-size="10.00">BaseInstr::InitTaskType</text>
</a>
</g>
</g>
<!-- Node2&#45;&gt;Node1 -->
<g id="edge1_Node000001_Node000002" class="edge">
<title>Node2&#45;&gt;Node1</title>
<g id="a_edge1_Node000001_Node000002"><a xlink:title=" ">
<path fill="none" stroke="#63b8ff" d="M138.32,-103.5C146.73,-103.5 155.34,-103.5 163.83,-103.5"/>
<polygon fill="#63b8ff" stroke="#63b8ff" points="138.18,-100 128.18,-103.5 138.18,-107 138.18,-100"/>
</a>
</g>
</g>
<!-- Node4 -->
<g id="Node000004" class="node">
<title>Node4</title>
<g id="a_Node000004"><a xlink:href="classDynExpInstr_1_1NetworkAnalogInTasks_1_1InitTask.html" target="_top" xlink:title=" ">
<polygon fill="white" stroke="#666666" points="703.5,-277 546.5,-277 546.5,-236 703.5,-236 703.5,-277"/>
<text text-anchor="start" x="554.5" y="-265" font-family="Helvetica,sans-Serif" font-size="10.00">DynExpInstr::NetworkAnalog</text>
<text text-anchor="start" x="554.5" y="-254" font-family="Helvetica,sans-Serif" font-size="10.00">InTasks::InitTask&lt; BaseInstr,</text>
<text text-anchor="middle" x="625" y="-243" font-family="Helvetica,sans-Serif" font-size="10.00">, gRPCStubs &gt;</text>
</a>
</g>
</g>
<!-- Node3&#45;&gt;Node4 -->
<g id="edge3_Node000003_Node000004" class="edge">
<title>Node3&#45;&gt;Node4</title>
<g id="a_edge3_Node000003_Node000004"><a xlink:title=" ">
<path fill="none" stroke="#63b8ff" d="M468.87,-171.62C489.09,-190 516.02,-212.18 543,-227.5 548.33,-230.52 554.02,-233.32 559.84,-235.89"/>
<polygon fill="#63b8ff" stroke="#63b8ff" points="471.18,-168.99 461.46,-164.78 466.43,-174.13 471.18,-168.99"/>
</a>
</g>
</g>
<!-- Node5 -->
<g id="Node000005" class="node">
<title>Node5</title>
<g id="a_Node000005"><a xlink:href="classDynExpInstr_1_1NetworkAnalogOutTasks_1_1InitTask.html" target="_top" xlink:title=" ">
<polygon fill="white" stroke="#666666" points="707,-218 543,-218 543,-177 707,-177 707,-218"/>
<text text-anchor="start" x="551" y="-206" font-family="Helvetica,sans-Serif" font-size="10.00">DynExpInstr::NetworkAnalog</text>
<text text-anchor="start" x="551" y="-195" font-family="Helvetica,sans-Serif" font-size="10.00">OutTasks::InitTask&lt; BaseInstr,</text>
<text text-anchor="middle" x="625" y="-184" font-family="Helvetica,sans-Serif" font-size="10.00">, gRPCStubs &gt;</text>
</a>
</g>
</g>
<!-- Node3&#45;&gt;Node5 -->
<g id="edge4_Node000003_Node000005" class="edge">
<title>Node3&#45;&gt;Node5</title>
<g id="a_edge4_Node000003_Node000005"><a xlink:title=" ">
<path fill="none" stroke="#63b8ff" d="M517.19,-164.16C530.93,-168.45 545.03,-172.85 558.29,-176.99"/>
<polygon fill="#63b8ff" stroke="#63b8ff" points="517.85,-160.7 507.26,-161.06 515.76,-167.38 517.85,-160.7"/>
</a>
</g>
</g>
<!-- Node6 -->
<g id="Node000006" class="node">
<title>Node6</title>
<g id="a_Node000006"><a xlink:href="classDynExpInstr_1_1NetworkDigitalInTasks_1_1InitTask.html" target="_top" xlink:title=" ">
<polygon fill="white" stroke="#666666" points="703,-159 547,-159 547,-118 703,-118 703,-159"/>
<text text-anchor="start" x="555" y="-147" font-family="Helvetica,sans-Serif" font-size="10.00">DynExpInstr::NetworkDigital</text>
<text text-anchor="start" x="555" y="-136" font-family="Helvetica,sans-Serif" font-size="10.00">InTasks::InitTask&lt; BaseInstr,</text>
<text text-anchor="middle" x="625" y="-125" font-family="Helvetica,sans-Serif" font-size="10.00">, gRPCStubs &gt;</text>
</a>
</g>
</g>
<!-- Node3&#45;&gt;Node6 -->
<g id="edge5_Node000003_Node000006" class="edge">
<title>Node3&#45;&gt;Node6</title>
<g id="a_edge5_Node000003_Node000006"><a xlink:title=" ">
<path fill="none" stroke="#63b8ff" d="M517.36,-138.5C527.12,-138.5 537.06,-138.5 546.75,-138.5"/>
<polygon fill="#63b8ff" stroke="#63b8ff" points="517.26,-135 507.26,-138.5 517.26,-142 517.26,-135"/>
</a>
</g>
</g>
<!-- Node7 -->
<g id="Node000007" class="node">
<title>Node7</title>
<g id="a_Node000007"><a xlink:href="classDynExpInstr_1_1NetworkDigitalOutTasks_1_1InitTask.html" target="_top" xlink:title=" ">
<polygon fill="white" stroke="#666666" points="707,-100 543,-100 543,-59 707,-59 707,-100"/>
<text text-anchor="start" x="551" y="-88" font-family="Helvetica,sans-Serif" font-size="10.00">DynExpInstr::NetworkDigital</text>
<text text-anchor="start" x="551" y="-77" font-family="Helvetica,sans-Serif" font-size="10.00">OutTasks::InitTask&lt; BaseInstr,</text>
<text text-anchor="middle" x="625" y="-66" font-family="Helvetica,sans-Serif" font-size="10.00">, gRPCStubs &gt;</text>
</a>
</g>
</g>
<!-- Node3&#45;&gt;Node7 -->
<g id="edge6_Node000003_Node000007" class="edge">
<title>Node3&#45;&gt;Node7</title>
<g id="a_edge6_Node000003_Node000007"><a xlink:title=" ">
<path fill="none" stroke="#63b8ff" d="M517.19,-112.84C530.93,-108.55 545.03,-104.15 558.29,-100.01"/>
<polygon fill="#63b8ff" stroke="#63b8ff" points="515.76,-109.62 507.26,-115.94 517.85,-116.3 515.76,-109.62"/>
</a>
</g>
</g>
<!-- Node8 -->
<g id="Node000008" class="node">
<title>Node8</title>
<g id="a_Node000008"><a xlink:href="classDynExpInstr_1_1NetworkTimeTaggerTasks_1_1InitTask.html" target="_top" xlink:title=" ">
<polygon fill="white" stroke="#666666" points="699,-41 551,-41 551,0 699,0 699,-41"/>
<text text-anchor="start" x="559" y="-29" font-family="Helvetica,sans-Serif" font-size="10.00">DynExpInstr::NetworkTime</text>
<text text-anchor="start" x="559" y="-18" font-family="Helvetica,sans-Serif" font-size="10.00">TaggerTasks::InitTask</text>
<text text-anchor="middle" x="625" y="-7" font-family="Helvetica,sans-Serif" font-size="10.00">&lt; BaseInstr,, gRPCStubs &gt;</text>
</a>
</g>
</g>
<!-- Node3&#45;&gt;Node8 -->
<g id="edge7_Node000003_Node000008" class="edge">
<title>Node3&#45;&gt;Node8</title>
<g id="a_edge7_Node000003_Node000008"><a xlink:title=" ">
<path fill="none" stroke="#63b8ff" d="M503.47,-106.43C504.68,-105.48 505.85,-104.5 507,-103.5 528.73,-84.53 520.27,-67.26 543,-49.5 547,-46.37 551.37,-43.57 555.93,-41.05"/>
<polygon fill="#63b8ff" stroke="#63b8ff" points="501.21,-103.75 495.14,-112.44 505.3,-109.43 501.21,-103.75"/>
</a>
</g>
</g>
</g>
</svg>
