<?xml version="1.0" encoding="UTF-8" standalone="no"?>
<!DOCTYPE svg PUBLIC "-//W3C//DTD SVG 1.1//EN"
 "http://www.w3.org/Graphics/SVG/1.1/DTD/svg11.dtd">
<!-- Generated by graphviz version 2.43.0 (0)
 -->
<!-- Title: DynExpInstr::DigitalInParams Pages: 1 -->
<svg width="202pt" height="509pt"
 viewBox="0.00 0.00 202.00 509.00" xmlns="http://www.w3.org/2000/svg" xmlns:xlink="http://www.w3.org/1999/xlink">
<g id="graph0" class="graph" transform="scale(1 1) rotate(0) translate(4 505)">
<title>DynExpInstr::DigitalInParams</title>
<polygon fill="white" stroke="transparent" points="-4,4 -4,-505 198,-505 198,4 -4,4"/>
<!-- Node1 -->
<g id="node1" class="node">
<title>Node1</title>
<g id="a_node1"><a xlink:title="Parameter class for DigitalIn.">
<polygon fill="#bfbfbf" stroke="black" points="17.5,-67.5 17.5,-86.5 176.5,-86.5 176.5,-67.5 17.5,-67.5"/>
<text text-anchor="middle" x="97" y="-74.5" font-family="Helvetica,sans-Serif" font-size="10.00">DynExpInstr::DigitalInParams</text>
</a>
</g>
</g>
<!-- Node9 -->
<g id="node9" class="node">
<title>Node9</title>
<g id="a_node9"><a xlink:href="classDynExpInstr_1_1NIDAQDigitalInParams.html" target="_top" xlink:title=" ">
<polygon fill="white" stroke="black" points="24,-0.5 24,-30.5 170,-30.5 170,-0.5 24,-0.5"/>
<text text-anchor="start" x="32" y="-18.5" font-family="Helvetica,sans-Serif" font-size="10.00">DynExpInstr::NIDAQDigital</text>
<text text-anchor="middle" x="97" y="-7.5" font-family="Helvetica,sans-Serif" font-size="10.00">InParams</text>
</a>
</g>
</g>
<!-- Node1&#45;&gt;Node9 -->
<g id="edge8" class="edge">
<title>Node1&#45;&gt;Node9</title>
<path fill="none" stroke="midnightblue" d="M97,-57.23C97,-48.59 97,-38.5 97,-30.52"/>
<polygon fill="midnightblue" stroke="midnightblue" points="93.5,-57.48 97,-67.48 100.5,-57.48 93.5,-57.48"/>
</g>
<!-- Node2 -->
<g id="node2" class="node">
<title>Node2</title>
<g id="a_node2"><a xlink:href="classDynExpInstr_1_1InputPortParams.html" target="_top" xlink:title="Parameter class for InputPort.">
<polygon fill="white" stroke="black" points="16,-123.5 16,-142.5 178,-142.5 178,-123.5 16,-123.5"/>
<text text-anchor="middle" x="97" y="-130.5" font-family="Helvetica,sans-Serif" font-size="10.00">DynExpInstr::InputPortParams</text>
</a>
</g>
</g>
<!-- Node2&#45;&gt;Node1 -->
<g id="edge1" class="edge">
<title>Node2&#45;&gt;Node1</title>
<path fill="none" stroke="midnightblue" d="M97,-112.8C97,-103.91 97,-93.78 97,-86.75"/>
<polygon fill="midnightblue" stroke="midnightblue" points="93.5,-113.08 97,-123.08 100.5,-113.08 93.5,-113.08"/>
</g>
<!-- Node3 -->
<g id="node3" class="node">
<title>Node3</title>
<g id="a_node3"><a xlink:href="classDynExpInstr_1_1DataStreamInstrumentParams.html" target="_top" xlink:title="Parameter class for DataStreamInstrument.">
<polygon fill="white" stroke="black" points="0,-179.5 0,-209.5 194,-209.5 194,-179.5 0,-179.5"/>
<text text-anchor="start" x="8" y="-197.5" font-family="Helvetica,sans-Serif" font-size="10.00">DynExpInstr::DataStreamInstrument</text>
<text text-anchor="middle" x="97" y="-186.5" font-family="Helvetica,sans-Serif" font-size="10.00">Params</text>
</a>
</g>
</g>
<!-- Node3&#45;&gt;Node2 -->
<g id="edge2" class="edge">
<title>Node3&#45;&gt;Node2</title>
<path fill="none" stroke="midnightblue" d="M97,-169.29C97,-159.86 97,-149.65 97,-142.66"/>
<polygon fill="midnightblue" stroke="midnightblue" points="93.5,-169.4 97,-179.4 100.5,-169.4 93.5,-169.4"/>
</g>
<!-- Node4 -->
<g id="node4" class="node">
<title>Node4</title>
<g id="a_node4"><a xlink:href="classDynExp_1_1InstrumentParamsBase.html" target="_top" xlink:title="Parameter class for InstrumentBase.">
<polygon fill="white" stroke="black" points="10.5,-246.5 10.5,-265.5 183.5,-265.5 183.5,-246.5 10.5,-246.5"/>
<text text-anchor="middle" x="97" y="-253.5" font-family="Helvetica,sans-Serif" font-size="10.00">DynExp::InstrumentParamsBase</text>
</a>
</g>
</g>
<!-- Node4&#45;&gt;Node3 -->
<g id="edge3" class="edge">
<title>Node4&#45;&gt;Node3</title>
<path fill="none" stroke="midnightblue" d="M97,-236.23C97,-227.59 97,-217.5 97,-209.52"/>
<polygon fill="midnightblue" stroke="midnightblue" points="93.5,-236.48 97,-246.48 100.5,-236.48 93.5,-236.48"/>
</g>
<!-- Node5 -->
<g id="node5" class="node">
<title>Node5</title>
<g id="a_node5"><a xlink:href="classDynExp_1_1RunnableObjectParams.html" target="_top" xlink:title="Parameter class for RunnableObject.">
<polygon fill="white" stroke="black" points="10.5,-302.5 10.5,-321.5 183.5,-321.5 183.5,-302.5 10.5,-302.5"/>
<text text-anchor="middle" x="97" y="-309.5" font-family="Helvetica,sans-Serif" font-size="10.00">DynExp::RunnableObjectParams</text>
</a>
</g>
</g>
<!-- Node5&#45;&gt;Node4 -->
<g id="edge4" class="edge">
<title>Node5&#45;&gt;Node4</title>
<path fill="none" stroke="midnightblue" d="M97,-291.8C97,-282.91 97,-272.78 97,-265.75"/>
<polygon fill="midnightblue" stroke="midnightblue" points="93.5,-292.08 97,-302.08 100.5,-292.08 93.5,-292.08"/>
</g>
<!-- Node6 -->
<g id="node6" class="node">
<title>Node6</title>
<g id="a_node6"><a xlink:href="classDynExp_1_1ParamsBase.html" target="_top" xlink:title="Abstract base class for object parameter classes. Each class derived from class Object must be accomp...">
<polygon fill="white" stroke="black" points="37,-358.5 37,-377.5 157,-377.5 157,-358.5 37,-358.5"/>
<text text-anchor="middle" x="97" y="-365.5" font-family="Helvetica,sans-Serif" font-size="10.00">DynExp::ParamsBase</text>
</a>
</g>
</g>
<!-- Node6&#45;&gt;Node5 -->
<g id="edge5" class="edge">
<title>Node6&#45;&gt;Node5</title>
<path fill="none" stroke="midnightblue" d="M97,-347.8C97,-338.91 97,-328.78 97,-321.75"/>
<polygon fill="midnightblue" stroke="midnightblue" points="93.5,-348.08 97,-358.08 100.5,-348.08 93.5,-348.08"/>
</g>
<!-- Node7 -->
<g id="node7" class="node">
<title>Node7</title>
<g id="a_node7"><a xlink:href="classUtil_1_1ISynchronizedPointerLockable.html" target="_top" xlink:title="Interface to allow synchronizing the access to derived classes between different threads by making th...">
<polygon fill="white" stroke="black" points="25.5,-414.5 25.5,-444.5 168.5,-444.5 168.5,-414.5 25.5,-414.5"/>
<text text-anchor="start" x="33.5" y="-432.5" font-family="Helvetica,sans-Serif" font-size="10.00">Util::ISynchronizedPointer</text>
<text text-anchor="middle" x="97" y="-421.5" font-family="Helvetica,sans-Serif" font-size="10.00">Lockable</text>
</a>
</g>
</g>
<!-- Node7&#45;&gt;Node6 -->
<g id="edge6" class="edge">
<title>Node7&#45;&gt;Node6</title>
<path fill="none" stroke="midnightblue" d="M97,-404.29C97,-394.86 97,-384.65 97,-377.66"/>
<polygon fill="midnightblue" stroke="midnightblue" points="93.5,-404.4 97,-414.4 100.5,-404.4 93.5,-404.4"/>
</g>
<!-- Node8 -->
<g id="node8" class="node">
<title>Node8</title>
<g id="a_node8"><a xlink:href="classUtil_1_1INonCopyable.html" target="_top" xlink:title="Interface to delete copy constructor and copy assignment operator and thus make derived classes non&#45;c...">
<polygon fill="white" stroke="black" points="43,-481.5 43,-500.5 151,-500.5 151,-481.5 43,-481.5"/>
<text text-anchor="middle" x="97" y="-488.5" font-family="Helvetica,sans-Serif" font-size="10.00">Util::INonCopyable</text>
</a>
</g>
</g>
<!-- Node8&#45;&gt;Node7 -->
<g id="edge7" class="edge">
<title>Node8&#45;&gt;Node7</title>
<path fill="none" stroke="midnightblue" d="M97,-471.23C97,-462.59 97,-452.5 97,-444.52"/>
<polygon fill="midnightblue" stroke="midnightblue" points="93.5,-471.48 97,-481.48 100.5,-471.48 93.5,-471.48"/>
</g>
</g>
</svg>
