<?xml version="1.0" encoding="UTF-8" standalone="no"?>
<!DOCTYPE svg PUBLIC "-//W3C//DTD SVG 1.1//EN"
 "http://www.w3.org/Graphics/SVG/1.1/DTD/svg11.dtd">
<!-- Generated by graphviz version 2.43.0 (0)
 -->
<!-- Title: DynExpInstr::DataStreamInstrument Pages: 1 -->
<svg width="1512pt" height="347pt"
 viewBox="0.00 0.00 1512.00 346.50" xmlns="http://www.w3.org/2000/svg" xmlns:xlink="http://www.w3.org/1999/xlink">
<g id="graph0" class="graph" transform="scale(1 1) rotate(0) translate(4 342.5)">
<title>DynExpInstr::DataStreamInstrument</title>
<!-- Node1 -->
<g id="Node000001" class="node">
<title>Node1</title>
<g id="a_Node000001"><a xlink:title="Implementation of the data stream meta instrument, which is a base class for all instruments reading/...">
<polygon fill="#999999" stroke="#666666" points="684,-111 490,-111 490,-92 684,-92 684,-111"/>
<text text-anchor="middle" x="587" y="-99" font-family="Helvetica,sans-Serif" font-size="10.00">DynExpInstr::DataStreamInstrument</text>
</a>
</g>
</g>
<!-- Node6 -->
<g id="Node000006" class="node">
<title>Node6</title>
<g id="a_Node000006"><a xlink:href="classDynExpInstr_1_1gRPCInstrument.html" target="_top" xlink:title=" ">
<polygon fill="white" stroke="#666666" points="886.5,-275 725.5,-275 725.5,-234 886.5,-234 886.5,-275"/>
<text text-anchor="start" x="733.5" y="-263" font-family="Helvetica,sans-Serif" font-size="10.00">DynExpInstr::gRPCInstrument</text>
<text text-anchor="start" x="733.5" y="-252" font-family="Helvetica,sans-Serif" font-size="10.00">&lt; DataStreamInstrument,</text>
<text text-anchor="middle" x="806" y="-241" font-family="Helvetica,sans-Serif" font-size="10.00"> 0, gRPCStubs... &gt;</text>
</a>
</g>
</g>
<!-- Node1&#45;&gt;Node6 -->
<g id="edge5_Node000001_Node000006" class="edge">
<title>Node1&#45;&gt;Node6</title>
<g id="a_edge5_Node000001_Node000006"><a xlink:title=" ">
<path fill="none" stroke="#63b8ff" d="M602.28,-119.03C624.74,-145.56 670.86,-195.94 720,-225.5 725.08,-228.55 730.52,-231.34 736.11,-233.87"/>
<polygon fill="#63b8ff" stroke="#63b8ff" points="604.69,-116.46 595.6,-111.01 599.31,-120.94 604.69,-116.46"/>
</a>
</g>
</g>
<!-- Node7 -->
<g id="Node000007" class="node">
<title>Node7</title>
<g id="a_Node000007"><a xlink:href="classDynExpInstr_1_1FunctionGenerator.html" target="_top" xlink:title="Function generator meta instrument based on the data stream meta instrument to generate waveforms by ...">
<polygon fill="white" stroke="#666666" points="892,-216 720,-216 720,-197 892,-197 892,-216"/>
<text text-anchor="middle" x="806" y="-204" font-family="Helvetica,sans-Serif" font-size="10.00">DynExpInstr::FunctionGenerator</text>
</a>
</g>
</g>
<!-- Node1&#45;&gt;Node7 -->
<g id="edge6_Node000001_Node000007" class="edge">
<title>Node1&#45;&gt;Node7</title>
<g id="a_edge6_Node000001_Node000007"><a xlink:title=" ">
<path fill="none" stroke="#63b8ff" d="M616.81,-115.44C661.6,-137.11 746.76,-178.32 785.25,-196.94"/>
<polygon fill="#63b8ff" stroke="#63b8ff" points="618.17,-112.21 607.64,-111 615.12,-118.51 618.17,-112.21"/>
</a>
</g>
</g>
<!-- Node17 -->
<g id="Node000017" class="node">
<title>Node17</title>
<g id="a_Node000017"><a xlink:href="classDynExpInstr_1_1InputPort.html" target="_top" xlink:title="Generic input port meta instrument based on the data stream meta instrument to read data from hardwar...">
<polygon fill="white" stroke="#666666" points="869,-111 743,-111 743,-92 869,-92 869,-111"/>
<text text-anchor="middle" x="806" y="-99" font-family="Helvetica,sans-Serif" font-size="10.00">DynExpInstr::InputPort</text>
</a>
</g>
</g>
<!-- Node1&#45;&gt;Node17 -->
<g id="edge16_Node000001_Node000017" class="edge">
<title>Node1&#45;&gt;Node17</title>
<g id="a_edge16_Node000001_Node000017"><a xlink:title=" ">
<path fill="none" stroke="#63b8ff" d="M694.45,-101.5C711.07,-101.5 727.75,-101.5 742.93,-101.5"/>
<polygon fill="#63b8ff" stroke="#63b8ff" points="694.13,-98 684.13,-101.5 694.13,-105 694.13,-98"/>
</a>
</g>
</g>
<!-- Node22 -->
<g id="Node000022" class="node">
<title>Node22</title>
<g id="a_Node000022"><a xlink:href="classDynExpInstr_1_1LockinAmplifier.html" target="_top" xlink:title="Meta instrument for a lock&#45;in amplifier based on the data stream meta instrument.">
<polygon fill="white" stroke="#666666" points="885,-74 727,-74 727,-55 885,-55 885,-74"/>
<text text-anchor="middle" x="806" y="-62" font-family="Helvetica,sans-Serif" font-size="10.00">DynExpInstr::LockinAmplifier</text>
</a>
</g>
</g>
<!-- Node1&#45;&gt;Node22 -->
<g id="edge21_Node000001_Node000022" class="edge">
<title>Node1&#45;&gt;Node22</title>
<g id="a_edge21_Node000001_Node000022"><a xlink:title=" ">
<path fill="none" stroke="#63b8ff" d="M653.95,-90.25C684.29,-85.08 719.91,-79.01 748.93,-74.06"/>
<polygon fill="#63b8ff" stroke="#63b8ff" points="653.15,-86.84 643.88,-91.97 654.33,-93.74 653.15,-86.84"/>
</a>
</g>
</g>
<!-- Node24 -->
<g id="Node000024" class="node">
<title>Node24</title>
<g id="a_Node000024"><a xlink:href="classDynExpInstr_1_1TimeTagger.html" target="_top" xlink:title="Meta instrument for a time tagging device to assign timestamps to (e.g. photon) detection events base...">
<polygon fill="white" stroke="#666666" points="875.5,-37 736.5,-37 736.5,-18 875.5,-18 875.5,-37"/>
<text text-anchor="middle" x="806" y="-25" font-family="Helvetica,sans-Serif" font-size="10.00">DynExpInstr::TimeTagger</text>
</a>
</g>
</g>
<!-- Node1&#45;&gt;Node24 -->
<g id="edge23_Node000001_Node000024" class="edge">
<title>Node1&#45;&gt;Node24</title>
<g id="a_edge23_Node000001_Node000024"><a xlink:title=" ">
<path fill="none" stroke="#63b8ff" d="M616.6,-87.47C642.94,-75 683.36,-57.03 720,-45.5 730.22,-42.28 741.3,-39.47 751.99,-37.08"/>
<polygon fill="#63b8ff" stroke="#63b8ff" points="614.75,-84.47 607.24,-91.95 617.77,-90.79 614.75,-84.47"/>
</a>
</g>
</g>
<!-- Node2 -->
<g id="Node000002" class="node">
<title>Node2</title>
<g id="a_Node000002"><a xlink:href="classDynExp_1_1InstrumentBase.html" target="_top" xlink:title="Base class for instruments. Instruments comprise virtual devices (meta instruments) and physial devic...">
<polygon fill="white" stroke="#666666" points="454,-111 317,-111 317,-92 454,-92 454,-111"/>
<text text-anchor="middle" x="385.5" y="-99" font-family="Helvetica,sans-Serif" font-size="10.00">DynExp::InstrumentBase</text>
</a>
</g>
</g>
<!-- Node2&#45;&gt;Node1 -->
<g id="edge1_Node000001_Node000002" class="edge">
<title>Node2&#45;&gt;Node1</title>
<g id="a_edge1_Node000001_Node000002"><a xlink:title=" ">
<path fill="none" stroke="#63b8ff" d="M464.18,-101.5C472.6,-101.5 481.24,-101.5 489.85,-101.5"/>
<polygon fill="#63b8ff" stroke="#63b8ff" points="464.04,-98 454.04,-101.5 464.04,-105 464.04,-98"/>
</a>
</g>
</g>
<!-- Node3 -->
<g id="Node000003" class="node">
<title>Node3</title>
<g id="a_Node000003"><a xlink:href="classDynExp_1_1RunnableObject.html" target="_top" xlink:title="Defines an Object which possesses a thread it runs in. The RunnableObject can be started and stopped ...">
<polygon fill="white" stroke="#666666" points="281,-111 144,-111 144,-92 281,-92 281,-111"/>
<text text-anchor="middle" x="212.5" y="-99" font-family="Helvetica,sans-Serif" font-size="10.00">DynExp::RunnableObject</text>
</a>
</g>
</g>
<!-- Node3&#45;&gt;Node2 -->
<g id="edge2_Node000002_Node000003" class="edge">
<title>Node3&#45;&gt;Node2</title>
<g id="a_edge2_Node000002_Node000003"><a xlink:title=" ">
<path fill="none" stroke="#63b8ff" d="M291.1,-101.5C299.69,-101.5 308.39,-101.5 316.85,-101.5"/>
<polygon fill="#63b8ff" stroke="#63b8ff" points="291.08,-98 281.08,-101.5 291.08,-105 291.08,-98"/>
</a>
</g>
</g>
<!-- Node4 -->
<g id="Node000004" class="node">
<title>Node4</title>
<g id="a_Node000004"><a xlink:href="classUtil_1_1INonCopyable.html" target="_top" xlink:title="Interface to delete copy constructor and copy assignment operator and thus make derived classes non&#45;c...">
<polygon fill="white" stroke="#666666" points="108,-130 0,-130 0,-111 108,-111 108,-130"/>
<text text-anchor="middle" x="54" y="-118" font-family="Helvetica,sans-Serif" font-size="10.00">Util::INonCopyable</text>
</a>
</g>
</g>
<!-- Node4&#45;&gt;Node3 -->
<g id="edge3_Node000003_Node000004" class="edge">
<title>Node4&#45;&gt;Node3</title>
<g id="a_edge3_Node000003_Node000004"><a xlink:title=" ">
<path fill="none" stroke="#63b8ff" d="M118.5,-112.79C126.87,-111.77 135.49,-110.73 143.93,-109.7"/>
<polygon fill="#63b8ff" stroke="#63b8ff" points="117.93,-109.33 108.42,-114.01 118.77,-116.28 117.93,-109.33"/>
</a>
</g>
</g>
<!-- Node5 -->
<g id="Node000005" class="node">
<title>Node5</title>
<g id="a_Node000005"><a xlink:href="classDynExp_1_1Object.html" target="_top" xlink:title="Base class for all DynExp Objects like hardware adapters (DynExp::HardwareAdapterBase),...">
<polygon fill="white" stroke="#666666" points="100,-93 8,-93 8,-74 100,-74 100,-93"/>
<text text-anchor="middle" x="54" y="-81" font-family="Helvetica,sans-Serif" font-size="10.00">DynExp::Object</text>
</a>
</g>
</g>
<!-- Node5&#45;&gt;Node3 -->
<g id="edge4_Node000003_Node000005" class="edge">
<title>Node5&#45;&gt;Node3</title>
<g id="a_edge4_Node000003_Node000005"><a xlink:title=" ">
<path fill="none" stroke="#63b8ff" d="M110.43,-89.88C121.26,-91.12 132.74,-92.44 143.91,-93.73"/>
<polygon fill="#63b8ff" stroke="#63b8ff" points="110.6,-86.37 100.27,-88.71 109.8,-93.33 110.6,-86.37"/>
</a>
</g>
</g>
<!-- Node8 -->
<g id="Node000008" class="node">
<title>Node8</title>
<g id="a_Node000008"><a xlink:href="classDynExpInstr_1_1DummyDataStreamInstrument.html" target="_top" xlink:title=" ">
<polygon fill="white" stroke="#666666" points="1108.5,-338.5 929.5,-338.5 929.5,-308.5 1108.5,-308.5 1108.5,-338.5"/>
<text text-anchor="start" x="937.5" y="-326.5" font-family="Helvetica,sans-Serif" font-size="10.00">DynExpInstr::DummyDataStream</text>
<text text-anchor="middle" x="1019" y="-315.5" font-family="Helvetica,sans-Serif" font-size="10.00">Instrument</text>
</a>
</g>
</g>
<!-- Node7&#45;&gt;Node8 -->
<g id="edge7_Node000007_Node000008" class="edge">
<title>Node7&#45;&gt;Node8</title>
<g id="a_edge7_Node000007_Node000008"><a xlink:title=" ">
<path fill="none" stroke="#63b8ff" d="M885.04,-220.72C887.46,-222.17 889.8,-223.76 892,-225.5 920.69,-248.18 899.78,-276.24 928,-299.5 932.12,-302.89 936.67,-305.81 941.48,-308.32"/>
<polygon fill="#63b8ff" stroke="#63b8ff" points="886.37,-217.47 875.87,-216.06 883.2,-223.71 886.37,-217.47"/>
</a>
</g>
</g>
<!-- Node9 -->
<g id="Node000009" class="node">
<title>Node9</title>
<g id="a_Node000009"><a xlink:href="classDynExpInstr_1_1OutputPort.html" target="_top" xlink:title="Generic output port meta instrument based on the data stream and function generator meta instruments ...">
<polygon fill="white" stroke="#666666" points="1086,-290 952,-290 952,-271 1086,-271 1086,-290"/>
<text text-anchor="middle" x="1019" y="-278" font-family="Helvetica,sans-Serif" font-size="10.00">DynExpInstr::OutputPort</text>
</a>
</g>
</g>
<!-- Node7&#45;&gt;Node9 -->
<g id="edge8_Node000007_Node000009" class="edge">
<title>Node7&#45;&gt;Node9</title>
<g id="a_edge8_Node000007_Node000009"><a xlink:title=" ">
<path fill="none" stroke="#63b8ff" d="M878.88,-219.35C883.43,-221.14 887.85,-223.18 892,-225.5 912.03,-236.69 907.85,-251.54 928,-262.5 935.42,-266.54 943.62,-269.67 951.97,-272.11"/>
<polygon fill="#63b8ff" stroke="#63b8ff" points="879.98,-216.03 869.38,-216.02 877.66,-222.63 879.98,-216.03"/>
</a>
</g>
</g>
<!-- Node14 -->
<g id="Node000014" class="node">
<title>Node14</title>
<g id="a_Node000014"><a xlink:href="classDynExpInstr_1_1RS__SMB100B.html" target="_top" xlink:title=" ">
<polygon fill="white" stroke="#666666" points="1092,-253 946,-253 946,-234 1092,-234 1092,-253"/>
<text text-anchor="middle" x="1019" y="-241" font-family="Helvetica,sans-Serif" font-size="10.00">DynExpInstr::RS_SMB100B</text>
</a>
</g>
</g>
<!-- Node7&#45;&gt;Node14 -->
<g id="edge13_Node000007_Node000014" class="edge">
<title>Node7&#45;&gt;Node14</title>
<g id="a_edge13_Node000007_Node000014"><a xlink:title=" ">
<path fill="none" stroke="#63b8ff" d="M871.51,-217.81C900.93,-222.97 935.38,-229.01 963.48,-233.94"/>
<polygon fill="#63b8ff" stroke="#63b8ff" points="871.79,-214.31 861.34,-216.03 870.58,-221.2 871.79,-214.31"/>
</a>
</g>
</g>
<!-- Node15 -->
<g id="Node000015" class="node">
<title>Node15</title>
<g id="a_Node000015"><a xlink:href="classDynExpInstr_1_1RS__SMC100A.html" target="_top" xlink:title=" ">
<polygon fill="white" stroke="#666666" points="1092,-216 946,-216 946,-197 1092,-197 1092,-216"/>
<text text-anchor="middle" x="1019" y="-204" font-family="Helvetica,sans-Serif" font-size="10.00">DynExpInstr::RS_SMC100A</text>
</a>
</g>
</g>
<!-- Node7&#45;&gt;Node15 -->
<g id="edge14_Node000007_Node000015" class="edge">
<title>Node7&#45;&gt;Node15</title>
<g id="a_edge14_Node000007_Node000015"><a xlink:title=" ">
<path fill="none" stroke="#63b8ff" d="M902.26,-206.5C916.84,-206.5 931.69,-206.5 945.68,-206.5"/>
<polygon fill="#63b8ff" stroke="#63b8ff" points="902.21,-203 892.21,-206.5 902.21,-210 902.21,-203"/>
</a>
</g>
</g>
<!-- Node16 -->
<g id="Node000016" class="node">
<title>Node16</title>
<g id="a_Node000016"><a xlink:href="classDynExpInstr_1_1SwabianInstrumentsPulseStreamer.html" target="_top" xlink:title=" ">
<polygon fill="white" stroke="#666666" points="1110,-178.5 928,-178.5 928,-148.5 1110,-148.5 1110,-178.5"/>
<text text-anchor="start" x="936" y="-166.5" font-family="Helvetica,sans-Serif" font-size="10.00">DynExpInstr::SwabianInstruments</text>
<text text-anchor="middle" x="1019" y="-155.5" font-family="Helvetica,sans-Serif" font-size="10.00">PulseStreamer</text>
</a>
</g>
</g>
<!-- Node7&#45;&gt;Node16 -->
<g id="edge15_Node000007_Node000016" class="edge">
<title>Node7&#45;&gt;Node16</title>
<g id="a_edge15_Node000007_Node000016"><a xlink:title=" ">
<path fill="none" stroke="#63b8ff" d="M863.79,-194.93C888.57,-189.88 917.94,-183.89 944.36,-178.51"/>
<polygon fill="#63b8ff" stroke="#63b8ff" points="862.93,-191.53 853.83,-196.96 864.33,-198.39 862.93,-191.53"/>
</a>
</g>
</g>
<!-- Node10 -->
<g id="Node000010" class="node">
<title>Node10</title>
<g id="a_Node000010"><a xlink:href="classDynExpInstr_1_1AnalogOut.html" target="_top" xlink:title="Meta instrument for a single analog output port based on the data stream, function generator,...">
<polygon fill="white" stroke="#666666" points="1291,-308 1158,-308 1158,-289 1291,-289 1291,-308"/>
<text text-anchor="middle" x="1224.5" y="-296" font-family="Helvetica,sans-Serif" font-size="10.00">DynExpInstr::AnalogOut</text>
</a>
</g>
</g>
<!-- Node9&#45;&gt;Node10 -->
<g id="edge9_Node000009_Node000010" class="edge">
<title>Node9&#45;&gt;Node10</title>
<g id="a_edge9_Node000009_Node000010"><a xlink:title=" ">
<path fill="none" stroke="#63b8ff" d="M1096.19,-287.24C1116.44,-289.03 1138.13,-290.95 1157.76,-292.69"/>
<polygon fill="#63b8ff" stroke="#63b8ff" points="1096.34,-283.74 1086.07,-286.34 1095.72,-290.71 1096.34,-283.74"/>
</a>
</g>
</g>
<!-- Node12 -->
<g id="Node000012" class="node">
<title>Node12</title>
<g id="a_Node000012"><a xlink:href="classDynExpInstr_1_1DigitalOut.html" target="_top" xlink:title="Meta instrument for a single digital output port based on the data stream, function generator,...">
<polygon fill="white" stroke="#666666" points="1290,-271 1159,-271 1159,-252 1290,-252 1290,-271"/>
<text text-anchor="middle" x="1224.5" y="-259" font-family="Helvetica,sans-Serif" font-size="10.00">DynExpInstr::DigitalOut</text>
</a>
</g>
</g>
<!-- Node9&#45;&gt;Node12 -->
<g id="edge11_Node000009_Node000012" class="edge">
<title>Node9&#45;&gt;Node12</title>
<g id="a_edge11_Node000009_Node000012"><a xlink:title=" ">
<path fill="none" stroke="#63b8ff" d="M1096.07,-273.4C1116.71,-271.47 1138.85,-269.4 1158.8,-267.54"/>
<polygon fill="#63b8ff" stroke="#63b8ff" points="1095.7,-269.92 1086.07,-274.33 1096.35,-276.89 1095.7,-269.92"/>
</a>
</g>
</g>
<!-- Node11 -->
<g id="Node000011" class="node">
<title>Node11</title>
<g id="a_Node000011"><a xlink:href="classDynExpInstr_1_1NIDAQAnalogOut.html" target="_top" xlink:title=" ">
<polygon fill="white" stroke="#666666" points="1504,-308 1339,-308 1339,-289 1504,-289 1504,-308"/>
<text text-anchor="middle" x="1421.5" y="-296" font-family="Helvetica,sans-Serif" font-size="10.00">DynExpInstr::NIDAQAnalogOut</text>
</a>
</g>
</g>
<!-- Node10&#45;&gt;Node11 -->
<g id="edge10_Node000010_Node000011" class="edge">
<title>Node10&#45;&gt;Node11</title>
<g id="a_edge10_Node000010_Node000011"><a xlink:title=" ">
<path fill="none" stroke="#63b8ff" d="M1301.41,-298.5C1313.66,-298.5 1326.4,-298.5 1338.78,-298.5"/>
<polygon fill="#63b8ff" stroke="#63b8ff" points="1301.25,-295 1291.25,-298.5 1301.25,-302 1301.25,-295"/>
</a>
</g>
</g>
<!-- Node13 -->
<g id="Node000013" class="node">
<title>Node13</title>
<g id="a_Node000013"><a xlink:href="classDynExpInstr_1_1NIDAQDigitalOut.html" target="_top" xlink:title=" ">
<polygon fill="white" stroke="#666666" points="1503.5,-271 1339.5,-271 1339.5,-252 1503.5,-252 1503.5,-271"/>
<text text-anchor="middle" x="1421.5" y="-259" font-family="Helvetica,sans-Serif" font-size="10.00">DynExpInstr::NIDAQDigitalOut</text>
</a>
</g>
</g>
<!-- Node12&#45;&gt;Node13 -->
<g id="edge12_Node000012_Node000013" class="edge">
<title>Node12&#45;&gt;Node13</title>
<g id="a_edge12_Node000012_Node000013"><a xlink:title=" ">
<path fill="none" stroke="#63b8ff" d="M1300.28,-261.5C1313.06,-261.5 1326.4,-261.5 1339.34,-261.5"/>
<polygon fill="#63b8ff" stroke="#63b8ff" points="1300.16,-258 1290.16,-261.5 1300.16,-265 1300.16,-258"/>
</a>
</g>
</g>
<!-- Node18 -->
<g id="Node000018" class="node">
<title>Node18</title>
<g id="a_Node000018"><a xlink:href="classDynExpInstr_1_1AnalogIn.html" target="_top" xlink:title="Meta instrument for a single analog input port based on the data stream and generic input port meta i...">
<polygon fill="white" stroke="#666666" points="1081.5,-130 956.5,-130 956.5,-111 1081.5,-111 1081.5,-130"/>
<text text-anchor="middle" x="1019" y="-118" font-family="Helvetica,sans-Serif" font-size="10.00">DynExpInstr::AnalogIn</text>
</a>
</g>
</g>
<!-- Node17&#45;&gt;Node18 -->
<g id="edge17_Node000017_Node000018" class="edge">
<title>Node17&#45;&gt;Node18</title>
<g id="a_edge17_Node000017_Node000018"><a xlink:title=" ">
<path fill="none" stroke="#63b8ff" d="M879.34,-108.01C904.37,-110.27 932.18,-112.77 956.28,-114.94"/>
<polygon fill="#63b8ff" stroke="#63b8ff" points="879.44,-104.51 869.17,-107.1 878.81,-111.48 879.44,-104.51"/>
</a>
</g>
</g>
<!-- Node20 -->
<g id="Node000020" class="node">
<title>Node20</title>
<g id="a_Node000020"><a xlink:href="classDynExpInstr_1_1DigitalIn.html" target="_top" xlink:title="Meta instrument for a single digital input port based on the data stream and generic input port meta ...">
<polygon fill="white" stroke="#666666" points="1080.5,-93 957.5,-93 957.5,-74 1080.5,-74 1080.5,-93"/>
<text text-anchor="middle" x="1019" y="-81" font-family="Helvetica,sans-Serif" font-size="10.00">DynExpInstr::DigitalIn</text>
</a>
</g>
</g>
<!-- Node17&#45;&gt;Node20 -->
<g id="edge19_Node000017_Node000020" class="edge">
<title>Node17&#45;&gt;Node20</title>
<g id="a_edge19_Node000017_Node000020"><a xlink:title=" ">
<path fill="none" stroke="#63b8ff" d="M879.14,-95.35C904.6,-93.17 932.95,-90.76 957.37,-88.67"/>
<polygon fill="#63b8ff" stroke="#63b8ff" points="878.83,-91.86 869.17,-96.2 879.43,-98.83 878.83,-91.86"/>
</a>
</g>
</g>
<!-- Node19 -->
<g id="Node000019" class="node">
<title>Node19</title>
<g id="a_Node000019"><a xlink:href="classDynExpInstr_1_1NIDAQAnalogIn.html" target="_top" xlink:title=" ">
<polygon fill="white" stroke="#666666" points="1303,-130 1146,-130 1146,-111 1303,-111 1303,-130"/>
<text text-anchor="middle" x="1224.5" y="-118" font-family="Helvetica,sans-Serif" font-size="10.00">DynExpInstr::NIDAQAnalogIn</text>
</a>
</g>
</g>
<!-- Node18&#45;&gt;Node19 -->
<g id="edge18_Node000018_Node000019" class="edge">
<title>Node18&#45;&gt;Node19</title>
<g id="a_edge18_Node000018_Node000019"><a xlink:title=" ">
<path fill="none" stroke="#63b8ff" d="M1091.76,-120.5C1109.28,-120.5 1128.1,-120.5 1145.88,-120.5"/>
<polygon fill="#63b8ff" stroke="#63b8ff" points="1091.61,-117 1081.61,-120.5 1091.61,-124 1091.61,-117"/>
</a>
</g>
</g>
<!-- Node21 -->
<g id="Node000021" class="node">
<title>Node21</title>
<g id="a_Node000021"><a xlink:href="classDynExpInstr_1_1NIDAQDigitalIn.html" target="_top" xlink:title=" ">
<polygon fill="white" stroke="#666666" points="1302,-93 1147,-93 1147,-74 1302,-74 1302,-93"/>
<text text-anchor="middle" x="1224.5" y="-81" font-family="Helvetica,sans-Serif" font-size="10.00">DynExpInstr::NIDAQDigitalIn</text>
</a>
</g>
</g>
<!-- Node20&#45;&gt;Node21 -->
<g id="edge20_Node000020_Node000021" class="edge">
<title>Node20&#45;&gt;Node21</title>
<g id="a_edge20_Node000020_Node000021"><a xlink:title=" ">
<path fill="none" stroke="#63b8ff" d="M1090.72,-83.5C1108.89,-83.5 1128.52,-83.5 1146.96,-83.5"/>
<polygon fill="#63b8ff" stroke="#63b8ff" points="1090.51,-80 1080.51,-83.5 1090.51,-87 1090.51,-80"/>
</a>
</g>
</g>
<!-- Node23 -->
<g id="Node000023" class="node">
<title>Node23</title>
<g id="a_Node000023"><a xlink:href="classDynExpInstr_1_1ZI__MFLI.html" target="_top" xlink:title=" ">
<polygon fill="white" stroke="#666666" points="1079,-56 959,-56 959,-37 1079,-37 1079,-56"/>
<text text-anchor="middle" x="1019" y="-44" font-family="Helvetica,sans-Serif" font-size="10.00">DynExpInstr::ZI_MFLI</text>
</a>
</g>
</g>
<!-- Node22&#45;&gt;Node23 -->
<g id="edge22_Node000022_Node000023" class="edge">
<title>Node22&#45;&gt;Node23</title>
<g id="a_edge22_Node000022_Node000023"><a xlink:title=" ">
<path fill="none" stroke="#63b8ff" d="M895.38,-56.96C916.84,-55.13 939.27,-53.22 958.99,-51.53"/>
<polygon fill="#63b8ff" stroke="#63b8ff" points="894.94,-53.49 885.27,-57.82 895.53,-60.46 894.94,-53.49"/>
</a>
</g>
</g>
<!-- Node25 -->
<g id="Node000025" class="node">
<title>Node25</title>
<g id="a_Node000025"><a xlink:href="classDynExpInstr_1_1QutoolsQuTAG.html" target="_top" xlink:title=" ">
<polygon fill="white" stroke="#666666" points="1095,-19 943,-19 943,0 1095,0 1095,-19"/>
<text text-anchor="middle" x="1019" y="-7" font-family="Helvetica,sans-Serif" font-size="10.00">DynExpInstr::QutoolsQuTAG</text>
</a>
</g>
</g>
<!-- Node24&#45;&gt;Node25 -->
<g id="edge24_Node000024_Node000025" class="edge">
<title>Node24&#45;&gt;Node25</title>
<g id="a_edge24_Node000024_Node000025"><a xlink:title=" ">
<path fill="none" stroke="#63b8ff" d="M885.5,-20.8C904.28,-19.2 924.29,-17.49 942.91,-15.91"/>
<polygon fill="#63b8ff" stroke="#63b8ff" points="885.17,-17.32 875.51,-21.66 885.77,-24.29 885.17,-17.32"/>
</a>
</g>
</g>
</g>
</svg>
