<?xml version="1.0" encoding="UTF-8" standalone="no"?>
<!DOCTYPE svg PUBLIC "-//W3C//DTD SVG 1.1//EN"
 "http://www.w3.org/Graphics/SVG/1.1/DTD/svg11.dtd">
<!-- Generated by graphviz version 2.43.0 (0)
 -->
<!-- Title: Util::ISynchronizedPointerLockable Pages: 1 -->
<svg width="1008pt" height="1383pt"
 viewBox="0.00 0.00 1008.00 1383.00" xmlns="http://www.w3.org/2000/svg" xmlns:xlink="http://www.w3.org/1999/xlink">
<g id="graph0" class="graph" transform="scale(1 1) rotate(0) translate(4 1379)">
<title>Util::ISynchronizedPointerLockable</title>
<polygon fill="white" stroke="transparent" points="-4,4 -4,-1379 1004,-1379 1004,4 -4,4"/>
<!-- Node1 -->
<g id="node1" class="node">
<title>Node1</title>
<g id="a_node1"><a xlink:title="Interface to allow synchronizing the access to derived classes between different threads by making th...">
<polygon fill="#bfbfbf" stroke="black" points="144,-640 144,-670 287,-670 287,-640 144,-640"/>
<text text-anchor="start" x="152" y="-658" font-family="Helvetica,sans-Serif" font-size="10.00">Util::ISynchronizedPointer</text>
<text text-anchor="middle" x="215.5" y="-647" font-family="Helvetica,sans-Serif" font-size="10.00">Lockable</text>
</a>
</g>
</g>
<!-- Node3 -->
<g id="node3" class="node">
<title>Node3</title>
<g id="a_node3"><a xlink:href="classDynExp_1_1InstrumentDataBase.html" target="_top" xlink:title="Data structure to contain data which is synchronized in between different threads....">
<polygon fill="white" stroke="black" points="323,-1118.5 323,-1137.5 484,-1137.5 484,-1118.5 323,-1118.5"/>
<text text-anchor="middle" x="403.5" y="-1125.5" font-family="Helvetica,sans-Serif" font-size="10.00">DynExp::InstrumentDataBase</text>
</a>
</g>
</g>
<!-- Node1&#45;&gt;Node3 -->
<g id="edge2" class="edge">
<title>Node1&#45;&gt;Node3</title>
<path fill="none" stroke="midnightblue" d="M226.17,-679.59C260.56,-767.05 376.1,-1060.85 398.66,-1118.24"/>
<polygon fill="midnightblue" stroke="midnightblue" points="229.39,-678.23 222.48,-670.2 222.88,-680.79 229.39,-678.23"/>
</g>
<!-- Node33 -->
<g id="node18" class="node">
<title>Node33</title>
<g id="a_node18"><a xlink:href="classDynExp_1_1ModuleDataBase.html" target="_top" xlink:title="Data structure to contain data which is synchronized in between different threads....">
<polygon fill="white" stroke="black" points="332,-645.5 332,-664.5 475,-664.5 475,-645.5 332,-645.5"/>
<text text-anchor="middle" x="403.5" y="-652.5" font-family="Helvetica,sans-Serif" font-size="10.00">DynExp::ModuleDataBase</text>
</a>
</g>
</g>
<!-- Node1&#45;&gt;Node33 -->
<g id="edge17" class="edge">
<title>Node1&#45;&gt;Node33</title>
<path fill="none" stroke="midnightblue" d="M297.18,-655C308.76,-655 320.6,-655 331.96,-655"/>
<polygon fill="midnightblue" stroke="midnightblue" points="297.08,-651.5 287.08,-655 297.08,-658.5 297.08,-651.5"/>
</g>
<!-- Node57 -->
<g id="node37" class="node">
<title>Node57</title>
<g id="a_node37"><a xlink:href="classDynExp_1_1ParamsBase.html" target="_top" xlink:title="Abstract base class for object parameter classes. Each class derived from class Object must be accomp...">
<polygon fill="white" stroke="black" points="343.5,-197.5 343.5,-216.5 463.5,-216.5 463.5,-197.5 343.5,-197.5"/>
<text text-anchor="middle" x="403.5" y="-204.5" font-family="Helvetica,sans-Serif" font-size="10.00">DynExp::ParamsBase</text>
</a>
</g>
</g>
<!-- Node1&#45;&gt;Node57 -->
<g id="edge36" class="edge">
<title>Node1&#45;&gt;Node57</title>
<path fill="none" stroke="midnightblue" d="M226.65,-630.56C261.55,-546.49 375.77,-271.39 398.53,-216.56"/>
<polygon fill="midnightblue" stroke="midnightblue" points="223.4,-629.26 222.8,-639.84 229.86,-631.94 223.4,-629.26"/>
</g>
<!-- Node2 -->
<g id="node2" class="node">
<title>Node2</title>
<g id="a_node2"><a xlink:href="classUtil_1_1INonCopyable.html" target="_top" xlink:title="Interface to delete copy constructor and copy assignment operator and thus make derived classes non&#45;c...">
<polygon fill="white" stroke="black" points="0,-645.5 0,-664.5 108,-664.5 108,-645.5 0,-645.5"/>
<text text-anchor="middle" x="54" y="-652.5" font-family="Helvetica,sans-Serif" font-size="10.00">Util::INonCopyable</text>
</a>
</g>
</g>
<!-- Node2&#45;&gt;Node1 -->
<g id="edge1" class="edge">
<title>Node2&#45;&gt;Node1</title>
<path fill="none" stroke="midnightblue" d="M118.19,-655C126.58,-655 135.23,-655 143.74,-655"/>
<polygon fill="midnightblue" stroke="midnightblue" points="118.11,-651.5 108.11,-655 118.11,-658.5 118.11,-651.5"/>
</g>
<!-- Node4 -->
<g id="node4" class="node">
<title>Node4</title>
<g id="a_node4"><a xlink:href="classDynExpInstr_1_1CameraData.html" target="_top" xlink:title="Data class for Camera.">
<polygon fill="white" stroke="black" points="557,-1317.5 557,-1336.5 700,-1336.5 700,-1317.5 557,-1317.5"/>
<text text-anchor="middle" x="628.5" y="-1324.5" font-family="Helvetica,sans-Serif" font-size="10.00">DynExpInstr::CameraData</text>
</a>
</g>
</g>
<!-- Node3&#45;&gt;Node4 -->
<g id="edge3" class="edge">
<title>Node3&#45;&gt;Node4</title>
<path fill="none" stroke="midnightblue" d="M422.86,-1144.62C445.6,-1165.2 485.57,-1201.28 520,-1232 555.13,-1263.34 596.98,-1300.18 616.48,-1317.32"/>
<polygon fill="midnightblue" stroke="midnightblue" points="425.06,-1141.9 415.3,-1137.78 420.36,-1147.09 425.06,-1141.9"/>
</g>
<!-- Node7 -->
<g id="node7" class="node">
<title>Node7</title>
<g id="a_node7"><a xlink:href="classDynExpInstr_1_1DataStreamInstrumentData.html" target="_top" xlink:title="Data class for DataStreamInstrument.">
<polygon fill="white" stroke="black" points="520,-1203.5 520,-1222.5 737,-1222.5 737,-1203.5 520,-1203.5"/>
<text text-anchor="middle" x="628.5" y="-1210.5" font-family="Helvetica,sans-Serif" font-size="10.00">DynExpInstr::DataStreamInstrumentData</text>
</a>
</g>
</g>
<!-- Node3&#45;&gt;Node7 -->
<g id="edge6" class="edge">
<title>Node3&#45;&gt;Node7</title>
<path fill="none" stroke="midnightblue" d="M436.7,-1141.57C459.78,-1151.19 491.67,-1164.23 520,-1175 546.65,-1185.12 577.33,-1195.88 599.08,-1203.36"/>
<polygon fill="midnightblue" stroke="midnightblue" points="437.96,-1138.31 427.38,-1137.68 435.26,-1144.77 437.96,-1138.31"/>
</g>
<!-- Node27 -->
<g id="node12" class="node">
<title>Node27</title>
<g id="a_node12"><a xlink:href="classDynExpInstr_1_1InterModuleCommunicatorData.html" target="_top" xlink:title="Data class for InterModuleCommunicator.">
<polygon fill="white" stroke="black" points="558.5,-1135 558.5,-1165 698.5,-1165 698.5,-1135 558.5,-1135"/>
<text text-anchor="start" x="566.5" y="-1153" font-family="Helvetica,sans-Serif" font-size="10.00">DynExpInstr::InterModule</text>
<text text-anchor="middle" x="628.5" y="-1142" font-family="Helvetica,sans-Serif" font-size="10.00">CommunicatorData</text>
</a>
</g>
</g>
<!-- Node3&#45;&gt;Node27 -->
<g id="edge11" class="edge">
<title>Node3&#45;&gt;Node27</title>
<path fill="none" stroke="midnightblue" d="M494.13,-1136.84C515.51,-1138.95 538.02,-1141.17 558.32,-1143.18"/>
<polygon fill="midnightblue" stroke="midnightblue" points="494.36,-1133.35 484.06,-1135.85 493.67,-1140.31 494.36,-1133.35"/>
</g>
<!-- Node28 -->
<g id="node13" class="node">
<title>Node28</title>
<g id="a_node13"><a xlink:href="classDynExpInstr_1_1PositionerStageData.html" target="_top" xlink:title="Data class for PositionerStage.">
<polygon fill="white" stroke="black" points="537.5,-1096.5 537.5,-1115.5 719.5,-1115.5 719.5,-1096.5 537.5,-1096.5"/>
<text text-anchor="middle" x="628.5" y="-1103.5" font-family="Helvetica,sans-Serif" font-size="10.00">DynExpInstr::PositionerStageData</text>
</a>
</g>
</g>
<!-- Node3&#45;&gt;Node28 -->
<g id="edge12" class="edge">
<title>Node3&#45;&gt;Node28</title>
<path fill="none" stroke="midnightblue" d="M494.29,-1119.14C508.48,-1117.74 523.15,-1116.29 537.34,-1114.89"/>
<polygon fill="midnightblue" stroke="midnightblue" points="493.67,-1115.69 484.06,-1120.15 494.36,-1122.65 493.67,-1115.69"/>
</g>
<!-- Node32 -->
<g id="node17" class="node">
<title>Node32</title>
<g id="a_node17"><a xlink:href="classDynExpInstr_1_1SpectrometerData.html" target="_top" xlink:title="Data class for Spectrometer.">
<polygon fill="white" stroke="black" points="543,-1058.5 543,-1077.5 714,-1077.5 714,-1058.5 543,-1058.5"/>
<text text-anchor="middle" x="628.5" y="-1065.5" font-family="Helvetica,sans-Serif" font-size="10.00">DynExpInstr::SpectrometerData</text>
</a>
</g>
</g>
<!-- Node3&#45;&gt;Node32 -->
<g id="edge16" class="edge">
<title>Node3&#45;&gt;Node32</title>
<path fill="none" stroke="midnightblue" d="M437.58,-1114.6C460.43,-1105.76 491.68,-1094.47 520,-1087 533.93,-1083.32 549.06,-1080.16 563.45,-1077.52"/>
<polygon fill="midnightblue" stroke="midnightblue" points="436.06,-1111.44 428.03,-1118.35 438.62,-1117.96 436.06,-1111.44"/>
</g>
<!-- Node5 -->
<g id="node5" class="node">
<title>Node5</title>
<g id="a_node5"><a xlink:href="classDynExpInstr_1_1DummyCameraData.html" target="_top" xlink:title=" ">
<polygon fill="white" stroke="black" points="795.5,-1355.5 795.5,-1374.5 977.5,-1374.5 977.5,-1355.5 795.5,-1355.5"/>
<text text-anchor="middle" x="886.5" y="-1362.5" font-family="Helvetica,sans-Serif" font-size="10.00">DynExpInstr::DummyCameraData</text>
</a>
</g>
</g>
<!-- Node4&#45;&gt;Node5 -->
<g id="edge4" class="edge">
<title>Node4&#45;&gt;Node5</title>
<path fill="none" stroke="midnightblue" d="M704.03,-1338.06C741.16,-1343.57 785.59,-1350.17 821.2,-1355.46"/>
<polygon fill="midnightblue" stroke="midnightblue" points="704.17,-1334.55 693.77,-1336.54 703.15,-1341.47 704.17,-1334.55"/>
</g>
<!-- Node6 -->
<g id="node6" class="node">
<title>Node6</title>
<g id="a_node6"><a xlink:href="classDynExpInstr_1_1PVCamData.html" target="_top" xlink:title=" ">
<polygon fill="white" stroke="black" points="816.5,-1317.5 816.5,-1336.5 956.5,-1336.5 956.5,-1317.5 816.5,-1317.5"/>
<text text-anchor="middle" x="886.5" y="-1324.5" font-family="Helvetica,sans-Serif" font-size="10.00">DynExpInstr::PVCamData</text>
</a>
</g>
</g>
<!-- Node4&#45;&gt;Node6 -->
<g id="edge5" class="edge">
<title>Node4&#45;&gt;Node6</title>
<path fill="none" stroke="midnightblue" d="M710.52,-1327C744.57,-1327 783.77,-1327 816.43,-1327"/>
<polygon fill="midnightblue" stroke="midnightblue" points="710.13,-1323.5 700.13,-1327 710.13,-1330.5 710.13,-1323.5"/>
</g>
<!-- Node8 -->
<g id="node8" class="node">
<title>Node8</title>
<g id="a_node8"><a xlink:href="classDynExpInstr_1_1FunctionGeneratorData.html" target="_top" xlink:title="Data class for FunctionGenerator.">
<polygon fill="white" stroke="red" points="789,-1279.5 789,-1298.5 984,-1298.5 984,-1279.5 789,-1279.5"/>
<text text-anchor="middle" x="886.5" y="-1286.5" font-family="Helvetica,sans-Serif" font-size="10.00">DynExpInstr::FunctionGeneratorData</text>
</a>
</g>
</g>
<!-- Node7&#45;&gt;Node8 -->
<g id="edge7" class="edge">
<title>Node7&#45;&gt;Node8</title>
<path fill="none" stroke="midnightblue" d="M659.35,-1227.01C687.94,-1239.9 732.59,-1258.7 773,-1270 786.45,-1273.76 801.02,-1276.89 815.08,-1279.45"/>
<polygon fill="midnightblue" stroke="midnightblue" points="660.49,-1223.68 649.94,-1222.71 657.58,-1230.05 660.49,-1223.68"/>
</g>
<!-- Node18 -->
<g id="node9" class="node">
<title>Node18</title>
<g id="a_node9"><a xlink:href="classDynExpInstr_1_1InputPortData.html" target="_top" xlink:title="Data class for InputPort.">
<polygon fill="white" stroke="red" points="812,-1241.5 812,-1260.5 961,-1260.5 961,-1241.5 812,-1241.5"/>
<text text-anchor="middle" x="886.5" y="-1248.5" font-family="Helvetica,sans-Serif" font-size="10.00">DynExpInstr::InputPortData</text>
</a>
</g>
</g>
<!-- Node7&#45;&gt;Node18 -->
<g id="edge8" class="edge">
<title>Node7&#45;&gt;Node18</title>
<path fill="none" stroke="midnightblue" d="M704.03,-1224.06C741.16,-1229.57 785.59,-1236.17 821.2,-1241.46"/>
<polygon fill="midnightblue" stroke="midnightblue" points="704.17,-1220.55 693.77,-1222.54 703.15,-1227.47 704.17,-1220.55"/>
</g>
<!-- Node23 -->
<g id="node10" class="node">
<title>Node23</title>
<g id="a_node10"><a xlink:href="classDynExpInstr_1_1LockinAmplifierData.html" target="_top" xlink:title="Data class for LockinAmplifier.">
<polygon fill="white" stroke="red" points="796,-1203.5 796,-1222.5 977,-1222.5 977,-1203.5 796,-1203.5"/>
<text text-anchor="middle" x="886.5" y="-1210.5" font-family="Helvetica,sans-Serif" font-size="10.00">DynExpInstr::LockinAmplifierData</text>
</a>
</g>
</g>
<!-- Node7&#45;&gt;Node23 -->
<g id="edge9" class="edge">
<title>Node7&#45;&gt;Node23</title>
<path fill="none" stroke="midnightblue" d="M747.45,-1213C763.77,-1213 780.31,-1213 795.99,-1213"/>
<polygon fill="midnightblue" stroke="midnightblue" points="747.33,-1209.5 737.33,-1213 747.33,-1216.5 747.33,-1209.5"/>
</g>
<!-- Node25 -->
<g id="node11" class="node">
<title>Node25</title>
<g id="a_node11"><a xlink:href="classDynExpInstr_1_1TimeTaggerData.html" target="_top" xlink:title="Data class for TimeTagger.">
<polygon fill="white" stroke="red" points="805.5,-1165.5 805.5,-1184.5 967.5,-1184.5 967.5,-1165.5 805.5,-1165.5"/>
<text text-anchor="middle" x="886.5" y="-1172.5" font-family="Helvetica,sans-Serif" font-size="10.00">DynExpInstr::TimeTaggerData</text>
</a>
</g>
</g>
<!-- Node7&#45;&gt;Node25 -->
<g id="edge10" class="edge">
<title>Node7&#45;&gt;Node25</title>
<path fill="none" stroke="midnightblue" d="M704.03,-1201.94C741.16,-1196.43 785.59,-1189.83 821.2,-1184.54"/>
<polygon fill="midnightblue" stroke="midnightblue" points="703.15,-1198.53 693.77,-1203.46 704.17,-1205.45 703.15,-1198.53"/>
</g>
<!-- Node29 -->
<g id="node14" class="node">
<title>Node29</title>
<g id="a_node14"><a xlink:href="classDynExpInstr_1_1NenionLeakvalveF3Data.html" target="_top" xlink:title=" ">
<polygon fill="white" stroke="black" points="803,-1116 803,-1146 970,-1146 970,-1116 803,-1116"/>
<text text-anchor="start" x="811" y="-1134" font-family="Helvetica,sans-Serif" font-size="10.00">DynExpInstr::NenionLeakvalve</text>
<text text-anchor="middle" x="886.5" y="-1123" font-family="Helvetica,sans-Serif" font-size="10.00">F3Data</text>
</a>
</g>
</g>
<!-- Node28&#45;&gt;Node29 -->
<g id="edge13" class="edge">
<title>Node28&#45;&gt;Node29</title>
<path fill="none" stroke="midnightblue" d="M730.01,-1115.82C754.16,-1118.17 779.67,-1120.67 802.9,-1122.93"/>
<polygon fill="midnightblue" stroke="midnightblue" points="730.05,-1112.3 719.76,-1114.81 729.37,-1119.27 730.05,-1112.3"/>
</g>
<!-- Node30 -->
<g id="node15" class="node">
<title>Node30</title>
<g id="a_node15"><a xlink:href="classDynExpInstr_1_1PI__C__862StageData.html" target="_top" xlink:title=" ">
<polygon fill="white" stroke="black" points="798,-1077.5 798,-1096.5 975,-1096.5 975,-1077.5 798,-1077.5"/>
<text text-anchor="middle" x="886.5" y="-1084.5" font-family="Helvetica,sans-Serif" font-size="10.00">DynExpInstr::PI_C_862StageData</text>
</a>
</g>
</g>
<!-- Node28&#45;&gt;Node30 -->
<g id="edge14" class="edge">
<title>Node28&#45;&gt;Node30</title>
<path fill="none" stroke="midnightblue" d="M729.95,-1098.54C752.36,-1096.88 775.94,-1095.13 797.78,-1093.51"/>
<polygon fill="midnightblue" stroke="midnightblue" points="729.47,-1095.07 719.76,-1099.3 729.99,-1102.05 729.47,-1095.07"/>
</g>
<!-- Node31 -->
<g id="node16" class="node">
<title>Node31</title>
<g id="a_node16"><a xlink:href="classDynExpInstr_1_1SmarActData.html" target="_top" xlink:title=" ">
<polygon fill="white" stroke="black" points="813.5,-1039.5 813.5,-1058.5 959.5,-1058.5 959.5,-1039.5 813.5,-1039.5"/>
<text text-anchor="middle" x="886.5" y="-1046.5" font-family="Helvetica,sans-Serif" font-size="10.00">DynExpInstr::SmarActData</text>
</a>
</g>
</g>
<!-- Node28&#45;&gt;Node31 -->
<g id="edge15" class="edge">
<title>Node28&#45;&gt;Node31</title>
<path fill="none" stroke="midnightblue" d="M711.32,-1094.3C720.09,-1092.23 728.79,-1089.81 737,-1087 754.11,-1081.13 755.86,-1073.8 773,-1068 785.76,-1063.68 799.68,-1060.32 813.24,-1057.7"/>
<polygon fill="midnightblue" stroke="midnightblue" points="710.42,-1090.91 701.41,-1096.49 711.93,-1097.74 710.42,-1090.91"/>
</g>
<!-- Node34 -->
<g id="node19" class="node">
<title>Node34</title>
<g id="a_node19"><a xlink:href="classDynExpModule_1_1gRPCModuleData.html" target="_top" xlink:title=" ">
<polygon fill="white" stroke="black" points="549.5,-941 549.5,-971 707.5,-971 707.5,-941 549.5,-941"/>
<text text-anchor="start" x="557.5" y="-959" font-family="Helvetica,sans-Serif" font-size="10.00">DynExpModule::gRPCModule</text>
<text text-anchor="middle" x="628.5" y="-948" font-family="Helvetica,sans-Serif" font-size="10.00">Data&lt; gRPCServices... &gt;</text>
</a>
</g>
</g>
<!-- Node33&#45;&gt;Node34 -->
<g id="edge18" class="edge">
<title>Node33&#45;&gt;Node34</title>
<path fill="none" stroke="midnightblue" d="M417.84,-673.01C458.25,-727.54 578.77,-890.23 616.25,-940.82"/>
<polygon fill="midnightblue" stroke="midnightblue" points="420.43,-670.63 411.67,-664.67 414.81,-674.79 420.43,-670.63"/>
</g>
<!-- Node42 -->
<g id="node22" class="node">
<title>Node42</title>
<g id="a_node22"><a xlink:href="classDynExp_1_1QModuleDataBase.html" target="_top" xlink:title="Data class for QModuleBase.">
<polygon fill="white" stroke="black" points="553,-689.5 553,-708.5 704,-708.5 704,-689.5 553,-689.5"/>
<text text-anchor="middle" x="628.5" y="-696.5" font-family="Helvetica,sans-Serif" font-size="10.00">DynExp::QModuleDataBase</text>
</a>
</g>
</g>
<!-- Node33&#45;&gt;Node42 -->
<g id="edge21" class="edge">
<title>Node33&#45;&gt;Node42</title>
<path fill="none" stroke="midnightblue" d="M458.97,-666.56C478.23,-670.59 500.06,-675.07 520,-679 537.88,-682.52 557.47,-686.21 574.97,-689.45"/>
<polygon fill="midnightblue" stroke="midnightblue" points="459.66,-663.13 449.16,-664.51 458.23,-669.98 459.66,-663.13"/>
</g>
<!-- Node54 -->
<g id="node34" class="node">
<title>Node54</title>
<g id="a_node34"><a xlink:href="classDynExpModule_1_1ArbitraryFunctionFromCSVData.html" target="_top" xlink:title=" ">
<polygon fill="white" stroke="black" points="538.5,-640 538.5,-670 718.5,-670 718.5,-640 538.5,-640"/>
<text text-anchor="start" x="546.5" y="-658" font-family="Helvetica,sans-Serif" font-size="10.00">DynExpModule::ArbitraryFunction</text>
<text text-anchor="middle" x="628.5" y="-647" font-family="Helvetica,sans-Serif" font-size="10.00">FromCSVData</text>
</a>
</g>
</g>
<!-- Node33&#45;&gt;Node54 -->
<g id="edge33" class="edge">
<title>Node33&#45;&gt;Node54</title>
<path fill="none" stroke="midnightblue" d="M485.07,-655C502.31,-655 520.62,-655 538.16,-655"/>
<polygon fill="midnightblue" stroke="midnightblue" points="485.06,-651.5 475.06,-655 485.06,-658.5 485.06,-651.5"/>
</g>
<!-- Node55 -->
<g id="node35" class="node">
<title>Node55</title>
<g id="a_node35"><a xlink:href="classDynExpModule_1_1StreamManipulatorData.html" target="_top" xlink:title="Data class for StreamManipulator.">
<polygon fill="white" stroke="black" points="522,-601.5 522,-620.5 735,-620.5 735,-601.5 522,-601.5"/>
<text text-anchor="middle" x="628.5" y="-608.5" font-family="Helvetica,sans-Serif" font-size="10.00">DynExpModule::StreamManipulatorData</text>
</a>
</g>
</g>
<!-- Node33&#45;&gt;Node55 -->
<g id="edge34" class="edge">
<title>Node33&#45;&gt;Node55</title>
<path fill="none" stroke="midnightblue" d="M456.44,-643.32C476.29,-638.97 499.16,-634.1 520,-630 536.64,-626.73 554.79,-623.42 571.35,-620.51"/>
<polygon fill="midnightblue" stroke="midnightblue" points="455.67,-639.9 446.66,-645.47 457.18,-646.74 455.67,-639.9"/>
</g>
<!-- Node56 -->
<g id="node36" class="node">
<title>Node56</title>
<g id="a_node36"><a xlink:href="classDynExpModule_1_1gRPCModuleData.html" target="_top" xlink:title="Data class for gRPCModule.">
<polygon fill="white" stroke="black" points="549.5,-552 549.5,-582 707.5,-582 707.5,-552 549.5,-552"/>
<text text-anchor="start" x="557.5" y="-570" font-family="Helvetica,sans-Serif" font-size="10.00">DynExpModule::gRPCModule</text>
<text text-anchor="middle" x="628.5" y="-559" font-family="Helvetica,sans-Serif" font-size="10.00">Data&lt; gRPCServices &gt;</text>
</a>
</g>
</g>
<!-- Node33&#45;&gt;Node56 -->
<g id="edge35" class="edge">
<title>Node33&#45;&gt;Node56</title>
<path fill="none" stroke="midnightblue" d="M427.78,-639.84C450.49,-625.65 486.42,-604.79 520,-592 529.94,-588.21 540.62,-584.9 551.26,-582.02"/>
<polygon fill="midnightblue" stroke="midnightblue" points="425.77,-636.97 419.19,-645.28 429.51,-642.88 425.77,-636.97"/>
</g>
<!-- Node35 -->
<g id="node20" class="node">
<title>Node35</title>
<g id="a_node20"><a xlink:href="classDynExpModule_1_1NetworkDataStreamInstrumentData.html" target="_top" xlink:title=" ">
<polygon fill="white" stroke="red" points="773,-990 773,-1020 1000,-1020 1000,-990 773,-990"/>
<text text-anchor="start" x="781" y="-1008" font-family="Helvetica,sans-Serif" font-size="10.00">DynExpModule::NetworkData</text>
<text text-anchor="middle" x="886.5" y="-997" font-family="Helvetica,sans-Serif" font-size="10.00">StreamInstrumentData&lt; gRPCServices... &gt;</text>
</a>
</g>
</g>
<!-- Node34&#45;&gt;Node35 -->
<g id="edge19" class="edge">
<title>Node34&#45;&gt;Node35</title>
<path fill="none" stroke="midnightblue" d="M717.8,-972.9C746.75,-978.44 778.71,-984.56 806.9,-989.95"/>
<polygon fill="midnightblue" stroke="midnightblue" points="718.18,-969.41 707.7,-970.97 716.86,-976.29 718.18,-969.41"/>
</g>
<!-- Node41 -->
<g id="node21" class="node">
<title>Node41</title>
<g id="a_node21"><a xlink:href="classDynExpModule_1_1NetworkDataStreamInstrumentData.html" target="_top" xlink:title=" ">
<polygon fill="white" stroke="black" points="777.5,-941 777.5,-971 995.5,-971 995.5,-941 777.5,-941"/>
<text text-anchor="start" x="785.5" y="-959" font-family="Helvetica,sans-Serif" font-size="10.00">DynExpModule::NetworkData</text>
<text text-anchor="middle" x="886.5" y="-948" font-family="Helvetica,sans-Serif" font-size="10.00">StreamInstrumentData&lt; gRPCServices &gt;</text>
</a>
</g>
</g>
<!-- Node34&#45;&gt;Node41 -->
<g id="edge20" class="edge">
<title>Node34&#45;&gt;Node41</title>
<path fill="none" stroke="midnightblue" d="M717.86,-956C736.97,-956 757.38,-956 777.15,-956"/>
<polygon fill="midnightblue" stroke="midnightblue" points="717.7,-952.5 707.7,-956 717.7,-959.5 717.7,-952.5"/>
</g>
<!-- Node43 -->
<g id="node23" class="node">
<title>Node43</title>
<g id="a_node23"><a xlink:href="classDynExpModule_1_1ImageViewer_1_1ImageViewerData.html" target="_top" xlink:title=" ">
<polygon fill="white" stroke="black" points="806,-892 806,-922 967,-922 967,-892 806,-892"/>
<text text-anchor="start" x="814" y="-910" font-family="Helvetica,sans-Serif" font-size="10.00">DynExpModule::ImageViewer</text>
<text text-anchor="middle" x="886.5" y="-899" font-family="Helvetica,sans-Serif" font-size="10.00">::ImageViewerData</text>
</a>
</g>
</g>
<!-- Node42&#45;&gt;Node43 -->
<g id="edge22" class="edge">
<title>Node42&#45;&gt;Node43</title>
<path fill="none" stroke="midnightblue" d="M638.8,-718.25C658.15,-756.08 706.49,-840.1 773,-882 782.99,-888.29 794.35,-893.01 805.92,-896.55"/>
<polygon fill="midnightblue" stroke="midnightblue" points="641.72,-716.26 634.13,-708.87 635.46,-719.39 641.72,-716.26"/>
</g>
<!-- Node44 -->
<g id="node24" class="node">
<title>Node44</title>
<g id="a_node24"><a xlink:href="classDynExpModule_1_1InputPortReaderData.html" target="_top" xlink:title=" ">
<polygon fill="white" stroke="black" points="787.5,-853.5 787.5,-872.5 985.5,-872.5 985.5,-853.5 787.5,-853.5"/>
<text text-anchor="middle" x="886.5" y="-860.5" font-family="Helvetica,sans-Serif" font-size="10.00">DynExpModule::InputPortReaderData</text>
</a>
</g>
</g>
<!-- Node42&#45;&gt;Node44 -->
<g id="edge23" class="edge">
<title>Node42&#45;&gt;Node44</title>
<path fill="none" stroke="midnightblue" d="M641.53,-717.1C663.52,-748.61 713.5,-813.1 773,-844 780.47,-847.88 788.56,-850.99 796.86,-853.49"/>
<polygon fill="midnightblue" stroke="midnightblue" points="644.38,-715.08 635.85,-708.8 638.6,-719.03 644.38,-715.08"/>
</g>
<!-- Node45 -->
<g id="node25" class="node">
<title>Node45</title>
<g id="a_node25"><a xlink:href="classDynExpModule_1_1LockinAmplifierControlData.html" target="_top" xlink:title=" ">
<polygon fill="white" stroke="black" points="800.5,-804 800.5,-834 972.5,-834 972.5,-804 800.5,-804"/>
<text text-anchor="start" x="808.5" y="-822" font-family="Helvetica,sans-Serif" font-size="10.00">DynExpModule::LockinAmplifier</text>
<text text-anchor="middle" x="886.5" y="-811" font-family="Helvetica,sans-Serif" font-size="10.00">ControlData</text>
</a>
</g>
</g>
<!-- Node42&#45;&gt;Node45 -->
<g id="edge24" class="edge">
<title>Node42&#45;&gt;Node45</title>
<path fill="none" stroke="midnightblue" d="M648.5,-715.21C674.75,-736.75 724.38,-774.45 773,-795 781.65,-798.65 790.91,-801.78 800.27,-804.44"/>
<polygon fill="midnightblue" stroke="midnightblue" points="650.46,-712.29 640.54,-708.58 645.98,-717.67 650.46,-712.29"/>
</g>
<!-- Node46 -->
<g id="node26" class="node">
<title>Node46</title>
<g id="a_node26"><a xlink:href="classDynExpModule_1_1ODMR_1_1ODMRData.html" target="_top" xlink:title=" ">
<polygon fill="white" stroke="black" points="823,-755 823,-785 950,-785 950,-755 823,-755"/>
<text text-anchor="start" x="831" y="-773" font-family="Helvetica,sans-Serif" font-size="10.00">DynExpModule::ODMR</text>
<text text-anchor="middle" x="886.5" y="-762" font-family="Helvetica,sans-Serif" font-size="10.00">::ODMRData</text>
</a>
</g>
</g>
<!-- Node42&#45;&gt;Node46 -->
<g id="edge25" class="edge">
<title>Node42&#45;&gt;Node46</title>
<path fill="none" stroke="midnightblue" d="M665.33,-711.91C694.17,-722.02 735.87,-735.99 773,-746 789,-750.31 806.46,-754.35 822.74,-757.84"/>
<polygon fill="midnightblue" stroke="midnightblue" points="666.29,-708.54 655.7,-708.51 663.96,-715.14 666.29,-708.54"/>
</g>
<!-- Node47 -->
<g id="node27" class="node">
<title>Node47</title>
<g id="a_node27"><a xlink:href="classDynExpModule_1_1OutputPortWriterData.html" target="_top" xlink:title=" ">
<polygon fill="white" stroke="black" points="812,-706 812,-736 961,-736 961,-706 812,-706"/>
<text text-anchor="start" x="820" y="-724" font-family="Helvetica,sans-Serif" font-size="10.00">DynExpModule::OutputPort</text>
<text text-anchor="middle" x="886.5" y="-713" font-family="Helvetica,sans-Serif" font-size="10.00">WriterData</text>
</a>
</g>
</g>
<!-- Node42&#45;&gt;Node47 -->
<g id="edge26" class="edge">
<title>Node42&#45;&gt;Node47</title>
<path fill="none" stroke="midnightblue" d="M714.34,-706.29C745.94,-709.01 781.5,-712.06 812,-714.68"/>
<polygon fill="midnightblue" stroke="midnightblue" points="714.5,-702.79 704.23,-705.42 713.9,-709.77 714.5,-702.79"/>
</g>
<!-- Node48 -->
<g id="node28" class="node">
<title>Node48</title>
<g id="a_node28"><a xlink:href="classDynExpModule_1_1SignalDesignerData.html" target="_top" xlink:title=" ">
<polygon fill="white" stroke="black" points="790,-667.5 790,-686.5 983,-686.5 983,-667.5 790,-667.5"/>
<text text-anchor="middle" x="886.5" y="-674.5" font-family="Helvetica,sans-Serif" font-size="10.00">DynExpModule::SignalDesignerData</text>
</a>
</g>
</g>
<!-- Node42&#45;&gt;Node48 -->
<g id="edge27" class="edge">
<title>Node42&#45;&gt;Node48</title>
<path fill="none" stroke="midnightblue" d="M714.42,-691.7C738.53,-689.63 764.96,-687.36 789.67,-685.24"/>
<polygon fill="midnightblue" stroke="midnightblue" points="713.9,-688.23 704.23,-692.58 714.5,-695.21 713.9,-688.23"/>
</g>
<!-- Node49 -->
<g id="node29" class="node">
<title>Node49</title>
<g id="a_node29"><a xlink:href="classDynExpModule_1_1SignalPlotterData.html" target="_top" xlink:title=" ">
<polygon fill="white" stroke="black" points="795.5,-629.5 795.5,-648.5 977.5,-648.5 977.5,-629.5 795.5,-629.5"/>
<text text-anchor="middle" x="886.5" y="-636.5" font-family="Helvetica,sans-Serif" font-size="10.00">DynExpModule::SignalPlotterData</text>
</a>
</g>
</g>
<!-- Node42&#45;&gt;Node49 -->
<g id="edge28" class="edge">
<title>Node42&#45;&gt;Node49</title>
<path fill="none" stroke="midnightblue" d="M710.11,-687.15C719.3,-684.88 728.44,-682.18 737,-679 754.36,-672.54 755.59,-664.31 773,-658 783.71,-654.12 795.28,-651.02 806.79,-648.56"/>
<polygon fill="midnightblue" stroke="midnightblue" points="709.08,-683.79 700.13,-689.46 710.66,-690.61 709.08,-683.79"/>
</g>
<!-- Node50 -->
<g id="node30" class="node">
<title>Node50</title>
<g id="a_node30"><a xlink:href="classDynExpModule_1_1SpectrumViewer_1_1SpectrumViewerData.html" target="_top" xlink:title=" ">
<polygon fill="white" stroke="black" points="798.5,-580 798.5,-610 974.5,-610 974.5,-580 798.5,-580"/>
<text text-anchor="start" x="806.5" y="-598" font-family="Helvetica,sans-Serif" font-size="10.00">DynExpModule::SpectrumViewer</text>
<text text-anchor="middle" x="886.5" y="-587" font-family="Helvetica,sans-Serif" font-size="10.00">::SpectrumViewerData</text>
</a>
</g>
</g>
<!-- Node42&#45;&gt;Node50 -->
<g id="edge29" class="edge">
<title>Node42&#45;&gt;Node50</title>
<path fill="none" stroke="midnightblue" d="M713.91,-690.5C722.11,-687.6 729.98,-683.84 737,-679 762.29,-661.57 748.01,-637.87 773,-620 780.65,-614.53 789.28,-610.23 798.28,-606.84"/>
<polygon fill="midnightblue" stroke="midnightblue" points="712.67,-687.22 704.16,-693.53 714.75,-693.91 712.67,-687.22"/>
</g>
<!-- Node51 -->
<g id="node31" class="node">
<title>Node51</title>
<g id="a_node31"><a xlink:href="classDynExpModule_1_1Stage1DData.html" target="_top" xlink:title=" ">
<polygon fill="white" stroke="black" points="806,-541.5 806,-560.5 967,-560.5 967,-541.5 806,-541.5"/>
<text text-anchor="middle" x="886.5" y="-548.5" font-family="Helvetica,sans-Serif" font-size="10.00">DynExpModule::Stage1DData</text>
</a>
</g>
</g>
<!-- Node42&#45;&gt;Node51 -->
<g id="edge30" class="edge">
<title>Node42&#45;&gt;Node51</title>
<path fill="none" stroke="midnightblue" d="M713.9,-692.56C722.33,-689.3 730.25,-684.9 737,-679 775.43,-645.44 734.29,-603.24 773,-570 782.39,-561.93 793.9,-556.67 805.94,-553.33"/>
<polygon fill="midnightblue" stroke="midnightblue" points="712.6,-689.3 704.21,-695.77 714.8,-695.95 712.6,-689.3"/>
</g>
<!-- Node52 -->
<g id="node32" class="node">
<title>Node52</title>
<g id="a_node32"><a xlink:href="classDynExpModule_1_1Trajectory1DData.html" target="_top" xlink:title=" ">
<polygon fill="white" stroke="black" points="811.5,-492 811.5,-522 961.5,-522 961.5,-492 811.5,-492"/>
<text text-anchor="start" x="819.5" y="-510" font-family="Helvetica,sans-Serif" font-size="10.00">DynExpModule::Trajectory1</text>
<text text-anchor="middle" x="886.5" y="-499" font-family="Helvetica,sans-Serif" font-size="10.00">DData</text>
</a>
</g>
</g>
<!-- Node42&#45;&gt;Node52 -->
<g id="edge31" class="edge">
<title>Node42&#45;&gt;Node52</title>
<path fill="none" stroke="midnightblue" d="M713.72,-693.34C722.31,-689.96 730.31,-685.32 737,-679 785.88,-632.79 724.93,-579.05 773,-532 783.44,-521.78 797.07,-515.36 811.23,-511.4"/>
<polygon fill="midnightblue" stroke="midnightblue" points="712.57,-690.03 704.2,-696.53 714.8,-696.67 712.57,-690.03"/>
</g>
<!-- Node53 -->
<g id="node33" class="node">
<title>Node53</title>
<g id="a_node33"><a xlink:href="classDynExpModule_1_1Widefield_1_1WidefieldMicroscopeData.html" target="_top" xlink:title=" ">
<polygon fill="white" stroke="black" points="813,-443 813,-473 960,-473 960,-443 813,-443"/>
<text text-anchor="start" x="821" y="-461" font-family="Helvetica,sans-Serif" font-size="10.00">DynExpModule::Widefield</text>
<text text-anchor="middle" x="886.5" y="-450" font-family="Helvetica,sans-Serif" font-size="10.00">::WidefieldMicroscopeData</text>
</a>
</g>
</g>
<!-- Node42&#45;&gt;Node53 -->
<g id="edge32" class="edge">
<title>Node42&#45;&gt;Node53</title>
<path fill="none" stroke="midnightblue" d="M713.7,-693.88C722.38,-690.43 730.41,-685.62 737,-679 799.84,-615.96 711,-545.86 773,-482 783.64,-471.04 797.97,-464.49 812.83,-460.69"/>
<polygon fill="midnightblue" stroke="midnightblue" points="712.44,-690.61 704.08,-697.12 714.68,-697.25 712.44,-690.61"/>
</g>
<!-- Node58 -->
<g id="node38" class="node">
<title>Node58</title>
<g id="a_node38"><a xlink:href="classDynExp_1_1HardwareAdapterParamsBase.html" target="_top" xlink:title="Parameter class for HardwareAdapterBase.">
<polygon fill="white" stroke="black" points="525.5,-216.5 525.5,-235.5 731.5,-235.5 731.5,-216.5 525.5,-216.5"/>
<text text-anchor="middle" x="628.5" y="-223.5" font-family="Helvetica,sans-Serif" font-size="10.00">DynExp::HardwareAdapterParamsBase</text>
</a>
</g>
</g>
<!-- Node57&#45;&gt;Node58 -->
<g id="edge37" class="edge">
<title>Node57&#45;&gt;Node58</title>
<path fill="none" stroke="midnightblue" d="M473.67,-212.89C490.05,-214.29 507.85,-215.81 525.35,-217.3"/>
<polygon fill="midnightblue" stroke="midnightblue" points="473.94,-209.4 463.67,-212.04 473.34,-216.38 473.94,-209.4"/>
</g>
<!-- Node71 -->
<g id="node47" class="node">
<title>Node71</title>
<g id="a_node47"><a xlink:href="classDynExp_1_1ProjectParams.html" target="_top" xlink:title="Defines a parameter class with parameters common to all DynExp projects.">
<polygon fill="white" stroke="black" points="563.5,-178.5 563.5,-197.5 693.5,-197.5 693.5,-178.5 563.5,-178.5"/>
<text text-anchor="middle" x="628.5" y="-185.5" font-family="Helvetica,sans-Serif" font-size="10.00">DynExp::ProjectParams</text>
</a>
</g>
</g>
<!-- Node57&#45;&gt;Node71 -->
<g id="edge46" class="edge">
<title>Node57&#45;&gt;Node71</title>
<path fill="none" stroke="midnightblue" d="M473.98,-201.08C502.53,-198.65 535.38,-195.85 563.35,-193.47"/>
<polygon fill="midnightblue" stroke="midnightblue" points="473.34,-197.62 463.67,-201.96 473.94,-204.6 473.34,-197.62"/>
</g>
<!-- Node72 -->
<g id="node48" class="node">
<title>Node72</title>
<g id="a_node48"><a xlink:href="classDynExp_1_1RunnableObjectParams.html" target="_top" xlink:title="Parameter class for RunnableObject.">
<polygon fill="white" stroke="red" points="542,-58.5 542,-77.5 715,-77.5 715,-58.5 542,-58.5"/>
<text text-anchor="middle" x="628.5" y="-65.5" font-family="Helvetica,sans-Serif" font-size="10.00">DynExp::RunnableObjectParams</text>
</a>
</g>
</g>
<!-- Node57&#45;&gt;Node72 -->
<g id="edge47" class="edge">
<title>Node57&#45;&gt;Node72</title>
<path fill="none" stroke="midnightblue" d="M428.54,-192.02C474.54,-163.34 573.84,-101.45 612.07,-77.62"/>
<polygon fill="midnightblue" stroke="midnightblue" points="426.46,-189.19 419.83,-197.45 430.17,-195.13 426.46,-189.19"/>
</g>
<!-- Node59 -->
<g id="node39" class="node">
<title>Node59</title>
<g id="a_node39"><a xlink:href="classDynExpHardware_1_1gRPCHardwareAdapterParams.html" target="_top" xlink:title=" ">
<polygon fill="white" stroke="red" points="796.5,-382.5 796.5,-423.5 976.5,-423.5 976.5,-382.5 796.5,-382.5"/>
<text text-anchor="start" x="804.5" y="-411.5" font-family="Helvetica,sans-Serif" font-size="10.00">DynExpHardware::gRPCHardware</text>
<text text-anchor="start" x="804.5" y="-400.5" font-family="Helvetica,sans-Serif" font-size="10.00">AdapterParams&lt; pulse_streamer</text>
<text text-anchor="middle" x="886.5" y="-389.5" font-family="Helvetica,sans-Serif" font-size="10.00">::PulseStreamer &gt;</text>
</a>
</g>
</g>
<!-- Node58&#45;&gt;Node59 -->
<g id="edge38" class="edge">
<title>Node58&#45;&gt;Node59</title>
<path fill="none" stroke="midnightblue" d="M642.12,-244.02C664.74,-274.94 715.25,-338.05 773,-372 780.34,-376.31 788.29,-380.04 796.47,-383.27"/>
<polygon fill="midnightblue" stroke="midnightblue" points="644.7,-241.6 636.02,-235.52 639.01,-245.69 644.7,-241.6"/>
</g>
<!-- Node61 -->
<g id="node40" class="node">
<title>Node61</title>
<g id="a_node40"><a xlink:href="classDynExp_1_1SerialCommunicationHardwareAdapterParams.html" target="_top" xlink:title="Parameter class for SerialCommunicationHardwareAdapter.">
<polygon fill="white" stroke="red" points="804,-333 804,-363 969,-363 969,-333 804,-333"/>
<text text-anchor="start" x="812" y="-351" font-family="Helvetica,sans-Serif" font-size="10.00">DynExp::SerialCommunication</text>
<text text-anchor="middle" x="886.5" y="-340" font-family="Helvetica,sans-Serif" font-size="10.00">HardwareAdapterParams</text>
</a>
</g>
</g>
<!-- Node58&#45;&gt;Node61 -->
<g id="edge39" class="edge">
<title>Node58&#45;&gt;Node61</title>
<path fill="none" stroke="midnightblue" d="M648.5,-242.33C674.74,-264.03 724.36,-302.06 773,-323 782.74,-327.19 793.27,-330.72 803.84,-333.68"/>
<polygon fill="midnightblue" stroke="midnightblue" points="650.44,-239.39 640.53,-235.65 645.94,-244.76 650.44,-239.39"/>
</g>
<!-- Node65 -->
<g id="node41" class="node">
<title>Node65</title>
<g id="a_node41"><a xlink:href="classDynExpHardware_1_1NIDAQHardwareAdapterParams.html" target="_top" xlink:title=" ">
<polygon fill="white" stroke="black" points="793,-284 793,-314 980,-314 980,-284 793,-284"/>
<text text-anchor="start" x="801" y="-302" font-family="Helvetica,sans-Serif" font-size="10.00">DynExpHardware::NIDAQHardware</text>
<text text-anchor="middle" x="886.5" y="-291" font-family="Helvetica,sans-Serif" font-size="10.00">AdapterParams</text>
</a>
</g>
</g>
<!-- Node58&#45;&gt;Node65 -->
<g id="edge40" class="edge">
<title>Node58&#45;&gt;Node65</title>
<path fill="none" stroke="midnightblue" d="M665.07,-239.05C693.91,-249.35 735.75,-263.66 773,-274 785.72,-277.53 799.36,-280.9 812.6,-283.96"/>
<polygon fill="midnightblue" stroke="midnightblue" points="666.03,-235.67 655.43,-235.58 663.66,-242.26 666.03,-235.67"/>
</g>
<!-- Node66 -->
<g id="node42" class="node">
<title>Node66</title>
<g id="a_node42"><a xlink:href="classDynExpHardware_1_1PVCamHardwareAdapterParams.html" target="_top" xlink:title=" ">
<polygon fill="white" stroke="black" points="791.5,-235 791.5,-265 981.5,-265 981.5,-235 791.5,-235"/>
<text text-anchor="start" x="799.5" y="-253" font-family="Helvetica,sans-Serif" font-size="10.00">DynExpHardware::PVCamHardware</text>
<text text-anchor="middle" x="886.5" y="-242" font-family="Helvetica,sans-Serif" font-size="10.00">AdapterParams</text>
</a>
</g>
</g>
<!-- Node58&#45;&gt;Node66 -->
<g id="edge41" class="edge">
<title>Node58&#45;&gt;Node66</title>
<path fill="none" stroke="midnightblue" d="M741.33,-236.48C757.95,-238.04 774.94,-239.64 791.15,-241.16"/>
<polygon fill="midnightblue" stroke="midnightblue" points="741.33,-232.97 731.05,-235.52 740.68,-239.94 741.33,-232.97"/>
</g>
<!-- Node67 -->
<g id="node43" class="node">
<title>Node67</title>
<g id="a_node43"><a xlink:href="classDynExpHardware_1_1QutoolsTDCHardwareAdapterParams.html" target="_top" xlink:title=" ">
<polygon fill="white" stroke="black" points="780.5,-186 780.5,-216 992.5,-216 992.5,-186 780.5,-186"/>
<text text-anchor="start" x="788.5" y="-204" font-family="Helvetica,sans-Serif" font-size="10.00">DynExpHardware::QutoolsTDCHardware</text>
<text text-anchor="middle" x="886.5" y="-193" font-family="Helvetica,sans-Serif" font-size="10.00">AdapterParams</text>
</a>
</g>
</g>
<!-- Node58&#45;&gt;Node67 -->
<g id="edge42" class="edge">
<title>Node58&#45;&gt;Node67</title>
<path fill="none" stroke="midnightblue" d="M737.28,-215.47C751.47,-214.09 766,-212.67 780.16,-211.29"/>
<polygon fill="midnightblue" stroke="midnightblue" points="736.63,-212.02 727.01,-216.48 737.31,-218.99 736.63,-212.02"/>
</g>
<!-- Node68 -->
<g id="node44" class="node">
<title>Node68</title>
<g id="a_node44"><a xlink:href="classDynExpHardware_1_1SmarActHardwareAdapterParams.html" target="_top" xlink:title=" ">
<polygon fill="white" stroke="black" points="788.5,-137 788.5,-167 984.5,-167 984.5,-137 788.5,-137"/>
<text text-anchor="start" x="796.5" y="-155" font-family="Helvetica,sans-Serif" font-size="10.00">DynExpHardware::SmarActHardware</text>
<text text-anchor="middle" x="886.5" y="-144" font-family="Helvetica,sans-Serif" font-size="10.00">AdapterParams</text>
</a>
</g>
</g>
<!-- Node58&#45;&gt;Node68 -->
<g id="edge43" class="edge">
<title>Node58&#45;&gt;Node68</title>
<path fill="none" stroke="midnightblue" d="M720.49,-213.56C726.18,-211.67 731.73,-209.5 737,-207 756.08,-197.95 754.09,-185.38 773,-176 779.98,-172.54 787.44,-169.57 795.08,-167.04"/>
<polygon fill="midnightblue" stroke="midnightblue" points="719.37,-210.24 710.8,-216.48 721.39,-216.94 719.37,-210.24"/>
</g>
<!-- Node69 -->
<g id="node45" class="node">
<title>Node69</title>
<g id="a_node45"><a xlink:href="classDynExpHardware_1_1ZILabOneHardwareAdapterParams.html" target="_top" xlink:title=" ">
<polygon fill="white" stroke="black" points="809.5,-88 809.5,-118 963.5,-118 963.5,-88 809.5,-88"/>
<text text-anchor="start" x="817.5" y="-106" font-family="Helvetica,sans-Serif" font-size="10.00">DynExpHardware::ZILabOne</text>
<text text-anchor="middle" x="886.5" y="-95" font-family="Helvetica,sans-Serif" font-size="10.00">HardwareAdapterParams</text>
</a>
</g>
</g>
<!-- Node58&#45;&gt;Node69 -->
<g id="edge44" class="edge">
<title>Node58&#45;&gt;Node69</title>
<path fill="none" stroke="midnightblue" d="M730.35,-211.6C732.65,-210.19 734.87,-208.66 737,-207 767.77,-183.05 742.66,-151.49 773,-127 783.49,-118.53 796.27,-112.86 809.4,-109.1"/>
<polygon fill="midnightblue" stroke="midnightblue" points="728.32,-208.71 721.13,-216.49 731.6,-214.9 728.32,-208.71"/>
</g>
<!-- Node70 -->
<g id="node46" class="node">
<title>Node70</title>
<g id="a_node46"><a xlink:href="classDynExpHardware_1_1gRPCHardwareAdapterParams.html" target="_top" xlink:title="Parameter class for gRPCHardwareAdapter.">
<polygon fill="white" stroke="black" points="796.5,-39 796.5,-69 976.5,-69 976.5,-39 796.5,-39"/>
<text text-anchor="start" x="804.5" y="-57" font-family="Helvetica,sans-Serif" font-size="10.00">DynExpHardware::gRPCHardware</text>
<text text-anchor="middle" x="886.5" y="-46" font-family="Helvetica,sans-Serif" font-size="10.00">AdapterParams&lt; gRPCStub &gt;</text>
</a>
</g>
</g>
<!-- Node58&#45;&gt;Node70 -->
<g id="edge45" class="edge">
<title>Node58&#45;&gt;Node70</title>
<path fill="none" stroke="midnightblue" d="M732.24,-210.91C733.88,-209.69 735.47,-208.38 737,-207 781.09,-167 729.63,-118.77 773,-78 779.77,-71.64 787.79,-66.8 796.38,-63.13"/>
<polygon fill="midnightblue" stroke="midnightblue" points="730.15,-208.08 723.57,-216.39 733.89,-214 730.15,-208.08"/>
</g>
<!-- Node73 -->
<g id="node49" class="node">
<title>Node73</title>
<g id="a_node49"><a xlink:href="classDynExp_1_1InstrumentParamsBase.html" target="_top" xlink:title="Parameter class for InstrumentBase.">
<polygon fill="white" stroke="red" points="800,-0.5 800,-19.5 973,-19.5 973,-0.5 800,-0.5"/>
<text text-anchor="middle" x="886.5" y="-7.5" font-family="Helvetica,sans-Serif" font-size="10.00">DynExp::InstrumentParamsBase</text>
</a>
</g>
</g>
<!-- Node72&#45;&gt;Node73 -->
<g id="edge48" class="edge">
<title>Node72&#45;&gt;Node73</title>
<path fill="none" stroke="midnightblue" d="M670.83,-55.61C699.36,-47.35 738.26,-36.63 773,-29 788.96,-25.49 806.32,-22.27 822.51,-19.52"/>
<polygon fill="midnightblue" stroke="midnightblue" points="669.81,-52.26 661.2,-58.42 671.78,-58.98 669.81,-52.26"/>
</g>
</g>
</svg>
