<?xml version="1.0" encoding="UTF-8" standalone="no"?>
<!DOCTYPE svg PUBLIC "-//W3C//DTD SVG 1.1//EN"
 "http://www.w3.org/Graphics/SVG/1.1/DTD/svg11.dtd">
<!-- Generated by graphviz version 2.43.0 (0)
 -->
<!-- Title: DynExpInstr::OutputPortData Pages: 1 -->
<svg width="338pt" height="442pt"
 viewBox="0.00 0.00 337.50 442.00" xmlns="http://www.w3.org/2000/svg" xmlns:xlink="http://www.w3.org/1999/xlink">
<g id="graph0" class="graph" transform="scale(1 1) rotate(0) translate(4 438)">
<title>DynExpInstr::OutputPortData</title>
<polygon fill="white" stroke="transparent" points="-4,4 -4,-438 333.5,-438 333.5,4 -4,4"/>
<!-- Node1 -->
<g id="node1" class="node">
<title>Node1</title>
<g id="a_node1"><a xlink:title="Data class for OutputPort.">
<polygon fill="#bfbfbf" stroke="black" points="86,-123.5 86,-142.5 244,-142.5 244,-123.5 86,-123.5"/>
<text text-anchor="middle" x="165" y="-130.5" font-family="Helvetica,sans-Serif" font-size="10.00">DynExpInstr::OutputPortData</text>
</a>
</g>
</g>
<!-- Node7 -->
<g id="node7" class="node">
<title>Node7</title>
<g id="a_node7"><a xlink:href="classDynExpInstr_1_1AnalogOutData.html" target="_top" xlink:title="Data class for AnalogOut.">
<polygon fill="white" stroke="black" points="0,-67.5 0,-86.5 156,-86.5 156,-67.5 0,-67.5"/>
<text text-anchor="middle" x="78" y="-74.5" font-family="Helvetica,sans-Serif" font-size="10.00">DynExpInstr::AnalogOutData</text>
</a>
</g>
</g>
<!-- Node1&#45;&gt;Node7 -->
<g id="edge6" class="edge">
<title>Node1&#45;&gt;Node7</title>
<path fill="none" stroke="midnightblue" d="M142.28,-117.9C126.33,-108 105.5,-95.07 91.94,-86.65"/>
<polygon fill="midnightblue" stroke="midnightblue" points="140.68,-121.02 151.02,-123.32 144.37,-115.08 140.68,-121.02"/>
</g>
<!-- Node9 -->
<g id="node9" class="node">
<title>Node9</title>
<g id="a_node9"><a xlink:href="classDynExpInstr_1_1DigitalOutData.html" target="_top" xlink:title="Data class for DigitalOut.">
<polygon fill="white" stroke="black" points="174.5,-67.5 174.5,-86.5 329.5,-86.5 329.5,-67.5 174.5,-67.5"/>
<text text-anchor="middle" x="252" y="-74.5" font-family="Helvetica,sans-Serif" font-size="10.00">DynExpInstr::DigitalOutData</text>
</a>
</g>
</g>
<!-- Node1&#45;&gt;Node9 -->
<g id="edge8" class="edge">
<title>Node1&#45;&gt;Node9</title>
<path fill="none" stroke="midnightblue" d="M187.72,-117.9C203.67,-108 224.5,-95.07 238.06,-86.65"/>
<polygon fill="midnightblue" stroke="midnightblue" points="185.63,-115.08 178.98,-123.32 189.32,-121.02 185.63,-115.08"/>
</g>
<!-- Node2 -->
<g id="node2" class="node">
<title>Node2</title>
<g id="a_node2"><a xlink:href="classDynExpInstr_1_1FunctionGeneratorData.html" target="_top" xlink:title="Data class for FunctionGenerator.">
<polygon fill="white" stroke="black" points="67.5,-179.5 67.5,-198.5 262.5,-198.5 262.5,-179.5 67.5,-179.5"/>
<text text-anchor="middle" x="165" y="-186.5" font-family="Helvetica,sans-Serif" font-size="10.00">DynExpInstr::FunctionGeneratorData</text>
</a>
</g>
</g>
<!-- Node2&#45;&gt;Node1 -->
<g id="edge1" class="edge">
<title>Node2&#45;&gt;Node1</title>
<path fill="none" stroke="midnightblue" d="M165,-168.8C165,-159.91 165,-149.78 165,-142.75"/>
<polygon fill="midnightblue" stroke="midnightblue" points="161.5,-169.08 165,-179.08 168.5,-169.08 161.5,-169.08"/>
</g>
<!-- Node3 -->
<g id="node3" class="node">
<title>Node3</title>
<g id="a_node3"><a xlink:href="classDynExpInstr_1_1DataStreamInstrumentData.html" target="_top" xlink:title="Data class for DataStreamInstrument.">
<polygon fill="white" stroke="black" points="56.5,-235.5 56.5,-254.5 273.5,-254.5 273.5,-235.5 56.5,-235.5"/>
<text text-anchor="middle" x="165" y="-242.5" font-family="Helvetica,sans-Serif" font-size="10.00">DynExpInstr::DataStreamInstrumentData</text>
</a>
</g>
</g>
<!-- Node3&#45;&gt;Node2 -->
<g id="edge2" class="edge">
<title>Node3&#45;&gt;Node2</title>
<path fill="none" stroke="midnightblue" d="M165,-224.8C165,-215.91 165,-205.78 165,-198.75"/>
<polygon fill="midnightblue" stroke="midnightblue" points="161.5,-225.08 165,-235.08 168.5,-225.08 161.5,-225.08"/>
</g>
<!-- Node4 -->
<g id="node4" class="node">
<title>Node4</title>
<g id="a_node4"><a xlink:href="classDynExp_1_1InstrumentDataBase.html" target="_top" xlink:title="Data structure to contain data which is synchronized in between different threads....">
<polygon fill="white" stroke="black" points="84.5,-291.5 84.5,-310.5 245.5,-310.5 245.5,-291.5 84.5,-291.5"/>
<text text-anchor="middle" x="165" y="-298.5" font-family="Helvetica,sans-Serif" font-size="10.00">DynExp::InstrumentDataBase</text>
</a>
</g>
</g>
<!-- Node4&#45;&gt;Node3 -->
<g id="edge3" class="edge">
<title>Node4&#45;&gt;Node3</title>
<path fill="none" stroke="midnightblue" d="M165,-280.8C165,-271.91 165,-261.78 165,-254.75"/>
<polygon fill="midnightblue" stroke="midnightblue" points="161.5,-281.08 165,-291.08 168.5,-281.08 161.5,-281.08"/>
</g>
<!-- Node5 -->
<g id="node5" class="node">
<title>Node5</title>
<g id="a_node5"><a xlink:href="classUtil_1_1ISynchronizedPointerLockable.html" target="_top" xlink:title="Interface to allow synchronizing the access to derived classes between different threads by making th...">
<polygon fill="white" stroke="black" points="93.5,-347.5 93.5,-377.5 236.5,-377.5 236.5,-347.5 93.5,-347.5"/>
<text text-anchor="start" x="101.5" y="-365.5" font-family="Helvetica,sans-Serif" font-size="10.00">Util::ISynchronizedPointer</text>
<text text-anchor="middle" x="165" y="-354.5" font-family="Helvetica,sans-Serif" font-size="10.00">Lockable</text>
</a>
</g>
</g>
<!-- Node5&#45;&gt;Node4 -->
<g id="edge4" class="edge">
<title>Node5&#45;&gt;Node4</title>
<path fill="none" stroke="midnightblue" d="M165,-337.29C165,-327.86 165,-317.65 165,-310.66"/>
<polygon fill="midnightblue" stroke="midnightblue" points="161.5,-337.4 165,-347.4 168.5,-337.4 161.5,-337.4"/>
</g>
<!-- Node6 -->
<g id="node6" class="node">
<title>Node6</title>
<g id="a_node6"><a xlink:href="classUtil_1_1INonCopyable.html" target="_top" xlink:title="Interface to delete copy constructor and copy assignment operator and thus make derived classes non&#45;c...">
<polygon fill="white" stroke="black" points="111,-414.5 111,-433.5 219,-433.5 219,-414.5 111,-414.5"/>
<text text-anchor="middle" x="165" y="-421.5" font-family="Helvetica,sans-Serif" font-size="10.00">Util::INonCopyable</text>
</a>
</g>
</g>
<!-- Node6&#45;&gt;Node5 -->
<g id="edge5" class="edge">
<title>Node6&#45;&gt;Node5</title>
<path fill="none" stroke="midnightblue" d="M165,-404.23C165,-395.59 165,-385.5 165,-377.52"/>
<polygon fill="midnightblue" stroke="midnightblue" points="161.5,-404.48 165,-414.48 168.5,-404.48 161.5,-404.48"/>
</g>
<!-- Node8 -->
<g id="node8" class="node">
<title>Node8</title>
<g id="a_node8"><a xlink:href="classDynExpInstr_1_1NIDAQAnalogOutData.html" target="_top" xlink:title=" ">
<polygon fill="white" stroke="black" points="4,-0.5 4,-30.5 152,-30.5 152,-0.5 4,-0.5"/>
<text text-anchor="start" x="12" y="-18.5" font-family="Helvetica,sans-Serif" font-size="10.00">DynExpInstr::NIDAQAnalog</text>
<text text-anchor="middle" x="78" y="-7.5" font-family="Helvetica,sans-Serif" font-size="10.00">OutData</text>
</a>
</g>
</g>
<!-- Node7&#45;&gt;Node8 -->
<g id="edge7" class="edge">
<title>Node7&#45;&gt;Node8</title>
<path fill="none" stroke="midnightblue" d="M78,-57.23C78,-48.59 78,-38.5 78,-30.52"/>
<polygon fill="midnightblue" stroke="midnightblue" points="74.5,-57.48 78,-67.48 81.5,-57.48 74.5,-57.48"/>
</g>
<!-- Node10 -->
<g id="node10" class="node">
<title>Node10</title>
<g id="a_node10"><a xlink:href="classDynExpInstr_1_1NIDAQDigitalOutData.html" target="_top" xlink:title=" ">
<polygon fill="white" stroke="black" points="179,-0.5 179,-30.5 325,-30.5 325,-0.5 179,-0.5"/>
<text text-anchor="start" x="187" y="-18.5" font-family="Helvetica,sans-Serif" font-size="10.00">DynExpInstr::NIDAQDigital</text>
<text text-anchor="middle" x="252" y="-7.5" font-family="Helvetica,sans-Serif" font-size="10.00">OutData</text>
</a>
</g>
</g>
<!-- Node9&#45;&gt;Node10 -->
<g id="edge9" class="edge">
<title>Node9&#45;&gt;Node10</title>
<path fill="none" stroke="midnightblue" d="M252,-57.23C252,-48.59 252,-38.5 252,-30.52"/>
<polygon fill="midnightblue" stroke="midnightblue" points="248.5,-57.48 252,-67.48 255.5,-57.48 248.5,-57.48"/>
</g>
</g>
</svg>
