<?xml version="1.0" encoding="UTF-8" standalone="no"?>
<!DOCTYPE svg PUBLIC "-//W3C//DTD SVG 1.1//EN"
 "http://www.w3.org/Graphics/SVG/1.1/DTD/svg11.dtd">
<!-- Generated by graphviz version 2.43.0 (0)
 -->
<!-- Title: DynExpInstr::NetworkAnalogOutTasks::ExitTask&lt; BaseInstr,, gRPCStubs &gt; Pages: 1 -->
<svg width="721pt" height="60pt"
 viewBox="0.00 0.00 721.00 60.00" xmlns="http://www.w3.org/2000/svg" xmlns:xlink="http://www.w3.org/1999/xlink">
<g id="graph0" class="graph" transform="scale(1 1) rotate(0) translate(4 56)">
<title>DynExpInstr::NetworkAnalogOutTasks::ExitTask&lt; BaseInstr,, gRPCStubs &gt;</title>
<!-- Node1 -->
<g id="Node000001" class="node">
<title>Node1</title>
<g id="a_Node000001"><a xlink:title=" ">
<polygon fill="#999999" stroke="#666666" points="713,-46.5 546,-46.5 546,-5.5 713,-5.5 713,-46.5"/>
<text text-anchor="start" x="554" y="-34.5" font-family="Helvetica,sans-Serif" font-size="10.00">DynExpInstr::NetworkAnalog</text>
<text text-anchor="start" x="554" y="-23.5" font-family="Helvetica,sans-Serif" font-size="10.00">OutTasks::ExitTask&lt; BaseInstr,</text>
<text text-anchor="middle" x="629.5" y="-12.5" font-family="Helvetica,sans-Serif" font-size="10.00">, gRPCStubs &gt;</text>
</a>
</g>
</g>
<!-- Node2 -->
<g id="Node000002" class="node">
<title>Node2</title>
<g id="a_Node000002"><a xlink:href="classDynExpInstr_1_1NetworkDataStreamInstrumentTasks_1_1ExitTask.html" target="_top" xlink:title=" ">
<polygon fill="white" stroke="#666666" points="510,-52 364,-52 364,0 510,0 510,-52"/>
<text text-anchor="start" x="372" y="-40" font-family="Helvetica,sans-Serif" font-size="10.00">DynExpInstr::NetworkData</text>
<text text-anchor="start" x="372" y="-29" font-family="Helvetica,sans-Serif" font-size="10.00">StreamInstrumentTasks</text>
<text text-anchor="start" x="372" y="-18" font-family="Helvetica,sans-Serif" font-size="10.00">::ExitTask&lt; BaseInstr,</text>
<text text-anchor="middle" x="437" y="-7" font-family="Helvetica,sans-Serif" font-size="10.00"> 0, gRPCStubs... &gt;</text>
</a>
</g>
</g>
<!-- Node2&#45;&gt;Node1 -->
<g id="edge1_Node000001_Node000002" class="edge">
<title>Node2&#45;&gt;Node1</title>
<g id="a_edge1_Node000001_Node000002"><a xlink:title=" ">
<path fill="none" stroke="#63b8ff" d="M520.27,-26C528.74,-26 537.36,-26 545.83,-26"/>
<polygon fill="#63b8ff" stroke="#63b8ff" points="520.02,-22.5 510.02,-26 520.02,-29.5 520.02,-22.5"/>
</a>
</g>
</g>
<!-- Node3 -->
<g id="Node000003" class="node">
<title>Node3</title>
<g id="a_Node000003"><a xlink:href="classDynExpInstr_1_1gRPCInstrumentTasks_1_1ExitTask.html" target="_top" xlink:title="Defines a task for deinitializing an instrument within an instrument inheritance hierarchy....">
<polygon fill="white" stroke="#666666" points="328,-46.5 167,-46.5 167,-5.5 328,-5.5 328,-46.5"/>
<text text-anchor="start" x="175" y="-34.5" font-family="Helvetica,sans-Serif" font-size="10.00">DynExpInstr::gRPCInstrument</text>
<text text-anchor="start" x="175" y="-23.5" font-family="Helvetica,sans-Serif" font-size="10.00">Tasks::ExitTask&lt; BaseInstr,</text>
<text text-anchor="middle" x="247.5" y="-12.5" font-family="Helvetica,sans-Serif" font-size="10.00">, gRPCStubs &gt;</text>
</a>
</g>
</g>
<!-- Node3&#45;&gt;Node2 -->
<g id="edge2_Node000002_Node000003" class="edge">
<title>Node3&#45;&gt;Node2</title>
<g id="a_edge2_Node000002_Node000003"><a xlink:title=" ">
<path fill="none" stroke="#63b8ff" d="M338.1,-26C346.71,-26 355.38,-26 363.8,-26"/>
<polygon fill="#63b8ff" stroke="#63b8ff" points="338.02,-22.5 328.02,-26 338.02,-29.5 338.02,-22.5"/>
</a>
</g>
</g>
<!-- Node4 -->
<g id="Node000004" class="node">
<title>Node4</title>
<g id="a_Node000004"><a xlink:title=" ">
<polygon fill="white" stroke="#666666" points="131,-35.5 0,-35.5 0,-16.5 131,-16.5 131,-35.5"/>
<text text-anchor="middle" x="65.5" y="-23.5" font-family="Helvetica,sans-Serif" font-size="10.00">BaseInstr::ExitTaskType</text>
</a>
</g>
</g>
<!-- Node4&#45;&gt;Node3 -->
<g id="edge3_Node000003_Node000004" class="edge">
<title>Node4&#45;&gt;Node3</title>
<g id="a_edge3_Node000003_Node000004"><a xlink:title=" ">
<path fill="none" stroke="#63b8ff" d="M141.41,-26C149.85,-26 158.47,-26 166.97,-26"/>
<polygon fill="#63b8ff" stroke="#63b8ff" points="141.23,-22.5 131.23,-26 141.23,-29.5 141.23,-22.5"/>
</a>
</g>
</g>
</g>
</svg>
