<?xml version="1.0" encoding="UTF-8" standalone="no"?>
<!DOCTYPE svg PUBLIC "-//W3C//DTD SVG 1.1//EN"
 "http://www.w3.org/Graphics/SVG/1.1/DTD/svg11.dtd">
<!-- Generated by graphviz version 2.43.0 (0)
 -->
<!-- Title: DynExpInstr::InputPortConfigurator Pages: 1 -->
<svg width="394pt" height="379pt"
 viewBox="0.00 0.00 394.00 379.00" xmlns="http://www.w3.org/2000/svg" xmlns:xlink="http://www.w3.org/1999/xlink">
<g id="graph0" class="graph" transform="scale(1 1) rotate(0) translate(4 375)">
<title>DynExpInstr::InputPortConfigurator</title>
<!-- Node1 -->
<g id="Node000001" class="node">
<title>Node1</title>
<g id="a_Node000001"><a xlink:title="Configurator class for InputPort.">
<polygon fill="#999999" stroke="#666666" points="286.5,-140 100.5,-140 100.5,-121 286.5,-121 286.5,-140"/>
<text text-anchor="middle" x="193.5" y="-128" font-family="Helvetica,sans-Serif" font-size="10.00">DynExpInstr::InputPortConfigurator</text>
</a>
</g>
</g>
<!-- Node6 -->
<g id="Node000006" class="node">
<title>Node6</title>
<g id="a_Node000006"><a xlink:href="classDynExpInstr_1_1AnalogInConfigurator.html" target="_top" xlink:title="Configurator class for AnalogIn.">
<polygon fill="white" stroke="#666666" points="185,-85 0,-85 0,-66 185,-66 185,-85"/>
<text text-anchor="middle" x="92.5" y="-73" font-family="Helvetica,sans-Serif" font-size="10.00">DynExpInstr::AnalogInConfigurator</text>
</a>
</g>
</g>
<!-- Node1&#45;&gt;Node6 -->
<g id="edge5_Node000001_Node000006" class="edge">
<title>Node1&#45;&gt;Node6</title>
<g id="a_edge5_Node000001_Node000006"><a xlink:title=" ">
<path fill="none" stroke="#63b8ff" d="M168.22,-116.23C149.7,-106.51 125.08,-93.6 109.02,-85.17"/>
<polygon fill="#63b8ff" stroke="#63b8ff" points="166.79,-119.44 177.27,-120.98 170.04,-113.24 166.79,-119.44"/>
</a>
</g>
</g>
<!-- Node8 -->
<g id="Node000008" class="node">
<title>Node8</title>
<g id="a_Node000008"><a xlink:href="classDynExpInstr_1_1DigitalInConfigurator.html" target="_top" xlink:title="Configurator class for DigitalIn.">
<polygon fill="white" stroke="#666666" points="386,-85 203,-85 203,-66 386,-66 386,-85"/>
<text text-anchor="middle" x="294.5" y="-73" font-family="Helvetica,sans-Serif" font-size="10.00">DynExpInstr::DigitalInConfigurator</text>
</a>
</g>
</g>
<!-- Node1&#45;&gt;Node8 -->
<g id="edge7_Node000001_Node000008" class="edge">
<title>Node1&#45;&gt;Node8</title>
<g id="a_edge7_Node000001_Node000008"><a xlink:title=" ">
<path fill="none" stroke="#63b8ff" d="M218.78,-116.23C237.3,-106.51 261.92,-93.6 277.98,-85.17"/>
<polygon fill="#63b8ff" stroke="#63b8ff" points="216.96,-113.24 209.73,-120.98 220.21,-119.44 216.96,-113.24"/>
</a>
</g>
</g>
<!-- Node2 -->
<g id="Node000002" class="node">
<title>Node2</title>
<g id="a_Node000002"><a xlink:href="classDynExpInstr_1_1DataStreamInstrumentConfigurator.html" target="_top" xlink:title="Configurator class for DataStreamInstrument.">
<polygon fill="white" stroke="#666666" points="290.5,-206 96.5,-206 96.5,-176 290.5,-176 290.5,-206"/>
<text text-anchor="start" x="104.5" y="-194" font-family="Helvetica,sans-Serif" font-size="10.00">DynExpInstr::DataStreamInstrument</text>
<text text-anchor="middle" x="193.5" y="-183" font-family="Helvetica,sans-Serif" font-size="10.00">Configurator</text>
</a>
</g>
</g>
<!-- Node2&#45;&gt;Node1 -->
<g id="edge1_Node000001_Node000002" class="edge">
<title>Node2&#45;&gt;Node1</title>
<g id="a_edge1_Node000001_Node000002"><a xlink:title=" ">
<path fill="none" stroke="#63b8ff" d="M193.5,-165.75C193.5,-156.72 193.5,-147.03 193.5,-140.27"/>
<polygon fill="#63b8ff" stroke="#63b8ff" points="190,-165.84 193.5,-175.84 197,-165.84 190,-165.84"/>
</a>
</g>
</g>
<!-- Node3 -->
<g id="Node000003" class="node">
<title>Node3</title>
<g id="a_Node000003"><a xlink:href="classDynExp_1_1InstrumentConfiguratorBase.html" target="_top" xlink:title="Configurator class for InstrumentBase.">
<polygon fill="white" stroke="#666666" points="292,-261 95,-261 95,-242 292,-242 292,-261"/>
<text text-anchor="middle" x="193.5" y="-249" font-family="Helvetica,sans-Serif" font-size="10.00">DynExp::InstrumentConfiguratorBase</text>
</a>
</g>
</g>
<!-- Node3&#45;&gt;Node2 -->
<g id="edge2_Node000002_Node000003" class="edge">
<title>Node3&#45;&gt;Node2</title>
<g id="a_edge2_Node000002_Node000003"><a xlink:title=" ">
<path fill="none" stroke="#63b8ff" d="M193.5,-231.65C193.5,-223.36 193.5,-213.78 193.5,-206.11"/>
<polygon fill="#63b8ff" stroke="#63b8ff" points="190,-231.87 193.5,-241.87 197,-231.87 190,-231.87"/>
</a>
</g>
</g>
<!-- Node4 -->
<g id="Node000004" class="node">
<title>Node4</title>
<g id="a_Node000004"><a xlink:href="classDynExp_1_1RunnableObjectConfigurator.html" target="_top" xlink:title="Configurator class for RunnableObject.">
<polygon fill="white" stroke="#666666" points="292,-316 95,-316 95,-297 292,-297 292,-316"/>
<text text-anchor="middle" x="193.5" y="-304" font-family="Helvetica,sans-Serif" font-size="10.00">DynExp::RunnableObjectConfigurator</text>
</a>
</g>
</g>
<!-- Node4&#45;&gt;Node3 -->
<g id="edge3_Node000003_Node000004" class="edge">
<title>Node4&#45;&gt;Node3</title>
<g id="a_edge3_Node000003_Node000004"><a xlink:title=" ">
<path fill="none" stroke="#63b8ff" d="M193.5,-286.66C193.5,-277.93 193.5,-267.99 193.5,-261.09"/>
<polygon fill="#63b8ff" stroke="#63b8ff" points="190,-286.75 193.5,-296.75 197,-286.75 190,-286.75"/>
</a>
</g>
</g>
<!-- Node5 -->
<g id="Node000005" class="node">
<title>Node5</title>
<g id="a_Node000005"><a xlink:href="classDynExp_1_1ConfiguratorBase.html" target="_top" xlink:title="The configurator classes have the task to generate parameter objects (refer to DynExp::ParamsBase) of...">
<polygon fill="white" stroke="#666666" points="265.5,-371 121.5,-371 121.5,-352 265.5,-352 265.5,-371"/>
<text text-anchor="middle" x="193.5" y="-359" font-family="Helvetica,sans-Serif" font-size="10.00">DynExp::ConfiguratorBase</text>
</a>
</g>
</g>
<!-- Node5&#45;&gt;Node4 -->
<g id="edge4_Node000004_Node000005" class="edge">
<title>Node5&#45;&gt;Node4</title>
<g id="a_edge4_Node000004_Node000005"><a xlink:title=" ">
<path fill="none" stroke="#63b8ff" d="M193.5,-341.66C193.5,-332.93 193.5,-322.99 193.5,-316.09"/>
<polygon fill="#63b8ff" stroke="#63b8ff" points="190,-341.75 193.5,-351.75 197,-341.75 190,-341.75"/>
</a>
</g>
</g>
<!-- Node7 -->
<g id="Node000007" class="node">
<title>Node7</title>
<g id="a_Node000007"><a xlink:href="classDynExpInstr_1_1NIDAQAnalogInConfigurator.html" target="_top" xlink:title=" ">
<polygon fill="white" stroke="#666666" points="166.5,-30 18.5,-30 18.5,0 166.5,0 166.5,-30"/>
<text text-anchor="start" x="26.5" y="-18" font-family="Helvetica,sans-Serif" font-size="10.00">DynExpInstr::NIDAQAnalog</text>
<text text-anchor="middle" x="92.5" y="-7" font-family="Helvetica,sans-Serif" font-size="10.00">InConfigurator</text>
</a>
</g>
</g>
<!-- Node6&#45;&gt;Node7 -->
<g id="edge6_Node000006_Node000007" class="edge">
<title>Node6&#45;&gt;Node7</title>
<g id="a_edge6_Node000006_Node000007"><a xlink:title=" ">
<path fill="none" stroke="#63b8ff" d="M92.5,-55.65C92.5,-47.36 92.5,-37.78 92.5,-30.11"/>
<polygon fill="#63b8ff" stroke="#63b8ff" points="89,-55.87 92.5,-65.87 96,-55.87 89,-55.87"/>
</a>
</g>
</g>
<!-- Node9 -->
<g id="Node000009" class="node">
<title>Node9</title>
<g id="a_Node000009"><a xlink:href="classDynExpInstr_1_1NIDAQDigitalInConfigurator.html" target="_top" xlink:title=" ">
<polygon fill="white" stroke="#666666" points="367.5,-30 221.5,-30 221.5,0 367.5,0 367.5,-30"/>
<text text-anchor="start" x="229.5" y="-18" font-family="Helvetica,sans-Serif" font-size="10.00">DynExpInstr::NIDAQDigital</text>
<text text-anchor="middle" x="294.5" y="-7" font-family="Helvetica,sans-Serif" font-size="10.00">InConfigurator</text>
</a>
</g>
</g>
<!-- Node8&#45;&gt;Node9 -->
<g id="edge8_Node000008_Node000009" class="edge">
<title>Node8&#45;&gt;Node9</title>
<g id="a_edge8_Node000008_Node000009"><a xlink:title=" ">
<path fill="none" stroke="#63b8ff" d="M294.5,-55.65C294.5,-47.36 294.5,-37.78 294.5,-30.11"/>
<polygon fill="#63b8ff" stroke="#63b8ff" points="291,-55.87 294.5,-65.87 298,-55.87 291,-55.87"/>
</a>
</g>
</g>
</g>
</svg>
