<?xml version="1.0" encoding="UTF-8" standalone="no"?>
<!DOCTYPE svg PUBLIC "-//W3C//DTD SVG 1.1//EN"
 "http://www.w3.org/Graphics/SVG/1.1/DTD/svg11.dtd">
<!-- Generated by graphviz version 2.43.0 (0)
 -->
<!-- Title: DynExpInstr::AnalogOutParams Pages: 1 -->
<svg width="202pt" height="566pt"
 viewBox="0.00 0.00 202.00 566.00" xmlns="http://www.w3.org/2000/svg" xmlns:xlink="http://www.w3.org/1999/xlink">
<g id="graph0" class="graph" transform="scale(1 1) rotate(0) translate(4 562)">
<title>DynExpInstr::AnalogOutParams</title>
<!-- Node1 -->
<g id="Node000001" class="node">
<title>Node1</title>
<g id="a_Node000001"><a xlink:title="Parameter class for AnalogOut.">
<polygon fill="#999999" stroke="#666666" points="181.5,-85 12.5,-85 12.5,-66 181.5,-66 181.5,-85"/>
<text text-anchor="middle" x="97" y="-73" font-family="Helvetica,sans-Serif" font-size="10.00">DynExpInstr::AnalogOutParams</text>
</a>
</g>
</g>
<!-- Node10 -->
<g id="Node000010" class="node">
<title>Node10</title>
<g id="a_Node000010"><a xlink:href="classDynExpInstr_1_1NIDAQAnalogOutParams.html" target="_top" xlink:title=" ">
<polygon fill="white" stroke="#666666" points="171,-30 23,-30 23,0 171,0 171,-30"/>
<text text-anchor="start" x="31" y="-18" font-family="Helvetica,sans-Serif" font-size="10.00">DynExpInstr::NIDAQAnalog</text>
<text text-anchor="middle" x="97" y="-7" font-family="Helvetica,sans-Serif" font-size="10.00">OutParams</text>
</a>
</g>
</g>
<!-- Node1&#45;&gt;Node10 -->
<g id="edge9_Node000001_Node000010" class="edge">
<title>Node1&#45;&gt;Node10</title>
<g id="a_edge9_Node000001_Node000010"><a xlink:title=" ">
<path fill="none" stroke="#63b8ff" d="M97,-55.65C97,-47.36 97,-37.78 97,-30.11"/>
<polygon fill="#63b8ff" stroke="#63b8ff" points="93.5,-55.87 97,-65.87 100.5,-55.87 93.5,-55.87"/>
</a>
</g>
</g>
<!-- Node2 -->
<g id="Node000002" class="node">
<title>Node2</title>
<g id="a_Node000002"><a xlink:href="classDynExpInstr_1_1OutputPortParams.html" target="_top" xlink:title="Parameter class for OutputPort.">
<polygon fill="white" stroke="#666666" points="182,-140 12,-140 12,-121 182,-121 182,-140"/>
<text text-anchor="middle" x="97" y="-128" font-family="Helvetica,sans-Serif" font-size="10.00">DynExpInstr::OutputPortParams</text>
</a>
</g>
</g>
<!-- Node2&#45;&gt;Node1 -->
<g id="edge1_Node000001_Node000002" class="edge">
<title>Node2&#45;&gt;Node1</title>
<g id="a_edge1_Node000001_Node000002"><a xlink:title=" ">
<path fill="none" stroke="#63b8ff" d="M97,-110.66C97,-101.93 97,-91.99 97,-85.09"/>
<polygon fill="#63b8ff" stroke="#63b8ff" points="93.5,-110.75 97,-120.75 100.5,-110.75 93.5,-110.75"/>
</a>
</g>
</g>
<!-- Node3 -->
<g id="Node000003" class="node">
<title>Node3</title>
<g id="a_Node000003"><a xlink:href="classDynExpInstr_1_1FunctionGeneratorParams.html" target="_top" xlink:title="Parameter class for FunctionGenerator.">
<polygon fill="white" stroke="#666666" points="183,-206 11,-206 11,-176 183,-176 183,-206"/>
<text text-anchor="start" x="19" y="-194" font-family="Helvetica,sans-Serif" font-size="10.00">DynExpInstr::FunctionGenerator</text>
<text text-anchor="middle" x="97" y="-183" font-family="Helvetica,sans-Serif" font-size="10.00">Params</text>
</a>
</g>
</g>
<!-- Node3&#45;&gt;Node2 -->
<g id="edge2_Node000002_Node000003" class="edge">
<title>Node3&#45;&gt;Node2</title>
<g id="a_edge2_Node000002_Node000003"><a xlink:title=" ">
<path fill="none" stroke="#63b8ff" d="M97,-165.75C97,-156.72 97,-147.03 97,-140.27"/>
<polygon fill="#63b8ff" stroke="#63b8ff" points="93.5,-165.84 97,-175.84 100.5,-165.84 93.5,-165.84"/>
</a>
</g>
</g>
<!-- Node4 -->
<g id="Node000004" class="node">
<title>Node4</title>
<g id="a_Node000004"><a xlink:href="classDynExpInstr_1_1DataStreamInstrumentParams.html" target="_top" xlink:title="Parameter class for DataStreamInstrument.">
<polygon fill="white" stroke="#666666" points="194,-272 0,-272 0,-242 194,-242 194,-272"/>
<text text-anchor="start" x="8" y="-260" font-family="Helvetica,sans-Serif" font-size="10.00">DynExpInstr::DataStreamInstrument</text>
<text text-anchor="middle" x="97" y="-249" font-family="Helvetica,sans-Serif" font-size="10.00">Params</text>
</a>
</g>
</g>
<!-- Node4&#45;&gt;Node3 -->
<g id="edge3_Node000003_Node000004" class="edge">
<title>Node4&#45;&gt;Node3</title>
<g id="a_edge3_Node000003_Node000004"><a xlink:title=" ">
<path fill="none" stroke="#63b8ff" d="M97,-231.54C97,-222.96 97,-213.61 97,-206.16"/>
<polygon fill="#63b8ff" stroke="#63b8ff" points="93.5,-231.8 97,-241.8 100.5,-231.8 93.5,-231.8"/>
</a>
</g>
</g>
<!-- Node5 -->
<g id="Node000005" class="node">
<title>Node5</title>
<g id="a_Node000005"><a xlink:href="classDynExp_1_1InstrumentParamsBase.html" target="_top" xlink:title="Parameter class for InstrumentBase.">
<polygon fill="white" stroke="#666666" points="183.5,-327 10.5,-327 10.5,-308 183.5,-308 183.5,-327"/>
<text text-anchor="middle" x="97" y="-315" font-family="Helvetica,sans-Serif" font-size="10.00">DynExp::InstrumentParamsBase</text>
</a>
</g>
</g>
<!-- Node5&#45;&gt;Node4 -->
<g id="edge4_Node000004_Node000005" class="edge">
<title>Node5&#45;&gt;Node4</title>
<g id="a_edge4_Node000004_Node000005"><a xlink:title=" ">
<path fill="none" stroke="#63b8ff" d="M97,-297.65C97,-289.36 97,-279.78 97,-272.11"/>
<polygon fill="#63b8ff" stroke="#63b8ff" points="93.5,-297.87 97,-307.87 100.5,-297.87 93.5,-297.87"/>
</a>
</g>
</g>
<!-- Node6 -->
<g id="Node000006" class="node">
<title>Node6</title>
<g id="a_Node000006"><a xlink:href="classDynExp_1_1RunnableObjectParams.html" target="_top" xlink:title="Parameter class for RunnableObject.">
<polygon fill="white" stroke="#666666" points="183.5,-382 10.5,-382 10.5,-363 183.5,-363 183.5,-382"/>
<text text-anchor="middle" x="97" y="-370" font-family="Helvetica,sans-Serif" font-size="10.00">DynExp::RunnableObjectParams</text>
</a>
</g>
</g>
<!-- Node6&#45;&gt;Node5 -->
<g id="edge5_Node000005_Node000006" class="edge">
<title>Node6&#45;&gt;Node5</title>
<g id="a_edge5_Node000005_Node000006"><a xlink:title=" ">
<path fill="none" stroke="#63b8ff" d="M97,-352.66C97,-343.93 97,-333.99 97,-327.09"/>
<polygon fill="#63b8ff" stroke="#63b8ff" points="93.5,-352.75 97,-362.75 100.5,-352.75 93.5,-352.75"/>
</a>
</g>
</g>
<!-- Node7 -->
<g id="Node000007" class="node">
<title>Node7</title>
<g id="a_Node000007"><a xlink:href="classDynExp_1_1ParamsBase.html" target="_top" xlink:title="Abstract base class for object parameter classes. Each class derived from class Object must be accomp...">
<polygon fill="white" stroke="#666666" points="157,-437 37,-437 37,-418 157,-418 157,-437"/>
<text text-anchor="middle" x="97" y="-425" font-family="Helvetica,sans-Serif" font-size="10.00">DynExp::ParamsBase</text>
</a>
</g>
</g>
<!-- Node7&#45;&gt;Node6 -->
<g id="edge6_Node000006_Node000007" class="edge">
<title>Node7&#45;&gt;Node6</title>
<g id="a_edge6_Node000006_Node000007"><a xlink:title=" ">
<path fill="none" stroke="#63b8ff" d="M97,-407.66C97,-398.93 97,-388.99 97,-382.09"/>
<polygon fill="#63b8ff" stroke="#63b8ff" points="93.5,-407.75 97,-417.75 100.5,-407.75 93.5,-407.75"/>
</a>
</g>
</g>
<!-- Node8 -->
<g id="Node000008" class="node">
<title>Node8</title>
<g id="a_Node000008"><a xlink:href="classUtil_1_1ISynchronizedPointerLockable.html" target="_top" xlink:title="Interface to allow synchronizing the access to derived classes between different threads by making th...">
<polygon fill="white" stroke="#666666" points="168.5,-503 25.5,-503 25.5,-473 168.5,-473 168.5,-503"/>
<text text-anchor="start" x="33.5" y="-491" font-family="Helvetica,sans-Serif" font-size="10.00">Util::ISynchronizedPointer</text>
<text text-anchor="middle" x="97" y="-480" font-family="Helvetica,sans-Serif" font-size="10.00">Lockable</text>
</a>
</g>
</g>
<!-- Node8&#45;&gt;Node7 -->
<g id="edge7_Node000007_Node000008" class="edge">
<title>Node8&#45;&gt;Node7</title>
<g id="a_edge7_Node000007_Node000008"><a xlink:title=" ">
<path fill="none" stroke="#63b8ff" d="M97,-462.75C97,-453.72 97,-444.03 97,-437.27"/>
<polygon fill="#63b8ff" stroke="#63b8ff" points="93.5,-462.84 97,-472.84 100.5,-462.84 93.5,-462.84"/>
</a>
</g>
</g>
<!-- Node9 -->
<g id="Node000009" class="node">
<title>Node9</title>
<g id="a_Node000009"><a xlink:href="classUtil_1_1INonCopyable.html" target="_top" xlink:title="Interface to delete copy constructor and copy assignment operator and thus make derived classes non&#45;c...">
<polygon fill="white" stroke="#666666" points="151,-558 43,-558 43,-539 151,-539 151,-558"/>
<text text-anchor="middle" x="97" y="-546" font-family="Helvetica,sans-Serif" font-size="10.00">Util::INonCopyable</text>
</a>
</g>
</g>
<!-- Node9&#45;&gt;Node8 -->
<g id="edge8_Node000008_Node000009" class="edge">
<title>Node9&#45;&gt;Node8</title>
<g id="a_edge8_Node000008_Node000009"><a xlink:title=" ">
<path fill="none" stroke="#63b8ff" d="M97,-528.65C97,-520.36 97,-510.78 97,-503.11"/>
<polygon fill="#63b8ff" stroke="#63b8ff" points="93.5,-528.87 97,-538.87 100.5,-528.87 93.5,-528.87"/>
</a>
</g>
</g>
</g>
</svg>
