<?xml version="1.0" encoding="UTF-8" standalone="no"?>
<!DOCTYPE svg PUBLIC "-//W3C//DTD SVG 1.1//EN"
 "http://www.w3.org/Graphics/SVG/1.1/DTD/svg11.dtd">
<!-- Generated by graphviz version 2.43.0 (0)
 -->
<!-- Title: DynExp::InstrumentParamsBase Pages: 1 -->
<svg width="1923pt" height="468pt"
 viewBox="0.00 0.00 1923.00 467.50" xmlns="http://www.w3.org/2000/svg" xmlns:xlink="http://www.w3.org/1999/xlink">
<g id="graph0" class="graph" transform="scale(1 1) rotate(0) translate(4 463.5)">
<title>DynExp::InstrumentParamsBase</title>
<!-- Node1 -->
<g id="Node000001" class="node">
<title>Node1</title>
<g id="a_Node000001"><a xlink:title="Parameter class for InstrumentBase.">
<polygon fill="#999999" stroke="#666666" points="861,-153 688,-153 688,-134 861,-134 861,-153"/>
<text text-anchor="middle" x="774.5" y="-141" font-family="Helvetica,sans-Serif" font-size="10.00">DynExp::InstrumentParamsBase</text>
</a>
</g>
</g>
<!-- Node6 -->
<g id="Node000006" class="node">
<title>Node6</title>
<g id="a_Node000006"><a xlink:href="classDynExpInstr_1_1CameraParams.html" target="_top" xlink:title="Parameter class for Camera.">
<polygon fill="white" stroke="#666666" points="1072,-380 916,-380 916,-361 1072,-361 1072,-380"/>
<text text-anchor="middle" x="994" y="-368" font-family="Helvetica,sans-Serif" font-size="10.00">DynExpInstr::CameraParams</text>
</a>
</g>
</g>
<!-- Node1&#45;&gt;Node6 -->
<g id="edge5_Node000001_Node000006" class="edge">
<title>Node1&#45;&gt;Node6</title>
<g id="a_edge5_Node000001_Node000006"><a xlink:title=" ">
<path fill="none" stroke="#63b8ff" d="M792.03,-160.75C835.17,-205.77 950.14,-325.77 983.69,-360.78"/>
<polygon fill="#63b8ff" stroke="#63b8ff" points="794.29,-158.05 784.85,-153.25 789.24,-162.9 794.29,-158.05"/>
</a>
</g>
</g>
<!-- Node9 -->
<g id="Node000009" class="node">
<title>Node9</title>
<g id="a_Node000009"><a xlink:href="classDynExpInstr_1_1DataStreamInstrumentParams.html" target="_top" xlink:title="Parameter class for DataStreamInstrument.">
<polygon fill="white" stroke="#666666" points="1091,-206.5 897,-206.5 897,-176.5 1091,-176.5 1091,-206.5"/>
<text text-anchor="start" x="905" y="-194.5" font-family="Helvetica,sans-Serif" font-size="10.00">DynExpInstr::DataStreamInstrument</text>
<text text-anchor="middle" x="994" y="-183.5" font-family="Helvetica,sans-Serif" font-size="10.00">Params</text>
</a>
</g>
</g>
<!-- Node1&#45;&gt;Node9 -->
<g id="edge8_Node000001_Node000009" class="edge">
<title>Node1&#45;&gt;Node9</title>
<g id="a_edge8_Node000001_Node000009"><a xlink:title=" ">
<path fill="none" stroke="#63b8ff" d="M828.68,-155.24C857.7,-161.64 893.95,-169.64 925.02,-176.5"/>
<polygon fill="#63b8ff" stroke="#63b8ff" points="829.25,-151.78 818.73,-153.04 827.74,-158.61 829.25,-151.78"/>
</a>
</g>
</g>
<!-- Node29 -->
<g id="Node000029" class="node">
<title>Node29</title>
<g id="a_Node000029"><a xlink:href="classDynExpInstr_1_1InterModuleCommunicatorParams.html" target="_top" xlink:title="Parameter class for InterModuleCommunicator.">
<polygon fill="white" stroke="#666666" points="1064,-158.5 924,-158.5 924,-128.5 1064,-128.5 1064,-158.5"/>
<text text-anchor="start" x="932" y="-146.5" font-family="Helvetica,sans-Serif" font-size="10.00">DynExpInstr::InterModule</text>
<text text-anchor="middle" x="994" y="-135.5" font-family="Helvetica,sans-Serif" font-size="10.00">CommunicatorParams</text>
</a>
</g>
</g>
<!-- Node1&#45;&gt;Node29 -->
<g id="edge28_Node000001_Node000029" class="edge">
<title>Node1&#45;&gt;Node29</title>
<g id="a_edge28_Node000001_Node000029"><a xlink:title=" ">
<path fill="none" stroke="#63b8ff" d="M871.47,-143.5C889.11,-143.5 907.21,-143.5 923.87,-143.5"/>
<polygon fill="#63b8ff" stroke="#63b8ff" points="871.15,-140 861.15,-143.5 871.15,-147 871.15,-140"/>
</a>
</g>
</g>
<!-- Node30 -->
<g id="Node000030" class="node">
<title>Node30</title>
<g id="a_Node000030"><a xlink:href="classDynExpInstr_1_1PositionerStageParams.html" target="_top" xlink:title="Parameter class for PositionerStage.">
<polygon fill="white" stroke="#666666" points="1073,-110.5 915,-110.5 915,-80.5 1073,-80.5 1073,-110.5"/>
<text text-anchor="start" x="923" y="-98.5" font-family="Helvetica,sans-Serif" font-size="10.00">DynExpInstr::PositionerStage</text>
<text text-anchor="middle" x="994" y="-87.5" font-family="Helvetica,sans-Serif" font-size="10.00">Params</text>
</a>
</g>
</g>
<!-- Node1&#45;&gt;Node30 -->
<g id="edge29_Node000001_Node000030" class="edge">
<title>Node1&#45;&gt;Node30</title>
<g id="a_edge29_Node000001_Node000030"><a xlink:title=" ">
<path fill="none" stroke="#63b8ff" d="M828.68,-131.76C857.7,-125.36 893.95,-117.36 925.02,-110.5"/>
<polygon fill="#63b8ff" stroke="#63b8ff" points="827.74,-128.39 818.73,-133.96 829.25,-135.22 827.74,-128.39"/>
</a>
</g>
</g>
<!-- Node34 -->
<g id="Node000034" class="node">
<title>Node34</title>
<g id="a_Node000034"><a xlink:href="classDynExpInstr_1_1SpectrometerParams.html" target="_top" xlink:title="Parameter class for Spectrometer.">
<polygon fill="white" stroke="#666666" points="1068,-62.5 920,-62.5 920,-32.5 1068,-32.5 1068,-62.5"/>
<text text-anchor="start" x="928" y="-50.5" font-family="Helvetica,sans-Serif" font-size="10.00">DynExpInstr::Spectrometer</text>
<text text-anchor="middle" x="994" y="-39.5" font-family="Helvetica,sans-Serif" font-size="10.00">Params</text>
</a>
</g>
</g>
<!-- Node1&#45;&gt;Node34 -->
<g id="edge33_Node000001_Node000034" class="edge">
<title>Node1&#45;&gt;Node34</title>
<g id="a_edge33_Node000001_Node000034"><a xlink:title=" ">
<path fill="none" stroke="#63b8ff" d="M797.18,-128.01C820.73,-111.83 859.96,-86.72 897,-71.5 905.18,-68.14 913.96,-65.16 922.76,-62.54"/>
<polygon fill="#63b8ff" stroke="#63b8ff" points="794.88,-125.35 788.67,-133.94 798.88,-131.09 794.88,-125.35"/>
</a>
</g>
</g>
<!-- Node2 -->
<g id="Node000002" class="node">
<title>Node2</title>
<g id="a_Node000002"><a xlink:href="classDynExp_1_1RunnableObjectParams.html" target="_top" xlink:title="Parameter class for RunnableObject.">
<polygon fill="white" stroke="#666666" points="652,-153 479,-153 479,-134 652,-134 652,-153"/>
<text text-anchor="middle" x="565.5" y="-141" font-family="Helvetica,sans-Serif" font-size="10.00">DynExp::RunnableObjectParams</text>
</a>
</g>
</g>
<!-- Node2&#45;&gt;Node1 -->
<g id="edge1_Node000001_Node000002" class="edge">
<title>Node2&#45;&gt;Node1</title>
<g id="a_edge1_Node000001_Node000002"><a xlink:title=" ">
<path fill="none" stroke="#63b8ff" d="M662.2,-143.5C670.76,-143.5 679.4,-143.5 687.88,-143.5"/>
<polygon fill="#63b8ff" stroke="#63b8ff" points="662.19,-140 652.19,-143.5 662.19,-147 662.19,-140"/>
</a>
</g>
</g>
<!-- Node3 -->
<g id="Node000003" class="node">
<title>Node3</title>
<g id="a_Node000003"><a xlink:href="classDynExp_1_1ParamsBase.html" target="_top" xlink:title="Abstract base class for object parameter classes. Each class derived from class Object must be accomp...">
<polygon fill="white" stroke="#666666" points="443,-153 323,-153 323,-134 443,-134 443,-153"/>
<text text-anchor="middle" x="383" y="-141" font-family="Helvetica,sans-Serif" font-size="10.00">DynExp::ParamsBase</text>
</a>
</g>
</g>
<!-- Node3&#45;&gt;Node2 -->
<g id="edge2_Node000002_Node000003" class="edge">
<title>Node3&#45;&gt;Node2</title>
<g id="a_edge2_Node000002_Node000003"><a xlink:title=" ">
<path fill="none" stroke="#63b8ff" d="M453.17,-143.5C461.54,-143.5 470.17,-143.5 478.75,-143.5"/>
<polygon fill="#63b8ff" stroke="#63b8ff" points="453.1,-140 443.1,-143.5 453.1,-147 453.1,-140"/>
</a>
</g>
</g>
<!-- Node4 -->
<g id="Node000004" class="node">
<title>Node4</title>
<g id="a_Node000004"><a xlink:href="classUtil_1_1ISynchronizedPointerLockable.html" target="_top" xlink:title="Interface to allow synchronizing the access to derived classes between different threads by making th...">
<polygon fill="white" stroke="#666666" points="287,-158.5 144,-158.5 144,-128.5 287,-128.5 287,-158.5"/>
<text text-anchor="start" x="152" y="-146.5" font-family="Helvetica,sans-Serif" font-size="10.00">Util::ISynchronizedPointer</text>
<text text-anchor="middle" x="215.5" y="-135.5" font-family="Helvetica,sans-Serif" font-size="10.00">Lockable</text>
</a>
</g>
</g>
<!-- Node4&#45;&gt;Node3 -->
<g id="edge3_Node000003_Node000004" class="edge">
<title>Node4&#45;&gt;Node3</title>
<g id="a_edge3_Node000003_Node000004"><a xlink:title=" ">
<path fill="none" stroke="#63b8ff" d="M297.23,-143.5C305.84,-143.5 314.47,-143.5 322.76,-143.5"/>
<polygon fill="#63b8ff" stroke="#63b8ff" points="297.17,-140 287.17,-143.5 297.17,-147 297.17,-140"/>
</a>
</g>
</g>
<!-- Node5 -->
<g id="Node000005" class="node">
<title>Node5</title>
<g id="a_Node000005"><a xlink:href="classUtil_1_1INonCopyable.html" target="_top" xlink:title="Interface to delete copy constructor and copy assignment operator and thus make derived classes non&#45;c...">
<polygon fill="white" stroke="#666666" points="108,-153 0,-153 0,-134 108,-134 108,-153"/>
<text text-anchor="middle" x="54" y="-141" font-family="Helvetica,sans-Serif" font-size="10.00">Util::INonCopyable</text>
</a>
</g>
</g>
<!-- Node5&#45;&gt;Node4 -->
<g id="edge4_Node000004_Node000005" class="edge">
<title>Node5&#45;&gt;Node4</title>
<g id="a_edge4_Node000004_Node000005"><a xlink:title=" ">
<path fill="none" stroke="#63b8ff" d="M118.19,-143.5C126.58,-143.5 135.23,-143.5 143.74,-143.5"/>
<polygon fill="#63b8ff" stroke="#63b8ff" points="118.11,-140 108.11,-143.5 118.11,-147 118.11,-140"/>
</a>
</g>
</g>
<!-- Node7 -->
<g id="Node000007" class="node">
<title>Node7</title>
<g id="a_Node000007"><a xlink:href="classDynExpInstr_1_1DummyCameraParams.html" target="_top" xlink:title=" ">
<polygon fill="white" stroke="#666666" points="1294,-428.5 1135,-428.5 1135,-398.5 1294,-398.5 1294,-428.5"/>
<text text-anchor="start" x="1143" y="-416.5" font-family="Helvetica,sans-Serif" font-size="10.00">DynExpInstr::DummyCamera</text>
<text text-anchor="middle" x="1214.5" y="-405.5" font-family="Helvetica,sans-Serif" font-size="10.00">Params</text>
</a>
</g>
</g>
<!-- Node6&#45;&gt;Node7 -->
<g id="edge6_Node000006_Node000007" class="edge">
<title>Node6&#45;&gt;Node7</title>
<g id="a_edge6_Node000006_Node000007"><a xlink:title=" ">
<path fill="none" stroke="#63b8ff" d="M1053.46,-382.01C1079.19,-387.07 1109.76,-393.08 1137.25,-398.49"/>
<polygon fill="#63b8ff" stroke="#63b8ff" points="1053.98,-378.54 1043.49,-380.04 1052.63,-385.41 1053.98,-378.54"/>
</a>
</g>
</g>
<!-- Node8 -->
<g id="Node000008" class="node">
<title>Node8</title>
<g id="a_Node000008"><a xlink:href="classDynExpInstr_1_1PVCamParams.html" target="_top" xlink:title=" ">
<polygon fill="white" stroke="#666666" points="1291,-380 1138,-380 1138,-361 1291,-361 1291,-380"/>
<text text-anchor="middle" x="1214.5" y="-368" font-family="Helvetica,sans-Serif" font-size="10.00">DynExpInstr::PVCamParams</text>
</a>
</g>
</g>
<!-- Node6&#45;&gt;Node8 -->
<g id="edge7_Node000006_Node000008" class="edge">
<title>Node6&#45;&gt;Node8</title>
<g id="a_edge7_Node000006_Node000008"><a xlink:title=" ">
<path fill="none" stroke="#63b8ff" d="M1082.17,-370.5C1100.61,-370.5 1119.93,-370.5 1137.9,-370.5"/>
<polygon fill="#63b8ff" stroke="#63b8ff" points="1082.03,-367 1072.03,-370.5 1082.03,-374 1082.03,-367"/>
</a>
</g>
</g>
<!-- Node10 -->
<g id="Node000010" class="node">
<title>Node10</title>
<g id="a_Node000010"><a xlink:href="classDynExpInstr_1_1FunctionGeneratorParams.html" target="_top" xlink:title="Parameter class for FunctionGenerator.">
<polygon fill="white" stroke="#666666" points="1300.5,-342.5 1128.5,-342.5 1128.5,-312.5 1300.5,-312.5 1300.5,-342.5"/>
<text text-anchor="start" x="1136.5" y="-330.5" font-family="Helvetica,sans-Serif" font-size="10.00">DynExpInstr::FunctionGenerator</text>
<text text-anchor="middle" x="1214.5" y="-319.5" font-family="Helvetica,sans-Serif" font-size="10.00">Params</text>
</a>
</g>
</g>
<!-- Node9&#45;&gt;Node10 -->
<g id="edge9_Node000009_Node000010" class="edge">
<title>Node9&#45;&gt;Node10</title>
<g id="a_edge9_Node000009_Node000010"><a xlink:title=" ">
<path fill="none" stroke="#63b8ff" d="M1027.86,-211.95C1072.11,-239.49 1149.81,-287.86 1189.17,-312.36"/>
<polygon fill="#63b8ff" stroke="#63b8ff" points="1029.56,-208.89 1019.22,-206.57 1025.86,-214.83 1029.56,-208.89"/>
</a>
</g>
</g>
<!-- Node20 -->
<g id="Node000020" class="node">
<title>Node20</title>
<g id="a_Node000020"><a xlink:href="classDynExpInstr_1_1InputPortParams.html" target="_top" xlink:title="Parameter class for InputPort.">
<polygon fill="white" stroke="#666666" points="1295.5,-239 1133.5,-239 1133.5,-220 1295.5,-220 1295.5,-239"/>
<text text-anchor="middle" x="1214.5" y="-227" font-family="Helvetica,sans-Serif" font-size="10.00">DynExpInstr::InputPortParams</text>
</a>
</g>
</g>
<!-- Node9&#45;&gt;Node20 -->
<g id="edge19_Node000009_Node000020" class="edge">
<title>Node9&#45;&gt;Node20</title>
<g id="a_edge19_Node000009_Node000020"><a xlink:title=" ">
<path fill="none" stroke="#63b8ff" d="M1091.23,-208.24C1114.4,-212.26 1138.36,-216.43 1158.87,-220"/>
<polygon fill="#63b8ff" stroke="#63b8ff" points="1091.81,-204.78 1081.36,-206.52 1090.61,-211.68 1091.81,-204.78"/>
</a>
</g>
</g>
<!-- Node25 -->
<g id="Node000025" class="node">
<title>Node25</title>
<g id="a_Node000025"><a xlink:href="classDynExpInstr_1_1LockinAmplifierParams.html" target="_top" xlink:title="Parameter class for LockinAmplifier.">
<polygon fill="white" stroke="#666666" points="1293.5,-201.5 1135.5,-201.5 1135.5,-171.5 1293.5,-171.5 1293.5,-201.5"/>
<text text-anchor="start" x="1143.5" y="-189.5" font-family="Helvetica,sans-Serif" font-size="10.00">DynExpInstr::LockinAmplifier</text>
<text text-anchor="middle" x="1214.5" y="-178.5" font-family="Helvetica,sans-Serif" font-size="10.00">Params</text>
</a>
</g>
</g>
<!-- Node9&#45;&gt;Node25 -->
<g id="edge24_Node000009_Node000025" class="edge">
<title>Node9&#45;&gt;Node25</title>
<g id="a_edge24_Node000009_Node000025"><a xlink:title=" ">
<path fill="none" stroke="#63b8ff" d="M1101.23,-189.07C1112.72,-188.81 1124.26,-188.54 1135.34,-188.29"/>
<polygon fill="#63b8ff" stroke="#63b8ff" points="1101.07,-185.57 1091.16,-189.3 1101.23,-192.57 1101.07,-185.57"/>
</a>
</g>
</g>
<!-- Node27 -->
<g id="Node000027" class="node">
<title>Node27</title>
<g id="a_Node000027"><a xlink:href="classDynExpInstr_1_1TimeTaggerParams.html" target="_top" xlink:title="Parameter class for TimeTagger.">
<polygon fill="white" stroke="#666666" points="1302,-153 1127,-153 1127,-134 1302,-134 1302,-153"/>
<text text-anchor="middle" x="1214.5" y="-141" font-family="Helvetica,sans-Serif" font-size="10.00">DynExpInstr::TimeTaggerParams</text>
</a>
</g>
</g>
<!-- Node9&#45;&gt;Node27 -->
<g id="edge26_Node000009_Node000027" class="edge">
<title>Node9&#45;&gt;Node27</title>
<g id="a_edge26_Node000009_Node000027"><a xlink:title=" ">
<path fill="none" stroke="#63b8ff" d="M1073.48,-174.26C1105.96,-167.12 1142.4,-159.12 1169.96,-153.06"/>
<polygon fill="#63b8ff" stroke="#63b8ff" points="1072.55,-170.88 1063.54,-176.44 1074.05,-177.72 1072.55,-170.88"/>
</a>
</g>
</g>
<!-- Node11 -->
<g id="Node000011" class="node">
<title>Node11</title>
<g id="a_Node000011"><a xlink:href="classDynExpInstr_1_1DummyDataStreamInstrumentParams.html" target="_top" xlink:title=" ">
<polygon fill="white" stroke="#666666" points="1521.5,-459.5 1342.5,-459.5 1342.5,-429.5 1521.5,-429.5 1521.5,-459.5"/>
<text text-anchor="start" x="1350.5" y="-447.5" font-family="Helvetica,sans-Serif" font-size="10.00">DynExpInstr::DummyDataStream</text>
<text text-anchor="middle" x="1432" y="-436.5" font-family="Helvetica,sans-Serif" font-size="10.00">InstrumentParams</text>
</a>
</g>
</g>
<!-- Node10&#45;&gt;Node11 -->
<g id="edge10_Node000010_Node000011" class="edge">
<title>Node10&#45;&gt;Node11</title>
<g id="a_edge10_Node000010_Node000011"><a xlink:title=" ">
<path fill="none" stroke="#63b8ff" d="M1295.49,-347.78C1297.75,-349.25 1299.93,-350.82 1302,-352.5 1328.53,-374.07 1311.16,-399.31 1338,-420.5 1342.32,-423.91 1347.07,-426.84 1352.07,-429.35"/>
<polygon fill="#63b8ff" stroke="#63b8ff" points="1296.82,-344.52 1286.39,-342.65 1293.38,-350.61 1296.82,-344.52"/>
</a>
</g>
</g>
<!-- Node12 -->
<g id="Node000012" class="node">
<title>Node12</title>
<g id="a_Node000012"><a xlink:href="classDynExpInstr_1_1OutputPortParams.html" target="_top" xlink:title="Parameter class for OutputPort.">
<polygon fill="white" stroke="#666666" points="1517,-411 1347,-411 1347,-392 1517,-392 1517,-411"/>
<text text-anchor="middle" x="1432" y="-399" font-family="Helvetica,sans-Serif" font-size="10.00">DynExpInstr::OutputPortParams</text>
</a>
</g>
</g>
<!-- Node10&#45;&gt;Node12 -->
<g id="edge11_Node000010_Node000012" class="edge">
<title>Node10&#45;&gt;Node12</title>
<g id="a_edge11_Node000010_Node000012"><a xlink:title=" ">
<path fill="none" stroke="#63b8ff" d="M1288.95,-346.28C1293.45,-348.18 1297.84,-350.25 1302,-352.5 1320.57,-362.55 1319,-374.3 1338,-383.5 1345.1,-386.94 1352.81,-389.72 1360.65,-391.98"/>
<polygon fill="#63b8ff" stroke="#63b8ff" points="1290.17,-343 1279.58,-342.62 1287.62,-349.52 1290.17,-343"/>
</a>
</g>
</g>
<!-- Node17 -->
<g id="Node000017" class="node">
<title>Node17</title>
<g id="a_Node000017"><a xlink:href="classDynExpInstr_1_1RS__SMB100BParams.html" target="_top" xlink:title=" ">
<polygon fill="white" stroke="#666666" points="1523,-374 1341,-374 1341,-355 1523,-355 1523,-374"/>
<text text-anchor="middle" x="1432" y="-362" font-family="Helvetica,sans-Serif" font-size="10.00">DynExpInstr::RS_SMB100BParams</text>
</a>
</g>
</g>
<!-- Node10&#45;&gt;Node17 -->
<g id="edge16_Node000010_Node000017" class="edge">
<title>Node10&#45;&gt;Node17</title>
<g id="a_edge16_Node000010_Node000017"><a xlink:title=" ">
<path fill="none" stroke="#63b8ff" d="M1310.78,-343.86C1332.92,-347.66 1355.77,-351.58 1375.53,-354.98"/>
<polygon fill="#63b8ff" stroke="#63b8ff" points="1311.12,-340.37 1300.67,-342.12 1309.93,-347.27 1311.12,-340.37"/>
</a>
</g>
</g>
<!-- Node18 -->
<g id="Node000018" class="node">
<title>Node18</title>
<g id="a_Node000018"><a xlink:href="classDynExpInstr_1_1RS__SMC100AParams.html" target="_top" xlink:title=" ">
<polygon fill="white" stroke="#666666" points="1523,-337 1341,-337 1341,-318 1523,-318 1523,-337"/>
<text text-anchor="middle" x="1432" y="-325" font-family="Helvetica,sans-Serif" font-size="10.00">DynExpInstr::RS_SMC100AParams</text>
</a>
</g>
</g>
<!-- Node10&#45;&gt;Node18 -->
<g id="edge17_Node000010_Node000018" class="edge">
<title>Node10&#45;&gt;Node18</title>
<g id="a_edge17_Node000010_Node000018"><a xlink:title=" ">
<path fill="none" stroke="#63b8ff" d="M1310.94,-327.5C1320.86,-327.5 1330.92,-327.5 1340.78,-327.5"/>
<polygon fill="#63b8ff" stroke="#63b8ff" points="1310.67,-324 1300.67,-327.5 1310.67,-331 1310.67,-324"/>
</a>
</g>
</g>
<!-- Node19 -->
<g id="Node000019" class="node">
<title>Node19</title>
<g id="a_Node000019"><a xlink:href="classDynExpInstr_1_1SwabianInstrumentsPulseStreamerParams.html" target="_top" xlink:title=" ">
<polygon fill="white" stroke="#666666" points="1523,-299.5 1341,-299.5 1341,-269.5 1523,-269.5 1523,-299.5"/>
<text text-anchor="start" x="1349" y="-287.5" font-family="Helvetica,sans-Serif" font-size="10.00">DynExpInstr::SwabianInstruments</text>
<text text-anchor="middle" x="1432" y="-276.5" font-family="Helvetica,sans-Serif" font-size="10.00">PulseStreamerParams</text>
</a>
</g>
</g>
<!-- Node10&#45;&gt;Node19 -->
<g id="edge18_Node000010_Node000019" class="edge">
<title>Node10&#45;&gt;Node19</title>
<g id="a_edge18_Node000010_Node000019"><a xlink:title=" ">
<path fill="none" stroke="#63b8ff" d="M1300.83,-310.47C1318.95,-306.86 1337.96,-303.07 1355.67,-299.53"/>
<polygon fill="#63b8ff" stroke="#63b8ff" points="1299.99,-307.07 1290.87,-312.46 1301.36,-313.94 1299.99,-307.07"/>
</a>
</g>
</g>
<!-- Node13 -->
<g id="Node000013" class="node">
<title>Node13</title>
<g id="a_Node000013"><a xlink:href="classDynExpInstr_1_1AnalogOutParams.html" target="_top" xlink:title="Parameter class for AnalogOut.">
<polygon fill="white" stroke="#666666" points="1731,-432 1562,-432 1562,-413 1731,-413 1731,-432"/>
<text text-anchor="middle" x="1646.5" y="-420" font-family="Helvetica,sans-Serif" font-size="10.00">DynExpInstr::AnalogOutParams</text>
</a>
</g>
</g>
<!-- Node12&#45;&gt;Node13 -->
<g id="edge12_Node000012_Node000013" class="edge">
<title>Node12&#45;&gt;Node13</title>
<g id="a_edge12_Node000012_Node000013"><a xlink:title=" ">
<path fill="none" stroke="#63b8ff" d="M1527.29,-410.82C1538.74,-411.95 1550.38,-413.1 1561.66,-414.21"/>
<polygon fill="#63b8ff" stroke="#63b8ff" points="1527.59,-407.33 1517.29,-409.83 1526.9,-414.3 1527.59,-407.33"/>
</a>
</g>
</g>
<!-- Node15 -->
<g id="Node000015" class="node">
<title>Node15</title>
<g id="a_Node000015"><a xlink:href="classDynExpInstr_1_1DigitalOutParams.html" target="_top" xlink:title="Parameter class for DigitalOut.">
<polygon fill="white" stroke="#666666" points="1730,-390 1563,-390 1563,-371 1730,-371 1730,-390"/>
<text text-anchor="middle" x="1646.5" y="-378" font-family="Helvetica,sans-Serif" font-size="10.00">DynExpInstr::DigitalOutParams</text>
</a>
</g>
</g>
<!-- Node12&#45;&gt;Node15 -->
<g id="edge14_Node000012_Node000015" class="edge">
<title>Node12&#45;&gt;Node15</title>
<g id="a_edge14_Node000012_Node000015"><a xlink:title=" ">
<path fill="none" stroke="#63b8ff" d="M1527.53,-392.16C1539.25,-391 1551.17,-389.82 1562.7,-388.68"/>
<polygon fill="#63b8ff" stroke="#63b8ff" points="1526.9,-388.7 1517.29,-393.17 1527.59,-395.67 1526.9,-388.7"/>
</a>
</g>
</g>
<!-- Node14 -->
<g id="Node000014" class="node">
<title>Node14</title>
<g id="a_Node000014"><a xlink:href="classDynExpInstr_1_1NIDAQAnalogOutParams.html" target="_top" xlink:title=" ">
<polygon fill="white" stroke="#666666" points="1915,-440.5 1767,-440.5 1767,-410.5 1915,-410.5 1915,-440.5"/>
<text text-anchor="start" x="1775" y="-428.5" font-family="Helvetica,sans-Serif" font-size="10.00">DynExpInstr::NIDAQAnalog</text>
<text text-anchor="middle" x="1841" y="-417.5" font-family="Helvetica,sans-Serif" font-size="10.00">OutParams</text>
</a>
</g>
</g>
<!-- Node13&#45;&gt;Node14 -->
<g id="edge13_Node000013_Node000014" class="edge">
<title>Node13&#45;&gt;Node14</title>
<g id="a_edge13_Node000013_Node000014"><a xlink:title=" ">
<path fill="none" stroke="#63b8ff" d="M1741.16,-423.96C1749.75,-424.09 1758.38,-424.23 1766.75,-424.36"/>
<polygon fill="#63b8ff" stroke="#63b8ff" points="1741.15,-420.46 1731.09,-423.8 1741.04,-427.46 1741.15,-420.46"/>
</a>
</g>
</g>
<!-- Node16 -->
<g id="Node000016" class="node">
<title>Node16</title>
<g id="a_Node000016"><a xlink:href="classDynExpInstr_1_1NIDAQDigitalOutParams.html" target="_top" xlink:title=" ">
<polygon fill="white" stroke="#666666" points="1914,-392.5 1768,-392.5 1768,-362.5 1914,-362.5 1914,-392.5"/>
<text text-anchor="start" x="1776" y="-380.5" font-family="Helvetica,sans-Serif" font-size="10.00">DynExpInstr::NIDAQDigital</text>
<text text-anchor="middle" x="1841" y="-369.5" font-family="Helvetica,sans-Serif" font-size="10.00">OutParams</text>
</a>
</g>
</g>
<!-- Node15&#45;&gt;Node16 -->
<g id="edge15_Node000015_Node000016" class="edge">
<title>Node15&#45;&gt;Node16</title>
<g id="a_edge15_Node000015_Node000016"><a xlink:title=" ">
<path fill="none" stroke="#63b8ff" d="M1740.29,-379.05C1749.57,-378.91 1758.9,-378.76 1767.92,-378.62"/>
<polygon fill="#63b8ff" stroke="#63b8ff" points="1740.2,-375.55 1730.25,-379.21 1740.31,-382.55 1740.2,-375.55"/>
</a>
</g>
</g>
<!-- Node21 -->
<g id="Node000021" class="node">
<title>Node21</title>
<g id="a_Node000021"><a xlink:href="classDynExpInstr_1_1AnalogInParams.html" target="_top" xlink:title="Parameter class for AnalogIn.">
<polygon fill="white" stroke="#666666" points="1512.5,-251 1351.5,-251 1351.5,-232 1512.5,-232 1512.5,-251"/>
<text text-anchor="middle" x="1432" y="-239" font-family="Helvetica,sans-Serif" font-size="10.00">DynExpInstr::AnalogInParams</text>
</a>
</g>
</g>
<!-- Node20&#45;&gt;Node21 -->
<g id="edge20_Node000020_Node000021" class="edge">
<title>Node20&#45;&gt;Node21</title>
<g id="a_edge20_Node000020_Node000021"><a xlink:title=" ">
<path fill="none" stroke="#63b8ff" d="M1306.08,-234.54C1321.13,-235.38 1336.65,-236.25 1351.41,-237.07"/>
<polygon fill="#63b8ff" stroke="#63b8ff" points="1305.92,-231.03 1295.74,-233.97 1305.53,-238.02 1305.92,-231.03"/>
</a>
</g>
</g>
<!-- Node23 -->
<g id="Node000023" class="node">
<title>Node23</title>
<g id="a_Node000023"><a xlink:href="classDynExpInstr_1_1DigitalInParams.html" target="_top" xlink:title="Parameter class for DigitalIn.">
<polygon fill="white" stroke="#666666" points="1511.5,-214 1352.5,-214 1352.5,-195 1511.5,-195 1511.5,-214"/>
<text text-anchor="middle" x="1432" y="-202" font-family="Helvetica,sans-Serif" font-size="10.00">DynExpInstr::DigitalInParams</text>
</a>
</g>
</g>
<!-- Node20&#45;&gt;Node23 -->
<g id="edge22_Node000020_Node000023" class="edge">
<title>Node20&#45;&gt;Node23</title>
<g id="a_edge22_Node000020_Node000023"><a xlink:title=" ">
<path fill="none" stroke="#63b8ff" d="M1305.84,-219.02C1321.34,-217.22 1337.33,-215.37 1352.48,-213.61"/>
<polygon fill="#63b8ff" stroke="#63b8ff" points="1305.27,-215.56 1295.74,-220.19 1306.08,-222.52 1305.27,-215.56"/>
</a>
</g>
</g>
<!-- Node22 -->
<g id="Node000022" class="node">
<title>Node22</title>
<g id="a_Node000022"><a xlink:href="classDynExpInstr_1_1NIDAQAnalogInParams.html" target="_top" xlink:title=" ">
<polygon fill="white" stroke="#666666" points="1720.5,-261.5 1572.5,-261.5 1572.5,-231.5 1720.5,-231.5 1720.5,-261.5"/>
<text text-anchor="start" x="1580.5" y="-249.5" font-family="Helvetica,sans-Serif" font-size="10.00">DynExpInstr::NIDAQAnalog</text>
<text text-anchor="middle" x="1646.5" y="-238.5" font-family="Helvetica,sans-Serif" font-size="10.00">InParams</text>
</a>
</g>
</g>
<!-- Node21&#45;&gt;Node22 -->
<g id="edge21_Node000021_Node000022" class="edge">
<title>Node21&#45;&gt;Node22</title>
<g id="a_edge21_Node000021_Node000022"><a xlink:title=" ">
<path fill="none" stroke="#63b8ff" d="M1522.91,-243.62C1539.39,-244 1556.41,-244.4 1572.33,-244.78"/>
<polygon fill="#63b8ff" stroke="#63b8ff" points="1522.81,-240.11 1512.73,-243.38 1522.65,-247.11 1522.81,-240.11"/>
</a>
</g>
</g>
<!-- Node24 -->
<g id="Node000024" class="node">
<title>Node24</title>
<g id="a_Node000024"><a xlink:href="classDynExpInstr_1_1NIDAQDigitalInParams.html" target="_top" xlink:title=" ">
<polygon fill="white" stroke="#666666" points="1719.5,-213.5 1573.5,-213.5 1573.5,-183.5 1719.5,-183.5 1719.5,-213.5"/>
<text text-anchor="start" x="1581.5" y="-201.5" font-family="Helvetica,sans-Serif" font-size="10.00">DynExpInstr::NIDAQDigital</text>
<text text-anchor="middle" x="1646.5" y="-190.5" font-family="Helvetica,sans-Serif" font-size="10.00">InParams</text>
</a>
</g>
</g>
<!-- Node23&#45;&gt;Node24 -->
<g id="edge23_Node000023_Node000024" class="edge">
<title>Node23&#45;&gt;Node24</title>
<g id="a_edge23_Node000023_Node000024"><a xlink:title=" ">
<path fill="none" stroke="#63b8ff" d="M1521.58,-202C1538.8,-201.51 1556.66,-201.01 1573.28,-200.54"/>
<polygon fill="#63b8ff" stroke="#63b8ff" points="1521.42,-198.5 1511.52,-202.28 1521.62,-205.5 1521.42,-198.5"/>
</a>
</g>
</g>
<!-- Node26 -->
<g id="Node000026" class="node">
<title>Node26</title>
<g id="a_Node000026"><a xlink:href="classDynExpInstr_1_1ZI__MFLIParams.html" target="_top" xlink:title=" ">
<polygon fill="white" stroke="#666666" points="1510,-177 1354,-177 1354,-158 1510,-158 1510,-177"/>
<text text-anchor="middle" x="1432" y="-165" font-family="Helvetica,sans-Serif" font-size="10.00">DynExpInstr::ZI_MFLIParams</text>
</a>
</g>
</g>
<!-- Node25&#45;&gt;Node26 -->
<g id="edge25_Node000025_Node000026" class="edge">
<title>Node25&#45;&gt;Node26</title>
<g id="a_edge25_Node000025_Node000026"><a xlink:title=" ">
<path fill="none" stroke="#63b8ff" d="M1303.84,-178.71C1320.43,-177.25 1337.66,-175.73 1353.88,-174.3"/>
<polygon fill="#63b8ff" stroke="#63b8ff" points="1303.26,-175.25 1293.61,-179.61 1303.87,-182.22 1303.26,-175.25"/>
</a>
</g>
</g>
<!-- Node28 -->
<g id="Node000028" class="node">
<title>Node28</title>
<g id="a_Node000028"><a xlink:href="classDynExpInstr_1_1QutoolsQuTAGParams.html" target="_top" xlink:title=" ">
<polygon fill="white" stroke="#666666" points="1526,-140 1338,-140 1338,-121 1526,-121 1526,-140"/>
<text text-anchor="middle" x="1432" y="-128" font-family="Helvetica,sans-Serif" font-size="10.00">DynExpInstr::QutoolsQuTAGParams</text>
</a>
</g>
</g>
<!-- Node27&#45;&gt;Node28 -->
<g id="edge27_Node000027_Node000028" class="edge">
<title>Node27&#45;&gt;Node28</title>
<g id="a_edge27_Node000027_Node000028"><a xlink:title=" ">
<path fill="none" stroke="#63b8ff" d="M1312.44,-137.65C1320.86,-137.14 1329.37,-136.63 1337.76,-136.12"/>
<polygon fill="#63b8ff" stroke="#63b8ff" points="1311.99,-134.17 1302.22,-138.27 1312.41,-141.16 1311.99,-134.17"/>
</a>
</g>
</g>
<!-- Node31 -->
<g id="Node000031" class="node">
<title>Node31</title>
<g id="a_Node000031"><a xlink:href="classDynExpInstr_1_1NenionLeakvalveF3Params.html" target="_top" xlink:title=" ">
<polygon fill="white" stroke="#666666" points="1298,-115.5 1131,-115.5 1131,-85.5 1298,-85.5 1298,-115.5"/>
<text text-anchor="start" x="1139" y="-103.5" font-family="Helvetica,sans-Serif" font-size="10.00">DynExpInstr::NenionLeakvalve</text>
<text text-anchor="middle" x="1214.5" y="-92.5" font-family="Helvetica,sans-Serif" font-size="10.00">F3Params</text>
</a>
</g>
</g>
<!-- Node30&#45;&gt;Node31 -->
<g id="edge30_Node000030_Node000031" class="edge">
<title>Node30&#45;&gt;Node31</title>
<g id="a_edge30_Node000030_Node000031"><a xlink:title=" ">
<path fill="none" stroke="#63b8ff" d="M1083.48,-97.52C1099.17,-97.88 1115.46,-98.26 1130.98,-98.61"/>
<polygon fill="#63b8ff" stroke="#63b8ff" points="1083.34,-94.02 1073.27,-97.29 1083.18,-101.02 1083.34,-94.02"/>
</a>
</g>
</g>
<!-- Node32 -->
<g id="Node000032" class="node">
<title>Node32</title>
<g id="a_Node000032"><a xlink:href="classDynExpInstr_1_1PI__C__862__Params.html" target="_top" xlink:title=" ">
<polygon fill="white" stroke="#666666" points="1277.5,-67.5 1151.5,-67.5 1151.5,-37.5 1277.5,-37.5 1277.5,-67.5"/>
<text text-anchor="start" x="1159.5" y="-55.5" font-family="Helvetica,sans-Serif" font-size="10.00">DynExpInstr::PI_C_862</text>
<text text-anchor="middle" x="1214.5" y="-44.5" font-family="Helvetica,sans-Serif" font-size="10.00">_Params</text>
</a>
</g>
</g>
<!-- Node30&#45;&gt;Node32 -->
<g id="edge31_Node000030_Node000032" class="edge">
<title>Node30&#45;&gt;Node32</title>
<g id="a_edge31_Node000030_Node000032"><a xlink:title=" ">
<path fill="none" stroke="#63b8ff" d="M1081.32,-78.51C1104.66,-73.92 1129.46,-69.04 1151.2,-64.76"/>
<polygon fill="#63b8ff" stroke="#63b8ff" points="1080.56,-75.1 1071.42,-80.46 1081.91,-81.96 1080.56,-75.1"/>
</a>
</g>
</g>
<!-- Node33 -->
<g id="Node000033" class="node">
<title>Node33</title>
<g id="a_Node000033"><a xlink:href="classDynExpInstr_1_1SmarActParams.html" target="_top" xlink:title=" ">
<polygon fill="white" stroke="#666666" points="1294,-19 1135,-19 1135,0 1294,0 1294,-19"/>
<text text-anchor="middle" x="1214.5" y="-7" font-family="Helvetica,sans-Serif" font-size="10.00">DynExpInstr::SmarActParams</text>
</a>
</g>
</g>
<!-- Node30&#45;&gt;Node33 -->
<g id="edge32_Node000030_Node000033" class="edge">
<title>Node30&#45;&gt;Node33</title>
<g id="a_edge32_Node000030_Node000033"><a xlink:title=" ">
<path fill="none" stroke="#63b8ff" d="M1082.38,-76.33C1085.35,-74.84 1088.23,-73.23 1091,-71.5 1112.13,-58.27 1105.69,-41.42 1127,-28.5 1133.44,-24.59 1140.59,-21.49 1147.93,-19.02"/>
<polygon fill="#63b8ff" stroke="#63b8ff" points="1080.91,-73.15 1073.24,-80.47 1083.8,-79.53 1080.91,-73.15"/>
</a>
</g>
</g>
</g>
</svg>
