<?xml version="1.0" encoding="UTF-8" standalone="no"?>
<!DOCTYPE svg PUBLIC "-//W3C//DTD SVG 1.1//EN"
 "http://www.w3.org/Graphics/SVG/1.1/DTD/svg11.dtd">
<!-- Generated by graphviz version 2.43.0 (0)
 -->
<!-- Title: DynExp::LinkedObjectWrapperContainerBase Pages: 1 -->
<svg width="576pt" height="1360pt"
 viewBox="0.00 0.00 576.00 1359.50" xmlns="http://www.w3.org/2000/svg" xmlns:xlink="http://www.w3.org/1999/xlink">
<g id="graph0" class="graph" transform="scale(1 1) rotate(0) translate(4 1355.5)">
<title>DynExp::LinkedObjectWrapperContainerBase</title>
<polygon fill="white" stroke="transparent" points="-4,4 -4,-1355.5 572,-1355.5 572,4 -4,4"/>
<!-- Node1 -->
<g id="node1" class="node">
<title>Node1</title>
<g id="a_node1"><a xlink:title="Polymorphic base class to allow storing LinkedObjectWrapperContainer of any type in a single list.">
<polygon fill="#bfbfbf" stroke="black" points="144,-655.5 144,-685.5 308,-685.5 308,-655.5 144,-655.5"/>
<text text-anchor="start" x="152" y="-673.5" font-family="Helvetica,sans-Serif" font-size="10.00">DynExp::LinkedObjectWrapper</text>
<text text-anchor="middle" x="226" y="-662.5" font-family="Helvetica,sans-Serif" font-size="10.00">ContainerBase</text>
</a>
</g>
</g>
<!-- Node3 -->
<g id="node3" class="node">
<title>Node3</title>
<g id="a_node3"><a xlink:href="classDynExp_1_1LinkedObjectWrapperContainer.html" target="_top" xlink:title=" ">
<polygon fill="white" stroke="black" points="374,-1310 374,-1351 538,-1351 538,-1310 374,-1310"/>
<text text-anchor="start" x="382" y="-1339" font-family="Helvetica,sans-Serif" font-size="10.00">DynExp::LinkedObjectWrapper</text>
<text text-anchor="start" x="382" y="-1328" font-family="Helvetica,sans-Serif" font-size="10.00">Container&lt; DynExpHardware</text>
<text text-anchor="middle" x="456" y="-1317" font-family="Helvetica,sans-Serif" font-size="10.00">::SmarActHardwareAdapter &gt;</text>
</a>
</g>
</g>
<!-- Node1&#45;&gt;Node3 -->
<g id="edge2" class="edge">
<title>Node1&#45;&gt;Node3</title>
<path fill="none" stroke="midnightblue" d="M228.2,-695.88C233.74,-802.12 260.21,-1209.69 344,-1300.5 352.19,-1309.38 362.71,-1315.73 374,-1320.26"/>
<polygon fill="midnightblue" stroke="midnightblue" points="231.69,-695.58 227.69,-685.77 224.7,-695.93 231.69,-695.58"/>
</g>
<!-- Node4 -->
<g id="node4" class="node">
<title>Node4</title>
<g id="a_node4"><a xlink:href="classDynExp_1_1LinkedObjectWrapperContainer.html" target="_top" xlink:title=" ">
<polygon fill="white" stroke="black" points="374,-1250 374,-1291 538,-1291 538,-1250 374,-1250"/>
<text text-anchor="start" x="382" y="-1279" font-family="Helvetica,sans-Serif" font-size="10.00">DynExp::LinkedObjectWrapper</text>
<text text-anchor="start" x="382" y="-1268" font-family="Helvetica,sans-Serif" font-size="10.00">Container&lt; DynExpInstr::</text>
<text text-anchor="middle" x="456" y="-1257" font-family="Helvetica,sans-Serif" font-size="10.00">DigitalOut &gt;</text>
</a>
</g>
</g>
<!-- Node1&#45;&gt;Node4 -->
<g id="edge3" class="edge">
<title>Node1&#45;&gt;Node4</title>
<path fill="none" stroke="midnightblue" d="M228.73,-695.68C236.04,-795.17 267.71,-1159.37 344,-1240.5 352.2,-1249.23 362.66,-1255.51 373.86,-1260.02"/>
<polygon fill="midnightblue" stroke="midnightblue" points="232.21,-695.36 228,-685.64 225.23,-695.86 232.21,-695.36"/>
</g>
<!-- Node5 -->
<g id="node5" class="node">
<title>Node5</title>
<g id="a_node5"><a xlink:href="classDynExp_1_1LinkedObjectWrapperContainer.html" target="_top" xlink:title=" ">
<polygon fill="white" stroke="black" points="374,-1190 374,-1231 538,-1231 538,-1190 374,-1190"/>
<text text-anchor="start" x="382" y="-1219" font-family="Helvetica,sans-Serif" font-size="10.00">DynExp::LinkedObjectWrapper</text>
<text text-anchor="start" x="382" y="-1208" font-family="Helvetica,sans-Serif" font-size="10.00">Container&lt; DynExpInstr::</text>
<text text-anchor="middle" x="456" y="-1197" font-family="Helvetica,sans-Serif" font-size="10.00">LockinAmplifier &gt;</text>
</a>
</g>
</g>
<!-- Node1&#45;&gt;Node5 -->
<g id="edge4" class="edge">
<title>Node1&#45;&gt;Node5</title>
<path fill="none" stroke="midnightblue" d="M229.38,-695.68C238.65,-788.39 275.23,-1109.03 344,-1180.5 352.24,-1189.06 362.64,-1195.26 373.76,-1199.74"/>
<polygon fill="midnightblue" stroke="midnightblue" points="232.85,-695.15 228.39,-685.54 225.88,-695.83 232.85,-695.15"/>
</g>
<!-- Node6 -->
<g id="node6" class="node">
<title>Node6</title>
<g id="a_node6"><a xlink:href="classDynExp_1_1LinkedObjectWrapperContainer.html" target="_top" xlink:title=" ">
<polygon fill="white" stroke="black" points="374,-1130 374,-1171 538,-1171 538,-1130 374,-1130"/>
<text text-anchor="start" x="382" y="-1159" font-family="Helvetica,sans-Serif" font-size="10.00">DynExp::LinkedObjectWrapper</text>
<text text-anchor="start" x="382" y="-1148" font-family="Helvetica,sans-Serif" font-size="10.00">Container&lt; DynExpInstr::</text>
<text text-anchor="middle" x="456" y="-1137" font-family="Helvetica,sans-Serif" font-size="10.00">Camera &gt;</text>
</a>
</g>
</g>
<!-- Node1&#45;&gt;Node6 -->
<g id="edge5" class="edge">
<title>Node1&#45;&gt;Node6</title>
<path fill="none" stroke="midnightblue" d="M230.25,-696.02C241.71,-781.93 282.78,-1058.69 344,-1120.5 352.36,-1128.94 362.83,-1135.08 373.97,-1139.52"/>
<polygon fill="midnightblue" stroke="midnightblue" points="233.69,-695.32 228.92,-685.86 226.75,-696.23 233.69,-695.32"/>
</g>
<!-- Node7 -->
<g id="node7" class="node">
<title>Node7</title>
<g id="a_node7"><a xlink:href="classDynExp_1_1LinkedObjectWrapperContainer.html" target="_top" xlink:title=" ">
<polygon fill="white" stroke="black" points="374,-1070 374,-1111 538,-1111 538,-1070 374,-1070"/>
<text text-anchor="start" x="382" y="-1099" font-family="Helvetica,sans-Serif" font-size="10.00">DynExp::LinkedObjectWrapper</text>
<text text-anchor="start" x="382" y="-1088" font-family="Helvetica,sans-Serif" font-size="10.00">Container&lt; DynExpHardware</text>
<text text-anchor="middle" x="456" y="-1077" font-family="Helvetica,sans-Serif" font-size="10.00">::NIDAQHardwareAdapter &gt;</text>
</a>
</g>
</g>
<!-- Node1&#45;&gt;Node7 -->
<g id="edge6" class="edge">
<title>Node1&#45;&gt;Node7</title>
<path fill="none" stroke="midnightblue" d="M226.69,-696.23C227.3,-765.61 238.89,-958.24 344,-1060.5 352.44,-1068.71 362.89,-1074.73 373.97,-1079.14"/>
<polygon fill="midnightblue" stroke="midnightblue" points="230.19,-695.82 226.67,-685.82 223.19,-695.83 230.19,-695.82"/>
</g>
<!-- Node8 -->
<g id="node8" class="node">
<title>Node8</title>
<g id="a_node8"><a xlink:href="classDynExp_1_1LinkedObjectWrapperContainer.html" target="_top" xlink:title=" ">
<polygon fill="white" stroke="black" points="374,-1010 374,-1051 538,-1051 538,-1010 374,-1010"/>
<text text-anchor="start" x="382" y="-1039" font-family="Helvetica,sans-Serif" font-size="10.00">DynExp::LinkedObjectWrapper</text>
<text text-anchor="start" x="382" y="-1028" font-family="Helvetica,sans-Serif" font-size="10.00">Container&lt; DynExpInstr::</text>
<text text-anchor="middle" x="456" y="-1017" font-family="Helvetica,sans-Serif" font-size="10.00">AnalogIn &gt;</text>
</a>
</g>
</g>
<!-- Node1&#45;&gt;Node8 -->
<g id="edge7" class="edge">
<title>Node1&#45;&gt;Node8</title>
<path fill="none" stroke="midnightblue" d="M228.27,-695.6C232.79,-757.08 253.12,-916.34 344,-1000.5 352.5,-1008.37 362.84,-1014.21 373.76,-1018.54"/>
<polygon fill="midnightblue" stroke="midnightblue" points="231.77,-695.37 227.62,-685.62 224.78,-695.83 231.77,-695.37"/>
</g>
<!-- Node9 -->
<g id="node9" class="node">
<title>Node9</title>
<g id="a_node9"><a xlink:href="classDynExp_1_1LinkedObjectWrapperContainer.html" target="_top" xlink:title=" ">
<polygon fill="white" stroke="black" points="374,-950 374,-991 538,-991 538,-950 374,-950"/>
<text text-anchor="start" x="382" y="-979" font-family="Helvetica,sans-Serif" font-size="10.00">DynExp::LinkedObjectWrapper</text>
<text text-anchor="start" x="382" y="-968" font-family="Helvetica,sans-Serif" font-size="10.00">Container&lt; DynExpInstr::</text>
<text text-anchor="middle" x="456" y="-957" font-family="Helvetica,sans-Serif" font-size="10.00">AnalogOut &gt;</text>
</a>
</g>
</g>
<!-- Node1&#45;&gt;Node9 -->
<g id="edge8" class="edge">
<title>Node1&#45;&gt;Node9</title>
<path fill="none" stroke="midnightblue" d="M230.53,-695.72C239.38,-749.17 267.53,-874.39 344,-940.5 352.68,-948.01 363.06,-953.66 373.95,-957.9"/>
<polygon fill="midnightblue" stroke="midnightblue" points="233.97,-695.07 228.97,-685.73 227.06,-696.15 233.97,-695.07"/>
</g>
<!-- Node10 -->
<g id="node10" class="node">
<title>Node10</title>
<g id="a_node10"><a xlink:href="classDynExp_1_1LinkedObjectWrapperContainer.html" target="_top" xlink:title=" ">
<polygon fill="white" stroke="black" points="356,-890 356,-931 556,-931 556,-890 356,-890"/>
<text text-anchor="start" x="364" y="-919" font-family="Helvetica,sans-Serif" font-size="10.00">DynExp::LinkedObjectWrapper</text>
<text text-anchor="start" x="364" y="-908" font-family="Helvetica,sans-Serif" font-size="10.00">Container&lt; DynExpHardware</text>
<text text-anchor="middle" x="456" y="-897" font-family="Helvetica,sans-Serif" font-size="10.00">::SIPulseStreamerHardwareAdapter &gt;</text>
</a>
</g>
</g>
<!-- Node1&#45;&gt;Node10 -->
<g id="edge9" class="edge">
<title>Node1&#45;&gt;Node10</title>
<path fill="none" stroke="midnightblue" d="M233.81,-695.27C247.24,-739.41 281.43,-831.62 344,-880.5 348.56,-884.06 353.51,-887.21 358.71,-889.97"/>
<polygon fill="midnightblue" stroke="midnightblue" points="237.15,-694.23 230.97,-685.63 230.44,-696.21 237.15,-694.23"/>
</g>
<!-- Node11 -->
<g id="node11" class="node">
<title>Node11</title>
<g id="a_node11"><a xlink:href="classDynExp_1_1LinkedObjectWrapperContainer.html" target="_top" xlink:title=" ">
<polygon fill="white" stroke="black" points="344,-830 344,-871 568,-871 568,-830 344,-830"/>
<text text-anchor="start" x="352" y="-859" font-family="Helvetica,sans-Serif" font-size="10.00">DynExp::LinkedObjectWrapper</text>
<text text-anchor="start" x="352" y="-848" font-family="Helvetica,sans-Serif" font-size="10.00">Container&lt; DynExp::SerialCommunication</text>
<text text-anchor="middle" x="456" y="-837" font-family="Helvetica,sans-Serif" font-size="10.00">HardwareAdapter &gt;</text>
</a>
</g>
</g>
<!-- Node1&#45;&gt;Node11 -->
<g id="edge10" class="edge">
<title>Node1&#45;&gt;Node11</title>
<path fill="none" stroke="midnightblue" d="M239.49,-695.03C257.81,-728.51 295.17,-788.08 344,-820.5 349.32,-824.03 355.05,-827.15 360.99,-829.91"/>
<polygon fill="midnightblue" stroke="midnightblue" points="242.42,-693.09 234.62,-685.92 236.25,-696.39 242.42,-693.09"/>
</g>
<!-- Node12 -->
<g id="node12" class="node">
<title>Node12</title>
<g id="a_node12"><a xlink:href="classDynExp_1_1LinkedObjectWrapperContainer.html" target="_top" xlink:title=" ">
<polygon fill="white" stroke="black" points="374,-770 374,-811 538,-811 538,-770 374,-770"/>
<text text-anchor="start" x="382" y="-799" font-family="Helvetica,sans-Serif" font-size="10.00">DynExp::LinkedObjectWrapper</text>
<text text-anchor="start" x="382" y="-788" font-family="Helvetica,sans-Serif" font-size="10.00">Container&lt; DynExpInstr::</text>
<text text-anchor="middle" x="456" y="-777" font-family="Helvetica,sans-Serif" font-size="10.00">TimeTagger &gt;</text>
</a>
</g>
</g>
<!-- Node1&#45;&gt;Node12 -->
<g id="edge11" class="edge">
<title>Node1&#45;&gt;Node12</title>
<path fill="none" stroke="midnightblue" d="M249.89,-692.56C272.22,-712.93 308,-742.67 344,-760.5 353.39,-765.15 363.6,-769.16 373.89,-772.58"/>
<polygon fill="midnightblue" stroke="midnightblue" points="252.01,-689.74 242.29,-685.51 247.25,-694.88 252.01,-689.74"/>
</g>
<!-- Node13 -->
<g id="node13" class="node">
<title>Node13</title>
<g id="a_node13"><a xlink:href="classDynExp_1_1LinkedObjectWrapperContainer.html" target="_top" xlink:title=" ">
<polygon fill="white" stroke="black" points="374,-710 374,-751 538,-751 538,-710 374,-710"/>
<text text-anchor="start" x="382" y="-739" font-family="Helvetica,sans-Serif" font-size="10.00">DynExp::LinkedObjectWrapper</text>
<text text-anchor="start" x="382" y="-728" font-family="Helvetica,sans-Serif" font-size="10.00">Container&lt; DynExpInstr::</text>
<text text-anchor="middle" x="456" y="-717" font-family="Helvetica,sans-Serif" font-size="10.00">InterModuleCommunicator &gt;</text>
</a>
</g>
</g>
<!-- Node1&#45;&gt;Node13 -->
<g id="edge12" class="edge">
<title>Node1&#45;&gt;Node13</title>
<path fill="none" stroke="midnightblue" d="M294.01,-688.13C320.05,-694.99 350.06,-702.88 377.06,-709.99"/>
<polygon fill="midnightblue" stroke="midnightblue" points="294.8,-684.72 284.24,-685.56 293.02,-691.49 294.8,-684.72"/>
</g>
<!-- Node14 -->
<g id="node14" class="node">
<title>Node14</title>
<g id="a_node14"><a xlink:href="classDynExp_1_1LinkedObjectWrapperContainer.html" target="_top" xlink:title=" ">
<polygon fill="white" stroke="black" points="373,-650 373,-691 539,-691 539,-650 373,-650"/>
<text text-anchor="start" x="381" y="-679" font-family="Helvetica,sans-Serif" font-size="10.00">DynExp::LinkedObjectWrapper</text>
<text text-anchor="start" x="381" y="-668" font-family="Helvetica,sans-Serif" font-size="10.00">Container&lt; DynExpHardware</text>
<text text-anchor="middle" x="456" y="-657" font-family="Helvetica,sans-Serif" font-size="10.00">::ZILabOneHardwareAdapter &gt;</text>
</a>
</g>
</g>
<!-- Node1&#45;&gt;Node14 -->
<g id="edge13" class="edge">
<title>Node1&#45;&gt;Node14</title>
<path fill="none" stroke="midnightblue" d="M318.22,-670.5C336.22,-670.5 355.01,-670.5 372.7,-670.5"/>
<polygon fill="midnightblue" stroke="midnightblue" points="318.03,-667 308.03,-670.5 318.03,-674 318.03,-667"/>
</g>
<!-- Node15 -->
<g id="node15" class="node">
<title>Node15</title>
<g id="a_node15"><a xlink:href="classDynExp_1_1LinkedObjectWrapperContainer.html" target="_top" xlink:title=" ">
<polygon fill="white" stroke="black" points="374,-590 374,-631 538,-631 538,-590 374,-590"/>
<text text-anchor="start" x="382" y="-619" font-family="Helvetica,sans-Serif" font-size="10.00">DynExp::LinkedObjectWrapper</text>
<text text-anchor="start" x="382" y="-608" font-family="Helvetica,sans-Serif" font-size="10.00">Container&lt; DynExpInstr::</text>
<text text-anchor="middle" x="456" y="-597" font-family="Helvetica,sans-Serif" font-size="10.00">InputPort &gt;</text>
</a>
</g>
</g>
<!-- Node1&#45;&gt;Node15 -->
<g id="edge14" class="edge">
<title>Node1&#45;&gt;Node15</title>
<path fill="none" stroke="midnightblue" d="M294.01,-652.87C320.05,-646.01 350.06,-638.12 377.06,-631.01"/>
<polygon fill="midnightblue" stroke="midnightblue" points="293.02,-649.51 284.24,-655.44 294.8,-656.28 293.02,-649.51"/>
</g>
<!-- Node16 -->
<g id="node16" class="node">
<title>Node16</title>
<g id="a_node16"><a xlink:href="classDynExp_1_1LinkedObjectWrapperContainer.html" target="_top" xlink:title=" ">
<polygon fill="white" stroke="black" points="374,-530 374,-571 538,-571 538,-530 374,-530"/>
<text text-anchor="start" x="382" y="-559" font-family="Helvetica,sans-Serif" font-size="10.00">DynExp::LinkedObjectWrapper</text>
<text text-anchor="start" x="382" y="-548" font-family="Helvetica,sans-Serif" font-size="10.00">Container&lt; DynExpInstr::</text>
<text text-anchor="middle" x="456" y="-537" font-family="Helvetica,sans-Serif" font-size="10.00">OutputPort &gt;</text>
</a>
</g>
</g>
<!-- Node1&#45;&gt;Node16 -->
<g id="edge15" class="edge">
<title>Node1&#45;&gt;Node16</title>
<path fill="none" stroke="midnightblue" d="M249.89,-648.44C272.22,-628.07 308,-598.33 344,-580.5 353.39,-575.85 363.6,-571.84 373.89,-568.42"/>
<polygon fill="midnightblue" stroke="midnightblue" points="247.25,-646.12 242.29,-655.49 252.01,-651.26 247.25,-646.12"/>
</g>
<!-- Node17 -->
<g id="node17" class="node">
<title>Node17</title>
<g id="a_node17"><a xlink:href="classDynExp_1_1LinkedObjectWrapperContainer.html" target="_top" xlink:title=" ">
<polygon fill="white" stroke="black" points="374,-470 374,-511 538,-511 538,-470 374,-470"/>
<text text-anchor="start" x="382" y="-499" font-family="Helvetica,sans-Serif" font-size="10.00">DynExp::LinkedObjectWrapper</text>
<text text-anchor="start" x="382" y="-488" font-family="Helvetica,sans-Serif" font-size="10.00">Container&lt; DynExpInstr::</text>
<text text-anchor="middle" x="456" y="-477" font-family="Helvetica,sans-Serif" font-size="10.00">Spectrometer &gt;</text>
</a>
</g>
</g>
<!-- Node1&#45;&gt;Node17 -->
<g id="edge16" class="edge">
<title>Node1&#45;&gt;Node17</title>
<path fill="none" stroke="midnightblue" d="M239.49,-645.97C257.81,-612.49 295.17,-552.92 344,-520.5 353.06,-514.48 363.3,-509.67 373.8,-505.81"/>
<polygon fill="midnightblue" stroke="midnightblue" points="236.25,-644.61 234.62,-655.08 242.42,-647.91 236.25,-644.61"/>
</g>
<!-- Node18 -->
<g id="node18" class="node">
<title>Node18</title>
<g id="a_node18"><a xlink:href="classDynExp_1_1LinkedObjectWrapperContainer.html" target="_top" xlink:title=" ">
<polygon fill="white" stroke="black" points="374,-410 374,-451 538,-451 538,-410 374,-410"/>
<text text-anchor="start" x="382" y="-439" font-family="Helvetica,sans-Serif" font-size="10.00">DynExp::LinkedObjectWrapper</text>
<text text-anchor="start" x="382" y="-428" font-family="Helvetica,sans-Serif" font-size="10.00">Container&lt; DynExpInstr::</text>
<text text-anchor="middle" x="456" y="-417" font-family="Helvetica,sans-Serif" font-size="10.00">DataStreamInstrument &gt;</text>
</a>
</g>
</g>
<!-- Node1&#45;&gt;Node18 -->
<g id="edge17" class="edge">
<title>Node1&#45;&gt;Node18</title>
<path fill="none" stroke="midnightblue" d="M233.81,-645.73C247.24,-601.59 281.43,-509.38 344,-460.5 352.81,-453.62 363.08,-448.31 373.74,-444.22"/>
<polygon fill="midnightblue" stroke="midnightblue" points="230.44,-644.79 230.97,-655.37 237.15,-646.77 230.44,-644.79"/>
</g>
<!-- Node19 -->
<g id="node19" class="node">
<title>Node19</title>
<g id="a_node19"><a xlink:href="classDynExp_1_1LinkedObjectWrapperContainer.html" target="_top" xlink:title=" ">
<polygon fill="white" stroke="black" points="374,-350 374,-391 538,-391 538,-350 374,-350"/>
<text text-anchor="start" x="382" y="-379" font-family="Helvetica,sans-Serif" font-size="10.00">DynExp::LinkedObjectWrapper</text>
<text text-anchor="start" x="382" y="-368" font-family="Helvetica,sans-Serif" font-size="10.00">Container&lt; DynExpInstr::</text>
<text text-anchor="middle" x="456" y="-357" font-family="Helvetica,sans-Serif" font-size="10.00">WidefieldLocalization &gt;</text>
</a>
</g>
</g>
<!-- Node1&#45;&gt;Node19 -->
<g id="edge18" class="edge">
<title>Node1&#45;&gt;Node19</title>
<path fill="none" stroke="midnightblue" d="M230.53,-645.28C239.38,-591.83 267.53,-466.61 344,-400.5 352.68,-392.99 363.06,-387.34 373.95,-383.1"/>
<polygon fill="midnightblue" stroke="midnightblue" points="227.06,-644.85 228.97,-655.27 233.97,-645.93 227.06,-644.85"/>
</g>
<!-- Node20 -->
<g id="node20" class="node">
<title>Node20</title>
<g id="a_node20"><a xlink:href="classDynExp_1_1LinkedObjectWrapperContainer.html" target="_top" xlink:title=" ">
<polygon fill="white" stroke="black" points="374,-290 374,-331 538,-331 538,-290 374,-290"/>
<text text-anchor="start" x="382" y="-319" font-family="Helvetica,sans-Serif" font-size="10.00">DynExp::LinkedObjectWrapper</text>
<text text-anchor="start" x="382" y="-308" font-family="Helvetica,sans-Serif" font-size="10.00">Container&lt; DynExpInstr::</text>
<text text-anchor="middle" x="456" y="-297" font-family="Helvetica,sans-Serif" font-size="10.00">FunctionGenerator &gt;</text>
</a>
</g>
</g>
<!-- Node1&#45;&gt;Node20 -->
<g id="edge19" class="edge">
<title>Node1&#45;&gt;Node20</title>
<path fill="none" stroke="midnightblue" d="M228.27,-645.4C232.79,-583.92 253.12,-424.66 344,-340.5 352.5,-332.63 362.84,-326.79 373.76,-322.46"/>
<polygon fill="midnightblue" stroke="midnightblue" points="224.78,-645.17 227.62,-655.38 231.77,-645.63 224.78,-645.17"/>
</g>
<!-- Node21 -->
<g id="node21" class="node">
<title>Node21</title>
<g id="a_node21"><a xlink:href="classDynExp_1_1LinkedObjectWrapperContainer.html" target="_top" xlink:title=" ">
<polygon fill="white" stroke="black" points="374,-230 374,-271 538,-271 538,-230 374,-230"/>
<text text-anchor="start" x="382" y="-259" font-family="Helvetica,sans-Serif" font-size="10.00">DynExp::LinkedObjectWrapper</text>
<text text-anchor="start" x="382" y="-248" font-family="Helvetica,sans-Serif" font-size="10.00">Container&lt; DynExpHardware</text>
<text text-anchor="middle" x="456" y="-237" font-family="Helvetica,sans-Serif" font-size="10.00">::PVCamHardwareAdapter &gt;</text>
</a>
</g>
</g>
<!-- Node1&#45;&gt;Node21 -->
<g id="edge20" class="edge">
<title>Node1&#45;&gt;Node21</title>
<path fill="none" stroke="midnightblue" d="M226.69,-644.77C227.3,-575.39 238.89,-382.76 344,-280.5 352.44,-272.29 362.89,-266.27 373.97,-261.86"/>
<polygon fill="midnightblue" stroke="midnightblue" points="223.19,-645.17 226.67,-655.18 230.19,-645.18 223.19,-645.17"/>
</g>
<!-- Node22 -->
<g id="node22" class="node">
<title>Node22</title>
<g id="a_node22"><a xlink:href="classDynExp_1_1LinkedObjectWrapperContainer.html" target="_top" xlink:title=" ">
<polygon fill="white" stroke="black" points="374,-170 374,-211 538,-211 538,-170 374,-170"/>
<text text-anchor="start" x="382" y="-199" font-family="Helvetica,sans-Serif" font-size="10.00">DynExp::LinkedObjectWrapper</text>
<text text-anchor="start" x="382" y="-188" font-family="Helvetica,sans-Serif" font-size="10.00">Container&lt; DynExpInstr::</text>
<text text-anchor="middle" x="456" y="-177" font-family="Helvetica,sans-Serif" font-size="10.00">PositionerStage &gt;</text>
</a>
</g>
</g>
<!-- Node1&#45;&gt;Node22 -->
<g id="edge21" class="edge">
<title>Node1&#45;&gt;Node22</title>
<path fill="none" stroke="midnightblue" d="M230.25,-644.98C241.71,-559.07 282.78,-282.31 344,-220.5 352.36,-212.06 362.83,-205.92 373.97,-201.48"/>
<polygon fill="midnightblue" stroke="midnightblue" points="226.75,-644.77 228.92,-655.14 233.69,-645.68 226.75,-644.77"/>
</g>
<!-- Node23 -->
<g id="node23" class="node">
<title>Node23</title>
<g id="a_node23"><a xlink:href="classDynExp_1_1LinkedObjectWrapperContainer.html" target="_top" xlink:title=" ">
<polygon fill="white" stroke="black" points="367.5,-110 367.5,-151 544.5,-151 544.5,-110 367.5,-110"/>
<text text-anchor="start" x="375.5" y="-139" font-family="Helvetica,sans-Serif" font-size="10.00">DynExp::LinkedObjectWrapper</text>
<text text-anchor="start" x="375.5" y="-128" font-family="Helvetica,sans-Serif" font-size="10.00">Container&lt; DynExpHardware</text>
<text text-anchor="middle" x="456" y="-117" font-family="Helvetica,sans-Serif" font-size="10.00">::QutoolsTDCHardwareAdapter &gt;</text>
</a>
</g>
</g>
<!-- Node1&#45;&gt;Node23 -->
<g id="edge22" class="edge">
<title>Node1&#45;&gt;Node23</title>
<path fill="none" stroke="midnightblue" d="M229.38,-645.32C238.65,-552.61 275.23,-231.97 344,-160.5 350.64,-153.6 358.7,-148.23 367.4,-144.06"/>
<polygon fill="midnightblue" stroke="midnightblue" points="225.88,-645.17 228.39,-655.46 232.85,-645.85 225.88,-645.17"/>
</g>
<!-- Node24 -->
<g id="node24" class="node">
<title>Node24</title>
<g id="a_node24"><a xlink:href="classDynExp_1_1LinkedObjectWrapperContainer.html" target="_top" xlink:title=" ">
<polygon fill="white" stroke="black" points="374,-50 374,-91 538,-91 538,-50 374,-50"/>
<text text-anchor="start" x="382" y="-79" font-family="Helvetica,sans-Serif" font-size="10.00">DynExp::LinkedObjectWrapper</text>
<text text-anchor="start" x="382" y="-68" font-family="Helvetica,sans-Serif" font-size="10.00">Container&lt; DynExpInstr::</text>
<text text-anchor="middle" x="456" y="-57" font-family="Helvetica,sans-Serif" font-size="10.00">DigitalIn &gt;</text>
</a>
</g>
</g>
<!-- Node1&#45;&gt;Node24 -->
<g id="edge23" class="edge">
<title>Node1&#45;&gt;Node24</title>
<path fill="none" stroke="midnightblue" d="M228.73,-645.32C236.04,-545.83 267.71,-181.63 344,-100.5 352.2,-91.77 362.66,-85.49 373.86,-80.98"/>
<polygon fill="midnightblue" stroke="midnightblue" points="225.23,-645.14 228,-655.36 232.21,-645.64 225.23,-645.14"/>
</g>
<!-- Node25 -->
<g id="node25" class="node">
<title>Node25</title>
<g id="a_node25"><a xlink:href="classDynExp_1_1LinkedObjectWrapperContainer.html" target="_top" xlink:title="This class holds a pointer (LinkedObjectWrapperPointer) to a LinkedObjectWrapper. Intances of this cl...">
<polygon fill="white" stroke="black" points="374,-0.5 374,-30.5 538,-30.5 538,-0.5 374,-0.5"/>
<text text-anchor="start" x="382" y="-18.5" font-family="Helvetica,sans-Serif" font-size="10.00">DynExp::LinkedObjectWrapper</text>
<text text-anchor="middle" x="456" y="-7.5" font-family="Helvetica,sans-Serif" font-size="10.00">Container&lt; ObjectT &gt;</text>
</a>
</g>
</g>
<!-- Node1&#45;&gt;Node25 -->
<g id="edge24" class="edge">
<title>Node1&#45;&gt;Node25</title>
<path fill="none" stroke="midnightblue" d="M228.08,-645.37C233.18,-539.3 258.21,-129.61 344,-40.5 352.22,-31.96 362.68,-26.05 373.89,-22.01"/>
<polygon fill="midnightblue" stroke="midnightblue" points="224.58,-645.31 227.62,-655.46 231.58,-645.63 224.58,-645.31"/>
</g>
<!-- Node2 -->
<g id="node2" class="node">
<title>Node2</title>
<g id="a_node2"><a xlink:href="classUtil_1_1INonCopyable.html" target="_top" xlink:title="Interface to delete copy constructor and copy assignment operator and thus make derived classes non&#45;c...">
<polygon fill="white" stroke="black" points="0,-661 0,-680 108,-680 108,-661 0,-661"/>
<text text-anchor="middle" x="54" y="-668" font-family="Helvetica,sans-Serif" font-size="10.00">Util::INonCopyable</text>
</a>
</g>
</g>
<!-- Node2&#45;&gt;Node1 -->
<g id="edge1" class="edge">
<title>Node2&#45;&gt;Node1</title>
<path fill="none" stroke="midnightblue" d="M118.59,-670.5C126.83,-670.5 135.37,-670.5 143.85,-670.5"/>
<polygon fill="midnightblue" stroke="midnightblue" points="118.32,-667 108.32,-670.5 118.32,-674 118.32,-667"/>
</g>
</g>
</svg>
