<?xml version="1.0" encoding="UTF-8" standalone="no"?>
<!DOCTYPE svg PUBLIC "-//W3C//DTD SVG 1.1//EN"
 "http://www.w3.org/Graphics/SVG/1.1/DTD/svg11.dtd">
<!-- Generated by graphviz version 2.43.0 (0)
 -->
<!-- Title: DynExpInstr::PositionerStage Pages: 1 -->
<svg width="871pt" height="138pt"
 viewBox="0.00 0.00 871.00 138.00" xmlns="http://www.w3.org/2000/svg" xmlns:xlink="http://www.w3.org/1999/xlink">
<g id="graph0" class="graph" transform="scale(1 1) rotate(0) translate(4 134)">
<title>DynExpInstr::PositionerStage</title>
<!-- Node1 -->
<g id="Node000001" class="node">
<title>Node1</title>
<g id="a_Node000001"><a xlink:title="Implementation of a meta instrument to control single&#45;axis positioner stages.">
<polygon fill="#999999" stroke="#666666" points="648,-74 490,-74 490,-55 648,-55 648,-74"/>
<text text-anchor="middle" x="569" y="-62" font-family="Helvetica,sans-Serif" font-size="10.00">DynExpInstr::PositionerStage</text>
</a>
</g>
</g>
<!-- Node6 -->
<g id="Node000006" class="node">
<title>Node6</title>
<g id="a_Node000006"><a xlink:href="classDynExpInstr_1_1NP__Conex__CC.html" target="_top" xlink:title=" ">
<polygon fill="white" stroke="#666666" points="848.5,-130 698.5,-130 698.5,-111 848.5,-111 848.5,-130"/>
<text text-anchor="middle" x="773.5" y="-118" font-family="Helvetica,sans-Serif" font-size="10.00">DynExpInstr::NP_Conex_CC</text>
</a>
</g>
</g>
<!-- Node1&#45;&gt;Node6 -->
<g id="edge5_Node000001_Node000006" class="edge">
<title>Node1&#45;&gt;Node6</title>
<g id="a_edge5_Node000001_Node000006"><a xlink:title=" ">
<path fill="none" stroke="#63b8ff" d="M604.96,-77.38C627.35,-85.32 657.14,-95.32 684,-102.5 695.66,-105.62 708.32,-108.49 720.31,-110.98"/>
<polygon fill="#63b8ff" stroke="#63b8ff" points="606.13,-74.08 595.54,-74 603.77,-80.67 606.13,-74.08"/>
</a>
</g>
</g>
<!-- Node7 -->
<g id="Node000007" class="node">
<title>Node7</title>
<g id="a_Node000007"><a xlink:href="classDynExpInstr_1_1NenionLeakvalveF3.html" target="_top" xlink:title=" ">
<polygon fill="white" stroke="#666666" points="863,-93 684,-93 684,-74 863,-74 863,-93"/>
<text text-anchor="middle" x="773.5" y="-81" font-family="Helvetica,sans-Serif" font-size="10.00">DynExpInstr::NenionLeakvalveF3</text>
</a>
</g>
</g>
<!-- Node1&#45;&gt;Node7 -->
<g id="edge6_Node000001_Node000007" class="edge">
<title>Node1&#45;&gt;Node7</title>
<g id="a_edge6_Node000001_Node000007"><a xlink:title=" ">
<path fill="none" stroke="#63b8ff" d="M657.96,-72.75C666.51,-73.56 675.18,-74.37 683.74,-75.17"/>
<polygon fill="#63b8ff" stroke="#63b8ff" points="658.29,-69.27 648,-71.82 657.63,-76.24 658.29,-69.27"/>
</a>
</g>
</g>
<!-- Node8 -->
<g id="Node000008" class="node">
<title>Node8</title>
<g id="a_Node000008"><a xlink:href="classDynExpInstr_1_1PI__C__862.html" target="_top" xlink:title=" ">
<polygon fill="white" stroke="#666666" points="836.5,-56 710.5,-56 710.5,-37 836.5,-37 836.5,-56"/>
<text text-anchor="middle" x="773.5" y="-44" font-family="Helvetica,sans-Serif" font-size="10.00">DynExpInstr::PI_C_862</text>
</a>
</g>
</g>
<!-- Node1&#45;&gt;Node8 -->
<g id="edge7_Node000001_Node000008" class="edge">
<title>Node1&#45;&gt;Node8</title>
<g id="a_edge7_Node000001_Node000008"><a xlink:title=" ">
<path fill="none" stroke="#63b8ff" d="M658.24,-56.66C675.76,-55.1 693.81,-53.49 710.24,-52.03"/>
<polygon fill="#63b8ff" stroke="#63b8ff" points="657.65,-53.19 648,-57.57 658.27,-60.17 657.65,-53.19"/>
</a>
</g>
</g>
<!-- Node9 -->
<g id="Node000009" class="node">
<title>Node9</title>
<g id="a_Node000009"><a xlink:href="classDynExpInstr_1_1SmarAct.html" target="_top" xlink:title=" ">
<polygon fill="white" stroke="#666666" points="835,-19 712,-19 712,0 835,0 835,-19"/>
<text text-anchor="middle" x="773.5" y="-7" font-family="Helvetica,sans-Serif" font-size="10.00">DynExpInstr::SmarAct</text>
</a>
</g>
</g>
<!-- Node1&#45;&gt;Node9 -->
<g id="edge8_Node000001_Node000009" class="edge">
<title>Node1&#45;&gt;Node9</title>
<g id="a_edge8_Node000001_Node000009"><a xlink:title=" ">
<path fill="none" stroke="#63b8ff" d="M606.17,-51.6C628.43,-43.95 657.65,-34.43 684,-27.5 695.68,-24.43 708.33,-21.58 720.33,-19.09"/>
<polygon fill="#63b8ff" stroke="#63b8ff" points="604.77,-48.38 596.47,-54.97 607.06,-55 604.77,-48.38"/>
</a>
</g>
</g>
<!-- Node2 -->
<g id="Node000002" class="node">
<title>Node2</title>
<g id="a_Node000002"><a xlink:href="classDynExp_1_1InstrumentBase.html" target="_top" xlink:title="Base class for instruments. Instruments comprise virtual devices (meta instruments) and physial devic...">
<polygon fill="white" stroke="#666666" points="454,-74 317,-74 317,-55 454,-55 454,-74"/>
<text text-anchor="middle" x="385.5" y="-62" font-family="Helvetica,sans-Serif" font-size="10.00">DynExp::InstrumentBase</text>
</a>
</g>
</g>
<!-- Node2&#45;&gt;Node1 -->
<g id="edge1_Node000001_Node000002" class="edge">
<title>Node2&#45;&gt;Node1</title>
<g id="a_edge1_Node000001_Node000002"><a xlink:title=" ">
<path fill="none" stroke="#63b8ff" d="M464.34,-64.5C472.83,-64.5 481.47,-64.5 489.96,-64.5"/>
<polygon fill="#63b8ff" stroke="#63b8ff" points="464.08,-61 454.08,-64.5 464.08,-68 464.08,-61"/>
</a>
</g>
</g>
<!-- Node3 -->
<g id="Node000003" class="node">
<title>Node3</title>
<g id="a_Node000003"><a xlink:href="classDynExp_1_1RunnableObject.html" target="_top" xlink:title="Defines an Object which possesses a thread it runs in. The RunnableObject can be started and stopped ...">
<polygon fill="white" stroke="#666666" points="281,-74 144,-74 144,-55 281,-55 281,-74"/>
<text text-anchor="middle" x="212.5" y="-62" font-family="Helvetica,sans-Serif" font-size="10.00">DynExp::RunnableObject</text>
</a>
</g>
</g>
<!-- Node3&#45;&gt;Node2 -->
<g id="edge2_Node000002_Node000003" class="edge">
<title>Node3&#45;&gt;Node2</title>
<g id="a_edge2_Node000002_Node000003"><a xlink:title=" ">
<path fill="none" stroke="#63b8ff" d="M291.1,-64.5C299.69,-64.5 308.39,-64.5 316.85,-64.5"/>
<polygon fill="#63b8ff" stroke="#63b8ff" points="291.08,-61 281.08,-64.5 291.08,-68 291.08,-61"/>
</a>
</g>
</g>
<!-- Node4 -->
<g id="Node000004" class="node">
<title>Node4</title>
<g id="a_Node000004"><a xlink:href="classUtil_1_1INonCopyable.html" target="_top" xlink:title="Interface to delete copy constructor and copy assignment operator and thus make derived classes non&#45;c...">
<polygon fill="white" stroke="#666666" points="108,-93 0,-93 0,-74 108,-74 108,-93"/>
<text text-anchor="middle" x="54" y="-81" font-family="Helvetica,sans-Serif" font-size="10.00">Util::INonCopyable</text>
</a>
</g>
</g>
<!-- Node4&#45;&gt;Node3 -->
<g id="edge3_Node000003_Node000004" class="edge">
<title>Node4&#45;&gt;Node3</title>
<g id="a_edge3_Node000003_Node000004"><a xlink:title=" ">
<path fill="none" stroke="#63b8ff" d="M118.5,-75.79C126.87,-74.77 135.49,-73.73 143.93,-72.7"/>
<polygon fill="#63b8ff" stroke="#63b8ff" points="117.93,-72.33 108.42,-77.01 118.77,-79.28 117.93,-72.33"/>
</a>
</g>
</g>
<!-- Node5 -->
<g id="Node000005" class="node">
<title>Node5</title>
<g id="a_Node000005"><a xlink:href="classDynExp_1_1Object.html" target="_top" xlink:title="Base class for all DynExp Objects like hardware adapters (DynExp::HardwareAdapterBase),...">
<polygon fill="white" stroke="#666666" points="100,-56 8,-56 8,-37 100,-37 100,-56"/>
<text text-anchor="middle" x="54" y="-44" font-family="Helvetica,sans-Serif" font-size="10.00">DynExp::Object</text>
</a>
</g>
</g>
<!-- Node5&#45;&gt;Node3 -->
<g id="edge4_Node000003_Node000005" class="edge">
<title>Node5&#45;&gt;Node3</title>
<g id="a_edge4_Node000003_Node000005"><a xlink:title=" ">
<path fill="none" stroke="#63b8ff" d="M110.43,-52.88C121.26,-54.12 132.74,-55.44 143.91,-56.73"/>
<polygon fill="#63b8ff" stroke="#63b8ff" points="110.6,-49.37 100.27,-51.71 109.8,-56.33 110.6,-49.37"/>
</a>
</g>
</g>
</g>
</svg>
