<?xml version="1.0" encoding="UTF-8" standalone="no"?>
<!DOCTYPE svg PUBLIC "-//W3C//DTD SVG 1.1//EN"
 "http://www.w3.org/Graphics/SVG/1.1/DTD/svg11.dtd">
<!-- Generated by graphviz version 2.43.0 (0)
 -->
<!-- Title: DynExpModule::OutputPortWriterParams Pages: 1 -->
<svg width="181pt" height="386pt"
 viewBox="0.00 0.00 181.00 386.00" xmlns="http://www.w3.org/2000/svg" xmlns:xlink="http://www.w3.org/1999/xlink">
<g id="graph0" class="graph" transform="scale(1 1) rotate(0) translate(4 382)">
<title>DynExpModule::OutputPortWriterParams</title>
<polygon fill="white" stroke="transparent" points="-4,4 -4,-382 177,-382 177,4 -4,4"/>
<!-- Node1 -->
<g id="node1" class="node">
<title>Node1</title>
<g id="a_node1"><a xlink:title=" ">
<polygon fill="#bfbfbf" stroke="black" points="12,-0.5 12,-30.5 161,-30.5 161,-0.5 12,-0.5"/>
<text text-anchor="start" x="20" y="-18.5" font-family="Helvetica,sans-Serif" font-size="10.00">DynExpModule::OutputPort</text>
<text text-anchor="middle" x="86.5" y="-7.5" font-family="Helvetica,sans-Serif" font-size="10.00">WriterParams</text>
</a>
</g>
</g>
<!-- Node2 -->
<g id="node2" class="node">
<title>Node2</title>
<g id="a_node2"><a xlink:href="classDynExp_1_1QModuleParamsBase.html" target="_top" xlink:title="Parameter class for QModuleBase.">
<polygon fill="white" stroke="black" points="4.5,-67.5 4.5,-86.5 168.5,-86.5 168.5,-67.5 4.5,-67.5"/>
<text text-anchor="middle" x="86.5" y="-74.5" font-family="Helvetica,sans-Serif" font-size="10.00">DynExp::QModuleParamsBase</text>
</a>
</g>
</g>
<!-- Node2&#45;&gt;Node1 -->
<g id="edge1" class="edge">
<title>Node2&#45;&gt;Node1</title>
<path fill="none" stroke="midnightblue" d="M86.5,-57.23C86.5,-48.59 86.5,-38.5 86.5,-30.52"/>
<polygon fill="midnightblue" stroke="midnightblue" points="83,-57.48 86.5,-67.48 90,-57.48 83,-57.48"/>
</g>
<!-- Node3 -->
<g id="node3" class="node">
<title>Node3</title>
<g id="a_node3"><a xlink:href="classDynExp_1_1ModuleParamsBase.html" target="_top" xlink:title="Parameter class for ModuleBase.">
<polygon fill="white" stroke="black" points="8.5,-123.5 8.5,-142.5 164.5,-142.5 164.5,-123.5 8.5,-123.5"/>
<text text-anchor="middle" x="86.5" y="-130.5" font-family="Helvetica,sans-Serif" font-size="10.00">DynExp::ModuleParamsBase</text>
</a>
</g>
</g>
<!-- Node3&#45;&gt;Node2 -->
<g id="edge2" class="edge">
<title>Node3&#45;&gt;Node2</title>
<path fill="none" stroke="midnightblue" d="M86.5,-112.8C86.5,-103.91 86.5,-93.78 86.5,-86.75"/>
<polygon fill="midnightblue" stroke="midnightblue" points="83,-113.08 86.5,-123.08 90,-113.08 83,-113.08"/>
</g>
<!-- Node4 -->
<g id="node4" class="node">
<title>Node4</title>
<g id="a_node4"><a xlink:href="classDynExp_1_1RunnableObjectParams.html" target="_top" xlink:title="Parameter class for RunnableObject.">
<polygon fill="white" stroke="black" points="0,-179.5 0,-198.5 173,-198.5 173,-179.5 0,-179.5"/>
<text text-anchor="middle" x="86.5" y="-186.5" font-family="Helvetica,sans-Serif" font-size="10.00">DynExp::RunnableObjectParams</text>
</a>
</g>
</g>
<!-- Node4&#45;&gt;Node3 -->
<g id="edge3" class="edge">
<title>Node4&#45;&gt;Node3</title>
<path fill="none" stroke="midnightblue" d="M86.5,-168.8C86.5,-159.91 86.5,-149.78 86.5,-142.75"/>
<polygon fill="midnightblue" stroke="midnightblue" points="83,-169.08 86.5,-179.08 90,-169.08 83,-169.08"/>
</g>
<!-- Node5 -->
<g id="node5" class="node">
<title>Node5</title>
<g id="a_node5"><a xlink:href="classDynExp_1_1ParamsBase.html" target="_top" xlink:title="Abstract base class for object parameter classes. Each class derived from class Object must be accomp...">
<polygon fill="white" stroke="black" points="26.5,-235.5 26.5,-254.5 146.5,-254.5 146.5,-235.5 26.5,-235.5"/>
<text text-anchor="middle" x="86.5" y="-242.5" font-family="Helvetica,sans-Serif" font-size="10.00">DynExp::ParamsBase</text>
</a>
</g>
</g>
<!-- Node5&#45;&gt;Node4 -->
<g id="edge4" class="edge">
<title>Node5&#45;&gt;Node4</title>
<path fill="none" stroke="midnightblue" d="M86.5,-224.8C86.5,-215.91 86.5,-205.78 86.5,-198.75"/>
<polygon fill="midnightblue" stroke="midnightblue" points="83,-225.08 86.5,-235.08 90,-225.08 83,-225.08"/>
</g>
<!-- Node6 -->
<g id="node6" class="node">
<title>Node6</title>
<g id="a_node6"><a xlink:href="classUtil_1_1ISynchronizedPointerLockable.html" target="_top" xlink:title="Interface to allow synchronizing the access to derived classes between different threads by making th...">
<polygon fill="white" stroke="black" points="15,-291.5 15,-321.5 158,-321.5 158,-291.5 15,-291.5"/>
<text text-anchor="start" x="23" y="-309.5" font-family="Helvetica,sans-Serif" font-size="10.00">Util::ISynchronizedPointer</text>
<text text-anchor="middle" x="86.5" y="-298.5" font-family="Helvetica,sans-Serif" font-size="10.00">Lockable</text>
</a>
</g>
</g>
<!-- Node6&#45;&gt;Node5 -->
<g id="edge5" class="edge">
<title>Node6&#45;&gt;Node5</title>
<path fill="none" stroke="midnightblue" d="M86.5,-281.29C86.5,-271.86 86.5,-261.65 86.5,-254.66"/>
<polygon fill="midnightblue" stroke="midnightblue" points="83,-281.4 86.5,-291.4 90,-281.4 83,-281.4"/>
</g>
<!-- Node7 -->
<g id="node7" class="node">
<title>Node7</title>
<g id="a_node7"><a xlink:href="classUtil_1_1INonCopyable.html" target="_top" xlink:title="Interface to delete copy constructor and copy assignment operator and thus make derived classes non&#45;c...">
<polygon fill="white" stroke="black" points="32.5,-358.5 32.5,-377.5 140.5,-377.5 140.5,-358.5 32.5,-358.5"/>
<text text-anchor="middle" x="86.5" y="-365.5" font-family="Helvetica,sans-Serif" font-size="10.00">Util::INonCopyable</text>
</a>
</g>
</g>
<!-- Node7&#45;&gt;Node6 -->
<g id="edge6" class="edge">
<title>Node7&#45;&gt;Node6</title>
<path fill="none" stroke="midnightblue" d="M86.5,-348.23C86.5,-339.59 86.5,-329.5 86.5,-321.52"/>
<polygon fill="midnightblue" stroke="midnightblue" points="83,-348.48 86.5,-358.48 90,-348.48 83,-348.48"/>
</g>
</g>
</svg>
