<?xml version="1.0" encoding="UTF-8" standalone="no"?>
<!DOCTYPE svg PUBLIC "-//W3C//DTD SVG 1.1//EN"
 "http://www.w3.org/Graphics/SVG/1.1/DTD/svg11.dtd">
<!-- Generated by graphviz version 2.43.0 (0)
 -->
<!-- Title: DynExpModule::NetworkAnalogInT&lt; gRPCServices &gt;::CallDataGetHardwareLimits Pages: 1 -->
<svg width="520pt" height="72pt"
 viewBox="0.00 0.00 520.00 72.00" xmlns="http://www.w3.org/2000/svg" xmlns:xlink="http://www.w3.org/1999/xlink">
<g id="graph0" class="graph" transform="scale(1 1) rotate(0) translate(4 68)">
<title>DynExpModule::NetworkAnalogInT&lt; gRPCServices &gt;::CallDataGetHardwareLimits</title>
<polygon fill="white" stroke="transparent" points="-4,4 -4,-68 516,-68 516,4 -4,4"/>
<!-- Node1 -->
<g id="node1" class="node">
<title>Node1</title>
<g id="a_node1"><a xlink:title=" ">
<polygon fill="#bfbfbf" stroke="black" points="326,-11.5 326,-52.5 512,-52.5 512,-11.5 326,-11.5"/>
<text text-anchor="start" x="334" y="-40.5" font-family="Helvetica,sans-Serif" font-size="10.00">DynExpModule::NetworkAnalog</text>
<text text-anchor="start" x="334" y="-29.5" font-family="Helvetica,sans-Serif" font-size="10.00">InT&lt; gRPCServices &gt;::CallDataGet</text>
<text text-anchor="middle" x="419" y="-18.5" font-family="Helvetica,sans-Serif" font-size="10.00">HardwareLimits</text>
</a>
</g>
</g>
<!-- Node2 -->
<g id="node2" class="node">
<title>Node2</title>
<g id="a_node2"><a xlink:title=" ">
<polygon fill="white" stroke="#bfbfbf" points="0,-0.5 0,-63.5 290,-63.5 290,-0.5 0,-0.5"/>
<text text-anchor="start" x="8" y="-51.5" font-family="Helvetica,sans-Serif" font-size="10.00">gRPCModule::template</text>
<text text-anchor="start" x="8" y="-40.5" font-family="Helvetica,sans-Serif" font-size="10.00"> TypedCallDataBase&lt; CallData</text>
<text text-anchor="start" x="8" y="-29.5" font-family="Helvetica,sans-Serif" font-size="10.00">GetHardwareLimits, ThisServiceType,</text>
<text text-anchor="start" x="8" y="-18.5" font-family="Helvetica,sans-Serif" font-size="10.00"> DynExpProto::Common::VoidMessage,</text>
<text text-anchor="middle" x="145" y="-7.5" font-family="Helvetica,sans-Serif" font-size="10.00"> DynExpProto::NetworkAnalogIn::ValueLimitsMessage &gt;</text>
</a>
</g>
</g>
<!-- Node2&#45;&gt;Node1 -->
<g id="edge1" class="edge">
<title>Node2&#45;&gt;Node1</title>
<path fill="none" stroke="midnightblue" d="M300.52,-32C309.15,-32 317.67,-32 325.95,-32"/>
<polygon fill="midnightblue" stroke="midnightblue" points="300.36,-28.5 290.36,-32 300.36,-35.5 300.36,-28.5"/>
</g>
</g>
</svg>
