<?xml version="1.0" encoding="UTF-8" standalone="no"?>
<!DOCTYPE svg PUBLIC "-//W3C//DTD SVG 1.1//EN"
 "http://www.w3.org/Graphics/SVG/1.1/DTD/svg11.dtd">
<!-- Generated by graphviz version 2.43.0 (0)
 -->
<!-- Title: DynExpInstr::PI_C_862_Tasks::ExitTask Pages: 1 -->
<svg width="166pt" height="218pt"
 viewBox="0.00 0.00 166.00 218.00" xmlns="http://www.w3.org/2000/svg" xmlns:xlink="http://www.w3.org/1999/xlink">
<g id="graph0" class="graph" transform="scale(1 1) rotate(0) translate(4 214)">
<title>DynExpInstr::PI_C_862_Tasks::ExitTask</title>
<polygon fill="white" stroke="transparent" points="-4,4 -4,-214 162,-214 162,4 -4,4"/>
<!-- Node1 -->
<g id="node1" class="node">
<title>Node1</title>
<g id="a_node1"><a xlink:title=" ">
<polygon fill="#bfbfbf" stroke="black" points="16,-0.5 16,-30.5 142,-30.5 142,-0.5 16,-0.5"/>
<text text-anchor="start" x="24" y="-18.5" font-family="Helvetica,sans-Serif" font-size="10.00">DynExpInstr::PI_C_862</text>
<text text-anchor="middle" x="79" y="-7.5" font-family="Helvetica,sans-Serif" font-size="10.00">_Tasks::ExitTask</text>
</a>
</g>
</g>
<!-- Node2 -->
<g id="node2" class="node">
<title>Node2</title>
<g id="a_node2"><a xlink:href="classDynExpInstr_1_1PositionerStageTasks_1_1ExitTask.html" target="_top" xlink:title="Defines a task for deinitializing an instrument within an instrument inheritance hierarchy....">
<polygon fill="white" stroke="black" points="0,-67.5 0,-97.5 158,-97.5 158,-67.5 0,-67.5"/>
<text text-anchor="start" x="8" y="-85.5" font-family="Helvetica,sans-Serif" font-size="10.00">DynExpInstr::PositionerStage</text>
<text text-anchor="middle" x="79" y="-74.5" font-family="Helvetica,sans-Serif" font-size="10.00">Tasks::ExitTask</text>
</a>
</g>
</g>
<!-- Node2&#45;&gt;Node1 -->
<g id="edge1" class="edge">
<title>Node2&#45;&gt;Node1</title>
<path fill="none" stroke="midnightblue" d="M79,-57.11C79,-48.15 79,-38.32 79,-30.58"/>
<polygon fill="midnightblue" stroke="midnightblue" points="75.5,-57.4 79,-67.4 82.5,-57.4 75.5,-57.4"/>
</g>
<!-- Node3 -->
<g id="node3" class="node">
<title>Node3</title>
<g id="a_node3"><a xlink:href="classDynExp_1_1ExitTaskBase.html" target="_top" xlink:title="Defines a task for deinitializing an instrument within an instrument inheritance hierarchy....">
<polygon fill="white" stroke="black" points="16.5,-134.5 16.5,-153.5 141.5,-153.5 141.5,-134.5 16.5,-134.5"/>
<text text-anchor="middle" x="79" y="-141.5" font-family="Helvetica,sans-Serif" font-size="10.00">DynExp::ExitTaskBase</text>
</a>
</g>
</g>
<!-- Node3&#45;&gt;Node2 -->
<g id="edge2" class="edge">
<title>Node3&#45;&gt;Node2</title>
<path fill="none" stroke="midnightblue" d="M79,-124.23C79,-115.59 79,-105.5 79,-97.52"/>
<polygon fill="midnightblue" stroke="midnightblue" points="75.5,-124.48 79,-134.48 82.5,-124.48 75.5,-124.48"/>
</g>
<!-- Node4 -->
<g id="node4" class="node">
<title>Node4</title>
<g id="a_node4"><a xlink:href="classDynExp_1_1TaskBase.html" target="_top" xlink:title="Base class for all tasks being processed by instruments. The class must not contain public virtual fu...">
<polygon fill="white" stroke="black" points="26,-190.5 26,-209.5 132,-209.5 132,-190.5 26,-190.5"/>
<text text-anchor="middle" x="79" y="-197.5" font-family="Helvetica,sans-Serif" font-size="10.00">DynExp::TaskBase</text>
</a>
</g>
</g>
<!-- Node4&#45;&gt;Node3 -->
<g id="edge3" class="edge">
<title>Node4&#45;&gt;Node3</title>
<path fill="none" stroke="midnightblue" d="M79,-179.8C79,-170.91 79,-160.78 79,-153.75"/>
<polygon fill="midnightblue" stroke="midnightblue" points="75.5,-180.08 79,-190.08 82.5,-180.08 75.5,-180.08"/>
</g>
</g>
</svg>
