<?xml version="1.0" encoding="UTF-8" standalone="no"?>
<!DOCTYPE svg PUBLIC "-//W3C//DTD SVG 1.1//EN"
 "http://www.w3.org/Graphics/SVG/1.1/DTD/svg11.dtd">
<!-- Generated by graphviz version 2.43.0 (0)
 -->
<!-- Title: DynExp::ModuleConfiguratorBase Pages: 1 -->
<svg width="1294pt" height="732pt"
 viewBox="0.00 0.00 1294.00 732.00" xmlns="http://www.w3.org/2000/svg" xmlns:xlink="http://www.w3.org/1999/xlink">
<g id="graph0" class="graph" transform="scale(1 1) rotate(0) translate(4 728)">
<title>DynExp::ModuleConfiguratorBase</title>
<polygon fill="white" stroke="transparent" points="-4,4 -4,-728 1290,-728 1290,4 -4,4"/>
<!-- Node1 -->
<g id="node1" class="node">
<title>Node1</title>
<g id="a_node1"><a xlink:title="Configurator class for ModuleBase.">
<polygon fill="#bfbfbf" stroke="black" points="413,-221 413,-240 593,-240 593,-221 413,-221"/>
<text text-anchor="middle" x="503" y="-228" font-family="Helvetica,sans-Serif" font-size="10.00">DynExp::ModuleConfiguratorBase</text>
</a>
</g>
</g>
<!-- Node4 -->
<g id="node4" class="node">
<title>Node4</title>
<g id="a_node4"><a xlink:href="classDynExpModule_1_1gRPCModuleConfigurator.html" target="_top" xlink:title=" ">
<polygon fill="white" stroke="black" points="636.5,-535.5 636.5,-565.5 811.5,-565.5 811.5,-535.5 636.5,-535.5"/>
<text text-anchor="start" x="644.5" y="-553.5" font-family="Helvetica,sans-Serif" font-size="10.00">DynExpModule::gRPCModule</text>
<text text-anchor="middle" x="724" y="-542.5" font-family="Helvetica,sans-Serif" font-size="10.00">Configurator&lt; gRPCServices... &gt;</text>
</a>
</g>
</g>
<!-- Node1&#45;&gt;Node4 -->
<g id="edge3" class="edge">
<title>Node1&#45;&gt;Node4</title>
<path fill="none" stroke="midnightblue" d="M516.29,-248.46C555.4,-305.6 676.45,-482.48 712.66,-535.39"/>
<polygon fill="midnightblue" stroke="midnightblue" points="519.09,-246.35 510.55,-240.08 513.31,-250.31 519.09,-246.35"/>
</g>
<!-- Node12 -->
<g id="node12" class="node">
<title>Node12</title>
<g id="a_node12"><a xlink:href="classDynExp_1_1QModuleConfiguratorBase.html" target="_top" xlink:title="Configurator class for QModuleBase.">
<polygon fill="white" stroke="black" points="630,-265 630,-284 818,-284 818,-265 630,-265"/>
<text text-anchor="middle" x="724" y="-272" font-family="Helvetica,sans-Serif" font-size="10.00">DynExp::QModuleConfiguratorBase</text>
</a>
</g>
</g>
<!-- Node1&#45;&gt;Node12 -->
<g id="edge11" class="edge">
<title>Node1&#45;&gt;Node12</title>
<path fill="none" stroke="midnightblue" d="M561.74,-242.1C597.24,-249.23 642.16,-258.26 675.57,-264.97"/>
<polygon fill="midnightblue" stroke="midnightblue" points="562.01,-238.59 551.52,-240.05 560.63,-245.45 562.01,-238.59"/>
</g>
<!-- Node24 -->
<g id="node24" class="node">
<title>Node24</title>
<g id="a_node24"><a xlink:href="classDynExpModule_1_1ArbitraryFunctionFromCSVConfigurator.html" target="_top" xlink:title=" ">
<polygon fill="white" stroke="black" points="634,-215.5 634,-245.5 814,-245.5 814,-215.5 634,-215.5"/>
<text text-anchor="start" x="642" y="-233.5" font-family="Helvetica,sans-Serif" font-size="10.00">DynExpModule::ArbitraryFunction</text>
<text text-anchor="middle" x="724" y="-222.5" font-family="Helvetica,sans-Serif" font-size="10.00">FromCSVConfigurator</text>
</a>
</g>
</g>
<!-- Node1&#45;&gt;Node24 -->
<g id="edge23" class="edge">
<title>Node1&#45;&gt;Node24</title>
<path fill="none" stroke="midnightblue" d="M603.18,-230.5C613.33,-230.5 623.61,-230.5 633.65,-230.5"/>
<polygon fill="midnightblue" stroke="midnightblue" points="603.08,-227 593.08,-230.5 603.08,-234 603.08,-227"/>
</g>
<!-- Node25 -->
<g id="node25" class="node">
<title>Node25</title>
<g id="a_node25"><a xlink:href="classDynExpModule_1_1StreamManipulatorConfigurator.html" target="_top" xlink:title="Configurator class for StreamManipulator.">
<polygon fill="white" stroke="black" points="629,-166.5 629,-196.5 819,-196.5 819,-166.5 629,-166.5"/>
<text text-anchor="start" x="637" y="-184.5" font-family="Helvetica,sans-Serif" font-size="10.00">DynExpModule::StreamManipulator</text>
<text text-anchor="middle" x="724" y="-173.5" font-family="Helvetica,sans-Serif" font-size="10.00">Configurator</text>
</a>
</g>
</g>
<!-- Node1&#45;&gt;Node25 -->
<g id="edge24" class="edge">
<title>Node1&#45;&gt;Node25</title>
<path fill="none" stroke="midnightblue" d="M556.26,-218.81C586.04,-212.14 623.67,-203.73 655.64,-196.57"/>
<polygon fill="midnightblue" stroke="midnightblue" points="555.48,-215.4 546.49,-220.99 557.01,-222.23 555.48,-215.4"/>
</g>
<!-- Node26 -->
<g id="node26" class="node">
<title>Node26</title>
<g id="a_node26"><a xlink:href="classDynExpModule_1_1gRPCModuleConfigurator.html" target="_top" xlink:title="Configurator class for gRPCModule.">
<polygon fill="white" stroke="black" points="641,-117.5 641,-147.5 807,-147.5 807,-117.5 641,-117.5"/>
<text text-anchor="start" x="649" y="-135.5" font-family="Helvetica,sans-Serif" font-size="10.00">DynExpModule::gRPCModule</text>
<text text-anchor="middle" x="724" y="-124.5" font-family="Helvetica,sans-Serif" font-size="10.00">Configurator&lt; gRPCServices &gt;</text>
</a>
</g>
</g>
<!-- Node1&#45;&gt;Node26 -->
<g id="edge25" class="edge">
<title>Node1&#45;&gt;Node26</title>
<path fill="none" stroke="midnightblue" d="M525.61,-215.1C549.77,-198.53 590.57,-172.4 629,-156.5 637.09,-153.15 645.78,-150.17 654.48,-147.55"/>
<polygon fill="midnightblue" stroke="midnightblue" points="523.42,-212.37 517.2,-220.95 527.41,-218.11 523.42,-212.37"/>
</g>
<!-- Node2 -->
<g id="node2" class="node">
<title>Node2</title>
<g id="a_node2"><a xlink:href="classDynExp_1_1RunnableObjectConfigurator.html" target="_top" xlink:title="Configurator class for RunnableObject.">
<polygon fill="white" stroke="black" points="180,-221 180,-240 377,-240 377,-221 180,-221"/>
<text text-anchor="middle" x="278.5" y="-228" font-family="Helvetica,sans-Serif" font-size="10.00">DynExp::RunnableObjectConfigurator</text>
</a>
</g>
</g>
<!-- Node2&#45;&gt;Node1 -->
<g id="edge1" class="edge">
<title>Node2&#45;&gt;Node1</title>
<path fill="none" stroke="midnightblue" d="M387.18,-230.5C395.79,-230.5 404.44,-230.5 412.9,-230.5"/>
<polygon fill="midnightblue" stroke="midnightblue" points="387.09,-227 377.09,-230.5 387.09,-234 387.09,-227"/>
</g>
<!-- Node3 -->
<g id="node3" class="node">
<title>Node3</title>
<g id="a_node3"><a xlink:href="classDynExp_1_1ConfiguratorBase.html" target="_top" xlink:title="The configurator classes have the task to generate parameter objects (refer to DynExp::ParamsBase) of...">
<polygon fill="white" stroke="black" points="0,-221 0,-240 144,-240 144,-221 0,-221"/>
<text text-anchor="middle" x="72" y="-228" font-family="Helvetica,sans-Serif" font-size="10.00">DynExp::ConfiguratorBase</text>
</a>
</g>
</g>
<!-- Node3&#45;&gt;Node2 -->
<g id="edge2" class="edge">
<title>Node3&#45;&gt;Node2</title>
<path fill="none" stroke="midnightblue" d="M154.36,-230.5C162.76,-230.5 171.35,-230.5 179.89,-230.5"/>
<polygon fill="midnightblue" stroke="midnightblue" points="154.24,-227 144.24,-230.5 154.24,-234 154.24,-227"/>
</g>
<!-- Node5 -->
<g id="node5" class="node">
<title>Node5</title>
<g id="a_node5"><a xlink:href="classDynExpModule_1_1NetworkDataStreamInstrumentConfigurator.html" target="_top" xlink:title=" ">
<polygon fill="white" stroke="black" points="871,-590 871,-631 1036,-631 1036,-590 871,-590"/>
<text text-anchor="start" x="879" y="-619" font-family="Helvetica,sans-Serif" font-size="10.00">DynExpModule::NetworkData</text>
<text text-anchor="start" x="879" y="-608" font-family="Helvetica,sans-Serif" font-size="10.00">StreamInstrumentConfigurator</text>
<text text-anchor="middle" x="953.5" y="-597" font-family="Helvetica,sans-Serif" font-size="10.00">&lt; gRPCServices... &gt;</text>
</a>
</g>
</g>
<!-- Node4&#45;&gt;Node5 -->
<g id="edge4" class="edge">
<title>Node4&#45;&gt;Node5</title>
<path fill="none" stroke="midnightblue" d="M791.86,-568.13C817.85,-574.99 847.79,-582.88 874.73,-589.99"/>
<polygon fill="midnightblue" stroke="midnightblue" points="792.68,-564.73 782.11,-565.56 790.89,-571.5 792.68,-564.73"/>
</g>
<!-- Node11 -->
<g id="node11" class="node">
<title>Node11</title>
<g id="a_node11"><a xlink:href="classDynExpModule_1_1NetworkDataStreamInstrumentConfigurator.html" target="_top" xlink:title=" ">
<polygon fill="white" stroke="black" points="871,-530 871,-571 1036,-571 1036,-530 871,-530"/>
<text text-anchor="start" x="879" y="-559" font-family="Helvetica,sans-Serif" font-size="10.00">DynExpModule::NetworkData</text>
<text text-anchor="start" x="879" y="-548" font-family="Helvetica,sans-Serif" font-size="10.00">StreamInstrumentConfigurator</text>
<text text-anchor="middle" x="953.5" y="-537" font-family="Helvetica,sans-Serif" font-size="10.00">&lt; gRPCServices &gt;</text>
</a>
</g>
</g>
<!-- Node4&#45;&gt;Node11 -->
<g id="edge10" class="edge">
<title>Node4&#45;&gt;Node11</title>
<path fill="none" stroke="midnightblue" d="M821.78,-550.5C838.16,-550.5 855.02,-550.5 870.95,-550.5"/>
<polygon fill="midnightblue" stroke="midnightblue" points="821.66,-547 811.66,-550.5 821.66,-554 821.66,-547"/>
</g>
<!-- Node6 -->
<g id="node6" class="node">
<title>Node6</title>
<g id="a_node6"><a xlink:href="classDynExpModule_1_1NetworkAnalogInConfigurator.html" target="_top" xlink:title=" ">
<polygon fill="white" stroke="black" points="1099.5,-693.5 1099.5,-723.5 1274.5,-723.5 1274.5,-693.5 1099.5,-693.5"/>
<text text-anchor="start" x="1107.5" y="-711.5" font-family="Helvetica,sans-Serif" font-size="10.00">DynExpModule::NetworkAnalog</text>
<text text-anchor="middle" x="1187" y="-700.5" font-family="Helvetica,sans-Serif" font-size="10.00">InConfigurator&lt; gRPCServices &gt;</text>
</a>
</g>
</g>
<!-- Node5&#45;&gt;Node6 -->
<g id="edge5" class="edge">
<title>Node5&#45;&gt;Node6</title>
<path fill="none" stroke="midnightblue" d="M994.71,-636.49C1020.51,-652.23 1055.22,-671.67 1088,-684.5 1096.56,-687.85 1105.74,-690.84 1114.91,-693.47"/>
<polygon fill="midnightblue" stroke="midnightblue" points="996.31,-633.37 985.97,-631.1 992.64,-639.33 996.31,-633.37"/>
</g>
<!-- Node7 -->
<g id="node7" class="node">
<title>Node7</title>
<g id="a_node7"><a xlink:href="classDynExpModule_1_1NetworkAnalogOutConfigurator.html" target="_top" xlink:title=" ">
<polygon fill="white" stroke="black" points="1095.5,-644.5 1095.5,-674.5 1278.5,-674.5 1278.5,-644.5 1095.5,-644.5"/>
<text text-anchor="start" x="1103.5" y="-662.5" font-family="Helvetica,sans-Serif" font-size="10.00">DynExpModule::NetworkAnalog</text>
<text text-anchor="middle" x="1187" y="-651.5" font-family="Helvetica,sans-Serif" font-size="10.00">OutConfigurator&lt; gRPCServices &gt;</text>
</a>
</g>
</g>
<!-- Node5&#45;&gt;Node7 -->
<g id="edge6" class="edge">
<title>Node5&#45;&gt;Node7</title>
<path fill="none" stroke="midnightblue" d="M1046.2,-629.91C1069.12,-634.76 1093.37,-639.89 1115.11,-644.5"/>
<polygon fill="midnightblue" stroke="midnightblue" points="1046.63,-626.42 1036.12,-627.78 1045.18,-633.27 1046.63,-626.42"/>
</g>
<!-- Node8 -->
<g id="node8" class="node">
<title>Node8</title>
<g id="a_node8"><a xlink:href="classDynExpModule_1_1NetworkDigitalInConfigurator.html" target="_top" xlink:title=" ">
<polygon fill="white" stroke="black" points="1099.5,-595.5 1099.5,-625.5 1274.5,-625.5 1274.5,-595.5 1099.5,-595.5"/>
<text text-anchor="start" x="1107.5" y="-613.5" font-family="Helvetica,sans-Serif" font-size="10.00">DynExpModule::NetworkDigital</text>
<text text-anchor="middle" x="1187" y="-602.5" font-family="Helvetica,sans-Serif" font-size="10.00">InConfigurator&lt; gRPCServices &gt;</text>
</a>
</g>
</g>
<!-- Node5&#45;&gt;Node8 -->
<g id="edge7" class="edge">
<title>Node5&#45;&gt;Node8</title>
<path fill="none" stroke="midnightblue" d="M1046.29,-610.5C1063.74,-610.5 1081.95,-610.5 1099.23,-610.5"/>
<polygon fill="midnightblue" stroke="midnightblue" points="1046.12,-607 1036.12,-610.5 1046.12,-614 1046.12,-607"/>
</g>
<!-- Node9 -->
<g id="node9" class="node">
<title>Node9</title>
<g id="a_node9"><a xlink:href="classDynExpModule_1_1NetworkDigitalOutConfigurator.html" target="_top" xlink:title=" ">
<polygon fill="white" stroke="black" points="1095.5,-546.5 1095.5,-576.5 1278.5,-576.5 1278.5,-546.5 1095.5,-546.5"/>
<text text-anchor="start" x="1103.5" y="-564.5" font-family="Helvetica,sans-Serif" font-size="10.00">DynExpModule::NetworkDigital</text>
<text text-anchor="middle" x="1187" y="-553.5" font-family="Helvetica,sans-Serif" font-size="10.00">OutConfigurator&lt; gRPCServices &gt;</text>
</a>
</g>
</g>
<!-- Node5&#45;&gt;Node9 -->
<g id="edge8" class="edge">
<title>Node5&#45;&gt;Node9</title>
<path fill="none" stroke="midnightblue" d="M1046.2,-591.09C1069.12,-586.24 1093.37,-581.11 1115.11,-576.5"/>
<polygon fill="midnightblue" stroke="midnightblue" points="1045.18,-587.73 1036.12,-593.22 1046.63,-594.58 1045.18,-587.73"/>
</g>
<!-- Node10 -->
<g id="node10" class="node">
<title>Node10</title>
<g id="a_node10"><a xlink:href="classDynExpModule_1_1NetworkTimeTaggerConfigurator.html" target="_top" xlink:title=" ">
<polygon fill="white" stroke="black" points="1088,-497.5 1088,-527.5 1286,-527.5 1286,-497.5 1088,-497.5"/>
<text text-anchor="start" x="1096" y="-515.5" font-family="Helvetica,sans-Serif" font-size="10.00">DynExpModule::NetworkTime</text>
<text text-anchor="middle" x="1187" y="-504.5" font-family="Helvetica,sans-Serif" font-size="10.00">TaggerConfigurator&lt; gRPCServices &gt;</text>
</a>
</g>
</g>
<!-- Node5&#45;&gt;Node10 -->
<g id="edge9" class="edge">
<title>Node5&#45;&gt;Node10</title>
<path fill="none" stroke="midnightblue" d="M1044,-585.35C1046.75,-583.82 1049.43,-582.21 1052,-580.5 1072.76,-566.71 1066.91,-550.78 1088,-537.5 1094.17,-533.62 1100.91,-530.34 1107.88,-527.57"/>
<polygon fill="midnightblue" stroke="midnightblue" points="1042.32,-582.28 1034.99,-589.93 1045.49,-588.52 1042.32,-582.28"/>
</g>
<!-- Node13 -->
<g id="node13" class="node">
<title>Node13</title>
<g id="a_node13"><a xlink:href="classDynExpModule_1_1ImageViewer_1_1ImageViewerConfigurator.html" target="_top" xlink:title=" ">
<polygon fill="white" stroke="black" points="873,-480.5 873,-510.5 1034,-510.5 1034,-480.5 873,-480.5"/>
<text text-anchor="start" x="881" y="-498.5" font-family="Helvetica,sans-Serif" font-size="10.00">DynExpModule::ImageViewer</text>
<text text-anchor="middle" x="953.5" y="-487.5" font-family="Helvetica,sans-Serif" font-size="10.00">::ImageViewerConfigurator</text>
</a>
</g>
</g>
<!-- Node12&#45;&gt;Node13 -->
<g id="edge12" class="edge">
<title>Node12&#45;&gt;Node13</title>
<path fill="none" stroke="midnightblue" d="M732.04,-293.69C747.64,-333.44 789.06,-424.98 855,-471.5 860.41,-475.32 866.37,-478.53 872.58,-481.24"/>
<polygon fill="midnightblue" stroke="midnightblue" points="735.23,-292.23 728.4,-284.13 728.68,-294.72 735.23,-292.23"/>
</g>
<!-- Node14 -->
<g id="node14" class="node">
<title>Node14</title>
<g id="a_node14"><a xlink:href="classDynExpModule_1_1InputPortReaderConfigurator.html" target="_top" xlink:title=" ">
<polygon fill="white" stroke="black" points="866,-431.5 866,-461.5 1041,-461.5 1041,-431.5 866,-431.5"/>
<text text-anchor="start" x="874" y="-449.5" font-family="Helvetica,sans-Serif" font-size="10.00">DynExpModule::InputPortReader</text>
<text text-anchor="middle" x="953.5" y="-438.5" font-family="Helvetica,sans-Serif" font-size="10.00">Configurator</text>
</a>
</g>
</g>
<!-- Node12&#45;&gt;Node14 -->
<g id="edge13" class="edge">
<title>Node12&#45;&gt;Node14</title>
<path fill="none" stroke="midnightblue" d="M735.86,-292.96C755.46,-324.61 799.9,-389.04 855,-422.5 860.66,-425.94 866.79,-428.88 873.13,-431.41"/>
<polygon fill="midnightblue" stroke="midnightblue" points="738.76,-291 730.58,-284.26 732.77,-294.63 738.76,-291"/>
</g>
<!-- Node15 -->
<g id="node15" class="node">
<title>Node15</title>
<g id="a_node15"><a xlink:href="classDynExpModule_1_1LockinAmplifierControlConfigurator.html" target="_top" xlink:title=" ">
<polygon fill="white" stroke="black" points="867.5,-382.5 867.5,-412.5 1039.5,-412.5 1039.5,-382.5 867.5,-382.5"/>
<text text-anchor="start" x="875.5" y="-400.5" font-family="Helvetica,sans-Serif" font-size="10.00">DynExpModule::LockinAmplifier</text>
<text text-anchor="middle" x="953.5" y="-389.5" font-family="Helvetica,sans-Serif" font-size="10.00">ControlConfigurator</text>
</a>
</g>
</g>
<!-- Node12&#45;&gt;Node15 -->
<g id="edge14" class="edge">
<title>Node12&#45;&gt;Node15</title>
<path fill="none" stroke="midnightblue" d="M741.87,-291.07C765.29,-313.15 809.9,-351.93 855,-373.5 862.16,-376.92 869.85,-379.89 877.66,-382.45"/>
<polygon fill="midnightblue" stroke="midnightblue" points="744.14,-288.4 734.5,-284.01 739.3,-293.45 744.14,-288.4"/>
</g>
<!-- Node16 -->
<g id="node16" class="node">
<title>Node16</title>
<g id="a_node16"><a xlink:href="classDynExpModule_1_1ODMR_1_1ODMRConfigurator.html" target="_top" xlink:title=" ">
<polygon fill="white" stroke="black" points="890,-333.5 890,-363.5 1017,-363.5 1017,-333.5 890,-333.5"/>
<text text-anchor="start" x="898" y="-351.5" font-family="Helvetica,sans-Serif" font-size="10.00">DynExpModule::ODMR</text>
<text text-anchor="middle" x="953.5" y="-340.5" font-family="Helvetica,sans-Serif" font-size="10.00">::ODMRConfigurator</text>
</a>
</g>
</g>
<!-- Node12&#45;&gt;Node16 -->
<g id="edge15" class="edge">
<title>Node12&#45;&gt;Node16</title>
<path fill="none" stroke="midnightblue" d="M756.62,-287.95C782.7,-298.73 820.84,-313.77 855,-324.5 866.14,-328 878.13,-331.31 889.76,-334.29"/>
<polygon fill="midnightblue" stroke="midnightblue" points="757.82,-284.66 747.24,-284.04 755.13,-291.12 757.82,-284.66"/>
</g>
<!-- Node17 -->
<g id="node17" class="node">
<title>Node17</title>
<g id="a_node17"><a xlink:href="classDynExpModule_1_1OutputPortWriterConfigurator.html" target="_top" xlink:title=" ">
<polygon fill="white" stroke="black" points="879,-284.5 879,-314.5 1028,-314.5 1028,-284.5 879,-284.5"/>
<text text-anchor="start" x="887" y="-302.5" font-family="Helvetica,sans-Serif" font-size="10.00">DynExpModule::OutputPort</text>
<text text-anchor="middle" x="953.5" y="-291.5" font-family="Helvetica,sans-Serif" font-size="10.00">WriterConfigurator</text>
</a>
</g>
</g>
<!-- Node12&#45;&gt;Node17 -->
<g id="edge16" class="edge">
<title>Node12&#45;&gt;Node17</title>
<path fill="none" stroke="midnightblue" d="M821.85,-285.14C840.88,-287.23 860.56,-289.4 878.7,-291.39"/>
<polygon fill="midnightblue" stroke="midnightblue" points="821.98,-281.64 811.66,-284.02 821.21,-288.59 821.98,-281.64"/>
</g>
<!-- Node18 -->
<g id="node18" class="node">
<title>Node18</title>
<g id="a_node18"><a xlink:href="classDynExpModule_1_1SignalDesignerConfigurator.html" target="_top" xlink:title=" ">
<polygon fill="white" stroke="black" points="868.5,-235.5 868.5,-265.5 1038.5,-265.5 1038.5,-235.5 868.5,-235.5"/>
<text text-anchor="start" x="876.5" y="-253.5" font-family="Helvetica,sans-Serif" font-size="10.00">DynExpModule::SignalDesigner</text>
<text text-anchor="middle" x="953.5" y="-242.5" font-family="Helvetica,sans-Serif" font-size="10.00">Configurator</text>
</a>
</g>
</g>
<!-- Node12&#45;&gt;Node18 -->
<g id="edge17" class="edge">
<title>Node12&#45;&gt;Node18</title>
<path fill="none" stroke="midnightblue" d="M825.57,-263.89C839.83,-262.39 854.38,-260.85 868.29,-259.38"/>
<polygon fill="midnightblue" stroke="midnightblue" points="824.82,-260.45 815.24,-264.98 825.55,-267.41 824.82,-260.45"/>
</g>
<!-- Node19 -->
<g id="node19" class="node">
<title>Node19</title>
<g id="a_node19"><a xlink:href="classDynExpModule_1_1SignalPlotterConfigurator.html" target="_top" xlink:title=" ">
<polygon fill="white" stroke="black" points="874.5,-186.5 874.5,-216.5 1032.5,-216.5 1032.5,-186.5 874.5,-186.5"/>
<text text-anchor="start" x="882.5" y="-204.5" font-family="Helvetica,sans-Serif" font-size="10.00">DynExpModule::SignalPlotter</text>
<text text-anchor="middle" x="953.5" y="-193.5" font-family="Helvetica,sans-Serif" font-size="10.00">Configurator</text>
</a>
</g>
</g>
<!-- Node12&#45;&gt;Node19 -->
<g id="edge18" class="edge">
<title>Node12&#45;&gt;Node19</title>
<path fill="none" stroke="midnightblue" d="M802.3,-262.04C808.06,-260.16 813.69,-257.99 819,-255.5 837.6,-246.77 836.63,-235.71 855,-226.5 862.66,-222.66 870.95,-219.38 879.36,-216.58"/>
<polygon fill="midnightblue" stroke="midnightblue" points="801.1,-258.74 792.52,-264.95 803.1,-265.45 801.1,-258.74"/>
</g>
<!-- Node20 -->
<g id="node20" class="node">
<title>Node20</title>
<g id="a_node20"><a xlink:href="classDynExpModule_1_1SpectrumViewer_1_1SpectrumViewerConfigurator.html" target="_top" xlink:title=" ">
<polygon fill="white" stroke="black" points="865.5,-137.5 865.5,-167.5 1041.5,-167.5 1041.5,-137.5 865.5,-137.5"/>
<text text-anchor="start" x="873.5" y="-155.5" font-family="Helvetica,sans-Serif" font-size="10.00">DynExpModule::SpectrumViewer</text>
<text text-anchor="middle" x="953.5" y="-144.5" font-family="Helvetica,sans-Serif" font-size="10.00">::SpectrumViewerConfigurator</text>
</a>
</g>
</g>
<!-- Node12&#45;&gt;Node20 -->
<g id="edge19" class="edge">
<title>Node12&#45;&gt;Node20</title>
<path fill="none" stroke="midnightblue" d="M812.36,-260.13C814.67,-258.72 816.89,-257.18 819,-255.5 849.21,-231.5 825.3,-201.13 855,-176.5 859.16,-173.05 863.74,-170.08 868.58,-167.54"/>
<polygon fill="midnightblue" stroke="midnightblue" points="810.32,-257.25 803.09,-264.99 813.57,-263.45 810.32,-257.25"/>
</g>
<!-- Node21 -->
<g id="node21" class="node">
<title>Node21</title>
<g id="a_node21"><a xlink:href="classDynExpModule_1_1Stage1DConfigurator.html" target="_top" xlink:title=" ">
<polygon fill="white" stroke="black" points="855,-99 855,-118 1052,-118 1052,-99 855,-99"/>
<text text-anchor="middle" x="953.5" y="-106" font-family="Helvetica,sans-Serif" font-size="10.00">DynExpModule::Stage1DConfigurator</text>
</a>
</g>
</g>
<!-- Node12&#45;&gt;Node21 -->
<g id="edge20" class="edge">
<title>Node12&#45;&gt;Node21</title>
<path fill="none" stroke="midnightblue" d="M814.26,-259.44C815.91,-258.21 817.49,-256.9 819,-255.5 862.32,-215.3 811.54,-167.55 855,-127.5 859.06,-123.76 863.63,-120.66 868.51,-118.09"/>
<polygon fill="midnightblue" stroke="midnightblue" points="812.18,-256.61 805.55,-264.87 815.88,-262.55 812.18,-256.61"/>
</g>
<!-- Node22 -->
<g id="node22" class="node">
<title>Node22</title>
<g id="a_node22"><a xlink:href="classDynExpModule_1_1Trajectory1DConfigurator.html" target="_top" xlink:title=" ">
<polygon fill="white" stroke="black" points="878.5,-49.5 878.5,-79.5 1028.5,-79.5 1028.5,-49.5 878.5,-49.5"/>
<text text-anchor="start" x="886.5" y="-67.5" font-family="Helvetica,sans-Serif" font-size="10.00">DynExpModule::Trajectory1</text>
<text text-anchor="middle" x="953.5" y="-56.5" font-family="Helvetica,sans-Serif" font-size="10.00">DConfigurator</text>
</a>
</g>
</g>
<!-- Node12&#45;&gt;Node22 -->
<g id="edge21" class="edge">
<title>Node12&#45;&gt;Node22</title>
<path fill="none" stroke="midnightblue" d="M814.91,-259.14C816.33,-258 817.7,-256.79 819,-255.5 872.76,-202.5 802.63,-143.87 855,-89.5 861.55,-82.7 869.67,-77.66 878.41,-73.94"/>
<polygon fill="midnightblue" stroke="midnightblue" points="812.63,-256.45 806.25,-264.91 816.51,-262.28 812.63,-256.45"/>
</g>
<!-- Node23 -->
<g id="node23" class="node">
<title>Node23</title>
<g id="a_node23"><a xlink:href="classDynExpModule_1_1Widefield_1_1WidefieldMicroscopeConfigurator.html" target="_top" xlink:title=" ">
<polygon fill="white" stroke="black" points="861.5,-0.5 861.5,-30.5 1045.5,-30.5 1045.5,-0.5 861.5,-0.5"/>
<text text-anchor="start" x="869.5" y="-18.5" font-family="Helvetica,sans-Serif" font-size="10.00">DynExpModule::Widefield</text>
<text text-anchor="middle" x="953.5" y="-7.5" font-family="Helvetica,sans-Serif" font-size="10.00">::WidefieldMicroscopeConfigurator</text>
</a>
</g>
</g>
<!-- Node12&#45;&gt;Node23 -->
<g id="edge22" class="edge">
<title>Node12&#45;&gt;Node23</title>
<path fill="none" stroke="midnightblue" d="M815.13,-259.11C816.47,-257.98 817.77,-256.78 819,-255.5 886.63,-185.51 788.85,-110.89 855,-39.5 858.08,-36.18 861.54,-33.28 865.27,-30.76"/>
<polygon fill="midnightblue" stroke="midnightblue" points="813.08,-256.27 806.89,-264.87 817.09,-262.01 813.08,-256.27"/>
</g>
</g>
</svg>
