<?xml version="1.0" encoding="UTF-8" standalone="no"?>
<!DOCTYPE svg PUBLIC "-//W3C//DTD SVG 1.1//EN"
 "http://www.w3.org/Graphics/SVG/1.1/DTD/svg11.dtd">
<!-- Generated by graphviz version 2.43.0 (0)
 -->
<!-- Title: DynExpModule::NetworkAnalogOutConfigurator&lt; gRPCServices &gt; Pages: 1 -->
<svg width="205pt" height="352pt"
 viewBox="0.00 0.00 205.00 352.00" xmlns="http://www.w3.org/2000/svg" xmlns:xlink="http://www.w3.org/1999/xlink">
<g id="graph0" class="graph" transform="scale(1 1) rotate(0) translate(4 348)">
<title>DynExpModule::NetworkAnalogOutConfigurator&lt; gRPCServices &gt;</title>
<polygon fill="white" stroke="transparent" points="-4,4 -4,-348 201,-348 201,4 -4,4"/>
<!-- Node1 -->
<g id="node1" class="node">
<title>Node1</title>
<g id="a_node1"><a xlink:title=" ">
<polygon fill="#bfbfbf" stroke="black" points="7,-0.5 7,-30.5 190,-30.5 190,-0.5 7,-0.5"/>
<text text-anchor="start" x="15" y="-18.5" font-family="Helvetica,sans-Serif" font-size="10.00">DynExpModule::NetworkAnalog</text>
<text text-anchor="middle" x="98.5" y="-7.5" font-family="Helvetica,sans-Serif" font-size="10.00">OutConfigurator&lt; gRPCServices &gt;</text>
</a>
</g>
</g>
<!-- Node2 -->
<g id="node2" class="node">
<title>Node2</title>
<g id="a_node2"><a xlink:href="classDynExpModule_1_1NetworkDataStreamInstrumentConfigurator.html" target="_top" xlink:title=" ">
<polygon fill="white" stroke="black" points="16,-67.5 16,-108.5 181,-108.5 181,-67.5 16,-67.5"/>
<text text-anchor="start" x="24" y="-96.5" font-family="Helvetica,sans-Serif" font-size="10.00">DynExpModule::NetworkData</text>
<text text-anchor="start" x="24" y="-85.5" font-family="Helvetica,sans-Serif" font-size="10.00">StreamInstrumentConfigurator</text>
<text text-anchor="middle" x="98.5" y="-74.5" font-family="Helvetica,sans-Serif" font-size="10.00">&lt; gRPCServices... &gt;</text>
</a>
</g>
</g>
<!-- Node2&#45;&gt;Node1 -->
<g id="edge1" class="edge">
<title>Node2&#45;&gt;Node1</title>
<path fill="none" stroke="midnightblue" d="M98.5,-57.08C98.5,-48.01 98.5,-38.45 98.5,-30.89"/>
<polygon fill="midnightblue" stroke="midnightblue" points="95,-57.36 98.5,-67.36 102,-57.36 95,-57.36"/>
</g>
<!-- Node3 -->
<g id="node3" class="node">
<title>Node3</title>
<g id="a_node3"><a xlink:href="classDynExpModule_1_1gRPCModuleConfigurator.html" target="_top" xlink:title=" ">
<polygon fill="white" stroke="black" points="11,-145.5 11,-175.5 186,-175.5 186,-145.5 11,-145.5"/>
<text text-anchor="start" x="19" y="-163.5" font-family="Helvetica,sans-Serif" font-size="10.00">DynExpModule::gRPCModule</text>
<text text-anchor="middle" x="98.5" y="-152.5" font-family="Helvetica,sans-Serif" font-size="10.00">Configurator&lt; gRPCServices... &gt;</text>
</a>
</g>
</g>
<!-- Node3&#45;&gt;Node2 -->
<g id="edge2" class="edge">
<title>Node3&#45;&gt;Node2</title>
<path fill="none" stroke="midnightblue" d="M98.5,-134.98C98.5,-126.35 98.5,-116.76 98.5,-108.59"/>
<polygon fill="midnightblue" stroke="midnightblue" points="95,-135.23 98.5,-145.23 102,-135.23 95,-135.23"/>
</g>
<!-- Node4 -->
<g id="node4" class="node">
<title>Node4</title>
<g id="a_node4"><a xlink:href="classDynExp_1_1ModuleConfiguratorBase.html" target="_top" xlink:title="Configurator class for ModuleBase.">
<polygon fill="white" stroke="black" points="8.5,-212.5 8.5,-231.5 188.5,-231.5 188.5,-212.5 8.5,-212.5"/>
<text text-anchor="middle" x="98.5" y="-219.5" font-family="Helvetica,sans-Serif" font-size="10.00">DynExp::ModuleConfiguratorBase</text>
</a>
</g>
</g>
<!-- Node4&#45;&gt;Node3 -->
<g id="edge3" class="edge">
<title>Node4&#45;&gt;Node3</title>
<path fill="none" stroke="midnightblue" d="M98.5,-202.23C98.5,-193.59 98.5,-183.5 98.5,-175.52"/>
<polygon fill="midnightblue" stroke="midnightblue" points="95,-202.48 98.5,-212.48 102,-202.48 95,-202.48"/>
</g>
<!-- Node5 -->
<g id="node5" class="node">
<title>Node5</title>
<g id="a_node5"><a xlink:href="classDynExp_1_1RunnableObjectConfigurator.html" target="_top" xlink:title="Configurator class for RunnableObject.">
<polygon fill="white" stroke="black" points="0,-268.5 0,-287.5 197,-287.5 197,-268.5 0,-268.5"/>
<text text-anchor="middle" x="98.5" y="-275.5" font-family="Helvetica,sans-Serif" font-size="10.00">DynExp::RunnableObjectConfigurator</text>
</a>
</g>
</g>
<!-- Node5&#45;&gt;Node4 -->
<g id="edge4" class="edge">
<title>Node5&#45;&gt;Node4</title>
<path fill="none" stroke="midnightblue" d="M98.5,-257.8C98.5,-248.91 98.5,-238.78 98.5,-231.75"/>
<polygon fill="midnightblue" stroke="midnightblue" points="95,-258.08 98.5,-268.08 102,-258.08 95,-258.08"/>
</g>
<!-- Node6 -->
<g id="node6" class="node">
<title>Node6</title>
<g id="a_node6"><a xlink:href="classDynExp_1_1ConfiguratorBase.html" target="_top" xlink:title="The configurator classes have the task to generate parameter objects (refer to DynExp::ParamsBase) of...">
<polygon fill="white" stroke="black" points="26.5,-324.5 26.5,-343.5 170.5,-343.5 170.5,-324.5 26.5,-324.5"/>
<text text-anchor="middle" x="98.5" y="-331.5" font-family="Helvetica,sans-Serif" font-size="10.00">DynExp::ConfiguratorBase</text>
</a>
</g>
</g>
<!-- Node6&#45;&gt;Node5 -->
<g id="edge5" class="edge">
<title>Node6&#45;&gt;Node5</title>
<path fill="none" stroke="midnightblue" d="M98.5,-313.8C98.5,-304.91 98.5,-294.78 98.5,-287.75"/>
<polygon fill="midnightblue" stroke="midnightblue" points="95,-314.08 98.5,-324.08 102,-314.08 95,-314.08"/>
</g>
</g>
</svg>
