<?xml version="1.0" encoding="UTF-8" standalone="no"?>
<!DOCTYPE svg PUBLIC "-//W3C//DTD SVG 1.1//EN"
 "http://www.w3.org/Graphics/SVG/1.1/DTD/svg11.dtd">
<!-- Generated by graphviz version 2.43.0 (0)
 -->
<!-- Title: DynExp::LinkBase Pages: 1 -->
<svg width="480pt" height="154pt"
 viewBox="0.00 0.00 480.00 154.00" xmlns="http://www.w3.org/2000/svg" xmlns:xlink="http://www.w3.org/1999/xlink">
<g id="graph0" class="graph" transform="scale(1 1) rotate(0) translate(4 150)">
<title>DynExp::LinkBase</title>
<polygon fill="white" stroke="transparent" points="-4,4 -4,-150 476,-150 476,4 -4,4"/>
<!-- Node1 -->
<g id="node1" class="node">
<title>Node1</title>
<g id="a_node1"><a xlink:title="Abstract base class of link parameters (to be saved in project files) describing relations between mu...">
<polygon fill="#bfbfbf" stroke="black" points="0,-62.5 0,-81.5 104,-81.5 104,-62.5 0,-62.5"/>
<text text-anchor="middle" x="52" y="-69.5" font-family="Helvetica,sans-Serif" font-size="10.00">DynExp::LinkBase</text>
</a>
</g>
</g>
<!-- Node2 -->
<g id="node2" class="node">
<title>Node2</title>
<g id="a_node2"><a xlink:href="classDynExp_1_1ParamsBase_1_1LinkListParamBase.html" target="_top" xlink:title="Base class for link list parameters to multiple Object of any (but all the same) type specifying the ...">
<polygon fill="white" stroke="black" points="140,-90 140,-120 260,-120 260,-90 140,-90"/>
<text text-anchor="start" x="148" y="-108" font-family="Helvetica,sans-Serif" font-size="10.00">DynExp::ParamsBase</text>
<text text-anchor="middle" x="200" y="-97" font-family="Helvetica,sans-Serif" font-size="10.00">::LinkListParamBase</text>
</a>
</g>
</g>
<!-- Node1&#45;&gt;Node2 -->
<g id="edge1" class="edge">
<title>Node1&#45;&gt;Node2</title>
<path fill="none" stroke="midnightblue" d="M105.27,-83.81C116.45,-86.34 128.34,-89.03 139.76,-91.61"/>
<polygon fill="midnightblue" stroke="midnightblue" points="105.75,-80.34 95.23,-81.54 104.21,-87.16 105.75,-80.34"/>
</g>
<!-- Node4 -->
<g id="node4" class="node">
<title>Node4</title>
<g id="a_node4"><a xlink:href="classDynExp_1_1ParamsBase_1_1LinkParamBase.html" target="_top" xlink:title="Base class for link parameters to a single Object of any type specifying the underlying parameter typ...">
<polygon fill="white" stroke="black" points="140,-33 140,-63 260,-63 260,-33 140,-33"/>
<text text-anchor="start" x="148" y="-51" font-family="Helvetica,sans-Serif" font-size="10.00">DynExp::ParamsBase</text>
<text text-anchor="middle" x="200" y="-40" font-family="Helvetica,sans-Serif" font-size="10.00">::LinkParamBase</text>
</a>
</g>
</g>
<!-- Node1&#45;&gt;Node4 -->
<g id="edge3" class="edge">
<title>Node1&#45;&gt;Node4</title>
<path fill="none" stroke="midnightblue" d="M114.01,-61.97C122.6,-60.56 131.41,-59.11 139.96,-57.7"/>
<polygon fill="midnightblue" stroke="midnightblue" points="113.36,-58.53 104.06,-63.61 114.5,-65.44 113.36,-58.53"/>
</g>
<!-- Node3 -->
<g id="node3" class="node">
<title>Node3</title>
<g id="a_node3"><a xlink:href="classDynExp_1_1ParamsBase_1_1ListParam_3_01LinkType_00_01std_1_1enable__if__t_3_01std_1_1is__basd243784fc46965d1256228ffb7d1529c.html" target="_top" xlink:title="Parameter for link lists to multiple Object. If LinkType is derived from ObjectLinkBase,...">
<polygon fill="white" stroke="black" points="296,-82.5 296,-145.5 472,-145.5 472,-82.5 296,-82.5"/>
<text text-anchor="start" x="304" y="-133.5" font-family="Helvetica,sans-Serif" font-size="10.00">DynExp::ParamsBase</text>
<text text-anchor="start" x="304" y="-122.5" font-family="Helvetica,sans-Serif" font-size="10.00">::ListParam&lt; LinkType,</text>
<text text-anchor="start" x="304" y="-111.5" font-family="Helvetica,sans-Serif" font-size="10.00"> std::enable_if_t&lt; std</text>
<text text-anchor="start" x="304" y="-100.5" font-family="Helvetica,sans-Serif" font-size="10.00">::is_base_of_v&lt; ObjectLinkBase,</text>
<text text-anchor="middle" x="384" y="-89.5" font-family="Helvetica,sans-Serif" font-size="10.00"> LinkType &gt; &gt; &gt;</text>
</a>
</g>
</g>
<!-- Node2&#45;&gt;Node3 -->
<g id="edge2" class="edge">
<title>Node2&#45;&gt;Node3</title>
<path fill="none" stroke="midnightblue" d="M270.16,-108.42C278.54,-108.83 287.19,-109.26 295.79,-109.69"/>
<polygon fill="midnightblue" stroke="midnightblue" points="270.25,-104.92 260.09,-107.92 269.91,-111.91 270.25,-104.92"/>
</g>
<!-- Node5 -->
<g id="node5" class="node">
<title>Node5</title>
<g id="a_node5"><a xlink:href="classDynExp_1_1ParamsBase_1_1Param_3_01LinkType_00_01std_1_1enable__if__t_3_01std_1_1is__base__odd85ddee3349917fa7e32c83ff1f8ec2.html" target="_top" xlink:title="Parameter for links to a single Object. If LinkType is derived from ObjectLinkBase,...">
<polygon fill="white" stroke="black" points="303.5,-0.5 303.5,-63.5 464.5,-63.5 464.5,-0.5 303.5,-0.5"/>
<text text-anchor="start" x="311.5" y="-51.5" font-family="Helvetica,sans-Serif" font-size="10.00">DynExp::ParamsBase</text>
<text text-anchor="start" x="311.5" y="-40.5" font-family="Helvetica,sans-Serif" font-size="10.00">::Param&lt; LinkType, std</text>
<text text-anchor="start" x="311.5" y="-29.5" font-family="Helvetica,sans-Serif" font-size="10.00">::enable_if_t&lt; std::is</text>
<text text-anchor="start" x="311.5" y="-18.5" font-family="Helvetica,sans-Serif" font-size="10.00">_base_of_v&lt; ObjectLinkBase,</text>
<text text-anchor="middle" x="384" y="-7.5" font-family="Helvetica,sans-Serif" font-size="10.00"> LinkType &gt; &gt; &gt;</text>
</a>
</g>
</g>
<!-- Node4&#45;&gt;Node5 -->
<g id="edge4" class="edge">
<title>Node4&#45;&gt;Node5</title>
<path fill="none" stroke="midnightblue" d="M270.3,-41.91C281.1,-40.96 292.34,-39.97 303.36,-39"/>
<polygon fill="midnightblue" stroke="midnightblue" points="269.75,-38.44 260.09,-42.81 270.36,-45.42 269.75,-38.44"/>
</g>
</g>
</svg>
