<?xml version="1.0" encoding="UTF-8" standalone="no"?>
<!DOCTYPE svg PUBLIC "-//W3C//DTD SVG 1.1//EN"
 "http://www.w3.org/Graphics/SVG/1.1/DTD/svg11.dtd">
<!-- Generated by graphviz version 2.43.0 (0)
 -->
<!-- Title: DynExpInstr::CircularDataStream&lt; SampleT, &gt; Pages: 1 -->
<svg width="172pt" height="225pt"
 viewBox="0.00 0.00 172.00 225.00" xmlns="http://www.w3.org/2000/svg" xmlns:xlink="http://www.w3.org/1999/xlink">
<g id="graph0" class="graph" transform="scale(1 1) rotate(0) translate(4 221)">
<title>DynExpInstr::CircularDataStream&lt; SampleT, &gt;</title>
<!-- Node1 -->
<g id="Node000001" class="node">
<title>Node1</title>
<g id="a_Node000001"><a xlink:title="Implements a circular data stream based on Util::circularbuf.">
<polygon fill="#999999" stroke="#666666" points="153.5,-96 10.5,-96 10.5,-66 153.5,-66 153.5,-96"/>
<text text-anchor="start" x="18.5" y="-84" font-family="Helvetica,sans-Serif" font-size="10.00">DynExpInstr::CircularData</text>
<text text-anchor="middle" x="82" y="-73" font-family="Helvetica,sans-Serif" font-size="10.00">Stream&lt; SampleT, &gt;</text>
</a>
</g>
</g>
<!-- Node4 -->
<g id="Node000004" class="node">
<title>Node4</title>
<g id="a_Node000004"><a xlink:href="classDynExpInstr_1_1NumericSampleStream.html" target="_top" xlink:title="Implements a circular data stream based on Util::circularbuf using samples of an arithmetic type Samp...">
<polygon fill="white" stroke="#666666" points="162,-30 2,-30 2,0 162,0 162,-30"/>
<text text-anchor="start" x="10" y="-18" font-family="Helvetica,sans-Serif" font-size="10.00">DynExpInstr::NumericSample</text>
<text text-anchor="middle" x="82" y="-7" font-family="Helvetica,sans-Serif" font-size="10.00">Stream&lt; SampleT, &gt;</text>
</a>
</g>
</g>
<!-- Node1&#45;&gt;Node4 -->
<g id="edge3_Node000001_Node000004" class="edge">
<title>Node1&#45;&gt;Node4</title>
<g id="a_edge3_Node000001_Node000004"><a xlink:title=" ">
<path fill="none" stroke="#63b8ff" d="M82,-55.54C82,-46.96 82,-37.61 82,-30.16"/>
<polygon fill="#63b8ff" stroke="#63b8ff" points="78.5,-55.8 82,-65.8 85.5,-55.8 78.5,-55.8"/>
</a>
</g>
</g>
<!-- Node2 -->
<g id="Node000002" class="node">
<title>Node2</title>
<g id="a_Node000002"><a xlink:href="classDynExpInstr_1_1CircularDataStreamBase.html" target="_top" xlink:title="Base class for all circular data streams based on Util::circularbuf.">
<polygon fill="white" stroke="#666666" points="153.5,-162 10.5,-162 10.5,-132 153.5,-132 153.5,-162"/>
<text text-anchor="start" x="18.5" y="-150" font-family="Helvetica,sans-Serif" font-size="10.00">DynExpInstr::CircularData</text>
<text text-anchor="middle" x="82" y="-139" font-family="Helvetica,sans-Serif" font-size="10.00">StreamBase</text>
</a>
</g>
</g>
<!-- Node2&#45;&gt;Node1 -->
<g id="edge1_Node000001_Node000002" class="edge">
<title>Node2&#45;&gt;Node1</title>
<g id="a_edge1_Node000001_Node000002"><a xlink:title=" ">
<path fill="none" stroke="#63b8ff" d="M82,-121.54C82,-112.96 82,-103.61 82,-96.16"/>
<polygon fill="#63b8ff" stroke="#63b8ff" points="78.5,-121.8 82,-131.8 85.5,-121.8 78.5,-121.8"/>
</a>
</g>
</g>
<!-- Node3 -->
<g id="Node000003" class="node">
<title>Node3</title>
<g id="a_Node000003"><a xlink:href="classDynExpInstr_1_1DataStreamBase.html" target="_top" xlink:title="Base class for all data streams compatible with the data stream instrument&#39;s data class DataStreamIns...">
<polygon fill="white" stroke="#666666" points="164,-217 0,-217 0,-198 164,-198 164,-217"/>
<text text-anchor="middle" x="82" y="-205" font-family="Helvetica,sans-Serif" font-size="10.00">DynExpInstr::DataStreamBase</text>
</a>
</g>
</g>
<!-- Node3&#45;&gt;Node2 -->
<g id="edge2_Node000002_Node000003" class="edge">
<title>Node3&#45;&gt;Node2</title>
<g id="a_edge2_Node000002_Node000003"><a xlink:title=" ">
<path fill="none" stroke="#63b8ff" d="M82,-187.65C82,-179.36 82,-169.78 82,-162.11"/>
<polygon fill="#63b8ff" stroke="#63b8ff" points="78.5,-187.87 82,-197.87 85.5,-187.87 78.5,-187.87"/>
</a>
</g>
</g>
</g>
</svg>
