<?xml version="1.0" encoding="UTF-8" standalone="no"?>
<!DOCTYPE svg PUBLIC "-//W3C//DTD SVG 1.1//EN"
 "http://www.w3.org/Graphics/SVG/1.1/DTD/svg11.dtd">
<!-- Generated by graphviz version 2.43.0 (0)
 -->
<!-- Title: DynExp::RunnableInstance Pages: 1 -->
<svg width="318pt" height="137pt"
 viewBox="0.00 0.00 318.00 137.00" xmlns="http://www.w3.org/2000/svg" xmlns:xlink="http://www.w3.org/1999/xlink">
<g id="graph0" class="graph" transform="scale(1 1) rotate(0) translate(4 133)">
<title>DynExp::RunnableInstance</title>
<!-- Node1 -->
<g id="Node000001" class="node">
<title>Node1</title>
<g id="a_Node000001"><a xlink:title="Defines data for a thread belonging to a RunnableObject instance. This data is only accessed by the R...">
<polygon fill="#999999" stroke="#666666" points="233,-74 86,-74 86,-55 233,-55 233,-74"/>
<text text-anchor="middle" x="159.5" y="-62" font-family="Helvetica,sans-Serif" font-size="10.00">DynExp::RunnableInstance</text>
</a>
</g>
</g>
<!-- Node3 -->
<g id="Node000003" class="node">
<title>Node3</title>
<g id="a_Node000003"><a xlink:href="classDynExp_1_1InstrumentInstance.html" target="_top" xlink:title="Defines data for a thread belonging to a InstrumentBase instance. Refer to RunnableInstance.">
<polygon fill="white" stroke="#666666" points="155,-19 0,-19 0,0 155,0 155,-19"/>
<text text-anchor="middle" x="77.5" y="-7" font-family="Helvetica,sans-Serif" font-size="10.00">DynExp::InstrumentInstance</text>
</a>
</g>
</g>
<!-- Node1&#45;&gt;Node3 -->
<g id="edge2_Node000001_Node000003" class="edge">
<title>Node1&#45;&gt;Node3</title>
<g id="a_edge2_Node000001_Node000003"><a xlink:title=" ">
<path fill="none" stroke="#63b8ff" d="M137.72,-49.42C122.84,-39.81 103.59,-27.37 90.91,-19.17"/>
<polygon fill="#63b8ff" stroke="#63b8ff" points="136.03,-52.5 146.33,-54.98 139.83,-46.62 136.03,-52.5"/>
</a>
</g>
</g>
<!-- Node4 -->
<g id="Node000004" class="node">
<title>Node4</title>
<g id="a_Node000004"><a xlink:href="classDynExp_1_1ModuleInstance.html" target="_top" xlink:title="Defines data for a thread belonging to a ModuleBase instance. Refer to RunnableInstance.">
<polygon fill="white" stroke="#666666" points="310,-19 173,-19 173,0 310,0 310,-19"/>
<text text-anchor="middle" x="241.5" y="-7" font-family="Helvetica,sans-Serif" font-size="10.00">DynExp::ModuleInstance</text>
</a>
</g>
</g>
<!-- Node1&#45;&gt;Node4 -->
<g id="edge3_Node000001_Node000004" class="edge">
<title>Node1&#45;&gt;Node4</title>
<g id="a_edge3_Node000001_Node000004"><a xlink:title=" ">
<path fill="none" stroke="#63b8ff" d="M181.28,-49.42C196.16,-39.81 215.41,-27.37 228.09,-19.17"/>
<polygon fill="#63b8ff" stroke="#63b8ff" points="179.17,-46.62 172.67,-54.98 182.97,-52.5 179.17,-46.62"/>
</a>
</g>
</g>
<!-- Node2 -->
<g id="Node000002" class="node">
<title>Node2</title>
<g id="a_Node000002"><a xlink:href="classUtil_1_1INonCopyable.html" target="_top" xlink:title="Interface to delete copy constructor and copy assignment operator and thus make derived classes non&#45;c...">
<polygon fill="white" stroke="#666666" points="213.5,-129 105.5,-129 105.5,-110 213.5,-110 213.5,-129"/>
<text text-anchor="middle" x="159.5" y="-117" font-family="Helvetica,sans-Serif" font-size="10.00">Util::INonCopyable</text>
</a>
</g>
</g>
<!-- Node2&#45;&gt;Node1 -->
<g id="edge1_Node000001_Node000002" class="edge">
<title>Node2&#45;&gt;Node1</title>
<g id="a_edge1_Node000001_Node000002"><a xlink:title=" ">
<path fill="none" stroke="#63b8ff" d="M159.5,-99.66C159.5,-90.93 159.5,-80.99 159.5,-74.09"/>
<polygon fill="#63b8ff" stroke="#63b8ff" points="156,-99.75 159.5,-109.75 163,-99.75 156,-99.75"/>
</a>
</g>
</g>
</g>
</svg>
