<?xml version="1.0" encoding="UTF-8" standalone="no"?>
<!DOCTYPE svg PUBLIC "-//W3C//DTD SVG 1.1//EN"
 "http://www.w3.org/Graphics/SVG/1.1/DTD/svg11.dtd">
<!-- Generated by graphviz version 2.43.0 (0)
 -->
<!-- Title: DynExp::ParamsBase::LinkParamBase Pages: 1 -->
<svg width="660pt" height="73pt"
 viewBox="0.00 0.00 660.00 72.50" xmlns="http://www.w3.org/2000/svg" xmlns:xlink="http://www.w3.org/1999/xlink">
<g id="graph0" class="graph" transform="scale(1 1) rotate(0) translate(4 68.5)">
<title>DynExp::ParamsBase::LinkParamBase</title>
<!-- Node1 -->
<g id="Node000001" class="node">
<title>Node1</title>
<g id="a_Node000001"><a xlink:title="Base class for link parameters to a single Object of any type specifying the underlying parameter typ...">
<polygon fill="#999999" stroke="#666666" points="455,-48 335,-48 335,-18 455,-18 455,-48"/>
<text text-anchor="start" x="343" y="-36" font-family="Helvetica,sans-Serif" font-size="10.00">DynExp::ParamsBase</text>
<text text-anchor="middle" x="395" y="-25" font-family="Helvetica,sans-Serif" font-size="10.00">::LinkParamBase</text>
</a>
</g>
</g>
<!-- Node5 -->
<g id="Node000005" class="node">
<title>Node5</title>
<g id="a_Node000005"><a xlink:href="classDynExp_1_1ParamsBase_1_1Param_3_01LinkType_00_01std_1_1enable__if__t_3_01std_1_1is__base__odd85ddee3349917fa7e32c83ff1f8ec2.html" target="_top" xlink:title="Parameter for links to a single Object. If LinkType is derived from ObjectLinkBase,...">
<polygon fill="white" stroke="#666666" points="652,-64.5 491,-64.5 491,-1.5 652,-1.5 652,-64.5"/>
<text text-anchor="start" x="499" y="-52.5" font-family="Helvetica,sans-Serif" font-size="10.00">DynExp::ParamsBase</text>
<text text-anchor="start" x="499" y="-41.5" font-family="Helvetica,sans-Serif" font-size="10.00">::Param&lt; LinkType, std</text>
<text text-anchor="start" x="499" y="-30.5" font-family="Helvetica,sans-Serif" font-size="10.00">::enable_if_t&lt; std::is</text>
<text text-anchor="start" x="499" y="-19.5" font-family="Helvetica,sans-Serif" font-size="10.00">_base_of_v&lt; ObjectLinkBase,</text>
<text text-anchor="middle" x="571.5" y="-8.5" font-family="Helvetica,sans-Serif" font-size="10.00"> LinkType &gt; &gt; &gt;</text>
</a>
</g>
</g>
<!-- Node1&#45;&gt;Node5 -->
<g id="edge4_Node000001_Node000005" class="edge">
<title>Node1&#45;&gt;Node5</title>
<g id="a_edge4_Node000001_Node000005"><a xlink:title=" ">
<path fill="none" stroke="#63b8ff" d="M465.18,-33C473.58,-33 482.21,-33 490.75,-33"/>
<polygon fill="#63b8ff" stroke="#63b8ff" points="465.08,-29.5 455.08,-33 465.08,-36.5 465.08,-29.5"/>
</a>
</g>
</g>
<!-- Node2 -->
<g id="Node000002" class="node">
<title>Node2</title>
<g id="a_Node000002"><a xlink:href="classDynExp_1_1LinkBase.html" target="_top" xlink:title="Abstract base class of link parameters (to be saved in project files) describing relations between mu...">
<polygon fill="white" stroke="#666666" points="279.5,-61.5 175.5,-61.5 175.5,-42.5 279.5,-42.5 279.5,-61.5"/>
<text text-anchor="middle" x="227.5" y="-49.5" font-family="Helvetica,sans-Serif" font-size="10.00">DynExp::LinkBase</text>
</a>
</g>
</g>
<!-- Node2&#45;&gt;Node1 -->
<g id="edge1_Node000001_Node000002" class="edge">
<title>Node2&#45;&gt;Node1</title>
<g id="a_edge1_Node000001_Node000002"><a xlink:title=" ">
<path fill="none" stroke="#63b8ff" d="M289.55,-44.99C304.31,-43.3 320.07,-41.49 334.75,-39.8"/>
<polygon fill="#63b8ff" stroke="#63b8ff" points="289.04,-41.53 279.51,-46.14 289.84,-48.48 289.04,-41.53"/>
</a>
</g>
</g>
<!-- Node3 -->
<g id="Node000003" class="node">
<title>Node3</title>
<g id="a_Node000003"><a xlink:href="classDynExp_1_1ParamsBase_1_1TypedParamBase.html" target="_top" xlink:title="Base class of parameters containing a single value.">
<polygon fill="white" stroke="#666666" points="299,-24.5 156,-24.5 156,-5.5 299,-5.5 299,-24.5"/>
<text text-anchor="middle" x="227.5" y="-12.5" font-family="Helvetica,sans-Serif" font-size="10.00">UnderlyingLinkParamType</text>
</a>
</g>
</g>
<!-- Node3&#45;&gt;Node1 -->
<g id="edge2_Node000001_Node000003" class="edge">
<title>Node3&#45;&gt;Node1</title>
<g id="a_edge2_Node000001_Node000003"><a xlink:title=" ">
<path fill="none" stroke="#63b8ff" d="M309.23,-23.78C317.84,-24.72 326.47,-25.66 334.76,-26.56"/>
<polygon fill="#63b8ff" stroke="#63b8ff" points="309.49,-20.29 299.17,-22.69 308.73,-27.25 309.49,-20.29"/>
</a>
</g>
</g>
<!-- Node4 -->
<g id="Node000004" class="node">
<title>Node4</title>
<g id="a_Node000004"><a xlink:href="classDynExp_1_1ParamsBase_1_1ParamBase.html" target="_top" xlink:title="Abstract base class for a single object parameter. Parameters derived from this class are automatical...">
<polygon fill="white" stroke="#666666" points="120,-30 0,-30 0,0 120,0 120,-30"/>
<text text-anchor="start" x="8" y="-18" font-family="Helvetica,sans-Serif" font-size="10.00">DynExp::ParamsBase</text>
<text text-anchor="middle" x="60" y="-7" font-family="Helvetica,sans-Serif" font-size="10.00">::ParamBase</text>
</a>
</g>
</g>
<!-- Node4&#45;&gt;Node3 -->
<g id="edge3_Node000003_Node000004" class="edge">
<title>Node4&#45;&gt;Node3</title>
<g id="a_edge3_Node000003_Node000004"><a xlink:title=" ">
<path fill="none" stroke="#63b8ff" d="M130.4,-15C138.79,-15 147.36,-15 155.77,-15"/>
<polygon fill="#63b8ff" stroke="#63b8ff" points="130.28,-11.5 120.28,-15 130.28,-18.5 130.28,-11.5"/>
</a>
</g>
</g>
</g>
</svg>
