<?xml version="1.0" encoding="UTF-8" standalone="no"?>
<!DOCTYPE svg PUBLIC "-//W3C//DTD SVG 1.1//EN"
 "http://www.w3.org/Graphics/SVG/1.1/DTD/svg11.dtd">
<!-- Generated by graphviz version 2.43.0 (0)
 -->
<!-- Title: DynExp::HardwareAdapterConfiguratorBase Pages: 1 -->
<svg width="1099pt" height="394pt"
 viewBox="0.00 0.00 1099.00 393.50" xmlns="http://www.w3.org/2000/svg" xmlns:xlink="http://www.w3.org/1999/xlink">
<g id="graph0" class="graph" transform="scale(1 1) rotate(0) translate(4 389.5)">
<title>DynExp::HardwareAdapterConfiguratorBase</title>
<polygon fill="white" stroke="transparent" points="-4,4 -4,-389.5 1095,-389.5 1095,4 -4,4"/>
<!-- Node1 -->
<g id="node1" class="node">
<title>Node1</title>
<g id="a_node1"><a xlink:title="Configurator class for HardwareAdapterBase.">
<polygon fill="#bfbfbf" stroke="black" points="180,-177 180,-196 410,-196 410,-177 180,-177"/>
<text text-anchor="middle" x="295" y="-184" font-family="Helvetica,sans-Serif" font-size="10.00">DynExp::HardwareAdapterConfiguratorBase</text>
</a>
</g>
</g>
<!-- Node3 -->
<g id="node3" class="node">
<title>Node3</title>
<g id="a_node3"><a xlink:href="classDynExpHardware_1_1gRPCHardwareAdapterConfigurator.html" target="_top" xlink:title=" ">
<polygon fill="white" stroke="black" points="462,-344 462,-385 642,-385 642,-344 462,-344"/>
<text text-anchor="start" x="470" y="-373" font-family="Helvetica,sans-Serif" font-size="10.00">DynExpHardware::gRPCHardware</text>
<text text-anchor="start" x="470" y="-362" font-family="Helvetica,sans-Serif" font-size="10.00">AdapterConfigurator&lt; pulse</text>
<text text-anchor="middle" x="552" y="-351" font-family="Helvetica,sans-Serif" font-size="10.00">_streamer::PulseStreamer &gt;</text>
</a>
</g>
</g>
<!-- Node1&#45;&gt;Node3 -->
<g id="edge2" class="edge">
<title>Node1&#45;&gt;Node3</title>
<path fill="none" stroke="midnightblue" d="M309.12,-204.11C332.96,-234.89 386.48,-298.53 446,-333.5 452.72,-337.45 459.98,-340.93 467.43,-343.98"/>
<polygon fill="midnightblue" stroke="midnightblue" points="311.79,-201.85 302.95,-196.01 306.22,-206.09 311.79,-201.85"/>
</g>
<!-- Node5 -->
<g id="node5" class="node">
<title>Node5</title>
<g id="a_node5"><a xlink:href="classDynExp_1_1SerialCommunicationHardwareAdapterConfigurator.html" target="_top" xlink:title="Configurator class for SerialCommunicationHardwareAdapter.">
<polygon fill="white" stroke="black" points="469.5,-294.5 469.5,-324.5 634.5,-324.5 634.5,-294.5 469.5,-294.5"/>
<text text-anchor="start" x="477.5" y="-312.5" font-family="Helvetica,sans-Serif" font-size="10.00">DynExp::SerialCommunication</text>
<text text-anchor="middle" x="552" y="-301.5" font-family="Helvetica,sans-Serif" font-size="10.00">HardwareAdapterConfigurator</text>
</a>
</g>
</g>
<!-- Node1&#45;&gt;Node5 -->
<g id="edge4" class="edge">
<title>Node1&#45;&gt;Node5</title>
<path fill="none" stroke="midnightblue" d="M315.65,-202.57C343.16,-224.29 395.46,-262.76 446,-284.5 454.87,-288.31 464.41,-291.6 474.01,-294.43"/>
<polygon fill="midnightblue" stroke="midnightblue" points="317.62,-199.67 307.63,-196.16 313.25,-205.13 317.62,-199.67"/>
</g>
<!-- Node9 -->
<g id="node9" class="node">
<title>Node9</title>
<g id="a_node9"><a xlink:href="classDynExpHardware_1_1NIDAQHardwareAdapterConfigurator.html" target="_top" xlink:title=" ">
<polygon fill="white" stroke="black" points="458.5,-245.5 458.5,-275.5 645.5,-275.5 645.5,-245.5 458.5,-245.5"/>
<text text-anchor="start" x="466.5" y="-263.5" font-family="Helvetica,sans-Serif" font-size="10.00">DynExpHardware::NIDAQHardware</text>
<text text-anchor="middle" x="552" y="-252.5" font-family="Helvetica,sans-Serif" font-size="10.00">AdapterConfigurator</text>
</a>
</g>
</g>
<!-- Node1&#45;&gt;Node9 -->
<g id="edge8" class="edge">
<title>Node1&#45;&gt;Node9</title>
<path fill="none" stroke="midnightblue" d="M332.58,-199.38C362.79,-209.79 406.91,-224.48 446,-235.5 458.26,-238.96 471.42,-242.34 484.13,-245.45"/>
<polygon fill="midnightblue" stroke="midnightblue" points="333.49,-195.99 322.89,-196.02 331.2,-202.61 333.49,-195.99"/>
</g>
<!-- Node10 -->
<g id="node10" class="node">
<title>Node10</title>
<g id="a_node10"><a xlink:href="classDynExpHardware_1_1PVCamHardwareAdapterConfigurator.html" target="_top" xlink:title=" ">
<polygon fill="white" stroke="black" points="457,-196.5 457,-226.5 647,-226.5 647,-196.5 457,-196.5"/>
<text text-anchor="start" x="465" y="-214.5" font-family="Helvetica,sans-Serif" font-size="10.00">DynExpHardware::PVCamHardware</text>
<text text-anchor="middle" x="552" y="-203.5" font-family="Helvetica,sans-Serif" font-size="10.00">AdapterConfigurator</text>
</a>
</g>
</g>
<!-- Node1&#45;&gt;Node10 -->
<g id="edge9" class="edge">
<title>Node1&#45;&gt;Node10</title>
<path fill="none" stroke="midnightblue" d="M403.47,-197.04C421.14,-198.77 439.34,-200.55 456.66,-202.25"/>
<polygon fill="midnightblue" stroke="midnightblue" points="403.43,-193.52 393.13,-196.02 402.74,-200.48 403.43,-193.52"/>
</g>
<!-- Node11 -->
<g id="node11" class="node">
<title>Node11</title>
<g id="a_node11"><a xlink:href="classDynExpHardware_1_1QutoolsTDCHardwareAdapterConfigurator.html" target="_top" xlink:title=" ">
<polygon fill="white" stroke="black" points="446,-147.5 446,-177.5 658,-177.5 658,-147.5 446,-147.5"/>
<text text-anchor="start" x="454" y="-165.5" font-family="Helvetica,sans-Serif" font-size="10.00">DynExpHardware::QutoolsTDCHardware</text>
<text text-anchor="middle" x="552" y="-154.5" font-family="Helvetica,sans-Serif" font-size="10.00">AdapterConfigurator</text>
</a>
</g>
</g>
<!-- Node1&#45;&gt;Node11 -->
<g id="edge10" class="edge">
<title>Node1&#45;&gt;Node11</title>
<path fill="none" stroke="midnightblue" d="M407.34,-176.02C420.11,-174.82 433.1,-173.6 445.79,-172.4"/>
<polygon fill="midnightblue" stroke="midnightblue" points="406.78,-172.56 397.15,-176.98 407.43,-179.53 406.78,-172.56"/>
</g>
<!-- Node12 -->
<g id="node12" class="node">
<title>Node12</title>
<g id="a_node12"><a xlink:href="classDynExpHardware_1_1SmarActHardwareAdapterConfigurator.html" target="_top" xlink:title=" ">
<polygon fill="white" stroke="black" points="454,-98.5 454,-128.5 650,-128.5 650,-98.5 454,-98.5"/>
<text text-anchor="start" x="462" y="-116.5" font-family="Helvetica,sans-Serif" font-size="10.00">DynExpHardware::SmarActHardware</text>
<text text-anchor="middle" x="552" y="-105.5" font-family="Helvetica,sans-Serif" font-size="10.00">AdapterConfigurator</text>
</a>
</g>
</g>
<!-- Node1&#45;&gt;Node12 -->
<g id="edge11" class="edge">
<title>Node1&#45;&gt;Node12</title>
<path fill="none" stroke="midnightblue" d="M332.28,-173.62C362.49,-163.15 406.74,-148.37 446,-137.5 457.26,-134.38 469.28,-131.35 481.02,-128.56"/>
<polygon fill="midnightblue" stroke="midnightblue" points="330.89,-170.4 322.6,-177 333.2,-177.01 330.89,-170.4"/>
</g>
<!-- Node13 -->
<g id="node13" class="node">
<title>Node13</title>
<g id="a_node13"><a xlink:href="classDynExpHardware_1_1ZILabOneHardwareAdapterConfigurator.html" target="_top" xlink:title=" ">
<polygon fill="white" stroke="black" points="471,-49.5 471,-79.5 633,-79.5 633,-49.5 471,-49.5"/>
<text text-anchor="start" x="479" y="-67.5" font-family="Helvetica,sans-Serif" font-size="10.00">DynExpHardware::ZILabOne</text>
<text text-anchor="middle" x="552" y="-56.5" font-family="Helvetica,sans-Serif" font-size="10.00">HardwareAdapterConfigurator</text>
</a>
</g>
</g>
<!-- Node1&#45;&gt;Node13 -->
<g id="edge12" class="edge">
<title>Node1&#45;&gt;Node13</title>
<path fill="none" stroke="midnightblue" d="M315.63,-170.36C343.1,-148.57 395.36,-110.01 446,-88.5 454,-85.1 462.56,-82.14 471.21,-79.58"/>
<polygon fill="midnightblue" stroke="midnightblue" points="313.21,-167.81 307.61,-176.8 317.6,-173.27 313.21,-167.81"/>
</g>
<!-- Node14 -->
<g id="node14" class="node">
<title>Node14</title>
<g id="a_node14"><a xlink:href="classDynExpHardware_1_1gRPCHardwareAdapterConfigurator.html" target="_top" xlink:title="Configurator class for gRPCHardwareAdapter.">
<polygon fill="white" stroke="black" points="459.5,-0.5 459.5,-30.5 644.5,-30.5 644.5,-0.5 459.5,-0.5"/>
<text text-anchor="start" x="467.5" y="-18.5" font-family="Helvetica,sans-Serif" font-size="10.00">DynExpHardware::gRPCHardware</text>
<text text-anchor="middle" x="552" y="-7.5" font-family="Helvetica,sans-Serif" font-size="10.00">AdapterConfigurator&lt; gRPCStub &gt;</text>
</a>
</g>
</g>
<!-- Node1&#45;&gt;Node14 -->
<g id="edge13" class="edge">
<title>Node1&#45;&gt;Node14</title>
<path fill="none" stroke="midnightblue" d="M308.9,-168.51C332.41,-137.13 385.42,-72.59 446,-39.5 452.32,-36.05 459.11,-33.09 466.09,-30.56"/>
<polygon fill="midnightblue" stroke="midnightblue" points="305.93,-166.64 302.82,-176.77 311.57,-170.79 305.93,-166.64"/>
</g>
<!-- Node2 -->
<g id="node2" class="node">
<title>Node2</title>
<g id="a_node2"><a xlink:href="classDynExp_1_1ConfiguratorBase.html" target="_top" xlink:title="The configurator classes have the task to generate parameter objects (refer to DynExp::ParamsBase) of...">
<polygon fill="white" stroke="black" points="0,-177 0,-196 144,-196 144,-177 0,-177"/>
<text text-anchor="middle" x="72" y="-184" font-family="Helvetica,sans-Serif" font-size="10.00">DynExp::ConfiguratorBase</text>
</a>
</g>
</g>
<!-- Node2&#45;&gt;Node1 -->
<g id="edge1" class="edge">
<title>Node2&#45;&gt;Node1</title>
<path fill="none" stroke="midnightblue" d="M154.25,-186.5C162.65,-186.5 171.28,-186.5 179.95,-186.5"/>
<polygon fill="midnightblue" stroke="midnightblue" points="154.14,-183 144.14,-186.5 154.14,-190 154.14,-183"/>
</g>
<!-- Node4 -->
<g id="node4" class="node">
<title>Node4</title>
<g id="a_node4"><a xlink:href="classDynExpHardware_1_1SIPulseStreamerHardwareAdapterConfigurator.html" target="_top" xlink:title=" ">
<polygon fill="white" stroke="black" points="694,-349.5 694,-379.5 882,-379.5 882,-349.5 694,-349.5"/>
<text text-anchor="start" x="702" y="-367.5" font-family="Helvetica,sans-Serif" font-size="10.00">DynExpHardware::SIPulseStreamer</text>
<text text-anchor="middle" x="788" y="-356.5" font-family="Helvetica,sans-Serif" font-size="10.00">HardwareAdapterConfigurator</text>
</a>
</g>
</g>
<!-- Node3&#45;&gt;Node4 -->
<g id="edge3" class="edge">
<title>Node3&#45;&gt;Node4</title>
<path fill="none" stroke="midnightblue" d="M652.53,-364.5C666.23,-364.5 680.26,-364.5 693.84,-364.5"/>
<polygon fill="midnightblue" stroke="midnightblue" points="652.13,-361 642.13,-364.5 652.13,-368 652.13,-361"/>
</g>
<!-- Node6 -->
<g id="node6" class="node">
<title>Node6</title>
<g id="a_node6"><a xlink:href="classDynExp_1_1QSerialCommunicationHardwareAdapterConfigurator.html" target="_top" xlink:title="Configurator class for QSerialCommunicationHardwareAdapter.">
<polygon fill="white" stroke="black" points="701.5,-294.5 701.5,-324.5 874.5,-324.5 874.5,-294.5 701.5,-294.5"/>
<text text-anchor="start" x="709.5" y="-312.5" font-family="Helvetica,sans-Serif" font-size="10.00">DynExp::QSerialCommunication</text>
<text text-anchor="middle" x="788" y="-301.5" font-family="Helvetica,sans-Serif" font-size="10.00">HardwareAdapterConfigurator</text>
</a>
</g>
</g>
<!-- Node5&#45;&gt;Node6 -->
<g id="edge5" class="edge">
<title>Node5&#45;&gt;Node6</title>
<path fill="none" stroke="midnightblue" d="M644.77,-309.5C663.42,-309.5 682.98,-309.5 701.41,-309.5"/>
<polygon fill="midnightblue" stroke="midnightblue" points="644.51,-306 634.51,-309.5 644.51,-313 644.51,-306"/>
</g>
<!-- Node7 -->
<g id="node7" class="node">
<title>Node7</title>
<g id="a_node7"><a xlink:href="classDynExp_1_1HardwareAdapterSerialPortConfigurator.html" target="_top" xlink:title="Configurator class for HardwareAdapterSerialPort.">
<polygon fill="white" stroke="black" points="918,-319.5 918,-349.5 1091,-349.5 1091,-319.5 918,-319.5"/>
<text text-anchor="start" x="926" y="-337.5" font-family="Helvetica,sans-Serif" font-size="10.00">DynExp::HardwareAdapterSerial</text>
<text text-anchor="middle" x="1004.5" y="-326.5" font-family="Helvetica,sans-Serif" font-size="10.00">PortConfigurator</text>
</a>
</g>
</g>
<!-- Node6&#45;&gt;Node7 -->
<g id="edge6" class="edge">
<title>Node6&#45;&gt;Node7</title>
<path fill="none" stroke="midnightblue" d="M884.78,-320.66C895.83,-321.95 907.04,-323.26 917.94,-324.53"/>
<polygon fill="midnightblue" stroke="midnightblue" points="885.04,-317.17 874.7,-319.49 884.23,-324.12 885.04,-317.17"/>
</g>
<!-- Node8 -->
<g id="node8" class="node">
<title>Node8</title>
<g id="a_node8"><a xlink:href="classDynExp_1_1HardwareAdapterTcpSocketConfigurator.html" target="_top" xlink:title="Configurator class for HardwareAdapterTcpSocket.">
<polygon fill="white" stroke="black" points="924,-270.5 924,-300.5 1085,-300.5 1085,-270.5 924,-270.5"/>
<text text-anchor="start" x="932" y="-288.5" font-family="Helvetica,sans-Serif" font-size="10.00">DynExp::HardwareAdapterTcp</text>
<text text-anchor="middle" x="1004.5" y="-277.5" font-family="Helvetica,sans-Serif" font-size="10.00">SocketConfigurator</text>
</a>
</g>
</g>
<!-- Node6&#45;&gt;Node8 -->
<g id="edge7" class="edge">
<title>Node6&#45;&gt;Node8</title>
<path fill="none" stroke="midnightblue" d="M884.66,-298.8C897.75,-297.33 911.08,-295.84 923.85,-294.41"/>
<polygon fill="midnightblue" stroke="midnightblue" points="884.25,-295.32 874.7,-299.91 885.03,-302.28 884.25,-295.32"/>
</g>
</g>
</svg>
