<?xml version="1.0" encoding="UTF-8" standalone="no"?>
<!DOCTYPE svg PUBLIC "-//W3C//DTD SVG 1.1//EN"
 "http://www.w3.org/Graphics/SVG/1.1/DTD/svg11.dtd">
<!-- Generated by graphviz version 2.43.0 (0)
 -->
<!-- Title: DynExpInstr::PositionerStage Pages: 1 -->
<svg width="473pt" height="247pt"
 viewBox="0.00 0.00 473.00 247.00" xmlns="http://www.w3.org/2000/svg" xmlns:xlink="http://www.w3.org/1999/xlink">
<g id="graph0" class="graph" transform="scale(1 1) rotate(0) translate(4 243)">
<title>DynExpInstr::PositionerStage</title>
<!-- Node1 -->
<g id="Node000001" class="node">
<title>Node1</title>
<g id="a_Node000001"><a xlink:title="Implementation of a meta instrument to control single&#45;axis positioner stages.">
<polygon fill="#999999" stroke="#666666" points="339.5,-74 181.5,-74 181.5,-55 339.5,-55 339.5,-74"/>
<text text-anchor="middle" x="260.5" y="-62" font-family="Helvetica,sans-Serif" font-size="10.00">DynExpInstr::PositionerStage</text>
</a>
</g>
</g>
<!-- Node6 -->
<g id="Node000006" class="node">
<title>Node6</title>
<g id="a_Node000006"><a xlink:href="classDynExpInstr_1_1NenionLeakvalveF3.html" target="_top" xlink:title=" ">
<polygon fill="white" stroke="#666666" points="179,-19 0,-19 0,0 179,0 179,-19"/>
<text text-anchor="middle" x="89.5" y="-7" font-family="Helvetica,sans-Serif" font-size="10.00">DynExpInstr::NenionLeakvalveF3</text>
</a>
</g>
</g>
<!-- Node1&#45;&gt;Node6 -->
<g id="edge5_Node000001_Node000006" class="edge">
<title>Node1&#45;&gt;Node6</title>
<g id="a_edge5_Node000001_Node000006"><a xlink:title=" ">
<path fill="none" stroke="#63b8ff" d="M223.16,-51.93C191.22,-42.03 145.98,-28.01 117.19,-19.08"/>
<polygon fill="#63b8ff" stroke="#63b8ff" points="222.44,-55.37 233.03,-54.98 224.51,-48.68 222.44,-55.37"/>
</a>
</g>
</g>
<!-- Node7 -->
<g id="Node000007" class="node">
<title>Node7</title>
<g id="a_Node000007"><a xlink:href="classDynExpInstr_1_1PI__C__862.html" target="_top" xlink:title=" ">
<polygon fill="white" stroke="#666666" points="323.5,-19 197.5,-19 197.5,0 323.5,0 323.5,-19"/>
<text text-anchor="middle" x="260.5" y="-7" font-family="Helvetica,sans-Serif" font-size="10.00">DynExpInstr::PI_C_862</text>
</a>
</g>
</g>
<!-- Node1&#45;&gt;Node7 -->
<g id="edge6_Node000001_Node000007" class="edge">
<title>Node1&#45;&gt;Node7</title>
<g id="a_edge6_Node000001_Node000007"><a xlink:title=" ">
<path fill="none" stroke="#63b8ff" d="M260.5,-44.66C260.5,-35.93 260.5,-25.99 260.5,-19.09"/>
<polygon fill="#63b8ff" stroke="#63b8ff" points="257,-44.75 260.5,-54.75 264,-44.75 257,-44.75"/>
</a>
</g>
</g>
<!-- Node8 -->
<g id="Node000008" class="node">
<title>Node8</title>
<g id="a_Node000008"><a xlink:href="classDynExpInstr_1_1SmarAct.html" target="_top" xlink:title=" ">
<polygon fill="white" stroke="#666666" points="465,-19 342,-19 342,0 465,0 465,-19"/>
<text text-anchor="middle" x="403.5" y="-7" font-family="Helvetica,sans-Serif" font-size="10.00">DynExpInstr::SmarAct</text>
</a>
</g>
</g>
<!-- Node1&#45;&gt;Node8 -->
<g id="edge7_Node000001_Node000008" class="edge">
<title>Node1&#45;&gt;Node8</title>
<g id="a_edge7_Node000001_Node000008"><a xlink:title=" ">
<path fill="none" stroke="#63b8ff" d="M293.09,-51.42C319.62,-41.59 356.43,-27.95 380.11,-19.17"/>
<polygon fill="#63b8ff" stroke="#63b8ff" points="291.64,-48.23 283.48,-54.98 294.07,-54.79 291.64,-48.23"/>
</a>
</g>
</g>
<!-- Node2 -->
<g id="Node000002" class="node">
<title>Node2</title>
<g id="a_Node000002"><a xlink:href="classDynExp_1_1InstrumentBase.html" target="_top" xlink:title="Base class for instruments. Instruments comprise virtual devices (meta instruments) and physial devic...">
<polygon fill="white" stroke="#666666" points="329,-129 192,-129 192,-110 329,-110 329,-129"/>
<text text-anchor="middle" x="260.5" y="-117" font-family="Helvetica,sans-Serif" font-size="10.00">DynExp::InstrumentBase</text>
</a>
</g>
</g>
<!-- Node2&#45;&gt;Node1 -->
<g id="edge1_Node000001_Node000002" class="edge">
<title>Node2&#45;&gt;Node1</title>
<g id="a_edge1_Node000001_Node000002"><a xlink:title=" ">
<path fill="none" stroke="#63b8ff" d="M260.5,-99.66C260.5,-90.93 260.5,-80.99 260.5,-74.09"/>
<polygon fill="#63b8ff" stroke="#63b8ff" points="257,-99.75 260.5,-109.75 264,-99.75 257,-99.75"/>
</a>
</g>
</g>
<!-- Node3 -->
<g id="Node000003" class="node">
<title>Node3</title>
<g id="a_Node000003"><a xlink:href="classDynExp_1_1RunnableObject.html" target="_top" xlink:title="Defines an Object which possesses a thread it runs in. The RunnableObject can be started and stopped ...">
<polygon fill="white" stroke="#666666" points="329,-184 192,-184 192,-165 329,-165 329,-184"/>
<text text-anchor="middle" x="260.5" y="-172" font-family="Helvetica,sans-Serif" font-size="10.00">DynExp::RunnableObject</text>
</a>
</g>
</g>
<!-- Node3&#45;&gt;Node2 -->
<g id="edge2_Node000002_Node000003" class="edge">
<title>Node3&#45;&gt;Node2</title>
<g id="a_edge2_Node000002_Node000003"><a xlink:title=" ">
<path fill="none" stroke="#63b8ff" d="M260.5,-154.66C260.5,-145.93 260.5,-135.99 260.5,-129.09"/>
<polygon fill="#63b8ff" stroke="#63b8ff" points="257,-154.75 260.5,-164.75 264,-154.75 257,-154.75"/>
</a>
</g>
</g>
<!-- Node4 -->
<g id="Node000004" class="node">
<title>Node4</title>
<g id="a_Node000004"><a xlink:href="classUtil_1_1INonCopyable.html" target="_top" xlink:title="Interface to delete copy constructor and copy assignment operator and thus make derived classes non&#45;c...">
<polygon fill="white" stroke="#666666" points="255.5,-239 147.5,-239 147.5,-220 255.5,-220 255.5,-239"/>
<text text-anchor="middle" x="201.5" y="-227" font-family="Helvetica,sans-Serif" font-size="10.00">Util::INonCopyable</text>
</a>
</g>
</g>
<!-- Node4&#45;&gt;Node3 -->
<g id="edge3_Node000003_Node000004" class="edge">
<title>Node4&#45;&gt;Node3</title>
<g id="a_edge3_Node000003_Node000004"><a xlink:title=" ">
<path fill="none" stroke="#63b8ff" d="M218.7,-213.04C229.17,-203.64 242.15,-191.98 250.85,-184.17"/>
<polygon fill="#63b8ff" stroke="#63b8ff" points="216.08,-210.7 210.98,-219.98 220.76,-215.91 216.08,-210.7"/>
</a>
</g>
</g>
<!-- Node5 -->
<g id="Node000005" class="node">
<title>Node5</title>
<g id="a_Node000005"><a xlink:href="classDynExp_1_1Object.html" target="_top" xlink:title="Base class for all DynExp Objects like hardware adapters (DynExp::HardwareAdapterBase),...">
<polygon fill="white" stroke="#666666" points="365.5,-239 273.5,-239 273.5,-220 365.5,-220 365.5,-239"/>
<text text-anchor="middle" x="319.5" y="-227" font-family="Helvetica,sans-Serif" font-size="10.00">DynExp::Object</text>
</a>
</g>
</g>
<!-- Node5&#45;&gt;Node3 -->
<g id="edge4_Node000003_Node000005" class="edge">
<title>Node5&#45;&gt;Node3</title>
<g id="a_edge4_Node000003_Node000005"><a xlink:title=" ">
<path fill="none" stroke="#63b8ff" d="M302.3,-213.04C291.83,-203.64 278.85,-191.98 270.15,-184.17"/>
<polygon fill="#63b8ff" stroke="#63b8ff" points="300.24,-215.91 310.02,-219.98 304.92,-210.7 300.24,-215.91"/>
</a>
</g>
</g>
</g>
</svg>
