<?xml version="1.0" encoding="UTF-8" standalone="no"?>
<!DOCTYPE svg PUBLIC "-//W3C//DTD SVG 1.1//EN"
 "http://www.w3.org/Graphics/SVG/1.1/DTD/svg11.dtd">
<!-- Generated by graphviz version 2.43.0 (0)
 -->
<!-- Title: DynExp::ExitTaskBase Pages: 1 -->
<svg width="1318pt" height="614pt"
 viewBox="0.00 0.00 1318.00 614.00" xmlns="http://www.w3.org/2000/svg" xmlns:xlink="http://www.w3.org/1999/xlink">
<g id="graph0" class="graph" transform="scale(1 1) rotate(0) translate(4 610)">
<title>DynExp::ExitTaskBase</title>
<!-- Node1 -->
<g id="Node000001" class="node">
<title>Node1</title>
<g id="a_Node000001"><a xlink:title="Defines a task for deinitializing an instrument within an instrument inheritance hierarchy....">
<polygon fill="#999999" stroke="#666666" points="267,-192.5 142,-192.5 142,-173.5 267,-173.5 267,-192.5"/>
<text text-anchor="middle" x="204.5" y="-180.5" font-family="Helvetica,sans-Serif" font-size="10.00">DynExp::ExitTaskBase</text>
</a>
</g>
</g>
<!-- Node3 -->
<g id="Node000003" class="node">
<title>Node3</title>
<g id="a_Node000003"><a xlink:href="classDynExpInstr_1_1CameraTasks_1_1ExitTask.html" target="_top" xlink:title="Defines a task for deinitializing an instrument within an instrument inheritance hierarchy....">
<polygon fill="white" stroke="#666666" points="473.5,-486 326.5,-486 326.5,-456 473.5,-456 473.5,-486"/>
<text text-anchor="start" x="334.5" y="-474" font-family="Helvetica,sans-Serif" font-size="10.00">DynExpInstr::CameraTasks</text>
<text text-anchor="middle" x="400" y="-463" font-family="Helvetica,sans-Serif" font-size="10.00">::ExitTask</text>
</a>
</g>
</g>
<!-- Node1&#45;&gt;Node3 -->
<g id="edge2_Node000001_Node000003" class="edge">
<title>Node1&#45;&gt;Node3</title>
<g id="a_edge2_Node000001_Node000003"><a xlink:title=" ">
<path fill="none" stroke="#63b8ff" d="M217.54,-200.93C252.89,-253.54 355.94,-406.91 388.8,-455.82"/>
<polygon fill="#63b8ff" stroke="#63b8ff" points="220.42,-198.93 211.94,-192.58 214.61,-202.83 220.42,-198.93"/>
</a>
</g>
</g>
<!-- Node6 -->
<g id="Node000006" class="node">
<title>Node6</title>
<g id="a_Node000006"><a xlink:href="classDynExpInstr_1_1DataStreamInstrumentTasks_1_1ExitTask.html" target="_top" xlink:title="Defines a task for deinitializing an instrument within an instrument inheritance hierarchy....">
<polygon fill="white" stroke="#666666" points="497,-270 303,-270 303,-240 497,-240 497,-270"/>
<text text-anchor="start" x="311" y="-258" font-family="Helvetica,sans-Serif" font-size="10.00">DynExpInstr::DataStreamInstrument</text>
<text text-anchor="middle" x="400" y="-247" font-family="Helvetica,sans-Serif" font-size="10.00">Tasks::ExitTask</text>
</a>
</g>
</g>
<!-- Node1&#45;&gt;Node6 -->
<g id="edge5_Node000001_Node000006" class="edge">
<title>Node1&#45;&gt;Node6</title>
<g id="a_edge5_Node000001_Node000006"><a xlink:title=" ">
<path fill="none" stroke="#63b8ff" d="M231.05,-197.45C250.35,-207.89 277.73,-221.74 303,-231 311.95,-234.28 321.54,-237.27 331.05,-239.93"/>
<polygon fill="#63b8ff" stroke="#63b8ff" points="232.72,-194.38 222.27,-192.63 229.36,-200.51 232.72,-194.38"/>
</a>
</g>
</g>
<!-- Node30 -->
<g id="Node000030" class="node">
<title>Node30</title>
<g id="a_Node000030"><a xlink:href="classDynExpInstr_1_1InterModuleCommunicatorTasks_1_1ExitTask.html" target="_top" xlink:title="Defines a task for deinitializing an instrument within an instrument inheritance hierarchy....">
<polygon fill="white" stroke="#666666" points="481,-222 319,-222 319,-192 481,-192 481,-222"/>
<text text-anchor="start" x="327" y="-210" font-family="Helvetica,sans-Serif" font-size="10.00">DynExpInstr::InterModule</text>
<text text-anchor="middle" x="400" y="-199" font-family="Helvetica,sans-Serif" font-size="10.00">CommunicatorTasks::ExitTask</text>
</a>
</g>
</g>
<!-- Node1&#45;&gt;Node30 -->
<g id="edge29_Node000001_Node000030" class="edge">
<title>Node1&#45;&gt;Node30</title>
<g id="a_edge29_Node000001_Node000030"><a xlink:title=" ">
<path fill="none" stroke="#63b8ff" d="M277.4,-191.92C290.87,-193.59 305.03,-195.35 318.74,-197.04"/>
<polygon fill="#63b8ff" stroke="#63b8ff" points="277.61,-188.42 267.26,-190.66 276.75,-195.36 277.61,-188.42"/>
</a>
</g>
</g>
<!-- Node31 -->
<g id="Node000031" class="node">
<title>Node31</title>
<g id="a_Node000031"><a xlink:href="classDynExpInstr_1_1LaserTasks_1_1ExitTask.html" target="_top" xlink:title="Defines a task for deinitializing an instrument within an instrument inheritance hierarchy....">
<polygon fill="white" stroke="#666666" points="467.5,-174 332.5,-174 332.5,-144 467.5,-144 467.5,-174"/>
<text text-anchor="start" x="340.5" y="-162" font-family="Helvetica,sans-Serif" font-size="10.00">DynExpInstr::LaserTasks</text>
<text text-anchor="middle" x="400" y="-151" font-family="Helvetica,sans-Serif" font-size="10.00">::ExitTask</text>
</a>
</g>
</g>
<!-- Node1&#45;&gt;Node31 -->
<g id="edge30_Node000001_Node000031" class="edge">
<title>Node1&#45;&gt;Node31</title>
<g id="a_edge30_Node000001_Node000031"><a xlink:title=" ">
<path fill="none" stroke="#63b8ff" d="M277.42,-174.08C295.45,-171.84 314.72,-169.45 332.48,-167.25"/>
<polygon fill="#63b8ff" stroke="#63b8ff" points="276.75,-170.64 267.26,-175.34 277.61,-177.58 276.75,-170.64"/>
</a>
</g>
</g>
<!-- Node32 -->
<g id="Node000032" class="node">
<title>Node32</title>
<g id="a_Node000032"><a xlink:href="classDynExpInstr_1_1PositionerStageTasks_1_1ExitTask.html" target="_top" xlink:title="Defines a task for deinitializing an instrument within an instrument inheritance hierarchy....">
<polygon fill="white" stroke="#666666" points="479,-126 321,-126 321,-96 479,-96 479,-126"/>
<text text-anchor="start" x="329" y="-114" font-family="Helvetica,sans-Serif" font-size="10.00">DynExpInstr::PositionerStage</text>
<text text-anchor="middle" x="400" y="-103" font-family="Helvetica,sans-Serif" font-size="10.00">Tasks::ExitTask</text>
</a>
</g>
</g>
<!-- Node1&#45;&gt;Node32 -->
<g id="edge31_Node000001_Node000032" class="edge">
<title>Node1&#45;&gt;Node32</title>
<g id="a_edge31_Node000001_Node000032"><a xlink:title=" ">
<path fill="none" stroke="#63b8ff" d="M231.05,-168.55C250.35,-158.11 277.73,-144.26 303,-135 311.95,-131.72 321.54,-128.73 331.05,-126.07"/>
<polygon fill="#63b8ff" stroke="#63b8ff" points="229.36,-165.49 222.27,-173.37 232.72,-171.62 229.36,-165.49"/>
</a>
</g>
</g>
<!-- Node37 -->
<g id="Node000037" class="node">
<title>Node37</title>
<g id="a_Node000037"><a xlink:href="classDynExpInstr_1_1SpectrometerTasks_1_1ExitTask.html" target="_top" xlink:title="Defines a task for deinitializing an instrument within an instrument inheritance hierarchy....">
<polygon fill="white" stroke="#666666" points="474,-78 326,-78 326,-48 474,-48 474,-78"/>
<text text-anchor="start" x="334" y="-66" font-family="Helvetica,sans-Serif" font-size="10.00">DynExpInstr::Spectrometer</text>
<text text-anchor="middle" x="400" y="-55" font-family="Helvetica,sans-Serif" font-size="10.00">Tasks::ExitTask</text>
</a>
</g>
</g>
<!-- Node1&#45;&gt;Node37 -->
<g id="edge36_Node000001_Node000037" class="edge">
<title>Node1&#45;&gt;Node37</title>
<g id="a_edge36_Node000001_Node000037"><a xlink:title=" ">
<path fill="none" stroke="#63b8ff" d="M218.52,-165.33C235.5,-143.57 267.31,-107.02 303,-87 310.12,-83.01 317.9,-79.67 325.85,-76.88"/>
<polygon fill="#63b8ff" stroke="#63b8ff" points="215.64,-163.33 212.37,-173.41 221.21,-167.57 215.64,-163.33"/>
</a>
</g>
</g>
<!-- Node2 -->
<g id="Node000002" class="node">
<title>Node2</title>
<g id="a_Node000002"><a xlink:href="classDynExp_1_1TaskBase.html" target="_top" xlink:title="Base class for all tasks being processed by instruments. The class must not contain public virtual fu...">
<polygon fill="white" stroke="#666666" points="106,-192.5 0,-192.5 0,-173.5 106,-173.5 106,-192.5"/>
<text text-anchor="middle" x="53" y="-180.5" font-family="Helvetica,sans-Serif" font-size="10.00">DynExp::TaskBase</text>
</a>
</g>
</g>
<!-- Node2&#45;&gt;Node1 -->
<g id="edge1_Node000001_Node000002" class="edge">
<title>Node2&#45;&gt;Node1</title>
<g id="a_edge1_Node000001_Node000002"><a xlink:title=" ">
<path fill="none" stroke="#63b8ff" d="M116.38,-183C124.77,-183 133.37,-183 141.75,-183"/>
<polygon fill="#63b8ff" stroke="#63b8ff" points="116.29,-179.5 106.29,-183 116.29,-186.5 116.29,-179.5"/>
</a>
</g>
</g>
<!-- Node4 -->
<g id="Node000004" class="node">
<title>Node4</title>
<g id="a_Node000004"><a xlink:href="classDynExpInstr_1_1DummyCameraTasks_1_1ExitTask.html" target="_top" xlink:title=" ">
<polygon fill="white" stroke="#666666" points="698.5,-534 539.5,-534 539.5,-504 698.5,-504 698.5,-534"/>
<text text-anchor="start" x="547.5" y="-522" font-family="Helvetica,sans-Serif" font-size="10.00">DynExpInstr::DummyCamera</text>
<text text-anchor="middle" x="619" y="-511" font-family="Helvetica,sans-Serif" font-size="10.00">Tasks::ExitTask</text>
</a>
</g>
</g>
<!-- Node3&#45;&gt;Node4 -->
<g id="edge3_Node000003_Node000004" class="edge">
<title>Node3&#45;&gt;Node4</title>
<g id="a_edge3_Node000003_Node000004"><a xlink:title=" ">
<path fill="none" stroke="#63b8ff" d="M478.91,-488.23C502.22,-493.39 527.57,-499 550.18,-504"/>
<polygon fill="#63b8ff" stroke="#63b8ff" points="479.58,-484.8 469.06,-486.06 478.07,-491.63 479.58,-484.8"/>
</a>
</g>
</g>
<!-- Node5 -->
<g id="Node000005" class="node">
<title>Node5</title>
<g id="a_Node000005"><a xlink:href="classDynExpInstr_1_1PVCamTasks_1_1ExitTask.html" target="_top" xlink:title=" ">
<polygon fill="white" stroke="#666666" points="691,-486 547,-486 547,-456 691,-456 691,-486"/>
<text text-anchor="start" x="555" y="-474" font-family="Helvetica,sans-Serif" font-size="10.00">DynExpInstr::PVCamTasks</text>
<text text-anchor="middle" x="619" y="-463" font-family="Helvetica,sans-Serif" font-size="10.00">::ExitTask</text>
</a>
</g>
</g>
<!-- Node3&#45;&gt;Node5 -->
<g id="edge4_Node000003_Node000005" class="edge">
<title>Node3&#45;&gt;Node5</title>
<g id="a_edge4_Node000003_Node000005"><a xlink:title=" ">
<path fill="none" stroke="#63b8ff" d="M483.68,-471C504.54,-471 526.75,-471 546.98,-471"/>
<polygon fill="#63b8ff" stroke="#63b8ff" points="483.56,-467.5 473.56,-471 483.56,-474.5 483.56,-467.5"/>
</a>
</g>
</g>
<!-- Node7 -->
<g id="Node000007" class="node">
<title>Node7</title>
<g id="a_Node000007"><a xlink:href="classDynExpInstr_1_1FunctionGeneratorTasks_1_1ExitTask.html" target="_top" xlink:title="Defines a task for deinitializing an instrument within an instrument inheritance hierarchy....">
<polygon fill="white" stroke="#666666" points="705,-438 533,-438 533,-408 705,-408 705,-438"/>
<text text-anchor="start" x="541" y="-426" font-family="Helvetica,sans-Serif" font-size="10.00">DynExpInstr::FunctionGenerator</text>
<text text-anchor="middle" x="619" y="-415" font-family="Helvetica,sans-Serif" font-size="10.00">Tasks::ExitTask</text>
</a>
</g>
</g>
<!-- Node6&#45;&gt;Node7 -->
<g id="edge6_Node000006_Node000007" class="edge">
<title>Node6&#45;&gt;Node7</title>
<g id="a_edge6_Node000006_Node000007"><a xlink:title=" ">
<path fill="none" stroke="#63b8ff" d="M428.72,-276.46C473.32,-310.99 559.91,-378.03 598.56,-407.95"/>
<polygon fill="#63b8ff" stroke="#63b8ff" points="430.69,-273.56 420.64,-270.21 426.4,-279.09 430.69,-273.56"/>
</a>
</g>
</g>
<!-- Node19 -->
<g id="Node000019" class="node">
<title>Node19</title>
<g id="a_Node000019"><a xlink:href="classDynExpInstr_1_1InputPortTasks_1_1ExitTask.html" target="_top" xlink:title="Defines a task for deinitializing an instrument within an instrument inheritance hierarchy....">
<polygon fill="white" stroke="#666666" points="695.5,-318 542.5,-318 542.5,-288 695.5,-288 695.5,-318"/>
<text text-anchor="start" x="550.5" y="-306" font-family="Helvetica,sans-Serif" font-size="10.00">DynExpInstr::InputPortTasks</text>
<text text-anchor="middle" x="619" y="-295" font-family="Helvetica,sans-Serif" font-size="10.00">::ExitTask</text>
</a>
</g>
</g>
<!-- Node6&#45;&gt;Node19 -->
<g id="edge18_Node000006_Node000019" class="edge">
<title>Node6&#45;&gt;Node19</title>
<g id="a_edge18_Node000006_Node000019"><a xlink:title=" ">
<path fill="none" stroke="#63b8ff" d="M478.91,-272.23C502.22,-277.39 527.57,-283 550.18,-288"/>
<polygon fill="#63b8ff" stroke="#63b8ff" points="479.58,-268.8 469.06,-270.06 478.07,-275.63 479.58,-268.8"/>
</a>
</g>
</g>
<!-- Node26 -->
<g id="Node000026" class="node">
<title>Node26</title>
<g id="a_Node000026"><a xlink:href="classDynExpInstr_1_1LockinAmplifierTasks_1_1ExitTask.html" target="_top" xlink:title="Defines a task for deinitializing an instrument within an instrument inheritance hierarchy....">
<polygon fill="white" stroke="#666666" points="698,-270 540,-270 540,-240 698,-240 698,-270"/>
<text text-anchor="start" x="548" y="-258" font-family="Helvetica,sans-Serif" font-size="10.00">DynExpInstr::LockinAmplifier</text>
<text text-anchor="middle" x="619" y="-247" font-family="Helvetica,sans-Serif" font-size="10.00">Tasks::ExitTask</text>
</a>
</g>
</g>
<!-- Node6&#45;&gt;Node26 -->
<g id="edge25_Node000006_Node000026" class="edge">
<title>Node6&#45;&gt;Node26</title>
<g id="a_edge25_Node000006_Node000026"><a xlink:title=" ">
<path fill="none" stroke="#63b8ff" d="M507.21,-255C518.2,-255 529.23,-255 539.84,-255"/>
<polygon fill="#63b8ff" stroke="#63b8ff" points="507.13,-251.5 497.13,-255 507.13,-258.5 507.13,-251.5"/>
</a>
</g>
</g>
<!-- Node28 -->
<g id="Node000028" class="node">
<title>Node28</title>
<g id="a_Node000028"><a xlink:href="classDynExpInstr_1_1TimeTaggerTasks_1_1ExitTask.html" target="_top" xlink:title="Defines a task for deinitializing an instrument within an instrument inheritance hierarchy....">
<polygon fill="white" stroke="#666666" points="702,-222 536,-222 536,-192 702,-192 702,-222"/>
<text text-anchor="start" x="544" y="-210" font-family="Helvetica,sans-Serif" font-size="10.00">DynExpInstr::TimeTaggerTasks</text>
<text text-anchor="middle" x="619" y="-199" font-family="Helvetica,sans-Serif" font-size="10.00">::ExitTask</text>
</a>
</g>
</g>
<!-- Node6&#45;&gt;Node28 -->
<g id="edge27_Node000006_Node000028" class="edge">
<title>Node6&#45;&gt;Node28</title>
<g id="a_edge27_Node000006_Node000028"><a xlink:title=" ">
<path fill="none" stroke="#63b8ff" d="M478.91,-237.77C502.22,-232.61 527.57,-227 550.18,-222"/>
<polygon fill="#63b8ff" stroke="#63b8ff" points="478.07,-234.37 469.06,-239.94 479.58,-241.2 478.07,-234.37"/>
</a>
</g>
</g>
<!-- Node8 -->
<g id="Node000008" class="node">
<title>Node8</title>
<g id="a_Node000008"><a xlink:href="classDynExpInstr_1_1DummyDataStreamInstrumentTasks_1_1ExitTask.html" target="_top" xlink:title=" ">
<polygon fill="white" stroke="#666666" points="921.5,-582 742.5,-582 742.5,-552 921.5,-552 921.5,-582"/>
<text text-anchor="start" x="750.5" y="-570" font-family="Helvetica,sans-Serif" font-size="10.00">DynExpInstr::DummyDataStream</text>
<text text-anchor="middle" x="832" y="-559" font-family="Helvetica,sans-Serif" font-size="10.00">InstrumentTasks::ExitTask</text>
</a>
</g>
</g>
<!-- Node7&#45;&gt;Node8 -->
<g id="edge7_Node000007_Node000008" class="edge">
<title>Node7&#45;&gt;Node8</title>
<g id="a_edge7_Node000007_Node000008"><a xlink:title=" ">
<path fill="none" stroke="#63b8ff" d="M701.01,-443.64C702.39,-444.7 703.72,-445.82 705,-447 738.54,-477.85 707.24,-512.4 741,-543 744.71,-546.37 748.85,-549.27 753.25,-551.77"/>
<polygon fill="#63b8ff" stroke="#63b8ff" points="702.92,-440.71 692.65,-438.11 699.06,-446.54 702.92,-440.71"/>
</a>
</g>
</g>
<!-- Node9 -->
<g id="Node000009" class="node">
<title>Node9</title>
<g id="a_Node000009"><a xlink:href="classDynExpInstr_1_1OutputPortTasks_1_1ExitTask.html" target="_top" xlink:title="Defines a task for deinitializing an instrument within an instrument inheritance hierarchy....">
<polygon fill="white" stroke="#666666" points="912.5,-534 751.5,-534 751.5,-504 912.5,-504 912.5,-534"/>
<text text-anchor="start" x="759.5" y="-522" font-family="Helvetica,sans-Serif" font-size="10.00">DynExpInstr::OutputPortTasks</text>
<text text-anchor="middle" x="832" y="-511" font-family="Helvetica,sans-Serif" font-size="10.00">::ExitTask</text>
</a>
</g>
</g>
<!-- Node7&#45;&gt;Node9 -->
<g id="edge8_Node000007_Node000009" class="edge">
<title>Node7&#45;&gt;Node9</title>
<g id="a_edge8_Node000007_Node000009"><a xlink:title=" ">
<path fill="none" stroke="#63b8ff" d="M697.59,-442.44C700.15,-443.86 702.63,-445.37 705,-447 726.99,-462.08 718.9,-480.08 741,-495 746.09,-498.44 751.66,-501.39 757.44,-503.91"/>
<polygon fill="#63b8ff" stroke="#63b8ff" points="699.14,-439.3 688.62,-438.02 696.04,-445.58 699.14,-439.3"/>
</a>
</g>
</g>
<!-- Node16 -->
<g id="Node000016" class="node">
<title>Node16</title>
<g id="a_Node000016"><a xlink:href="classDynExpInstr_1_1RS__SMB100BTasks_1_1ExitTask.html" target="_top" xlink:title=" ">
<polygon fill="white" stroke="#666666" points="918.5,-486 745.5,-486 745.5,-456 918.5,-456 918.5,-486"/>
<text text-anchor="start" x="753.5" y="-474" font-family="Helvetica,sans-Serif" font-size="10.00">DynExpInstr::RS_SMB100BTasks</text>
<text text-anchor="middle" x="832" y="-463" font-family="Helvetica,sans-Serif" font-size="10.00">::ExitTask</text>
</a>
</g>
</g>
<!-- Node7&#45;&gt;Node16 -->
<g id="edge15_Node000007_Node000016" class="edge">
<title>Node7&#45;&gt;Node16</title>
<g id="a_edge15_Node000007_Node000016"><a xlink:title=" ">
<path fill="none" stroke="#63b8ff" d="M696.06,-440.3C718.64,-445.44 743.17,-451.02 765.05,-456"/>
<polygon fill="#63b8ff" stroke="#63b8ff" points="696.71,-436.86 686.18,-438.06 695.16,-443.69 696.71,-436.86"/>
</a>
</g>
</g>
<!-- Node17 -->
<g id="Node000017" class="node">
<title>Node17</title>
<g id="a_Node000017"><a xlink:href="classDynExpInstr_1_1RS__SMC100ATasks_1_1ExitTask.html" target="_top" xlink:title=" ">
<polygon fill="white" stroke="#666666" points="918.5,-438 745.5,-438 745.5,-408 918.5,-408 918.5,-438"/>
<text text-anchor="start" x="753.5" y="-426" font-family="Helvetica,sans-Serif" font-size="10.00">DynExpInstr::RS_SMC100ATasks</text>
<text text-anchor="middle" x="832" y="-415" font-family="Helvetica,sans-Serif" font-size="10.00">::ExitTask</text>
</a>
</g>
</g>
<!-- Node7&#45;&gt;Node17 -->
<g id="edge16_Node000007_Node000017" class="edge">
<title>Node7&#45;&gt;Node17</title>
<g id="a_edge16_Node000007_Node000017"><a xlink:title=" ">
<path fill="none" stroke="#63b8ff" d="M715.23,-423C725.31,-423 735.51,-423 745.47,-423"/>
<polygon fill="#63b8ff" stroke="#63b8ff" points="715.21,-419.5 705.21,-423 715.21,-426.5 715.21,-419.5"/>
</a>
</g>
</g>
<!-- Node18 -->
<g id="Node000018" class="node">
<title>Node18</title>
<g id="a_Node000018"><a xlink:href="classDynExpInstr_1_1SwabianInstrumentsPulseStreamerTasks_1_1ExitTask.html" target="_top" xlink:title=" ">
<polygon fill="white" stroke="#666666" points="923,-390 741,-390 741,-360 923,-360 923,-390"/>
<text text-anchor="start" x="749" y="-378" font-family="Helvetica,sans-Serif" font-size="10.00">DynExpInstr::SwabianInstruments</text>
<text text-anchor="middle" x="832" y="-367" font-family="Helvetica,sans-Serif" font-size="10.00">PulseStreamerTasks::ExitTask</text>
</a>
</g>
</g>
<!-- Node7&#45;&gt;Node18 -->
<g id="edge17_Node000007_Node000018" class="edge">
<title>Node7&#45;&gt;Node18</title>
<g id="a_edge17_Node000007_Node000018"><a xlink:title=" ">
<path fill="none" stroke="#63b8ff" d="M696.06,-405.7C718.64,-400.56 743.17,-394.98 765.05,-390"/>
<polygon fill="#63b8ff" stroke="#63b8ff" points="695.16,-402.31 686.18,-407.94 696.71,-409.14 695.16,-402.31"/>
</a>
</g>
</g>
<!-- Node10 -->
<g id="Node000010" class="node">
<title>Node10</title>
<g id="a_Node000010"><a xlink:href="classDynExpInstr_1_1AnalogOutTasks_1_1ExitTask.html" target="_top" xlink:title="Defines a task for deinitializing an instrument within an instrument inheritance hierarchy....">
<polygon fill="white" stroke="#666666" points="1119,-558 959,-558 959,-528 1119,-528 1119,-558"/>
<text text-anchor="start" x="967" y="-546" font-family="Helvetica,sans-Serif" font-size="10.00">DynExpInstr::AnalogOutTasks</text>
<text text-anchor="middle" x="1039" y="-535" font-family="Helvetica,sans-Serif" font-size="10.00">::ExitTask</text>
</a>
</g>
</g>
<!-- Node9&#45;&gt;Node10 -->
<g id="edge9_Node000009_Node000010" class="edge">
<title>Node9&#45;&gt;Node10</title>
<g id="a_edge9_Node000009_Node000010"><a xlink:title=" ">
<path fill="none" stroke="#63b8ff" d="M922.61,-529.49C934.67,-530.9 946.97,-532.34 958.83,-533.73"/>
<polygon fill="#63b8ff" stroke="#63b8ff" points="922.89,-526 912.55,-528.31 922.08,-532.95 922.89,-526"/>
</a>
</g>
</g>
<!-- Node13 -->
<g id="Node000013" class="node">
<title>Node13</title>
<g id="a_Node000013"><a xlink:href="classDynExpInstr_1_1DigitalOutTasks_1_1ExitTask.html" target="_top" xlink:title="Defines a task for deinitializing an instrument within an instrument inheritance hierarchy....">
<polygon fill="white" stroke="#666666" points="1118,-510 960,-510 960,-480 1118,-480 1118,-510"/>
<text text-anchor="start" x="968" y="-498" font-family="Helvetica,sans-Serif" font-size="10.00">DynExpInstr::DigitalOutTasks</text>
<text text-anchor="middle" x="1039" y="-487" font-family="Helvetica,sans-Serif" font-size="10.00">::ExitTask</text>
</a>
</g>
</g>
<!-- Node9&#45;&gt;Node13 -->
<g id="edge12_Node000009_Node000013" class="edge">
<title>Node9&#45;&gt;Node13</title>
<g id="a_edge12_Node000009_Node000013"><a xlink:title=" ">
<path fill="none" stroke="#63b8ff" d="M922.83,-508.48C935.16,-507.04 947.74,-505.57 959.84,-504.15"/>
<polygon fill="#63b8ff" stroke="#63b8ff" points="922.08,-505.05 912.55,-509.69 922.89,-512 922.08,-505.05"/>
</a>
</g>
</g>
<!-- Node11 -->
<g id="Node000011" class="node">
<title>Node11</title>
<g id="a_Node000011"><a xlink:href="classDynExpInstr_1_1DummyAnalogOutTasks_1_1ExitTask.html" target="_top" xlink:title=" ">
<polygon fill="white" stroke="#666666" points="1310,-606 1155,-606 1155,-576 1310,-576 1310,-606"/>
<text text-anchor="start" x="1163" y="-594" font-family="Helvetica,sans-Serif" font-size="10.00">DynExpInstr::DummyAnalog</text>
<text text-anchor="middle" x="1232.5" y="-583" font-family="Helvetica,sans-Serif" font-size="10.00">OutTasks::ExitTask</text>
</a>
</g>
</g>
<!-- Node10&#45;&gt;Node11 -->
<g id="edge10_Node000010_Node000011" class="edge">
<title>Node10&#45;&gt;Node11</title>
<g id="a_edge10_Node000010_Node000011"><a xlink:title=" ">
<path fill="none" stroke="#63b8ff" d="M1109.86,-560.51C1130.12,-565.59 1152.06,-571.09 1171.65,-576"/>
<polygon fill="#63b8ff" stroke="#63b8ff" points="1110.62,-557.09 1100.07,-558.06 1108.92,-563.88 1110.62,-557.09"/>
</a>
</g>
</g>
<!-- Node12 -->
<g id="Node000012" class="node">
<title>Node12</title>
<g id="a_Node000012"><a xlink:href="classDynExpInstr_1_1NIDAQAnalogOutTasks_1_1ExitTask.html" target="_top" xlink:title=" ">
<polygon fill="white" stroke="#666666" points="1306.5,-558 1158.5,-558 1158.5,-528 1306.5,-528 1306.5,-558"/>
<text text-anchor="start" x="1166.5" y="-546" font-family="Helvetica,sans-Serif" font-size="10.00">DynExpInstr::NIDAQAnalog</text>
<text text-anchor="middle" x="1232.5" y="-535" font-family="Helvetica,sans-Serif" font-size="10.00">OutTasks::ExitTask</text>
</a>
</g>
</g>
<!-- Node10&#45;&gt;Node12 -->
<g id="edge11_Node000010_Node000012" class="edge">
<title>Node10&#45;&gt;Node12</title>
<g id="a_edge11_Node000010_Node000012"><a xlink:title=" ">
<path fill="none" stroke="#63b8ff" d="M1129.37,-543C1139.1,-543 1148.92,-543 1158.42,-543"/>
<polygon fill="#63b8ff" stroke="#63b8ff" points="1129.27,-539.5 1119.27,-543 1129.27,-546.5 1129.27,-539.5"/>
</a>
</g>
</g>
<!-- Node14 -->
<g id="Node000014" class="node">
<title>Node14</title>
<g id="a_Node000014"><a xlink:href="classDynExpInstr_1_1DummyDigitalOutTasks_1_1ExitTask.html" target="_top" xlink:title=" ">
<polygon fill="white" stroke="#666666" points="1309,-510 1156,-510 1156,-480 1309,-480 1309,-510"/>
<text text-anchor="start" x="1164" y="-498" font-family="Helvetica,sans-Serif" font-size="10.00">DynExpInstr::DummyDigital</text>
<text text-anchor="middle" x="1232.5" y="-487" font-family="Helvetica,sans-Serif" font-size="10.00">OutTasks::ExitTask</text>
</a>
</g>
</g>
<!-- Node13&#45;&gt;Node14 -->
<g id="edge13_Node000013_Node000014" class="edge">
<title>Node13&#45;&gt;Node14</title>
<g id="a_edge13_Node000013_Node000014"><a xlink:title=" ">
<path fill="none" stroke="#63b8ff" d="M1128.42,-495C1137.55,-495 1146.77,-495 1155.75,-495"/>
<polygon fill="#63b8ff" stroke="#63b8ff" points="1128.17,-491.5 1118.17,-495 1128.17,-498.5 1128.17,-491.5"/>
</a>
</g>
</g>
<!-- Node15 -->
<g id="Node000015" class="node">
<title>Node15</title>
<g id="a_Node000015"><a xlink:href="classDynExpInstr_1_1NIDAQDigitalOutTasks_1_1ExitTask.html" target="_top" xlink:title=" ">
<polygon fill="white" stroke="#666666" points="1305.5,-462 1159.5,-462 1159.5,-432 1305.5,-432 1305.5,-462"/>
<text text-anchor="start" x="1167.5" y="-450" font-family="Helvetica,sans-Serif" font-size="10.00">DynExpInstr::NIDAQDigital</text>
<text text-anchor="middle" x="1232.5" y="-439" font-family="Helvetica,sans-Serif" font-size="10.00">OutTasks::ExitTask</text>
</a>
</g>
</g>
<!-- Node13&#45;&gt;Node15 -->
<g id="edge14_Node000013_Node000015" class="edge">
<title>Node13&#45;&gt;Node15</title>
<g id="a_edge14_Node000013_Node000015"><a xlink:title=" ">
<path fill="none" stroke="#63b8ff" d="M1109.86,-477.49C1130.12,-472.41 1152.06,-466.91 1171.65,-462"/>
<polygon fill="#63b8ff" stroke="#63b8ff" points="1108.92,-474.12 1100.07,-479.94 1110.62,-480.91 1108.92,-474.12"/>
</a>
</g>
</g>
<!-- Node20 -->
<g id="Node000020" class="node">
<title>Node20</title>
<g id="a_Node000020"><a xlink:href="classDynExpInstr_1_1AnalogInTasks_1_1ExitTask.html" target="_top" xlink:title="Defines a task for deinitializing an instrument within an instrument inheritance hierarchy....">
<polygon fill="white" stroke="#666666" points="908,-342 756,-342 756,-312 908,-312 908,-342"/>
<text text-anchor="start" x="764" y="-330" font-family="Helvetica,sans-Serif" font-size="10.00">DynExpInstr::AnalogInTasks</text>
<text text-anchor="middle" x="832" y="-319" font-family="Helvetica,sans-Serif" font-size="10.00">::ExitTask</text>
</a>
</g>
</g>
<!-- Node19&#45;&gt;Node20 -->
<g id="edge19_Node000019_Node000020" class="edge">
<title>Node19&#45;&gt;Node20</title>
<g id="a_edge19_Node000019_Node000020"><a xlink:title=" ">
<path fill="none" stroke="#63b8ff" d="M705.82,-312.76C722.43,-314.65 739.71,-316.62 755.95,-318.46"/>
<polygon fill="#63b8ff" stroke="#63b8ff" points="705.91,-309.25 695.58,-311.6 705.12,-316.2 705.91,-309.25"/>
</a>
</g>
</g>
<!-- Node23 -->
<g id="Node000023" class="node">
<title>Node23</title>
<g id="a_Node000023"><a xlink:href="classDynExpInstr_1_1DigitalInTasks_1_1ExitTask.html" target="_top" xlink:title="Defines a task for deinitializing an instrument within an instrument inheritance hierarchy....">
<polygon fill="white" stroke="#666666" points="907,-294 757,-294 757,-264 907,-264 907,-294"/>
<text text-anchor="start" x="765" y="-282" font-family="Helvetica,sans-Serif" font-size="10.00">DynExpInstr::DigitalInTasks</text>
<text text-anchor="middle" x="832" y="-271" font-family="Helvetica,sans-Serif" font-size="10.00">::ExitTask</text>
</a>
</g>
</g>
<!-- Node19&#45;&gt;Node23 -->
<g id="edge22_Node000019_Node000023" class="edge">
<title>Node19&#45;&gt;Node23</title>
<g id="a_edge22_Node000019_Node000023"><a xlink:title=" ">
<path fill="none" stroke="#63b8ff" d="M705.94,-293.22C722.76,-291.31 740.26,-289.32 756.66,-287.46"/>
<polygon fill="#63b8ff" stroke="#63b8ff" points="705.12,-289.8 695.58,-294.4 705.91,-296.75 705.12,-289.8"/>
</a>
</g>
</g>
<!-- Node21 -->
<g id="Node000021" class="node">
<title>Node21</title>
<g id="a_Node000021"><a xlink:href="classDynExpInstr_1_1DummyAnalogInTasks_1_1ExitTask.html" target="_top" xlink:title=" ">
<polygon fill="white" stroke="#666666" points="1116.5,-390 961.5,-390 961.5,-360 1116.5,-360 1116.5,-390"/>
<text text-anchor="start" x="969.5" y="-378" font-family="Helvetica,sans-Serif" font-size="10.00">DynExpInstr::DummyAnalog</text>
<text text-anchor="middle" x="1039" y="-367" font-family="Helvetica,sans-Serif" font-size="10.00">InTasks::ExitTask</text>
</a>
</g>
</g>
<!-- Node20&#45;&gt;Node21 -->
<g id="edge20_Node000020_Node000021" class="edge">
<title>Node20&#45;&gt;Node21</title>
<g id="a_edge20_Node000020_Node000021"><a xlink:title=" ">
<path fill="none" stroke="#63b8ff" d="M907.19,-344.37C929.05,-349.49 952.77,-355.04 973.93,-360"/>
<polygon fill="#63b8ff" stroke="#63b8ff" points="907.84,-340.93 897.3,-342.06 906.24,-347.74 907.84,-340.93"/>
</a>
</g>
</g>
<!-- Node22 -->
<g id="Node000022" class="node">
<title>Node22</title>
<g id="a_Node000022"><a xlink:href="classDynExpInstr_1_1NIDAQAnalogInTasks_1_1ExitTask.html" target="_top" xlink:title=" ">
<polygon fill="white" stroke="#666666" points="1113,-342 965,-342 965,-312 1113,-312 1113,-342"/>
<text text-anchor="start" x="973" y="-330" font-family="Helvetica,sans-Serif" font-size="10.00">DynExpInstr::NIDAQAnalog</text>
<text text-anchor="middle" x="1039" y="-319" font-family="Helvetica,sans-Serif" font-size="10.00">InTasks::ExitTask</text>
</a>
</g>
</g>
<!-- Node20&#45;&gt;Node22 -->
<g id="edge21_Node000020_Node000022" class="edge">
<title>Node20&#45;&gt;Node22</title>
<g id="a_edge21_Node000020_Node000022"><a xlink:title=" ">
<path fill="none" stroke="#63b8ff" d="M918.26,-327C933.75,-327 949.79,-327 964.89,-327"/>
<polygon fill="#63b8ff" stroke="#63b8ff" points="918.17,-323.5 908.17,-327 918.17,-330.5 918.17,-323.5"/>
</a>
</g>
</g>
<!-- Node24 -->
<g id="Node000024" class="node">
<title>Node24</title>
<g id="a_Node000024"><a xlink:href="classDynExpInstr_1_1DummyDigitalInTasks_1_1ExitTask.html" target="_top" xlink:title=" ">
<polygon fill="white" stroke="#666666" points="1115.5,-294 962.5,-294 962.5,-264 1115.5,-264 1115.5,-294"/>
<text text-anchor="start" x="970.5" y="-282" font-family="Helvetica,sans-Serif" font-size="10.00">DynExpInstr::DummyDigital</text>
<text text-anchor="middle" x="1039" y="-271" font-family="Helvetica,sans-Serif" font-size="10.00">InTasks::ExitTask</text>
</a>
</g>
</g>
<!-- Node23&#45;&gt;Node24 -->
<g id="edge23_Node000023_Node000024" class="edge">
<title>Node23&#45;&gt;Node24</title>
<g id="a_edge23_Node000023_Node000024"><a xlink:title=" ">
<path fill="none" stroke="#63b8ff" d="M917.26,-279C932.2,-279 947.69,-279 962.38,-279"/>
<polygon fill="#63b8ff" stroke="#63b8ff" points="917.01,-275.5 907.01,-279 917.01,-282.5 917.01,-275.5"/>
</a>
</g>
</g>
<!-- Node25 -->
<g id="Node000025" class="node">
<title>Node25</title>
<g id="a_Node000025"><a xlink:href="classDynExpInstr_1_1NIDAQDigitalInTasks_1_1ExitTask.html" target="_top" xlink:title=" ">
<polygon fill="white" stroke="#666666" points="1112,-246 966,-246 966,-216 1112,-216 1112,-246"/>
<text text-anchor="start" x="974" y="-234" font-family="Helvetica,sans-Serif" font-size="10.00">DynExpInstr::NIDAQDigital</text>
<text text-anchor="middle" x="1039" y="-223" font-family="Helvetica,sans-Serif" font-size="10.00">InTasks::ExitTask</text>
</a>
</g>
</g>
<!-- Node23&#45;&gt;Node25 -->
<g id="edge24_Node000023_Node000025" class="edge">
<title>Node23&#45;&gt;Node25</title>
<g id="a_edge24_Node000023_Node000025"><a xlink:title=" ">
<path fill="none" stroke="#63b8ff" d="M907.19,-261.63C929.05,-256.51 952.77,-250.96 973.93,-246"/>
<polygon fill="#63b8ff" stroke="#63b8ff" points="906.24,-258.26 897.3,-263.94 907.84,-265.07 906.24,-258.26"/>
</a>
</g>
</g>
<!-- Node27 -->
<g id="Node000027" class="node">
<title>Node27</title>
<g id="a_Node000027"><a xlink:href="classDynExpInstr_1_1ZI__MFLITasks_1_1ExitTask.html" target="_top" xlink:title=" ">
<polygon fill="white" stroke="#666666" points="905.5,-246 758.5,-246 758.5,-216 905.5,-216 905.5,-246"/>
<text text-anchor="start" x="766.5" y="-234" font-family="Helvetica,sans-Serif" font-size="10.00">DynExpInstr::ZI_MFLITasks</text>
<text text-anchor="middle" x="832" y="-223" font-family="Helvetica,sans-Serif" font-size="10.00">::ExitTask</text>
</a>
</g>
</g>
<!-- Node26&#45;&gt;Node27 -->
<g id="edge26_Node000026_Node000027" class="edge">
<title>Node26&#45;&gt;Node27</title>
<g id="a_edge26_Node000026_Node000027"><a xlink:title=" ">
<path fill="none" stroke="#63b8ff" d="M708.53,-244.93C725.16,-243.04 742.37,-241.08 758.45,-239.25"/>
<polygon fill="#63b8ff" stroke="#63b8ff" points="707.81,-241.49 698.27,-246.1 708.6,-248.44 707.81,-241.49"/>
</a>
</g>
</g>
<!-- Node29 -->
<g id="Node000029" class="node">
<title>Node29</title>
<g id="a_Node000029"><a xlink:href="classDynExpInstr_1_1QutoolsQuTAGTasks_1_1ExitTask.html" target="_top" xlink:title=" ">
<polygon fill="white" stroke="#666666" points="921.5,-198 742.5,-198 742.5,-168 921.5,-168 921.5,-198"/>
<text text-anchor="start" x="750.5" y="-186" font-family="Helvetica,sans-Serif" font-size="10.00">DynExpInstr::QutoolsQuTAGTasks</text>
<text text-anchor="middle" x="832" y="-175" font-family="Helvetica,sans-Serif" font-size="10.00">::ExitTask</text>
</a>
</g>
</g>
<!-- Node28&#45;&gt;Node29 -->
<g id="edge28_Node000028_Node000029" class="edge">
<title>Node28&#45;&gt;Node29</title>
<g id="a_edge28_Node000028_Node000029"><a xlink:title=" ">
<path fill="none" stroke="#63b8ff" d="M712.16,-196.52C722.2,-195.38 732.41,-194.21 742.41,-193.08"/>
<polygon fill="#63b8ff" stroke="#63b8ff" points="711.72,-193.04 702.18,-197.65 712.51,-200 711.72,-193.04"/>
</a>
</g>
</g>
<!-- Node33 -->
<g id="Node000033" class="node">
<title>Node33</title>
<g id="a_Node000033"><a xlink:href="classDynExpInstr_1_1NP__Conex__CC__Tasks_1_1ExitTask.html" target="_top" xlink:title=" ">
<polygon fill="white" stroke="#666666" points="684.5,-174 553.5,-174 553.5,-144 684.5,-144 684.5,-174"/>
<text text-anchor="start" x="561.5" y="-162" font-family="Helvetica,sans-Serif" font-size="10.00">DynExpInstr::NP_Conex</text>
<text text-anchor="middle" x="619" y="-151" font-family="Helvetica,sans-Serif" font-size="10.00">_CC_Tasks::ExitTask</text>
</a>
</g>
</g>
<!-- Node32&#45;&gt;Node33 -->
<g id="edge32_Node000032_Node000033" class="edge">
<title>Node32&#45;&gt;Node33</title>
<g id="a_edge32_Node000032_Node000033"><a xlink:title=" ">
<path fill="none" stroke="#63b8ff" d="M478.97,-128.25C503.29,-133.63 529.83,-139.5 553.14,-144.65"/>
<polygon fill="#63b8ff" stroke="#63b8ff" points="479.58,-124.8 469.06,-126.06 478.07,-131.63 479.58,-124.8"/>
</a>
</g>
</g>
<!-- Node34 -->
<g id="Node000034" class="node">
<title>Node34</title>
<g id="a_Node000034"><a xlink:href="classDynExpInstr_1_1NenionLeakvalveF3Tasks_1_1ExitTask.html" target="_top" xlink:title=" ">
<polygon fill="white" stroke="#666666" points="702.5,-126 535.5,-126 535.5,-96 702.5,-96 702.5,-126"/>
<text text-anchor="start" x="543.5" y="-114" font-family="Helvetica,sans-Serif" font-size="10.00">DynExpInstr::NenionLeakvalve</text>
<text text-anchor="middle" x="619" y="-103" font-family="Helvetica,sans-Serif" font-size="10.00">F3Tasks::ExitTask</text>
</a>
</g>
</g>
<!-- Node32&#45;&gt;Node34 -->
<g id="edge33_Node000032_Node000034" class="edge">
<title>Node32&#45;&gt;Node34</title>
<g id="a_edge33_Node000032_Node000034"><a xlink:title=" ">
<path fill="none" stroke="#63b8ff" d="M489.4,-111C504.53,-111 520.19,-111 535.16,-111"/>
<polygon fill="#63b8ff" stroke="#63b8ff" points="489.04,-107.5 479.04,-111 489.04,-114.5 489.04,-107.5"/>
</a>
</g>
</g>
<!-- Node35 -->
<g id="Node000035" class="node">
<title>Node35</title>
<g id="a_Node000035"><a xlink:href="classDynExpInstr_1_1PI__C__862__Tasks_1_1ExitTask.html" target="_top" xlink:title=" ">
<polygon fill="white" stroke="#666666" points="682,-78 556,-78 556,-48 682,-48 682,-78"/>
<text text-anchor="start" x="564" y="-66" font-family="Helvetica,sans-Serif" font-size="10.00">DynExpInstr::PI_C_862</text>
<text text-anchor="middle" x="619" y="-55" font-family="Helvetica,sans-Serif" font-size="10.00">_Tasks::ExitTask</text>
</a>
</g>
</g>
<!-- Node32&#45;&gt;Node35 -->
<g id="edge34_Node000032_Node000035" class="edge">
<title>Node32&#45;&gt;Node35</title>
<g id="a_edge34_Node000032_Node000035"><a xlink:title=" ">
<path fill="none" stroke="#63b8ff" d="M478.96,-93.75C504.18,-88.18 531.78,-82.07 555.71,-76.78"/>
<polygon fill="#63b8ff" stroke="#63b8ff" points="478.07,-90.37 469.06,-95.94 479.58,-97.2 478.07,-90.37"/>
</a>
</g>
</g>
<!-- Node36 -->
<g id="Node000036" class="node">
<title>Node36</title>
<g id="a_Node000036"><a xlink:href="classDynExpInstr_1_1SmarActTasks_1_1ExitTask.html" target="_top" xlink:title=" ">
<polygon fill="white" stroke="#666666" points="694,-30 544,-30 544,0 694,0 694,-30"/>
<text text-anchor="start" x="552" y="-18" font-family="Helvetica,sans-Serif" font-size="10.00">DynExpInstr::SmarActTasks</text>
<text text-anchor="middle" x="619" y="-7" font-family="Helvetica,sans-Serif" font-size="10.00">::ExitTask</text>
</a>
</g>
</g>
<!-- Node32&#45;&gt;Node36 -->
<g id="edge35_Node000032_Node000036" class="edge">
<title>Node32&#45;&gt;Node36</title>
<g id="a_edge35_Node000032_Node000036"><a xlink:title=" ">
<path fill="none" stroke="#63b8ff" d="M488.5,-92.02C491.44,-90.48 494.28,-88.81 497,-87 519.22,-72.25 511.01,-54.08 533,-39 538.06,-35.53 543.61,-32.56 549.38,-30.02"/>
<polygon fill="#63b8ff" stroke="#63b8ff" points="487,-88.86 479.45,-96.29 489.99,-95.19 487,-88.86"/>
</a>
</g>
</g>
</g>
</svg>
