<?xml version="1.0" encoding="UTF-8" standalone="no"?>
<!DOCTYPE svg PUBLIC "-//W3C//DTD SVG 1.1//EN"
 "http://www.w3.org/Graphics/SVG/1.1/DTD/svg11.dtd">
<!-- Generated by graphviz version 2.43.0 (0)
 -->
<!-- Title: DynExpInstr::ZI_MFLITasks::UpdateTask Pages: 1 -->
<svg width="898pt" height="88pt"
 viewBox="0.00 0.00 898.00 88.00" xmlns="http://www.w3.org/2000/svg" xmlns:xlink="http://www.w3.org/1999/xlink">
<g id="graph0" class="graph" transform="scale(1 1) rotate(0) translate(4 84)">
<title>DynExpInstr::ZI_MFLITasks::UpdateTask</title>
<polygon fill="white" stroke="transparent" points="-4,4 -4,-84 894,-84 894,4 -4,4"/>
<!-- Node1 -->
<g id="node1" class="node">
<title>Node1</title>
<g id="a_node1"><a xlink:title=" ">
<polygon fill="#bfbfbf" stroke="black" points="743,-24.5 743,-54.5 890,-54.5 890,-24.5 743,-24.5"/>
<text text-anchor="start" x="751" y="-42.5" font-family="Helvetica,sans-Serif" font-size="10.00">DynExpInstr::ZI_MFLITasks</text>
<text text-anchor="middle" x="816.5" y="-31.5" font-family="Helvetica,sans-Serif" font-size="10.00">::UpdateTask</text>
</a>
</g>
</g>
<!-- Node2 -->
<g id="node2" class="node">
<title>Node2</title>
<g id="a_node2"><a xlink:href="classDynExpInstr_1_1LockinAmplifierTasks_1_1UpdateTask.html" target="_top" xlink:title="Defines a task for updating an instrument within an instrument inheritance hierarchy....">
<polygon fill="white" stroke="black" points="549,-49.5 549,-79.5 707,-79.5 707,-49.5 549,-49.5"/>
<text text-anchor="start" x="557" y="-67.5" font-family="Helvetica,sans-Serif" font-size="10.00">DynExpInstr::LockinAmplifier</text>
<text text-anchor="middle" x="628" y="-56.5" font-family="Helvetica,sans-Serif" font-size="10.00">Tasks::UpdateTask</text>
</a>
</g>
</g>
<!-- Node2&#45;&gt;Node1 -->
<g id="edge1" class="edge">
<title>Node2&#45;&gt;Node1</title>
<path fill="none" stroke="midnightblue" d="M717.1,-52.69C725.73,-51.53 734.41,-50.37 742.86,-49.24"/>
<polygon fill="midnightblue" stroke="midnightblue" points="716.46,-49.24 707.01,-54.04 717.39,-56.18 716.46,-49.24"/>
</g>
<!-- Node3 -->
<g id="node3" class="node">
<title>Node3</title>
<g id="a_node3"><a xlink:href="classDynExpInstr_1_1DataStreamInstrumentTasks_1_1UpdateTask.html" target="_top" xlink:title="Defines a task for updating an instrument within an instrument inheritance hierarchy....">
<polygon fill="white" stroke="black" points="319,-49.5 319,-79.5 513,-79.5 513,-49.5 319,-49.5"/>
<text text-anchor="start" x="327" y="-67.5" font-family="Helvetica,sans-Serif" font-size="10.00">DynExpInstr::DataStreamInstrument</text>
<text text-anchor="middle" x="416" y="-56.5" font-family="Helvetica,sans-Serif" font-size="10.00">Tasks::UpdateTask</text>
</a>
</g>
</g>
<!-- Node3&#45;&gt;Node2 -->
<g id="edge2" class="edge">
<title>Node3&#45;&gt;Node2</title>
<path fill="none" stroke="midnightblue" d="M523.23,-64.5C531.87,-64.5 540.5,-64.5 548.89,-64.5"/>
<polygon fill="midnightblue" stroke="midnightblue" points="523.09,-61 513.09,-64.5 523.09,-68 523.09,-61"/>
</g>
<!-- Node4 -->
<g id="node4" class="node">
<title>Node4</title>
<g id="a_node4"><a xlink:href="classDynExp_1_1UpdateTaskBase.html" target="_top" xlink:title="Defines a task for updating an instrument within an instrument inheritance hierarchy....">
<polygon fill="white" stroke="black" points="142,-55 142,-74 283,-74 283,-55 142,-55"/>
<text text-anchor="middle" x="212.5" y="-62" font-family="Helvetica,sans-Serif" font-size="10.00">DynExp::UpdateTaskBase</text>
</a>
</g>
</g>
<!-- Node4&#45;&gt;Node3 -->
<g id="edge3" class="edge">
<title>Node4&#45;&gt;Node3</title>
<path fill="none" stroke="midnightblue" d="M293.22,-64.5C301.6,-64.5 310.17,-64.5 318.71,-64.5"/>
<polygon fill="midnightblue" stroke="midnightblue" points="293.13,-61 283.13,-64.5 293.13,-68 293.13,-61"/>
</g>
<!-- Node5 -->
<g id="node5" class="node">
<title>Node5</title>
<g id="a_node5"><a xlink:href="classDynExp_1_1TaskBase.html" target="_top" xlink:title="Base class for all tasks being processed by instruments. The class must not contain public virtual fu...">
<polygon fill="white" stroke="black" points="0,-55 0,-74 106,-74 106,-55 0,-55"/>
<text text-anchor="middle" x="53" y="-62" font-family="Helvetica,sans-Serif" font-size="10.00">DynExp::TaskBase</text>
</a>
</g>
</g>
<!-- Node5&#45;&gt;Node4 -->
<g id="edge4" class="edge">
<title>Node5&#45;&gt;Node4</title>
<path fill="none" stroke="midnightblue" d="M116.14,-64.5C124.58,-64.5 133.29,-64.5 141.85,-64.5"/>
<polygon fill="midnightblue" stroke="midnightblue" points="116.01,-61 106.01,-64.5 116.01,-68 116.01,-61"/>
</g>
<!-- Node6 -->
<g id="node6" class="node">
<title>Node6</title>
<g id="a_node6"><a xlink:href="classDynExpInstr_1_1ZI__MFLITasks_1_1ZI__MFLITaskBase.html" target="_top" xlink:title=" ">
<polygon fill="white" stroke="black" points="554.5,-0.5 554.5,-30.5 701.5,-30.5 701.5,-0.5 554.5,-0.5"/>
<text text-anchor="start" x="562.5" y="-18.5" font-family="Helvetica,sans-Serif" font-size="10.00">DynExpInstr::ZI_MFLITasks</text>
<text text-anchor="middle" x="628" y="-7.5" font-family="Helvetica,sans-Serif" font-size="10.00">::ZI_MFLITaskBase</text>
</a>
</g>
</g>
<!-- Node6&#45;&gt;Node1 -->
<g id="edge5" class="edge">
<title>Node6&#45;&gt;Node1</title>
<path fill="none" stroke="#8b1a1a" d="M711.86,-26.16C722.16,-27.49 732.62,-28.83 742.75,-30.14"/>
<polygon fill="#8b1a1a" stroke="#8b1a1a" points="712,-22.65 701.64,-24.85 711.11,-29.6 712,-22.65"/>
</g>
</g>
</svg>
