<?xml version="1.0" encoding="UTF-8" standalone="no"?>
<!DOCTYPE svg PUBLIC "-//W3C//DTD SVG 1.1//EN"
 "http://www.w3.org/Graphics/SVG/1.1/DTD/svg11.dtd">
<!-- Generated by graphviz version 2.43.0 (0)
 -->
<!-- Title: DynExp::RunnableObjectConfigurator Pages: 1 -->
<svg width="1331pt" height="1129pt"
 viewBox="0.00 0.00 1331.00 1129.00" xmlns="http://www.w3.org/2000/svg" xmlns:xlink="http://www.w3.org/1999/xlink">
<g id="graph0" class="graph" transform="scale(1 1) rotate(0) translate(4 1125)">
<title>DynExp::RunnableObjectConfigurator</title>
<polygon fill="white" stroke="transparent" points="-4,4 -4,-1125 1327,-1125 1327,4 -4,4"/>
<!-- Node1 -->
<g id="node1" class="node">
<title>Node1</title>
<g id="a_node1"><a xlink:title="Configurator class for RunnableObject.">
<polygon fill="#bfbfbf" stroke="black" points="180,-470 180,-489 377,-489 377,-470 180,-470"/>
<text text-anchor="middle" x="278.5" y="-477" font-family="Helvetica,sans-Serif" font-size="10.00">DynExp::RunnableObjectConfigurator</text>
</a>
</g>
</g>
<!-- Node3 -->
<g id="node3" class="node">
<title>Node3</title>
<g id="a_node3"><a xlink:href="classDynExp_1_1InstrumentConfiguratorBase.html" target="_top" xlink:title="Configurator class for InstrumentBase.">
<polygon fill="white" stroke="black" points="413,-737 413,-756 610,-756 610,-737 413,-737"/>
<text text-anchor="middle" x="511.5" y="-744" font-family="Helvetica,sans-Serif" font-size="10.00">DynExp::InstrumentConfiguratorBase</text>
</a>
</g>
</g>
<!-- Node1&#45;&gt;Node3 -->
<g id="edge2" class="edge">
<title>Node1&#45;&gt;Node3</title>
<path fill="none" stroke="midnightblue" d="M294.52,-496.87C338.83,-548.07 467.98,-697.36 502.14,-736.83"/>
<polygon fill="midnightblue" stroke="midnightblue" points="296.91,-494.28 287.72,-489 291.62,-498.86 296.91,-494.28"/>
</g>
<!-- Node33 -->
<g id="node27" class="node">
<title>Node33</title>
<g id="a_node27"><a xlink:href="classDynExp_1_1ModuleConfiguratorBase.html" target="_top" xlink:title="Configurator class for ModuleBase.">
<polygon fill="white" stroke="black" points="421.5,-268 421.5,-287 601.5,-287 601.5,-268 421.5,-268"/>
<text text-anchor="middle" x="511.5" y="-275" font-family="Helvetica,sans-Serif" font-size="10.00">DynExp::ModuleConfiguratorBase</text>
</a>
</g>
</g>
<!-- Node1&#45;&gt;Node33 -->
<g id="edge26" class="edge">
<title>Node1&#45;&gt;Node33</title>
<path fill="none" stroke="midnightblue" d="M298.42,-462.95C344.77,-422.43 462.81,-319.2 499.47,-287.15"/>
<polygon fill="midnightblue" stroke="midnightblue" points="295.87,-460.54 290.64,-469.76 300.47,-465.81 295.87,-460.54"/>
</g>
<!-- Node2 -->
<g id="node2" class="node">
<title>Node2</title>
<g id="a_node2"><a xlink:href="classDynExp_1_1ConfiguratorBase.html" target="_top" xlink:title="The configurator classes have the task to generate parameter objects (refer to DynExp::ParamsBase) of...">
<polygon fill="white" stroke="black" points="0,-470 0,-489 144,-489 144,-470 0,-470"/>
<text text-anchor="middle" x="72" y="-477" font-family="Helvetica,sans-Serif" font-size="10.00">DynExp::ConfiguratorBase</text>
</a>
</g>
</g>
<!-- Node2&#45;&gt;Node1 -->
<g id="edge1" class="edge">
<title>Node2&#45;&gt;Node1</title>
<path fill="none" stroke="midnightblue" d="M154.36,-479.5C162.76,-479.5 171.35,-479.5 179.89,-479.5"/>
<polygon fill="midnightblue" stroke="midnightblue" points="154.24,-476 144.24,-479.5 154.24,-483 154.24,-476"/>
</g>
<!-- Node4 -->
<g id="node4" class="node">
<title>Node4</title>
<g id="a_node4"><a xlink:href="classDynExpInstr_1_1CameraConfigurator.html" target="_top" xlink:title="Configurator class for Camera.">
<polygon fill="white" stroke="black" points="653,-1020 653,-1039 833,-1039 833,-1020 653,-1020"/>
<text text-anchor="middle" x="743" y="-1027" font-family="Helvetica,sans-Serif" font-size="10.00">DynExpInstr::CameraConfigurator</text>
</a>
</g>
</g>
<!-- Node3&#45;&gt;Node4 -->
<g id="edge3" class="edge">
<title>Node3&#45;&gt;Node4</title>
<path fill="none" stroke="midnightblue" d="M526.85,-764.2C570.51,-818.03 700.75,-978.63 734.13,-1019.8"/>
<polygon fill="midnightblue" stroke="midnightblue" points="529.42,-761.8 520.4,-756.24 523.98,-766.21 529.42,-761.8"/>
</g>
<!-- Node7 -->
<g id="node7" class="node">
<title>Node7</title>
<g id="a_node7"><a xlink:href="classDynExpInstr_1_1DataStreamInstrumentConfigurator.html" target="_top" xlink:title="Configurator class for DataStreamInstrument.">
<polygon fill="white" stroke="black" points="646,-825.5 646,-855.5 840,-855.5 840,-825.5 646,-825.5"/>
<text text-anchor="start" x="654" y="-843.5" font-family="Helvetica,sans-Serif" font-size="10.00">DynExpInstr::DataStreamInstrument</text>
<text text-anchor="middle" x="743" y="-832.5" font-family="Helvetica,sans-Serif" font-size="10.00">Configurator</text>
</a>
</g>
</g>
<!-- Node3&#45;&gt;Node7 -->
<g id="edge6" class="edge">
<title>Node3&#45;&gt;Node7</title>
<path fill="none" stroke="midnightblue" d="M545.04,-759.83C587.29,-777.13 660.83,-807.25 705.1,-825.39"/>
<polygon fill="midnightblue" stroke="midnightblue" points="546.35,-756.58 535.77,-756.03 543.7,-763.06 546.35,-756.58"/>
</g>
<!-- Node27 -->
<g id="node21" class="node">
<title>Node27</title>
<g id="a_node21"><a xlink:href="classDynExpInstr_1_1InterModuleCommunicatorConfigurator.html" target="_top" xlink:title="Configurator class for InterModuleCommunicator.">
<polygon fill="white" stroke="black" points="668.5,-756.5 668.5,-786.5 817.5,-786.5 817.5,-756.5 668.5,-756.5"/>
<text text-anchor="start" x="676.5" y="-774.5" font-family="Helvetica,sans-Serif" font-size="10.00">DynExpInstr::InterModule</text>
<text text-anchor="middle" x="743" y="-763.5" font-family="Helvetica,sans-Serif" font-size="10.00">CommunicatorConfigurator</text>
</a>
</g>
</g>
<!-- Node3&#45;&gt;Node27 -->
<g id="edge20" class="edge">
<title>Node3&#45;&gt;Node27</title>
<path fill="none" stroke="midnightblue" d="M610.05,-757.13C629.55,-759.25 649.74,-761.45 668.28,-763.47"/>
<polygon fill="midnightblue" stroke="midnightblue" points="610.24,-753.63 599.92,-756.02 609.48,-760.59 610.24,-753.63"/>
</g>
<!-- Node28 -->
<g id="node22" class="node">
<title>Node28</title>
<g id="a_node22"><a xlink:href="classDynExpInstr_1_1PositionerStageConfigurator.html" target="_top" xlink:title="Configurator class for PositionerStage.">
<polygon fill="white" stroke="black" points="664,-707.5 664,-737.5 822,-737.5 822,-707.5 664,-707.5"/>
<text text-anchor="start" x="672" y="-725.5" font-family="Helvetica,sans-Serif" font-size="10.00">DynExpInstr::PositionerStage</text>
<text text-anchor="middle" x="743" y="-714.5" font-family="Helvetica,sans-Serif" font-size="10.00">Configurator</text>
</a>
</g>
</g>
<!-- Node3&#45;&gt;Node28 -->
<g id="edge21" class="edge">
<title>Node3&#45;&gt;Node28</title>
<path fill="none" stroke="midnightblue" d="M613.87,-735.9C630.57,-734.15 647.65,-732.37 663.68,-730.69"/>
<polygon fill="midnightblue" stroke="midnightblue" points="613.12,-732.46 603.53,-736.98 613.84,-739.42 613.12,-732.46"/>
</g>
<!-- Node32 -->
<g id="node26" class="node">
<title>Node32</title>
<g id="a_node26"><a xlink:href="classDynExpInstr_1_1SpectrometerConfigurator.html" target="_top" xlink:title="Configurator class for Spectrometer.">
<polygon fill="white" stroke="black" points="669,-658.5 669,-688.5 817,-688.5 817,-658.5 669,-658.5"/>
<text text-anchor="start" x="677" y="-676.5" font-family="Helvetica,sans-Serif" font-size="10.00">DynExpInstr::Spectrometer</text>
<text text-anchor="middle" x="743" y="-665.5" font-family="Helvetica,sans-Serif" font-size="10.00">Configurator</text>
</a>
</g>
</g>
<!-- Node3&#45;&gt;Node32 -->
<g id="edge25" class="edge">
<title>Node3&#45;&gt;Node32</title>
<path fill="none" stroke="midnightblue" d="M546.55,-733.29C573.36,-723.13 611.78,-709.08 646,-698.5 657.19,-695.04 669.21,-691.65 680.82,-688.55"/>
<polygon fill="midnightblue" stroke="midnightblue" points="544.98,-730.15 536.88,-736.98 547.47,-736.69 544.98,-730.15"/>
</g>
<!-- Node5 -->
<g id="node5" class="node">
<title>Node5</title>
<g id="a_node5"><a xlink:href="classDynExpInstr_1_1DummyCameraConfigurator.html" target="_top" xlink:title=" ">
<polygon fill="white" stroke="black" points="896,-1058.5 896,-1088.5 1055,-1088.5 1055,-1058.5 896,-1058.5"/>
<text text-anchor="start" x="904" y="-1076.5" font-family="Helvetica,sans-Serif" font-size="10.00">DynExpInstr::DummyCamera</text>
<text text-anchor="middle" x="975.5" y="-1065.5" font-family="Helvetica,sans-Serif" font-size="10.00">Configurator</text>
</a>
</g>
</g>
<!-- Node4&#45;&gt;Node5 -->
<g id="edge4" class="edge">
<title>Node4&#45;&gt;Node5</title>
<path fill="none" stroke="midnightblue" d="M804.04,-1040.96C831.99,-1046.3 865.61,-1052.71 895.58,-1058.43"/>
<polygon fill="midnightblue" stroke="midnightblue" points="804.49,-1037.48 794.02,-1039.05 803.18,-1044.36 804.49,-1037.48"/>
</g>
<!-- Node6 -->
<g id="node6" class="node">
<title>Node6</title>
<g id="a_node6"><a xlink:href="classDynExpInstr_1_1PVCamConfigurator.html" target="_top" xlink:title=" ">
<polygon fill="white" stroke="black" points="887,-1020 887,-1039 1064,-1039 1064,-1020 887,-1020"/>
<text text-anchor="middle" x="975.5" y="-1027" font-family="Helvetica,sans-Serif" font-size="10.00">DynExpInstr::PVCamConfigurator</text>
</a>
</g>
</g>
<!-- Node4&#45;&gt;Node6 -->
<g id="edge5" class="edge">
<title>Node4&#45;&gt;Node6</title>
<path fill="none" stroke="midnightblue" d="M843.52,-1029.5C857.91,-1029.5 872.63,-1029.5 886.76,-1029.5"/>
<polygon fill="midnightblue" stroke="midnightblue" points="843.12,-1026 833.12,-1029.5 843.12,-1033 843.12,-1026"/>
</g>
<!-- Node8 -->
<g id="node8" class="node">
<title>Node8</title>
<g id="a_node8"><a xlink:href="classDynExpInstr_1_1FunctionGeneratorConfigurator.html" target="_top" xlink:title="Configurator class for FunctionGenerator.">
<polygon fill="white" stroke="black" points="889.5,-970.5 889.5,-1000.5 1061.5,-1000.5 1061.5,-970.5 889.5,-970.5"/>
<text text-anchor="start" x="897.5" y="-988.5" font-family="Helvetica,sans-Serif" font-size="10.00">DynExpInstr::FunctionGenerator</text>
<text text-anchor="middle" x="975.5" y="-977.5" font-family="Helvetica,sans-Serif" font-size="10.00">Configurator</text>
</a>
</g>
</g>
<!-- Node7&#45;&gt;Node8 -->
<g id="edge7" class="edge">
<title>Node7&#45;&gt;Node8</title>
<path fill="none" stroke="midnightblue" d="M776.82,-861.14C823.8,-890.7 909.12,-944.37 950.59,-970.46"/>
<polygon fill="midnightblue" stroke="midnightblue" points="778.56,-858.11 768.23,-855.74 774.83,-864.03 778.56,-858.11"/>
</g>
<!-- Node18 -->
<g id="node14" class="node">
<title>Node18</title>
<g id="a_node14"><a xlink:href="classDynExpInstr_1_1InputPortConfigurator.html" target="_top" xlink:title="Configurator class for InputPort.">
<polygon fill="white" stroke="black" points="882.5,-875 882.5,-894 1068.5,-894 1068.5,-875 882.5,-875"/>
<text text-anchor="middle" x="975.5" y="-882" font-family="Helvetica,sans-Serif" font-size="10.00">DynExpInstr::InputPortConfigurator</text>
</a>
</g>
</g>
<!-- Node7&#45;&gt;Node18 -->
<g id="edge13" class="edge">
<title>Node7&#45;&gt;Node18</title>
<path fill="none" stroke="midnightblue" d="M832.7,-857.43C863.89,-863.39 897.82,-869.86 924.67,-874.99"/>
<polygon fill="midnightblue" stroke="midnightblue" points="833.16,-853.96 822.68,-855.52 831.85,-860.83 833.16,-853.96"/>
</g>
<!-- Node23 -->
<g id="node17" class="node">
<title>Node23</title>
<g id="a_node17"><a xlink:href="classDynExpInstr_1_1LockinAmplifierConfigurator.html" target="_top" xlink:title="Configurator class for LockinAmplifier.">
<polygon fill="white" stroke="black" points="896.5,-825.5 896.5,-855.5 1054.5,-855.5 1054.5,-825.5 896.5,-825.5"/>
<text text-anchor="start" x="904.5" y="-843.5" font-family="Helvetica,sans-Serif" font-size="10.00">DynExpInstr::LockinAmplifier</text>
<text text-anchor="middle" x="975.5" y="-832.5" font-family="Helvetica,sans-Serif" font-size="10.00">Configurator</text>
</a>
</g>
</g>
<!-- Node7&#45;&gt;Node23 -->
<g id="edge16" class="edge">
<title>Node7&#45;&gt;Node23</title>
<path fill="none" stroke="midnightblue" d="M850.26,-840.5C865.81,-840.5 881.59,-840.5 896.44,-840.5"/>
<polygon fill="midnightblue" stroke="midnightblue" points="850.08,-837 840.08,-840.5 850.08,-844 850.08,-837"/>
</g>
<!-- Node25 -->
<g id="node19" class="node">
<title>Node25</title>
<g id="a_node19"><a xlink:href="classDynExpInstr_1_1TimeTaggerConfigurator.html" target="_top" xlink:title="Configurator class for TimeTagger.">
<polygon fill="white" stroke="black" points="876,-787 876,-806 1075,-806 1075,-787 876,-787"/>
<text text-anchor="middle" x="975.5" y="-794" font-family="Helvetica,sans-Serif" font-size="10.00">DynExpInstr::TimeTaggerConfigurator</text>
</a>
</g>
</g>
<!-- Node7&#45;&gt;Node25 -->
<g id="edge18" class="edge">
<title>Node7&#45;&gt;Node25</title>
<path fill="none" stroke="midnightblue" d="M832.7,-823.57C863.89,-817.61 897.82,-811.14 924.67,-806.01"/>
<polygon fill="midnightblue" stroke="midnightblue" points="831.85,-820.17 822.68,-825.48 833.16,-827.04 831.85,-820.17"/>
</g>
<!-- Node9 -->
<g id="node9" class="node">
<title>Node9</title>
<g id="a_node9"><a xlink:href="classDynExpInstr_1_1DummyDataStreamInstrumentConfigurator.html" target="_top" xlink:title=" ">
<polygon fill="white" stroke="black" points="1127.5,-1090.5 1127.5,-1120.5 1306.5,-1120.5 1306.5,-1090.5 1127.5,-1090.5"/>
<text text-anchor="start" x="1135.5" y="-1108.5" font-family="Helvetica,sans-Serif" font-size="10.00">DynExpInstr::DummyDataStream</text>
<text text-anchor="middle" x="1217" y="-1097.5" font-family="Helvetica,sans-Serif" font-size="10.00">InstrumentConfigurator</text>
</a>
</g>
</g>
<!-- Node8&#45;&gt;Node9 -->
<g id="edge8" class="edge">
<title>Node8&#45;&gt;Node9</title>
<path fill="none" stroke="midnightblue" d="M1068.38,-1005.78C1070.67,-1007.25 1072.89,-1008.82 1075,-1010.5 1102.37,-1032.28 1083.47,-1058.92 1111,-1080.5 1116.01,-1084.43 1121.55,-1087.76 1127.38,-1090.57"/>
<polygon fill="midnightblue" stroke="midnightblue" points="1069.61,-1002.46 1059.18,-1000.63 1066.19,-1008.57 1069.61,-1002.46"/>
</g>
<!-- Node10 -->
<g id="node10" class="node">
<title>Node10</title>
<g id="a_node10"><a xlink:href="classDynExpInstr_1_1OutputPortConfigurator.html" target="_top" xlink:title="Configurator class for OutputPort.">
<polygon fill="white" stroke="red" points="1120,-1052 1120,-1071 1314,-1071 1314,-1052 1120,-1052"/>
<text text-anchor="middle" x="1217" y="-1059" font-family="Helvetica,sans-Serif" font-size="10.00">DynExpInstr::OutputPortConfigurator</text>
</a>
</g>
</g>
<!-- Node8&#45;&gt;Node10 -->
<g id="edge9" class="edge">
<title>Node8&#45;&gt;Node10</title>
<path fill="none" stroke="midnightblue" d="M1061.01,-1004.03C1065.84,-1005.98 1070.54,-1008.13 1075,-1010.5 1093.91,-1020.53 1091.75,-1033.13 1111,-1042.5 1119,-1046.39 1127.68,-1049.49 1136.53,-1051.96"/>
<polygon fill="midnightblue" stroke="midnightblue" points="1062.2,-1000.74 1051.61,-1000.51 1059.75,-1007.29 1062.2,-1000.74"/>
</g>
<!-- Node15 -->
<g id="node11" class="node">
<title>Node15</title>
<g id="a_node11"><a xlink:href="classDynExpInstr_1_1RS__SMB100BConfigurator.html" target="_top" xlink:title=" ">
<polygon fill="white" stroke="black" points="1114,-1014 1114,-1033 1320,-1033 1320,-1014 1114,-1014"/>
<text text-anchor="middle" x="1217" y="-1021" font-family="Helvetica,sans-Serif" font-size="10.00">DynExpInstr::RS_SMB100BConfigurator</text>
</a>
</g>
</g>
<!-- Node8&#45;&gt;Node15 -->
<g id="edge10" class="edge">
<title>Node8&#45;&gt;Node15</title>
<path fill="none" stroke="midnightblue" d="M1071.59,-1000.59C1100.04,-1005.1 1130.44,-1009.92 1155.97,-1013.98"/>
<polygon fill="midnightblue" stroke="midnightblue" points="1072.04,-997.11 1061.61,-999 1070.94,-1004.03 1072.04,-997.11"/>
</g>
<!-- Node16 -->
<g id="node12" class="node">
<title>Node16</title>
<g id="a_node12"><a xlink:href="classDynExpInstr_1_1RS__SMC100AConfigurator.html" target="_top" xlink:title=" ">
<polygon fill="white" stroke="black" points="1114,-976 1114,-995 1320,-995 1320,-976 1114,-976"/>
<text text-anchor="middle" x="1217" y="-983" font-family="Helvetica,sans-Serif" font-size="10.00">DynExpInstr::RS_SMC100AConfigurator</text>
</a>
</g>
</g>
<!-- Node8&#45;&gt;Node16 -->
<g id="edge11" class="edge">
<title>Node8&#45;&gt;Node16</title>
<path fill="none" stroke="midnightblue" d="M1071.64,-985.5C1085.55,-985.5 1099.91,-985.5 1113.95,-985.5"/>
<polygon fill="midnightblue" stroke="midnightblue" points="1071.61,-982 1061.61,-985.5 1071.61,-989 1071.61,-982"/>
</g>
<!-- Node17 -->
<g id="node13" class="node">
<title>Node17</title>
<g id="a_node13"><a xlink:href="classDynExpInstr_1_1SwabianInstrumentsPulseStreamerConfigurator.html" target="_top" xlink:title=" ">
<polygon fill="white" stroke="black" points="1126,-926.5 1126,-956.5 1308,-956.5 1308,-926.5 1126,-926.5"/>
<text text-anchor="start" x="1134" y="-944.5" font-family="Helvetica,sans-Serif" font-size="10.00">DynExpInstr::SwabianInstruments</text>
<text text-anchor="middle" x="1217" y="-933.5" font-family="Helvetica,sans-Serif" font-size="10.00">PulseStreamerConfigurator</text>
</a>
</g>
</g>
<!-- Node8&#45;&gt;Node17 -->
<g id="edge12" class="edge">
<title>Node8&#45;&gt;Node17</title>
<path fill="none" stroke="midnightblue" d="M1068.14,-968.66C1089.88,-964.67 1112.94,-960.43 1134.21,-956.53"/>
<polygon fill="midnightblue" stroke="midnightblue" points="1067.46,-965.23 1058.25,-970.48 1068.72,-972.12 1067.46,-965.23"/>
</g>
<!-- Node19 -->
<g id="node15" class="node">
<title>Node19</title>
<g id="a_node15"><a xlink:href="classDynExpInstr_1_1AnalogInConfigurator.html" target="_top" xlink:title="Configurator class for AnalogIn.">
<polygon fill="white" stroke="red" points="1124.5,-888 1124.5,-907 1309.5,-907 1309.5,-888 1124.5,-888"/>
<text text-anchor="middle" x="1217" y="-895" font-family="Helvetica,sans-Serif" font-size="10.00">DynExpInstr::AnalogInConfigurator</text>
</a>
</g>
</g>
<!-- Node18&#45;&gt;Node19 -->
<g id="edge14" class="edge">
<title>Node18&#45;&gt;Node19</title>
<path fill="none" stroke="midnightblue" d="M1079.07,-890.07C1094.06,-890.88 1109.43,-891.72 1124.19,-892.52"/>
<polygon fill="midnightblue" stroke="midnightblue" points="1078.93,-886.55 1068.75,-889.51 1078.55,-893.54 1078.93,-886.55"/>
</g>
<!-- Node21 -->
<g id="node16" class="node">
<title>Node21</title>
<g id="a_node16"><a xlink:href="classDynExpInstr_1_1DigitalInConfigurator.html" target="_top" xlink:title="Configurator class for DigitalIn.">
<polygon fill="white" stroke="red" points="1125.5,-850 1125.5,-869 1308.5,-869 1308.5,-850 1125.5,-850"/>
<text text-anchor="middle" x="1217" y="-857" font-family="Helvetica,sans-Serif" font-size="10.00">DynExpInstr::DigitalInConfigurator</text>
</a>
</g>
</g>
<!-- Node18&#45;&gt;Node21 -->
<g id="edge15" class="edge">
<title>Node18&#45;&gt;Node21</title>
<path fill="none" stroke="midnightblue" d="M1078,-873.9C1093.75,-872.26 1109.93,-870.57 1125.42,-868.95"/>
<polygon fill="midnightblue" stroke="midnightblue" points="1077.31,-870.46 1067.73,-874.98 1078.04,-877.42 1077.31,-870.46"/>
</g>
<!-- Node24 -->
<g id="node18" class="node">
<title>Node24</title>
<g id="a_node18"><a xlink:href="classDynExpInstr_1_1ZI__MFLIConfigurator.html" target="_top" xlink:title=" ">
<polygon fill="white" stroke="black" points="1127,-812 1127,-831 1307,-831 1307,-812 1127,-812"/>
<text text-anchor="middle" x="1217" y="-819" font-family="Helvetica,sans-Serif" font-size="10.00">DynExpInstr::ZI_MFLIConfigurator</text>
</a>
</g>
</g>
<!-- Node23&#45;&gt;Node24 -->
<g id="edge17" class="edge">
<title>Node23&#45;&gt;Node24</title>
<path fill="none" stroke="midnightblue" d="M1064.73,-833.5C1084.97,-831.89 1106.51,-830.19 1126.8,-828.58"/>
<polygon fill="midnightblue" stroke="midnightblue" points="1064.28,-830.03 1054.59,-834.3 1064.84,-837 1064.28,-830.03"/>
</g>
<!-- Node26 -->
<g id="node20" class="node">
<title>Node26</title>
<g id="a_node20"><a xlink:href="classDynExpInstr_1_1QutoolsQuTAGConfigurator.html" target="_top" xlink:title=" ">
<polygon fill="white" stroke="black" points="1111,-774 1111,-793 1323,-793 1323,-774 1111,-774"/>
<text text-anchor="middle" x="1217" y="-781" font-family="Helvetica,sans-Serif" font-size="10.00">DynExpInstr::QutoolsQuTAGConfigurator</text>
</a>
</g>
</g>
<!-- Node25&#45;&gt;Node26 -->
<g id="edge19" class="edge">
<title>Node25&#45;&gt;Node26</title>
<path fill="none" stroke="midnightblue" d="M1085.52,-790.58C1093.95,-790.13 1102.44,-789.66 1110.83,-789.21"/>
<polygon fill="midnightblue" stroke="midnightblue" points="1085.09,-787.1 1075.3,-791.14 1085.47,-794.09 1085.09,-787.1"/>
</g>
<!-- Node29 -->
<g id="node23" class="node">
<title>Node29</title>
<g id="a_node23"><a xlink:href="classDynExpInstr_1_1NenionLeakvalveF3Configurator.html" target="_top" xlink:title=" ">
<polygon fill="white" stroke="black" points="892,-737.5 892,-767.5 1059,-767.5 1059,-737.5 892,-737.5"/>
<text text-anchor="start" x="900" y="-755.5" font-family="Helvetica,sans-Serif" font-size="10.00">DynExpInstr::NenionLeakvalve</text>
<text text-anchor="middle" x="975.5" y="-744.5" font-family="Helvetica,sans-Serif" font-size="10.00">F3Configurator</text>
</a>
</g>
</g>
<!-- Node28&#45;&gt;Node29 -->
<g id="edge22" class="edge">
<title>Node28&#45;&gt;Node29</title>
<path fill="none" stroke="midnightblue" d="M832.17,-733.98C851.76,-736.52 872.45,-739.22 891.81,-741.74"/>
<polygon fill="midnightblue" stroke="midnightblue" points="832.4,-730.48 822.04,-732.66 831.5,-737.42 832.4,-730.48"/>
</g>
<!-- Node30 -->
<g id="node24" class="node">
<title>Node30</title>
<g id="a_node24"><a xlink:href="classDynExpInstr_1_1PI__C__862__Configurator.html" target="_top" xlink:title=" ">
<polygon fill="white" stroke="black" points="912.5,-688.5 912.5,-718.5 1038.5,-718.5 1038.5,-688.5 912.5,-688.5"/>
<text text-anchor="start" x="920.5" y="-706.5" font-family="Helvetica,sans-Serif" font-size="10.00">DynExpInstr::PI_C_862</text>
<text text-anchor="middle" x="975.5" y="-695.5" font-family="Helvetica,sans-Serif" font-size="10.00">_Configurator</text>
</a>
</g>
</g>
<!-- Node28&#45;&gt;Node30 -->
<g id="edge23" class="edge">
<title>Node28&#45;&gt;Node30</title>
<path fill="none" stroke="midnightblue" d="M832.15,-715.23C858.83,-713.03 887.57,-710.67 912.19,-708.64"/>
<polygon fill="midnightblue" stroke="midnightblue" points="831.72,-711.76 822.04,-716.07 832.29,-718.73 831.72,-711.76"/>
</g>
<!-- Node31 -->
<g id="node25" class="node">
<title>Node31</title>
<g id="a_node25"><a xlink:href="classDynExpInstr_1_1SmarActConfigurator.html" target="_top" xlink:title=" ">
<polygon fill="white" stroke="black" points="884,-650 884,-669 1067,-669 1067,-650 884,-650"/>
<text text-anchor="middle" x="975.5" y="-657" font-family="Helvetica,sans-Serif" font-size="10.00">DynExpInstr::SmarActConfigurator</text>
</a>
</g>
</g>
<!-- Node28&#45;&gt;Node31 -->
<g id="edge24" class="edge">
<title>Node28&#45;&gt;Node31</title>
<path fill="none" stroke="midnightblue" d="M822.76,-704.46C828.65,-702.61 834.45,-700.62 840,-698.5 856.9,-692.04 858.96,-685.58 876,-679.5 887.91,-675.25 900.98,-671.8 913.59,-669.04"/>
<polygon fill="midnightblue" stroke="midnightblue" points="821.38,-701.22 812.8,-707.44 823.39,-707.93 821.38,-701.22"/>
</g>
<!-- Node34 -->
<g id="node28" class="node">
<title>Node34</title>
<g id="a_node28"><a xlink:href="classDynExpModule_1_1gRPCModuleConfigurator.html" target="_top" xlink:title=" ">
<polygon fill="white" stroke="black" points="655.5,-535.5 655.5,-565.5 830.5,-565.5 830.5,-535.5 655.5,-535.5"/>
<text text-anchor="start" x="663.5" y="-553.5" font-family="Helvetica,sans-Serif" font-size="10.00">DynExpModule::gRPCModule</text>
<text text-anchor="middle" x="743" y="-542.5" font-family="Helvetica,sans-Serif" font-size="10.00">Configurator&lt; gRPCServices... &gt;</text>
</a>
</g>
</g>
<!-- Node33&#45;&gt;Node34 -->
<g id="edge27" class="edge">
<title>Node33&#45;&gt;Node34</title>
<path fill="none" stroke="midnightblue" d="M527.14,-294.91C569.12,-344.85 689.46,-488 729.14,-535.2"/>
<polygon fill="midnightblue" stroke="midnightblue" points="529.78,-292.62 520.67,-287.22 524.42,-297.12 529.78,-292.62"/>
</g>
<!-- Node42 -->
<g id="node35" class="node">
<title>Node42</title>
<g id="a_node35"><a xlink:href="classDynExp_1_1QModuleConfiguratorBase.html" target="_top" xlink:title="Configurator class for QModuleBase.">
<polygon fill="white" stroke="black" points="649,-290 649,-309 837,-309 837,-290 649,-290"/>
<text text-anchor="middle" x="743" y="-297" font-family="Helvetica,sans-Serif" font-size="10.00">DynExp::QModuleConfiguratorBase</text>
</a>
</g>
</g>
<!-- Node33&#45;&gt;Node42 -->
<g id="edge34" class="edge">
<title>Node33&#45;&gt;Node42</title>
<path fill="none" stroke="midnightblue" d="M611.81,-287.02C624.1,-288.2 636.63,-289.4 648.82,-290.57"/>
<polygon fill="midnightblue" stroke="midnightblue" points="611.85,-283.51 601.56,-286.04 611.18,-290.48 611.85,-283.51"/>
</g>
<!-- Node54 -->
<g id="node47" class="node">
<title>Node54</title>
<g id="a_node47"><a xlink:href="classDynExpModule_1_1ArbitraryFunctionFromCSVConfigurator.html" target="_top" xlink:title=" ">
<polygon fill="white" stroke="black" points="653,-240.5 653,-270.5 833,-270.5 833,-240.5 653,-240.5"/>
<text text-anchor="start" x="661" y="-258.5" font-family="Helvetica,sans-Serif" font-size="10.00">DynExpModule::ArbitraryFunction</text>
<text text-anchor="middle" x="743" y="-247.5" font-family="Helvetica,sans-Serif" font-size="10.00">FromCSVConfigurator</text>
</a>
</g>
</g>
<!-- Node33&#45;&gt;Node54 -->
<g id="edge46" class="edge">
<title>Node33&#45;&gt;Node54</title>
<path fill="none" stroke="midnightblue" d="M611.53,-268.01C625.31,-266.69 639.41,-265.33 652.99,-264.03"/>
<polygon fill="midnightblue" stroke="midnightblue" points="611.18,-264.52 601.56,-268.96 611.85,-271.49 611.18,-264.52"/>
</g>
<!-- Node55 -->
<g id="node48" class="node">
<title>Node55</title>
<g id="a_node48"><a xlink:href="classDynExpModule_1_1StreamManipulatorConfigurator.html" target="_top" xlink:title="Configurator class for StreamManipulator.">
<polygon fill="white" stroke="black" points="648,-191.5 648,-221.5 838,-221.5 838,-191.5 648,-191.5"/>
<text text-anchor="start" x="656" y="-209.5" font-family="Helvetica,sans-Serif" font-size="10.00">DynExpModule::StreamManipulator</text>
<text text-anchor="middle" x="743" y="-198.5" font-family="Helvetica,sans-Serif" font-size="10.00">Configurator</text>
</a>
</g>
</g>
<!-- Node33&#45;&gt;Node55 -->
<g id="edge47" class="edge">
<title>Node33&#45;&gt;Node55</title>
<path fill="none" stroke="midnightblue" d="M547.04,-264.34C573.83,-254.38 611.99,-240.71 646,-230.5 656.37,-227.39 667.44,-224.35 678.26,-221.55"/>
<polygon fill="midnightblue" stroke="midnightblue" points="545.51,-261.18 537.37,-267.96 547.96,-267.73 545.51,-261.18"/>
</g>
<!-- Node56 -->
<g id="node49" class="node">
<title>Node56</title>
<g id="a_node49"><a xlink:href="classDynExpModule_1_1gRPCModuleConfigurator.html" target="_top" xlink:title="Configurator class for gRPCModule.">
<polygon fill="white" stroke="black" points="660,-142.5 660,-172.5 826,-172.5 826,-142.5 660,-142.5"/>
<text text-anchor="start" x="668" y="-160.5" font-family="Helvetica,sans-Serif" font-size="10.00">DynExpModule::gRPCModule</text>
<text text-anchor="middle" x="743" y="-149.5" font-family="Helvetica,sans-Serif" font-size="10.00">Configurator&lt; gRPCServices &gt;</text>
</a>
</g>
</g>
<!-- Node33&#45;&gt;Node56 -->
<g id="edge48" class="edge">
<title>Node33&#45;&gt;Node56</title>
<path fill="none" stroke="midnightblue" d="M530.76,-260.85C555.23,-239.42 600.82,-202.45 646,-181.5 653.33,-178.1 661.2,-175.14 669.17,-172.58"/>
<polygon fill="midnightblue" stroke="midnightblue" points="528.17,-258.47 523.03,-267.73 532.82,-263.7 528.17,-258.47"/>
</g>
<!-- Node35 -->
<g id="node29" class="node">
<title>Node35</title>
<g id="a_node29"><a xlink:href="classDynExpModule_1_1NetworkDataStreamInstrumentConfigurator.html" target="_top" xlink:title=" ">
<polygon fill="white" stroke="red" points="893,-590 893,-631 1058,-631 1058,-590 893,-590"/>
<text text-anchor="start" x="901" y="-619" font-family="Helvetica,sans-Serif" font-size="10.00">DynExpModule::NetworkData</text>
<text text-anchor="start" x="901" y="-608" font-family="Helvetica,sans-Serif" font-size="10.00">StreamInstrumentConfigurator</text>
<text text-anchor="middle" x="975.5" y="-597" font-family="Helvetica,sans-Serif" font-size="10.00">&lt; gRPCServices... &gt;</text>
</a>
</g>
</g>
<!-- Node34&#45;&gt;Node35 -->
<g id="edge28" class="edge">
<title>Node34&#45;&gt;Node35</title>
<path fill="none" stroke="midnightblue" d="M811.75,-568.13C838.07,-574.99 868.41,-582.88 895.7,-589.99"/>
<polygon fill="midnightblue" stroke="midnightblue" points="812.43,-564.7 801.87,-565.56 810.66,-571.47 812.43,-564.7"/>
</g>
<!-- Node41 -->
<g id="node34" class="node">
<title>Node41</title>
<g id="a_node34"><a xlink:href="classDynExpModule_1_1NetworkDataStreamInstrumentConfigurator.html" target="_top" xlink:title=" ">
<polygon fill="white" stroke="black" points="893,-530 893,-571 1058,-571 1058,-530 893,-530"/>
<text text-anchor="start" x="901" y="-559" font-family="Helvetica,sans-Serif" font-size="10.00">DynExpModule::NetworkData</text>
<text text-anchor="start" x="901" y="-548" font-family="Helvetica,sans-Serif" font-size="10.00">StreamInstrumentConfigurator</text>
<text text-anchor="middle" x="975.5" y="-537" font-family="Helvetica,sans-Serif" font-size="10.00">&lt; gRPCServices &gt;</text>
</a>
</g>
</g>
<!-- Node34&#45;&gt;Node41 -->
<g id="edge33" class="edge">
<title>Node34&#45;&gt;Node41</title>
<path fill="none" stroke="midnightblue" d="M840.89,-550.5C858.13,-550.5 875.94,-550.5 892.71,-550.5"/>
<polygon fill="midnightblue" stroke="midnightblue" points="840.81,-547 830.81,-550.5 840.81,-554 840.81,-547"/>
</g>
<!-- Node36 -->
<g id="node30" class="node">
<title>Node36</title>
<g id="a_node30"><a xlink:href="classDynExpModule_1_1NetworkAnalogInConfigurator.html" target="_top" xlink:title=" ">
<polygon fill="white" stroke="black" points="1129.5,-668.5 1129.5,-698.5 1304.5,-698.5 1304.5,-668.5 1129.5,-668.5"/>
<text text-anchor="start" x="1137.5" y="-686.5" font-family="Helvetica,sans-Serif" font-size="10.00">DynExpModule::NetworkAnalog</text>
<text text-anchor="middle" x="1217" y="-675.5" font-family="Helvetica,sans-Serif" font-size="10.00">InConfigurator&lt; gRPCServices &gt;</text>
</a>
</g>
</g>
<!-- Node35&#45;&gt;Node36 -->
<g id="edge29" class="edge">
<title>Node35&#45;&gt;Node36</title>
<path fill="none" stroke="midnightblue" d="M1059.34,-634.47C1064.68,-636.4 1069.94,-638.42 1075,-640.5 1091.73,-647.39 1094.04,-653.21 1111,-659.5 1120.03,-662.85 1129.67,-665.82 1139.32,-668.43"/>
<polygon fill="midnightblue" stroke="midnightblue" points="1060.26,-631.08 1049.67,-631.08 1057.95,-637.69 1060.26,-631.08"/>
</g>
<!-- Node37 -->
<g id="node31" class="node">
<title>Node37</title>
<g id="a_node31"><a xlink:href="classDynExpModule_1_1NetworkAnalogOutConfigurator.html" target="_top" xlink:title=" ">
<polygon fill="white" stroke="black" points="1125.5,-619.5 1125.5,-649.5 1308.5,-649.5 1308.5,-619.5 1125.5,-619.5"/>
<text text-anchor="start" x="1133.5" y="-637.5" font-family="Helvetica,sans-Serif" font-size="10.00">DynExpModule::NetworkAnalog</text>
<text text-anchor="middle" x="1217" y="-626.5" font-family="Helvetica,sans-Serif" font-size="10.00">OutConfigurator&lt; gRPCServices &gt;</text>
</a>
</g>
</g>
<!-- Node35&#45;&gt;Node37 -->
<g id="edge30" class="edge">
<title>Node35&#45;&gt;Node37</title>
<path fill="none" stroke="midnightblue" d="M1068.22,-619.69C1086.89,-621.56 1106.53,-623.53 1125.17,-625.4"/>
<polygon fill="midnightblue" stroke="midnightblue" points="1068.55,-616.21 1058.25,-618.69 1067.85,-623.17 1068.55,-616.21"/>
</g>
<!-- Node38 -->
<g id="node32" class="node">
<title>Node38</title>
<g id="a_node32"><a xlink:href="classDynExpModule_1_1NetworkDigitalInConfigurator.html" target="_top" xlink:title=" ">
<polygon fill="white" stroke="black" points="1129.5,-570.5 1129.5,-600.5 1304.5,-600.5 1304.5,-570.5 1129.5,-570.5"/>
<text text-anchor="start" x="1137.5" y="-588.5" font-family="Helvetica,sans-Serif" font-size="10.00">DynExpModule::NetworkDigital</text>
<text text-anchor="middle" x="1217" y="-577.5" font-family="Helvetica,sans-Serif" font-size="10.00">InConfigurator&lt; gRPCServices &gt;</text>
</a>
</g>
</g>
<!-- Node35&#45;&gt;Node38 -->
<g id="edge31" class="edge">
<title>Node35&#45;&gt;Node38</title>
<path fill="none" stroke="midnightblue" d="M1068.3,-600.92C1088.33,-598.83 1109.47,-596.62 1129.3,-594.55"/>
<polygon fill="midnightblue" stroke="midnightblue" points="1067.84,-597.45 1058.25,-601.97 1068.56,-604.41 1067.84,-597.45"/>
</g>
<!-- Node39 -->
<g id="node33" class="node">
<title>Node39</title>
<g id="a_node33"><a xlink:href="classDynExpModule_1_1NetworkDigitalOutConfigurator.html" target="_top" xlink:title=" ">
<polygon fill="white" stroke="black" points="1125.5,-521.5 1125.5,-551.5 1308.5,-551.5 1308.5,-521.5 1125.5,-521.5"/>
<text text-anchor="start" x="1133.5" y="-539.5" font-family="Helvetica,sans-Serif" font-size="10.00">DynExpModule::NetworkDigital</text>
<text text-anchor="middle" x="1217" y="-528.5" font-family="Helvetica,sans-Serif" font-size="10.00">OutConfigurator&lt; gRPCServices &gt;</text>
</a>
</g>
</g>
<!-- Node35&#45;&gt;Node39 -->
<g id="edge32" class="edge">
<title>Node35&#45;&gt;Node39</title>
<path fill="none" stroke="midnightblue" d="M1059.34,-586.53C1064.68,-584.6 1069.94,-582.58 1075,-580.5 1091.73,-573.61 1094.07,-567.87 1111,-561.5 1121,-557.74 1131.75,-554.42 1142.42,-551.52"/>
<polygon fill="midnightblue" stroke="midnightblue" points="1057.95,-583.31 1049.67,-589.92 1060.26,-589.92 1057.95,-583.31"/>
</g>
<!-- Node43 -->
<g id="node36" class="node">
<title>Node43</title>
<g id="a_node36"><a xlink:href="classDynExpModule_1_1ImageViewer_1_1ImageViewerConfigurator.html" target="_top" xlink:title=" ">
<polygon fill="white" stroke="black" points="895,-480.5 895,-510.5 1056,-510.5 1056,-480.5 895,-480.5"/>
<text text-anchor="start" x="903" y="-498.5" font-family="Helvetica,sans-Serif" font-size="10.00">DynExpModule::ImageViewer</text>
<text text-anchor="middle" x="975.5" y="-487.5" font-family="Helvetica,sans-Serif" font-size="10.00">::ImageViewerConfigurator</text>
</a>
</g>
</g>
<!-- Node42&#45;&gt;Node43 -->
<g id="edge35" class="edge">
<title>Node42&#45;&gt;Node43</title>
<path fill="none" stroke="midnightblue" d="M753.07,-318.28C771.22,-353.79 815.51,-430.78 876,-470.5 881.9,-474.37 888.36,-477.65 895.06,-480.41"/>
<polygon fill="midnightblue" stroke="midnightblue" points="756.06,-316.44 748.47,-309.05 749.8,-319.56 756.06,-316.44"/>
</g>
<!-- Node44 -->
<g id="node37" class="node">
<title>Node44</title>
<g id="a_node37"><a xlink:href="classDynExpModule_1_1InputPortReaderConfigurator.html" target="_top" xlink:title=" ">
<polygon fill="white" stroke="black" points="888,-431.5 888,-461.5 1063,-461.5 1063,-431.5 888,-431.5"/>
<text text-anchor="start" x="896" y="-449.5" font-family="Helvetica,sans-Serif" font-size="10.00">DynExpModule::InputPortReader</text>
<text text-anchor="middle" x="975.5" y="-438.5" font-family="Helvetica,sans-Serif" font-size="10.00">Configurator</text>
</a>
</g>
</g>
<!-- Node42&#45;&gt;Node44 -->
<g id="edge36" class="edge">
<title>Node42&#45;&gt;Node44</title>
<path fill="none" stroke="midnightblue" d="M758.06,-317.23C780.23,-343.96 825.98,-394.35 876,-421.5 883.13,-425.37 890.88,-428.66 898.8,-431.45"/>
<polygon fill="midnightblue" stroke="midnightblue" points="760.5,-314.68 751.47,-309.14 755.07,-319.1 760.5,-314.68"/>
</g>
<!-- Node45 -->
<g id="node38" class="node">
<title>Node45</title>
<g id="a_node38"><a xlink:href="classDynExpModule_1_1LockinAmplifierControlConfigurator.html" target="_top" xlink:title=" ">
<polygon fill="white" stroke="black" points="889.5,-382.5 889.5,-412.5 1061.5,-412.5 1061.5,-382.5 889.5,-382.5"/>
<text text-anchor="start" x="897.5" y="-400.5" font-family="Helvetica,sans-Serif" font-size="10.00">DynExpModule::LockinAmplifier</text>
<text text-anchor="middle" x="975.5" y="-389.5" font-family="Helvetica,sans-Serif" font-size="10.00">ControlConfigurator</text>
</a>
</g>
</g>
<!-- Node42&#45;&gt;Node45 -->
<g id="edge37" class="edge">
<title>Node42&#45;&gt;Node45</title>
<path fill="none" stroke="midnightblue" d="M767.06,-314.66C792.72,-330.94 835.88,-356.62 876,-372.5 885.43,-376.23 895.6,-379.55 905.69,-382.45"/>
<polygon fill="midnightblue" stroke="midnightblue" points="768.74,-311.58 758.43,-309.12 764.96,-317.47 768.74,-311.58"/>
</g>
<!-- Node46 -->
<g id="node39" class="node">
<title>Node46</title>
<g id="a_node39"><a xlink:href="classDynExpModule_1_1ODMR_1_1ODMRConfigurator.html" target="_top" xlink:title=" ">
<polygon fill="white" stroke="black" points="912,-333.5 912,-363.5 1039,-363.5 1039,-333.5 912,-333.5"/>
<text text-anchor="start" x="920" y="-351.5" font-family="Helvetica,sans-Serif" font-size="10.00">DynExpModule::ODMR</text>
<text text-anchor="middle" x="975.5" y="-340.5" font-family="Helvetica,sans-Serif" font-size="10.00">::ODMRConfigurator</text>
</a>
</g>
</g>
<!-- Node42&#45;&gt;Node46 -->
<g id="edge38" class="edge">
<title>Node42&#45;&gt;Node46</title>
<path fill="none" stroke="midnightblue" d="M798.9,-311.17C832.77,-318.37 876.34,-327.63 911.6,-335.13"/>
<polygon fill="midnightblue" stroke="midnightblue" points="799.23,-307.66 788.72,-309.01 797.77,-314.51 799.23,-307.66"/>
</g>
<!-- Node47 -->
<g id="node40" class="node">
<title>Node47</title>
<g id="a_node40"><a xlink:href="classDynExpModule_1_1OutputPortWriterConfigurator.html" target="_top" xlink:title=" ">
<polygon fill="white" stroke="black" points="901,-284.5 901,-314.5 1050,-314.5 1050,-284.5 901,-284.5"/>
<text text-anchor="start" x="909" y="-302.5" font-family="Helvetica,sans-Serif" font-size="10.00">DynExpModule::OutputPort</text>
<text text-anchor="middle" x="975.5" y="-291.5" font-family="Helvetica,sans-Serif" font-size="10.00">WriterConfigurator</text>
</a>
</g>
</g>
<!-- Node42&#45;&gt;Node47 -->
<g id="edge39" class="edge">
<title>Node42&#45;&gt;Node47</title>
<path fill="none" stroke="midnightblue" d="M847.11,-299.5C865.24,-299.5 883.78,-299.5 900.91,-299.5"/>
<polygon fill="midnightblue" stroke="midnightblue" points="847.09,-296 837.09,-299.5 847.09,-303 847.09,-296"/>
</g>
<!-- Node48 -->
<g id="node41" class="node">
<title>Node48</title>
<g id="a_node41"><a xlink:href="classDynExpModule_1_1SignalDesignerConfigurator.html" target="_top" xlink:title=" ">
<polygon fill="white" stroke="black" points="890.5,-235.5 890.5,-265.5 1060.5,-265.5 1060.5,-235.5 890.5,-235.5"/>
<text text-anchor="start" x="898.5" y="-253.5" font-family="Helvetica,sans-Serif" font-size="10.00">DynExpModule::SignalDesigner</text>
<text text-anchor="middle" x="975.5" y="-242.5" font-family="Helvetica,sans-Serif" font-size="10.00">Configurator</text>
</a>
</g>
</g>
<!-- Node42&#45;&gt;Node48 -->
<g id="edge40" class="edge">
<title>Node42&#45;&gt;Node48</title>
<path fill="none" stroke="midnightblue" d="M800.21,-287.86C813.28,-285.13 827.13,-282.23 840,-279.5 861.15,-275.02 884.15,-270.08 905.06,-265.57"/>
<polygon fill="midnightblue" stroke="midnightblue" points="799.48,-284.44 790.4,-289.9 800.9,-291.29 799.48,-284.44"/>
</g>
<!-- Node49 -->
<g id="node42" class="node">
<title>Node49</title>
<g id="a_node42"><a xlink:href="classDynExpModule_1_1SignalPlotterConfigurator.html" target="_top" xlink:title=" ">
<polygon fill="white" stroke="black" points="896.5,-186.5 896.5,-216.5 1054.5,-216.5 1054.5,-186.5 896.5,-186.5"/>
<text text-anchor="start" x="904.5" y="-204.5" font-family="Helvetica,sans-Serif" font-size="10.00">DynExpModule::SignalPlotter</text>
<text text-anchor="middle" x="975.5" y="-193.5" font-family="Helvetica,sans-Serif" font-size="10.00">Configurator</text>
</a>
</g>
</g>
<!-- Node42&#45;&gt;Node49 -->
<g id="edge41" class="edge">
<title>Node42&#45;&gt;Node49</title>
<path fill="none" stroke="midnightblue" d="M828.67,-285.92C832.63,-284.04 836.43,-281.91 840,-279.5 863.9,-263.35 852.37,-242.05 876,-225.5 882.2,-221.16 889.1,-217.6 896.28,-214.68"/>
<polygon fill="midnightblue" stroke="midnightblue" points="827.09,-282.79 819.21,-289.88 829.78,-289.25 827.09,-282.79"/>
</g>
<!-- Node50 -->
<g id="node43" class="node">
<title>Node50</title>
<g id="a_node43"><a xlink:href="classDynExpModule_1_1SpectrumViewer_1_1SpectrumViewerConfigurator.html" target="_top" xlink:title=" ">
<polygon fill="white" stroke="black" points="887.5,-137.5 887.5,-167.5 1063.5,-167.5 1063.5,-137.5 887.5,-137.5"/>
<text text-anchor="start" x="895.5" y="-155.5" font-family="Helvetica,sans-Serif" font-size="10.00">DynExpModule::SpectrumViewer</text>
<text text-anchor="middle" x="975.5" y="-144.5" font-family="Helvetica,sans-Serif" font-size="10.00">::SpectrumViewerConfigurator</text>
</a>
</g>
</g>
<!-- Node42&#45;&gt;Node50 -->
<g id="edge42" class="edge">
<title>Node42&#45;&gt;Node50</title>
<path fill="none" stroke="midnightblue" d="M832.49,-285.13C835.13,-283.44 837.64,-281.57 840,-279.5 876.46,-247.53 840.08,-209.08 876,-176.5 879.78,-173.07 883.97,-170.11 888.42,-167.56"/>
<polygon fill="midnightblue" stroke="midnightblue" points="830.78,-282.08 823.7,-289.97 834.15,-288.22 830.78,-282.08"/>
</g>
<!-- Node51 -->
<g id="node44" class="node">
<title>Node51</title>
<g id="a_node44"><a xlink:href="classDynExpModule_1_1Stage1DConfigurator.html" target="_top" xlink:title=" ">
<polygon fill="white" stroke="black" points="877,-99 877,-118 1074,-118 1074,-99 877,-99"/>
<text text-anchor="middle" x="975.5" y="-106" font-family="Helvetica,sans-Serif" font-size="10.00">DynExpModule::Stage1DConfigurator</text>
</a>
</g>
</g>
<!-- Node42&#45;&gt;Node51 -->
<g id="edge43" class="edge">
<title>Node42&#45;&gt;Node51</title>
<path fill="none" stroke="midnightblue" d="M834.06,-284.53C836.14,-282.99 838.13,-281.32 840,-279.5 889.75,-231.08 825.89,-175.55 876,-127.5 879.9,-123.76 884.29,-120.65 889.01,-118.07"/>
<polygon fill="midnightblue" stroke="midnightblue" points="832.2,-281.56 825.56,-289.81 835.9,-287.5 832.2,-281.56"/>
</g>
<!-- Node52 -->
<g id="node45" class="node">
<title>Node52</title>
<g id="a_node45"><a xlink:href="classDynExpModule_1_1Trajectory1DConfigurator.html" target="_top" xlink:title=" ">
<polygon fill="white" stroke="black" points="900.5,-49.5 900.5,-79.5 1050.5,-79.5 1050.5,-49.5 900.5,-49.5"/>
<text text-anchor="start" x="908.5" y="-67.5" font-family="Helvetica,sans-Serif" font-size="10.00">DynExpModule::Trajectory1</text>
<text text-anchor="middle" x="975.5" y="-56.5" font-family="Helvetica,sans-Serif" font-size="10.00">DConfigurator</text>
</a>
</g>
</g>
<!-- Node42&#45;&gt;Node52 -->
<g id="edge44" class="edge">
<title>Node42&#45;&gt;Node52</title>
<path fill="none" stroke="midnightblue" d="M834.77,-284.17C836.6,-282.73 838.35,-281.18 840,-279.5 900.22,-218.18 817.12,-152.11 876,-89.5 882.77,-82.3 891.29,-77.06 900.47,-73.26"/>
<polygon fill="midnightblue" stroke="midnightblue" points="832.66,-281.37 826.22,-289.78 836.5,-287.22 832.66,-281.37"/>
</g>
<!-- Node53 -->
<g id="node46" class="node">
<title>Node53</title>
<g id="a_node46"><a xlink:href="classDynExpModule_1_1Widefield_1_1WidefieldMicroscopeConfigurator.html" target="_top" xlink:title=" ">
<polygon fill="white" stroke="black" points="883.5,-0.5 883.5,-30.5 1067.5,-30.5 1067.5,-0.5 883.5,-0.5"/>
<text text-anchor="start" x="891.5" y="-18.5" font-family="Helvetica,sans-Serif" font-size="10.00">DynExpModule::Widefield</text>
<text text-anchor="middle" x="975.5" y="-7.5" font-family="Helvetica,sans-Serif" font-size="10.00">::WidefieldMicroscopeConfigurator</text>
</a>
</g>
</g>
<!-- Node42&#45;&gt;Node53 -->
<g id="edge45" class="edge">
<title>Node42&#45;&gt;Node53</title>
<path fill="none" stroke="midnightblue" d="M834.86,-284.26C836.66,-282.79 838.38,-281.21 840,-279.5 914.08,-201.11 803.24,-119.13 876,-39.5 879.09,-36.12 882.56,-33.18 886.32,-30.63"/>
<polygon fill="midnightblue" stroke="midnightblue" points="832.74,-281.46 826.4,-289.96 836.65,-287.27 832.74,-281.46"/>
</g>
</g>
</svg>
