<?xml version="1.0" encoding="UTF-8" standalone="no"?>
<!DOCTYPE svg PUBLIC "-//W3C//DTD SVG 1.1//EN"
 "http://www.w3.org/Graphics/SVG/1.1/DTD/svg11.dtd">
<!-- Generated by graphviz version 2.43.0 (0)
 -->
<!-- Title: Util::ILockable Pages: 1 -->
<svg width="1187pt" height="445pt"
 viewBox="0.00 0.00 1187.00 444.50" xmlns="http://www.w3.org/2000/svg" xmlns:xlink="http://www.w3.org/1999/xlink">
<g id="graph0" class="graph" transform="scale(1 1) rotate(0) translate(4 440.5)">
<title>Util::ILockable</title>
<!-- Node1 -->
<g id="Node000001" class="node">
<title>Node1</title>
<g id="a_Node000001"><a xlink:title="Interface to allow synchronizing the access to derived classes between different threads by providing...">
<polygon fill="#999999" stroke="#666666" points="230,-147 144,-147 144,-128 230,-128 230,-147"/>
<text text-anchor="middle" x="187" y="-135" font-family="Helvetica,sans-Serif" font-size="10.00">Util::ILockable</text>
</a>
</g>
</g>
<!-- Node3 -->
<g id="Node000003" class="node">
<title>Node3</title>
<g id="a_Node000003"><a xlink:href="classDynExp_1_1EventListenersBase.html" target="_top" xlink:title="Common base class for all managers of event listeners of type TypedEventListeners....">
<polygon fill="white" stroke="#666666" points="450,-347 294,-347 294,-328 450,-328 450,-347"/>
<text text-anchor="middle" x="372" y="-335" font-family="Helvetica,sans-Serif" font-size="10.00">DynExp::EventListenersBase</text>
</a>
</g>
</g>
<!-- Node1&#45;&gt;Node3 -->
<g id="edge2_Node000001_Node000003" class="edge">
<title>Node1&#45;&gt;Node3</title>
<g id="a_edge2_Node000001_Node000003"><a xlink:title=" ">
<path fill="none" stroke="#63b8ff" d="M201.02,-155.22C216.01,-175.28 241.69,-208.67 266,-235.5 298.42,-271.29 340.55,-310.14 360.13,-327.79"/>
<polygon fill="#63b8ff" stroke="#63b8ff" points="203.7,-152.96 194.93,-147.01 198.08,-157.13 203.7,-152.96"/>
</a>
</g>
</g>
<!-- Node5 -->
<g id="Node000005" class="node">
<title>Node5</title>
<g id="a_Node000005"><a xlink:href="classDynExp_1_1HardwareAdapterBase.html" target="_top" xlink:title="Defines the base class for a hardware adapter object. Hardware adapters describe interfaces/connectio...">
<polygon fill="white" stroke="#666666" points="457,-227 287,-227 287,-208 457,-208 457,-227"/>
<text text-anchor="middle" x="372" y="-215" font-family="Helvetica,sans-Serif" font-size="10.00">DynExp::HardwareAdapterBase</text>
</a>
</g>
</g>
<!-- Node1&#45;&gt;Node5 -->
<g id="edge4_Node000001_Node000005" class="edge">
<title>Node1&#45;&gt;Node5</title>
<g id="a_edge4_Node000001_Node000005"><a xlink:title=" ">
<path fill="none" stroke="#63b8ff" d="M204.39,-154.27C219.17,-168.34 242.17,-187.82 266,-198.5 274.71,-202.4 284.16,-205.5 293.71,-207.97"/>
<polygon fill="#63b8ff" stroke="#63b8ff" points="206.67,-151.59 197.08,-147.09 201.76,-156.59 206.67,-151.59"/>
</a>
</g>
</g>
<!-- Node18 -->
<g id="Node000018" class="node">
<title>Node18</title>
<g id="a_Node000018"><a xlink:href="classDynExp_1_1ObjectUserList.html" target="_top" xlink:title="Helper class to enable keeping track of instances of class Object making use of the owner of the resp...">
<polygon fill="white" stroke="#666666" points="437.5,-190 306.5,-190 306.5,-171 437.5,-171 437.5,-190"/>
<text text-anchor="middle" x="372" y="-178" font-family="Helvetica,sans-Serif" font-size="10.00">DynExp::ObjectUserList</text>
</a>
</g>
</g>
<!-- Node1&#45;&gt;Node18 -->
<g id="edge17_Node000001_Node000018" class="edge">
<title>Node1&#45;&gt;Node18</title>
<g id="a_edge17_Node000001_Node000018"><a xlink:title=" ">
<path fill="none" stroke="#63b8ff" d="M226.04,-150.2C238.67,-154.15 252.86,-158.3 266,-161.5 280.58,-165.05 296.45,-168.25 311.32,-170.98"/>
<polygon fill="#63b8ff" stroke="#63b8ff" points="226.89,-146.8 216.3,-147.1 224.77,-153.47 226.89,-146.8"/>
</a>
</g>
</g>
<!-- Node19 -->
<g id="Node000019" class="node">
<title>Node19</title>
<g id="a_Node000019"><a xlink:href="classDynExpHardware_1_1PVCamHardwareAdapter_1_1PVCamInitializer.html" target="_top" xlink:title="Only one instance of this class is allowed for synchronizing calls to the PVCam library from any PVCa...">
<polygon fill="white" stroke="#666666" points="467,-152.5 277,-152.5 277,-122.5 467,-122.5 467,-152.5"/>
<text text-anchor="start" x="285" y="-140.5" font-family="Helvetica,sans-Serif" font-size="10.00">DynExpHardware::PVCamHardware</text>
<text text-anchor="middle" x="372" y="-129.5" font-family="Helvetica,sans-Serif" font-size="10.00">Adapter::PVCamInitializer</text>
</a>
</g>
</g>
<!-- Node1&#45;&gt;Node19 -->
<g id="edge18_Node000001_Node000019" class="edge">
<title>Node1&#45;&gt;Node19</title>
<g id="a_edge18_Node000001_Node000019"><a xlink:title=" ">
<path fill="none" stroke="#63b8ff" d="M240.57,-137.5C251.93,-137.5 264.27,-137.5 276.69,-137.5"/>
<polygon fill="#63b8ff" stroke="#63b8ff" points="240.44,-134 230.44,-137.5 240.44,-141 240.44,-134"/>
</a>
</g>
</g>
<!-- Node20 -->
<g id="Node000020" class="node">
<title>Node20</title>
<g id="a_Node000020"><a xlink:href="classDynExpHardware_1_1QutoolsTDCHardwareAdapter_1_1QutoolsTDCSynchronizer.html" target="_top" xlink:title="Only one instance of this class is allowed for synchronizing calls to connected qutools time taggers....">
<polygon fill="white" stroke="#666666" points="478,-104.5 266,-104.5 266,-74.5 478,-74.5 478,-104.5"/>
<text text-anchor="start" x="274" y="-92.5" font-family="Helvetica,sans-Serif" font-size="10.00">DynExpHardware::QutoolsTDCHardware</text>
<text text-anchor="middle" x="372" y="-81.5" font-family="Helvetica,sans-Serif" font-size="10.00">Adapter::QutoolsTDCSynchronizer</text>
</a>
</g>
</g>
<!-- Node1&#45;&gt;Node20 -->
<g id="edge19_Node000001_Node000020" class="edge">
<title>Node1&#45;&gt;Node20</title>
<g id="a_edge19_Node000001_Node000020"><a xlink:title=" ">
<path fill="none" stroke="#63b8ff" d="M226.76,-124.96C239.23,-121.09 253.15,-116.94 266,-113.5 277.56,-110.4 289.9,-107.36 301.91,-104.53"/>
<polygon fill="#63b8ff" stroke="#63b8ff" points="225.61,-121.65 217.11,-127.98 227.7,-128.33 225.61,-121.65"/>
</a>
</g>
</g>
<!-- Node21 -->
<g id="Node000021" class="node">
<title>Node21</title>
<g id="a_Node000021"><a xlink:href="classUtil_1_1EventLogger.html" target="_top" xlink:title="Logs events like errors and writes them immediately to a HTML file in a human&#45;readable format....">
<polygon fill="white" stroke="#666666" points="422.5,-56 321.5,-56 321.5,-37 422.5,-37 422.5,-56"/>
<text text-anchor="middle" x="372" y="-44" font-family="Helvetica,sans-Serif" font-size="10.00">Util::EventLogger</text>
</a>
</g>
</g>
<!-- Node1&#45;&gt;Node21 -->
<g id="edge20_Node000001_Node000021" class="edge">
<title>Node1&#45;&gt;Node21</title>
<g id="a_edge20_Node000001_Node000021"><a xlink:title=" ">
<path fill="none" stroke="#63b8ff" d="M201.75,-120.03C215.96,-103.25 239.73,-78.59 266,-65.5 283,-57.03 303.21,-52.3 321.35,-49.67"/>
<polygon fill="#63b8ff" stroke="#63b8ff" points="198.86,-118.03 195.22,-127.98 204.27,-122.47 198.86,-118.03"/>
</a>
</g>
</g>
<!-- Node22 -->
<g id="Node000022" class="node">
<title>Node22</title>
<g id="a_Node000022"><a xlink:href="classUtil_1_1Warning.html" target="_top" xlink:title="Class to store information about warnings in a thread&#45;safe manner (deriving from ILockable)....">
<polygon fill="white" stroke="#666666" points="412,-19 332,-19 332,0 412,0 412,-19"/>
<text text-anchor="middle" x="372" y="-7" font-family="Helvetica,sans-Serif" font-size="10.00">Util::Warning</text>
</a>
</g>
</g>
<!-- Node1&#45;&gt;Node22 -->
<g id="edge21_Node000001_Node000022" class="edge">
<title>Node1&#45;&gt;Node22</title>
<g id="a_edge21_Node000001_Node000022"><a xlink:title=" ">
<path fill="none" stroke="#63b8ff" d="M195.75,-118.7C207.16,-93.54 231,-49.53 266,-27.5 285.49,-15.23 310.85,-10.64 331.77,-9.16"/>
<polygon fill="#63b8ff" stroke="#63b8ff" points="192.52,-117.35 191.74,-127.92 198.94,-120.15 192.52,-117.35"/>
</a>
</g>
</g>
<!-- Node2 -->
<g id="Node000002" class="node">
<title>Node2</title>
<g id="a_Node000002"><a xlink:href="classUtil_1_1INonCopyable.html" target="_top" xlink:title="Interface to delete copy constructor and copy assignment operator and thus make derived classes non&#45;c...">
<polygon fill="white" stroke="#666666" points="108,-147 0,-147 0,-128 108,-128 108,-147"/>
<text text-anchor="middle" x="54" y="-135" font-family="Helvetica,sans-Serif" font-size="10.00">Util::INonCopyable</text>
</a>
</g>
</g>
<!-- Node2&#45;&gt;Node1 -->
<g id="edge1_Node000001_Node000002" class="edge">
<title>Node2&#45;&gt;Node1</title>
<g id="a_edge1_Node000001_Node000002"><a xlink:title=" ">
<path fill="none" stroke="#63b8ff" d="M118.3,-137.5C126.88,-137.5 135.51,-137.5 143.6,-137.5"/>
<polygon fill="#63b8ff" stroke="#63b8ff" points="118.28,-134 108.28,-137.5 118.28,-141 118.28,-134"/>
</a>
</g>
</g>
<!-- Node4 -->
<g id="Node000004" class="node">
<title>Node4</title>
<g id="a_Node000004"><a xlink:href="classDynExp_1_1TypedEventListeners.html" target="_top" xlink:title="Typed managers of event listeners class whose instances are owned by classes derived from InterModule...">
<polygon fill="white" stroke="#666666" points="700.5,-436.5 539.5,-436.5 539.5,-406.5 700.5,-406.5 700.5,-436.5"/>
<text text-anchor="start" x="547.5" y="-424.5" font-family="Helvetica,sans-Serif" font-size="10.00">DynExp::TypedEventListeners</text>
<text text-anchor="middle" x="620" y="-413.5" font-family="Helvetica,sans-Serif" font-size="10.00">&lt; EventFuncArgs &gt;</text>
</a>
</g>
</g>
<!-- Node3&#45;&gt;Node4 -->
<g id="edge3_Node000003_Node000004" class="edge">
<title>Node3&#45;&gt;Node4</title>
<g id="a_edge3_Node000003_Node000004"><a xlink:title=" ">
<path fill="none" stroke="#63b8ff" d="M401.89,-351.59C429.99,-364.86 474.16,-384.58 514,-397.5 524.14,-400.79 534.97,-403.8 545.68,-406.5"/>
<polygon fill="#63b8ff" stroke="#63b8ff" points="403.19,-348.33 392.65,-347.19 400.17,-354.65 403.19,-348.33"/>
</a>
</g>
</g>
<!-- Node6 -->
<g id="Node000006" class="node">
<title>Node6</title>
<g id="a_Node000006"><a xlink:href="classDynExpHardware_1_1gRPCHardwareAdapter.html" target="_top" xlink:title=" ">
<polygon fill="white" stroke="#666666" points="710,-388 530,-388 530,-347 710,-347 710,-388"/>
<text text-anchor="start" x="538" y="-376" font-family="Helvetica,sans-Serif" font-size="10.00">DynExpHardware::gRPCHardware</text>
<text text-anchor="start" x="538" y="-365" font-family="Helvetica,sans-Serif" font-size="10.00">Adapter&lt; pulse_streamer</text>
<text text-anchor="middle" x="620" y="-354" font-family="Helvetica,sans-Serif" font-size="10.00">::PulseStreamer &gt;</text>
</a>
</g>
</g>
<!-- Node5&#45;&gt;Node6 -->
<g id="edge5_Node000005_Node000006" class="edge">
<title>Node5&#45;&gt;Node6</title>
<g id="a_edge5_Node000005_Node000006"><a xlink:title=" ">
<path fill="none" stroke="#63b8ff" d="M388.5,-234.74C412.77,-260.73 462.35,-309.84 514,-337.5 520.52,-340.99 527.49,-344.11 534.62,-346.9"/>
<polygon fill="#63b8ff" stroke="#63b8ff" points="390.88,-232.16 381.53,-227.17 385.73,-236.9 390.88,-232.16"/>
</a>
</g>
</g>
<!-- Node8 -->
<g id="Node000008" class="node">
<title>Node8</title>
<g id="a_Node000008"><a xlink:href="classDynExp_1_1SerialCommunicationHardwareAdapter.html" target="_top" xlink:title="Defines a hardware adapter for serial communication. Logical const&#45;ness: see declaration of class Dyn...">
<polygon fill="white" stroke="#666666" points="702.5,-328.5 537.5,-328.5 537.5,-298.5 702.5,-298.5 702.5,-328.5"/>
<text text-anchor="start" x="545.5" y="-316.5" font-family="Helvetica,sans-Serif" font-size="10.00">DynExp::SerialCommunication</text>
<text text-anchor="middle" x="620" y="-305.5" font-family="Helvetica,sans-Serif" font-size="10.00">HardwareAdapter</text>
</a>
</g>
</g>
<!-- Node5&#45;&gt;Node8 -->
<g id="edge7_Node000005_Node000008" class="edge">
<title>Node5&#45;&gt;Node8</title>
<g id="a_edge7_Node000005_Node000008"><a xlink:title=" ">
<path fill="none" stroke="#63b8ff" d="M397.38,-232.31C424.85,-248.43 471.25,-273.97 514,-289.5 523.23,-292.85 533.09,-295.84 542.93,-298.47"/>
<polygon fill="#63b8ff" stroke="#63b8ff" points="398.88,-229.13 388.49,-227.04 395.3,-235.15 398.88,-229.13"/>
</a>
</g>
</g>
<!-- Node12 -->
<g id="Node000012" class="node">
<title>Node12</title>
<g id="a_Node000012"><a xlink:href="classDynExpHardware_1_1NIDAQHardwareAdapter.html" target="_top" xlink:title=" ">
<polygon fill="white" stroke="#666666" points="713.5,-280.5 526.5,-280.5 526.5,-250.5 713.5,-250.5 713.5,-280.5"/>
<text text-anchor="start" x="534.5" y="-268.5" font-family="Helvetica,sans-Serif" font-size="10.00">DynExpHardware::NIDAQHardware</text>
<text text-anchor="middle" x="620" y="-257.5" font-family="Helvetica,sans-Serif" font-size="10.00">Adapter</text>
</a>
</g>
</g>
<!-- Node5&#45;&gt;Node12 -->
<g id="edge11_Node000005_Node000012" class="edge">
<title>Node5&#45;&gt;Node12</title>
<g id="a_edge11_Node000005_Node000012"><a xlink:title=" ">
<path fill="none" stroke="#63b8ff" d="M431.86,-228.98C464.9,-235.43 506.51,-243.55 542.11,-250.5"/>
<polygon fill="#63b8ff" stroke="#63b8ff" points="432.38,-225.52 421.9,-227.04 431.04,-232.39 432.38,-225.52"/>
</a>
</g>
</g>
<!-- Node13 -->
<g id="Node000013" class="node">
<title>Node13</title>
<g id="a_Node000013"><a xlink:href="classDynExpHardware_1_1PVCamHardwareAdapter.html" target="_top" xlink:title=" ">
<polygon fill="white" stroke="#666666" points="715,-232.5 525,-232.5 525,-202.5 715,-202.5 715,-232.5"/>
<text text-anchor="start" x="533" y="-220.5" font-family="Helvetica,sans-Serif" font-size="10.00">DynExpHardware::PVCamHardware</text>
<text text-anchor="middle" x="620" y="-209.5" font-family="Helvetica,sans-Serif" font-size="10.00">Adapter</text>
</a>
</g>
</g>
<!-- Node5&#45;&gt;Node13 -->
<g id="edge12_Node000005_Node000013" class="edge">
<title>Node5&#45;&gt;Node13</title>
<g id="a_edge12_Node000005_Node000013"><a xlink:title=" ">
<path fill="none" stroke="#63b8ff" d="M467.34,-217.5C486.14,-217.5 505.88,-217.5 524.67,-217.5"/>
<polygon fill="#63b8ff" stroke="#63b8ff" points="467.32,-214 457.32,-217.5 467.32,-221 467.32,-214"/>
</a>
</g>
</g>
<!-- Node14 -->
<g id="Node000014" class="node">
<title>Node14</title>
<g id="a_Node000014"><a xlink:href="classDynExpHardware_1_1QutoolsTDCHardwareAdapter.html" target="_top" xlink:title=" ">
<polygon fill="white" stroke="#666666" points="726,-184.5 514,-184.5 514,-154.5 726,-154.5 726,-184.5"/>
<text text-anchor="start" x="522" y="-172.5" font-family="Helvetica,sans-Serif" font-size="10.00">DynExpHardware::QutoolsTDCHardware</text>
<text text-anchor="middle" x="620" y="-161.5" font-family="Helvetica,sans-Serif" font-size="10.00">Adapter</text>
</a>
</g>
</g>
<!-- Node5&#45;&gt;Node14 -->
<g id="edge13_Node000005_Node000014" class="edge">
<title>Node5&#45;&gt;Node14</title>
<g id="a_edge13_Node000005_Node000014"><a xlink:title=" ">
<path fill="none" stroke="#63b8ff" d="M437.17,-206.14C450.67,-203.68 464.81,-201.05 478,-198.5 500.7,-194.11 525.4,-189.11 547.7,-184.51"/>
<polygon fill="#63b8ff" stroke="#63b8ff" points="436.22,-202.75 427,-207.98 437.47,-209.64 436.22,-202.75"/>
</a>
</g>
</g>
<!-- Node15 -->
<g id="Node000015" class="node">
<title>Node15</title>
<g id="a_Node000015"><a xlink:href="classDynExpHardware_1_1SmarActHardwareAdapter.html" target="_top" xlink:title=" ">
<polygon fill="white" stroke="#666666" points="718,-136.5 522,-136.5 522,-106.5 718,-106.5 718,-136.5"/>
<text text-anchor="start" x="530" y="-124.5" font-family="Helvetica,sans-Serif" font-size="10.00">DynExpHardware::SmarActHardware</text>
<text text-anchor="middle" x="620" y="-113.5" font-family="Helvetica,sans-Serif" font-size="10.00">Adapter</text>
</a>
</g>
</g>
<!-- Node5&#45;&gt;Node15 -->
<g id="edge14_Node000005_Node000015" class="edge">
<title>Node5&#45;&gt;Node15</title>
<g id="a_edge14_Node000005_Node000015"><a xlink:title=" ">
<path fill="none" stroke="#63b8ff" d="M466.56,-204.79C470.54,-202.94 474.37,-200.86 478,-198.5 501.87,-182.98 490.49,-161.57 514,-145.5 519.02,-142.07 524.45,-139.13 530.12,-136.6"/>
<polygon fill="#63b8ff" stroke="#63b8ff" points="464.98,-201.65 457.04,-208.66 467.62,-208.13 464.98,-201.65"/>
</a>
</g>
</g>
<!-- Node16 -->
<g id="Node000016" class="node">
<title>Node16</title>
<g id="a_Node000016"><a xlink:href="classDynExpHardware_1_1ZILabOneHardwareAdapter.html" target="_top" xlink:title=" ">
<polygon fill="white" stroke="#666666" points="697,-88.5 543,-88.5 543,-58.5 697,-58.5 697,-88.5"/>
<text text-anchor="start" x="551" y="-76.5" font-family="Helvetica,sans-Serif" font-size="10.00">DynExpHardware::ZILabOne</text>
<text text-anchor="middle" x="620" y="-65.5" font-family="Helvetica,sans-Serif" font-size="10.00">HardwareAdapter</text>
</a>
</g>
</g>
<!-- Node5&#45;&gt;Node16 -->
<g id="edge15_Node000005_Node000016" class="edge">
<title>Node5&#45;&gt;Node16</title>
<g id="a_edge15_Node000005_Node000016"><a xlink:title=" ">
<path fill="none" stroke="#63b8ff" d="M466.49,-206.37C470.58,-204.12 474.45,-201.51 478,-198.5 514.33,-167.66 478.38,-129.16 514,-97.5 522.25,-90.17 532.27,-84.95 542.81,-81.24"/>
<polygon fill="#63b8ff" stroke="#63b8ff" points="464.78,-203.3 457.23,-210.74 467.77,-209.63 464.78,-203.3"/>
</a>
</g>
</g>
<!-- Node17 -->
<g id="Node000017" class="node">
<title>Node17</title>
<g id="a_Node000017"><a xlink:href="classDynExpHardware_1_1gRPCHardwareAdapter.html" target="_top" xlink:title="This template class provides basic functionality to design hardware adapters for instruments which co...">
<polygon fill="white" stroke="#666666" points="710,-40.5 530,-40.5 530,-10.5 710,-10.5 710,-40.5"/>
<text text-anchor="start" x="538" y="-28.5" font-family="Helvetica,sans-Serif" font-size="10.00">DynExpHardware::gRPCHardware</text>
<text text-anchor="middle" x="620" y="-17.5" font-family="Helvetica,sans-Serif" font-size="10.00">Adapter&lt; gRPCStub &gt;</text>
</a>
</g>
</g>
<!-- Node5&#45;&gt;Node17 -->
<g id="edge16_Node000005_Node000017" class="edge">
<title>Node5&#45;&gt;Node17</title>
<g id="a_edge16_Node000005_Node000017"><a xlink:title=" ">
<path fill="none" stroke="#63b8ff" d="M466.14,-207.25C470.41,-204.79 474.4,-201.9 478,-198.5 527.55,-151.74 465.53,-97.38 514,-49.5 518.66,-44.9 524,-41.11 529.76,-37.99"/>
<polygon fill="#63b8ff" stroke="#63b8ff" points="464.49,-204.17 457.05,-211.71 467.57,-210.45 464.49,-204.17"/>
</a>
</g>
</g>
<!-- Node7 -->
<g id="Node000007" class="node">
<title>Node7</title>
<g id="a_Node000007"><a xlink:href="classDynExpHardware_1_1SIPulseStreamerHardwareAdapter.html" target="_top" xlink:title=" ">
<polygon fill="white" stroke="#666666" points="950,-382.5 762,-382.5 762,-352.5 950,-352.5 950,-382.5"/>
<text text-anchor="start" x="770" y="-370.5" font-family="Helvetica,sans-Serif" font-size="10.00">DynExpHardware::SIPulseStreamer</text>
<text text-anchor="middle" x="856" y="-359.5" font-family="Helvetica,sans-Serif" font-size="10.00">HardwareAdapter</text>
</a>
</g>
</g>
<!-- Node6&#45;&gt;Node7 -->
<g id="edge6_Node000006_Node000007" class="edge">
<title>Node6&#45;&gt;Node7</title>
<g id="a_edge6_Node000006_Node000007"><a xlink:title=" ">
<path fill="none" stroke="#63b8ff" d="M720.53,-367.5C734.23,-367.5 748.26,-367.5 761.84,-367.5"/>
<polygon fill="#63b8ff" stroke="#63b8ff" points="720.13,-364 710.13,-367.5 720.13,-371 720.13,-364"/>
</a>
</g>
</g>
<!-- Node9 -->
<g id="Node000009" class="node">
<title>Node9</title>
<g id="a_Node000009"><a xlink:href="classDynExp_1_1QSerialCommunicationHardwareAdapter.html" target="_top" xlink:title="SerialCommunicationHardwareAdapter is based on a Qt communication object (wrapped by QSerialCommunica...">
<polygon fill="white" stroke="#666666" points="942.5,-328.5 769.5,-328.5 769.5,-298.5 942.5,-298.5 942.5,-328.5"/>
<text text-anchor="start" x="777.5" y="-316.5" font-family="Helvetica,sans-Serif" font-size="10.00">DynExp::QSerialCommunication</text>
<text text-anchor="middle" x="856" y="-305.5" font-family="Helvetica,sans-Serif" font-size="10.00">HardwareAdapter</text>
</a>
</g>
</g>
<!-- Node8&#45;&gt;Node9 -->
<g id="edge8_Node000008_Node000009" class="edge">
<title>Node8&#45;&gt;Node9</title>
<g id="a_edge8_Node000008_Node000009"><a xlink:title=" ">
<path fill="none" stroke="#63b8ff" d="M712.77,-313.5C731.42,-313.5 750.98,-313.5 769.41,-313.5"/>
<polygon fill="#63b8ff" stroke="#63b8ff" points="712.51,-310 702.51,-313.5 712.51,-317 712.51,-310"/>
</a>
</g>
</g>
<!-- Node10 -->
<g id="Node000010" class="node">
<title>Node10</title>
<g id="a_Node000010"><a xlink:href="classDynExp_1_1HardwareAdapterSerialPort.html" target="_top" xlink:title="Implements a hardware adapter to communicate with text&#45;based commands over COM ports.">
<polygon fill="white" stroke="#666666" points="1179,-345 986,-345 986,-326 1179,-326 1179,-345"/>
<text text-anchor="middle" x="1082.5" y="-333" font-family="Helvetica,sans-Serif" font-size="10.00">DynExp::HardwareAdapterSerialPort</text>
</a>
</g>
</g>
<!-- Node9&#45;&gt;Node10 -->
<g id="edge9_Node000009_Node000010" class="edge">
<title>Node9&#45;&gt;Node10</title>
<g id="a_edge9_Node000009_Node000010"><a xlink:title=" ">
<path fill="none" stroke="#63b8ff" d="M952.53,-322.86C963.52,-323.94 974.73,-325.04 985.72,-326.11"/>
<polygon fill="#63b8ff" stroke="#63b8ff" points="952.81,-319.37 942.51,-321.88 952.13,-326.34 952.81,-319.37"/>
</a>
</g>
</g>
<!-- Node11 -->
<g id="Node000011" class="node">
<title>Node11</title>
<g id="a_Node000011"><a xlink:href="classDynExp_1_1HardwareAdapterTcpSocket.html" target="_top" xlink:title="Implements a hardware adapter to communicate with text&#45;based commands over TCP sockets.">
<polygon fill="white" stroke="#666666" points="1163,-307.5 1002,-307.5 1002,-277.5 1163,-277.5 1163,-307.5"/>
<text text-anchor="start" x="1010" y="-295.5" font-family="Helvetica,sans-Serif" font-size="10.00">DynExp::HardwareAdapterTcp</text>
<text text-anchor="middle" x="1082.5" y="-284.5" font-family="Helvetica,sans-Serif" font-size="10.00">Socket</text>
</a>
</g>
</g>
<!-- Node9&#45;&gt;Node11 -->
<g id="edge10_Node000009_Node000011" class="edge">
<title>Node9&#45;&gt;Node11</title>
<g id="a_edge10_Node000009_Node000011"><a xlink:title=" ">
<path fill="none" stroke="#63b8ff" d="M952.63,-304.55C969.01,-303.02 985.86,-301.45 1001.76,-299.96"/>
<polygon fill="#63b8ff" stroke="#63b8ff" points="952.14,-301.08 942.51,-305.5 952.8,-308.05 952.14,-301.08"/>
</a>
</g>
</g>
</g>
</svg>
