<?xml version="1.0" encoding="UTF-8" standalone="no"?>
<!DOCTYPE svg PUBLIC "-//W3C//DTD SVG 1.1//EN"
 "http://www.w3.org/Graphics/SVG/1.1/DTD/svg11.dtd">
<!-- Generated by graphviz version 2.43.0 (0)
 -->
<!-- Title: DynExpInstr::WidefieldLocalizationTasks::ExitTask Pages: 1 -->
<svg width="645pt" height="60pt"
 viewBox="0.00 0.00 645.00 60.00" xmlns="http://www.w3.org/2000/svg" xmlns:xlink="http://www.w3.org/1999/xlink">
<g id="graph0" class="graph" transform="scale(1 1) rotate(0) translate(4 56)">
<title>DynExpInstr::WidefieldLocalizationTasks::ExitTask</title>
<!-- Node1 -->
<g id="Node000001" class="node">
<title>Node1</title>
<g id="a_Node000001"><a xlink:title=" ">
<polygon fill="#999999" stroke="#666666" points="637,-41 451,-41 451,-11 637,-11 637,-41"/>
<text text-anchor="start" x="459" y="-29" font-family="Helvetica,sans-Serif" font-size="10.00">DynExpInstr::WidefieldLocalization</text>
<text text-anchor="middle" x="544" y="-18" font-family="Helvetica,sans-Serif" font-size="10.00">Tasks::ExitTask</text>
</a>
</g>
</g>
<!-- Node2 -->
<g id="Node000002" class="node">
<title>Node2</title>
<g id="a_Node000002"><a xlink:href="classDynExpInstr_1_1gRPCInstrumentTasks_1_1ExitTask.html" target="_top" xlink:title=" ">
<polygon fill="white" stroke="#666666" points="415,-52 167,-52 167,0 415,0 415,-52"/>
<text text-anchor="start" x="175" y="-40" font-family="Helvetica,sans-Serif" font-size="10.00">DynExpInstr::gRPCInstrument</text>
<text text-anchor="start" x="175" y="-29" font-family="Helvetica,sans-Serif" font-size="10.00">Tasks::ExitTask&lt; DynExp</text>
<text text-anchor="start" x="175" y="-18" font-family="Helvetica,sans-Serif" font-size="10.00">::InstrumentBase, 0, DynExpProto</text>
<text text-anchor="middle" x="291" y="-7" font-family="Helvetica,sans-Serif" font-size="10.00">::WidefieldLocalization::WidefieldLocalization &gt;</text>
</a>
</g>
</g>
<!-- Node2&#45;&gt;Node1 -->
<g id="edge1_Node000001_Node000002" class="edge">
<title>Node2&#45;&gt;Node1</title>
<g id="a_edge1_Node000001_Node000002"><a xlink:title=" ">
<path fill="none" stroke="#63b8ff" d="M425.33,-26C433.87,-26 442.37,-26 450.65,-26"/>
<polygon fill="#63b8ff" stroke="#63b8ff" points="425.29,-22.5 415.29,-26 425.29,-29.5 425.29,-22.5"/>
</a>
</g>
</g>
<!-- Node3 -->
<g id="Node000003" class="node">
<title>Node3</title>
<g id="a_Node000003"><a xlink:title=" ">
<polygon fill="white" stroke="#666666" points="131,-35.5 0,-35.5 0,-16.5 131,-16.5 131,-35.5"/>
<text text-anchor="middle" x="65.5" y="-23.5" font-family="Helvetica,sans-Serif" font-size="10.00">BaseInstr::ExitTaskType</text>
</a>
</g>
</g>
<!-- Node3&#45;&gt;Node2 -->
<g id="edge2_Node000002_Node000003" class="edge">
<title>Node3&#45;&gt;Node2</title>
<g id="a_edge2_Node000002_Node000003"><a xlink:title=" ">
<path fill="none" stroke="#63b8ff" d="M141.17,-26C149.52,-26 158.19,-26 166.95,-26"/>
<polygon fill="#63b8ff" stroke="#63b8ff" points="141.15,-22.5 131.15,-26 141.15,-29.5 141.15,-22.5"/>
</a>
</g>
</g>
</g>
</svg>
