<?xml version="1.0" encoding="UTF-8" standalone="no"?>
<!DOCTYPE svg PUBLIC "-//W3C//DTD SVG 1.1//EN"
 "http://www.w3.org/Graphics/SVG/1.1/DTD/svg11.dtd">
<!-- Generated by graphviz version 2.43.0 (0)
 -->
<!-- Title: DynExp::SerialPortException Pages: 1 -->
<svg width="173pt" height="263pt"
 viewBox="0.00 0.00 173.00 263.00" xmlns="http://www.w3.org/2000/svg" xmlns:xlink="http://www.w3.org/1999/xlink">
<g id="graph0" class="graph" transform="scale(1 1) rotate(0) translate(4 259)">
<title>DynExp::SerialPortException</title>
<polygon fill="white" stroke="transparent" points="-4,4 -4,-259 169,-259 169,4 -4,4"/>
<!-- Node1 -->
<g id="node1" class="node">
<title>Node1</title>
<g id="a_node1"><a xlink:title="Defines an exception caused by a hardware operation on a COM port (e.g. reading/writing data to a COM...">
<polygon fill="#bfbfbf" stroke="black" points="5,-0.5 5,-19.5 160,-19.5 160,-0.5 5,-0.5"/>
<text text-anchor="middle" x="82.5" y="-7.5" font-family="Helvetica,sans-Serif" font-size="10.00">DynExp::SerialPortException</text>
</a>
</g>
</g>
<!-- Node2 -->
<g id="node2" class="node">
<title>Node2</title>
<g id="a_node2"><a xlink:href="classDynExp_1_1SerialCommunicationException.html" target="_top" xlink:title="Defines an exception caused by a serial communication operation of a hardware adapter.">
<polygon fill="white" stroke="black" points="0,-56.5 0,-86.5 165,-86.5 165,-56.5 0,-56.5"/>
<text text-anchor="start" x="8" y="-74.5" font-family="Helvetica,sans-Serif" font-size="10.00">DynExp::SerialCommunication</text>
<text text-anchor="middle" x="82.5" y="-63.5" font-family="Helvetica,sans-Serif" font-size="10.00">Exception</text>
</a>
</g>
</g>
<!-- Node2&#45;&gt;Node1 -->
<g id="edge1" class="edge">
<title>Node2&#45;&gt;Node1</title>
<path fill="none" stroke="midnightblue" d="M82.5,-46.29C82.5,-36.86 82.5,-26.65 82.5,-19.66"/>
<polygon fill="midnightblue" stroke="midnightblue" points="79,-46.4 82.5,-56.4 86,-46.4 79,-46.4"/>
</g>
<!-- Node3 -->
<g id="node3" class="node">
<title>Node3</title>
<g id="a_node3"><a xlink:href="classUtil_1_1Exception.html" target="_top" xlink:title="DynExp exceptions are derived from this class. It contains basic information about the cause of the e...">
<polygon fill="white" stroke="black" points="38.5,-123.5 38.5,-142.5 126.5,-142.5 126.5,-123.5 38.5,-123.5"/>
<text text-anchor="middle" x="82.5" y="-130.5" font-family="Helvetica,sans-Serif" font-size="10.00">Util::Exception</text>
</a>
</g>
</g>
<!-- Node3&#45;&gt;Node2 -->
<g id="edge2" class="edge">
<title>Node3&#45;&gt;Node2</title>
<path fill="none" stroke="midnightblue" d="M82.5,-113.23C82.5,-104.59 82.5,-94.5 82.5,-86.52"/>
<polygon fill="midnightblue" stroke="midnightblue" points="79,-113.48 82.5,-123.48 86,-113.48 79,-113.48"/>
</g>
<!-- Node4 -->
<g id="node4" class="node">
<title>Node4</title>
<g id="a_node4"><a xlink:title=" ">
<polygon fill="white" stroke="#bfbfbf" points="30.5,-179.5 30.5,-198.5 134.5,-198.5 134.5,-179.5 30.5,-179.5"/>
<text text-anchor="middle" x="82.5" y="-186.5" font-family="Helvetica,sans-Serif" font-size="10.00">std::runtime_error</text>
</a>
</g>
</g>
<!-- Node4&#45;&gt;Node3 -->
<g id="edge3" class="edge">
<title>Node4&#45;&gt;Node3</title>
<path fill="none" stroke="midnightblue" d="M82.5,-168.8C82.5,-159.91 82.5,-149.78 82.5,-142.75"/>
<polygon fill="midnightblue" stroke="midnightblue" points="79,-169.08 82.5,-179.08 86,-169.08 79,-169.08"/>
</g>
<!-- Node5 -->
<g id="node5" class="node">
<title>Node5</title>
<g id="a_node5"><a xlink:title=" ">
<polygon fill="white" stroke="#bfbfbf" points="39.5,-235.5 39.5,-254.5 125.5,-254.5 125.5,-235.5 39.5,-235.5"/>
<text text-anchor="middle" x="82.5" y="-242.5" font-family="Helvetica,sans-Serif" font-size="10.00">std::exception</text>
</a>
</g>
</g>
<!-- Node5&#45;&gt;Node4 -->
<g id="edge4" class="edge">
<title>Node5&#45;&gt;Node4</title>
<path fill="none" stroke="midnightblue" d="M82.5,-224.8C82.5,-215.91 82.5,-205.78 82.5,-198.75"/>
<polygon fill="midnightblue" stroke="midnightblue" points="79,-225.08 82.5,-235.08 86,-225.08 79,-225.08"/>
</g>
</g>
</svg>
