<?xml version="1.0" encoding="UTF-8" standalone="no"?>
<!DOCTYPE svg PUBLIC "-//W3C//DTD SVG 1.1//EN"
 "http://www.w3.org/Graphics/SVG/1.1/DTD/svg11.dtd">
<!-- Generated by graphviz version 2.43.0 (0)
 -->
<!-- Title: DynExp::HardwareAdapterManager Pages: 1 -->
<svg width="224pt" height="148pt"
 viewBox="0.00 0.00 224.00 148.00" xmlns="http://www.w3.org/2000/svg" xmlns:xlink="http://www.w3.org/1999/xlink">
<g id="graph0" class="graph" transform="scale(1 1) rotate(0) translate(4 144)">
<title>DynExp::HardwareAdapterManager</title>
<!-- Node1 -->
<g id="Node000001" class="node">
<title>Node1</title>
<g id="a_Node000001"><a xlink:title="Resource manager for HardwareAdapterBase resources deriving from a specialized ResourceManagerBase cl...">
<polygon fill="#999999" stroke="#666666" points="202,-19 14,-19 14,0 202,0 202,-19"/>
<text text-anchor="middle" x="108" y="-7" font-family="Helvetica,sans-Serif" font-size="10.00">DynExp::HardwareAdapterManager</text>
</a>
</g>
</g>
<!-- Node2 -->
<g id="Node000002" class="node">
<title>Node2</title>
<g id="a_Node000002"><a xlink:href="classDynExp_1_1ResourceManagerBase.html" target="_top" xlink:title=" ">
<polygon fill="white" stroke="#666666" points="194,-85 22,-85 22,-55 194,-55 194,-85"/>
<text text-anchor="start" x="30" y="-73" font-family="Helvetica,sans-Serif" font-size="10.00">DynExp::ResourceManagerBase</text>
<text text-anchor="middle" x="108" y="-62" font-family="Helvetica,sans-Serif" font-size="10.00">&lt; HardwareAdapterPtrType &gt;</text>
</a>
</g>
</g>
<!-- Node2&#45;&gt;Node1 -->
<g id="edge1_Node000001_Node000002" class="edge">
<title>Node2&#45;&gt;Node1</title>
<g id="a_edge1_Node000001_Node000002"><a xlink:title=" ">
<path fill="none" stroke="#63b8ff" d="M108,-44.75C108,-35.72 108,-26.03 108,-19.27"/>
<polygon fill="#63b8ff" stroke="#63b8ff" points="104.5,-44.84 108,-54.84 111.5,-44.84 104.5,-44.84"/>
</a>
</g>
</g>
<!-- Node3 -->
<g id="Node000003" class="node">
<title>Node3</title>
<g id="a_Node000003"><a xlink:href="classDynExp_1_1CommonResourceManagerBase.html" target="_top" xlink:title="Common base class for all derived ResourceManagerBase classes. Logical const&#45;ness: Only const functio...">
<polygon fill="white" stroke="#666666" points="216,-140 0,-140 0,-121 216,-121 216,-140"/>
<text text-anchor="middle" x="108" y="-128" font-family="Helvetica,sans-Serif" font-size="10.00">DynExp::CommonResourceManagerBase</text>
</a>
</g>
</g>
<!-- Node3&#45;&gt;Node2 -->
<g id="edge2_Node000002_Node000003" class="edge">
<title>Node3&#45;&gt;Node2</title>
<g id="a_edge2_Node000002_Node000003"><a xlink:title=" ">
<path fill="none" stroke="#63b8ff" d="M108,-110.65C108,-102.36 108,-92.78 108,-85.11"/>
<polygon fill="#63b8ff" stroke="#63b8ff" points="104.5,-110.87 108,-120.87 111.5,-110.87 104.5,-110.87"/>
</a>
</g>
</g>
</g>
</svg>
