<?xml version="1.0" encoding="UTF-8" standalone="no"?>
<!DOCTYPE svg PUBLIC "-//W3C//DTD SVG 1.1//EN"
 "http://www.w3.org/Graphics/SVG/1.1/DTD/svg11.dtd">
<!-- Generated by graphviz version 2.43.0 (0)
 -->
<!-- Title: DynExp::ModuleDataBase Pages: 1 -->
<svg width="1193pt" height="684pt"
 viewBox="0.00 0.00 1193.00 684.00" xmlns="http://www.w3.org/2000/svg" xmlns:xlink="http://www.w3.org/1999/xlink">
<g id="graph0" class="graph" transform="scale(1 1) rotate(0) translate(4 680)">
<title>DynExp::ModuleDataBase</title>
<polygon fill="white" stroke="transparent" points="-4,4 -4,-680 1189,-680 1189,4 -4,4"/>
<!-- Node1 -->
<g id="node1" class="node">
<title>Node1</title>
<g id="a_node1"><a xlink:title="Data structure to contain data which is synchronized in between different threads....">
<polygon fill="#bfbfbf" stroke="black" points="323,-203 323,-222 466,-222 466,-203 323,-203"/>
<text text-anchor="middle" x="394.5" y="-210" font-family="Helvetica,sans-Serif" font-size="10.00">DynExp::ModuleDataBase</text>
</a>
</g>
</g>
<!-- Node4 -->
<g id="node4" class="node">
<title>Node4</title>
<g id="a_node4"><a xlink:href="classDynExpModule_1_1gRPCModuleData.html" target="_top" xlink:title=" ">
<polygon fill="white" stroke="black" points="529.5,-498.5 529.5,-528.5 687.5,-528.5 687.5,-498.5 529.5,-498.5"/>
<text text-anchor="start" x="537.5" y="-516.5" font-family="Helvetica,sans-Serif" font-size="10.00">DynExpModule::gRPCModule</text>
<text text-anchor="middle" x="608.5" y="-505.5" font-family="Helvetica,sans-Serif" font-size="10.00">Data&lt; gRPCServices... &gt;</text>
</a>
</g>
</g>
<!-- Node1&#45;&gt;Node4 -->
<g id="edge3" class="edge">
<title>Node1&#45;&gt;Node4</title>
<path fill="none" stroke="midnightblue" d="M408.18,-230.51C446.59,-285.04 561.18,-447.73 596.81,-498.32"/>
<polygon fill="midnightblue" stroke="midnightblue" points="410.93,-228.33 402.31,-222.17 405.21,-232.37 410.93,-228.33"/>
</g>
<!-- Node12 -->
<g id="node12" class="node">
<title>Node12</title>
<g id="a_node12"><a xlink:href="classDynExp_1_1QModuleDataBase.html" target="_top" xlink:title="Data class for QModuleBase.">
<polygon fill="white" stroke="black" points="533,-247 533,-266 684,-266 684,-247 533,-247"/>
<text text-anchor="middle" x="608.5" y="-254" font-family="Helvetica,sans-Serif" font-size="10.00">DynExp::QModuleDataBase</text>
</a>
</g>
</g>
<!-- Node1&#45;&gt;Node12 -->
<g id="edge11" class="edge">
<title>Node1&#45;&gt;Node12</title>
<path fill="none" stroke="midnightblue" d="M443.66,-224.37C461.89,-228.71 482.86,-233.53 502,-237.5 518.04,-240.82 535.51,-244.11 551.55,-246.99"/>
<polygon fill="midnightblue" stroke="midnightblue" points="444.38,-220.94 433.84,-222.01 442.75,-227.75 444.38,-220.94"/>
</g>
<!-- Node24 -->
<g id="node24" class="node">
<title>Node24</title>
<g id="a_node24"><a xlink:href="classDynExpModule_1_1ArbitraryFunctionFromCSVData.html" target="_top" xlink:title=" ">
<polygon fill="white" stroke="black" points="518.5,-197.5 518.5,-227.5 698.5,-227.5 698.5,-197.5 518.5,-197.5"/>
<text text-anchor="start" x="526.5" y="-215.5" font-family="Helvetica,sans-Serif" font-size="10.00">DynExpModule::ArbitraryFunction</text>
<text text-anchor="middle" x="608.5" y="-204.5" font-family="Helvetica,sans-Serif" font-size="10.00">FromCSVData</text>
</a>
</g>
</g>
<!-- Node1&#45;&gt;Node24 -->
<g id="edge23" class="edge">
<title>Node1&#45;&gt;Node24</title>
<path fill="none" stroke="midnightblue" d="M476.44,-212.5C490.15,-212.5 504.45,-212.5 518.36,-212.5"/>
<polygon fill="midnightblue" stroke="midnightblue" points="476.09,-209 466.09,-212.5 476.09,-216 476.09,-209"/>
</g>
<!-- Node25 -->
<g id="node25" class="node">
<title>Node25</title>
<g id="a_node25"><a xlink:href="classDynExpModule_1_1StreamManipulatorData.html" target="_top" xlink:title="Data class for StreamManipulator.">
<polygon fill="white" stroke="black" points="502,-159 502,-178 715,-178 715,-159 502,-159"/>
<text text-anchor="middle" x="608.5" y="-166" font-family="Helvetica,sans-Serif" font-size="10.00">DynExpModule::StreamManipulatorData</text>
</a>
</g>
</g>
<!-- Node1&#45;&gt;Node25 -->
<g id="edge24" class="edge">
<title>Node1&#45;&gt;Node25</title>
<path fill="none" stroke="midnightblue" d="M443.66,-200.63C461.89,-196.29 482.86,-191.47 502,-187.5 518.04,-184.18 535.51,-180.89 551.55,-178.01"/>
<polygon fill="midnightblue" stroke="midnightblue" points="442.75,-197.25 433.84,-202.99 444.38,-204.06 442.75,-197.25"/>
</g>
<!-- Node26 -->
<g id="node26" class="node">
<title>Node26</title>
<g id="a_node26"><a xlink:href="classDynExpModule_1_1gRPCModuleData.html" target="_top" xlink:title="Data class for gRPCModule.">
<polygon fill="white" stroke="black" points="529.5,-109.5 529.5,-139.5 687.5,-139.5 687.5,-109.5 529.5,-109.5"/>
<text text-anchor="start" x="537.5" y="-127.5" font-family="Helvetica,sans-Serif" font-size="10.00">DynExpModule::gRPCModule</text>
<text text-anchor="middle" x="608.5" y="-116.5" font-family="Helvetica,sans-Serif" font-size="10.00">Data&lt; gRPCServices &gt;</text>
</a>
</g>
</g>
<!-- Node1&#45;&gt;Node26 -->
<g id="edge25" class="edge">
<title>Node1&#45;&gt;Node26</title>
<path fill="none" stroke="midnightblue" d="M417.01,-197.13C437.84,-182.9 470.76,-162.1 502,-149.5 511.43,-145.7 521.57,-142.39 531.71,-139.53"/>
<polygon fill="midnightblue" stroke="midnightblue" points="414.82,-194.39 408.6,-202.96 418.81,-200.14 414.82,-194.39"/>
</g>
<!-- Node2 -->
<g id="node2" class="node">
<title>Node2</title>
<g id="a_node2"><a xlink:href="classUtil_1_1ISynchronizedPointerLockable.html" target="_top" xlink:title="Interface to allow synchronizing the access to derived classes between different threads by making th...">
<polygon fill="white" stroke="black" points="144,-197.5 144,-227.5 287,-227.5 287,-197.5 144,-197.5"/>
<text text-anchor="start" x="152" y="-215.5" font-family="Helvetica,sans-Serif" font-size="10.00">Util::ISynchronizedPointer</text>
<text text-anchor="middle" x="215.5" y="-204.5" font-family="Helvetica,sans-Serif" font-size="10.00">Lockable</text>
</a>
</g>
</g>
<!-- Node2&#45;&gt;Node1 -->
<g id="edge1" class="edge">
<title>Node2&#45;&gt;Node1</title>
<path fill="none" stroke="midnightblue" d="M297.49,-212.5C305.97,-212.5 314.54,-212.5 322.89,-212.5"/>
<polygon fill="midnightblue" stroke="midnightblue" points="297.22,-209 287.22,-212.5 297.22,-216 297.22,-209"/>
</g>
<!-- Node3 -->
<g id="node3" class="node">
<title>Node3</title>
<g id="a_node3"><a xlink:href="classUtil_1_1INonCopyable.html" target="_top" xlink:title="Interface to delete copy constructor and copy assignment operator and thus make derived classes non&#45;c...">
<polygon fill="white" stroke="black" points="0,-203 0,-222 108,-222 108,-203 0,-203"/>
<text text-anchor="middle" x="54" y="-210" font-family="Helvetica,sans-Serif" font-size="10.00">Util::INonCopyable</text>
</a>
</g>
</g>
<!-- Node3&#45;&gt;Node2 -->
<g id="edge2" class="edge">
<title>Node3&#45;&gt;Node2</title>
<path fill="none" stroke="midnightblue" d="M118.19,-212.5C126.58,-212.5 135.23,-212.5 143.74,-212.5"/>
<polygon fill="midnightblue" stroke="midnightblue" points="118.11,-209 108.11,-212.5 118.11,-216 118.11,-209"/>
</g>
<!-- Node5 -->
<g id="node5" class="node">
<title>Node5</title>
<g id="a_node5"><a xlink:href="classDynExpModule_1_1NetworkDataStreamInstrumentData.html" target="_top" xlink:title=" ">
<polygon fill="white" stroke="black" points="751,-547.5 751,-577.5 978,-577.5 978,-547.5 751,-547.5"/>
<text text-anchor="start" x="759" y="-565.5" font-family="Helvetica,sans-Serif" font-size="10.00">DynExpModule::NetworkData</text>
<text text-anchor="middle" x="864.5" y="-554.5" font-family="Helvetica,sans-Serif" font-size="10.00">StreamInstrumentData&lt; gRPCServices... &gt;</text>
</a>
</g>
</g>
<!-- Node4&#45;&gt;Node5 -->
<g id="edge4" class="edge">
<title>Node4&#45;&gt;Node5</title>
<path fill="none" stroke="midnightblue" d="M697.45,-530.47C726.16,-536 757.81,-542.11 785.71,-547.49"/>
<polygon fill="midnightblue" stroke="midnightblue" points="697.92,-526.99 687.43,-528.53 696.59,-533.87 697.92,-526.99"/>
</g>
<!-- Node11 -->
<g id="node11" class="node">
<title>Node11</title>
<g id="a_node11"><a xlink:href="classDynExpModule_1_1NetworkDataStreamInstrumentData.html" target="_top" xlink:title=" ">
<polygon fill="white" stroke="black" points="755.5,-498.5 755.5,-528.5 973.5,-528.5 973.5,-498.5 755.5,-498.5"/>
<text text-anchor="start" x="763.5" y="-516.5" font-family="Helvetica,sans-Serif" font-size="10.00">DynExpModule::NetworkData</text>
<text text-anchor="middle" x="864.5" y="-505.5" font-family="Helvetica,sans-Serif" font-size="10.00">StreamInstrumentData&lt; gRPCServices &gt;</text>
</a>
</g>
</g>
<!-- Node4&#45;&gt;Node11 -->
<g id="edge10" class="edge">
<title>Node4&#45;&gt;Node11</title>
<path fill="none" stroke="midnightblue" d="M697.9,-513.5C716.37,-513.5 736.03,-513.5 755.12,-513.5"/>
<polygon fill="midnightblue" stroke="midnightblue" points="697.78,-510 687.78,-513.5 697.78,-517 697.78,-510"/>
</g>
<!-- Node6 -->
<g id="node6" class="node">
<title>Node6</title>
<g id="a_node6"><a xlink:href="classDynExpModule_1_1NetworkAnalogInData.html" target="_top" xlink:title=" ">
<polygon fill="white" stroke="black" points="1014,-645.5 1014,-675.5 1185,-675.5 1185,-645.5 1014,-645.5"/>
<text text-anchor="start" x="1022" y="-663.5" font-family="Helvetica,sans-Serif" font-size="10.00">DynExpModule::NetworkAnalog</text>
<text text-anchor="middle" x="1099.5" y="-652.5" font-family="Helvetica,sans-Serif" font-size="10.00">InData&lt; gRPCServices &gt;</text>
</a>
</g>
</g>
<!-- Node5&#45;&gt;Node6 -->
<g id="edge5" class="edge">
<title>Node5&#45;&gt;Node6</title>
<path fill="none" stroke="midnightblue" d="M901,-582.54C930.57,-598.64 974.13,-621.06 1014,-636.5 1022.25,-639.69 1031.1,-642.67 1039.85,-645.37"/>
<polygon fill="midnightblue" stroke="midnightblue" points="902.37,-579.29 891.92,-577.54 899,-585.43 902.37,-579.29"/>
</g>
<!-- Node7 -->
<g id="node7" class="node">
<title>Node7</title>
<g id="a_node7"><a xlink:href="classDynExpModule_1_1NetworkAnalogOutData.html" target="_top" xlink:title=" ">
<polygon fill="white" stroke="black" points="1014,-596.5 1014,-626.5 1185,-626.5 1185,-596.5 1014,-596.5"/>
<text text-anchor="start" x="1022" y="-614.5" font-family="Helvetica,sans-Serif" font-size="10.00">DynExpModule::NetworkAnalog</text>
<text text-anchor="middle" x="1099.5" y="-603.5" font-family="Helvetica,sans-Serif" font-size="10.00">OutData&lt; gRPCServices &gt;</text>
</a>
</g>
</g>
<!-- Node5&#45;&gt;Node7 -->
<g id="edge6" class="edge">
<title>Node5&#45;&gt;Node7</title>
<path fill="none" stroke="midnightblue" d="M946.87,-579.61C973.02,-585.11 1001.77,-591.16 1027.14,-596.49"/>
<polygon fill="midnightblue" stroke="midnightblue" points="947.5,-576.17 936.99,-577.53 946.06,-583.02 947.5,-576.17"/>
</g>
<!-- Node8 -->
<g id="node8" class="node">
<title>Node8</title>
<g id="a_node8"><a xlink:href="classDynExpModule_1_1NetworkDigitalInData.html" target="_top" xlink:title=" ">
<polygon fill="white" stroke="black" points="1014.5,-547.5 1014.5,-577.5 1184.5,-577.5 1184.5,-547.5 1014.5,-547.5"/>
<text text-anchor="start" x="1022.5" y="-565.5" font-family="Helvetica,sans-Serif" font-size="10.00">DynExpModule::NetworkDigital</text>
<text text-anchor="middle" x="1099.5" y="-554.5" font-family="Helvetica,sans-Serif" font-size="10.00">InData&lt; gRPCServices &gt;</text>
</a>
</g>
</g>
<!-- Node5&#45;&gt;Node8 -->
<g id="edge7" class="edge">
<title>Node5&#45;&gt;Node8</title>
<path fill="none" stroke="midnightblue" d="M988.25,-562.5C997.11,-562.5 1005.91,-562.5 1014.47,-562.5"/>
<polygon fill="midnightblue" stroke="midnightblue" points="988.25,-559 978.25,-562.5 988.25,-566 988.25,-559"/>
</g>
<!-- Node9 -->
<g id="node9" class="node">
<title>Node9</title>
<g id="a_node9"><a xlink:href="classDynExpModule_1_1NetworkDigitalOutData.html" target="_top" xlink:title=" ">
<polygon fill="white" stroke="black" points="1014.5,-498.5 1014.5,-528.5 1184.5,-528.5 1184.5,-498.5 1014.5,-498.5"/>
<text text-anchor="start" x="1022.5" y="-516.5" font-family="Helvetica,sans-Serif" font-size="10.00">DynExpModule::NetworkDigital</text>
<text text-anchor="middle" x="1099.5" y="-505.5" font-family="Helvetica,sans-Serif" font-size="10.00">OutData&lt; gRPCServices &gt;</text>
</a>
</g>
</g>
<!-- Node5&#45;&gt;Node9 -->
<g id="edge8" class="edge">
<title>Node5&#45;&gt;Node9</title>
<path fill="none" stroke="midnightblue" d="M946.87,-545.39C973.02,-539.89 1001.77,-533.84 1027.14,-528.51"/>
<polygon fill="midnightblue" stroke="midnightblue" points="946.06,-541.98 936.99,-547.47 947.5,-548.83 946.06,-541.98"/>
</g>
<!-- Node10 -->
<g id="node10" class="node">
<title>Node10</title>
<g id="a_node10"><a xlink:href="classDynExpModule_1_1NetworkTimeTaggerData.html" target="_top" xlink:title=" ">
<polygon fill="white" stroke="black" points="1018.5,-449.5 1018.5,-479.5 1180.5,-479.5 1180.5,-449.5 1018.5,-449.5"/>
<text text-anchor="start" x="1026.5" y="-467.5" font-family="Helvetica,sans-Serif" font-size="10.00">DynExpModule::NetworkTime</text>
<text text-anchor="middle" x="1099.5" y="-456.5" font-family="Helvetica,sans-Serif" font-size="10.00">TaggerData&lt; gRPCServices &gt;</text>
</a>
</g>
</g>
<!-- Node5&#45;&gt;Node10 -->
<g id="edge9" class="edge">
<title>Node5&#45;&gt;Node10</title>
<path fill="none" stroke="midnightblue" d="M969.93,-543.2C972.7,-541.74 975.4,-540.18 978,-538.5 1000.7,-523.83 991.89,-505.03 1014,-489.5 1019.51,-485.63 1025.62,-482.35 1031.96,-479.58"/>
<polygon fill="midnightblue" stroke="midnightblue" points="968.38,-540.06 960.84,-547.5 971.37,-546.39 968.38,-540.06"/>
</g>
<!-- Node13 -->
<g id="node13" class="node">
<title>Node13</title>
<g id="a_node13"><a xlink:href="classDynExpModule_1_1ImageViewer_1_1ImageViewerData.html" target="_top" xlink:title=" ">
<polygon fill="white" stroke="black" points="784,-449.5 784,-479.5 945,-479.5 945,-449.5 784,-449.5"/>
<text text-anchor="start" x="792" y="-467.5" font-family="Helvetica,sans-Serif" font-size="10.00">DynExpModule::ImageViewer</text>
<text text-anchor="middle" x="864.5" y="-456.5" font-family="Helvetica,sans-Serif" font-size="10.00">::ImageViewerData</text>
</a>
</g>
</g>
<!-- Node12&#45;&gt;Node13 -->
<g id="edge12" class="edge">
<title>Node12&#45;&gt;Node13</title>
<path fill="none" stroke="midnightblue" d="M618.6,-275.75C637.54,-313.58 684.99,-397.59 751,-439.5 760.97,-445.83 772.31,-450.56 783.88,-454.11"/>
<polygon fill="midnightblue" stroke="midnightblue" points="621.56,-273.82 614.02,-266.37 615.27,-276.9 621.56,-273.82"/>
</g>
<!-- Node14 -->
<g id="node14" class="node">
<title>Node14</title>
<g id="a_node14"><a xlink:href="classDynExpModule_1_1InputPortReaderData.html" target="_top" xlink:title=" ">
<polygon fill="white" stroke="black" points="765.5,-411 765.5,-430 963.5,-430 963.5,-411 765.5,-411"/>
<text text-anchor="middle" x="864.5" y="-418" font-family="Helvetica,sans-Serif" font-size="10.00">DynExpModule::InputPortReaderData</text>
</a>
</g>
</g>
<!-- Node12&#45;&gt;Node14 -->
<g id="edge13" class="edge">
<title>Node12&#45;&gt;Node14</title>
<path fill="none" stroke="midnightblue" d="M621.57,-275.01C643.31,-306.66 692.27,-370.74 751,-401.5 758.37,-405.36 766.35,-408.46 774.54,-410.96"/>
<polygon fill="midnightblue" stroke="midnightblue" points="624.21,-272.65 615.72,-266.3 618.39,-276.55 624.21,-272.65"/>
</g>
<!-- Node15 -->
<g id="node15" class="node">
<title>Node15</title>
<g id="a_node15"><a xlink:href="classDynExpModule_1_1LockinAmplifierControlData.html" target="_top" xlink:title=" ">
<polygon fill="white" stroke="black" points="778.5,-361.5 778.5,-391.5 950.5,-391.5 950.5,-361.5 778.5,-361.5"/>
<text text-anchor="start" x="786.5" y="-379.5" font-family="Helvetica,sans-Serif" font-size="10.00">DynExpModule::LockinAmplifier</text>
<text text-anchor="middle" x="864.5" y="-368.5" font-family="Helvetica,sans-Serif" font-size="10.00">ControlData</text>
</a>
</g>
</g>
<!-- Node12&#45;&gt;Node15 -->
<g id="edge14" class="edge">
<title>Node12&#45;&gt;Node15</title>
<path fill="none" stroke="midnightblue" d="M628.2,-272.73C654.03,-294.27 702.92,-331.99 751,-352.5 759.63,-356.18 768.89,-359.32 778.25,-361.99"/>
<polygon fill="midnightblue" stroke="midnightblue" points="630.25,-269.88 620.36,-266.09 625.73,-275.22 630.25,-269.88"/>
</g>
<!-- Node16 -->
<g id="node16" class="node">
<title>Node16</title>
<g id="a_node16"><a xlink:href="classDynExpModule_1_1ODMR_1_1ODMRData.html" target="_top" xlink:title=" ">
<polygon fill="white" stroke="black" points="801,-312.5 801,-342.5 928,-342.5 928,-312.5 801,-312.5"/>
<text text-anchor="start" x="809" y="-330.5" font-family="Helvetica,sans-Serif" font-size="10.00">DynExpModule::ODMR</text>
<text text-anchor="middle" x="864.5" y="-319.5" font-family="Helvetica,sans-Serif" font-size="10.00">::ODMRData</text>
</a>
</g>
</g>
<!-- Node12&#45;&gt;Node16 -->
<g id="edge15" class="edge">
<title>Node12&#45;&gt;Node16</title>
<path fill="none" stroke="midnightblue" d="M644.81,-269.44C673.24,-279.56 714.35,-293.54 751,-303.5 767,-307.85 784.44,-311.9 800.72,-315.39"/>
<polygon fill="midnightblue" stroke="midnightblue" points="645.91,-266.11 635.32,-266.03 643.55,-272.7 645.91,-266.11"/>
</g>
<!-- Node17 -->
<g id="node17" class="node">
<title>Node17</title>
<g id="a_node17"><a xlink:href="classDynExpModule_1_1OutputPortWriterData.html" target="_top" xlink:title=" ">
<polygon fill="white" stroke="black" points="790,-263.5 790,-293.5 939,-293.5 939,-263.5 790,-263.5"/>
<text text-anchor="start" x="798" y="-281.5" font-family="Helvetica,sans-Serif" font-size="10.00">DynExpModule::OutputPort</text>
<text text-anchor="middle" x="864.5" y="-270.5" font-family="Helvetica,sans-Serif" font-size="10.00">WriterData</text>
</a>
</g>
</g>
<!-- Node12&#45;&gt;Node17 -->
<g id="edge16" class="edge">
<title>Node12&#45;&gt;Node17</title>
<path fill="none" stroke="midnightblue" d="M694.62,-263.87C725.41,-266.54 759.9,-269.53 789.64,-272.1"/>
<polygon fill="midnightblue" stroke="midnightblue" points="694.6,-260.36 684.33,-262.98 694,-267.33 694.6,-260.36"/>
</g>
<!-- Node18 -->
<g id="node18" class="node">
<title>Node18</title>
<g id="a_node18"><a xlink:href="classDynExpModule_1_1SignalDesignerData.html" target="_top" xlink:title=" ">
<polygon fill="white" stroke="black" points="768,-225 768,-244 961,-244 961,-225 768,-225"/>
<text text-anchor="middle" x="864.5" y="-232" font-family="Helvetica,sans-Serif" font-size="10.00">DynExpModule::SignalDesignerData</text>
</a>
</g>
</g>
<!-- Node12&#45;&gt;Node18 -->
<g id="edge17" class="edge">
<title>Node12&#45;&gt;Node18</title>
<path fill="none" stroke="midnightblue" d="M694.31,-249.15C717.94,-247.11 743.76,-244.87 767.96,-242.78"/>
<polygon fill="midnightblue" stroke="midnightblue" points="694,-245.67 684.33,-250.02 694.6,-252.64 694,-245.67"/>
</g>
<!-- Node19 -->
<g id="node19" class="node">
<title>Node19</title>
<g id="a_node19"><a xlink:href="classDynExpModule_1_1SignalPlotterData.html" target="_top" xlink:title=" ">
<polygon fill="white" stroke="black" points="773.5,-187 773.5,-206 955.5,-206 955.5,-187 773.5,-187"/>
<text text-anchor="middle" x="864.5" y="-194" font-family="Helvetica,sans-Serif" font-size="10.00">DynExpModule::SignalPlotterData</text>
</a>
</g>
</g>
<!-- Node12&#45;&gt;Node19 -->
<g id="edge18" class="edge">
<title>Node12&#45;&gt;Node19</title>
<path fill="none" stroke="midnightblue" d="M692.39,-244.62C700.14,-242.6 707.78,-240.24 715,-237.5 732.53,-230.84 733.44,-222.07 751,-215.5 761.39,-211.61 772.62,-208.52 783.82,-206.05"/>
<polygon fill="midnightblue" stroke="midnightblue" points="691.44,-241.24 682.54,-247 693.08,-248.05 691.44,-241.24"/>
</g>
<!-- Node20 -->
<g id="node20" class="node">
<title>Node20</title>
<g id="a_node20"><a xlink:href="classDynExpModule_1_1SpectrumViewer_1_1SpectrumViewerData.html" target="_top" xlink:title=" ">
<polygon fill="white" stroke="black" points="776.5,-137.5 776.5,-167.5 952.5,-167.5 952.5,-137.5 776.5,-137.5"/>
<text text-anchor="start" x="784.5" y="-155.5" font-family="Helvetica,sans-Serif" font-size="10.00">DynExpModule::SpectrumViewer</text>
<text text-anchor="middle" x="864.5" y="-144.5" font-family="Helvetica,sans-Serif" font-size="10.00">::SpectrumViewerData</text>
</a>
</g>
</g>
<!-- Node12&#45;&gt;Node20 -->
<g id="edge19" class="edge">
<title>Node12&#45;&gt;Node20</title>
<path fill="none" stroke="midnightblue" d="M693.83,-248.21C701.34,-245.47 708.54,-241.96 715,-237.5 740.59,-219.83 725.77,-195.68 751,-177.5 758.63,-172 767.25,-167.68 776.24,-164.29"/>
<polygon fill="midnightblue" stroke="midnightblue" points="692.63,-244.92 684.17,-251.3 694.76,-251.59 692.63,-244.92"/>
</g>
<!-- Node21 -->
<g id="node21" class="node">
<title>Node21</title>
<g id="a_node21"><a xlink:href="classDynExpModule_1_1Stage1DData.html" target="_top" xlink:title=" ">
<polygon fill="white" stroke="black" points="784,-99 784,-118 945,-118 945,-99 784,-99"/>
<text text-anchor="middle" x="864.5" y="-106" font-family="Helvetica,sans-Serif" font-size="10.00">DynExpModule::Stage1DData</text>
</a>
</g>
</g>
<!-- Node12&#45;&gt;Node21 -->
<g id="edge20" class="edge">
<title>Node12&#45;&gt;Node21</title>
<path fill="none" stroke="midnightblue" d="M693.79,-250.14C701.51,-247.05 708.76,-242.93 715,-237.5 753.8,-203.72 712.02,-161.07 751,-127.5 760.38,-119.42 771.89,-114.16 783.92,-110.81"/>
<polygon fill="midnightblue" stroke="midnightblue" points="692.5,-246.89 684.17,-253.44 694.76,-253.51 692.5,-246.89"/>
</g>
<!-- Node22 -->
<g id="node22" class="node">
<title>Node22</title>
<g id="a_node22"><a xlink:href="classDynExpModule_1_1Trajectory1DData.html" target="_top" xlink:title=" ">
<polygon fill="white" stroke="black" points="789.5,-49.5 789.5,-79.5 939.5,-79.5 939.5,-49.5 789.5,-49.5"/>
<text text-anchor="start" x="797.5" y="-67.5" font-family="Helvetica,sans-Serif" font-size="10.00">DynExpModule::Trajectory1</text>
<text text-anchor="middle" x="864.5" y="-56.5" font-family="Helvetica,sans-Serif" font-size="10.00">DData</text>
</a>
</g>
</g>
<!-- Node12&#45;&gt;Node22 -->
<g id="edge21" class="edge">
<title>Node12&#45;&gt;Node22</title>
<path fill="none" stroke="midnightblue" d="M693.61,-250.89C701.48,-247.67 708.82,-243.32 715,-237.5 764.29,-191.1 702.66,-136.89 751,-89.5 761.43,-79.28 775.06,-72.85 789.22,-68.89"/>
<polygon fill="midnightblue" stroke="midnightblue" points="692.45,-247.59 684.15,-254.17 694.74,-254.2 692.45,-247.59"/>
</g>
<!-- Node23 -->
<g id="node23" class="node">
<title>Node23</title>
<g id="a_node23"><a xlink:href="classDynExpModule_1_1Widefield_1_1WidefieldMicroscopeData.html" target="_top" xlink:title=" ">
<polygon fill="white" stroke="black" points="791,-0.5 791,-30.5 938,-30.5 938,-0.5 791,-0.5"/>
<text text-anchor="start" x="799" y="-18.5" font-family="Helvetica,sans-Serif" font-size="10.00">DynExpModule::Widefield</text>
<text text-anchor="middle" x="864.5" y="-7.5" font-family="Helvetica,sans-Serif" font-size="10.00">::WidefieldMicroscopeData</text>
</a>
</g>
</g>
<!-- Node12&#45;&gt;Node23 -->
<g id="edge22" class="edge">
<title>Node12&#45;&gt;Node23</title>
<path fill="none" stroke="midnightblue" d="M693.59,-251.41C701.54,-248.11 708.89,-243.6 715,-237.5 778.3,-174.31 688.72,-103.7 751,-39.5 761.64,-28.53 775.96,-21.98 790.82,-18.18"/>
<polygon fill="midnightblue" stroke="midnightblue" points="692.31,-248.15 684.02,-254.75 694.62,-254.76 692.31,-248.15"/>
</g>
</g>
</svg>
