<?xml version="1.0" encoding="UTF-8" standalone="no"?>
<!DOCTYPE svg PUBLIC "-//W3C//DTD SVG 1.1//EN"
 "http://www.w3.org/Graphics/SVG/1.1/DTD/svg11.dtd">
<!-- Generated by graphviz version 2.43.0 (0)
 -->
<!-- Title: DynExpModule::SpectrumViewer::SpectrumFinishedRecordingEvent Pages: 1 -->
<svg width="211pt" height="218pt"
 viewBox="0.00 0.00 211.00 218.00" xmlns="http://www.w3.org/2000/svg" xmlns:xlink="http://www.w3.org/1999/xlink">
<g id="graph0" class="graph" transform="scale(1 1) rotate(0) translate(4 214)">
<title>DynExpModule::SpectrumViewer::SpectrumFinishedRecordingEvent</title>
<polygon fill="white" stroke="transparent" points="-4,4 -4,-214 207,-214 207,4 -4,4"/>
<!-- Node1 -->
<g id="node1" class="node">
<title>Node1</title>
<g id="a_node1"><a xlink:title=" ">
<polygon fill="#bfbfbf" stroke="black" points="8.5,-0.5 8.5,-30.5 194.5,-30.5 194.5,-0.5 8.5,-0.5"/>
<text text-anchor="start" x="16.5" y="-18.5" font-family="Helvetica,sans-Serif" font-size="10.00">DynExpModule::SpectrumViewer</text>
<text text-anchor="middle" x="101.5" y="-7.5" font-family="Helvetica,sans-Serif" font-size="10.00">::SpectrumFinishedRecordingEvent</text>
</a>
</g>
</g>
<!-- Node2 -->
<g id="node2" class="node">
<title>Node2</title>
<g id="a_node2"><a xlink:href="classDynExp_1_1InterModuleEvent.html" target="_top" xlink:title=" ">
<polygon fill="white" stroke="black" points="0,-67.5 0,-97.5 203,-97.5 203,-67.5 0,-67.5"/>
<text text-anchor="start" x="8" y="-85.5" font-family="Helvetica,sans-Serif" font-size="10.00">DynExp::InterModuleEvent</text>
<text text-anchor="middle" x="101.5" y="-74.5" font-family="Helvetica,sans-Serif" font-size="10.00">&lt; SpectrumFinishedRecordingEvent &gt;</text>
</a>
</g>
</g>
<!-- Node2&#45;&gt;Node1 -->
<g id="edge1" class="edge">
<title>Node2&#45;&gt;Node1</title>
<path fill="none" stroke="midnightblue" d="M101.5,-57.11C101.5,-48.15 101.5,-38.32 101.5,-30.58"/>
<polygon fill="midnightblue" stroke="midnightblue" points="98,-57.4 101.5,-67.4 105,-57.4 98,-57.4"/>
</g>
<!-- Node3 -->
<g id="node3" class="node">
<title>Node3</title>
<g id="a_node3"><a xlink:href="classDynExp_1_1InterModuleEventBase.html" target="_top" xlink:title="Common base class for all inter&#45;module events.">
<polygon fill="white" stroke="black" points="16.5,-134.5 16.5,-153.5 186.5,-153.5 186.5,-134.5 16.5,-134.5"/>
<text text-anchor="middle" x="101.5" y="-141.5" font-family="Helvetica,sans-Serif" font-size="10.00">DynExp::InterModuleEventBase</text>
</a>
</g>
</g>
<!-- Node3&#45;&gt;Node2 -->
<g id="edge2" class="edge">
<title>Node3&#45;&gt;Node2</title>
<path fill="none" stroke="midnightblue" d="M101.5,-124.23C101.5,-115.59 101.5,-105.5 101.5,-97.52"/>
<polygon fill="midnightblue" stroke="midnightblue" points="98,-124.48 101.5,-134.48 105,-124.48 98,-124.48"/>
</g>
<!-- Node4 -->
<g id="node4" class="node">
<title>Node4</title>
<g id="a_node4"><a xlink:href="classDynExp_1_1EventBase.html" target="_top" xlink:title="Common base class for all events to store them in a FIFO queue to be invoked later.">
<polygon fill="white" stroke="black" points="45.5,-190.5 45.5,-209.5 157.5,-209.5 157.5,-190.5 45.5,-190.5"/>
<text text-anchor="middle" x="101.5" y="-197.5" font-family="Helvetica,sans-Serif" font-size="10.00">DynExp::EventBase</text>
</a>
</g>
</g>
<!-- Node4&#45;&gt;Node3 -->
<g id="edge3" class="edge">
<title>Node4&#45;&gt;Node3</title>
<path fill="none" stroke="midnightblue" d="M101.5,-179.8C101.5,-170.91 101.5,-160.78 101.5,-153.75"/>
<polygon fill="midnightblue" stroke="midnightblue" points="98,-180.08 101.5,-190.08 105,-180.08 98,-180.08"/>
</g>
</g>
</svg>
