<?xml version="1.0" encoding="UTF-8" standalone="no"?>
<!DOCTYPE svg PUBLIC "-//W3C//DTD SVG 1.1//EN"
 "http://www.w3.org/Graphics/SVG/1.1/DTD/svg11.dtd">
<!-- Generated by graphviz version 2.43.0 (0)
 -->
<!-- Title: DynExpInstr::CameraParams Pages: 1 -->
<svg width="338pt" height="386pt"
 viewBox="0.00 0.00 338.00 386.00" xmlns="http://www.w3.org/2000/svg" xmlns:xlink="http://www.w3.org/1999/xlink">
<g id="graph0" class="graph" transform="scale(1 1) rotate(0) translate(4 382)">
<title>DynExpInstr::CameraParams</title>
<polygon fill="white" stroke="transparent" points="-4,4 -4,-382 334,-382 334,4 -4,4"/>
<!-- Node1 -->
<g id="node1" class="node">
<title>Node1</title>
<g id="a_node1"><a xlink:title="Parameter class for Camera.">
<polygon fill="#bfbfbf" stroke="black" points="88.5,-67.5 88.5,-86.5 244.5,-86.5 244.5,-67.5 88.5,-67.5"/>
<text text-anchor="middle" x="166.5" y="-74.5" font-family="Helvetica,sans-Serif" font-size="10.00">DynExpInstr::CameraParams</text>
</a>
</g>
</g>
<!-- Node7 -->
<g id="node7" class="node">
<title>Node7</title>
<g id="a_node7"><a xlink:href="classDynExpInstr_1_1DummyCameraParams.html" target="_top" xlink:title=" ">
<polygon fill="white" stroke="black" points="0,-0.5 0,-30.5 159,-30.5 159,-0.5 0,-0.5"/>
<text text-anchor="start" x="8" y="-18.5" font-family="Helvetica,sans-Serif" font-size="10.00">DynExpInstr::DummyCamera</text>
<text text-anchor="middle" x="79.5" y="-7.5" font-family="Helvetica,sans-Serif" font-size="10.00">Params</text>
</a>
</g>
</g>
<!-- Node1&#45;&gt;Node7 -->
<g id="edge6" class="edge">
<title>Node1&#45;&gt;Node7</title>
<path fill="none" stroke="midnightblue" d="M145.65,-61.74C131.82,-52.28 113.76,-39.93 100,-30.52"/>
<polygon fill="midnightblue" stroke="midnightblue" points="143.8,-64.72 154.04,-67.48 147.76,-58.94 143.8,-64.72"/>
</g>
<!-- Node8 -->
<g id="node8" class="node">
<title>Node8</title>
<g id="a_node8"><a xlink:href="classDynExpInstr_1_1PVCamParams.html" target="_top" xlink:title=" ">
<polygon fill="white" stroke="black" points="177,-6 177,-25 330,-25 330,-6 177,-6"/>
<text text-anchor="middle" x="253.5" y="-13" font-family="Helvetica,sans-Serif" font-size="10.00">DynExpInstr::PVCamParams</text>
</a>
</g>
</g>
<!-- Node1&#45;&gt;Node8 -->
<g id="edge7" class="edge">
<title>Node1&#45;&gt;Node8</title>
<path fill="none" stroke="midnightblue" d="M187.54,-61.61C204.27,-50.17 227.11,-34.55 241.06,-25.01"/>
<polygon fill="midnightblue" stroke="midnightblue" points="185.24,-58.94 178.96,-67.48 189.2,-64.72 185.24,-58.94"/>
</g>
<!-- Node2 -->
<g id="node2" class="node">
<title>Node2</title>
<g id="a_node2"><a xlink:href="classDynExp_1_1InstrumentParamsBase.html" target="_top" xlink:title="Parameter class for InstrumentBase.">
<polygon fill="white" stroke="black" points="80,-123.5 80,-142.5 253,-142.5 253,-123.5 80,-123.5"/>
<text text-anchor="middle" x="166.5" y="-130.5" font-family="Helvetica,sans-Serif" font-size="10.00">DynExp::InstrumentParamsBase</text>
</a>
</g>
</g>
<!-- Node2&#45;&gt;Node1 -->
<g id="edge1" class="edge">
<title>Node2&#45;&gt;Node1</title>
<path fill="none" stroke="midnightblue" d="M166.5,-112.8C166.5,-103.91 166.5,-93.78 166.5,-86.75"/>
<polygon fill="midnightblue" stroke="midnightblue" points="163,-113.08 166.5,-123.08 170,-113.08 163,-113.08"/>
</g>
<!-- Node3 -->
<g id="node3" class="node">
<title>Node3</title>
<g id="a_node3"><a xlink:href="classDynExp_1_1RunnableObjectParams.html" target="_top" xlink:title="Parameter class for RunnableObject.">
<polygon fill="white" stroke="black" points="80,-179.5 80,-198.5 253,-198.5 253,-179.5 80,-179.5"/>
<text text-anchor="middle" x="166.5" y="-186.5" font-family="Helvetica,sans-Serif" font-size="10.00">DynExp::RunnableObjectParams</text>
</a>
</g>
</g>
<!-- Node3&#45;&gt;Node2 -->
<g id="edge2" class="edge">
<title>Node3&#45;&gt;Node2</title>
<path fill="none" stroke="midnightblue" d="M166.5,-168.8C166.5,-159.91 166.5,-149.78 166.5,-142.75"/>
<polygon fill="midnightblue" stroke="midnightblue" points="163,-169.08 166.5,-179.08 170,-169.08 163,-169.08"/>
</g>
<!-- Node4 -->
<g id="node4" class="node">
<title>Node4</title>
<g id="a_node4"><a xlink:href="classDynExp_1_1ParamsBase.html" target="_top" xlink:title="Abstract base class for object parameter classes. Each class derived from class Object must be accomp...">
<polygon fill="white" stroke="black" points="106.5,-235.5 106.5,-254.5 226.5,-254.5 226.5,-235.5 106.5,-235.5"/>
<text text-anchor="middle" x="166.5" y="-242.5" font-family="Helvetica,sans-Serif" font-size="10.00">DynExp::ParamsBase</text>
</a>
</g>
</g>
<!-- Node4&#45;&gt;Node3 -->
<g id="edge3" class="edge">
<title>Node4&#45;&gt;Node3</title>
<path fill="none" stroke="midnightblue" d="M166.5,-224.8C166.5,-215.91 166.5,-205.78 166.5,-198.75"/>
<polygon fill="midnightblue" stroke="midnightblue" points="163,-225.08 166.5,-235.08 170,-225.08 163,-225.08"/>
</g>
<!-- Node5 -->
<g id="node5" class="node">
<title>Node5</title>
<g id="a_node5"><a xlink:href="classUtil_1_1ISynchronizedPointerLockable.html" target="_top" xlink:title="Interface to allow synchronizing the access to derived classes between different threads by making th...">
<polygon fill="white" stroke="black" points="95,-291.5 95,-321.5 238,-321.5 238,-291.5 95,-291.5"/>
<text text-anchor="start" x="103" y="-309.5" font-family="Helvetica,sans-Serif" font-size="10.00">Util::ISynchronizedPointer</text>
<text text-anchor="middle" x="166.5" y="-298.5" font-family="Helvetica,sans-Serif" font-size="10.00">Lockable</text>
</a>
</g>
</g>
<!-- Node5&#45;&gt;Node4 -->
<g id="edge4" class="edge">
<title>Node5&#45;&gt;Node4</title>
<path fill="none" stroke="midnightblue" d="M166.5,-281.29C166.5,-271.86 166.5,-261.65 166.5,-254.66"/>
<polygon fill="midnightblue" stroke="midnightblue" points="163,-281.4 166.5,-291.4 170,-281.4 163,-281.4"/>
</g>
<!-- Node6 -->
<g id="node6" class="node">
<title>Node6</title>
<g id="a_node6"><a xlink:href="classUtil_1_1INonCopyable.html" target="_top" xlink:title="Interface to delete copy constructor and copy assignment operator and thus make derived classes non&#45;c...">
<polygon fill="white" stroke="black" points="112.5,-358.5 112.5,-377.5 220.5,-377.5 220.5,-358.5 112.5,-358.5"/>
<text text-anchor="middle" x="166.5" y="-365.5" font-family="Helvetica,sans-Serif" font-size="10.00">Util::INonCopyable</text>
</a>
</g>
</g>
<!-- Node6&#45;&gt;Node5 -->
<g id="edge5" class="edge">
<title>Node6&#45;&gt;Node5</title>
<path fill="none" stroke="midnightblue" d="M166.5,-348.23C166.5,-339.59 166.5,-329.5 166.5,-321.52"/>
<polygon fill="midnightblue" stroke="midnightblue" points="163,-348.48 166.5,-358.48 170,-348.48 163,-348.48"/>
</g>
</g>
</svg>
