<?xml version="1.0" encoding="UTF-8" standalone="no"?>
<!DOCTYPE svg PUBLIC "-//W3C//DTD SVG 1.1//EN"
 "http://www.w3.org/Graphics/SVG/1.1/DTD/svg11.dtd">
<!-- Generated by graphviz version 2.43.0 (0)
 -->
<!-- Title: Util::TimeoutException Pages: 1 -->
<svg width="157pt" height="263pt"
 viewBox="0.00 0.00 157.00 263.00" xmlns="http://www.w3.org/2000/svg" xmlns:xlink="http://www.w3.org/1999/xlink">
<g id="graph0" class="graph" transform="scale(1 1) rotate(0) translate(4 259)">
<title>Util::TimeoutException</title>
<polygon fill="white" stroke="transparent" points="-4,4 -4,-259 153,-259 153,4 -4,4"/>
<!-- Node1 -->
<g id="node1" class="node">
<title>Node1</title>
<g id="a_node1"><a xlink:title="Thrown when an operation timed out before it could be completed, especially used for locking shared d...">
<polygon fill="#bfbfbf" stroke="black" points="10.5,-67.5 10.5,-86.5 138.5,-86.5 138.5,-67.5 10.5,-67.5"/>
<text text-anchor="middle" x="74.5" y="-74.5" font-family="Helvetica,sans-Serif" font-size="10.00">Util::TimeoutException</text>
</a>
</g>
</g>
<!-- Node5 -->
<g id="node5" class="node">
<title>Node5</title>
<g id="a_node5"><a xlink:href="classUtil_1_1ThreadDidNotRespondException.html" target="_top" xlink:title="Thrown in a multi&#45;threading context when an answer is expected from another thread an when the commun...">
<polygon fill="white" stroke="black" points="0,-0.5 0,-30.5 149,-30.5 149,-0.5 0,-0.5"/>
<text text-anchor="start" x="8" y="-18.5" font-family="Helvetica,sans-Serif" font-size="10.00">Util::ThreadDidNotRespond</text>
<text text-anchor="middle" x="74.5" y="-7.5" font-family="Helvetica,sans-Serif" font-size="10.00">Exception</text>
</a>
</g>
</g>
<!-- Node1&#45;&gt;Node5 -->
<g id="edge4" class="edge">
<title>Node1&#45;&gt;Node5</title>
<path fill="none" stroke="midnightblue" d="M74.5,-57.23C74.5,-48.59 74.5,-38.5 74.5,-30.52"/>
<polygon fill="midnightblue" stroke="midnightblue" points="71,-57.48 74.5,-67.48 78,-57.48 71,-57.48"/>
</g>
<!-- Node2 -->
<g id="node2" class="node">
<title>Node2</title>
<g id="a_node2"><a xlink:href="classUtil_1_1Exception.html" target="_top" xlink:title="DynExp exceptions are derived from this class. It contains basic information about the cause of the e...">
<polygon fill="white" stroke="black" points="30.5,-123.5 30.5,-142.5 118.5,-142.5 118.5,-123.5 30.5,-123.5"/>
<text text-anchor="middle" x="74.5" y="-130.5" font-family="Helvetica,sans-Serif" font-size="10.00">Util::Exception</text>
</a>
</g>
</g>
<!-- Node2&#45;&gt;Node1 -->
<g id="edge1" class="edge">
<title>Node2&#45;&gt;Node1</title>
<path fill="none" stroke="midnightblue" d="M74.5,-112.8C74.5,-103.91 74.5,-93.78 74.5,-86.75"/>
<polygon fill="midnightblue" stroke="midnightblue" points="71,-113.08 74.5,-123.08 78,-113.08 71,-113.08"/>
</g>
<!-- Node3 -->
<g id="node3" class="node">
<title>Node3</title>
<g id="a_node3"><a xlink:title=" ">
<polygon fill="white" stroke="#bfbfbf" points="22.5,-179.5 22.5,-198.5 126.5,-198.5 126.5,-179.5 22.5,-179.5"/>
<text text-anchor="middle" x="74.5" y="-186.5" font-family="Helvetica,sans-Serif" font-size="10.00">std::runtime_error</text>
</a>
</g>
</g>
<!-- Node3&#45;&gt;Node2 -->
<g id="edge2" class="edge">
<title>Node3&#45;&gt;Node2</title>
<path fill="none" stroke="midnightblue" d="M74.5,-168.8C74.5,-159.91 74.5,-149.78 74.5,-142.75"/>
<polygon fill="midnightblue" stroke="midnightblue" points="71,-169.08 74.5,-179.08 78,-169.08 71,-169.08"/>
</g>
<!-- Node4 -->
<g id="node4" class="node">
<title>Node4</title>
<g id="a_node4"><a xlink:title=" ">
<polygon fill="white" stroke="#bfbfbf" points="31.5,-235.5 31.5,-254.5 117.5,-254.5 117.5,-235.5 31.5,-235.5"/>
<text text-anchor="middle" x="74.5" y="-242.5" font-family="Helvetica,sans-Serif" font-size="10.00">std::exception</text>
</a>
</g>
</g>
<!-- Node4&#45;&gt;Node3 -->
<g id="edge3" class="edge">
<title>Node4&#45;&gt;Node3</title>
<path fill="none" stroke="midnightblue" d="M74.5,-224.8C74.5,-215.91 74.5,-205.78 74.5,-198.75"/>
<polygon fill="midnightblue" stroke="midnightblue" points="71,-225.08 74.5,-235.08 78,-225.08 71,-225.08"/>
</g>
</g>
</svg>
