<?xml version="1.0" encoding="UTF-8" standalone="no"?>
<!DOCTYPE svg PUBLIC "-//W3C//DTD SVG 1.1//EN"
 "http://www.w3.org/Graphics/SVG/1.1/DTD/svg11.dtd">
<!-- Generated by graphviz version 2.43.0 (0)
 -->
<!-- Title: DynExpInstr::RS_SMC100AParams Pages: 1 -->
<svg width="202pt" height="453pt"
 viewBox="0.00 0.00 202.00 453.00" xmlns="http://www.w3.org/2000/svg" xmlns:xlink="http://www.w3.org/1999/xlink">
<g id="graph0" class="graph" transform="scale(1 1) rotate(0) translate(4 449)">
<title>DynExpInstr::RS_SMC100AParams</title>
<polygon fill="white" stroke="transparent" points="-4,4 -4,-449 198,-449 198,4 -4,4"/>
<!-- Node1 -->
<g id="node1" class="node">
<title>Node1</title>
<g id="a_node1"><a xlink:title=" ">
<polygon fill="#bfbfbf" stroke="black" points="6,-0.5 6,-19.5 188,-19.5 188,-0.5 6,-0.5"/>
<text text-anchor="middle" x="97" y="-7.5" font-family="Helvetica,sans-Serif" font-size="10.00">DynExpInstr::RS_SMC100AParams</text>
</a>
</g>
</g>
<!-- Node2 -->
<g id="node2" class="node">
<title>Node2</title>
<g id="a_node2"><a xlink:href="classDynExpInstr_1_1FunctionGeneratorParams.html" target="_top" xlink:title="Parameter class for FunctionGenerator.">
<polygon fill="white" stroke="black" points="11,-56.5 11,-86.5 183,-86.5 183,-56.5 11,-56.5"/>
<text text-anchor="start" x="19" y="-74.5" font-family="Helvetica,sans-Serif" font-size="10.00">DynExpInstr::FunctionGenerator</text>
<text text-anchor="middle" x="97" y="-63.5" font-family="Helvetica,sans-Serif" font-size="10.00">Params</text>
</a>
</g>
</g>
<!-- Node2&#45;&gt;Node1 -->
<g id="edge1" class="edge">
<title>Node2&#45;&gt;Node1</title>
<path fill="none" stroke="midnightblue" d="M97,-46.29C97,-36.86 97,-26.65 97,-19.66"/>
<polygon fill="midnightblue" stroke="midnightblue" points="93.5,-46.4 97,-56.4 100.5,-46.4 93.5,-46.4"/>
</g>
<!-- Node3 -->
<g id="node3" class="node">
<title>Node3</title>
<g id="a_node3"><a xlink:href="classDynExpInstr_1_1DataStreamInstrumentParams.html" target="_top" xlink:title="Parameter class for DataStreamInstrument.">
<polygon fill="white" stroke="black" points="0,-123.5 0,-153.5 194,-153.5 194,-123.5 0,-123.5"/>
<text text-anchor="start" x="8" y="-141.5" font-family="Helvetica,sans-Serif" font-size="10.00">DynExpInstr::DataStreamInstrument</text>
<text text-anchor="middle" x="97" y="-130.5" font-family="Helvetica,sans-Serif" font-size="10.00">Params</text>
</a>
</g>
</g>
<!-- Node3&#45;&gt;Node2 -->
<g id="edge2" class="edge">
<title>Node3&#45;&gt;Node2</title>
<path fill="none" stroke="midnightblue" d="M97,-113.11C97,-104.15 97,-94.32 97,-86.58"/>
<polygon fill="midnightblue" stroke="midnightblue" points="93.5,-113.4 97,-123.4 100.5,-113.4 93.5,-113.4"/>
</g>
<!-- Node4 -->
<g id="node4" class="node">
<title>Node4</title>
<g id="a_node4"><a xlink:href="classDynExp_1_1InstrumentParamsBase.html" target="_top" xlink:title="Parameter class for InstrumentBase.">
<polygon fill="white" stroke="black" points="10.5,-190.5 10.5,-209.5 183.5,-209.5 183.5,-190.5 10.5,-190.5"/>
<text text-anchor="middle" x="97" y="-197.5" font-family="Helvetica,sans-Serif" font-size="10.00">DynExp::InstrumentParamsBase</text>
</a>
</g>
</g>
<!-- Node4&#45;&gt;Node3 -->
<g id="edge3" class="edge">
<title>Node4&#45;&gt;Node3</title>
<path fill="none" stroke="midnightblue" d="M97,-180.23C97,-171.59 97,-161.5 97,-153.52"/>
<polygon fill="midnightblue" stroke="midnightblue" points="93.5,-180.48 97,-190.48 100.5,-180.48 93.5,-180.48"/>
</g>
<!-- Node5 -->
<g id="node5" class="node">
<title>Node5</title>
<g id="a_node5"><a xlink:href="classDynExp_1_1RunnableObjectParams.html" target="_top" xlink:title="Parameter class for RunnableObject.">
<polygon fill="white" stroke="black" points="10.5,-246.5 10.5,-265.5 183.5,-265.5 183.5,-246.5 10.5,-246.5"/>
<text text-anchor="middle" x="97" y="-253.5" font-family="Helvetica,sans-Serif" font-size="10.00">DynExp::RunnableObjectParams</text>
</a>
</g>
</g>
<!-- Node5&#45;&gt;Node4 -->
<g id="edge4" class="edge">
<title>Node5&#45;&gt;Node4</title>
<path fill="none" stroke="midnightblue" d="M97,-235.8C97,-226.91 97,-216.78 97,-209.75"/>
<polygon fill="midnightblue" stroke="midnightblue" points="93.5,-236.08 97,-246.08 100.5,-236.08 93.5,-236.08"/>
</g>
<!-- Node6 -->
<g id="node6" class="node">
<title>Node6</title>
<g id="a_node6"><a xlink:href="classDynExp_1_1ParamsBase.html" target="_top" xlink:title="Abstract base class for object parameter classes. Each class derived from class Object must be accomp...">
<polygon fill="white" stroke="black" points="37,-302.5 37,-321.5 157,-321.5 157,-302.5 37,-302.5"/>
<text text-anchor="middle" x="97" y="-309.5" font-family="Helvetica,sans-Serif" font-size="10.00">DynExp::ParamsBase</text>
</a>
</g>
</g>
<!-- Node6&#45;&gt;Node5 -->
<g id="edge5" class="edge">
<title>Node6&#45;&gt;Node5</title>
<path fill="none" stroke="midnightblue" d="M97,-291.8C97,-282.91 97,-272.78 97,-265.75"/>
<polygon fill="midnightblue" stroke="midnightblue" points="93.5,-292.08 97,-302.08 100.5,-292.08 93.5,-292.08"/>
</g>
<!-- Node7 -->
<g id="node7" class="node">
<title>Node7</title>
<g id="a_node7"><a xlink:href="classUtil_1_1ISynchronizedPointerLockable.html" target="_top" xlink:title="Interface to allow synchronizing the access to derived classes between different threads by making th...">
<polygon fill="white" stroke="black" points="25.5,-358.5 25.5,-388.5 168.5,-388.5 168.5,-358.5 25.5,-358.5"/>
<text text-anchor="start" x="33.5" y="-376.5" font-family="Helvetica,sans-Serif" font-size="10.00">Util::ISynchronizedPointer</text>
<text text-anchor="middle" x="97" y="-365.5" font-family="Helvetica,sans-Serif" font-size="10.00">Lockable</text>
</a>
</g>
</g>
<!-- Node7&#45;&gt;Node6 -->
<g id="edge6" class="edge">
<title>Node7&#45;&gt;Node6</title>
<path fill="none" stroke="midnightblue" d="M97,-348.29C97,-338.86 97,-328.65 97,-321.66"/>
<polygon fill="midnightblue" stroke="midnightblue" points="93.5,-348.4 97,-358.4 100.5,-348.4 93.5,-348.4"/>
</g>
<!-- Node8 -->
<g id="node8" class="node">
<title>Node8</title>
<g id="a_node8"><a xlink:href="classUtil_1_1INonCopyable.html" target="_top" xlink:title="Interface to delete copy constructor and copy assignment operator and thus make derived classes non&#45;c...">
<polygon fill="white" stroke="black" points="43,-425.5 43,-444.5 151,-444.5 151,-425.5 43,-425.5"/>
<text text-anchor="middle" x="97" y="-432.5" font-family="Helvetica,sans-Serif" font-size="10.00">Util::INonCopyable</text>
</a>
</g>
</g>
<!-- Node8&#45;&gt;Node7 -->
<g id="edge7" class="edge">
<title>Node8&#45;&gt;Node7</title>
<path fill="none" stroke="midnightblue" d="M97,-415.23C97,-406.59 97,-396.5 97,-388.52"/>
<polygon fill="midnightblue" stroke="midnightblue" points="93.5,-415.48 97,-425.48 100.5,-415.48 93.5,-415.48"/>
</g>
</g>
</svg>
