<?xml version="1.0" encoding="UTF-8" standalone="no"?>
<!DOCTYPE svg PUBLIC "-//W3C//DTD SVG 1.1//EN"
 "http://www.w3.org/Graphics/SVG/1.1/DTD/svg11.dtd">
<!-- Generated by graphviz version 2.43.0 (0)
 -->
<!-- Title: DynExpInstr::gRPCInstrument&lt; BaseInstr,, gRPCStubs &gt; Pages: 1 -->
<svg width="672pt" height="72pt"
 viewBox="0.00 0.00 672.00 72.00" xmlns="http://www.w3.org/2000/svg" xmlns:xlink="http://www.w3.org/1999/xlink">
<g id="graph0" class="graph" transform="scale(1 1) rotate(0) translate(4 68)">
<title>DynExpInstr::gRPCInstrument&lt; BaseInstr,, gRPCStubs &gt;</title>
<polygon fill="white" stroke="transparent" points="-4,4 -4,-68 668,-68 668,4 -4,4"/>
<!-- Node1 -->
<g id="node1" class="node">
<title>Node1</title>
<g id="a_node1"><a xlink:title="Meta instrument template for transforming meta instruments into network instruments,...">
<polygon fill="#bfbfbf" stroke="black" points="98,-17 98,-47 259,-47 259,-17 98,-17"/>
<text text-anchor="start" x="106" y="-35" font-family="Helvetica,sans-Serif" font-size="10.00">DynExpInstr::gRPCInstrument</text>
<text text-anchor="middle" x="178.5" y="-24" font-family="Helvetica,sans-Serif" font-size="10.00">&lt; BaseInstr,, gRPCStubs &gt;</text>
</a>
</g>
</g>
<!-- Node3 -->
<g id="node3" class="node">
<title>Node3</title>
<g id="a_node3"><a xlink:href="classDynExpInstr_1_1NetworkDataStreamInstrumentT.html" target="_top" xlink:title=" ">
<polygon fill="white" stroke="black" points="295,-0.5 295,-63.5 482,-63.5 482,-0.5 295,-0.5"/>
<text text-anchor="start" x="303" y="-51.5" font-family="Helvetica,sans-Serif" font-size="10.00">DynExpInstr::NetworkData</text>
<text text-anchor="start" x="303" y="-40.5" font-family="Helvetica,sans-Serif" font-size="10.00">StreamInstrumentT&lt; DataStream</text>
<text text-anchor="start" x="303" y="-29.5" font-family="Helvetica,sans-Serif" font-size="10.00">Instrument, 0, DynExpProto</text>
<text text-anchor="start" x="303" y="-18.5" font-family="Helvetica,sans-Serif" font-size="10.00">::NetworkDataStreamInstrument</text>
<text text-anchor="middle" x="388.5" y="-7.5" font-family="Helvetica,sans-Serif" font-size="10.00">::NetworkDataStreamInstrument &gt;</text>
</a>
</g>
</g>
<!-- Node1&#45;&gt;Node3 -->
<g id="edge2" class="edge">
<title>Node1&#45;&gt;Node3</title>
<path fill="none" stroke="midnightblue" d="M269.26,-32C277.72,-32 286.31,-32 294.8,-32"/>
<polygon fill="midnightblue" stroke="midnightblue" points="269.03,-28.5 259.03,-32 269.03,-35.5 269.03,-28.5"/>
</g>
<!-- Node2 -->
<g id="node2" class="node">
<title>Node2</title>
<g id="a_node2"><a xlink:title=" ">
<polygon fill="white" stroke="#bfbfbf" points="0,-22.5 0,-41.5 62,-41.5 62,-22.5 0,-22.5"/>
<text text-anchor="middle" x="31" y="-29.5" font-family="Helvetica,sans-Serif" font-size="10.00">BaseInstr</text>
</a>
</g>
</g>
<!-- Node2&#45;&gt;Node1 -->
<g id="edge1" class="edge">
<title>Node2&#45;&gt;Node1</title>
<path fill="none" stroke="midnightblue" d="M72.28,-32C80.32,-32 89.01,-32 97.85,-32"/>
<polygon fill="midnightblue" stroke="midnightblue" points="72.15,-28.5 62.15,-32 72.15,-35.5 72.15,-28.5"/>
</g>
<!-- Node4 -->
<g id="node4" class="node">
<title>Node4</title>
<g id="a_node4"><a xlink:href="classDynExpInstr_1_1NetworkDataStreamInstrument.html" target="_top" xlink:title="Explicit instantiation of derivable class NetworkDataStreamInstrumentT to create the network data str...">
<polygon fill="white" stroke="black" points="518,-17 518,-47 664,-47 664,-17 518,-17"/>
<text text-anchor="start" x="526" y="-35" font-family="Helvetica,sans-Serif" font-size="10.00">DynExpInstr::NetworkData</text>
<text text-anchor="middle" x="591" y="-24" font-family="Helvetica,sans-Serif" font-size="10.00">StreamInstrument</text>
</a>
</g>
</g>
<!-- Node3&#45;&gt;Node4 -->
<g id="edge3" class="edge">
<title>Node3&#45;&gt;Node4</title>
<path fill="none" stroke="midnightblue" d="M492.27,-32C500.92,-32 509.54,-32 517.88,-32"/>
<polygon fill="midnightblue" stroke="midnightblue" points="492.12,-28.5 482.12,-32 492.12,-35.5 492.12,-28.5"/>
</g>
</g>
</svg>
