<?xml version="1.0" encoding="UTF-8" standalone="no"?>
<!DOCTYPE svg PUBLIC "-//W3C//DTD SVG 1.1//EN"
 "http://www.w3.org/Graphics/SVG/1.1/DTD/svg11.dtd">
<!-- Generated by graphviz version 2.43.0 (0)
 -->
<!-- Title: DynExpHardware::SIPulseStreamerHardwareAdapterConfigurator Pages: 1 -->
<svg width="238pt" height="229pt"
 viewBox="0.00 0.00 238.00 229.00" xmlns="http://www.w3.org/2000/svg" xmlns:xlink="http://www.w3.org/1999/xlink">
<g id="graph0" class="graph" transform="scale(1 1) rotate(0) translate(4 225)">
<title>DynExpHardware::SIPulseStreamerHardwareAdapterConfigurator</title>
<polygon fill="white" stroke="transparent" points="-4,4 -4,-225 234,-225 234,4 -4,4"/>
<!-- Node1 -->
<g id="node1" class="node">
<title>Node1</title>
<g id="a_node1"><a xlink:title=" ">
<polygon fill="#bfbfbf" stroke="black" points="21,-0.5 21,-30.5 209,-30.5 209,-0.5 21,-0.5"/>
<text text-anchor="start" x="29" y="-18.5" font-family="Helvetica,sans-Serif" font-size="10.00">DynExpHardware::SIPulseStreamer</text>
<text text-anchor="middle" x="115" y="-7.5" font-family="Helvetica,sans-Serif" font-size="10.00">HardwareAdapterConfigurator</text>
</a>
</g>
</g>
<!-- Node2 -->
<g id="node2" class="node">
<title>Node2</title>
<g id="a_node2"><a xlink:href="classDynExpHardware_1_1gRPCHardwareAdapterConfigurator.html" target="_top" xlink:title=" ">
<polygon fill="white" stroke="black" points="25,-67.5 25,-108.5 205,-108.5 205,-67.5 25,-67.5"/>
<text text-anchor="start" x="33" y="-96.5" font-family="Helvetica,sans-Serif" font-size="10.00">DynExpHardware::gRPCHardware</text>
<text text-anchor="start" x="33" y="-85.5" font-family="Helvetica,sans-Serif" font-size="10.00">AdapterConfigurator&lt; pulse</text>
<text text-anchor="middle" x="115" y="-74.5" font-family="Helvetica,sans-Serif" font-size="10.00">_streamer::PulseStreamer &gt;</text>
</a>
</g>
</g>
<!-- Node2&#45;&gt;Node1 -->
<g id="edge1" class="edge">
<title>Node2&#45;&gt;Node1</title>
<path fill="none" stroke="midnightblue" d="M115,-57.08C115,-48.01 115,-38.45 115,-30.89"/>
<polygon fill="midnightblue" stroke="midnightblue" points="111.5,-57.36 115,-67.36 118.5,-57.36 111.5,-57.36"/>
</g>
<!-- Node3 -->
<g id="node3" class="node">
<title>Node3</title>
<g id="a_node3"><a xlink:href="classDynExp_1_1HardwareAdapterConfiguratorBase.html" target="_top" xlink:title="Configurator class for HardwareAdapterBase.">
<polygon fill="white" stroke="black" points="0,-145.5 0,-164.5 230,-164.5 230,-145.5 0,-145.5"/>
<text text-anchor="middle" x="115" y="-152.5" font-family="Helvetica,sans-Serif" font-size="10.00">DynExp::HardwareAdapterConfiguratorBase</text>
</a>
</g>
</g>
<!-- Node3&#45;&gt;Node2 -->
<g id="edge2" class="edge">
<title>Node3&#45;&gt;Node2</title>
<path fill="none" stroke="midnightblue" d="M115,-135.04C115,-126.71 115,-116.94 115,-108.54"/>
<polygon fill="midnightblue" stroke="midnightblue" points="111.5,-135.23 115,-145.23 118.5,-135.23 111.5,-135.23"/>
</g>
<!-- Node4 -->
<g id="node4" class="node">
<title>Node4</title>
<g id="a_node4"><a xlink:href="classDynExp_1_1ConfiguratorBase.html" target="_top" xlink:title="The configurator classes have the task to generate parameter objects (refer to DynExp::ParamsBase) of...">
<polygon fill="white" stroke="black" points="43,-201.5 43,-220.5 187,-220.5 187,-201.5 43,-201.5"/>
<text text-anchor="middle" x="115" y="-208.5" font-family="Helvetica,sans-Serif" font-size="10.00">DynExp::ConfiguratorBase</text>
</a>
</g>
</g>
<!-- Node4&#45;&gt;Node3 -->
<g id="edge3" class="edge">
<title>Node4&#45;&gt;Node3</title>
<path fill="none" stroke="midnightblue" d="M115,-190.8C115,-181.91 115,-171.78 115,-164.75"/>
<polygon fill="midnightblue" stroke="midnightblue" points="111.5,-191.08 115,-201.08 118.5,-191.08 111.5,-191.08"/>
</g>
</g>
</svg>
