<?xml version="1.0" encoding="UTF-8" standalone="no"?>
<!DOCTYPE svg PUBLIC "-//W3C//DTD SVG 1.1//EN"
 "http://www.w3.org/Graphics/SVG/1.1/DTD/svg11.dtd">
<!-- Generated by graphviz version 2.43.0 (0)
 -->
<!-- Title: DynExp::InstrumentDataBase Pages: 1 -->
<svg width="1570pt" height="463pt"
 viewBox="0.00 0.00 1570.00 462.50" xmlns="http://www.w3.org/2000/svg" xmlns:xlink="http://www.w3.org/1999/xlink">
<g id="graph0" class="graph" transform="scale(1 1) rotate(0) translate(4 458.5)">
<title>DynExp::InstrumentDataBase</title>
<polygon fill="white" stroke="transparent" points="-4,4 -4,-458.5 1566,-458.5 1566,4 -4,4"/>
<!-- Node1 -->
<g id="node1" class="node">
<title>Node1</title>
<g id="a_node1"><a xlink:title="Data structure to contain data which is synchronized in between different threads....">
<polygon fill="#bfbfbf" stroke="black" points="323,-123.5 323,-142.5 484,-142.5 484,-123.5 323,-123.5"/>
<text text-anchor="middle" x="403.5" y="-130.5" font-family="Helvetica,sans-Serif" font-size="10.00">DynExp::InstrumentDataBase</text>
</a>
</g>
</g>
<!-- Node4 -->
<g id="node4" class="node">
<title>Node4</title>
<g id="a_node4"><a xlink:href="classDynExpInstr_1_1CameraData.html" target="_top" xlink:title="Data class for Camera.">
<polygon fill="white" stroke="black" points="557,-347.5 557,-366.5 700,-366.5 700,-347.5 557,-347.5"/>
<text text-anchor="middle" x="628.5" y="-354.5" font-family="Helvetica,sans-Serif" font-size="10.00">DynExpInstr::CameraData</text>
</a>
</g>
</g>
<!-- Node1&#45;&gt;Node4 -->
<g id="edge3" class="edge">
<title>Node1&#45;&gt;Node4</title>
<path fill="none" stroke="midnightblue" d="M421.17,-149.75C465.19,-193.96 583.49,-312.79 617.95,-347.41"/>
<polygon fill="midnightblue" stroke="midnightblue" points="423.62,-147.24 414.08,-142.62 418.66,-152.18 423.62,-147.24"/>
</g>
<!-- Node7 -->
<g id="node7" class="node">
<title>Node7</title>
<g id="a_node7"><a xlink:href="classDynExpInstr_1_1DataStreamInstrumentData.html" target="_top" xlink:title="Data class for DataStreamInstrument.">
<polygon fill="white" stroke="black" points="520,-167.5 520,-186.5 737,-186.5 737,-167.5 520,-167.5"/>
<text text-anchor="middle" x="628.5" y="-174.5" font-family="Helvetica,sans-Serif" font-size="10.00">DynExpInstr::DataStreamInstrumentData</text>
</a>
</g>
</g>
<!-- Node1&#45;&gt;Node7 -->
<g id="edge6" class="edge">
<title>Node1&#45;&gt;Node7</title>
<path fill="none" stroke="midnightblue" d="M456.44,-144.68C476.29,-149.03 499.16,-153.9 520,-158 536.64,-161.27 554.79,-164.58 571.35,-167.49"/>
<polygon fill="midnightblue" stroke="midnightblue" points="457.18,-141.26 446.66,-142.53 455.67,-148.1 457.18,-141.26"/>
</g>
<!-- Node27 -->
<g id="node27" class="node">
<title>Node27</title>
<g id="a_node27"><a xlink:href="classDynExpInstr_1_1InterModuleCommunicatorData.html" target="_top" xlink:title="Data class for InterModuleCommunicator.">
<polygon fill="white" stroke="black" points="558.5,-118 558.5,-148 698.5,-148 698.5,-118 558.5,-118"/>
<text text-anchor="start" x="566.5" y="-136" font-family="Helvetica,sans-Serif" font-size="10.00">DynExpInstr::InterModule</text>
<text text-anchor="middle" x="628.5" y="-125" font-family="Helvetica,sans-Serif" font-size="10.00">CommunicatorData</text>
</a>
</g>
</g>
<!-- Node1&#45;&gt;Node27 -->
<g id="edge26" class="edge">
<title>Node1&#45;&gt;Node27</title>
<path fill="none" stroke="midnightblue" d="M494.13,-133C515.51,-133 538.02,-133 558.32,-133"/>
<polygon fill="midnightblue" stroke="midnightblue" points="494.06,-129.5 484.06,-133 494.06,-136.5 494.06,-129.5"/>
</g>
<!-- Node28 -->
<g id="node28" class="node">
<title>Node28</title>
<g id="a_node28"><a xlink:href="classDynExpInstr_1_1PositionerStageData.html" target="_top" xlink:title="Data class for PositionerStage.">
<polygon fill="white" stroke="black" points="537.5,-79.5 537.5,-98.5 719.5,-98.5 719.5,-79.5 537.5,-79.5"/>
<text text-anchor="middle" x="628.5" y="-86.5" font-family="Helvetica,sans-Serif" font-size="10.00">DynExpInstr::PositionerStageData</text>
</a>
</g>
</g>
<!-- Node1&#45;&gt;Node28 -->
<g id="edge27" class="edge">
<title>Node1&#45;&gt;Node28</title>
<path fill="none" stroke="midnightblue" d="M456.44,-121.32C476.29,-116.97 499.16,-112.1 520,-108 536.64,-104.73 554.79,-101.42 571.35,-98.51"/>
<polygon fill="midnightblue" stroke="midnightblue" points="455.67,-117.9 446.66,-123.47 457.18,-124.74 455.67,-117.9"/>
</g>
<!-- Node32 -->
<g id="node32" class="node">
<title>Node32</title>
<g id="a_node32"><a xlink:href="classDynExpInstr_1_1SpectrometerData.html" target="_top" xlink:title="Data class for Spectrometer.">
<polygon fill="white" stroke="black" points="543,-41.5 543,-60.5 714,-60.5 714,-41.5 543,-41.5"/>
<text text-anchor="middle" x="628.5" y="-48.5" font-family="Helvetica,sans-Serif" font-size="10.00">DynExpInstr::SpectrometerData</text>
</a>
</g>
</g>
<!-- Node1&#45;&gt;Node32 -->
<g id="edge31" class="edge">
<title>Node1&#45;&gt;Node32</title>
<path fill="none" stroke="midnightblue" d="M426.88,-117.92C449.44,-103.43 485.71,-82.02 520,-70 531,-66.14 542.92,-63.04 554.68,-60.56"/>
<polygon fill="midnightblue" stroke="midnightblue" points="424.84,-115.07 418.39,-123.47 428.67,-120.93 424.84,-115.07"/>
</g>
<!-- Node2 -->
<g id="node2" class="node">
<title>Node2</title>
<g id="a_node2"><a xlink:href="classUtil_1_1ISynchronizedPointerLockable.html" target="_top" xlink:title="Interface to allow synchronizing the access to derived classes between different threads by making th...">
<polygon fill="white" stroke="black" points="144,-118 144,-148 287,-148 287,-118 144,-118"/>
<text text-anchor="start" x="152" y="-136" font-family="Helvetica,sans-Serif" font-size="10.00">Util::ISynchronizedPointer</text>
<text text-anchor="middle" x="215.5" y="-125" font-family="Helvetica,sans-Serif" font-size="10.00">Lockable</text>
</a>
</g>
</g>
<!-- Node2&#45;&gt;Node1 -->
<g id="edge1" class="edge">
<title>Node2&#45;&gt;Node1</title>
<path fill="none" stroke="midnightblue" d="M297.35,-133C305.84,-133 314.47,-133 322.94,-133"/>
<polygon fill="midnightblue" stroke="midnightblue" points="297.08,-129.5 287.08,-133 297.08,-136.5 297.08,-129.5"/>
</g>
<!-- Node3 -->
<g id="node3" class="node">
<title>Node3</title>
<g id="a_node3"><a xlink:href="classUtil_1_1INonCopyable.html" target="_top" xlink:title="Interface to delete copy constructor and copy assignment operator and thus make derived classes non&#45;c...">
<polygon fill="white" stroke="black" points="0,-123.5 0,-142.5 108,-142.5 108,-123.5 0,-123.5"/>
<text text-anchor="middle" x="54" y="-130.5" font-family="Helvetica,sans-Serif" font-size="10.00">Util::INonCopyable</text>
</a>
</g>
</g>
<!-- Node3&#45;&gt;Node2 -->
<g id="edge2" class="edge">
<title>Node3&#45;&gt;Node2</title>
<path fill="none" stroke="midnightblue" d="M118.19,-133C126.58,-133 135.23,-133 143.74,-133"/>
<polygon fill="midnightblue" stroke="midnightblue" points="118.11,-129.5 108.11,-133 118.11,-136.5 118.11,-129.5"/>
</g>
<!-- Node5 -->
<g id="node5" class="node">
<title>Node5</title>
<g id="a_node5"><a xlink:href="classDynExpInstr_1_1DummyCameraData.html" target="_top" xlink:title=" ">
<polygon fill="white" stroke="black" points="779.5,-385.5 779.5,-404.5 961.5,-404.5 961.5,-385.5 779.5,-385.5"/>
<text text-anchor="middle" x="870.5" y="-392.5" font-family="Helvetica,sans-Serif" font-size="10.00">DynExpInstr::DummyCameraData</text>
</a>
</g>
</g>
<!-- Node4&#45;&gt;Node5 -->
<g id="edge4" class="edge">
<title>Node4&#45;&gt;Node5</title>
<path fill="none" stroke="midnightblue" d="M699.82,-368.13C734.53,-373.63 775.98,-380.19 809.22,-385.46"/>
<polygon fill="midnightblue" stroke="midnightblue" points="700.18,-364.65 689.75,-366.54 699.08,-371.56 700.18,-364.65"/>
</g>
<!-- Node6 -->
<g id="node6" class="node">
<title>Node6</title>
<g id="a_node6"><a xlink:href="classDynExpInstr_1_1PVCamData.html" target="_top" xlink:title=" ">
<polygon fill="white" stroke="black" points="800.5,-347.5 800.5,-366.5 940.5,-366.5 940.5,-347.5 800.5,-347.5"/>
<text text-anchor="middle" x="870.5" y="-354.5" font-family="Helvetica,sans-Serif" font-size="10.00">DynExpInstr::PVCamData</text>
</a>
</g>
</g>
<!-- Node4&#45;&gt;Node6 -->
<g id="edge5" class="edge">
<title>Node4&#45;&gt;Node6</title>
<path fill="none" stroke="midnightblue" d="M710.35,-357C739.48,-357 772.06,-357 800.12,-357"/>
<polygon fill="midnightblue" stroke="midnightblue" points="710.21,-353.5 700.21,-357 710.21,-360.5 710.21,-353.5"/>
</g>
<!-- Node8 -->
<g id="node8" class="node">
<title>Node8</title>
<g id="a_node8"><a xlink:href="classDynExpInstr_1_1FunctionGeneratorData.html" target="_top" xlink:title="Data class for FunctionGenerator.">
<polygon fill="white" stroke="black" points="773,-309.5 773,-328.5 968,-328.5 968,-309.5 773,-309.5"/>
<text text-anchor="middle" x="870.5" y="-316.5" font-family="Helvetica,sans-Serif" font-size="10.00">DynExpInstr::FunctionGeneratorData</text>
</a>
</g>
</g>
<!-- Node7&#45;&gt;Node8 -->
<g id="edge7" class="edge">
<title>Node7&#45;&gt;Node8</title>
<path fill="none" stroke="midnightblue" d="M654.35,-191.7C703.49,-220.78 811.89,-284.91 853.13,-309.32"/>
<polygon fill="midnightblue" stroke="midnightblue" points="656.01,-188.62 645.62,-186.54 652.44,-194.64 656.01,-188.62"/>
</g>
<!-- Node18 -->
<g id="node18" class="node">
<title>Node18</title>
<g id="a_node18"><a xlink:href="classDynExpInstr_1_1InputPortData.html" target="_top" xlink:title="Data class for InputPort.">
<polygon fill="white" stroke="black" points="796,-202.5 796,-221.5 945,-221.5 945,-202.5 796,-202.5"/>
<text text-anchor="middle" x="870.5" y="-209.5" font-family="Helvetica,sans-Serif" font-size="10.00">DynExpInstr::InputPortData</text>
</a>
</g>
</g>
<!-- Node7&#45;&gt;Node18 -->
<g id="edge17" class="edge">
<title>Node7&#45;&gt;Node18</title>
<path fill="none" stroke="midnightblue" d="M704.93,-188C736.8,-192.65 773.56,-198.01 804.25,-202.48"/>
<polygon fill="midnightblue" stroke="midnightblue" points="705.16,-184.5 694.76,-186.52 704.15,-191.42 705.16,-184.5"/>
</g>
<!-- Node23 -->
<g id="node23" class="node">
<title>Node23</title>
<g id="a_node23"><a xlink:href="classDynExpInstr_1_1LockinAmplifierData.html" target="_top" xlink:title="Data class for LockinAmplifier.">
<polygon fill="white" stroke="black" points="780,-164.5 780,-183.5 961,-183.5 961,-164.5 780,-164.5"/>
<text text-anchor="middle" x="870.5" y="-171.5" font-family="Helvetica,sans-Serif" font-size="10.00">DynExpInstr::LockinAmplifierData</text>
</a>
</g>
</g>
<!-- Node7&#45;&gt;Node23 -->
<g id="edge22" class="edge">
<title>Node7&#45;&gt;Node23</title>
<path fill="none" stroke="midnightblue" d="M747.23,-175.53C758.16,-175.39 769.11,-175.25 779.72,-175.12"/>
<polygon fill="midnightblue" stroke="midnightblue" points="747.17,-172.03 737.21,-175.65 747.26,-179.03 747.17,-172.03"/>
</g>
<!-- Node25 -->
<g id="node25" class="node">
<title>Node25</title>
<g id="a_node25"><a xlink:href="classDynExpInstr_1_1TimeTaggerData.html" target="_top" xlink:title="Data class for TimeTagger.">
<polygon fill="white" stroke="black" points="789.5,-126.5 789.5,-145.5 951.5,-145.5 951.5,-126.5 789.5,-126.5"/>
<text text-anchor="middle" x="870.5" y="-133.5" font-family="Helvetica,sans-Serif" font-size="10.00">DynExpInstr::TimeTaggerData</text>
</a>
</g>
</g>
<!-- Node7&#45;&gt;Node25 -->
<g id="edge24" class="edge">
<title>Node7&#45;&gt;Node25</title>
<path fill="none" stroke="midnightblue" d="M695.39,-165.74C732.52,-159.4 778.39,-151.57 813.72,-145.53"/>
<polygon fill="midnightblue" stroke="midnightblue" points="694.43,-162.36 685.16,-167.49 695.61,-169.26 694.43,-162.36"/>
</g>
<!-- Node9 -->
<g id="node9" class="node">
<title>Node9</title>
<g id="a_node9"><a xlink:href="classDynExpInstr_1_1DummyDataStreamInstrumentData.html" target="_top" xlink:title=" ">
<polygon fill="white" stroke="black" points="1005.5,-424 1005.5,-454 1184.5,-454 1184.5,-424 1005.5,-424"/>
<text text-anchor="start" x="1013.5" y="-442" font-family="Helvetica,sans-Serif" font-size="10.00">DynExpInstr::DummyDataStream</text>
<text text-anchor="middle" x="1095" y="-431" font-family="Helvetica,sans-Serif" font-size="10.00">InstrumentData</text>
</a>
</g>
</g>
<!-- Node8&#45;&gt;Node9 -->
<g id="edge8" class="edge">
<title>Node8&#45;&gt;Node9</title>
<path fill="none" stroke="midnightblue" d="M961.34,-333.43C963.65,-334.83 965.88,-336.35 968,-338 997.49,-360.96 975.41,-389.93 1004,-414 1008.59,-417.86 1013.73,-421.13 1019.17,-423.9"/>
<polygon fill="midnightblue" stroke="midnightblue" points="962.55,-330.11 952.06,-328.61 959.33,-336.33 962.55,-330.11"/>
</g>
<!-- Node10 -->
<g id="node10" class="node">
<title>Node10</title>
<g id="a_node10"><a xlink:href="classDynExpInstr_1_1OutputPortData.html" target="_top" xlink:title="Data class for OutputPort.">
<polygon fill="white" stroke="black" points="1016,-385.5 1016,-404.5 1174,-404.5 1174,-385.5 1016,-385.5"/>
<text text-anchor="middle" x="1095" y="-392.5" font-family="Helvetica,sans-Serif" font-size="10.00">DynExpInstr::OutputPortData</text>
</a>
</g>
</g>
<!-- Node8&#45;&gt;Node10 -->
<g id="edge9" class="edge">
<title>Node8&#45;&gt;Node10</title>
<path fill="none" stroke="midnightblue" d="M954.87,-331.9C959.42,-333.68 963.83,-335.7 968,-338 988.38,-349.22 983.7,-364.64 1004,-376 1010.97,-379.9 1018.65,-383 1026.49,-385.47"/>
<polygon fill="midnightblue" stroke="midnightblue" points="955.97,-328.58 945.38,-328.57 953.66,-335.18 955.97,-328.58"/>
</g>
<!-- Node15 -->
<g id="node15" class="node">
<title>Node15</title>
<g id="a_node15"><a xlink:href="classDynExpInstr_1_1RS__SMB100BData.html" target="_top" xlink:title=" ">
<polygon fill="white" stroke="black" points="1010,-347.5 1010,-366.5 1180,-366.5 1180,-347.5 1010,-347.5"/>
<text text-anchor="middle" x="1095" y="-354.5" font-family="Helvetica,sans-Serif" font-size="10.00">DynExpInstr::RS_SMB100BData</text>
</a>
</g>
</g>
<!-- Node8&#45;&gt;Node15 -->
<g id="edge14" class="edge">
<title>Node8&#45;&gt;Node15</title>
<path fill="none" stroke="midnightblue" d="M937.52,-330.28C969.53,-335.74 1007.57,-342.24 1038.12,-347.46"/>
<polygon fill="midnightblue" stroke="midnightblue" points="937.81,-326.77 927.36,-328.54 936.63,-333.67 937.81,-326.77"/>
</g>
<!-- Node16 -->
<g id="node16" class="node">
<title>Node16</title>
<g id="a_node16"><a xlink:href="classDynExpInstr_1_1RS__SMC100AData.html" target="_top" xlink:title=" ">
<polygon fill="white" stroke="black" points="1010,-309.5 1010,-328.5 1180,-328.5 1180,-309.5 1010,-309.5"/>
<text text-anchor="middle" x="1095" y="-316.5" font-family="Helvetica,sans-Serif" font-size="10.00">DynExpInstr::RS_SMC100AData</text>
</a>
</g>
</g>
<!-- Node8&#45;&gt;Node16 -->
<g id="edge15" class="edge">
<title>Node8&#45;&gt;Node16</title>
<path fill="none" stroke="midnightblue" d="M978.22,-319C988.78,-319 999.39,-319 1009.68,-319"/>
<polygon fill="midnightblue" stroke="midnightblue" points="978.12,-315.5 968.12,-319 978.12,-322.5 978.12,-315.5"/>
</g>
<!-- Node17 -->
<g id="node17" class="node">
<title>Node17</title>
<g id="a_node17"><a xlink:href="classDynExpInstr_1_1SwabianInstrumentsPulseStreamerData.html" target="_top" xlink:title=" ">
<polygon fill="white" stroke="black" points="1004,-260 1004,-290 1186,-290 1186,-260 1004,-260"/>
<text text-anchor="start" x="1012" y="-278" font-family="Helvetica,sans-Serif" font-size="10.00">DynExpInstr::SwabianInstruments</text>
<text text-anchor="middle" x="1095" y="-267" font-family="Helvetica,sans-Serif" font-size="10.00">PulseStreamerData</text>
</a>
</g>
</g>
<!-- Node8&#45;&gt;Node17 -->
<g id="edge16" class="edge">
<title>Node8&#45;&gt;Node17</title>
<path fill="none" stroke="midnightblue" d="M929.81,-307.47C956.72,-302.15 989.01,-295.76 1017.82,-290.07"/>
<polygon fill="midnightblue" stroke="midnightblue" points="928.91,-304.08 919.78,-309.45 930.27,-310.95 928.91,-304.08"/>
</g>
<!-- Node11 -->
<g id="node11" class="node">
<title>Node11</title>
<g id="a_node11"><a xlink:href="classDynExpInstr_1_1AnalogOutData.html" target="_top" xlink:title="Data class for AnalogOut.">
<polygon fill="white" stroke="black" points="1222,-406.5 1222,-425.5 1378,-425.5 1378,-406.5 1222,-406.5"/>
<text text-anchor="middle" x="1300" y="-413.5" font-family="Helvetica,sans-Serif" font-size="10.00">DynExpInstr::AnalogOutData</text>
</a>
</g>
</g>
<!-- Node10&#45;&gt;Node11 -->
<g id="edge10" class="edge">
<title>Node10&#45;&gt;Node11</title>
<path fill="none" stroke="midnightblue" d="M1184.18,-404.12C1196.72,-405.42 1209.54,-406.75 1221.85,-408.02"/>
<polygon fill="midnightblue" stroke="midnightblue" points="1184.5,-400.64 1174.19,-403.09 1183.78,-407.6 1184.5,-400.64"/>
</g>
<!-- Node13 -->
<g id="node13" class="node">
<title>Node13</title>
<g id="a_node13"><a xlink:href="classDynExpInstr_1_1DigitalOutData.html" target="_top" xlink:title="Data class for DigitalOut.">
<polygon fill="white" stroke="black" points="1222.5,-363.5 1222.5,-382.5 1377.5,-382.5 1377.5,-363.5 1222.5,-363.5"/>
<text text-anchor="middle" x="1300" y="-370.5" font-family="Helvetica,sans-Serif" font-size="10.00">DynExpInstr::DigitalOutData</text>
</a>
</g>
</g>
<!-- Node10&#45;&gt;Node13 -->
<g id="edge12" class="edge">
<title>Node10&#45;&gt;Node13</title>
<path fill="none" stroke="midnightblue" d="M1184.25,-385.44C1196.88,-384.07 1209.79,-382.67 1222.18,-381.32"/>
<polygon fill="midnightblue" stroke="midnightblue" points="1183.76,-381.97 1174.19,-386.53 1184.51,-388.93 1183.76,-381.97"/>
</g>
<!-- Node12 -->
<g id="node12" class="node">
<title>Node12</title>
<g id="a_node12"><a xlink:href="classDynExpInstr_1_1NIDAQAnalogOutData.html" target="_top" xlink:title=" ">
<polygon fill="white" stroke="black" points="1414,-404 1414,-434 1562,-434 1562,-404 1414,-404"/>
<text text-anchor="start" x="1422" y="-422" font-family="Helvetica,sans-Serif" font-size="10.00">DynExpInstr::NIDAQAnalog</text>
<text text-anchor="middle" x="1488" y="-411" font-family="Helvetica,sans-Serif" font-size="10.00">OutData</text>
</a>
</g>
</g>
<!-- Node11&#45;&gt;Node12 -->
<g id="edge11" class="edge">
<title>Node11&#45;&gt;Node12</title>
<path fill="none" stroke="midnightblue" d="M1388.27,-417.41C1396.83,-417.55 1405.45,-417.68 1413.85,-417.82"/>
<polygon fill="midnightblue" stroke="midnightblue" points="1388.32,-413.91 1378.26,-417.25 1388.21,-420.91 1388.32,-413.91"/>
</g>
<!-- Node14 -->
<g id="node14" class="node">
<title>Node14</title>
<g id="a_node14"><a xlink:href="classDynExpInstr_1_1NIDAQDigitalOutData.html" target="_top" xlink:title=" ">
<polygon fill="white" stroke="black" points="1415,-355 1415,-385 1561,-385 1561,-355 1415,-355"/>
<text text-anchor="start" x="1423" y="-373" font-family="Helvetica,sans-Serif" font-size="10.00">DynExpInstr::NIDAQDigital</text>
<text text-anchor="middle" x="1488" y="-362" font-family="Helvetica,sans-Serif" font-size="10.00">OutData</text>
</a>
</g>
</g>
<!-- Node13&#45;&gt;Node14 -->
<g id="edge13" class="edge">
<title>Node13&#45;&gt;Node14</title>
<path fill="none" stroke="midnightblue" d="M1387.89,-371.6C1396.94,-371.45 1406.07,-371.31 1414.93,-371.16"/>
<polygon fill="midnightblue" stroke="midnightblue" points="1387.67,-368.1 1377.73,-371.76 1387.78,-375.1 1387.67,-368.1"/>
</g>
<!-- Node19 -->
<g id="node19" class="node">
<title>Node19</title>
<g id="a_node19"><a xlink:href="classDynExpInstr_1_1AnalogInData.html" target="_top" xlink:title="Data class for AnalogIn.">
<polygon fill="white" stroke="black" points="1021,-221.5 1021,-240.5 1169,-240.5 1169,-221.5 1021,-221.5"/>
<text text-anchor="middle" x="1095" y="-228.5" font-family="Helvetica,sans-Serif" font-size="10.00">DynExpInstr::AnalogInData</text>
</a>
</g>
</g>
<!-- Node18&#45;&gt;Node19 -->
<g id="edge18" class="edge">
<title>Node18&#45;&gt;Node19</title>
<path fill="none" stroke="midnightblue" d="M955.38,-219.16C976.9,-221 999.87,-222.96 1020.8,-224.75"/>
<polygon fill="midnightblue" stroke="midnightblue" points="955.54,-215.66 945.28,-218.3 954.95,-222.64 955.54,-215.66"/>
</g>
<!-- Node21 -->
<g id="node21" class="node">
<title>Node21</title>
<g id="a_node21"><a xlink:href="classDynExpInstr_1_1DigitalInData.html" target="_top" xlink:title="Data class for DigitalIn.">
<polygon fill="white" stroke="black" points="1022,-183.5 1022,-202.5 1168,-202.5 1168,-183.5 1022,-183.5"/>
<text text-anchor="middle" x="1095" y="-190.5" font-family="Helvetica,sans-Serif" font-size="10.00">DynExpInstr::DigitalInData</text>
</a>
</g>
</g>
<!-- Node18&#45;&gt;Node21 -->
<g id="edge20" class="edge">
<title>Node18&#45;&gt;Node21</title>
<path fill="none" stroke="midnightblue" d="M955.54,-204.82C977.4,-202.96 1000.75,-200.96 1021.93,-199.15"/>
<polygon fill="midnightblue" stroke="midnightblue" points="954.95,-201.36 945.28,-205.7 955.54,-208.34 954.95,-201.36"/>
</g>
<!-- Node20 -->
<g id="node20" class="node">
<title>Node20</title>
<g id="a_node20"><a xlink:href="classDynExpInstr_1_1NIDAQAnalogInData.html" target="_top" xlink:title=" ">
<polygon fill="white" stroke="black" points="1226,-221 1226,-251 1374,-251 1374,-221 1226,-221"/>
<text text-anchor="start" x="1234" y="-239" font-family="Helvetica,sans-Serif" font-size="10.00">DynExpInstr::NIDAQAnalog</text>
<text text-anchor="middle" x="1300" y="-228" font-family="Helvetica,sans-Serif" font-size="10.00">InData</text>
</a>
</g>
</g>
<!-- Node19&#45;&gt;Node20 -->
<g id="edge19" class="edge">
<title>Node19&#45;&gt;Node20</title>
<path fill="none" stroke="midnightblue" d="M1179.11,-233.05C1194.64,-233.43 1210.76,-233.83 1225.96,-234.2"/>
<polygon fill="midnightblue" stroke="midnightblue" points="1179.08,-229.55 1169,-232.8 1178.91,-236.54 1179.08,-229.55"/>
</g>
<!-- Node22 -->
<g id="node22" class="node">
<title>Node22</title>
<g id="a_node22"><a xlink:href="classDynExpInstr_1_1NIDAQDigitalInData.html" target="_top" xlink:title=" ">
<polygon fill="white" stroke="black" points="1227,-172 1227,-202 1373,-202 1373,-172 1227,-172"/>
<text text-anchor="start" x="1235" y="-190" font-family="Helvetica,sans-Serif" font-size="10.00">DynExpInstr::NIDAQDigital</text>
<text text-anchor="middle" x="1300" y="-179" font-family="Helvetica,sans-Serif" font-size="10.00">InData</text>
</a>
</g>
</g>
<!-- Node21&#45;&gt;Node22 -->
<g id="edge21" class="edge">
<title>Node21&#45;&gt;Node22</title>
<path fill="none" stroke="midnightblue" d="M1178.53,-190.56C1194.51,-190.09 1211.13,-189.6 1226.75,-189.14"/>
<polygon fill="midnightblue" stroke="midnightblue" points="1178.03,-187.07 1168.14,-190.87 1178.24,-194.07 1178.03,-187.07"/>
</g>
<!-- Node24 -->
<g id="node24" class="node">
<title>Node24</title>
<g id="a_node24"><a xlink:href="classDynExpInstr_1_1ZI__MFLIData.html" target="_top" xlink:title=" ">
<polygon fill="white" stroke="black" points="1023.5,-145.5 1023.5,-164.5 1166.5,-164.5 1166.5,-145.5 1023.5,-145.5"/>
<text text-anchor="middle" x="1095" y="-152.5" font-family="Helvetica,sans-Serif" font-size="10.00">DynExpInstr::ZI_MFLIData</text>
</a>
</g>
</g>
<!-- Node23&#45;&gt;Node24 -->
<g id="edge23" class="edge">
<title>Node23&#45;&gt;Node24</title>
<path fill="none" stroke="midnightblue" d="M971.33,-165.48C988.91,-163.97 1006.88,-162.44 1023.45,-161.02"/>
<polygon fill="midnightblue" stroke="midnightblue" points="970.7,-162.02 961.04,-166.35 971.3,-168.99 970.7,-162.02"/>
</g>
<!-- Node26 -->
<g id="node26" class="node">
<title>Node26</title>
<g id="a_node26"><a xlink:href="classDynExpInstr_1_1QutoolsQuTAGData.html" target="_top" xlink:title=" ">
<polygon fill="white" stroke="black" points="1007,-107.5 1007,-126.5 1183,-126.5 1183,-107.5 1007,-107.5"/>
<text text-anchor="middle" x="1095" y="-114.5" font-family="Helvetica,sans-Serif" font-size="10.00">DynExpInstr::QutoolsQuTAGData</text>
</a>
</g>
</g>
<!-- Node25&#45;&gt;Node26 -->
<g id="edge25" class="edge">
<title>Node25&#45;&gt;Node26</title>
<path fill="none" stroke="midnightblue" d="M961.72,-128.3C976.59,-127.03 991.99,-125.71 1006.79,-124.45"/>
<polygon fill="midnightblue" stroke="midnightblue" points="961.18,-124.83 951.51,-129.17 961.77,-131.8 961.18,-124.83"/>
</g>
<!-- Node29 -->
<g id="node29" class="node">
<title>Node29</title>
<g id="a_node29"><a xlink:href="classDynExpInstr_1_1NenionLeakvalveF3Data.html" target="_top" xlink:title=" ">
<polygon fill="white" stroke="black" points="787,-77 787,-107 954,-107 954,-77 787,-77"/>
<text text-anchor="start" x="795" y="-95" font-family="Helvetica,sans-Serif" font-size="10.00">DynExpInstr::NenionLeakvalve</text>
<text text-anchor="middle" x="870.5" y="-84" font-family="Helvetica,sans-Serif" font-size="10.00">F3Data</text>
</a>
</g>
</g>
<!-- Node28&#45;&gt;Node29 -->
<g id="edge28" class="edge">
<title>Node28&#45;&gt;Node29</title>
<path fill="none" stroke="midnightblue" d="M729.73,-90.25C748.76,-90.49 768.46,-90.74 786.87,-90.97"/>
<polygon fill="midnightblue" stroke="midnightblue" points="729.59,-86.75 719.55,-90.13 729.51,-93.75 729.59,-86.75"/>
</g>
<!-- Node30 -->
<g id="node30" class="node">
<title>Node30</title>
<g id="a_node30"><a xlink:href="classDynExpInstr_1_1PI__C__862StageData.html" target="_top" xlink:title=" ">
<polygon fill="white" stroke="black" points="782,-38.5 782,-57.5 959,-57.5 959,-38.5 782,-38.5"/>
<text text-anchor="middle" x="870.5" y="-45.5" font-family="Helvetica,sans-Serif" font-size="10.00">DynExpInstr::PI_C_862StageData</text>
</a>
</g>
</g>
<!-- Node28&#45;&gt;Node30 -->
<g id="edge29" class="edge">
<title>Node28&#45;&gt;Node30</title>
<path fill="none" stroke="midnightblue" d="M695.39,-77.74C732.52,-71.4 778.39,-63.57 813.72,-57.53"/>
<polygon fill="midnightblue" stroke="midnightblue" points="694.43,-74.36 685.16,-79.49 695.61,-81.26 694.43,-74.36"/>
</g>
<!-- Node31 -->
<g id="node31" class="node">
<title>Node31</title>
<g id="a_node31"><a xlink:href="classDynExpInstr_1_1SmarActData.html" target="_top" xlink:title=" ">
<polygon fill="white" stroke="black" points="797.5,-0.5 797.5,-19.5 943.5,-19.5 943.5,-0.5 797.5,-0.5"/>
<text text-anchor="middle" x="870.5" y="-7.5" font-family="Helvetica,sans-Serif" font-size="10.00">DynExpInstr::SmarActData</text>
</a>
</g>
</g>
<!-- Node28&#45;&gt;Node31 -->
<g id="edge30" class="edge">
<title>Node28&#45;&gt;Node31</title>
<path fill="none" stroke="midnightblue" d="M724.58,-75.96C728.87,-74.21 733.04,-72.23 737,-70 758.13,-58.11 751.98,-41.1 773,-29 780.55,-24.66 788.92,-21.29 797.48,-18.68"/>
<polygon fill="midnightblue" stroke="midnightblue" points="723.2,-72.74 715,-79.46 725.6,-79.32 723.2,-72.74"/>
</g>
</g>
</svg>
