<?xml version="1.0" encoding="UTF-8" standalone="no"?>
<!DOCTYPE svg PUBLIC "-//W3C//DTD SVG 1.1//EN"
 "http://www.w3.org/Graphics/SVG/1.1/DTD/svg11.dtd">
<!-- Generated by graphviz version 2.43.0 (0)
 -->
<!-- Title: DynExpInstr::DataStreamInstrumentParams Pages: 1 -->
<svg width="1923pt" height="350pt"
 viewBox="0.00 0.00 1923.00 349.50" xmlns="http://www.w3.org/2000/svg" xmlns:xlink="http://www.w3.org/1999/xlink">
<g id="graph0" class="graph" transform="scale(1 1) rotate(0) translate(4 345.5)">
<title>DynExpInstr::DataStreamInstrumentParams</title>
<!-- Node1 -->
<g id="Node000001" class="node">
<title>Node1</title>
<g id="a_Node000001"><a xlink:title="Parameter class for DataStreamInstrument.">
<polygon fill="#999999" stroke="#666666" points="1091,-88.5 897,-88.5 897,-58.5 1091,-58.5 1091,-88.5"/>
<text text-anchor="start" x="905" y="-76.5" font-family="Helvetica,sans-Serif" font-size="10.00">DynExpInstr::DataStreamInstrument</text>
<text text-anchor="middle" x="994" y="-65.5" font-family="Helvetica,sans-Serif" font-size="10.00">Params</text>
</a>
</g>
</g>
<!-- Node7 -->
<g id="Node000007" class="node">
<title>Node7</title>
<g id="a_Node000007"><a xlink:href="classDynExpInstr_1_1FunctionGeneratorParams.html" target="_top" xlink:title="Parameter class for FunctionGenerator.">
<polygon fill="white" stroke="#666666" points="1300.5,-242.5 1128.5,-242.5 1128.5,-212.5 1300.5,-212.5 1300.5,-242.5"/>
<text text-anchor="start" x="1136.5" y="-230.5" font-family="Helvetica,sans-Serif" font-size="10.00">DynExpInstr::FunctionGenerator</text>
<text text-anchor="middle" x="1214.5" y="-219.5" font-family="Helvetica,sans-Serif" font-size="10.00">Params</text>
</a>
</g>
</g>
<!-- Node1&#45;&gt;Node7 -->
<g id="edge6_Node000001_Node000007" class="edge">
<title>Node1&#45;&gt;Node7</title>
<g id="a_edge6_Node000001_Node000007"><a xlink:title=" ">
<path fill="none" stroke="#63b8ff" d="M1024.75,-94.47C1069.44,-125.96 1152.84,-184.75 1192.06,-212.39"/>
<polygon fill="#63b8ff" stroke="#63b8ff" points="1026.54,-91.45 1016.35,-88.55 1022.51,-97.17 1026.54,-91.45"/>
</a>
</g>
</g>
<!-- Node17 -->
<g id="Node000017" class="node">
<title>Node17</title>
<g id="a_Node000017"><a xlink:href="classDynExpInstr_1_1InputPortParams.html" target="_top" xlink:title="Parameter class for InputPort.">
<polygon fill="white" stroke="#666666" points="1295.5,-105 1133.5,-105 1133.5,-86 1295.5,-86 1295.5,-105"/>
<text text-anchor="middle" x="1214.5" y="-93" font-family="Helvetica,sans-Serif" font-size="10.00">DynExpInstr::InputPortParams</text>
</a>
</g>
</g>
<!-- Node1&#45;&gt;Node17 -->
<g id="edge16_Node000001_Node000017" class="edge">
<title>Node1&#45;&gt;Node17</title>
<g id="a_edge16_Node000001_Node000017"><a xlink:title=" ">
<path fill="none" stroke="#63b8ff" d="M1101.43,-84.22C1112.16,-85.3 1122.94,-86.38 1133.33,-87.43"/>
<polygon fill="#63b8ff" stroke="#63b8ff" points="1101.46,-80.7 1091.16,-83.18 1100.75,-87.67 1101.46,-80.7"/>
</a>
</g>
</g>
<!-- Node22 -->
<g id="Node000022" class="node">
<title>Node22</title>
<g id="a_Node000022"><a xlink:href="classDynExpInstr_1_1LockinAmplifierParams.html" target="_top" xlink:title="Parameter class for LockinAmplifier.">
<polygon fill="white" stroke="#666666" points="1293.5,-67.5 1135.5,-67.5 1135.5,-37.5 1293.5,-37.5 1293.5,-67.5"/>
<text text-anchor="start" x="1143.5" y="-55.5" font-family="Helvetica,sans-Serif" font-size="10.00">DynExpInstr::LockinAmplifier</text>
<text text-anchor="middle" x="1214.5" y="-44.5" font-family="Helvetica,sans-Serif" font-size="10.00">Params</text>
</a>
</g>
</g>
<!-- Node1&#45;&gt;Node22 -->
<g id="edge21_Node000001_Node000022" class="edge">
<title>Node1&#45;&gt;Node22</title>
<g id="a_edge21_Node000001_Node000022"><a xlink:title=" ">
<path fill="none" stroke="#63b8ff" d="M1101.23,-63.29C1112.72,-62.19 1124.26,-61.08 1135.34,-60.01"/>
<polygon fill="#63b8ff" stroke="#63b8ff" points="1100.77,-59.82 1091.16,-64.26 1101.44,-66.79 1100.77,-59.82"/>
</a>
</g>
</g>
<!-- Node24 -->
<g id="Node000024" class="node">
<title>Node24</title>
<g id="a_Node000024"><a xlink:href="classDynExpInstr_1_1TimeTaggerParams.html" target="_top" xlink:title="Parameter class for TimeTagger.">
<polygon fill="white" stroke="#666666" points="1302,-19 1127,-19 1127,0 1302,0 1302,-19"/>
<text text-anchor="middle" x="1214.5" y="-7" font-family="Helvetica,sans-Serif" font-size="10.00">DynExpInstr::TimeTaggerParams</text>
</a>
</g>
</g>
<!-- Node1&#45;&gt;Node24 -->
<g id="edge23_Node000001_Node000024" class="edge">
<title>Node1&#45;&gt;Node24</title>
<g id="a_edge23_Node000001_Node000024"><a xlink:title=" ">
<path fill="none" stroke="#63b8ff" d="M1044.82,-55.04C1069.36,-46.32 1099.52,-36.18 1127,-28.5 1139.44,-25.03 1153.03,-21.79 1165.67,-19"/>
<polygon fill="#63b8ff" stroke="#63b8ff" points="1043.6,-51.76 1035.36,-58.42 1045.96,-58.35 1043.6,-51.76"/>
</a>
</g>
</g>
<!-- Node2 -->
<g id="Node000002" class="node">
<title>Node2</title>
<g id="a_Node000002"><a xlink:href="classDynExp_1_1InstrumentParamsBase.html" target="_top" xlink:title="Parameter class for InstrumentBase.">
<polygon fill="white" stroke="#666666" points="861,-83 688,-83 688,-64 861,-64 861,-83"/>
<text text-anchor="middle" x="774.5" y="-71" font-family="Helvetica,sans-Serif" font-size="10.00">DynExp::InstrumentParamsBase</text>
</a>
</g>
</g>
<!-- Node2&#45;&gt;Node1 -->
<g id="edge1_Node000001_Node000002" class="edge">
<title>Node2&#45;&gt;Node1</title>
<g id="a_edge1_Node000001_Node000002"><a xlink:title=" ">
<path fill="none" stroke="#63b8ff" d="M871.33,-73.5C879.73,-73.5 888.24,-73.5 896.64,-73.5"/>
<polygon fill="#63b8ff" stroke="#63b8ff" points="871.15,-70 861.15,-73.5 871.15,-77 871.15,-70"/>
</a>
</g>
</g>
<!-- Node3 -->
<g id="Node000003" class="node">
<title>Node3</title>
<g id="a_Node000003"><a xlink:href="classDynExp_1_1RunnableObjectParams.html" target="_top" xlink:title="Parameter class for RunnableObject.">
<polygon fill="white" stroke="#666666" points="652,-83 479,-83 479,-64 652,-64 652,-83"/>
<text text-anchor="middle" x="565.5" y="-71" font-family="Helvetica,sans-Serif" font-size="10.00">DynExp::RunnableObjectParams</text>
</a>
</g>
</g>
<!-- Node3&#45;&gt;Node2 -->
<g id="edge2_Node000002_Node000003" class="edge">
<title>Node3&#45;&gt;Node2</title>
<g id="a_edge2_Node000002_Node000003"><a xlink:title=" ">
<path fill="none" stroke="#63b8ff" d="M662.2,-73.5C670.76,-73.5 679.4,-73.5 687.88,-73.5"/>
<polygon fill="#63b8ff" stroke="#63b8ff" points="662.19,-70 652.19,-73.5 662.19,-77 662.19,-70"/>
</a>
</g>
</g>
<!-- Node4 -->
<g id="Node000004" class="node">
<title>Node4</title>
<g id="a_Node000004"><a xlink:href="classDynExp_1_1ParamsBase.html" target="_top" xlink:title="Abstract base class for object parameter classes. Each class derived from class Object must be accomp...">
<polygon fill="white" stroke="#666666" points="443,-83 323,-83 323,-64 443,-64 443,-83"/>
<text text-anchor="middle" x="383" y="-71" font-family="Helvetica,sans-Serif" font-size="10.00">DynExp::ParamsBase</text>
</a>
</g>
</g>
<!-- Node4&#45;&gt;Node3 -->
<g id="edge3_Node000003_Node000004" class="edge">
<title>Node4&#45;&gt;Node3</title>
<g id="a_edge3_Node000003_Node000004"><a xlink:title=" ">
<path fill="none" stroke="#63b8ff" d="M453.17,-73.5C461.54,-73.5 470.17,-73.5 478.75,-73.5"/>
<polygon fill="#63b8ff" stroke="#63b8ff" points="453.1,-70 443.1,-73.5 453.1,-77 453.1,-70"/>
</a>
</g>
</g>
<!-- Node5 -->
<g id="Node000005" class="node">
<title>Node5</title>
<g id="a_Node000005"><a xlink:href="classUtil_1_1ISynchronizedPointerLockable.html" target="_top" xlink:title="Interface to allow synchronizing the access to derived classes between different threads by making th...">
<polygon fill="white" stroke="#666666" points="287,-88.5 144,-88.5 144,-58.5 287,-58.5 287,-88.5"/>
<text text-anchor="start" x="152" y="-76.5" font-family="Helvetica,sans-Serif" font-size="10.00">Util::ISynchronizedPointer</text>
<text text-anchor="middle" x="215.5" y="-65.5" font-family="Helvetica,sans-Serif" font-size="10.00">Lockable</text>
</a>
</g>
</g>
<!-- Node5&#45;&gt;Node4 -->
<g id="edge4_Node000004_Node000005" class="edge">
<title>Node5&#45;&gt;Node4</title>
<g id="a_edge4_Node000004_Node000005"><a xlink:title=" ">
<path fill="none" stroke="#63b8ff" d="M297.23,-73.5C305.84,-73.5 314.47,-73.5 322.76,-73.5"/>
<polygon fill="#63b8ff" stroke="#63b8ff" points="297.17,-70 287.17,-73.5 297.17,-77 297.17,-70"/>
</a>
</g>
</g>
<!-- Node6 -->
<g id="Node000006" class="node">
<title>Node6</title>
<g id="a_Node000006"><a xlink:href="classUtil_1_1INonCopyable.html" target="_top" xlink:title="Interface to delete copy constructor and copy assignment operator and thus make derived classes non&#45;c...">
<polygon fill="white" stroke="#666666" points="108,-83 0,-83 0,-64 108,-64 108,-83"/>
<text text-anchor="middle" x="54" y="-71" font-family="Helvetica,sans-Serif" font-size="10.00">Util::INonCopyable</text>
</a>
</g>
</g>
<!-- Node6&#45;&gt;Node5 -->
<g id="edge5_Node000005_Node000006" class="edge">
<title>Node6&#45;&gt;Node5</title>
<g id="a_edge5_Node000005_Node000006"><a xlink:title=" ">
<path fill="none" stroke="#63b8ff" d="M118.19,-73.5C126.58,-73.5 135.23,-73.5 143.74,-73.5"/>
<polygon fill="#63b8ff" stroke="#63b8ff" points="118.11,-70 108.11,-73.5 118.11,-77 118.11,-70"/>
</a>
</g>
</g>
<!-- Node8 -->
<g id="Node000008" class="node">
<title>Node8</title>
<g id="a_Node000008"><a xlink:href="classDynExpInstr_1_1DummyDataStreamInstrumentParams.html" target="_top" xlink:title=" ">
<polygon fill="white" stroke="#666666" points="1521.5,-341.5 1342.5,-341.5 1342.5,-311.5 1521.5,-311.5 1521.5,-341.5"/>
<text text-anchor="start" x="1350.5" y="-329.5" font-family="Helvetica,sans-Serif" font-size="10.00">DynExpInstr::DummyDataStream</text>
<text text-anchor="middle" x="1432" y="-318.5" font-family="Helvetica,sans-Serif" font-size="10.00">InstrumentParams</text>
</a>
</g>
</g>
<!-- Node7&#45;&gt;Node8 -->
<g id="edge7_Node000007_Node000008" class="edge">
<title>Node7&#45;&gt;Node8</title>
<g id="a_edge7_Node000007_Node000008"><a xlink:title=" ">
<path fill="none" stroke="#63b8ff" d="M1244.44,-248.64C1268.46,-265.33 1304.06,-288.11 1338,-302.5 1345.83,-305.82 1354.23,-308.77 1362.66,-311.36"/>
<polygon fill="#63b8ff" stroke="#63b8ff" points="1246.34,-245.7 1236.14,-242.8 1242.31,-251.42 1246.34,-245.7"/>
</a>
</g>
</g>
<!-- Node9 -->
<g id="Node000009" class="node">
<title>Node9</title>
<g id="a_Node000009"><a xlink:href="classDynExpInstr_1_1OutputPortParams.html" target="_top" xlink:title="Parameter class for OutputPort.">
<polygon fill="white" stroke="#666666" points="1517,-293 1347,-293 1347,-274 1517,-274 1517,-293"/>
<text text-anchor="middle" x="1432" y="-281" font-family="Helvetica,sans-Serif" font-size="10.00">DynExpInstr::OutputPortParams</text>
</a>
</g>
</g>
<!-- Node7&#45;&gt;Node9 -->
<g id="edge8_Node000007_Node000009" class="edge">
<title>Node7&#45;&gt;Node9</title>
<g id="a_edge8_Node000007_Node000009"><a xlink:title=" ">
<path fill="none" stroke="#63b8ff" d="M1269.74,-245.73C1290.9,-252.47 1315.44,-259.84 1338,-265.5 1350.28,-268.58 1363.59,-271.44 1376.19,-273.93"/>
<polygon fill="#63b8ff" stroke="#63b8ff" points="1270.56,-242.31 1259.97,-242.58 1268.42,-248.98 1270.56,-242.31"/>
</a>
</g>
</g>
<!-- Node14 -->
<g id="Node000014" class="node">
<title>Node14</title>
<g id="a_Node000014"><a xlink:href="classDynExpInstr_1_1RS__SMB100BParams.html" target="_top" xlink:title=" ">
<polygon fill="white" stroke="#666666" points="1523,-256 1341,-256 1341,-237 1523,-237 1523,-256"/>
<text text-anchor="middle" x="1432" y="-244" font-family="Helvetica,sans-Serif" font-size="10.00">DynExpInstr::RS_SMB100BParams</text>
</a>
</g>
</g>
<!-- Node7&#45;&gt;Node14 -->
<g id="edge13_Node000007_Node000014" class="edge">
<title>Node7&#45;&gt;Node14</title>
<g id="a_edge13_Node000007_Node000014"><a xlink:title=" ">
<path fill="none" stroke="#63b8ff" d="M1310.94,-235.91C1320.86,-236.79 1330.92,-237.68 1340.78,-238.55"/>
<polygon fill="#63b8ff" stroke="#63b8ff" points="1310.94,-232.4 1300.67,-235.01 1310.33,-239.37 1310.94,-232.4"/>
</a>
</g>
</g>
<!-- Node15 -->
<g id="Node000015" class="node">
<title>Node15</title>
<g id="a_Node000015"><a xlink:href="classDynExpInstr_1_1RS__SMC100AParams.html" target="_top" xlink:title=" ">
<polygon fill="white" stroke="#666666" points="1523,-219 1341,-219 1341,-200 1523,-200 1523,-219"/>
<text text-anchor="middle" x="1432" y="-207" font-family="Helvetica,sans-Serif" font-size="10.00">DynExpInstr::RS_SMC100AParams</text>
</a>
</g>
</g>
<!-- Node7&#45;&gt;Node15 -->
<g id="edge14_Node000007_Node000015" class="edge">
<title>Node7&#45;&gt;Node15</title>
<g id="a_edge14_Node000007_Node000015"><a xlink:title=" ">
<path fill="none" stroke="#63b8ff" d="M1310.94,-219.53C1320.86,-218.7 1330.92,-217.86 1340.78,-217.04"/>
<polygon fill="#63b8ff" stroke="#63b8ff" points="1310.35,-216.07 1300.67,-220.39 1310.93,-223.04 1310.35,-216.07"/>
</a>
</g>
</g>
<!-- Node16 -->
<g id="Node000016" class="node">
<title>Node16</title>
<g id="a_Node000016"><a xlink:href="classDynExpInstr_1_1SwabianInstrumentsPulseStreamerParams.html" target="_top" xlink:title=" ">
<polygon fill="white" stroke="#666666" points="1523,-181.5 1341,-181.5 1341,-151.5 1523,-151.5 1523,-181.5"/>
<text text-anchor="start" x="1349" y="-169.5" font-family="Helvetica,sans-Serif" font-size="10.00">DynExpInstr::SwabianInstruments</text>
<text text-anchor="middle" x="1432" y="-158.5" font-family="Helvetica,sans-Serif" font-size="10.00">PulseStreamerParams</text>
</a>
</g>
</g>
<!-- Node7&#45;&gt;Node16 -->
<g id="edge15_Node000007_Node000016" class="edge">
<title>Node7&#45;&gt;Node16</title>
<g id="a_edge15_Node000007_Node000016"><a xlink:title=" ">
<path fill="none" stroke="#63b8ff" d="M1275.62,-209.53C1295.45,-203.68 1317.65,-197.23 1338,-191.5 1349.59,-188.24 1362.01,-184.84 1373.89,-181.63"/>
<polygon fill="#63b8ff" stroke="#63b8ff" points="1274.38,-206.25 1265.79,-212.44 1276.37,-212.96 1274.38,-206.25"/>
</a>
</g>
</g>
<!-- Node10 -->
<g id="Node000010" class="node">
<title>Node10</title>
<g id="a_Node000010"><a xlink:href="classDynExpInstr_1_1AnalogOutParams.html" target="_top" xlink:title="Parameter class for AnalogOut.">
<polygon fill="white" stroke="#666666" points="1731,-314 1562,-314 1562,-295 1731,-295 1731,-314"/>
<text text-anchor="middle" x="1646.5" y="-302" font-family="Helvetica,sans-Serif" font-size="10.00">DynExpInstr::AnalogOutParams</text>
</a>
</g>
</g>
<!-- Node9&#45;&gt;Node10 -->
<g id="edge9_Node000009_Node000010" class="edge">
<title>Node9&#45;&gt;Node10</title>
<g id="a_edge9_Node000009_Node000010"><a xlink:title=" ">
<path fill="none" stroke="#63b8ff" d="M1527.29,-292.82C1538.74,-293.95 1550.38,-295.1 1561.66,-296.21"/>
<polygon fill="#63b8ff" stroke="#63b8ff" points="1527.59,-289.33 1517.29,-291.83 1526.9,-296.3 1527.59,-289.33"/>
</a>
</g>
</g>
<!-- Node12 -->
<g id="Node000012" class="node">
<title>Node12</title>
<g id="a_Node000012"><a xlink:href="classDynExpInstr_1_1DigitalOutParams.html" target="_top" xlink:title="Parameter class for DigitalOut.">
<polygon fill="white" stroke="#666666" points="1730,-272 1563,-272 1563,-253 1730,-253 1730,-272"/>
<text text-anchor="middle" x="1646.5" y="-260" font-family="Helvetica,sans-Serif" font-size="10.00">DynExpInstr::DigitalOutParams</text>
</a>
</g>
</g>
<!-- Node9&#45;&gt;Node12 -->
<g id="edge11_Node000009_Node000012" class="edge">
<title>Node9&#45;&gt;Node12</title>
<g id="a_edge11_Node000009_Node000012"><a xlink:title=" ">
<path fill="none" stroke="#63b8ff" d="M1527.53,-274.16C1539.25,-273 1551.17,-271.82 1562.7,-270.68"/>
<polygon fill="#63b8ff" stroke="#63b8ff" points="1526.9,-270.7 1517.29,-275.17 1527.59,-277.67 1526.9,-270.7"/>
</a>
</g>
</g>
<!-- Node11 -->
<g id="Node000011" class="node">
<title>Node11</title>
<g id="a_Node000011"><a xlink:href="classDynExpInstr_1_1NIDAQAnalogOutParams.html" target="_top" xlink:title=" ">
<polygon fill="white" stroke="#666666" points="1915,-322.5 1767,-322.5 1767,-292.5 1915,-292.5 1915,-322.5"/>
<text text-anchor="start" x="1775" y="-310.5" font-family="Helvetica,sans-Serif" font-size="10.00">DynExpInstr::NIDAQAnalog</text>
<text text-anchor="middle" x="1841" y="-299.5" font-family="Helvetica,sans-Serif" font-size="10.00">OutParams</text>
</a>
</g>
</g>
<!-- Node10&#45;&gt;Node11 -->
<g id="edge10_Node000010_Node000011" class="edge">
<title>Node10&#45;&gt;Node11</title>
<g id="a_edge10_Node000010_Node000011"><a xlink:title=" ">
<path fill="none" stroke="#63b8ff" d="M1741.16,-305.96C1749.75,-306.09 1758.38,-306.23 1766.75,-306.36"/>
<polygon fill="#63b8ff" stroke="#63b8ff" points="1741.15,-302.46 1731.09,-305.8 1741.04,-309.46 1741.15,-302.46"/>
</a>
</g>
</g>
<!-- Node13 -->
<g id="Node000013" class="node">
<title>Node13</title>
<g id="a_Node000013"><a xlink:href="classDynExpInstr_1_1NIDAQDigitalOutParams.html" target="_top" xlink:title=" ">
<polygon fill="white" stroke="#666666" points="1914,-274.5 1768,-274.5 1768,-244.5 1914,-244.5 1914,-274.5"/>
<text text-anchor="start" x="1776" y="-262.5" font-family="Helvetica,sans-Serif" font-size="10.00">DynExpInstr::NIDAQDigital</text>
<text text-anchor="middle" x="1841" y="-251.5" font-family="Helvetica,sans-Serif" font-size="10.00">OutParams</text>
</a>
</g>
</g>
<!-- Node12&#45;&gt;Node13 -->
<g id="edge12_Node000012_Node000013" class="edge">
<title>Node12&#45;&gt;Node13</title>
<g id="a_edge12_Node000012_Node000013"><a xlink:title=" ">
<path fill="none" stroke="#63b8ff" d="M1740.29,-261.05C1749.57,-260.91 1758.9,-260.76 1767.92,-260.62"/>
<polygon fill="#63b8ff" stroke="#63b8ff" points="1740.2,-257.55 1730.25,-261.21 1740.31,-264.55 1740.2,-257.55"/>
</a>
</g>
</g>
<!-- Node18 -->
<g id="Node000018" class="node">
<title>Node18</title>
<g id="a_Node000018"><a xlink:href="classDynExpInstr_1_1AnalogInParams.html" target="_top" xlink:title="Parameter class for AnalogIn.">
<polygon fill="white" stroke="#666666" points="1512.5,-133 1351.5,-133 1351.5,-114 1512.5,-114 1512.5,-133"/>
<text text-anchor="middle" x="1432" y="-121" font-family="Helvetica,sans-Serif" font-size="10.00">DynExpInstr::AnalogInParams</text>
</a>
</g>
</g>
<!-- Node17&#45;&gt;Node18 -->
<g id="edge17_Node000017_Node000018" class="edge">
<title>Node17&#45;&gt;Node18</title>
<g id="a_edge17_Node000017_Node000018"><a xlink:title=" ">
<path fill="none" stroke="#63b8ff" d="M1298.78,-106.32C1318.16,-108.84 1338.66,-111.5 1357.58,-113.96"/>
<polygon fill="#63b8ff" stroke="#63b8ff" points="1299.13,-102.84 1288.76,-105.02 1298.22,-109.78 1299.13,-102.84"/>
</a>
</g>
</g>
<!-- Node20 -->
<g id="Node000020" class="node">
<title>Node20</title>
<g id="a_Node000020"><a xlink:href="classDynExpInstr_1_1DigitalInParams.html" target="_top" xlink:title="Parameter class for DigitalIn.">
<polygon fill="white" stroke="#666666" points="1511.5,-96 1352.5,-96 1352.5,-77 1511.5,-77 1511.5,-96"/>
<text text-anchor="middle" x="1432" y="-84" font-family="Helvetica,sans-Serif" font-size="10.00">DynExpInstr::DigitalInParams</text>
</a>
</g>
</g>
<!-- Node17&#45;&gt;Node20 -->
<g id="edge19_Node000017_Node000020" class="edge">
<title>Node17&#45;&gt;Node20</title>
<g id="a_edge19_Node000017_Node000020"><a xlink:title=" ">
<path fill="none" stroke="#63b8ff" d="M1305.84,-91.73C1321.34,-91.08 1337.33,-90.41 1352.48,-89.78"/>
<polygon fill="#63b8ff" stroke="#63b8ff" points="1305.59,-88.23 1295.74,-92.15 1305.88,-95.23 1305.59,-88.23"/>
</a>
</g>
</g>
<!-- Node19 -->
<g id="Node000019" class="node">
<title>Node19</title>
<g id="a_Node000019"><a xlink:href="classDynExpInstr_1_1NIDAQAnalogInParams.html" target="_top" xlink:title=" ">
<polygon fill="white" stroke="#666666" points="1720.5,-143.5 1572.5,-143.5 1572.5,-113.5 1720.5,-113.5 1720.5,-143.5"/>
<text text-anchor="start" x="1580.5" y="-131.5" font-family="Helvetica,sans-Serif" font-size="10.00">DynExpInstr::NIDAQAnalog</text>
<text text-anchor="middle" x="1646.5" y="-120.5" font-family="Helvetica,sans-Serif" font-size="10.00">InParams</text>
</a>
</g>
</g>
<!-- Node18&#45;&gt;Node19 -->
<g id="edge18_Node000018_Node000019" class="edge">
<title>Node18&#45;&gt;Node19</title>
<g id="a_edge18_Node000018_Node000019"><a xlink:title=" ">
<path fill="none" stroke="#63b8ff" d="M1522.91,-125.62C1539.39,-126 1556.41,-126.4 1572.33,-126.78"/>
<polygon fill="#63b8ff" stroke="#63b8ff" points="1522.81,-122.11 1512.73,-125.38 1522.65,-129.11 1522.81,-122.11"/>
</a>
</g>
</g>
<!-- Node21 -->
<g id="Node000021" class="node">
<title>Node21</title>
<g id="a_Node000021"><a xlink:href="classDynExpInstr_1_1NIDAQDigitalInParams.html" target="_top" xlink:title=" ">
<polygon fill="white" stroke="#666666" points="1719.5,-95.5 1573.5,-95.5 1573.5,-65.5 1719.5,-65.5 1719.5,-95.5"/>
<text text-anchor="start" x="1581.5" y="-83.5" font-family="Helvetica,sans-Serif" font-size="10.00">DynExpInstr::NIDAQDigital</text>
<text text-anchor="middle" x="1646.5" y="-72.5" font-family="Helvetica,sans-Serif" font-size="10.00">InParams</text>
</a>
</g>
</g>
<!-- Node20&#45;&gt;Node21 -->
<g id="edge20_Node000020_Node000021" class="edge">
<title>Node20&#45;&gt;Node21</title>
<g id="a_edge20_Node000020_Node000021"><a xlink:title=" ">
<path fill="none" stroke="#63b8ff" d="M1521.58,-84C1538.8,-83.51 1556.66,-83.01 1573.28,-82.54"/>
<polygon fill="#63b8ff" stroke="#63b8ff" points="1521.42,-80.5 1511.52,-84.28 1521.62,-87.5 1521.42,-80.5"/>
</a>
</g>
</g>
<!-- Node23 -->
<g id="Node000023" class="node">
<title>Node23</title>
<g id="a_Node000023"><a xlink:href="classDynExpInstr_1_1ZI__MFLIParams.html" target="_top" xlink:title=" ">
<polygon fill="white" stroke="#666666" points="1510,-59 1354,-59 1354,-40 1510,-40 1510,-59"/>
<text text-anchor="middle" x="1432" y="-47" font-family="Helvetica,sans-Serif" font-size="10.00">DynExpInstr::ZI_MFLIParams</text>
</a>
</g>
</g>
<!-- Node22&#45;&gt;Node23 -->
<g id="edge22_Node000022_Node000023" class="edge">
<title>Node22&#45;&gt;Node23</title>
<g id="a_edge22_Node000022_Node000023"><a xlink:title=" ">
<path fill="none" stroke="#63b8ff" d="M1303.84,-51.27C1320.43,-51.04 1337.66,-50.8 1353.88,-50.57"/>
<polygon fill="#63b8ff" stroke="#63b8ff" points="1303.56,-47.77 1293.61,-51.41 1303.65,-54.77 1303.56,-47.77"/>
</a>
</g>
</g>
<!-- Node25 -->
<g id="Node000025" class="node">
<title>Node25</title>
<g id="a_Node000025"><a xlink:href="classDynExpInstr_1_1QutoolsQuTAGParams.html" target="_top" xlink:title=" ">
<polygon fill="white" stroke="#666666" points="1526,-19 1338,-19 1338,0 1526,0 1526,-19"/>
<text text-anchor="middle" x="1432" y="-7" font-family="Helvetica,sans-Serif" font-size="10.00">DynExpInstr::QutoolsQuTAGParams</text>
</a>
</g>
</g>
<!-- Node24&#45;&gt;Node25 -->
<g id="edge24_Node000024_Node000025" class="edge">
<title>Node24&#45;&gt;Node25</title>
<g id="a_edge24_Node000024_Node000025"><a xlink:title=" ">
<path fill="none" stroke="#63b8ff" d="M1312.44,-9.5C1320.86,-9.5 1329.37,-9.5 1337.76,-9.5"/>
<polygon fill="#63b8ff" stroke="#63b8ff" points="1312.22,-6 1302.22,-9.5 1312.22,-13 1312.22,-6"/>
</a>
</g>
</g>
</g>
</svg>
