<?xml version="1.0" encoding="UTF-8" standalone="no"?>
<!DOCTYPE svg PUBLIC "-//W3C//DTD SVG 1.1//EN"
 "http://www.w3.org/Graphics/SVG/1.1/DTD/svg11.dtd">
<!-- Generated by graphviz version 2.43.0 (0)
 -->
<!-- Title: DynExpInstr::WidefieldLocalizationTasks::ImageProcessingTaskBase Pages: 1 -->
<svg width="416pt" height="182pt"
 viewBox="0.00 0.00 416.00 182.00" xmlns="http://www.w3.org/2000/svg" xmlns:xlink="http://www.w3.org/1999/xlink">
<g id="graph0" class="graph" transform="scale(1 1) rotate(0) translate(4 178)">
<title>DynExpInstr::WidefieldLocalizationTasks::ImageProcessingTaskBase</title>
<!-- Node1 -->
<g id="Node000001" class="node">
<title>Node1</title>
<g id="a_Node000001"><a xlink:title=" ">
<polygon fill="#999999" stroke="#666666" points="186,-102 0,-102 0,-72 186,-72 186,-102"/>
<text text-anchor="start" x="8" y="-90" font-family="Helvetica,sans-Serif" font-size="10.00">DynExpInstr::WidefieldLocalization</text>
<text text-anchor="middle" x="93" y="-79" font-family="Helvetica,sans-Serif" font-size="10.00">Tasks::ImageProcessingTaskBase</text>
</a>
</g>
</g>
<!-- Node2 -->
<g id="Node000002" class="node">
<title>Node2</title>
<g id="a_Node000002"><a xlink:href="classDynExpInstr_1_1WidefieldLocalizationTasks_1_1AnalyzeDistortionTask.html" target="_top" xlink:title=" ">
<polygon fill="white" stroke="#666666" points="408,-174 222,-174 222,-144 408,-144 408,-174"/>
<text text-anchor="start" x="230" y="-162" font-family="Helvetica,sans-Serif" font-size="10.00">DynExpInstr::WidefieldLocalization</text>
<text text-anchor="middle" x="315" y="-151" font-family="Helvetica,sans-Serif" font-size="10.00">Tasks::AnalyzeDistortionTask</text>
</a>
</g>
</g>
<!-- Node1&#45;&gt;Node2 -->
<g id="edge1_Node000001_Node000002" class="edge">
<title>Node1&#45;&gt;Node2</title>
<g id="a_edge1_Node000001_Node000002"><a xlink:title=" ">
<path fill="none" stroke="#8b1a1a" d="M140.76,-105.86C164.83,-115.23 194.76,-126.36 222,-135 231.76,-138.09 242.18,-141.09 252.38,-143.87"/>
<polygon fill="#8b1a1a" stroke="#8b1a1a" points="141.76,-102.5 131.17,-102.1 139.2,-109.01 141.76,-102.5"/>
</a>
</g>
</g>
<!-- Node3 -->
<g id="Node000003" class="node">
<title>Node3</title>
<g id="a_Node000003"><a xlink:href="classDynExpInstr_1_1WidefieldLocalizationTasks_1_1AnalyzeWidefieldTask.html" target="_top" xlink:title=" ">
<polygon fill="white" stroke="#666666" points="408,-126 222,-126 222,-96 408,-96 408,-126"/>
<text text-anchor="start" x="230" y="-114" font-family="Helvetica,sans-Serif" font-size="10.00">DynExpInstr::WidefieldLocalization</text>
<text text-anchor="middle" x="315" y="-103" font-family="Helvetica,sans-Serif" font-size="10.00">Tasks::AnalyzeWidefieldTask</text>
</a>
</g>
</g>
<!-- Node1&#45;&gt;Node3 -->
<g id="edge2_Node000001_Node000003" class="edge">
<title>Node1&#45;&gt;Node3</title>
<g id="a_edge2_Node000001_Node000003"><a xlink:title=" ">
<path fill="none" stroke="#8b1a1a" d="M196.11,-98.14C204.75,-99.08 213.44,-100.03 221.99,-100.96"/>
<polygon fill="#8b1a1a" stroke="#8b1a1a" points="196.35,-94.64 186.03,-97.04 195.59,-101.6 196.35,-94.64"/>
</a>
</g>
</g>
<!-- Node4 -->
<g id="Node000004" class="node">
<title>Node4</title>
<g id="a_Node000004"><a xlink:href="classDynExpInstr_1_1WidefieldLocalizationTasks_1_1ReadCellIDTask.html" target="_top" xlink:title=" ">
<polygon fill="white" stroke="#666666" points="408,-78 222,-78 222,-48 408,-48 408,-78"/>
<text text-anchor="start" x="230" y="-66" font-family="Helvetica,sans-Serif" font-size="10.00">DynExpInstr::WidefieldLocalization</text>
<text text-anchor="middle" x="315" y="-55" font-family="Helvetica,sans-Serif" font-size="10.00">Tasks::ReadCellIDTask</text>
</a>
</g>
</g>
<!-- Node1&#45;&gt;Node4 -->
<g id="edge3_Node000001_Node000004" class="edge">
<title>Node1&#45;&gt;Node4</title>
<g id="a_edge3_Node000001_Node000004"><a xlink:title=" ">
<path fill="none" stroke="#8b1a1a" d="M196.11,-75.86C204.75,-74.92 213.44,-73.97 221.99,-73.04"/>
<polygon fill="#8b1a1a" stroke="#8b1a1a" points="195.59,-72.4 186.03,-76.96 196.35,-79.36 195.59,-72.4"/>
</a>
</g>
</g>
<!-- Node5 -->
<g id="Node000005" class="node">
<title>Node5</title>
<g id="a_Node000005"><a xlink:href="classDynExpInstr_1_1WidefieldLocalizationTasks_1_1RecallPositionsTask.html" target="_top" xlink:title=" ">
<polygon fill="white" stroke="#666666" points="408,-30 222,-30 222,0 408,0 408,-30"/>
<text text-anchor="start" x="230" y="-18" font-family="Helvetica,sans-Serif" font-size="10.00">DynExpInstr::WidefieldLocalization</text>
<text text-anchor="middle" x="315" y="-7" font-family="Helvetica,sans-Serif" font-size="10.00">Tasks::RecallPositionsTask</text>
</a>
</g>
</g>
<!-- Node1&#45;&gt;Node5 -->
<g id="edge4_Node000001_Node000005" class="edge">
<title>Node1&#45;&gt;Node5</title>
<g id="a_edge4_Node000001_Node000005"><a xlink:title=" ">
<path fill="none" stroke="#8b1a1a" d="M140.76,-68.14C164.83,-58.77 194.76,-47.64 222,-39 231.76,-35.91 242.18,-32.91 252.38,-30.13"/>
<polygon fill="#8b1a1a" stroke="#8b1a1a" points="139.2,-64.99 131.17,-71.9 141.76,-71.5 139.2,-64.99"/>
</a>
</g>
</g>
</g>
</svg>
