<?xml version="1.0" encoding="UTF-8" standalone="no"?>
<!DOCTYPE svg PUBLIC "-//W3C//DTD SVG 1.1//EN"
 "http://www.w3.org/Graphics/SVG/1.1/DTD/svg11.dtd">
<!-- Generated by graphviz version 2.43.0 (0)
 -->
<!-- Title: DynExpInstr::Camera Pages: 1 -->
<svg width="302pt" height="252pt"
 viewBox="0.00 0.00 302.00 252.00" xmlns="http://www.w3.org/2000/svg" xmlns:xlink="http://www.w3.org/1999/xlink">
<g id="graph0" class="graph" transform="scale(1 1) rotate(0) translate(4 248)">
<title>DynExpInstr::Camera</title>
<polygon fill="white" stroke="transparent" points="-4,4 -4,-248 298,-248 298,4 -4,4"/>
<!-- Node1 -->
<g id="node1" class="node">
<title>Node1</title>
<g id="a_node1"><a xlink:title="Meta instrument for an image capturing (camera) device.">
<polygon fill="#bfbfbf" stroke="black" points="97.5,-56.5 97.5,-75.5 217.5,-75.5 217.5,-56.5 97.5,-56.5"/>
<text text-anchor="middle" x="157.5" y="-63.5" font-family="Helvetica,sans-Serif" font-size="10.00">DynExpInstr::Camera</text>
</a>
</g>
</g>
<!-- Node6 -->
<g id="node6" class="node">
<title>Node6</title>
<g id="a_node6"><a xlink:href="classDynExpInstr_1_1DummyCamera.html" target="_top" xlink:title=" ">
<polygon fill="white" stroke="black" points="0,-0.5 0,-19.5 159,-19.5 159,-0.5 0,-0.5"/>
<text text-anchor="middle" x="79.5" y="-7.5" font-family="Helvetica,sans-Serif" font-size="10.00">DynExpInstr::DummyCamera</text>
</a>
</g>
</g>
<!-- Node1&#45;&gt;Node6 -->
<g id="edge5" class="edge">
<title>Node1&#45;&gt;Node6</title>
<path fill="none" stroke="midnightblue" d="M136.73,-50.62C122.48,-40.76 104.04,-27.99 92,-19.65"/>
<polygon fill="midnightblue" stroke="midnightblue" points="134.75,-53.51 144.97,-56.32 138.74,-47.75 134.75,-53.51"/>
</g>
<!-- Node7 -->
<g id="node7" class="node">
<title>Node7</title>
<g id="a_node7"><a xlink:href="classDynExpInstr_1_1PVCam.html" target="_top" xlink:title=" ">
<polygon fill="white" stroke="black" points="177,-0.5 177,-19.5 294,-19.5 294,-0.5 177,-0.5"/>
<text text-anchor="middle" x="235.5" y="-7.5" font-family="Helvetica,sans-Serif" font-size="10.00">DynExpInstr::PVCam</text>
</a>
</g>
</g>
<!-- Node1&#45;&gt;Node7 -->
<g id="edge6" class="edge">
<title>Node1&#45;&gt;Node7</title>
<path fill="none" stroke="midnightblue" d="M178.27,-50.62C192.52,-40.76 210.96,-27.99 223,-19.65"/>
<polygon fill="midnightblue" stroke="midnightblue" points="176.26,-47.75 170.03,-56.32 180.25,-53.51 176.26,-47.75"/>
</g>
<!-- Node2 -->
<g id="node2" class="node">
<title>Node2</title>
<g id="a_node2"><a xlink:href="classDynExp_1_1InstrumentBase.html" target="_top" xlink:title="Base class for instruments. Instruments comprise virtual devices (meta instruments) and physial devic...">
<polygon fill="white" stroke="black" points="89,-112.5 89,-131.5 226,-131.5 226,-112.5 89,-112.5"/>
<text text-anchor="middle" x="157.5" y="-119.5" font-family="Helvetica,sans-Serif" font-size="10.00">DynExp::InstrumentBase</text>
</a>
</g>
</g>
<!-- Node2&#45;&gt;Node1 -->
<g id="edge1" class="edge">
<title>Node2&#45;&gt;Node1</title>
<path fill="none" stroke="midnightblue" d="M157.5,-101.8C157.5,-92.91 157.5,-82.78 157.5,-75.75"/>
<polygon fill="midnightblue" stroke="midnightblue" points="154,-102.08 157.5,-112.08 161,-102.08 154,-102.08"/>
</g>
<!-- Node3 -->
<g id="node3" class="node">
<title>Node3</title>
<g id="a_node3"><a xlink:href="classDynExp_1_1RunnableObject.html" target="_top" xlink:title="Defines an Object which possesses a thread it runs in. The RunnableObject can be started and stopped ...">
<polygon fill="white" stroke="black" points="89,-168.5 89,-187.5 226,-187.5 226,-168.5 89,-168.5"/>
<text text-anchor="middle" x="157.5" y="-175.5" font-family="Helvetica,sans-Serif" font-size="10.00">DynExp::RunnableObject</text>
</a>
</g>
</g>
<!-- Node3&#45;&gt;Node2 -->
<g id="edge2" class="edge">
<title>Node3&#45;&gt;Node2</title>
<path fill="none" stroke="midnightblue" d="M157.5,-157.8C157.5,-148.91 157.5,-138.78 157.5,-131.75"/>
<polygon fill="midnightblue" stroke="midnightblue" points="154,-158.08 157.5,-168.08 161,-158.08 154,-158.08"/>
</g>
<!-- Node4 -->
<g id="node4" class="node">
<title>Node4</title>
<g id="a_node4"><a xlink:href="classUtil_1_1INonCopyable.html" target="_top" xlink:title="Interface to delete copy constructor and copy assignment operator and thus make derived classes non&#45;c...">
<polygon fill="white" stroke="black" points="44.5,-224.5 44.5,-243.5 152.5,-243.5 152.5,-224.5 44.5,-224.5"/>
<text text-anchor="middle" x="98.5" y="-231.5" font-family="Helvetica,sans-Serif" font-size="10.00">Util::INonCopyable</text>
</a>
</g>
</g>
<!-- Node4&#45;&gt;Node3 -->
<g id="edge3" class="edge">
<title>Node4&#45;&gt;Node3</title>
<path fill="none" stroke="midnightblue" d="M115.39,-217.54C125.91,-207.91 139.07,-195.87 147.85,-187.83"/>
<polygon fill="midnightblue" stroke="midnightblue" points="112.99,-214.99 107.98,-224.32 117.72,-220.15 112.99,-214.99"/>
</g>
<!-- Node5 -->
<g id="node5" class="node">
<title>Node5</title>
<g id="a_node5"><a xlink:href="classDynExp_1_1Object.html" target="_top" xlink:title="Base class for all DynExp Objects like hardware adapters (DynExp::HardwareAdapterBase),...">
<polygon fill="white" stroke="black" points="170.5,-224.5 170.5,-243.5 262.5,-243.5 262.5,-224.5 170.5,-224.5"/>
<text text-anchor="middle" x="216.5" y="-231.5" font-family="Helvetica,sans-Serif" font-size="10.00">DynExp::Object</text>
</a>
</g>
</g>
<!-- Node5&#45;&gt;Node3 -->
<g id="edge4" class="edge">
<title>Node5&#45;&gt;Node3</title>
<path fill="none" stroke="midnightblue" d="M199.61,-217.54C189.09,-207.91 175.93,-195.87 167.15,-187.83"/>
<polygon fill="midnightblue" stroke="midnightblue" points="197.28,-220.15 207.02,-224.32 202.01,-214.99 197.28,-220.15"/>
</g>
</g>
</svg>
