<?xml version="1.0" encoding="UTF-8" standalone="no"?>
<!DOCTYPE svg PUBLIC "-//W3C//DTD SVG 1.1//EN"
 "http://www.w3.org/Graphics/SVG/1.1/DTD/svg11.dtd">
<!-- Generated by graphviz version 2.43.0 (0)
 -->
<!-- Title: DynExpInstr::FunctionGeneratorConfigurator Pages: 1 -->
<svg width="1711pt" height="203pt"
 viewBox="0.00 0.00 1711.00 203.00" xmlns="http://www.w3.org/2000/svg" xmlns:xlink="http://www.w3.org/1999/xlink">
<g id="graph0" class="graph" transform="scale(1 1) rotate(0) translate(4 199)">
<title>DynExpInstr::FunctionGeneratorConfigurator</title>
<polygon fill="white" stroke="transparent" points="-4,4 -4,-199 1707,-199 1707,4 -4,4"/>
<!-- Node1 -->
<g id="node1" class="node">
<title>Node1</title>
<g id="a_node1"><a xlink:title="Configurator class for FunctionGenerator.">
<polygon fill="#bfbfbf" stroke="black" points="876,-82.5 876,-112.5 1048,-112.5 1048,-82.5 876,-82.5"/>
<text text-anchor="start" x="884" y="-100.5" font-family="Helvetica,sans-Serif" font-size="10.00">DynExpInstr::FunctionGenerator</text>
<text text-anchor="middle" x="962" y="-89.5" font-family="Helvetica,sans-Serif" font-size="10.00">Configurator</text>
</a>
</g>
</g>
<!-- Node6 -->
<g id="node6" class="node">
<title>Node6</title>
<g id="a_node6"><a xlink:href="classDynExpInstr_1_1DummyDataStreamInstrumentConfigurator.html" target="_top" xlink:title=" ">
<polygon fill="white" stroke="black" points="1097.5,-164.5 1097.5,-194.5 1276.5,-194.5 1276.5,-164.5 1097.5,-164.5"/>
<text text-anchor="start" x="1105.5" y="-182.5" font-family="Helvetica,sans-Serif" font-size="10.00">DynExpInstr::DummyDataStream</text>
<text text-anchor="middle" x="1187" y="-171.5" font-family="Helvetica,sans-Serif" font-size="10.00">InstrumentConfigurator</text>
</a>
</g>
</g>
<!-- Node1&#45;&gt;Node6 -->
<g id="edge5" class="edge">
<title>Node1&#45;&gt;Node6</title>
<path fill="none" stroke="midnightblue" d="M1000.1,-117.35C1023.64,-129.34 1055.01,-144.24 1084,-154.5 1094.4,-158.18 1105.58,-161.52 1116.59,-164.47"/>
<polygon fill="midnightblue" stroke="midnightblue" points="1001.66,-114.21 991.17,-112.75 998.45,-120.44 1001.66,-114.21"/>
</g>
<!-- Node7 -->
<g id="node7" class="node">
<title>Node7</title>
<g id="a_node7"><a xlink:href="classDynExpInstr_1_1OutputPortConfigurator.html" target="_top" xlink:title="Configurator class for OutputPort.">
<polygon fill="white" stroke="black" points="1090,-126 1090,-145 1284,-145 1284,-126 1090,-126"/>
<text text-anchor="middle" x="1187" y="-133" font-family="Helvetica,sans-Serif" font-size="10.00">DynExpInstr::OutputPortConfigurator</text>
</a>
</g>
</g>
<!-- Node1&#45;&gt;Node7 -->
<g id="edge6" class="edge">
<title>Node1&#45;&gt;Node7</title>
<path fill="none" stroke="midnightblue" d="M1058.31,-113.74C1082.79,-117.91 1108.34,-122.27 1130.1,-125.97"/>
<polygon fill="midnightblue" stroke="midnightblue" points="1058.71,-110.26 1048.26,-112.03 1057.53,-117.16 1058.71,-110.26"/>
</g>
<!-- Node12 -->
<g id="node12" class="node">
<title>Node12</title>
<g id="a_node12"><a xlink:href="classDynExpInstr_1_1RS__SMB100BConfigurator.html" target="_top" xlink:title=" ">
<polygon fill="white" stroke="black" points="1084,-88 1084,-107 1290,-107 1290,-88 1084,-88"/>
<text text-anchor="middle" x="1187" y="-95" font-family="Helvetica,sans-Serif" font-size="10.00">DynExpInstr::RS_SMB100BConfigurator</text>
</a>
</g>
</g>
<!-- Node1&#45;&gt;Node12 -->
<g id="edge11" class="edge">
<title>Node1&#45;&gt;Node12</title>
<path fill="none" stroke="midnightblue" d="M1058.48,-97.5C1066.92,-97.5 1075.48,-97.5 1083.97,-97.5"/>
<polygon fill="midnightblue" stroke="midnightblue" points="1058.26,-94 1048.26,-97.5 1058.26,-101 1058.26,-94"/>
</g>
<!-- Node13 -->
<g id="node13" class="node">
<title>Node13</title>
<g id="a_node13"><a xlink:href="classDynExpInstr_1_1RS__SMC100AConfigurator.html" target="_top" xlink:title=" ">
<polygon fill="white" stroke="black" points="1084,-50 1084,-69 1290,-69 1290,-50 1084,-50"/>
<text text-anchor="middle" x="1187" y="-57" font-family="Helvetica,sans-Serif" font-size="10.00">DynExpInstr::RS_SMC100AConfigurator</text>
</a>
</g>
</g>
<!-- Node1&#45;&gt;Node13 -->
<g id="edge12" class="edge">
<title>Node1&#45;&gt;Node13</title>
<path fill="none" stroke="midnightblue" d="M1058.31,-81.26C1082.79,-77.09 1108.34,-72.73 1130.1,-69.03"/>
<polygon fill="midnightblue" stroke="midnightblue" points="1057.53,-77.84 1048.26,-82.97 1058.71,-84.74 1057.53,-77.84"/>
</g>
<!-- Node14 -->
<g id="node14" class="node">
<title>Node14</title>
<g id="a_node14"><a xlink:href="classDynExpInstr_1_1SwabianInstrumentsPulseStreamerConfigurator.html" target="_top" xlink:title=" ">
<polygon fill="white" stroke="black" points="1096,-0.5 1096,-30.5 1278,-30.5 1278,-0.5 1096,-0.5"/>
<text text-anchor="start" x="1104" y="-18.5" font-family="Helvetica,sans-Serif" font-size="10.00">DynExpInstr::SwabianInstruments</text>
<text text-anchor="middle" x="1187" y="-7.5" font-family="Helvetica,sans-Serif" font-size="10.00">PulseStreamerConfigurator</text>
</a>
</g>
</g>
<!-- Node1&#45;&gt;Node14 -->
<g id="edge13" class="edge">
<title>Node1&#45;&gt;Node14</title>
<path fill="none" stroke="midnightblue" d="M1000.1,-77.65C1023.64,-65.66 1055.01,-50.76 1084,-40.5 1094.4,-36.82 1105.58,-33.48 1116.59,-30.53"/>
<polygon fill="midnightblue" stroke="midnightblue" points="998.45,-74.56 991.17,-82.25 1001.66,-80.79 998.45,-74.56"/>
</g>
<!-- Node2 -->
<g id="node2" class="node">
<title>Node2</title>
<g id="a_node2"><a xlink:href="classDynExpInstr_1_1DataStreamInstrumentConfigurator.html" target="_top" xlink:title="Configurator class for DataStreamInstrument.">
<polygon fill="white" stroke="black" points="646,-82.5 646,-112.5 840,-112.5 840,-82.5 646,-82.5"/>
<text text-anchor="start" x="654" y="-100.5" font-family="Helvetica,sans-Serif" font-size="10.00">DynExpInstr::DataStreamInstrument</text>
<text text-anchor="middle" x="743" y="-89.5" font-family="Helvetica,sans-Serif" font-size="10.00">Configurator</text>
</a>
</g>
</g>
<!-- Node2&#45;&gt;Node1 -->
<g id="edge1" class="edge">
<title>Node2&#45;&gt;Node1</title>
<path fill="none" stroke="midnightblue" d="M850.21,-97.5C858.81,-97.5 867.43,-97.5 875.86,-97.5"/>
<polygon fill="midnightblue" stroke="midnightblue" points="850.13,-94 840.13,-97.5 850.13,-101 850.13,-94"/>
</g>
<!-- Node3 -->
<g id="node3" class="node">
<title>Node3</title>
<g id="a_node3"><a xlink:href="classDynExp_1_1InstrumentConfiguratorBase.html" target="_top" xlink:title="Configurator class for InstrumentBase.">
<polygon fill="white" stroke="black" points="413,-88 413,-107 610,-107 610,-88 413,-88"/>
<text text-anchor="middle" x="511.5" y="-95" font-family="Helvetica,sans-Serif" font-size="10.00">DynExp::InstrumentConfiguratorBase</text>
</a>
</g>
</g>
<!-- Node3&#45;&gt;Node2 -->
<g id="edge2" class="edge">
<title>Node3&#45;&gt;Node2</title>
<path fill="none" stroke="midnightblue" d="M620.19,-97.5C628.77,-97.5 637.4,-97.5 645.89,-97.5"/>
<polygon fill="midnightblue" stroke="midnightblue" points="620.16,-94 610.16,-97.5 620.16,-101 620.16,-94"/>
</g>
<!-- Node4 -->
<g id="node4" class="node">
<title>Node4</title>
<g id="a_node4"><a xlink:href="classDynExp_1_1RunnableObjectConfigurator.html" target="_top" xlink:title="Configurator class for RunnableObject.">
<polygon fill="white" stroke="black" points="180,-88 180,-107 377,-107 377,-88 180,-88"/>
<text text-anchor="middle" x="278.5" y="-95" font-family="Helvetica,sans-Serif" font-size="10.00">DynExp::RunnableObjectConfigurator</text>
</a>
</g>
</g>
<!-- Node4&#45;&gt;Node3 -->
<g id="edge3" class="edge">
<title>Node4&#45;&gt;Node3</title>
<path fill="none" stroke="midnightblue" d="M387.15,-97.5C395.72,-97.5 404.35,-97.5 412.85,-97.5"/>
<polygon fill="midnightblue" stroke="midnightblue" points="387.13,-94 377.13,-97.5 387.13,-101 387.13,-94"/>
</g>
<!-- Node5 -->
<g id="node5" class="node">
<title>Node5</title>
<g id="a_node5"><a xlink:href="classDynExp_1_1ConfiguratorBase.html" target="_top" xlink:title="The configurator classes have the task to generate parameter objects (refer to DynExp::ParamsBase) of...">
<polygon fill="white" stroke="black" points="0,-88 0,-107 144,-107 144,-88 0,-88"/>
<text text-anchor="middle" x="72" y="-95" font-family="Helvetica,sans-Serif" font-size="10.00">DynExp::ConfiguratorBase</text>
</a>
</g>
</g>
<!-- Node5&#45;&gt;Node4 -->
<g id="edge4" class="edge">
<title>Node5&#45;&gt;Node4</title>
<path fill="none" stroke="midnightblue" d="M154.36,-97.5C162.76,-97.5 171.35,-97.5 179.89,-97.5"/>
<polygon fill="midnightblue" stroke="midnightblue" points="154.24,-94 144.24,-97.5 154.24,-101 154.24,-94"/>
</g>
<!-- Node8 -->
<g id="node8" class="node">
<title>Node8</title>
<g id="a_node8"><a xlink:href="classDynExpInstr_1_1AnalogOutConfigurator.html" target="_top" xlink:title="Configurator class for AnalogOut.">
<polygon fill="white" stroke="black" points="1326,-146 1326,-165 1519,-165 1519,-146 1326,-146"/>
<text text-anchor="middle" x="1422.5" y="-153" font-family="Helvetica,sans-Serif" font-size="10.00">DynExpInstr::AnalogOutConfigurator</text>
</a>
</g>
</g>
<!-- Node7&#45;&gt;Node8 -->
<g id="edge7" class="edge">
<title>Node7&#45;&gt;Node8</title>
<path fill="none" stroke="midnightblue" d="M1294.33,-144.61C1304.81,-145.51 1315.41,-146.41 1325.78,-147.3"/>
<polygon fill="midnightblue" stroke="midnightblue" points="1294.58,-141.12 1284.32,-143.75 1293.99,-148.09 1294.58,-141.12"/>
</g>
<!-- Node10 -->
<g id="node10" class="node">
<title>Node10</title>
<g id="a_node10"><a xlink:href="classDynExpInstr_1_1DigitalOutConfigurator.html" target="_top" xlink:title="Configurator class for DigitalOut.">
<polygon fill="white" stroke="black" points="1327,-105 1327,-124 1518,-124 1518,-105 1327,-105"/>
<text text-anchor="middle" x="1422.5" y="-112" font-family="Helvetica,sans-Serif" font-size="10.00">DynExpInstr::DigitalOutConfigurator</text>
</a>
</g>
</g>
<!-- Node7&#45;&gt;Node10 -->
<g id="edge9" class="edge">
<title>Node7&#45;&gt;Node10</title>
<path fill="none" stroke="midnightblue" d="M1294.6,-125.91C1305.38,-124.94 1316.27,-123.96 1326.91,-123.01"/>
<polygon fill="midnightblue" stroke="midnightblue" points="1293.97,-122.46 1284.32,-126.84 1294.59,-129.43 1293.97,-122.46"/>
</g>
<!-- Node9 -->
<g id="node9" class="node">
<title>Node9</title>
<g id="a_node9"><a xlink:href="classDynExpInstr_1_1NIDAQAnalogOutConfigurator.html" target="_top" xlink:title=" ">
<polygon fill="white" stroke="black" points="1555,-143.5 1555,-173.5 1703,-173.5 1703,-143.5 1555,-143.5"/>
<text text-anchor="start" x="1563" y="-161.5" font-family="Helvetica,sans-Serif" font-size="10.00">DynExpInstr::NIDAQAnalog</text>
<text text-anchor="middle" x="1629" y="-150.5" font-family="Helvetica,sans-Serif" font-size="10.00">OutConfigurator</text>
</a>
</g>
</g>
<!-- Node8&#45;&gt;Node9 -->
<g id="edge8" class="edge">
<title>Node8&#45;&gt;Node9</title>
<path fill="none" stroke="midnightblue" d="M1529.26,-157.05C1537.87,-157.18 1546.44,-157.3 1554.73,-157.43"/>
<polygon fill="midnightblue" stroke="midnightblue" points="1529.21,-153.55 1519.16,-156.9 1529.11,-160.55 1529.21,-153.55"/>
</g>
<!-- Node11 -->
<g id="node11" class="node">
<title>Node11</title>
<g id="a_node11"><a xlink:href="classDynExpInstr_1_1NIDAQDigitalOutConfigurator.html" target="_top" xlink:title=" ">
<polygon fill="white" stroke="black" points="1556,-94.5 1556,-124.5 1702,-124.5 1702,-94.5 1556,-94.5"/>
<text text-anchor="start" x="1564" y="-112.5" font-family="Helvetica,sans-Serif" font-size="10.00">DynExpInstr::NIDAQDigital</text>
<text text-anchor="middle" x="1629" y="-101.5" font-family="Helvetica,sans-Serif" font-size="10.00">OutConfigurator</text>
</a>
</g>
</g>
<!-- Node10&#45;&gt;Node11 -->
<g id="edge10" class="edge">
<title>Node10&#45;&gt;Node11</title>
<path fill="none" stroke="midnightblue" d="M1528.36,-111.94C1537.66,-111.71 1546.94,-111.48 1555.87,-111.26"/>
<polygon fill="midnightblue" stroke="midnightblue" points="1528.18,-108.44 1518.27,-112.18 1528.35,-115.44 1528.18,-108.44"/>
</g>
</g>
</svg>
