<?xml version="1.0" encoding="UTF-8" standalone="no"?>
<!DOCTYPE svg PUBLIC "-//W3C//DTD SVG 1.1//EN"
 "http://www.w3.org/Graphics/SVG/1.1/DTD/svg11.dtd">
<!-- Generated by graphviz version 2.43.0 (0)
 -->
<!-- Title: DynExpInstr::gRPCInstrumentTasks::InitTask&lt; BaseInstr,, gRPCStubs &gt; Pages: 1 -->
<svg width="715pt" height="290pt"
 viewBox="0.00 0.00 715.00 290.00" xmlns="http://www.w3.org/2000/svg" xmlns:xlink="http://www.w3.org/1999/xlink">
<g id="graph0" class="graph" transform="scale(1 1) rotate(0) translate(4 286)">
<title>DynExpInstr::gRPCInstrumentTasks::InitTask&lt; BaseInstr,, gRPCStubs &gt;</title>
<polygon fill="white" stroke="transparent" points="-4,4 -4,-286 711,-286 711,4 -4,4"/>
<!-- Node1 -->
<g id="node1" class="node">
<title>Node1</title>
<g id="a_node1"><a xlink:title="Defines a task for initializing an instrument within an instrument inheritance hierarchy....">
<polygon fill="#bfbfbf" stroke="black" points="164,-84.5 164,-125.5 325,-125.5 325,-84.5 164,-84.5"/>
<text text-anchor="start" x="172" y="-113.5" font-family="Helvetica,sans-Serif" font-size="10.00">DynExpInstr::gRPCInstrument</text>
<text text-anchor="start" x="172" y="-102.5" font-family="Helvetica,sans-Serif" font-size="10.00">Tasks::InitTask&lt; BaseInstr,</text>
<text text-anchor="middle" x="244.5" y="-91.5" font-family="Helvetica,sans-Serif" font-size="10.00">, gRPCStubs &gt;</text>
</a>
</g>
</g>
<!-- Node3 -->
<g id="node3" class="node">
<title>Node3</title>
<g id="a_node3"><a xlink:href="classDynExpInstr_1_1NetworkDataStreamInstrumentTasks_1_1InitTask.html" target="_top" xlink:title=" ">
<polygon fill="white" stroke="black" points="361,-115 361,-167 507,-167 507,-115 361,-115"/>
<text text-anchor="start" x="369" y="-155" font-family="Helvetica,sans-Serif" font-size="10.00">DynExpInstr::NetworkData</text>
<text text-anchor="start" x="369" y="-144" font-family="Helvetica,sans-Serif" font-size="10.00">StreamInstrumentTasks</text>
<text text-anchor="start" x="369" y="-133" font-family="Helvetica,sans-Serif" font-size="10.00">::InitTask&lt; BaseInstr,</text>
<text text-anchor="middle" x="434" y="-122" font-family="Helvetica,sans-Serif" font-size="10.00"> 0, gRPCStubs... &gt;</text>
</a>
</g>
</g>
<!-- Node1&#45;&gt;Node3 -->
<g id="edge2" class="edge">
<title>Node1&#45;&gt;Node3</title>
<path fill="none" stroke="midnightblue" d="M335.1,-122.2C343.71,-123.86 352.38,-125.52 360.8,-127.14"/>
<polygon fill="midnightblue" stroke="midnightblue" points="335.5,-118.72 325.02,-120.27 334.18,-125.59 335.5,-118.72"/>
</g>
<!-- Node9 -->
<g id="node9" class="node">
<title>Node9</title>
<g id="a_node9"><a xlink:href="classDynExpInstr_1_1NetworkDataStreamInstrumentTasks_1_1InitTask.html" target="_top" xlink:title=" ">
<polygon fill="white" stroke="black" points="361,-44 361,-96 507,-96 507,-44 361,-44"/>
<text text-anchor="start" x="369" y="-84" font-family="Helvetica,sans-Serif" font-size="10.00">DynExpInstr::NetworkData</text>
<text text-anchor="start" x="369" y="-73" font-family="Helvetica,sans-Serif" font-size="10.00">StreamInstrumentTasks</text>
<text text-anchor="start" x="369" y="-62" font-family="Helvetica,sans-Serif" font-size="10.00">::InitTask&lt; BaseInstr,,</text>
<text text-anchor="middle" x="434" y="-51" font-family="Helvetica,sans-Serif" font-size="10.00"> gRPCStubs &gt;</text>
</a>
</g>
</g>
<!-- Node1&#45;&gt;Node9 -->
<g id="edge8" class="edge">
<title>Node1&#45;&gt;Node9</title>
<path fill="none" stroke="midnightblue" d="M335.1,-88.28C343.71,-86.67 352.38,-85.05 360.8,-83.48"/>
<polygon fill="midnightblue" stroke="midnightblue" points="334.2,-84.88 325.02,-90.16 335.49,-91.76 334.2,-84.88"/>
</g>
<!-- Node2 -->
<g id="node2" class="node">
<title>Node2</title>
<g id="a_node2"><a xlink:title=" ">
<polygon fill="white" stroke="#bfbfbf" points="0,-95.5 0,-114.5 128,-114.5 128,-95.5 0,-95.5"/>
<text text-anchor="middle" x="64" y="-102.5" font-family="Helvetica,sans-Serif" font-size="10.00">BaseInstr::InitTaskType</text>
</a>
</g>
</g>
<!-- Node2&#45;&gt;Node1 -->
<g id="edge1" class="edge">
<title>Node2&#45;&gt;Node1</title>
<path fill="none" stroke="midnightblue" d="M138.32,-105C146.73,-105 155.34,-105 163.83,-105"/>
<polygon fill="midnightblue" stroke="midnightblue" points="138.18,-101.5 128.18,-105 138.18,-108.5 138.18,-101.5"/>
</g>
<!-- Node4 -->
<g id="node4" class="node">
<title>Node4</title>
<g id="a_node4"><a xlink:href="classDynExpInstr_1_1NetworkAnalogInTasks_1_1InitTask.html" target="_top" xlink:title=" ">
<polygon fill="white" stroke="black" points="546.5,-240.5 546.5,-281.5 703.5,-281.5 703.5,-240.5 546.5,-240.5"/>
<text text-anchor="start" x="554.5" y="-269.5" font-family="Helvetica,sans-Serif" font-size="10.00">DynExpInstr::NetworkAnalog</text>
<text text-anchor="start" x="554.5" y="-258.5" font-family="Helvetica,sans-Serif" font-size="10.00">InTasks::InitTask&lt; BaseInstr,</text>
<text text-anchor="middle" x="625" y="-247.5" font-family="Helvetica,sans-Serif" font-size="10.00">, gRPCStubs &gt;</text>
</a>
</g>
</g>
<!-- Node3&#45;&gt;Node4 -->
<g id="edge3" class="edge">
<title>Node3&#45;&gt;Node4</title>
<path fill="none" stroke="midnightblue" d="M468.45,-174.01C488.72,-192.65 515.84,-215.28 543,-231 548.84,-234.38 555.13,-237.5 561.53,-240.34"/>
<polygon fill="midnightblue" stroke="midnightblue" points="470.73,-171.35 461.03,-167.09 465.95,-176.47 470.73,-171.35"/>
</g>
<!-- Node5 -->
<g id="node5" class="node">
<title>Node5</title>
<g id="a_node5"><a xlink:href="classDynExpInstr_1_1NetworkAnalogOutTasks_1_1InitTask.html" target="_top" xlink:title=" ">
<polygon fill="white" stroke="black" points="543,-180.5 543,-221.5 707,-221.5 707,-180.5 543,-180.5"/>
<text text-anchor="start" x="551" y="-209.5" font-family="Helvetica,sans-Serif" font-size="10.00">DynExpInstr::NetworkAnalog</text>
<text text-anchor="start" x="551" y="-198.5" font-family="Helvetica,sans-Serif" font-size="10.00">OutTasks::InitTask&lt; BaseInstr,</text>
<text text-anchor="middle" x="625" y="-187.5" font-family="Helvetica,sans-Serif" font-size="10.00">, gRPCStubs &gt;</text>
</a>
</g>
</g>
<!-- Node3&#45;&gt;Node5 -->
<g id="edge4" class="edge">
<title>Node3&#45;&gt;Node5</title>
<path fill="none" stroke="midnightblue" d="M516.97,-167.02C531.1,-171.51 545.61,-176.11 559.21,-180.43"/>
<polygon fill="midnightblue" stroke="midnightblue" points="517.85,-163.63 507.26,-163.94 515.73,-170.3 517.85,-163.63"/>
</g>
<!-- Node6 -->
<g id="node6" class="node">
<title>Node6</title>
<g id="a_node6"><a xlink:href="classDynExpInstr_1_1NetworkDigitalInTasks_1_1InitTask.html" target="_top" xlink:title=" ">
<polygon fill="white" stroke="black" points="547,-120.5 547,-161.5 703,-161.5 703,-120.5 547,-120.5"/>
<text text-anchor="start" x="555" y="-149.5" font-family="Helvetica,sans-Serif" font-size="10.00">DynExpInstr::NetworkDigital</text>
<text text-anchor="start" x="555" y="-138.5" font-family="Helvetica,sans-Serif" font-size="10.00">InTasks::InitTask&lt; BaseInstr,</text>
<text text-anchor="middle" x="625" y="-127.5" font-family="Helvetica,sans-Serif" font-size="10.00">, gRPCStubs &gt;</text>
</a>
</g>
</g>
<!-- Node3&#45;&gt;Node6 -->
<g id="edge5" class="edge">
<title>Node3&#45;&gt;Node6</title>
<path fill="none" stroke="midnightblue" d="M517.36,-141C527.12,-141 537.06,-141 546.75,-141"/>
<polygon fill="midnightblue" stroke="midnightblue" points="517.26,-137.5 507.26,-141 517.26,-144.5 517.26,-137.5"/>
</g>
<!-- Node7 -->
<g id="node7" class="node">
<title>Node7</title>
<g id="a_node7"><a xlink:href="classDynExpInstr_1_1NetworkDigitalOutTasks_1_1InitTask.html" target="_top" xlink:title=" ">
<polygon fill="white" stroke="black" points="543,-60.5 543,-101.5 707,-101.5 707,-60.5 543,-60.5"/>
<text text-anchor="start" x="551" y="-89.5" font-family="Helvetica,sans-Serif" font-size="10.00">DynExpInstr::NetworkDigital</text>
<text text-anchor="start" x="551" y="-78.5" font-family="Helvetica,sans-Serif" font-size="10.00">OutTasks::InitTask&lt; BaseInstr,</text>
<text text-anchor="middle" x="625" y="-67.5" font-family="Helvetica,sans-Serif" font-size="10.00">, gRPCStubs &gt;</text>
</a>
</g>
</g>
<!-- Node3&#45;&gt;Node7 -->
<g id="edge6" class="edge">
<title>Node3&#45;&gt;Node7</title>
<path fill="none" stroke="midnightblue" d="M516.97,-114.98C531.1,-110.49 545.61,-105.89 559.21,-101.57"/>
<polygon fill="midnightblue" stroke="midnightblue" points="515.73,-111.7 507.26,-118.06 517.85,-118.37 515.73,-111.7"/>
</g>
<!-- Node8 -->
<g id="node8" class="node">
<title>Node8</title>
<g id="a_node8"><a xlink:href="classDynExpInstr_1_1NetworkTimeTaggerTasks_1_1InitTask.html" target="_top" xlink:title=" ">
<polygon fill="white" stroke="black" points="551,-0.5 551,-41.5 699,-41.5 699,-0.5 551,-0.5"/>
<text text-anchor="start" x="559" y="-29.5" font-family="Helvetica,sans-Serif" font-size="10.00">DynExpInstr::NetworkTime</text>
<text text-anchor="start" x="559" y="-18.5" font-family="Helvetica,sans-Serif" font-size="10.00">TaggerTasks::InitTask</text>
<text text-anchor="middle" x="625" y="-7.5" font-family="Helvetica,sans-Serif" font-size="10.00">&lt; BaseInstr,, gRPCStubs &gt;</text>
</a>
</g>
</g>
<!-- Node3&#45;&gt;Node8 -->
<g id="edge7" class="edge">
<title>Node3&#45;&gt;Node8</title>
<path fill="none" stroke="midnightblue" d="M502.36,-108.85C503.96,-107.6 505.51,-106.32 507,-105 528.62,-85.91 520.37,-68.88 543,-51 547.47,-47.47 552.4,-44.32 557.55,-41.53"/>
<polygon fill="midnightblue" stroke="midnightblue" points="500.15,-106.13 494.05,-114.79 504.22,-111.82 500.15,-106.13"/>
</g>
</g>
</svg>
