<?xml version="1.0" encoding="UTF-8" standalone="no"?>
<!DOCTYPE svg PUBLIC "-//W3C//DTD SVG 1.1//EN"
 "http://www.w3.org/Graphics/SVG/1.1/DTD/svg11.dtd">
<!-- Generated by graphviz version 2.43.0 (0)
 -->
<!-- Title: DynExp::HardwareAdapterConfiguratorBase Pages: 1 -->
<svg width="1099pt" height="386pt"
 viewBox="0.00 0.00 1099.00 385.50" xmlns="http://www.w3.org/2000/svg" xmlns:xlink="http://www.w3.org/1999/xlink">
<g id="graph0" class="graph" transform="scale(1 1) rotate(0) translate(4 381.5)">
<title>DynExp::HardwareAdapterConfiguratorBase</title>
<!-- Node1 -->
<g id="Node000001" class="node">
<title>Node1</title>
<g id="a_Node000001"><a xlink:title="Configurator class for HardwareAdapterBase.">
<polygon fill="#999999" stroke="#666666" points="410,-192.5 180,-192.5 180,-173.5 410,-173.5 410,-192.5"/>
<text text-anchor="middle" x="295" y="-180.5" font-family="Helvetica,sans-Serif" font-size="10.00">DynExp::HardwareAdapterConfiguratorBase</text>
</a>
</g>
</g>
<!-- Node3 -->
<g id="Node000003" class="node">
<title>Node3</title>
<g id="a_Node000003"><a xlink:href="classDynExpHardware_1_1gRPCHardwareAdapterConfigurator.html" target="_top" xlink:title=" ">
<polygon fill="white" stroke="#666666" points="642,-377.5 462,-377.5 462,-336.5 642,-336.5 642,-377.5"/>
<text text-anchor="start" x="470" y="-365.5" font-family="Helvetica,sans-Serif" font-size="10.00">DynExpHardware::gRPCHardware</text>
<text text-anchor="start" x="470" y="-354.5" font-family="Helvetica,sans-Serif" font-size="10.00">AdapterConfigurator&lt; pulse</text>
<text text-anchor="middle" x="552" y="-343.5" font-family="Helvetica,sans-Serif" font-size="10.00">_streamer::PulseStreamer &gt;</text>
</a>
</g>
</g>
<!-- Node1&#45;&gt;Node3 -->
<g id="edge2_Node000001_Node000003" class="edge">
<title>Node1&#45;&gt;Node3</title>
<g id="a_edge2_Node000001_Node000003"><a xlink:title=" ">
<path fill="none" stroke="#63b8ff" d="M309.52,-200.73C333.62,-231.11 387.03,-293.11 446,-327 452.16,-330.54 458.78,-333.69 465.57,-336.49"/>
<polygon fill="#63b8ff" stroke="#63b8ff" points="312.17,-198.44 303.26,-192.71 306.66,-202.75 312.17,-198.44"/>
</a>
</g>
</g>
<!-- Node5 -->
<g id="Node000005" class="node">
<title>Node5</title>
<g id="a_Node000005"><a xlink:href="classDynExp_1_1SerialCommunicationHardwareAdapterConfigurator.html" target="_top" xlink:title="Configurator class for SerialCommunicationHardwareAdapter.">
<polygon fill="white" stroke="#666666" points="634.5,-318 469.5,-318 469.5,-288 634.5,-288 634.5,-318"/>
<text text-anchor="start" x="477.5" y="-306" font-family="Helvetica,sans-Serif" font-size="10.00">DynExp::SerialCommunication</text>
<text text-anchor="middle" x="552" y="-295" font-family="Helvetica,sans-Serif" font-size="10.00">HardwareAdapterConfigurator</text>
</a>
</g>
</g>
<!-- Node1&#45;&gt;Node5 -->
<g id="edge4_Node000001_Node000005" class="edge">
<title>Node1&#45;&gt;Node5</title>
<g id="a_edge4_Node000001_Node000005"><a xlink:title=" ">
<path fill="none" stroke="#63b8ff" d="M316.11,-199.12C343.76,-220.49 395.83,-257.96 446,-279 454.11,-282.4 462.77,-285.36 471.52,-287.92"/>
<polygon fill="#63b8ff" stroke="#63b8ff" points="318.05,-196.19 308.02,-192.78 313.74,-201.7 318.05,-196.19"/>
</a>
</g>
</g>
<!-- Node9 -->
<g id="Node000009" class="node">
<title>Node9</title>
<g id="a_Node000009"><a xlink:href="classDynExpHardware_1_1NIDAQHardwareAdapterConfigurator.html" target="_top" xlink:title=" ">
<polygon fill="white" stroke="#666666" points="645.5,-270 458.5,-270 458.5,-240 645.5,-240 645.5,-270"/>
<text text-anchor="start" x="466.5" y="-258" font-family="Helvetica,sans-Serif" font-size="10.00">DynExpHardware::NIDAQHardware</text>
<text text-anchor="middle" x="552" y="-247" font-family="Helvetica,sans-Serif" font-size="10.00">AdapterConfigurator</text>
</a>
</g>
</g>
<!-- Node1&#45;&gt;Node9 -->
<g id="edge8_Node000001_Node000009" class="edge">
<title>Node1&#45;&gt;Node9</title>
<g id="a_edge8_Node000001_Node000009"><a xlink:title=" ">
<path fill="none" stroke="#63b8ff" d="M333.13,-195.85C363.32,-206.07 407.14,-220.36 446,-231 457.36,-234.11 469.49,-237.14 481.32,-239.95"/>
<polygon fill="#63b8ff" stroke="#63b8ff" points="334.03,-192.46 323.44,-192.55 331.78,-199.09 334.03,-192.46"/>
</a>
</g>
</g>
<!-- Node10 -->
<g id="Node000010" class="node">
<title>Node10</title>
<g id="a_Node000010"><a xlink:href="classDynExpHardware_1_1PVCamHardwareAdapterConfigurator.html" target="_top" xlink:title=" ">
<polygon fill="white" stroke="#666666" points="647,-222 457,-222 457,-192 647,-192 647,-222"/>
<text text-anchor="start" x="465" y="-210" font-family="Helvetica,sans-Serif" font-size="10.00">DynExpHardware::PVCamHardware</text>
<text text-anchor="middle" x="552" y="-199" font-family="Helvetica,sans-Serif" font-size="10.00">AdapterConfigurator</text>
</a>
</g>
</g>
<!-- Node1&#45;&gt;Node10 -->
<g id="edge9_Node000001_Node000010" class="edge">
<title>Node1&#45;&gt;Node10</title>
<g id="a_edge9_Node000001_Node000010"><a xlink:title=" ">
<path fill="none" stroke="#63b8ff" d="M407.33,-193.48C423.76,-195.02 440.56,-196.61 456.61,-198.12"/>
<polygon fill="#63b8ff" stroke="#63b8ff" points="407.43,-189.97 397.15,-192.52 406.78,-196.94 407.43,-189.97"/>
</a>
</g>
</g>
<!-- Node11 -->
<g id="Node000011" class="node">
<title>Node11</title>
<g id="a_Node000011"><a xlink:href="classDynExpHardware_1_1QutoolsTDCHardwareAdapterConfigurator.html" target="_top" xlink:title=" ">
<polygon fill="white" stroke="#666666" points="658,-174 446,-174 446,-144 658,-144 658,-174"/>
<text text-anchor="start" x="454" y="-162" font-family="Helvetica,sans-Serif" font-size="10.00">DynExpHardware::QutoolsTDCHardware</text>
<text text-anchor="middle" x="552" y="-151" font-family="Helvetica,sans-Serif" font-size="10.00">AdapterConfigurator</text>
</a>
</g>
</g>
<!-- Node1&#45;&gt;Node11 -->
<g id="edge10_Node000001_Node000011" class="edge">
<title>Node1&#45;&gt;Node11</title>
<g id="a_edge10_Node000001_Node000011"><a xlink:title=" ">
<path fill="none" stroke="#63b8ff" d="M407.34,-172.52C420.11,-171.32 433.1,-170.1 445.79,-168.9"/>
<polygon fill="#63b8ff" stroke="#63b8ff" points="406.78,-169.06 397.15,-173.48 407.43,-176.03 406.78,-169.06"/>
</a>
</g>
</g>
<!-- Node12 -->
<g id="Node000012" class="node">
<title>Node12</title>
<g id="a_Node000012"><a xlink:href="classDynExpHardware_1_1SmarActHardwareAdapterConfigurator.html" target="_top" xlink:title=" ">
<polygon fill="white" stroke="#666666" points="650,-126 454,-126 454,-96 650,-96 650,-126"/>
<text text-anchor="start" x="462" y="-114" font-family="Helvetica,sans-Serif" font-size="10.00">DynExpHardware::SmarActHardware</text>
<text text-anchor="middle" x="552" y="-103" font-family="Helvetica,sans-Serif" font-size="10.00">AdapterConfigurator</text>
</a>
</g>
</g>
<!-- Node1&#45;&gt;Node12 -->
<g id="edge11_Node000001_Node000012" class="edge">
<title>Node1&#45;&gt;Node12</title>
<g id="a_edge11_Node000001_Node000012"><a xlink:title=" ">
<path fill="none" stroke="#63b8ff" d="M333.13,-170.15C363.32,-159.93 407.14,-145.64 446,-135 457.36,-131.89 469.49,-128.86 481.32,-126.05"/>
<polygon fill="#63b8ff" stroke="#63b8ff" points="331.78,-166.91 323.44,-173.45 334.03,-173.54 331.78,-166.91"/>
</a>
</g>
</g>
<!-- Node13 -->
<g id="Node000013" class="node">
<title>Node13</title>
<g id="a_Node000013"><a xlink:href="classDynExpHardware_1_1ZILabOneHardwareAdapterConfigurator.html" target="_top" xlink:title=" ">
<polygon fill="white" stroke="#666666" points="633,-78 471,-78 471,-48 633,-48 633,-78"/>
<text text-anchor="start" x="479" y="-66" font-family="Helvetica,sans-Serif" font-size="10.00">DynExpHardware::ZILabOne</text>
<text text-anchor="middle" x="552" y="-55" font-family="Helvetica,sans-Serif" font-size="10.00">HardwareAdapterConfigurator</text>
</a>
</g>
</g>
<!-- Node1&#45;&gt;Node13 -->
<g id="edge12_Node000001_Node000013" class="edge">
<title>Node1&#45;&gt;Node13</title>
<g id="a_edge12_Node000001_Node000013"><a xlink:title=" ">
<path fill="none" stroke="#63b8ff" d="M316.11,-166.88C343.76,-145.51 395.83,-108.04 446,-87 454.11,-83.6 462.77,-80.64 471.52,-78.08"/>
<polygon fill="#63b8ff" stroke="#63b8ff" points="313.74,-164.3 308.02,-173.22 318.05,-169.81 313.74,-164.3"/>
</a>
</g>
</g>
<!-- Node14 -->
<g id="Node000014" class="node">
<title>Node14</title>
<g id="a_Node000014"><a xlink:href="classDynExpHardware_1_1gRPCHardwareAdapterConfigurator.html" target="_top" xlink:title="Configurator class for gRPCHardwareAdapter.">
<polygon fill="white" stroke="#666666" points="644.5,-30 459.5,-30 459.5,0 644.5,0 644.5,-30"/>
<text text-anchor="start" x="467.5" y="-18" font-family="Helvetica,sans-Serif" font-size="10.00">DynExpHardware::gRPCHardware</text>
<text text-anchor="middle" x="552" y="-7" font-family="Helvetica,sans-Serif" font-size="10.00">AdapterConfigurator&lt; gRPCStub &gt;</text>
</a>
</g>
</g>
<!-- Node1&#45;&gt;Node14 -->
<g id="edge13_Node000001_Node000014" class="edge">
<title>Node1&#45;&gt;Node14</title>
<g id="a_edge13_Node000001_Node000014"><a xlink:title=" ">
<path fill="none" stroke="#63b8ff" d="M308.99,-165.38C332.64,-134.66 385.86,-71.46 446,-39 452.42,-35.54 459.32,-32.57 466.4,-30.03"/>
<polygon fill="#63b8ff" stroke="#63b8ff" points="306.11,-163.38 302.87,-173.47 311.7,-167.61 306.11,-163.38"/>
</a>
</g>
</g>
<!-- Node2 -->
<g id="Node000002" class="node">
<title>Node2</title>
<g id="a_Node000002"><a xlink:href="classDynExp_1_1ConfiguratorBase.html" target="_top" xlink:title="The configurator classes have the task to generate parameter objects (refer to DynExp::ParamsBase) of...">
<polygon fill="white" stroke="#666666" points="144,-192.5 0,-192.5 0,-173.5 144,-173.5 144,-192.5"/>
<text text-anchor="middle" x="72" y="-180.5" font-family="Helvetica,sans-Serif" font-size="10.00">DynExp::ConfiguratorBase</text>
</a>
</g>
</g>
<!-- Node2&#45;&gt;Node1 -->
<g id="edge1_Node000001_Node000002" class="edge">
<title>Node2&#45;&gt;Node1</title>
<g id="a_edge1_Node000001_Node000002"><a xlink:title=" ">
<path fill="none" stroke="#63b8ff" d="M154.25,-183C162.65,-183 171.28,-183 179.95,-183"/>
<polygon fill="#63b8ff" stroke="#63b8ff" points="154.14,-179.5 144.14,-183 154.14,-186.5 154.14,-179.5"/>
</a>
</g>
</g>
<!-- Node4 -->
<g id="Node000004" class="node">
<title>Node4</title>
<g id="a_Node000004"><a xlink:href="classDynExpHardware_1_1SIPulseStreamerHardwareAdapterConfigurator.html" target="_top" xlink:title=" ">
<polygon fill="white" stroke="#666666" points="882,-372 694,-372 694,-342 882,-342 882,-372"/>
<text text-anchor="start" x="702" y="-360" font-family="Helvetica,sans-Serif" font-size="10.00">DynExpHardware::SIPulseStreamer</text>
<text text-anchor="middle" x="788" y="-349" font-family="Helvetica,sans-Serif" font-size="10.00">HardwareAdapterConfigurator</text>
</a>
</g>
</g>
<!-- Node3&#45;&gt;Node4 -->
<g id="edge3_Node000003_Node000004" class="edge">
<title>Node3&#45;&gt;Node4</title>
<g id="a_edge3_Node000003_Node000004"><a xlink:title=" ">
<path fill="none" stroke="#63b8ff" d="M652.53,-357C666.23,-357 680.26,-357 693.84,-357"/>
<polygon fill="#63b8ff" stroke="#63b8ff" points="652.13,-353.5 642.13,-357 652.13,-360.5 652.13,-353.5"/>
</a>
</g>
</g>
<!-- Node6 -->
<g id="Node000006" class="node">
<title>Node6</title>
<g id="a_Node000006"><a xlink:href="classDynExp_1_1QSerialCommunicationHardwareAdapterConfigurator.html" target="_top" xlink:title="Configurator class for QSerialCommunicationHardwareAdapter.">
<polygon fill="white" stroke="#666666" points="874.5,-318 701.5,-318 701.5,-288 874.5,-288 874.5,-318"/>
<text text-anchor="start" x="709.5" y="-306" font-family="Helvetica,sans-Serif" font-size="10.00">DynExp::QSerialCommunication</text>
<text text-anchor="middle" x="788" y="-295" font-family="Helvetica,sans-Serif" font-size="10.00">HardwareAdapterConfigurator</text>
</a>
</g>
</g>
<!-- Node5&#45;&gt;Node6 -->
<g id="edge5_Node000005_Node000006" class="edge">
<title>Node5&#45;&gt;Node6</title>
<g id="a_edge5_Node000005_Node000006"><a xlink:title=" ">
<path fill="none" stroke="#63b8ff" d="M644.77,-303C663.42,-303 682.98,-303 701.41,-303"/>
<polygon fill="#63b8ff" stroke="#63b8ff" points="644.51,-299.5 634.51,-303 644.51,-306.5 644.51,-299.5"/>
</a>
</g>
</g>
<!-- Node7 -->
<g id="Node000007" class="node">
<title>Node7</title>
<g id="a_Node000007"><a xlink:href="classDynExp_1_1HardwareAdapterSerialPortConfigurator.html" target="_top" xlink:title="Configurator class for HardwareAdapterSerialPort.">
<polygon fill="white" stroke="#666666" points="1091,-342 918,-342 918,-312 1091,-312 1091,-342"/>
<text text-anchor="start" x="926" y="-330" font-family="Helvetica,sans-Serif" font-size="10.00">DynExp::HardwareAdapterSerial</text>
<text text-anchor="middle" x="1004.5" y="-319" font-family="Helvetica,sans-Serif" font-size="10.00">PortConfigurator</text>
</a>
</g>
</g>
<!-- Node6&#45;&gt;Node7 -->
<g id="edge6_Node000006_Node000007" class="edge">
<title>Node6&#45;&gt;Node7</title>
<g id="a_edge6_Node000006_Node000007"><a xlink:title=" ">
<path fill="none" stroke="#63b8ff" d="M884.78,-313.72C895.83,-314.95 907.04,-316.21 917.94,-317.43"/>
<polygon fill="#63b8ff" stroke="#63b8ff" points="885.03,-310.22 874.7,-312.59 884.25,-317.18 885.03,-310.22"/>
</a>
</g>
</g>
<!-- Node8 -->
<g id="Node000008" class="node">
<title>Node8</title>
<g id="a_Node000008"><a xlink:href="classDynExp_1_1HardwareAdapterTcpSocketConfigurator.html" target="_top" xlink:title="Configurator class for HardwareAdapterTcpSocket.">
<polygon fill="white" stroke="#666666" points="1085,-294 924,-294 924,-264 1085,-264 1085,-294"/>
<text text-anchor="start" x="932" y="-282" font-family="Helvetica,sans-Serif" font-size="10.00">DynExp::HardwareAdapterTcp</text>
<text text-anchor="middle" x="1004.5" y="-271" font-family="Helvetica,sans-Serif" font-size="10.00">SocketConfigurator</text>
</a>
</g>
</g>
<!-- Node6&#45;&gt;Node8 -->
<g id="edge7_Node000006_Node000008" class="edge">
<title>Node6&#45;&gt;Node8</title>
<g id="a_edge7_Node000006_Node000008"><a xlink:title=" ">
<path fill="none" stroke="#63b8ff" d="M884.66,-292.3C897.75,-290.83 911.08,-289.34 923.85,-287.91"/>
<polygon fill="#63b8ff" stroke="#63b8ff" points="884.25,-288.82 874.7,-293.41 885.03,-295.78 884.25,-288.82"/>
</a>
</g>
</g>
</g>
</svg>
