<?xml version="1.0" encoding="UTF-8" standalone="no"?>
<!DOCTYPE svg PUBLIC "-//W3C//DTD SVG 1.1//EN"
 "http://www.w3.org/Graphics/SVG/1.1/DTD/svg11.dtd">
<!-- Generated by graphviz version 2.43.0 (0)
 -->
<!-- Title: DynExp::QSerialCommunicationHardwareAdapterParams Pages: 1 -->
<svg width="360pt" height="408pt"
 viewBox="0.00 0.00 360.00 408.00" xmlns="http://www.w3.org/2000/svg" xmlns:xlink="http://www.w3.org/1999/xlink">
<g id="graph0" class="graph" transform="scale(1 1) rotate(0) translate(4 404)">
<title>DynExp::QSerialCommunicationHardwareAdapterParams</title>
<polygon fill="white" stroke="transparent" points="-4,4 -4,-404 356,-404 356,4 -4,4"/>
<!-- Node1 -->
<g id="node1" class="node">
<title>Node1</title>
<g id="a_node1"><a xlink:title="Parameter class for QSerialCommunicationHardwareAdapter.">
<polygon fill="#bfbfbf" stroke="black" points="92,-67.5 92,-97.5 265,-97.5 265,-67.5 92,-67.5"/>
<text text-anchor="start" x="100" y="-85.5" font-family="Helvetica,sans-Serif" font-size="10.00">DynExp::QSerialCommunication</text>
<text text-anchor="middle" x="178.5" y="-74.5" font-family="Helvetica,sans-Serif" font-size="10.00">HardwareAdapterParams</text>
</a>
</g>
</g>
<!-- Node7 -->
<g id="node7" class="node">
<title>Node7</title>
<g id="a_node7"><a xlink:href="classDynExp_1_1HardwareAdapterSerialPortParams.html" target="_top" xlink:title="Parameter class for HardwareAdapterSerialPort.">
<polygon fill="white" stroke="black" points="0,-0.5 0,-30.5 173,-30.5 173,-0.5 0,-0.5"/>
<text text-anchor="start" x="8" y="-18.5" font-family="Helvetica,sans-Serif" font-size="10.00">DynExp::HardwareAdapterSerial</text>
<text text-anchor="middle" x="86.5" y="-7.5" font-family="Helvetica,sans-Serif" font-size="10.00">PortParams</text>
</a>
</g>
</g>
<!-- Node1&#45;&gt;Node7 -->
<g id="edge6" class="edge">
<title>Node1&#45;&gt;Node7</title>
<path fill="none" stroke="midnightblue" d="M150.12,-61.45C135.97,-51.45 119.19,-39.6 106.42,-30.58"/>
<polygon fill="midnightblue" stroke="midnightblue" points="148.35,-64.48 158.54,-67.4 152.39,-58.77 148.35,-64.48"/>
</g>
<!-- Node8 -->
<g id="node8" class="node">
<title>Node8</title>
<g id="a_node8"><a xlink:href="classDynExp_1_1HardwareAdapterTcpSocketParams.html" target="_top" xlink:title="Parameter class for HardwareAdapterTcpSocket.">
<polygon fill="white" stroke="black" points="191,-0.5 191,-30.5 352,-30.5 352,-0.5 191,-0.5"/>
<text text-anchor="start" x="199" y="-18.5" font-family="Helvetica,sans-Serif" font-size="10.00">DynExp::HardwareAdapterTcp</text>
<text text-anchor="middle" x="271.5" y="-7.5" font-family="Helvetica,sans-Serif" font-size="10.00">SocketParams</text>
</a>
</g>
</g>
<!-- Node1&#45;&gt;Node8 -->
<g id="edge7" class="edge">
<title>Node1&#45;&gt;Node8</title>
<path fill="none" stroke="midnightblue" d="M207.19,-61.45C221.49,-51.45 238.45,-39.6 251.36,-30.58"/>
<polygon fill="midnightblue" stroke="midnightblue" points="204.87,-58.8 198.68,-67.4 208.88,-64.54 204.87,-58.8"/>
</g>
<!-- Node2 -->
<g id="node2" class="node">
<title>Node2</title>
<g id="a_node2"><a xlink:href="classDynExp_1_1SerialCommunicationHardwareAdapterParams.html" target="_top" xlink:title="Parameter class for SerialCommunicationHardwareAdapter.">
<polygon fill="white" stroke="black" points="96,-134.5 96,-164.5 261,-164.5 261,-134.5 96,-134.5"/>
<text text-anchor="start" x="104" y="-152.5" font-family="Helvetica,sans-Serif" font-size="10.00">DynExp::SerialCommunication</text>
<text text-anchor="middle" x="178.5" y="-141.5" font-family="Helvetica,sans-Serif" font-size="10.00">HardwareAdapterParams</text>
</a>
</g>
</g>
<!-- Node2&#45;&gt;Node1 -->
<g id="edge1" class="edge">
<title>Node2&#45;&gt;Node1</title>
<path fill="none" stroke="midnightblue" d="M178.5,-124.11C178.5,-115.15 178.5,-105.32 178.5,-97.58"/>
<polygon fill="midnightblue" stroke="midnightblue" points="175,-124.4 178.5,-134.4 182,-124.4 175,-124.4"/>
</g>
<!-- Node3 -->
<g id="node3" class="node">
<title>Node3</title>
<g id="a_node3"><a xlink:href="classDynExp_1_1HardwareAdapterParamsBase.html" target="_top" xlink:title="Parameter class for HardwareAdapterBase.">
<polygon fill="white" stroke="black" points="75.5,-201.5 75.5,-220.5 281.5,-220.5 281.5,-201.5 75.5,-201.5"/>
<text text-anchor="middle" x="178.5" y="-208.5" font-family="Helvetica,sans-Serif" font-size="10.00">DynExp::HardwareAdapterParamsBase</text>
</a>
</g>
</g>
<!-- Node3&#45;&gt;Node2 -->
<g id="edge2" class="edge">
<title>Node3&#45;&gt;Node2</title>
<path fill="none" stroke="midnightblue" d="M178.5,-191.23C178.5,-182.59 178.5,-172.5 178.5,-164.52"/>
<polygon fill="midnightblue" stroke="midnightblue" points="175,-191.48 178.5,-201.48 182,-191.48 175,-191.48"/>
</g>
<!-- Node4 -->
<g id="node4" class="node">
<title>Node4</title>
<g id="a_node4"><a xlink:href="classDynExp_1_1ParamsBase.html" target="_top" xlink:title="Abstract base class for object parameter classes. Each class derived from class Object must be accomp...">
<polygon fill="white" stroke="black" points="118.5,-257.5 118.5,-276.5 238.5,-276.5 238.5,-257.5 118.5,-257.5"/>
<text text-anchor="middle" x="178.5" y="-264.5" font-family="Helvetica,sans-Serif" font-size="10.00">DynExp::ParamsBase</text>
</a>
</g>
</g>
<!-- Node4&#45;&gt;Node3 -->
<g id="edge3" class="edge">
<title>Node4&#45;&gt;Node3</title>
<path fill="none" stroke="midnightblue" d="M178.5,-246.8C178.5,-237.91 178.5,-227.78 178.5,-220.75"/>
<polygon fill="midnightblue" stroke="midnightblue" points="175,-247.08 178.5,-257.08 182,-247.08 175,-247.08"/>
</g>
<!-- Node5 -->
<g id="node5" class="node">
<title>Node5</title>
<g id="a_node5"><a xlink:href="classUtil_1_1ISynchronizedPointerLockable.html" target="_top" xlink:title="Interface to allow synchronizing the access to derived classes between different threads by making th...">
<polygon fill="white" stroke="black" points="107,-313.5 107,-343.5 250,-343.5 250,-313.5 107,-313.5"/>
<text text-anchor="start" x="115" y="-331.5" font-family="Helvetica,sans-Serif" font-size="10.00">Util::ISynchronizedPointer</text>
<text text-anchor="middle" x="178.5" y="-320.5" font-family="Helvetica,sans-Serif" font-size="10.00">Lockable</text>
</a>
</g>
</g>
<!-- Node5&#45;&gt;Node4 -->
<g id="edge4" class="edge">
<title>Node5&#45;&gt;Node4</title>
<path fill="none" stroke="midnightblue" d="M178.5,-303.29C178.5,-293.86 178.5,-283.65 178.5,-276.66"/>
<polygon fill="midnightblue" stroke="midnightblue" points="175,-303.4 178.5,-313.4 182,-303.4 175,-303.4"/>
</g>
<!-- Node6 -->
<g id="node6" class="node">
<title>Node6</title>
<g id="a_node6"><a xlink:href="classUtil_1_1INonCopyable.html" target="_top" xlink:title="Interface to delete copy constructor and copy assignment operator and thus make derived classes non&#45;c...">
<polygon fill="white" stroke="black" points="124.5,-380.5 124.5,-399.5 232.5,-399.5 232.5,-380.5 124.5,-380.5"/>
<text text-anchor="middle" x="178.5" y="-387.5" font-family="Helvetica,sans-Serif" font-size="10.00">Util::INonCopyable</text>
</a>
</g>
</g>
<!-- Node6&#45;&gt;Node5 -->
<g id="edge5" class="edge">
<title>Node6&#45;&gt;Node5</title>
<path fill="none" stroke="midnightblue" d="M178.5,-370.23C178.5,-361.59 178.5,-351.5 178.5,-343.52"/>
<polygon fill="midnightblue" stroke="midnightblue" points="175,-370.48 178.5,-380.48 182,-370.48 175,-370.48"/>
</g>
</g>
</svg>
