<?xml version="1.0" encoding="UTF-8" standalone="no"?>
<!DOCTYPE svg PUBLIC "-//W3C//DTD SVG 1.1//EN"
 "http://www.w3.org/Graphics/SVG/1.1/DTD/svg11.dtd">
<!-- Generated by graphviz version 2.43.0 (0)
 -->
<!-- Title: DynExp::SerialCommunicationHardwareAdapterConfigurator Pages: 1 -->
<svg width="1037pt" height="86pt"
 viewBox="0.00 0.00 1037.00 86.00" xmlns="http://www.w3.org/2000/svg" xmlns:xlink="http://www.w3.org/1999/xlink">
<g id="graph0" class="graph" transform="scale(1 1) rotate(0) translate(4 82)">
<title>DynExp::SerialCommunicationHardwareAdapterConfigurator</title>
<!-- Node1 -->
<g id="Node000001" class="node">
<title>Node1</title>
<g id="a_Node000001"><a xlink:title="Configurator class for SerialCommunicationHardwareAdapter.">
<polygon fill="#999999" stroke="#666666" points="611,-54 446,-54 446,-24 611,-24 611,-54"/>
<text text-anchor="start" x="454" y="-42" font-family="Helvetica,sans-Serif" font-size="10.00">DynExp::SerialCommunication</text>
<text text-anchor="middle" x="528.5" y="-31" font-family="Helvetica,sans-Serif" font-size="10.00">HardwareAdapterConfigurator</text>
</a>
</g>
</g>
<!-- Node4 -->
<g id="Node000004" class="node">
<title>Node4</title>
<g id="a_Node000004"><a xlink:href="classDynExp_1_1QSerialCommunicationHardwareAdapterConfigurator.html" target="_top" xlink:title="Configurator class for QSerialCommunicationHardwareAdapter.">
<polygon fill="white" stroke="#666666" points="820,-54 647,-54 647,-24 820,-24 820,-54"/>
<text text-anchor="start" x="655" y="-42" font-family="Helvetica,sans-Serif" font-size="10.00">DynExp::QSerialCommunication</text>
<text text-anchor="middle" x="733.5" y="-31" font-family="Helvetica,sans-Serif" font-size="10.00">HardwareAdapterConfigurator</text>
</a>
</g>
</g>
<!-- Node1&#45;&gt;Node4 -->
<g id="edge3_Node000001_Node000004" class="edge">
<title>Node1&#45;&gt;Node4</title>
<g id="a_edge3_Node000001_Node000004"><a xlink:title=" ">
<path fill="none" stroke="#63b8ff" d="M621.21,-39C629.79,-39 638.47,-39 647,-39"/>
<polygon fill="#63b8ff" stroke="#63b8ff" points="621.19,-35.5 611.19,-39 621.19,-42.5 621.19,-35.5"/>
</a>
</g>
</g>
<!-- Node2 -->
<g id="Node000002" class="node">
<title>Node2</title>
<g id="a_Node000002"><a xlink:href="classDynExp_1_1HardwareAdapterConfiguratorBase.html" target="_top" xlink:title="Configurator class for HardwareAdapterBase.">
<polygon fill="white" stroke="#666666" points="410,-48.5 180,-48.5 180,-29.5 410,-29.5 410,-48.5"/>
<text text-anchor="middle" x="295" y="-36.5" font-family="Helvetica,sans-Serif" font-size="10.00">DynExp::HardwareAdapterConfiguratorBase</text>
</a>
</g>
</g>
<!-- Node2&#45;&gt;Node1 -->
<g id="edge1_Node000001_Node000002" class="edge">
<title>Node2&#45;&gt;Node1</title>
<g id="a_edge1_Node000001_Node000002"><a xlink:title=" ">
<path fill="none" stroke="#63b8ff" d="M420.26,-39C428.93,-39 437.54,-39 445.89,-39"/>
<polygon fill="#63b8ff" stroke="#63b8ff" points="420.05,-35.5 410.05,-39 420.05,-42.5 420.05,-35.5"/>
</a>
</g>
</g>
<!-- Node3 -->
<g id="Node000003" class="node">
<title>Node3</title>
<g id="a_Node000003"><a xlink:href="classDynExp_1_1ConfiguratorBase.html" target="_top" xlink:title="The configurator classes have the task to generate parameter objects (refer to DynExp::ParamsBase) of...">
<polygon fill="white" stroke="#666666" points="144,-48.5 0,-48.5 0,-29.5 144,-29.5 144,-48.5"/>
<text text-anchor="middle" x="72" y="-36.5" font-family="Helvetica,sans-Serif" font-size="10.00">DynExp::ConfiguratorBase</text>
</a>
</g>
</g>
<!-- Node3&#45;&gt;Node2 -->
<g id="edge2_Node000002_Node000003" class="edge">
<title>Node3&#45;&gt;Node2</title>
<g id="a_edge2_Node000002_Node000003"><a xlink:title=" ">
<path fill="none" stroke="#63b8ff" d="M154.25,-39C162.65,-39 171.28,-39 179.95,-39"/>
<polygon fill="#63b8ff" stroke="#63b8ff" points="154.14,-35.5 144.14,-39 154.14,-42.5 154.14,-35.5"/>
</a>
</g>
</g>
<!-- Node5 -->
<g id="Node000005" class="node">
<title>Node5</title>
<g id="a_Node000005"><a xlink:href="classDynExp_1_1HardwareAdapterSerialPortConfigurator.html" target="_top" xlink:title="Configurator class for HardwareAdapterSerialPort.">
<polygon fill="white" stroke="#666666" points="1029,-78 856,-78 856,-48 1029,-48 1029,-78"/>
<text text-anchor="start" x="864" y="-66" font-family="Helvetica,sans-Serif" font-size="10.00">DynExp::HardwareAdapterSerial</text>
<text text-anchor="middle" x="942.5" y="-55" font-family="Helvetica,sans-Serif" font-size="10.00">PortConfigurator</text>
</a>
</g>
</g>
<!-- Node4&#45;&gt;Node5 -->
<g id="edge4_Node000004_Node000005" class="edge">
<title>Node4&#45;&gt;Node5</title>
<g id="a_edge4_Node000004_Node000005"><a xlink:title=" ">
<path fill="none" stroke="#63b8ff" d="M830.2,-50.1C838.76,-51.09 847.4,-52.09 855.88,-53.07"/>
<polygon fill="#63b8ff" stroke="#63b8ff" points="830.53,-46.61 820.19,-48.93 829.72,-53.56 830.53,-46.61"/>
</a>
</g>
</g>
<!-- Node6 -->
<g id="Node000006" class="node">
<title>Node6</title>
<g id="a_Node000006"><a xlink:href="classDynExp_1_1HardwareAdapterTcpSocketConfigurator.html" target="_top" xlink:title="Configurator class for HardwareAdapterTcpSocket.">
<polygon fill="white" stroke="#666666" points="1023,-30 862,-30 862,0 1023,0 1023,-30"/>
<text text-anchor="start" x="870" y="-18" font-family="Helvetica,sans-Serif" font-size="10.00">DynExp::HardwareAdapterTcp</text>
<text text-anchor="middle" x="942.5" y="-7" font-family="Helvetica,sans-Serif" font-size="10.00">SocketConfigurator</text>
</a>
</g>
</g>
<!-- Node4&#45;&gt;Node6 -->
<g id="edge5_Node000004_Node000006" class="edge">
<title>Node4&#45;&gt;Node6</title>
<g id="a_edge5_Node000004_Node000006"><a xlink:title=" ">
<path fill="none" stroke="#63b8ff" d="M830.27,-27.9C840.84,-26.67 851.51,-25.43 861.85,-24.23"/>
<polygon fill="#63b8ff" stroke="#63b8ff" points="829.72,-24.44 820.19,-29.07 830.53,-31.39 829.72,-24.44"/>
</a>
</g>
</g>
</g>
</svg>
