<?xml version="1.0" encoding="UTF-8" standalone="no"?>
<!DOCTYPE svg PUBLIC "-//W3C//DTD SVG 1.1//EN"
 "http://www.w3.org/Graphics/SVG/1.1/DTD/svg11.dtd">
<!-- Generated by graphviz version 2.43.0 (0)
 -->
<!-- Title: DynExpInstr::OutputPortTasks::UpdateTask Pages: 1 -->
<svg width="1306pt" height="88pt"
 viewBox="0.00 0.00 1306.00 88.00" xmlns="http://www.w3.org/2000/svg" xmlns:xlink="http://www.w3.org/1999/xlink">
<g id="graph0" class="graph" transform="scale(1 1) rotate(0) translate(4 84)">
<title>DynExpInstr::OutputPortTasks::UpdateTask</title>
<polygon fill="white" stroke="transparent" points="-4,4 -4,-84 1302,-84 1302,4 -4,4"/>
<!-- Node1 -->
<g id="node1" class="node">
<title>Node1</title>
<g id="a_node1"><a xlink:title="Defines a task for updating an instrument within an instrument inheritance hierarchy....">
<polygon fill="#bfbfbf" stroke="black" points="757,-24.5 757,-54.5 918,-54.5 918,-24.5 757,-24.5"/>
<text text-anchor="start" x="765" y="-42.5" font-family="Helvetica,sans-Serif" font-size="10.00">DynExpInstr::OutputPortTasks</text>
<text text-anchor="middle" x="837.5" y="-31.5" font-family="Helvetica,sans-Serif" font-size="10.00">::UpdateTask</text>
</a>
</g>
</g>
<!-- Node6 -->
<g id="node6" class="node">
<title>Node6</title>
<g id="a_node6"><a xlink:href="classDynExpInstr_1_1AnalogOutTasks_1_1UpdateTask.html" target="_top" xlink:title="Defines a task for updating an instrument within an instrument inheritance hierarchy....">
<polygon fill="white" stroke="black" points="954,-49.5 954,-79.5 1114,-79.5 1114,-49.5 954,-49.5"/>
<text text-anchor="start" x="962" y="-67.5" font-family="Helvetica,sans-Serif" font-size="10.00">DynExpInstr::AnalogOutTasks</text>
<text text-anchor="middle" x="1034" y="-56.5" font-family="Helvetica,sans-Serif" font-size="10.00">::UpdateTask</text>
</a>
</g>
</g>
<!-- Node1&#45;&gt;Node6 -->
<g id="edge5" class="edge">
<title>Node1&#45;&gt;Node6</title>
<path fill="none" stroke="midnightblue" d="M928.15,-51.02C936.7,-52.12 945.33,-53.23 953.77,-54.32"/>
<polygon fill="midnightblue" stroke="midnightblue" points="928.54,-47.54 918.17,-49.74 927.64,-54.49 928.54,-47.54"/>
</g>
<!-- Node8 -->
<g id="node8" class="node">
<title>Node8</title>
<g id="a_node8"><a xlink:href="classDynExpInstr_1_1DigitalOutTasks_1_1UpdateTask.html" target="_top" xlink:title="Defines a task for updating an instrument within an instrument inheritance hierarchy....">
<polygon fill="white" stroke="black" points="955,-0.5 955,-30.5 1113,-30.5 1113,-0.5 955,-0.5"/>
<text text-anchor="start" x="963" y="-18.5" font-family="Helvetica,sans-Serif" font-size="10.00">DynExpInstr::DigitalOutTasks</text>
<text text-anchor="middle" x="1034" y="-7.5" font-family="Helvetica,sans-Serif" font-size="10.00">::UpdateTask</text>
</a>
</g>
</g>
<!-- Node1&#45;&gt;Node8 -->
<g id="edge7" class="edge">
<title>Node1&#45;&gt;Node8</title>
<path fill="none" stroke="midnightblue" d="M928.14,-28.44C937.01,-27.34 945.97,-26.24 954.71,-25.16"/>
<polygon fill="midnightblue" stroke="midnightblue" points="927.67,-24.97 918.17,-29.67 928.53,-31.92 927.67,-24.97"/>
</g>
<!-- Node2 -->
<g id="node2" class="node">
<title>Node2</title>
<g id="a_node2"><a xlink:href="classDynExpInstr_1_1FunctionGeneratorTasks_1_1UpdateTask.html" target="_top" xlink:title="Defines a task for updating an instrument within an instrument inheritance hierarchy....">
<polygon fill="white" stroke="black" points="549,-24.5 549,-54.5 721,-54.5 721,-24.5 549,-24.5"/>
<text text-anchor="start" x="557" y="-42.5" font-family="Helvetica,sans-Serif" font-size="10.00">DynExpInstr::FunctionGenerator</text>
<text text-anchor="middle" x="635" y="-31.5" font-family="Helvetica,sans-Serif" font-size="10.00">Tasks::UpdateTask</text>
</a>
</g>
</g>
<!-- Node2&#45;&gt;Node1 -->
<g id="edge1" class="edge">
<title>Node2&#45;&gt;Node1</title>
<path fill="none" stroke="midnightblue" d="M731.08,-39.5C739.67,-39.5 748.32,-39.5 756.76,-39.5"/>
<polygon fill="midnightblue" stroke="midnightblue" points="731.03,-36 721.03,-39.5 731.03,-43 731.03,-36"/>
</g>
<!-- Node3 -->
<g id="node3" class="node">
<title>Node3</title>
<g id="a_node3"><a xlink:href="classDynExpInstr_1_1DataStreamInstrumentTasks_1_1UpdateTask.html" target="_top" xlink:title="Defines a task for updating an instrument within an instrument inheritance hierarchy....">
<polygon fill="white" stroke="black" points="319,-24.5 319,-54.5 513,-54.5 513,-24.5 319,-24.5"/>
<text text-anchor="start" x="327" y="-42.5" font-family="Helvetica,sans-Serif" font-size="10.00">DynExpInstr::DataStreamInstrument</text>
<text text-anchor="middle" x="416" y="-31.5" font-family="Helvetica,sans-Serif" font-size="10.00">Tasks::UpdateTask</text>
</a>
</g>
</g>
<!-- Node3&#45;&gt;Node2 -->
<g id="edge2" class="edge">
<title>Node3&#45;&gt;Node2</title>
<path fill="none" stroke="midnightblue" d="M523.21,-39.5C531.81,-39.5 540.43,-39.5 548.86,-39.5"/>
<polygon fill="midnightblue" stroke="midnightblue" points="523.13,-36 513.13,-39.5 523.13,-43 523.13,-36"/>
</g>
<!-- Node4 -->
<g id="node4" class="node">
<title>Node4</title>
<g id="a_node4"><a xlink:href="classDynExp_1_1UpdateTaskBase.html" target="_top" xlink:title="Defines a task for updating an instrument within an instrument inheritance hierarchy....">
<polygon fill="white" stroke="black" points="142,-30 142,-49 283,-49 283,-30 142,-30"/>
<text text-anchor="middle" x="212.5" y="-37" font-family="Helvetica,sans-Serif" font-size="10.00">DynExp::UpdateTaskBase</text>
</a>
</g>
</g>
<!-- Node4&#45;&gt;Node3 -->
<g id="edge3" class="edge">
<title>Node4&#45;&gt;Node3</title>
<path fill="none" stroke="midnightblue" d="M293.22,-39.5C301.6,-39.5 310.17,-39.5 318.71,-39.5"/>
<polygon fill="midnightblue" stroke="midnightblue" points="293.13,-36 283.13,-39.5 293.13,-43 293.13,-36"/>
</g>
<!-- Node5 -->
<g id="node5" class="node">
<title>Node5</title>
<g id="a_node5"><a xlink:href="classDynExp_1_1TaskBase.html" target="_top" xlink:title="Base class for all tasks being processed by instruments. The class must not contain public virtual fu...">
<polygon fill="white" stroke="black" points="0,-30 0,-49 106,-49 106,-30 0,-30"/>
<text text-anchor="middle" x="53" y="-37" font-family="Helvetica,sans-Serif" font-size="10.00">DynExp::TaskBase</text>
</a>
</g>
</g>
<!-- Node5&#45;&gt;Node4 -->
<g id="edge4" class="edge">
<title>Node5&#45;&gt;Node4</title>
<path fill="none" stroke="midnightblue" d="M116.14,-39.5C124.58,-39.5 133.29,-39.5 141.85,-39.5"/>
<polygon fill="midnightblue" stroke="midnightblue" points="116.01,-36 106.01,-39.5 116.01,-43 116.01,-36"/>
</g>
<!-- Node7 -->
<g id="node7" class="node">
<title>Node7</title>
<g id="a_node7"><a xlink:href="classDynExpInstr_1_1NIDAQAnalogOutTasks_1_1UpdateTask.html" target="_top" xlink:title=" ">
<polygon fill="white" stroke="black" points="1150,-49.5 1150,-79.5 1298,-79.5 1298,-49.5 1150,-49.5"/>
<text text-anchor="start" x="1158" y="-67.5" font-family="Helvetica,sans-Serif" font-size="10.00">DynExpInstr::NIDAQAnalog</text>
<text text-anchor="middle" x="1224" y="-56.5" font-family="Helvetica,sans-Serif" font-size="10.00">OutTasks::UpdateTask</text>
</a>
</g>
</g>
<!-- Node6&#45;&gt;Node7 -->
<g id="edge6" class="edge">
<title>Node6&#45;&gt;Node7</title>
<path fill="none" stroke="midnightblue" d="M1124.23,-64.5C1132.83,-64.5 1141.48,-64.5 1149.9,-64.5"/>
<polygon fill="midnightblue" stroke="midnightblue" points="1124.18,-61 1114.18,-64.5 1124.18,-68 1124.18,-61"/>
</g>
<!-- Node9 -->
<g id="node9" class="node">
<title>Node9</title>
<g id="a_node9"><a xlink:href="classDynExpInstr_1_1NIDAQDigitalOutTasks_1_1UpdateTask.html" target="_top" xlink:title=" ">
<polygon fill="white" stroke="black" points="1151,-0.5 1151,-30.5 1297,-30.5 1297,-0.5 1151,-0.5"/>
<text text-anchor="start" x="1159" y="-18.5" font-family="Helvetica,sans-Serif" font-size="10.00">DynExpInstr::NIDAQDigital</text>
<text text-anchor="middle" x="1224" y="-7.5" font-family="Helvetica,sans-Serif" font-size="10.00">OutTasks::UpdateTask</text>
</a>
</g>
</g>
<!-- Node8&#45;&gt;Node9 -->
<g id="edge8" class="edge">
<title>Node8&#45;&gt;Node9</title>
<path fill="none" stroke="midnightblue" d="M1123.13,-15.5C1132.42,-15.5 1141.79,-15.5 1150.86,-15.5"/>
<polygon fill="midnightblue" stroke="midnightblue" points="1123.1,-12 1113.1,-15.5 1123.1,-19 1123.1,-12"/>
</g>
</g>
</svg>
