<?xml version="1.0" encoding="UTF-8" standalone="no"?>
<!DOCTYPE svg PUBLIC "-//W3C//DTD SVG 1.1//EN"
 "http://www.w3.org/Graphics/SVG/1.1/DTD/svg11.dtd">
<!-- Generated by graphviz version 2.43.0 (0)
 -->
<!-- Title: DynExp::ParamsBase::Param&lt; ParamType, std::enable_if_t&lt; std::is_base_of_v&lt; Text, ParamType &gt; &gt; &gt; Pages: 1 -->
<svg width="218pt" height="184pt"
 viewBox="0.00 0.00 218.00 184.00" xmlns="http://www.w3.org/2000/svg" xmlns:xlink="http://www.w3.org/1999/xlink">
<g id="graph0" class="graph" transform="scale(1 1) rotate(0) translate(4 180)">
<title>DynExp::ParamsBase::Param&lt; ParamType, std::enable_if_t&lt; std::is_base_of_v&lt; Text, ParamType &gt; &gt; &gt;</title>
<polygon fill="white" stroke="transparent" points="-4,4 -4,-180 214,-180 214,4 -4,4"/>
<!-- Node1 -->
<g id="node1" class="node">
<title>Node1</title>
<g id="a_node1"><a xlink:title="Parameter for strings. If ParamType is of type ParamsBase::Text, then extend TypedParamBase&#39;s functio...">
<polygon fill="#bfbfbf" stroke="black" points="0,-0.5 0,-52.5 210,-52.5 210,-0.5 0,-0.5"/>
<text text-anchor="start" x="8" y="-40.5" font-family="Helvetica,sans-Serif" font-size="10.00">DynExp::ParamsBase</text>
<text text-anchor="start" x="8" y="-29.5" font-family="Helvetica,sans-Serif" font-size="10.00">::Param&lt; ParamType,</text>
<text text-anchor="start" x="8" y="-18.5" font-family="Helvetica,sans-Serif" font-size="10.00"> std::enable_if_t&lt; std</text>
<text text-anchor="middle" x="105" y="-7.5" font-family="Helvetica,sans-Serif" font-size="10.00">::is_base_of_v&lt; Text, ParamType &gt; &gt; &gt;</text>
</a>
</g>
</g>
<!-- Node2 -->
<g id="node2" class="node">
<title>Node2</title>
<g id="a_node2"><a xlink:href="classDynExp_1_1ParamsBase_1_1TypedParamBase.html" target="_top" xlink:title="Base class of parameters containing a single value.">
<polygon fill="white" stroke="black" points="33.5,-89.5 33.5,-108.5 176.5,-108.5 176.5,-89.5 33.5,-89.5"/>
<text text-anchor="middle" x="105" y="-96.5" font-family="Helvetica,sans-Serif" font-size="10.00">UnderlyingTextParamType</text>
</a>
</g>
</g>
<!-- Node2&#45;&gt;Node1 -->
<g id="edge1" class="edge">
<title>Node2&#45;&gt;Node1</title>
<path fill="none" stroke="midnightblue" d="M105,-79.1C105,-70.96 105,-61.33 105,-52.6"/>
<polygon fill="midnightblue" stroke="midnightblue" points="101.5,-79.36 105,-89.36 108.5,-79.36 101.5,-79.36"/>
</g>
<!-- Node3 -->
<g id="node3" class="node">
<title>Node3</title>
<g id="a_node3"><a xlink:href="classDynExp_1_1ParamsBase_1_1ParamBase.html" target="_top" xlink:title="Abstract base class for a single object parameter. Parameters derived from this class are automatical...">
<polygon fill="white" stroke="black" points="45,-145.5 45,-175.5 165,-175.5 165,-145.5 45,-145.5"/>
<text text-anchor="start" x="53" y="-163.5" font-family="Helvetica,sans-Serif" font-size="10.00">DynExp::ParamsBase</text>
<text text-anchor="middle" x="105" y="-152.5" font-family="Helvetica,sans-Serif" font-size="10.00">::ParamBase</text>
</a>
</g>
</g>
<!-- Node3&#45;&gt;Node2 -->
<g id="edge2" class="edge">
<title>Node3&#45;&gt;Node2</title>
<path fill="none" stroke="midnightblue" d="M105,-135.29C105,-125.86 105,-115.65 105,-108.66"/>
<polygon fill="midnightblue" stroke="midnightblue" points="101.5,-135.4 105,-145.4 108.5,-135.4 101.5,-135.4"/>
</g>
</g>
</svg>
