<?xml version="1.0" encoding="UTF-8" standalone="no"?>
<!DOCTYPE svg PUBLIC "-//W3C//DTD SVG 1.1//EN"
 "http://www.w3.org/Graphics/SVG/1.1/DTD/svg11.dtd">
<!-- Generated by graphviz version 2.43.0 (0)
 -->
<!-- Title: DynExp::RunnableObject Pages: 1 -->
<svg width="1211pt" height="1077pt"
 viewBox="0.00 0.00 1211.00 1077.00" xmlns="http://www.w3.org/2000/svg" xmlns:xlink="http://www.w3.org/1999/xlink">
<g id="graph0" class="graph" transform="scale(1 1) rotate(0) translate(4 1073)">
<title>DynExp::RunnableObject</title>
<polygon fill="white" stroke="transparent" points="-4,4 -4,-1073 1207,-1073 1207,4 -4,4"/>
<!-- Node1 -->
<g id="node1" class="node">
<title>Node1</title>
<g id="a_node1"><a xlink:title="Defines an Object which possesses a thread it runs in. The RunnableObject can be started and stopped ...">
<polygon fill="#bfbfbf" stroke="black" points="144,-471 144,-490 281,-490 281,-471 144,-471"/>
<text text-anchor="middle" x="212.5" y="-478" font-family="Helvetica,sans-Serif" font-size="10.00">DynExp::RunnableObject</text>
</a>
</g>
</g>
<!-- Node4 -->
<g id="node4" class="node">
<title>Node4</title>
<g id="a_node4"><a xlink:href="classDynExp_1_1InstrumentBase.html" target="_top" xlink:title="Base class for instruments. Instruments comprise virtual devices (meta instruments) and physial devic...">
<polygon fill="white" stroke="black" points="317,-747 317,-766 454,-766 454,-747 317,-747"/>
<text text-anchor="middle" x="385.5" y="-754" font-family="Helvetica,sans-Serif" font-size="10.00">DynExp::InstrumentBase</text>
</a>
</g>
</g>
<!-- Node1&#45;&gt;Node4 -->
<g id="edge3" class="edge">
<title>Node1&#45;&gt;Node4</title>
<path fill="none" stroke="midnightblue" d="M224.79,-498.73C257.82,-552.03 353.46,-706.4 378.46,-746.75"/>
<polygon fill="midnightblue" stroke="midnightblue" points="227.63,-496.66 219.39,-490 221.68,-500.34 227.63,-496.66"/>
</g>
<!-- Node38 -->
<g id="node31" class="node">
<title>Node38</title>
<g id="a_node31"><a xlink:href="classDynExp_1_1ModuleBase.html" target="_top" xlink:title="Base class for modules. Modules implement programs on their own (e.g. measurement protocols or server...">
<polygon fill="white" stroke="black" points="325.5,-236 325.5,-255 445.5,-255 445.5,-236 325.5,-236"/>
<text text-anchor="middle" x="385.5" y="-243" font-family="Helvetica,sans-Serif" font-size="10.00">DynExp::ModuleBase</text>
</a>
</g>
</g>
<!-- Node1&#45;&gt;Node38 -->
<g id="edge30" class="edge">
<title>Node1&#45;&gt;Node38</title>
<path fill="none" stroke="midnightblue" d="M226.42,-462.75C260.41,-416.04 351.52,-290.82 377.5,-255.12"/>
<polygon fill="midnightblue" stroke="midnightblue" points="223.47,-460.85 220.42,-471 229.13,-464.97 223.47,-460.85"/>
</g>
<!-- Node2 -->
<g id="node2" class="node">
<title>Node2</title>
<g id="a_node2"><a xlink:href="classUtil_1_1INonCopyable.html" target="_top" xlink:title="Interface to delete copy constructor and copy assignment operator and thus make derived classes non&#45;c...">
<polygon fill="white" stroke="black" points="0,-490 0,-509 108,-509 108,-490 0,-490"/>
<text text-anchor="middle" x="54" y="-497" font-family="Helvetica,sans-Serif" font-size="10.00">Util::INonCopyable</text>
</a>
</g>
</g>
<!-- Node2&#45;&gt;Node1 -->
<g id="edge1" class="edge">
<title>Node2&#45;&gt;Node1</title>
<path fill="none" stroke="midnightblue" d="M118.5,-491.79C126.87,-490.77 135.49,-489.73 143.93,-488.7"/>
<polygon fill="midnightblue" stroke="midnightblue" points="117.93,-488.33 108.42,-493.01 118.77,-495.28 117.93,-488.33"/>
</g>
<!-- Node3 -->
<g id="node3" class="node">
<title>Node3</title>
<g id="a_node3"><a xlink:href="classDynExp_1_1Object.html" target="_top" xlink:title="Base class for all DynExp Objects like hardware adapters (DynExp::HardwareAdapterBase),...">
<polygon fill="white" stroke="black" points="8,-452 8,-471 100,-471 100,-452 8,-452"/>
<text text-anchor="middle" x="54" y="-459" font-family="Helvetica,sans-Serif" font-size="10.00">DynExp::Object</text>
</a>
</g>
</g>
<!-- Node3&#45;&gt;Node1 -->
<g id="edge2" class="edge">
<title>Node3&#45;&gt;Node1</title>
<path fill="none" stroke="midnightblue" d="M110.43,-468.23C121.26,-469.54 132.74,-470.94 143.91,-472.29"/>
<polygon fill="midnightblue" stroke="midnightblue" points="110.62,-464.73 100.27,-467 109.77,-471.68 110.62,-464.73"/>
</g>
<!-- Node5 -->
<g id="node5" class="node">
<title>Node5</title>
<g id="a_node5"><a xlink:href="classDynExpInstr_1_1gRPCInstrument.html" target="_top" xlink:title=" ">
<polygon fill="white" stroke="black" points="490,-988.5 490,-1040.5 695,-1040.5 695,-988.5 490,-988.5"/>
<text text-anchor="start" x="498" y="-1028.5" font-family="Helvetica,sans-Serif" font-size="10.00">DynExpInstr::gRPCInstrument</text>
<text text-anchor="start" x="498" y="-1017.5" font-family="Helvetica,sans-Serif" font-size="10.00">&lt; DynExp::InstrumentBase,</text>
<text text-anchor="start" x="498" y="-1006.5" font-family="Helvetica,sans-Serif" font-size="10.00"> 0, DynExpProto::WidefieldLocalization</text>
<text text-anchor="middle" x="592.5" y="-995.5" font-family="Helvetica,sans-Serif" font-size="10.00">::WidefieldLocalization &gt;</text>
</a>
</g>
</g>
<!-- Node4&#45;&gt;Node5 -->
<g id="edge4" class="edge">
<title>Node4&#45;&gt;Node5</title>
<path fill="none" stroke="midnightblue" d="M391.25,-776.17C402.05,-817.09 432.15,-912.29 490,-968.5 497.98,-976.25 507.49,-982.84 517.45,-988.4"/>
<polygon fill="midnightblue" stroke="midnightblue" points="394.61,-775.18 388.75,-766.35 387.82,-776.9 394.61,-775.18"/>
</g>
<!-- Node7 -->
<g id="node7" class="node">
<title>Node7</title>
<g id="a_node7"><a xlink:href="classDynExpInstr_1_1Camera.html" target="_top" xlink:title="Meta instrument for an image capturing (camera) device.">
<polygon fill="white" stroke="black" points="532.5,-940 532.5,-959 652.5,-959 652.5,-940 532.5,-940"/>
<text text-anchor="middle" x="592.5" y="-947" font-family="Helvetica,sans-Serif" font-size="10.00">DynExpInstr::Camera</text>
</a>
</g>
</g>
<!-- Node4&#45;&gt;Node7 -->
<g id="edge6" class="edge">
<title>Node4&#45;&gt;Node7</title>
<path fill="none" stroke="midnightblue" d="M404.11,-773.08C445.59,-812.14 548.46,-908.98 581.27,-939.87"/>
<polygon fill="midnightblue" stroke="midnightblue" points="406.35,-770.38 396.67,-766.07 401.55,-775.47 406.35,-770.38"/>
</g>
<!-- Node10 -->
<g id="node10" class="node">
<title>Node10</title>
<g id="a_node10"><a xlink:href="classDynExpInstr_1_1DataStreamInstrument.html" target="_top" xlink:title="Implementation of the data stream meta instrument, which is a base class for all instruments reading/...">
<polygon fill="white" stroke="black" points="495.5,-798 495.5,-817 689.5,-817 689.5,-798 495.5,-798"/>
<text text-anchor="middle" x="592.5" y="-805" font-family="Helvetica,sans-Serif" font-size="10.00">DynExpInstr::DataStreamInstrument</text>
</a>
</g>
</g>
<!-- Node4&#45;&gt;Node10 -->
<g id="edge9" class="edge">
<title>Node4&#45;&gt;Node10</title>
<path fill="none" stroke="midnightblue" d="M434.89,-768.54C471,-777.52 519.67,-789.63 553.11,-797.95"/>
<polygon fill="midnightblue" stroke="midnightblue" points="435.61,-765.11 425.06,-766.09 433.92,-771.9 435.61,-765.11"/>
</g>
<!-- Node30 -->
<g id="node24" class="node">
<title>Node30</title>
<g id="a_node24"><a xlink:href="classDynExpInstr_1_1InterModuleCommunicator.html" target="_top" xlink:title="Defines an inter&#45;module communicator instrument to exchange events in between DynExp modules....">
<polygon fill="white" stroke="black" points="522.5,-741.5 522.5,-771.5 662.5,-771.5 662.5,-741.5 522.5,-741.5"/>
<text text-anchor="start" x="530.5" y="-759.5" font-family="Helvetica,sans-Serif" font-size="10.00">DynExpInstr::InterModule</text>
<text text-anchor="middle" x="592.5" y="-748.5" font-family="Helvetica,sans-Serif" font-size="10.00">Communicator</text>
</a>
</g>
</g>
<!-- Node4&#45;&gt;Node30 -->
<g id="edge23" class="edge">
<title>Node4&#45;&gt;Node30</title>
<path fill="none" stroke="midnightblue" d="M464.36,-756.5C483.48,-756.5 503.81,-756.5 522.48,-756.5"/>
<polygon fill="midnightblue" stroke="midnightblue" points="464.19,-753 454.19,-756.5 464.19,-760 464.19,-753"/>
</g>
<!-- Node31 -->
<g id="node25" class="node">
<title>Node31</title>
<g id="a_node25"><a xlink:href="classDynExpInstr_1_1PositionerStage.html" target="_top" xlink:title="Implementation of a meta instrument to control single&#45;axis positioner stages.">
<polygon fill="white" stroke="black" points="513.5,-690 513.5,-709 671.5,-709 671.5,-690 513.5,-690"/>
<text text-anchor="middle" x="592.5" y="-697" font-family="Helvetica,sans-Serif" font-size="10.00">DynExpInstr::PositionerStage</text>
</a>
</g>
</g>
<!-- Node4&#45;&gt;Node31 -->
<g id="edge24" class="edge">
<title>Node4&#45;&gt;Node31</title>
<path fill="none" stroke="midnightblue" d="M430.56,-744.25C468.43,-733.72 522.3,-718.74 557.08,-709.07"/>
<polygon fill="midnightblue" stroke="midnightblue" points="429.51,-740.91 420.81,-746.96 431.38,-747.65 429.51,-740.91"/>
</g>
<!-- Node35 -->
<g id="node29" class="node">
<title>Node35</title>
<g id="a_node29"><a xlink:href="classDynExpInstr_1_1Spectrometer.html" target="_top" xlink:title="Meta instrument for a spectrometer.">
<polygon fill="white" stroke="black" points="518.5,-624 518.5,-643 666.5,-643 666.5,-624 518.5,-624"/>
<text text-anchor="middle" x="592.5" y="-631" font-family="Helvetica,sans-Serif" font-size="10.00">DynExpInstr::Spectrometer</text>
</a>
</g>
</g>
<!-- Node4&#45;&gt;Node35 -->
<g id="edge28" class="edge">
<title>Node4&#45;&gt;Node35</title>
<path fill="none" stroke="midnightblue" d="M405.91,-740.41C426.13,-724.11 459.1,-698.75 490,-680.5 515.41,-665.49 546.43,-651.73 567.44,-643.04"/>
<polygon fill="midnightblue" stroke="midnightblue" points="403.62,-737.77 398.07,-746.8 408.04,-743.19 403.62,-737.77"/>
</g>
<!-- Node6 -->
<g id="node6" class="node">
<title>Node6</title>
<g id="a_node6"><a xlink:href="classDynExpInstr_1_1WidefieldLocalization.html" target="_top" xlink:title=" ">
<polygon fill="white" stroke="black" points="765,-1016 765,-1035 951,-1035 951,-1016 765,-1016"/>
<text text-anchor="middle" x="858" y="-1023" font-family="Helvetica,sans-Serif" font-size="10.00">DynExpInstr::WidefieldLocalization</text>
</a>
</g>
</g>
<!-- Node5&#45;&gt;Node6 -->
<g id="edge5" class="edge">
<title>Node5&#45;&gt;Node6</title>
<path fill="none" stroke="midnightblue" d="M705.37,-1019.17C725.2,-1020 745.65,-1020.85 764.87,-1021.65"/>
<polygon fill="midnightblue" stroke="midnightblue" points="705.51,-1015.67 695.38,-1018.75 705.22,-1022.67 705.51,-1015.67"/>
</g>
<!-- Node8 -->
<g id="node8" class="node">
<title>Node8</title>
<g id="a_node8"><a xlink:href="classDynExpInstr_1_1DummyCamera.html" target="_top" xlink:title=" ">
<polygon fill="white" stroke="black" points="778.5,-978 778.5,-997 937.5,-997 937.5,-978 778.5,-978"/>
<text text-anchor="middle" x="858" y="-985" font-family="Helvetica,sans-Serif" font-size="10.00">DynExpInstr::DummyCamera</text>
</a>
</g>
</g>
<!-- Node7&#45;&gt;Node8 -->
<g id="edge7" class="edge">
<title>Node7&#45;&gt;Node8</title>
<path fill="none" stroke="midnightblue" d="M662.76,-959.49C702.46,-965.21 752,-972.36 791.12,-978"/>
<polygon fill="midnightblue" stroke="midnightblue" points="663.03,-955.99 652.63,-958.03 662.03,-962.92 663.03,-955.99"/>
</g>
<!-- Node9 -->
<g id="node9" class="node">
<title>Node9</title>
<g id="a_node9"><a xlink:href="classDynExpInstr_1_1PVCam.html" target="_top" xlink:title=" ">
<polygon fill="white" stroke="black" points="799.5,-940 799.5,-959 916.5,-959 916.5,-940 799.5,-940"/>
<text text-anchor="middle" x="858" y="-947" font-family="Helvetica,sans-Serif" font-size="10.00">DynExpInstr::PVCam</text>
</a>
</g>
</g>
<!-- Node7&#45;&gt;Node9 -->
<g id="edge8" class="edge">
<title>Node7&#45;&gt;Node9</title>
<path fill="none" stroke="midnightblue" d="M662.64,-949.5C705.22,-949.5 759.17,-949.5 799.42,-949.5"/>
<polygon fill="midnightblue" stroke="midnightblue" points="662.63,-946 652.63,-949.5 662.63,-953 662.63,-946"/>
</g>
<!-- Node11 -->
<g id="node11" class="node">
<title>Node11</title>
<g id="a_node11"><a xlink:href="classDynExpInstr_1_1FunctionGenerator.html" target="_top" xlink:title="Function generator meta instrument based on the data stream meta instrument to generate waveforms by ...">
<polygon fill="white" stroke="black" points="772,-902 772,-921 944,-921 944,-902 772,-902"/>
<text text-anchor="middle" x="858" y="-909" font-family="Helvetica,sans-Serif" font-size="10.00">DynExpInstr::FunctionGenerator</text>
</a>
</g>
</g>
<!-- Node10&#45;&gt;Node11 -->
<g id="edge10" class="edge">
<title>Node10&#45;&gt;Node11</title>
<path fill="none" stroke="midnightblue" d="M625.01,-820.94C652.79,-832.7 694.43,-850.11 731,-864.5 765.11,-877.93 804.77,-892.56 830.35,-901.87"/>
<polygon fill="midnightblue" stroke="midnightblue" points="626.36,-817.71 615.79,-817.03 623.63,-824.16 626.36,-817.71"/>
</g>
<!-- Node21 -->
<g id="node17" class="node">
<title>Node21</title>
<g id="a_node17"><a xlink:href="classDynExpInstr_1_1InputPort.html" target="_top" xlink:title="Generic input port meta instrument based on the data stream meta instrument to read data from hardwar...">
<polygon fill="white" stroke="black" points="795,-836 795,-855 921,-855 921,-836 795,-836"/>
<text text-anchor="middle" x="858" y="-843" font-family="Helvetica,sans-Serif" font-size="10.00">DynExpInstr::InputPort</text>
</a>
</g>
</g>
<!-- Node10&#45;&gt;Node21 -->
<g id="edge16" class="edge">
<title>Node10&#45;&gt;Node21</title>
<path fill="none" stroke="midnightblue" d="M669.57,-818.47C709.34,-824.21 757.4,-831.14 794.9,-836.54"/>
<polygon fill="midnightblue" stroke="midnightblue" points="670.05,-815 659.65,-817.04 669.05,-821.93 670.05,-815"/>
</g>
<!-- Node26 -->
<g id="node20" class="node">
<title>Node26</title>
<g id="a_node20"><a xlink:href="classDynExpInstr_1_1LockinAmplifier.html" target="_top" xlink:title="Meta instrument for a lock&#45;in amplifier based on the data stream meta instrument.">
<polygon fill="white" stroke="black" points="779,-798 779,-817 937,-817 937,-798 779,-798"/>
<text text-anchor="middle" x="858" y="-805" font-family="Helvetica,sans-Serif" font-size="10.00">DynExpInstr::LockinAmplifier</text>
</a>
</g>
</g>
<!-- Node10&#45;&gt;Node26 -->
<g id="edge19" class="edge">
<title>Node10&#45;&gt;Node26</title>
<path fill="none" stroke="midnightblue" d="M699.78,-807.5C726.15,-807.5 753.95,-807.5 778.71,-807.5"/>
<polygon fill="midnightblue" stroke="midnightblue" points="699.75,-804 689.75,-807.5 699.75,-811 699.75,-804"/>
</g>
<!-- Node28 -->
<g id="node22" class="node">
<title>Node28</title>
<g id="a_node22"><a xlink:href="classDynExpInstr_1_1TimeTagger.html" target="_top" xlink:title="Meta instrument for a time tagging device to assign timestamps to (e.g. photon) detection events base...">
<polygon fill="white" stroke="black" points="788.5,-760 788.5,-779 927.5,-779 927.5,-760 788.5,-760"/>
<text text-anchor="middle" x="858" y="-767" font-family="Helvetica,sans-Serif" font-size="10.00">DynExpInstr::TimeTagger</text>
</a>
</g>
</g>
<!-- Node10&#45;&gt;Node28 -->
<g id="edge21" class="edge">
<title>Node10&#45;&gt;Node28</title>
<path fill="none" stroke="midnightblue" d="M669.73,-796.51C708.04,-790.98 754.01,-784.35 790.82,-779.04"/>
<polygon fill="midnightblue" stroke="midnightblue" points="669.05,-793.07 659.65,-797.96 670.05,-800 669.05,-793.07"/>
</g>
<!-- Node12 -->
<g id="node12" class="node">
<title>Node12</title>
<g id="a_node12"><a xlink:href="classDynExpInstr_1_1DummyDataStreamInstrument.html" target="_top" xlink:title=" ">
<polygon fill="white" stroke="black" points="1022.5,-1038.5 1022.5,-1068.5 1201.5,-1068.5 1201.5,-1038.5 1022.5,-1038.5"/>
<text text-anchor="start" x="1030.5" y="-1056.5" font-family="Helvetica,sans-Serif" font-size="10.00">DynExpInstr::DummyDataStream</text>
<text text-anchor="middle" x="1112" y="-1045.5" font-family="Helvetica,sans-Serif" font-size="10.00">Instrument</text>
</a>
</g>
</g>
<!-- Node11&#45;&gt;Node12 -->
<g id="edge11" class="edge">
<title>Node11&#45;&gt;Node12</title>
<path fill="none" stroke="midnightblue" d="M954.15,-914.5C965.35,-918.01 975.98,-923.15 985,-930.5 1020.96,-959.83 986.89,-997.05 1021,-1028.5 1025.17,-1032.35 1029.89,-1035.61 1034.92,-1038.38"/>
<polygon fill="midnightblue" stroke="midnightblue" points="954.76,-911.03 944.19,-911.81 952.93,-917.79 954.76,-911.03"/>
</g>
<!-- Node13 -->
<g id="node13" class="node">
<title>Node13</title>
<g id="a_node13"><a xlink:href="classDynExpInstr_1_1OutputPort.html" target="_top" xlink:title="Generic output port meta instrument based on the data stream and function generator meta instruments ...">
<polygon fill="white" stroke="red" points="1045,-1000 1045,-1019 1179,-1019 1179,-1000 1045,-1000"/>
<text text-anchor="middle" x="1112" y="-1007" font-family="Helvetica,sans-Serif" font-size="10.00">DynExpInstr::OutputPort</text>
</a>
</g>
</g>
<!-- Node11&#45;&gt;Node13 -->
<g id="edge12" class="edge">
<title>Node11&#45;&gt;Node13</title>
<path fill="none" stroke="midnightblue" d="M953.93,-916.45C964.97,-919.68 975.62,-924.22 985,-930.5 1010.84,-947.8 995.68,-972.45 1021,-990.5 1028.15,-995.6 1036.39,-999.38 1044.91,-1002.18"/>
<polygon fill="midnightblue" stroke="midnightblue" points="954.7,-913.04 944.14,-913.94 952.96,-919.82 954.7,-913.04"/>
</g>
<!-- Node18 -->
<g id="node14" class="node">
<title>Node18</title>
<g id="a_node14"><a xlink:href="classDynExpInstr_1_1RS__SMB100B.html" target="_top" xlink:title=" ">
<polygon fill="white" stroke="black" points="1039,-962 1039,-981 1185,-981 1185,-962 1039,-962"/>
<text text-anchor="middle" x="1112" y="-969" font-family="Helvetica,sans-Serif" font-size="10.00">DynExpInstr::RS_SMB100B</text>
</a>
</g>
</g>
<!-- Node11&#45;&gt;Node18 -->
<g id="edge13" class="edge">
<title>Node11&#45;&gt;Node18</title>
<path fill="none" stroke="midnightblue" d="M954.29,-921.7C964.81,-924.05 975.23,-926.94 985,-930.5 1002.62,-936.91 1003.57,-945.57 1021,-952.5 1030.65,-956.33 1041.2,-959.45 1051.57,-961.96"/>
<polygon fill="midnightblue" stroke="midnightblue" points="954.71,-918.22 944.2,-919.61 953.29,-925.07 954.71,-918.22"/>
</g>
<!-- Node19 -->
<g id="node15" class="node">
<title>Node19</title>
<g id="a_node15"><a xlink:href="classDynExpInstr_1_1RS__SMC100A.html" target="_top" xlink:title=" ">
<polygon fill="white" stroke="black" points="1039,-924 1039,-943 1185,-943 1185,-924 1039,-924"/>
<text text-anchor="middle" x="1112" y="-931" font-family="Helvetica,sans-Serif" font-size="10.00">DynExpInstr::RS_SMC100A</text>
</a>
</g>
</g>
<!-- Node11&#45;&gt;Node19 -->
<g id="edge14" class="edge">
<title>Node11&#45;&gt;Node19</title>
<path fill="none" stroke="midnightblue" d="M954.51,-919.84C982.46,-922.28 1012.55,-924.9 1038.8,-927.2"/>
<polygon fill="midnightblue" stroke="midnightblue" points="954.58,-916.33 944.32,-918.95 953.97,-923.3 954.58,-916.33"/>
</g>
<!-- Node20 -->
<g id="node16" class="node">
<title>Node20</title>
<g id="a_node16"><a xlink:href="classDynExpInstr_1_1SwabianInstrumentsPulseStreamer.html" target="_top" xlink:title=" ">
<polygon fill="white" stroke="black" points="1021,-874.5 1021,-904.5 1203,-904.5 1203,-874.5 1021,-874.5"/>
<text text-anchor="start" x="1029" y="-892.5" font-family="Helvetica,sans-Serif" font-size="10.00">DynExpInstr::SwabianInstruments</text>
<text text-anchor="middle" x="1112" y="-881.5" font-family="Helvetica,sans-Serif" font-size="10.00">PulseStreamer</text>
</a>
</g>
</g>
<!-- Node11&#45;&gt;Node20 -->
<g id="edge15" class="edge">
<title>Node11&#45;&gt;Node20</title>
<path fill="none" stroke="midnightblue" d="M954.51,-903.16C976.18,-901.27 999.14,-899.27 1020.6,-897.39"/>
<polygon fill="midnightblue" stroke="midnightblue" points="953.97,-899.7 944.32,-904.05 954.58,-906.67 953.97,-899.7"/>
</g>
<!-- Node22 -->
<g id="node18" class="node">
<title>Node22</title>
<g id="a_node18"><a xlink:href="classDynExpInstr_1_1AnalogIn.html" target="_top" xlink:title="Meta instrument for a single analog input port based on the data stream and generic input port meta i...">
<polygon fill="white" stroke="red" points="1049.5,-836 1049.5,-855 1174.5,-855 1174.5,-836 1049.5,-836"/>
<text text-anchor="middle" x="1112" y="-843" font-family="Helvetica,sans-Serif" font-size="10.00">DynExpInstr::AnalogIn</text>
</a>
</g>
</g>
<!-- Node21&#45;&gt;Node22 -->
<g id="edge17" class="edge">
<title>Node21&#45;&gt;Node22</title>
<path fill="none" stroke="midnightblue" d="M931.59,-845.5C968.89,-845.5 1013.84,-845.5 1049.42,-845.5"/>
<polygon fill="midnightblue" stroke="midnightblue" points="931.29,-842 921.29,-845.5 931.29,-849 931.29,-842"/>
</g>
<!-- Node24 -->
<g id="node19" class="node">
<title>Node24</title>
<g id="a_node19"><a xlink:href="classDynExpInstr_1_1DigitalIn.html" target="_top" xlink:title="Meta instrument for a single digital input port based on the data stream and generic input port meta ...">
<polygon fill="white" stroke="red" points="1050.5,-798 1050.5,-817 1173.5,-817 1173.5,-798 1050.5,-798"/>
<text text-anchor="middle" x="1112" y="-805" font-family="Helvetica,sans-Serif" font-size="10.00">DynExpInstr::DigitalIn</text>
</a>
</g>
</g>
<!-- Node21&#45;&gt;Node24 -->
<g id="edge18" class="edge">
<title>Node21&#45;&gt;Node24</title>
<path fill="none" stroke="midnightblue" d="M931.19,-834.61C968.87,-828.93 1014.45,-822.06 1050.29,-816.65"/>
<polygon fill="midnightblue" stroke="midnightblue" points="930.66,-831.15 921.29,-836.11 931.7,-838.08 930.66,-831.15"/>
</g>
<!-- Node27 -->
<g id="node21" class="node">
<title>Node27</title>
<g id="a_node21"><a xlink:href="classDynExpInstr_1_1ZI__MFLI.html" target="_top" xlink:title=" ">
<polygon fill="white" stroke="black" points="1052,-760 1052,-779 1172,-779 1172,-760 1052,-760"/>
<text text-anchor="middle" x="1112" y="-767" font-family="Helvetica,sans-Serif" font-size="10.00">DynExpInstr::ZI_MFLI</text>
</a>
</g>
</g>
<!-- Node26&#45;&gt;Node27 -->
<g id="edge20" class="edge">
<title>Node26&#45;&gt;Node27</title>
<path fill="none" stroke="midnightblue" d="M932.24,-796.46C970.17,-790.74 1015.9,-783.84 1051.61,-778.46"/>
<polygon fill="midnightblue" stroke="midnightblue" points="931.63,-793.01 922.26,-797.96 932.68,-799.93 931.63,-793.01"/>
</g>
<!-- Node29 -->
<g id="node23" class="node">
<title>Node29</title>
<g id="a_node23"><a xlink:href="classDynExpInstr_1_1QutoolsQuTAG.html" target="_top" xlink:title=" ">
<polygon fill="white" stroke="black" points="1036,-722 1036,-741 1188,-741 1188,-722 1036,-722"/>
<text text-anchor="middle" x="1112" y="-729" font-family="Helvetica,sans-Serif" font-size="10.00">DynExpInstr::QutoolsQuTAG</text>
</a>
</g>
</g>
<!-- Node28&#45;&gt;Node29 -->
<g id="edge22" class="edge">
<title>Node28&#45;&gt;Node29</title>
<path fill="none" stroke="midnightblue" d="M932.37,-758.44C968.91,-752.93 1012.66,-746.33 1047.71,-741.04"/>
<polygon fill="midnightblue" stroke="midnightblue" points="931.63,-755.01 922.26,-759.96 932.68,-761.93 931.63,-755.01"/>
</g>
<!-- Node32 -->
<g id="node26" class="node">
<title>Node32</title>
<g id="a_node26"><a xlink:href="classDynExpInstr_1_1NenionLeakvalveF3.html" target="_top" xlink:title=" ">
<polygon fill="white" stroke="black" points="768.5,-722 768.5,-741 947.5,-741 947.5,-722 768.5,-722"/>
<text text-anchor="middle" x="858" y="-729" font-family="Helvetica,sans-Serif" font-size="10.00">DynExpInstr::NenionLeakvalveF3</text>
</a>
</g>
</g>
<!-- Node31&#45;&gt;Node32 -->
<g id="edge25" class="edge">
<title>Node31&#45;&gt;Node32</title>
<path fill="none" stroke="midnightblue" d="M681.86,-710.23C713.14,-714.03 748.1,-718.27 778.5,-721.97"/>
<polygon fill="midnightblue" stroke="midnightblue" points="682.19,-706.75 671.85,-709.01 681.35,-713.69 682.19,-706.75"/>
</g>
<!-- Node33 -->
<g id="node27" class="node">
<title>Node33</title>
<g id="a_node27"><a xlink:href="classDynExpInstr_1_1PI__C__862.html" target="_top" xlink:title=" ">
<polygon fill="white" stroke="black" points="795,-684 795,-703 921,-703 921,-684 795,-684"/>
<text text-anchor="middle" x="858" y="-691" font-family="Helvetica,sans-Serif" font-size="10.00">DynExpInstr::PI_C_862</text>
</a>
</g>
</g>
<!-- Node31&#45;&gt;Node33 -->
<g id="edge26" class="edge">
<title>Node31&#45;&gt;Node33</title>
<path fill="none" stroke="midnightblue" d="M682.13,-697.48C719.13,-696.64 761.22,-695.68 794.83,-694.92"/>
<polygon fill="midnightblue" stroke="midnightblue" points="681.76,-693.99 671.85,-697.72 681.92,-700.99 681.76,-693.99"/>
</g>
<!-- Node34 -->
<g id="node28" class="node">
<title>Node34</title>
<g id="a_node28"><a xlink:href="classDynExpInstr_1_1SmarAct.html" target="_top" xlink:title=" ">
<polygon fill="white" stroke="black" points="796.5,-646 796.5,-665 919.5,-665 919.5,-646 796.5,-646"/>
<text text-anchor="middle" x="858" y="-653" font-family="Helvetica,sans-Serif" font-size="10.00">DynExpInstr::SmarAct</text>
</a>
</g>
</g>
<!-- Node31&#45;&gt;Node34 -->
<g id="edge27" class="edge">
<title>Node31&#45;&gt;Node34</title>
<path fill="none" stroke="midnightblue" d="M653.75,-688.14C677.76,-683.72 705.66,-678.71 731,-674.5 752.28,-670.96 775.62,-667.36 796.38,-664.26"/>
<polygon fill="midnightblue" stroke="midnightblue" points="652.92,-684.73 643.72,-689.99 654.19,-691.62 652.92,-684.73"/>
</g>
<!-- Node36 -->
<g id="node30" class="node">
<title>Node36</title>
<g id="a_node30"><a xlink:href="classDynExpInstr_1_1gRPCInstrument.html" target="_top" xlink:title=" ">
<polygon fill="white" stroke="red" points="731,-586 731,-627 985,-627 985,-586 731,-586"/>
<text text-anchor="start" x="739" y="-615" font-family="Helvetica,sans-Serif" font-size="10.00">DynExpInstr::gRPCInstrument</text>
<text text-anchor="start" x="739" y="-604" font-family="Helvetica,sans-Serif" font-size="10.00">&lt; Spectrometer, 0, DynExpProto</text>
<text text-anchor="middle" x="858" y="-593" font-family="Helvetica,sans-Serif" font-size="10.00">::NetworkSpectrometer::NetworkSpectrometer &gt;</text>
</a>
</g>
</g>
<!-- Node35&#45;&gt;Node36 -->
<g id="edge29" class="edge">
<title>Node35&#45;&gt;Node36</title>
<path fill="none" stroke="midnightblue" d="M676.58,-624.99C693.89,-623.21 712.51,-621.31 730.97,-619.41"/>
<polygon fill="midnightblue" stroke="midnightblue" points="676.14,-621.51 666.55,-626.01 676.85,-628.48 676.14,-621.51"/>
</g>
<!-- Node39 -->
<g id="node32" class="node">
<title>Node39</title>
<g id="a_node32"><a xlink:href="classDynExpModule_1_1gRPCModule.html" target="_top" xlink:title=" ">
<polygon fill="white" stroke="black" points="513.5,-487.5 513.5,-517.5 671.5,-517.5 671.5,-487.5 513.5,-487.5"/>
<text text-anchor="start" x="521.5" y="-505.5" font-family="Helvetica,sans-Serif" font-size="10.00">DynExpModule::gRPCModule</text>
<text text-anchor="middle" x="592.5" y="-494.5" font-family="Helvetica,sans-Serif" font-size="10.00">&lt; gRPCServices... &gt;</text>
</a>
</g>
</g>
<!-- Node38&#45;&gt;Node39 -->
<g id="edge31" class="edge">
<title>Node38&#45;&gt;Node39</title>
<path fill="none" stroke="midnightblue" d="M400.6,-263.18C438.75,-311 543.51,-442.33 579.31,-487.22"/>
<polygon fill="midnightblue" stroke="midnightblue" points="403.26,-260.9 394.29,-255.26 397.79,-265.26 403.26,-260.9"/>
</g>
<!-- Node47 -->
<g id="node35" class="node">
<title>Node47</title>
<g id="a_node35"><a xlink:href="classDynExp_1_1QModuleBase.html" target="_top" xlink:title="Base class for modules with a Qt&#45;based user interface. Derive from this class to implement modules wi...">
<polygon fill="white" stroke="black" points="528.5,-258 528.5,-277 656.5,-277 656.5,-258 528.5,-258"/>
<text text-anchor="middle" x="592.5" y="-265" font-family="Helvetica,sans-Serif" font-size="10.00">DynExp::QModuleBase</text>
</a>
</g>
</g>
<!-- Node38&#45;&gt;Node47 -->
<g id="edge34" class="edge">
<title>Node38&#45;&gt;Node47</title>
<path fill="none" stroke="midnightblue" d="M455.75,-252.93C479.21,-255.45 505.27,-258.25 528.25,-260.71"/>
<polygon fill="midnightblue" stroke="midnightblue" points="455.84,-249.42 445.52,-251.83 455.09,-256.38 455.84,-249.42"/>
</g>
<!-- Node59 -->
<g id="node47" class="node">
<title>Node59</title>
<g id="a_node47"><a xlink:href="classDynExpModule_1_1ArbitraryFunctionFromCSV.html" target="_top" xlink:title=" ">
<polygon fill="white" stroke="black" points="502.5,-208.5 502.5,-238.5 682.5,-238.5 682.5,-208.5 502.5,-208.5"/>
<text text-anchor="start" x="510.5" y="-226.5" font-family="Helvetica,sans-Serif" font-size="10.00">DynExpModule::ArbitraryFunction</text>
<text text-anchor="middle" x="592.5" y="-215.5" font-family="Helvetica,sans-Serif" font-size="10.00">FromCSV</text>
</a>
</g>
</g>
<!-- Node38&#45;&gt;Node59 -->
<g id="edge46" class="edge">
<title>Node38&#45;&gt;Node59</title>
<path fill="none" stroke="midnightblue" d="M455.71,-238.07C470.69,-236.46 486.74,-234.74 502.37,-233.06"/>
<polygon fill="midnightblue" stroke="midnightblue" points="455.09,-234.62 445.52,-239.17 455.84,-241.58 455.09,-234.62"/>
</g>
<!-- Node60 -->
<g id="node48" class="node">
<title>Node60</title>
<g id="a_node48"><a xlink:href="classDynExpModule_1_1StreamManipulator.html" target="_top" xlink:title="Module to process data stored in data stream instrument(s) with a Python script and to write the resu...">
<polygon fill="white" stroke="black" points="497.5,-170 497.5,-189 687.5,-189 687.5,-170 497.5,-170"/>
<text text-anchor="middle" x="592.5" y="-177" font-family="Helvetica,sans-Serif" font-size="10.00">DynExpModule::StreamManipulator</text>
</a>
</g>
</g>
<!-- Node38&#45;&gt;Node60 -->
<g id="edge47" class="edge">
<title>Node38&#45;&gt;Node60</title>
<path fill="none" stroke="midnightblue" d="M413.33,-231.14C433.82,-220.72 463.03,-207.01 490,-198.5 501.97,-194.72 514.98,-191.59 527.57,-189.03"/>
<polygon fill="midnightblue" stroke="midnightblue" points="411.57,-228.11 404.3,-235.81 414.79,-234.33 411.57,-228.11"/>
</g>
<!-- Node61 -->
<g id="node49" class="node">
<title>Node61</title>
<g id="a_node49"><a xlink:href="classDynExpModule_1_1gRPCModule.html" target="_top" xlink:title="Module template for building gRPC servers listening on TCP sockets for network instruments to connect...">
<polygon fill="white" stroke="black" points="513.5,-120.5 513.5,-150.5 671.5,-150.5 671.5,-120.5 513.5,-120.5"/>
<text text-anchor="start" x="521.5" y="-138.5" font-family="Helvetica,sans-Serif" font-size="10.00">DynExpModule::gRPCModule</text>
<text text-anchor="middle" x="592.5" y="-127.5" font-family="Helvetica,sans-Serif" font-size="10.00">&lt; gRPCServices &gt;</text>
</a>
</g>
</g>
<!-- Node38&#45;&gt;Node61 -->
<g id="edge48" class="edge">
<title>Node38&#45;&gt;Node61</title>
<path fill="none" stroke="midnightblue" d="M402.15,-228.74C421.12,-209.42 454.92,-178.08 490,-160.5 497.71,-156.64 506.05,-153.35 514.52,-150.55"/>
<polygon fill="midnightblue" stroke="midnightblue" points="399.6,-226.34 395.19,-235.97 404.64,-231.19 399.6,-226.34"/>
</g>
<!-- Node40 -->
<g id="node33" class="node">
<title>Node40</title>
<g id="a_node33"><a xlink:href="classDynExpModule_1_1NetworkDataStreamInstrumentT.html" target="_top" xlink:title=" ">
<polygon fill="white" stroke="red" points="753.5,-536.5 753.5,-566.5 962.5,-566.5 962.5,-536.5 753.5,-536.5"/>
<text text-anchor="start" x="761.5" y="-554.5" font-family="Helvetica,sans-Serif" font-size="10.00">DynExpModule::NetworkData</text>
<text text-anchor="middle" x="858" y="-543.5" font-family="Helvetica,sans-Serif" font-size="10.00">StreamInstrumentT&lt; gRPCServices... &gt;</text>
</a>
</g>
</g>
<!-- Node39&#45;&gt;Node40 -->
<g id="edge32" class="edge">
<title>Node39&#45;&gt;Node40</title>
<path fill="none" stroke="midnightblue" d="M682.03,-518.96C712.49,-524.63 746.41,-530.93 776.22,-536.48"/>
<polygon fill="midnightblue" stroke="midnightblue" points="682.32,-515.46 671.85,-517.07 681.04,-522.34 682.32,-515.46"/>
</g>
<!-- Node46 -->
<g id="node34" class="node">
<title>Node46</title>
<g id="a_node34"><a xlink:href="classDynExpModule_1_1NetworkDataStreamInstrumentT.html" target="_top" xlink:title=" ">
<polygon fill="white" stroke="black" points="758,-487.5 758,-517.5 958,-517.5 958,-487.5 758,-487.5"/>
<text text-anchor="start" x="766" y="-505.5" font-family="Helvetica,sans-Serif" font-size="10.00">DynExpModule::NetworkData</text>
<text text-anchor="middle" x="858" y="-494.5" font-family="Helvetica,sans-Serif" font-size="10.00">StreamInstrumentT&lt; gRPCServices &gt;</text>
</a>
</g>
</g>
<!-- Node39&#45;&gt;Node46 -->
<g id="edge33" class="edge">
<title>Node39&#45;&gt;Node46</title>
<path fill="none" stroke="midnightblue" d="M682.13,-502.5C706.47,-502.5 733.01,-502.5 757.9,-502.5"/>
<polygon fill="midnightblue" stroke="midnightblue" points="681.85,-499 671.85,-502.5 681.85,-506 681.85,-499"/>
</g>
<!-- Node48 -->
<g id="node36" class="node">
<title>Node48</title>
<g id="a_node36"><a xlink:href="classDynExpModule_1_1ImageViewer_1_1ImageViewer.html" target="_top" xlink:title=" ">
<polygon fill="white" stroke="black" points="777.5,-438.5 777.5,-468.5 938.5,-468.5 938.5,-438.5 777.5,-438.5"/>
<text text-anchor="start" x="785.5" y="-456.5" font-family="Helvetica,sans-Serif" font-size="10.00">DynExpModule::ImageViewer</text>
<text text-anchor="middle" x="858" y="-445.5" font-family="Helvetica,sans-Serif" font-size="10.00">::ImageViewer</text>
</a>
</g>
</g>
<!-- Node47&#45;&gt;Node48 -->
<g id="edge35" class="edge">
<title>Node47&#45;&gt;Node48</title>
<path fill="none" stroke="midnightblue" d="M603.55,-285.94C623.19,-320.07 670.09,-392.82 731,-428.5 745.05,-436.73 761.33,-442.3 777.43,-446.05"/>
<polygon fill="midnightblue" stroke="midnightblue" points="606.5,-284.04 598.55,-277.04 600.4,-287.47 606.5,-284.04"/>
</g>
<!-- Node49 -->
<g id="node37" class="node">
<title>Node49</title>
<g id="a_node37"><a xlink:href="classDynExpModule_1_1InputPortReader.html" target="_top" xlink:title=" ">
<polygon fill="white" stroke="black" points="770.5,-400 770.5,-419 945.5,-419 945.5,-400 770.5,-400"/>
<text text-anchor="middle" x="858" y="-407" font-family="Helvetica,sans-Serif" font-size="10.00">DynExpModule::InputPortReader</text>
</a>
</g>
</g>
<!-- Node47&#45;&gt;Node49 -->
<g id="edge36" class="edge">
<title>Node47&#45;&gt;Node49</title>
<path fill="none" stroke="midnightblue" d="M607.38,-285.03C630.06,-312.31 677.89,-364.39 731,-389.5 743.21,-395.27 756.76,-399.43 770.31,-402.42"/>
<polygon fill="midnightblue" stroke="midnightblue" points="609.96,-282.65 600.93,-277.11 604.53,-287.08 609.96,-282.65"/>
</g>
<!-- Node50 -->
<g id="node38" class="node">
<title>Node50</title>
<g id="a_node38"><a xlink:href="classDynExpModule_1_1LockinAmplifierControl.html" target="_top" xlink:title=" ">
<polygon fill="white" stroke="black" points="772,-350.5 772,-380.5 944,-380.5 944,-350.5 772,-350.5"/>
<text text-anchor="start" x="780" y="-368.5" font-family="Helvetica,sans-Serif" font-size="10.00">DynExpModule::LockinAmplifier</text>
<text text-anchor="middle" x="858" y="-357.5" font-family="Helvetica,sans-Serif" font-size="10.00">Control</text>
</a>
</g>
</g>
<!-- Node47&#45;&gt;Node50 -->
<g id="edge37" class="edge">
<title>Node47&#45;&gt;Node50</title>
<path fill="none" stroke="midnightblue" d="M616.68,-282.53C643.26,-299.11 688.64,-325.42 731,-340.5 743.92,-345.1 757.91,-348.93 771.7,-352.1"/>
<polygon fill="midnightblue" stroke="midnightblue" points="618.42,-279.49 608.1,-277.11 614.68,-285.41 618.42,-279.49"/>
</g>
<!-- Node51 -->
<g id="node39" class="node">
<title>Node51</title>
<g id="a_node39"><a xlink:href="classDynExpModule_1_1ODMR_1_1ODMR.html" target="_top" xlink:title=" ">
<polygon fill="white" stroke="black" points="794.5,-301.5 794.5,-331.5 921.5,-331.5 921.5,-301.5 794.5,-301.5"/>
<text text-anchor="start" x="802.5" y="-319.5" font-family="Helvetica,sans-Serif" font-size="10.00">DynExpModule::ODMR</text>
<text text-anchor="middle" x="858" y="-308.5" font-family="Helvetica,sans-Serif" font-size="10.00">::ODMR</text>
</a>
</g>
</g>
<!-- Node47&#45;&gt;Node51 -->
<g id="edge38" class="edge">
<title>Node47&#45;&gt;Node51</title>
<path fill="none" stroke="midnightblue" d="M654.71,-278.88C696.66,-286.68 752.16,-297 794.41,-304.86"/>
<polygon fill="midnightblue" stroke="midnightblue" points="655.09,-275.39 644.62,-277.01 653.81,-282.28 655.09,-275.39"/>
</g>
<!-- Node52 -->
<g id="node40" class="node">
<title>Node52</title>
<g id="a_node40"><a xlink:href="classDynExpModule_1_1OutputPortWriter.html" target="_top" xlink:title=" ">
<polygon fill="white" stroke="black" points="783.5,-252.5 783.5,-282.5 932.5,-282.5 932.5,-252.5 783.5,-252.5"/>
<text text-anchor="start" x="791.5" y="-270.5" font-family="Helvetica,sans-Serif" font-size="10.00">DynExpModule::OutputPort</text>
<text text-anchor="middle" x="858" y="-259.5" font-family="Helvetica,sans-Serif" font-size="10.00">Writer</text>
</a>
</g>
</g>
<!-- Node47&#45;&gt;Node52 -->
<g id="edge39" class="edge">
<title>Node47&#45;&gt;Node52</title>
<path fill="none" stroke="midnightblue" d="M666.65,-267.5C702.98,-267.5 746.77,-267.5 783.19,-267.5"/>
<polygon fill="midnightblue" stroke="midnightblue" points="666.61,-264 656.61,-267.5 666.61,-271 666.61,-264"/>
</g>
<!-- Node53 -->
<g id="node41" class="node">
<title>Node53</title>
<g id="a_node41"><a xlink:href="classDynExpModule_1_1SignalDesigner.html" target="_top" xlink:title=" ">
<polygon fill="white" stroke="black" points="773,-214 773,-233 943,-233 943,-214 773,-214"/>
<text text-anchor="middle" x="858" y="-221" font-family="Helvetica,sans-Serif" font-size="10.00">DynExpModule::SignalDesigner</text>
</a>
</g>
</g>
<!-- Node47&#45;&gt;Node53 -->
<g id="edge40" class="edge">
<title>Node47&#45;&gt;Node53</title>
<path fill="none" stroke="midnightblue" d="M653.75,-256.14C677.76,-251.72 705.66,-246.71 731,-242.5 750.53,-239.25 771.81,-235.95 791.22,-233.04"/>
<polygon fill="midnightblue" stroke="midnightblue" points="652.92,-252.73 643.72,-257.99 654.19,-259.62 652.92,-252.73"/>
</g>
<!-- Node54 -->
<g id="node42" class="node">
<title>Node54</title>
<g id="a_node42"><a xlink:href="classDynExpModule_1_1SignalPlotter.html" target="_top" xlink:title=" ">
<polygon fill="white" stroke="black" points="779,-176 779,-195 937,-195 937,-176 779,-176"/>
<text text-anchor="middle" x="858" y="-183" font-family="Helvetica,sans-Serif" font-size="10.00">DynExpModule::SignalPlotter</text>
</a>
</g>
</g>
<!-- Node47&#45;&gt;Node54 -->
<g id="edge41" class="edge">
<title>Node47&#45;&gt;Node54</title>
<path fill="none" stroke="midnightblue" d="M666.57,-259.37C676.53,-256.49 686.3,-252.64 695,-247.5 716.45,-234.81 709.27,-216.71 731,-204.5 745.47,-196.38 762.27,-191.38 778.8,-188.38"/>
<polygon fill="midnightblue" stroke="midnightblue" points="665.4,-256.05 656.58,-261.93 667.14,-262.83 665.4,-256.05"/>
</g>
<!-- Node55 -->
<g id="node43" class="node">
<title>Node55</title>
<g id="a_node43"><a xlink:href="classDynExpModule_1_1SpectrumViewer_1_1SpectrumViewer.html" target="_top" xlink:title=" ">
<polygon fill="white" stroke="black" points="770,-126.5 770,-156.5 946,-156.5 946,-126.5 770,-126.5"/>
<text text-anchor="start" x="778" y="-144.5" font-family="Helvetica,sans-Serif" font-size="10.00">DynExpModule::SpectrumViewer</text>
<text text-anchor="middle" x="858" y="-133.5" font-family="Helvetica,sans-Serif" font-size="10.00">::SpectrumViewer</text>
</a>
</g>
</g>
<!-- Node47&#45;&gt;Node55 -->
<g id="edge42" class="edge">
<title>Node47&#45;&gt;Node55</title>
<path fill="none" stroke="midnightblue" d="M666.54,-261.96C676.83,-258.75 686.7,-254.12 695,-247.5 725.79,-222.93 700.22,-191.09 731,-166.5 742.24,-157.52 755.81,-151.48 769.83,-147.46"/>
<polygon fill="midnightblue" stroke="midnightblue" points="665.35,-258.65 656.59,-264.61 667.16,-265.42 665.35,-258.65"/>
</g>
<!-- Node56 -->
<g id="node44" class="node">
<title>Node56</title>
<g id="a_node44"><a xlink:href="classDynExpModule_1_1Stage1D.html" target="_top" xlink:title=" ">
<polygon fill="white" stroke="black" points="789.5,-88 789.5,-107 926.5,-107 926.5,-88 789.5,-88"/>
<text text-anchor="middle" x="858" y="-95" font-family="Helvetica,sans-Serif" font-size="10.00">DynExpModule::Stage1D</text>
</a>
</g>
</g>
<!-- Node47&#45;&gt;Node56 -->
<g id="edge43" class="edge">
<title>Node47&#45;&gt;Node56</title>
<path fill="none" stroke="midnightblue" d="M666.36,-263.39C676.93,-260.04 686.94,-254.99 695,-247.5 739.24,-206.4 685.85,-156.59 731,-116.5 746.88,-102.4 768.57,-96.2 789.48,-93.96"/>
<polygon fill="midnightblue" stroke="midnightblue" points="665.29,-260.05 656.53,-266.01 667.1,-266.81 665.29,-260.05"/>
</g>
<!-- Node57 -->
<g id="node45" class="node">
<title>Node57</title>
<g id="a_node45"><a xlink:href="classDynExpModule_1_1Trajectory1D.html" target="_top" xlink:title=" ">
<polygon fill="white" stroke="black" points="779,-50 779,-69 937,-69 937,-50 779,-50"/>
<text text-anchor="middle" x="858" y="-57" font-family="Helvetica,sans-Serif" font-size="10.00">DynExpModule::Trajectory1D</text>
</a>
</g>
</g>
<!-- Node47&#45;&gt;Node57 -->
<g id="edge44" class="edge">
<title>Node47&#45;&gt;Node57</title>
<path fill="none" stroke="midnightblue" d="M666.54,-263.85C677.14,-260.45 687.11,-255.27 695,-247.5 749.72,-193.61 675.09,-131.14 731,-78.5 743.97,-66.29 761.24,-59.88 778.82,-56.83"/>
<polygon fill="midnightblue" stroke="midnightblue" points="665.43,-260.53 656.68,-266.49 667.24,-267.29 665.43,-260.53"/>
</g>
<!-- Node58 -->
<g id="node46" class="node">
<title>Node58</title>
<g id="a_node46"><a xlink:href="classDynExpModule_1_1Widefield_1_1WidefieldMicroscope.html" target="_top" xlink:title=" ">
<polygon fill="white" stroke="black" points="787,-0.5 787,-30.5 929,-30.5 929,-0.5 787,-0.5"/>
<text text-anchor="start" x="795" y="-18.5" font-family="Helvetica,sans-Serif" font-size="10.00">DynExpModule::Widefield</text>
<text text-anchor="middle" x="858" y="-7.5" font-family="Helvetica,sans-Serif" font-size="10.00">::WidefieldMicroscope</text>
</a>
</g>
</g>
<!-- Node47&#45;&gt;Node58 -->
<g id="edge45" class="edge">
<title>Node47&#45;&gt;Node58</title>
<path fill="none" stroke="midnightblue" d="M666.6,-264.17C677.24,-260.74 687.21,-255.46 695,-247.5 760.29,-180.74 665.76,-107.31 731,-40.5 745.57,-25.58 766.3,-18.23 786.76,-14.9"/>
<polygon fill="midnightblue" stroke="midnightblue" points="665.44,-260.86 656.69,-266.82 667.25,-267.62 665.44,-260.86"/>
</g>
</g>
</svg>
