<?xml version="1.0" encoding="UTF-8" standalone="no"?>
<!DOCTYPE svg PUBLIC "-//W3C//DTD SVG 1.1//EN"
 "http://www.w3.org/Graphics/SVG/1.1/DTD/svg11.dtd">
<!-- Generated by graphviz version 2.43.0 (0)
 -->
<!-- Title: DynExpModule::OutputPortWriter Pages: 1 -->
<svg width="226pt" height="263pt"
 viewBox="0.00 0.00 226.00 263.00" xmlns="http://www.w3.org/2000/svg" xmlns:xlink="http://www.w3.org/1999/xlink">
<g id="graph0" class="graph" transform="scale(1 1) rotate(0) translate(4 259)">
<title>DynExpModule::OutputPortWriter</title>
<polygon fill="white" stroke="transparent" points="-4,4 -4,-259 222,-259 222,4 -4,4"/>
<!-- Node1 -->
<g id="node1" class="node">
<title>Node1</title>
<g id="a_node1"><a xlink:title=" ">
<polygon fill="#bfbfbf" stroke="black" points="38.5,-0.5 38.5,-30.5 187.5,-30.5 187.5,-0.5 38.5,-0.5"/>
<text text-anchor="start" x="46.5" y="-18.5" font-family="Helvetica,sans-Serif" font-size="10.00">DynExpModule::OutputPort</text>
<text text-anchor="middle" x="113" y="-7.5" font-family="Helvetica,sans-Serif" font-size="10.00">Writer</text>
</a>
</g>
</g>
<!-- Node2 -->
<g id="node2" class="node">
<title>Node2</title>
<g id="a_node2"><a xlink:href="classDynExp_1_1QModuleBase.html" target="_top" xlink:title="Base class for modules with a Qt&#45;based user interface. Derive from this class to implement modules wi...">
<polygon fill="white" stroke="black" points="49,-67.5 49,-86.5 177,-86.5 177,-67.5 49,-67.5"/>
<text text-anchor="middle" x="113" y="-74.5" font-family="Helvetica,sans-Serif" font-size="10.00">DynExp::QModuleBase</text>
</a>
</g>
</g>
<!-- Node2&#45;&gt;Node1 -->
<g id="edge1" class="edge">
<title>Node2&#45;&gt;Node1</title>
<path fill="none" stroke="midnightblue" d="M113,-57.23C113,-48.59 113,-38.5 113,-30.52"/>
<polygon fill="midnightblue" stroke="midnightblue" points="109.5,-57.48 113,-67.48 116.5,-57.48 109.5,-57.48"/>
</g>
<!-- Node3 -->
<g id="node3" class="node">
<title>Node3</title>
<g id="a_node3"><a xlink:href="classDynExp_1_1ModuleBase.html" target="_top" xlink:title="Base class for modules. Modules implement programs on their own (e.g. measurement protocols or server...">
<polygon fill="white" stroke="black" points="53,-123.5 53,-142.5 173,-142.5 173,-123.5 53,-123.5"/>
<text text-anchor="middle" x="113" y="-130.5" font-family="Helvetica,sans-Serif" font-size="10.00">DynExp::ModuleBase</text>
</a>
</g>
</g>
<!-- Node3&#45;&gt;Node2 -->
<g id="edge2" class="edge">
<title>Node3&#45;&gt;Node2</title>
<path fill="none" stroke="midnightblue" d="M113,-112.8C113,-103.91 113,-93.78 113,-86.75"/>
<polygon fill="midnightblue" stroke="midnightblue" points="109.5,-113.08 113,-123.08 116.5,-113.08 109.5,-113.08"/>
</g>
<!-- Node4 -->
<g id="node4" class="node">
<title>Node4</title>
<g id="a_node4"><a xlink:href="classDynExp_1_1RunnableObject.html" target="_top" xlink:title="Defines an Object which possesses a thread it runs in. The RunnableObject can be started and stopped ...">
<polygon fill="white" stroke="black" points="44.5,-179.5 44.5,-198.5 181.5,-198.5 181.5,-179.5 44.5,-179.5"/>
<text text-anchor="middle" x="113" y="-186.5" font-family="Helvetica,sans-Serif" font-size="10.00">DynExp::RunnableObject</text>
</a>
</g>
</g>
<!-- Node4&#45;&gt;Node3 -->
<g id="edge3" class="edge">
<title>Node4&#45;&gt;Node3</title>
<path fill="none" stroke="midnightblue" d="M113,-168.8C113,-159.91 113,-149.78 113,-142.75"/>
<polygon fill="midnightblue" stroke="midnightblue" points="109.5,-169.08 113,-179.08 116.5,-169.08 109.5,-169.08"/>
</g>
<!-- Node5 -->
<g id="node5" class="node">
<title>Node5</title>
<g id="a_node5"><a xlink:href="classUtil_1_1INonCopyable.html" target="_top" xlink:title="Interface to delete copy constructor and copy assignment operator and thus make derived classes non&#45;c...">
<polygon fill="white" stroke="black" points="0,-235.5 0,-254.5 108,-254.5 108,-235.5 0,-235.5"/>
<text text-anchor="middle" x="54" y="-242.5" font-family="Helvetica,sans-Serif" font-size="10.00">Util::INonCopyable</text>
</a>
</g>
</g>
<!-- Node5&#45;&gt;Node4 -->
<g id="edge4" class="edge">
<title>Node5&#45;&gt;Node4</title>
<path fill="none" stroke="midnightblue" d="M70.89,-228.54C81.41,-218.91 94.57,-206.87 103.35,-198.83"/>
<polygon fill="midnightblue" stroke="midnightblue" points="68.49,-225.99 63.48,-235.32 73.22,-231.15 68.49,-225.99"/>
</g>
<!-- Node6 -->
<g id="node6" class="node">
<title>Node6</title>
<g id="a_node6"><a xlink:href="classDynExp_1_1Object.html" target="_top" xlink:title="Base class for all DynExp Objects like hardware adapters (DynExp::HardwareAdapterBase),...">
<polygon fill="white" stroke="black" points="126,-235.5 126,-254.5 218,-254.5 218,-235.5 126,-235.5"/>
<text text-anchor="middle" x="172" y="-242.5" font-family="Helvetica,sans-Serif" font-size="10.00">DynExp::Object</text>
</a>
</g>
</g>
<!-- Node6&#45;&gt;Node4 -->
<g id="edge5" class="edge">
<title>Node6&#45;&gt;Node4</title>
<path fill="none" stroke="midnightblue" d="M155.11,-228.54C144.59,-218.91 131.43,-206.87 122.65,-198.83"/>
<polygon fill="midnightblue" stroke="midnightblue" points="152.78,-231.15 162.52,-235.32 157.51,-225.99 152.78,-231.15"/>
</g>
</g>
</svg>
