<?xml version="1.0" encoding="UTF-8" standalone="no"?>
<!DOCTYPE svg PUBLIC "-//W3C//DTD SVG 1.1//EN"
 "http://www.w3.org/Graphics/SVG/1.1/DTD/svg11.dtd">
<!-- Generated by graphviz version 2.43.0 (0)
 -->
<!-- Title: DynExpInstr::WidefieldLocalizationData Pages: 1 -->
<svg width="661pt" height="61pt"
 viewBox="0.00 0.00 661.00 61.00" xmlns="http://www.w3.org/2000/svg" xmlns:xlink="http://www.w3.org/1999/xlink">
<g id="graph0" class="graph" transform="scale(1 1) rotate(0) translate(4 57)">
<title>DynExpInstr::WidefieldLocalizationData</title>
<polygon fill="white" stroke="transparent" points="-4,4 -4,-57 657,-57 657,4 -4,4"/>
<!-- Node1 -->
<g id="node1" class="node">
<title>Node1</title>
<g id="a_node1"><a xlink:title=" ">
<polygon fill="#bfbfbf" stroke="black" points="444,-17 444,-36 653,-36 653,-17 444,-17"/>
<text text-anchor="middle" x="548.5" y="-24" font-family="Helvetica,sans-Serif" font-size="10.00">DynExpInstr::WidefieldLocalizationData</text>
</a>
</g>
</g>
<!-- Node2 -->
<g id="node2" class="node">
<title>Node2</title>
<g id="a_node2"><a xlink:href="classDynExpInstr_1_1gRPCInstrumentData.html" target="_top" xlink:title=" ">
<polygon fill="white" stroke="black" points="203,-0.5 203,-52.5 408,-52.5 408,-0.5 203,-0.5"/>
<text text-anchor="start" x="211" y="-40.5" font-family="Helvetica,sans-Serif" font-size="10.00">DynExpInstr::gRPCInstrument</text>
<text text-anchor="start" x="211" y="-29.5" font-family="Helvetica,sans-Serif" font-size="10.00">Data&lt; DynExp::InstrumentBase,</text>
<text text-anchor="start" x="211" y="-18.5" font-family="Helvetica,sans-Serif" font-size="10.00"> 0, DynExpProto::WidefieldLocalization</text>
<text text-anchor="middle" x="305.5" y="-7.5" font-family="Helvetica,sans-Serif" font-size="10.00">::WidefieldLocalization &gt;</text>
</a>
</g>
</g>
<!-- Node2&#45;&gt;Node1 -->
<g id="edge1" class="edge">
<title>Node2&#45;&gt;Node1</title>
<path fill="none" stroke="midnightblue" d="M418.04,-26.5C426.62,-26.5 435.26,-26.5 443.79,-26.5"/>
<polygon fill="midnightblue" stroke="midnightblue" points="418.01,-23 408.01,-26.5 418.01,-30 418.01,-23"/>
</g>
<!-- Node3 -->
<g id="node3" class="node">
<title>Node3</title>
<g id="a_node3"><a xlink:title=" ">
<polygon fill="white" stroke="#bfbfbf" points="0,-17 0,-36 167,-36 167,-17 0,-17"/>
<text text-anchor="middle" x="83.5" y="-24" font-family="Helvetica,sans-Serif" font-size="10.00">BaseInstr::InstrumentDataType</text>
</a>
</g>
</g>
<!-- Node3&#45;&gt;Node2 -->
<g id="edge2" class="edge">
<title>Node3&#45;&gt;Node2</title>
<path fill="none" stroke="midnightblue" d="M177.29,-26.5C185.76,-26.5 194.37,-26.5 202.91,-26.5"/>
<polygon fill="midnightblue" stroke="midnightblue" points="177.05,-23 167.05,-26.5 177.05,-30 177.05,-23"/>
</g>
</g>
</svg>
