<?xml version="1.0" encoding="UTF-8" standalone="no"?>
<!DOCTYPE svg PUBLIC "-//W3C//DTD SVG 1.1//EN"
 "http://www.w3.org/Graphics/SVG/1.1/DTD/svg11.dtd">
<!-- Generated by graphviz version 2.43.0 (0)
 -->
<!-- Title: DynExpInstr::FunctionGenerator Pages: 1 -->
<svg width="1488pt" height="198pt"
 viewBox="0.00 0.00 1488.00 198.00" xmlns="http://www.w3.org/2000/svg" xmlns:xlink="http://www.w3.org/1999/xlink">
<g id="graph0" class="graph" transform="scale(1 1) rotate(0) translate(4 194)">
<title>DynExpInstr::FunctionGenerator</title>
<!-- Node1 -->
<g id="Node000001" class="node">
<title>Node1</title>
<g id="a_Node000001"><a xlink:title="Function generator meta instrument based on the data stream meta instrument to generate waveforms by ...">
<polygon fill="#999999" stroke="#666666" points="892,-104.5 720,-104.5 720,-85.5 892,-85.5 892,-104.5"/>
<text text-anchor="middle" x="806" y="-92.5" font-family="Helvetica,sans-Serif" font-size="10.00">DynExpInstr::FunctionGenerator</text>
</a>
</g>
</g>
<!-- Node7 -->
<g id="Node000007" class="node">
<title>Node7</title>
<g id="a_Node000007"><a xlink:href="classDynExpInstr_1_1DummyDataStreamInstrument.html" target="_top" xlink:title=" ">
<polygon fill="white" stroke="#666666" points="1108.5,-190 929.5,-190 929.5,-160 1108.5,-160 1108.5,-190"/>
<text text-anchor="start" x="937.5" y="-178" font-family="Helvetica,sans-Serif" font-size="10.00">DynExpInstr::DummyDataStream</text>
<text text-anchor="middle" x="1019" y="-167" font-family="Helvetica,sans-Serif" font-size="10.00">Instrument</text>
</a>
</g>
</g>
<!-- Node1&#45;&gt;Node7 -->
<g id="edge6_Node000001_Node000007" class="edge">
<title>Node1&#45;&gt;Node7</title>
<g id="a_edge6_Node000001_Node000007"><a xlink:title=" ">
<path fill="none" stroke="#63b8ff" d="M834.86,-109.17C859.06,-121.11 895.26,-138.09 928,-150 937.75,-153.55 948.26,-156.88 958.52,-159.89"/>
<polygon fill="#63b8ff" stroke="#63b8ff" points="836.41,-106.03 825.9,-104.7 833.29,-112.29 836.41,-106.03"/>
</a>
</g>
</g>
<!-- Node8 -->
<g id="Node000008" class="node">
<title>Node8</title>
<g id="a_Node000008"><a xlink:href="classDynExpInstr_1_1OutputPort.html" target="_top" xlink:title="Generic output port meta instrument based on the data stream and function generator meta instruments ...">
<polygon fill="white" stroke="#666666" points="1086,-141.5 952,-141.5 952,-122.5 1086,-122.5 1086,-141.5"/>
<text text-anchor="middle" x="1019" y="-129.5" font-family="Helvetica,sans-Serif" font-size="10.00">DynExpInstr::OutputPort</text>
</a>
</g>
</g>
<!-- Node1&#45;&gt;Node8 -->
<g id="edge7_Node000001_Node000008" class="edge">
<title>Node1&#45;&gt;Node8</title>
<g id="a_edge7_Node000001_Node000008"><a xlink:title=" ">
<path fill="none" stroke="#63b8ff" d="M871.51,-106.31C900.93,-111.47 935.38,-117.51 963.48,-122.44"/>
<polygon fill="#63b8ff" stroke="#63b8ff" points="871.79,-102.81 861.34,-104.53 870.58,-109.7 871.79,-102.81"/>
</a>
</g>
</g>
<!-- Node13 -->
<g id="Node000013" class="node">
<title>Node13</title>
<g id="a_Node000013"><a xlink:href="classDynExpInstr_1_1RS__SMB100B.html" target="_top" xlink:title=" ">
<polygon fill="white" stroke="#666666" points="1092,-104.5 946,-104.5 946,-85.5 1092,-85.5 1092,-104.5"/>
<text text-anchor="middle" x="1019" y="-92.5" font-family="Helvetica,sans-Serif" font-size="10.00">DynExpInstr::RS_SMB100B</text>
</a>
</g>
</g>
<!-- Node1&#45;&gt;Node13 -->
<g id="edge12_Node000001_Node000013" class="edge">
<title>Node1&#45;&gt;Node13</title>
<g id="a_edge12_Node000001_Node000013"><a xlink:title=" ">
<path fill="none" stroke="#63b8ff" d="M902.26,-95C916.84,-95 931.69,-95 945.68,-95"/>
<polygon fill="#63b8ff" stroke="#63b8ff" points="902.21,-91.5 892.21,-95 902.21,-98.5 902.21,-91.5"/>
</a>
</g>
</g>
<!-- Node14 -->
<g id="Node000014" class="node">
<title>Node14</title>
<g id="a_Node000014"><a xlink:href="classDynExpInstr_1_1RS__SMC100A.html" target="_top" xlink:title=" ">
<polygon fill="white" stroke="#666666" points="1092,-67.5 946,-67.5 946,-48.5 1092,-48.5 1092,-67.5"/>
<text text-anchor="middle" x="1019" y="-55.5" font-family="Helvetica,sans-Serif" font-size="10.00">DynExpInstr::RS_SMC100A</text>
</a>
</g>
</g>
<!-- Node1&#45;&gt;Node14 -->
<g id="edge13_Node000001_Node000014" class="edge">
<title>Node1&#45;&gt;Node14</title>
<g id="a_edge13_Node000001_Node000014"><a xlink:title=" ">
<path fill="none" stroke="#63b8ff" d="M871.51,-83.69C900.93,-78.53 935.38,-72.49 963.48,-67.56"/>
<polygon fill="#63b8ff" stroke="#63b8ff" points="870.58,-80.3 861.34,-85.47 871.79,-87.19 870.58,-80.3"/>
</a>
</g>
</g>
<!-- Node15 -->
<g id="Node000015" class="node">
<title>Node15</title>
<g id="a_Node000015"><a xlink:href="classDynExpInstr_1_1SwabianInstrumentsPulseStreamer.html" target="_top" xlink:title=" ">
<polygon fill="white" stroke="#666666" points="1110,-30 928,-30 928,0 1110,0 1110,-30"/>
<text text-anchor="start" x="936" y="-18" font-family="Helvetica,sans-Serif" font-size="10.00">DynExpInstr::SwabianInstruments</text>
<text text-anchor="middle" x="1019" y="-7" font-family="Helvetica,sans-Serif" font-size="10.00">PulseStreamer</text>
</a>
</g>
</g>
<!-- Node1&#45;&gt;Node15 -->
<g id="edge14_Node000001_Node000015" class="edge">
<title>Node1&#45;&gt;Node15</title>
<g id="a_edge14_Node000001_Node000015"><a xlink:title=" ">
<path fill="none" stroke="#63b8ff" d="M833.96,-80.88C858.11,-68.63 894.75,-51.02 928,-39 936.82,-35.81 946.26,-32.83 955.59,-30.14"/>
<polygon fill="#63b8ff" stroke="#63b8ff" points="832.34,-77.78 825.03,-85.45 835.53,-84.01 832.34,-77.78"/>
</a>
</g>
</g>
<!-- Node2 -->
<g id="Node000002" class="node">
<title>Node2</title>
<g id="a_Node000002"><a xlink:href="classDynExpInstr_1_1DataStreamInstrument.html" target="_top" xlink:title="Implementation of the data stream meta instrument, which is a base class for all instruments reading/...">
<polygon fill="white" stroke="#666666" points="684,-104.5 490,-104.5 490,-85.5 684,-85.5 684,-104.5"/>
<text text-anchor="middle" x="587" y="-92.5" font-family="Helvetica,sans-Serif" font-size="10.00">DynExpInstr::DataStreamInstrument</text>
</a>
</g>
</g>
<!-- Node2&#45;&gt;Node1 -->
<g id="edge1_Node000001_Node000002" class="edge">
<title>Node2&#45;&gt;Node1</title>
<g id="a_edge1_Node000001_Node000002"><a xlink:title=" ">
<path fill="none" stroke="#63b8ff" d="M694.21,-95C702.81,-95 711.43,-95 719.86,-95"/>
<polygon fill="#63b8ff" stroke="#63b8ff" points="694.13,-91.5 684.13,-95 694.13,-98.5 694.13,-91.5"/>
</a>
</g>
</g>
<!-- Node3 -->
<g id="Node000003" class="node">
<title>Node3</title>
<g id="a_Node000003"><a xlink:href="classDynExp_1_1InstrumentBase.html" target="_top" xlink:title="Base class for instruments. Instruments comprise virtual devices (meta instruments) and physial devic...">
<polygon fill="white" stroke="#666666" points="454,-104.5 317,-104.5 317,-85.5 454,-85.5 454,-104.5"/>
<text text-anchor="middle" x="385.5" y="-92.5" font-family="Helvetica,sans-Serif" font-size="10.00">DynExp::InstrumentBase</text>
</a>
</g>
</g>
<!-- Node3&#45;&gt;Node2 -->
<g id="edge2_Node000002_Node000003" class="edge">
<title>Node3&#45;&gt;Node2</title>
<g id="a_edge2_Node000002_Node000003"><a xlink:title=" ">
<path fill="none" stroke="#63b8ff" d="M464.18,-95C472.6,-95 481.24,-95 489.85,-95"/>
<polygon fill="#63b8ff" stroke="#63b8ff" points="464.04,-91.5 454.04,-95 464.04,-98.5 464.04,-91.5"/>
</a>
</g>
</g>
<!-- Node4 -->
<g id="Node000004" class="node">
<title>Node4</title>
<g id="a_Node000004"><a xlink:href="classDynExp_1_1RunnableObject.html" target="_top" xlink:title="Defines an Object which possesses a thread it runs in. The RunnableObject can be started and stopped ...">
<polygon fill="white" stroke="#666666" points="281,-104.5 144,-104.5 144,-85.5 281,-85.5 281,-104.5"/>
<text text-anchor="middle" x="212.5" y="-92.5" font-family="Helvetica,sans-Serif" font-size="10.00">DynExp::RunnableObject</text>
</a>
</g>
</g>
<!-- Node4&#45;&gt;Node3 -->
<g id="edge3_Node000003_Node000004" class="edge">
<title>Node4&#45;&gt;Node3</title>
<g id="a_edge3_Node000003_Node000004"><a xlink:title=" ">
<path fill="none" stroke="#63b8ff" d="M291.1,-95C299.69,-95 308.39,-95 316.85,-95"/>
<polygon fill="#63b8ff" stroke="#63b8ff" points="291.08,-91.5 281.08,-95 291.08,-98.5 291.08,-91.5"/>
</a>
</g>
</g>
<!-- Node5 -->
<g id="Node000005" class="node">
<title>Node5</title>
<g id="a_Node000005"><a xlink:href="classUtil_1_1INonCopyable.html" target="_top" xlink:title="Interface to delete copy constructor and copy assignment operator and thus make derived classes non&#45;c...">
<polygon fill="white" stroke="#666666" points="108,-123.5 0,-123.5 0,-104.5 108,-104.5 108,-123.5"/>
<text text-anchor="middle" x="54" y="-111.5" font-family="Helvetica,sans-Serif" font-size="10.00">Util::INonCopyable</text>
</a>
</g>
</g>
<!-- Node5&#45;&gt;Node4 -->
<g id="edge4_Node000004_Node000005" class="edge">
<title>Node5&#45;&gt;Node4</title>
<g id="a_edge4_Node000004_Node000005"><a xlink:title=" ">
<path fill="none" stroke="#63b8ff" d="M118.5,-106.29C126.87,-105.27 135.49,-104.23 143.93,-103.2"/>
<polygon fill="#63b8ff" stroke="#63b8ff" points="117.93,-102.83 108.42,-107.51 118.77,-109.78 117.93,-102.83"/>
</a>
</g>
</g>
<!-- Node6 -->
<g id="Node000006" class="node">
<title>Node6</title>
<g id="a_Node000006"><a xlink:href="classDynExp_1_1Object.html" target="_top" xlink:title="Base class for all DynExp Objects like hardware adapters (DynExp::HardwareAdapterBase),...">
<polygon fill="white" stroke="#666666" points="100,-86.5 8,-86.5 8,-67.5 100,-67.5 100,-86.5"/>
<text text-anchor="middle" x="54" y="-74.5" font-family="Helvetica,sans-Serif" font-size="10.00">DynExp::Object</text>
</a>
</g>
</g>
<!-- Node6&#45;&gt;Node4 -->
<g id="edge5_Node000004_Node000006" class="edge">
<title>Node6&#45;&gt;Node4</title>
<g id="a_edge5_Node000004_Node000006"><a xlink:title=" ">
<path fill="none" stroke="#63b8ff" d="M110.43,-83.38C121.26,-84.62 132.74,-85.94 143.91,-87.23"/>
<polygon fill="#63b8ff" stroke="#63b8ff" points="110.6,-79.87 100.27,-82.21 109.8,-86.83 110.6,-79.87"/>
</a>
</g>
</g>
<!-- Node9 -->
<g id="Node000009" class="node">
<title>Node9</title>
<g id="a_Node000009"><a xlink:href="classDynExpInstr_1_1AnalogOut.html" target="_top" xlink:title="Meta instrument for a single analog output port based on the data stream, function generator,...">
<polygon fill="white" stroke="#666666" points="1279,-159.5 1146,-159.5 1146,-140.5 1279,-140.5 1279,-159.5"/>
<text text-anchor="middle" x="1212.5" y="-147.5" font-family="Helvetica,sans-Serif" font-size="10.00">DynExpInstr::AnalogOut</text>
</a>
</g>
</g>
<!-- Node8&#45;&gt;Node9 -->
<g id="edge8_Node000008_Node000009" class="edge">
<title>Node8&#45;&gt;Node9</title>
<g id="a_edge8_Node000008_Node000009"><a xlink:title=" ">
<path fill="none" stroke="#63b8ff" d="M1096.29,-139.17C1112.74,-140.72 1129.98,-142.34 1145.97,-143.84"/>
<polygon fill="#63b8ff" stroke="#63b8ff" points="1096.46,-135.67 1086.17,-138.22 1095.8,-142.64 1096.46,-135.67"/>
</a>
</g>
</g>
<!-- Node11 -->
<g id="Node000011" class="node">
<title>Node11</title>
<g id="a_Node000011"><a xlink:href="classDynExpInstr_1_1DigitalOut.html" target="_top" xlink:title="Meta instrument for a single digital output port based on the data stream, function generator,...">
<polygon fill="white" stroke="#666666" points="1278,-122.5 1147,-122.5 1147,-103.5 1278,-103.5 1278,-122.5"/>
<text text-anchor="middle" x="1212.5" y="-110.5" font-family="Helvetica,sans-Serif" font-size="10.00">DynExpInstr::DigitalOut</text>
</a>
</g>
</g>
<!-- Node8&#45;&gt;Node11 -->
<g id="edge10_Node000008_Node000011" class="edge">
<title>Node8&#45;&gt;Node11</title>
<g id="a_edge10_Node000008_Node000011"><a xlink:title=" ">
<path fill="none" stroke="#63b8ff" d="M1096.46,-124.41C1113.19,-122.75 1130.74,-121.01 1146.94,-119.41"/>
<polygon fill="#63b8ff" stroke="#63b8ff" points="1095.78,-120.96 1086.17,-125.43 1096.47,-127.93 1095.78,-120.96"/>
</a>
</g>
</g>
<!-- Node10 -->
<g id="Node000010" class="node">
<title>Node10</title>
<g id="a_Node000010"><a xlink:href="classDynExpInstr_1_1NIDAQAnalogOut.html" target="_top" xlink:title=" ">
<polygon fill="white" stroke="#666666" points="1480,-159.5 1315,-159.5 1315,-140.5 1480,-140.5 1480,-159.5"/>
<text text-anchor="middle" x="1397.5" y="-147.5" font-family="Helvetica,sans-Serif" font-size="10.00">DynExpInstr::NIDAQAnalogOut</text>
</a>
</g>
</g>
<!-- Node9&#45;&gt;Node10 -->
<g id="edge9_Node000009_Node000010" class="edge">
<title>Node9&#45;&gt;Node10</title>
<g id="a_edge9_Node000009_Node000010"><a xlink:title=" ">
<path fill="none" stroke="#63b8ff" d="M1289.23,-150C1297.67,-150 1306.29,-150 1314.8,-150"/>
<polygon fill="#63b8ff" stroke="#63b8ff" points="1289.05,-146.5 1279.05,-150 1289.05,-153.5 1289.05,-146.5"/>
</a>
</g>
</g>
<!-- Node12 -->
<g id="Node000012" class="node">
<title>Node12</title>
<g id="a_Node000012"><a xlink:href="classDynExpInstr_1_1NIDAQDigitalOut.html" target="_top" xlink:title=" ">
<polygon fill="white" stroke="#666666" points="1479.5,-122.5 1315.5,-122.5 1315.5,-103.5 1479.5,-103.5 1479.5,-122.5"/>
<text text-anchor="middle" x="1397.5" y="-110.5" font-family="Helvetica,sans-Serif" font-size="10.00">DynExpInstr::NIDAQDigitalOut</text>
</a>
</g>
</g>
<!-- Node11&#45;&gt;Node12 -->
<g id="edge11_Node000011_Node000012" class="edge">
<title>Node11&#45;&gt;Node12</title>
<g id="a_edge11_Node000011_Node000012"><a xlink:title=" ">
<path fill="none" stroke="#63b8ff" d="M1288.03,-113C1297,-113 1306.19,-113 1315.25,-113"/>
<polygon fill="#63b8ff" stroke="#63b8ff" points="1288.02,-109.5 1278.02,-113 1288.02,-116.5 1288.02,-109.5"/>
</a>
</g>
</g>
</g>
</svg>
