<?xml version="1.0" encoding="UTF-8" standalone="no"?>
<!DOCTYPE svg PUBLIC "-//W3C//DTD SVG 1.1//EN"
 "http://www.w3.org/Graphics/SVG/1.1/DTD/svg11.dtd">
<!-- Generated by graphviz version 2.43.0 (0)
 -->
<!-- Title: DynExp::ParamsBase::ListParam&lt; ArithmeticType, std::enable_if_t&lt; std::is_arithmetic_v&lt; ArithmeticType &gt; &gt; &gt; Pages: 1 -->
<svg width="210pt" height="195pt"
 viewBox="0.00 0.00 210.00 195.00" xmlns="http://www.w3.org/2000/svg" xmlns:xlink="http://www.w3.org/1999/xlink">
<g id="graph0" class="graph" transform="scale(1 1) rotate(0) translate(4 191)">
<title>DynExp::ParamsBase::ListParam&lt; ArithmeticType, std::enable_if_t&lt; std::is_arithmetic_v&lt; ArithmeticType &gt; &gt; &gt;</title>
<polygon fill="white" stroke="transparent" points="-4,4 -4,-191 206,-191 206,4 -4,4"/>
<!-- Node1 -->
<g id="node1" class="node">
<title>Node1</title>
<g id="a_node1"><a xlink:title="List parameter for numbers. If ParamType is an arithmetic type (integral or floating point),...">
<polygon fill="#bfbfbf" stroke="black" points="0,-0.5 0,-52.5 202,-52.5 202,-0.5 0,-0.5"/>
<text text-anchor="start" x="8" y="-40.5" font-family="Helvetica,sans-Serif" font-size="10.00">DynExp::ParamsBase</text>
<text text-anchor="start" x="8" y="-29.5" font-family="Helvetica,sans-Serif" font-size="10.00">::ListParam&lt; ArithmeticType,</text>
<text text-anchor="start" x="8" y="-18.5" font-family="Helvetica,sans-Serif" font-size="10.00"> std::enable_if_t&lt; std::is</text>
<text text-anchor="middle" x="101" y="-7.5" font-family="Helvetica,sans-Serif" font-size="10.00">_arithmetic_v&lt; ArithmeticType &gt; &gt; &gt;</text>
</a>
</g>
</g>
<!-- Node2 -->
<g id="node2" class="node">
<title>Node2</title>
<g id="a_node2"><a xlink:href="classDynExp_1_1ParamsBase_1_1TypedListParamBase.html" target="_top" xlink:title="Base class of parameters containing lists of values.">
<polygon fill="white" stroke="black" points="18,-89.5 18,-119.5 184,-119.5 184,-89.5 18,-89.5"/>
<text text-anchor="start" x="26" y="-107.5" font-family="Helvetica,sans-Serif" font-size="10.00">UnderlyingArithmeticList</text>
<text text-anchor="middle" x="101" y="-96.5" font-family="Helvetica,sans-Serif" font-size="10.00">ParamType&lt; ArithmeticType &gt;</text>
</a>
</g>
</g>
<!-- Node2&#45;&gt;Node1 -->
<g id="edge1" class="edge">
<title>Node2&#45;&gt;Node1</title>
<path fill="none" stroke="midnightblue" d="M101,-79.14C101,-70.63 101,-61.07 101,-52.5"/>
<polygon fill="midnightblue" stroke="midnightblue" points="97.5,-79.2 101,-89.2 104.5,-79.21 97.5,-79.2"/>
</g>
<!-- Node3 -->
<g id="node3" class="node">
<title>Node3</title>
<g id="a_node3"><a xlink:href="classDynExp_1_1ParamsBase_1_1ParamBase.html" target="_top" xlink:title="Abstract base class for a single object parameter. Parameters derived from this class are automatical...">
<polygon fill="white" stroke="black" points="41,-156.5 41,-186.5 161,-186.5 161,-156.5 41,-156.5"/>
<text text-anchor="start" x="49" y="-174.5" font-family="Helvetica,sans-Serif" font-size="10.00">DynExp::ParamsBase</text>
<text text-anchor="middle" x="101" y="-163.5" font-family="Helvetica,sans-Serif" font-size="10.00">::ParamBase</text>
</a>
</g>
</g>
<!-- Node3&#45;&gt;Node2 -->
<g id="edge2" class="edge">
<title>Node3&#45;&gt;Node2</title>
<path fill="none" stroke="midnightblue" d="M101,-146.11C101,-137.15 101,-127.32 101,-119.58"/>
<polygon fill="midnightblue" stroke="midnightblue" points="97.5,-146.4 101,-156.4 104.5,-146.4 97.5,-146.4"/>
</g>
</g>
</svg>
