<?xml version="1.0" encoding="UTF-8" standalone="no"?>
<!DOCTYPE svg PUBLIC "-//W3C//DTD SVG 1.1//EN"
 "http://www.w3.org/Graphics/SVG/1.1/DTD/svg11.dtd">
<!-- Generated by graphviz version 2.43.0 (0)
 -->
<!-- Title: DynExpInstr::InputPort Pages: 1 -->
<svg width="338pt" height="364pt"
 viewBox="0.00 0.00 338.00 364.00" xmlns="http://www.w3.org/2000/svg" xmlns:xlink="http://www.w3.org/1999/xlink">
<g id="graph0" class="graph" transform="scale(1 1) rotate(0) translate(4 360)">
<title>DynExpInstr::InputPort</title>
<polygon fill="white" stroke="transparent" points="-4,4 -4,-360 334,-360 334,4 -4,4"/>
<!-- Node1 -->
<g id="node1" class="node">
<title>Node1</title>
<g id="a_node1"><a xlink:title="Generic input port meta instrument based on the data stream meta instrument to read data from hardwar...">
<polygon fill="#bfbfbf" stroke="black" points="102.5,-112.5 102.5,-131.5 228.5,-131.5 228.5,-112.5 102.5,-112.5"/>
<text text-anchor="middle" x="165.5" y="-119.5" font-family="Helvetica,sans-Serif" font-size="10.00">DynExpInstr::InputPort</text>
</a>
</g>
</g>
<!-- Node7 -->
<g id="node7" class="node">
<title>Node7</title>
<g id="a_node7"><a xlink:href="classDynExpInstr_1_1AnalogIn.html" target="_top" xlink:title="Meta instrument for a single analog input port based on the data stream and generic input port meta i...">
<polygon fill="white" stroke="black" points="32,-56.5 32,-75.5 157,-75.5 157,-56.5 32,-56.5"/>
<text text-anchor="middle" x="94.5" y="-63.5" font-family="Helvetica,sans-Serif" font-size="10.00">DynExpInstr::AnalogIn</text>
</a>
</g>
</g>
<!-- Node1&#45;&gt;Node7 -->
<g id="edge6" class="edge">
<title>Node1&#45;&gt;Node7</title>
<path fill="none" stroke="midnightblue" d="M145.91,-106.1C133.13,-96.38 116.89,-84.03 106.11,-75.83"/>
<polygon fill="midnightblue" stroke="midnightblue" points="144.01,-109.06 154.09,-112.32 148.25,-103.48 144.01,-109.06"/>
</g>
<!-- Node9 -->
<g id="node9" class="node">
<title>Node9</title>
<g id="a_node9"><a xlink:href="classDynExpInstr_1_1DigitalIn.html" target="_top" xlink:title="Meta instrument for a single digital input port based on the data stream and generic input port meta ...">
<polygon fill="white" stroke="black" points="183,-56.5 183,-75.5 306,-75.5 306,-56.5 183,-56.5"/>
<text text-anchor="middle" x="244.5" y="-63.5" font-family="Helvetica,sans-Serif" font-size="10.00">DynExpInstr::DigitalIn</text>
</a>
</g>
</g>
<!-- Node1&#45;&gt;Node9 -->
<g id="edge8" class="edge">
<title>Node1&#45;&gt;Node9</title>
<path fill="none" stroke="midnightblue" d="M186.53,-106.62C200.97,-96.76 219.64,-83.99 231.84,-75.65"/>
<polygon fill="midnightblue" stroke="midnightblue" points="184.47,-103.79 178.19,-112.32 188.42,-109.57 184.47,-103.79"/>
</g>
<!-- Node2 -->
<g id="node2" class="node">
<title>Node2</title>
<g id="a_node2"><a xlink:href="classDynExpInstr_1_1DataStreamInstrument.html" target="_top" xlink:title="Implementation of the data stream meta instrument, which is a base class for all instruments reading/...">
<polygon fill="white" stroke="black" points="68.5,-168.5 68.5,-187.5 262.5,-187.5 262.5,-168.5 68.5,-168.5"/>
<text text-anchor="middle" x="165.5" y="-175.5" font-family="Helvetica,sans-Serif" font-size="10.00">DynExpInstr::DataStreamInstrument</text>
</a>
</g>
</g>
<!-- Node2&#45;&gt;Node1 -->
<g id="edge1" class="edge">
<title>Node2&#45;&gt;Node1</title>
<path fill="none" stroke="midnightblue" d="M165.5,-157.8C165.5,-148.91 165.5,-138.78 165.5,-131.75"/>
<polygon fill="midnightblue" stroke="midnightblue" points="162,-158.08 165.5,-168.08 169,-158.08 162,-158.08"/>
</g>
<!-- Node3 -->
<g id="node3" class="node">
<title>Node3</title>
<g id="a_node3"><a xlink:href="classDynExp_1_1InstrumentBase.html" target="_top" xlink:title="Base class for instruments. Instruments comprise virtual devices (meta instruments) and physial devic...">
<polygon fill="white" stroke="black" points="97,-224.5 97,-243.5 234,-243.5 234,-224.5 97,-224.5"/>
<text text-anchor="middle" x="165.5" y="-231.5" font-family="Helvetica,sans-Serif" font-size="10.00">DynExp::InstrumentBase</text>
</a>
</g>
</g>
<!-- Node3&#45;&gt;Node2 -->
<g id="edge2" class="edge">
<title>Node3&#45;&gt;Node2</title>
<path fill="none" stroke="midnightblue" d="M165.5,-213.8C165.5,-204.91 165.5,-194.78 165.5,-187.75"/>
<polygon fill="midnightblue" stroke="midnightblue" points="162,-214.08 165.5,-224.08 169,-214.08 162,-214.08"/>
</g>
<!-- Node4 -->
<g id="node4" class="node">
<title>Node4</title>
<g id="a_node4"><a xlink:href="classDynExp_1_1RunnableObject.html" target="_top" xlink:title="Defines an Object which possesses a thread it runs in. The RunnableObject can be started and stopped ...">
<polygon fill="white" stroke="black" points="97,-280.5 97,-299.5 234,-299.5 234,-280.5 97,-280.5"/>
<text text-anchor="middle" x="165.5" y="-287.5" font-family="Helvetica,sans-Serif" font-size="10.00">DynExp::RunnableObject</text>
</a>
</g>
</g>
<!-- Node4&#45;&gt;Node3 -->
<g id="edge3" class="edge">
<title>Node4&#45;&gt;Node3</title>
<path fill="none" stroke="midnightblue" d="M165.5,-269.8C165.5,-260.91 165.5,-250.78 165.5,-243.75"/>
<polygon fill="midnightblue" stroke="midnightblue" points="162,-270.08 165.5,-280.08 169,-270.08 162,-270.08"/>
</g>
<!-- Node5 -->
<g id="node5" class="node">
<title>Node5</title>
<g id="a_node5"><a xlink:href="classUtil_1_1INonCopyable.html" target="_top" xlink:title="Interface to delete copy constructor and copy assignment operator and thus make derived classes non&#45;c...">
<polygon fill="white" stroke="black" points="52.5,-336.5 52.5,-355.5 160.5,-355.5 160.5,-336.5 52.5,-336.5"/>
<text text-anchor="middle" x="106.5" y="-343.5" font-family="Helvetica,sans-Serif" font-size="10.00">Util::INonCopyable</text>
</a>
</g>
</g>
<!-- Node5&#45;&gt;Node4 -->
<g id="edge4" class="edge">
<title>Node5&#45;&gt;Node4</title>
<path fill="none" stroke="midnightblue" d="M123.39,-329.54C133.91,-319.91 147.07,-307.87 155.85,-299.83"/>
<polygon fill="midnightblue" stroke="midnightblue" points="120.99,-326.99 115.98,-336.32 125.72,-332.15 120.99,-326.99"/>
</g>
<!-- Node6 -->
<g id="node6" class="node">
<title>Node6</title>
<g id="a_node6"><a xlink:href="classDynExp_1_1Object.html" target="_top" xlink:title="Base class for all DynExp Objects like hardware adapters (DynExp::HardwareAdapterBase),...">
<polygon fill="white" stroke="black" points="178.5,-336.5 178.5,-355.5 270.5,-355.5 270.5,-336.5 178.5,-336.5"/>
<text text-anchor="middle" x="224.5" y="-343.5" font-family="Helvetica,sans-Serif" font-size="10.00">DynExp::Object</text>
</a>
</g>
</g>
<!-- Node6&#45;&gt;Node4 -->
<g id="edge5" class="edge">
<title>Node6&#45;&gt;Node4</title>
<path fill="none" stroke="midnightblue" d="M207.61,-329.54C197.09,-319.91 183.93,-307.87 175.15,-299.83"/>
<polygon fill="midnightblue" stroke="midnightblue" points="205.28,-332.15 215.02,-336.32 210.01,-326.99 205.28,-332.15"/>
</g>
<!-- Node8 -->
<g id="node8" class="node">
<title>Node8</title>
<g id="a_node8"><a xlink:href="classDynExpInstr_1_1NIDAQAnalogIn.html" target="_top" xlink:title=" ">
<polygon fill="white" stroke="black" points="0,-0.5 0,-19.5 157,-19.5 157,-0.5 0,-0.5"/>
<text text-anchor="middle" x="78.5" y="-7.5" font-family="Helvetica,sans-Serif" font-size="10.00">DynExpInstr::NIDAQAnalogIn</text>
</a>
</g>
</g>
<!-- Node7&#45;&gt;Node8 -->
<g id="edge7" class="edge">
<title>Node7&#45;&gt;Node8</title>
<path fill="none" stroke="midnightblue" d="M88.99,-46.4C86.31,-37.36 83.22,-26.94 81.09,-19.75"/>
<polygon fill="midnightblue" stroke="midnightblue" points="85.66,-47.49 91.86,-56.08 92.37,-45.5 85.66,-47.49"/>
</g>
<!-- Node10 -->
<g id="node10" class="node">
<title>Node10</title>
<g id="a_node10"><a xlink:href="classDynExpInstr_1_1NIDAQDigitalIn.html" target="_top" xlink:title=" ">
<polygon fill="white" stroke="black" points="175,-0.5 175,-19.5 330,-19.5 330,-0.5 175,-0.5"/>
<text text-anchor="middle" x="252.5" y="-7.5" font-family="Helvetica,sans-Serif" font-size="10.00">DynExpInstr::NIDAQDigitalIn</text>
</a>
</g>
</g>
<!-- Node9&#45;&gt;Node10 -->
<g id="edge9" class="edge">
<title>Node9&#45;&gt;Node10</title>
<path fill="none" stroke="midnightblue" d="M247.3,-46.1C248.63,-37.14 250.15,-26.86 251.2,-19.75"/>
<polygon fill="midnightblue" stroke="midnightblue" points="243.82,-45.68 245.82,-56.08 250.75,-46.7 243.82,-45.68"/>
</g>
</g>
</svg>
