<?xml version="1.0" encoding="UTF-8" standalone="no"?>
<!DOCTYPE svg PUBLIC "-//W3C//DTD SVG 1.1//EN"
 "http://www.w3.org/Graphics/SVG/1.1/DTD/svg11.dtd">
<!-- Generated by graphviz version 2.43.0 (0)
 -->
<!-- Title: DynExpModule::NetworkTimeTaggerConfigurator&lt; gRPCServices &gt; Pages: 1 -->
<svg width="206pt" height="352pt"
 viewBox="0.00 0.00 206.00 352.00" xmlns="http://www.w3.org/2000/svg" xmlns:xlink="http://www.w3.org/1999/xlink">
<g id="graph0" class="graph" transform="scale(1 1) rotate(0) translate(4 348)">
<title>DynExpModule::NetworkTimeTaggerConfigurator&lt; gRPCServices &gt;</title>
<polygon fill="white" stroke="transparent" points="-4,4 -4,-348 202,-348 202,4 -4,4"/>
<!-- Node1 -->
<g id="node1" class="node">
<title>Node1</title>
<g id="a_node1"><a xlink:title=" ">
<polygon fill="#bfbfbf" stroke="black" points="0,-0.5 0,-30.5 198,-30.5 198,-0.5 0,-0.5"/>
<text text-anchor="start" x="8" y="-18.5" font-family="Helvetica,sans-Serif" font-size="10.00">DynExpModule::NetworkTime</text>
<text text-anchor="middle" x="99" y="-7.5" font-family="Helvetica,sans-Serif" font-size="10.00">TaggerConfigurator&lt; gRPCServices &gt;</text>
</a>
</g>
</g>
<!-- Node2 -->
<g id="node2" class="node">
<title>Node2</title>
<g id="a_node2"><a xlink:href="classDynExpModule_1_1NetworkDataStreamInstrumentConfigurator.html" target="_top" xlink:title=" ">
<polygon fill="white" stroke="black" points="16.5,-67.5 16.5,-108.5 181.5,-108.5 181.5,-67.5 16.5,-67.5"/>
<text text-anchor="start" x="24.5" y="-96.5" font-family="Helvetica,sans-Serif" font-size="10.00">DynExpModule::NetworkData</text>
<text text-anchor="start" x="24.5" y="-85.5" font-family="Helvetica,sans-Serif" font-size="10.00">StreamInstrumentConfigurator</text>
<text text-anchor="middle" x="99" y="-74.5" font-family="Helvetica,sans-Serif" font-size="10.00">&lt; gRPCServices... &gt;</text>
</a>
</g>
</g>
<!-- Node2&#45;&gt;Node1 -->
<g id="edge1" class="edge">
<title>Node2&#45;&gt;Node1</title>
<path fill="none" stroke="midnightblue" d="M99,-57.08C99,-48.01 99,-38.45 99,-30.89"/>
<polygon fill="midnightblue" stroke="midnightblue" points="95.5,-57.36 99,-67.36 102.5,-57.36 95.5,-57.36"/>
</g>
<!-- Node3 -->
<g id="node3" class="node">
<title>Node3</title>
<g id="a_node3"><a xlink:href="classDynExpModule_1_1gRPCModuleConfigurator.html" target="_top" xlink:title=" ">
<polygon fill="white" stroke="black" points="11.5,-145.5 11.5,-175.5 186.5,-175.5 186.5,-145.5 11.5,-145.5"/>
<text text-anchor="start" x="19.5" y="-163.5" font-family="Helvetica,sans-Serif" font-size="10.00">DynExpModule::gRPCModule</text>
<text text-anchor="middle" x="99" y="-152.5" font-family="Helvetica,sans-Serif" font-size="10.00">Configurator&lt; gRPCServices... &gt;</text>
</a>
</g>
</g>
<!-- Node3&#45;&gt;Node2 -->
<g id="edge2" class="edge">
<title>Node3&#45;&gt;Node2</title>
<path fill="none" stroke="midnightblue" d="M99,-134.98C99,-126.35 99,-116.76 99,-108.59"/>
<polygon fill="midnightblue" stroke="midnightblue" points="95.5,-135.23 99,-145.23 102.5,-135.23 95.5,-135.23"/>
</g>
<!-- Node4 -->
<g id="node4" class="node">
<title>Node4</title>
<g id="a_node4"><a xlink:href="classDynExp_1_1ModuleConfiguratorBase.html" target="_top" xlink:title="Configurator class for ModuleBase.">
<polygon fill="white" stroke="black" points="9,-212.5 9,-231.5 189,-231.5 189,-212.5 9,-212.5"/>
<text text-anchor="middle" x="99" y="-219.5" font-family="Helvetica,sans-Serif" font-size="10.00">DynExp::ModuleConfiguratorBase</text>
</a>
</g>
</g>
<!-- Node4&#45;&gt;Node3 -->
<g id="edge3" class="edge">
<title>Node4&#45;&gt;Node3</title>
<path fill="none" stroke="midnightblue" d="M99,-202.23C99,-193.59 99,-183.5 99,-175.52"/>
<polygon fill="midnightblue" stroke="midnightblue" points="95.5,-202.48 99,-212.48 102.5,-202.48 95.5,-202.48"/>
</g>
<!-- Node5 -->
<g id="node5" class="node">
<title>Node5</title>
<g id="a_node5"><a xlink:href="classDynExp_1_1RunnableObjectConfigurator.html" target="_top" xlink:title="Configurator class for RunnableObject.">
<polygon fill="white" stroke="black" points="0.5,-268.5 0.5,-287.5 197.5,-287.5 197.5,-268.5 0.5,-268.5"/>
<text text-anchor="middle" x="99" y="-275.5" font-family="Helvetica,sans-Serif" font-size="10.00">DynExp::RunnableObjectConfigurator</text>
</a>
</g>
</g>
<!-- Node5&#45;&gt;Node4 -->
<g id="edge4" class="edge">
<title>Node5&#45;&gt;Node4</title>
<path fill="none" stroke="midnightblue" d="M99,-257.8C99,-248.91 99,-238.78 99,-231.75"/>
<polygon fill="midnightblue" stroke="midnightblue" points="95.5,-258.08 99,-268.08 102.5,-258.08 95.5,-258.08"/>
</g>
<!-- Node6 -->
<g id="node6" class="node">
<title>Node6</title>
<g id="a_node6"><a xlink:href="classDynExp_1_1ConfiguratorBase.html" target="_top" xlink:title="The configurator classes have the task to generate parameter objects (refer to DynExp::ParamsBase) of...">
<polygon fill="white" stroke="black" points="27,-324.5 27,-343.5 171,-343.5 171,-324.5 27,-324.5"/>
<text text-anchor="middle" x="99" y="-331.5" font-family="Helvetica,sans-Serif" font-size="10.00">DynExp::ConfiguratorBase</text>
</a>
</g>
</g>
<!-- Node6&#45;&gt;Node5 -->
<g id="edge5" class="edge">
<title>Node6&#45;&gt;Node5</title>
<path fill="none" stroke="midnightblue" d="M99,-313.8C99,-304.91 99,-294.78 99,-287.75"/>
<polygon fill="midnightblue" stroke="midnightblue" points="95.5,-314.08 99,-324.08 102.5,-314.08 95.5,-314.08"/>
</g>
</g>
</svg>
