<?xml version="1.0" encoding="UTF-8" standalone="no"?>
<!DOCTYPE svg PUBLIC "-//W3C//DTD SVG 1.1//EN"
 "http://www.w3.org/Graphics/SVG/1.1/DTD/svg11.dtd">
<!-- Generated by graphviz version 2.43.0 (0)
 -->
<!-- Title: DynExpInstr::PositionerStageParams Pages: 1 -->
<svg width="1266pt" height="127pt"
 viewBox="0.00 0.00 1266.00 126.50" xmlns="http://www.w3.org/2000/svg" xmlns:xlink="http://www.w3.org/1999/xlink">
<g id="graph0" class="graph" transform="scale(1 1) rotate(0) translate(4 122.5)">
<title>DynExpInstr::PositionerStageParams</title>
<polygon fill="white" stroke="transparent" points="-4,4 -4,-122.5 1262,-122.5 1262,4 -4,4"/>
<!-- Node1 -->
<g id="node1" class="node">
<title>Node1</title>
<g id="a_node1"><a xlink:title="Parameter class for PositionerStage.">
<polygon fill="#bfbfbf" stroke="black" points="897,-39 897,-69 1055,-69 1055,-39 897,-39"/>
<text text-anchor="start" x="905" y="-57" font-family="Helvetica,sans-Serif" font-size="10.00">DynExpInstr::PositionerStage</text>
<text text-anchor="middle" x="976" y="-46" font-family="Helvetica,sans-Serif" font-size="10.00">Params</text>
</a>
</g>
</g>
<!-- Node7 -->
<g id="node7" class="node">
<title>Node7</title>
<g id="a_node7"><a xlink:href="classDynExpInstr_1_1NenionLeakvalveF3Params.html" target="_top" xlink:title=" ">
<polygon fill="white" stroke="black" points="1091,-88 1091,-118 1258,-118 1258,-88 1091,-88"/>
<text text-anchor="start" x="1099" y="-106" font-family="Helvetica,sans-Serif" font-size="10.00">DynExpInstr::NenionLeakvalve</text>
<text text-anchor="middle" x="1174.5" y="-95" font-family="Helvetica,sans-Serif" font-size="10.00">F3Params</text>
</a>
</g>
</g>
<!-- Node1&#45;&gt;Node7 -->
<g id="edge6" class="edge">
<title>Node1&#45;&gt;Node7</title>
<path fill="none" stroke="midnightblue" d="M1047.09,-71.48C1068.74,-76.88 1092.4,-82.78 1113.32,-87.99"/>
<polygon fill="midnightblue" stroke="midnightblue" points="1047.84,-68.06 1037.29,-69.03 1046.15,-74.85 1047.84,-68.06"/>
</g>
<!-- Node8 -->
<g id="node8" class="node">
<title>Node8</title>
<g id="a_node8"><a xlink:href="classDynExpInstr_1_1PI__C__862__Params.html" target="_top" xlink:title=" ">
<polygon fill="white" stroke="black" points="1111.5,-39 1111.5,-69 1237.5,-69 1237.5,-39 1111.5,-39"/>
<text text-anchor="start" x="1119.5" y="-57" font-family="Helvetica,sans-Serif" font-size="10.00">DynExpInstr::PI_C_862</text>
<text text-anchor="middle" x="1174.5" y="-46" font-family="Helvetica,sans-Serif" font-size="10.00">_Params</text>
</a>
</g>
</g>
<!-- Node1&#45;&gt;Node8 -->
<g id="edge7" class="edge">
<title>Node1&#45;&gt;Node8</title>
<path fill="none" stroke="midnightblue" d="M1065.35,-54C1080.84,-54 1096.67,-54 1111.27,-54"/>
<polygon fill="midnightblue" stroke="midnightblue" points="1065.23,-50.5 1055.23,-54 1065.23,-57.5 1065.23,-50.5"/>
</g>
<!-- Node9 -->
<g id="node9" class="node">
<title>Node9</title>
<g id="a_node9"><a xlink:href="classDynExpInstr_1_1SmarActParams.html" target="_top" xlink:title=" ">
<polygon fill="white" stroke="black" points="1095,-0.5 1095,-19.5 1254,-19.5 1254,-0.5 1095,-0.5"/>
<text text-anchor="middle" x="1174.5" y="-7.5" font-family="Helvetica,sans-Serif" font-size="10.00">DynExpInstr::SmarActParams</text>
</a>
</g>
</g>
<!-- Node1&#45;&gt;Node9 -->
<g id="edge8" class="edge">
<title>Node1&#45;&gt;Node9</title>
<path fill="none" stroke="midnightblue" d="M1054,-36.76C1080.2,-30.89 1108.53,-24.55 1131.02,-19.51"/>
<polygon fill="midnightblue" stroke="midnightblue" points="1053.07,-33.38 1044.07,-38.98 1054.6,-40.21 1053.07,-33.38"/>
</g>
<!-- Node2 -->
<g id="node2" class="node">
<title>Node2</title>
<g id="a_node2"><a xlink:href="classDynExp_1_1InstrumentParamsBase.html" target="_top" xlink:title="Parameter class for InstrumentBase.">
<polygon fill="white" stroke="black" points="688,-44.5 688,-63.5 861,-63.5 861,-44.5 688,-44.5"/>
<text text-anchor="middle" x="774.5" y="-51.5" font-family="Helvetica,sans-Serif" font-size="10.00">DynExp::InstrumentParamsBase</text>
</a>
</g>
</g>
<!-- Node2&#45;&gt;Node1 -->
<g id="edge1" class="edge">
<title>Node2&#45;&gt;Node1</title>
<path fill="none" stroke="midnightblue" d="M871.29,-54C879.86,-54 888.47,-54 896.87,-54"/>
<polygon fill="midnightblue" stroke="midnightblue" points="871.26,-50.5 861.26,-54 871.26,-57.5 871.26,-50.5"/>
</g>
<!-- Node3 -->
<g id="node3" class="node">
<title>Node3</title>
<g id="a_node3"><a xlink:href="classDynExp_1_1RunnableObjectParams.html" target="_top" xlink:title="Parameter class for RunnableObject.">
<polygon fill="white" stroke="black" points="479,-44.5 479,-63.5 652,-63.5 652,-44.5 479,-44.5"/>
<text text-anchor="middle" x="565.5" y="-51.5" font-family="Helvetica,sans-Serif" font-size="10.00">DynExp::RunnableObjectParams</text>
</a>
</g>
</g>
<!-- Node3&#45;&gt;Node2 -->
<g id="edge2" class="edge">
<title>Node3&#45;&gt;Node2</title>
<path fill="none" stroke="midnightblue" d="M662.2,-54C670.76,-54 679.4,-54 687.88,-54"/>
<polygon fill="midnightblue" stroke="midnightblue" points="662.19,-50.5 652.19,-54 662.19,-57.5 662.19,-50.5"/>
</g>
<!-- Node4 -->
<g id="node4" class="node">
<title>Node4</title>
<g id="a_node4"><a xlink:href="classDynExp_1_1ParamsBase.html" target="_top" xlink:title="Abstract base class for object parameter classes. Each class derived from class Object must be accomp...">
<polygon fill="white" stroke="black" points="323,-44.5 323,-63.5 443,-63.5 443,-44.5 323,-44.5"/>
<text text-anchor="middle" x="383" y="-51.5" font-family="Helvetica,sans-Serif" font-size="10.00">DynExp::ParamsBase</text>
</a>
</g>
</g>
<!-- Node4&#45;&gt;Node3 -->
<g id="edge3" class="edge">
<title>Node4&#45;&gt;Node3</title>
<path fill="none" stroke="midnightblue" d="M453.17,-54C461.54,-54 470.17,-54 478.75,-54"/>
<polygon fill="midnightblue" stroke="midnightblue" points="453.1,-50.5 443.1,-54 453.1,-57.5 453.1,-50.5"/>
</g>
<!-- Node5 -->
<g id="node5" class="node">
<title>Node5</title>
<g id="a_node5"><a xlink:href="classUtil_1_1ISynchronizedPointerLockable.html" target="_top" xlink:title="Interface to allow synchronizing the access to derived classes between different threads by making th...">
<polygon fill="white" stroke="black" points="144,-39 144,-69 287,-69 287,-39 144,-39"/>
<text text-anchor="start" x="152" y="-57" font-family="Helvetica,sans-Serif" font-size="10.00">Util::ISynchronizedPointer</text>
<text text-anchor="middle" x="215.5" y="-46" font-family="Helvetica,sans-Serif" font-size="10.00">Lockable</text>
</a>
</g>
</g>
<!-- Node5&#45;&gt;Node4 -->
<g id="edge4" class="edge">
<title>Node5&#45;&gt;Node4</title>
<path fill="none" stroke="midnightblue" d="M297.23,-54C305.84,-54 314.47,-54 322.76,-54"/>
<polygon fill="midnightblue" stroke="midnightblue" points="297.17,-50.5 287.17,-54 297.17,-57.5 297.17,-50.5"/>
</g>
<!-- Node6 -->
<g id="node6" class="node">
<title>Node6</title>
<g id="a_node6"><a xlink:href="classUtil_1_1INonCopyable.html" target="_top" xlink:title="Interface to delete copy constructor and copy assignment operator and thus make derived classes non&#45;c...">
<polygon fill="white" stroke="black" points="0,-44.5 0,-63.5 108,-63.5 108,-44.5 0,-44.5"/>
<text text-anchor="middle" x="54" y="-51.5" font-family="Helvetica,sans-Serif" font-size="10.00">Util::INonCopyable</text>
</a>
</g>
</g>
<!-- Node6&#45;&gt;Node5 -->
<g id="edge5" class="edge">
<title>Node6&#45;&gt;Node5</title>
<path fill="none" stroke="midnightblue" d="M118.19,-54C126.58,-54 135.23,-54 143.74,-54"/>
<polygon fill="midnightblue" stroke="midnightblue" points="118.11,-50.5 108.11,-54 118.11,-57.5 118.11,-50.5"/>
</g>
</g>
</svg>
