<?xml version="1.0" encoding="UTF-8" standalone="no"?>
<!DOCTYPE svg PUBLIC "-//W3C//DTD SVG 1.1//EN"
 "http://www.w3.org/Graphics/SVG/1.1/DTD/svg11.dtd">
<!-- Generated by graphviz version 2.43.0 (0)
 -->
<!-- Title: DynExpInstr::FunctionGeneratorConfigurator Pages: 1 -->
<svg width="1711pt" height="198pt"
 viewBox="0.00 0.00 1711.00 198.00" xmlns="http://www.w3.org/2000/svg" xmlns:xlink="http://www.w3.org/1999/xlink">
<g id="graph0" class="graph" transform="scale(1 1) rotate(0) translate(4 194)">
<title>DynExpInstr::FunctionGeneratorConfigurator</title>
<!-- Node1 -->
<g id="Node000001" class="node">
<title>Node1</title>
<g id="a_Node000001"><a xlink:title="Configurator class for FunctionGenerator.">
<polygon fill="#999999" stroke="#666666" points="1048,-110 876,-110 876,-80 1048,-80 1048,-110"/>
<text text-anchor="start" x="884" y="-98" font-family="Helvetica,sans-Serif" font-size="10.00">DynExpInstr::FunctionGenerator</text>
<text text-anchor="middle" x="962" y="-87" font-family="Helvetica,sans-Serif" font-size="10.00">Configurator</text>
</a>
</g>
</g>
<!-- Node6 -->
<g id="Node000006" class="node">
<title>Node6</title>
<g id="a_Node000006"><a xlink:href="classDynExpInstr_1_1DummyDataStreamInstrumentConfigurator.html" target="_top" xlink:title=" ">
<polygon fill="white" stroke="#666666" points="1276.5,-190 1097.5,-190 1097.5,-160 1276.5,-160 1276.5,-190"/>
<text text-anchor="start" x="1105.5" y="-178" font-family="Helvetica,sans-Serif" font-size="10.00">DynExpInstr::DummyDataStream</text>
<text text-anchor="middle" x="1187" y="-167" font-family="Helvetica,sans-Serif" font-size="10.00">InstrumentConfigurator</text>
</a>
</g>
</g>
<!-- Node1&#45;&gt;Node6 -->
<g id="edge5_Node000001_Node000006" class="edge">
<title>Node1&#45;&gt;Node6</title>
<g id="a_edge5_Node000001_Node000006"><a xlink:title=" ">
<path fill="none" stroke="#63b8ff" d="M1001.44,-114.7C1024.86,-126.13 1055.64,-140.17 1084,-150 1094.6,-153.67 1105.99,-157.02 1117.18,-159.99"/>
<polygon fill="#63b8ff" stroke="#63b8ff" points="1002.72,-111.43 992.21,-110.14 999.62,-117.7 1002.72,-111.43"/>
</a>
</g>
</g>
<!-- Node7 -->
<g id="Node000007" class="node">
<title>Node7</title>
<g id="a_Node000007"><a xlink:href="classDynExpInstr_1_1OutputPortConfigurator.html" target="_top" xlink:title="Configurator class for OutputPort.">
<polygon fill="white" stroke="#666666" points="1284,-141.5 1090,-141.5 1090,-122.5 1284,-122.5 1284,-141.5"/>
<text text-anchor="middle" x="1187" y="-129.5" font-family="Helvetica,sans-Serif" font-size="10.00">DynExpInstr::OutputPortConfigurator</text>
</a>
</g>
</g>
<!-- Node1&#45;&gt;Node7 -->
<g id="edge6_Node000001_Node000007" class="edge">
<title>Node1&#45;&gt;Node7</title>
<g id="a_edge6_Node000001_Node000007"><a xlink:title=" ">
<path fill="none" stroke="#63b8ff" d="M1058.4,-110.83C1082.23,-114.78 1107.07,-118.9 1128.42,-122.45"/>
<polygon fill="#63b8ff" stroke="#63b8ff" points="1058.7,-107.33 1048.26,-109.15 1057.55,-114.24 1058.7,-107.33"/>
</a>
</g>
</g>
<!-- Node12 -->
<g id="Node000012" class="node">
<title>Node12</title>
<g id="a_Node000012"><a xlink:href="classDynExpInstr_1_1RS__SMB100BConfigurator.html" target="_top" xlink:title=" ">
<polygon fill="white" stroke="#666666" points="1290,-104.5 1084,-104.5 1084,-85.5 1290,-85.5 1290,-104.5"/>
<text text-anchor="middle" x="1187" y="-92.5" font-family="Helvetica,sans-Serif" font-size="10.00">DynExpInstr::RS_SMB100BConfigurator</text>
</a>
</g>
</g>
<!-- Node1&#45;&gt;Node12 -->
<g id="edge11_Node000001_Node000012" class="edge">
<title>Node1&#45;&gt;Node12</title>
<g id="a_edge11_Node000001_Node000012"><a xlink:title=" ">
<path fill="none" stroke="#63b8ff" d="M1058.48,-95C1066.92,-95 1075.48,-95 1083.97,-95"/>
<polygon fill="#63b8ff" stroke="#63b8ff" points="1058.26,-91.5 1048.26,-95 1058.26,-98.5 1058.26,-91.5"/>
</a>
</g>
</g>
<!-- Node13 -->
<g id="Node000013" class="node">
<title>Node13</title>
<g id="a_Node000013"><a xlink:href="classDynExpInstr_1_1RS__SMC100AConfigurator.html" target="_top" xlink:title=" ">
<polygon fill="white" stroke="#666666" points="1290,-67.5 1084,-67.5 1084,-48.5 1290,-48.5 1290,-67.5"/>
<text text-anchor="middle" x="1187" y="-55.5" font-family="Helvetica,sans-Serif" font-size="10.00">DynExpInstr::RS_SMC100AConfigurator</text>
</a>
</g>
</g>
<!-- Node1&#45;&gt;Node13 -->
<g id="edge12_Node000001_Node000013" class="edge">
<title>Node1&#45;&gt;Node13</title>
<g id="a_edge12_Node000001_Node000013"><a xlink:title=" ">
<path fill="none" stroke="#63b8ff" d="M1058.4,-79.17C1082.23,-75.22 1107.07,-71.1 1128.42,-67.55"/>
<polygon fill="#63b8ff" stroke="#63b8ff" points="1057.55,-75.76 1048.26,-80.85 1058.7,-82.67 1057.55,-75.76"/>
</a>
</g>
</g>
<!-- Node14 -->
<g id="Node000014" class="node">
<title>Node14</title>
<g id="a_Node000014"><a xlink:href="classDynExpInstr_1_1SwabianInstrumentsPulseStreamerConfigurator.html" target="_top" xlink:title=" ">
<polygon fill="white" stroke="#666666" points="1278,-30 1096,-30 1096,0 1278,0 1278,-30"/>
<text text-anchor="start" x="1104" y="-18" font-family="Helvetica,sans-Serif" font-size="10.00">DynExpInstr::SwabianInstruments</text>
<text text-anchor="middle" x="1187" y="-7" font-family="Helvetica,sans-Serif" font-size="10.00">PulseStreamerConfigurator</text>
</a>
</g>
</g>
<!-- Node1&#45;&gt;Node14 -->
<g id="edge13_Node000001_Node000014" class="edge">
<title>Node1&#45;&gt;Node14</title>
<g id="a_edge13_Node000001_Node000014"><a xlink:title=" ">
<path fill="none" stroke="#63b8ff" d="M1000.11,-75.44C1023.65,-63.64 1055.02,-49 1084,-39 1093.54,-35.71 1103.74,-32.71 1113.87,-30.04"/>
<polygon fill="#63b8ff" stroke="#63b8ff" points="998.51,-72.33 991.17,-79.97 1001.68,-78.57 998.51,-72.33"/>
</a>
</g>
</g>
<!-- Node2 -->
<g id="Node000002" class="node">
<title>Node2</title>
<g id="a_Node000002"><a xlink:href="classDynExpInstr_1_1DataStreamInstrumentConfigurator.html" target="_top" xlink:title="Configurator class for DataStreamInstrument.">
<polygon fill="white" stroke="#666666" points="840,-110 646,-110 646,-80 840,-80 840,-110"/>
<text text-anchor="start" x="654" y="-98" font-family="Helvetica,sans-Serif" font-size="10.00">DynExpInstr::DataStreamInstrument</text>
<text text-anchor="middle" x="743" y="-87" font-family="Helvetica,sans-Serif" font-size="10.00">Configurator</text>
</a>
</g>
</g>
<!-- Node2&#45;&gt;Node1 -->
<g id="edge1_Node000001_Node000002" class="edge">
<title>Node2&#45;&gt;Node1</title>
<g id="a_edge1_Node000001_Node000002"><a xlink:title=" ">
<path fill="none" stroke="#63b8ff" d="M850.21,-95C858.81,-95 867.43,-95 875.86,-95"/>
<polygon fill="#63b8ff" stroke="#63b8ff" points="850.13,-91.5 840.13,-95 850.13,-98.5 850.13,-91.5"/>
</a>
</g>
</g>
<!-- Node3 -->
<g id="Node000003" class="node">
<title>Node3</title>
<g id="a_Node000003"><a xlink:href="classDynExp_1_1InstrumentConfiguratorBase.html" target="_top" xlink:title="Configurator class for InstrumentBase.">
<polygon fill="white" stroke="#666666" points="610,-104.5 413,-104.5 413,-85.5 610,-85.5 610,-104.5"/>
<text text-anchor="middle" x="511.5" y="-92.5" font-family="Helvetica,sans-Serif" font-size="10.00">DynExp::InstrumentConfiguratorBase</text>
</a>
</g>
</g>
<!-- Node3&#45;&gt;Node2 -->
<g id="edge2_Node000002_Node000003" class="edge">
<title>Node3&#45;&gt;Node2</title>
<g id="a_edge2_Node000002_Node000003"><a xlink:title=" ">
<path fill="none" stroke="#63b8ff" d="M620.19,-95C628.77,-95 637.4,-95 645.89,-95"/>
<polygon fill="#63b8ff" stroke="#63b8ff" points="620.16,-91.5 610.16,-95 620.16,-98.5 620.16,-91.5"/>
</a>
</g>
</g>
<!-- Node4 -->
<g id="Node000004" class="node">
<title>Node4</title>
<g id="a_Node000004"><a xlink:href="classDynExp_1_1RunnableObjectConfigurator.html" target="_top" xlink:title="Configurator class for RunnableObject.">
<polygon fill="white" stroke="#666666" points="377,-104.5 180,-104.5 180,-85.5 377,-85.5 377,-104.5"/>
<text text-anchor="middle" x="278.5" y="-92.5" font-family="Helvetica,sans-Serif" font-size="10.00">DynExp::RunnableObjectConfigurator</text>
</a>
</g>
</g>
<!-- Node4&#45;&gt;Node3 -->
<g id="edge3_Node000003_Node000004" class="edge">
<title>Node4&#45;&gt;Node3</title>
<g id="a_edge3_Node000003_Node000004"><a xlink:title=" ">
<path fill="none" stroke="#63b8ff" d="M387.15,-95C395.72,-95 404.35,-95 412.85,-95"/>
<polygon fill="#63b8ff" stroke="#63b8ff" points="387.13,-91.5 377.13,-95 387.13,-98.5 387.13,-91.5"/>
</a>
</g>
</g>
<!-- Node5 -->
<g id="Node000005" class="node">
<title>Node5</title>
<g id="a_Node000005"><a xlink:href="classDynExp_1_1ConfiguratorBase.html" target="_top" xlink:title="The configurator classes have the task to generate parameter objects (refer to DynExp::ParamsBase) of...">
<polygon fill="white" stroke="#666666" points="144,-104.5 0,-104.5 0,-85.5 144,-85.5 144,-104.5"/>
<text text-anchor="middle" x="72" y="-92.5" font-family="Helvetica,sans-Serif" font-size="10.00">DynExp::ConfiguratorBase</text>
</a>
</g>
</g>
<!-- Node5&#45;&gt;Node4 -->
<g id="edge4_Node000004_Node000005" class="edge">
<title>Node5&#45;&gt;Node4</title>
<g id="a_edge4_Node000004_Node000005"><a xlink:title=" ">
<path fill="none" stroke="#63b8ff" d="M154.36,-95C162.76,-95 171.35,-95 179.89,-95"/>
<polygon fill="#63b8ff" stroke="#63b8ff" points="154.24,-91.5 144.24,-95 154.24,-98.5 154.24,-91.5"/>
</a>
</g>
</g>
<!-- Node8 -->
<g id="Node000008" class="node">
<title>Node8</title>
<g id="a_Node000008"><a xlink:href="classDynExpInstr_1_1AnalogOutConfigurator.html" target="_top" xlink:title="Configurator class for AnalogOut.">
<polygon fill="white" stroke="#666666" points="1519,-161.5 1326,-161.5 1326,-142.5 1519,-142.5 1519,-161.5"/>
<text text-anchor="middle" x="1422.5" y="-149.5" font-family="Helvetica,sans-Serif" font-size="10.00">DynExpInstr::AnalogOutConfigurator</text>
</a>
</g>
</g>
<!-- Node7&#45;&gt;Node8 -->
<g id="edge7_Node000007_Node000008" class="edge">
<title>Node7&#45;&gt;Node8</title>
<g id="a_edge7_Node000007_Node000008"><a xlink:title=" ">
<path fill="none" stroke="#63b8ff" d="M1294.33,-141.11C1304.81,-142.01 1315.41,-142.91 1325.78,-143.8"/>
<polygon fill="#63b8ff" stroke="#63b8ff" points="1294.58,-137.62 1284.32,-140.25 1293.99,-144.59 1294.58,-137.62"/>
</a>
</g>
</g>
<!-- Node10 -->
<g id="Node000010" class="node">
<title>Node10</title>
<g id="a_Node000010"><a xlink:href="classDynExpInstr_1_1DigitalOutConfigurator.html" target="_top" xlink:title="Configurator class for DigitalOut.">
<polygon fill="white" stroke="#666666" points="1518,-121.5 1327,-121.5 1327,-102.5 1518,-102.5 1518,-121.5"/>
<text text-anchor="middle" x="1422.5" y="-109.5" font-family="Helvetica,sans-Serif" font-size="10.00">DynExpInstr::DigitalOutConfigurator</text>
</a>
</g>
</g>
<!-- Node7&#45;&gt;Node10 -->
<g id="edge9_Node000007_Node000010" class="edge">
<title>Node7&#45;&gt;Node10</title>
<g id="a_edge9_Node000007_Node000010"><a xlink:title=" ">
<path fill="none" stroke="#63b8ff" d="M1294.6,-122.87C1305.38,-121.95 1316.27,-121.01 1326.91,-120.1"/>
<polygon fill="#63b8ff" stroke="#63b8ff" points="1293.99,-119.41 1284.32,-123.75 1294.58,-126.38 1293.99,-119.41"/>
</a>
</g>
</g>
<!-- Node9 -->
<g id="Node000009" class="node">
<title>Node9</title>
<g id="a_Node000009"><a xlink:href="classDynExpInstr_1_1NIDAQAnalogOutConfigurator.html" target="_top" xlink:title=" ">
<polygon fill="white" stroke="#666666" points="1703,-170 1555,-170 1555,-140 1703,-140 1703,-170"/>
<text text-anchor="start" x="1563" y="-158" font-family="Helvetica,sans-Serif" font-size="10.00">DynExpInstr::NIDAQAnalog</text>
<text text-anchor="middle" x="1629" y="-147" font-family="Helvetica,sans-Serif" font-size="10.00">OutConfigurator</text>
</a>
</g>
</g>
<!-- Node8&#45;&gt;Node9 -->
<g id="edge8_Node000008_Node000009" class="edge">
<title>Node8&#45;&gt;Node9</title>
<g id="a_edge8_Node000008_Node000009"><a xlink:title=" ">
<path fill="none" stroke="#63b8ff" d="M1529.26,-153.55C1537.87,-153.68 1546.44,-153.8 1554.73,-153.93"/>
<polygon fill="#63b8ff" stroke="#63b8ff" points="1529.21,-150.05 1519.16,-153.4 1529.11,-157.05 1529.21,-150.05"/>
</a>
</g>
</g>
<!-- Node11 -->
<g id="Node000011" class="node">
<title>Node11</title>
<g id="a_Node000011"><a xlink:href="classDynExpInstr_1_1NIDAQDigitalOutConfigurator.html" target="_top" xlink:title=" ">
<polygon fill="white" stroke="#666666" points="1702,-122 1556,-122 1556,-92 1702,-92 1702,-122"/>
<text text-anchor="start" x="1564" y="-110" font-family="Helvetica,sans-Serif" font-size="10.00">DynExpInstr::NIDAQDigital</text>
<text text-anchor="middle" x="1629" y="-99" font-family="Helvetica,sans-Serif" font-size="10.00">OutConfigurator</text>
</a>
</g>
</g>
<!-- Node10&#45;&gt;Node11 -->
<g id="edge10_Node000010_Node000011" class="edge">
<title>Node10&#45;&gt;Node11</title>
<g id="a_edge10_Node000010_Node000011"><a xlink:title=" ">
<path fill="none" stroke="#63b8ff" d="M1528.36,-109.44C1537.66,-109.21 1546.94,-108.98 1555.87,-108.76"/>
<polygon fill="#63b8ff" stroke="#63b8ff" points="1528.18,-105.94 1518.27,-109.68 1528.35,-112.94 1528.18,-105.94"/>
</a>
</g>
</g>
</g>
</svg>
