<?xml version="1.0" encoding="UTF-8" standalone="no"?>
<!DOCTYPE svg PUBLIC "-//W3C//DTD SVG 1.1//EN"
 "http://www.w3.org/Graphics/SVG/1.1/DTD/svg11.dtd">
<!-- Generated by graphviz version 2.43.0 (0)
 -->
<!-- Title: DynExpInstr::PositionerStageTasks::ExitTask Pages: 1 -->
<svg width="672pt" height="137pt"
 viewBox="0.00 0.00 672.00 137.00" xmlns="http://www.w3.org/2000/svg" xmlns:xlink="http://www.w3.org/1999/xlink">
<g id="graph0" class="graph" transform="scale(1 1) rotate(0) translate(4 133)">
<title>DynExpInstr::PositionerStageTasks::ExitTask</title>
<polygon fill="white" stroke="transparent" points="-4,4 -4,-133 668,-133 668,4 -4,4"/>
<!-- Node1 -->
<g id="node1" class="node">
<title>Node1</title>
<g id="a_node1"><a xlink:title="Defines a task for deinitializing an instrument within an instrument inheritance hierarchy....">
<polygon fill="#bfbfbf" stroke="black" points="303,-49.5 303,-79.5 461,-79.5 461,-49.5 303,-49.5"/>
<text text-anchor="start" x="311" y="-67.5" font-family="Helvetica,sans-Serif" font-size="10.00">DynExpInstr::PositionerStage</text>
<text text-anchor="middle" x="382" y="-56.5" font-family="Helvetica,sans-Serif" font-size="10.00">Tasks::ExitTask</text>
</a>
</g>
</g>
<!-- Node4 -->
<g id="node4" class="node">
<title>Node4</title>
<g id="a_node4"><a xlink:href="classDynExpInstr_1_1NenionLeakvalveF3Tasks_1_1ExitTask.html" target="_top" xlink:title=" ">
<polygon fill="white" stroke="black" points="497,-98.5 497,-128.5 664,-128.5 664,-98.5 497,-98.5"/>
<text text-anchor="start" x="505" y="-116.5" font-family="Helvetica,sans-Serif" font-size="10.00">DynExpInstr::NenionLeakvalve</text>
<text text-anchor="middle" x="580.5" y="-105.5" font-family="Helvetica,sans-Serif" font-size="10.00">F3Tasks::ExitTask</text>
</a>
</g>
</g>
<!-- Node1&#45;&gt;Node4 -->
<g id="edge3" class="edge">
<title>Node1&#45;&gt;Node4</title>
<path fill="none" stroke="midnightblue" d="M453.09,-81.98C474.74,-87.38 498.4,-93.28 519.32,-98.49"/>
<polygon fill="midnightblue" stroke="midnightblue" points="453.84,-78.56 443.29,-79.53 452.15,-85.35 453.84,-78.56"/>
</g>
<!-- Node5 -->
<g id="node5" class="node">
<title>Node5</title>
<g id="a_node5"><a xlink:href="classDynExpInstr_1_1PI__C__862__Tasks_1_1ExitTask.html" target="_top" xlink:title=" ">
<polygon fill="white" stroke="black" points="517.5,-49.5 517.5,-79.5 643.5,-79.5 643.5,-49.5 517.5,-49.5"/>
<text text-anchor="start" x="525.5" y="-67.5" font-family="Helvetica,sans-Serif" font-size="10.00">DynExpInstr::PI_C_862</text>
<text text-anchor="middle" x="580.5" y="-56.5" font-family="Helvetica,sans-Serif" font-size="10.00">_Tasks::ExitTask</text>
</a>
</g>
</g>
<!-- Node1&#45;&gt;Node5 -->
<g id="edge4" class="edge">
<title>Node1&#45;&gt;Node5</title>
<path fill="none" stroke="midnightblue" d="M471.35,-64.5C486.84,-64.5 502.67,-64.5 517.27,-64.5"/>
<polygon fill="midnightblue" stroke="midnightblue" points="471.23,-61 461.23,-64.5 471.23,-68 471.23,-61"/>
</g>
<!-- Node6 -->
<g id="node6" class="node">
<title>Node6</title>
<g id="a_node6"><a xlink:href="classDynExpInstr_1_1SmarActTasks_1_1ExitTask.html" target="_top" xlink:title=" ">
<polygon fill="white" stroke="black" points="505.5,-0.5 505.5,-30.5 655.5,-30.5 655.5,-0.5 505.5,-0.5"/>
<text text-anchor="start" x="513.5" y="-18.5" font-family="Helvetica,sans-Serif" font-size="10.00">DynExpInstr::SmarActTasks</text>
<text text-anchor="middle" x="580.5" y="-7.5" font-family="Helvetica,sans-Serif" font-size="10.00">::ExitTask</text>
</a>
</g>
</g>
<!-- Node1&#45;&gt;Node6 -->
<g id="edge5" class="edge">
<title>Node1&#45;&gt;Node6</title>
<path fill="none" stroke="midnightblue" d="M453.09,-47.02C474.74,-41.62 498.4,-35.72 519.32,-30.51"/>
<polygon fill="midnightblue" stroke="midnightblue" points="452.15,-43.65 443.29,-49.47 453.84,-50.44 452.15,-43.65"/>
</g>
<!-- Node2 -->
<g id="node2" class="node">
<title>Node2</title>
<g id="a_node2"><a xlink:href="classDynExp_1_1ExitTaskBase.html" target="_top" xlink:title="Defines a task for deinitializing an instrument within an instrument inheritance hierarchy....">
<polygon fill="white" stroke="black" points="142,-55 142,-74 267,-74 267,-55 142,-55"/>
<text text-anchor="middle" x="204.5" y="-62" font-family="Helvetica,sans-Serif" font-size="10.00">DynExp::ExitTaskBase</text>
</a>
</g>
</g>
<!-- Node2&#45;&gt;Node1 -->
<g id="edge1" class="edge">
<title>Node2&#45;&gt;Node1</title>
<path fill="none" stroke="midnightblue" d="M277.44,-64.5C285.79,-64.5 294.34,-64.5 302.77,-64.5"/>
<polygon fill="midnightblue" stroke="midnightblue" points="277.37,-61 267.37,-64.5 277.37,-68 277.37,-61"/>
</g>
<!-- Node3 -->
<g id="node3" class="node">
<title>Node3</title>
<g id="a_node3"><a xlink:href="classDynExp_1_1TaskBase.html" target="_top" xlink:title="Base class for all tasks being processed by instruments. The class must not contain public virtual fu...">
<polygon fill="white" stroke="black" points="0,-55 0,-74 106,-74 106,-55 0,-55"/>
<text text-anchor="middle" x="53" y="-62" font-family="Helvetica,sans-Serif" font-size="10.00">DynExp::TaskBase</text>
</a>
</g>
</g>
<!-- Node3&#45;&gt;Node2 -->
<g id="edge2" class="edge">
<title>Node3&#45;&gt;Node2</title>
<path fill="none" stroke="midnightblue" d="M116.38,-64.5C124.77,-64.5 133.37,-64.5 141.75,-64.5"/>
<polygon fill="midnightblue" stroke="midnightblue" points="116.29,-61 106.29,-64.5 116.29,-68 116.29,-61"/>
</g>
</g>
</svg>
