<?xml version="1.0" encoding="UTF-8" standalone="no"?>
<!DOCTYPE svg PUBLIC "-//W3C//DTD SVG 1.1//EN"
 "http://www.w3.org/Graphics/SVG/1.1/DTD/svg11.dtd">
<!-- Generated by graphviz version 2.43.0 (0)
 -->
<!-- Title: DynExpInstr::gRPCInstrumentTasks::ExitTask&lt; BaseInstr,, gRPCStubs &gt; Pages: 1 -->
<svg width="721pt" height="290pt"
 viewBox="0.00 0.00 721.00 290.00" xmlns="http://www.w3.org/2000/svg" xmlns:xlink="http://www.w3.org/1999/xlink">
<g id="graph0" class="graph" transform="scale(1 1) rotate(0) translate(4 286)">
<title>DynExpInstr::gRPCInstrumentTasks::ExitTask&lt; BaseInstr,, gRPCStubs &gt;</title>
<polygon fill="white" stroke="transparent" points="-4,4 -4,-286 717,-286 717,4 -4,4"/>
<!-- Node1 -->
<g id="node1" class="node">
<title>Node1</title>
<g id="a_node1"><a xlink:title="Defines a task for deinitializing an instrument within an instrument inheritance hierarchy....">
<polygon fill="#bfbfbf" stroke="black" points="167,-84.5 167,-125.5 328,-125.5 328,-84.5 167,-84.5"/>
<text text-anchor="start" x="175" y="-113.5" font-family="Helvetica,sans-Serif" font-size="10.00">DynExpInstr::gRPCInstrument</text>
<text text-anchor="start" x="175" y="-102.5" font-family="Helvetica,sans-Serif" font-size="10.00">Tasks::ExitTask&lt; BaseInstr,</text>
<text text-anchor="middle" x="247.5" y="-91.5" font-family="Helvetica,sans-Serif" font-size="10.00">, gRPCStubs &gt;</text>
</a>
</g>
</g>
<!-- Node3 -->
<g id="node3" class="node">
<title>Node3</title>
<g id="a_node3"><a xlink:href="classDynExpInstr_1_1NetworkDataStreamInstrumentTasks_1_1ExitTask.html" target="_top" xlink:title=" ">
<polygon fill="white" stroke="black" points="364,-115 364,-167 510,-167 510,-115 364,-115"/>
<text text-anchor="start" x="372" y="-155" font-family="Helvetica,sans-Serif" font-size="10.00">DynExpInstr::NetworkData</text>
<text text-anchor="start" x="372" y="-144" font-family="Helvetica,sans-Serif" font-size="10.00">StreamInstrumentTasks</text>
<text text-anchor="start" x="372" y="-133" font-family="Helvetica,sans-Serif" font-size="10.00">::ExitTask&lt; BaseInstr,</text>
<text text-anchor="middle" x="437" y="-122" font-family="Helvetica,sans-Serif" font-size="10.00"> 0, gRPCStubs... &gt;</text>
</a>
</g>
</g>
<!-- Node1&#45;&gt;Node3 -->
<g id="edge2" class="edge">
<title>Node1&#45;&gt;Node3</title>
<path fill="none" stroke="midnightblue" d="M338.1,-122.2C346.71,-123.86 355.38,-125.52 363.8,-127.14"/>
<polygon fill="midnightblue" stroke="midnightblue" points="338.5,-118.72 328.02,-120.27 337.18,-125.59 338.5,-118.72"/>
</g>
<!-- Node9 -->
<g id="node9" class="node">
<title>Node9</title>
<g id="a_node9"><a xlink:href="classDynExpInstr_1_1NetworkDataStreamInstrumentTasks_1_1ExitTask.html" target="_top" xlink:title=" ">
<polygon fill="white" stroke="black" points="364,-44 364,-96 510,-96 510,-44 364,-44"/>
<text text-anchor="start" x="372" y="-84" font-family="Helvetica,sans-Serif" font-size="10.00">DynExpInstr::NetworkData</text>
<text text-anchor="start" x="372" y="-73" font-family="Helvetica,sans-Serif" font-size="10.00">StreamInstrumentTasks</text>
<text text-anchor="start" x="372" y="-62" font-family="Helvetica,sans-Serif" font-size="10.00">::ExitTask&lt; BaseInstr,,</text>
<text text-anchor="middle" x="437" y="-51" font-family="Helvetica,sans-Serif" font-size="10.00"> gRPCStubs &gt;</text>
</a>
</g>
</g>
<!-- Node1&#45;&gt;Node9 -->
<g id="edge8" class="edge">
<title>Node1&#45;&gt;Node9</title>
<path fill="none" stroke="midnightblue" d="M338.1,-88.28C346.71,-86.67 355.38,-85.05 363.8,-83.48"/>
<polygon fill="midnightblue" stroke="midnightblue" points="337.2,-84.88 328.02,-90.16 338.49,-91.76 337.2,-84.88"/>
</g>
<!-- Node2 -->
<g id="node2" class="node">
<title>Node2</title>
<g id="a_node2"><a xlink:title=" ">
<polygon fill="white" stroke="#bfbfbf" points="0,-95.5 0,-114.5 131,-114.5 131,-95.5 0,-95.5"/>
<text text-anchor="middle" x="65.5" y="-102.5" font-family="Helvetica,sans-Serif" font-size="10.00">BaseInstr::ExitTaskType</text>
</a>
</g>
</g>
<!-- Node2&#45;&gt;Node1 -->
<g id="edge1" class="edge">
<title>Node2&#45;&gt;Node1</title>
<path fill="none" stroke="midnightblue" d="M141.41,-105C149.85,-105 158.47,-105 166.97,-105"/>
<polygon fill="midnightblue" stroke="midnightblue" points="141.23,-101.5 131.23,-105 141.23,-108.5 141.23,-101.5"/>
</g>
<!-- Node4 -->
<g id="node4" class="node">
<title>Node4</title>
<g id="a_node4"><a xlink:href="classDynExpInstr_1_1NetworkAnalogInTasks_1_1ExitTask.html" target="_top" xlink:title=" ">
<polygon fill="white" stroke="black" points="550,-240.5 550,-281.5 709,-281.5 709,-240.5 550,-240.5"/>
<text text-anchor="start" x="558" y="-269.5" font-family="Helvetica,sans-Serif" font-size="10.00">DynExpInstr::NetworkAnalog</text>
<text text-anchor="start" x="558" y="-258.5" font-family="Helvetica,sans-Serif" font-size="10.00">InTasks::ExitTask&lt; BaseInstr,</text>
<text text-anchor="middle" x="629.5" y="-247.5" font-family="Helvetica,sans-Serif" font-size="10.00">, gRPCStubs &gt;</text>
</a>
</g>
</g>
<!-- Node3&#45;&gt;Node4 -->
<g id="edge3" class="edge">
<title>Node3&#45;&gt;Node4</title>
<path fill="none" stroke="midnightblue" d="M471.41,-174.07C491.67,-192.73 518.79,-215.36 546,-231 551.95,-234.42 558.35,-237.56 564.87,-240.42"/>
<polygon fill="midnightblue" stroke="midnightblue" points="473.7,-171.41 464,-167.14 468.91,-176.53 473.7,-171.41"/>
</g>
<!-- Node5 -->
<g id="node5" class="node">
<title>Node5</title>
<g id="a_node5"><a xlink:href="classDynExpInstr_1_1NetworkAnalogOutTasks_1_1ExitTask.html" target="_top" xlink:title=" ">
<polygon fill="white" stroke="black" points="546,-180.5 546,-221.5 713,-221.5 713,-180.5 546,-180.5"/>
<text text-anchor="start" x="554" y="-209.5" font-family="Helvetica,sans-Serif" font-size="10.00">DynExpInstr::NetworkAnalog</text>
<text text-anchor="start" x="554" y="-198.5" font-family="Helvetica,sans-Serif" font-size="10.00">OutTasks::ExitTask&lt; BaseInstr,</text>
<text text-anchor="middle" x="629.5" y="-187.5" font-family="Helvetica,sans-Serif" font-size="10.00">, gRPCStubs &gt;</text>
</a>
</g>
</g>
<!-- Node3&#45;&gt;Node5 -->
<g id="edge4" class="edge">
<title>Node3&#45;&gt;Node5</title>
<path fill="none" stroke="midnightblue" d="M519.96,-166.81C534.44,-171.37 549.33,-176.06 563.27,-180.46"/>
<polygon fill="midnightblue" stroke="midnightblue" points="520.61,-163.35 510.02,-163.68 518.51,-170.03 520.61,-163.35"/>
</g>
<!-- Node6 -->
<g id="node6" class="node">
<title>Node6</title>
<g id="a_node6"><a xlink:href="classDynExpInstr_1_1NetworkDigitalInTasks_1_1ExitTask.html" target="_top" xlink:title=" ">
<polygon fill="white" stroke="black" points="550,-120.5 550,-161.5 709,-161.5 709,-120.5 550,-120.5"/>
<text text-anchor="start" x="558" y="-149.5" font-family="Helvetica,sans-Serif" font-size="10.00">DynExpInstr::NetworkDigital</text>
<text text-anchor="start" x="558" y="-138.5" font-family="Helvetica,sans-Serif" font-size="10.00">InTasks::ExitTask&lt; BaseInstr,</text>
<text text-anchor="middle" x="629.5" y="-127.5" font-family="Helvetica,sans-Serif" font-size="10.00">, gRPCStubs &gt;</text>
</a>
</g>
</g>
<!-- Node3&#45;&gt;Node6 -->
<g id="edge5" class="edge">
<title>Node3&#45;&gt;Node6</title>
<path fill="none" stroke="midnightblue" d="M520.15,-141C529.95,-141 539.94,-141 549.69,-141"/>
<polygon fill="midnightblue" stroke="midnightblue" points="520.02,-137.5 510.02,-141 520.02,-144.5 520.02,-137.5"/>
</g>
<!-- Node7 -->
<g id="node7" class="node">
<title>Node7</title>
<g id="a_node7"><a xlink:href="classDynExpInstr_1_1NetworkDigitalOutTasks_1_1ExitTask.html" target="_top" xlink:title=" ">
<polygon fill="white" stroke="black" points="546,-60.5 546,-101.5 713,-101.5 713,-60.5 546,-60.5"/>
<text text-anchor="start" x="554" y="-89.5" font-family="Helvetica,sans-Serif" font-size="10.00">DynExpInstr::NetworkDigital</text>
<text text-anchor="start" x="554" y="-78.5" font-family="Helvetica,sans-Serif" font-size="10.00">OutTasks::ExitTask&lt; BaseInstr,</text>
<text text-anchor="middle" x="629.5" y="-67.5" font-family="Helvetica,sans-Serif" font-size="10.00">, gRPCStubs &gt;</text>
</a>
</g>
</g>
<!-- Node3&#45;&gt;Node7 -->
<g id="edge6" class="edge">
<title>Node3&#45;&gt;Node7</title>
<path fill="none" stroke="midnightblue" d="M519.96,-115.19C534.44,-110.63 549.33,-105.94 563.27,-101.54"/>
<polygon fill="midnightblue" stroke="midnightblue" points="518.51,-111.97 510.02,-118.32 520.61,-118.65 518.51,-111.97"/>
</g>
<!-- Node8 -->
<g id="node8" class="node">
<title>Node8</title>
<g id="a_node8"><a xlink:href="classDynExpInstr_1_1NetworkTimeTaggerTasks_1_1ExitTask.html" target="_top" xlink:title=" ">
<polygon fill="white" stroke="black" points="555.5,-0.5 555.5,-41.5 703.5,-41.5 703.5,-0.5 555.5,-0.5"/>
<text text-anchor="start" x="563.5" y="-29.5" font-family="Helvetica,sans-Serif" font-size="10.00">DynExpInstr::NetworkTime</text>
<text text-anchor="start" x="563.5" y="-18.5" font-family="Helvetica,sans-Serif" font-size="10.00">TaggerTasks::ExitTask</text>
<text text-anchor="middle" x="629.5" y="-7.5" font-family="Helvetica,sans-Serif" font-size="10.00">&lt; BaseInstr,, gRPCStubs &gt;</text>
</a>
</g>
</g>
<!-- Node3&#45;&gt;Node8 -->
<g id="edge7" class="edge">
<title>Node3&#45;&gt;Node8</title>
<path fill="none" stroke="midnightblue" d="M505.36,-108.85C506.96,-107.6 508.51,-106.32 510,-105 531.62,-85.91 523.32,-68.82 546,-51 550.43,-47.52 555.31,-44.41 560.41,-41.65"/>
<polygon fill="midnightblue" stroke="midnightblue" points="503.15,-106.13 497.05,-114.79 507.22,-111.82 503.15,-106.13"/>
</g>
</g>
</svg>
