<?xml version="1.0" encoding="UTF-8" standalone="no"?>
<!DOCTYPE svg PUBLIC "-//W3C//DTD SVG 1.1//EN"
 "http://www.w3.org/Graphics/SVG/1.1/DTD/svg11.dtd">
<!-- Generated by graphviz version 2.43.0 (0)
 -->
<!-- Title: DynExp::InstrumentConfiguratorBase Pages: 1 -->
<svg width="1744pt" height="468pt"
 viewBox="0.00 0.00 1744.00 467.50" xmlns="http://www.w3.org/2000/svg" xmlns:xlink="http://www.w3.org/1999/xlink">
<g id="graph0" class="graph" transform="scale(1 1) rotate(0) translate(4 463.5)">
<title>DynExp::InstrumentConfiguratorBase</title>
<!-- Node1 -->
<g id="Node000001" class="node">
<title>Node1</title>
<g id="a_Node000001"><a xlink:title="Configurator class for InstrumentBase.">
<polygon fill="#999999" stroke="#666666" points="610,-153 413,-153 413,-134 610,-134 610,-153"/>
<text text-anchor="middle" x="511.5" y="-141" font-family="Helvetica,sans-Serif" font-size="10.00">DynExp::InstrumentConfiguratorBase</text>
</a>
</g>
</g>
<!-- Node4 -->
<g id="Node000004" class="node">
<title>Node4</title>
<g id="a_Node000004"><a xlink:href="classDynExpInstr_1_1CameraConfigurator.html" target="_top" xlink:title="Configurator class for Camera.">
<polygon fill="white" stroke="#666666" points="833,-380 653,-380 653,-361 833,-361 833,-380"/>
<text text-anchor="middle" x="743" y="-368" font-family="Helvetica,sans-Serif" font-size="10.00">DynExpInstr::CameraConfigurator</text>
</a>
</g>
</g>
<!-- Node1&#45;&gt;Node4 -->
<g id="edge3_Node000001_Node000004" class="edge">
<title>Node1&#45;&gt;Node4</title>
<g id="a_edge3_Node000001_Node000004"><a xlink:title=" ">
<path fill="none" stroke="#63b8ff" d="M529.66,-160.47C574.96,-205.28 696.7,-325.7 732.18,-360.78"/>
<polygon fill="#63b8ff" stroke="#63b8ff" points="531.93,-157.8 522.36,-153.25 527.01,-162.77 531.93,-157.8"/>
</a>
</g>
</g>
<!-- Node7 -->
<g id="Node000007" class="node">
<title>Node7</title>
<g id="a_Node000007"><a xlink:href="classDynExpInstr_1_1DataStreamInstrumentConfigurator.html" target="_top" xlink:title="Configurator class for DataStreamInstrument.">
<polygon fill="white" stroke="#666666" points="840,-206.5 646,-206.5 646,-176.5 840,-176.5 840,-206.5"/>
<text text-anchor="start" x="654" y="-194.5" font-family="Helvetica,sans-Serif" font-size="10.00">DynExpInstr::DataStreamInstrument</text>
<text text-anchor="middle" x="743" y="-183.5" font-family="Helvetica,sans-Serif" font-size="10.00">Configurator</text>
</a>
</g>
</g>
<!-- Node1&#45;&gt;Node7 -->
<g id="edge6_Node000001_Node000007" class="edge">
<title>Node1&#45;&gt;Node7</title>
<g id="a_edge6_Node000001_Node000007"><a xlink:title=" ">
<path fill="none" stroke="#63b8ff" d="M568.21,-155.15C598.9,-161.57 637.35,-169.61 670.26,-176.5"/>
<polygon fill="#63b8ff" stroke="#63b8ff" points="568.62,-151.66 558.12,-153.04 567.19,-158.51 568.62,-151.66"/>
</a>
</g>
</g>
<!-- Node27 -->
<g id="Node000027" class="node">
<title>Node27</title>
<g id="a_Node000027"><a xlink:href="classDynExpInstr_1_1InterModuleCommunicatorConfigurator.html" target="_top" xlink:title="Configurator class for InterModuleCommunicator.">
<polygon fill="white" stroke="#666666" points="817.5,-158.5 668.5,-158.5 668.5,-128.5 817.5,-128.5 817.5,-158.5"/>
<text text-anchor="start" x="676.5" y="-146.5" font-family="Helvetica,sans-Serif" font-size="10.00">DynExpInstr::InterModule</text>
<text text-anchor="middle" x="743" y="-135.5" font-family="Helvetica,sans-Serif" font-size="10.00">CommunicatorConfigurator</text>
</a>
</g>
</g>
<!-- Node1&#45;&gt;Node27 -->
<g id="edge26_Node000001_Node000027" class="edge">
<title>Node1&#45;&gt;Node27</title>
<g id="a_edge26_Node000001_Node000027"><a xlink:title=" ">
<path fill="none" stroke="#63b8ff" d="M620.27,-143.5C636.57,-143.5 653.06,-143.5 668.42,-143.5"/>
<polygon fill="#63b8ff" stroke="#63b8ff" points="620.16,-140 610.16,-143.5 620.16,-147 620.16,-140"/>
</a>
</g>
</g>
<!-- Node28 -->
<g id="Node000028" class="node">
<title>Node28</title>
<g id="a_Node000028"><a xlink:href="classDynExpInstr_1_1PositionerStageConfigurator.html" target="_top" xlink:title="Configurator class for PositionerStage.">
<polygon fill="white" stroke="#666666" points="822,-110.5 664,-110.5 664,-80.5 822,-80.5 822,-110.5"/>
<text text-anchor="start" x="672" y="-98.5" font-family="Helvetica,sans-Serif" font-size="10.00">DynExpInstr::PositionerStage</text>
<text text-anchor="middle" x="743" y="-87.5" font-family="Helvetica,sans-Serif" font-size="10.00">Configurator</text>
</a>
</g>
</g>
<!-- Node1&#45;&gt;Node28 -->
<g id="edge27_Node000001_Node000028" class="edge">
<title>Node1&#45;&gt;Node28</title>
<g id="a_edge27_Node000001_Node000028"><a xlink:title=" ">
<path fill="none" stroke="#63b8ff" d="M568.21,-131.85C598.9,-125.43 637.35,-117.39 670.26,-110.5"/>
<polygon fill="#63b8ff" stroke="#63b8ff" points="567.19,-128.49 558.12,-133.96 568.62,-135.34 567.19,-128.49"/>
</a>
</g>
</g>
<!-- Node32 -->
<g id="Node000032" class="node">
<title>Node32</title>
<g id="a_Node000032"><a xlink:href="classDynExpInstr_1_1SpectrometerConfigurator.html" target="_top" xlink:title="Configurator class for Spectrometer.">
<polygon fill="white" stroke="#666666" points="817,-62.5 669,-62.5 669,-32.5 817,-32.5 817,-62.5"/>
<text text-anchor="start" x="677" y="-50.5" font-family="Helvetica,sans-Serif" font-size="10.00">DynExpInstr::Spectrometer</text>
<text text-anchor="middle" x="743" y="-39.5" font-family="Helvetica,sans-Serif" font-size="10.00">Configurator</text>
</a>
</g>
</g>
<!-- Node1&#45;&gt;Node32 -->
<g id="edge31_Node000001_Node000032" class="edge">
<title>Node1&#45;&gt;Node32</title>
<g id="a_edge31_Node000001_Node000032"><a xlink:title=" ">
<path fill="none" stroke="#63b8ff" d="M536.29,-128.3C562.34,-112.23 605.76,-87.1 646,-71.5 654.57,-68.18 663.75,-65.2 672.91,-62.56"/>
<polygon fill="#63b8ff" stroke="#63b8ff" points="534.15,-125.51 527.52,-133.77 537.86,-131.45 534.15,-125.51"/>
</a>
</g>
</g>
<!-- Node2 -->
<g id="Node000002" class="node">
<title>Node2</title>
<g id="a_Node000002"><a xlink:href="classDynExp_1_1RunnableObjectConfigurator.html" target="_top" xlink:title="Configurator class for RunnableObject.">
<polygon fill="white" stroke="#666666" points="377,-153 180,-153 180,-134 377,-134 377,-153"/>
<text text-anchor="middle" x="278.5" y="-141" font-family="Helvetica,sans-Serif" font-size="10.00">DynExp::RunnableObjectConfigurator</text>
</a>
</g>
</g>
<!-- Node2&#45;&gt;Node1 -->
<g id="edge1_Node000001_Node000002" class="edge">
<title>Node2&#45;&gt;Node1</title>
<g id="a_edge1_Node000001_Node000002"><a xlink:title=" ">
<path fill="none" stroke="#63b8ff" d="M387.15,-143.5C395.72,-143.5 404.35,-143.5 412.85,-143.5"/>
<polygon fill="#63b8ff" stroke="#63b8ff" points="387.13,-140 377.13,-143.5 387.13,-147 387.13,-140"/>
</a>
</g>
</g>
<!-- Node3 -->
<g id="Node000003" class="node">
<title>Node3</title>
<g id="a_Node000003"><a xlink:href="classDynExp_1_1ConfiguratorBase.html" target="_top" xlink:title="The configurator classes have the task to generate parameter objects (refer to DynExp::ParamsBase) of...">
<polygon fill="white" stroke="#666666" points="144,-153 0,-153 0,-134 144,-134 144,-153"/>
<text text-anchor="middle" x="72" y="-141" font-family="Helvetica,sans-Serif" font-size="10.00">DynExp::ConfiguratorBase</text>
</a>
</g>
</g>
<!-- Node3&#45;&gt;Node2 -->
<g id="edge2_Node000002_Node000003" class="edge">
<title>Node3&#45;&gt;Node2</title>
<g id="a_edge2_Node000002_Node000003"><a xlink:title=" ">
<path fill="none" stroke="#63b8ff" d="M154.36,-143.5C162.76,-143.5 171.35,-143.5 179.89,-143.5"/>
<polygon fill="#63b8ff" stroke="#63b8ff" points="154.24,-140 144.24,-143.5 154.24,-147 154.24,-140"/>
</a>
</g>
</g>
<!-- Node5 -->
<g id="Node000005" class="node">
<title>Node5</title>
<g id="a_Node000005"><a xlink:href="classDynExpInstr_1_1DummyCameraConfigurator.html" target="_top" xlink:title=" ">
<polygon fill="white" stroke="#666666" points="1055,-428.5 896,-428.5 896,-398.5 1055,-398.5 1055,-428.5"/>
<text text-anchor="start" x="904" y="-416.5" font-family="Helvetica,sans-Serif" font-size="10.00">DynExpInstr::DummyCamera</text>
<text text-anchor="middle" x="975.5" y="-405.5" font-family="Helvetica,sans-Serif" font-size="10.00">Configurator</text>
</a>
</g>
</g>
<!-- Node4&#45;&gt;Node5 -->
<g id="edge4_Node000004_Node000005" class="edge">
<title>Node4&#45;&gt;Node5</title>
<g id="a_edge4_Node000004_Node000005"><a xlink:title=" ">
<path fill="none" stroke="#63b8ff" d="M805.14,-381.91C832.95,-387.09 866.21,-393.3 895.85,-398.83"/>
<polygon fill="#63b8ff" stroke="#63b8ff" points="805.63,-378.44 795.16,-380.04 804.34,-385.32 805.63,-378.44"/>
</a>
</g>
</g>
<!-- Node6 -->
<g id="Node000006" class="node">
<title>Node6</title>
<g id="a_Node000006"><a xlink:href="classDynExpInstr_1_1PVCamConfigurator.html" target="_top" xlink:title=" ">
<polygon fill="white" stroke="#666666" points="1064,-380 887,-380 887,-361 1064,-361 1064,-380"/>
<text text-anchor="middle" x="975.5" y="-368" font-family="Helvetica,sans-Serif" font-size="10.00">DynExpInstr::PVCamConfigurator</text>
</a>
</g>
</g>
<!-- Node4&#45;&gt;Node6 -->
<g id="edge5_Node000004_Node000006" class="edge">
<title>Node4&#45;&gt;Node6</title>
<g id="a_edge5_Node000004_Node000006"><a xlink:title=" ">
<path fill="none" stroke="#63b8ff" d="M843.52,-370.5C857.91,-370.5 872.63,-370.5 886.76,-370.5"/>
<polygon fill="#63b8ff" stroke="#63b8ff" points="843.12,-367 833.12,-370.5 843.12,-374 843.12,-367"/>
</a>
</g>
</g>
<!-- Node8 -->
<g id="Node000008" class="node">
<title>Node8</title>
<g id="a_Node000008"><a xlink:href="classDynExpInstr_1_1FunctionGeneratorConfigurator.html" target="_top" xlink:title="Configurator class for FunctionGenerator.">
<polygon fill="white" stroke="#666666" points="1061.5,-342.5 889.5,-342.5 889.5,-312.5 1061.5,-312.5 1061.5,-342.5"/>
<text text-anchor="start" x="897.5" y="-330.5" font-family="Helvetica,sans-Serif" font-size="10.00">DynExpInstr::FunctionGenerator</text>
<text text-anchor="middle" x="975.5" y="-319.5" font-family="Helvetica,sans-Serif" font-size="10.00">Configurator</text>
</a>
</g>
</g>
<!-- Node7&#45;&gt;Node8 -->
<g id="edge7_Node000007_Node000008" class="edge">
<title>Node7&#45;&gt;Node8</title>
<g id="a_edge7_Node000007_Node000008"><a xlink:title=" ">
<path fill="none" stroke="#63b8ff" d="M778.38,-211.78C825,-239.29 907.23,-287.81 948.84,-312.36"/>
<polygon fill="#63b8ff" stroke="#63b8ff" points="779.94,-208.64 769.55,-206.57 776.38,-214.67 779.94,-208.64"/>
</a>
</g>
</g>
<!-- Node18 -->
<g id="Node000018" class="node">
<title>Node18</title>
<g id="a_Node000018"><a xlink:href="classDynExpInstr_1_1InputPortConfigurator.html" target="_top" xlink:title="Configurator class for InputPort.">
<polygon fill="white" stroke="#666666" points="1068.5,-239 882.5,-239 882.5,-220 1068.5,-220 1068.5,-239"/>
<text text-anchor="middle" x="975.5" y="-227" font-family="Helvetica,sans-Serif" font-size="10.00">DynExpInstr::InputPortConfigurator</text>
</a>
</g>
</g>
<!-- Node7&#45;&gt;Node18 -->
<g id="edge17_Node000007_Node000018" class="edge">
<title>Node7&#45;&gt;Node18</title>
<g id="a_edge17_Node000007_Node000018"><a xlink:title=" ">
<path fill="none" stroke="#63b8ff" d="M845.18,-208.18C869.73,-212.23 895.14,-216.42 916.87,-220"/>
<polygon fill="#63b8ff" stroke="#63b8ff" points="845.54,-204.69 835.1,-206.52 844.4,-211.6 845.54,-204.69"/>
</a>
</g>
</g>
<!-- Node23 -->
<g id="Node000023" class="node">
<title>Node23</title>
<g id="a_Node000023"><a xlink:href="classDynExpInstr_1_1LockinAmplifierConfigurator.html" target="_top" xlink:title="Configurator class for LockinAmplifier.">
<polygon fill="white" stroke="#666666" points="1054.5,-201.5 896.5,-201.5 896.5,-171.5 1054.5,-171.5 1054.5,-201.5"/>
<text text-anchor="start" x="904.5" y="-189.5" font-family="Helvetica,sans-Serif" font-size="10.00">DynExpInstr::LockinAmplifier</text>
<text text-anchor="middle" x="975.5" y="-178.5" font-family="Helvetica,sans-Serif" font-size="10.00">Configurator</text>
</a>
</g>
</g>
<!-- Node7&#45;&gt;Node23 -->
<g id="edge22_Node000007_Node000023" class="edge">
<title>Node7&#45;&gt;Node23</title>
<g id="a_edge22_Node000007_Node000023"><a xlink:title=" ">
<path fill="none" stroke="#63b8ff" d="M850.26,-189.19C865.81,-188.86 881.59,-188.52 896.44,-188.19"/>
<polygon fill="#63b8ff" stroke="#63b8ff" points="850.01,-185.7 840.08,-189.42 850.16,-192.7 850.01,-185.7"/>
</a>
</g>
</g>
<!-- Node25 -->
<g id="Node000025" class="node">
<title>Node25</title>
<g id="a_Node000025"><a xlink:href="classDynExpInstr_1_1TimeTaggerConfigurator.html" target="_top" xlink:title="Configurator class for TimeTagger.">
<polygon fill="white" stroke="#666666" points="1075,-153 876,-153 876,-134 1075,-134 1075,-153"/>
<text text-anchor="middle" x="975.5" y="-141" font-family="Helvetica,sans-Serif" font-size="10.00">DynExpInstr::TimeTaggerConfigurator</text>
</a>
</g>
</g>
<!-- Node7&#45;&gt;Node25 -->
<g id="edge24_Node000007_Node000025" class="edge">
<title>Node7&#45;&gt;Node25</title>
<g id="a_edge24_Node000007_Node000025"><a xlink:title=" ">
<path fill="none" stroke="#63b8ff" d="M820.68,-174.31C838.8,-170.34 858.07,-166.2 876,-162.5 891.52,-159.3 908.45,-155.97 923.83,-153.01"/>
<polygon fill="#63b8ff" stroke="#63b8ff" points="819.76,-170.92 810.74,-176.49 821.26,-177.76 819.76,-170.92"/>
</a>
</g>
</g>
<!-- Node9 -->
<g id="Node000009" class="node">
<title>Node9</title>
<g id="a_Node000009"><a xlink:href="classDynExpInstr_1_1DummyDataStreamInstrumentConfigurator.html" target="_top" xlink:title=" ">
<polygon fill="white" stroke="#666666" points="1306.5,-459.5 1127.5,-459.5 1127.5,-429.5 1306.5,-429.5 1306.5,-459.5"/>
<text text-anchor="start" x="1135.5" y="-447.5" font-family="Helvetica,sans-Serif" font-size="10.00">DynExpInstr::DummyDataStream</text>
<text text-anchor="middle" x="1217" y="-436.5" font-family="Helvetica,sans-Serif" font-size="10.00">InstrumentConfigurator</text>
</a>
</g>
</g>
<!-- Node8&#45;&gt;Node9 -->
<g id="edge8_Node000008_Node000009" class="edge">
<title>Node8&#45;&gt;Node9</title>
<g id="a_edge8_Node000008_Node000009"><a xlink:title=" ">
<path fill="none" stroke="#63b8ff" d="M1068.35,-347.81C1070.65,-349.27 1072.88,-350.83 1075,-352.5 1101.88,-373.63 1083.87,-399.69 1111,-420.5 1116.04,-424.37 1121.6,-427.63 1127.45,-430.39"/>
<polygon fill="#63b8ff" stroke="#63b8ff" points="1069.57,-344.49 1059.13,-342.69 1066.17,-350.61 1069.57,-344.49"/>
</a>
</g>
</g>
<!-- Node10 -->
<g id="Node000010" class="node">
<title>Node10</title>
<g id="a_Node000010"><a xlink:href="classDynExpInstr_1_1OutputPortConfigurator.html" target="_top" xlink:title="Configurator class for OutputPort.">
<polygon fill="white" stroke="#666666" points="1314,-411 1120,-411 1120,-392 1314,-392 1314,-411"/>
<text text-anchor="middle" x="1217" y="-399" font-family="Helvetica,sans-Serif" font-size="10.00">DynExpInstr::OutputPortConfigurator</text>
</a>
</g>
</g>
<!-- Node8&#45;&gt;Node10 -->
<g id="edge9_Node000008_Node000010" class="edge">
<title>Node8&#45;&gt;Node10</title>
<g id="a_edge9_Node000008_Node000010"><a xlink:title=" ">
<path fill="none" stroke="#63b8ff" d="M1060.82,-346.05C1065.7,-348 1070.47,-350.14 1075,-352.5 1093.73,-362.25 1091.9,-374.5 1111,-383.5 1118.28,-386.93 1126.11,-389.71 1134.11,-391.97"/>
<polygon fill="#63b8ff" stroke="#63b8ff" points="1061.88,-342.71 1051.29,-342.54 1059.46,-349.28 1061.88,-342.71"/>
</a>
</g>
</g>
<!-- Node15 -->
<g id="Node000015" class="node">
<title>Node15</title>
<g id="a_Node000015"><a xlink:href="classDynExpInstr_1_1RS__SMB100BConfigurator.html" target="_top" xlink:title=" ">
<polygon fill="white" stroke="#666666" points="1320,-374 1114,-374 1114,-355 1320,-355 1320,-374"/>
<text text-anchor="middle" x="1217" y="-362" font-family="Helvetica,sans-Serif" font-size="10.00">DynExpInstr::RS_SMB100BConfigurator</text>
</a>
</g>
</g>
<!-- Node8&#45;&gt;Node15 -->
<g id="edge14_Node000008_Node000015" class="edge">
<title>Node8&#45;&gt;Node15</title>
<g id="a_edge14_Node000008_Node000015"><a xlink:title=" ">
<path fill="none" stroke="#63b8ff" d="M1071.78,-342.22C1099.63,-346.52 1129.33,-351.11 1154.49,-355"/>
<polygon fill="#63b8ff" stroke="#63b8ff" points="1072.03,-338.72 1061.61,-340.65 1070.96,-345.63 1072.03,-338.72"/>
</a>
</g>
</g>
<!-- Node16 -->
<g id="Node000016" class="node">
<title>Node16</title>
<g id="a_Node000016"><a xlink:href="classDynExpInstr_1_1RS__SMC100AConfigurator.html" target="_top" xlink:title=" ">
<polygon fill="white" stroke="#666666" points="1320,-337 1114,-337 1114,-318 1320,-318 1320,-337"/>
<text text-anchor="middle" x="1217" y="-325" font-family="Helvetica,sans-Serif" font-size="10.00">DynExpInstr::RS_SMC100AConfigurator</text>
</a>
</g>
</g>
<!-- Node8&#45;&gt;Node16 -->
<g id="edge15_Node000008_Node000016" class="edge">
<title>Node8&#45;&gt;Node16</title>
<g id="a_edge15_Node000008_Node000016"><a xlink:title=" ">
<path fill="none" stroke="#63b8ff" d="M1071.64,-327.5C1085.55,-327.5 1099.91,-327.5 1113.95,-327.5"/>
<polygon fill="#63b8ff" stroke="#63b8ff" points="1071.61,-324 1061.61,-327.5 1071.61,-331 1071.61,-324"/>
</a>
</g>
</g>
<!-- Node17 -->
<g id="Node000017" class="node">
<title>Node17</title>
<g id="a_Node000017"><a xlink:href="classDynExpInstr_1_1SwabianInstrumentsPulseStreamerConfigurator.html" target="_top" xlink:title=" ">
<polygon fill="white" stroke="#666666" points="1308,-299.5 1126,-299.5 1126,-269.5 1308,-269.5 1308,-299.5"/>
<text text-anchor="start" x="1134" y="-287.5" font-family="Helvetica,sans-Serif" font-size="10.00">DynExpInstr::SwabianInstruments</text>
<text text-anchor="middle" x="1217" y="-276.5" font-family="Helvetica,sans-Serif" font-size="10.00">PulseStreamerConfigurator</text>
</a>
</g>
</g>
<!-- Node8&#45;&gt;Node17 -->
<g id="edge16_Node000008_Node000017" class="edge">
<title>Node8&#45;&gt;Node17</title>
<g id="a_edge16_Node000008_Node000017"><a xlink:title=" ">
<path fill="none" stroke="#63b8ff" d="M1070.22,-310.67C1090.69,-307 1112.23,-303.13 1132.28,-299.53"/>
<polygon fill="#63b8ff" stroke="#63b8ff" points="1069.49,-307.25 1060.27,-312.46 1070.73,-314.14 1069.49,-307.25"/>
</a>
</g>
</g>
<!-- Node11 -->
<g id="Node000011" class="node">
<title>Node11</title>
<g id="a_Node000011"><a xlink:href="classDynExpInstr_1_1AnalogOutConfigurator.html" target="_top" xlink:title="Configurator class for AnalogOut.">
<polygon fill="white" stroke="#666666" points="1552,-432 1359,-432 1359,-413 1552,-413 1552,-432"/>
<text text-anchor="middle" x="1455.5" y="-420" font-family="Helvetica,sans-Serif" font-size="10.00">DynExpInstr::AnalogOutConfigurator</text>
</a>
</g>
</g>
<!-- Node10&#45;&gt;Node11 -->
<g id="edge10_Node000010_Node000011" class="edge">
<title>Node10&#45;&gt;Node11</title>
<g id="a_edge10_Node000010_Node000011"><a xlink:title=" ">
<path fill="none" stroke="#63b8ff" d="M1324.25,-410.93C1335.75,-411.96 1347.41,-412.99 1358.78,-414"/>
<polygon fill="#63b8ff" stroke="#63b8ff" points="1324.46,-407.44 1314.19,-410.04 1323.84,-414.41 1324.46,-407.44"/>
</a>
</g>
</g>
<!-- Node13 -->
<g id="Node000013" class="node">
<title>Node13</title>
<g id="a_Node000013"><a xlink:href="classDynExpInstr_1_1DigitalOutConfigurator.html" target="_top" xlink:title="Configurator class for DigitalOut.">
<polygon fill="white" stroke="#666666" points="1551,-390 1360,-390 1360,-371 1551,-371 1551,-390"/>
<text text-anchor="middle" x="1455.5" y="-378" font-family="Helvetica,sans-Serif" font-size="10.00">DynExpInstr::DigitalOutConfigurator</text>
</a>
</g>
</g>
<!-- Node10&#45;&gt;Node13 -->
<g id="edge12_Node000010_Node000013" class="edge">
<title>Node10&#45;&gt;Node13</title>
<g id="a_edge12_Node000010_Node000013"><a xlink:title=" ">
<path fill="none" stroke="#63b8ff" d="M1324.16,-392.07C1336.08,-391.02 1348.16,-389.94 1359.92,-388.9"/>
<polygon fill="#63b8ff" stroke="#63b8ff" points="1323.84,-388.59 1314.19,-392.96 1324.46,-395.56 1323.84,-388.59"/>
</a>
</g>
</g>
<!-- Node12 -->
<g id="Node000012" class="node">
<title>Node12</title>
<g id="a_Node000012"><a xlink:href="classDynExpInstr_1_1NIDAQAnalogOutConfigurator.html" target="_top" xlink:title=" ">
<polygon fill="white" stroke="#666666" points="1736,-440.5 1588,-440.5 1588,-410.5 1736,-410.5 1736,-440.5"/>
<text text-anchor="start" x="1596" y="-428.5" font-family="Helvetica,sans-Serif" font-size="10.00">DynExpInstr::NIDAQAnalog</text>
<text text-anchor="middle" x="1662" y="-417.5" font-family="Helvetica,sans-Serif" font-size="10.00">OutConfigurator</text>
</a>
</g>
</g>
<!-- Node11&#45;&gt;Node12 -->
<g id="edge11_Node000011_Node000012" class="edge">
<title>Node11&#45;&gt;Node12</title>
<g id="a_edge11_Node000011_Node000012"><a xlink:title=" ">
<path fill="none" stroke="#63b8ff" d="M1562.26,-424.05C1570.87,-424.18 1579.44,-424.3 1587.73,-424.43"/>
<polygon fill="#63b8ff" stroke="#63b8ff" points="1562.21,-420.55 1552.16,-423.9 1562.11,-427.55 1562.21,-420.55"/>
</a>
</g>
</g>
<!-- Node14 -->
<g id="Node000014" class="node">
<title>Node14</title>
<g id="a_Node000014"><a xlink:href="classDynExpInstr_1_1NIDAQDigitalOutConfigurator.html" target="_top" xlink:title=" ">
<polygon fill="white" stroke="#666666" points="1735,-392.5 1589,-392.5 1589,-362.5 1735,-362.5 1735,-392.5"/>
<text text-anchor="start" x="1597" y="-380.5" font-family="Helvetica,sans-Serif" font-size="10.00">DynExpInstr::NIDAQDigital</text>
<text text-anchor="middle" x="1662" y="-369.5" font-family="Helvetica,sans-Serif" font-size="10.00">OutConfigurator</text>
</a>
</g>
</g>
<!-- Node13&#45;&gt;Node14 -->
<g id="edge13_Node000013_Node000014" class="edge">
<title>Node13&#45;&gt;Node14</title>
<g id="a_edge13_Node000013_Node000014"><a xlink:title=" ">
<path fill="none" stroke="#63b8ff" d="M1561.36,-378.96C1570.66,-378.83 1579.94,-378.69 1588.87,-378.56"/>
<polygon fill="#63b8ff" stroke="#63b8ff" points="1561.21,-375.46 1551.27,-379.11 1561.32,-382.46 1561.21,-375.46"/>
</a>
</g>
</g>
<!-- Node19 -->
<g id="Node000019" class="node">
<title>Node19</title>
<g id="a_Node000019"><a xlink:href="classDynExpInstr_1_1AnalogInConfigurator.html" target="_top" xlink:title="Configurator class for AnalogIn.">
<polygon fill="white" stroke="#666666" points="1309.5,-251 1124.5,-251 1124.5,-232 1309.5,-232 1309.5,-251"/>
<text text-anchor="middle" x="1217" y="-239" font-family="Helvetica,sans-Serif" font-size="10.00">DynExpInstr::AnalogInConfigurator</text>
</a>
</g>
</g>
<!-- Node18&#45;&gt;Node19 -->
<g id="edge18_Node000018_Node000019" class="edge">
<title>Node18&#45;&gt;Node19</title>
<g id="a_edge18_Node000018_Node000019"><a xlink:title=" ">
<path fill="none" stroke="#63b8ff" d="M1079.07,-234.64C1094.06,-235.39 1109.43,-236.16 1124.19,-236.9"/>
<polygon fill="#63b8ff" stroke="#63b8ff" points="1078.92,-231.13 1068.75,-234.12 1078.57,-238.12 1078.92,-231.13"/>
</a>
</g>
</g>
<!-- Node21 -->
<g id="Node000021" class="node">
<title>Node21</title>
<g id="a_Node000021"><a xlink:href="classDynExpInstr_1_1DigitalInConfigurator.html" target="_top" xlink:title="Configurator class for DigitalIn.">
<polygon fill="white" stroke="#666666" points="1308.5,-214 1125.5,-214 1125.5,-195 1308.5,-195 1308.5,-214"/>
<text text-anchor="middle" x="1217" y="-202" font-family="Helvetica,sans-Serif" font-size="10.00">DynExpInstr::DigitalInConfigurator</text>
</a>
</g>
</g>
<!-- Node18&#45;&gt;Node21 -->
<g id="edge20_Node000018_Node000021" class="edge">
<title>Node18&#45;&gt;Node21</title>
<g id="a_edge20_Node000018_Node000021"><a xlink:title=" ">
<path fill="none" stroke="#63b8ff" d="M1078,-218.9C1093.75,-217.26 1109.93,-215.57 1125.42,-213.95"/>
<polygon fill="#63b8ff" stroke="#63b8ff" points="1077.31,-215.46 1067.73,-219.98 1078.04,-222.42 1077.31,-215.46"/>
</a>
</g>
</g>
<!-- Node20 -->
<g id="Node000020" class="node">
<title>Node20</title>
<g id="a_Node000020"><a xlink:href="classDynExpInstr_1_1NIDAQAnalogInConfigurator.html" target="_top" xlink:title=" ">
<polygon fill="white" stroke="#666666" points="1529.5,-261.5 1381.5,-261.5 1381.5,-231.5 1529.5,-231.5 1529.5,-261.5"/>
<text text-anchor="start" x="1389.5" y="-249.5" font-family="Helvetica,sans-Serif" font-size="10.00">DynExpInstr::NIDAQAnalog</text>
<text text-anchor="middle" x="1455.5" y="-238.5" font-family="Helvetica,sans-Serif" font-size="10.00">InConfigurator</text>
</a>
</g>
</g>
<!-- Node19&#45;&gt;Node20 -->
<g id="edge19_Node000019_Node000020" class="edge">
<title>Node19&#45;&gt;Node20</title>
<g id="a_edge19_Node000019_Node000020"><a xlink:title=" ">
<path fill="none" stroke="#63b8ff" d="M1319.88,-243.65C1340.59,-244.09 1361.99,-244.54 1381.46,-244.96"/>
<polygon fill="#63b8ff" stroke="#63b8ff" points="1319.85,-240.15 1309.78,-243.44 1319.7,-247.15 1319.85,-240.15"/>
</a>
</g>
</g>
<!-- Node22 -->
<g id="Node000022" class="node">
<title>Node22</title>
<g id="a_Node000022"><a xlink:href="classDynExpInstr_1_1NIDAQDigitalInConfigurator.html" target="_top" xlink:title=" ">
<polygon fill="white" stroke="#666666" points="1528.5,-213.5 1382.5,-213.5 1382.5,-183.5 1528.5,-183.5 1528.5,-213.5"/>
<text text-anchor="start" x="1390.5" y="-201.5" font-family="Helvetica,sans-Serif" font-size="10.00">DynExpInstr::NIDAQDigital</text>
<text text-anchor="middle" x="1455.5" y="-190.5" font-family="Helvetica,sans-Serif" font-size="10.00">InConfigurator</text>
</a>
</g>
</g>
<!-- Node21&#45;&gt;Node22 -->
<g id="edge21_Node000021_Node000022" class="edge">
<title>Node21&#45;&gt;Node22</title>
<g id="a_edge21_Node000021_Node000022"><a xlink:title=" ">
<path fill="none" stroke="#63b8ff" d="M1318.83,-201.94C1340.18,-201.4 1362.3,-200.84 1382.33,-200.33"/>
<polygon fill="#63b8ff" stroke="#63b8ff" points="1318.67,-198.44 1308.76,-202.2 1318.85,-205.44 1318.67,-198.44"/>
</a>
</g>
</g>
<!-- Node24 -->
<g id="Node000024" class="node">
<title>Node24</title>
<g id="a_Node000024"><a xlink:href="classDynExpInstr_1_1ZI__MFLIConfigurator.html" target="_top" xlink:title=" ">
<polygon fill="white" stroke="#666666" points="1307,-177 1127,-177 1127,-158 1307,-158 1307,-177"/>
<text text-anchor="middle" x="1217" y="-165" font-family="Helvetica,sans-Serif" font-size="10.00">DynExpInstr::ZI_MFLIConfigurator</text>
</a>
</g>
</g>
<!-- Node23&#45;&gt;Node24 -->
<g id="edge23_Node000023_Node000024" class="edge">
<title>Node23&#45;&gt;Node24</title>
<g id="a_edge23_Node000023_Node000024"><a xlink:title=" ">
<path fill="none" stroke="#63b8ff" d="M1064.73,-179.5C1084.97,-177.89 1106.51,-176.19 1126.8,-174.58"/>
<polygon fill="#63b8ff" stroke="#63b8ff" points="1064.28,-176.03 1054.59,-180.3 1064.84,-183 1064.28,-176.03"/>
</a>
</g>
</g>
<!-- Node26 -->
<g id="Node000026" class="node">
<title>Node26</title>
<g id="a_Node000026"><a xlink:href="classDynExpInstr_1_1QutoolsQuTAGConfigurator.html" target="_top" xlink:title=" ">
<polygon fill="white" stroke="#666666" points="1323,-140 1111,-140 1111,-121 1323,-121 1323,-140"/>
<text text-anchor="middle" x="1217" y="-128" font-family="Helvetica,sans-Serif" font-size="10.00">DynExpInstr::QutoolsQuTAGConfigurator</text>
</a>
</g>
</g>
<!-- Node25&#45;&gt;Node26 -->
<g id="edge25_Node000025_Node000026" class="edge">
<title>Node25&#45;&gt;Node26</title>
<g id="a_edge25_Node000025_Node000026"><a xlink:title=" ">
<path fill="none" stroke="#63b8ff" d="M1085.52,-137.58C1093.95,-137.13 1102.44,-136.66 1110.83,-136.21"/>
<polygon fill="#63b8ff" stroke="#63b8ff" points="1085.09,-134.1 1075.3,-138.14 1085.47,-141.09 1085.09,-134.1"/>
</a>
</g>
</g>
<!-- Node29 -->
<g id="Node000029" class="node">
<title>Node29</title>
<g id="a_Node000029"><a xlink:href="classDynExpInstr_1_1NenionLeakvalveF3Configurator.html" target="_top" xlink:title=" ">
<polygon fill="white" stroke="#666666" points="1059,-115.5 892,-115.5 892,-85.5 1059,-85.5 1059,-115.5"/>
<text text-anchor="start" x="900" y="-103.5" font-family="Helvetica,sans-Serif" font-size="10.00">DynExpInstr::NenionLeakvalve</text>
<text text-anchor="middle" x="975.5" y="-92.5" font-family="Helvetica,sans-Serif" font-size="10.00">F3Configurator</text>
</a>
</g>
</g>
<!-- Node28&#45;&gt;Node29 -->
<g id="edge28_Node000028_Node000029" class="edge">
<title>Node28&#45;&gt;Node29</title>
<g id="a_edge28_Node000028_Node000029"><a xlink:title=" ">
<path fill="none" stroke="#63b8ff" d="M832.17,-97.41C851.76,-97.84 872.45,-98.29 891.81,-98.71"/>
<polygon fill="#63b8ff" stroke="#63b8ff" points="832.11,-93.91 822.04,-97.19 831.96,-100.91 832.11,-93.91"/>
</a>
</g>
</g>
<!-- Node30 -->
<g id="Node000030" class="node">
<title>Node30</title>
<g id="a_Node000030"><a xlink:href="classDynExpInstr_1_1PI__C__862__Configurator.html" target="_top" xlink:title=" ">
<polygon fill="white" stroke="#666666" points="1038.5,-67.5 912.5,-67.5 912.5,-37.5 1038.5,-37.5 1038.5,-67.5"/>
<text text-anchor="start" x="920.5" y="-55.5" font-family="Helvetica,sans-Serif" font-size="10.00">DynExpInstr::PI_C_862</text>
<text text-anchor="middle" x="975.5" y="-44.5" font-family="Helvetica,sans-Serif" font-size="10.00">_Configurator</text>
</a>
</g>
</g>
<!-- Node28&#45;&gt;Node30 -->
<g id="edge29_Node000028_Node000030" class="edge">
<title>Node28&#45;&gt;Node30</title>
<g id="a_edge29_Node000028_Node000030"><a xlink:title=" ">
<path fill="none" stroke="#63b8ff" d="M832.15,-79.06C858.83,-74.08 887.57,-68.72 912.19,-64.12"/>
<polygon fill="#63b8ff" stroke="#63b8ff" points="831.23,-75.67 822.04,-80.94 832.51,-82.55 831.23,-75.67"/>
</a>
</g>
</g>
<!-- Node31 -->
<g id="Node000031" class="node">
<title>Node31</title>
<g id="a_Node000031"><a xlink:href="classDynExpInstr_1_1SmarActConfigurator.html" target="_top" xlink:title=" ">
<polygon fill="white" stroke="#666666" points="1067,-19 884,-19 884,0 1067,0 1067,-19"/>
<text text-anchor="middle" x="975.5" y="-7" font-family="Helvetica,sans-Serif" font-size="10.00">DynExpInstr::SmarActConfigurator</text>
</a>
</g>
</g>
<!-- Node28&#45;&gt;Node31 -->
<g id="edge30_Node000028_Node000031" class="edge">
<title>Node28&#45;&gt;Node31</title>
<g id="a_edge30_Node000028_Node000031"><a xlink:title=" ">
<path fill="none" stroke="#63b8ff" d="M831.38,-76.33C834.35,-74.84 837.23,-73.23 840,-71.5 861.13,-58.27 854.52,-41.15 876,-28.5 882.6,-24.61 889.85,-21.5 897.31,-19.01"/>
<polygon fill="#63b8ff" stroke="#63b8ff" points="829.91,-73.15 822.24,-80.47 832.8,-79.53 829.91,-73.15"/>
</a>
</g>
</g>
</g>
</svg>
