<?xml version="1.0" encoding="UTF-8" standalone="no"?>
<!DOCTYPE svg PUBLIC "-//W3C//DTD SVG 1.1//EN"
 "http://www.w3.org/Graphics/SVG/1.1/DTD/svg11.dtd">
<!-- Generated by graphviz version 2.43.0 (0)
 -->
<!-- Title: DynExpInstr::NetworkDigitalOutT&lt; BaseInstr,, gRPCStubs &gt; Pages: 1 -->
<svg width="179pt" height="236pt"
 viewBox="0.00 0.00 179.00 236.00" xmlns="http://www.w3.org/2000/svg" xmlns:xlink="http://www.w3.org/1999/xlink">
<g id="graph0" class="graph" transform="scale(1 1) rotate(0) translate(4 232)">
<title>DynExpInstr::NetworkDigitalOutT&lt; BaseInstr,, gRPCStubs &gt;</title>
<!-- Node1 -->
<g id="Node000001" class="node">
<title>Node1</title>
<g id="a_Node000001"><a xlink:title=" ">
<polygon fill="#999999" stroke="#666666" points="170.5,-30 0.5,-30 0.5,0 170.5,0 170.5,-30"/>
<text text-anchor="start" x="8.5" y="-18" font-family="Helvetica,sans-Serif" font-size="10.00">DynExpInstr::NetworkDigital</text>
<text text-anchor="middle" x="85.5" y="-7" font-family="Helvetica,sans-Serif" font-size="10.00">OutT&lt; BaseInstr,, gRPCStubs &gt;</text>
</a>
</g>
</g>
<!-- Node2 -->
<g id="Node000002" class="node">
<title>Node2</title>
<g id="a_Node000002"><a xlink:href="classDynExpInstr_1_1NetworkDataStreamInstrumentT.html" target="_top" xlink:title=" ">
<polygon fill="white" stroke="#666666" points="171,-107 0,-107 0,-66 171,-66 171,-107"/>
<text text-anchor="start" x="8" y="-95" font-family="Helvetica,sans-Serif" font-size="10.00">DynExpInstr::NetworkData</text>
<text text-anchor="start" x="8" y="-84" font-family="Helvetica,sans-Serif" font-size="10.00">StreamInstrumentT&lt; BaseInstr,</text>
<text text-anchor="middle" x="85.5" y="-73" font-family="Helvetica,sans-Serif" font-size="10.00"> 0, gRPCStubs... &gt;</text>
</a>
</g>
</g>
<!-- Node2&#45;&gt;Node1 -->
<g id="edge1_Node000001_Node000002" class="edge">
<title>Node2&#45;&gt;Node1</title>
<g id="a_edge1_Node000001_Node000002"><a xlink:title=" ">
<path fill="none" stroke="#63b8ff" d="M85.5,-55.66C85.5,-46.76 85.5,-37.42 85.5,-30.04"/>
<polygon fill="#63b8ff" stroke="#63b8ff" points="82,-55.77 85.5,-65.77 89,-55.77 82,-55.77"/>
</a>
</g>
</g>
<!-- Node3 -->
<g id="Node000003" class="node">
<title>Node3</title>
<g id="a_Node000003"><a xlink:href="classDynExpInstr_1_1gRPCInstrument.html" target="_top" xlink:title=" ">
<polygon fill="white" stroke="#666666" points="167.5,-173 3.5,-173 3.5,-143 167.5,-143 167.5,-173"/>
<text text-anchor="start" x="11.5" y="-161" font-family="Helvetica,sans-Serif" font-size="10.00">DynExpInstr::gRPCInstrument</text>
<text text-anchor="middle" x="85.5" y="-150" font-family="Helvetica,sans-Serif" font-size="10.00">&lt; BaseInstr, 0, gRPCStubs... &gt;</text>
</a>
</g>
</g>
<!-- Node3&#45;&gt;Node2 -->
<g id="edge2_Node000002_Node000003" class="edge">
<title>Node3&#45;&gt;Node2</title>
<g id="a_edge2_Node000002_Node000003"><a xlink:title=" ">
<path fill="none" stroke="#63b8ff" d="M85.5,-132.91C85.5,-124.47 85.5,-115.1 85.5,-107.07"/>
<polygon fill="#63b8ff" stroke="#63b8ff" points="82,-132.94 85.5,-142.94 89,-132.94 82,-132.94"/>
</a>
</g>
</g>
<!-- Node4 -->
<g id="Node000004" class="node">
<title>Node4</title>
<g id="a_Node000004"><a xlink:title=" ">
<polygon fill="white" stroke="#666666" points="116.5,-228 54.5,-228 54.5,-209 116.5,-209 116.5,-228"/>
<text text-anchor="middle" x="85.5" y="-216" font-family="Helvetica,sans-Serif" font-size="10.00">BaseInstr</text>
</a>
</g>
</g>
<!-- Node4&#45;&gt;Node3 -->
<g id="edge3_Node000003_Node000004" class="edge">
<title>Node4&#45;&gt;Node3</title>
<g id="a_edge3_Node000003_Node000004"><a xlink:title=" ">
<path fill="none" stroke="#63b8ff" d="M85.5,-198.65C85.5,-190.36 85.5,-180.78 85.5,-173.11"/>
<polygon fill="#63b8ff" stroke="#63b8ff" points="82,-198.87 85.5,-208.87 89,-198.87 82,-198.87"/>
</a>
</g>
</g>
</g>
</svg>
