<?xml version="1.0" encoding="UTF-8" standalone="no"?>
<!DOCTYPE svg PUBLIC "-//W3C//DTD SVG 1.1//EN"
 "http://www.w3.org/Graphics/SVG/1.1/DTD/svg11.dtd">
<!-- Generated by graphviz version 2.43.0 (0)
 -->
<!-- Title: DynExpInstr::OutputPortConfigurator Pages: 1 -->
<svg width="410pt" height="453pt"
 viewBox="0.00 0.00 410.00 453.00" xmlns="http://www.w3.org/2000/svg" xmlns:xlink="http://www.w3.org/1999/xlink">
<g id="graph0" class="graph" transform="scale(1 1) rotate(0) translate(4 449)">
<title>DynExpInstr::OutputPortConfigurator</title>
<polygon fill="white" stroke="transparent" points="-4,4 -4,-449 406,-449 406,4 -4,4"/>
<!-- Node1 -->
<g id="node1" class="node">
<title>Node1</title>
<g id="a_node1"><a xlink:title="Configurator class for OutputPort.">
<polygon fill="#bfbfbf" stroke="black" points="104.5,-123.5 104.5,-142.5 298.5,-142.5 298.5,-123.5 104.5,-123.5"/>
<text text-anchor="middle" x="201.5" y="-130.5" font-family="Helvetica,sans-Serif" font-size="10.00">DynExpInstr::OutputPortConfigurator</text>
</a>
</g>
</g>
<!-- Node7 -->
<g id="node7" class="node">
<title>Node7</title>
<g id="a_node7"><a xlink:href="classDynExpInstr_1_1AnalogOutConfigurator.html" target="_top" xlink:title="Configurator class for AnalogOut.">
<polygon fill="white" stroke="black" points="0,-67.5 0,-86.5 193,-86.5 193,-67.5 0,-67.5"/>
<text text-anchor="middle" x="96.5" y="-74.5" font-family="Helvetica,sans-Serif" font-size="10.00">DynExpInstr::AnalogOutConfigurator</text>
</a>
</g>
</g>
<!-- Node1&#45;&gt;Node7 -->
<g id="edge6" class="edge">
<title>Node1&#45;&gt;Node7</title>
<path fill="none" stroke="midnightblue" d="M175.69,-118.73C156.25,-108.73 130.15,-95.31 113.33,-86.65"/>
<polygon fill="midnightblue" stroke="midnightblue" points="174.14,-121.86 184.63,-123.32 177.34,-115.64 174.14,-121.86"/>
</g>
<!-- Node9 -->
<g id="node9" class="node">
<title>Node9</title>
<g id="a_node9"><a xlink:href="classDynExpInstr_1_1DigitalOutConfigurator.html" target="_top" xlink:title="Configurator class for DigitalOut.">
<polygon fill="white" stroke="black" points="211,-67.5 211,-86.5 402,-86.5 402,-67.5 211,-67.5"/>
<text text-anchor="middle" x="306.5" y="-74.5" font-family="Helvetica,sans-Serif" font-size="10.00">DynExpInstr::DigitalOutConfigurator</text>
</a>
</g>
</g>
<!-- Node1&#45;&gt;Node9 -->
<g id="edge8" class="edge">
<title>Node1&#45;&gt;Node9</title>
<path fill="none" stroke="midnightblue" d="M227.31,-118.73C246.75,-108.73 272.85,-95.31 289.67,-86.65"/>
<polygon fill="midnightblue" stroke="midnightblue" points="225.66,-115.64 218.37,-123.32 228.86,-121.86 225.66,-115.64"/>
</g>
<!-- Node2 -->
<g id="node2" class="node">
<title>Node2</title>
<g id="a_node2"><a xlink:href="classDynExpInstr_1_1FunctionGeneratorConfigurator.html" target="_top" xlink:title="Configurator class for FunctionGenerator.">
<polygon fill="white" stroke="black" points="115.5,-179.5 115.5,-209.5 287.5,-209.5 287.5,-179.5 115.5,-179.5"/>
<text text-anchor="start" x="123.5" y="-197.5" font-family="Helvetica,sans-Serif" font-size="10.00">DynExpInstr::FunctionGenerator</text>
<text text-anchor="middle" x="201.5" y="-186.5" font-family="Helvetica,sans-Serif" font-size="10.00">Configurator</text>
</a>
</g>
</g>
<!-- Node2&#45;&gt;Node1 -->
<g id="edge1" class="edge">
<title>Node2&#45;&gt;Node1</title>
<path fill="none" stroke="midnightblue" d="M201.5,-169.29C201.5,-159.86 201.5,-149.65 201.5,-142.66"/>
<polygon fill="midnightblue" stroke="midnightblue" points="198,-169.4 201.5,-179.4 205,-169.4 198,-169.4"/>
</g>
<!-- Node3 -->
<g id="node3" class="node">
<title>Node3</title>
<g id="a_node3"><a xlink:href="classDynExpInstr_1_1DataStreamInstrumentConfigurator.html" target="_top" xlink:title="Configurator class for DataStreamInstrument.">
<polygon fill="white" stroke="black" points="104.5,-246.5 104.5,-276.5 298.5,-276.5 298.5,-246.5 104.5,-246.5"/>
<text text-anchor="start" x="112.5" y="-264.5" font-family="Helvetica,sans-Serif" font-size="10.00">DynExpInstr::DataStreamInstrument</text>
<text text-anchor="middle" x="201.5" y="-253.5" font-family="Helvetica,sans-Serif" font-size="10.00">Configurator</text>
</a>
</g>
</g>
<!-- Node3&#45;&gt;Node2 -->
<g id="edge2" class="edge">
<title>Node3&#45;&gt;Node2</title>
<path fill="none" stroke="midnightblue" d="M201.5,-236.11C201.5,-227.15 201.5,-217.32 201.5,-209.58"/>
<polygon fill="midnightblue" stroke="midnightblue" points="198,-236.4 201.5,-246.4 205,-236.4 198,-236.4"/>
</g>
<!-- Node4 -->
<g id="node4" class="node">
<title>Node4</title>
<g id="a_node4"><a xlink:href="classDynExp_1_1InstrumentConfiguratorBase.html" target="_top" xlink:title="Configurator class for InstrumentBase.">
<polygon fill="white" stroke="black" points="103,-313.5 103,-332.5 300,-332.5 300,-313.5 103,-313.5"/>
<text text-anchor="middle" x="201.5" y="-320.5" font-family="Helvetica,sans-Serif" font-size="10.00">DynExp::InstrumentConfiguratorBase</text>
</a>
</g>
</g>
<!-- Node4&#45;&gt;Node3 -->
<g id="edge3" class="edge">
<title>Node4&#45;&gt;Node3</title>
<path fill="none" stroke="midnightblue" d="M201.5,-303.23C201.5,-294.59 201.5,-284.5 201.5,-276.52"/>
<polygon fill="midnightblue" stroke="midnightblue" points="198,-303.48 201.5,-313.48 205,-303.48 198,-303.48"/>
</g>
<!-- Node5 -->
<g id="node5" class="node">
<title>Node5</title>
<g id="a_node5"><a xlink:href="classDynExp_1_1RunnableObjectConfigurator.html" target="_top" xlink:title="Configurator class for RunnableObject.">
<polygon fill="white" stroke="black" points="103,-369.5 103,-388.5 300,-388.5 300,-369.5 103,-369.5"/>
<text text-anchor="middle" x="201.5" y="-376.5" font-family="Helvetica,sans-Serif" font-size="10.00">DynExp::RunnableObjectConfigurator</text>
</a>
</g>
</g>
<!-- Node5&#45;&gt;Node4 -->
<g id="edge4" class="edge">
<title>Node5&#45;&gt;Node4</title>
<path fill="none" stroke="midnightblue" d="M201.5,-358.8C201.5,-349.91 201.5,-339.78 201.5,-332.75"/>
<polygon fill="midnightblue" stroke="midnightblue" points="198,-359.08 201.5,-369.08 205,-359.08 198,-359.08"/>
</g>
<!-- Node6 -->
<g id="node6" class="node">
<title>Node6</title>
<g id="a_node6"><a xlink:href="classDynExp_1_1ConfiguratorBase.html" target="_top" xlink:title="The configurator classes have the task to generate parameter objects (refer to DynExp::ParamsBase) of...">
<polygon fill="white" stroke="black" points="129.5,-425.5 129.5,-444.5 273.5,-444.5 273.5,-425.5 129.5,-425.5"/>
<text text-anchor="middle" x="201.5" y="-432.5" font-family="Helvetica,sans-Serif" font-size="10.00">DynExp::ConfiguratorBase</text>
</a>
</g>
</g>
<!-- Node6&#45;&gt;Node5 -->
<g id="edge5" class="edge">
<title>Node6&#45;&gt;Node5</title>
<path fill="none" stroke="midnightblue" d="M201.5,-414.8C201.5,-405.91 201.5,-395.78 201.5,-388.75"/>
<polygon fill="midnightblue" stroke="midnightblue" points="198,-415.08 201.5,-425.08 205,-415.08 198,-415.08"/>
</g>
<!-- Node8 -->
<g id="node8" class="node">
<title>Node8</title>
<g id="a_node8"><a xlink:href="classDynExpInstr_1_1NIDAQAnalogOutConfigurator.html" target="_top" xlink:title=" ">
<polygon fill="white" stroke="black" points="22.5,-0.5 22.5,-30.5 170.5,-30.5 170.5,-0.5 22.5,-0.5"/>
<text text-anchor="start" x="30.5" y="-18.5" font-family="Helvetica,sans-Serif" font-size="10.00">DynExpInstr::NIDAQAnalog</text>
<text text-anchor="middle" x="96.5" y="-7.5" font-family="Helvetica,sans-Serif" font-size="10.00">OutConfigurator</text>
</a>
</g>
</g>
<!-- Node7&#45;&gt;Node8 -->
<g id="edge7" class="edge">
<title>Node7&#45;&gt;Node8</title>
<path fill="none" stroke="midnightblue" d="M96.5,-57.23C96.5,-48.59 96.5,-38.5 96.5,-30.52"/>
<polygon fill="midnightblue" stroke="midnightblue" points="93,-57.48 96.5,-67.48 100,-57.48 93,-57.48"/>
</g>
<!-- Node10 -->
<g id="node10" class="node">
<title>Node10</title>
<g id="a_node10"><a xlink:href="classDynExpInstr_1_1NIDAQDigitalOutConfigurator.html" target="_top" xlink:title=" ">
<polygon fill="white" stroke="black" points="233.5,-0.5 233.5,-30.5 379.5,-30.5 379.5,-0.5 233.5,-0.5"/>
<text text-anchor="start" x="241.5" y="-18.5" font-family="Helvetica,sans-Serif" font-size="10.00">DynExpInstr::NIDAQDigital</text>
<text text-anchor="middle" x="306.5" y="-7.5" font-family="Helvetica,sans-Serif" font-size="10.00">OutConfigurator</text>
</a>
</g>
</g>
<!-- Node9&#45;&gt;Node10 -->
<g id="edge9" class="edge">
<title>Node9&#45;&gt;Node10</title>
<path fill="none" stroke="midnightblue" d="M306.5,-57.23C306.5,-48.59 306.5,-38.5 306.5,-30.52"/>
<polygon fill="midnightblue" stroke="midnightblue" points="303,-57.48 306.5,-67.48 310,-57.48 303,-57.48"/>
</g>
</g>
</svg>
