<?xml version="1.0" encoding="UTF-8" standalone="no"?>
<!DOCTYPE svg PUBLIC "-//W3C//DTD SVG 1.1//EN"
 "http://www.w3.org/Graphics/SVG/1.1/DTD/svg11.dtd">
<!-- Generated by graphviz version 2.43.0 (0)
 -->
<!-- Title: DynExpInstr::LockinAmplifierConfigurator Pages: 1 -->
<svg width="205pt" height="330pt"
 viewBox="0.00 0.00 205.00 330.00" xmlns="http://www.w3.org/2000/svg" xmlns:xlink="http://www.w3.org/1999/xlink">
<g id="graph0" class="graph" transform="scale(1 1) rotate(0) translate(4 326)">
<title>DynExpInstr::LockinAmplifierConfigurator</title>
<polygon fill="white" stroke="transparent" points="-4,4 -4,-326 201,-326 201,4 -4,4"/>
<!-- Node1 -->
<g id="node1" class="node">
<title>Node1</title>
<g id="a_node1"><a xlink:title="Configurator class for LockinAmplifier.">
<polygon fill="#bfbfbf" stroke="black" points="19.5,-56.5 19.5,-86.5 177.5,-86.5 177.5,-56.5 19.5,-56.5"/>
<text text-anchor="start" x="27.5" y="-74.5" font-family="Helvetica,sans-Serif" font-size="10.00">DynExpInstr::LockinAmplifier</text>
<text text-anchor="middle" x="98.5" y="-63.5" font-family="Helvetica,sans-Serif" font-size="10.00">Configurator</text>
</a>
</g>
</g>
<!-- Node6 -->
<g id="node6" class="node">
<title>Node6</title>
<g id="a_node6"><a xlink:href="classDynExpInstr_1_1ZI__MFLIConfigurator.html" target="_top" xlink:title=" ">
<polygon fill="white" stroke="black" points="8.5,-0.5 8.5,-19.5 188.5,-19.5 188.5,-0.5 8.5,-0.5"/>
<text text-anchor="middle" x="98.5" y="-7.5" font-family="Helvetica,sans-Serif" font-size="10.00">DynExpInstr::ZI_MFLIConfigurator</text>
</a>
</g>
</g>
<!-- Node1&#45;&gt;Node6 -->
<g id="edge5" class="edge">
<title>Node1&#45;&gt;Node6</title>
<path fill="none" stroke="midnightblue" d="M98.5,-46.29C98.5,-36.86 98.5,-26.65 98.5,-19.66"/>
<polygon fill="midnightblue" stroke="midnightblue" points="95,-46.4 98.5,-56.4 102,-46.4 95,-46.4"/>
</g>
<!-- Node2 -->
<g id="node2" class="node">
<title>Node2</title>
<g id="a_node2"><a xlink:href="classDynExpInstr_1_1DataStreamInstrumentConfigurator.html" target="_top" xlink:title="Configurator class for DataStreamInstrument.">
<polygon fill="white" stroke="black" points="1.5,-123.5 1.5,-153.5 195.5,-153.5 195.5,-123.5 1.5,-123.5"/>
<text text-anchor="start" x="9.5" y="-141.5" font-family="Helvetica,sans-Serif" font-size="10.00">DynExpInstr::DataStreamInstrument</text>
<text text-anchor="middle" x="98.5" y="-130.5" font-family="Helvetica,sans-Serif" font-size="10.00">Configurator</text>
</a>
</g>
</g>
<!-- Node2&#45;&gt;Node1 -->
<g id="edge1" class="edge">
<title>Node2&#45;&gt;Node1</title>
<path fill="none" stroke="midnightblue" d="M98.5,-113.11C98.5,-104.15 98.5,-94.32 98.5,-86.58"/>
<polygon fill="midnightblue" stroke="midnightblue" points="95,-113.4 98.5,-123.4 102,-113.4 95,-113.4"/>
</g>
<!-- Node3 -->
<g id="node3" class="node">
<title>Node3</title>
<g id="a_node3"><a xlink:href="classDynExp_1_1InstrumentConfiguratorBase.html" target="_top" xlink:title="Configurator class for InstrumentBase.">
<polygon fill="white" stroke="black" points="0,-190.5 0,-209.5 197,-209.5 197,-190.5 0,-190.5"/>
<text text-anchor="middle" x="98.5" y="-197.5" font-family="Helvetica,sans-Serif" font-size="10.00">DynExp::InstrumentConfiguratorBase</text>
</a>
</g>
</g>
<!-- Node3&#45;&gt;Node2 -->
<g id="edge2" class="edge">
<title>Node3&#45;&gt;Node2</title>
<path fill="none" stroke="midnightblue" d="M98.5,-180.23C98.5,-171.59 98.5,-161.5 98.5,-153.52"/>
<polygon fill="midnightblue" stroke="midnightblue" points="95,-180.48 98.5,-190.48 102,-180.48 95,-180.48"/>
</g>
<!-- Node4 -->
<g id="node4" class="node">
<title>Node4</title>
<g id="a_node4"><a xlink:href="classDynExp_1_1RunnableObjectConfigurator.html" target="_top" xlink:title="Configurator class for RunnableObject.">
<polygon fill="white" stroke="black" points="0,-246.5 0,-265.5 197,-265.5 197,-246.5 0,-246.5"/>
<text text-anchor="middle" x="98.5" y="-253.5" font-family="Helvetica,sans-Serif" font-size="10.00">DynExp::RunnableObjectConfigurator</text>
</a>
</g>
</g>
<!-- Node4&#45;&gt;Node3 -->
<g id="edge3" class="edge">
<title>Node4&#45;&gt;Node3</title>
<path fill="none" stroke="midnightblue" d="M98.5,-235.8C98.5,-226.91 98.5,-216.78 98.5,-209.75"/>
<polygon fill="midnightblue" stroke="midnightblue" points="95,-236.08 98.5,-246.08 102,-236.08 95,-236.08"/>
</g>
<!-- Node5 -->
<g id="node5" class="node">
<title>Node5</title>
<g id="a_node5"><a xlink:href="classDynExp_1_1ConfiguratorBase.html" target="_top" xlink:title="The configurator classes have the task to generate parameter objects (refer to DynExp::ParamsBase) of...">
<polygon fill="white" stroke="black" points="26.5,-302.5 26.5,-321.5 170.5,-321.5 170.5,-302.5 26.5,-302.5"/>
<text text-anchor="middle" x="98.5" y="-309.5" font-family="Helvetica,sans-Serif" font-size="10.00">DynExp::ConfiguratorBase</text>
</a>
</g>
</g>
<!-- Node5&#45;&gt;Node4 -->
<g id="edge4" class="edge">
<title>Node5&#45;&gt;Node4</title>
<path fill="none" stroke="midnightblue" d="M98.5,-291.8C98.5,-282.91 98.5,-272.78 98.5,-265.75"/>
<polygon fill="midnightblue" stroke="midnightblue" points="95,-292.08 98.5,-302.08 102,-292.08 95,-292.08"/>
</g>
</g>
</svg>
