<?xml version="1.0" encoding="UTF-8" standalone="no"?>
<!DOCTYPE svg PUBLIC "-//W3C//DTD SVG 1.1//EN"
 "http://www.w3.org/Graphics/SVG/1.1/DTD/svg11.dtd">
<!-- Generated by graphviz version 2.43.0 (0)
 -->
<!-- Title: DynExp::ParamsBase::ParamBase Pages: 1 -->
<svg width="860pt" height="780pt"
 viewBox="0.00 0.00 860.00 780.00" xmlns="http://www.w3.org/2000/svg" xmlns:xlink="http://www.w3.org/1999/xlink">
<g id="graph0" class="graph" transform="scale(1 1) rotate(0) translate(4 776)">
<title>DynExp::ParamsBase::ParamBase</title>
<!-- Node1 -->
<g id="Node000001" class="node">
<title>Node1</title>
<g id="a_Node000001"><a xlink:title="Abstract base class for a single object parameter. Parameters derived from this class are automatical...">
<polygon fill="#999999" stroke="#666666" points="120,-649.5 0,-649.5 0,-619.5 120,-619.5 120,-649.5"/>
<text text-anchor="start" x="8" y="-637.5" font-family="Helvetica,sans-Serif" font-size="10.00">DynExp::ParamsBase</text>
<text text-anchor="middle" x="60" y="-626.5" font-family="Helvetica,sans-Serif" font-size="10.00">::ParamBase</text>
</a>
</g>
</g>
<!-- Node2 -->
<g id="Node000002" class="node">
<title>Node2</title>
<g id="a_Node000002"><a xlink:href="classDynExp_1_1ParamsBase_1_1DummyParam.html" target="_top" xlink:title="Dummy parameter which is to be owned once by parameter classes that do not contain any other paramete...">
<polygon fill="white" stroke="#666666" points="307,-703.5 187,-703.5 187,-673.5 307,-673.5 307,-703.5"/>
<text text-anchor="start" x="195" y="-691.5" font-family="Helvetica,sans-Serif" font-size="10.00">DynExp::ParamsBase</text>
<text text-anchor="middle" x="247" y="-680.5" font-family="Helvetica,sans-Serif" font-size="10.00">::DummyParam</text>
</a>
</g>
</g>
<!-- Node1&#45;&gt;Node2 -->
<g id="edge1_Node000001_Node000002" class="edge">
<title>Node1&#45;&gt;Node2</title>
<g id="a_edge1_Node000001_Node000002"><a xlink:title=" ">
<path fill="none" stroke="#63b8ff" d="M116.88,-652.61C129.7,-656.64 143.3,-660.8 156,-664.5 166.25,-667.48 177.19,-670.52 187.8,-673.39"/>
<polygon fill="#63b8ff" stroke="#63b8ff" points="117.85,-649.25 107.26,-649.57 115.74,-655.92 117.85,-649.25"/>
</a>
</g>
</g>
<!-- Node3 -->
<g id="Node000003" class="node">
<title>Node3</title>
<g id="a_Node000003"><a xlink:href="classDynExp_1_1ParamsBase_1_1TypedListParamBase.html" target="_top" xlink:title="Base class of parameters containing lists of values.">
<polygon fill="white" stroke="#666666" points="308.5,-655 185.5,-655 185.5,-614 308.5,-614 308.5,-655"/>
<text text-anchor="start" x="193.5" y="-643" font-family="Helvetica,sans-Serif" font-size="10.00">DynExp::ParamsBase</text>
<text text-anchor="start" x="193.5" y="-632" font-family="Helvetica,sans-Serif" font-size="10.00">::TypedListParamBase</text>
<text text-anchor="middle" x="247" y="-621" font-family="Helvetica,sans-Serif" font-size="10.00">&lt; ParamType &gt;</text>
</a>
</g>
</g>
<!-- Node1&#45;&gt;Node3 -->
<g id="edge2_Node000001_Node000003" class="edge">
<title>Node1&#45;&gt;Node3</title>
<g id="a_edge2_Node000001_Node000003"><a xlink:title=" ">
<path fill="none" stroke="#63b8ff" d="M130.23,-634.5C148.32,-634.5 167.68,-634.5 185.29,-634.5"/>
<polygon fill="#63b8ff" stroke="#63b8ff" points="130.04,-631 120.04,-634.5 130.04,-638 130.04,-631"/>
</a>
</g>
</g>
<!-- Node8 -->
<g id="Node000008" class="node">
<title>Node8</title>
<g id="a_Node000008"><a xlink:href="classDynExp_1_1ParamsBase_1_1TypedParamBase.html" target="_top" xlink:title="Base class of parameters containing a single value.">
<polygon fill="white" stroke="#666666" points="338,-359.5 156,-359.5 156,-329.5 338,-329.5 338,-359.5"/>
<text text-anchor="start" x="164" y="-347.5" font-family="Helvetica,sans-Serif" font-size="10.00">DynExp::ParamsBase</text>
<text text-anchor="middle" x="247" y="-336.5" font-family="Helvetica,sans-Serif" font-size="10.00">::TypedParamBase&lt; ParamType &gt;</text>
</a>
</g>
</g>
<!-- Node1&#45;&gt;Node8 -->
<g id="edge7_Node000001_Node000008" class="edge">
<title>Node1&#45;&gt;Node8</title>
<g id="a_edge7_Node000001_Node000008"><a xlink:title=" ">
<path fill="none" stroke="#63b8ff" d="M76.08,-610.86C112.83,-553.26 206.2,-406.89 236.41,-359.53"/>
<polygon fill="#63b8ff" stroke="#63b8ff" points="73.11,-609 70.69,-619.32 79.01,-612.77 73.11,-609"/>
</a>
</g>
</g>
<!-- Node4 -->
<g id="Node000004" class="node">
<title>Node4</title>
<g id="a_Node000004"><a xlink:href="classDynExp_1_1ParamsBase_1_1LinkListParamBase.html" target="_top" xlink:title="Base class for link list parameters to multiple Object of any (but all the same) type specifying the ...">
<polygon fill="white" stroke="#666666" points="567,-761 447,-761 447,-720 567,-720 567,-761"/>
<text text-anchor="start" x="455" y="-749" font-family="Helvetica,sans-Serif" font-size="10.00">DynExp::ParamsBase</text>
<text text-anchor="start" x="455" y="-738" font-family="Helvetica,sans-Serif" font-size="10.00">::LinkListParamBase</text>
<text text-anchor="middle" x="507" y="-727" font-family="Helvetica,sans-Serif" font-size="10.00">&lt; ItemIDType &gt;</text>
</a>
</g>
</g>
<!-- Node3&#45;&gt;Node4 -->
<g id="edge3_Node000003_Node000004" class="edge">
<title>Node3&#45;&gt;Node4</title>
<g id="a_edge3_Node000003_Node000004"><a xlink:title=" ">
<path fill="none" stroke="#63b8ff" d="M318.44,-653.41C325.33,-656.58 331.99,-660.26 338,-664.5 359.22,-679.46 352.08,-696.6 374,-710.5 395.63,-724.22 422.78,-731.69 446.81,-735.75"/>
<polygon fill="#63b8ff" stroke="#63b8ff" points="319.5,-650.06 308.93,-649.38 316.77,-656.5 319.5,-650.06"/>
</a>
</g>
</g>
<!-- Node6 -->
<g id="Node000006" class="node">
<title>Node6</title>
<g id="a_Node000006"><a xlink:href="classDynExp_1_1ParamsBase_1_1ListParam_3_01ArithmeticType_00_01std_1_1enable__if__t_3_01std_1_1i54eb4f851b57d383b238b8718ca67a95.html" target="_top" xlink:title="List parameter for numbers. If ParamType is an arithmetic type (integral or floating point),...">
<polygon fill="white" stroke="#666666" points="608,-701.5 406,-701.5 406,-649.5 608,-649.5 608,-701.5"/>
<text text-anchor="start" x="414" y="-689.5" font-family="Helvetica,sans-Serif" font-size="10.00">DynExp::ParamsBase</text>
<text text-anchor="start" x="414" y="-678.5" font-family="Helvetica,sans-Serif" font-size="10.00">::ListParam&lt; ArithmeticType,</text>
<text text-anchor="start" x="414" y="-667.5" font-family="Helvetica,sans-Serif" font-size="10.00"> std::enable_if_t&lt; std::is</text>
<text text-anchor="middle" x="507" y="-656.5" font-family="Helvetica,sans-Serif" font-size="10.00">_arithmetic_v&lt; ArithmeticType &gt; &gt; &gt;</text>
</a>
</g>
</g>
<!-- Node3&#45;&gt;Node6 -->
<g id="edge5_Node000003_Node000006" class="edge">
<title>Node3&#45;&gt;Node6</title>
<g id="a_edge5_Node000003_Node000006"><a xlink:title=" ">
<path fill="none" stroke="#63b8ff" d="M318.9,-645.77C345.78,-650.04 376.92,-654.99 405.99,-659.61"/>
<polygon fill="#63b8ff" stroke="#63b8ff" points="319.24,-642.28 308.82,-644.16 318.14,-649.19 319.24,-642.28"/>
</a>
</g>
</g>
<!-- Node7 -->
<g id="Node000007" class="node">
<title>Node7</title>
<g id="a_Node000007"><a xlink:href="classDynExp_1_1ParamsBase_1_1ListParam_3_01ParamType_00_01std_1_1enable__if__t_3_01_9std_1_1is__b8374ac5460e5f4598c20a5ad4c0acf7.html" target="_top" xlink:title="General list parameter for any ParamType (except the ones which are further specified below).">
<polygon fill="white" stroke="#666666" points="605.5,-631.5 408.5,-631.5 408.5,-557.5 605.5,-557.5 605.5,-631.5"/>
<text text-anchor="start" x="416.5" y="-619.5" font-family="Helvetica,sans-Serif" font-size="10.00">DynExp::ParamsBase</text>
<text text-anchor="start" x="416.5" y="-608.5" font-family="Helvetica,sans-Serif" font-size="10.00">::ListParam&lt; ParamType,</text>
<text text-anchor="start" x="416.5" y="-597.5" font-family="Helvetica,sans-Serif" font-size="10.00"> std::enable_if_t&lt; !std</text>
<text text-anchor="start" x="416.5" y="-586.5" font-family="Helvetica,sans-Serif" font-size="10.00">::is_arithmetic_v&lt; ParamType</text>
<text text-anchor="start" x="416.5" y="-575.5" font-family="Helvetica,sans-Serif" font-size="10.00"> &gt; &amp;&amp;!std::is_base_of_v&lt; ObjectLink</text>
<text text-anchor="middle" x="507" y="-564.5" font-family="Helvetica,sans-Serif" font-size="10.00">Base, ParamType &gt; &gt; &gt;</text>
</a>
</g>
</g>
<!-- Node3&#45;&gt;Node7 -->
<g id="edge6_Node000003_Node000007" class="edge">
<title>Node3&#45;&gt;Node7</title>
<g id="a_edge6_Node000003_Node000007"><a xlink:title=" ">
<path fill="none" stroke="#63b8ff" d="M318.77,-623.53C346.39,-619.25 378.51,-614.27 408.26,-609.65"/>
<polygon fill="#63b8ff" stroke="#63b8ff" points="318.16,-620.08 308.82,-625.07 319.23,-627 318.16,-620.08"/>
</a>
</g>
</g>
<!-- Node5 -->
<g id="Node000005" class="node">
<title>Node5</title>
<g id="a_Node000005"><a xlink:href="classDynExp_1_1ParamsBase_1_1ListParam_3_01LinkType_00_01std_1_1enable__if__t_3_01std_1_1is__basd243784fc46965d1256228ffb7d1529c.html" target="_top" xlink:title="Parameter for link lists to multiple Object. If LinkType is derived from ObjectLinkBase,...">
<polygon fill="white" stroke="#666666" points="852,-772 676,-772 676,-709 852,-709 852,-772"/>
<text text-anchor="start" x="684" y="-760" font-family="Helvetica,sans-Serif" font-size="10.00">DynExp::ParamsBase</text>
<text text-anchor="start" x="684" y="-749" font-family="Helvetica,sans-Serif" font-size="10.00">::ListParam&lt; LinkType,</text>
<text text-anchor="start" x="684" y="-738" font-family="Helvetica,sans-Serif" font-size="10.00"> std::enable_if_t&lt; std</text>
<text text-anchor="start" x="684" y="-727" font-family="Helvetica,sans-Serif" font-size="10.00">::is_base_of_v&lt; ObjectLinkBase,</text>
<text text-anchor="middle" x="764" y="-716" font-family="Helvetica,sans-Serif" font-size="10.00"> LinkType &gt; &gt; &gt;</text>
</a>
</g>
</g>
<!-- Node4&#45;&gt;Node5 -->
<g id="edge4_Node000004_Node000005" class="edge">
<title>Node4&#45;&gt;Node5</title>
<g id="a_edge4_Node000004_Node000005"><a xlink:title=" ">
<path fill="none" stroke="#63b8ff" d="M577.2,-740.5C607.54,-740.5 643.49,-740.5 675.64,-740.5"/>
<polygon fill="#63b8ff" stroke="#63b8ff" points="577.14,-737 567.14,-740.5 577.14,-744 577.14,-737"/>
</a>
</g>
</g>
<!-- Node9 -->
<g id="Node000009" class="node">
<title>Node9</title>
<g id="a_Node000009"><a xlink:href="classDynExp_1_1ParamsBase_1_1LinkParamBase.html" target="_top" xlink:title="Base class for link parameters to a single Object of any type specifying the underlying parameter typ...">
<polygon fill="white" stroke="#666666" points="595,-539.5 419,-539.5 419,-509.5 595,-509.5 595,-539.5"/>
<text text-anchor="start" x="427" y="-527.5" font-family="Helvetica,sans-Serif" font-size="10.00">DynExp::ParamsBase</text>
<text text-anchor="middle" x="507" y="-516.5" font-family="Helvetica,sans-Serif" font-size="10.00">::LinkParamBase&lt; ItemIDType &gt;</text>
</a>
</g>
</g>
<!-- Node8&#45;&gt;Node9 -->
<g id="edge8_Node000008_Node000009" class="edge">
<title>Node8&#45;&gt;Node9</title>
<g id="a_edge8_Node000008_Node000009"><a xlink:title=" ">
<path fill="none" stroke="#63b8ff" d="M260.45,-369.09C279.68,-404.34 320.09,-468.5 374,-500.5 387.52,-508.52 403.09,-513.99 418.68,-517.68"/>
<polygon fill="#63b8ff" stroke="#63b8ff" points="263.38,-367.14 255.59,-359.96 257.2,-370.43 263.38,-367.14"/>
</a>
</g>
</g>
<!-- Node11 -->
<g id="Node000011" class="node">
<title>Node11</title>
<g id="a_Node000011"><a xlink:href="classDynExp_1_1ParamsBase_1_1Param_3_01ArithmeticType_00_01std_1_1enable__if__t_3_01std_1_1is__a36b43486ae7f42f950ffc5a7719f2151.html" target="_top" xlink:title="Parameter for numbers. If ParamType is an arithmetic type (integral or floating point),...">
<polygon fill="white" stroke="#666666" points="615,-491.5 399,-491.5 399,-439.5 615,-439.5 615,-491.5"/>
<text text-anchor="start" x="407" y="-479.5" font-family="Helvetica,sans-Serif" font-size="10.00">DynExp::ParamsBase</text>
<text text-anchor="start" x="407" y="-468.5" font-family="Helvetica,sans-Serif" font-size="10.00">::Param&lt; ArithmeticType,</text>
<text text-anchor="start" x="407" y="-457.5" font-family="Helvetica,sans-Serif" font-size="10.00"> std::enable_if_t&lt; std</text>
<text text-anchor="middle" x="507" y="-446.5" font-family="Helvetica,sans-Serif" font-size="10.00">::is_arithmetic_v&lt; ArithmeticType &gt; &gt; &gt;</text>
</a>
</g>
</g>
<!-- Node8&#45;&gt;Node11 -->
<g id="edge10_Node000008_Node000011" class="edge">
<title>Node8&#45;&gt;Node11</title>
<g id="a_edge10_Node000008_Node000011"><a xlink:title=" ">
<path fill="none" stroke="#63b8ff" d="M274.05,-366.21C298.48,-385.59 336.73,-413.45 374,-430.5 381.98,-434.15 390.41,-437.47 398.99,-440.49"/>
<polygon fill="#63b8ff" stroke="#63b8ff" points="275.99,-363.29 266.01,-359.75 271.61,-368.74 275.99,-363.29"/>
</a>
</g>
</g>
<!-- Node12 -->
<g id="Node000012" class="node">
<title>Node12</title>
<g id="a_Node000012"><a xlink:href="classDynExp_1_1ParamsBase_1_1Param_3_01EnumType_00_01std_1_1enable__if__t_3_01std_1_1is__enum__v_3_01EnumType_01_4_01_4_01_4.html" target="_top" xlink:title="Parameter for enumerations which are convertible to a numeric type. If ParamType is an enum,...">
<polygon fill="white" stroke="#666666" points="585,-421.5 429,-421.5 429,-369.5 585,-369.5 585,-421.5"/>
<text text-anchor="start" x="437" y="-409.5" font-family="Helvetica,sans-Serif" font-size="10.00">DynExp::ParamsBase</text>
<text text-anchor="start" x="437" y="-398.5" font-family="Helvetica,sans-Serif" font-size="10.00">::Param&lt; EnumType, std</text>
<text text-anchor="start" x="437" y="-387.5" font-family="Helvetica,sans-Serif" font-size="10.00">::enable_if_t&lt; std::is</text>
<text text-anchor="middle" x="507" y="-376.5" font-family="Helvetica,sans-Serif" font-size="10.00">_enum_v&lt; EnumType &gt; &gt; &gt;</text>
</a>
</g>
</g>
<!-- Node8&#45;&gt;Node12 -->
<g id="edge11_Node000008_Node000012" class="edge">
<title>Node8&#45;&gt;Node12</title>
<g id="a_edge11_Node000008_Node000012"><a xlink:title=" ">
<path fill="none" stroke="#63b8ff" d="M333.83,-361.47C364.5,-367.53 398.84,-374.32 428.74,-380.23"/>
<polygon fill="#63b8ff" stroke="#63b8ff" points="334.5,-358.03 324.01,-359.53 333.14,-364.9 334.5,-358.03"/>
</a>
</g>
</g>
<!-- Node13 -->
<g id="Node000013" class="node">
<title>Node13</title>
<g id="a_Node000013"><a xlink:href="classDynExp_1_1ParamsBase_1_1Param_3_01ParamType_00_01std_1_1enable__if__t_3_01_9std_1_1is__arit5c6f823427478a0e4e010e91feab235c.html" target="_top" xlink:title="General parameter for any ParamType (except the ones which are further specified below).">
<polygon fill="white" stroke="#666666" points="640,-351.5 374,-351.5 374,-233.5 640,-233.5 640,-351.5"/>
<text text-anchor="start" x="382" y="-339.5" font-family="Helvetica,sans-Serif" font-size="10.00">DynExp::ParamsBase</text>
<text text-anchor="start" x="382" y="-328.5" font-family="Helvetica,sans-Serif" font-size="10.00">::Param&lt; ParamType,</text>
<text text-anchor="start" x="382" y="-317.5" font-family="Helvetica,sans-Serif" font-size="10.00"> std::enable_if_t&lt; !std</text>
<text text-anchor="start" x="382" y="-306.5" font-family="Helvetica,sans-Serif" font-size="10.00">::is_arithmetic_v&lt; ParamType</text>
<text text-anchor="start" x="382" y="-295.5" font-family="Helvetica,sans-Serif" font-size="10.00"> &gt; &amp;&amp;!std::is_base_of_v&lt; Text,</text>
<text text-anchor="start" x="382" y="-284.5" font-family="Helvetica,sans-Serif" font-size="10.00"> ParamType &gt; &amp;&amp;!std::is_base</text>
<text text-anchor="start" x="382" y="-273.5" font-family="Helvetica,sans-Serif" font-size="10.00">_of_v&lt; TextList, ParamType &gt; &amp;&amp;!std</text>
<text text-anchor="start" x="382" y="-262.5" font-family="Helvetica,sans-Serif" font-size="10.00">::is_base_of_v&lt; IndexedTextList, ParamType</text>
<text text-anchor="start" x="382" y="-251.5" font-family="Helvetica,sans-Serif" font-size="10.00"> &gt; &amp;&amp;!std::is_enum_v&lt; ParamType &gt; &amp;&amp;!std</text>
<text text-anchor="middle" x="507" y="-240.5" font-family="Helvetica,sans-Serif" font-size="10.00">::is_base_of_v&lt; ObjectLinkBase, ParamType &gt; &gt; &gt;</text>
</a>
</g>
</g>
<!-- Node8&#45;&gt;Node13 -->
<g id="edge12_Node000008_Node000013" class="edge">
<title>Node8&#45;&gt;Node13</title>
<g id="a_edge12_Node000008_Node000013"><a xlink:title=" ">
<path fill="none" stroke="#63b8ff" d="M332.58,-327.45C345.79,-324.79 359.71,-321.98 373.68,-319.17"/>
<polygon fill="#63b8ff" stroke="#63b8ff" points="331.74,-324.05 322.62,-329.46 333.12,-330.91 331.74,-324.05"/>
</a>
</g>
</g>
<!-- Node14 -->
<g id="Node000014" class="node">
<title>Node14</title>
<g id="a_Node000014"><a xlink:href="classDynExp_1_1ParamsBase_1_1Param_3_01ParamType_00_01std_1_1enable__if__t_3_01std_1_1is__base__61e5ea03adee3aef656dbb91b4f60725.html" target="_top" xlink:title="Parameter for indexed strings selected from a predefined list of strings. If ParamType is of type Par...">
<polygon fill="white" stroke="#666666" points="595,-215 419,-215 419,-152 595,-152 595,-215"/>
<text text-anchor="start" x="427" y="-203" font-family="Helvetica,sans-Serif" font-size="10.00">DynExp::ParamsBase</text>
<text text-anchor="start" x="427" y="-192" font-family="Helvetica,sans-Serif" font-size="10.00">::Param&lt; ParamType,</text>
<text text-anchor="start" x="427" y="-181" font-family="Helvetica,sans-Serif" font-size="10.00"> std::enable_if_t&lt; std</text>
<text text-anchor="start" x="427" y="-170" font-family="Helvetica,sans-Serif" font-size="10.00">::is_base_of_v&lt; IndexedTextList,</text>
<text text-anchor="middle" x="507" y="-159" font-family="Helvetica,sans-Serif" font-size="10.00"> ParamType &gt; &gt; &gt;</text>
</a>
</g>
</g>
<!-- Node8&#45;&gt;Node14 -->
<g id="edge13_Node000008_Node000014" class="edge">
<title>Node8&#45;&gt;Node14</title>
<g id="a_edge13_Node000008_Node000014"><a xlink:title=" ">
<path fill="none" stroke="#63b8ff" d="M266.33,-321.52C288.94,-294.62 329.86,-250.43 374,-224.5 387.76,-216.42 403.28,-209.77 418.71,-204.35"/>
<polygon fill="#63b8ff" stroke="#63b8ff" points="263.59,-319.34 259.91,-329.28 268.98,-323.81 263.59,-319.34"/>
</a>
</g>
</g>
<!-- Node15 -->
<g id="Node000015" class="node">
<title>Node15</title>
<g id="a_Node000015"><a xlink:href="classDynExp_1_1ParamsBase_1_1Param_3_01ParamType_00_01std_1_1enable__if__t_3_01std_1_1is__base__25c315537ff24e78133025dad145e98b.html" target="_top" xlink:title="Parameter for strings. If ParamType is of type ParamsBase::Text, then extend TypedParamBase&#39;s functio...">
<polygon fill="white" stroke="#666666" points="612,-133.5 402,-133.5 402,-81.5 612,-81.5 612,-133.5"/>
<text text-anchor="start" x="410" y="-121.5" font-family="Helvetica,sans-Serif" font-size="10.00">DynExp::ParamsBase</text>
<text text-anchor="start" x="410" y="-110.5" font-family="Helvetica,sans-Serif" font-size="10.00">::Param&lt; ParamType,</text>
<text text-anchor="start" x="410" y="-99.5" font-family="Helvetica,sans-Serif" font-size="10.00"> std::enable_if_t&lt; std</text>
<text text-anchor="middle" x="507" y="-88.5" font-family="Helvetica,sans-Serif" font-size="10.00">::is_base_of_v&lt; Text, ParamType &gt; &gt; &gt;</text>
</a>
</g>
</g>
<!-- Node8&#45;&gt;Node15 -->
<g id="edge14_Node000008_Node000015" class="edge">
<title>Node8&#45;&gt;Node15</title>
<g id="a_edge14_Node000008_Node000015"><a xlink:title=" ">
<path fill="none" stroke="#63b8ff" d="M256.55,-319.88C272.64,-277.27 311.52,-189.88 374,-143.5 382.49,-137.2 392.01,-132 401.96,-127.71"/>
<polygon fill="#63b8ff" stroke="#63b8ff" points="253.19,-318.87 253.04,-329.46 259.77,-321.28 253.19,-318.87"/>
</a>
</g>
</g>
<!-- Node16 -->
<g id="Node000016" class="node">
<title>Node16</title>
<g id="a_Node000016"><a xlink:href="classDynExp_1_1ParamsBase_1_1Param_3_01ParamType_00_01std_1_1enable__if__t_3_01std_1_1is__base__2b5582aed1efd379ec593c5120d42ff9.html" target="_top" xlink:title="Parameter for strings selected from a predefined list of strings. If ParamType is of type ParamsBase:...">
<polygon fill="white" stroke="#666666" points="575.5,-63 438.5,-63 438.5,0 575.5,0 575.5,-63"/>
<text text-anchor="start" x="446.5" y="-51" font-family="Helvetica,sans-Serif" font-size="10.00">DynExp::ParamsBase</text>
<text text-anchor="start" x="446.5" y="-40" font-family="Helvetica,sans-Serif" font-size="10.00">::Param&lt; ParamType,</text>
<text text-anchor="start" x="446.5" y="-29" font-family="Helvetica,sans-Serif" font-size="10.00"> std::enable_if_t&lt; std</text>
<text text-anchor="start" x="446.5" y="-18" font-family="Helvetica,sans-Serif" font-size="10.00">::is_base_of_v&lt; TextList,</text>
<text text-anchor="middle" x="507" y="-7" font-family="Helvetica,sans-Serif" font-size="10.00"> ParamType &gt; &gt; &gt;</text>
</a>
</g>
</g>
<!-- Node8&#45;&gt;Node16 -->
<g id="edge15_Node000008_Node000016" class="edge">
<title>Node8&#45;&gt;Node16</title>
<g id="a_edge15_Node000008_Node000016"><a xlink:title=" ">
<path fill="none" stroke="#63b8ff" d="M252.55,-319.29C263.54,-265.8 296.52,-140.33 374,-72.5 391.97,-56.77 415.91,-47.08 438.46,-41.1"/>
<polygon fill="#63b8ff" stroke="#63b8ff" points="249.09,-318.79 250.59,-329.27 255.95,-320.14 249.09,-318.79"/>
</a>
</g>
</g>
<!-- Node10 -->
<g id="Node000010" class="node">
<title>Node10</title>
<g id="a_Node000010"><a xlink:href="classDynExp_1_1ParamsBase_1_1Param_3_01LinkType_00_01std_1_1enable__if__t_3_01std_1_1is__base__odd85ddee3349917fa7e32c83ff1f8ec2.html" target="_top" xlink:title="Parameter for links to a single Object. If LinkType is derived from ObjectLinkBase,...">
<polygon fill="white" stroke="#666666" points="844.5,-556 683.5,-556 683.5,-493 844.5,-493 844.5,-556"/>
<text text-anchor="start" x="691.5" y="-544" font-family="Helvetica,sans-Serif" font-size="10.00">DynExp::ParamsBase</text>
<text text-anchor="start" x="691.5" y="-533" font-family="Helvetica,sans-Serif" font-size="10.00">::Param&lt; LinkType, std</text>
<text text-anchor="start" x="691.5" y="-522" font-family="Helvetica,sans-Serif" font-size="10.00">::enable_if_t&lt; std::is</text>
<text text-anchor="start" x="691.5" y="-511" font-family="Helvetica,sans-Serif" font-size="10.00">_base_of_v&lt; ObjectLinkBase,</text>
<text text-anchor="middle" x="764" y="-500" font-family="Helvetica,sans-Serif" font-size="10.00"> LinkType &gt; &gt; &gt;</text>
</a>
</g>
</g>
<!-- Node9&#45;&gt;Node10 -->
<g id="edge9_Node000009_Node000010" class="edge">
<title>Node9&#45;&gt;Node10</title>
<g id="a_edge9_Node000009_Node000010"><a xlink:title=" ">
<path fill="none" stroke="#63b8ff" d="M605.2,-524.5C630.97,-524.5 658.48,-524.5 683.2,-524.5"/>
<polygon fill="#63b8ff" stroke="#63b8ff" points="605.04,-521 595.04,-524.5 605.04,-528 605.04,-521"/>
</a>
</g>
</g>
</g>
</svg>
