<?xml version="1.0" encoding="UTF-8" standalone="no"?>
<!DOCTYPE svg PUBLIC "-//W3C//DTD SVG 1.1//EN"
 "http://www.w3.org/Graphics/SVG/1.1/DTD/svg11.dtd">
<!-- Generated by graphviz version 2.43.0 (0)
 -->
<!-- Title: Util::ISynchronizedPointerLockable Pages: 1 -->
<svg width="1008pt" height="1352pt"
 viewBox="0.00 0.00 1008.00 1352.00" xmlns="http://www.w3.org/2000/svg" xmlns:xlink="http://www.w3.org/1999/xlink">
<g id="graph0" class="graph" transform="scale(1 1) rotate(0) translate(4 1348)">
<title>Util::ISynchronizedPointerLockable</title>
<!-- Node1 -->
<g id="Node000001" class="node">
<title>Node1</title>
<g id="a_Node000001"><a xlink:title="Interface to allow synchronizing the access to derived classes between different threads by making th...">
<polygon fill="#999999" stroke="#666666" points="287,-656.5 144,-656.5 144,-626.5 287,-626.5 287,-656.5"/>
<text text-anchor="start" x="152" y="-644.5" font-family="Helvetica,sans-Serif" font-size="10.00">Util::ISynchronizedPointer</text>
<text text-anchor="middle" x="215.5" y="-633.5" font-family="Helvetica,sans-Serif" font-size="10.00">Lockable</text>
</a>
</g>
</g>
<!-- Node3 -->
<g id="Node000003" class="node">
<title>Node3</title>
<g id="a_Node000003"><a xlink:href="classDynExp_1_1InstrumentDataBase.html" target="_top" xlink:title="Data structure to contain data which is synchronized in between different threads....">
<polygon fill="white" stroke="#666666" points="484,-1112 323,-1112 323,-1093 484,-1093 484,-1112"/>
<text text-anchor="middle" x="403.5" y="-1100" font-family="Helvetica,sans-Serif" font-size="10.00">DynExp::InstrumentDataBase</text>
</a>
</g>
</g>
<!-- Node1&#45;&gt;Node3 -->
<g id="edge2_Node000001_Node000003" class="edge">
<title>Node1&#45;&gt;Node3</title>
<g id="a_edge2_Node000001_Node000003"><a xlink:title=" ">
<path fill="none" stroke="#63b8ff" d="M226.39,-666.02C260.98,-751.75 375.65,-1035.96 398.52,-1092.62"/>
<polygon fill="#63b8ff" stroke="#63b8ff" points="229.57,-664.54 222.58,-656.58 223.08,-667.16 229.57,-664.54"/>
</a>
</g>
</g>
<!-- Node33 -->
<g id="Node000033" class="node">
<title>Node33</title>
<g id="a_Node000033"><a xlink:href="classDynExp_1_1ModuleDataBase.html" target="_top" xlink:title="Data structure to contain data which is synchronized in between different threads....">
<polygon fill="white" stroke="#666666" points="475,-651 332,-651 332,-632 475,-632 475,-651"/>
<text text-anchor="middle" x="403.5" y="-639" font-family="Helvetica,sans-Serif" font-size="10.00">DynExp::ModuleDataBase</text>
</a>
</g>
</g>
<!-- Node1&#45;&gt;Node33 -->
<g id="edge17_Node000001_Node000033" class="edge">
<title>Node1&#45;&gt;Node33</title>
<g id="a_edge17_Node000001_Node000033"><a xlink:title=" ">
<path fill="none" stroke="#63b8ff" d="M297.18,-641.5C308.76,-641.5 320.6,-641.5 331.96,-641.5"/>
<polygon fill="#63b8ff" stroke="#63b8ff" points="297.08,-638 287.08,-641.5 297.08,-645 297.08,-638"/>
</a>
</g>
</g>
<!-- Node57 -->
<g id="Node000057" class="node">
<title>Node57</title>
<g id="a_Node000057"><a xlink:href="classDynExp_1_1ParamsBase.html" target="_top" xlink:title="Abstract base class for object parameter classes. Each class derived from class Object must be accomp...">
<polygon fill="white" stroke="#666666" points="463.5,-212 343.5,-212 343.5,-193 463.5,-193 463.5,-212"/>
<text text-anchor="middle" x="403.5" y="-200" font-family="Helvetica,sans-Serif" font-size="10.00">DynExp::ParamsBase</text>
</a>
</g>
</g>
<!-- Node1&#45;&gt;Node57 -->
<g id="edge36_Node000001_Node000057" class="edge">
<title>Node1&#45;&gt;Node57</title>
<g id="a_edge36_Node000001_Node000057"><a xlink:title=" ">
<path fill="none" stroke="#63b8ff" d="M226.87,-617.02C261.96,-534.19 375.33,-266.62 398.39,-212.21"/>
<polygon fill="#63b8ff" stroke="#63b8ff" points="223.58,-615.82 222.9,-626.39 230.03,-618.55 223.58,-615.82"/>
</a>
</g>
</g>
<!-- Node2 -->
<g id="Node000002" class="node">
<title>Node2</title>
<g id="a_Node000002"><a xlink:href="classUtil_1_1INonCopyable.html" target="_top" xlink:title="Interface to delete copy constructor and copy assignment operator and thus make derived classes non&#45;c...">
<polygon fill="white" stroke="#666666" points="108,-651 0,-651 0,-632 108,-632 108,-651"/>
<text text-anchor="middle" x="54" y="-639" font-family="Helvetica,sans-Serif" font-size="10.00">Util::INonCopyable</text>
</a>
</g>
</g>
<!-- Node2&#45;&gt;Node1 -->
<g id="edge1_Node000001_Node000002" class="edge">
<title>Node2&#45;&gt;Node1</title>
<g id="a_edge1_Node000001_Node000002"><a xlink:title=" ">
<path fill="none" stroke="#63b8ff" d="M118.19,-641.5C126.58,-641.5 135.23,-641.5 143.74,-641.5"/>
<polygon fill="#63b8ff" stroke="#63b8ff" points="118.11,-638 108.11,-641.5 118.11,-645 118.11,-638"/>
</a>
</g>
</g>
<!-- Node4 -->
<g id="Node000004" class="node">
<title>Node4</title>
<g id="a_Node000004"><a xlink:href="classDynExpInstr_1_1CameraData.html" target="_top" xlink:title="Data class for Camera.">
<polygon fill="white" stroke="#666666" points="700,-1307 557,-1307 557,-1288 700,-1288 700,-1307"/>
<text text-anchor="middle" x="628.5" y="-1295" font-family="Helvetica,sans-Serif" font-size="10.00">DynExpInstr::CameraData</text>
</a>
</g>
</g>
<!-- Node3&#45;&gt;Node4 -->
<g id="edge3_Node000003_Node000004" class="edge">
<title>Node3&#45;&gt;Node4</title>
<g id="a_edge3_Node000003_Node000004"><a xlink:title=" ">
<path fill="none" stroke="#63b8ff" d="M422.8,-1119.03C445.49,-1139.47 485.4,-1175.27 520,-1205.5 554.78,-1235.88 596.45,-1271.26 616.14,-1287.91"/>
<polygon fill="#63b8ff" stroke="#63b8ff" points="425.03,-1116.33 415.26,-1112.23 420.35,-1121.53 425.03,-1116.33"/>
</a>
</g>
</g>
<!-- Node7 -->
<g id="Node000007" class="node">
<title>Node7</title>
<g id="a_Node000007"><a xlink:href="classDynExpInstr_1_1DataStreamInstrumentData.html" target="_top" xlink:title="Data class for DataStreamInstrument.">
<polygon fill="white" stroke="#666666" points="737,-1196 520,-1196 520,-1177 737,-1177 737,-1196"/>
<text text-anchor="middle" x="628.5" y="-1184" font-family="Helvetica,sans-Serif" font-size="10.00">DynExpInstr::DataStreamInstrumentData</text>
</a>
</g>
</g>
<!-- Node3&#45;&gt;Node7 -->
<g id="edge6_Node000003_Node000007" class="edge">
<title>Node3&#45;&gt;Node7</title>
<g id="a_edge6_Node000003_Node000007"><a xlink:title=" ">
<path fill="none" stroke="#63b8ff" d="M437.16,-1115.91C460.22,-1125.27 491.89,-1137.94 520,-1148.5 546.87,-1158.59 577.79,-1169.45 599.55,-1176.96"/>
<polygon fill="#63b8ff" stroke="#63b8ff" points="438.43,-1112.64 427.84,-1112.11 435.78,-1119.12 438.43,-1112.64"/>
</a>
</g>
</g>
<!-- Node27 -->
<g id="Node000027" class="node">
<title>Node27</title>
<g id="a_Node000027"><a xlink:href="classDynExpInstr_1_1InterModuleCommunicatorData.html" target="_top" xlink:title="Data class for InterModuleCommunicator.">
<polygon fill="white" stroke="#666666" points="698.5,-1139.5 558.5,-1139.5 558.5,-1109.5 698.5,-1109.5 698.5,-1139.5"/>
<text text-anchor="start" x="566.5" y="-1127.5" font-family="Helvetica,sans-Serif" font-size="10.00">DynExpInstr::InterModule</text>
<text text-anchor="middle" x="628.5" y="-1116.5" font-family="Helvetica,sans-Serif" font-size="10.00">CommunicatorData</text>
</a>
</g>
</g>
<!-- Node3&#45;&gt;Node27 -->
<g id="edge11_Node000003_Node000027" class="edge">
<title>Node3&#45;&gt;Node27</title>
<g id="a_edge11_Node000003_Node000027"><a xlink:title=" ">
<path fill="none" stroke="#63b8ff" d="M494.13,-1111.34C515.51,-1113.45 538.02,-1115.67 558.32,-1117.68"/>
<polygon fill="#63b8ff" stroke="#63b8ff" points="494.36,-1107.85 484.06,-1110.35 493.67,-1114.81 494.36,-1107.85"/>
</a>
</g>
</g>
<!-- Node28 -->
<g id="Node000028" class="node">
<title>Node28</title>
<g id="a_Node000028"><a xlink:href="classDynExpInstr_1_1PositionerStageData.html" target="_top" xlink:title="Data class for PositionerStage.">
<polygon fill="white" stroke="#666666" points="719.5,-1091 537.5,-1091 537.5,-1072 719.5,-1072 719.5,-1091"/>
<text text-anchor="middle" x="628.5" y="-1079" font-family="Helvetica,sans-Serif" font-size="10.00">DynExpInstr::PositionerStageData</text>
</a>
</g>
</g>
<!-- Node3&#45;&gt;Node28 -->
<g id="edge12_Node000003_Node000028" class="edge">
<title>Node3&#45;&gt;Node28</title>
<g id="a_edge12_Node000003_Node000028"><a xlink:title=" ">
<path fill="none" stroke="#63b8ff" d="M494.29,-1094.04C508.48,-1092.71 523.15,-1091.33 537.34,-1089.99"/>
<polygon fill="#63b8ff" stroke="#63b8ff" points="493.69,-1090.59 484.06,-1095.01 494.35,-1097.55 493.69,-1090.59"/>
</a>
</g>
</g>
<!-- Node32 -->
<g id="Node000032" class="node">
<title>Node32</title>
<g id="a_Node000032"><a xlink:href="classDynExpInstr_1_1SpectrometerData.html" target="_top" xlink:title="Data class for Spectrometer.">
<polygon fill="white" stroke="#666666" points="714,-1054 543,-1054 543,-1035 714,-1035 714,-1054"/>
<text text-anchor="middle" x="628.5" y="-1042" font-family="Helvetica,sans-Serif" font-size="10.00">DynExpInstr::SpectrometerData</text>
</a>
</g>
</g>
<!-- Node3&#45;&gt;Node32 -->
<g id="edge16_Node000003_Node000032" class="edge">
<title>Node3&#45;&gt;Node32</title>
<g id="a_edge16_Node000003_Node000032"><a xlink:title=" ">
<path fill="none" stroke="#63b8ff" d="M438.96,-1089.34C461.7,-1081.04 492.31,-1070.58 520,-1063.5 534.23,-1059.86 549.7,-1056.69 564.35,-1054.02"/>
<polygon fill="#63b8ff" stroke="#63b8ff" points="437.57,-1086.12 429.41,-1092.87 440,-1092.69 437.57,-1086.12"/>
</a>
</g>
</g>
<!-- Node5 -->
<g id="Node000005" class="node">
<title>Node5</title>
<g id="a_Node000005"><a xlink:href="classDynExpInstr_1_1DummyCameraData.html" target="_top" xlink:title=" ">
<polygon fill="white" stroke="#666666" points="977.5,-1344 795.5,-1344 795.5,-1325 977.5,-1325 977.5,-1344"/>
<text text-anchor="middle" x="886.5" y="-1332" font-family="Helvetica,sans-Serif" font-size="10.00">DynExpInstr::DummyCameraData</text>
</a>
</g>
</g>
<!-- Node4&#45;&gt;Node5 -->
<g id="edge4_Node000004_Node000005" class="edge">
<title>Node4&#45;&gt;Node5</title>
<g id="a_edge4_Node000004_Node000005"><a xlink:title=" ">
<path fill="none" stroke="#63b8ff" d="M705.44,-1308.48C741.63,-1313.71 784.52,-1319.9 819.35,-1324.94"/>
<polygon fill="#63b8ff" stroke="#63b8ff" points="705.82,-1304.99 695.43,-1307.03 704.82,-1311.92 705.82,-1304.99"/>
</a>
</g>
</g>
<!-- Node6 -->
<g id="Node000006" class="node">
<title>Node6</title>
<g id="a_Node000006"><a xlink:href="classDynExpInstr_1_1PVCamData.html" target="_top" xlink:title=" ">
<polygon fill="white" stroke="#666666" points="956.5,-1307 816.5,-1307 816.5,-1288 956.5,-1288 956.5,-1307"/>
<text text-anchor="middle" x="886.5" y="-1295" font-family="Helvetica,sans-Serif" font-size="10.00">DynExpInstr::PVCamData</text>
</a>
</g>
</g>
<!-- Node4&#45;&gt;Node6 -->
<g id="edge5_Node000004_Node000006" class="edge">
<title>Node4&#45;&gt;Node6</title>
<g id="a_edge5_Node000004_Node000006"><a xlink:title=" ">
<path fill="none" stroke="#63b8ff" d="M710.52,-1297.5C744.57,-1297.5 783.77,-1297.5 816.43,-1297.5"/>
<polygon fill="#63b8ff" stroke="#63b8ff" points="710.13,-1294 700.13,-1297.5 710.13,-1301 710.13,-1294"/>
</a>
</g>
</g>
<!-- Node8 -->
<g id="Node000008" class="node">
<title>Node8</title>
<g id="a_Node000008"><a xlink:href="classDynExpInstr_1_1FunctionGeneratorData.html" target="_top" xlink:title="Data class for FunctionGenerator.">
<polygon fill="#fff0f0" stroke="red" points="984,-1270 789,-1270 789,-1251 984,-1251 984,-1270"/>
<text text-anchor="middle" x="886.5" y="-1258" font-family="Helvetica,sans-Serif" font-size="10.00">DynExpInstr::FunctionGeneratorData</text>
</a>
</g>
</g>
<!-- Node7&#45;&gt;Node8 -->
<g id="edge7_Node000007_Node000008" class="edge">
<title>Node7&#45;&gt;Node8</title>
<g id="a_edge7_Node000007_Node000008"><a xlink:title=" ">
<path fill="none" stroke="#63b8ff" d="M659.36,-1200.32C687.95,-1213.03 732.6,-1231.52 773,-1242.5 785.31,-1245.85 798.56,-1248.65 811.49,-1250.97"/>
<polygon fill="#63b8ff" stroke="#63b8ff" points="660.5,-1196.99 649.94,-1196.08 657.63,-1203.38 660.5,-1196.99"/>
</a>
</g>
</g>
<!-- Node18 -->
<g id="Node000018" class="node">
<title>Node18</title>
<g id="a_Node000018"><a xlink:href="classDynExpInstr_1_1InputPortData.html" target="_top" xlink:title="Data class for InputPort.">
<polygon fill="#fff0f0" stroke="red" points="961,-1233 812,-1233 812,-1214 961,-1214 961,-1233"/>
<text text-anchor="middle" x="886.5" y="-1221" font-family="Helvetica,sans-Serif" font-size="10.00">DynExpInstr::InputPortData</text>
</a>
</g>
</g>
<!-- Node7&#45;&gt;Node18 -->
<g id="edge8_Node000007_Node000018" class="edge">
<title>Node7&#45;&gt;Node18</title>
<g id="a_edge8_Node000007_Node000018"><a xlink:title=" ">
<path fill="none" stroke="#63b8ff" d="M705.44,-1197.48C741.63,-1202.71 784.52,-1208.9 819.35,-1213.94"/>
<polygon fill="#63b8ff" stroke="#63b8ff" points="705.82,-1193.99 695.43,-1196.03 704.82,-1200.92 705.82,-1193.99"/>
</a>
</g>
</g>
<!-- Node23 -->
<g id="Node000023" class="node">
<title>Node23</title>
<g id="a_Node000023"><a xlink:href="classDynExpInstr_1_1LockinAmplifierData.html" target="_top" xlink:title="Data class for LockinAmplifier.">
<polygon fill="#fff0f0" stroke="red" points="977,-1196 796,-1196 796,-1177 977,-1177 977,-1196"/>
<text text-anchor="middle" x="886.5" y="-1184" font-family="Helvetica,sans-Serif" font-size="10.00">DynExpInstr::LockinAmplifierData</text>
</a>
</g>
</g>
<!-- Node7&#45;&gt;Node23 -->
<g id="edge9_Node000007_Node000023" class="edge">
<title>Node7&#45;&gt;Node23</title>
<g id="a_edge9_Node000007_Node000023"><a xlink:title=" ">
<path fill="none" stroke="#63b8ff" d="M747.45,-1186.5C763.77,-1186.5 780.31,-1186.5 795.99,-1186.5"/>
<polygon fill="#63b8ff" stroke="#63b8ff" points="747.33,-1183 737.33,-1186.5 747.33,-1190 747.33,-1183"/>
</a>
</g>
</g>
<!-- Node25 -->
<g id="Node000025" class="node">
<title>Node25</title>
<g id="a_Node000025"><a xlink:href="classDynExpInstr_1_1TimeTaggerData.html" target="_top" xlink:title="Data class for TimeTagger.">
<polygon fill="#fff0f0" stroke="red" points="967.5,-1159 805.5,-1159 805.5,-1140 967.5,-1140 967.5,-1159"/>
<text text-anchor="middle" x="886.5" y="-1147" font-family="Helvetica,sans-Serif" font-size="10.00">DynExpInstr::TimeTaggerData</text>
</a>
</g>
</g>
<!-- Node7&#45;&gt;Node25 -->
<g id="edge10_Node000007_Node000025" class="edge">
<title>Node7&#45;&gt;Node25</title>
<g id="a_edge10_Node000007_Node000025"><a xlink:title=" ">
<path fill="none" stroke="#63b8ff" d="M705.44,-1175.52C741.63,-1170.29 784.52,-1164.1 819.35,-1159.06"/>
<polygon fill="#63b8ff" stroke="#63b8ff" points="704.82,-1172.08 695.43,-1176.97 705.82,-1179.01 704.82,-1172.08"/>
</a>
</g>
</g>
<!-- Node29 -->
<g id="Node000029" class="node">
<title>Node29</title>
<g id="a_Node000029"><a xlink:href="classDynExpInstr_1_1NenionLeakvalveF3Data.html" target="_top" xlink:title=" ">
<polygon fill="white" stroke="#666666" points="970,-1121.5 803,-1121.5 803,-1091.5 970,-1091.5 970,-1121.5"/>
<text text-anchor="start" x="811" y="-1109.5" font-family="Helvetica,sans-Serif" font-size="10.00">DynExpInstr::NenionLeakvalve</text>
<text text-anchor="middle" x="886.5" y="-1098.5" font-family="Helvetica,sans-Serif" font-size="10.00">F3Data</text>
</a>
</g>
</g>
<!-- Node28&#45;&gt;Node29 -->
<g id="edge13_Node000028_Node000029" class="edge">
<title>Node28&#45;&gt;Node29</title>
<g id="a_edge13_Node000028_Node000029"><a xlink:title=" ">
<path fill="none" stroke="#63b8ff" d="M730.01,-1091.32C754.16,-1093.67 779.67,-1096.17 802.9,-1098.43"/>
<polygon fill="#63b8ff" stroke="#63b8ff" points="730.05,-1087.8 719.76,-1090.31 729.37,-1094.77 730.05,-1087.8"/>
</a>
</g>
</g>
<!-- Node30 -->
<g id="Node000030" class="node">
<title>Node30</title>
<g id="a_Node000030"><a xlink:href="classDynExpInstr_1_1PI__C__862StageData.html" target="_top" xlink:title=" ">
<polygon fill="white" stroke="#666666" points="975,-1073 798,-1073 798,-1054 975,-1054 975,-1073"/>
<text text-anchor="middle" x="886.5" y="-1061" font-family="Helvetica,sans-Serif" font-size="10.00">DynExpInstr::PI_C_862StageData</text>
</a>
</g>
</g>
<!-- Node28&#45;&gt;Node30 -->
<g id="edge14_Node000028_Node000030" class="edge">
<title>Node28&#45;&gt;Node30</title>
<g id="a_edge14_Node000028_Node000030"><a xlink:title=" ">
<path fill="none" stroke="#63b8ff" d="M729.95,-1074.44C752.36,-1072.86 775.94,-1071.2 797.78,-1069.67"/>
<polygon fill="#63b8ff" stroke="#63b8ff" points="729.49,-1070.96 719.76,-1075.15 729.98,-1077.94 729.49,-1070.96"/>
</a>
</g>
</g>
<!-- Node31 -->
<g id="Node000031" class="node">
<title>Node31</title>
<g id="a_Node000031"><a xlink:href="classDynExpInstr_1_1SmarActData.html" target="_top" xlink:title=" ">
<polygon fill="white" stroke="#666666" points="959.5,-1036 813.5,-1036 813.5,-1017 959.5,-1017 959.5,-1036"/>
<text text-anchor="middle" x="886.5" y="-1024" font-family="Helvetica,sans-Serif" font-size="10.00">DynExpInstr::SmarActData</text>
</a>
</g>
</g>
<!-- Node28&#45;&gt;Node31 -->
<g id="edge15_Node000028_Node000031" class="edge">
<title>Node28&#45;&gt;Node31</title>
<g id="a_edge15_Node000028_Node000031"><a xlink:title=" ">
<path fill="none" stroke="#63b8ff" d="M714.13,-1069.79C721.93,-1067.97 729.66,-1065.89 737,-1063.5 754.01,-1057.96 755.99,-1051.05 773,-1045.5 785.8,-1041.32 799.74,-1038.02 813.31,-1035.43"/>
<polygon fill="#63b8ff" stroke="#63b8ff" points="713.24,-1066.4 704.22,-1071.95 714.73,-1073.24 713.24,-1066.4"/>
</a>
</g>
</g>
<!-- Node34 -->
<g id="Node000034" class="node">
<title>Node34</title>
<g id="a_Node000034"><a xlink:href="classDynExpModule_1_1gRPCModuleData.html" target="_top" xlink:title=" ">
<polygon fill="white" stroke="#666666" points="707.5,-950.5 549.5,-950.5 549.5,-920.5 707.5,-920.5 707.5,-950.5"/>
<text text-anchor="start" x="557.5" y="-938.5" font-family="Helvetica,sans-Serif" font-size="10.00">DynExpModule::gRPCModule</text>
<text text-anchor="middle" x="628.5" y="-927.5" font-family="Helvetica,sans-Serif" font-size="10.00">Data&lt; gRPCServices... &gt;</text>
</a>
</g>
</g>
<!-- Node33&#45;&gt;Node34 -->
<g id="edge18_Node000033_Node000034" class="edge">
<title>Node33&#45;&gt;Node34</title>
<g id="a_edge18_Node000033_Node000034"><a xlink:title=" ">
<path fill="none" stroke="#63b8ff" d="M418.14,-659.49C458.76,-713.03 578.38,-870.74 616.02,-920.37"/>
<polygon fill="#63b8ff" stroke="#63b8ff" points="420.75,-657.13 411.92,-651.28 415.17,-661.36 420.75,-657.13"/>
</a>
</g>
</g>
<!-- Node42 -->
<g id="Node000042" class="node">
<title>Node42</title>
<g id="a_Node000042"><a xlink:href="classDynExp_1_1QModuleDataBase.html" target="_top" xlink:title="Data class for QModuleBase.">
<polygon fill="white" stroke="#666666" points="704,-694 553,-694 553,-675 704,-675 704,-694"/>
<text text-anchor="middle" x="628.5" y="-682" font-family="Helvetica,sans-Serif" font-size="10.00">DynExp::QModuleDataBase</text>
</a>
</g>
</g>
<!-- Node33&#45;&gt;Node42 -->
<g id="edge21_Node000033_Node000042" class="edge">
<title>Node33&#45;&gt;Node42</title>
<g id="a_edge21_Node000033_Node000042"><a xlink:title=" ">
<path fill="none" stroke="#63b8ff" d="M458.71,-653.11C478.03,-657.16 499.96,-661.65 520,-665.5 536.75,-668.72 555.01,-672.02 571.65,-674.96"/>
<polygon fill="#63b8ff" stroke="#63b8ff" points="459.37,-649.68 448.86,-651.04 457.93,-656.53 459.37,-649.68"/>
</a>
</g>
</g>
<!-- Node54 -->
<g id="Node000054" class="node">
<title>Node54</title>
<g id="a_Node000054"><a xlink:href="classDynExpModule_1_1ArbitraryFunctionFromCSVData.html" target="_top" xlink:title=" ">
<polygon fill="white" stroke="#666666" points="718.5,-656.5 538.5,-656.5 538.5,-626.5 718.5,-626.5 718.5,-656.5"/>
<text text-anchor="start" x="546.5" y="-644.5" font-family="Helvetica,sans-Serif" font-size="10.00">DynExpModule::ArbitraryFunction</text>
<text text-anchor="middle" x="628.5" y="-633.5" font-family="Helvetica,sans-Serif" font-size="10.00">FromCSVData</text>
</a>
</g>
</g>
<!-- Node33&#45;&gt;Node54 -->
<g id="edge33_Node000033_Node000054" class="edge">
<title>Node33&#45;&gt;Node54</title>
<g id="a_edge33_Node000033_Node000054"><a xlink:title=" ">
<path fill="none" stroke="#63b8ff" d="M485.07,-641.5C502.31,-641.5 520.62,-641.5 538.16,-641.5"/>
<polygon fill="#63b8ff" stroke="#63b8ff" points="485.06,-638 475.06,-641.5 485.06,-645 485.06,-638"/>
</a>
</g>
</g>
<!-- Node55 -->
<g id="Node000055" class="node">
<title>Node55</title>
<g id="a_Node000055"><a xlink:href="classDynExpModule_1_1StreamManipulatorData.html" target="_top" xlink:title="Data class for StreamManipulator.">
<polygon fill="white" stroke="#666666" points="735,-608 522,-608 522,-589 735,-589 735,-608"/>
<text text-anchor="middle" x="628.5" y="-596" font-family="Helvetica,sans-Serif" font-size="10.00">DynExpModule::StreamManipulatorData</text>
</a>
</g>
</g>
<!-- Node33&#45;&gt;Node55 -->
<g id="edge34_Node000033_Node000055" class="edge">
<title>Node33&#45;&gt;Node55</title>
<g id="a_edge34_Node000033_Node000055"><a xlink:title=" ">
<path fill="none" stroke="#63b8ff" d="M458.71,-629.89C478.03,-625.84 499.96,-621.35 520,-617.5 536.75,-614.28 555.01,-610.98 571.65,-608.04"/>
<polygon fill="#63b8ff" stroke="#63b8ff" points="457.93,-626.47 448.86,-631.96 459.37,-633.32 457.93,-626.47"/>
</a>
</g>
</g>
<!-- Node56 -->
<g id="Node000056" class="node">
<title>Node56</title>
<g id="a_Node000056"><a xlink:href="classDynExpModule_1_1gRPCModuleData.html" target="_top" xlink:title="Data class for gRPCModule.">
<polygon fill="white" stroke="#666666" points="707.5,-570.5 549.5,-570.5 549.5,-540.5 707.5,-540.5 707.5,-570.5"/>
<text text-anchor="start" x="557.5" y="-558.5" font-family="Helvetica,sans-Serif" font-size="10.00">DynExpModule::gRPCModule</text>
<text text-anchor="middle" x="628.5" y="-547.5" font-family="Helvetica,sans-Serif" font-size="10.00">Data&lt; gRPCServices &gt;</text>
</a>
</g>
</g>
<!-- Node33&#45;&gt;Node56 -->
<g id="edge35_Node000033_Node000056" class="edge">
<title>Node33&#45;&gt;Node56</title>
<g id="a_edge35_Node000033_Node000056"><a xlink:title=" ">
<path fill="none" stroke="#63b8ff" d="M427.79,-626.53C450.51,-612.54 486.44,-591.98 520,-579.5 529.32,-576.03 539.29,-572.98 549.26,-570.33"/>
<polygon fill="#63b8ff" stroke="#63b8ff" points="425.82,-623.63 419.2,-631.9 429.53,-629.57 425.82,-623.63"/>
</a>
</g>
</g>
<!-- Node35 -->
<g id="Node000035" class="node">
<title>Node35</title>
<g id="a_Node000035"><a xlink:href="classDynExpModule_1_1NetworkDataStreamInstrumentData.html" target="_top" xlink:title=" ">
<polygon fill="#fff0f0" stroke="red" points="1000,-998.5 773,-998.5 773,-968.5 1000,-968.5 1000,-998.5"/>
<text text-anchor="start" x="781" y="-986.5" font-family="Helvetica,sans-Serif" font-size="10.00">DynExpModule::NetworkData</text>
<text text-anchor="middle" x="886.5" y="-975.5" font-family="Helvetica,sans-Serif" font-size="10.00">StreamInstrumentData&lt; gRPCServices... &gt;</text>
</a>
</g>
</g>
<!-- Node34&#45;&gt;Node35 -->
<g id="edge19_Node000034_Node000035" class="edge">
<title>Node34&#45;&gt;Node35</title>
<g id="a_edge19_Node000034_Node000035"><a xlink:title=" ">
<path fill="none" stroke="#63b8ff" d="M717.61,-952.02C746.01,-957.35 777.32,-963.22 805.13,-968.43"/>
<polygon fill="#63b8ff" stroke="#63b8ff" points="718.17,-948.57 707.7,-950.16 716.88,-955.45 718.17,-948.57"/>
</a>
</g>
</g>
<!-- Node41 -->
<g id="Node000041" class="node">
<title>Node41</title>
<g id="a_Node000041"><a xlink:href="classDynExpModule_1_1NetworkDataStreamInstrumentData.html" target="_top" xlink:title=" ">
<polygon fill="white" stroke="#666666" points="995.5,-950.5 777.5,-950.5 777.5,-920.5 995.5,-920.5 995.5,-950.5"/>
<text text-anchor="start" x="785.5" y="-938.5" font-family="Helvetica,sans-Serif" font-size="10.00">DynExpModule::NetworkData</text>
<text text-anchor="middle" x="886.5" y="-927.5" font-family="Helvetica,sans-Serif" font-size="10.00">StreamInstrumentData&lt; gRPCServices &gt;</text>
</a>
</g>
</g>
<!-- Node34&#45;&gt;Node41 -->
<g id="edge20_Node000034_Node000041" class="edge">
<title>Node34&#45;&gt;Node41</title>
<g id="a_edge20_Node000034_Node000041"><a xlink:title=" ">
<path fill="none" stroke="#63b8ff" d="M717.86,-935.5C736.97,-935.5 757.38,-935.5 777.15,-935.5"/>
<polygon fill="#63b8ff" stroke="#63b8ff" points="717.7,-932 707.7,-935.5 717.7,-939 717.7,-932"/>
</a>
</g>
</g>
<!-- Node43 -->
<g id="Node000043" class="node">
<title>Node43</title>
<g id="a_Node000043"><a xlink:href="classDynExpModule_1_1ImageViewer_1_1ImageViewerData.html" target="_top" xlink:title=" ">
<polygon fill="white" stroke="#666666" points="967,-902.5 806,-902.5 806,-872.5 967,-872.5 967,-902.5"/>
<text text-anchor="start" x="814" y="-890.5" font-family="Helvetica,sans-Serif" font-size="10.00">DynExpModule::ImageViewer</text>
<text text-anchor="middle" x="886.5" y="-879.5" font-family="Helvetica,sans-Serif" font-size="10.00">::ImageViewerData</text>
</a>
</g>
</g>
<!-- Node42&#45;&gt;Node43 -->
<g id="edge22_Node000042_Node000043" class="edge">
<title>Node42&#45;&gt;Node43</title>
<g id="a_edge22_Node000042_Node000043"><a xlink:title=" ">
<path fill="none" stroke="#63b8ff" d="M638.89,-703.38C658.39,-740.47 707,-822.8 773,-863.5 783.03,-869.68 794.41,-874.29 805.99,-877.72"/>
<polygon fill="#63b8ff" stroke="#63b8ff" points="641.85,-701.48 634.17,-694.18 635.63,-704.68 641.85,-701.48"/>
</a>
</g>
</g>
<!-- Node44 -->
<g id="Node000044" class="node">
<title>Node44</title>
<g id="a_Node000044"><a xlink:href="classDynExpModule_1_1InputPortReaderData.html" target="_top" xlink:title=" ">
<polygon fill="white" stroke="#666666" points="985.5,-854 787.5,-854 787.5,-835 985.5,-835 985.5,-854"/>
<text text-anchor="middle" x="886.5" y="-842" font-family="Helvetica,sans-Serif" font-size="10.00">DynExpModule::InputPortReaderData</text>
</a>
</g>
</g>
<!-- Node42&#45;&gt;Node44 -->
<g id="edge23_Node000042_Node000044" class="edge">
<title>Node42&#45;&gt;Node44</title>
<g id="a_edge23_Node000042_Node000044"><a xlink:title=" ">
<path fill="none" stroke="#63b8ff" d="M641.94,-702.5C664.27,-733.27 714.36,-795.57 773,-825.5 780.59,-829.37 788.8,-832.48 797.21,-834.97"/>
<polygon fill="#63b8ff" stroke="#63b8ff" points="644.57,-700.15 635.92,-694.03 638.86,-704.21 644.57,-700.15"/>
</a>
</g>
</g>
<!-- Node45 -->
<g id="Node000045" class="node">
<title>Node45</title>
<g id="a_Node000045"><a xlink:href="classDynExpModule_1_1LockinAmplifierControlData.html" target="_top" xlink:title=" ">
<polygon fill="white" stroke="#666666" points="972.5,-816.5 800.5,-816.5 800.5,-786.5 972.5,-786.5 972.5,-816.5"/>
<text text-anchor="start" x="808.5" y="-804.5" font-family="Helvetica,sans-Serif" font-size="10.00">DynExpModule::LockinAmplifier</text>
<text text-anchor="middle" x="886.5" y="-793.5" font-family="Helvetica,sans-Serif" font-size="10.00">ControlData</text>
</a>
</g>
</g>
<!-- Node42&#45;&gt;Node45 -->
<g id="edge24_Node000042_Node000045" class="edge">
<title>Node42&#45;&gt;Node45</title>
<g id="a_edge24_Node000042_Node000045"><a xlink:title=" ">
<path fill="none" stroke="#63b8ff" d="M649,-700.5C675.46,-721.38 724.95,-757.6 773,-777.5 781.67,-781.09 790.95,-784.17 800.32,-786.81"/>
<polygon fill="#63b8ff" stroke="#63b8ff" points="650.94,-697.57 640.95,-694.05 646.57,-703.03 650.94,-697.57"/>
</a>
</g>
</g>
<!-- Node46 -->
<g id="Node000046" class="node">
<title>Node46</title>
<g id="a_Node000046"><a xlink:href="classDynExpModule_1_1ODMR_1_1ODMRData.html" target="_top" xlink:title=" ">
<polygon fill="white" stroke="#666666" points="950,-768.5 823,-768.5 823,-738.5 950,-738.5 950,-768.5"/>
<text text-anchor="start" x="831" y="-756.5" font-family="Helvetica,sans-Serif" font-size="10.00">DynExpModule::ODMR</text>
<text text-anchor="middle" x="886.5" y="-745.5" font-family="Helvetica,sans-Serif" font-size="10.00">::ODMRData</text>
</a>
</g>
</g>
<!-- Node42&#45;&gt;Node46 -->
<g id="edge25_Node000042_Node000046" class="edge">
<title>Node42&#45;&gt;Node46</title>
<g id="a_edge25_Node000042_Node000046"><a xlink:title=" ">
<path fill="none" stroke="#63b8ff" d="M666.98,-697.31C695.77,-706.9 736.63,-719.94 773,-729.5 789.03,-733.71 806.49,-737.72 822.77,-741.21"/>
<polygon fill="#63b8ff" stroke="#63b8ff" points="667.92,-693.94 657.32,-694.08 665.69,-700.57 667.92,-693.94"/>
</a>
</g>
</g>
<!-- Node47 -->
<g id="Node000047" class="node">
<title>Node47</title>
<g id="a_Node000047"><a xlink:href="classDynExpModule_1_1OutputPortWriterData.html" target="_top" xlink:title=" ">
<polygon fill="white" stroke="#666666" points="961,-720.5 812,-720.5 812,-690.5 961,-690.5 961,-720.5"/>
<text text-anchor="start" x="820" y="-708.5" font-family="Helvetica,sans-Serif" font-size="10.00">DynExpModule::OutputPort</text>
<text text-anchor="middle" x="886.5" y="-697.5" font-family="Helvetica,sans-Serif" font-size="10.00">WriterData</text>
</a>
</g>
</g>
<!-- Node42&#45;&gt;Node47 -->
<g id="edge26_Node000042_Node000047" class="edge">
<title>Node42&#45;&gt;Node47</title>
<g id="a_edge26_Node000042_Node000047"><a xlink:title=" ">
<path fill="none" stroke="#63b8ff" d="M714.34,-691.46C745.94,-694.05 781.5,-696.97 812,-699.47"/>
<polygon fill="#63b8ff" stroke="#63b8ff" points="714.49,-687.96 704.23,-690.63 713.91,-694.94 714.49,-687.96"/>
</a>
</g>
</g>
<!-- Node48 -->
<g id="Node000048" class="node">
<title>Node48</title>
<g id="a_Node000048"><a xlink:href="classDynExpModule_1_1SignalDesignerData.html" target="_top" xlink:title=" ">
<polygon fill="white" stroke="#666666" points="983,-672 790,-672 790,-653 983,-653 983,-672"/>
<text text-anchor="middle" x="886.5" y="-660" font-family="Helvetica,sans-Serif" font-size="10.00">DynExpModule::SignalDesignerData</text>
</a>
</g>
</g>
<!-- Node42&#45;&gt;Node48 -->
<g id="edge27_Node000042_Node000048" class="edge">
<title>Node42&#45;&gt;Node48</title>
<g id="a_edge27_Node000042_Node000048"><a xlink:title=" ">
<path fill="none" stroke="#63b8ff" d="M714.42,-677.2C738.53,-675.13 764.96,-672.86 789.67,-670.74"/>
<polygon fill="#63b8ff" stroke="#63b8ff" points="713.9,-673.73 704.23,-678.08 714.5,-680.71 713.9,-673.73"/>
</a>
</g>
</g>
<!-- Node49 -->
<g id="Node000049" class="node">
<title>Node49</title>
<g id="a_Node000049"><a xlink:href="classDynExpModule_1_1SignalPlotterData.html" target="_top" xlink:title=" ">
<polygon fill="white" stroke="#666666" points="977.5,-635 795.5,-635 795.5,-616 977.5,-616 977.5,-635"/>
<text text-anchor="middle" x="886.5" y="-623" font-family="Helvetica,sans-Serif" font-size="10.00">DynExpModule::SignalPlotterData</text>
</a>
</g>
</g>
<!-- Node42&#45;&gt;Node49 -->
<g id="edge28_Node000042_Node000049" class="edge">
<title>Node42&#45;&gt;Node49</title>
<g id="a_edge28_Node000042_Node000049"><a xlink:title=" ">
<path fill="none" stroke="#63b8ff" d="M714.16,-672.64C721.99,-670.62 729.71,-668.26 737,-665.5 754.54,-658.86 755.41,-649.99 773,-643.5 782.28,-640.08 792.22,-637.3 802.22,-635.06"/>
<polygon fill="#63b8ff" stroke="#63b8ff" points="713.12,-669.29 704.21,-675.03 714.75,-676.1 713.12,-669.29"/>
</a>
</g>
</g>
<!-- Node50 -->
<g id="Node000050" class="node">
<title>Node50</title>
<g id="a_Node000050"><a xlink:href="classDynExpModule_1_1SpectrumViewer_1_1SpectrumViewerData.html" target="_top" xlink:title=" ">
<polygon fill="white" stroke="#666666" points="974.5,-597.5 798.5,-597.5 798.5,-567.5 974.5,-567.5 974.5,-597.5"/>
<text text-anchor="start" x="806.5" y="-585.5" font-family="Helvetica,sans-Serif" font-size="10.00">DynExpModule::SpectrumViewer</text>
<text text-anchor="middle" x="886.5" y="-574.5" font-family="Helvetica,sans-Serif" font-size="10.00">::SpectrumViewerData</text>
</a>
</g>
</g>
<!-- Node42&#45;&gt;Node50 -->
<g id="edge29_Node000042_Node000050" class="edge">
<title>Node42&#45;&gt;Node50</title>
<g id="a_edge29_Node000042_Node000050"><a xlink:title=" ">
<path fill="none" stroke="#63b8ff" d="M713.89,-676.84C722.09,-674 729.97,-670.3 737,-665.5 762.37,-648.18 747.94,-624.26 773,-606.5 780.66,-601.07 789.3,-596.83 798.3,-593.52"/>
<polygon fill="#63b8ff" stroke="#63b8ff" points="712.7,-673.54 704.14,-679.79 714.72,-680.24 712.7,-673.54"/>
</a>
</g>
</g>
<!-- Node51 -->
<g id="Node000051" class="node">
<title>Node51</title>
<g id="a_Node000051"><a xlink:href="classDynExpModule_1_1Stage1DData.html" target="_top" xlink:title=" ">
<polygon fill="white" stroke="#666666" points="967,-549 806,-549 806,-530 967,-530 967,-549"/>
<text text-anchor="middle" x="886.5" y="-537" font-family="Helvetica,sans-Serif" font-size="10.00">DynExpModule::Stage1DData</text>
</a>
</g>
</g>
<!-- Node42&#45;&gt;Node51 -->
<g id="edge30_Node000042_Node000051" class="edge">
<title>Node42&#45;&gt;Node51</title>
<g id="a_edge30_Node000042_Node000051"><a xlink:title=" ">
<path fill="none" stroke="#63b8ff" d="M713.84,-678.85C722.28,-675.67 730.22,-671.34 737,-665.5 775.03,-632.77 734.84,-591.08 773,-558.5 782.41,-550.46 793.94,-545.21 805.98,-541.88"/>
<polygon fill="#63b8ff" stroke="#63b8ff" points="712.58,-675.58 704.13,-681.97 714.73,-682.24 712.58,-675.58"/>
</a>
</g>
</g>
<!-- Node52 -->
<g id="Node000052" class="node">
<title>Node52</title>
<g id="a_Node000052"><a xlink:href="classDynExpModule_1_1Trajectory1DData.html" target="_top" xlink:title=" ">
<polygon fill="white" stroke="#666666" points="961.5,-511.5 811.5,-511.5 811.5,-481.5 961.5,-481.5 961.5,-511.5"/>
<text text-anchor="start" x="819.5" y="-499.5" font-family="Helvetica,sans-Serif" font-size="10.00">DynExpModule::Trajectory1</text>
<text text-anchor="middle" x="886.5" y="-488.5" font-family="Helvetica,sans-Serif" font-size="10.00">DData</text>
</a>
</g>
</g>
<!-- Node42&#45;&gt;Node52 -->
<g id="edge31_Node000042_Node000052" class="edge">
<title>Node42&#45;&gt;Node52</title>
<g id="a_edge31_Node000042_Node000052"><a xlink:title=" ">
<path fill="none" stroke="#63b8ff" d="M713.66,-679.65C722.26,-676.35 730.29,-671.77 737,-665.5 785.53,-620.18 725.28,-566.67 773,-520.5 783.48,-510.36 797.13,-504.06 811.29,-500.22"/>
<polygon fill="#63b8ff" stroke="#63b8ff" points="712.57,-676.32 704.14,-682.75 714.73,-682.98 712.57,-676.32"/>
</a>
</g>
</g>
<!-- Node53 -->
<g id="Node000053" class="node">
<title>Node53</title>
<g id="a_Node000053"><a xlink:href="classDynExpModule_1_1Widefield_1_1WidefieldMicroscopeData.html" target="_top" xlink:title=" ">
<polygon fill="white" stroke="#666666" points="960,-463.5 813,-463.5 813,-433.5 960,-433.5 960,-463.5"/>
<text text-anchor="start" x="821" y="-451.5" font-family="Helvetica,sans-Serif" font-size="10.00">DynExpModule::Widefield</text>
<text text-anchor="middle" x="886.5" y="-440.5" font-family="Helvetica,sans-Serif" font-size="10.00">::WidefieldMicroscopeData</text>
</a>
</g>
</g>
<!-- Node42&#45;&gt;Node53 -->
<g id="edge32_Node000042_Node000053" class="edge">
<title>Node42&#45;&gt;Node53</title>
<g id="a_edge32_Node000042_Node000053"><a xlink:title=" ">
<path fill="none" stroke="#63b8ff" d="M713.64,-680.18C722.33,-676.8 730.37,-672.06 737,-665.5 798.99,-604.09 712.1,-534.99 773,-472.5 783.66,-461.56 798,-455.01 812.86,-451.21"/>
<polygon fill="#63b8ff" stroke="#63b8ff" points="712.43,-676.9 704.01,-683.34 714.61,-683.55 712.43,-676.9"/>
</a>
</g>
</g>
<!-- Node58 -->
<g id="Node000058" class="node">
<title>Node58</title>
<g id="a_Node000058"><a xlink:href="classDynExp_1_1HardwareAdapterParamsBase.html" target="_top" xlink:title="Parameter class for HardwareAdapterBase.">
<polygon fill="white" stroke="#666666" points="731.5,-230 525.5,-230 525.5,-211 731.5,-211 731.5,-230"/>
<text text-anchor="middle" x="628.5" y="-218" font-family="Helvetica,sans-Serif" font-size="10.00">DynExp::HardwareAdapterParamsBase</text>
</a>
</g>
</g>
<!-- Node57&#45;&gt;Node58 -->
<g id="edge37_Node000057_Node000058" class="edge">
<title>Node57&#45;&gt;Node58</title>
<g id="a_edge37_Node000057_Node000058"><a xlink:title=" ">
<path fill="none" stroke="#63b8ff" d="M473.67,-208.08C490.05,-209.41 507.85,-210.84 525.35,-212.25"/>
<polygon fill="#63b8ff" stroke="#63b8ff" points="473.92,-204.59 463.67,-207.28 473.36,-211.57 473.92,-204.59"/>
</a>
</g>
</g>
<!-- Node71 -->
<g id="Node000071" class="node">
<title>Node71</title>
<g id="a_Node000071"><a xlink:href="classDynExp_1_1ProjectParams.html" target="_top" xlink:title="Defines a parameter class with parameters common to all DynExp projects.">
<polygon fill="white" stroke="#666666" points="693.5,-193 563.5,-193 563.5,-174 693.5,-174 693.5,-193"/>
<text text-anchor="middle" x="628.5" y="-181" font-family="Helvetica,sans-Serif" font-size="10.00">DynExp::ProjectParams</text>
</a>
</g>
</g>
<!-- Node57&#45;&gt;Node71 -->
<g id="edge46_Node000057_Node000071" class="edge">
<title>Node57&#45;&gt;Node71</title>
<g id="a_edge46_Node000057_Node000071"><a xlink:title=" ">
<path fill="none" stroke="#63b8ff" d="M473.98,-196.58C502.53,-194.15 535.38,-191.35 563.35,-188.97"/>
<polygon fill="#63b8ff" stroke="#63b8ff" points="473.34,-193.12 463.67,-197.46 473.94,-200.1 473.34,-193.12"/>
</a>
</g>
</g>
<!-- Node72 -->
<g id="Node000072" class="node">
<title>Node72</title>
<g id="a_Node000072"><a xlink:href="classDynExp_1_1RunnableObjectParams.html" target="_top" xlink:title="Parameter class for RunnableObject.">
<polygon fill="#fff0f0" stroke="red" points="715,-76 542,-76 542,-57 715,-57 715,-76"/>
<text text-anchor="middle" x="628.5" y="-64" font-family="Helvetica,sans-Serif" font-size="10.00">DynExp::RunnableObjectParams</text>
</a>
</g>
</g>
<!-- Node57&#45;&gt;Node72 -->
<g id="edge47_Node000057_Node000072" class="edge">
<title>Node57&#45;&gt;Node72</title>
<g id="a_edge47_Node000057_Node000072"><a xlink:title=" ">
<path fill="none" stroke="#63b8ff" d="M428.92,-187.61C474.99,-159.51 573.55,-99.4 611.84,-76.05"/>
<polygon fill="#63b8ff" stroke="#63b8ff" points="426.9,-184.74 420.18,-192.94 430.54,-190.72 426.9,-184.74"/>
</a>
</g>
</g>
<!-- Node59 -->
<g id="Node000059" class="node">
<title>Node59</title>
<g id="a_Node000059"><a xlink:href="classDynExpHardware_1_1gRPCHardwareAdapterParams.html" target="_top" xlink:title=" ">
<polygon fill="#fff0f0" stroke="red" points="976.5,-415 796.5,-415 796.5,-374 976.5,-374 976.5,-415"/>
<text text-anchor="start" x="804.5" y="-403" font-family="Helvetica,sans-Serif" font-size="10.00">DynExpHardware::gRPCHardware</text>
<text text-anchor="start" x="804.5" y="-392" font-family="Helvetica,sans-Serif" font-size="10.00">AdapterParams&lt; pulse_streamer</text>
<text text-anchor="middle" x="886.5" y="-381" font-family="Helvetica,sans-Serif" font-size="10.00">::PulseStreamer &gt;</text>
</a>
</g>
</g>
<!-- Node58&#45;&gt;Node59 -->
<g id="edge38_Node000058_Node000059" class="edge">
<title>Node58&#45;&gt;Node59</title>
<g id="a_edge38_Node000058_Node000059"><a xlink:title=" ">
<path fill="none" stroke="#63b8ff" d="M642.48,-238.76C665.31,-269.47 715.67,-331.38 773,-364.5 780.26,-368.7 788.13,-372.32 796.21,-375.45"/>
<polygon fill="#63b8ff" stroke="#63b8ff" points="645.03,-236.31 636.31,-230.29 639.37,-240.43 645.03,-236.31"/>
</a>
</g>
</g>
<!-- Node61 -->
<g id="Node000061" class="node">
<title>Node61</title>
<g id="a_Node000061"><a xlink:href="classDynExp_1_1SerialCommunicationHardwareAdapterParams.html" target="_top" xlink:title="Parameter class for SerialCommunicationHardwareAdapter.">
<polygon fill="#fff0f0" stroke="red" points="969,-355.5 804,-355.5 804,-325.5 969,-325.5 969,-355.5"/>
<text text-anchor="start" x="812" y="-343.5" font-family="Helvetica,sans-Serif" font-size="10.00">DynExp::SerialCommunication</text>
<text text-anchor="middle" x="886.5" y="-332.5" font-family="Helvetica,sans-Serif" font-size="10.00">HardwareAdapterParams</text>
</a>
</g>
</g>
<!-- Node58&#45;&gt;Node61 -->
<g id="edge39_Node000058_Node000061" class="edge">
<title>Node58&#45;&gt;Node61</title>
<g id="a_edge39_Node000058_Node000061"><a xlink:title=" ">
<path fill="none" stroke="#63b8ff" d="M648.5,-236.71C674.75,-258.25 724.38,-295.95 773,-316.5 782.75,-320.62 793.28,-324.06 803.86,-326.93"/>
<polygon fill="#63b8ff" stroke="#63b8ff" points="650.46,-233.79 640.54,-230.08 645.98,-239.17 650.46,-233.79"/>
</a>
</g>
</g>
<!-- Node65 -->
<g id="Node000065" class="node">
<title>Node65</title>
<g id="a_Node000065"><a xlink:href="classDynExpHardware_1_1NIDAQHardwareAdapterParams.html" target="_top" xlink:title=" ">
<polygon fill="white" stroke="#666666" points="980,-307.5 793,-307.5 793,-277.5 980,-277.5 980,-307.5"/>
<text text-anchor="start" x="801" y="-295.5" font-family="Helvetica,sans-Serif" font-size="10.00">DynExpHardware::NIDAQHardware</text>
<text text-anchor="middle" x="886.5" y="-284.5" font-family="Helvetica,sans-Serif" font-size="10.00">AdapterParams</text>
</a>
</g>
</g>
<!-- Node58&#45;&gt;Node65 -->
<g id="edge40_Node000058_Node000065" class="edge">
<title>Node58&#45;&gt;Node65</title>
<g id="a_edge40_Node000058_Node000065"><a xlink:title=" ">
<path fill="none" stroke="#63b8ff" d="M664.78,-233.54C693.62,-243.9 735.59,-258.29 773,-268.5 784.66,-271.68 797.09,-274.7 809.27,-277.45"/>
<polygon fill="#63b8ff" stroke="#63b8ff" points="665.75,-230.17 655.15,-230.06 663.37,-236.75 665.75,-230.17"/>
</a>
</g>
</g>
<!-- Node66 -->
<g id="Node000066" class="node">
<title>Node66</title>
<g id="a_Node000066"><a xlink:href="classDynExpHardware_1_1PVCamHardwareAdapterParams.html" target="_top" xlink:title=" ">
<polygon fill="white" stroke="#666666" points="981.5,-259.5 791.5,-259.5 791.5,-229.5 981.5,-229.5 981.5,-259.5"/>
<text text-anchor="start" x="799.5" y="-247.5" font-family="Helvetica,sans-Serif" font-size="10.00">DynExpHardware::PVCamHardware</text>
<text text-anchor="middle" x="886.5" y="-236.5" font-family="Helvetica,sans-Serif" font-size="10.00">AdapterParams</text>
</a>
</g>
</g>
<!-- Node58&#45;&gt;Node66 -->
<g id="edge41_Node000058_Node000066" class="edge">
<title>Node58&#45;&gt;Node66</title>
<g id="a_edge41_Node000058_Node000066"><a xlink:title=" ">
<path fill="none" stroke="#63b8ff" d="M741.33,-230.98C757.95,-232.54 774.94,-234.14 791.15,-235.66"/>
<polygon fill="#63b8ff" stroke="#63b8ff" points="741.33,-227.47 731.05,-230.02 740.68,-234.44 741.33,-227.47"/>
</a>
</g>
</g>
<!-- Node67 -->
<g id="Node000067" class="node">
<title>Node67</title>
<g id="a_Node000067"><a xlink:href="classDynExpHardware_1_1QutoolsTDCHardwareAdapterParams.html" target="_top" xlink:title=" ">
<polygon fill="white" stroke="#666666" points="992.5,-211.5 780.5,-211.5 780.5,-181.5 992.5,-181.5 992.5,-211.5"/>
<text text-anchor="start" x="788.5" y="-199.5" font-family="Helvetica,sans-Serif" font-size="10.00">DynExpHardware::QutoolsTDCHardware</text>
<text text-anchor="middle" x="886.5" y="-188.5" font-family="Helvetica,sans-Serif" font-size="10.00">AdapterParams</text>
</a>
</g>
</g>
<!-- Node58&#45;&gt;Node67 -->
<g id="edge42_Node000058_Node000067" class="edge">
<title>Node58&#45;&gt;Node67</title>
<g id="a_edge42_Node000058_Node000067"><a xlink:title=" ">
<path fill="none" stroke="#63b8ff" d="M741.36,-210.01C754.3,-208.8 767.46,-207.57 780.3,-206.36"/>
<polygon fill="#63b8ff" stroke="#63b8ff" points="740.68,-206.56 731.05,-210.98 741.33,-213.53 740.68,-206.56"/>
</a>
</g>
</g>
<!-- Node68 -->
<g id="Node000068" class="node">
<title>Node68</title>
<g id="a_Node000068"><a xlink:href="classDynExpHardware_1_1SmarActHardwareAdapterParams.html" target="_top" xlink:title=" ">
<polygon fill="white" stroke="#666666" points="984.5,-163.5 788.5,-163.5 788.5,-133.5 984.5,-133.5 984.5,-163.5"/>
<text text-anchor="start" x="796.5" y="-151.5" font-family="Helvetica,sans-Serif" font-size="10.00">DynExpHardware::SmarActHardware</text>
<text text-anchor="middle" x="886.5" y="-140.5" font-family="Helvetica,sans-Serif" font-size="10.00">AdapterParams</text>
</a>
</g>
</g>
<!-- Node58&#45;&gt;Node68 -->
<g id="edge43_Node000058_Node000068" class="edge">
<title>Node58&#45;&gt;Node68</title>
<g id="a_edge43_Node000058_Node000068"><a xlink:title=" ">
<path fill="none" stroke="#63b8ff" d="M719.86,-208.03C725.76,-206.15 731.53,-203.99 737,-201.5 755.7,-193 754.45,-181.33 773,-172.5 780.21,-169.07 787.92,-166.12 795.79,-163.59"/>
<polygon fill="#63b8ff" stroke="#63b8ff" points="718.46,-204.79 709.82,-210.93 720.4,-211.51 718.46,-204.79"/>
</a>
</g>
</g>
<!-- Node69 -->
<g id="Node000069" class="node">
<title>Node69</title>
<g id="a_Node000069"><a xlink:href="classDynExpHardware_1_1ZILabOneHardwareAdapterParams.html" target="_top" xlink:title=" ">
<polygon fill="white" stroke="#666666" points="963.5,-115.5 809.5,-115.5 809.5,-85.5 963.5,-85.5 963.5,-115.5"/>
<text text-anchor="start" x="817.5" y="-103.5" font-family="Helvetica,sans-Serif" font-size="10.00">DynExpHardware::ZILabOne</text>
<text text-anchor="middle" x="886.5" y="-92.5" font-family="Helvetica,sans-Serif" font-size="10.00">HardwareAdapterParams</text>
</a>
</g>
</g>
<!-- Node58&#45;&gt;Node69 -->
<g id="edge44_Node000058_Node000069" class="edge">
<title>Node58&#45;&gt;Node69</title>
<g id="a_edge44_Node000058_Node000069"><a xlink:title=" ">
<path fill="none" stroke="#63b8ff" d="M730.32,-206.06C732.63,-204.66 734.86,-203.14 737,-201.5 766.98,-178.51 743.43,-148.01 773,-124.5 783.47,-116.17 796.17,-110.56 809.21,-106.81"/>
<polygon fill="#63b8ff" stroke="#63b8ff" points="728.3,-203.17 721.07,-210.91 731.55,-209.37 728.3,-203.17"/>
</a>
</g>
</g>
<!-- Node70 -->
<g id="Node000070" class="node">
<title>Node70</title>
<g id="a_Node000070"><a xlink:href="classDynExpHardware_1_1gRPCHardwareAdapterParams.html" target="_top" xlink:title="Parameter class for gRPCHardwareAdapter.">
<polygon fill="white" stroke="#666666" points="976.5,-67.5 796.5,-67.5 796.5,-37.5 976.5,-37.5 976.5,-67.5"/>
<text text-anchor="start" x="804.5" y="-55.5" font-family="Helvetica,sans-Serif" font-size="10.00">DynExpHardware::gRPCHardware</text>
<text text-anchor="middle" x="886.5" y="-44.5" font-family="Helvetica,sans-Serif" font-size="10.00">AdapterParams&lt; gRPCStub &gt;</text>
</a>
</g>
</g>
<!-- Node58&#45;&gt;Node70 -->
<g id="edge45_Node000058_Node000070" class="edge">
<title>Node58&#45;&gt;Node70</title>
<g id="a_edge45_Node000058_Node000070"><a xlink:title=" ">
<path fill="none" stroke="#63b8ff" d="M732.13,-205.45C733.82,-204.22 735.44,-202.9 737,-201.5 779.98,-162.83 730.71,-115.92 773,-76.5 779.79,-70.17 787.83,-65.34 796.43,-61.69"/>
<polygon fill="#63b8ff" stroke="#63b8ff" points="729.91,-202.72 723.29,-210.98 733.62,-208.65 729.91,-202.72"/>
</a>
</g>
</g>
<!-- Node73 -->
<g id="Node000073" class="node">
<title>Node73</title>
<g id="a_Node000073"><a xlink:href="classDynExp_1_1InstrumentParamsBase.html" target="_top" xlink:title="Parameter class for InstrumentBase.">
<polygon fill="#fff0f0" stroke="red" points="973,-19 800,-19 800,0 973,0 973,-19"/>
<text text-anchor="middle" x="886.5" y="-7" font-family="Helvetica,sans-Serif" font-size="10.00">DynExp::InstrumentParamsBase</text>
</a>
</g>
</g>
<!-- Node72&#45;&gt;Node73 -->
<g id="edge48_Node000072_Node000073" class="edge">
<title>Node72&#45;&gt;Node73</title>
<g id="a_edge48_Node000072_Node000073"><a xlink:title=" ">
<path fill="none" stroke="#63b8ff" d="M671.69,-54.24C700.15,-46.24 738.64,-35.93 773,-28.5 789.07,-25.02 806.54,-21.8 822.82,-19.04"/>
<polygon fill="#63b8ff" stroke="#63b8ff" points="670.73,-50.87 662.06,-56.96 672.64,-57.61 670.73,-50.87"/>
</a>
</g>
</g>
</g>
</svg>
