<?xml version="1.0" encoding="UTF-8" standalone="no"?>
<!DOCTYPE svg PUBLIC "-//W3C//DTD SVG 1.1//EN"
 "http://www.w3.org/Graphics/SVG/1.1/DTD/svg11.dtd">
<!-- Generated by graphviz version 2.43.0 (0)
 -->
<!-- Title: DynExp::SerialCommunicationException Pages: 1 -->
<svg width="330pt" height="258pt"
 viewBox="0.00 0.00 330.00 258.00" xmlns="http://www.w3.org/2000/svg" xmlns:xlink="http://www.w3.org/1999/xlink">
<g id="graph0" class="graph" transform="scale(1 1) rotate(0) translate(4 254)">
<title>DynExp::SerialCommunicationException</title>
<!-- Node1 -->
<g id="Node000001" class="node">
<title>Node1</title>
<g id="a_Node000001"><a xlink:title="Defines an exception caused by a serial communication operation of a hardware adapter.">
<polygon fill="#999999" stroke="#666666" points="242,-85 77,-85 77,-55 242,-55 242,-85"/>
<text text-anchor="start" x="85" y="-73" font-family="Helvetica,sans-Serif" font-size="10.00">DynExp::SerialCommunication</text>
<text text-anchor="middle" x="159.5" y="-62" font-family="Helvetica,sans-Serif" font-size="10.00">Exception</text>
</a>
</g>
</g>
<!-- Node5 -->
<g id="Node000005" class="node">
<title>Node5</title>
<g id="a_Node000005"><a xlink:href="classDynExp_1_1NetworkException.html" target="_top" xlink:title="Defines an exception caused by a hardware operation on an ethernet interface (e.g....">
<polygon fill="white" stroke="#666666" points="149,-19 0,-19 0,0 149,0 149,-19"/>
<text text-anchor="middle" x="74.5" y="-7" font-family="Helvetica,sans-Serif" font-size="10.00">DynExp::NetworkException</text>
</a>
</g>
</g>
<!-- Node1&#45;&gt;Node5 -->
<g id="edge4_Node000001_Node000005" class="edge">
<title>Node1&#45;&gt;Node5</title>
<g id="a_edge4_Node000001_Node000005"><a xlink:title=" ">
<path fill="none" stroke="#63b8ff" d="M130.59,-49.1C115.84,-38.95 98.66,-27.13 87.24,-19.27"/>
<polygon fill="#63b8ff" stroke="#63b8ff" points="128.7,-52.05 138.92,-54.84 132.67,-46.29 128.7,-52.05"/>
</a>
</g>
</g>
<!-- Node6 -->
<g id="Node000006" class="node">
<title>Node6</title>
<g id="a_Node000006"><a xlink:href="classDynExp_1_1SerialPortException.html" target="_top" xlink:title="Defines an exception caused by a hardware operation on a COM port (e.g. reading/writing data to a COM...">
<polygon fill="white" stroke="#666666" points="322,-19 167,-19 167,0 322,0 322,-19"/>
<text text-anchor="middle" x="244.5" y="-7" font-family="Helvetica,sans-Serif" font-size="10.00">DynExp::SerialPortException</text>
</a>
</g>
</g>
<!-- Node1&#45;&gt;Node6 -->
<g id="edge5_Node000001_Node000006" class="edge">
<title>Node1&#45;&gt;Node6</title>
<g id="a_edge5_Node000001_Node000006"><a xlink:title=" ">
<path fill="none" stroke="#63b8ff" d="M188.41,-49.1C203.16,-38.95 220.34,-27.13 231.76,-19.27"/>
<polygon fill="#63b8ff" stroke="#63b8ff" points="186.33,-46.29 180.08,-54.84 190.3,-52.05 186.33,-46.29"/>
</a>
</g>
</g>
<!-- Node2 -->
<g id="Node000002" class="node">
<title>Node2</title>
<g id="a_Node000002"><a xlink:href="classUtil_1_1Exception.html" target="_top" xlink:title="DynExp exceptions are derived from this class. It contains basic information about the cause of the e...">
<polygon fill="white" stroke="#666666" points="203.5,-140 115.5,-140 115.5,-121 203.5,-121 203.5,-140"/>
<text text-anchor="middle" x="159.5" y="-128" font-family="Helvetica,sans-Serif" font-size="10.00">Util::Exception</text>
</a>
</g>
</g>
<!-- Node2&#45;&gt;Node1 -->
<g id="edge1_Node000001_Node000002" class="edge">
<title>Node2&#45;&gt;Node1</title>
<g id="a_edge1_Node000001_Node000002"><a xlink:title=" ">
<path fill="none" stroke="#63b8ff" d="M159.5,-110.65C159.5,-102.36 159.5,-92.78 159.5,-85.11"/>
<polygon fill="#63b8ff" stroke="#63b8ff" points="156,-110.87 159.5,-120.87 163,-110.87 156,-110.87"/>
</a>
</g>
</g>
<!-- Node3 -->
<g id="Node000003" class="node">
<title>Node3</title>
<g id="a_Node000003"><a xlink:title=" ">
<polygon fill="white" stroke="#666666" points="211.5,-195 107.5,-195 107.5,-176 211.5,-176 211.5,-195"/>
<text text-anchor="middle" x="159.5" y="-183" font-family="Helvetica,sans-Serif" font-size="10.00">std::runtime_error</text>
</a>
</g>
</g>
<!-- Node3&#45;&gt;Node2 -->
<g id="edge2_Node000002_Node000003" class="edge">
<title>Node3&#45;&gt;Node2</title>
<g id="a_edge2_Node000002_Node000003"><a xlink:title=" ">
<path fill="none" stroke="#63b8ff" d="M159.5,-165.66C159.5,-156.93 159.5,-146.99 159.5,-140.09"/>
<polygon fill="#63b8ff" stroke="#63b8ff" points="156,-165.75 159.5,-175.75 163,-165.75 156,-165.75"/>
</a>
</g>
</g>
<!-- Node4 -->
<g id="Node000004" class="node">
<title>Node4</title>
<g id="a_Node000004"><a xlink:title=" ">
<polygon fill="white" stroke="#666666" points="202.5,-250 116.5,-250 116.5,-231 202.5,-231 202.5,-250"/>
<text text-anchor="middle" x="159.5" y="-238" font-family="Helvetica,sans-Serif" font-size="10.00">std::exception</text>
</a>
</g>
</g>
<!-- Node4&#45;&gt;Node3 -->
<g id="edge3_Node000003_Node000004" class="edge">
<title>Node4&#45;&gt;Node3</title>
<g id="a_edge3_Node000003_Node000004"><a xlink:title=" ">
<path fill="none" stroke="#63b8ff" d="M159.5,-220.66C159.5,-211.93 159.5,-201.99 159.5,-195.09"/>
<polygon fill="#63b8ff" stroke="#63b8ff" points="156,-220.75 159.5,-230.75 163,-220.75 156,-220.75"/>
</a>
</g>
</g>
</g>
</svg>
