<?xml version="1.0" encoding="UTF-8" standalone="no"?>
<!DOCTYPE svg PUBLIC "-//W3C//DTD SVG 1.1//EN"
 "http://www.w3.org/Graphics/SVG/1.1/DTD/svg11.dtd">
<!-- Generated by graphviz version 2.43.0 (0)
 -->
<!-- Title: DynExpInstr::QutoolsQuTAGConfigurator Pages: 1 -->
<svg width="220pt" height="313pt"
 viewBox="0.00 0.00 220.00 313.00" xmlns="http://www.w3.org/2000/svg" xmlns:xlink="http://www.w3.org/1999/xlink">
<g id="graph0" class="graph" transform="scale(1 1) rotate(0) translate(4 309)">
<title>DynExpInstr::QutoolsQuTAGConfigurator</title>
<!-- Node1 -->
<g id="Node000001" class="node">
<title>Node1</title>
<g id="a_Node000001"><a xlink:title=" ">
<polygon fill="#999999" stroke="#666666" points="212,-19 0,-19 0,0 212,0 212,-19"/>
<text text-anchor="middle" x="106" y="-7" font-family="Helvetica,sans-Serif" font-size="10.00">DynExpInstr::QutoolsQuTAGConfigurator</text>
</a>
</g>
</g>
<!-- Node2 -->
<g id="Node000002" class="node">
<title>Node2</title>
<g id="a_Node000002"><a xlink:href="classDynExpInstr_1_1TimeTaggerConfigurator.html" target="_top" xlink:title="Configurator class for TimeTagger.">
<polygon fill="white" stroke="#666666" points="205.5,-74 6.5,-74 6.5,-55 205.5,-55 205.5,-74"/>
<text text-anchor="middle" x="106" y="-62" font-family="Helvetica,sans-Serif" font-size="10.00">DynExpInstr::TimeTaggerConfigurator</text>
</a>
</g>
</g>
<!-- Node2&#45;&gt;Node1 -->
<g id="edge1_Node000001_Node000002" class="edge">
<title>Node2&#45;&gt;Node1</title>
<g id="a_edge1_Node000001_Node000002"><a xlink:title=" ">
<path fill="none" stroke="#63b8ff" d="M106,-44.66C106,-35.93 106,-25.99 106,-19.09"/>
<polygon fill="#63b8ff" stroke="#63b8ff" points="102.5,-44.75 106,-54.75 109.5,-44.75 102.5,-44.75"/>
</a>
</g>
</g>
<!-- Node3 -->
<g id="Node000003" class="node">
<title>Node3</title>
<g id="a_Node000003"><a xlink:href="classDynExpInstr_1_1DataStreamInstrumentConfigurator.html" target="_top" xlink:title="Configurator class for DataStreamInstrument.">
<polygon fill="white" stroke="#666666" points="203,-140 9,-140 9,-110 203,-110 203,-140"/>
<text text-anchor="start" x="17" y="-128" font-family="Helvetica,sans-Serif" font-size="10.00">DynExpInstr::DataStreamInstrument</text>
<text text-anchor="middle" x="106" y="-117" font-family="Helvetica,sans-Serif" font-size="10.00">Configurator</text>
</a>
</g>
</g>
<!-- Node3&#45;&gt;Node2 -->
<g id="edge2_Node000002_Node000003" class="edge">
<title>Node3&#45;&gt;Node2</title>
<g id="a_edge2_Node000002_Node000003"><a xlink:title=" ">
<path fill="none" stroke="#63b8ff" d="M106,-99.75C106,-90.72 106,-81.03 106,-74.27"/>
<polygon fill="#63b8ff" stroke="#63b8ff" points="102.5,-99.84 106,-109.84 109.5,-99.84 102.5,-99.84"/>
</a>
</g>
</g>
<!-- Node4 -->
<g id="Node000004" class="node">
<title>Node4</title>
<g id="a_Node000004"><a xlink:href="classDynExp_1_1InstrumentConfiguratorBase.html" target="_top" xlink:title="Configurator class for InstrumentBase.">
<polygon fill="white" stroke="#666666" points="204.5,-195 7.5,-195 7.5,-176 204.5,-176 204.5,-195"/>
<text text-anchor="middle" x="106" y="-183" font-family="Helvetica,sans-Serif" font-size="10.00">DynExp::InstrumentConfiguratorBase</text>
</a>
</g>
</g>
<!-- Node4&#45;&gt;Node3 -->
<g id="edge3_Node000003_Node000004" class="edge">
<title>Node4&#45;&gt;Node3</title>
<g id="a_edge3_Node000003_Node000004"><a xlink:title=" ">
<path fill="none" stroke="#63b8ff" d="M106,-165.65C106,-157.36 106,-147.78 106,-140.11"/>
<polygon fill="#63b8ff" stroke="#63b8ff" points="102.5,-165.87 106,-175.87 109.5,-165.87 102.5,-165.87"/>
</a>
</g>
</g>
<!-- Node5 -->
<g id="Node000005" class="node">
<title>Node5</title>
<g id="a_Node000005"><a xlink:href="classDynExp_1_1RunnableObjectConfigurator.html" target="_top" xlink:title="Configurator class for RunnableObject.">
<polygon fill="white" stroke="#666666" points="204.5,-250 7.5,-250 7.5,-231 204.5,-231 204.5,-250"/>
<text text-anchor="middle" x="106" y="-238" font-family="Helvetica,sans-Serif" font-size="10.00">DynExp::RunnableObjectConfigurator</text>
</a>
</g>
</g>
<!-- Node5&#45;&gt;Node4 -->
<g id="edge4_Node000004_Node000005" class="edge">
<title>Node5&#45;&gt;Node4</title>
<g id="a_edge4_Node000004_Node000005"><a xlink:title=" ">
<path fill="none" stroke="#63b8ff" d="M106,-220.66C106,-211.93 106,-201.99 106,-195.09"/>
<polygon fill="#63b8ff" stroke="#63b8ff" points="102.5,-220.75 106,-230.75 109.5,-220.75 102.5,-220.75"/>
</a>
</g>
</g>
<!-- Node6 -->
<g id="Node000006" class="node">
<title>Node6</title>
<g id="a_Node000006"><a xlink:href="classDynExp_1_1ConfiguratorBase.html" target="_top" xlink:title="The configurator classes have the task to generate parameter objects (refer to DynExp::ParamsBase) of...">
<polygon fill="white" stroke="#666666" points="178,-305 34,-305 34,-286 178,-286 178,-305"/>
<text text-anchor="middle" x="106" y="-293" font-family="Helvetica,sans-Serif" font-size="10.00">DynExp::ConfiguratorBase</text>
</a>
</g>
</g>
<!-- Node6&#45;&gt;Node5 -->
<g id="edge5_Node000005_Node000006" class="edge">
<title>Node6&#45;&gt;Node5</title>
<g id="a_edge5_Node000005_Node000006"><a xlink:title=" ">
<path fill="none" stroke="#63b8ff" d="M106,-275.66C106,-266.93 106,-256.99 106,-250.09"/>
<polygon fill="#63b8ff" stroke="#63b8ff" points="102.5,-275.75 106,-285.75 109.5,-275.75 102.5,-275.75"/>
</a>
</g>
</g>
</g>
</svg>
