<?xml version="1.0" encoding="UTF-8" standalone="no"?>
<!DOCTYPE svg PUBLIC "-//W3C//DTD SVG 1.1//EN"
 "http://www.w3.org/Graphics/SVG/1.1/DTD/svg11.dtd">
<!-- Generated by graphviz version 2.43.0 (0)
 -->
<!-- Title: DynExp::ExitTaskBase Pages: 1 -->
<svg width="1311pt" height="542pt"
 viewBox="0.00 0.00 1311.00 542.00" xmlns="http://www.w3.org/2000/svg" xmlns:xlink="http://www.w3.org/1999/xlink">
<g id="graph0" class="graph" transform="scale(1 1) rotate(0) translate(4 538)">
<title>DynExp::ExitTaskBase</title>
<!-- Node1 -->
<g id="Node000001" class="node">
<title>Node1</title>
<g id="a_Node000001"><a xlink:title="Defines a task for deinitializing an instrument within an instrument inheritance hierarchy....">
<polygon fill="#999999" stroke="#666666" points="267,-168.5 142,-168.5 142,-149.5 267,-149.5 267,-168.5"/>
<text text-anchor="middle" x="204.5" y="-156.5" font-family="Helvetica,sans-Serif" font-size="10.00">DynExp::ExitTaskBase</text>
</a>
</g>
</g>
<!-- Node3 -->
<g id="Node000003" class="node">
<title>Node3</title>
<g id="a_Node000003"><a xlink:href="classDynExpInstr_1_1CameraTasks_1_1ExitTask.html" target="_top" xlink:title="Defines a task for deinitializing an instrument within an instrument inheritance hierarchy....">
<polygon fill="white" stroke="#666666" points="473.5,-438 326.5,-438 326.5,-408 473.5,-408 473.5,-438"/>
<text text-anchor="start" x="334.5" y="-426" font-family="Helvetica,sans-Serif" font-size="10.00">DynExpInstr::CameraTasks</text>
<text text-anchor="middle" x="400" y="-415" font-family="Helvetica,sans-Serif" font-size="10.00">::ExitTask</text>
</a>
</g>
</g>
<!-- Node1&#45;&gt;Node3 -->
<g id="edge2_Node000001_Node000003" class="edge">
<title>Node1&#45;&gt;Node3</title>
<g id="a_edge2_Node000001_Node000003"><a xlink:title=" ">
<path fill="none" stroke="#63b8ff" d="M218.55,-176.81C254.51,-225.86 354.52,-362.31 387.95,-407.93"/>
<polygon fill="#63b8ff" stroke="#63b8ff" points="221.35,-174.71 212.62,-168.71 215.71,-178.84 221.35,-174.71"/>
</a>
</g>
</g>
<!-- Node6 -->
<g id="Node000006" class="node">
<title>Node6</title>
<g id="a_Node000006"><a xlink:href="classDynExpInstr_1_1DataStreamInstrumentTasks_1_1ExitTask.html" target="_top" xlink:title="Defines a task for deinitializing an instrument within an instrument inheritance hierarchy....">
<polygon fill="white" stroke="#666666" points="497,-222 303,-222 303,-192 497,-192 497,-222"/>
<text text-anchor="start" x="311" y="-210" font-family="Helvetica,sans-Serif" font-size="10.00">DynExpInstr::DataStreamInstrument</text>
<text text-anchor="middle" x="400" y="-199" font-family="Helvetica,sans-Serif" font-size="10.00">Tasks::ExitTask</text>
</a>
</g>
</g>
<!-- Node1&#45;&gt;Node6 -->
<g id="edge5_Node000001_Node000006" class="edge">
<title>Node1&#45;&gt;Node6</title>
<g id="a_edge5_Node000001_Node000006"><a xlink:title=" ">
<path fill="none" stroke="#63b8ff" d="M254.02,-171.04C279.56,-177.37 311.13,-185.2 338.28,-191.94"/>
<polygon fill="#63b8ff" stroke="#63b8ff" points="254.74,-167.61 244.19,-168.6 253.06,-174.4 254.74,-167.61"/>
</a>
</g>
</g>
<!-- Node26 -->
<g id="Node000026" class="node">
<title>Node26</title>
<g id="a_Node000026"><a xlink:href="classDynExpInstr_1_1InterModuleCommunicatorTasks_1_1ExitTask.html" target="_top" xlink:title="Defines a task for deinitializing an instrument within an instrument inheritance hierarchy....">
<polygon fill="white" stroke="#666666" points="481,-174 319,-174 319,-144 481,-144 481,-174"/>
<text text-anchor="start" x="327" y="-162" font-family="Helvetica,sans-Serif" font-size="10.00">DynExpInstr::InterModule</text>
<text text-anchor="middle" x="400" y="-151" font-family="Helvetica,sans-Serif" font-size="10.00">CommunicatorTasks::ExitTask</text>
</a>
</g>
</g>
<!-- Node1&#45;&gt;Node26 -->
<g id="edge25_Node000001_Node000026" class="edge">
<title>Node1&#45;&gt;Node26</title>
<g id="a_edge25_Node000001_Node000026"><a xlink:title=" ">
<path fill="none" stroke="#63b8ff" d="M277.4,-159C290.87,-159 305.03,-159 318.74,-159"/>
<polygon fill="#63b8ff" stroke="#63b8ff" points="277.26,-155.5 267.26,-159 277.26,-162.5 277.26,-155.5"/>
</a>
</g>
</g>
<!-- Node27 -->
<g id="Node000027" class="node">
<title>Node27</title>
<g id="a_Node000027"><a xlink:href="classDynExpInstr_1_1PositionerStageTasks_1_1ExitTask.html" target="_top" xlink:title="Defines a task for deinitializing an instrument within an instrument inheritance hierarchy....">
<polygon fill="white" stroke="#666666" points="479,-126 321,-126 321,-96 479,-96 479,-126"/>
<text text-anchor="start" x="329" y="-114" font-family="Helvetica,sans-Serif" font-size="10.00">DynExpInstr::PositionerStage</text>
<text text-anchor="middle" x="400" y="-103" font-family="Helvetica,sans-Serif" font-size="10.00">Tasks::ExitTask</text>
</a>
</g>
</g>
<!-- Node1&#45;&gt;Node27 -->
<g id="edge26_Node000001_Node000027" class="edge">
<title>Node1&#45;&gt;Node27</title>
<g id="a_edge26_Node000001_Node000027"><a xlink:title=" ">
<path fill="none" stroke="#63b8ff" d="M254.02,-146.96C279.56,-140.63 311.13,-132.8 338.28,-126.06"/>
<polygon fill="#63b8ff" stroke="#63b8ff" points="253.06,-143.6 244.19,-149.4 254.74,-150.39 253.06,-143.6"/>
</a>
</g>
</g>
<!-- Node31 -->
<g id="Node000031" class="node">
<title>Node31</title>
<g id="a_Node000031"><a xlink:href="classDynExpInstr_1_1SpectrometerTasks_1_1ExitTask.html" target="_top" xlink:title="Defines a task for deinitializing an instrument within an instrument inheritance hierarchy....">
<polygon fill="white" stroke="#666666" points="474,-78 326,-78 326,-48 474,-48 474,-78"/>
<text text-anchor="start" x="334" y="-66" font-family="Helvetica,sans-Serif" font-size="10.00">DynExpInstr::Spectrometer</text>
<text text-anchor="middle" x="400" y="-55" font-family="Helvetica,sans-Serif" font-size="10.00">Tasks::ExitTask</text>
</a>
</g>
</g>
<!-- Node1&#45;&gt;Node31 -->
<g id="edge30_Node000001_Node000031" class="edge">
<title>Node1&#45;&gt;Node31</title>
<g id="a_edge30_Node000001_Node000031"><a xlink:title=" ">
<path fill="none" stroke="#63b8ff" d="M223.35,-142.41C241.91,-126.02 272.46,-101.39 303,-87 310.23,-83.59 317.99,-80.63 325.87,-78.07"/>
<polygon fill="#63b8ff" stroke="#63b8ff" points="220.8,-139.99 215.71,-149.29 225.49,-145.2 220.8,-139.99"/>
</a>
</g>
</g>
<!-- Node2 -->
<g id="Node000002" class="node">
<title>Node2</title>
<g id="a_Node000002"><a xlink:href="classDynExp_1_1TaskBase.html" target="_top" xlink:title="Base class for all tasks being processed by instruments. The class must not contain public virtual fu...">
<polygon fill="white" stroke="#666666" points="106,-168.5 0,-168.5 0,-149.5 106,-149.5 106,-168.5"/>
<text text-anchor="middle" x="53" y="-156.5" font-family="Helvetica,sans-Serif" font-size="10.00">DynExp::TaskBase</text>
</a>
</g>
</g>
<!-- Node2&#45;&gt;Node1 -->
<g id="edge1_Node000001_Node000002" class="edge">
<title>Node2&#45;&gt;Node1</title>
<g id="a_edge1_Node000001_Node000002"><a xlink:title=" ">
<path fill="none" stroke="#63b8ff" d="M116.38,-159C124.77,-159 133.37,-159 141.75,-159"/>
<polygon fill="#63b8ff" stroke="#63b8ff" points="116.29,-155.5 106.29,-159 116.29,-162.5 116.29,-155.5"/>
</a>
</g>
</g>
<!-- Node4 -->
<g id="Node000004" class="node">
<title>Node4</title>
<g id="a_Node000004"><a xlink:href="classDynExpInstr_1_1DummyCameraTasks_1_1ExitTask.html" target="_top" xlink:title=" ">
<polygon fill="white" stroke="#666666" points="698.5,-486 539.5,-486 539.5,-456 698.5,-456 698.5,-486"/>
<text text-anchor="start" x="547.5" y="-474" font-family="Helvetica,sans-Serif" font-size="10.00">DynExpInstr::DummyCamera</text>
<text text-anchor="middle" x="619" y="-463" font-family="Helvetica,sans-Serif" font-size="10.00">Tasks::ExitTask</text>
</a>
</g>
</g>
<!-- Node3&#45;&gt;Node4 -->
<g id="edge3_Node000003_Node000004" class="edge">
<title>Node3&#45;&gt;Node4</title>
<g id="a_edge3_Node000003_Node000004"><a xlink:title=" ">
<path fill="none" stroke="#63b8ff" d="M478.91,-440.23C502.22,-445.39 527.57,-451 550.18,-456"/>
<polygon fill="#63b8ff" stroke="#63b8ff" points="479.58,-436.8 469.06,-438.06 478.07,-443.63 479.58,-436.8"/>
</a>
</g>
</g>
<!-- Node5 -->
<g id="Node000005" class="node">
<title>Node5</title>
<g id="a_Node000005"><a xlink:href="classDynExpInstr_1_1PVCamTasks_1_1ExitTask.html" target="_top" xlink:title=" ">
<polygon fill="white" stroke="#666666" points="691,-438 547,-438 547,-408 691,-408 691,-438"/>
<text text-anchor="start" x="555" y="-426" font-family="Helvetica,sans-Serif" font-size="10.00">DynExpInstr::PVCamTasks</text>
<text text-anchor="middle" x="619" y="-415" font-family="Helvetica,sans-Serif" font-size="10.00">::ExitTask</text>
</a>
</g>
</g>
<!-- Node3&#45;&gt;Node5 -->
<g id="edge4_Node000003_Node000005" class="edge">
<title>Node3&#45;&gt;Node5</title>
<g id="a_edge4_Node000003_Node000005"><a xlink:title=" ">
<path fill="none" stroke="#63b8ff" d="M483.68,-423C504.54,-423 526.75,-423 546.98,-423"/>
<polygon fill="#63b8ff" stroke="#63b8ff" points="483.56,-419.5 473.56,-423 483.56,-426.5 483.56,-419.5"/>
</a>
</g>
</g>
<!-- Node7 -->
<g id="Node000007" class="node">
<title>Node7</title>
<g id="a_Node000007"><a xlink:href="classDynExpInstr_1_1FunctionGeneratorTasks_1_1ExitTask.html" target="_top" xlink:title="Defines a task for deinitializing an instrument within an instrument inheritance hierarchy....">
<polygon fill="white" stroke="#666666" points="705,-390 533,-390 533,-360 705,-360 705,-390"/>
<text text-anchor="start" x="541" y="-378" font-family="Helvetica,sans-Serif" font-size="10.00">DynExpInstr::FunctionGenerator</text>
<text text-anchor="middle" x="619" y="-367" font-family="Helvetica,sans-Serif" font-size="10.00">Tasks::ExitTask</text>
</a>
</g>
</g>
<!-- Node6&#45;&gt;Node7 -->
<g id="edge6_Node000006_Node000007" class="edge">
<title>Node6&#45;&gt;Node7</title>
<g id="a_edge6_Node000006_Node000007"><a xlink:title=" ">
<path fill="none" stroke="#63b8ff" d="M428.72,-228.46C473.32,-262.99 559.91,-330.03 598.56,-359.95"/>
<polygon fill="#63b8ff" stroke="#63b8ff" points="430.69,-225.56 420.64,-222.21 426.4,-231.09 430.69,-225.56"/>
</a>
</g>
</g>
<!-- Node17 -->
<g id="Node000017" class="node">
<title>Node17</title>
<g id="a_Node000017"><a xlink:href="classDynExpInstr_1_1InputPortTasks_1_1ExitTask.html" target="_top" xlink:title="Defines a task for deinitializing an instrument within an instrument inheritance hierarchy....">
<polygon fill="white" stroke="#666666" points="695.5,-270 542.5,-270 542.5,-240 695.5,-240 695.5,-270"/>
<text text-anchor="start" x="550.5" y="-258" font-family="Helvetica,sans-Serif" font-size="10.00">DynExpInstr::InputPortTasks</text>
<text text-anchor="middle" x="619" y="-247" font-family="Helvetica,sans-Serif" font-size="10.00">::ExitTask</text>
</a>
</g>
</g>
<!-- Node6&#45;&gt;Node17 -->
<g id="edge16_Node000006_Node000017" class="edge">
<title>Node6&#45;&gt;Node17</title>
<g id="a_edge16_Node000006_Node000017"><a xlink:title=" ">
<path fill="none" stroke="#63b8ff" d="M478.91,-224.23C502.22,-229.39 527.57,-235 550.18,-240"/>
<polygon fill="#63b8ff" stroke="#63b8ff" points="479.58,-220.8 469.06,-222.06 478.07,-227.63 479.58,-220.8"/>
</a>
</g>
</g>
<!-- Node22 -->
<g id="Node000022" class="node">
<title>Node22</title>
<g id="a_Node000022"><a xlink:href="classDynExpInstr_1_1LockinAmplifierTasks_1_1ExitTask.html" target="_top" xlink:title="Defines a task for deinitializing an instrument within an instrument inheritance hierarchy....">
<polygon fill="white" stroke="#666666" points="698,-222 540,-222 540,-192 698,-192 698,-222"/>
<text text-anchor="start" x="548" y="-210" font-family="Helvetica,sans-Serif" font-size="10.00">DynExpInstr::LockinAmplifier</text>
<text text-anchor="middle" x="619" y="-199" font-family="Helvetica,sans-Serif" font-size="10.00">Tasks::ExitTask</text>
</a>
</g>
</g>
<!-- Node6&#45;&gt;Node22 -->
<g id="edge21_Node000006_Node000022" class="edge">
<title>Node6&#45;&gt;Node22</title>
<g id="a_edge21_Node000006_Node000022"><a xlink:title=" ">
<path fill="none" stroke="#63b8ff" d="M507.21,-207C518.2,-207 529.23,-207 539.84,-207"/>
<polygon fill="#63b8ff" stroke="#63b8ff" points="507.13,-203.5 497.13,-207 507.13,-210.5 507.13,-203.5"/>
</a>
</g>
</g>
<!-- Node24 -->
<g id="Node000024" class="node">
<title>Node24</title>
<g id="a_Node000024"><a xlink:href="classDynExpInstr_1_1TimeTaggerTasks_1_1ExitTask.html" target="_top" xlink:title="Defines a task for deinitializing an instrument within an instrument inheritance hierarchy....">
<polygon fill="white" stroke="#666666" points="702,-174 536,-174 536,-144 702,-144 702,-174"/>
<text text-anchor="start" x="544" y="-162" font-family="Helvetica,sans-Serif" font-size="10.00">DynExpInstr::TimeTaggerTasks</text>
<text text-anchor="middle" x="619" y="-151" font-family="Helvetica,sans-Serif" font-size="10.00">::ExitTask</text>
</a>
</g>
</g>
<!-- Node6&#45;&gt;Node24 -->
<g id="edge23_Node000006_Node000024" class="edge">
<title>Node6&#45;&gt;Node24</title>
<g id="a_edge23_Node000006_Node000024"><a xlink:title=" ">
<path fill="none" stroke="#63b8ff" d="M478.91,-189.77C502.22,-184.61 527.57,-179 550.18,-174"/>
<polygon fill="#63b8ff" stroke="#63b8ff" points="478.07,-186.37 469.06,-191.94 479.58,-193.2 478.07,-186.37"/>
</a>
</g>
</g>
<!-- Node8 -->
<g id="Node000008" class="node">
<title>Node8</title>
<g id="a_Node000008"><a xlink:href="classDynExpInstr_1_1DummyDataStreamInstrumentTasks_1_1ExitTask.html" target="_top" xlink:title=" ">
<polygon fill="white" stroke="#666666" points="921.5,-534 742.5,-534 742.5,-504 921.5,-504 921.5,-534"/>
<text text-anchor="start" x="750.5" y="-522" font-family="Helvetica,sans-Serif" font-size="10.00">DynExpInstr::DummyDataStream</text>
<text text-anchor="middle" x="832" y="-511" font-family="Helvetica,sans-Serif" font-size="10.00">InstrumentTasks::ExitTask</text>
</a>
</g>
</g>
<!-- Node7&#45;&gt;Node8 -->
<g id="edge7_Node000007_Node000008" class="edge">
<title>Node7&#45;&gt;Node8</title>
<g id="a_edge7_Node000007_Node000008"><a xlink:title=" ">
<path fill="none" stroke="#63b8ff" d="M701.01,-395.64C702.39,-396.7 703.72,-397.82 705,-399 738.54,-429.85 707.24,-464.4 741,-495 744.71,-498.37 748.85,-501.27 753.25,-503.77"/>
<polygon fill="#63b8ff" stroke="#63b8ff" points="702.92,-392.71 692.65,-390.11 699.06,-398.54 702.92,-392.71"/>
</a>
</g>
</g>
<!-- Node9 -->
<g id="Node000009" class="node">
<title>Node9</title>
<g id="a_Node000009"><a xlink:href="classDynExpInstr_1_1OutputPortTasks_1_1ExitTask.html" target="_top" xlink:title="Defines a task for deinitializing an instrument within an instrument inheritance hierarchy....">
<polygon fill="white" stroke="#666666" points="912.5,-486 751.5,-486 751.5,-456 912.5,-456 912.5,-486"/>
<text text-anchor="start" x="759.5" y="-474" font-family="Helvetica,sans-Serif" font-size="10.00">DynExpInstr::OutputPortTasks</text>
<text text-anchor="middle" x="832" y="-463" font-family="Helvetica,sans-Serif" font-size="10.00">::ExitTask</text>
</a>
</g>
</g>
<!-- Node7&#45;&gt;Node9 -->
<g id="edge8_Node000007_Node000009" class="edge">
<title>Node7&#45;&gt;Node9</title>
<g id="a_edge8_Node000007_Node000009"><a xlink:title=" ">
<path fill="none" stroke="#63b8ff" d="M697.59,-394.44C700.15,-395.86 702.63,-397.37 705,-399 726.99,-414.08 718.9,-432.08 741,-447 746.09,-450.44 751.66,-453.39 757.44,-455.91"/>
<polygon fill="#63b8ff" stroke="#63b8ff" points="699.14,-391.3 688.62,-390.02 696.04,-397.58 699.14,-391.3"/>
</a>
</g>
</g>
<!-- Node14 -->
<g id="Node000014" class="node">
<title>Node14</title>
<g id="a_Node000014"><a xlink:href="classDynExpInstr_1_1RS__SMB100BTasks_1_1ExitTask.html" target="_top" xlink:title=" ">
<polygon fill="white" stroke="#666666" points="918.5,-438 745.5,-438 745.5,-408 918.5,-408 918.5,-438"/>
<text text-anchor="start" x="753.5" y="-426" font-family="Helvetica,sans-Serif" font-size="10.00">DynExpInstr::RS_SMB100BTasks</text>
<text text-anchor="middle" x="832" y="-415" font-family="Helvetica,sans-Serif" font-size="10.00">::ExitTask</text>
</a>
</g>
</g>
<!-- Node7&#45;&gt;Node14 -->
<g id="edge13_Node000007_Node000014" class="edge">
<title>Node7&#45;&gt;Node14</title>
<g id="a_edge13_Node000007_Node000014"><a xlink:title=" ">
<path fill="none" stroke="#63b8ff" d="M696.06,-392.3C718.64,-397.44 743.17,-403.02 765.05,-408"/>
<polygon fill="#63b8ff" stroke="#63b8ff" points="696.71,-388.86 686.18,-390.06 695.16,-395.69 696.71,-388.86"/>
</a>
</g>
</g>
<!-- Node15 -->
<g id="Node000015" class="node">
<title>Node15</title>
<g id="a_Node000015"><a xlink:href="classDynExpInstr_1_1RS__SMC100ATasks_1_1ExitTask.html" target="_top" xlink:title=" ">
<polygon fill="white" stroke="#666666" points="918.5,-390 745.5,-390 745.5,-360 918.5,-360 918.5,-390"/>
<text text-anchor="start" x="753.5" y="-378" font-family="Helvetica,sans-Serif" font-size="10.00">DynExpInstr::RS_SMC100ATasks</text>
<text text-anchor="middle" x="832" y="-367" font-family="Helvetica,sans-Serif" font-size="10.00">::ExitTask</text>
</a>
</g>
</g>
<!-- Node7&#45;&gt;Node15 -->
<g id="edge14_Node000007_Node000015" class="edge">
<title>Node7&#45;&gt;Node15</title>
<g id="a_edge14_Node000007_Node000015"><a xlink:title=" ">
<path fill="none" stroke="#63b8ff" d="M715.23,-375C725.31,-375 735.51,-375 745.47,-375"/>
<polygon fill="#63b8ff" stroke="#63b8ff" points="715.21,-371.5 705.21,-375 715.21,-378.5 715.21,-371.5"/>
</a>
</g>
</g>
<!-- Node16 -->
<g id="Node000016" class="node">
<title>Node16</title>
<g id="a_Node000016"><a xlink:href="classDynExpInstr_1_1SwabianInstrumentsPulseStreamerTasks_1_1ExitTask.html" target="_top" xlink:title=" ">
<polygon fill="white" stroke="#666666" points="923,-342 741,-342 741,-312 923,-312 923,-342"/>
<text text-anchor="start" x="749" y="-330" font-family="Helvetica,sans-Serif" font-size="10.00">DynExpInstr::SwabianInstruments</text>
<text text-anchor="middle" x="832" y="-319" font-family="Helvetica,sans-Serif" font-size="10.00">PulseStreamerTasks::ExitTask</text>
</a>
</g>
</g>
<!-- Node7&#45;&gt;Node16 -->
<g id="edge15_Node000007_Node000016" class="edge">
<title>Node7&#45;&gt;Node16</title>
<g id="a_edge15_Node000007_Node000016"><a xlink:title=" ">
<path fill="none" stroke="#63b8ff" d="M696.06,-357.7C718.64,-352.56 743.17,-346.98 765.05,-342"/>
<polygon fill="#63b8ff" stroke="#63b8ff" points="695.16,-354.31 686.18,-359.94 696.71,-361.14 695.16,-354.31"/>
</a>
</g>
</g>
<!-- Node10 -->
<g id="Node000010" class="node">
<title>Node10</title>
<g id="a_Node000010"><a xlink:href="classDynExpInstr_1_1AnalogOutTasks_1_1ExitTask.html" target="_top" xlink:title="Defines a task for deinitializing an instrument within an instrument inheritance hierarchy....">
<polygon fill="white" stroke="#666666" points="1119,-510 959,-510 959,-480 1119,-480 1119,-510"/>
<text text-anchor="start" x="967" y="-498" font-family="Helvetica,sans-Serif" font-size="10.00">DynExpInstr::AnalogOutTasks</text>
<text text-anchor="middle" x="1039" y="-487" font-family="Helvetica,sans-Serif" font-size="10.00">::ExitTask</text>
</a>
</g>
</g>
<!-- Node9&#45;&gt;Node10 -->
<g id="edge9_Node000009_Node000010" class="edge">
<title>Node9&#45;&gt;Node10</title>
<g id="a_edge9_Node000009_Node000010"><a xlink:title=" ">
<path fill="none" stroke="#63b8ff" d="M922.61,-481.49C934.67,-482.9 946.97,-484.34 958.83,-485.73"/>
<polygon fill="#63b8ff" stroke="#63b8ff" points="922.89,-478 912.55,-480.31 922.08,-484.95 922.89,-478"/>
</a>
</g>
</g>
<!-- Node12 -->
<g id="Node000012" class="node">
<title>Node12</title>
<g id="a_Node000012"><a xlink:href="classDynExpInstr_1_1DigitalOutTasks_1_1ExitTask.html" target="_top" xlink:title="Defines a task for deinitializing an instrument within an instrument inheritance hierarchy....">
<polygon fill="white" stroke="#666666" points="1118,-462 960,-462 960,-432 1118,-432 1118,-462"/>
<text text-anchor="start" x="968" y="-450" font-family="Helvetica,sans-Serif" font-size="10.00">DynExpInstr::DigitalOutTasks</text>
<text text-anchor="middle" x="1039" y="-439" font-family="Helvetica,sans-Serif" font-size="10.00">::ExitTask</text>
</a>
</g>
</g>
<!-- Node9&#45;&gt;Node12 -->
<g id="edge11_Node000009_Node000012" class="edge">
<title>Node9&#45;&gt;Node12</title>
<g id="a_edge11_Node000009_Node000012"><a xlink:title=" ">
<path fill="none" stroke="#63b8ff" d="M922.83,-460.48C935.16,-459.04 947.74,-457.57 959.84,-456.15"/>
<polygon fill="#63b8ff" stroke="#63b8ff" points="922.08,-457.05 912.55,-461.69 922.89,-464 922.08,-457.05"/>
</a>
</g>
</g>
<!-- Node11 -->
<g id="Node000011" class="node">
<title>Node11</title>
<g id="a_Node000011"><a xlink:href="classDynExpInstr_1_1NIDAQAnalogOutTasks_1_1ExitTask.html" target="_top" xlink:title=" ">
<polygon fill="white" stroke="#666666" points="1303,-510 1155,-510 1155,-480 1303,-480 1303,-510"/>
<text text-anchor="start" x="1163" y="-498" font-family="Helvetica,sans-Serif" font-size="10.00">DynExpInstr::NIDAQAnalog</text>
<text text-anchor="middle" x="1229" y="-487" font-family="Helvetica,sans-Serif" font-size="10.00">OutTasks::ExitTask</text>
</a>
</g>
</g>
<!-- Node10&#45;&gt;Node11 -->
<g id="edge10_Node000010_Node000011" class="edge">
<title>Node10&#45;&gt;Node11</title>
<g id="a_edge10_Node000010_Node000011"><a xlink:title=" ">
<path fill="none" stroke="#63b8ff" d="M1129.23,-495C1137.83,-495 1146.48,-495 1154.9,-495"/>
<polygon fill="#63b8ff" stroke="#63b8ff" points="1129.18,-491.5 1119.18,-495 1129.18,-498.5 1129.18,-491.5"/>
</a>
</g>
</g>
<!-- Node13 -->
<g id="Node000013" class="node">
<title>Node13</title>
<g id="a_Node000013"><a xlink:href="classDynExpInstr_1_1NIDAQDigitalOutTasks_1_1ExitTask.html" target="_top" xlink:title=" ">
<polygon fill="white" stroke="#666666" points="1302,-462 1156,-462 1156,-432 1302,-432 1302,-462"/>
<text text-anchor="start" x="1164" y="-450" font-family="Helvetica,sans-Serif" font-size="10.00">DynExpInstr::NIDAQDigital</text>
<text text-anchor="middle" x="1229" y="-439" font-family="Helvetica,sans-Serif" font-size="10.00">OutTasks::ExitTask</text>
</a>
</g>
</g>
<!-- Node12&#45;&gt;Node13 -->
<g id="edge12_Node000012_Node000013" class="edge">
<title>Node12&#45;&gt;Node13</title>
<g id="a_edge12_Node000012_Node000013"><a xlink:title=" ">
<path fill="none" stroke="#63b8ff" d="M1128.13,-447C1137.42,-447 1146.79,-447 1155.86,-447"/>
<polygon fill="#63b8ff" stroke="#63b8ff" points="1128.1,-443.5 1118.1,-447 1128.1,-450.5 1128.1,-443.5"/>
</a>
</g>
</g>
<!-- Node18 -->
<g id="Node000018" class="node">
<title>Node18</title>
<g id="a_Node000018"><a xlink:href="classDynExpInstr_1_1AnalogInTasks_1_1ExitTask.html" target="_top" xlink:title="Defines a task for deinitializing an instrument within an instrument inheritance hierarchy....">
<polygon fill="white" stroke="#666666" points="908,-294 756,-294 756,-264 908,-264 908,-294"/>
<text text-anchor="start" x="764" y="-282" font-family="Helvetica,sans-Serif" font-size="10.00">DynExpInstr::AnalogInTasks</text>
<text text-anchor="middle" x="832" y="-271" font-family="Helvetica,sans-Serif" font-size="10.00">::ExitTask</text>
</a>
</g>
</g>
<!-- Node17&#45;&gt;Node18 -->
<g id="edge17_Node000017_Node000018" class="edge">
<title>Node17&#45;&gt;Node18</title>
<g id="a_edge17_Node000017_Node000018"><a xlink:title=" ">
<path fill="none" stroke="#63b8ff" d="M705.82,-264.76C722.43,-266.65 739.71,-268.62 755.95,-270.46"/>
<polygon fill="#63b8ff" stroke="#63b8ff" points="705.91,-261.25 695.58,-263.6 705.12,-268.2 705.91,-261.25"/>
</a>
</g>
</g>
<!-- Node20 -->
<g id="Node000020" class="node">
<title>Node20</title>
<g id="a_Node000020"><a xlink:href="classDynExpInstr_1_1DigitalInTasks_1_1ExitTask.html" target="_top" xlink:title="Defines a task for deinitializing an instrument within an instrument inheritance hierarchy....">
<polygon fill="white" stroke="#666666" points="907,-246 757,-246 757,-216 907,-216 907,-246"/>
<text text-anchor="start" x="765" y="-234" font-family="Helvetica,sans-Serif" font-size="10.00">DynExpInstr::DigitalInTasks</text>
<text text-anchor="middle" x="832" y="-223" font-family="Helvetica,sans-Serif" font-size="10.00">::ExitTask</text>
</a>
</g>
</g>
<!-- Node17&#45;&gt;Node20 -->
<g id="edge19_Node000017_Node000020" class="edge">
<title>Node17&#45;&gt;Node20</title>
<g id="a_edge19_Node000017_Node000020"><a xlink:title=" ">
<path fill="none" stroke="#63b8ff" d="M705.94,-245.22C722.76,-243.31 740.26,-241.32 756.66,-239.46"/>
<polygon fill="#63b8ff" stroke="#63b8ff" points="705.12,-241.8 695.58,-246.4 705.91,-248.75 705.12,-241.8"/>
</a>
</g>
</g>
<!-- Node19 -->
<g id="Node000019" class="node">
<title>Node19</title>
<g id="a_Node000019"><a xlink:href="classDynExpInstr_1_1NIDAQAnalogInTasks_1_1ExitTask.html" target="_top" xlink:title=" ">
<polygon fill="white" stroke="#666666" points="1113,-294 965,-294 965,-264 1113,-264 1113,-294"/>
<text text-anchor="start" x="973" y="-282" font-family="Helvetica,sans-Serif" font-size="10.00">DynExpInstr::NIDAQAnalog</text>
<text text-anchor="middle" x="1039" y="-271" font-family="Helvetica,sans-Serif" font-size="10.00">InTasks::ExitTask</text>
</a>
</g>
</g>
<!-- Node18&#45;&gt;Node19 -->
<g id="edge18_Node000018_Node000019" class="edge">
<title>Node18&#45;&gt;Node19</title>
<g id="a_edge18_Node000018_Node000019"><a xlink:title=" ">
<path fill="none" stroke="#63b8ff" d="M918.26,-279C933.75,-279 949.79,-279 964.89,-279"/>
<polygon fill="#63b8ff" stroke="#63b8ff" points="918.17,-275.5 908.17,-279 918.17,-282.5 918.17,-275.5"/>
</a>
</g>
</g>
<!-- Node21 -->
<g id="Node000021" class="node">
<title>Node21</title>
<g id="a_Node000021"><a xlink:href="classDynExpInstr_1_1NIDAQDigitalInTasks_1_1ExitTask.html" target="_top" xlink:title=" ">
<polygon fill="white" stroke="#666666" points="1112,-246 966,-246 966,-216 1112,-216 1112,-246"/>
<text text-anchor="start" x="974" y="-234" font-family="Helvetica,sans-Serif" font-size="10.00">DynExpInstr::NIDAQDigital</text>
<text text-anchor="middle" x="1039" y="-223" font-family="Helvetica,sans-Serif" font-size="10.00">InTasks::ExitTask</text>
</a>
</g>
</g>
<!-- Node20&#45;&gt;Node21 -->
<g id="edge20_Node000020_Node000021" class="edge">
<title>Node20&#45;&gt;Node21</title>
<g id="a_edge20_Node000020_Node000021"><a xlink:title=" ">
<path fill="none" stroke="#63b8ff" d="M917.46,-231C933.51,-231 950.18,-231 965.81,-231"/>
<polygon fill="#63b8ff" stroke="#63b8ff" points="917.01,-227.5 907.01,-231 917.01,-234.5 917.01,-227.5"/>
</a>
</g>
</g>
<!-- Node23 -->
<g id="Node000023" class="node">
<title>Node23</title>
<g id="a_Node000023"><a xlink:href="classDynExpInstr_1_1ZI__MFLITasks_1_1ExitTask.html" target="_top" xlink:title=" ">
<polygon fill="white" stroke="#666666" points="905.5,-198 758.5,-198 758.5,-168 905.5,-168 905.5,-198"/>
<text text-anchor="start" x="766.5" y="-186" font-family="Helvetica,sans-Serif" font-size="10.00">DynExpInstr::ZI_MFLITasks</text>
<text text-anchor="middle" x="832" y="-175" font-family="Helvetica,sans-Serif" font-size="10.00">::ExitTask</text>
</a>
</g>
</g>
<!-- Node22&#45;&gt;Node23 -->
<g id="edge22_Node000022_Node000023" class="edge">
<title>Node22&#45;&gt;Node23</title>
<g id="a_edge22_Node000022_Node000023"><a xlink:title=" ">
<path fill="none" stroke="#63b8ff" d="M708.53,-196.93C725.16,-195.04 742.37,-193.08 758.45,-191.25"/>
<polygon fill="#63b8ff" stroke="#63b8ff" points="707.81,-193.49 698.27,-198.1 708.6,-200.44 707.81,-193.49"/>
</a>
</g>
</g>
<!-- Node25 -->
<g id="Node000025" class="node">
<title>Node25</title>
<g id="a_Node000025"><a xlink:href="classDynExpInstr_1_1QutoolsQuTAGTasks_1_1ExitTask.html" target="_top" xlink:title=" ">
<polygon fill="white" stroke="#666666" points="921.5,-150 742.5,-150 742.5,-120 921.5,-120 921.5,-150"/>
<text text-anchor="start" x="750.5" y="-138" font-family="Helvetica,sans-Serif" font-size="10.00">DynExpInstr::QutoolsQuTAGTasks</text>
<text text-anchor="middle" x="832" y="-127" font-family="Helvetica,sans-Serif" font-size="10.00">::ExitTask</text>
</a>
</g>
</g>
<!-- Node24&#45;&gt;Node25 -->
<g id="edge24_Node000024_Node000025" class="edge">
<title>Node24&#45;&gt;Node25</title>
<g id="a_edge24_Node000024_Node000025"><a xlink:title=" ">
<path fill="none" stroke="#63b8ff" d="M712.16,-148.52C722.2,-147.38 732.41,-146.21 742.41,-145.08"/>
<polygon fill="#63b8ff" stroke="#63b8ff" points="711.72,-145.04 702.18,-149.65 712.51,-152 711.72,-145.04"/>
</a>
</g>
</g>
<!-- Node28 -->
<g id="Node000028" class="node">
<title>Node28</title>
<g id="a_Node000028"><a xlink:href="classDynExpInstr_1_1NenionLeakvalveF3Tasks_1_1ExitTask.html" target="_top" xlink:title=" ">
<polygon fill="white" stroke="#666666" points="702.5,-126 535.5,-126 535.5,-96 702.5,-96 702.5,-126"/>
<text text-anchor="start" x="543.5" y="-114" font-family="Helvetica,sans-Serif" font-size="10.00">DynExpInstr::NenionLeakvalve</text>
<text text-anchor="middle" x="619" y="-103" font-family="Helvetica,sans-Serif" font-size="10.00">F3Tasks::ExitTask</text>
</a>
</g>
</g>
<!-- Node27&#45;&gt;Node28 -->
<g id="edge27_Node000027_Node000028" class="edge">
<title>Node27&#45;&gt;Node28</title>
<g id="a_edge27_Node000027_Node000028"><a xlink:title=" ">
<path fill="none" stroke="#63b8ff" d="M489.4,-111C504.53,-111 520.19,-111 535.16,-111"/>
<polygon fill="#63b8ff" stroke="#63b8ff" points="489.04,-107.5 479.04,-111 489.04,-114.5 489.04,-107.5"/>
</a>
</g>
</g>
<!-- Node29 -->
<g id="Node000029" class="node">
<title>Node29</title>
<g id="a_Node000029"><a xlink:href="classDynExpInstr_1_1PI__C__862__Tasks_1_1ExitTask.html" target="_top" xlink:title=" ">
<polygon fill="white" stroke="#666666" points="682,-78 556,-78 556,-48 682,-48 682,-78"/>
<text text-anchor="start" x="564" y="-66" font-family="Helvetica,sans-Serif" font-size="10.00">DynExpInstr::PI_C_862</text>
<text text-anchor="middle" x="619" y="-55" font-family="Helvetica,sans-Serif" font-size="10.00">_Tasks::ExitTask</text>
</a>
</g>
</g>
<!-- Node27&#45;&gt;Node29 -->
<g id="edge28_Node000027_Node000029" class="edge">
<title>Node27&#45;&gt;Node29</title>
<g id="a_edge28_Node000027_Node000029"><a xlink:title=" ">
<path fill="none" stroke="#63b8ff" d="M478.96,-93.75C504.18,-88.18 531.78,-82.07 555.71,-76.78"/>
<polygon fill="#63b8ff" stroke="#63b8ff" points="478.07,-90.37 469.06,-95.94 479.58,-97.2 478.07,-90.37"/>
</a>
</g>
</g>
<!-- Node30 -->
<g id="Node000030" class="node">
<title>Node30</title>
<g id="a_Node000030"><a xlink:href="classDynExpInstr_1_1SmarActTasks_1_1ExitTask.html" target="_top" xlink:title=" ">
<polygon fill="white" stroke="#666666" points="694,-30 544,-30 544,0 694,0 694,-30"/>
<text text-anchor="start" x="552" y="-18" font-family="Helvetica,sans-Serif" font-size="10.00">DynExpInstr::SmarActTasks</text>
<text text-anchor="middle" x="619" y="-7" font-family="Helvetica,sans-Serif" font-size="10.00">::ExitTask</text>
</a>
</g>
</g>
<!-- Node27&#45;&gt;Node30 -->
<g id="edge29_Node000027_Node000030" class="edge">
<title>Node27&#45;&gt;Node30</title>
<g id="a_edge29_Node000027_Node000030"><a xlink:title=" ">
<path fill="none" stroke="#63b8ff" d="M488.5,-92.02C491.44,-90.48 494.28,-88.81 497,-87 519.22,-72.25 511.01,-54.08 533,-39 538.06,-35.53 543.61,-32.56 549.38,-30.02"/>
<polygon fill="#63b8ff" stroke="#63b8ff" points="487,-88.86 479.45,-96.29 489.99,-95.19 487,-88.86"/>
</a>
</g>
</g>
</g>
</svg>
