<?xml version="1.0" encoding="UTF-8" standalone="no"?>
<!DOCTYPE svg PUBLIC "-//W3C//DTD SVG 1.1//EN"
 "http://www.w3.org/Graphics/SVG/1.1/DTD/svg11.dtd">
<!-- Generated by graphviz version 2.43.0 (0)
 -->
<!-- Title: DynExpModule::StreamManipulatorData Pages: 1 -->
<svg width="221pt" height="207pt"
 viewBox="0.00 0.00 221.00 207.00" xmlns="http://www.w3.org/2000/svg" xmlns:xlink="http://www.w3.org/1999/xlink">
<g id="graph0" class="graph" transform="scale(1 1) rotate(0) translate(4 203)">
<title>DynExpModule::StreamManipulatorData</title>
<polygon fill="white" stroke="transparent" points="-4,4 -4,-203 217,-203 217,4 -4,4"/>
<!-- Node1 -->
<g id="node1" class="node">
<title>Node1</title>
<g id="a_node1"><a xlink:title="Data class for StreamManipulator.">
<polygon fill="#bfbfbf" stroke="black" points="0,-0.5 0,-19.5 213,-19.5 213,-0.5 0,-0.5"/>
<text text-anchor="middle" x="106.5" y="-7.5" font-family="Helvetica,sans-Serif" font-size="10.00">DynExpModule::StreamManipulatorData</text>
</a>
</g>
</g>
<!-- Node2 -->
<g id="node2" class="node">
<title>Node2</title>
<g id="a_node2"><a xlink:href="classDynExp_1_1ModuleDataBase.html" target="_top" xlink:title="Data structure to contain data which is synchronized in between different threads....">
<polygon fill="white" stroke="black" points="35,-56.5 35,-75.5 178,-75.5 178,-56.5 35,-56.5"/>
<text text-anchor="middle" x="106.5" y="-63.5" font-family="Helvetica,sans-Serif" font-size="10.00">DynExp::ModuleDataBase</text>
</a>
</g>
</g>
<!-- Node2&#45;&gt;Node1 -->
<g id="edge1" class="edge">
<title>Node2&#45;&gt;Node1</title>
<path fill="none" stroke="midnightblue" d="M106.5,-45.8C106.5,-36.91 106.5,-26.78 106.5,-19.75"/>
<polygon fill="midnightblue" stroke="midnightblue" points="103,-46.08 106.5,-56.08 110,-46.08 103,-46.08"/>
</g>
<!-- Node3 -->
<g id="node3" class="node">
<title>Node3</title>
<g id="a_node3"><a xlink:href="classUtil_1_1ISynchronizedPointerLockable.html" target="_top" xlink:title="Interface to allow synchronizing the access to derived classes between different threads by making th...">
<polygon fill="white" stroke="black" points="35,-112.5 35,-142.5 178,-142.5 178,-112.5 35,-112.5"/>
<text text-anchor="start" x="43" y="-130.5" font-family="Helvetica,sans-Serif" font-size="10.00">Util::ISynchronizedPointer</text>
<text text-anchor="middle" x="106.5" y="-119.5" font-family="Helvetica,sans-Serif" font-size="10.00">Lockable</text>
</a>
</g>
</g>
<!-- Node3&#45;&gt;Node2 -->
<g id="edge2" class="edge">
<title>Node3&#45;&gt;Node2</title>
<path fill="none" stroke="midnightblue" d="M106.5,-102.29C106.5,-92.86 106.5,-82.65 106.5,-75.66"/>
<polygon fill="midnightblue" stroke="midnightblue" points="103,-102.4 106.5,-112.4 110,-102.4 103,-102.4"/>
</g>
<!-- Node4 -->
<g id="node4" class="node">
<title>Node4</title>
<g id="a_node4"><a xlink:href="classUtil_1_1INonCopyable.html" target="_top" xlink:title="Interface to delete copy constructor and copy assignment operator and thus make derived classes non&#45;c...">
<polygon fill="white" stroke="black" points="52.5,-179.5 52.5,-198.5 160.5,-198.5 160.5,-179.5 52.5,-179.5"/>
<text text-anchor="middle" x="106.5" y="-186.5" font-family="Helvetica,sans-Serif" font-size="10.00">Util::INonCopyable</text>
</a>
</g>
</g>
<!-- Node4&#45;&gt;Node3 -->
<g id="edge3" class="edge">
<title>Node4&#45;&gt;Node3</title>
<path fill="none" stroke="midnightblue" d="M106.5,-169.23C106.5,-160.59 106.5,-150.5 106.5,-142.52"/>
<polygon fill="midnightblue" stroke="midnightblue" points="103,-169.48 106.5,-179.48 110,-169.48 103,-169.48"/>
</g>
</g>
</svg>
