<?xml version="1.0" encoding="UTF-8" standalone="no"?>
<!DOCTYPE svg PUBLIC "-//W3C//DTD SVG 1.1//EN"
 "http://www.w3.org/Graphics/SVG/1.1/DTD/svg11.dtd">
<!-- Generated by graphviz version 2.43.0 (0)
 -->
<!-- Title: DynExp::InstrumentConfiguratorBase Pages: 1 -->
<svg width="1744pt" height="480pt"
 viewBox="0.00 0.00 1744.00 479.50" xmlns="http://www.w3.org/2000/svg" xmlns:xlink="http://www.w3.org/1999/xlink">
<g id="graph0" class="graph" transform="scale(1 1) rotate(0) translate(4 475.5)">
<title>DynExp::InstrumentConfiguratorBase</title>
<polygon fill="white" stroke="transparent" points="-4,4 -4,-475.5 1740,-475.5 1740,4 -4,4"/>
<!-- Node1 -->
<g id="node1" class="node">
<title>Node1</title>
<g id="a_node1"><a xlink:title="Configurator class for InstrumentBase.">
<polygon fill="#bfbfbf" stroke="black" points="413,-137.5 413,-156.5 610,-156.5 610,-137.5 413,-137.5"/>
<text text-anchor="middle" x="511.5" y="-144.5" font-family="Helvetica,sans-Serif" font-size="10.00">DynExp::InstrumentConfiguratorBase</text>
</a>
</g>
</g>
<!-- Node4 -->
<g id="node4" class="node">
<title>Node4</title>
<g id="a_node4"><a xlink:href="classDynExpInstr_1_1CameraConfigurator.html" target="_top" xlink:title="Configurator class for Camera.">
<polygon fill="white" stroke="black" points="653,-370.5 653,-389.5 833,-389.5 833,-370.5 653,-370.5"/>
<text text-anchor="middle" x="743" y="-377.5" font-family="Helvetica,sans-Serif" font-size="10.00">DynExpInstr::CameraConfigurator</text>
</a>
</g>
</g>
<!-- Node1&#45;&gt;Node4 -->
<g id="edge3" class="edge">
<title>Node1&#45;&gt;Node4</title>
<path fill="none" stroke="midnightblue" d="M529.32,-164.08C574.44,-209.89 697.11,-334.43 732.39,-370.24"/>
<polygon fill="midnightblue" stroke="midnightblue" points="531.58,-161.38 522.07,-156.72 526.59,-166.3 531.58,-161.38"/>
</g>
<!-- Node7 -->
<g id="node7" class="node">
<title>Node7</title>
<g id="a_node7"><a xlink:href="classDynExpInstr_1_1DataStreamInstrumentConfigurator.html" target="_top" xlink:title="Configurator class for DataStreamInstrument.">
<polygon fill="white" stroke="black" points="646,-181 646,-211 840,-211 840,-181 646,-181"/>
<text text-anchor="start" x="654" y="-199" font-family="Helvetica,sans-Serif" font-size="10.00">DynExpInstr::DataStreamInstrument</text>
<text text-anchor="middle" x="743" y="-188" font-family="Helvetica,sans-Serif" font-size="10.00">Configurator</text>
</a>
</g>
</g>
<!-- Node1&#45;&gt;Node7 -->
<g id="edge6" class="edge">
<title>Node1&#45;&gt;Node7</title>
<path fill="none" stroke="midnightblue" d="M566.86,-158.61C598.13,-165.28 637.76,-173.74 671.41,-180.93"/>
<polygon fill="midnightblue" stroke="midnightblue" points="567.53,-155.17 557.02,-156.51 566.07,-162.02 567.53,-155.17"/>
</g>
<!-- Node27 -->
<g id="node27" class="node">
<title>Node27</title>
<g id="a_node27"><a xlink:href="classDynExpInstr_1_1InterModuleCommunicatorConfigurator.html" target="_top" xlink:title="Configurator class for InterModuleCommunicator.">
<polygon fill="white" stroke="black" points="668.5,-132 668.5,-162 817.5,-162 817.5,-132 668.5,-132"/>
<text text-anchor="start" x="676.5" y="-150" font-family="Helvetica,sans-Serif" font-size="10.00">DynExpInstr::InterModule</text>
<text text-anchor="middle" x="743" y="-139" font-family="Helvetica,sans-Serif" font-size="10.00">CommunicatorConfigurator</text>
</a>
</g>
</g>
<!-- Node1&#45;&gt;Node27 -->
<g id="edge26" class="edge">
<title>Node1&#45;&gt;Node27</title>
<path fill="none" stroke="midnightblue" d="M620.27,-147C636.57,-147 653.06,-147 668.42,-147"/>
<polygon fill="midnightblue" stroke="midnightblue" points="620.16,-143.5 610.16,-147 620.16,-150.5 620.16,-143.5"/>
</g>
<!-- Node28 -->
<g id="node28" class="node">
<title>Node28</title>
<g id="a_node28"><a xlink:href="classDynExpInstr_1_1PositionerStageConfigurator.html" target="_top" xlink:title="Configurator class for PositionerStage.">
<polygon fill="white" stroke="black" points="664,-83 664,-113 822,-113 822,-83 664,-83"/>
<text text-anchor="start" x="672" y="-101" font-family="Helvetica,sans-Serif" font-size="10.00">DynExpInstr::PositionerStage</text>
<text text-anchor="middle" x="743" y="-90" font-family="Helvetica,sans-Serif" font-size="10.00">Configurator</text>
</a>
</g>
</g>
<!-- Node1&#45;&gt;Node28 -->
<g id="edge27" class="edge">
<title>Node1&#45;&gt;Node28</title>
<path fill="none" stroke="midnightblue" d="M566.86,-135.39C598.13,-128.72 637.76,-120.26 671.41,-113.07"/>
<polygon fill="midnightblue" stroke="midnightblue" points="566.07,-131.98 557.02,-137.49 567.53,-138.83 566.07,-131.98"/>
</g>
<!-- Node32 -->
<g id="node32" class="node">
<title>Node32</title>
<g id="a_node32"><a xlink:href="classDynExpInstr_1_1SpectrometerConfigurator.html" target="_top" xlink:title="Configurator class for Spectrometer.">
<polygon fill="white" stroke="black" points="669,-34 669,-64 817,-64 817,-34 669,-34"/>
<text text-anchor="start" x="677" y="-52" font-family="Helvetica,sans-Serif" font-size="10.00">DynExpInstr::Spectrometer</text>
<text text-anchor="middle" x="743" y="-41" font-family="Helvetica,sans-Serif" font-size="10.00">Configurator</text>
</a>
</g>
</g>
<!-- Node1&#45;&gt;Node32 -->
<g id="edge31" class="edge">
<title>Node1&#45;&gt;Node32</title>
<path fill="none" stroke="midnightblue" d="M535.39,-131.87C561.28,-115.35 605.16,-89.1 646,-73 654.47,-69.66 663.55,-66.67 672.62,-64.04"/>
<polygon fill="midnightblue" stroke="midnightblue" points="533.2,-129.12 526.7,-137.48 537,-135 533.2,-129.12"/>
</g>
<!-- Node2 -->
<g id="node2" class="node">
<title>Node2</title>
<g id="a_node2"><a xlink:href="classDynExp_1_1RunnableObjectConfigurator.html" target="_top" xlink:title="Configurator class for RunnableObject.">
<polygon fill="white" stroke="black" points="180,-137.5 180,-156.5 377,-156.5 377,-137.5 180,-137.5"/>
<text text-anchor="middle" x="278.5" y="-144.5" font-family="Helvetica,sans-Serif" font-size="10.00">DynExp::RunnableObjectConfigurator</text>
</a>
</g>
</g>
<!-- Node2&#45;&gt;Node1 -->
<g id="edge1" class="edge">
<title>Node2&#45;&gt;Node1</title>
<path fill="none" stroke="midnightblue" d="M387.15,-147C395.72,-147 404.35,-147 412.85,-147"/>
<polygon fill="midnightblue" stroke="midnightblue" points="387.13,-143.5 377.13,-147 387.13,-150.5 387.13,-143.5"/>
</g>
<!-- Node3 -->
<g id="node3" class="node">
<title>Node3</title>
<g id="a_node3"><a xlink:href="classDynExp_1_1ConfiguratorBase.html" target="_top" xlink:title="The configurator classes have the task to generate parameter objects (refer to DynExp::ParamsBase) of...">
<polygon fill="white" stroke="black" points="0,-137.5 0,-156.5 144,-156.5 144,-137.5 0,-137.5"/>
<text text-anchor="middle" x="72" y="-144.5" font-family="Helvetica,sans-Serif" font-size="10.00">DynExp::ConfiguratorBase</text>
</a>
</g>
</g>
<!-- Node3&#45;&gt;Node2 -->
<g id="edge2" class="edge">
<title>Node3&#45;&gt;Node2</title>
<path fill="none" stroke="midnightblue" d="M154.36,-147C162.76,-147 171.35,-147 179.89,-147"/>
<polygon fill="midnightblue" stroke="midnightblue" points="154.24,-143.5 144.24,-147 154.24,-150.5 154.24,-143.5"/>
</g>
<!-- Node5 -->
<g id="node5" class="node">
<title>Node5</title>
<g id="a_node5"><a xlink:href="classDynExpInstr_1_1DummyCameraConfigurator.html" target="_top" xlink:title=" ">
<polygon fill="white" stroke="black" points="896,-409 896,-439 1055,-439 1055,-409 896,-409"/>
<text text-anchor="start" x="904" y="-427" font-family="Helvetica,sans-Serif" font-size="10.00">DynExpInstr::DummyCamera</text>
<text text-anchor="middle" x="975.5" y="-416" font-family="Helvetica,sans-Serif" font-size="10.00">Configurator</text>
</a>
</g>
</g>
<!-- Node4&#45;&gt;Node5 -->
<g id="edge4" class="edge">
<title>Node4&#45;&gt;Node5</title>
<path fill="none" stroke="midnightblue" d="M804.04,-391.46C831.99,-396.8 865.61,-403.21 895.58,-408.93"/>
<polygon fill="midnightblue" stroke="midnightblue" points="804.49,-387.98 794.02,-389.55 803.18,-394.86 804.49,-387.98"/>
</g>
<!-- Node6 -->
<g id="node6" class="node">
<title>Node6</title>
<g id="a_node6"><a xlink:href="classDynExpInstr_1_1PVCamConfigurator.html" target="_top" xlink:title=" ">
<polygon fill="white" stroke="black" points="887,-370.5 887,-389.5 1064,-389.5 1064,-370.5 887,-370.5"/>
<text text-anchor="middle" x="975.5" y="-377.5" font-family="Helvetica,sans-Serif" font-size="10.00">DynExpInstr::PVCamConfigurator</text>
</a>
</g>
</g>
<!-- Node4&#45;&gt;Node6 -->
<g id="edge5" class="edge">
<title>Node4&#45;&gt;Node6</title>
<path fill="none" stroke="midnightblue" d="M843.52,-380C857.91,-380 872.63,-380 886.76,-380"/>
<polygon fill="midnightblue" stroke="midnightblue" points="843.12,-376.5 833.12,-380 843.12,-383.5 843.12,-376.5"/>
</g>
<!-- Node8 -->
<g id="node8" class="node">
<title>Node8</title>
<g id="a_node8"><a xlink:href="classDynExpInstr_1_1FunctionGeneratorConfigurator.html" target="_top" xlink:title="Configurator class for FunctionGenerator.">
<polygon fill="white" stroke="black" points="889.5,-321 889.5,-351 1061.5,-351 1061.5,-321 889.5,-321"/>
<text text-anchor="start" x="897.5" y="-339" font-family="Helvetica,sans-Serif" font-size="10.00">DynExpInstr::FunctionGenerator</text>
<text text-anchor="middle" x="975.5" y="-328" font-family="Helvetica,sans-Serif" font-size="10.00">Configurator</text>
</a>
</g>
</g>
<!-- Node7&#45;&gt;Node8 -->
<g id="edge7" class="edge">
<title>Node7&#45;&gt;Node8</title>
<path fill="none" stroke="midnightblue" d="M777.68,-216.46C824.53,-244.91 908.27,-295.77 949.77,-320.98"/>
<polygon fill="midnightblue" stroke="midnightblue" points="779.47,-213.45 769.11,-211.25 775.84,-219.43 779.47,-213.45"/>
</g>
<!-- Node18 -->
<g id="node18" class="node">
<title>Node18</title>
<g id="a_node18"><a xlink:href="classDynExpInstr_1_1InputPortConfigurator.html" target="_top" xlink:title="Configurator class for InputPort.">
<polygon fill="white" stroke="black" points="882.5,-225.5 882.5,-244.5 1068.5,-244.5 1068.5,-225.5 882.5,-225.5"/>
<text text-anchor="middle" x="975.5" y="-232.5" font-family="Helvetica,sans-Serif" font-size="10.00">DynExpInstr::InputPortConfigurator</text>
</a>
</g>
</g>
<!-- Node7&#45;&gt;Node18 -->
<g id="edge17" class="edge">
<title>Node7&#45;&gt;Node18</title>
<path fill="none" stroke="midnightblue" d="M842.95,-212.74C868.63,-217.09 895.43,-221.62 918.08,-225.45"/>
<polygon fill="midnightblue" stroke="midnightblue" points="843.23,-209.24 832.79,-211.02 842.06,-216.14 843.23,-209.24"/>
</g>
<!-- Node23 -->
<g id="node23" class="node">
<title>Node23</title>
<g id="a_node23"><a xlink:href="classDynExpInstr_1_1LockinAmplifierConfigurator.html" target="_top" xlink:title="Configurator class for LockinAmplifier.">
<polygon fill="white" stroke="black" points="896.5,-176 896.5,-206 1054.5,-206 1054.5,-176 896.5,-176"/>
<text text-anchor="start" x="904.5" y="-194" font-family="Helvetica,sans-Serif" font-size="10.00">DynExpInstr::LockinAmplifier</text>
<text text-anchor="middle" x="975.5" y="-183" font-family="Helvetica,sans-Serif" font-size="10.00">Configurator</text>
</a>
</g>
</g>
<!-- Node7&#45;&gt;Node23 -->
<g id="edge22" class="edge">
<title>Node7&#45;&gt;Node23</title>
<path fill="none" stroke="midnightblue" d="M850.26,-193.69C865.81,-193.36 881.59,-193.02 896.44,-192.69"/>
<polygon fill="midnightblue" stroke="midnightblue" points="850.01,-190.2 840.08,-193.92 850.16,-197.2 850.01,-190.2"/>
</g>
<!-- Node25 -->
<g id="node25" class="node">
<title>Node25</title>
<g id="a_node25"><a xlink:href="classDynExpInstr_1_1TimeTaggerConfigurator.html" target="_top" xlink:title="Configurator class for TimeTagger.">
<polygon fill="white" stroke="black" points="876,-137.5 876,-156.5 1075,-156.5 1075,-137.5 876,-137.5"/>
<text text-anchor="middle" x="975.5" y="-144.5" font-family="Helvetica,sans-Serif" font-size="10.00">DynExpInstr::TimeTaggerConfigurator</text>
</a>
</g>
</g>
<!-- Node7&#45;&gt;Node25 -->
<g id="edge24" class="edge">
<title>Node7&#45;&gt;Node25</title>
<path fill="none" stroke="midnightblue" d="M821.29,-178.8C839.24,-174.87 858.28,-170.75 876,-167 892.56,-163.5 910.71,-159.78 926.87,-156.51"/>
<polygon fill="midnightblue" stroke="midnightblue" points="820.46,-175.4 811.45,-180.97 821.96,-182.24 820.46,-175.4"/>
</g>
<!-- Node9 -->
<g id="node9" class="node">
<title>Node9</title>
<g id="a_node9"><a xlink:href="classDynExpInstr_1_1DummyDataStreamInstrumentConfigurator.html" target="_top" xlink:title=" ">
<polygon fill="white" stroke="black" points="1127.5,-441 1127.5,-471 1306.5,-471 1306.5,-441 1127.5,-441"/>
<text text-anchor="start" x="1135.5" y="-459" font-family="Helvetica,sans-Serif" font-size="10.00">DynExpInstr::DummyDataStream</text>
<text text-anchor="middle" x="1217" y="-448" font-family="Helvetica,sans-Serif" font-size="10.00">InstrumentConfigurator</text>
</a>
</g>
</g>
<!-- Node8&#45;&gt;Node9 -->
<g id="edge8" class="edge">
<title>Node8&#45;&gt;Node9</title>
<path fill="none" stroke="midnightblue" d="M1068.38,-356.28C1070.67,-357.75 1072.89,-359.32 1075,-361 1102.37,-382.78 1083.47,-409.42 1111,-431 1116.01,-434.93 1121.55,-438.26 1127.38,-441.07"/>
<polygon fill="midnightblue" stroke="midnightblue" points="1069.61,-352.96 1059.18,-351.13 1066.19,-359.07 1069.61,-352.96"/>
</g>
<!-- Node10 -->
<g id="node10" class="node">
<title>Node10</title>
<g id="a_node10"><a xlink:href="classDynExpInstr_1_1OutputPortConfigurator.html" target="_top" xlink:title="Configurator class for OutputPort.">
<polygon fill="white" stroke="black" points="1120,-402.5 1120,-421.5 1314,-421.5 1314,-402.5 1120,-402.5"/>
<text text-anchor="middle" x="1217" y="-409.5" font-family="Helvetica,sans-Serif" font-size="10.00">DynExpInstr::OutputPortConfigurator</text>
</a>
</g>
</g>
<!-- Node8&#45;&gt;Node10 -->
<g id="edge9" class="edge">
<title>Node8&#45;&gt;Node10</title>
<path fill="none" stroke="midnightblue" d="M1061.01,-354.53C1065.84,-356.48 1070.54,-358.63 1075,-361 1093.91,-371.03 1091.75,-383.63 1111,-393 1119,-396.89 1127.68,-399.99 1136.53,-402.46"/>
<polygon fill="midnightblue" stroke="midnightblue" points="1062.2,-351.24 1051.61,-351.01 1059.75,-357.79 1062.2,-351.24"/>
</g>
<!-- Node15 -->
<g id="node15" class="node">
<title>Node15</title>
<g id="a_node15"><a xlink:href="classDynExpInstr_1_1RS__SMB100BConfigurator.html" target="_top" xlink:title=" ">
<polygon fill="white" stroke="black" points="1114,-364.5 1114,-383.5 1320,-383.5 1320,-364.5 1114,-364.5"/>
<text text-anchor="middle" x="1217" y="-371.5" font-family="Helvetica,sans-Serif" font-size="10.00">DynExpInstr::RS_SMB100BConfigurator</text>
</a>
</g>
</g>
<!-- Node8&#45;&gt;Node15 -->
<g id="edge14" class="edge">
<title>Node8&#45;&gt;Node15</title>
<path fill="none" stroke="midnightblue" d="M1071.59,-351.09C1100.04,-355.6 1130.44,-360.42 1155.97,-364.48"/>
<polygon fill="midnightblue" stroke="midnightblue" points="1072.04,-347.61 1061.61,-349.5 1070.94,-354.53 1072.04,-347.61"/>
</g>
<!-- Node16 -->
<g id="node16" class="node">
<title>Node16</title>
<g id="a_node16"><a xlink:href="classDynExpInstr_1_1RS__SMC100AConfigurator.html" target="_top" xlink:title=" ">
<polygon fill="white" stroke="black" points="1114,-326.5 1114,-345.5 1320,-345.5 1320,-326.5 1114,-326.5"/>
<text text-anchor="middle" x="1217" y="-333.5" font-family="Helvetica,sans-Serif" font-size="10.00">DynExpInstr::RS_SMC100AConfigurator</text>
</a>
</g>
</g>
<!-- Node8&#45;&gt;Node16 -->
<g id="edge15" class="edge">
<title>Node8&#45;&gt;Node16</title>
<path fill="none" stroke="midnightblue" d="M1071.64,-336C1085.55,-336 1099.91,-336 1113.95,-336"/>
<polygon fill="midnightblue" stroke="midnightblue" points="1071.61,-332.5 1061.61,-336 1071.61,-339.5 1071.61,-332.5"/>
</g>
<!-- Node17 -->
<g id="node17" class="node">
<title>Node17</title>
<g id="a_node17"><a xlink:href="classDynExpInstr_1_1SwabianInstrumentsPulseStreamerConfigurator.html" target="_top" xlink:title=" ">
<polygon fill="white" stroke="black" points="1126,-277 1126,-307 1308,-307 1308,-277 1126,-277"/>
<text text-anchor="start" x="1134" y="-295" font-family="Helvetica,sans-Serif" font-size="10.00">DynExpInstr::SwabianInstruments</text>
<text text-anchor="middle" x="1217" y="-284" font-family="Helvetica,sans-Serif" font-size="10.00">PulseStreamerConfigurator</text>
</a>
</g>
</g>
<!-- Node8&#45;&gt;Node17 -->
<g id="edge16" class="edge">
<title>Node8&#45;&gt;Node17</title>
<path fill="none" stroke="midnightblue" d="M1068.14,-319.16C1089.88,-315.17 1112.94,-310.93 1134.21,-307.03"/>
<polygon fill="midnightblue" stroke="midnightblue" points="1067.46,-315.73 1058.25,-320.98 1068.72,-322.62 1067.46,-315.73"/>
</g>
<!-- Node11 -->
<g id="node11" class="node">
<title>Node11</title>
<g id="a_node11"><a xlink:href="classDynExpInstr_1_1AnalogOutConfigurator.html" target="_top" xlink:title="Configurator class for AnalogOut.">
<polygon fill="white" stroke="black" points="1359,-423.5 1359,-442.5 1552,-442.5 1552,-423.5 1359,-423.5"/>
<text text-anchor="middle" x="1455.5" y="-430.5" font-family="Helvetica,sans-Serif" font-size="10.00">DynExpInstr::AnalogOutConfigurator</text>
</a>
</g>
</g>
<!-- Node10&#45;&gt;Node11 -->
<g id="edge10" class="edge">
<title>Node10&#45;&gt;Node11</title>
<path fill="none" stroke="midnightblue" d="M1324.25,-421.43C1335.75,-422.46 1347.41,-423.49 1358.78,-424.5"/>
<polygon fill="midnightblue" stroke="midnightblue" points="1324.46,-417.94 1314.19,-420.54 1323.84,-424.91 1324.46,-417.94"/>
</g>
<!-- Node13 -->
<g id="node13" class="node">
<title>Node13</title>
<g id="a_node13"><a xlink:href="classDynExpInstr_1_1DigitalOutConfigurator.html" target="_top" xlink:title="Configurator class for DigitalOut.">
<polygon fill="white" stroke="black" points="1360,-380.5 1360,-399.5 1551,-399.5 1551,-380.5 1360,-380.5"/>
<text text-anchor="middle" x="1455.5" y="-387.5" font-family="Helvetica,sans-Serif" font-size="10.00">DynExpInstr::DigitalOutConfigurator</text>
</a>
</g>
</g>
<!-- Node10&#45;&gt;Node13 -->
<g id="edge12" class="edge">
<title>Node10&#45;&gt;Node13</title>
<path fill="none" stroke="midnightblue" d="M1324.16,-402.12C1336.08,-401.02 1348.16,-399.89 1359.92,-398.8"/>
<polygon fill="midnightblue" stroke="midnightblue" points="1323.83,-398.64 1314.19,-403.05 1324.47,-405.61 1323.83,-398.64"/>
</g>
<!-- Node12 -->
<g id="node12" class="node">
<title>Node12</title>
<g id="a_node12"><a xlink:href="classDynExpInstr_1_1NIDAQAnalogOutConfigurator.html" target="_top" xlink:title=" ">
<polygon fill="white" stroke="black" points="1588,-421 1588,-451 1736,-451 1736,-421 1588,-421"/>
<text text-anchor="start" x="1596" y="-439" font-family="Helvetica,sans-Serif" font-size="10.00">DynExpInstr::NIDAQAnalog</text>
<text text-anchor="middle" x="1662" y="-428" font-family="Helvetica,sans-Serif" font-size="10.00">OutConfigurator</text>
</a>
</g>
</g>
<!-- Node11&#45;&gt;Node12 -->
<g id="edge11" class="edge">
<title>Node11&#45;&gt;Node12</title>
<path fill="none" stroke="midnightblue" d="M1562.26,-434.55C1570.87,-434.68 1579.44,-434.8 1587.73,-434.93"/>
<polygon fill="midnightblue" stroke="midnightblue" points="1562.21,-431.05 1552.16,-434.4 1562.11,-438.05 1562.21,-431.05"/>
</g>
<!-- Node14 -->
<g id="node14" class="node">
<title>Node14</title>
<g id="a_node14"><a xlink:href="classDynExpInstr_1_1NIDAQDigitalOutConfigurator.html" target="_top" xlink:title=" ">
<polygon fill="white" stroke="black" points="1589,-372 1589,-402 1735,-402 1735,-372 1589,-372"/>
<text text-anchor="start" x="1597" y="-390" font-family="Helvetica,sans-Serif" font-size="10.00">DynExpInstr::NIDAQDigital</text>
<text text-anchor="middle" x="1662" y="-379" font-family="Helvetica,sans-Serif" font-size="10.00">OutConfigurator</text>
</a>
</g>
</g>
<!-- Node13&#45;&gt;Node14 -->
<g id="edge13" class="edge">
<title>Node13&#45;&gt;Node14</title>
<path fill="none" stroke="midnightblue" d="M1561.36,-388.46C1570.66,-388.33 1579.94,-388.19 1588.87,-388.06"/>
<polygon fill="midnightblue" stroke="midnightblue" points="1561.21,-384.96 1551.27,-388.61 1561.32,-391.96 1561.21,-384.96"/>
</g>
<!-- Node19 -->
<g id="node19" class="node">
<title>Node19</title>
<g id="a_node19"><a xlink:href="classDynExpInstr_1_1AnalogInConfigurator.html" target="_top" xlink:title="Configurator class for AnalogIn.">
<polygon fill="white" stroke="black" points="1124.5,-238.5 1124.5,-257.5 1309.5,-257.5 1309.5,-238.5 1124.5,-238.5"/>
<text text-anchor="middle" x="1217" y="-245.5" font-family="Helvetica,sans-Serif" font-size="10.00">DynExpInstr::AnalogInConfigurator</text>
</a>
</g>
</g>
<!-- Node18&#45;&gt;Node19 -->
<g id="edge18" class="edge">
<title>Node18&#45;&gt;Node19</title>
<path fill="none" stroke="midnightblue" d="M1079.07,-240.57C1094.06,-241.38 1109.43,-242.22 1124.19,-243.02"/>
<polygon fill="midnightblue" stroke="midnightblue" points="1078.93,-237.05 1068.75,-240.01 1078.55,-244.04 1078.93,-237.05"/>
</g>
<!-- Node21 -->
<g id="node21" class="node">
<title>Node21</title>
<g id="a_node21"><a xlink:href="classDynExpInstr_1_1DigitalInConfigurator.html" target="_top" xlink:title="Configurator class for DigitalIn.">
<polygon fill="white" stroke="black" points="1125.5,-200.5 1125.5,-219.5 1308.5,-219.5 1308.5,-200.5 1125.5,-200.5"/>
<text text-anchor="middle" x="1217" y="-207.5" font-family="Helvetica,sans-Serif" font-size="10.00">DynExpInstr::DigitalInConfigurator</text>
</a>
</g>
</g>
<!-- Node18&#45;&gt;Node21 -->
<g id="edge20" class="edge">
<title>Node18&#45;&gt;Node21</title>
<path fill="none" stroke="midnightblue" d="M1078,-224.4C1093.75,-222.76 1109.93,-221.07 1125.42,-219.45"/>
<polygon fill="midnightblue" stroke="midnightblue" points="1077.31,-220.96 1067.73,-225.48 1078.04,-227.92 1077.31,-220.96"/>
</g>
<!-- Node20 -->
<g id="node20" class="node">
<title>Node20</title>
<g id="a_node20"><a xlink:href="classDynExpInstr_1_1NIDAQAnalogInConfigurator.html" target="_top" xlink:title=" ">
<polygon fill="white" stroke="black" points="1381.5,-238 1381.5,-268 1529.5,-268 1529.5,-238 1381.5,-238"/>
<text text-anchor="start" x="1389.5" y="-256" font-family="Helvetica,sans-Serif" font-size="10.00">DynExpInstr::NIDAQAnalog</text>
<text text-anchor="middle" x="1455.5" y="-245" font-family="Helvetica,sans-Serif" font-size="10.00">InConfigurator</text>
</a>
</g>
</g>
<!-- Node19&#45;&gt;Node20 -->
<g id="edge19" class="edge">
<title>Node19&#45;&gt;Node20</title>
<path fill="none" stroke="midnightblue" d="M1319.88,-250.15C1340.59,-250.59 1361.99,-251.04 1381.46,-251.46"/>
<polygon fill="midnightblue" stroke="midnightblue" points="1319.85,-246.65 1309.78,-249.94 1319.7,-253.65 1319.85,-246.65"/>
</g>
<!-- Node22 -->
<g id="node22" class="node">
<title>Node22</title>
<g id="a_node22"><a xlink:href="classDynExpInstr_1_1NIDAQDigitalInConfigurator.html" target="_top" xlink:title=" ">
<polygon fill="white" stroke="black" points="1382.5,-189 1382.5,-219 1528.5,-219 1528.5,-189 1382.5,-189"/>
<text text-anchor="start" x="1390.5" y="-207" font-family="Helvetica,sans-Serif" font-size="10.00">DynExpInstr::NIDAQDigital</text>
<text text-anchor="middle" x="1455.5" y="-196" font-family="Helvetica,sans-Serif" font-size="10.00">InConfigurator</text>
</a>
</g>
</g>
<!-- Node21&#45;&gt;Node22 -->
<g id="edge21" class="edge">
<title>Node21&#45;&gt;Node22</title>
<path fill="none" stroke="midnightblue" d="M1318.83,-207.44C1340.18,-206.9 1362.3,-206.34 1382.33,-205.83"/>
<polygon fill="midnightblue" stroke="midnightblue" points="1318.67,-203.94 1308.76,-207.7 1318.85,-210.94 1318.67,-203.94"/>
</g>
<!-- Node24 -->
<g id="node24" class="node">
<title>Node24</title>
<g id="a_node24"><a xlink:href="classDynExpInstr_1_1ZI__MFLIConfigurator.html" target="_top" xlink:title=" ">
<polygon fill="white" stroke="black" points="1127,-162.5 1127,-181.5 1307,-181.5 1307,-162.5 1127,-162.5"/>
<text text-anchor="middle" x="1217" y="-169.5" font-family="Helvetica,sans-Serif" font-size="10.00">DynExpInstr::ZI_MFLIConfigurator</text>
</a>
</g>
</g>
<!-- Node23&#45;&gt;Node24 -->
<g id="edge23" class="edge">
<title>Node23&#45;&gt;Node24</title>
<path fill="none" stroke="midnightblue" d="M1064.73,-184C1084.97,-182.39 1106.51,-180.69 1126.8,-179.08"/>
<polygon fill="midnightblue" stroke="midnightblue" points="1064.28,-180.53 1054.59,-184.8 1064.84,-187.5 1064.28,-180.53"/>
</g>
<!-- Node26 -->
<g id="node26" class="node">
<title>Node26</title>
<g id="a_node26"><a xlink:href="classDynExpInstr_1_1QutoolsQuTAGConfigurator.html" target="_top" xlink:title=" ">
<polygon fill="white" stroke="black" points="1111,-124.5 1111,-143.5 1323,-143.5 1323,-124.5 1111,-124.5"/>
<text text-anchor="middle" x="1217" y="-131.5" font-family="Helvetica,sans-Serif" font-size="10.00">DynExpInstr::QutoolsQuTAGConfigurator</text>
</a>
</g>
</g>
<!-- Node25&#45;&gt;Node26 -->
<g id="edge25" class="edge">
<title>Node25&#45;&gt;Node26</title>
<path fill="none" stroke="midnightblue" d="M1085.52,-141.08C1093.95,-140.63 1102.44,-140.16 1110.83,-139.71"/>
<polygon fill="midnightblue" stroke="midnightblue" points="1085.09,-137.6 1075.3,-141.64 1085.47,-144.59 1085.09,-137.6"/>
</g>
<!-- Node29 -->
<g id="node29" class="node">
<title>Node29</title>
<g id="a_node29"><a xlink:href="classDynExpInstr_1_1NenionLeakvalveF3Configurator.html" target="_top" xlink:title=" ">
<polygon fill="white" stroke="black" points="892,-88 892,-118 1059,-118 1059,-88 892,-88"/>
<text text-anchor="start" x="900" y="-106" font-family="Helvetica,sans-Serif" font-size="10.00">DynExpInstr::NenionLeakvalve</text>
<text text-anchor="middle" x="975.5" y="-95" font-family="Helvetica,sans-Serif" font-size="10.00">F3Configurator</text>
</a>
</g>
</g>
<!-- Node28&#45;&gt;Node29 -->
<g id="edge28" class="edge">
<title>Node28&#45;&gt;Node29</title>
<path fill="none" stroke="midnightblue" d="M832.17,-99.91C851.76,-100.34 872.45,-100.79 891.81,-101.21"/>
<polygon fill="midnightblue" stroke="midnightblue" points="832.11,-96.41 822.04,-99.69 831.96,-103.41 832.11,-96.41"/>
</g>
<!-- Node30 -->
<g id="node30" class="node">
<title>Node30</title>
<g id="a_node30"><a xlink:href="classDynExpInstr_1_1PI__C__862__Configurator.html" target="_top" xlink:title=" ">
<polygon fill="white" stroke="black" points="912.5,-39 912.5,-69 1038.5,-69 1038.5,-39 912.5,-39"/>
<text text-anchor="start" x="920.5" y="-57" font-family="Helvetica,sans-Serif" font-size="10.00">DynExpInstr::PI_C_862</text>
<text text-anchor="middle" x="975.5" y="-46" font-family="Helvetica,sans-Serif" font-size="10.00">_Configurator</text>
</a>
</g>
</g>
<!-- Node28&#45;&gt;Node30 -->
<g id="edge29" class="edge">
<title>Node28&#45;&gt;Node30</title>
<path fill="none" stroke="midnightblue" d="M832.15,-81.17C858.83,-76.08 887.57,-70.59 912.19,-65.89"/>
<polygon fill="midnightblue" stroke="midnightblue" points="831.2,-77.79 822.04,-83.1 832.52,-84.67 831.2,-77.79"/>
</g>
<!-- Node31 -->
<g id="node31" class="node">
<title>Node31</title>
<g id="a_node31"><a xlink:href="classDynExpInstr_1_1SmarActConfigurator.html" target="_top" xlink:title=" ">
<polygon fill="white" stroke="black" points="884,-0.5 884,-19.5 1067,-19.5 1067,-0.5 884,-0.5"/>
<text text-anchor="middle" x="975.5" y="-7.5" font-family="Helvetica,sans-Serif" font-size="10.00">DynExpInstr::SmarActConfigurator</text>
</a>
</g>
</g>
<!-- Node28&#45;&gt;Node31 -->
<g id="edge30" class="edge">
<title>Node28&#45;&gt;Node31</title>
<path fill="none" stroke="midnightblue" d="M829.54,-78.87C833.16,-77.09 836.67,-75.13 840,-73 861.27,-59.37 854.3,-41.94 876,-29 882.51,-25.12 889.65,-22.01 897.01,-19.52"/>
<polygon fill="midnightblue" stroke="midnightblue" points="828.04,-75.71 820.33,-82.98 830.89,-82.11 828.04,-75.71"/>
</g>
</g>
</svg>
