<?xml version="1.0" encoding="UTF-8" standalone="no"?>
<!DOCTYPE svg PUBLIC "-//W3C//DTD SVG 1.1//EN"
 "http://www.w3.org/Graphics/SVG/1.1/DTD/svg11.dtd">
<!-- Generated by graphviz version 2.43.0 (0)
 -->
<!-- Title: DynExpInstr::WidefieldLocalizationTasks::AnalyzeWidefieldTask Pages: 1 -->
<svg width="318pt" height="106pt"
 viewBox="0.00 0.00 318.00 106.00" xmlns="http://www.w3.org/2000/svg" xmlns:xlink="http://www.w3.org/1999/xlink">
<g id="graph0" class="graph" transform="scale(1 1) rotate(0) translate(4 102)">
<title>DynExpInstr::WidefieldLocalizationTasks::AnalyzeWidefieldTask</title>
<polygon fill="white" stroke="transparent" points="-4,4 -4,-102 314,-102 314,4 -4,4"/>
<!-- Node1 -->
<g id="node1" class="node">
<title>Node1</title>
<g id="a_node1"><a xlink:title=" ">
<polygon fill="#bfbfbf" stroke="black" points="42,-0.5 42,-30.5 228,-30.5 228,-0.5 42,-0.5"/>
<text text-anchor="start" x="50" y="-18.5" font-family="Helvetica,sans-Serif" font-size="10.00">DynExpInstr::WidefieldLocalization</text>
<text text-anchor="middle" x="135" y="-7.5" font-family="Helvetica,sans-Serif" font-size="10.00">Tasks::AnalyzeWidefieldTask</text>
</a>
</g>
</g>
<!-- Node2 -->
<g id="node2" class="node">
<title>Node2</title>
<g id="a_node2"><a xlink:href="classDynExp_1_1TaskBase.html" target="_top" xlink:title="Base class for all tasks being processed by instruments. The class must not contain public virtual fu...">
<polygon fill="white" stroke="black" points="0,-73 0,-92 106,-92 106,-73 0,-73"/>
<text text-anchor="middle" x="53" y="-80" font-family="Helvetica,sans-Serif" font-size="10.00">DynExp::TaskBase</text>
</a>
</g>
</g>
<!-- Node2&#45;&gt;Node1 -->
<g id="edge1" class="edge">
<title>Node2&#45;&gt;Node1</title>
<path fill="none" stroke="midnightblue" d="M72.25,-66.24C85.86,-55.45 103.96,-41.1 117.23,-30.59"/>
<polygon fill="midnightblue" stroke="midnightblue" points="69.72,-63.78 64.06,-72.73 74.07,-69.26 69.72,-63.78"/>
</g>
<!-- Node3 -->
<g id="node3" class="node">
<title>Node3</title>
<g id="a_node3"><a xlink:href="classDynExpInstr_1_1WidefieldLocalizationTasks_1_1ImageProcessingTaskBase.html" target="_top" xlink:title=" ">
<polygon fill="white" stroke="black" points="124,-67.5 124,-97.5 310,-97.5 310,-67.5 124,-67.5"/>
<text text-anchor="start" x="132" y="-85.5" font-family="Helvetica,sans-Serif" font-size="10.00">DynExpInstr::WidefieldLocalization</text>
<text text-anchor="middle" x="217" y="-74.5" font-family="Helvetica,sans-Serif" font-size="10.00">Tasks::ImageProcessingTaskBase</text>
</a>
</g>
</g>
<!-- Node3&#45;&gt;Node1 -->
<g id="edge2" class="edge">
<title>Node3&#45;&gt;Node1</title>
<path fill="none" stroke="#8b1a1a" d="M191.35,-61.17C178.81,-51.23 164.03,-39.51 152.76,-30.58"/>
<polygon fill="#8b1a1a" stroke="#8b1a1a" points="189.2,-63.93 199.21,-67.4 193.54,-58.44 189.2,-63.93"/>
</g>
</g>
</svg>
