<?xml version="1.0" encoding="UTF-8" standalone="no"?>
<!DOCTYPE svg PUBLIC "-//W3C//DTD SVG 1.1//EN"
 "http://www.w3.org/Graphics/SVG/1.1/DTD/svg11.dtd">
<!-- Generated by graphviz version 2.43.0 (0)
 -->
<!-- Title: DynExpInstr::CameraData Pages: 1 -->
<svg width="348pt" height="263pt"
 viewBox="0.00 0.00 348.00 263.00" xmlns="http://www.w3.org/2000/svg" xmlns:xlink="http://www.w3.org/1999/xlink">
<g id="graph0" class="graph" transform="scale(1 1) rotate(0) translate(4 259)">
<title>DynExpInstr::CameraData</title>
<polygon fill="white" stroke="transparent" points="-4,4 -4,-259 344,-259 344,4 -4,4"/>
<!-- Node1 -->
<g id="node1" class="node">
<title>Node1</title>
<g id="a_node1"><a xlink:title="Data class for Camera.">
<polygon fill="#bfbfbf" stroke="black" points="108.5,-56.5 108.5,-75.5 251.5,-75.5 251.5,-56.5 108.5,-56.5"/>
<text text-anchor="middle" x="180" y="-63.5" font-family="Helvetica,sans-Serif" font-size="10.00">DynExpInstr::CameraData</text>
</a>
</g>
</g>
<!-- Node5 -->
<g id="node5" class="node">
<title>Node5</title>
<g id="a_node5"><a xlink:href="classDynExpInstr_1_1DummyCameraData.html" target="_top" xlink:title=" ">
<polygon fill="white" stroke="black" points="0,-0.5 0,-19.5 182,-19.5 182,-0.5 0,-0.5"/>
<text text-anchor="middle" x="91" y="-7.5" font-family="Helvetica,sans-Serif" font-size="10.00">DynExpInstr::DummyCameraData</text>
</a>
</g>
</g>
<!-- Node1&#45;&gt;Node5 -->
<g id="edge4" class="edge">
<title>Node1&#45;&gt;Node5</title>
<path fill="none" stroke="midnightblue" d="M156.76,-50.9C140.44,-41 119.13,-28.07 105.26,-19.65"/>
<polygon fill="midnightblue" stroke="midnightblue" points="155.34,-54.13 165.7,-56.32 158.97,-48.14 155.34,-54.13"/>
</g>
<!-- Node6 -->
<g id="node6" class="node">
<title>Node6</title>
<g id="a_node6"><a xlink:href="classDynExpInstr_1_1PVCamData.html" target="_top" xlink:title=" ">
<polygon fill="white" stroke="black" points="200,-0.5 200,-19.5 340,-19.5 340,-0.5 200,-0.5"/>
<text text-anchor="middle" x="270" y="-7.5" font-family="Helvetica,sans-Serif" font-size="10.00">DynExpInstr::PVCamData</text>
</a>
</g>
</g>
<!-- Node1&#45;&gt;Node6 -->
<g id="edge5" class="edge">
<title>Node1&#45;&gt;Node6</title>
<path fill="none" stroke="midnightblue" d="M203.04,-51.18C219.6,-41.24 241.42,-28.15 255.58,-19.65"/>
<polygon fill="midnightblue" stroke="midnightblue" points="201.23,-48.18 194.46,-56.32 204.84,-54.18 201.23,-48.18"/>
</g>
<!-- Node2 -->
<g id="node2" class="node">
<title>Node2</title>
<g id="a_node2"><a xlink:href="classDynExp_1_1InstrumentDataBase.html" target="_top" xlink:title="Data structure to contain data which is synchronized in between different threads....">
<polygon fill="white" stroke="black" points="99.5,-112.5 99.5,-131.5 260.5,-131.5 260.5,-112.5 99.5,-112.5"/>
<text text-anchor="middle" x="180" y="-119.5" font-family="Helvetica,sans-Serif" font-size="10.00">DynExp::InstrumentDataBase</text>
</a>
</g>
</g>
<!-- Node2&#45;&gt;Node1 -->
<g id="edge1" class="edge">
<title>Node2&#45;&gt;Node1</title>
<path fill="none" stroke="midnightblue" d="M180,-101.8C180,-92.91 180,-82.78 180,-75.75"/>
<polygon fill="midnightblue" stroke="midnightblue" points="176.5,-102.08 180,-112.08 183.5,-102.08 176.5,-102.08"/>
</g>
<!-- Node3 -->
<g id="node3" class="node">
<title>Node3</title>
<g id="a_node3"><a xlink:href="classUtil_1_1ISynchronizedPointerLockable.html" target="_top" xlink:title="Interface to allow synchronizing the access to derived classes between different threads by making th...">
<polygon fill="white" stroke="black" points="108.5,-168.5 108.5,-198.5 251.5,-198.5 251.5,-168.5 108.5,-168.5"/>
<text text-anchor="start" x="116.5" y="-186.5" font-family="Helvetica,sans-Serif" font-size="10.00">Util::ISynchronizedPointer</text>
<text text-anchor="middle" x="180" y="-175.5" font-family="Helvetica,sans-Serif" font-size="10.00">Lockable</text>
</a>
</g>
</g>
<!-- Node3&#45;&gt;Node2 -->
<g id="edge2" class="edge">
<title>Node3&#45;&gt;Node2</title>
<path fill="none" stroke="midnightblue" d="M180,-158.29C180,-148.86 180,-138.65 180,-131.66"/>
<polygon fill="midnightblue" stroke="midnightblue" points="176.5,-158.4 180,-168.4 183.5,-158.4 176.5,-158.4"/>
</g>
<!-- Node4 -->
<g id="node4" class="node">
<title>Node4</title>
<g id="a_node4"><a xlink:href="classUtil_1_1INonCopyable.html" target="_top" xlink:title="Interface to delete copy constructor and copy assignment operator and thus make derived classes non&#45;c...">
<polygon fill="white" stroke="black" points="126,-235.5 126,-254.5 234,-254.5 234,-235.5 126,-235.5"/>
<text text-anchor="middle" x="180" y="-242.5" font-family="Helvetica,sans-Serif" font-size="10.00">Util::INonCopyable</text>
</a>
</g>
</g>
<!-- Node4&#45;&gt;Node3 -->
<g id="edge3" class="edge">
<title>Node4&#45;&gt;Node3</title>
<path fill="none" stroke="midnightblue" d="M180,-225.23C180,-216.59 180,-206.5 180,-198.52"/>
<polygon fill="midnightblue" stroke="midnightblue" points="176.5,-225.48 180,-235.48 183.5,-225.48 176.5,-225.48"/>
</g>
</g>
</svg>
