<?xml version="1.0" encoding="UTF-8" standalone="no"?>
<!DOCTYPE svg PUBLIC "-//W3C//DTD SVG 1.1//EN"
 "http://www.w3.org/Graphics/SVG/1.1/DTD/svg11.dtd">
<!-- Generated by graphviz version 2.43.0 (0)
 -->
<!-- Title: DynExpModule::SignalDesignerData Pages: 1 -->
<svg width="201pt" height="263pt"
 viewBox="0.00 0.00 201.00 263.00" xmlns="http://www.w3.org/2000/svg" xmlns:xlink="http://www.w3.org/1999/xlink">
<g id="graph0" class="graph" transform="scale(1 1) rotate(0) translate(4 259)">
<title>DynExpModule::SignalDesignerData</title>
<polygon fill="white" stroke="transparent" points="-4,4 -4,-259 197,-259 197,4 -4,4"/>
<!-- Node1 -->
<g id="node1" class="node">
<title>Node1</title>
<g id="a_node1"><a xlink:title=" ">
<polygon fill="#bfbfbf" stroke="black" points="0,-0.5 0,-19.5 193,-19.5 193,-0.5 0,-0.5"/>
<text text-anchor="middle" x="96.5" y="-7.5" font-family="Helvetica,sans-Serif" font-size="10.00">DynExpModule::SignalDesignerData</text>
</a>
</g>
</g>
<!-- Node2 -->
<g id="node2" class="node">
<title>Node2</title>
<g id="a_node2"><a xlink:href="classDynExp_1_1QModuleDataBase.html" target="_top" xlink:title="Data class for QModuleBase.">
<polygon fill="white" stroke="black" points="21,-56.5 21,-75.5 172,-75.5 172,-56.5 21,-56.5"/>
<text text-anchor="middle" x="96.5" y="-63.5" font-family="Helvetica,sans-Serif" font-size="10.00">DynExp::QModuleDataBase</text>
</a>
</g>
</g>
<!-- Node2&#45;&gt;Node1 -->
<g id="edge1" class="edge">
<title>Node2&#45;&gt;Node1</title>
<path fill="none" stroke="midnightblue" d="M96.5,-45.8C96.5,-36.91 96.5,-26.78 96.5,-19.75"/>
<polygon fill="midnightblue" stroke="midnightblue" points="93,-46.08 96.5,-56.08 100,-46.08 93,-46.08"/>
</g>
<!-- Node3 -->
<g id="node3" class="node">
<title>Node3</title>
<g id="a_node3"><a xlink:href="classDynExp_1_1ModuleDataBase.html" target="_top" xlink:title="Data structure to contain data which is synchronized in between different threads....">
<polygon fill="white" stroke="black" points="25,-112.5 25,-131.5 168,-131.5 168,-112.5 25,-112.5"/>
<text text-anchor="middle" x="96.5" y="-119.5" font-family="Helvetica,sans-Serif" font-size="10.00">DynExp::ModuleDataBase</text>
</a>
</g>
</g>
<!-- Node3&#45;&gt;Node2 -->
<g id="edge2" class="edge">
<title>Node3&#45;&gt;Node2</title>
<path fill="none" stroke="midnightblue" d="M96.5,-101.8C96.5,-92.91 96.5,-82.78 96.5,-75.75"/>
<polygon fill="midnightblue" stroke="midnightblue" points="93,-102.08 96.5,-112.08 100,-102.08 93,-102.08"/>
</g>
<!-- Node4 -->
<g id="node4" class="node">
<title>Node4</title>
<g id="a_node4"><a xlink:href="classUtil_1_1ISynchronizedPointerLockable.html" target="_top" xlink:title="Interface to allow synchronizing the access to derived classes between different threads by making th...">
<polygon fill="white" stroke="black" points="25,-168.5 25,-198.5 168,-198.5 168,-168.5 25,-168.5"/>
<text text-anchor="start" x="33" y="-186.5" font-family="Helvetica,sans-Serif" font-size="10.00">Util::ISynchronizedPointer</text>
<text text-anchor="middle" x="96.5" y="-175.5" font-family="Helvetica,sans-Serif" font-size="10.00">Lockable</text>
</a>
</g>
</g>
<!-- Node4&#45;&gt;Node3 -->
<g id="edge3" class="edge">
<title>Node4&#45;&gt;Node3</title>
<path fill="none" stroke="midnightblue" d="M96.5,-158.29C96.5,-148.86 96.5,-138.65 96.5,-131.66"/>
<polygon fill="midnightblue" stroke="midnightblue" points="93,-158.4 96.5,-168.4 100,-158.4 93,-158.4"/>
</g>
<!-- Node5 -->
<g id="node5" class="node">
<title>Node5</title>
<g id="a_node5"><a xlink:href="classUtil_1_1INonCopyable.html" target="_top" xlink:title="Interface to delete copy constructor and copy assignment operator and thus make derived classes non&#45;c...">
<polygon fill="white" stroke="black" points="42.5,-235.5 42.5,-254.5 150.5,-254.5 150.5,-235.5 42.5,-235.5"/>
<text text-anchor="middle" x="96.5" y="-242.5" font-family="Helvetica,sans-Serif" font-size="10.00">Util::INonCopyable</text>
</a>
</g>
</g>
<!-- Node5&#45;&gt;Node4 -->
<g id="edge4" class="edge">
<title>Node5&#45;&gt;Node4</title>
<path fill="none" stroke="midnightblue" d="M96.5,-225.23C96.5,-216.59 96.5,-206.5 96.5,-198.52"/>
<polygon fill="midnightblue" stroke="midnightblue" points="93,-225.48 96.5,-235.48 100,-225.48 93,-225.48"/>
</g>
</g>
</svg>
