<?xml version="1.0" encoding="UTF-8" standalone="no"?>
<!DOCTYPE svg PUBLIC "-//W3C//DTD SVG 1.1//EN"
 "http://www.w3.org/Graphics/SVG/1.1/DTD/svg11.dtd">
<!-- Generated by graphviz version 2.43.0 (0)
 -->
<!-- Title: DynExpInstr::FunctionGeneratorParams Pages: 1 -->
<svg width="1914pt" height="203pt"
 viewBox="0.00 0.00 1914.00 203.00" xmlns="http://www.w3.org/2000/svg" xmlns:xlink="http://www.w3.org/1999/xlink">
<g id="graph0" class="graph" transform="scale(1 1) rotate(0) translate(4 199)">
<title>DynExpInstr::FunctionGeneratorParams</title>
<polygon fill="white" stroke="transparent" points="-4,4 -4,-199 1910,-199 1910,4 -4,4"/>
<!-- Node1 -->
<g id="node1" class="node">
<title>Node1</title>
<g id="a_node1"><a xlink:title="Parameter class for FunctionGenerator.">
<polygon fill="#bfbfbf" stroke="black" points="1127,-82.5 1127,-112.5 1299,-112.5 1299,-82.5 1127,-82.5"/>
<text text-anchor="start" x="1135" y="-100.5" font-family="Helvetica,sans-Serif" font-size="10.00">DynExpInstr::FunctionGenerator</text>
<text text-anchor="middle" x="1213" y="-89.5" font-family="Helvetica,sans-Serif" font-size="10.00">Params</text>
</a>
</g>
</g>
<!-- Node8 -->
<g id="node8" class="node">
<title>Node8</title>
<g id="a_node8"><a xlink:href="classDynExpInstr_1_1DummyDataStreamInstrumentParams.html" target="_top" xlink:title=" ">
<polygon fill="white" stroke="black" points="1336.5,-164.5 1336.5,-194.5 1515.5,-194.5 1515.5,-164.5 1336.5,-164.5"/>
<text text-anchor="start" x="1344.5" y="-182.5" font-family="Helvetica,sans-Serif" font-size="10.00">DynExpInstr::DummyDataStream</text>
<text text-anchor="middle" x="1426" y="-171.5" font-family="Helvetica,sans-Serif" font-size="10.00">InstrumentParams</text>
</a>
</g>
</g>
<!-- Node1&#45;&gt;Node8 -->
<g id="edge7" class="edge">
<title>Node1&#45;&gt;Node8</title>
<path fill="none" stroke="midnightblue" d="M1251.69,-117.28C1275.21,-129.11 1306.37,-143.87 1335,-154.5 1344.58,-158.06 1354.89,-161.38 1365,-164.36"/>
<polygon fill="midnightblue" stroke="midnightblue" points="1253.25,-114.14 1242.75,-112.74 1250.08,-120.39 1253.25,-114.14"/>
</g>
<!-- Node9 -->
<g id="node9" class="node">
<title>Node9</title>
<g id="a_node9"><a xlink:href="classDynExpInstr_1_1OutputPortParams.html" target="_top" xlink:title="Parameter class for OutputPort.">
<polygon fill="white" stroke="black" points="1341,-126 1341,-145 1511,-145 1511,-126 1341,-126"/>
<text text-anchor="middle" x="1426" y="-133" font-family="Helvetica,sans-Serif" font-size="10.00">DynExpInstr::OutputPortParams</text>
</a>
</g>
</g>
<!-- Node1&#45;&gt;Node9 -->
<g id="edge8" class="edge">
<title>Node1&#45;&gt;Node9</title>
<path fill="none" stroke="midnightblue" d="M1307.52,-114.34C1329.71,-118.34 1352.62,-122.46 1372.24,-126"/>
<polygon fill="midnightblue" stroke="midnightblue" points="1307.85,-110.85 1297.39,-112.52 1306.61,-117.74 1307.85,-110.85"/>
</g>
<!-- Node14 -->
<g id="node14" class="node">
<title>Node14</title>
<g id="a_node14"><a xlink:href="classDynExpInstr_1_1RS__SMB100BParams.html" target="_top" xlink:title=" ">
<polygon fill="white" stroke="black" points="1335,-88 1335,-107 1517,-107 1517,-88 1335,-88"/>
<text text-anchor="middle" x="1426" y="-95" font-family="Helvetica,sans-Serif" font-size="10.00">DynExpInstr::RS_SMB100BParams</text>
</a>
</g>
</g>
<!-- Node1&#45;&gt;Node14 -->
<g id="edge13" class="edge">
<title>Node1&#45;&gt;Node14</title>
<path fill="none" stroke="midnightblue" d="M1309.22,-97.5C1317.8,-97.5 1326.46,-97.5 1334.99,-97.5"/>
<polygon fill="midnightblue" stroke="midnightblue" points="1309.21,-94 1299.21,-97.5 1309.21,-101 1309.21,-94"/>
</g>
<!-- Node15 -->
<g id="node15" class="node">
<title>Node15</title>
<g id="a_node15"><a xlink:href="classDynExpInstr_1_1RS__SMC100AParams.html" target="_top" xlink:title=" ">
<polygon fill="white" stroke="black" points="1335,-50 1335,-69 1517,-69 1517,-50 1335,-50"/>
<text text-anchor="middle" x="1426" y="-57" font-family="Helvetica,sans-Serif" font-size="10.00">DynExpInstr::RS_SMC100AParams</text>
</a>
</g>
</g>
<!-- Node1&#45;&gt;Node15 -->
<g id="edge14" class="edge">
<title>Node1&#45;&gt;Node15</title>
<path fill="none" stroke="midnightblue" d="M1307.52,-80.66C1329.71,-76.66 1352.62,-72.54 1372.24,-69"/>
<polygon fill="midnightblue" stroke="midnightblue" points="1306.61,-77.26 1297.39,-82.48 1307.85,-84.15 1306.61,-77.26"/>
</g>
<!-- Node16 -->
<g id="node16" class="node">
<title>Node16</title>
<g id="a_node16"><a xlink:href="classDynExpInstr_1_1SwabianInstrumentsPulseStreamerParams.html" target="_top" xlink:title=" ">
<polygon fill="white" stroke="black" points="1335,-0.5 1335,-30.5 1517,-30.5 1517,-0.5 1335,-0.5"/>
<text text-anchor="start" x="1343" y="-18.5" font-family="Helvetica,sans-Serif" font-size="10.00">DynExpInstr::SwabianInstruments</text>
<text text-anchor="middle" x="1426" y="-7.5" font-family="Helvetica,sans-Serif" font-size="10.00">PulseStreamerParams</text>
</a>
</g>
</g>
<!-- Node1&#45;&gt;Node16 -->
<g id="edge15" class="edge">
<title>Node1&#45;&gt;Node16</title>
<path fill="none" stroke="midnightblue" d="M1251.69,-77.72C1275.21,-65.89 1306.37,-51.13 1335,-40.5 1344.58,-36.94 1354.89,-33.62 1365,-30.64"/>
<polygon fill="midnightblue" stroke="midnightblue" points="1250.08,-74.61 1242.75,-82.26 1253.25,-80.86 1250.08,-74.61"/>
</g>
<!-- Node2 -->
<g id="node2" class="node">
<title>Node2</title>
<g id="a_node2"><a xlink:href="classDynExpInstr_1_1DataStreamInstrumentParams.html" target="_top" xlink:title="Parameter class for DataStreamInstrument.">
<polygon fill="white" stroke="black" points="897,-82.5 897,-112.5 1091,-112.5 1091,-82.5 897,-82.5"/>
<text text-anchor="start" x="905" y="-100.5" font-family="Helvetica,sans-Serif" font-size="10.00">DynExpInstr::DataStreamInstrument</text>
<text text-anchor="middle" x="994" y="-89.5" font-family="Helvetica,sans-Serif" font-size="10.00">Params</text>
</a>
</g>
</g>
<!-- Node2&#45;&gt;Node1 -->
<g id="edge1" class="edge">
<title>Node2&#45;&gt;Node1</title>
<path fill="none" stroke="midnightblue" d="M1101.21,-97.5C1109.81,-97.5 1118.43,-97.5 1126.86,-97.5"/>
<polygon fill="midnightblue" stroke="midnightblue" points="1101.13,-94 1091.13,-97.5 1101.13,-101 1101.13,-94"/>
</g>
<!-- Node3 -->
<g id="node3" class="node">
<title>Node3</title>
<g id="a_node3"><a xlink:href="classDynExp_1_1InstrumentParamsBase.html" target="_top" xlink:title="Parameter class for InstrumentBase.">
<polygon fill="white" stroke="black" points="688,-88 688,-107 861,-107 861,-88 688,-88"/>
<text text-anchor="middle" x="774.5" y="-95" font-family="Helvetica,sans-Serif" font-size="10.00">DynExp::InstrumentParamsBase</text>
</a>
</g>
</g>
<!-- Node3&#45;&gt;Node2 -->
<g id="edge2" class="edge">
<title>Node3&#45;&gt;Node2</title>
<path fill="none" stroke="midnightblue" d="M871.33,-97.5C879.73,-97.5 888.24,-97.5 896.64,-97.5"/>
<polygon fill="midnightblue" stroke="midnightblue" points="871.15,-94 861.15,-97.5 871.15,-101 871.15,-94"/>
</g>
<!-- Node4 -->
<g id="node4" class="node">
<title>Node4</title>
<g id="a_node4"><a xlink:href="classDynExp_1_1RunnableObjectParams.html" target="_top" xlink:title="Parameter class for RunnableObject.">
<polygon fill="white" stroke="black" points="479,-88 479,-107 652,-107 652,-88 479,-88"/>
<text text-anchor="middle" x="565.5" y="-95" font-family="Helvetica,sans-Serif" font-size="10.00">DynExp::RunnableObjectParams</text>
</a>
</g>
</g>
<!-- Node4&#45;&gt;Node3 -->
<g id="edge3" class="edge">
<title>Node4&#45;&gt;Node3</title>
<path fill="none" stroke="midnightblue" d="M662.2,-97.5C670.76,-97.5 679.4,-97.5 687.88,-97.5"/>
<polygon fill="midnightblue" stroke="midnightblue" points="662.19,-94 652.19,-97.5 662.19,-101 662.19,-94"/>
</g>
<!-- Node5 -->
<g id="node5" class="node">
<title>Node5</title>
<g id="a_node5"><a xlink:href="classDynExp_1_1ParamsBase.html" target="_top" xlink:title="Abstract base class for object parameter classes. Each class derived from class Object must be accomp...">
<polygon fill="white" stroke="black" points="323,-88 323,-107 443,-107 443,-88 323,-88"/>
<text text-anchor="middle" x="383" y="-95" font-family="Helvetica,sans-Serif" font-size="10.00">DynExp::ParamsBase</text>
</a>
</g>
</g>
<!-- Node5&#45;&gt;Node4 -->
<g id="edge4" class="edge">
<title>Node5&#45;&gt;Node4</title>
<path fill="none" stroke="midnightblue" d="M453.17,-97.5C461.54,-97.5 470.17,-97.5 478.75,-97.5"/>
<polygon fill="midnightblue" stroke="midnightblue" points="453.1,-94 443.1,-97.5 453.1,-101 453.1,-94"/>
</g>
<!-- Node6 -->
<g id="node6" class="node">
<title>Node6</title>
<g id="a_node6"><a xlink:href="classUtil_1_1ISynchronizedPointerLockable.html" target="_top" xlink:title="Interface to allow synchronizing the access to derived classes between different threads by making th...">
<polygon fill="white" stroke="black" points="144,-82.5 144,-112.5 287,-112.5 287,-82.5 144,-82.5"/>
<text text-anchor="start" x="152" y="-100.5" font-family="Helvetica,sans-Serif" font-size="10.00">Util::ISynchronizedPointer</text>
<text text-anchor="middle" x="215.5" y="-89.5" font-family="Helvetica,sans-Serif" font-size="10.00">Lockable</text>
</a>
</g>
</g>
<!-- Node6&#45;&gt;Node5 -->
<g id="edge5" class="edge">
<title>Node6&#45;&gt;Node5</title>
<path fill="none" stroke="midnightblue" d="M297.23,-97.5C305.84,-97.5 314.47,-97.5 322.76,-97.5"/>
<polygon fill="midnightblue" stroke="midnightblue" points="297.17,-94 287.17,-97.5 297.17,-101 297.17,-94"/>
</g>
<!-- Node7 -->
<g id="node7" class="node">
<title>Node7</title>
<g id="a_node7"><a xlink:href="classUtil_1_1INonCopyable.html" target="_top" xlink:title="Interface to delete copy constructor and copy assignment operator and thus make derived classes non&#45;c...">
<polygon fill="white" stroke="black" points="0,-88 0,-107 108,-107 108,-88 0,-88"/>
<text text-anchor="middle" x="54" y="-95" font-family="Helvetica,sans-Serif" font-size="10.00">Util::INonCopyable</text>
</a>
</g>
</g>
<!-- Node7&#45;&gt;Node6 -->
<g id="edge6" class="edge">
<title>Node7&#45;&gt;Node6</title>
<path fill="none" stroke="midnightblue" d="M118.19,-97.5C126.58,-97.5 135.23,-97.5 143.74,-97.5"/>
<polygon fill="midnightblue" stroke="midnightblue" points="118.11,-94 108.11,-97.5 118.11,-101 118.11,-94"/>
</g>
<!-- Node10 -->
<g id="node10" class="node">
<title>Node10</title>
<g id="a_node10"><a xlink:href="classDynExpInstr_1_1AnalogOutParams.html" target="_top" xlink:title="Parameter class for AnalogOut.">
<polygon fill="white" stroke="black" points="1553,-146 1553,-165 1722,-165 1722,-146 1553,-146"/>
<text text-anchor="middle" x="1637.5" y="-153" font-family="Helvetica,sans-Serif" font-size="10.00">DynExpInstr::AnalogOutParams</text>
</a>
</g>
</g>
<!-- Node9&#45;&gt;Node10 -->
<g id="edge9" class="edge">
<title>Node9&#45;&gt;Node10</title>
<path fill="none" stroke="midnightblue" d="M1521.09,-144.48C1531.66,-145.49 1542.39,-146.52 1552.82,-147.51"/>
<polygon fill="midnightblue" stroke="midnightblue" points="1521.29,-140.99 1511,-143.52 1520.63,-147.95 1521.29,-140.99"/>
</g>
<!-- Node12 -->
<g id="node12" class="node">
<title>Node12</title>
<g id="a_node12"><a xlink:href="classDynExpInstr_1_1DigitalOutParams.html" target="_top" xlink:title="Parameter class for DigitalOut.">
<polygon fill="white" stroke="black" points="1554,-105 1554,-124 1721,-124 1721,-105 1554,-105"/>
<text text-anchor="middle" x="1637.5" y="-112" font-family="Helvetica,sans-Serif" font-size="10.00">DynExpInstr::DigitalOutParams</text>
</a>
</g>
</g>
<!-- Node9&#45;&gt;Node12 -->
<g id="edge11" class="edge">
<title>Node9&#45;&gt;Node12</title>
<path fill="none" stroke="midnightblue" d="M1521,-126.08C1531.95,-124.98 1543.06,-123.87 1553.84,-122.79"/>
<polygon fill="midnightblue" stroke="midnightblue" points="1520.61,-122.6 1511,-127.08 1521.3,-129.56 1520.61,-122.6"/>
</g>
<!-- Node11 -->
<g id="node11" class="node">
<title>Node11</title>
<g id="a_node11"><a xlink:href="classDynExpInstr_1_1NIDAQAnalogOutParams.html" target="_top" xlink:title=" ">
<polygon fill="white" stroke="black" points="1758,-143.5 1758,-173.5 1906,-173.5 1906,-143.5 1758,-143.5"/>
<text text-anchor="start" x="1766" y="-161.5" font-family="Helvetica,sans-Serif" font-size="10.00">DynExpInstr::NIDAQAnalog</text>
<text text-anchor="middle" x="1832" y="-150.5" font-family="Helvetica,sans-Serif" font-size="10.00">OutParams</text>
</a>
</g>
</g>
<!-- Node10&#45;&gt;Node11 -->
<g id="edge10" class="edge">
<title>Node10&#45;&gt;Node11</title>
<path fill="none" stroke="midnightblue" d="M1732.16,-156.96C1740.75,-157.09 1749.38,-157.23 1757.75,-157.36"/>
<polygon fill="midnightblue" stroke="midnightblue" points="1732.15,-153.46 1722.09,-156.8 1732.04,-160.46 1732.15,-153.46"/>
</g>
<!-- Node13 -->
<g id="node13" class="node">
<title>Node13</title>
<g id="a_node13"><a xlink:href="classDynExpInstr_1_1NIDAQDigitalOutParams.html" target="_top" xlink:title=" ">
<polygon fill="white" stroke="black" points="1759,-94.5 1759,-124.5 1905,-124.5 1905,-94.5 1759,-94.5"/>
<text text-anchor="start" x="1767" y="-112.5" font-family="Helvetica,sans-Serif" font-size="10.00">DynExpInstr::NIDAQDigital</text>
<text text-anchor="middle" x="1832" y="-101.5" font-family="Helvetica,sans-Serif" font-size="10.00">OutParams</text>
</a>
</g>
</g>
<!-- Node12&#45;&gt;Node13 -->
<g id="edge12" class="edge">
<title>Node12&#45;&gt;Node13</title>
<path fill="none" stroke="midnightblue" d="M1731.29,-112.09C1740.57,-111.85 1749.9,-111.61 1758.92,-111.37"/>
<polygon fill="midnightblue" stroke="midnightblue" points="1731.16,-108.59 1721.25,-112.35 1731.34,-115.59 1731.16,-108.59"/>
</g>
</g>
</svg>
