<?xml version="1.0" encoding="UTF-8" standalone="no"?>
<!DOCTYPE svg PUBLIC "-//W3C//DTD SVG 1.1//EN"
 "http://www.w3.org/Graphics/SVG/1.1/DTD/svg11.dtd">
<!-- Generated by graphviz version 2.43.0 (0)
 -->
<!-- Title: Util::InvalidStateException Pages: 1 -->
<svg width="354pt" height="258pt"
 viewBox="0.00 0.00 353.50 258.00" xmlns="http://www.w3.org/2000/svg" xmlns:xlink="http://www.w3.org/1999/xlink">
<g id="graph0" class="graph" transform="scale(1 1) rotate(0) translate(4 254)">
<title>Util::InvalidStateException</title>
<!-- Node1 -->
<g id="Node000001" class="node">
<title>Node1</title>
<g id="a_Node000001"><a xlink:title="An operation cannot be performed currently since the related object is in an invalid state like an er...">
<polygon fill="#999999" stroke="#666666" points="250.5,-85 104.5,-85 104.5,-66 250.5,-66 250.5,-85"/>
<text text-anchor="middle" x="177.5" y="-73" font-family="Helvetica,sans-Serif" font-size="10.00">Util::InvalidStateException</text>
</a>
</g>
</g>
<!-- Node5 -->
<g id="Node000005" class="node">
<title>Node5</title>
<g id="a_Node000005"><a xlink:href="classUtil_1_1InvalidObjectLinkException.html" target="_top" xlink:title="Thrown when RunnableInstance cannot lock an object to be used by another object due to an invalid lin...">
<polygon fill="white" stroke="#666666" points="173,-24.5 0,-24.5 0,-5.5 173,-5.5 173,-24.5"/>
<text text-anchor="middle" x="86.5" y="-12.5" font-family="Helvetica,sans-Serif" font-size="10.00">Util::InvalidObjectLinkException</text>
</a>
</g>
</g>
<!-- Node1&#45;&gt;Node5 -->
<g id="edge4_Node000001_Node000005" class="edge">
<title>Node1&#45;&gt;Node5</title>
<g id="a_edge4_Node000001_Node000005"><a xlink:title=" ">
<path fill="none" stroke="#63b8ff" d="M155.19,-60.16C137.9,-49.05 114.52,-34.01 99.98,-24.67"/>
<polygon fill="#63b8ff" stroke="#63b8ff" points="153.77,-63.4 164.07,-65.87 157.55,-57.52 153.77,-63.4"/>
</a>
</g>
</g>
<!-- Node6 -->
<g id="Node000006" class="node">
<title>Node6</title>
<g id="a_Node000006"><a xlink:href="classUtil_1_1LinkedObjectNotLockedException.html" target="_top" xlink:title="Thrown when RunnableInstance::LockObject() has not been called on an object link parameter to establi...">
<polygon fill="white" stroke="#666666" points="345.5,-30 191.5,-30 191.5,0 345.5,0 345.5,-30"/>
<text text-anchor="start" x="199.5" y="-18" font-family="Helvetica,sans-Serif" font-size="10.00">Util::LinkedObjectNotLocked</text>
<text text-anchor="middle" x="268.5" y="-7" font-family="Helvetica,sans-Serif" font-size="10.00">Exception</text>
</a>
</g>
</g>
<!-- Node1&#45;&gt;Node6 -->
<g id="edge5_Node000001_Node000006" class="edge">
<title>Node1&#45;&gt;Node6</title>
<g id="a_edge5_Node000001_Node000006"><a xlink:title=" ">
<path fill="none" stroke="#63b8ff" d="M199.6,-60.29C213.85,-51.13 232.32,-39.26 246.54,-30.11"/>
<polygon fill="#63b8ff" stroke="#63b8ff" points="197.45,-57.52 190.93,-65.87 201.23,-63.4 197.45,-57.52"/>
</a>
</g>
</g>
<!-- Node2 -->
<g id="Node000002" class="node">
<title>Node2</title>
<g id="a_Node000002"><a xlink:href="classUtil_1_1Exception.html" target="_top" xlink:title="DynExp exceptions are derived from this class. It contains basic information about the cause of the e...">
<polygon fill="white" stroke="#666666" points="221.5,-140 133.5,-140 133.5,-121 221.5,-121 221.5,-140"/>
<text text-anchor="middle" x="177.5" y="-128" font-family="Helvetica,sans-Serif" font-size="10.00">Util::Exception</text>
</a>
</g>
</g>
<!-- Node2&#45;&gt;Node1 -->
<g id="edge1_Node000001_Node000002" class="edge">
<title>Node2&#45;&gt;Node1</title>
<g id="a_edge1_Node000001_Node000002"><a xlink:title=" ">
<path fill="none" stroke="#63b8ff" d="M177.5,-110.66C177.5,-101.93 177.5,-91.99 177.5,-85.09"/>
<polygon fill="#63b8ff" stroke="#63b8ff" points="174,-110.75 177.5,-120.75 181,-110.75 174,-110.75"/>
</a>
</g>
</g>
<!-- Node3 -->
<g id="Node000003" class="node">
<title>Node3</title>
<g id="a_Node000003"><a xlink:title=" ">
<polygon fill="white" stroke="#666666" points="229.5,-195 125.5,-195 125.5,-176 229.5,-176 229.5,-195"/>
<text text-anchor="middle" x="177.5" y="-183" font-family="Helvetica,sans-Serif" font-size="10.00">std::runtime_error</text>
</a>
</g>
</g>
<!-- Node3&#45;&gt;Node2 -->
<g id="edge2_Node000002_Node000003" class="edge">
<title>Node3&#45;&gt;Node2</title>
<g id="a_edge2_Node000002_Node000003"><a xlink:title=" ">
<path fill="none" stroke="#63b8ff" d="M177.5,-165.66C177.5,-156.93 177.5,-146.99 177.5,-140.09"/>
<polygon fill="#63b8ff" stroke="#63b8ff" points="174,-165.75 177.5,-175.75 181,-165.75 174,-165.75"/>
</a>
</g>
</g>
<!-- Node4 -->
<g id="Node000004" class="node">
<title>Node4</title>
<g id="a_Node000004"><a xlink:title=" ">
<polygon fill="white" stroke="#666666" points="220.5,-250 134.5,-250 134.5,-231 220.5,-231 220.5,-250"/>
<text text-anchor="middle" x="177.5" y="-238" font-family="Helvetica,sans-Serif" font-size="10.00">std::exception</text>
</a>
</g>
</g>
<!-- Node4&#45;&gt;Node3 -->
<g id="edge3_Node000003_Node000004" class="edge">
<title>Node4&#45;&gt;Node3</title>
<g id="a_edge3_Node000003_Node000004"><a xlink:title=" ">
<path fill="none" stroke="#63b8ff" d="M177.5,-220.66C177.5,-211.93 177.5,-201.99 177.5,-195.09"/>
<polygon fill="#63b8ff" stroke="#63b8ff" points="174,-220.75 177.5,-230.75 181,-220.75 174,-220.75"/>
</a>
</g>
</g>
</g>
</svg>
