<?xml version="1.0" encoding="UTF-8" standalone="no"?>
<!DOCTYPE svg PUBLIC "-//W3C//DTD SVG 1.1//EN"
 "http://www.w3.org/Graphics/SVG/1.1/DTD/svg11.dtd">
<!-- Generated by graphviz version 2.43.0 (0)
 -->
<!-- Title: DynExpModule::ImageViewer::FinishedAutofocusEvent Pages: 1 -->
<svg width="178pt" height="225pt"
 viewBox="0.00 0.00 178.00 225.00" xmlns="http://www.w3.org/2000/svg" xmlns:xlink="http://www.w3.org/1999/xlink">
<g id="graph0" class="graph" transform="scale(1 1) rotate(0) translate(4 221)">
<title>DynExpModule::ImageViewer::FinishedAutofocusEvent</title>
<!-- Node1 -->
<g id="Node000001" class="node">
<title>Node1</title>
<g id="a_Node000001"><a xlink:title=" ">
<polygon fill="#999999" stroke="#666666" points="165.5,-30 4.5,-30 4.5,0 165.5,0 165.5,-30"/>
<text text-anchor="start" x="12.5" y="-18" font-family="Helvetica,sans-Serif" font-size="10.00">DynExpModule::ImageViewer</text>
<text text-anchor="middle" x="85" y="-7" font-family="Helvetica,sans-Serif" font-size="10.00">::FinishedAutofocusEvent</text>
</a>
</g>
</g>
<!-- Node2 -->
<g id="Node000002" class="node">
<title>Node2</title>
<g id="a_Node000002"><a xlink:href="classDynExp_1_1InterModuleEvent.html" target="_top" xlink:title=" ">
<polygon fill="white" stroke="#666666" points="159,-107 11,-107 11,-66 159,-66 159,-107"/>
<text text-anchor="start" x="19" y="-95" font-family="Helvetica,sans-Serif" font-size="10.00">DynExp::InterModuleEvent</text>
<text text-anchor="start" x="19" y="-84" font-family="Helvetica,sans-Serif" font-size="10.00">&lt; FinishedAutofocusEvent,</text>
<text text-anchor="middle" x="85" y="-73" font-family="Helvetica,sans-Serif" font-size="10.00"> bool, double &gt;</text>
</a>
</g>
</g>
<!-- Node2&#45;&gt;Node1 -->
<g id="edge1_Node000001_Node000002" class="edge">
<title>Node2&#45;&gt;Node1</title>
<g id="a_edge1_Node000001_Node000002"><a xlink:title=" ">
<path fill="none" stroke="#63b8ff" d="M85,-55.66C85,-46.76 85,-37.42 85,-30.04"/>
<polygon fill="#63b8ff" stroke="#63b8ff" points="81.5,-55.77 85,-65.77 88.5,-55.77 81.5,-55.77"/>
</a>
</g>
</g>
<!-- Node3 -->
<g id="Node000003" class="node">
<title>Node3</title>
<g id="a_Node000003"><a xlink:href="classDynExp_1_1InterModuleEventBase.html" target="_top" xlink:title="Common base class for all inter&#45;module events.">
<polygon fill="white" stroke="#666666" points="170,-162 0,-162 0,-143 170,-143 170,-162"/>
<text text-anchor="middle" x="85" y="-150" font-family="Helvetica,sans-Serif" font-size="10.00">DynExp::InterModuleEventBase</text>
</a>
</g>
</g>
<!-- Node3&#45;&gt;Node2 -->
<g id="edge2_Node000002_Node000003" class="edge">
<title>Node3&#45;&gt;Node2</title>
<g id="a_edge2_Node000002_Node000003"><a xlink:title=" ">
<path fill="none" stroke="#63b8ff" d="M85,-132.63C85,-124.56 85,-115.15 85,-107.01"/>
<polygon fill="#63b8ff" stroke="#63b8ff" points="81.5,-132.87 85,-142.87 88.5,-132.87 81.5,-132.87"/>
</a>
</g>
</g>
<!-- Node4 -->
<g id="Node000004" class="node">
<title>Node4</title>
<g id="a_Node000004"><a xlink:href="classDynExp_1_1EventBase.html" target="_top" xlink:title="Common base class for all events to store them in a FIFO queue to be invoked later.">
<polygon fill="white" stroke="#666666" points="141,-217 29,-217 29,-198 141,-198 141,-217"/>
<text text-anchor="middle" x="85" y="-205" font-family="Helvetica,sans-Serif" font-size="10.00">DynExp::EventBase</text>
</a>
</g>
</g>
<!-- Node4&#45;&gt;Node3 -->
<g id="edge3_Node000003_Node000004" class="edge">
<title>Node4&#45;&gt;Node3</title>
<g id="a_edge3_Node000003_Node000004"><a xlink:title=" ">
<path fill="none" stroke="#63b8ff" d="M85,-187.66C85,-178.93 85,-168.99 85,-162.09"/>
<polygon fill="#63b8ff" stroke="#63b8ff" points="81.5,-187.75 85,-197.75 88.5,-187.75 81.5,-187.75"/>
</a>
</g>
</g>
</g>
</svg>
