<?xml version="1.0" encoding="UTF-8" standalone="no"?>
<!DOCTYPE svg PUBLIC "-//W3C//DTD SVG 1.1//EN"
 "http://www.w3.org/Graphics/SVG/1.1/DTD/svg11.dtd">
<!-- Generated by graphviz version 2.43.0 (0)
 -->
<!-- Title: DynExpInstr::gRPCInstrumentTasks::UpdateTask&lt; BaseInstr,, gRPCStubs &gt; Pages: 1 -->
<svg width="761pt" height="285pt"
 viewBox="0.00 0.00 761.00 285.00" xmlns="http://www.w3.org/2000/svg" xmlns:xlink="http://www.w3.org/1999/xlink">
<g id="graph0" class="graph" transform="scale(1 1) rotate(0) translate(4 281)">
<title>DynExpInstr::gRPCInstrumentTasks::UpdateTask&lt; BaseInstr,, gRPCStubs &gt;</title>
<!-- Node1 -->
<g id="Node000001" class="node">
<title>Node1</title>
<g id="a_Node000001"><a xlink:title="Defines a task for updating an instrument within an instrument inheritance hierarchy....">
<polygon fill="#999999" stroke="#666666" points="351,-124 184,-124 184,-83 351,-83 351,-124"/>
<text text-anchor="start" x="192" y="-112" font-family="Helvetica,sans-Serif" font-size="10.00">DynExpInstr::gRPCInstrument</text>
<text text-anchor="start" x="192" y="-101" font-family="Helvetica,sans-Serif" font-size="10.00">Tasks::UpdateTask&lt; BaseInstr,</text>
<text text-anchor="middle" x="267.5" y="-90" font-family="Helvetica,sans-Serif" font-size="10.00">, gRPCStubs &gt;</text>
</a>
</g>
</g>
<!-- Node3 -->
<g id="Node000003" class="node">
<title>Node3</title>
<g id="a_Node000003"><a xlink:href="classDynExpInstr_1_1NetworkDataStreamInstrumentTasks_1_1UpdateTask.html" target="_top" xlink:title=" ">
<polygon fill="white" stroke="#666666" points="533,-164.5 387,-164.5 387,-112.5 533,-112.5 533,-164.5"/>
<text text-anchor="start" x="395" y="-152.5" font-family="Helvetica,sans-Serif" font-size="10.00">DynExpInstr::NetworkData</text>
<text text-anchor="start" x="395" y="-141.5" font-family="Helvetica,sans-Serif" font-size="10.00">StreamInstrumentTasks</text>
<text text-anchor="start" x="395" y="-130.5" font-family="Helvetica,sans-Serif" font-size="10.00">::UpdateTask&lt; BaseInstr,</text>
<text text-anchor="middle" x="460" y="-119.5" font-family="Helvetica,sans-Serif" font-size="10.00"> 0, gRPCStubs... &gt;</text>
</a>
</g>
</g>
<!-- Node1&#45;&gt;Node3 -->
<g id="edge2_Node000001_Node000003" class="edge">
<title>Node1&#45;&gt;Node3</title>
<g id="a_edge2_Node000001_Node000003"><a xlink:title=" ">
<path fill="none" stroke="#63b8ff" d="M361.27,-120.54C369.85,-122.12 378.45,-123.7 386.81,-125.24"/>
<polygon fill="#63b8ff" stroke="#63b8ff" points="361.69,-117.06 351.22,-118.7 360.43,-123.95 361.69,-117.06"/>
</a>
</g>
</g>
<!-- Node9 -->
<g id="Node000009" class="node">
<title>Node9</title>
<g id="a_Node000009"><a xlink:href="classDynExpInstr_1_1NetworkDataStreamInstrumentTasks_1_1UpdateTask.html" target="_top" xlink:title=" ">
<polygon fill="white" stroke="#666666" points="533,-94.5 387,-94.5 387,-42.5 533,-42.5 533,-94.5"/>
<text text-anchor="start" x="395" y="-82.5" font-family="Helvetica,sans-Serif" font-size="10.00">DynExpInstr::NetworkData</text>
<text text-anchor="start" x="395" y="-71.5" font-family="Helvetica,sans-Serif" font-size="10.00">StreamInstrumentTasks</text>
<text text-anchor="start" x="395" y="-60.5" font-family="Helvetica,sans-Serif" font-size="10.00">::UpdateTask&lt; BaseInstr,</text>
<text text-anchor="middle" x="460" y="-49.5" font-family="Helvetica,sans-Serif" font-size="10.00">, gRPCStubs &gt;</text>
</a>
</g>
</g>
<!-- Node1&#45;&gt;Node9 -->
<g id="edge8_Node000001_Node000009" class="edge">
<title>Node1&#45;&gt;Node9</title>
<g id="a_edge8_Node000001_Node000009"><a xlink:title=" ">
<path fill="none" stroke="#63b8ff" d="M361.27,-86.46C369.85,-84.88 378.45,-83.3 386.81,-81.76"/>
<polygon fill="#63b8ff" stroke="#63b8ff" points="360.43,-83.05 351.22,-88.3 361.69,-89.94 360.43,-83.05"/>
</a>
</g>
</g>
<!-- Node2 -->
<g id="Node000002" class="node">
<title>Node2</title>
<g id="a_Node000002"><a xlink:title=" ">
<polygon fill="white" stroke="#666666" points="148,-113 0,-113 0,-94 148,-94 148,-113"/>
<text text-anchor="middle" x="74" y="-101" font-family="Helvetica,sans-Serif" font-size="10.00">BaseInstr::UpdateTaskType</text>
</a>
</g>
</g>
<!-- Node2&#45;&gt;Node1 -->
<g id="edge1_Node000001_Node000002" class="edge">
<title>Node2&#45;&gt;Node1</title>
<g id="a_edge1_Node000001_Node000002"><a xlink:title=" ">
<path fill="none" stroke="#63b8ff" d="M158.39,-103.5C166.8,-103.5 175.33,-103.5 183.73,-103.5"/>
<polygon fill="#63b8ff" stroke="#63b8ff" points="158.22,-100 148.22,-103.5 158.22,-107 158.22,-100"/>
</a>
</g>
</g>
<!-- Node4 -->
<g id="Node000004" class="node">
<title>Node4</title>
<g id="a_Node000004"><a xlink:href="classDynExpInstr_1_1NetworkAnalogInTasks_1_1UpdateTask.html" target="_top" xlink:title=" ">
<polygon fill="white" stroke="#666666" points="749,-277 573,-277 573,-236 749,-236 749,-277"/>
<text text-anchor="start" x="581" y="-265" font-family="Helvetica,sans-Serif" font-size="10.00">DynExpInstr::NetworkAnalog</text>
<text text-anchor="start" x="581" y="-254" font-family="Helvetica,sans-Serif" font-size="10.00">InTasks::UpdateTask&lt; BaseInstr,</text>
<text text-anchor="middle" x="661" y="-243" font-family="Helvetica,sans-Serif" font-size="10.00">, gRPCStubs &gt;</text>
</a>
</g>
</g>
<!-- Node3&#45;&gt;Node4 -->
<g id="edge3_Node000003_Node000004" class="edge">
<title>Node3&#45;&gt;Node4</title>
<g id="a_edge3_Node000003_Node000004"><a xlink:title=" ">
<path fill="none" stroke="#63b8ff" d="M494.25,-171.59C514.45,-190.17 541.57,-212.55 569,-227.5 574.68,-230.59 580.74,-233.42 586.93,-235.98"/>
<polygon fill="#63b8ff" stroke="#63b8ff" points="496.55,-168.95 486.86,-164.68 491.77,-174.07 496.55,-168.95"/>
</a>
</g>
</g>
<!-- Node5 -->
<g id="Node000005" class="node">
<title>Node5</title>
<g id="a_Node000005"><a xlink:href="classDynExpInstr_1_1NetworkAnalogOutTasks_1_1UpdateTask.html" target="_top" xlink:title=" ">
<polygon fill="white" stroke="#666666" points="753,-218 569,-218 569,-177 753,-177 753,-218"/>
<text text-anchor="start" x="577" y="-206" font-family="Helvetica,sans-Serif" font-size="10.00">DynExpInstr::NetworkAnalog</text>
<text text-anchor="start" x="577" y="-195" font-family="Helvetica,sans-Serif" font-size="10.00">OutTasks::UpdateTask&lt; BaseInstr,</text>
<text text-anchor="middle" x="661" y="-184" font-family="Helvetica,sans-Serif" font-size="10.00">, gRPCStubs &gt;</text>
</a>
</g>
</g>
<!-- Node3&#45;&gt;Node5 -->
<g id="edge4_Node000003_Node000005" class="edge">
<title>Node3&#45;&gt;Node5</title>
<g id="a_edge4_Node000003_Node000005"><a xlink:title=" ">
<path fill="none" stroke="#63b8ff" d="M542.93,-162.79C558.82,-167.5 575.34,-172.4 590.78,-176.98"/>
<polygon fill="#63b8ff" stroke="#63b8ff" points="543.71,-159.37 533.12,-159.88 541.72,-166.08 543.71,-159.37"/>
</a>
</g>
</g>
<!-- Node6 -->
<g id="Node000006" class="node">
<title>Node6</title>
<g id="a_Node000006"><a xlink:href="classDynExpInstr_1_1NetworkDigitalInTasks_1_1UpdateTask.html" target="_top" xlink:title=" ">
<polygon fill="white" stroke="#666666" points="749,-159 573,-159 573,-118 749,-118 749,-159"/>
<text text-anchor="start" x="581" y="-147" font-family="Helvetica,sans-Serif" font-size="10.00">DynExpInstr::NetworkDigital</text>
<text text-anchor="start" x="581" y="-136" font-family="Helvetica,sans-Serif" font-size="10.00">InTasks::UpdateTask&lt; BaseInstr,</text>
<text text-anchor="middle" x="661" y="-125" font-family="Helvetica,sans-Serif" font-size="10.00">, gRPCStubs &gt;</text>
</a>
</g>
</g>
<!-- Node3&#45;&gt;Node6 -->
<g id="edge5_Node000003_Node000006" class="edge">
<title>Node3&#45;&gt;Node6</title>
<g id="a_edge5_Node000003_Node000006"><a xlink:title=" ">
<path fill="none" stroke="#63b8ff" d="M543.22,-138.5C553,-138.5 563.02,-138.5 572.87,-138.5"/>
<polygon fill="#63b8ff" stroke="#63b8ff" points="543.12,-135 533.12,-138.5 543.12,-142 543.12,-135"/>
</a>
</g>
</g>
<!-- Node7 -->
<g id="Node000007" class="node">
<title>Node7</title>
<g id="a_Node000007"><a xlink:href="classDynExpInstr_1_1NetworkDigitalOutTasks_1_1UpdateTask.html" target="_top" xlink:title=" ">
<polygon fill="white" stroke="#666666" points="753,-100 569,-100 569,-59 753,-59 753,-100"/>
<text text-anchor="start" x="577" y="-88" font-family="Helvetica,sans-Serif" font-size="10.00">DynExpInstr::NetworkDigital</text>
<text text-anchor="start" x="577" y="-77" font-family="Helvetica,sans-Serif" font-size="10.00">OutTasks::UpdateTask&lt; BaseInstr,</text>
<text text-anchor="middle" x="661" y="-66" font-family="Helvetica,sans-Serif" font-size="10.00">, gRPCStubs &gt;</text>
</a>
</g>
</g>
<!-- Node3&#45;&gt;Node7 -->
<g id="edge6_Node000003_Node000007" class="edge">
<title>Node3&#45;&gt;Node7</title>
<g id="a_edge6_Node000003_Node000007"><a xlink:title=" ">
<path fill="none" stroke="#63b8ff" d="M542.93,-114.21C558.82,-109.5 575.34,-104.6 590.78,-100.02"/>
<polygon fill="#63b8ff" stroke="#63b8ff" points="541.72,-110.92 533.12,-117.12 543.71,-117.63 541.72,-110.92"/>
</a>
</g>
</g>
<!-- Node8 -->
<g id="Node000008" class="node">
<title>Node8</title>
<g id="a_Node000008"><a xlink:href="classDynExpInstr_1_1NetworkTimeTaggerTasks_1_1UpdateTask.html" target="_top" xlink:title=" ">
<polygon fill="white" stroke="#666666" points="735,-41 587,-41 587,0 735,0 735,-41"/>
<text text-anchor="start" x="595" y="-29" font-family="Helvetica,sans-Serif" font-size="10.00">DynExpInstr::NetworkTime</text>
<text text-anchor="start" x="595" y="-18" font-family="Helvetica,sans-Serif" font-size="10.00">TaggerTasks::UpdateTask</text>
<text text-anchor="middle" x="661" y="-7" font-family="Helvetica,sans-Serif" font-size="10.00">&lt; BaseInstr,, gRPCStubs &gt;</text>
</a>
</g>
</g>
<!-- Node3&#45;&gt;Node8 -->
<g id="edge7_Node000003_Node000008" class="edge">
<title>Node3&#45;&gt;Node8</title>
<g id="a_edge7_Node000003_Node000008"><a xlink:title=" ">
<path fill="none" stroke="#63b8ff" d="M529.47,-106.43C530.68,-105.48 531.85,-104.5 533,-103.5 554.73,-84.53 545.96,-66.86 569,-49.5 574.43,-45.41 580.45,-41.89 586.74,-38.85"/>
<polygon fill="#63b8ff" stroke="#63b8ff" points="527.21,-103.75 521.14,-112.44 531.3,-109.43 527.21,-103.75"/>
</a>
</g>
</g>
</g>
</svg>
