<?xml version="1.0" encoding="UTF-8" standalone="no"?>
<!DOCTYPE svg PUBLIC "-//W3C//DTD SVG 1.1//EN"
 "http://www.w3.org/Graphics/SVG/1.1/DTD/svg11.dtd">
<!-- Generated by graphviz version 2.43.0 (0)
 -->
<!-- Title: DynExpModule::ArbitraryFunctionFromCSVConfigurator Pages: 1 -->
<svg width="205pt" height="207pt"
 viewBox="0.00 0.00 205.00 207.00" xmlns="http://www.w3.org/2000/svg" xmlns:xlink="http://www.w3.org/1999/xlink">
<g id="graph0" class="graph" transform="scale(1 1) rotate(0) translate(4 203)">
<title>DynExpModule::ArbitraryFunctionFromCSVConfigurator</title>
<polygon fill="white" stroke="transparent" points="-4,4 -4,-203 201,-203 201,4 -4,4"/>
<!-- Node1 -->
<g id="node1" class="node">
<title>Node1</title>
<g id="a_node1"><a xlink:title=" ">
<polygon fill="#bfbfbf" stroke="black" points="8.5,-0.5 8.5,-30.5 188.5,-30.5 188.5,-0.5 8.5,-0.5"/>
<text text-anchor="start" x="16.5" y="-18.5" font-family="Helvetica,sans-Serif" font-size="10.00">DynExpModule::ArbitraryFunction</text>
<text text-anchor="middle" x="98.5" y="-7.5" font-family="Helvetica,sans-Serif" font-size="10.00">FromCSVConfigurator</text>
</a>
</g>
</g>
<!-- Node2 -->
<g id="node2" class="node">
<title>Node2</title>
<g id="a_node2"><a xlink:href="classDynExp_1_1ModuleConfiguratorBase.html" target="_top" xlink:title="Configurator class for ModuleBase.">
<polygon fill="white" stroke="black" points="8.5,-67.5 8.5,-86.5 188.5,-86.5 188.5,-67.5 8.5,-67.5"/>
<text text-anchor="middle" x="98.5" y="-74.5" font-family="Helvetica,sans-Serif" font-size="10.00">DynExp::ModuleConfiguratorBase</text>
</a>
</g>
</g>
<!-- Node2&#45;&gt;Node1 -->
<g id="edge1" class="edge">
<title>Node2&#45;&gt;Node1</title>
<path fill="none" stroke="midnightblue" d="M98.5,-57.23C98.5,-48.59 98.5,-38.5 98.5,-30.52"/>
<polygon fill="midnightblue" stroke="midnightblue" points="95,-57.48 98.5,-67.48 102,-57.48 95,-57.48"/>
</g>
<!-- Node3 -->
<g id="node3" class="node">
<title>Node3</title>
<g id="a_node3"><a xlink:href="classDynExp_1_1RunnableObjectConfigurator.html" target="_top" xlink:title="Configurator class for RunnableObject.">
<polygon fill="white" stroke="black" points="0,-123.5 0,-142.5 197,-142.5 197,-123.5 0,-123.5"/>
<text text-anchor="middle" x="98.5" y="-130.5" font-family="Helvetica,sans-Serif" font-size="10.00">DynExp::RunnableObjectConfigurator</text>
</a>
</g>
</g>
<!-- Node3&#45;&gt;Node2 -->
<g id="edge2" class="edge">
<title>Node3&#45;&gt;Node2</title>
<path fill="none" stroke="midnightblue" d="M98.5,-112.8C98.5,-103.91 98.5,-93.78 98.5,-86.75"/>
<polygon fill="midnightblue" stroke="midnightblue" points="95,-113.08 98.5,-123.08 102,-113.08 95,-113.08"/>
</g>
<!-- Node4 -->
<g id="node4" class="node">
<title>Node4</title>
<g id="a_node4"><a xlink:href="classDynExp_1_1ConfiguratorBase.html" target="_top" xlink:title="The configurator classes have the task to generate parameter objects (refer to DynExp::ParamsBase) of...">
<polygon fill="white" stroke="black" points="26.5,-179.5 26.5,-198.5 170.5,-198.5 170.5,-179.5 26.5,-179.5"/>
<text text-anchor="middle" x="98.5" y="-186.5" font-family="Helvetica,sans-Serif" font-size="10.00">DynExp::ConfiguratorBase</text>
</a>
</g>
</g>
<!-- Node4&#45;&gt;Node3 -->
<g id="edge3" class="edge">
<title>Node4&#45;&gt;Node3</title>
<path fill="none" stroke="midnightblue" d="M98.5,-168.8C98.5,-159.91 98.5,-149.78 98.5,-142.75"/>
<polygon fill="midnightblue" stroke="midnightblue" points="95,-169.08 98.5,-179.08 102,-169.08 95,-169.08"/>
</g>
</g>
</svg>
