<?xml version="1.0" encoding="UTF-8" standalone="no"?>
<!DOCTYPE svg PUBLIC "-//W3C//DTD SVG 1.1//EN"
 "http://www.w3.org/Graphics/SVG/1.1/DTD/svg11.dtd">
<!-- Generated by graphviz version 2.43.0 (0)
 -->
<!-- Title: DynExpInstr::OutputPortParams Pages: 1 -->
<svg width="362pt" height="576pt"
 viewBox="0.00 0.00 362.00 576.00" xmlns="http://www.w3.org/2000/svg" xmlns:xlink="http://www.w3.org/1999/xlink">
<g id="graph0" class="graph" transform="scale(1 1) rotate(0) translate(4 572)">
<title>DynExpInstr::OutputPortParams</title>
<polygon fill="white" stroke="transparent" points="-4,4 -4,-572 358,-572 358,4 -4,4"/>
<!-- Node1 -->
<g id="node1" class="node">
<title>Node1</title>
<g id="a_node1"><a xlink:title="Parameter class for OutputPort.">
<polygon fill="#bfbfbf" stroke="black" points="92.5,-123.5 92.5,-142.5 262.5,-142.5 262.5,-123.5 92.5,-123.5"/>
<text text-anchor="middle" x="177.5" y="-130.5" font-family="Helvetica,sans-Serif" font-size="10.00">DynExpInstr::OutputPortParams</text>
</a>
</g>
</g>
<!-- Node9 -->
<g id="node9" class="node">
<title>Node9</title>
<g id="a_node9"><a xlink:href="classDynExpInstr_1_1AnalogOutParams.html" target="_top" xlink:title="Parameter class for AnalogOut.">
<polygon fill="white" stroke="black" points="0,-67.5 0,-86.5 169,-86.5 169,-67.5 0,-67.5"/>
<text text-anchor="middle" x="84.5" y="-74.5" font-family="Helvetica,sans-Serif" font-size="10.00">DynExpInstr::AnalogOutParams</text>
</a>
</g>
</g>
<!-- Node1&#45;&gt;Node9 -->
<g id="edge8" class="edge">
<title>Node1&#45;&gt;Node9</title>
<path fill="none" stroke="midnightblue" d="M153.69,-118.18C136.58,-108.24 114.03,-95.15 99.4,-86.65"/>
<polygon fill="midnightblue" stroke="midnightblue" points="152.15,-121.33 162.56,-123.32 155.67,-115.28 152.15,-121.33"/>
</g>
<!-- Node11 -->
<g id="node11" class="node">
<title>Node11</title>
<g id="a_node11"><a xlink:href="classDynExpInstr_1_1DigitalOutParams.html" target="_top" xlink:title="Parameter class for DigitalOut.">
<polygon fill="white" stroke="black" points="187,-67.5 187,-86.5 354,-86.5 354,-67.5 187,-67.5"/>
<text text-anchor="middle" x="270.5" y="-74.5" font-family="Helvetica,sans-Serif" font-size="10.00">DynExpInstr::DigitalOutParams</text>
</a>
</g>
</g>
<!-- Node1&#45;&gt;Node11 -->
<g id="edge10" class="edge">
<title>Node1&#45;&gt;Node11</title>
<path fill="none" stroke="midnightblue" d="M201.31,-118.18C218.42,-108.24 240.97,-95.15 255.6,-86.65"/>
<polygon fill="midnightblue" stroke="midnightblue" points="199.33,-115.28 192.44,-123.32 202.85,-121.33 199.33,-115.28"/>
</g>
<!-- Node2 -->
<g id="node2" class="node">
<title>Node2</title>
<g id="a_node2"><a xlink:href="classDynExpInstr_1_1FunctionGeneratorParams.html" target="_top" xlink:title="Parameter class for FunctionGenerator.">
<polygon fill="white" stroke="black" points="91.5,-179.5 91.5,-209.5 263.5,-209.5 263.5,-179.5 91.5,-179.5"/>
<text text-anchor="start" x="99.5" y="-197.5" font-family="Helvetica,sans-Serif" font-size="10.00">DynExpInstr::FunctionGenerator</text>
<text text-anchor="middle" x="177.5" y="-186.5" font-family="Helvetica,sans-Serif" font-size="10.00">Params</text>
</a>
</g>
</g>
<!-- Node2&#45;&gt;Node1 -->
<g id="edge1" class="edge">
<title>Node2&#45;&gt;Node1</title>
<path fill="none" stroke="midnightblue" d="M177.5,-169.29C177.5,-159.86 177.5,-149.65 177.5,-142.66"/>
<polygon fill="midnightblue" stroke="midnightblue" points="174,-169.4 177.5,-179.4 181,-169.4 174,-169.4"/>
</g>
<!-- Node3 -->
<g id="node3" class="node">
<title>Node3</title>
<g id="a_node3"><a xlink:href="classDynExpInstr_1_1DataStreamInstrumentParams.html" target="_top" xlink:title="Parameter class for DataStreamInstrument.">
<polygon fill="white" stroke="black" points="80.5,-246.5 80.5,-276.5 274.5,-276.5 274.5,-246.5 80.5,-246.5"/>
<text text-anchor="start" x="88.5" y="-264.5" font-family="Helvetica,sans-Serif" font-size="10.00">DynExpInstr::DataStreamInstrument</text>
<text text-anchor="middle" x="177.5" y="-253.5" font-family="Helvetica,sans-Serif" font-size="10.00">Params</text>
</a>
</g>
</g>
<!-- Node3&#45;&gt;Node2 -->
<g id="edge2" class="edge">
<title>Node3&#45;&gt;Node2</title>
<path fill="none" stroke="midnightblue" d="M177.5,-236.11C177.5,-227.15 177.5,-217.32 177.5,-209.58"/>
<polygon fill="midnightblue" stroke="midnightblue" points="174,-236.4 177.5,-246.4 181,-236.4 174,-236.4"/>
</g>
<!-- Node4 -->
<g id="node4" class="node">
<title>Node4</title>
<g id="a_node4"><a xlink:href="classDynExp_1_1InstrumentParamsBase.html" target="_top" xlink:title="Parameter class for InstrumentBase.">
<polygon fill="white" stroke="black" points="91,-313.5 91,-332.5 264,-332.5 264,-313.5 91,-313.5"/>
<text text-anchor="middle" x="177.5" y="-320.5" font-family="Helvetica,sans-Serif" font-size="10.00">DynExp::InstrumentParamsBase</text>
</a>
</g>
</g>
<!-- Node4&#45;&gt;Node3 -->
<g id="edge3" class="edge">
<title>Node4&#45;&gt;Node3</title>
<path fill="none" stroke="midnightblue" d="M177.5,-303.23C177.5,-294.59 177.5,-284.5 177.5,-276.52"/>
<polygon fill="midnightblue" stroke="midnightblue" points="174,-303.48 177.5,-313.48 181,-303.48 174,-303.48"/>
</g>
<!-- Node5 -->
<g id="node5" class="node">
<title>Node5</title>
<g id="a_node5"><a xlink:href="classDynExp_1_1RunnableObjectParams.html" target="_top" xlink:title="Parameter class for RunnableObject.">
<polygon fill="white" stroke="black" points="91,-369.5 91,-388.5 264,-388.5 264,-369.5 91,-369.5"/>
<text text-anchor="middle" x="177.5" y="-376.5" font-family="Helvetica,sans-Serif" font-size="10.00">DynExp::RunnableObjectParams</text>
</a>
</g>
</g>
<!-- Node5&#45;&gt;Node4 -->
<g id="edge4" class="edge">
<title>Node5&#45;&gt;Node4</title>
<path fill="none" stroke="midnightblue" d="M177.5,-358.8C177.5,-349.91 177.5,-339.78 177.5,-332.75"/>
<polygon fill="midnightblue" stroke="midnightblue" points="174,-359.08 177.5,-369.08 181,-359.08 174,-359.08"/>
</g>
<!-- Node6 -->
<g id="node6" class="node">
<title>Node6</title>
<g id="a_node6"><a xlink:href="classDynExp_1_1ParamsBase.html" target="_top" xlink:title="Abstract base class for object parameter classes. Each class derived from class Object must be accomp...">
<polygon fill="white" stroke="black" points="117.5,-425.5 117.5,-444.5 237.5,-444.5 237.5,-425.5 117.5,-425.5"/>
<text text-anchor="middle" x="177.5" y="-432.5" font-family="Helvetica,sans-Serif" font-size="10.00">DynExp::ParamsBase</text>
</a>
</g>
</g>
<!-- Node6&#45;&gt;Node5 -->
<g id="edge5" class="edge">
<title>Node6&#45;&gt;Node5</title>
<path fill="none" stroke="midnightblue" d="M177.5,-414.8C177.5,-405.91 177.5,-395.78 177.5,-388.75"/>
<polygon fill="midnightblue" stroke="midnightblue" points="174,-415.08 177.5,-425.08 181,-415.08 174,-415.08"/>
</g>
<!-- Node7 -->
<g id="node7" class="node">
<title>Node7</title>
<g id="a_node7"><a xlink:href="classUtil_1_1ISynchronizedPointerLockable.html" target="_top" xlink:title="Interface to allow synchronizing the access to derived classes between different threads by making th...">
<polygon fill="white" stroke="black" points="106,-481.5 106,-511.5 249,-511.5 249,-481.5 106,-481.5"/>
<text text-anchor="start" x="114" y="-499.5" font-family="Helvetica,sans-Serif" font-size="10.00">Util::ISynchronizedPointer</text>
<text text-anchor="middle" x="177.5" y="-488.5" font-family="Helvetica,sans-Serif" font-size="10.00">Lockable</text>
</a>
</g>
</g>
<!-- Node7&#45;&gt;Node6 -->
<g id="edge6" class="edge">
<title>Node7&#45;&gt;Node6</title>
<path fill="none" stroke="midnightblue" d="M177.5,-471.29C177.5,-461.86 177.5,-451.65 177.5,-444.66"/>
<polygon fill="midnightblue" stroke="midnightblue" points="174,-471.4 177.5,-481.4 181,-471.4 174,-471.4"/>
</g>
<!-- Node8 -->
<g id="node8" class="node">
<title>Node8</title>
<g id="a_node8"><a xlink:href="classUtil_1_1INonCopyable.html" target="_top" xlink:title="Interface to delete copy constructor and copy assignment operator and thus make derived classes non&#45;c...">
<polygon fill="white" stroke="black" points="123.5,-548.5 123.5,-567.5 231.5,-567.5 231.5,-548.5 123.5,-548.5"/>
<text text-anchor="middle" x="177.5" y="-555.5" font-family="Helvetica,sans-Serif" font-size="10.00">Util::INonCopyable</text>
</a>
</g>
</g>
<!-- Node8&#45;&gt;Node7 -->
<g id="edge7" class="edge">
<title>Node8&#45;&gt;Node7</title>
<path fill="none" stroke="midnightblue" d="M177.5,-538.23C177.5,-529.59 177.5,-519.5 177.5,-511.52"/>
<polygon fill="midnightblue" stroke="midnightblue" points="174,-538.48 177.5,-548.48 181,-538.48 174,-538.48"/>
</g>
<!-- Node10 -->
<g id="node10" class="node">
<title>Node10</title>
<g id="a_node10"><a xlink:href="classDynExpInstr_1_1NIDAQAnalogOutParams.html" target="_top" xlink:title=" ">
<polygon fill="white" stroke="black" points="10.5,-0.5 10.5,-30.5 158.5,-30.5 158.5,-0.5 10.5,-0.5"/>
<text text-anchor="start" x="18.5" y="-18.5" font-family="Helvetica,sans-Serif" font-size="10.00">DynExpInstr::NIDAQAnalog</text>
<text text-anchor="middle" x="84.5" y="-7.5" font-family="Helvetica,sans-Serif" font-size="10.00">OutParams</text>
</a>
</g>
</g>
<!-- Node9&#45;&gt;Node10 -->
<g id="edge9" class="edge">
<title>Node9&#45;&gt;Node10</title>
<path fill="none" stroke="midnightblue" d="M84.5,-57.23C84.5,-48.59 84.5,-38.5 84.5,-30.52"/>
<polygon fill="midnightblue" stroke="midnightblue" points="81,-57.48 84.5,-67.48 88,-57.48 81,-57.48"/>
</g>
<!-- Node12 -->
<g id="node12" class="node">
<title>Node12</title>
<g id="a_node12"><a xlink:href="classDynExpInstr_1_1NIDAQDigitalOutParams.html" target="_top" xlink:title=" ">
<polygon fill="white" stroke="black" points="197.5,-0.5 197.5,-30.5 343.5,-30.5 343.5,-0.5 197.5,-0.5"/>
<text text-anchor="start" x="205.5" y="-18.5" font-family="Helvetica,sans-Serif" font-size="10.00">DynExpInstr::NIDAQDigital</text>
<text text-anchor="middle" x="270.5" y="-7.5" font-family="Helvetica,sans-Serif" font-size="10.00">OutParams</text>
</a>
</g>
</g>
<!-- Node11&#45;&gt;Node12 -->
<g id="edge11" class="edge">
<title>Node11&#45;&gt;Node12</title>
<path fill="none" stroke="midnightblue" d="M270.5,-57.23C270.5,-48.59 270.5,-38.5 270.5,-30.52"/>
<polygon fill="midnightblue" stroke="midnightblue" points="267,-57.48 270.5,-67.48 274,-57.48 267,-57.48"/>
</g>
</g>
</svg>
