<?xml version="1.0" encoding="UTF-8" standalone="no"?>
<!DOCTYPE svg PUBLIC "-//W3C//DTD SVG 1.1//EN"
 "http://www.w3.org/Graphics/SVG/1.1/DTD/svg11.dtd">
<!-- Generated by graphviz version 2.43.0 (0)
 -->
<!-- Title: DynExp::ModuleParamsBase Pages: 1 -->
<svg width="1500pt" height="732pt"
 viewBox="0.00 0.00 1500.00 732.00" xmlns="http://www.w3.org/2000/svg" xmlns:xlink="http://www.w3.org/1999/xlink">
<g id="graph0" class="graph" transform="scale(1 1) rotate(0) translate(4 728)">
<title>DynExp::ModuleParamsBase</title>
<polygon fill="white" stroke="transparent" points="-4,4 -4,-728 1496,-728 1496,4 -4,4"/>
<!-- Node1 -->
<g id="node1" class="node">
<title>Node1</title>
<g id="a_node1"><a xlink:title="Parameter class for ModuleBase.">
<polygon fill="#bfbfbf" stroke="black" points="688,-221 688,-240 844,-240 844,-221 688,-221"/>
<text text-anchor="middle" x="766" y="-228" font-family="Helvetica,sans-Serif" font-size="10.00">DynExp::ModuleParamsBase</text>
</a>
</g>
</g>
<!-- Node6 -->
<g id="node6" class="node">
<title>Node6</title>
<g id="a_node6"><a xlink:href="classDynExpModule_1_1gRPCModuleParams.html" target="_top" xlink:title=" ">
<polygon fill="white" stroke="black" points="896,-535.5 896,-565.5 1054,-565.5 1054,-535.5 896,-535.5"/>
<text text-anchor="start" x="904" y="-553.5" font-family="Helvetica,sans-Serif" font-size="10.00">DynExpModule::gRPCModule</text>
<text text-anchor="middle" x="975" y="-542.5" font-family="Helvetica,sans-Serif" font-size="10.00">Params&lt; gRPCServices... &gt;</text>
</a>
</g>
</g>
<!-- Node1&#45;&gt;Node6 -->
<g id="edge5" class="edge">
<title>Node1&#45;&gt;Node6</title>
<path fill="none" stroke="midnightblue" d="M778.85,-248.82C816.05,-306.33 930.07,-482.59 964.23,-535.39"/>
<polygon fill="midnightblue" stroke="midnightblue" points="781.57,-246.57 773.2,-240.08 775.69,-250.37 781.57,-246.57"/>
</g>
<!-- Node14 -->
<g id="node14" class="node">
<title>Node14</title>
<g id="a_node14"><a xlink:href="classDynExp_1_1QModuleParamsBase.html" target="_top" xlink:title="Parameter class for QModuleBase.">
<polygon fill="white" stroke="black" points="893,-265 893,-284 1057,-284 1057,-265 893,-265"/>
<text text-anchor="middle" x="975" y="-272" font-family="Helvetica,sans-Serif" font-size="10.00">DynExp::QModuleParamsBase</text>
</a>
</g>
</g>
<!-- Node1&#45;&gt;Node14 -->
<g id="edge13" class="edge">
<title>Node1&#45;&gt;Node14</title>
<path fill="none" stroke="midnightblue" d="M818.85,-242.18C838.04,-246.45 860,-251.27 880,-255.5 894.82,-258.64 910.98,-261.95 925.66,-264.91"/>
<polygon fill="midnightblue" stroke="midnightblue" points="819.61,-238.76 809.08,-240 818.08,-245.59 819.61,-238.76"/>
</g>
<!-- Node26 -->
<g id="node26" class="node">
<title>Node26</title>
<g id="a_node26"><a xlink:href="classDynExpModule_1_1ArbitraryFunctionFromCSVParams.html" target="_top" xlink:title=" ">
<polygon fill="white" stroke="black" points="885,-215.5 885,-245.5 1065,-245.5 1065,-215.5 885,-215.5"/>
<text text-anchor="start" x="893" y="-233.5" font-family="Helvetica,sans-Serif" font-size="10.00">DynExpModule::ArbitraryFunction</text>
<text text-anchor="middle" x="975" y="-222.5" font-family="Helvetica,sans-Serif" font-size="10.00">FromCSVParams</text>
</a>
</g>
</g>
<!-- Node1&#45;&gt;Node26 -->
<g id="edge25" class="edge">
<title>Node1&#45;&gt;Node26</title>
<path fill="none" stroke="midnightblue" d="M854.18,-230.5C864.37,-230.5 874.78,-230.5 884.99,-230.5"/>
<polygon fill="midnightblue" stroke="midnightblue" points="854.08,-227 844.08,-230.5 854.08,-234 854.08,-227"/>
</g>
<!-- Node27 -->
<g id="node27" class="node">
<title>Node27</title>
<g id="a_node27"><a xlink:href="classDynExpModule_1_1StreamManipulatorParams.html" target="_top" xlink:title="Parameter class for StreamManipulator.">
<polygon fill="white" stroke="black" points="880,-166.5 880,-196.5 1070,-196.5 1070,-166.5 880,-166.5"/>
<text text-anchor="start" x="888" y="-184.5" font-family="Helvetica,sans-Serif" font-size="10.00">DynExpModule::StreamManipulator</text>
<text text-anchor="middle" x="975" y="-173.5" font-family="Helvetica,sans-Serif" font-size="10.00">Params</text>
</a>
</g>
</g>
<!-- Node1&#45;&gt;Node27 -->
<g id="edge26" class="edge">
<title>Node1&#45;&gt;Node27</title>
<path fill="none" stroke="midnightblue" d="M817.38,-218.57C845.42,-211.94 880.58,-203.61 910.48,-196.54"/>
<polygon fill="midnightblue" stroke="midnightblue" points="816.33,-215.23 807.4,-220.94 817.94,-222.04 816.33,-215.23"/>
</g>
<!-- Node28 -->
<g id="node28" class="node">
<title>Node28</title>
<g id="a_node28"><a xlink:href="classDynExpModule_1_1gRPCModuleParams.html" target="_top" xlink:title="Parameter class for gRPCModule.">
<polygon fill="white" stroke="black" points="896,-117.5 896,-147.5 1054,-147.5 1054,-117.5 896,-117.5"/>
<text text-anchor="start" x="904" y="-135.5" font-family="Helvetica,sans-Serif" font-size="10.00">DynExpModule::gRPCModule</text>
<text text-anchor="middle" x="975" y="-124.5" font-family="Helvetica,sans-Serif" font-size="10.00">Params&lt; gRPCServices &gt;</text>
</a>
</g>
</g>
<!-- Node1&#45;&gt;Node28 -->
<g id="edge27" class="edge">
<title>Node1&#45;&gt;Node28</title>
<path fill="none" stroke="midnightblue" d="M786.86,-214.54C808.56,-197.85 844.92,-171.95 880,-156.5 887.71,-153.11 895.99,-150.12 904.33,-147.52"/>
<polygon fill="midnightblue" stroke="midnightblue" points="784.49,-211.95 778.77,-220.87 788.81,-217.47 784.49,-211.95"/>
</g>
<!-- Node2 -->
<g id="node2" class="node">
<title>Node2</title>
<g id="a_node2"><a xlink:href="classDynExp_1_1RunnableObjectParams.html" target="_top" xlink:title="Parameter class for RunnableObject.">
<polygon fill="white" stroke="black" points="479,-221 479,-240 652,-240 652,-221 479,-221"/>
<text text-anchor="middle" x="565.5" y="-228" font-family="Helvetica,sans-Serif" font-size="10.00">DynExp::RunnableObjectParams</text>
</a>
</g>
</g>
<!-- Node2&#45;&gt;Node1 -->
<g id="edge1" class="edge">
<title>Node2&#45;&gt;Node1</title>
<path fill="none" stroke="midnightblue" d="M662.17,-230.5C670.76,-230.5 679.39,-230.5 687.79,-230.5"/>
<polygon fill="midnightblue" stroke="midnightblue" points="662.12,-227 652.12,-230.5 662.12,-234 662.12,-227"/>
</g>
<!-- Node3 -->
<g id="node3" class="node">
<title>Node3</title>
<g id="a_node3"><a xlink:href="classDynExp_1_1ParamsBase.html" target="_top" xlink:title="Abstract base class for object parameter classes. Each class derived from class Object must be accomp...">
<polygon fill="white" stroke="black" points="323,-221 323,-240 443,-240 443,-221 323,-221"/>
<text text-anchor="middle" x="383" y="-228" font-family="Helvetica,sans-Serif" font-size="10.00">DynExp::ParamsBase</text>
</a>
</g>
</g>
<!-- Node3&#45;&gt;Node2 -->
<g id="edge2" class="edge">
<title>Node3&#45;&gt;Node2</title>
<path fill="none" stroke="midnightblue" d="M453.17,-230.5C461.54,-230.5 470.17,-230.5 478.75,-230.5"/>
<polygon fill="midnightblue" stroke="midnightblue" points="453.1,-227 443.1,-230.5 453.1,-234 453.1,-227"/>
</g>
<!-- Node4 -->
<g id="node4" class="node">
<title>Node4</title>
<g id="a_node4"><a xlink:href="classUtil_1_1ISynchronizedPointerLockable.html" target="_top" xlink:title="Interface to allow synchronizing the access to derived classes between different threads by making th...">
<polygon fill="white" stroke="black" points="144,-215.5 144,-245.5 287,-245.5 287,-215.5 144,-215.5"/>
<text text-anchor="start" x="152" y="-233.5" font-family="Helvetica,sans-Serif" font-size="10.00">Util::ISynchronizedPointer</text>
<text text-anchor="middle" x="215.5" y="-222.5" font-family="Helvetica,sans-Serif" font-size="10.00">Lockable</text>
</a>
</g>
</g>
<!-- Node4&#45;&gt;Node3 -->
<g id="edge3" class="edge">
<title>Node4&#45;&gt;Node3</title>
<path fill="none" stroke="midnightblue" d="M297.23,-230.5C305.84,-230.5 314.47,-230.5 322.76,-230.5"/>
<polygon fill="midnightblue" stroke="midnightblue" points="297.17,-227 287.17,-230.5 297.17,-234 297.17,-227"/>
</g>
<!-- Node5 -->
<g id="node5" class="node">
<title>Node5</title>
<g id="a_node5"><a xlink:href="classUtil_1_1INonCopyable.html" target="_top" xlink:title="Interface to delete copy constructor and copy assignment operator and thus make derived classes non&#45;c...">
<polygon fill="white" stroke="black" points="0,-221 0,-240 108,-240 108,-221 0,-221"/>
<text text-anchor="middle" x="54" y="-228" font-family="Helvetica,sans-Serif" font-size="10.00">Util::INonCopyable</text>
</a>
</g>
</g>
<!-- Node5&#45;&gt;Node4 -->
<g id="edge4" class="edge">
<title>Node5&#45;&gt;Node4</title>
<path fill="none" stroke="midnightblue" d="M118.19,-230.5C126.58,-230.5 135.23,-230.5 143.74,-230.5"/>
<polygon fill="midnightblue" stroke="midnightblue" points="118.11,-227 108.11,-230.5 118.11,-234 118.11,-227"/>
</g>
<!-- Node7 -->
<g id="node7" class="node">
<title>Node7</title>
<g id="a_node7"><a xlink:href="classDynExpModule_1_1NetworkDataStreamInstrumentParams.html" target="_top" xlink:title=" ">
<polygon fill="white" stroke="black" points="1113.5,-590 1113.5,-631 1274.5,-631 1274.5,-590 1113.5,-590"/>
<text text-anchor="start" x="1121.5" y="-619" font-family="Helvetica,sans-Serif" font-size="10.00">DynExpModule::NetworkData</text>
<text text-anchor="start" x="1121.5" y="-608" font-family="Helvetica,sans-Serif" font-size="10.00">StreamInstrumentParams</text>
<text text-anchor="middle" x="1194" y="-597" font-family="Helvetica,sans-Serif" font-size="10.00">&lt; gRPCServices... &gt;</text>
</a>
</g>
</g>
<!-- Node6&#45;&gt;Node7 -->
<g id="edge6" class="edge">
<title>Node6&#45;&gt;Node7</title>
<path fill="none" stroke="midnightblue" d="M1040.43,-568.32C1065.07,-575.13 1093.35,-582.95 1118.82,-589.99"/>
<polygon fill="midnightblue" stroke="midnightblue" points="1041.05,-564.85 1030.48,-565.56 1039.18,-571.6 1041.05,-564.85"/>
</g>
<!-- Node13 -->
<g id="node13" class="node">
<title>Node13</title>
<g id="a_node13"><a xlink:href="classDynExpModule_1_1NetworkDataStreamInstrumentParams.html" target="_top" xlink:title=" ">
<polygon fill="white" stroke="black" points="1113.5,-530 1113.5,-571 1274.5,-571 1274.5,-530 1113.5,-530"/>
<text text-anchor="start" x="1121.5" y="-559" font-family="Helvetica,sans-Serif" font-size="10.00">DynExpModule::NetworkData</text>
<text text-anchor="start" x="1121.5" y="-548" font-family="Helvetica,sans-Serif" font-size="10.00">StreamInstrumentParams</text>
<text text-anchor="middle" x="1194" y="-537" font-family="Helvetica,sans-Serif" font-size="10.00">&lt; gRPCServices &gt;</text>
</a>
</g>
</g>
<!-- Node6&#45;&gt;Node13 -->
<g id="edge12" class="edge">
<title>Node6&#45;&gt;Node13</title>
<path fill="none" stroke="midnightblue" d="M1064.11,-550.5C1080.44,-550.5 1097.41,-550.5 1113.47,-550.5"/>
<polygon fill="midnightblue" stroke="midnightblue" points="1064.04,-547 1054.04,-550.5 1064.04,-554 1064.04,-547"/>
</g>
<!-- Node8 -->
<g id="node8" class="node">
<title>Node8</title>
<g id="a_node8"><a xlink:href="classDynExpModule_1_1NetworkAnalogInParams.html" target="_top" xlink:title=" ">
<polygon fill="white" stroke="black" points="1319.5,-693.5 1319.5,-723.5 1490.5,-723.5 1490.5,-693.5 1319.5,-693.5"/>
<text text-anchor="start" x="1327.5" y="-711.5" font-family="Helvetica,sans-Serif" font-size="10.00">DynExpModule::NetworkAnalog</text>
<text text-anchor="middle" x="1405" y="-700.5" font-family="Helvetica,sans-Serif" font-size="10.00">InParams&lt; gRPCServices &gt;</text>
</a>
</g>
</g>
<!-- Node7&#45;&gt;Node8 -->
<g id="edge7" class="edge">
<title>Node7&#45;&gt;Node8</title>
<path fill="none" stroke="midnightblue" d="M1232.46,-636.67C1256.12,-652.27 1287.83,-671.5 1318,-684.5 1325.69,-687.81 1333.96,-690.8 1342.22,-693.44"/>
<polygon fill="midnightblue" stroke="midnightblue" points="1234.38,-633.75 1224.12,-631.11 1230.49,-639.57 1234.38,-633.75"/>
</g>
<!-- Node9 -->
<g id="node9" class="node">
<title>Node9</title>
<g id="a_node9"><a xlink:href="classDynExpModule_1_1NetworkAnalogOutParams.html" target="_top" xlink:title=" ">
<polygon fill="white" stroke="black" points="1319.5,-644.5 1319.5,-674.5 1490.5,-674.5 1490.5,-644.5 1319.5,-644.5"/>
<text text-anchor="start" x="1327.5" y="-662.5" font-family="Helvetica,sans-Serif" font-size="10.00">DynExpModule::NetworkAnalog</text>
<text text-anchor="middle" x="1405" y="-651.5" font-family="Helvetica,sans-Serif" font-size="10.00">OutParams&lt; gRPCServices &gt;</text>
</a>
</g>
</g>
<!-- Node7&#45;&gt;Node9 -->
<g id="edge8" class="edge">
<title>Node7&#45;&gt;Node9</title>
<path fill="none" stroke="midnightblue" d="M1284.56,-631.5C1303.16,-635.86 1322.4,-640.37 1339.86,-644.46"/>
<polygon fill="midnightblue" stroke="midnightblue" points="1285.15,-628.04 1274.61,-629.16 1283.55,-634.85 1285.15,-628.04"/>
</g>
<!-- Node10 -->
<g id="node10" class="node">
<title>Node10</title>
<g id="a_node10"><a xlink:href="classDynExpModule_1_1NetworkDigitalInParams.html" target="_top" xlink:title=" ">
<polygon fill="white" stroke="black" points="1320,-595.5 1320,-625.5 1490,-625.5 1490,-595.5 1320,-595.5"/>
<text text-anchor="start" x="1328" y="-613.5" font-family="Helvetica,sans-Serif" font-size="10.00">DynExpModule::NetworkDigital</text>
<text text-anchor="middle" x="1405" y="-602.5" font-family="Helvetica,sans-Serif" font-size="10.00">InParams&lt; gRPCServices &gt;</text>
</a>
</g>
</g>
<!-- Node7&#45;&gt;Node10 -->
<g id="edge9" class="edge">
<title>Node7&#45;&gt;Node10</title>
<path fill="none" stroke="midnightblue" d="M1284.74,-610.5C1296.36,-610.5 1308.22,-610.5 1319.74,-610.5"/>
<polygon fill="midnightblue" stroke="midnightblue" points="1284.61,-607 1274.61,-610.5 1284.61,-614 1284.61,-607"/>
</g>
<!-- Node11 -->
<g id="node11" class="node">
<title>Node11</title>
<g id="a_node11"><a xlink:href="classDynExpModule_1_1NetworkDigitalOutParams.html" target="_top" xlink:title=" ">
<polygon fill="white" stroke="black" points="1320,-546.5 1320,-576.5 1490,-576.5 1490,-546.5 1320,-546.5"/>
<text text-anchor="start" x="1328" y="-564.5" font-family="Helvetica,sans-Serif" font-size="10.00">DynExpModule::NetworkDigital</text>
<text text-anchor="middle" x="1405" y="-553.5" font-family="Helvetica,sans-Serif" font-size="10.00">OutParams&lt; gRPCServices &gt;</text>
</a>
</g>
</g>
<!-- Node7&#45;&gt;Node11 -->
<g id="edge10" class="edge">
<title>Node7&#45;&gt;Node11</title>
<path fill="none" stroke="midnightblue" d="M1284.56,-589.5C1303.16,-585.14 1322.4,-580.63 1339.86,-576.54"/>
<polygon fill="midnightblue" stroke="midnightblue" points="1283.55,-586.15 1274.61,-591.84 1285.15,-592.96 1283.55,-586.15"/>
</g>
<!-- Node12 -->
<g id="node12" class="node">
<title>Node12</title>
<g id="a_node12"><a xlink:href="classDynExpModule_1_1NetworkTimeTaggerParams.html" target="_top" xlink:title=" ">
<polygon fill="white" stroke="black" points="1318,-497.5 1318,-527.5 1492,-527.5 1492,-497.5 1318,-497.5"/>
<text text-anchor="start" x="1326" y="-515.5" font-family="Helvetica,sans-Serif" font-size="10.00">DynExpModule::NetworkTime</text>
<text text-anchor="middle" x="1405" y="-504.5" font-family="Helvetica,sans-Serif" font-size="10.00">TaggerParams&lt; gRPCServices &gt;</text>
</a>
</g>
</g>
<!-- Node7&#45;&gt;Node12 -->
<g id="edge11" class="edge">
<title>Node7&#45;&gt;Node12</title>
<path fill="none" stroke="midnightblue" d="M1274.51,-585.22C1277.09,-583.73 1279.59,-582.16 1282,-580.5 1302.53,-566.37 1297.13,-551.12 1318,-537.5 1323.86,-533.68 1330.32,-530.42 1336.98,-527.66"/>
<polygon fill="midnightblue" stroke="midnightblue" points="1272.7,-582.22 1265.49,-589.99 1275.97,-588.41 1272.7,-582.22"/>
</g>
<!-- Node15 -->
<g id="node15" class="node">
<title>Node15</title>
<g id="a_node15"><a xlink:href="classDynExpModule_1_1ImageViewer_1_1ImageViewerParams.html" target="_top" xlink:title=" ">
<polygon fill="white" stroke="black" points="1113.5,-480.5 1113.5,-510.5 1274.5,-510.5 1274.5,-480.5 1113.5,-480.5"/>
<text text-anchor="start" x="1121.5" y="-498.5" font-family="Helvetica,sans-Serif" font-size="10.00">DynExpModule::ImageViewer</text>
<text text-anchor="middle" x="1194" y="-487.5" font-family="Helvetica,sans-Serif" font-size="10.00">::ImageViewerParams</text>
</a>
</g>
</g>
<!-- Node14&#45;&gt;Node15 -->
<g id="edge14" class="edge">
<title>Node14&#45;&gt;Node15</title>
<path fill="none" stroke="midnightblue" d="M983.14,-293.54C998.94,-333.02 1040.71,-424.06 1106,-471.5 1110.69,-474.91 1115.84,-477.83 1121.22,-480.34"/>
<polygon fill="midnightblue" stroke="midnightblue" points="986.34,-292.11 979.45,-284.06 979.81,-294.64 986.34,-292.11"/>
</g>
<!-- Node16 -->
<g id="node16" class="node">
<title>Node16</title>
<g id="a_node16"><a xlink:href="classDynExpModule_1_1InputPortReaderParams.html" target="_top" xlink:title=" ">
<polygon fill="white" stroke="black" points="1106.5,-431.5 1106.5,-461.5 1281.5,-461.5 1281.5,-431.5 1106.5,-431.5"/>
<text text-anchor="start" x="1114.5" y="-449.5" font-family="Helvetica,sans-Serif" font-size="10.00">DynExpModule::InputPortReader</text>
<text text-anchor="middle" x="1194" y="-438.5" font-family="Helvetica,sans-Serif" font-size="10.00">Params</text>
</a>
</g>
</g>
<!-- Node14&#45;&gt;Node16 -->
<g id="edge15" class="edge">
<title>Node14&#45;&gt;Node16</title>
<path fill="none" stroke="midnightblue" d="M986.95,-292.8C1006.71,-324.21 1051.37,-388.28 1106,-422.5 1111.44,-425.91 1117.38,-428.84 1123.5,-431.37"/>
<polygon fill="midnightblue" stroke="midnightblue" points="989.86,-290.85 981.64,-284.18 983.9,-294.53 989.86,-290.85"/>
</g>
<!-- Node17 -->
<g id="node17" class="node">
<title>Node17</title>
<g id="a_node17"><a xlink:href="classDynExpModule_1_1LockinAmplifierControlParams.html" target="_top" xlink:title=" ">
<polygon fill="white" stroke="black" points="1108,-382.5 1108,-412.5 1280,-412.5 1280,-382.5 1108,-382.5"/>
<text text-anchor="start" x="1116" y="-400.5" font-family="Helvetica,sans-Serif" font-size="10.00">DynExpModule::LockinAmplifier</text>
<text text-anchor="middle" x="1194" y="-389.5" font-family="Helvetica,sans-Serif" font-size="10.00">ControlParams</text>
</a>
</g>
</g>
<!-- Node14&#45;&gt;Node17 -->
<g id="edge16" class="edge">
<title>Node14&#45;&gt;Node17</title>
<path fill="none" stroke="midnightblue" d="M993.31,-291.22C1016.93,-313.15 1061.43,-351.42 1106,-373.5 1112.88,-376.91 1120.31,-379.89 1127.84,-382.49"/>
<polygon fill="midnightblue" stroke="midnightblue" points="995.54,-288.51 985.87,-284.2 990.74,-293.6 995.54,-288.51"/>
</g>
<!-- Node18 -->
<g id="node18" class="node">
<title>Node18</title>
<g id="a_node18"><a xlink:href="classDynExpModule_1_1ODMR_1_1ODMRParams.html" target="_top" xlink:title=" ">
<polygon fill="white" stroke="black" points="1130.5,-333.5 1130.5,-363.5 1257.5,-363.5 1257.5,-333.5 1130.5,-333.5"/>
<text text-anchor="start" x="1138.5" y="-351.5" font-family="Helvetica,sans-Serif" font-size="10.00">DynExpModule::ODMR</text>
<text text-anchor="middle" x="1194" y="-340.5" font-family="Helvetica,sans-Serif" font-size="10.00">::ODMRParams</text>
</a>
</g>
</g>
<!-- Node14&#45;&gt;Node18 -->
<g id="edge17" class="edge">
<title>Node14&#45;&gt;Node18</title>
<path fill="none" stroke="midnightblue" d="M1008.17,-287.88C1034.28,-298.5 1072.19,-313.37 1106,-324.5 1115.38,-327.59 1125.41,-330.61 1135.2,-333.41"/>
<polygon fill="midnightblue" stroke="midnightblue" points="1009.35,-284.59 998.77,-284.04 1006.7,-291.06 1009.35,-284.59"/>
</g>
<!-- Node19 -->
<g id="node19" class="node">
<title>Node19</title>
<g id="a_node19"><a xlink:href="classDynExpModule_1_1OutputPortWriterParams.html" target="_top" xlink:title=" ">
<polygon fill="white" stroke="black" points="1119.5,-284.5 1119.5,-314.5 1268.5,-314.5 1268.5,-284.5 1119.5,-284.5"/>
<text text-anchor="start" x="1127.5" y="-302.5" font-family="Helvetica,sans-Serif" font-size="10.00">DynExpModule::OutputPort</text>
<text text-anchor="middle" x="1194" y="-291.5" font-family="Helvetica,sans-Serif" font-size="10.00">WriterParams</text>
</a>
</g>
</g>
<!-- Node14&#45;&gt;Node19 -->
<g id="edge18" class="edge">
<title>Node14&#45;&gt;Node19</title>
<path fill="none" stroke="midnightblue" d="M1067.28,-285.02C1084.7,-287.02 1102.72,-289.1 1119.5,-291.03"/>
<polygon fill="midnightblue" stroke="midnightblue" points="1067.45,-281.51 1057.11,-283.84 1066.65,-288.47 1067.45,-281.51"/>
</g>
<!-- Node20 -->
<g id="node20" class="node">
<title>Node20</title>
<g id="a_node20"><a xlink:href="classDynExpModule_1_1SignalDesignerParams.html" target="_top" xlink:title=" ">
<polygon fill="white" stroke="black" points="1109,-235.5 1109,-265.5 1279,-265.5 1279,-235.5 1109,-235.5"/>
<text text-anchor="start" x="1117" y="-253.5" font-family="Helvetica,sans-Serif" font-size="10.00">DynExpModule::SignalDesigner</text>
<text text-anchor="middle" x="1194" y="-242.5" font-family="Helvetica,sans-Serif" font-size="10.00">Params</text>
</a>
</g>
</g>
<!-- Node14&#45;&gt;Node20 -->
<g id="edge19" class="edge">
<title>Node14&#45;&gt;Node20</title>
<path fill="none" stroke="midnightblue" d="M1067.08,-264.43C1080.89,-262.9 1095.08,-261.33 1108.73,-259.82"/>
<polygon fill="midnightblue" stroke="midnightblue" points="1066.67,-260.95 1057.11,-265.53 1067.44,-267.91 1066.67,-260.95"/>
</g>
<!-- Node21 -->
<g id="node21" class="node">
<title>Node21</title>
<g id="a_node21"><a xlink:href="classDynExpModule_1_1SignalPlotterParams.html" target="_top" xlink:title=" ">
<polygon fill="white" stroke="black" points="1115,-186.5 1115,-216.5 1273,-216.5 1273,-186.5 1115,-186.5"/>
<text text-anchor="start" x="1123" y="-204.5" font-family="Helvetica,sans-Serif" font-size="10.00">DynExpModule::SignalPlotter</text>
<text text-anchor="middle" x="1194" y="-193.5" font-family="Helvetica,sans-Serif" font-size="10.00">Params</text>
</a>
</g>
</g>
<!-- Node14&#45;&gt;Node21 -->
<g id="edge20" class="edge">
<title>Node14&#45;&gt;Node21</title>
<path fill="none" stroke="midnightblue" d="M1053.3,-262.04C1059.06,-260.16 1064.69,-257.99 1070,-255.5 1088.6,-246.77 1087.77,-235.97 1106,-226.5 1113.25,-222.73 1121.15,-219.47 1129.13,-216.65"/>
<polygon fill="midnightblue" stroke="midnightblue" points="1052.1,-258.74 1043.52,-264.95 1054.1,-265.45 1052.1,-258.74"/>
</g>
<!-- Node22 -->
<g id="node22" class="node">
<title>Node22</title>
<g id="a_node22"><a xlink:href="classDynExpModule_1_1SpectrumViewer_1_1SpectrumViewerParams.html" target="_top" xlink:title=" ">
<polygon fill="white" stroke="black" points="1106,-137.5 1106,-167.5 1282,-167.5 1282,-137.5 1106,-137.5"/>
<text text-anchor="start" x="1114" y="-155.5" font-family="Helvetica,sans-Serif" font-size="10.00">DynExpModule::SpectrumViewer</text>
<text text-anchor="middle" x="1194" y="-144.5" font-family="Helvetica,sans-Serif" font-size="10.00">::SpectrumViewerParams</text>
</a>
</g>
</g>
<!-- Node14&#45;&gt;Node22 -->
<g id="edge21" class="edge">
<title>Node14&#45;&gt;Node22</title>
<path fill="none" stroke="midnightblue" d="M1063.36,-260.13C1065.67,-258.72 1067.89,-257.18 1070,-255.5 1100.21,-231.5 1076.64,-201.54 1106,-176.5 1110.05,-173.04 1114.56,-170.08 1119.34,-167.54"/>
<polygon fill="midnightblue" stroke="midnightblue" points="1061.32,-257.25 1054.09,-264.99 1064.57,-263.45 1061.32,-257.25"/>
</g>
<!-- Node23 -->
<g id="node23" class="node">
<title>Node23</title>
<g id="a_node23"><a xlink:href="classDynExpModule_1_1Stage1DParams.html" target="_top" xlink:title=" ">
<polygon fill="white" stroke="black" points="1107.5,-99 1107.5,-118 1280.5,-118 1280.5,-99 1107.5,-99"/>
<text text-anchor="middle" x="1194" y="-106" font-family="Helvetica,sans-Serif" font-size="10.00">DynExpModule::Stage1DParams</text>
</a>
</g>
</g>
<!-- Node14&#45;&gt;Node23 -->
<g id="edge22" class="edge">
<title>Node14&#45;&gt;Node23</title>
<path fill="none" stroke="midnightblue" d="M1065.26,-259.44C1066.91,-258.21 1068.49,-256.9 1070,-255.5 1113.32,-215.3 1063,-168.03 1106,-127.5 1110.05,-123.68 1114.68,-120.56 1119.65,-118.02"/>
<polygon fill="midnightblue" stroke="midnightblue" points="1063.18,-256.61 1056.55,-264.87 1066.88,-262.55 1063.18,-256.61"/>
</g>
<!-- Node24 -->
<g id="node24" class="node">
<title>Node24</title>
<g id="a_node24"><a xlink:href="classDynExpModule_1_1Trajectory1DParams.html" target="_top" xlink:title=" ">
<polygon fill="white" stroke="black" points="1119,-49.5 1119,-79.5 1269,-79.5 1269,-49.5 1119,-49.5"/>
<text text-anchor="start" x="1127" y="-67.5" font-family="Helvetica,sans-Serif" font-size="10.00">DynExpModule::Trajectory1</text>
<text text-anchor="middle" x="1194" y="-56.5" font-family="Helvetica,sans-Serif" font-size="10.00">DParams</text>
</a>
</g>
</g>
<!-- Node14&#45;&gt;Node24 -->
<g id="edge23" class="edge">
<title>Node14&#45;&gt;Node24</title>
<path fill="none" stroke="midnightblue" d="M1065.91,-259.14C1067.33,-258 1068.7,-256.79 1070,-255.5 1123.76,-202.5 1054.42,-144.62 1106,-89.5 1109.76,-85.48 1114.12,-82.1 1118.84,-79.25"/>
<polygon fill="midnightblue" stroke="midnightblue" points="1063.63,-256.45 1057.25,-264.91 1067.51,-262.28 1063.63,-256.45"/>
</g>
<!-- Node25 -->
<g id="node25" class="node">
<title>Node25</title>
<g id="a_node25"><a xlink:href="classDynExpModule_1_1Widefield_1_1WidefieldMicroscopeParams.html" target="_top" xlink:title=" ">
<polygon fill="white" stroke="black" points="1114,-0.5 1114,-30.5 1274,-30.5 1274,-0.5 1114,-0.5"/>
<text text-anchor="start" x="1122" y="-18.5" font-family="Helvetica,sans-Serif" font-size="10.00">DynExpModule::Widefield</text>
<text text-anchor="middle" x="1194" y="-7.5" font-family="Helvetica,sans-Serif" font-size="10.00">::WidefieldMicroscopeParams</text>
</a>
</g>
</g>
<!-- Node14&#45;&gt;Node25 -->
<g id="edge24" class="edge">
<title>Node14&#45;&gt;Node25</title>
<path fill="none" stroke="midnightblue" d="M1065.47,-259.65C1067.06,-258.36 1068.57,-256.98 1070,-255.5 1137.63,-185.51 1040.85,-111.8 1106,-39.5 1109.04,-36.12 1112.51,-33.21 1116.27,-30.68"/>
<polygon fill="midnightblue" stroke="midnightblue" points="1063.35,-256.86 1057.03,-265.36 1067.27,-262.66 1063.35,-256.86"/>
</g>
</g>
</svg>
