<?xml version="1.0" encoding="UTF-8" standalone="no"?>
<!DOCTYPE svg PUBLIC "-//W3C//DTD SVG 1.1//EN"
 "http://www.w3.org/Graphics/SVG/1.1/DTD/svg11.dtd">
<!-- Generated by graphviz version 2.43.0 (0)
 -->
<!-- Title: DynExp::CommonResourceManagerBase Pages: 1 -->
<svg width="656pt" height="182pt"
 viewBox="0.00 0.00 656.00 182.00" xmlns="http://www.w3.org/2000/svg" xmlns:xlink="http://www.w3.org/1999/xlink">
<g id="graph0" class="graph" transform="scale(1 1) rotate(0) translate(4 178)">
<title>DynExp::CommonResourceManagerBase</title>
<!-- Node1 -->
<g id="Node000001" class="node">
<title>Node1</title>
<g id="a_Node000001"><a xlink:title="Common base class for all derived ResourceManagerBase classes. Logical const&#45;ness: Only const functio...">
<polygon fill="#999999" stroke="#666666" points="216,-96.5 0,-96.5 0,-77.5 216,-77.5 216,-96.5"/>
<text text-anchor="middle" x="108" y="-84.5" font-family="Helvetica,sans-Serif" font-size="10.00">DynExp::CommonResourceManagerBase</text>
</a>
</g>
</g>
<!-- Node2 -->
<g id="Node000002" class="node">
<title>Node2</title>
<g id="a_Node000002"><a xlink:href="classDynExp_1_1ResourceManagerBase.html" target="_top" xlink:title=" ">
<polygon fill="white" stroke="#666666" points="424,-174 252,-174 252,-144 424,-144 424,-174"/>
<text text-anchor="start" x="260" y="-162" font-family="Helvetica,sans-Serif" font-size="10.00">DynExp::ResourceManagerBase</text>
<text text-anchor="middle" x="338" y="-151" font-family="Helvetica,sans-Serif" font-size="10.00">&lt; HardwareAdapterPtrType &gt;</text>
</a>
</g>
</g>
<!-- Node1&#45;&gt;Node2 -->
<g id="edge1_Node000001_Node000002" class="edge">
<title>Node1&#45;&gt;Node2</title>
<g id="a_edge1_Node000001_Node000002"><a xlink:title=" ">
<path fill="none" stroke="#63b8ff" d="M145.66,-99.85C174.46,-109.82 215.63,-123.77 252,-135 261.67,-137.99 272,-141.03 282.02,-143.9"/>
<polygon fill="#63b8ff" stroke="#63b8ff" points="146.62,-96.48 136.02,-96.51 144.32,-103.09 146.62,-96.48"/>
</a>
</g>
</g>
<!-- Node4 -->
<g id="Node000004" class="node">
<title>Node4</title>
<g id="a_Node000004"><a xlink:href="classDynExp_1_1ResourceManagerBase.html" target="_top" xlink:title=" ">
<polygon fill="white" stroke="#666666" points="424,-126 252,-126 252,-96 424,-96 424,-126"/>
<text text-anchor="start" x="260" y="-114" font-family="Helvetica,sans-Serif" font-size="10.00">DynExp::ResourceManagerBase</text>
<text text-anchor="middle" x="338" y="-103" font-family="Helvetica,sans-Serif" font-size="10.00">&lt; InstrumentPtrType &gt;</text>
</a>
</g>
</g>
<!-- Node1&#45;&gt;Node4 -->
<g id="edge3_Node000001_Node000004" class="edge">
<title>Node1&#45;&gt;Node4</title>
<g id="a_edge3_Node000001_Node000004"><a xlink:title=" ">
<path fill="none" stroke="#63b8ff" d="M209.64,-97.59C223.73,-99.08 238.1,-100.59 251.87,-102.04"/>
<polygon fill="#63b8ff" stroke="#63b8ff" points="209.75,-94.09 199.44,-96.52 209.02,-101.05 209.75,-94.09"/>
</a>
</g>
</g>
<!-- Node6 -->
<g id="Node000006" class="node">
<title>Node6</title>
<g id="a_Node000006"><a xlink:href="classDynExp_1_1ResourceManagerBase.html" target="_top" xlink:title=" ">
<polygon fill="white" stroke="#666666" points="424,-78 252,-78 252,-48 424,-48 424,-78"/>
<text text-anchor="start" x="260" y="-66" font-family="Helvetica,sans-Serif" font-size="10.00">DynExp::ResourceManagerBase</text>
<text text-anchor="middle" x="338" y="-55" font-family="Helvetica,sans-Serif" font-size="10.00">&lt; ModulePtrType &gt;</text>
</a>
</g>
</g>
<!-- Node1&#45;&gt;Node6 -->
<g id="edge5_Node000001_Node000006" class="edge">
<title>Node1&#45;&gt;Node6</title>
<g id="a_edge5_Node000001_Node000006"><a xlink:title=" ">
<path fill="none" stroke="#63b8ff" d="M209.64,-76.41C223.73,-74.92 238.1,-73.41 251.87,-71.96"/>
<polygon fill="#63b8ff" stroke="#63b8ff" points="209.02,-72.95 199.44,-77.48 209.75,-79.91 209.02,-72.95"/>
</a>
</g>
</g>
<!-- Node8 -->
<g id="Node000008" class="node">
<title>Node8</title>
<g id="a_Node000008"><a xlink:href="classDynExp_1_1ResourceManagerBase.html" target="_top" xlink:title="Typed resource manager base class deriving from class CommonResourceManagerBase.">
<polygon fill="white" stroke="#666666" points="424,-30 252,-30 252,0 424,0 424,-30"/>
<text text-anchor="start" x="260" y="-18" font-family="Helvetica,sans-Serif" font-size="10.00">DynExp::ResourceManagerBase</text>
<text text-anchor="middle" x="338" y="-7" font-family="Helvetica,sans-Serif" font-size="10.00">&lt; PointerType &gt;</text>
</a>
</g>
</g>
<!-- Node1&#45;&gt;Node8 -->
<g id="edge7_Node000001_Node000008" class="edge">
<title>Node1&#45;&gt;Node8</title>
<g id="a_edge7_Node000001_Node000008"><a xlink:title=" ">
<path fill="none" stroke="#63b8ff" d="M145.66,-74.15C174.46,-64.18 215.63,-50.23 252,-39 261.67,-36.01 272,-32.97 282.02,-30.1"/>
<polygon fill="#63b8ff" stroke="#63b8ff" points="144.32,-70.91 136.02,-77.49 146.62,-77.52 144.32,-70.91"/>
</a>
</g>
</g>
<!-- Node3 -->
<g id="Node000003" class="node">
<title>Node3</title>
<g id="a_Node000003"><a xlink:href="classDynExp_1_1HardwareAdapterManager.html" target="_top" xlink:title="Resource manager for HardwareAdapterBase resources deriving from a specialized ResourceManagerBase cl...">
<polygon fill="white" stroke="#666666" points="648,-168.5 460,-168.5 460,-149.5 648,-149.5 648,-168.5"/>
<text text-anchor="middle" x="554" y="-156.5" font-family="Helvetica,sans-Serif" font-size="10.00">DynExp::HardwareAdapterManager</text>
</a>
</g>
</g>
<!-- Node2&#45;&gt;Node3 -->
<g id="edge2_Node000002_Node000003" class="edge">
<title>Node2&#45;&gt;Node3</title>
<g id="a_edge2_Node000002_Node000003"><a xlink:title=" ">
<path fill="none" stroke="#63b8ff" d="M434.38,-159C442.78,-159 451.27,-159 459.66,-159"/>
<polygon fill="#63b8ff" stroke="#63b8ff" points="434.19,-155.5 424.19,-159 434.19,-162.5 434.19,-155.5"/>
</a>
</g>
</g>
<!-- Node5 -->
<g id="Node000005" class="node">
<title>Node5</title>
<g id="a_Node000005"><a xlink:href="classDynExp_1_1InstrumentManager.html" target="_top" xlink:title="Resource manager for InstrumentBase resources deriving from a specialized ResourceManagerBase class.">
<polygon fill="white" stroke="#666666" points="632,-120.5 476,-120.5 476,-101.5 632,-101.5 632,-120.5"/>
<text text-anchor="middle" x="554" y="-108.5" font-family="Helvetica,sans-Serif" font-size="10.00">DynExp::InstrumentManager</text>
</a>
</g>
</g>
<!-- Node4&#45;&gt;Node5 -->
<g id="edge4_Node000004_Node000005" class="edge">
<title>Node4&#45;&gt;Node5</title>
<g id="a_edge4_Node000004_Node000005"><a xlink:title=" ">
<path fill="none" stroke="#63b8ff" d="M434.24,-111C448.12,-111 462.26,-111 475.73,-111"/>
<polygon fill="#63b8ff" stroke="#63b8ff" points="434.19,-107.5 424.19,-111 434.19,-114.5 434.19,-107.5"/>
</a>
</g>
</g>
<!-- Node7 -->
<g id="Node000007" class="node">
<title>Node7</title>
<g id="a_Node000007"><a xlink:href="classDynExp_1_1ModuleManager.html" target="_top" xlink:title="Resource manager for ModuleBase resources deriving from a specialized ResourceManagerBase class.">
<polygon fill="white" stroke="#666666" points="623.5,-72.5 484.5,-72.5 484.5,-53.5 623.5,-53.5 623.5,-72.5"/>
<text text-anchor="middle" x="554" y="-60.5" font-family="Helvetica,sans-Serif" font-size="10.00">DynExp::ModuleManager</text>
</a>
</g>
</g>
<!-- Node6&#45;&gt;Node7 -->
<g id="edge6_Node000006_Node000007" class="edge">
<title>Node6&#45;&gt;Node7</title>
<g id="a_edge6_Node000006_Node000007"><a xlink:title=" ">
<path fill="none" stroke="#63b8ff" d="M434.55,-63C451.28,-63 468.4,-63 484.22,-63"/>
<polygon fill="#63b8ff" stroke="#63b8ff" points="434.19,-59.5 424.19,-63 434.19,-66.5 434.19,-59.5"/>
</a>
</g>
</g>
</g>
</svg>
