<?xml version="1.0" encoding="UTF-8" standalone="no"?>
<!DOCTYPE svg PUBLIC "-//W3C//DTD SVG 1.1//EN"
 "http://www.w3.org/Graphics/SVG/1.1/DTD/svg11.dtd">
<!-- Generated by graphviz version 2.43.0 (0)
 -->
<!-- Title: DynExpInstr::ZI_MFLIConfigurator Pages: 1 -->
<svg width="205pt" height="324pt"
 viewBox="0.00 0.00 205.00 324.00" xmlns="http://www.w3.org/2000/svg" xmlns:xlink="http://www.w3.org/1999/xlink">
<g id="graph0" class="graph" transform="scale(1 1) rotate(0) translate(4 320)">
<title>DynExpInstr::ZI_MFLIConfigurator</title>
<!-- Node1 -->
<g id="Node000001" class="node">
<title>Node1</title>
<g id="a_Node000001"><a xlink:title=" ">
<polygon fill="#999999" stroke="#666666" points="188.5,-19 8.5,-19 8.5,0 188.5,0 188.5,-19"/>
<text text-anchor="middle" x="98.5" y="-7" font-family="Helvetica,sans-Serif" font-size="10.00">DynExpInstr::ZI_MFLIConfigurator</text>
</a>
</g>
</g>
<!-- Node2 -->
<g id="Node000002" class="node">
<title>Node2</title>
<g id="a_Node000002"><a xlink:href="classDynExpInstr_1_1LockinAmplifierConfigurator.html" target="_top" xlink:title="Configurator class for LockinAmplifier.">
<polygon fill="white" stroke="#666666" points="177.5,-85 19.5,-85 19.5,-55 177.5,-55 177.5,-85"/>
<text text-anchor="start" x="27.5" y="-73" font-family="Helvetica,sans-Serif" font-size="10.00">DynExpInstr::LockinAmplifier</text>
<text text-anchor="middle" x="98.5" y="-62" font-family="Helvetica,sans-Serif" font-size="10.00">Configurator</text>
</a>
</g>
</g>
<!-- Node2&#45;&gt;Node1 -->
<g id="edge1_Node000001_Node000002" class="edge">
<title>Node2&#45;&gt;Node1</title>
<g id="a_edge1_Node000001_Node000002"><a xlink:title=" ">
<path fill="none" stroke="#63b8ff" d="M98.5,-44.75C98.5,-35.72 98.5,-26.03 98.5,-19.27"/>
<polygon fill="#63b8ff" stroke="#63b8ff" points="95,-44.84 98.5,-54.84 102,-44.84 95,-44.84"/>
</a>
</g>
</g>
<!-- Node3 -->
<g id="Node000003" class="node">
<title>Node3</title>
<g id="a_Node000003"><a xlink:href="classDynExpInstr_1_1DataStreamInstrumentConfigurator.html" target="_top" xlink:title="Configurator class for DataStreamInstrument.">
<polygon fill="white" stroke="#666666" points="195.5,-151 1.5,-151 1.5,-121 195.5,-121 195.5,-151"/>
<text text-anchor="start" x="9.5" y="-139" font-family="Helvetica,sans-Serif" font-size="10.00">DynExpInstr::DataStreamInstrument</text>
<text text-anchor="middle" x="98.5" y="-128" font-family="Helvetica,sans-Serif" font-size="10.00">Configurator</text>
</a>
</g>
</g>
<!-- Node3&#45;&gt;Node2 -->
<g id="edge2_Node000002_Node000003" class="edge">
<title>Node3&#45;&gt;Node2</title>
<g id="a_edge2_Node000002_Node000003"><a xlink:title=" ">
<path fill="none" stroke="#63b8ff" d="M98.5,-110.54C98.5,-101.96 98.5,-92.61 98.5,-85.16"/>
<polygon fill="#63b8ff" stroke="#63b8ff" points="95,-110.8 98.5,-120.8 102,-110.8 95,-110.8"/>
</a>
</g>
</g>
<!-- Node4 -->
<g id="Node000004" class="node">
<title>Node4</title>
<g id="a_Node000004"><a xlink:href="classDynExp_1_1InstrumentConfiguratorBase.html" target="_top" xlink:title="Configurator class for InstrumentBase.">
<polygon fill="white" stroke="#666666" points="197,-206 0,-206 0,-187 197,-187 197,-206"/>
<text text-anchor="middle" x="98.5" y="-194" font-family="Helvetica,sans-Serif" font-size="10.00">DynExp::InstrumentConfiguratorBase</text>
</a>
</g>
</g>
<!-- Node4&#45;&gt;Node3 -->
<g id="edge3_Node000003_Node000004" class="edge">
<title>Node4&#45;&gt;Node3</title>
<g id="a_edge3_Node000003_Node000004"><a xlink:title=" ">
<path fill="none" stroke="#63b8ff" d="M98.5,-176.65C98.5,-168.36 98.5,-158.78 98.5,-151.11"/>
<polygon fill="#63b8ff" stroke="#63b8ff" points="95,-176.87 98.5,-186.87 102,-176.87 95,-176.87"/>
</a>
</g>
</g>
<!-- Node5 -->
<g id="Node000005" class="node">
<title>Node5</title>
<g id="a_Node000005"><a xlink:href="classDynExp_1_1RunnableObjectConfigurator.html" target="_top" xlink:title="Configurator class for RunnableObject.">
<polygon fill="white" stroke="#666666" points="197,-261 0,-261 0,-242 197,-242 197,-261"/>
<text text-anchor="middle" x="98.5" y="-249" font-family="Helvetica,sans-Serif" font-size="10.00">DynExp::RunnableObjectConfigurator</text>
</a>
</g>
</g>
<!-- Node5&#45;&gt;Node4 -->
<g id="edge4_Node000004_Node000005" class="edge">
<title>Node5&#45;&gt;Node4</title>
<g id="a_edge4_Node000004_Node000005"><a xlink:title=" ">
<path fill="none" stroke="#63b8ff" d="M98.5,-231.66C98.5,-222.93 98.5,-212.99 98.5,-206.09"/>
<polygon fill="#63b8ff" stroke="#63b8ff" points="95,-231.75 98.5,-241.75 102,-231.75 95,-231.75"/>
</a>
</g>
</g>
<!-- Node6 -->
<g id="Node000006" class="node">
<title>Node6</title>
<g id="a_Node000006"><a xlink:href="classDynExp_1_1ConfiguratorBase.html" target="_top" xlink:title="The configurator classes have the task to generate parameter objects (refer to DynExp::ParamsBase) of...">
<polygon fill="white" stroke="#666666" points="170.5,-316 26.5,-316 26.5,-297 170.5,-297 170.5,-316"/>
<text text-anchor="middle" x="98.5" y="-304" font-family="Helvetica,sans-Serif" font-size="10.00">DynExp::ConfiguratorBase</text>
</a>
</g>
</g>
<!-- Node6&#45;&gt;Node5 -->
<g id="edge5_Node000005_Node000006" class="edge">
<title>Node6&#45;&gt;Node5</title>
<g id="a_edge5_Node000005_Node000006"><a xlink:title=" ">
<path fill="none" stroke="#63b8ff" d="M98.5,-286.66C98.5,-277.93 98.5,-267.99 98.5,-261.09"/>
<polygon fill="#63b8ff" stroke="#63b8ff" points="95,-286.75 98.5,-296.75 102,-286.75 95,-286.75"/>
</a>
</g>
</g>
</g>
</svg>
