<?xml version="1.0" encoding="UTF-8" standalone="no"?>
<!DOCTYPE svg PUBLIC "-//W3C//DTD SVG 1.1//EN"
 "http://www.w3.org/Graphics/SVG/1.1/DTD/svg11.dtd">
<!-- Generated by graphviz version 2.43.0 (0)
 -->
<!-- Title: Util::INonCopyable Pages: 1 -->
<svg width="841pt" height="1965pt"
 viewBox="0.00 0.00 841.00 1964.50" xmlns="http://www.w3.org/2000/svg" xmlns:xlink="http://www.w3.org/1999/xlink">
<g id="graph0" class="graph" transform="scale(1 1) rotate(0) translate(4 1960.5)">
<title>Util::INonCopyable</title>
<polygon fill="white" stroke="transparent" points="-4,4 -4,-1960.5 837,-1960.5 837,4 -4,4"/>
<!-- Node1 -->
<g id="node1" class="node">
<title>Node1</title>
<g id="a_node1"><a xlink:title="Interface to delete copy constructor and copy assignment operator and thus make derived classes non&#45;c...">
<polygon fill="#bfbfbf" stroke="black" points="0,-422.5 0,-441.5 108,-441.5 108,-422.5 0,-422.5"/>
<text text-anchor="middle" x="54" y="-429.5" font-family="Helvetica,sans-Serif" font-size="10.00">Util::INonCopyable</text>
</a>
</g>
</g>
<!-- Node2 -->
<g id="node2" class="node">
<title>Node2</title>
<g id="a_node2"><a xlink:href="classDynExp_1_1DynExpCore.html" target="_top" xlink:title="DynExp&#39;s core class acts as the interface between the user interface and DynExp&#39;s internal data like ...">
<polygon fill="white" stroke="black" points="178,-1238.5 178,-1257.5 298,-1257.5 298,-1238.5 178,-1238.5"/>
<text text-anchor="middle" x="238" y="-1245.5" font-family="Helvetica,sans-Serif" font-size="10.00">DynExp::DynExpCore</text>
</a>
</g>
</g>
<!-- Node1&#45;&gt;Node2 -->
<g id="edge1" class="edge">
<title>Node1&#45;&gt;Node2</title>
<path fill="none" stroke="midnightblue" d="M55.83,-451.53C60.93,-568.18 89.76,-1169.62 144,-1229 152.78,-1238.61 165,-1244.1 177.7,-1247.1"/>
<polygon fill="midnightblue" stroke="midnightblue" points="59.32,-451.37 55.39,-441.53 52.33,-451.67 59.32,-451.37"/>
</g>
<!-- Node3 -->
<g id="node3" class="node">
<title>Node3</title>
<g id="a_node3"><a xlink:href="classDynExp_1_1LinkedObjectWrapperBase.html" target="_top" xlink:title="Polymorphic base class to allow storing LinkedObjectWrapper of any type in a single list.">
<polygon fill="white" stroke="black" points="144,-1200.5 144,-1219.5 332,-1219.5 332,-1200.5 144,-1200.5"/>
<text text-anchor="middle" x="238" y="-1207.5" font-family="Helvetica,sans-Serif" font-size="10.00">DynExp::LinkedObjectWrapperBase</text>
</a>
</g>
</g>
<!-- Node1&#45;&gt;Node3 -->
<g id="edge2" class="edge">
<title>Node1&#45;&gt;Node3</title>
<path fill="none" stroke="midnightblue" d="M55.95,-451.65C61.59,-565.25 92.32,-1134.74 144,-1191 147.46,-1194.76 151.44,-1197.89 155.77,-1200.49"/>
<polygon fill="midnightblue" stroke="midnightblue" points="59.44,-451.42 55.45,-441.6 52.45,-451.76 59.44,-451.42"/>
</g>
<!-- Node5 -->
<g id="node5" class="node">
<title>Node5</title>
<g id="a_node5"><a xlink:href="classDynExp_1_1LinkedObjectWrapperContainerBase.html" target="_top" xlink:title="Polymorphic base class to allow storing LinkedObjectWrapperContainer of any type in a single list.">
<polygon fill="white" stroke="black" points="156,-1151 156,-1181 320,-1181 320,-1151 156,-1151"/>
<text text-anchor="start" x="164" y="-1169" font-family="Helvetica,sans-Serif" font-size="10.00">DynExp::LinkedObjectWrapper</text>
<text text-anchor="middle" x="238" y="-1158" font-family="Helvetica,sans-Serif" font-size="10.00">ContainerBase</text>
</a>
</g>
</g>
<!-- Node1&#45;&gt;Node5 -->
<g id="edge4" class="edge">
<title>Node1&#45;&gt;Node5</title>
<path fill="none" stroke="midnightblue" d="M59.82,-451.44C85.91,-556.68 209.94,-1056.87 233.23,-1150.78"/>
<polygon fill="midnightblue" stroke="midnightblue" points="63.17,-450.41 57.37,-441.55 56.38,-452.1 63.17,-450.41"/>
</g>
<!-- Node29 -->
<g id="node29" class="node">
<title>Node29</title>
<g id="a_node29"><a xlink:href="classDynExp_1_1RunnableInstance.html" target="_top" xlink:title="Defines data for a thread belonging to a RunnableObject instance. This data is only accessed by the R...">
<polygon fill="white" stroke="black" points="164.5,-479.5 164.5,-498.5 311.5,-498.5 311.5,-479.5 164.5,-479.5"/>
<text text-anchor="middle" x="238" y="-486.5" font-family="Helvetica,sans-Serif" font-size="10.00">DynExp::RunnableInstance</text>
</a>
</g>
</g>
<!-- Node1&#45;&gt;Node29 -->
<g id="edge28" class="edge">
<title>Node1&#45;&gt;Node29</title>
<path fill="none" stroke="midnightblue" d="M95.41,-444.66C128.96,-455.16 175.96,-469.88 206.44,-479.43"/>
<polygon fill="midnightblue" stroke="midnightblue" points="96.05,-441.19 85.46,-441.54 93.96,-447.87 96.05,-441.19"/>
</g>
<!-- Node32 -->
<g id="node32" class="node">
<title>Node32</title>
<g id="a_node32"><a xlink:href="classDynExp_1_1RunnableObject.html" target="_top" xlink:title="Defines an Object which possesses a thread it runs in. The RunnableObject can be started and stopped ...">
<polygon fill="white" stroke="black" points="169.5,-422.5 169.5,-441.5 306.5,-441.5 306.5,-422.5 169.5,-422.5"/>
<text text-anchor="middle" x="238" y="-429.5" font-family="Helvetica,sans-Serif" font-size="10.00">DynExp::RunnableObject</text>
</a>
</g>
</g>
<!-- Node1&#45;&gt;Node32 -->
<g id="edge31" class="edge">
<title>Node1&#45;&gt;Node32</title>
<path fill="none" stroke="midnightblue" d="M118.2,-432C134.67,-432 152.5,-432 169.2,-432"/>
<polygon fill="midnightblue" stroke="midnightblue" points="118.13,-428.5 108.13,-432 118.13,-435.5 118.13,-428.5"/>
</g>
<!-- Node91 -->
<g id="node36" class="node">
<title>Node91</title>
<g id="a_node36"><a xlink:href="classUtil_1_1ILockable.html" target="_top" xlink:title="Interface to allow synchronizing the access to derived classes between different threads by providing...">
<polygon fill="white" stroke="black" points="195,-267.5 195,-286.5 281,-286.5 281,-267.5 195,-267.5"/>
<text text-anchor="middle" x="238" y="-274.5" font-family="Helvetica,sans-Serif" font-size="10.00">Util::ILockable</text>
</a>
</g>
</g>
<!-- Node1&#45;&gt;Node91 -->
<g id="edge35" class="edge">
<title>Node1&#45;&gt;Node91</title>
<path fill="none" stroke="midnightblue" d="M74.14,-415.7C111.97,-383.48 195.24,-312.57 225.62,-286.69"/>
<polygon fill="midnightblue" stroke="midnightblue" points="71.73,-413.16 66.38,-422.3 76.27,-418.48 71.73,-413.16"/>
</g>
<!-- Node112 -->
<g id="node44" class="node">
<title>Node112</title>
<g id="a_node44"><a xlink:href="classUtil_1_1ISynchronizedPointerLockable.html" target="_top" xlink:title="Interface to allow synchronizing the access to derived classes between different threads by making th...">
<polygon fill="white" stroke="black" points="166.5,-134 166.5,-164 309.5,-164 309.5,-134 166.5,-134"/>
<text text-anchor="start" x="174.5" y="-152" font-family="Helvetica,sans-Serif" font-size="10.00">Util::ISynchronizedPointer</text>
<text text-anchor="middle" x="238" y="-141" font-family="Helvetica,sans-Serif" font-size="10.00">Lockable</text>
</a>
</g>
</g>
<!-- Node1&#45;&gt;Node112 -->
<g id="edge43" class="edge">
<title>Node1&#45;&gt;Node112</title>
<path fill="none" stroke="midnightblue" d="M63.07,-412.75C77.26,-379.78 108.59,-310.93 144,-258 168.07,-222.02 202.38,-184.6 221.89,-164.31"/>
<polygon fill="midnightblue" stroke="midnightblue" points="59.77,-411.56 59.07,-422.13 66.21,-414.3 59.77,-411.56"/>
</g>
<!-- Node237 -->
<g id="node48" class="node">
<title>Node237</title>
<g id="a_node48"><a xlink:href="classUtil_1_1OneToOneNotifier.html" target="_top" xlink:title="Helper class to communicate flags between different threads based on a condition variable and a mutex...">
<polygon fill="white" stroke="black" points="175.5,-95.5 175.5,-114.5 300.5,-114.5 300.5,-95.5 175.5,-95.5"/>
<text text-anchor="middle" x="238" y="-102.5" font-family="Helvetica,sans-Serif" font-size="10.00">Util::OneToOneNotifier</text>
</a>
</g>
</g>
<!-- Node1&#45;&gt;Node237 -->
<g id="edge47" class="edge">
<title>Node1&#45;&gt;Node237</title>
<path fill="none" stroke="midnightblue" d="M54.31,-412.12C53.57,-357.46 59.48,-203.77 144,-125 152.7,-116.89 163.86,-111.76 175.41,-108.58"/>
<polygon fill="midnightblue" stroke="midnightblue" points="50.81,-412.3 54.54,-422.22 57.81,-412.14 50.81,-412.3"/>
</g>
<!-- Node238 -->
<g id="node49" class="node">
<title>Node238</title>
<g id="a_node49"><a xlink:href="classUtil_1_1SynchronizedPointer.html" target="_top" xlink:title="Pointer to lock a class derived from ISynchronizedPointerLockable for synchronizing between threads....">
<polygon fill="white" stroke="black" points="154,-57.5 154,-76.5 322,-76.5 322,-57.5 154,-57.5"/>
<text text-anchor="middle" x="238" y="-64.5" font-family="Helvetica,sans-Serif" font-size="10.00">Util::SynchronizedPointer&lt; T &gt;</text>
</a>
</g>
</g>
<!-- Node1&#45;&gt;Node238 -->
<g id="edge48" class="edge">
<title>Node1&#45;&gt;Node238</title>
<path fill="none" stroke="midnightblue" d="M57.34,-412.25C65.6,-345.82 95.56,-132.06 144,-86 147.94,-82.25 152.41,-79.16 157.21,-76.6"/>
<polygon fill="midnightblue" stroke="midnightblue" points="53.86,-411.89 56.12,-422.24 60.8,-412.73 53.86,-411.89"/>
</g>
<!-- Node4 -->
<g id="node4" class="node">
<title>Node4</title>
<g id="a_node4"><a xlink:href="classDynExp_1_1LinkedObjectWrapper.html" target="_top" xlink:title="Holds a shared_ptr to a resource (instance of class Object) and lets the resource keep track of its u...">
<polygon fill="white" stroke="black" points="398,-1926 398,-1956 562,-1956 562,-1926 398,-1926"/>
<text text-anchor="start" x="406" y="-1944" font-family="Helvetica,sans-Serif" font-size="10.00">DynExp::LinkedObjectWrapper</text>
<text text-anchor="middle" x="480" y="-1933" font-family="Helvetica,sans-Serif" font-size="10.00">&lt; ObjectT &gt;</text>
</a>
</g>
</g>
<!-- Node3&#45;&gt;Node4 -->
<g id="edge3" class="edge">
<title>Node3&#45;&gt;Node4</title>
<path fill="none" stroke="midnightblue" d="M328.83,-1225.67C329.93,-1226.72 330.99,-1227.83 332,-1229 431.74,-1344.85 269.42,-1799.15 368,-1916 375.9,-1925.36 386.48,-1931.65 397.98,-1935.82"/>
<polygon fill="midnightblue" stroke="midnightblue" points="330.97,-1222.9 320.93,-1219.52 326.67,-1228.42 330.97,-1222.9"/>
</g>
<!-- Node6 -->
<g id="node6" class="node">
<title>Node6</title>
<g id="a_node6"><a xlink:href="classDynExp_1_1LinkedObjectWrapperContainer.html" target="_top" xlink:title=" ">
<polygon fill="white" stroke="black" points="398,-1865.5 398,-1906.5 562,-1906.5 562,-1865.5 398,-1865.5"/>
<text text-anchor="start" x="406" y="-1894.5" font-family="Helvetica,sans-Serif" font-size="10.00">DynExp::LinkedObjectWrapper</text>
<text text-anchor="start" x="406" y="-1883.5" font-family="Helvetica,sans-Serif" font-size="10.00">Container&lt; DynExpHardware</text>
<text text-anchor="middle" x="480" y="-1872.5" font-family="Helvetica,sans-Serif" font-size="10.00">::SmarActHardwareAdapter &gt;</text>
</a>
</g>
</g>
<!-- Node5&#45;&gt;Node6 -->
<g id="edge5" class="edge">
<title>Node5&#45;&gt;Node6</title>
<path fill="none" stroke="midnightblue" d="M328.32,-1186.94C329.61,-1188.22 330.84,-1189.57 332,-1191 425.19,-1305.97 274.89,-1740.97 368,-1856 375.79,-1865.62 386.31,-1872.34 397.79,-1877"/>
<polygon fill="midnightblue" stroke="midnightblue" points="330.23,-1183.98 320.27,-1180.38 325.81,-1189.41 330.23,-1183.98"/>
</g>
<!-- Node7 -->
<g id="node7" class="node">
<title>Node7</title>
<g id="a_node7"><a xlink:href="classDynExp_1_1LinkedObjectWrapperContainer.html" target="_top" xlink:title=" ">
<polygon fill="white" stroke="black" points="398,-1805.5 398,-1846.5 562,-1846.5 562,-1805.5 398,-1805.5"/>
<text text-anchor="start" x="406" y="-1834.5" font-family="Helvetica,sans-Serif" font-size="10.00">DynExp::LinkedObjectWrapper</text>
<text text-anchor="start" x="406" y="-1823.5" font-family="Helvetica,sans-Serif" font-size="10.00">Container&lt; DynExpInstr::</text>
<text text-anchor="middle" x="480" y="-1812.5" font-family="Helvetica,sans-Serif" font-size="10.00">DigitalOut &gt;</text>
</a>
</g>
</g>
<!-- Node5&#45;&gt;Node7 -->
<g id="edge6" class="edge">
<title>Node5&#45;&gt;Node7</title>
<path fill="none" stroke="midnightblue" d="M328.31,-1186.95C329.6,-1188.23 330.84,-1189.57 332,-1191 417.09,-1295.4 282.99,-1691.54 368,-1796 375.81,-1805.6 386.35,-1812.31 397.84,-1816.96"/>
<polygon fill="midnightblue" stroke="midnightblue" points="330.21,-1183.99 320.24,-1180.4 325.8,-1189.42 330.21,-1183.99"/>
</g>
<!-- Node8 -->
<g id="node8" class="node">
<title>Node8</title>
<g id="a_node8"><a xlink:href="classDynExp_1_1LinkedObjectWrapperContainer.html" target="_top" xlink:title=" ">
<polygon fill="white" stroke="black" points="398,-1745.5 398,-1786.5 562,-1786.5 562,-1745.5 398,-1745.5"/>
<text text-anchor="start" x="406" y="-1774.5" font-family="Helvetica,sans-Serif" font-size="10.00">DynExp::LinkedObjectWrapper</text>
<text text-anchor="start" x="406" y="-1763.5" font-family="Helvetica,sans-Serif" font-size="10.00">Container&lt; DynExpInstr::</text>
<text text-anchor="middle" x="480" y="-1752.5" font-family="Helvetica,sans-Serif" font-size="10.00">LockinAmplifier &gt;</text>
</a>
</g>
</g>
<!-- Node5&#45;&gt;Node8 -->
<g id="edge7" class="edge">
<title>Node5&#45;&gt;Node8</title>
<path fill="none" stroke="midnightblue" d="M328.29,-1186.96C329.6,-1188.23 330.83,-1189.58 332,-1191 408.99,-1284.84 291.08,-1642.11 368,-1736 375.84,-1745.57 386.4,-1752.27 397.89,-1756.92"/>
<polygon fill="midnightblue" stroke="midnightblue" points="330.19,-1183.99 320.21,-1180.43 325.79,-1189.43 330.19,-1183.99"/>
</g>
<!-- Node9 -->
<g id="node9" class="node">
<title>Node9</title>
<g id="a_node9"><a xlink:href="classDynExp_1_1LinkedObjectWrapperContainer.html" target="_top" xlink:title=" ">
<polygon fill="white" stroke="black" points="398,-1685.5 398,-1726.5 562,-1726.5 562,-1685.5 398,-1685.5"/>
<text text-anchor="start" x="406" y="-1714.5" font-family="Helvetica,sans-Serif" font-size="10.00">DynExp::LinkedObjectWrapper</text>
<text text-anchor="start" x="406" y="-1703.5" font-family="Helvetica,sans-Serif" font-size="10.00">Container&lt; DynExpInstr::</text>
<text text-anchor="middle" x="480" y="-1692.5" font-family="Helvetica,sans-Serif" font-size="10.00">Camera &gt;</text>
</a>
</g>
</g>
<!-- Node5&#45;&gt;Node9 -->
<g id="edge8" class="edge">
<title>Node5&#45;&gt;Node9</title>
<path fill="none" stroke="midnightblue" d="M328.28,-1186.97C329.58,-1188.24 330.83,-1189.58 332,-1191 400.89,-1274.27 299.17,-1592.68 368,-1676 375.88,-1685.54 386.46,-1692.22 397.96,-1696.87"/>
<polygon fill="midnightblue" stroke="midnightblue" points="330.16,-1183.99 320.17,-1180.46 325.77,-1189.45 330.16,-1183.99"/>
</g>
<!-- Node10 -->
<g id="node10" class="node">
<title>Node10</title>
<g id="a_node10"><a xlink:href="classDynExp_1_1LinkedObjectWrapperContainer.html" target="_top" xlink:title=" ">
<polygon fill="white" stroke="black" points="398,-1625.5 398,-1666.5 562,-1666.5 562,-1625.5 398,-1625.5"/>
<text text-anchor="start" x="406" y="-1654.5" font-family="Helvetica,sans-Serif" font-size="10.00">DynExp::LinkedObjectWrapper</text>
<text text-anchor="start" x="406" y="-1643.5" font-family="Helvetica,sans-Serif" font-size="10.00">Container&lt; DynExpHardware</text>
<text text-anchor="middle" x="480" y="-1632.5" font-family="Helvetica,sans-Serif" font-size="10.00">::NIDAQHardwareAdapter &gt;</text>
</a>
</g>
</g>
<!-- Node5&#45;&gt;Node10 -->
<g id="edge9" class="edge">
<title>Node5&#45;&gt;Node10</title>
<path fill="none" stroke="midnightblue" d="M328.26,-1186.99C329.57,-1188.25 330.82,-1189.59 332,-1191 392.8,-1263.72 307.25,-1543.24 368,-1616 375.87,-1625.42 386.36,-1632.05 397.77,-1636.68"/>
<polygon fill="midnightblue" stroke="midnightblue" points="330.12,-1184 320.12,-1180.5 325.76,-1189.47 330.12,-1184"/>
</g>
<!-- Node11 -->
<g id="node11" class="node">
<title>Node11</title>
<g id="a_node11"><a xlink:href="classDynExp_1_1LinkedObjectWrapperContainer.html" target="_top" xlink:title=" ">
<polygon fill="white" stroke="black" points="398,-1565.5 398,-1606.5 562,-1606.5 562,-1565.5 398,-1565.5"/>
<text text-anchor="start" x="406" y="-1594.5" font-family="Helvetica,sans-Serif" font-size="10.00">DynExp::LinkedObjectWrapper</text>
<text text-anchor="start" x="406" y="-1583.5" font-family="Helvetica,sans-Serif" font-size="10.00">Container&lt; DynExpInstr::</text>
<text text-anchor="middle" x="480" y="-1572.5" font-family="Helvetica,sans-Serif" font-size="10.00">AnalogIn &gt;</text>
</a>
</g>
</g>
<!-- Node5&#45;&gt;Node11 -->
<g id="edge10" class="edge">
<title>Node5&#45;&gt;Node11</title>
<path fill="none" stroke="midnightblue" d="M328.23,-1187.01C329.55,-1188.27 330.81,-1189.6 332,-1191 437.42,-1315.33 262.67,-1431.59 368,-1556 375.93,-1565.37 386.46,-1571.97 397.88,-1576.59"/>
<polygon fill="midnightblue" stroke="midnightblue" points="330.07,-1184.01 320.06,-1180.55 325.73,-1189.5 330.07,-1184.01"/>
</g>
<!-- Node12 -->
<g id="node12" class="node">
<title>Node12</title>
<g id="a_node12"><a xlink:href="classDynExp_1_1LinkedObjectWrapperContainer.html" target="_top" xlink:title=" ">
<polygon fill="white" stroke="black" points="398,-1505.5 398,-1546.5 562,-1546.5 562,-1505.5 398,-1505.5"/>
<text text-anchor="start" x="406" y="-1534.5" font-family="Helvetica,sans-Serif" font-size="10.00">DynExp::LinkedObjectWrapper</text>
<text text-anchor="start" x="406" y="-1523.5" font-family="Helvetica,sans-Serif" font-size="10.00">Container&lt; DynExpInstr::</text>
<text text-anchor="middle" x="480" y="-1512.5" font-family="Helvetica,sans-Serif" font-size="10.00">AnalogOut &gt;</text>
</a>
</g>
</g>
<!-- Node5&#45;&gt;Node12 -->
<g id="edge11" class="edge">
<title>Node5&#45;&gt;Node12</title>
<path fill="none" stroke="midnightblue" d="M328.32,-1187.16C329.61,-1188.37 330.83,-1189.65 332,-1191 421.27,-1294.26 278.8,-1392.68 368,-1496 375.96,-1505.22 386.42,-1511.75 397.75,-1516.34"/>
<polygon fill="midnightblue" stroke="midnightblue" points="330.4,-1184.35 320.38,-1180.9 326.07,-1189.84 330.4,-1184.35"/>
</g>
<!-- Node13 -->
<g id="node13" class="node">
<title>Node13</title>
<g id="a_node13"><a xlink:href="classDynExp_1_1LinkedObjectWrapperContainer.html" target="_top" xlink:title=" ">
<polygon fill="white" stroke="black" points="380,-1445.5 380,-1486.5 580,-1486.5 580,-1445.5 380,-1445.5"/>
<text text-anchor="start" x="388" y="-1474.5" font-family="Helvetica,sans-Serif" font-size="10.00">DynExp::LinkedObjectWrapper</text>
<text text-anchor="start" x="388" y="-1463.5" font-family="Helvetica,sans-Serif" font-size="10.00">Container&lt; DynExpHardware</text>
<text text-anchor="middle" x="480" y="-1452.5" font-family="Helvetica,sans-Serif" font-size="10.00">::SIPulseStreamerHardwareAdapter &gt;</text>
</a>
</g>
</g>
<!-- Node5&#45;&gt;Node13 -->
<g id="edge12" class="edge">
<title>Node5&#45;&gt;Node13</title>
<path fill="none" stroke="midnightblue" d="M328.27,-1187.21C329.57,-1188.41 330.82,-1189.67 332,-1191 405.15,-1273.23 294.9,-1353.72 368,-1436 371.45,-1439.88 375.34,-1443.28 379.55,-1446.26"/>
<polygon fill="midnightblue" stroke="midnightblue" points="330.31,-1184.36 320.26,-1181.02 326.03,-1189.9 330.31,-1184.36"/>
</g>
<!-- Node14 -->
<g id="node14" class="node">
<title>Node14</title>
<g id="a_node14"><a xlink:href="classDynExp_1_1LinkedObjectWrapperContainer.html" target="_top" xlink:title=" ">
<polygon fill="white" stroke="black" points="368,-1385.5 368,-1426.5 592,-1426.5 592,-1385.5 368,-1385.5"/>
<text text-anchor="start" x="376" y="-1414.5" font-family="Helvetica,sans-Serif" font-size="10.00">DynExp::LinkedObjectWrapper</text>
<text text-anchor="start" x="376" y="-1403.5" font-family="Helvetica,sans-Serif" font-size="10.00">Container&lt; DynExp::SerialCommunication</text>
<text text-anchor="middle" x="480" y="-1392.5" font-family="Helvetica,sans-Serif" font-size="10.00">HardwareAdapter &gt;</text>
</a>
</g>
</g>
<!-- Node5&#45;&gt;Node14 -->
<g id="edge13" class="edge">
<title>Node5&#45;&gt;Node14</title>
<path fill="none" stroke="midnightblue" d="M328.18,-1187.28C329.51,-1188.46 330.79,-1189.7 332,-1191 389.11,-1252.28 310.93,-1314.68 368,-1376 371.26,-1379.51 374.89,-1382.62 378.79,-1385.38"/>
<polygon fill="midnightblue" stroke="midnightblue" points="330.16,-1184.39 320.05,-1181.2 325.96,-1189.99 330.16,-1184.39"/>
</g>
<!-- Node15 -->
<g id="node15" class="node">
<title>Node15</title>
<g id="a_node15"><a xlink:href="classDynExp_1_1LinkedObjectWrapperContainer.html" target="_top" xlink:title=" ">
<polygon fill="white" stroke="black" points="398,-1325.5 398,-1366.5 562,-1366.5 562,-1325.5 398,-1325.5"/>
<text text-anchor="start" x="406" y="-1354.5" font-family="Helvetica,sans-Serif" font-size="10.00">DynExp::LinkedObjectWrapper</text>
<text text-anchor="start" x="406" y="-1343.5" font-family="Helvetica,sans-Serif" font-size="10.00">Container&lt; DynExpInstr::</text>
<text text-anchor="middle" x="480" y="-1332.5" font-family="Helvetica,sans-Serif" font-size="10.00">TimeTagger &gt;</text>
</a>
</g>
</g>
<!-- Node5&#45;&gt;Node15 -->
<g id="edge14" class="edge">
<title>Node5&#45;&gt;Node15</title>
<path fill="none" stroke="midnightblue" d="M327.36,-1186.89C328.97,-1188.18 330.52,-1189.55 332,-1191 373.24,-1231.51 326.78,-1275.46 368,-1316 376.4,-1324.26 386.82,-1330.31 397.89,-1334.72"/>
<polygon fill="midnightblue" stroke="midnightblue" points="329.04,-1183.8 318.8,-1181.06 325.09,-1189.58 329.04,-1183.8"/>
</g>
<!-- Node16 -->
<g id="node16" class="node">
<title>Node16</title>
<g id="a_node16"><a xlink:href="classDynExp_1_1LinkedObjectWrapperContainer.html" target="_top" xlink:title=" ">
<polygon fill="white" stroke="black" points="398,-1265.5 398,-1306.5 562,-1306.5 562,-1265.5 398,-1265.5"/>
<text text-anchor="start" x="406" y="-1294.5" font-family="Helvetica,sans-Serif" font-size="10.00">DynExp::LinkedObjectWrapper</text>
<text text-anchor="start" x="406" y="-1283.5" font-family="Helvetica,sans-Serif" font-size="10.00">Container&lt; DynExpInstr::</text>
<text text-anchor="middle" x="480" y="-1272.5" font-family="Helvetica,sans-Serif" font-size="10.00">InterModuleCommunicator &gt;</text>
</a>
</g>
</g>
<!-- Node5&#45;&gt;Node16 -->
<g id="edge15" class="edge">
<title>Node5&#45;&gt;Node16</title>
<path fill="none" stroke="midnightblue" d="M324.82,-1186.01C327.31,-1187.55 329.72,-1189.21 332,-1191 358.01,-1211.35 342,-1235.64 368,-1256 376.8,-1262.89 387.06,-1268.21 397.72,-1272.3"/>
<polygon fill="midnightblue" stroke="midnightblue" points="326.49,-1182.94 316.04,-1181.22 323.14,-1189.08 326.49,-1182.94"/>
</g>
<!-- Node17 -->
<g id="node17" class="node">
<title>Node17</title>
<g id="a_node17"><a xlink:href="classDynExp_1_1LinkedObjectWrapperContainer.html" target="_top" xlink:title=" ">
<polygon fill="white" stroke="black" points="397,-1205.5 397,-1246.5 563,-1246.5 563,-1205.5 397,-1205.5"/>
<text text-anchor="start" x="405" y="-1234.5" font-family="Helvetica,sans-Serif" font-size="10.00">DynExp::LinkedObjectWrapper</text>
<text text-anchor="start" x="405" y="-1223.5" font-family="Helvetica,sans-Serif" font-size="10.00">Container&lt; DynExpHardware</text>
<text text-anchor="middle" x="480" y="-1212.5" font-family="Helvetica,sans-Serif" font-size="10.00">::ZILabOneHardwareAdapter &gt;</text>
</a>
</g>
</g>
<!-- Node5&#45;&gt;Node17 -->
<g id="edge16" class="edge">
<title>Node5&#45;&gt;Node17</title>
<path fill="none" stroke="midnightblue" d="M309.18,-1183.54C336.67,-1190.42 368.41,-1198.35 396.95,-1205.49"/>
<polygon fill="midnightblue" stroke="midnightblue" points="309.8,-1180.09 299.25,-1181.06 308.1,-1186.88 309.8,-1180.09"/>
</g>
<!-- Node18 -->
<g id="node18" class="node">
<title>Node18</title>
<g id="a_node18"><a xlink:href="classDynExp_1_1LinkedObjectWrapperContainer.html" target="_top" xlink:title=" ">
<polygon fill="white" stroke="black" points="398,-1145.5 398,-1186.5 562,-1186.5 562,-1145.5 398,-1145.5"/>
<text text-anchor="start" x="406" y="-1174.5" font-family="Helvetica,sans-Serif" font-size="10.00">DynExp::LinkedObjectWrapper</text>
<text text-anchor="start" x="406" y="-1163.5" font-family="Helvetica,sans-Serif" font-size="10.00">Container&lt; DynExpInstr::</text>
<text text-anchor="middle" x="480" y="-1152.5" font-family="Helvetica,sans-Serif" font-size="10.00">InputPort &gt;</text>
</a>
</g>
</g>
<!-- Node5&#45;&gt;Node18 -->
<g id="edge17" class="edge">
<title>Node5&#45;&gt;Node18</title>
<path fill="none" stroke="midnightblue" d="M330.34,-1166C352.55,-1166 376.14,-1166 397.83,-1166"/>
<polygon fill="midnightblue" stroke="midnightblue" points="330.25,-1162.5 320.25,-1166 330.25,-1169.5 330.25,-1162.5"/>
</g>
<!-- Node19 -->
<g id="node19" class="node">
<title>Node19</title>
<g id="a_node19"><a xlink:href="classDynExp_1_1LinkedObjectWrapperContainer.html" target="_top" xlink:title=" ">
<polygon fill="white" stroke="black" points="398,-1085.5 398,-1126.5 562,-1126.5 562,-1085.5 398,-1085.5"/>
<text text-anchor="start" x="406" y="-1114.5" font-family="Helvetica,sans-Serif" font-size="10.00">DynExp::LinkedObjectWrapper</text>
<text text-anchor="start" x="406" y="-1103.5" font-family="Helvetica,sans-Serif" font-size="10.00">Container&lt; DynExpInstr::</text>
<text text-anchor="middle" x="480" y="-1092.5" font-family="Helvetica,sans-Serif" font-size="10.00">OutputPort &gt;</text>
</a>
</g>
</g>
<!-- Node5&#45;&gt;Node19 -->
<g id="edge18" class="edge">
<title>Node5&#45;&gt;Node19</title>
<path fill="none" stroke="midnightblue" d="M309.27,-1148.43C337.03,-1141.49 369.11,-1133.47 397.86,-1126.29"/>
<polygon fill="midnightblue" stroke="midnightblue" points="308.1,-1145.12 299.25,-1150.94 309.8,-1151.91 308.1,-1145.12"/>
</g>
<!-- Node20 -->
<g id="node20" class="node">
<title>Node20</title>
<g id="a_node20"><a xlink:href="classDynExp_1_1LinkedObjectWrapperContainer.html" target="_top" xlink:title=" ">
<polygon fill="white" stroke="black" points="398,-1025.5 398,-1066.5 562,-1066.5 562,-1025.5 398,-1025.5"/>
<text text-anchor="start" x="406" y="-1054.5" font-family="Helvetica,sans-Serif" font-size="10.00">DynExp::LinkedObjectWrapper</text>
<text text-anchor="start" x="406" y="-1043.5" font-family="Helvetica,sans-Serif" font-size="10.00">Container&lt; DynExpInstr::</text>
<text text-anchor="middle" x="480" y="-1032.5" font-family="Helvetica,sans-Serif" font-size="10.00">Spectrometer &gt;</text>
</a>
</g>
</g>
<!-- Node5&#45;&gt;Node20 -->
<g id="edge19" class="edge">
<title>Node5&#45;&gt;Node20</title>
<path fill="none" stroke="midnightblue" d="M264.42,-1144.25C289.32,-1123.96 329.09,-1094.15 368,-1076 377.41,-1071.61 387.57,-1067.77 397.8,-1064.43"/>
<polygon fill="midnightblue" stroke="midnightblue" points="262.04,-1141.67 256.56,-1150.74 266.5,-1147.07 262.04,-1141.67"/>
</g>
<!-- Node21 -->
<g id="node21" class="node">
<title>Node21</title>
<g id="a_node21"><a xlink:href="classDynExp_1_1LinkedObjectWrapperContainer.html" target="_top" xlink:title=" ">
<polygon fill="white" stroke="black" points="398,-965.5 398,-1006.5 562,-1006.5 562,-965.5 398,-965.5"/>
<text text-anchor="start" x="406" y="-994.5" font-family="Helvetica,sans-Serif" font-size="10.00">DynExp::LinkedObjectWrapper</text>
<text text-anchor="start" x="406" y="-983.5" font-family="Helvetica,sans-Serif" font-size="10.00">Container&lt; DynExpInstr::</text>
<text text-anchor="middle" x="480" y="-972.5" font-family="Helvetica,sans-Serif" font-size="10.00">DataStreamInstrument &gt;</text>
</a>
</g>
</g>
<!-- Node5&#45;&gt;Node21 -->
<g id="edge20" class="edge">
<title>Node5&#45;&gt;Node21</title>
<path fill="none" stroke="midnightblue" d="M253.14,-1141.92C274,-1108.54 316.2,-1048.64 368,-1016 377.12,-1010.25 387.33,-1005.6 397.77,-1001.83"/>
<polygon fill="midnightblue" stroke="midnightblue" points="250.07,-1140.23 247.83,-1150.59 256.04,-1143.89 250.07,-1140.23"/>
</g>
<!-- Node22 -->
<g id="node22" class="node">
<title>Node22</title>
<g id="a_node22"><a xlink:href="classDynExp_1_1LinkedObjectWrapperContainer.html" target="_top" xlink:title=" ">
<polygon fill="white" stroke="black" points="398,-905.5 398,-946.5 562,-946.5 562,-905.5 398,-905.5"/>
<text text-anchor="start" x="406" y="-934.5" font-family="Helvetica,sans-Serif" font-size="10.00">DynExp::LinkedObjectWrapper</text>
<text text-anchor="start" x="406" y="-923.5" font-family="Helvetica,sans-Serif" font-size="10.00">Container&lt; DynExpInstr::</text>
<text text-anchor="middle" x="480" y="-912.5" font-family="Helvetica,sans-Serif" font-size="10.00">WidefieldLocalization &gt;</text>
</a>
</g>
</g>
<!-- Node5&#45;&gt;Node22 -->
<g id="edge21" class="edge">
<title>Node5&#45;&gt;Node22</title>
<path fill="none" stroke="midnightblue" d="M247.26,-1141.2C263.26,-1097.02 302.8,-1004.74 368,-956 376.87,-949.37 387.12,-944.2 397.72,-940.17"/>
<polygon fill="midnightblue" stroke="midnightblue" points="243.88,-1140.26 243.86,-1150.85 250.48,-1142.58 243.88,-1140.26"/>
</g>
<!-- Node23 -->
<g id="node23" class="node">
<title>Node23</title>
<g id="a_node23"><a xlink:href="classDynExp_1_1LinkedObjectWrapperContainer.html" target="_top" xlink:title=" ">
<polygon fill="white" stroke="black" points="398,-845.5 398,-886.5 562,-886.5 562,-845.5 398,-845.5"/>
<text text-anchor="start" x="406" y="-874.5" font-family="Helvetica,sans-Serif" font-size="10.00">DynExp::LinkedObjectWrapper</text>
<text text-anchor="start" x="406" y="-863.5" font-family="Helvetica,sans-Serif" font-size="10.00">Container&lt; DynExpInstr::</text>
<text text-anchor="middle" x="480" y="-852.5" font-family="Helvetica,sans-Serif" font-size="10.00">FunctionGenerator &gt;</text>
</a>
</g>
</g>
<!-- Node5&#45;&gt;Node23 -->
<g id="edge22" class="edge">
<title>Node5&#45;&gt;Node23</title>
<path fill="none" stroke="midnightblue" d="M243.72,-1140.73C255.06,-1087.18 289.02,-961.79 368,-896 376.74,-888.72 387.1,-883.19 397.91,-879"/>
<polygon fill="midnightblue" stroke="midnightblue" points="240.25,-1140.24 241.69,-1150.74 247.11,-1141.63 240.25,-1140.24"/>
</g>
<!-- Node24 -->
<g id="node24" class="node">
<title>Node24</title>
<g id="a_node24"><a xlink:href="classDynExp_1_1LinkedObjectWrapperContainer.html" target="_top" xlink:title=" ">
<polygon fill="white" stroke="black" points="398,-785.5 398,-826.5 562,-826.5 562,-785.5 398,-785.5"/>
<text text-anchor="start" x="406" y="-814.5" font-family="Helvetica,sans-Serif" font-size="10.00">DynExp::LinkedObjectWrapper</text>
<text text-anchor="start" x="406" y="-803.5" font-family="Helvetica,sans-Serif" font-size="10.00">Container&lt; DynExpHardware</text>
<text text-anchor="middle" x="480" y="-792.5" font-family="Helvetica,sans-Serif" font-size="10.00">::PVCamHardwareAdapter &gt;</text>
</a>
</g>
</g>
<!-- Node5&#45;&gt;Node24 -->
<g id="edge23" class="edge">
<title>Node5&#45;&gt;Node24</title>
<path fill="none" stroke="midnightblue" d="M241.27,-1140.84C248.19,-1079.22 274.69,-919.69 368,-836 376.62,-828.27 387.03,-822.5 397.98,-818.21"/>
<polygon fill="midnightblue" stroke="midnightblue" points="237.78,-1140.54 240.22,-1150.85 244.74,-1141.26 237.78,-1140.54"/>
</g>
<!-- Node25 -->
<g id="node25" class="node">
<title>Node25</title>
<g id="a_node25"><a xlink:href="classDynExp_1_1LinkedObjectWrapperContainer.html" target="_top" xlink:title=" ">
<polygon fill="white" stroke="black" points="398,-725.5 398,-766.5 562,-766.5 562,-725.5 398,-725.5"/>
<text text-anchor="start" x="406" y="-754.5" font-family="Helvetica,sans-Serif" font-size="10.00">DynExp::LinkedObjectWrapper</text>
<text text-anchor="start" x="406" y="-743.5" font-family="Helvetica,sans-Serif" font-size="10.00">Container&lt; DynExpInstr::</text>
<text text-anchor="middle" x="480" y="-732.5" font-family="Helvetica,sans-Serif" font-size="10.00">PositionerStage &gt;</text>
</a>
</g>
</g>
<!-- Node5&#45;&gt;Node25 -->
<g id="edge24" class="edge">
<title>Node5&#45;&gt;Node25</title>
<path fill="none" stroke="midnightblue" d="M239.54,-1140.64C242.45,-1071.46 260.3,-877.88 368,-776 376.48,-767.97 386.89,-762.05 397.89,-757.69"/>
<polygon fill="midnightblue" stroke="midnightblue" points="236.05,-1140.52 239.2,-1150.64 243.04,-1140.77 236.05,-1140.52"/>
</g>
<!-- Node26 -->
<g id="node26" class="node">
<title>Node26</title>
<g id="a_node26"><a xlink:href="classDynExp_1_1LinkedObjectWrapperContainer.html" target="_top" xlink:title=" ">
<polygon fill="white" stroke="black" points="391.5,-665.5 391.5,-706.5 568.5,-706.5 568.5,-665.5 391.5,-665.5"/>
<text text-anchor="start" x="399.5" y="-694.5" font-family="Helvetica,sans-Serif" font-size="10.00">DynExp::LinkedObjectWrapper</text>
<text text-anchor="start" x="399.5" y="-683.5" font-family="Helvetica,sans-Serif" font-size="10.00">Container&lt; DynExpHardware</text>
<text text-anchor="middle" x="480" y="-672.5" font-family="Helvetica,sans-Serif" font-size="10.00">::QutoolsTDCHardwareAdapter &gt;</text>
</a>
</g>
</g>
<!-- Node5&#45;&gt;Node26 -->
<g id="edge25" class="edge">
<title>Node5&#45;&gt;Node26</title>
<path fill="none" stroke="midnightblue" d="M238.24,-1140.97C237.37,-1065.29 245.48,-836.67 368,-716 374.76,-709.35 382.83,-704.13 391.49,-700.04"/>
<polygon fill="midnightblue" stroke="midnightblue" points="234.74,-1141.06 238.42,-1151 241.74,-1140.93 234.74,-1141.06"/>
</g>
<!-- Node27 -->
<g id="node27" class="node">
<title>Node27</title>
<g id="a_node27"><a xlink:href="classDynExp_1_1LinkedObjectWrapperContainer.html" target="_top" xlink:title=" ">
<polygon fill="white" stroke="black" points="398,-605.5 398,-646.5 562,-646.5 562,-605.5 398,-605.5"/>
<text text-anchor="start" x="406" y="-634.5" font-family="Helvetica,sans-Serif" font-size="10.00">DynExp::LinkedObjectWrapper</text>
<text text-anchor="start" x="406" y="-623.5" font-family="Helvetica,sans-Serif" font-size="10.00">Container&lt; DynExpInstr::</text>
<text text-anchor="middle" x="480" y="-612.5" font-family="Helvetica,sans-Serif" font-size="10.00">DigitalIn &gt;</text>
</a>
</g>
</g>
<!-- Node5&#45;&gt;Node27 -->
<g id="edge26" class="edge">
<title>Node5&#45;&gt;Node27</title>
<path fill="none" stroke="midnightblue" d="M242.01,-1140.79C253.57,-1047.99 298.06,-727.08 368,-656 376.33,-647.53 386.78,-641.38 397.93,-636.93"/>
<polygon fill="midnightblue" stroke="midnightblue" points="238.51,-1140.59 240.76,-1150.95 245.45,-1141.45 238.51,-1140.59"/>
</g>
<!-- Node28 -->
<g id="node28" class="node">
<title>Node28</title>
<g id="a_node28"><a xlink:href="classDynExp_1_1LinkedObjectWrapperContainer.html" target="_top" xlink:title="This class holds a pointer (LinkedObjectWrapperPointer) to a LinkedObjectWrapper. Intances of this cl...">
<polygon fill="white" stroke="black" points="398,-556 398,-586 562,-586 562,-556 398,-556"/>
<text text-anchor="start" x="406" y="-574" font-family="Helvetica,sans-Serif" font-size="10.00">DynExp::LinkedObjectWrapper</text>
<text text-anchor="middle" x="480" y="-563" font-family="Helvetica,sans-Serif" font-size="10.00">Container&lt; ObjectT &gt;</text>
</a>
</g>
</g>
<!-- Node5&#45;&gt;Node28 -->
<g id="edge27" class="edge">
<title>Node5&#45;&gt;Node28</title>
<path fill="none" stroke="midnightblue" d="M241.19,-1140.7C250.35,-1040.75 288.87,-675.05 368,-596 376.32,-587.69 386.76,-581.9 397.9,-577.89"/>
<polygon fill="midnightblue" stroke="midnightblue" points="237.69,-1140.51 240.28,-1150.79 244.66,-1141.14 237.69,-1140.51"/>
</g>
<!-- Node30 -->
<g id="node30" class="node">
<title>Node30</title>
<g id="a_node30"><a xlink:href="classDynExp_1_1InstrumentInstance.html" target="_top" xlink:title="Defines data for a thread belonging to a InstrumentBase instance. Refer to RunnableInstance.">
<polygon fill="white" stroke="black" points="402.5,-517.5 402.5,-536.5 557.5,-536.5 557.5,-517.5 402.5,-517.5"/>
<text text-anchor="middle" x="480" y="-524.5" font-family="Helvetica,sans-Serif" font-size="10.00">DynExp::InstrumentInstance</text>
</a>
</g>
</g>
<!-- Node29&#45;&gt;Node30 -->
<g id="edge29" class="edge">
<title>Node29&#45;&gt;Node30</title>
<path fill="none" stroke="midnightblue" d="M309.32,-500.13C344.03,-505.63 385.48,-512.19 418.72,-517.46"/>
<polygon fill="midnightblue" stroke="midnightblue" points="309.68,-496.65 299.25,-498.54 308.58,-503.56 309.68,-496.65"/>
</g>
<!-- Node31 -->
<g id="node31" class="node">
<title>Node31</title>
<g id="a_node31"><a xlink:href="classDynExp_1_1ModuleInstance.html" target="_top" xlink:title="Defines data for a thread belonging to a ModuleBase instance. Refer to RunnableInstance.">
<polygon fill="white" stroke="black" points="411.5,-479.5 411.5,-498.5 548.5,-498.5 548.5,-479.5 411.5,-479.5"/>
<text text-anchor="middle" x="480" y="-486.5" font-family="Helvetica,sans-Serif" font-size="10.00">DynExp::ModuleInstance</text>
</a>
</g>
</g>
<!-- Node29&#45;&gt;Node31 -->
<g id="edge30" class="edge">
<title>Node29&#45;&gt;Node31</title>
<path fill="none" stroke="midnightblue" d="M321.82,-489C350.95,-489 383.33,-489 411.1,-489"/>
<polygon fill="midnightblue" stroke="midnightblue" points="321.66,-485.5 311.66,-489 321.66,-492.5 321.66,-485.5"/>
</g>
<!-- Node33 -->
<g id="node33" class="node">
<title>Node33</title>
<g id="a_node33"><a xlink:href="classDynExp_1_1InstrumentBase.html" target="_top" xlink:title="Base class for instruments. Instruments comprise virtual devices (meta instruments) and physial devic...">
<polygon fill="white" stroke="red" points="411.5,-441.5 411.5,-460.5 548.5,-460.5 548.5,-441.5 411.5,-441.5"/>
<text text-anchor="middle" x="480" y="-448.5" font-family="Helvetica,sans-Serif" font-size="10.00">DynExp::InstrumentBase</text>
</a>
</g>
</g>
<!-- Node32&#45;&gt;Node33 -->
<g id="edge32" class="edge">
<title>Node32&#45;&gt;Node33</title>
<path fill="none" stroke="midnightblue" d="M316.96,-438.17C347.41,-440.58 381.98,-443.32 411.36,-445.64"/>
<polygon fill="midnightblue" stroke="midnightblue" points="317.06,-434.67 306.81,-437.37 316.5,-441.65 317.06,-434.67"/>
</g>
<!-- Node67 -->
<g id="node35" class="node">
<title>Node67</title>
<g id="a_node35"><a xlink:href="classDynExp_1_1ModuleBase.html" target="_top" xlink:title="Base class for modules. Modules implement programs on their own (e.g. measurement protocols or server...">
<polygon fill="white" stroke="red" points="420,-403.5 420,-422.5 540,-422.5 540,-403.5 420,-403.5"/>
<text text-anchor="middle" x="480" y="-410.5" font-family="Helvetica,sans-Serif" font-size="10.00">DynExp::ModuleBase</text>
</a>
</g>
</g>
<!-- Node32&#45;&gt;Node67 -->
<g id="edge34" class="edge">
<title>Node32&#45;&gt;Node67</title>
<path fill="none" stroke="midnightblue" d="M317.02,-425.82C350.47,-423.18 388.89,-420.13 419.92,-417.68"/>
<polygon fill="midnightblue" stroke="midnightblue" points="316.5,-422.35 306.81,-426.63 317.06,-429.33 316.5,-422.35"/>
</g>
<!-- Node34 -->
<g id="node34" class="node">
<title>Node34</title>
<g id="a_node34"><a xlink:href="classDynExpInstr_1_1gRPCInstrument.html" target="_top" xlink:title=" ">
<polygon fill="white" stroke="red" points="628,-425 628,-477 833,-477 833,-425 628,-425"/>
<text text-anchor="start" x="636" y="-465" font-family="Helvetica,sans-Serif" font-size="10.00">DynExpInstr::gRPCInstrument</text>
<text text-anchor="start" x="636" y="-454" font-family="Helvetica,sans-Serif" font-size="10.00">&lt; DynExp::InstrumentBase,</text>
<text text-anchor="start" x="636" y="-443" font-family="Helvetica,sans-Serif" font-size="10.00"> 0, DynExpProto::WidefieldLocalization</text>
<text text-anchor="middle" x="730.5" y="-432" font-family="Helvetica,sans-Serif" font-size="10.00">::WidefieldLocalization &gt;</text>
</a>
</g>
</g>
<!-- Node33&#45;&gt;Node34 -->
<g id="edge33" class="edge">
<title>Node33&#45;&gt;Node34</title>
<path fill="none" stroke="midnightblue" d="M558.79,-451C580.68,-451 604.81,-451 627.87,-451"/>
<polygon fill="midnightblue" stroke="midnightblue" points="558.58,-447.5 548.58,-451 558.58,-454.5 558.58,-447.5"/>
</g>
<!-- Node92 -->
<g id="node37" class="node">
<title>Node92</title>
<g id="a_node37"><a xlink:href="classDynExp_1_1EventListenersBase.html" target="_top" xlink:title="Common base class for all managers of event listeners of type TypedEventListeners....">
<polygon fill="white" stroke="red" points="402,-365.5 402,-384.5 558,-384.5 558,-365.5 402,-365.5"/>
<text text-anchor="middle" x="480" y="-372.5" font-family="Helvetica,sans-Serif" font-size="10.00">DynExp::EventListenersBase</text>
</a>
</g>
</g>
<!-- Node91&#45;&gt;Node92 -->
<g id="edge36" class="edge">
<title>Node91&#45;&gt;Node92</title>
<path fill="none" stroke="midnightblue" d="M259.08,-292.69C283.43,-310.88 326.4,-340.37 368,-356 378.71,-360.02 390.32,-363.2 401.86,-365.71"/>
<polygon fill="midnightblue" stroke="midnightblue" points="261.07,-289.81 250.99,-286.54 256.84,-295.38 261.07,-289.81"/>
</g>
<!-- Node94 -->
<g id="node38" class="node">
<title>Node94</title>
<g id="a_node38"><a xlink:href="classDynExp_1_1HardwareAdapterBase.html" target="_top" xlink:title="Defines the base class for a hardware adapter object. Hardware adapters describe interfaces/connectio...">
<polygon fill="white" stroke="red" points="395,-327.5 395,-346.5 565,-346.5 565,-327.5 395,-327.5"/>
<text text-anchor="middle" x="480" y="-334.5" font-family="Helvetica,sans-Serif" font-size="10.00">DynExp::HardwareAdapterBase</text>
</a>
</g>
</g>
<!-- Node91&#45;&gt;Node94 -->
<g id="edge37" class="edge">
<title>Node91&#45;&gt;Node94</title>
<path fill="none" stroke="midnightblue" d="M275.05,-289.93C300.71,-298.78 336.15,-310.25 368,-318 382.91,-321.63 399.12,-324.82 414.42,-327.5"/>
<polygon fill="midnightblue" stroke="midnightblue" points="275.97,-286.55 265.38,-286.57 273.67,-293.16 275.97,-286.55"/>
</g>
<!-- Node107 -->
<g id="node39" class="node">
<title>Node107</title>
<g id="a_node39"><a xlink:href="classDynExp_1_1ObjectUserList.html" target="_top" xlink:title="Helper class to enable keeping track of instances of class Object making use of the owner of the resp...">
<polygon fill="white" stroke="black" points="414.5,-289.5 414.5,-308.5 545.5,-308.5 545.5,-289.5 414.5,-289.5"/>
<text text-anchor="middle" x="480" y="-296.5" font-family="Helvetica,sans-Serif" font-size="10.00">DynExp::ObjectUserList</text>
</a>
</g>
</g>
<!-- Node91&#45;&gt;Node107 -->
<g id="edge38" class="edge">
<title>Node91&#45;&gt;Node107</title>
<path fill="none" stroke="midnightblue" d="M291.4,-281.8C327.54,-285.12 375.81,-289.54 414.34,-293.07"/>
<polygon fill="midnightblue" stroke="midnightblue" points="291.36,-278.28 281.08,-280.86 290.72,-285.26 291.36,-278.28"/>
</g>
<!-- Node108 -->
<g id="node40" class="node">
<title>Node108</title>
<g id="a_node40"><a xlink:href="classDynExpHardware_1_1PVCamHardwareAdapter_1_1PVCamInitializer.html" target="_top" xlink:title="Only one instance of this class is allowed for synchronizing calls to the PVCam library from any PVCa...">
<polygon fill="white" stroke="black" points="385,-240 385,-270 575,-270 575,-240 385,-240"/>
<text text-anchor="start" x="393" y="-258" font-family="Helvetica,sans-Serif" font-size="10.00">DynExpHardware::PVCamHardware</text>
<text text-anchor="middle" x="480" y="-247" font-family="Helvetica,sans-Serif" font-size="10.00">Adapter::PVCamInitializer</text>
</a>
</g>
</g>
<!-- Node91&#45;&gt;Node108 -->
<g id="edge39" class="edge">
<title>Node91&#45;&gt;Node108</title>
<path fill="none" stroke="midnightblue" d="M291.22,-272.21C318.62,-269.7 353.03,-266.55 384.89,-263.63"/>
<polygon fill="midnightblue" stroke="midnightblue" points="290.72,-268.74 281.08,-273.14 291.36,-275.72 290.72,-268.74"/>
</g>
<!-- Node109 -->
<g id="node41" class="node">
<title>Node109</title>
<g id="a_node41"><a xlink:href="classDynExpHardware_1_1QutoolsTDCHardwareAdapter_1_1QutoolsTDCSynchronizer.html" target="_top" xlink:title="Only one instance of this class is allowed for synchronizing calls to connected qutools time taggers....">
<polygon fill="white" stroke="black" points="374,-191 374,-221 586,-221 586,-191 374,-191"/>
<text text-anchor="start" x="382" y="-209" font-family="Helvetica,sans-Serif" font-size="10.00">DynExpHardware::QutoolsTDCHardware</text>
<text text-anchor="middle" x="480" y="-198" font-family="Helvetica,sans-Serif" font-size="10.00">Adapter::QutoolsTDCSynchronizer</text>
</a>
</g>
</g>
<!-- Node91&#45;&gt;Node109 -->
<g id="edge40" class="edge">
<title>Node91&#45;&gt;Node109</title>
<path fill="none" stroke="midnightblue" d="M272.3,-263.87C298.14,-253.99 334.99,-240.56 368,-231 380.33,-227.43 393.56,-224.06 406.43,-221.02"/>
<polygon fill="midnightblue" stroke="midnightblue" points="271.04,-260.61 262.97,-267.47 273.56,-267.14 271.04,-260.61"/>
</g>
<!-- Node110 -->
<g id="node42" class="node">
<title>Node110</title>
<g id="a_node42"><a xlink:href="classUtil_1_1EventLogger.html" target="_top" xlink:title="Logs events like errors and writes them immediately to a HTML file in a human&#45;readable format....">
<polygon fill="white" stroke="black" points="429.5,-152.5 429.5,-171.5 530.5,-171.5 530.5,-152.5 429.5,-152.5"/>
<text text-anchor="middle" x="480" y="-159.5" font-family="Helvetica,sans-Serif" font-size="10.00">Util::EventLogger</text>
</a>
</g>
</g>
<!-- Node91&#45;&gt;Node110 -->
<g id="edge41" class="edge">
<title>Node91&#45;&gt;Node110</title>
<path fill="none" stroke="midnightblue" d="M256.01,-260.39C279.26,-238.71 323.21,-201.28 368,-182 387.15,-173.75 409.58,-168.91 429.25,-166.06"/>
<polygon fill="midnightblue" stroke="midnightblue" points="253.53,-257.92 248.69,-267.34 258.35,-263 253.53,-257.92"/>
</g>
<!-- Node111 -->
<g id="node43" class="node">
<title>Node111</title>
<g id="a_node43"><a xlink:href="classUtil_1_1Warning.html" target="_top" xlink:title="Class to store information about warnings in a thread&#45;safe manner (deriving from ILockable)....">
<polygon fill="white" stroke="black" points="440,-114.5 440,-133.5 520,-133.5 520,-114.5 440,-114.5"/>
<text text-anchor="middle" x="480" y="-121.5" font-family="Helvetica,sans-Serif" font-size="10.00">Util::Warning</text>
</a>
</g>
</g>
<!-- Node91&#45;&gt;Node111 -->
<g id="edge42" class="edge">
<title>Node91&#45;&gt;Node111</title>
<path fill="none" stroke="midnightblue" d="M254.51,-259.73C285.64,-225.22 354,-150.41 368,-143 390.03,-131.34 417.65,-126.58 439.83,-124.74"/>
<polygon fill="midnightblue" stroke="midnightblue" points="251.87,-257.42 247.78,-267.2 257.07,-262.11 251.87,-257.42"/>
</g>
<!-- Node113 -->
<g id="node45" class="node">
<title>Node113</title>
<g id="a_node45"><a xlink:href="classDynExp_1_1InstrumentDataBase.html" target="_top" xlink:title="Data structure to contain data which is synchronized in between different threads....">
<polygon fill="white" stroke="red" points="399.5,-76.5 399.5,-95.5 560.5,-95.5 560.5,-76.5 399.5,-76.5"/>
<text text-anchor="middle" x="480" y="-83.5" font-family="Helvetica,sans-Serif" font-size="10.00">DynExp::InstrumentDataBase</text>
</a>
</g>
</g>
<!-- Node112&#45;&gt;Node113 -->
<g id="edge44" class="edge">
<title>Node112&#45;&gt;Node113</title>
<path fill="none" stroke="midnightblue" d="M312.45,-130.91C319.12,-128.77 325.73,-126.46 332,-124 348.84,-117.39 350.87,-110.82 368,-105 379.38,-101.13 391.71,-98.02 403.86,-95.54"/>
<polygon fill="midnightblue" stroke="midnightblue" points="311.18,-127.64 302.65,-133.92 313.24,-134.33 311.18,-127.64"/>
</g>
<!-- Node143 -->
<g id="node46" class="node">
<title>Node143</title>
<g id="a_node46"><a xlink:href="classDynExp_1_1ModuleDataBase.html" target="_top" xlink:title="Data structure to contain data which is synchronized in between different threads....">
<polygon fill="white" stroke="red" points="408.5,-38.5 408.5,-57.5 551.5,-57.5 551.5,-38.5 408.5,-38.5"/>
<text text-anchor="middle" x="480" y="-45.5" font-family="Helvetica,sans-Serif" font-size="10.00">DynExp::ModuleDataBase</text>
</a>
</g>
</g>
<!-- Node112&#45;&gt;Node143 -->
<g id="edge45" class="edge">
<title>Node112&#45;&gt;Node143</title>
<path fill="none" stroke="midnightblue" d="M318.81,-132.01C323.46,-129.68 327.9,-127.02 332,-124 356.12,-106.23 343.08,-83.63 368,-67 379.95,-59.02 394.19,-54.06 408.42,-51.04"/>
<polygon fill="midnightblue" stroke="midnightblue" points="317.36,-128.83 309.67,-136.12 320.23,-135.22 317.36,-128.83"/>
</g>
<!-- Node167 -->
<g id="node47" class="node">
<title>Node167</title>
<g id="a_node47"><a xlink:href="classDynExp_1_1ParamsBase.html" target="_top" xlink:title="Abstract base class for object parameter classes. Each class derived from class Object must be accomp...">
<polygon fill="white" stroke="red" points="420,-0.5 420,-19.5 540,-19.5 540,-0.5 420,-0.5"/>
<text text-anchor="middle" x="480" y="-7.5" font-family="Helvetica,sans-Serif" font-size="10.00">DynExp::ParamsBase</text>
</a>
</g>
</g>
<!-- Node112&#45;&gt;Node167 -->
<g id="edge46" class="edge">
<title>Node112&#45;&gt;Node167</title>
<path fill="none" stroke="midnightblue" d="M319.03,-133.24C323.69,-130.61 328.07,-127.55 332,-124 365.48,-93.7 333.15,-57.71 368,-29 382.41,-17.13 401.52,-11.47 419.81,-9.04"/>
<polygon fill="midnightblue" stroke="midnightblue" points="317.2,-130.24 309.77,-137.79 320.29,-136.52 317.2,-130.24"/>
</g>
</g>
</svg>
