<?xml version="1.0" encoding="UTF-8" standalone="no"?>
<!DOCTYPE svg PUBLIC "-//W3C//DTD SVG 1.1//EN"
 "http://www.w3.org/Graphics/SVG/1.1/DTD/svg11.dtd">
<!-- Generated by graphviz version 2.43.0 (0)
 -->
<!-- Title: DynExpModule::Stage1D Pages: 1 -->
<svg width="226pt" height="247pt"
 viewBox="0.00 0.00 226.00 247.00" xmlns="http://www.w3.org/2000/svg" xmlns:xlink="http://www.w3.org/1999/xlink">
<g id="graph0" class="graph" transform="scale(1 1) rotate(0) translate(4 243)">
<title>DynExpModule::Stage1D</title>
<!-- Node1 -->
<g id="Node000001" class="node">
<title>Node1</title>
<g id="a_Node000001"><a xlink:title=" ">
<polygon fill="#999999" stroke="#666666" points="181.5,-19 44.5,-19 44.5,0 181.5,0 181.5,-19"/>
<text text-anchor="middle" x="113" y="-7" font-family="Helvetica,sans-Serif" font-size="10.00">DynExpModule::Stage1D</text>
</a>
</g>
</g>
<!-- Node2 -->
<g id="Node000002" class="node">
<title>Node2</title>
<g id="a_Node000002"><a xlink:href="classDynExp_1_1QModuleBase.html" target="_top" xlink:title="Base class for modules with a Qt&#45;based user interface. Derive from this class to implement modules wi...">
<polygon fill="white" stroke="#666666" points="177,-74 49,-74 49,-55 177,-55 177,-74"/>
<text text-anchor="middle" x="113" y="-62" font-family="Helvetica,sans-Serif" font-size="10.00">DynExp::QModuleBase</text>
</a>
</g>
</g>
<!-- Node2&#45;&gt;Node1 -->
<g id="edge1_Node000001_Node000002" class="edge">
<title>Node2&#45;&gt;Node1</title>
<g id="a_edge1_Node000001_Node000002"><a xlink:title=" ">
<path fill="none" stroke="#63b8ff" d="M113,-44.66C113,-35.93 113,-25.99 113,-19.09"/>
<polygon fill="#63b8ff" stroke="#63b8ff" points="109.5,-44.75 113,-54.75 116.5,-44.75 109.5,-44.75"/>
</a>
</g>
</g>
<!-- Node3 -->
<g id="Node000003" class="node">
<title>Node3</title>
<g id="a_Node000003"><a xlink:href="classDynExp_1_1ModuleBase.html" target="_top" xlink:title="Base class for modules. Modules implement programs on their own (e.g. measurement protocols or server...">
<polygon fill="white" stroke="#666666" points="173,-129 53,-129 53,-110 173,-110 173,-129"/>
<text text-anchor="middle" x="113" y="-117" font-family="Helvetica,sans-Serif" font-size="10.00">DynExp::ModuleBase</text>
</a>
</g>
</g>
<!-- Node3&#45;&gt;Node2 -->
<g id="edge2_Node000002_Node000003" class="edge">
<title>Node3&#45;&gt;Node2</title>
<g id="a_edge2_Node000002_Node000003"><a xlink:title=" ">
<path fill="none" stroke="#63b8ff" d="M113,-99.66C113,-90.93 113,-80.99 113,-74.09"/>
<polygon fill="#63b8ff" stroke="#63b8ff" points="109.5,-99.75 113,-109.75 116.5,-99.75 109.5,-99.75"/>
</a>
</g>
</g>
<!-- Node4 -->
<g id="Node000004" class="node">
<title>Node4</title>
<g id="a_Node000004"><a xlink:href="classDynExp_1_1RunnableObject.html" target="_top" xlink:title="Defines an Object which possesses a thread it runs in. The RunnableObject can be started and stopped ...">
<polygon fill="white" stroke="#666666" points="181.5,-184 44.5,-184 44.5,-165 181.5,-165 181.5,-184"/>
<text text-anchor="middle" x="113" y="-172" font-family="Helvetica,sans-Serif" font-size="10.00">DynExp::RunnableObject</text>
</a>
</g>
</g>
<!-- Node4&#45;&gt;Node3 -->
<g id="edge3_Node000003_Node000004" class="edge">
<title>Node4&#45;&gt;Node3</title>
<g id="a_edge3_Node000003_Node000004"><a xlink:title=" ">
<path fill="none" stroke="#63b8ff" d="M113,-154.66C113,-145.93 113,-135.99 113,-129.09"/>
<polygon fill="#63b8ff" stroke="#63b8ff" points="109.5,-154.75 113,-164.75 116.5,-154.75 109.5,-154.75"/>
</a>
</g>
</g>
<!-- Node5 -->
<g id="Node000005" class="node">
<title>Node5</title>
<g id="a_Node000005"><a xlink:href="classUtil_1_1INonCopyable.html" target="_top" xlink:title="Interface to delete copy constructor and copy assignment operator and thus make derived classes non&#45;c...">
<polygon fill="white" stroke="#666666" points="108,-239 0,-239 0,-220 108,-220 108,-239"/>
<text text-anchor="middle" x="54" y="-227" font-family="Helvetica,sans-Serif" font-size="10.00">Util::INonCopyable</text>
</a>
</g>
</g>
<!-- Node5&#45;&gt;Node4 -->
<g id="edge4_Node000004_Node000005" class="edge">
<title>Node5&#45;&gt;Node4</title>
<g id="a_edge4_Node000004_Node000005"><a xlink:title=" ">
<path fill="none" stroke="#63b8ff" d="M71.2,-213.04C81.67,-203.64 94.65,-191.98 103.35,-184.17"/>
<polygon fill="#63b8ff" stroke="#63b8ff" points="68.58,-210.7 63.48,-219.98 73.26,-215.91 68.58,-210.7"/>
</a>
</g>
</g>
<!-- Node6 -->
<g id="Node000006" class="node">
<title>Node6</title>
<g id="a_Node000006"><a xlink:href="classDynExp_1_1Object.html" target="_top" xlink:title="Base class for all DynExp Objects like hardware adapters (DynExp::HardwareAdapterBase),...">
<polygon fill="white" stroke="#666666" points="218,-239 126,-239 126,-220 218,-220 218,-239"/>
<text text-anchor="middle" x="172" y="-227" font-family="Helvetica,sans-Serif" font-size="10.00">DynExp::Object</text>
</a>
</g>
</g>
<!-- Node6&#45;&gt;Node4 -->
<g id="edge5_Node000004_Node000006" class="edge">
<title>Node6&#45;&gt;Node4</title>
<g id="a_edge5_Node000004_Node000006"><a xlink:title=" ">
<path fill="none" stroke="#63b8ff" d="M154.8,-213.04C144.33,-203.64 131.35,-191.98 122.65,-184.17"/>
<polygon fill="#63b8ff" stroke="#63b8ff" points="152.74,-215.91 162.52,-219.98 157.42,-210.7 152.74,-215.91"/>
</a>
</g>
</g>
</g>
</svg>
