<?xml version="1.0" encoding="UTF-8" standalone="no"?>
<!DOCTYPE svg PUBLIC "-//W3C//DTD SVG 1.1//EN"
 "http://www.w3.org/Graphics/SVG/1.1/DTD/svg11.dtd">
<!-- Generated by graphviz version 2.43.0 (0)
 -->
<!-- Title: DynExpModule::ArbitraryFunctionFromCSVData Pages: 1 -->
<svg width="188pt" height="218pt"
 viewBox="0.00 0.00 188.00 218.00" xmlns="http://www.w3.org/2000/svg" xmlns:xlink="http://www.w3.org/1999/xlink">
<g id="graph0" class="graph" transform="scale(1 1) rotate(0) translate(4 214)">
<title>DynExpModule::ArbitraryFunctionFromCSVData</title>
<polygon fill="white" stroke="transparent" points="-4,4 -4,-214 184,-214 184,4 -4,4"/>
<!-- Node1 -->
<g id="node1" class="node">
<title>Node1</title>
<g id="a_node1"><a xlink:title=" ">
<polygon fill="#bfbfbf" stroke="black" points="0,-0.5 0,-30.5 180,-30.5 180,-0.5 0,-0.5"/>
<text text-anchor="start" x="8" y="-18.5" font-family="Helvetica,sans-Serif" font-size="10.00">DynExpModule::ArbitraryFunction</text>
<text text-anchor="middle" x="90" y="-7.5" font-family="Helvetica,sans-Serif" font-size="10.00">FromCSVData</text>
</a>
</g>
</g>
<!-- Node2 -->
<g id="node2" class="node">
<title>Node2</title>
<g id="a_node2"><a xlink:href="classDynExp_1_1ModuleDataBase.html" target="_top" xlink:title="Data structure to contain data which is synchronized in between different threads....">
<polygon fill="white" stroke="black" points="18.5,-67.5 18.5,-86.5 161.5,-86.5 161.5,-67.5 18.5,-67.5"/>
<text text-anchor="middle" x="90" y="-74.5" font-family="Helvetica,sans-Serif" font-size="10.00">DynExp::ModuleDataBase</text>
</a>
</g>
</g>
<!-- Node2&#45;&gt;Node1 -->
<g id="edge1" class="edge">
<title>Node2&#45;&gt;Node1</title>
<path fill="none" stroke="midnightblue" d="M90,-57.23C90,-48.59 90,-38.5 90,-30.52"/>
<polygon fill="midnightblue" stroke="midnightblue" points="86.5,-57.48 90,-67.48 93.5,-57.48 86.5,-57.48"/>
</g>
<!-- Node3 -->
<g id="node3" class="node">
<title>Node3</title>
<g id="a_node3"><a xlink:href="classUtil_1_1ISynchronizedPointerLockable.html" target="_top" xlink:title="Interface to allow synchronizing the access to derived classes between different threads by making th...">
<polygon fill="white" stroke="black" points="18.5,-123.5 18.5,-153.5 161.5,-153.5 161.5,-123.5 18.5,-123.5"/>
<text text-anchor="start" x="26.5" y="-141.5" font-family="Helvetica,sans-Serif" font-size="10.00">Util::ISynchronizedPointer</text>
<text text-anchor="middle" x="90" y="-130.5" font-family="Helvetica,sans-Serif" font-size="10.00">Lockable</text>
</a>
</g>
</g>
<!-- Node3&#45;&gt;Node2 -->
<g id="edge2" class="edge">
<title>Node3&#45;&gt;Node2</title>
<path fill="none" stroke="midnightblue" d="M90,-113.29C90,-103.86 90,-93.65 90,-86.66"/>
<polygon fill="midnightblue" stroke="midnightblue" points="86.5,-113.4 90,-123.4 93.5,-113.4 86.5,-113.4"/>
</g>
<!-- Node4 -->
<g id="node4" class="node">
<title>Node4</title>
<g id="a_node4"><a xlink:href="classUtil_1_1INonCopyable.html" target="_top" xlink:title="Interface to delete copy constructor and copy assignment operator and thus make derived classes non&#45;c...">
<polygon fill="white" stroke="black" points="36,-190.5 36,-209.5 144,-209.5 144,-190.5 36,-190.5"/>
<text text-anchor="middle" x="90" y="-197.5" font-family="Helvetica,sans-Serif" font-size="10.00">Util::INonCopyable</text>
</a>
</g>
</g>
<!-- Node4&#45;&gt;Node3 -->
<g id="edge3" class="edge">
<title>Node4&#45;&gt;Node3</title>
<path fill="none" stroke="midnightblue" d="M90,-180.23C90,-171.59 90,-161.5 90,-153.52"/>
<polygon fill="midnightblue" stroke="midnightblue" points="86.5,-180.48 90,-190.48 93.5,-180.48 86.5,-180.48"/>
</g>
</g>
</svg>
