<?xml version="1.0" encoding="UTF-8" standalone="no"?>
<!DOCTYPE svg PUBLIC "-//W3C//DTD SVG 1.1//EN"
 "http://www.w3.org/Graphics/SVG/1.1/DTD/svg11.dtd">
<!-- Generated by graphviz version 2.43.0 (0)
 -->
<!-- Title: DynExpInstr::DummyDataStreamInstrumentConfigurator Pages: 1 -->
<svg width="205pt" height="341pt"
 viewBox="0.00 0.00 205.00 341.00" xmlns="http://www.w3.org/2000/svg" xmlns:xlink="http://www.w3.org/1999/xlink">
<g id="graph0" class="graph" transform="scale(1 1) rotate(0) translate(4 337)">
<title>DynExpInstr::DummyDataStreamInstrumentConfigurator</title>
<polygon fill="white" stroke="transparent" points="-4,4 -4,-337 201,-337 201,4 -4,4"/>
<!-- Node1 -->
<g id="node1" class="node">
<title>Node1</title>
<g id="a_node1"><a xlink:title=" ">
<polygon fill="#bfbfbf" stroke="black" points="9,-0.5 9,-30.5 188,-30.5 188,-0.5 9,-0.5"/>
<text text-anchor="start" x="17" y="-18.5" font-family="Helvetica,sans-Serif" font-size="10.00">DynExpInstr::DummyDataStream</text>
<text text-anchor="middle" x="98.5" y="-7.5" font-family="Helvetica,sans-Serif" font-size="10.00">InstrumentConfigurator</text>
</a>
</g>
</g>
<!-- Node2 -->
<g id="node2" class="node">
<title>Node2</title>
<g id="a_node2"><a xlink:href="classDynExpInstr_1_1FunctionGeneratorConfigurator.html" target="_top" xlink:title="Configurator class for FunctionGenerator.">
<polygon fill="white" stroke="black" points="12.5,-67.5 12.5,-97.5 184.5,-97.5 184.5,-67.5 12.5,-67.5"/>
<text text-anchor="start" x="20.5" y="-85.5" font-family="Helvetica,sans-Serif" font-size="10.00">DynExpInstr::FunctionGenerator</text>
<text text-anchor="middle" x="98.5" y="-74.5" font-family="Helvetica,sans-Serif" font-size="10.00">Configurator</text>
</a>
</g>
</g>
<!-- Node2&#45;&gt;Node1 -->
<g id="edge1" class="edge">
<title>Node2&#45;&gt;Node1</title>
<path fill="none" stroke="midnightblue" d="M98.5,-57.11C98.5,-48.15 98.5,-38.32 98.5,-30.58"/>
<polygon fill="midnightblue" stroke="midnightblue" points="95,-57.4 98.5,-67.4 102,-57.4 95,-57.4"/>
</g>
<!-- Node3 -->
<g id="node3" class="node">
<title>Node3</title>
<g id="a_node3"><a xlink:href="classDynExpInstr_1_1DataStreamInstrumentConfigurator.html" target="_top" xlink:title="Configurator class for DataStreamInstrument.">
<polygon fill="white" stroke="black" points="1.5,-134.5 1.5,-164.5 195.5,-164.5 195.5,-134.5 1.5,-134.5"/>
<text text-anchor="start" x="9.5" y="-152.5" font-family="Helvetica,sans-Serif" font-size="10.00">DynExpInstr::DataStreamInstrument</text>
<text text-anchor="middle" x="98.5" y="-141.5" font-family="Helvetica,sans-Serif" font-size="10.00">Configurator</text>
</a>
</g>
</g>
<!-- Node3&#45;&gt;Node2 -->
<g id="edge2" class="edge">
<title>Node3&#45;&gt;Node2</title>
<path fill="none" stroke="midnightblue" d="M98.5,-124.11C98.5,-115.15 98.5,-105.32 98.5,-97.58"/>
<polygon fill="midnightblue" stroke="midnightblue" points="95,-124.4 98.5,-134.4 102,-124.4 95,-124.4"/>
</g>
<!-- Node4 -->
<g id="node4" class="node">
<title>Node4</title>
<g id="a_node4"><a xlink:href="classDynExp_1_1InstrumentConfiguratorBase.html" target="_top" xlink:title="Configurator class for InstrumentBase.">
<polygon fill="white" stroke="black" points="0,-201.5 0,-220.5 197,-220.5 197,-201.5 0,-201.5"/>
<text text-anchor="middle" x="98.5" y="-208.5" font-family="Helvetica,sans-Serif" font-size="10.00">DynExp::InstrumentConfiguratorBase</text>
</a>
</g>
</g>
<!-- Node4&#45;&gt;Node3 -->
<g id="edge3" class="edge">
<title>Node4&#45;&gt;Node3</title>
<path fill="none" stroke="midnightblue" d="M98.5,-191.23C98.5,-182.59 98.5,-172.5 98.5,-164.52"/>
<polygon fill="midnightblue" stroke="midnightblue" points="95,-191.48 98.5,-201.48 102,-191.48 95,-191.48"/>
</g>
<!-- Node5 -->
<g id="node5" class="node">
<title>Node5</title>
<g id="a_node5"><a xlink:href="classDynExp_1_1RunnableObjectConfigurator.html" target="_top" xlink:title="Configurator class for RunnableObject.">
<polygon fill="white" stroke="black" points="0,-257.5 0,-276.5 197,-276.5 197,-257.5 0,-257.5"/>
<text text-anchor="middle" x="98.5" y="-264.5" font-family="Helvetica,sans-Serif" font-size="10.00">DynExp::RunnableObjectConfigurator</text>
</a>
</g>
</g>
<!-- Node5&#45;&gt;Node4 -->
<g id="edge4" class="edge">
<title>Node5&#45;&gt;Node4</title>
<path fill="none" stroke="midnightblue" d="M98.5,-246.8C98.5,-237.91 98.5,-227.78 98.5,-220.75"/>
<polygon fill="midnightblue" stroke="midnightblue" points="95,-247.08 98.5,-257.08 102,-247.08 95,-247.08"/>
</g>
<!-- Node6 -->
<g id="node6" class="node">
<title>Node6</title>
<g id="a_node6"><a xlink:href="classDynExp_1_1ConfiguratorBase.html" target="_top" xlink:title="The configurator classes have the task to generate parameter objects (refer to DynExp::ParamsBase) of...">
<polygon fill="white" stroke="black" points="26.5,-313.5 26.5,-332.5 170.5,-332.5 170.5,-313.5 26.5,-313.5"/>
<text text-anchor="middle" x="98.5" y="-320.5" font-family="Helvetica,sans-Serif" font-size="10.00">DynExp::ConfiguratorBase</text>
</a>
</g>
</g>
<!-- Node6&#45;&gt;Node5 -->
<g id="edge5" class="edge">
<title>Node6&#45;&gt;Node5</title>
<path fill="none" stroke="midnightblue" d="M98.5,-302.8C98.5,-293.91 98.5,-283.78 98.5,-276.75"/>
<polygon fill="midnightblue" stroke="midnightblue" points="95,-303.08 98.5,-313.08 102,-303.08 95,-303.08"/>
</g>
</g>
</svg>
