<?xml version="1.0" encoding="UTF-8" standalone="no"?>
<!DOCTYPE svg PUBLIC "-//W3C//DTD SVG 1.1//EN"
 "http://www.w3.org/Graphics/SVG/1.1/DTD/svg11.dtd">
<!-- Generated by graphviz version 2.43.0 (0)
 -->
<!-- Title: DynExpInstr::DataStreamInstrumentData Pages: 1 -->
<svg width="1570pt" height="347pt"
 viewBox="0.00 0.00 1570.00 346.50" xmlns="http://www.w3.org/2000/svg" xmlns:xlink="http://www.w3.org/1999/xlink">
<g id="graph0" class="graph" transform="scale(1 1) rotate(0) translate(4 342.5)">
<title>DynExpInstr::DataStreamInstrumentData</title>
<!-- Node1 -->
<g id="Node000001" class="node">
<title>Node1</title>
<g id="a_Node000001"><a xlink:title="Data class for DataStreamInstrument.">
<polygon fill="#999999" stroke="#666666" points="737,-74 520,-74 520,-55 737,-55 737,-74"/>
<text text-anchor="middle" x="628.5" y="-62" font-family="Helvetica,sans-Serif" font-size="10.00">DynExpInstr::DataStreamInstrumentData</text>
</a>
</g>
</g>
<!-- Node5 -->
<g id="Node000005" class="node">
<title>Node5</title>
<g id="a_Node000005"><a xlink:href="classDynExpInstr_1_1FunctionGeneratorData.html" target="_top" xlink:title="Data class for FunctionGenerator.">
<polygon fill="white" stroke="#666666" points="968,-234 773,-234 773,-215 968,-215 968,-234"/>
<text text-anchor="middle" x="870.5" y="-222" font-family="Helvetica,sans-Serif" font-size="10.00">DynExpInstr::FunctionGeneratorData</text>
</a>
</g>
</g>
<!-- Node1&#45;&gt;Node5 -->
<g id="edge4_Node000001_Node000005" class="edge">
<title>Node1&#45;&gt;Node5</title>
<g id="a_edge4_Node000001_Node000005"><a xlink:title=" ">
<path fill="none" stroke="#63b8ff" d="M652.41,-79.77C701.3,-112.37 814.69,-187.96 854.98,-214.82"/>
<polygon fill="#63b8ff" stroke="#63b8ff" points="654.06,-76.66 643.79,-74.03 650.17,-82.49 654.06,-76.66"/>
</a>
</g>
</g>
<!-- Node15 -->
<g id="Node000015" class="node">
<title>Node15</title>
<g id="a_Node000015"><a xlink:href="classDynExpInstr_1_1InputPortData.html" target="_top" xlink:title="Data class for InputPort.">
<polygon fill="white" stroke="#666666" points="945,-93 796,-93 796,-74 945,-74 945,-93"/>
<text text-anchor="middle" x="870.5" y="-81" font-family="Helvetica,sans-Serif" font-size="10.00">DynExpInstr::InputPortData</text>
</a>
</g>
</g>
<!-- Node1&#45;&gt;Node15 -->
<g id="edge14_Node000001_Node000015" class="edge">
<title>Node1&#45;&gt;Node15</title>
<g id="a_edge14_Node000001_Node000015"><a xlink:title=" ">
<path fill="none" stroke="#63b8ff" d="M747.46,-73.84C763.94,-75.14 780.48,-76.45 795.82,-77.67"/>
<polygon fill="#63b8ff" stroke="#63b8ff" points="747.46,-70.33 737.21,-73.03 746.91,-77.31 747.46,-70.33"/>
</a>
</g>
</g>
<!-- Node20 -->
<g id="Node000020" class="node">
<title>Node20</title>
<g id="a_Node000020"><a xlink:href="classDynExpInstr_1_1LockinAmplifierData.html" target="_top" xlink:title="Data class for LockinAmplifier.">
<polygon fill="white" stroke="#666666" points="961,-56 780,-56 780,-37 961,-37 961,-56"/>
<text text-anchor="middle" x="870.5" y="-44" font-family="Helvetica,sans-Serif" font-size="10.00">DynExpInstr::LockinAmplifierData</text>
</a>
</g>
</g>
<!-- Node1&#45;&gt;Node20 -->
<g id="edge19_Node000001_Node000020" class="edge">
<title>Node1&#45;&gt;Node20</title>
<g id="a_edge19_Node000001_Node000020"><a xlink:title=" ">
<path fill="none" stroke="#63b8ff" d="M747.23,-55.67C758.16,-54.85 769.11,-54.03 779.72,-53.23"/>
<polygon fill="#63b8ff" stroke="#63b8ff" points="746.92,-52.18 737.21,-56.42 747.45,-59.16 746.92,-52.18"/>
</a>
</g>
</g>
<!-- Node22 -->
<g id="Node000022" class="node">
<title>Node22</title>
<g id="a_Node000022"><a xlink:href="classDynExpInstr_1_1TimeTaggerData.html" target="_top" xlink:title="Data class for TimeTagger.">
<polygon fill="white" stroke="#666666" points="951.5,-19 789.5,-19 789.5,0 951.5,0 951.5,-19"/>
<text text-anchor="middle" x="870.5" y="-7" font-family="Helvetica,sans-Serif" font-size="10.00">DynExpInstr::TimeTaggerData</text>
</a>
</g>
</g>
<!-- Node1&#45;&gt;Node22 -->
<g id="edge21_Node000001_Node000022" class="edge">
<title>Node1&#45;&gt;Node22</title>
<g id="a_edge21_Node000001_Node000022"><a xlink:title=" ">
<path fill="none" stroke="#63b8ff" d="M673.82,-52.24C702.08,-44.63 739.56,-34.92 773,-27.5 786.48,-24.51 801.09,-21.61 814.76,-19.04"/>
<polygon fill="#63b8ff" stroke="#63b8ff" points="672.58,-48.95 663.85,-54.94 674.41,-55.71 672.58,-48.95"/>
</a>
</g>
</g>
<!-- Node2 -->
<g id="Node000002" class="node">
<title>Node2</title>
<g id="a_Node000002"><a xlink:href="classDynExp_1_1InstrumentDataBase.html" target="_top" xlink:title="Data structure to contain data which is synchronized in between different threads....">
<polygon fill="white" stroke="#666666" points="484,-74 323,-74 323,-55 484,-55 484,-74"/>
<text text-anchor="middle" x="403.5" y="-62" font-family="Helvetica,sans-Serif" font-size="10.00">DynExp::InstrumentDataBase</text>
</a>
</g>
</g>
<!-- Node2&#45;&gt;Node1 -->
<g id="edge1_Node000001_Node000002" class="edge">
<title>Node2&#45;&gt;Node1</title>
<g id="a_edge1_Node000001_Node000002"><a xlink:title=" ">
<path fill="none" stroke="#63b8ff" d="M494.26,-64.5C502.71,-64.5 511.33,-64.5 519.91,-64.5"/>
<polygon fill="#63b8ff" stroke="#63b8ff" points="494.06,-61 484.06,-64.5 494.06,-68 494.06,-61"/>
</a>
</g>
</g>
<!-- Node3 -->
<g id="Node000003" class="node">
<title>Node3</title>
<g id="a_Node000003"><a xlink:href="classUtil_1_1ISynchronizedPointerLockable.html" target="_top" xlink:title="Interface to allow synchronizing the access to derived classes between different threads by making th...">
<polygon fill="white" stroke="#666666" points="287,-79.5 144,-79.5 144,-49.5 287,-49.5 287,-79.5"/>
<text text-anchor="start" x="152" y="-67.5" font-family="Helvetica,sans-Serif" font-size="10.00">Util::ISynchronizedPointer</text>
<text text-anchor="middle" x="215.5" y="-56.5" font-family="Helvetica,sans-Serif" font-size="10.00">Lockable</text>
</a>
</g>
</g>
<!-- Node3&#45;&gt;Node2 -->
<g id="edge2_Node000002_Node000003" class="edge">
<title>Node3&#45;&gt;Node2</title>
<g id="a_edge2_Node000002_Node000003"><a xlink:title=" ">
<path fill="none" stroke="#63b8ff" d="M297.35,-64.5C305.84,-64.5 314.47,-64.5 322.94,-64.5"/>
<polygon fill="#63b8ff" stroke="#63b8ff" points="297.08,-61 287.08,-64.5 297.08,-68 297.08,-61"/>
</a>
</g>
</g>
<!-- Node4 -->
<g id="Node000004" class="node">
<title>Node4</title>
<g id="a_Node000004"><a xlink:href="classUtil_1_1INonCopyable.html" target="_top" xlink:title="Interface to delete copy constructor and copy assignment operator and thus make derived classes non&#45;c...">
<polygon fill="white" stroke="#666666" points="108,-74 0,-74 0,-55 108,-55 108,-74"/>
<text text-anchor="middle" x="54" y="-62" font-family="Helvetica,sans-Serif" font-size="10.00">Util::INonCopyable</text>
</a>
</g>
</g>
<!-- Node4&#45;&gt;Node3 -->
<g id="edge3_Node000003_Node000004" class="edge">
<title>Node4&#45;&gt;Node3</title>
<g id="a_edge3_Node000003_Node000004"><a xlink:title=" ">
<path fill="none" stroke="#63b8ff" d="M118.19,-64.5C126.58,-64.5 135.23,-64.5 143.74,-64.5"/>
<polygon fill="#63b8ff" stroke="#63b8ff" points="118.11,-61 108.11,-64.5 118.11,-68 118.11,-61"/>
</a>
</g>
</g>
<!-- Node6 -->
<g id="Node000006" class="node">
<title>Node6</title>
<g id="a_Node000006"><a xlink:href="classDynExpInstr_1_1DummyDataStreamInstrumentData.html" target="_top" xlink:title=" ">
<polygon fill="white" stroke="#666666" points="1184.5,-338.5 1005.5,-338.5 1005.5,-308.5 1184.5,-308.5 1184.5,-338.5"/>
<text text-anchor="start" x="1013.5" y="-326.5" font-family="Helvetica,sans-Serif" font-size="10.00">DynExpInstr::DummyDataStream</text>
<text text-anchor="middle" x="1095" y="-315.5" font-family="Helvetica,sans-Serif" font-size="10.00">InstrumentData</text>
</a>
</g>
</g>
<!-- Node5&#45;&gt;Node6 -->
<g id="edge5_Node000005_Node000006" class="edge">
<title>Node5&#45;&gt;Node6</title>
<g id="a_edge5_Node000005_Node000006"><a xlink:title=" ">
<path fill="none" stroke="#63b8ff" d="M894.21,-239.74C919.91,-256.41 963.46,-282.94 1004,-299.5 1012.08,-302.8 1020.76,-305.78 1029.42,-308.42"/>
<polygon fill="#63b8ff" stroke="#63b8ff" points="895.87,-236.65 885.59,-234.09 892.03,-242.5 895.87,-236.65"/>
</a>
</g>
</g>
<!-- Node7 -->
<g id="Node000007" class="node">
<title>Node7</title>
<g id="a_Node000007"><a xlink:href="classDynExpInstr_1_1OutputPortData.html" target="_top" xlink:title="Data class for OutputPort.">
<polygon fill="white" stroke="#666666" points="1174,-290 1016,-290 1016,-271 1174,-271 1174,-290"/>
<text text-anchor="middle" x="1095" y="-278" font-family="Helvetica,sans-Serif" font-size="10.00">DynExpInstr::OutputPortData</text>
</a>
</g>
</g>
<!-- Node5&#45;&gt;Node7 -->
<g id="edge6_Node000005_Node000007" class="edge">
<title>Node5&#45;&gt;Node7</title>
<g id="a_edge6_Node000005_Node000007"><a xlink:title=" ">
<path fill="none" stroke="#63b8ff" d="M912.01,-237.05C938.13,-244.91 972.9,-254.94 1004,-262.5 1016.39,-265.51 1029.82,-268.4 1042.44,-270.94"/>
<polygon fill="#63b8ff" stroke="#63b8ff" points="912.68,-233.6 902.1,-234.05 910.65,-240.3 912.68,-233.6"/>
</a>
</g>
</g>
<!-- Node12 -->
<g id="Node000012" class="node">
<title>Node12</title>
<g id="a_Node000012"><a xlink:href="classDynExpInstr_1_1RS__SMB100BData.html" target="_top" xlink:title=" ">
<polygon fill="white" stroke="#666666" points="1180,-253 1010,-253 1010,-234 1180,-234 1180,-253"/>
<text text-anchor="middle" x="1095" y="-241" font-family="Helvetica,sans-Serif" font-size="10.00">DynExpInstr::RS_SMB100BData</text>
</a>
</g>
</g>
<!-- Node5&#45;&gt;Node12 -->
<g id="edge11_Node000005_Node000012" class="edge">
<title>Node5&#45;&gt;Node12</title>
<g id="a_edge11_Node000005_Node000012"><a xlink:title=" ">
<path fill="none" stroke="#63b8ff" d="M978.22,-233.61C988.78,-234.51 999.39,-235.42 1009.68,-236.3"/>
<polygon fill="#63b8ff" stroke="#63b8ff" points="978.38,-230.11 968.12,-232.75 977.79,-237.09 978.38,-230.11"/>
</a>
</g>
</g>
<!-- Node13 -->
<g id="Node000013" class="node">
<title>Node13</title>
<g id="a_Node000013"><a xlink:href="classDynExpInstr_1_1RS__SMC100AData.html" target="_top" xlink:title=" ">
<polygon fill="white" stroke="#666666" points="1180,-216 1010,-216 1010,-197 1180,-197 1180,-216"/>
<text text-anchor="middle" x="1095" y="-204" font-family="Helvetica,sans-Serif" font-size="10.00">DynExpInstr::RS_SMC100AData</text>
</a>
</g>
</g>
<!-- Node5&#45;&gt;Node13 -->
<g id="edge12_Node000005_Node000013" class="edge">
<title>Node5&#45;&gt;Node13</title>
<g id="a_edge12_Node000005_Node000013"><a xlink:title=" ">
<path fill="none" stroke="#63b8ff" d="M978.22,-215.87C988.78,-215.01 999.39,-214.15 1009.68,-213.32"/>
<polygon fill="#63b8ff" stroke="#63b8ff" points="977.81,-212.39 968.12,-216.68 978.37,-219.37 977.81,-212.39"/>
</a>
</g>
</g>
<!-- Node14 -->
<g id="Node000014" class="node">
<title>Node14</title>
<g id="a_Node000014"><a xlink:href="classDynExpInstr_1_1SwabianInstrumentsPulseStreamerData.html" target="_top" xlink:title=" ">
<polygon fill="white" stroke="#666666" points="1186,-178.5 1004,-178.5 1004,-148.5 1186,-148.5 1186,-178.5"/>
<text text-anchor="start" x="1012" y="-166.5" font-family="Helvetica,sans-Serif" font-size="10.00">DynExpInstr::SwabianInstruments</text>
<text text-anchor="middle" x="1095" y="-155.5" font-family="Helvetica,sans-Serif" font-size="10.00">PulseStreamerData</text>
</a>
</g>
</g>
<!-- Node5&#45;&gt;Node14 -->
<g id="edge13_Node000005_Node000014" class="edge">
<title>Node5&#45;&gt;Node14</title>
<g id="a_edge13_Node000005_Node000014"><a xlink:title=" ">
<path fill="none" stroke="#63b8ff" d="M916.32,-212.21C951.74,-202.5 1001.35,-188.9 1039.14,-178.54"/>
<polygon fill="#63b8ff" stroke="#63b8ff" points="914.98,-208.95 906.27,-214.97 916.84,-215.7 914.98,-208.95"/>
</a>
</g>
</g>
<!-- Node8 -->
<g id="Node000008" class="node">
<title>Node8</title>
<g id="a_Node000008"><a xlink:href="classDynExpInstr_1_1AnalogOutData.html" target="_top" xlink:title="Data class for AnalogOut.">
<polygon fill="white" stroke="#666666" points="1378,-311 1222,-311 1222,-292 1378,-292 1378,-311"/>
<text text-anchor="middle" x="1300" y="-299" font-family="Helvetica,sans-Serif" font-size="10.00">DynExpInstr::AnalogOutData</text>
</a>
</g>
</g>
<!-- Node7&#45;&gt;Node8 -->
<g id="edge7_Node000007_Node000008" class="edge">
<title>Node7&#45;&gt;Node8</title>
<g id="a_edge7_Node000007_Node000008"><a xlink:title=" ">
<path fill="none" stroke="#63b8ff" d="M1184.18,-289.62C1196.72,-290.92 1209.54,-292.25 1221.85,-293.52"/>
<polygon fill="#63b8ff" stroke="#63b8ff" points="1184.5,-286.14 1174.19,-288.59 1183.78,-293.1 1184.5,-286.14"/>
</a>
</g>
</g>
<!-- Node10 -->
<g id="Node000010" class="node">
<title>Node10</title>
<g id="a_Node000010"><a xlink:href="classDynExpInstr_1_1DigitalOutData.html" target="_top" xlink:title="Data class for DigitalOut.">
<polygon fill="white" stroke="#666666" points="1377.5,-269 1222.5,-269 1222.5,-250 1377.5,-250 1377.5,-269"/>
<text text-anchor="middle" x="1300" y="-257" font-family="Helvetica,sans-Serif" font-size="10.00">DynExpInstr::DigitalOutData</text>
</a>
</g>
</g>
<!-- Node7&#45;&gt;Node10 -->
<g id="edge9_Node000007_Node000010" class="edge">
<title>Node7&#45;&gt;Node10</title>
<g id="a_edge9_Node000007_Node000010"><a xlink:title=" ">
<path fill="none" stroke="#63b8ff" d="M1184.25,-271.37C1196.88,-270.06 1209.79,-268.73 1222.18,-267.45"/>
<polygon fill="#63b8ff" stroke="#63b8ff" points="1183.78,-267.9 1174.19,-272.41 1184.5,-274.86 1183.78,-267.9"/>
</a>
</g>
</g>
<!-- Node9 -->
<g id="Node000009" class="node">
<title>Node9</title>
<g id="a_Node000009"><a xlink:href="classDynExpInstr_1_1NIDAQAnalogOutData.html" target="_top" xlink:title=" ">
<polygon fill="white" stroke="#666666" points="1562,-319.5 1414,-319.5 1414,-289.5 1562,-289.5 1562,-319.5"/>
<text text-anchor="start" x="1422" y="-307.5" font-family="Helvetica,sans-Serif" font-size="10.00">DynExpInstr::NIDAQAnalog</text>
<text text-anchor="middle" x="1488" y="-296.5" font-family="Helvetica,sans-Serif" font-size="10.00">OutData</text>
</a>
</g>
</g>
<!-- Node8&#45;&gt;Node9 -->
<g id="edge8_Node000008_Node000009" class="edge">
<title>Node8&#45;&gt;Node9</title>
<g id="a_edge8_Node000008_Node000009"><a xlink:title=" ">
<path fill="none" stroke="#63b8ff" d="M1388.27,-302.91C1396.83,-303.05 1405.45,-303.18 1413.85,-303.32"/>
<polygon fill="#63b8ff" stroke="#63b8ff" points="1388.32,-299.41 1378.26,-302.75 1388.21,-306.41 1388.32,-299.41"/>
</a>
</g>
</g>
<!-- Node11 -->
<g id="Node000011" class="node">
<title>Node11</title>
<g id="a_Node000011"><a xlink:href="classDynExpInstr_1_1NIDAQDigitalOutData.html" target="_top" xlink:title=" ">
<polygon fill="white" stroke="#666666" points="1561,-271.5 1415,-271.5 1415,-241.5 1561,-241.5 1561,-271.5"/>
<text text-anchor="start" x="1423" y="-259.5" font-family="Helvetica,sans-Serif" font-size="10.00">DynExpInstr::NIDAQDigital</text>
<text text-anchor="middle" x="1488" y="-248.5" font-family="Helvetica,sans-Serif" font-size="10.00">OutData</text>
</a>
</g>
</g>
<!-- Node10&#45;&gt;Node11 -->
<g id="edge10_Node000010_Node000011" class="edge">
<title>Node10&#45;&gt;Node11</title>
<g id="a_edge10_Node000010_Node000011"><a xlink:title=" ">
<path fill="none" stroke="#63b8ff" d="M1387.89,-258.1C1396.94,-257.95 1406.07,-257.81 1414.93,-257.66"/>
<polygon fill="#63b8ff" stroke="#63b8ff" points="1387.67,-254.6 1377.73,-258.26 1387.78,-261.6 1387.67,-254.6"/>
</a>
</g>
</g>
<!-- Node16 -->
<g id="Node000016" class="node">
<title>Node16</title>
<g id="a_Node000016"><a xlink:href="classDynExpInstr_1_1AnalogInData.html" target="_top" xlink:title="Data class for AnalogIn.">
<polygon fill="white" stroke="#666666" points="1169,-130 1021,-130 1021,-111 1169,-111 1169,-130"/>
<text text-anchor="middle" x="1095" y="-118" font-family="Helvetica,sans-Serif" font-size="10.00">DynExpInstr::AnalogInData</text>
</a>
</g>
</g>
<!-- Node15&#45;&gt;Node16 -->
<g id="edge15_Node000015_Node000016" class="edge">
<title>Node15&#45;&gt;Node16</title>
<g id="a_edge15_Node000015_Node000016"><a xlink:title=" ">
<path fill="none" stroke="#63b8ff" d="M938.72,-94.68C969.92,-99.87 1006.62,-105.97 1036.51,-110.94"/>
<polygon fill="#63b8ff" stroke="#63b8ff" points="939.24,-91.22 928.8,-93.03 938.09,-98.12 939.24,-91.22"/>
</a>
</g>
</g>
<!-- Node18 -->
<g id="Node000018" class="node">
<title>Node18</title>
<g id="a_Node000018"><a xlink:href="classDynExpInstr_1_1DigitalInData.html" target="_top" xlink:title="Data class for DigitalIn.">
<polygon fill="white" stroke="#666666" points="1168,-93 1022,-93 1022,-74 1168,-74 1168,-93"/>
<text text-anchor="middle" x="1095" y="-81" font-family="Helvetica,sans-Serif" font-size="10.00">DynExpInstr::DigitalInData</text>
</a>
</g>
</g>
<!-- Node15&#45;&gt;Node18 -->
<g id="edge17_Node000015_Node000018" class="edge">
<title>Node15&#45;&gt;Node18</title>
<g id="a_edge17_Node000015_Node000018"><a xlink:title=" ">
<path fill="none" stroke="#63b8ff" d="M955.54,-83.5C977.4,-83.5 1000.75,-83.5 1021.93,-83.5"/>
<polygon fill="#63b8ff" stroke="#63b8ff" points="955.28,-80 945.28,-83.5 955.28,-87 955.28,-80"/>
</a>
</g>
</g>
<!-- Node17 -->
<g id="Node000017" class="node">
<title>Node17</title>
<g id="a_Node000017"><a xlink:href="classDynExpInstr_1_1NIDAQAnalogInData.html" target="_top" xlink:title=" ">
<polygon fill="white" stroke="#666666" points="1374,-140.5 1226,-140.5 1226,-110.5 1374,-110.5 1374,-140.5"/>
<text text-anchor="start" x="1234" y="-128.5" font-family="Helvetica,sans-Serif" font-size="10.00">DynExpInstr::NIDAQAnalog</text>
<text text-anchor="middle" x="1300" y="-117.5" font-family="Helvetica,sans-Serif" font-size="10.00">InData</text>
</a>
</g>
</g>
<!-- Node16&#45;&gt;Node17 -->
<g id="edge16_Node000016_Node000017" class="edge">
<title>Node16&#45;&gt;Node17</title>
<g id="a_edge16_Node000016_Node000017"><a xlink:title=" ">
<path fill="none" stroke="#63b8ff" d="M1179.11,-122.55C1194.64,-122.93 1210.76,-123.33 1225.96,-123.7"/>
<polygon fill="#63b8ff" stroke="#63b8ff" points="1179.08,-119.05 1169,-122.3 1178.91,-126.04 1179.08,-119.05"/>
</a>
</g>
</g>
<!-- Node19 -->
<g id="Node000019" class="node">
<title>Node19</title>
<g id="a_Node000019"><a xlink:href="classDynExpInstr_1_1NIDAQDigitalInData.html" target="_top" xlink:title=" ">
<polygon fill="white" stroke="#666666" points="1373,-92.5 1227,-92.5 1227,-62.5 1373,-62.5 1373,-92.5"/>
<text text-anchor="start" x="1235" y="-80.5" font-family="Helvetica,sans-Serif" font-size="10.00">DynExpInstr::NIDAQDigital</text>
<text text-anchor="middle" x="1300" y="-69.5" font-family="Helvetica,sans-Serif" font-size="10.00">InData</text>
</a>
</g>
</g>
<!-- Node18&#45;&gt;Node19 -->
<g id="edge18_Node000018_Node000019" class="edge">
<title>Node18&#45;&gt;Node19</title>
<g id="a_edge18_Node000018_Node000019"><a xlink:title=" ">
<path fill="none" stroke="#63b8ff" d="M1178.53,-81.06C1194.51,-80.59 1211.13,-80.1 1226.75,-79.64"/>
<polygon fill="#63b8ff" stroke="#63b8ff" points="1178.03,-77.57 1168.14,-81.37 1178.24,-84.57 1178.03,-77.57"/>
</a>
</g>
</g>
<!-- Node21 -->
<g id="Node000021" class="node">
<title>Node21</title>
<g id="a_Node000021"><a xlink:href="classDynExpInstr_1_1ZI__MFLIData.html" target="_top" xlink:title=" ">
<polygon fill="white" stroke="#666666" points="1166.5,-56 1023.5,-56 1023.5,-37 1166.5,-37 1166.5,-56"/>
<text text-anchor="middle" x="1095" y="-44" font-family="Helvetica,sans-Serif" font-size="10.00">DynExpInstr::ZI_MFLIData</text>
</a>
</g>
</g>
<!-- Node20&#45;&gt;Node21 -->
<g id="edge20_Node000020_Node000021" class="edge">
<title>Node20&#45;&gt;Node21</title>
<g id="a_edge20_Node000020_Node000021"><a xlink:title=" ">
<path fill="none" stroke="#63b8ff" d="M971.33,-46.5C988.91,-46.5 1006.88,-46.5 1023.45,-46.5"/>
<polygon fill="#63b8ff" stroke="#63b8ff" points="971.04,-43 961.04,-46.5 971.04,-50 971.04,-43"/>
</a>
</g>
</g>
<!-- Node23 -->
<g id="Node000023" class="node">
<title>Node23</title>
<g id="a_Node000023"><a xlink:href="classDynExpInstr_1_1QutoolsQuTAGData.html" target="_top" xlink:title=" ">
<polygon fill="white" stroke="#666666" points="1183,-19 1007,-19 1007,0 1183,0 1183,-19"/>
<text text-anchor="middle" x="1095" y="-7" font-family="Helvetica,sans-Serif" font-size="10.00">DynExpInstr::QutoolsQuTAGData</text>
</a>
</g>
</g>
<!-- Node22&#45;&gt;Node23 -->
<g id="edge22_Node000022_Node000023" class="edge">
<title>Node22&#45;&gt;Node23</title>
<g id="a_edge22_Node000022_Node000023"><a xlink:title=" ">
<path fill="none" stroke="#63b8ff" d="M961.72,-9.5C976.59,-9.5 991.99,-9.5 1006.79,-9.5"/>
<polygon fill="#63b8ff" stroke="#63b8ff" points="961.51,-6 951.51,-9.5 961.51,-13 961.51,-6"/>
</a>
</g>
</g>
</g>
</svg>
