<?xml version="1.0" encoding="UTF-8" standalone="no"?>
<!DOCTYPE svg PUBLIC "-//W3C//DTD SVG 1.1//EN"
 "http://www.w3.org/Graphics/SVG/1.1/DTD/svg11.dtd">
<!-- Generated by graphviz version 2.43.0 (0)
 -->
<!-- Title: WidefieldMicroscope Pages: 1 -->
<svg width="239pt" height="295pt"
 viewBox="0.00 0.00 239.20 295.00" xmlns="http://www.w3.org/2000/svg" xmlns:xlink="http://www.w3.org/1999/xlink">
<g id="graph0" class="graph" transform="scale(1 1) rotate(0) translate(4 291)">
<title>WidefieldMicroscope</title>
<polygon fill="white" stroke="transparent" points="-4,4 -4,-291 235.2,-291 235.2,4 -4,4"/>
<g id="clust1" class="cluster">
<title>clusterdir_2ab72d9bf9e32bc56d72b9abb37a6f89</title>
<g id="a_clust1"><a xlink:href="dir_2ab72d9bf9e32bc56d72b9abb37a6f89.html" target="_top" xlink:title="Modules">
<polygon fill="#ddddee" stroke="black" points="8,-136 8,-279 220,-279 220,-136 8,-136"/>
<text text-anchor="middle" x="114" y="-267" font-family="Helvetica,sans-Serif" font-size="10.00">Modules</text>
</a>
</g>
</g>
<!-- dir_9b0671ecaa850ec08588c0419e002f4b -->
<g id="node1" class="node">
<title>dir_9b0671ecaa850ec08588c0419e002f4b</title>
<g id="a_node1"><a xlink:href="dir_9b0671ecaa850ec08588c0419e002f4b.html" target="_top" xlink:title="ImageViewer">
<polygon fill="none" stroke="black" points="97.5,-180 16.5,-180 16.5,-144 97.5,-144 97.5,-180"/>
<text text-anchor="middle" x="57" y="-159.5" font-family="Helvetica,sans-Serif" font-size="10.00">ImageViewer</text>
</a>
</g>
</g>
<!-- dir_0da42046d2d6f05823dedebd1ee5614d -->
<g id="node4" class="node">
<title>dir_0da42046d2d6f05823dedebd1ee5614d</title>
<g id="a_node4"><a xlink:href="dir_0da42046d2d6f05823dedebd1ee5614d.html" target="_top" xlink:title="Instruments">
<polygon fill="none" stroke="black" points="95.5,-108 20.5,-108 20.5,-72 95.5,-72 95.5,-108"/>
<text text-anchor="middle" x="58" y="-87.5" font-family="Helvetica,sans-Serif" font-size="10.00">Instruments</text>
</a>
</g>
</g>
<!-- dir_9b0671ecaa850ec08588c0419e002f4b&#45;&gt;dir_0da42046d2d6f05823dedebd1ee5614d -->
<g id="edge4" class="edge">
<title>dir_9b0671ecaa850ec08588c0419e002f4b&#45;&gt;dir_0da42046d2d6f05823dedebd1ee5614d</title>
<path fill="none" stroke="black" d="M57.25,-143.7C57.36,-135.98 57.49,-126.71 57.61,-118.11"/>
<polygon fill="black" stroke="black" points="61.11,-118.15 57.76,-108.1 54.11,-118.05 61.11,-118.15"/>
<g id="a_edge4&#45;headlabel"><a xlink:href="dir_000006_000004.html" target="_top" xlink:title="1">
<text text-anchor="middle" x="63.9" y="-119.29" font-family="Helvetica,sans-Serif" font-size="10.00">1</text>
</a>
</g>
</g>
<!-- dir_4e013caeeea61262a6dac45a7a8bba06 -->
<g id="node5" class="node">
<title>dir_4e013caeeea61262a6dac45a7a8bba06</title>
<g id="a_node5"><a xlink:href="dir_4e013caeeea61262a6dac45a7a8bba06.html" target="_top" xlink:title="MetaInstruments">
<polygon fill="none" stroke="black" points="194,-36 94,-36 94,0 194,0 194,-36"/>
<text text-anchor="middle" x="144" y="-15.5" font-family="Helvetica,sans-Serif" font-size="10.00">MetaInstruments</text>
</a>
</g>
</g>
<!-- dir_9b0671ecaa850ec08588c0419e002f4b&#45;&gt;dir_4e013caeeea61262a6dac45a7a8bba06 -->
<g id="edge5" class="edge">
<title>dir_9b0671ecaa850ec08588c0419e002f4b&#45;&gt;dir_4e013caeeea61262a6dac45a7a8bba06</title>
<path fill="none" stroke="black" d="M75.45,-143.57C85.11,-133.76 96.64,-120.92 105,-108 117.68,-88.4 128.05,-63.99 134.9,-45.69"/>
<polygon fill="black" stroke="black" points="138.21,-46.82 138.33,-36.22 131.63,-44.43 138.21,-46.82"/>
<g id="a_edge5&#45;headlabel"><a xlink:href="dir_000006_000002.html" target="_top" xlink:title="2">
<text text-anchor="middle" x="139.66" y="-48.66" font-family="Helvetica,sans-Serif" font-size="10.00">2</text>
</a>
</g>
</g>
<!-- dir_b05a80633b93658ddd933fad27c9c4e7 -->
<g id="node2" class="node">
<title>dir_b05a80633b93658ddd933fad27c9c4e7</title>
<g id="a_node2"><a xlink:href="dir_b05a80633b93658ddd933fad27c9c4e7.html" target="_top" xlink:title="SpectrumViewer">
<polygon fill="none" stroke="black" points="212.5,-180 115.5,-180 115.5,-144 212.5,-144 212.5,-180"/>
<text text-anchor="middle" x="164" y="-159.5" font-family="Helvetica,sans-Serif" font-size="10.00">SpectrumViewer</text>
</a>
</g>
</g>
<!-- dir_b05a80633b93658ddd933fad27c9c4e7&#45;&gt;dir_0da42046d2d6f05823dedebd1ee5614d -->
<g id="edge2" class="edge">
<title>dir_b05a80633b93658ddd933fad27c9c4e7&#45;&gt;dir_0da42046d2d6f05823dedebd1ee5614d</title>
<path fill="none" stroke="black" d="M138.07,-143.88C124.34,-134.81 107.29,-123.55 92.46,-113.76"/>
<polygon fill="black" stroke="black" points="94.3,-110.78 84.03,-108.19 90.45,-116.62 94.3,-110.78"/>
<g id="a_edge2&#45;headlabel"><a xlink:href="dir_000008_000004.html" target="_top" xlink:title="1">
<text text-anchor="middle" x="98.87" y="-107.89" font-family="Helvetica,sans-Serif" font-size="10.00">1</text>
</a>
</g>
</g>
<!-- dir_b05a80633b93658ddd933fad27c9c4e7&#45;&gt;dir_4e013caeeea61262a6dac45a7a8bba06 -->
<g id="edge3" class="edge">
<title>dir_b05a80633b93658ddd933fad27c9c4e7&#45;&gt;dir_4e013caeeea61262a6dac45a7a8bba06</title>
<path fill="none" stroke="black" d="M161.59,-143.87C158.18,-119.67 151.92,-75.21 147.86,-46.39"/>
<polygon fill="black" stroke="black" points="151.28,-45.6 146.42,-36.19 144.35,-46.58 151.28,-45.6"/>
<g id="a_edge3&#45;headlabel"><a xlink:href="dir_000008_000002.html" target="_top" xlink:title="1">
<text text-anchor="middle" x="154.59" y="-46.27" font-family="Helvetica,sans-Serif" font-size="10.00">1</text>
</a>
</g>
</g>
<!-- dir_ca773ff6f6f7f9a1b3d6153e47464b05 -->
<g id="node3" class="node">
<title>dir_ca773ff6f6f7f9a1b3d6153e47464b05</title>
<g id="a_node3"><a xlink:href="dir_ca773ff6f6f7f9a1b3d6153e47464b05.html" target="_top" xlink:title="WidefieldMicroscope">
<polygon fill="#eeeeff" stroke="black" points="173,-252 55,-252 55,-216 173,-216 173,-252"/>
<text text-anchor="middle" x="114" y="-231.5" font-family="Helvetica,sans-Serif" font-size="10.00">WidefieldMicroscope</text>
</a>
</g>
</g>
<!-- dir_ca773ff6f6f7f9a1b3d6153e47464b05&#45;&gt;dir_9b0671ecaa850ec08588c0419e002f4b -->
<g id="edge8" class="edge">
<title>dir_ca773ff6f6f7f9a1b3d6153e47464b05&#45;&gt;dir_9b0671ecaa850ec08588c0419e002f4b</title>
<path fill="none" stroke="black" d="M99.91,-215.7C93.08,-207.3 84.74,-197.07 77.24,-187.86"/>
<polygon fill="black" stroke="black" points="79.96,-185.65 70.93,-180.1 74.53,-190.07 79.96,-185.65"/>
<g id="a_edge8&#45;headlabel"><a xlink:href="dir_000009_000006.html" target="_top" xlink:title="1">
<text text-anchor="middle" x="84.43" y="-184.14" font-family="Helvetica,sans-Serif" font-size="10.00">1</text>
</a>
</g>
</g>
<!-- dir_ca773ff6f6f7f9a1b3d6153e47464b05&#45;&gt;dir_b05a80633b93658ddd933fad27c9c4e7 -->
<g id="edge9" class="edge">
<title>dir_ca773ff6f6f7f9a1b3d6153e47464b05&#45;&gt;dir_b05a80633b93658ddd933fad27c9c4e7</title>
<path fill="none" stroke="black" d="M126.36,-215.7C132.23,-207.47 139.37,-197.48 145.84,-188.42"/>
<polygon fill="black" stroke="black" points="148.82,-190.28 151.78,-180.1 143.12,-186.21 148.82,-190.28"/>
<g id="a_edge9&#45;headlabel"><a xlink:href="dir_000009_000008.html" target="_top" xlink:title="1">
<text text-anchor="middle" x="149.04" y="-192.35" font-family="Helvetica,sans-Serif" font-size="10.00">1</text>
</a>
</g>
</g>
<!-- dir_ca773ff6f6f7f9a1b3d6153e47464b05&#45;&gt;dir_0da42046d2d6f05823dedebd1ee5614d -->
<g id="edge6" class="edge">
<title>dir_ca773ff6f6f7f9a1b3d6153e47464b05&#45;&gt;dir_0da42046d2d6f05823dedebd1ee5614d</title>
<path fill="none" stroke="black" d="M54.82,-216.95C36.62,-208.94 18.6,-197.15 8,-180 -2.28,-163.37 0.04,-153.86 8,-136 11.55,-128.03 17.29,-120.87 23.64,-114.74"/>
<polygon fill="black" stroke="black" points="26.08,-117.25 31.28,-108.02 21.46,-112 26.08,-117.25"/>
<g id="a_edge6&#45;headlabel"><a xlink:href="dir_000009_000004.html" target="_top" xlink:title="2">
<text text-anchor="middle" x="25.26" y="-119.26" font-family="Helvetica,sans-Serif" font-size="10.00">2</text>
</a>
</g>
</g>
<!-- dir_ca773ff6f6f7f9a1b3d6153e47464b05&#45;&gt;dir_4e013caeeea61262a6dac45a7a8bba06 -->
<g id="edge7" class="edge">
<title>dir_ca773ff6f6f7f9a1b3d6153e47464b05&#45;&gt;dir_4e013caeeea61262a6dac45a7a8bba06</title>
<path fill="none" stroke="black" d="M173.13,-217.69C192.06,-209.69 210.95,-197.73 222,-180 250.74,-133.88 203.76,-75.59 171.13,-43.32"/>
<polygon fill="black" stroke="black" points="173.24,-40.49 163.61,-36.07 168.39,-45.53 173.24,-40.49"/>
<g id="a_edge7&#45;headlabel"><a xlink:href="dir_000009_000002.html" target="_top" xlink:title="7">
<text text-anchor="middle" x="177.8" y="-38.44" font-family="Helvetica,sans-Serif" font-size="10.00">7</text>
</a>
</g>
</g>
<!-- dir_0da42046d2d6f05823dedebd1ee5614d&#45;&gt;dir_4e013caeeea61262a6dac45a7a8bba06 -->
<g id="edge1" class="edge">
<title>dir_0da42046d2d6f05823dedebd1ee5614d&#45;&gt;dir_4e013caeeea61262a6dac45a7a8bba06</title>
<path fill="none" stroke="black" d="M79.26,-71.7C90.09,-62.88 103.42,-52.03 115.16,-42.47"/>
<polygon fill="black" stroke="black" points="117.44,-45.13 122.99,-36.1 113.02,-39.7 117.44,-45.13"/>
<g id="a_edge1&#45;headlabel"><a xlink:href="dir_000004_000002.html" target="_top" xlink:title="25">
<text text-anchor="middle" x="116.44" y="-47.1" font-family="Helvetica,sans-Serif" font-size="10.00">25</text>
</a>
</g>
</g>
</g>
</svg>
