<?xml version="1.0" encoding="UTF-8" standalone="no"?>
<!DOCTYPE svg PUBLIC "-//W3C//DTD SVG 1.1//EN"
 "http://www.w3.org/Graphics/SVG/1.1/DTD/svg11.dtd">
<!-- Generated by graphviz version 2.43.0 (0)
 -->
<!-- Title: HardwareAdapters Pages: 1 -->
<svg width="146pt" height="167pt"
 viewBox="0.00 0.00 146.00 167.00" xmlns="http://www.w3.org/2000/svg" xmlns:xlink="http://www.w3.org/1999/xlink">
<g id="graph0" class="graph" transform="scale(1 1) rotate(0) translate(4 163)">
<title>HardwareAdapters</title>
<polygon fill="white" stroke="transparent" points="-4,4 -4,-163 142,-163 142,4 -4,4"/>
<g id="clust1" class="cluster">
<title>clusterdir_98d5be3c788e0a480c3b3129797a803d</title>
<g id="a_clust1"><a xlink:href="dir_98d5be3c788e0a480c3b3129797a803d.html" target="_top" xlink:title="DynExpManager">
<polygon fill="#ddddee" stroke="black" points="8,-8 8,-151 130,-151 130,-8 8,-8"/>
<text text-anchor="middle" x="69" y="-139" font-family="Helvetica,sans-Serif" font-size="10.00">DynExpManager</text>
</a>
</g>
</g>
<!-- dir_4e013caeeea61262a6dac45a7a8bba06 -->
<g id="node1" class="node">
<title>dir_4e013caeeea61262a6dac45a7a8bba06</title>
<g id="a_node1"><a xlink:href="dir_4e013caeeea61262a6dac45a7a8bba06.html" target="_top" xlink:title="MetaInstruments">
<polygon fill="none" stroke="black" points="119,-124 19,-124 19,-88 119,-88 119,-124"/>
<text text-anchor="middle" x="69" y="-103.5" font-family="Helvetica,sans-Serif" font-size="10.00">MetaInstruments</text>
</a>
</g>
</g>
<!-- dir_69d6694b8a53e2612801debbd0274ec4 -->
<g id="node2" class="node">
<title>dir_69d6694b8a53e2612801debbd0274ec4</title>
<g id="a_node2"><a xlink:href="dir_69d6694b8a53e2612801debbd0274ec4.html" target="_top" xlink:title="HardwareAdapters">
<polygon fill="#eeeeff" stroke="black" points="122.5,-52 15.5,-52 15.5,-16 122.5,-16 122.5,-52"/>
<text text-anchor="middle" x="69" y="-31.5" font-family="Helvetica,sans-Serif" font-size="10.00">HardwareAdapters</text>
</a>
</g>
</g>
<!-- dir_4e013caeeea61262a6dac45a7a8bba06&#45;&gt;dir_69d6694b8a53e2612801debbd0274ec4 -->
<g id="edge1" class="edge">
<title>dir_4e013caeeea61262a6dac45a7a8bba06&#45;&gt;dir_69d6694b8a53e2612801debbd0274ec4</title>
<path fill="none" stroke="black" d="M63.08,-87.7C62.29,-79.98 62.06,-70.71 62.4,-62.11"/>
<polygon fill="black" stroke="black" points="65.9,-62.32 63.1,-52.1 58.92,-61.84 65.9,-62.32"/>
<g id="a_edge1&#45;headlabel"><a xlink:href="dir_000002_000005.html" target="_top" xlink:title="1">
<text text-anchor="middle" x="68.48" y="-63.61" font-family="Helvetica,sans-Serif" font-size="10.00">1</text>
</a>
</g>
</g>
<!-- dir_69d6694b8a53e2612801debbd0274ec4&#45;&gt;dir_4e013caeeea61262a6dac45a7a8bba06 -->
<g id="edge2" class="edge">
<title>dir_69d6694b8a53e2612801debbd0274ec4&#45;&gt;dir_4e013caeeea61262a6dac45a7a8bba06</title>
<path fill="none" stroke="black" d="M74.9,-52.1C75.7,-59.79 75.94,-69.05 75.6,-77.67"/>
<polygon fill="black" stroke="black" points="72.11,-77.48 74.92,-87.7 79.09,-77.96 72.11,-77.48"/>
<g id="a_edge2&#45;headlabel"><a xlink:href="dir_000005_000002.html" target="_top" xlink:title="5">
<text text-anchor="middle" x="69.52" y="-71.2" font-family="Helvetica,sans-Serif" font-size="10.00">5</text>
</a>
</g>
</g>
</g>
</svg>
