<?xml version="1.0" encoding="UTF-8" standalone="no"?>
<!DOCTYPE svg PUBLIC "-//W3C//DTD SVG 1.1//EN"
 "http://www.w3.org/Graphics/SVG/1.1/DTD/svg11.dtd">
<!-- Generated by graphviz version 2.43.0 (0)
 -->
<!-- Title: Modules Pages: 1 -->
<svg width="737pt" height="196pt"
 viewBox="0.00 0.00 737.00 196.00" xmlns="http://www.w3.org/2000/svg" xmlns:xlink="http://www.w3.org/1999/xlink">
<g id="graph0" class="graph" transform="scale(1 1) rotate(0) translate(4 192)">
<title>Modules</title>
<g id="clust1" class="cluster">
<title>clusterdir_98d5be3c788e0a480c3b3129797a803d</title>
<g id="a_clust1"><a xlink:href="dir_98d5be3c788e0a480c3b3129797a803d.html" target="_top" xlink:title="DynExpManager">
<polygon fill="#edf0f7" stroke="#7f7f7f" stroke-dasharray="5,2" points="8,-8 8,-180 721,-180 721,-8 8,-8"/>
<text text-anchor="middle" x="364.5" y="-168" font-family="Helvetica,sans-Serif" font-size="10.00">DynExpManager</text>
</a>
</g>
</g>
<g id="clust2" class="cluster">
<title>clusterdir_2ab72d9bf9e32bc56d72b9abb37a6f89</title>
<g id="a_clust2"><a xlink:href="dir_2ab72d9bf9e32bc56d72b9abb37a6f89.html" target="_top">
<polygon fill="#edf0f7" stroke="#404040" stroke-width="2" points="171,-63 171,-153 713,-153 713,-63 171,-63"/>
</a>
</g>
</g>
<!-- dir_0da42046d2d6f05823dedebd1ee5614d -->
<g id="node1" class="node">
<title>dir_0da42046d2d6f05823dedebd1ee5614d</title>
<g id="a_node1"><a xlink:href="dir_0da42046d2d6f05823dedebd1ee5614d.html" target="_top" xlink:title="Instruments">
<polygon fill="#a2b4d6" stroke="#404040" points="356.5,-35 281.5,-35 281.5,-16 356.5,-16 356.5,-35"/>
<text text-anchor="middle" x="319" y="-23" font-family="Helvetica,sans-Serif" font-size="10.00">Instruments</text>
</a>
</g>
</g>
<!-- dir_4e013caeeea61262a6dac45a7a8bba06 -->
<g id="node2" class="node">
<title>dir_4e013caeeea61262a6dac45a7a8bba06</title>
<g id="a_node2"><a xlink:href="dir_4e013caeeea61262a6dac45a7a8bba06.html" target="_top" xlink:title="MetaInstruments">
<polygon fill="#a2b4d6" stroke="#404040" points="475,-35 375,-35 375,-16 475,-16 475,-35"/>
<text text-anchor="middle" x="425" y="-23" font-family="Helvetica,sans-Serif" font-size="10.00">MetaInstruments</text>
</a>
</g>
</g>
<!-- dir_69d6694b8a53e2612801debbd0274ec4 -->
<g id="node3" class="node">
<title>dir_69d6694b8a53e2612801debbd0274ec4</title>
<g id="a_node3"><a xlink:href="dir_69d6694b8a53e2612801debbd0274ec4.html" target="_top" xlink:title="HardwareAdapters">
<polygon fill="#a2b4d6" stroke="#404040" points="163.5,-90 56.5,-90 56.5,-71 163.5,-71 163.5,-90"/>
<text text-anchor="middle" x="110" y="-78" font-family="Helvetica,sans-Serif" font-size="10.00">HardwareAdapters</text>
</a>
</g>
</g>
<!-- dir_ff18f722c1dbc3f59ba156445e964a20 -->
<g id="node4" class="node">
<title>dir_ff18f722c1dbc3f59ba156445e964a20</title>
<g id="a_node4"><a xlink:href="dir_ff18f722c1dbc3f59ba156445e964a20.html" target="_top" xlink:title="qml">
<polygon fill="#a2b4d6" stroke="#404040" points="676.5,-35 641.5,-35 641.5,-16 676.5,-16 676.5,-35"/>
<text text-anchor="middle" x="659" y="-23" font-family="Helvetica,sans-Serif" font-size="10.00">qml</text>
</a>
</g>
</g>
<!-- dir_2ab72d9bf9e32bc56d72b9abb37a6f89 -->
<g id="node5" class="node">
<title>dir_2ab72d9bf9e32bc56d72b9abb37a6f89</title>
<text text-anchor="middle" x="378" y="-133" font-family="Helvetica,sans-Serif" font-size="10.00">Modules</text>
</g>
<!-- dir_2ab72d9bf9e32bc56d72b9abb37a6f89&#45;&gt;dir_0da42046d2d6f05823dedebd1ee5614d -->
<g id="edge1" class="edge">
<title>dir_2ab72d9bf9e32bc56d72b9abb37a6f89&#45;&gt;dir_0da42046d2d6f05823dedebd1ee5614d</title>
<g id="a_edge1"><a xlink:href="dir_000006_000003.html" target="_top">
<path fill="none" stroke="#63b8ff" d="M373.17,-125.66C363.44,-107.85 341.32,-67.37 328.56,-44.01"/>
<polygon fill="#63b8ff" stroke="#63b8ff" points="331.6,-42.26 323.73,-35.16 325.45,-45.61 331.6,-42.26"/>
</a>
</g>
<g id="a_edge1&#45;headlabel"><a xlink:href="dir_000006_000003.html" target="_top" xlink:title="10">
<text text-anchor="middle" x="335.81" y="-41.55" font-family="Helvetica,sans-Serif" font-size="10.00" fill="#63b8ff">10</text>
</a>
</g>
</g>
<!-- dir_2ab72d9bf9e32bc56d72b9abb37a6f89&#45;&gt;dir_4e013caeeea61262a6dac45a7a8bba06 -->
<g id="edge2" class="edge">
<title>dir_2ab72d9bf9e32bc56d72b9abb37a6f89&#45;&gt;dir_4e013caeeea61262a6dac45a7a8bba06</title>
<g id="a_edge2"><a xlink:href="dir_000006_000005.html" target="_top">
<path fill="none" stroke="#63b8ff" d="M375.8,-125.58C372.81,-111.47 368.92,-83.5 379,-63 383.43,-54 391.25,-46.52 399.2,-40.73"/>
<polygon fill="#63b8ff" stroke="#63b8ff" points="401.3,-43.54 407.72,-35.12 397.45,-37.69 401.3,-43.54"/>
</a>
</g>
<g id="a_edge2&#45;headlabel"><a xlink:href="dir_000006_000005.html" target="_top" xlink:title="34">
<text text-anchor="middle" x="399.86" y="-45.39" font-family="Helvetica,sans-Serif" font-size="10.00" fill="#63b8ff">34</text>
</a>
</g>
</g>
<!-- dir_2ab72d9bf9e32bc56d72b9abb37a6f89&#45;&gt;dir_69d6694b8a53e2612801debbd0274ec4 -->
<g id="edge3" class="edge">
<title>dir_2ab72d9bf9e32bc56d72b9abb37a6f89&#45;&gt;dir_69d6694b8a53e2612801debbd0274ec4</title>
<g id="a_edge3"><a xlink:href="dir_000006_000001.html" target="_top">
<path fill="none" stroke="#63b8ff" d="M348.97,-127.92C345.95,-127.26 342.91,-126.61 340,-126 280.84,-113.66 212.86,-100.65 166.24,-91.91"/>
<polygon fill="#63b8ff" stroke="#63b8ff" points="166.81,-88.46 156.34,-90.06 165.52,-95.34 166.81,-88.46"/>
</a>
</g>
<g id="a_edge3&#45;headlabel"><a xlink:href="dir_000006_000001.html" target="_top" xlink:title="1">
<text text-anchor="middle" x="170.86" y="-83.83" font-family="Helvetica,sans-Serif" font-size="10.00" fill="#63b8ff">1</text>
</a>
</g>
</g>
<!-- dir_9b0671ecaa850ec08588c0419e002f4b -->
<g id="node6" class="node">
<title>dir_9b0671ecaa850ec08588c0419e002f4b</title>
<g id="a_node6"><a xlink:href="dir_9b0671ecaa850ec08588c0419e002f4b.html" target="_top" xlink:title="ImageViewer">
<polygon fill="#a2b4d6" stroke="#404040" points="524.5,-90 443.5,-90 443.5,-71 524.5,-71 524.5,-90"/>
<text text-anchor="middle" x="484" y="-78" font-family="Helvetica,sans-Serif" font-size="10.00">ImageViewer</text>
</a>
</g>
</g>
<!-- dir_9b0671ecaa850ec08588c0419e002f4b&#45;&gt;dir_0da42046d2d6f05823dedebd1ee5614d -->
<g id="edge4" class="edge">
<title>dir_9b0671ecaa850ec08588c0419e002f4b&#45;&gt;dir_0da42046d2d6f05823dedebd1ee5614d</title>
<g id="a_edge4"><a xlink:href="dir_000002_000003.html" target="_top">
<path fill="none" stroke="#63b8ff" d="M462.17,-70.99C455.13,-68.33 447.27,-65.46 440,-63 413.17,-53.93 382.64,-44.73 358.96,-37.84"/>
<polygon fill="#63b8ff" stroke="#63b8ff" points="359.84,-34.45 349.26,-35.03 357.89,-41.17 359.84,-34.45"/>
</a>
</g>
<g id="a_edge4&#45;headlabel"><a xlink:href="dir_000002_000003.html" target="_top" xlink:title="1">
<text text-anchor="middle" x="364.08" y="-30.22" font-family="Helvetica,sans-Serif" font-size="10.00" fill="#63b8ff">1</text>
</a>
</g>
</g>
<!-- dir_9b0671ecaa850ec08588c0419e002f4b&#45;&gt;dir_4e013caeeea61262a6dac45a7a8bba06 -->
<g id="edge5" class="edge">
<title>dir_9b0671ecaa850ec08588c0419e002f4b&#45;&gt;dir_4e013caeeea61262a6dac45a7a8bba06</title>
<g id="a_edge5"><a xlink:href="dir_000002_000005.html" target="_top">
<path fill="none" stroke="#63b8ff" d="M474.52,-70.98C465.8,-63.15 452.66,-51.34 442.1,-41.86"/>
<polygon fill="#63b8ff" stroke="#63b8ff" points="444.43,-39.25 434.65,-35.17 439.75,-44.46 444.43,-39.25"/>
</a>
</g>
<g id="a_edge5&#45;headlabel"><a xlink:href="dir_000002_000005.html" target="_top" xlink:title="2">
<text text-anchor="middle" x="449" y="-37.04" font-family="Helvetica,sans-Serif" font-size="10.00" fill="#63b8ff">2</text>
</a>
</g>
</g>
<!-- dir_9b0671ecaa850ec08588c0419e002f4b&#45;&gt;dir_ff18f722c1dbc3f59ba156445e964a20 -->
<g id="edge6" class="edge">
<title>dir_9b0671ecaa850ec08588c0419e002f4b&#45;&gt;dir_ff18f722c1dbc3f59ba156445e964a20</title>
<g id="a_edge6"><a xlink:href="dir_000002_000008.html" target="_top">
<path fill="none" stroke="#63b8ff" d="M509.38,-70.94C517.25,-68.33 525.97,-65.5 534,-63 567.39,-52.62 606.07,-41.46 631.45,-34.25"/>
<polygon fill="#63b8ff" stroke="#63b8ff" points="632.47,-37.6 641.14,-31.5 630.56,-30.86 632.47,-37.6"/>
</a>
</g>
<g id="a_edge6&#45;headlabel"><a xlink:href="dir_000002_000008.html" target="_top" xlink:title="1">
<text text-anchor="middle" x="629.79" y="-38.81" font-family="Helvetica,sans-Serif" font-size="10.00" fill="#63b8ff">1</text>
</a>
</g>
</g>
<!-- dir_8696d6b1d189e052d48709e6b37131a8 -->
<g id="node7" class="node">
<title>dir_8696d6b1d189e052d48709e6b37131a8</title>
<g id="a_node7"><a xlink:href="dir_8696d6b1d189e052d48709e6b37131a8.html" target="_top" xlink:title="LaserScanningSpectroscopy">
<polygon fill="#a2b4d6" stroke="#404040" points="331,-145 179,-145 179,-126 331,-126 331,-145"/>
<text text-anchor="middle" x="255" y="-133" font-family="Helvetica,sans-Serif" font-size="10.00">LaserScanningSpectroscopy</text>
</a>
</g>
</g>
<!-- dir_8696d6b1d189e052d48709e6b37131a8&#45;&gt;dir_0da42046d2d6f05823dedebd1ee5614d -->
<g id="edge7" class="edge">
<title>dir_8696d6b1d189e052d48709e6b37131a8&#45;&gt;dir_0da42046d2d6f05823dedebd1ee5614d</title>
<g id="a_edge7"><a xlink:href="dir_000004_000003.html" target="_top">
<path fill="none" stroke="#63b8ff" d="M178.78,-133.17C97.66,-129.12 -13.28,-114.41 32,-63 47.55,-45.35 194.04,-33.98 271.49,-29.16"/>
<polygon fill="#63b8ff" stroke="#63b8ff" points="271.72,-32.65 281.49,-28.55 271.3,-25.66 271.72,-32.65"/>
</a>
</g>
<g id="a_edge7&#45;headlabel"><a xlink:href="dir_000004_000003.html" target="_top" xlink:title="1">
<text text-anchor="middle" x="268.31" y="-33.2" font-family="Helvetica,sans-Serif" font-size="10.00" fill="#63b8ff">1</text>
</a>
</g>
</g>
<!-- dir_8696d6b1d189e052d48709e6b37131a8&#45;&gt;dir_4e013caeeea61262a6dac45a7a8bba06 -->
<g id="edge8" class="edge">
<title>dir_8696d6b1d189e052d48709e6b37131a8&#45;&gt;dir_4e013caeeea61262a6dac45a7a8bba06</title>
<g id="a_edge8"><a xlink:href="dir_000004_000005.html" target="_top">
<path fill="none" stroke="#63b8ff" d="M178.72,-131.33C103.57,-125.54 5.69,-109.19 48,-63 70.51,-38.43 300.29,-38.92 364.55,-34.79"/>
<polygon fill="#63b8ff" stroke="#63b8ff" points="365.14,-38.25 374.81,-33.92 364.55,-31.27 365.14,-38.25"/>
</a>
</g>
<g id="a_edge8&#45;headlabel"><a xlink:href="dir_000004_000005.html" target="_top" xlink:title="1">
<text text-anchor="middle" x="361.8" y="-38.88" font-family="Helvetica,sans-Serif" font-size="10.00" fill="#63b8ff">1</text>
</a>
</g>
</g>
<!-- dir_ad1a9cda7b8414d24f5b66704a6a181e -->
<g id="node8" class="node">
<title>dir_ad1a9cda7b8414d24f5b66704a6a181e</title>
<g id="a_node8"><a xlink:href="dir_ad1a9cda7b8414d24f5b66704a6a181e.html" target="_top" xlink:title="ODMR">
<polygon fill="#a2b4d6" stroke="#404040" points="608.5,-145 561.5,-145 561.5,-126 608.5,-126 608.5,-145"/>
<text text-anchor="middle" x="585" y="-133" font-family="Helvetica,sans-Serif" font-size="10.00">ODMR</text>
</a>
</g>
</g>
<!-- dir_ad1a9cda7b8414d24f5b66704a6a181e&#45;&gt;dir_4e013caeeea61262a6dac45a7a8bba06 -->
<g id="edge9" class="edge">
<title>dir_ad1a9cda7b8414d24f5b66704a6a181e&#45;&gt;dir_4e013caeeea61262a6dac45a7a8bba06</title>
<g id="a_edge9"><a xlink:href="dir_000007_000005.html" target="_top">
<path fill="none" stroke="#63b8ff" d="M561.4,-128.37C515.84,-116.51 420.11,-91.44 419,-90 409.22,-77.26 412.45,-58.57 417.08,-44.77"/>
<polygon fill="#63b8ff" stroke="#63b8ff" points="420.39,-45.93 420.71,-35.34 413.85,-43.42 420.39,-45.93"/>
</a>
</g>
<g id="a_edge9&#45;headlabel"><a xlink:href="dir_000007_000005.html" target="_top" xlink:title="5">
<text text-anchor="middle" x="421.75" y="-47.81" font-family="Helvetica,sans-Serif" font-size="10.00" fill="#63b8ff">5</text>
</a>
</g>
</g>
<!-- dir_ad1a9cda7b8414d24f5b66704a6a181e&#45;&gt;dir_ff18f722c1dbc3f59ba156445e964a20 -->
<g id="edge10" class="edge">
<title>dir_ad1a9cda7b8414d24f5b66704a6a181e&#45;&gt;dir_ff18f722c1dbc3f59ba156445e964a20</title>
<g id="a_edge10"><a xlink:href="dir_000007_000008.html" target="_top">
<path fill="none" stroke="#63b8ff" d="M608.66,-128.29C627.34,-122 652.16,-110.25 664,-90 671.93,-76.44 669.52,-58.38 665.8,-44.99"/>
<polygon fill="#63b8ff" stroke="#63b8ff" points="669.12,-43.86 662.72,-35.42 662.46,-46.01 669.12,-43.86"/>
</a>
</g>
<g id="a_edge10&#45;headlabel"><a xlink:href="dir_000007_000008.html" target="_top" xlink:title="1">
<text text-anchor="middle" x="672.92" y="-43.91" font-family="Helvetica,sans-Serif" font-size="10.00" fill="#63b8ff">1</text>
</a>
</g>
</g>
<!-- dir_ababdb8f04074e31a4ecf6884422d142 -->
<g id="node9" class="node">
<title>dir_ababdb8f04074e31a4ecf6884422d142</title>
<g id="a_node9"><a xlink:href="dir_ababdb8f04074e31a4ecf6884422d142.html" target="_top" xlink:title="SignalPlotter">
<polygon fill="#a2b4d6" stroke="#404040" points="705.5,-145 626.5,-145 626.5,-126 705.5,-126 705.5,-145"/>
<text text-anchor="middle" x="666" y="-133" font-family="Helvetica,sans-Serif" font-size="10.00">SignalPlotter</text>
</a>
</g>
</g>
<!-- dir_ababdb8f04074e31a4ecf6884422d142&#45;&gt;dir_4e013caeeea61262a6dac45a7a8bba06 -->
<g id="edge11" class="edge">
<title>dir_ababdb8f04074e31a4ecf6884422d142&#45;&gt;dir_4e013caeeea61262a6dac45a7a8bba06</title>
<g id="a_edge11"><a xlink:href="dir_000009_000005.html" target="_top">
<path fill="none" stroke="#63b8ff" d="M626.47,-127.48C561.35,-115.83 438.33,-93.45 435,-90 423.74,-78.35 422.04,-59.49 422.67,-45.34"/>
<polygon fill="#63b8ff" stroke="#63b8ff" points="426.17,-45.5 423.54,-35.24 419.19,-44.9 426.17,-45.5"/>
</a>
</g>
<g id="a_edge11&#45;headlabel"><a xlink:href="dir_000009_000005.html" target="_top" xlink:title="1">
<text text-anchor="middle" x="428.69" y="-46.83" font-family="Helvetica,sans-Serif" font-size="10.00" fill="#63b8ff">1</text>
</a>
</g>
</g>
<!-- dir_ababdb8f04074e31a4ecf6884422d142&#45;&gt;dir_ff18f722c1dbc3f59ba156445e964a20 -->
<g id="edge12" class="edge">
<title>dir_ababdb8f04074e31a4ecf6884422d142&#45;&gt;dir_ff18f722c1dbc3f59ba156445e964a20</title>
<g id="a_edge12"><a xlink:href="dir_000009_000008.html" target="_top">
<path fill="none" stroke="#63b8ff" d="M671.37,-125.61C678.89,-112 690.89,-85.25 684,-63 681.85,-56.07 677.88,-49.28 673.73,-43.47"/>
<polygon fill="#63b8ff" stroke="#63b8ff" points="676.22,-40.98 667.29,-35.28 670.72,-45.3 676.22,-40.98"/>
</a>
</g>
<g id="a_edge12&#45;headlabel"><a xlink:href="dir_000009_000008.html" target="_top" xlink:title="1">
<text text-anchor="middle" x="680.68" y="-39.55" font-family="Helvetica,sans-Serif" font-size="10.00" fill="#63b8ff">1</text>
</a>
</g>
</g>
<!-- dir_b05a80633b93658ddd933fad27c9c4e7 -->
<g id="node10" class="node">
<title>dir_b05a80633b93658ddd933fad27c9c4e7</title>
<g id="a_node10"><a xlink:href="dir_b05a80633b93658ddd933fad27c9c4e7.html" target="_top" xlink:title="SpectrumViewer">
<polygon fill="#a2b4d6" stroke="#404040" points="639.5,-90 542.5,-90 542.5,-71 639.5,-71 639.5,-90"/>
<text text-anchor="middle" x="591" y="-78" font-family="Helvetica,sans-Serif" font-size="10.00">SpectrumViewer</text>
</a>
</g>
</g>
<!-- dir_b05a80633b93658ddd933fad27c9c4e7&#45;&gt;dir_0da42046d2d6f05823dedebd1ee5614d -->
<g id="edge13" class="edge">
<title>dir_b05a80633b93658ddd933fad27c9c4e7&#45;&gt;dir_0da42046d2d6f05823dedebd1ee5614d</title>
<g id="a_edge13"><a xlink:href="dir_000010_000003.html" target="_top">
<path fill="none" stroke="#63b8ff" d="M563.91,-70.96C554.51,-68.18 543.85,-65.24 534,-63 463.21,-46.91 442.28,-47.85 366.71,-35.08"/>
<polygon fill="#63b8ff" stroke="#63b8ff" points="367.15,-31.61 356.7,-33.37 365.97,-38.51 367.15,-31.61"/>
</a>
</g>
<g id="a_edge13&#45;headlabel"><a xlink:href="dir_000010_000003.html" target="_top" xlink:title="1">
<text text-anchor="middle" x="371.17" y="-26.92" font-family="Helvetica,sans-Serif" font-size="10.00" fill="#63b8ff">1</text>
</a>
</g>
</g>
<!-- dir_b05a80633b93658ddd933fad27c9c4e7&#45;&gt;dir_4e013caeeea61262a6dac45a7a8bba06 -->
<g id="edge14" class="edge">
<title>dir_b05a80633b93658ddd933fad27c9c4e7&#45;&gt;dir_4e013caeeea61262a6dac45a7a8bba06</title>
<g id="a_edge14"><a xlink:href="dir_000010_000005.html" target="_top">
<path fill="none" stroke="#63b8ff" d="M564.33,-70.98C536.46,-62.09 492.55,-48.07 461.48,-38.15"/>
<polygon fill="#63b8ff" stroke="#63b8ff" points="462.47,-34.79 451.88,-35.08 460.34,-41.46 462.47,-34.79"/>
</a>
</g>
<g id="a_edge14&#45;headlabel"><a xlink:href="dir_000010_000005.html" target="_top" xlink:title="1">
<text text-anchor="middle" x="466.76" y="-30.68" font-family="Helvetica,sans-Serif" font-size="10.00" fill="#63b8ff">1</text>
</a>
</g>
</g>
<!-- dir_b05a80633b93658ddd933fad27c9c4e7&#45;&gt;dir_ff18f722c1dbc3f59ba156445e964a20 -->
<g id="edge15" class="edge">
<title>dir_b05a80633b93658ddd933fad27c9c4e7&#45;&gt;dir_ff18f722c1dbc3f59ba156445e964a20</title>
<g id="a_edge15"><a xlink:href="dir_000010_000008.html" target="_top">
<path fill="none" stroke="#63b8ff" d="M601.93,-70.98C612.08,-63.07 627.42,-51.11 639.65,-41.58"/>
<polygon fill="#63b8ff" stroke="#63b8ff" points="642.14,-44.08 647.88,-35.17 637.84,-38.56 642.14,-44.08"/>
</a>
</g>
<g id="a_edge15&#45;headlabel"><a xlink:href="dir_000010_000008.html" target="_top" xlink:title="1">
<text text-anchor="middle" x="641.05" y="-46.03" font-family="Helvetica,sans-Serif" font-size="10.00" fill="#63b8ff">1</text>
</a>
</g>
</g>
<!-- dir_ca773ff6f6f7f9a1b3d6153e47464b05 -->
<g id="node11" class="node">
<title>dir_ca773ff6f6f7f9a1b3d6153e47464b05</title>
<g id="a_node11"><a xlink:href="dir_ca773ff6f6f7f9a1b3d6153e47464b05.html" target="_top" xlink:title="WidefieldMicroscope">
<polygon fill="#a2b4d6" stroke="#404040" points="543,-145 425,-145 425,-126 543,-126 543,-145"/>
<text text-anchor="middle" x="484" y="-133" font-family="Helvetica,sans-Serif" font-size="10.00">WidefieldMicroscope</text>
</a>
</g>
</g>
<!-- dir_ca773ff6f6f7f9a1b3d6153e47464b05&#45;&gt;dir_0da42046d2d6f05823dedebd1ee5614d -->
<g id="edge16" class="edge">
<title>dir_ca773ff6f6f7f9a1b3d6153e47464b05&#45;&gt;dir_0da42046d2d6f05823dedebd1ee5614d</title>
<g id="a_edge16"><a xlink:href="dir_000012_000003.html" target="_top">
<path fill="none" stroke="#63b8ff" d="M461.66,-125.87C442.22,-117.89 413.69,-105.01 391,-90 369.85,-76.01 348.41,-56.22 334.49,-42.47"/>
<polygon fill="#63b8ff" stroke="#63b8ff" points="336.76,-39.78 327.23,-35.15 331.8,-44.71 336.76,-39.78"/>
</a>
</g>
<g id="a_edge16&#45;headlabel"><a xlink:href="dir_000012_000003.html" target="_top" xlink:title="2">
<text text-anchor="middle" x="341.31" y="-37.83" font-family="Helvetica,sans-Serif" font-size="10.00" fill="#63b8ff">2</text>
</a>
</g>
</g>
<!-- dir_ca773ff6f6f7f9a1b3d6153e47464b05&#45;&gt;dir_4e013caeeea61262a6dac45a7a8bba06 -->
<g id="edge17" class="edge">
<title>dir_ca773ff6f6f7f9a1b3d6153e47464b05&#45;&gt;dir_4e013caeeea61262a6dac45a7a8bba06</title>
<g id="a_edge17"><a xlink:href="dir_000012_000005.html" target="_top">
<path fill="none" stroke="#63b8ff" d="M449.78,-125.93C431.29,-119.37 410.04,-108.24 399,-90 389.89,-74.95 399.94,-56.14 410.08,-42.91"/>
<polygon fill="#63b8ff" stroke="#63b8ff" points="412.85,-45.04 416.55,-35.12 407.47,-40.57 412.85,-45.04"/>
</a>
</g>
<g id="a_edge17&#45;headlabel"><a xlink:href="dir_000012_000005.html" target="_top" xlink:title="7">
<text text-anchor="middle" x="412.74" y="-47.12" font-family="Helvetica,sans-Serif" font-size="10.00" fill="#63b8ff">7</text>
</a>
</g>
</g>
<!-- dir_ca773ff6f6f7f9a1b3d6153e47464b05&#45;&gt;dir_ff18f722c1dbc3f59ba156445e964a20 -->
<g id="edge20" class="edge">
<title>dir_ca773ff6f6f7f9a1b3d6153e47464b05&#45;&gt;dir_ff18f722c1dbc3f59ba156445e964a20</title>
<g id="a_edge20"><a xlink:href="dir_000012_000008.html" target="_top">
<path fill="none" stroke="#63b8ff" d="M540.34,-125.99C582.19,-118.49 634.43,-106.22 649,-90 659.83,-77.95 661.59,-59.14 661.09,-45.12"/>
<polygon fill="#63b8ff" stroke="#63b8ff" points="664.57,-44.82 660.33,-35.12 657.59,-45.35 664.57,-44.82"/>
</a>
</g>
<g id="a_edge20&#45;headlabel"><a xlink:href="dir_000012_000008.html" target="_top" xlink:title="2">
<text text-anchor="middle" x="667.68" y="-45.69" font-family="Helvetica,sans-Serif" font-size="10.00" fill="#63b8ff">2</text>
</a>
</g>
</g>
<!-- dir_ca773ff6f6f7f9a1b3d6153e47464b05&#45;&gt;dir_9b0671ecaa850ec08588c0419e002f4b -->
<g id="edge18" class="edge">
<title>dir_ca773ff6f6f7f9a1b3d6153e47464b05&#45;&gt;dir_9b0671ecaa850ec08588c0419e002f4b</title>
<g id="a_edge18"><a xlink:href="dir_000012_000002.html" target="_top">
<path fill="none" stroke="#63b8ff" d="M484,-125.75C484,-118.8 484,-108.85 484,-100.13"/>
<polygon fill="#63b8ff" stroke="#63b8ff" points="487.5,-100.09 484,-90.09 480.5,-100.09 487.5,-100.09"/>
</a>
</g>
<g id="a_edge18&#45;headlabel"><a xlink:href="dir_000012_000002.html" target="_top" xlink:title="1">
<text text-anchor="middle" x="490.34" y="-101.18" font-family="Helvetica,sans-Serif" font-size="10.00" fill="#63b8ff">1</text>
</a>
</g>
</g>
<!-- dir_ca773ff6f6f7f9a1b3d6153e47464b05&#45;&gt;dir_b05a80633b93658ddd933fad27c9c4e7 -->
<g id="edge19" class="edge">
<title>dir_ca773ff6f6f7f9a1b3d6153e47464b05&#45;&gt;dir_b05a80633b93658ddd933fad27c9c4e7</title>
<g id="a_edge19"><a xlink:href="dir_000012_000010.html" target="_top">
<path fill="none" stroke="#63b8ff" d="M501.19,-125.98C518.25,-117.54 544.63,-104.47 564.4,-94.68"/>
<polygon fill="#63b8ff" stroke="#63b8ff" points="566.09,-97.75 573.5,-90.17 562.98,-91.47 566.09,-97.75"/>
</a>
</g>
<g id="a_edge19&#45;headlabel"><a xlink:href="dir_000012_000010.html" target="_top" xlink:title="1">
<text text-anchor="middle" x="564.13" y="-99.39" font-family="Helvetica,sans-Serif" font-size="10.00" fill="#63b8ff">1</text>
</a>
</g>
</g>
</g>
</svg>
