<?xml version="1.0" encoding="UTF-8" standalone="no"?>
<!DOCTYPE svg PUBLIC "-//W3C//DTD SVG 1.1//EN"
 "http://www.w3.org/Graphics/SVG/1.1/DTD/svg11.dtd">
<!-- Generated by graphviz version 2.43.0 (0)
 -->
<!-- Title: SpectrumViewer Pages: 1 -->
<svg width="143pt" height="223pt"
 viewBox="0.00 0.00 142.50 223.00" xmlns="http://www.w3.org/2000/svg" xmlns:xlink="http://www.w3.org/1999/xlink">
<g id="graph0" class="graph" transform="scale(1 1) rotate(0) translate(4 219)">
<title>SpectrumViewer</title>
<polygon fill="white" stroke="transparent" points="-4,4 -4,-219 138.5,-219 138.5,4 -4,4"/>
<g id="clust1" class="cluster">
<title>clusterdir_2ab72d9bf9e32bc56d72b9abb37a6f89</title>
<g id="a_clust1"><a xlink:href="dir_2ab72d9bf9e32bc56d72b9abb37a6f89.html" target="_top" xlink:title="Modules">
<polygon fill="#ddddee" stroke="black" points="14.5,-136 14.5,-207 126.5,-207 126.5,-136 14.5,-136"/>
<text text-anchor="middle" x="70.5" y="-195" font-family="Helvetica,sans-Serif" font-size="10.00">Modules</text>
</a>
</g>
</g>
<!-- dir_b05a80633b93658ddd933fad27c9c4e7 -->
<g id="node1" class="node">
<title>dir_b05a80633b93658ddd933fad27c9c4e7</title>
<g id="a_node1"><a xlink:href="dir_b05a80633b93658ddd933fad27c9c4e7.html" target="_top" xlink:title="SpectrumViewer">
<polygon fill="#eeeeff" stroke="black" points="119,-180 22,-180 22,-144 119,-144 119,-180"/>
<text text-anchor="middle" x="70.5" y="-159.5" font-family="Helvetica,sans-Serif" font-size="10.00">SpectrumViewer</text>
</a>
</g>
</g>
<!-- dir_0da42046d2d6f05823dedebd1ee5614d -->
<g id="node2" class="node">
<title>dir_0da42046d2d6f05823dedebd1ee5614d</title>
<g id="a_node2"><a xlink:href="dir_0da42046d2d6f05823dedebd1ee5614d.html" target="_top" xlink:title="Instruments">
<polygon fill="none" stroke="black" points="75,-108 0,-108 0,-72 75,-72 75,-108"/>
<text text-anchor="middle" x="37.5" y="-87.5" font-family="Helvetica,sans-Serif" font-size="10.00">Instruments</text>
</a>
</g>
</g>
<!-- dir_b05a80633b93658ddd933fad27c9c4e7&#45;&gt;dir_0da42046d2d6f05823dedebd1ee5614d -->
<g id="edge2" class="edge">
<title>dir_b05a80633b93658ddd933fad27c9c4e7&#45;&gt;dir_0da42046d2d6f05823dedebd1ee5614d</title>
<path fill="none" stroke="black" d="M62.34,-143.7C58.59,-135.73 54.05,-126.1 49.88,-117.26"/>
<polygon fill="black" stroke="black" points="52.99,-115.66 45.56,-108.1 46.66,-118.64 52.99,-115.66"/>
<g id="a_edge2&#45;headlabel"><a xlink:href="dir_000008_000004.html" target="_top" xlink:title="1">
<text text-anchor="middle" x="57.09" y="-115.2" font-family="Helvetica,sans-Serif" font-size="10.00">1</text>
</a>
</g>
</g>
<!-- dir_4e013caeeea61262a6dac45a7a8bba06 -->
<g id="node3" class="node">
<title>dir_4e013caeeea61262a6dac45a7a8bba06</title>
<g id="a_node3"><a xlink:href="dir_4e013caeeea61262a6dac45a7a8bba06.html" target="_top" xlink:title="MetaInstruments">
<polygon fill="none" stroke="black" points="120.5,-36 20.5,-36 20.5,0 120.5,0 120.5,-36"/>
<text text-anchor="middle" x="70.5" y="-15.5" font-family="Helvetica,sans-Serif" font-size="10.00">MetaInstruments</text>
</a>
</g>
</g>
<!-- dir_b05a80633b93658ddd933fad27c9c4e7&#45;&gt;dir_4e013caeeea61262a6dac45a7a8bba06 -->
<g id="edge3" class="edge">
<title>dir_b05a80633b93658ddd933fad27c9c4e7&#45;&gt;dir_4e013caeeea61262a6dac45a7a8bba06</title>
<path fill="none" stroke="black" d="M76.32,-143.56C79.43,-133.33 82.93,-120.08 84.5,-108 86.56,-92.13 86.56,-87.87 84.5,-72 83.4,-63.51 81.34,-54.43 79.13,-46.24"/>
<polygon fill="black" stroke="black" points="82.45,-45.09 76.32,-36.44 75.72,-47.02 82.45,-45.09"/>
<g id="a_edge3&#45;headlabel"><a xlink:href="dir_000008_000002.html" target="_top" xlink:title="1">
<text text-anchor="middle" x="86.17" y="-45.26" font-family="Helvetica,sans-Serif" font-size="10.00">1</text>
</a>
</g>
</g>
<!-- dir_0da42046d2d6f05823dedebd1ee5614d&#45;&gt;dir_4e013caeeea61262a6dac45a7a8bba06 -->
<g id="edge1" class="edge">
<title>dir_0da42046d2d6f05823dedebd1ee5614d&#45;&gt;dir_4e013caeeea61262a6dac45a7a8bba06</title>
<path fill="none" stroke="black" d="M45.66,-71.7C49.41,-63.73 53.95,-54.1 58.12,-45.26"/>
<polygon fill="black" stroke="black" points="61.34,-46.64 62.44,-36.1 55.01,-43.66 61.34,-46.64"/>
<g id="a_edge1&#45;headlabel"><a xlink:href="dir_000004_000002.html" target="_top" xlink:title="25">
<text text-anchor="middle" x="62.37" y="-48.6" font-family="Helvetica,sans-Serif" font-size="10.00">25</text>
</a>
</g>
</g>
</g>
</svg>
