<?xml version="1.0" encoding="UTF-8" standalone="no"?>
<!DOCTYPE svg PUBLIC "-//W3C//DTD SVG 1.1//EN"
 "http://www.w3.org/Graphics/SVG/1.1/DTD/svg11.dtd">
<!-- Generated by graphviz version 2.43.0 (0)
 -->
<!-- Title: Modules Pages: 1 -->
<svg width="463pt" height="196pt"
 viewBox="0.00 0.00 463.00 196.00" xmlns="http://www.w3.org/2000/svg" xmlns:xlink="http://www.w3.org/1999/xlink">
<g id="graph0" class="graph" transform="scale(1 1) rotate(0) translate(4 192)">
<title>Modules</title>
<g id="clust1" class="cluster">
<title>clusterdir_98d5be3c788e0a480c3b3129797a803d</title>
<g id="a_clust1"><a xlink:href="dir_98d5be3c788e0a480c3b3129797a803d.html" target="_top" xlink:title="DynExpManager">
<polygon fill="#edf0f7" stroke="#7f7f7f" stroke-dasharray="5,2" points="8,-8 8,-180 447,-180 447,-8 8,-8"/>
<text text-anchor="middle" x="227.5" y="-168" font-family="Helvetica,sans-Serif" font-size="10.00">DynExpManager</text>
</a>
</g>
</g>
<g id="clust2" class="cluster">
<title>clusterdir_2ab72d9bf9e32bc56d72b9abb37a6f89</title>
<g id="a_clust2"><a xlink:href="dir_2ab72d9bf9e32bc56d72b9abb37a6f89.html" target="_top">
<polygon fill="#edf0f7" stroke="#404040" stroke-width="2" points="28,-63 28,-153 304,-153 304,-63 28,-63"/>
</a>
</g>
</g>
<!-- dir_0da42046d2d6f05823dedebd1ee5614d -->
<g id="node1" class="node">
<title>dir_0da42046d2d6f05823dedebd1ee5614d</title>
<g id="a_node1"><a xlink:href="dir_0da42046d2d6f05823dedebd1ee5614d.html" target="_top" xlink:title="Instruments">
<polygon fill="#a2b4d6" stroke="#404040" points="112.5,-35 37.5,-35 37.5,-16 112.5,-16 112.5,-35"/>
<text text-anchor="middle" x="75" y="-23" font-family="Helvetica,sans-Serif" font-size="10.00">Instruments</text>
</a>
</g>
</g>
<!-- dir_4e013caeeea61262a6dac45a7a8bba06 -->
<g id="node2" class="node">
<title>dir_4e013caeeea61262a6dac45a7a8bba06</title>
<g id="a_node2"><a xlink:href="dir_4e013caeeea61262a6dac45a7a8bba06.html" target="_top" xlink:title="MetaInstruments">
<polygon fill="#a2b4d6" stroke="#404040" points="322,-35 222,-35 222,-16 322,-16 322,-35"/>
<text text-anchor="middle" x="272" y="-23" font-family="Helvetica,sans-Serif" font-size="10.00">MetaInstruments</text>
</a>
</g>
</g>
<!-- dir_69d6694b8a53e2612801debbd0274ec4 -->
<g id="node3" class="node">
<title>dir_69d6694b8a53e2612801debbd0274ec4</title>
<g id="a_node3"><a xlink:href="dir_69d6694b8a53e2612801debbd0274ec4.html" target="_top" xlink:title="HardwareAdapters">
<polygon fill="#a2b4d6" stroke="#404040" points="418.5,-90 311.5,-90 311.5,-71 418.5,-71 418.5,-90"/>
<text text-anchor="middle" x="365" y="-78" font-family="Helvetica,sans-Serif" font-size="10.00">HardwareAdapters</text>
</a>
</g>
</g>
<!-- dir_2ab72d9bf9e32bc56d72b9abb37a6f89 -->
<g id="node4" class="node">
<title>dir_2ab72d9bf9e32bc56d72b9abb37a6f89</title>
<text text-anchor="middle" x="201" y="-133" font-family="Helvetica,sans-Serif" font-size="10.00">Modules</text>
</g>
<!-- dir_2ab72d9bf9e32bc56d72b9abb37a6f89&#45;&gt;dir_0da42046d2d6f05823dedebd1ee5614d -->
<g id="edge1" class="edge">
<title>dir_2ab72d9bf9e32bc56d72b9abb37a6f89&#45;&gt;dir_0da42046d2d6f05823dedebd1ee5614d</title>
<g id="a_edge1"><a xlink:href="dir_000005_000003.html" target="_top">
<path fill="none" stroke="#63b8ff" d="M171.93,-128.02C129.7,-118.31 55.56,-100.07 48,-90 37.28,-75.72 48.2,-56.54 59.19,-43.01"/>
<polygon fill="#63b8ff" stroke="#63b8ff" points="61.89,-45.23 65.85,-35.41 56.63,-40.62 61.89,-45.23"/>
</a>
</g>
<g id="a_edge1&#45;headlabel"><a xlink:href="dir_000005_000003.html" target="_top" xlink:title="6">
<text text-anchor="middle" x="61.66" y="-47.31" font-family="Helvetica,sans-Serif" font-size="10.00" fill="#63b8ff">6</text>
</a>
</g>
</g>
<!-- dir_2ab72d9bf9e32bc56d72b9abb37a6f89&#45;&gt;dir_4e013caeeea61262a6dac45a7a8bba06 -->
<g id="edge2" class="edge">
<title>dir_2ab72d9bf9e32bc56d72b9abb37a6f89&#45;&gt;dir_4e013caeeea61262a6dac45a7a8bba06</title>
<g id="a_edge2"><a xlink:href="dir_000005_000004.html" target="_top">
<path fill="none" stroke="#63b8ff" d="M229.39,-125.92C246.46,-119.13 266.81,-107.77 277,-90 284.81,-76.37 282.42,-58.32 278.74,-44.95"/>
<polygon fill="#63b8ff" stroke="#63b8ff" points="282.06,-43.86 275.68,-35.4 275.39,-45.99 282.06,-43.86"/>
</a>
</g>
<g id="a_edge2&#45;headlabel"><a xlink:href="dir_000005_000004.html" target="_top" xlink:title="30">
<text text-anchor="middle" x="285.86" y="-43.91" font-family="Helvetica,sans-Serif" font-size="10.00" fill="#63b8ff">30</text>
</a>
</g>
</g>
<!-- dir_2ab72d9bf9e32bc56d72b9abb37a6f89&#45;&gt;dir_69d6694b8a53e2612801debbd0274ec4 -->
<g id="edge3" class="edge">
<title>dir_2ab72d9bf9e32bc56d72b9abb37a6f89&#45;&gt;dir_69d6694b8a53e2612801debbd0274ec4</title>
<g id="a_edge3"><a xlink:href="dir_000005_000001.html" target="_top">
<path fill="none" stroke="#63b8ff" d="M227.35,-125.98C254.76,-117.13 297.89,-103.19 328.56,-93.28"/>
<polygon fill="#63b8ff" stroke="#63b8ff" points="330,-96.49 338.44,-90.08 327.85,-89.83 330,-96.49"/>
</a>
</g>
<g id="a_edge3&#45;headlabel"><a xlink:href="dir_000005_000001.html" target="_top" xlink:title="1">
<text text-anchor="middle" x="327.46" y="-97.79" font-family="Helvetica,sans-Serif" font-size="10.00" fill="#63b8ff">1</text>
</a>
</g>
</g>
<!-- dir_9b0671ecaa850ec08588c0419e002f4b -->
<g id="node5" class="node">
<title>dir_9b0671ecaa850ec08588c0419e002f4b</title>
<g id="a_node5"><a xlink:href="dir_9b0671ecaa850ec08588c0419e002f4b.html" target="_top" xlink:title="ImageViewer">
<polygon fill="#a2b4d6" stroke="#404040" points="137.5,-90 56.5,-90 56.5,-71 137.5,-71 137.5,-90"/>
<text text-anchor="middle" x="97" y="-78" font-family="Helvetica,sans-Serif" font-size="10.00">ImageViewer</text>
</a>
</g>
</g>
<!-- dir_9b0671ecaa850ec08588c0419e002f4b&#45;&gt;dir_0da42046d2d6f05823dedebd1ee5614d -->
<g id="edge4" class="edge">
<title>dir_9b0671ecaa850ec08588c0419e002f4b&#45;&gt;dir_0da42046d2d6f05823dedebd1ee5614d</title>
<g id="a_edge4"><a xlink:href="dir_000002_000003.html" target="_top">
<path fill="none" stroke="#63b8ff" d="M93.37,-70.75C90.42,-63.65 86.17,-53.4 82.49,-44.56"/>
<polygon fill="#63b8ff" stroke="#63b8ff" points="85.63,-42.98 78.57,-35.09 79.17,-45.67 85.63,-42.98"/>
</a>
</g>
<g id="a_edge4&#45;headlabel"><a xlink:href="dir_000002_000003.html" target="_top" xlink:title="1">
<text text-anchor="middle" x="89.63" y="-42.71" font-family="Helvetica,sans-Serif" font-size="10.00" fill="#63b8ff">1</text>
</a>
</g>
</g>
<!-- dir_9b0671ecaa850ec08588c0419e002f4b&#45;&gt;dir_4e013caeeea61262a6dac45a7a8bba06 -->
<g id="edge5" class="edge">
<title>dir_9b0671ecaa850ec08588c0419e002f4b&#45;&gt;dir_4e013caeeea61262a6dac45a7a8bba06</title>
<g id="a_edge5"><a xlink:href="dir_000002_000004.html" target="_top">
<path fill="none" stroke="#63b8ff" d="M122.38,-70.94C130.25,-68.33 138.97,-65.5 147,-63 175.27,-54.21 207.33,-44.86 231.9,-37.83"/>
<polygon fill="#63b8ff" stroke="#63b8ff" points="232.95,-41.17 241.6,-35.06 231.02,-34.44 232.95,-41.17"/>
</a>
</g>
<g id="a_edge5&#45;headlabel"><a xlink:href="dir_000002_000004.html" target="_top" xlink:title="2">
<text text-anchor="middle" x="230.27" y="-42.38" font-family="Helvetica,sans-Serif" font-size="10.00" fill="#63b8ff">2</text>
</a>
</g>
</g>
<!-- dir_ad1a9cda7b8414d24f5b66704a6a181e -->
<g id="node6" class="node">
<title>dir_ad1a9cda7b8414d24f5b66704a6a181e</title>
<g id="a_node6"><a xlink:href="dir_ad1a9cda7b8414d24f5b66704a6a181e.html" target="_top" xlink:title="ODMR">
<polygon fill="#a2b4d6" stroke="#404040" points="295.5,-145 248.5,-145 248.5,-126 295.5,-126 295.5,-145"/>
<text text-anchor="middle" x="272" y="-133" font-family="Helvetica,sans-Serif" font-size="10.00">ODMR</text>
</a>
</g>
</g>
<!-- dir_ad1a9cda7b8414d24f5b66704a6a181e&#45;&gt;dir_4e013caeeea61262a6dac45a7a8bba06 -->
<g id="edge6" class="edge">
<title>dir_ad1a9cda7b8414d24f5b66704a6a181e&#45;&gt;dir_4e013caeeea61262a6dac45a7a8bba06</title>
<g id="a_edge6"><a xlink:href="dir_000006_000004.html" target="_top">
<path fill="none" stroke="#63b8ff" d="M295.66,-132.51C347.82,-127.24 465.21,-109.92 428,-63 415.98,-47.85 370.98,-38.38 332.38,-32.9"/>
<polygon fill="#63b8ff" stroke="#63b8ff" points="332.6,-29.4 322.22,-31.53 331.66,-36.34 332.6,-29.4"/>
</a>
</g>
<g id="a_edge6&#45;headlabel"><a xlink:href="dir_000006_000004.html" target="_top" xlink:title="5">
<text text-anchor="middle" x="336.54" y="-24.57" font-family="Helvetica,sans-Serif" font-size="10.00" fill="#63b8ff">5</text>
</a>
</g>
</g>
<!-- dir_b05a80633b93658ddd933fad27c9c4e7 -->
<g id="node7" class="node">
<title>dir_b05a80633b93658ddd933fad27c9c4e7</title>
<g id="a_node7"><a xlink:href="dir_b05a80633b93658ddd933fad27c9c4e7.html" target="_top" xlink:title="SpectrumViewer">
<polygon fill="#a2b4d6" stroke="#404040" points="252.5,-90 155.5,-90 155.5,-71 252.5,-71 252.5,-90"/>
<text text-anchor="middle" x="204" y="-78" font-family="Helvetica,sans-Serif" font-size="10.00">SpectrumViewer</text>
</a>
</g>
</g>
<!-- dir_b05a80633b93658ddd933fad27c9c4e7&#45;&gt;dir_0da42046d2d6f05823dedebd1ee5614d -->
<g id="edge7" class="edge">
<title>dir_b05a80633b93658ddd933fad27c9c4e7&#45;&gt;dir_0da42046d2d6f05823dedebd1ee5614d</title>
<g id="a_edge7"><a xlink:href="dir_000007_000003.html" target="_top">
<path fill="none" stroke="#63b8ff" d="M183.27,-70.98C162.24,-62.34 129.45,-48.87 105.46,-39.02"/>
<polygon fill="#63b8ff" stroke="#63b8ff" points="106.68,-35.73 96.1,-35.17 104.02,-42.21 106.68,-35.73"/>
</a>
</g>
<g id="a_edge7&#45;headlabel"><a xlink:href="dir_000007_000003.html" target="_top" xlink:title="1">
<text text-anchor="middle" x="111.09" y="-31.97" font-family="Helvetica,sans-Serif" font-size="10.00" fill="#63b8ff">1</text>
</a>
</g>
</g>
<!-- dir_b05a80633b93658ddd933fad27c9c4e7&#45;&gt;dir_4e013caeeea61262a6dac45a7a8bba06 -->
<g id="edge8" class="edge">
<title>dir_b05a80633b93658ddd933fad27c9c4e7&#45;&gt;dir_4e013caeeea61262a6dac45a7a8bba06</title>
<g id="a_edge8"><a xlink:href="dir_000007_000004.html" target="_top">
<path fill="none" stroke="#63b8ff" d="M214.93,-70.98C225.08,-63.07 240.42,-51.11 252.65,-41.58"/>
<polygon fill="#63b8ff" stroke="#63b8ff" points="255.14,-44.08 260.88,-35.17 250.84,-38.56 255.14,-44.08"/>
</a>
</g>
<g id="a_edge8&#45;headlabel"><a xlink:href="dir_000007_000004.html" target="_top" xlink:title="1">
<text text-anchor="middle" x="254.05" y="-46.03" font-family="Helvetica,sans-Serif" font-size="10.00" fill="#63b8ff">1</text>
</a>
</g>
</g>
<!-- dir_ca773ff6f6f7f9a1b3d6153e47464b05 -->
<g id="node8" class="node">
<title>dir_ca773ff6f6f7f9a1b3d6153e47464b05</title>
<g id="a_node8"><a xlink:href="dir_ca773ff6f6f7f9a1b3d6153e47464b05.html" target="_top" xlink:title="WidefieldMicroscope">
<polygon fill="#a2b4d6" stroke="#404040" points="154,-145 36,-145 36,-126 154,-126 154,-145"/>
<text text-anchor="middle" x="95" y="-133" font-family="Helvetica,sans-Serif" font-size="10.00">WidefieldMicroscope</text>
</a>
</g>
</g>
<!-- dir_ca773ff6f6f7f9a1b3d6153e47464b05&#45;&gt;dir_0da42046d2d6f05823dedebd1ee5614d -->
<g id="edge9" class="edge">
<title>dir_ca773ff6f6f7f9a1b3d6153e47464b05&#45;&gt;dir_0da42046d2d6f05823dedebd1ee5614d</title>
<g id="a_edge9"><a xlink:href="dir_000009_000003.html" target="_top">
<path fill="none" stroke="#63b8ff" d="M73.85,-125.93C59.17,-118.73 40.75,-106.88 32,-90 26.48,-79.34 26.96,-73.89 32,-63 36.02,-54.31 43.24,-46.94 50.63,-41.14"/>
<polygon fill="#63b8ff" stroke="#63b8ff" points="53.06,-43.71 59.2,-35.07 49.02,-38 53.06,-43.71"/>
</a>
</g>
<g id="a_edge9&#45;headlabel"><a xlink:href="dir_000009_000003.html" target="_top" xlink:title="2">
<text text-anchor="middle" x="51.77" y="-45.6" font-family="Helvetica,sans-Serif" font-size="10.00" fill="#63b8ff">2</text>
</a>
</g>
</g>
<!-- dir_ca773ff6f6f7f9a1b3d6153e47464b05&#45;&gt;dir_4e013caeeea61262a6dac45a7a8bba06 -->
<g id="edge10" class="edge">
<title>dir_ca773ff6f6f7f9a1b3d6153e47464b05&#45;&gt;dir_4e013caeeea61262a6dac45a7a8bba06</title>
<g id="a_edge10"><a xlink:href="dir_000009_000004.html" target="_top">
<path fill="none" stroke="#63b8ff" d="M152.88,-125.93C195.08,-118.46 247.34,-106.27 262,-90 272.85,-77.96 274.61,-59.15 274.1,-45.13"/>
<polygon fill="#63b8ff" stroke="#63b8ff" points="277.58,-44.83 273.33,-35.12 270.6,-45.36 277.58,-44.83"/>
</a>
</g>
<g id="a_edge10&#45;headlabel"><a xlink:href="dir_000009_000004.html" target="_top" xlink:title="7">
<text text-anchor="middle" x="280.69" y="-45.7" font-family="Helvetica,sans-Serif" font-size="10.00" fill="#63b8ff">7</text>
</a>
</g>
</g>
<!-- dir_ca773ff6f6f7f9a1b3d6153e47464b05&#45;&gt;dir_9b0671ecaa850ec08588c0419e002f4b -->
<g id="edge11" class="edge">
<title>dir_ca773ff6f6f7f9a1b3d6153e47464b05&#45;&gt;dir_9b0671ecaa850ec08588c0419e002f4b</title>
<g id="a_edge11"><a xlink:href="dir_000009_000002.html" target="_top">
<path fill="none" stroke="#63b8ff" d="M95.33,-125.75C95.59,-118.8 95.97,-108.85 96.3,-100.13"/>
<polygon fill="#63b8ff" stroke="#63b8ff" points="99.8,-100.21 96.68,-90.09 92.8,-99.95 99.8,-100.21"/>
</a>
</g>
<g id="a_edge11&#45;headlabel"><a xlink:href="dir_000009_000002.html" target="_top" xlink:title="1">
<text text-anchor="middle" x="102.5" y="-101.41" font-family="Helvetica,sans-Serif" font-size="10.00" fill="#63b8ff">1</text>
</a>
</g>
</g>
<!-- dir_ca773ff6f6f7f9a1b3d6153e47464b05&#45;&gt;dir_b05a80633b93658ddd933fad27c9c4e7 -->
<g id="edge12" class="edge">
<title>dir_ca773ff6f6f7f9a1b3d6153e47464b05&#45;&gt;dir_b05a80633b93658ddd933fad27c9c4e7</title>
<g id="a_edge12"><a xlink:href="dir_000009_000007.html" target="_top">
<path fill="none" stroke="#63b8ff" d="M112.51,-125.98C129.97,-117.5 157.01,-104.35 177.17,-94.54"/>
<polygon fill="#63b8ff" stroke="#63b8ff" points="178.71,-97.69 186.17,-90.17 175.64,-91.4 178.71,-97.69"/>
</a>
</g>
<g id="a_edge12&#45;headlabel"><a xlink:href="dir_000009_000007.html" target="_top" xlink:title="1">
<text text-anchor="middle" x="176.71" y="-99.32" font-family="Helvetica,sans-Serif" font-size="10.00" fill="#63b8ff">1</text>
</a>
</g>
</g>
</g>
</svg>
