<?xml version="1.0" encoding="UTF-8" standalone="no"?>
<!DOCTYPE svg PUBLIC "-//W3C//DTD SVG 1.1//EN"
 "http://www.w3.org/Graphics/SVG/1.1/DTD/svg11.dtd">
<!-- Generated by graphviz version 2.43.0 (0)
 -->
<!-- Title: DynExpManager Pages: 1 -->
<svg width="264pt" height="314pt"
 viewBox="0.00 0.00 264.00 314.00" xmlns="http://www.w3.org/2000/svg" xmlns:xlink="http://www.w3.org/1999/xlink">
<g id="graph0" class="graph" transform="scale(1 1) rotate(0) translate(4 310)">
<title>DynExpManager</title>
<g id="clust1" class="cluster">
<title>clusterdir_68267d1309a1af8e8297ef4c3efbcdba</title>
<g id="a_clust1"><a xlink:href="dir_68267d1309a1af8e8297ef4c3efbcdba.html" target="_top" xlink:title="src">
<polygon fill="#edf0f7" stroke="#404040" stroke-dasharray="5,2" points="8,-8 8,-298 248,-298 248,-8 8,-8"/>
<text text-anchor="middle" x="128" y="-286" font-family="Helvetica,sans-Serif" font-size="10.00">src</text>
</a>
</g>
</g>
<g id="clust2" class="cluster">
<title>clusterdir_98d5be3c788e0a480c3b3129797a803d</title>
<g id="a_clust2"><a xlink:href="dir_98d5be3c788e0a480c3b3129797a803d.html" target="_top">
<polygon fill="#edf0f7" stroke="#404040" stroke-width="2" points="16,-16 16,-271 240,-271 240,-16 16,-16"/>
</a>
</g>
</g>
<!-- dir_98d5be3c788e0a480c3b3129797a803d -->
<g id="node1" class="node">
<title>dir_98d5be3c788e0a480c3b3129797a803d</title>
<text text-anchor="middle" x="118" y="-251" font-family="Helvetica,sans-Serif" font-size="10.00">DynExpManager</text>
</g>
<!-- dir_69d6694b8a53e2612801debbd0274ec4 -->
<g id="node2" class="node">
<title>dir_69d6694b8a53e2612801debbd0274ec4</title>
<g id="a_node2"><a xlink:href="dir_69d6694b8a53e2612801debbd0274ec4.html" target="_top" xlink:title="HardwareAdapters">
<polygon fill="#a2b4d6" stroke="#404040" points="151.5,-98 44.5,-98 44.5,-79 151.5,-79 151.5,-98"/>
<text text-anchor="middle" x="98" y="-86" font-family="Helvetica,sans-Serif" font-size="10.00">HardwareAdapters</text>
</a>
</g>
</g>
<!-- dir_98d5be3c788e0a480c3b3129797a803d&#45;&gt;dir_69d6694b8a53e2612801debbd0274ec4 -->
<g id="edge4" class="edge">
<title>dir_98d5be3c788e0a480c3b3129797a803d&#45;&gt;dir_69d6694b8a53e2612801debbd0274ec4</title>
<g id="a_edge4"><a xlink:href="dir_000000_000001.html" target="_top">
<path fill="none" stroke="#63b8ff" d="M106.9,-243.84C87.82,-228.16 49.48,-192.97 35,-153 32.12,-145.06 31.12,-141.5 35,-134 42.04,-120.41 55.34,-110.09 67.92,-102.82"/>
<polygon fill="#63b8ff" stroke="#63b8ff" points="69.67,-105.86 76.85,-98.07 66.38,-99.68 69.67,-105.86"/>
</a>
</g>
<g id="a_edge4&#45;headlabel"><a xlink:href="dir_000000_000001.html" target="_top" xlink:title="14">
<text text-anchor="middle" x="67.83" y="-107.55" font-family="Helvetica,sans-Serif" font-size="10.00" fill="#63b8ff">14</text>
</a>
</g>
</g>
<!-- dir_0da42046d2d6f05823dedebd1ee5614d -->
<g id="node3" class="node">
<title>dir_0da42046d2d6f05823dedebd1ee5614d</title>
<g id="a_node3"><a xlink:href="dir_0da42046d2d6f05823dedebd1ee5614d.html" target="_top" xlink:title="Instruments">
<polygon fill="#a2b4d6" stroke="#404040" points="118.5,-153 43.5,-153 43.5,-134 118.5,-134 118.5,-153"/>
<text text-anchor="middle" x="81" y="-141" font-family="Helvetica,sans-Serif" font-size="10.00">Instruments</text>
</a>
</g>
</g>
<!-- dir_98d5be3c788e0a480c3b3129797a803d&#45;&gt;dir_0da42046d2d6f05823dedebd1ee5614d -->
<g id="edge1" class="edge">
<title>dir_98d5be3c788e0a480c3b3129797a803d&#45;&gt;dir_0da42046d2d6f05823dedebd1ee5614d</title>
<g id="a_edge1"><a xlink:href="dir_000000_000003.html" target="_top">
<path fill="none" stroke="#63b8ff" d="M114.97,-243.66C108.93,-226.01 95.25,-186.09 87.21,-162.64"/>
<polygon fill="#63b8ff" stroke="#63b8ff" points="90.52,-161.48 83.97,-153.16 83.9,-163.75 90.52,-161.48"/>
</a>
</g>
<g id="a_edge1&#45;headlabel"><a xlink:href="dir_000000_000003.html" target="_top" xlink:title="40">
<text text-anchor="middle" x="94.37" y="-161.46" font-family="Helvetica,sans-Serif" font-size="10.00" fill="#63b8ff">40</text>
</a>
</g>
</g>
<!-- dir_4e013caeeea61262a6dac45a7a8bba06 -->
<g id="node4" class="node">
<title>dir_4e013caeeea61262a6dac45a7a8bba06</title>
<g id="a_node4"><a xlink:href="dir_4e013caeeea61262a6dac45a7a8bba06.html" target="_top" xlink:title="MetaInstruments">
<polygon fill="#a2b4d6" stroke="#404040" points="148,-43 48,-43 48,-24 148,-24 148,-43"/>
<text text-anchor="middle" x="98" y="-31" font-family="Helvetica,sans-Serif" font-size="10.00">MetaInstruments</text>
</a>
</g>
</g>
<!-- dir_98d5be3c788e0a480c3b3129797a803d&#45;&gt;dir_4e013caeeea61262a6dac45a7a8bba06 -->
<g id="edge3" class="edge">
<title>dir_98d5be3c788e0a480c3b3129797a803d&#45;&gt;dir_4e013caeeea61262a6dac45a7a8bba06</title>
<g id="a_edge3"><a xlink:href="dir_000000_000005.html" target="_top">
<path fill="none" stroke="#63b8ff" d="M121.77,-243.73C134.82,-212.77 176.49,-108.9 161,-79 153.96,-65.41 140.66,-55.09 128.08,-47.82"/>
<polygon fill="#63b8ff" stroke="#63b8ff" points="129.62,-44.68 119.15,-43.07 126.33,-50.86 129.62,-44.68"/>
</a>
</g>
<g id="a_edge3&#45;headlabel"><a xlink:href="dir_000000_000005.html" target="_top" xlink:title="72">
<text text-anchor="middle" x="134.13" y="-41.36" font-family="Helvetica,sans-Serif" font-size="10.00" fill="#63b8ff">72</text>
</a>
</g>
</g>
<!-- dir_2ab72d9bf9e32bc56d72b9abb37a6f89 -->
<g id="node5" class="node">
<title>dir_2ab72d9bf9e32bc56d72b9abb37a6f89</title>
<g id="a_node5"><a xlink:href="dir_2ab72d9bf9e32bc56d72b9abb37a6f89.html" target="_top" xlink:title="Modules">
<polygon fill="#a2b4d6" stroke="#404040" points="214,-208 156,-208 156,-189 214,-189 214,-208"/>
<text text-anchor="middle" x="185" y="-196" font-family="Helvetica,sans-Serif" font-size="10.00">Modules</text>
</a>
</g>
</g>
<!-- dir_98d5be3c788e0a480c3b3129797a803d&#45;&gt;dir_2ab72d9bf9e32bc56d72b9abb37a6f89 -->
<g id="edge2" class="edge">
<title>dir_98d5be3c788e0a480c3b3129797a803d&#45;&gt;dir_2ab72d9bf9e32bc56d72b9abb37a6f89</title>
<g id="a_edge2"><a xlink:href="dir_000000_000006.html" target="_top">
<path fill="none" stroke="#63b8ff" d="M128.76,-243.98C138.77,-236.07 153.89,-224.11 165.93,-214.58"/>
<polygon fill="#63b8ff" stroke="#63b8ff" points="168.37,-217.12 174.04,-208.17 164.03,-211.63 168.37,-217.12"/>
</a>
</g>
<g id="a_edge2&#45;headlabel"><a xlink:href="dir_000000_000006.html" target="_top" xlink:title="25">
<text text-anchor="middle" x="167.31" y="-219.08" font-family="Helvetica,sans-Serif" font-size="10.00" fill="#63b8ff">25</text>
</a>
</g>
</g>
<!-- dir_69d6694b8a53e2612801debbd0274ec4&#45;&gt;dir_4e013caeeea61262a6dac45a7a8bba06 -->
<g id="edge5" class="edge">
<title>dir_69d6694b8a53e2612801debbd0274ec4&#45;&gt;dir_4e013caeeea61262a6dac45a7a8bba06</title>
<g id="a_edge5"><a xlink:href="dir_000001_000005.html" target="_top">
<path fill="none" stroke="#63b8ff" d="M92.83,-78.75C91.34,-71.8 90.9,-61.85 91.52,-53.13"/>
<polygon fill="#63b8ff" stroke="#63b8ff" points="95.01,-53.47 92.87,-43.09 88.07,-52.53 95.01,-53.47"/>
</a>
</g>
<g id="a_edge5&#45;headlabel"><a xlink:href="dir_000001_000005.html" target="_top" xlink:title="5">
<text text-anchor="middle" x="97.34" y="-54.91" font-family="Helvetica,sans-Serif" font-size="10.00" fill="#63b8ff">5</text>
</a>
</g>
</g>
<!-- dir_0da42046d2d6f05823dedebd1ee5614d&#45;&gt;dir_69d6694b8a53e2612801debbd0274ec4 -->
<g id="edge7" class="edge">
<title>dir_0da42046d2d6f05823dedebd1ee5614d&#45;&gt;dir_69d6694b8a53e2612801debbd0274ec4</title>
<g id="a_edge7"><a xlink:href="dir_000003_000001.html" target="_top">
<path fill="none" stroke="#63b8ff" d="M83.81,-133.75C86.06,-126.72 89.3,-116.62 92.12,-107.84"/>
<polygon fill="#63b8ff" stroke="#63b8ff" points="95.52,-108.68 95.25,-98.09 88.86,-106.54 95.52,-108.68"/>
</a>
</g>
<g id="a_edge7&#45;headlabel"><a xlink:href="dir_000003_000001.html" target="_top" xlink:title="9">
<text text-anchor="middle" x="97.13" y="-110.47" font-family="Helvetica,sans-Serif" font-size="10.00" fill="#63b8ff">9</text>
</a>
</g>
</g>
<!-- dir_0da42046d2d6f05823dedebd1ee5614d&#45;&gt;dir_4e013caeeea61262a6dac45a7a8bba06 -->
<g id="edge6" class="edge">
<title>dir_0da42046d2d6f05823dedebd1ee5614d&#45;&gt;dir_4e013caeeea61262a6dac45a7a8bba06</title>
<g id="a_edge6"><a xlink:href="dir_000003_000005.html" target="_top">
<path fill="none" stroke="#63b8ff" d="M67.38,-133.97C50.48,-122.24 25.14,-100.16 36,-79 42.96,-65.44 56.19,-55.07 68.65,-47.78"/>
<polygon fill="#63b8ff" stroke="#63b8ff" points="70.35,-50.84 77.48,-43 67.02,-44.68 70.35,-50.84"/>
</a>
</g>
<g id="a_edge6&#45;headlabel"><a xlink:href="dir_000003_000005.html" target="_top" xlink:title="32">
<text text-anchor="middle" x="68.53" y="-52.54" font-family="Helvetica,sans-Serif" font-size="10.00" fill="#63b8ff">32</text>
</a>
</g>
</g>
<!-- dir_4e013caeeea61262a6dac45a7a8bba06&#45;&gt;dir_69d6694b8a53e2612801debbd0274ec4 -->
<g id="edge8" class="edge">
<title>dir_4e013caeeea61262a6dac45a7a8bba06&#45;&gt;dir_69d6694b8a53e2612801debbd0274ec4</title>
<g id="a_edge8"><a xlink:href="dir_000005_000001.html" target="_top">
<path fill="none" stroke="#63b8ff" d="M103.13,-43.09C104.64,-49.99 105.09,-59.93 104.49,-68.66"/>
<polygon fill="#63b8ff" stroke="#63b8ff" points="101,-68.38 103.17,-78.75 107.94,-69.29 101,-68.38"/>
</a>
</g>
<g id="a_edge8&#45;headlabel"><a xlink:href="dir_000005_000001.html" target="_top" xlink:title="1">
<text text-anchor="middle" x="98.65" y="-61.94" font-family="Helvetica,sans-Serif" font-size="10.00" fill="#63b8ff">1</text>
</a>
</g>
</g>
<!-- dir_2ab72d9bf9e32bc56d72b9abb37a6f89&#45;&gt;dir_69d6694b8a53e2612801debbd0274ec4 -->
<g id="edge11" class="edge">
<title>dir_2ab72d9bf9e32bc56d72b9abb37a6f89&#45;&gt;dir_69d6694b8a53e2612801debbd0274ec4</title>
<g id="a_edge11"><a xlink:href="dir_000006_000001.html" target="_top">
<path fill="none" stroke="#63b8ff" d="M177.88,-188.66C163.34,-170.61 130.04,-129.28 111.35,-106.08"/>
<polygon fill="#63b8ff" stroke="#63b8ff" points="113.97,-103.75 104.97,-98.16 108.52,-108.14 113.97,-103.75"/>
</a>
</g>
<g id="a_edge11&#45;headlabel"><a xlink:href="dir_000006_000001.html" target="_top" xlink:title="1">
<text text-anchor="middle" x="118.44" y="-102.27" font-family="Helvetica,sans-Serif" font-size="10.00" fill="#63b8ff">1</text>
</a>
</g>
</g>
<!-- dir_2ab72d9bf9e32bc56d72b9abb37a6f89&#45;&gt;dir_0da42046d2d6f05823dedebd1ee5614d -->
<g id="edge9" class="edge">
<title>dir_2ab72d9bf9e32bc56d72b9abb37a6f89&#45;&gt;dir_0da42046d2d6f05823dedebd1ee5614d</title>
<g id="a_edge9"><a xlink:href="dir_000006_000003.html" target="_top">
<path fill="none" stroke="#63b8ff" d="M168.29,-188.98C151.79,-180.57 126.3,-167.59 107.12,-157.81"/>
<polygon fill="#63b8ff" stroke="#63b8ff" points="108.51,-154.59 98.01,-153.17 105.33,-160.83 108.51,-154.59"/>
</a>
</g>
<g id="a_edge9&#45;headlabel"><a xlink:href="dir_000006_000003.html" target="_top" xlink:title="10">
<text text-anchor="middle" x="113" y="-151.19" font-family="Helvetica,sans-Serif" font-size="10.00" fill="#63b8ff">10</text>
</a>
</g>
</g>
<!-- dir_2ab72d9bf9e32bc56d72b9abb37a6f89&#45;&gt;dir_4e013caeeea61262a6dac45a7a8bba06 -->
<g id="edge10" class="edge">
<title>dir_2ab72d9bf9e32bc56d72b9abb37a6f89&#45;&gt;dir_4e013caeeea61262a6dac45a7a8bba06</title>
<g id="a_edge10"><a xlink:href="dir_000006_000005.html" target="_top">
<path fill="none" stroke="#63b8ff" d="M185.37,-188.83C186.23,-164.67 187.53,-97.22 176,-79 166.68,-64.27 150.63,-53.92 135.5,-46.93"/>
<polygon fill="#63b8ff" stroke="#63b8ff" points="136.83,-43.7 126.26,-43.01 134.1,-50.14 136.83,-43.7"/>
</a>
</g>
<g id="a_edge10&#45;headlabel"><a xlink:href="dir_000006_000005.html" target="_top" xlink:title="34">
<text text-anchor="middle" x="141.25" y="-39.99" font-family="Helvetica,sans-Serif" font-size="10.00" fill="#63b8ff">34</text>
</a>
</g>
</g>
<!-- dir_ff18f722c1dbc3f59ba156445e964a20 -->
<g id="node6" class="node">
<title>dir_ff18f722c1dbc3f59ba156445e964a20</title>
<g id="a_node6"><a xlink:href="dir_ff18f722c1dbc3f59ba156445e964a20.html" target="_top" xlink:title="qml">
<polygon fill="#a2b4d6" stroke="#404040" points="231.5,-153 196.5,-153 196.5,-134 231.5,-134 231.5,-153"/>
<text text-anchor="middle" x="214" y="-141" font-family="Helvetica,sans-Serif" font-size="10.00">qml</text>
</a>
</g>
</g>
<!-- dir_2ab72d9bf9e32bc56d72b9abb37a6f89&#45;&gt;dir_ff18f722c1dbc3f59ba156445e964a20 -->
<g id="edge12" class="edge">
<title>dir_2ab72d9bf9e32bc56d72b9abb37a6f89&#45;&gt;dir_ff18f722c1dbc3f59ba156445e964a20</title>
<g id="a_edge12"><a xlink:href="dir_000006_000008.html" target="_top">
<path fill="none" stroke="#63b8ff" d="M184.62,-188.75C187.08,-181.34 192.62,-170.5 198.41,-161.41"/>
<polygon fill="#63b8ff" stroke="#63b8ff" points="201.35,-163.3 204.17,-153.09 195.6,-159.32 201.35,-163.3"/>
</a>
</g>
<g id="a_edge12&#45;headlabel"><a xlink:href="dir_000006_000008.html" target="_top" xlink:title="6">
<text text-anchor="middle" x="201.64" y="-165.37" font-family="Helvetica,sans-Serif" font-size="10.00" fill="#63b8ff">6</text>
</a>
</g>
</g>
<!-- dir_ff18f722c1dbc3f59ba156445e964a20&#45;&gt;dir_2ab72d9bf9e32bc56d72b9abb37a6f89 -->
<g id="edge13" class="edge">
<title>dir_ff18f722c1dbc3f59ba156445e964a20&#45;&gt;dir_2ab72d9bf9e32bc56d72b9abb37a6f89</title>
<g id="a_edge13"><a xlink:href="dir_000008_000006.html" target="_top">
<path fill="none" stroke="#63b8ff" d="M214.43,-153.09C212.02,-160.45 206.5,-171.27 200.72,-180.39"/>
<polygon fill="#63b8ff" stroke="#63b8ff" points="197.75,-178.53 194.96,-188.75 203.51,-182.5 197.75,-178.53"/>
</a>
</g>
<g id="a_edge13&#45;headlabel"><a xlink:href="dir_000008_000006.html" target="_top" xlink:title="1">
<text text-anchor="middle" x="197.46" y="-171.46" font-family="Helvetica,sans-Serif" font-size="10.00" fill="#63b8ff">1</text>
</a>
</g>
</g>
</g>
</svg>
