<?xml version="1.0" encoding="UTF-8" standalone="no"?>
<!DOCTYPE svg PUBLIC "-//W3C//DTD SVG 1.1//EN"
 "http://www.w3.org/Graphics/SVG/1.1/DTD/svg11.dtd">
<!-- Generated by graphviz version 2.43.0 (0)
 -->
<!-- Title: ODMR Pages: 1 -->
<svg width="108pt" height="151pt"
 viewBox="0.00 0.00 108.00 151.00" xmlns="http://www.w3.org/2000/svg" xmlns:xlink="http://www.w3.org/1999/xlink">
<g id="graph0" class="graph" transform="scale(1 1) rotate(0) translate(4 147)">
<title>ODMR</title>
<polygon fill="white" stroke="transparent" points="-4,4 -4,-147 104,-147 104,4 -4,4"/>
<g id="clust1" class="cluster">
<title>clusterdir_2ab72d9bf9e32bc56d72b9abb37a6f89</title>
<g id="a_clust1"><a xlink:href="dir_2ab72d9bf9e32bc56d72b9abb37a6f89.html" target="_top" xlink:title="Modules">
<polygon fill="#ddddee" stroke="black" points="15,-64 15,-135 85,-135 85,-64 15,-64"/>
<text text-anchor="middle" x="50" y="-123" font-family="Helvetica,sans-Serif" font-size="10.00">Modules</text>
</a>
</g>
</g>
<!-- dir_ad1a9cda7b8414d24f5b66704a6a181e -->
<g id="node1" class="node">
<title>dir_ad1a9cda7b8414d24f5b66704a6a181e</title>
<g id="a_node1"><a xlink:href="dir_ad1a9cda7b8414d24f5b66704a6a181e.html" target="_top" xlink:title="ODMR">
<polygon fill="#eeeeff" stroke="black" points="77,-108 23,-108 23,-72 77,-72 77,-108"/>
<text text-anchor="middle" x="50" y="-87.5" font-family="Helvetica,sans-Serif" font-size="10.00">ODMR</text>
</a>
</g>
</g>
<!-- dir_4e013caeeea61262a6dac45a7a8bba06 -->
<g id="node2" class="node">
<title>dir_4e013caeeea61262a6dac45a7a8bba06</title>
<g id="a_node2"><a xlink:href="dir_4e013caeeea61262a6dac45a7a8bba06.html" target="_top" xlink:title="MetaInstruments">
<polygon fill="none" stroke="black" points="100,-36 0,-36 0,0 100,0 100,-36"/>
<text text-anchor="middle" x="50" y="-15.5" font-family="Helvetica,sans-Serif" font-size="10.00">MetaInstruments</text>
</a>
</g>
</g>
<!-- dir_ad1a9cda7b8414d24f5b66704a6a181e&#45;&gt;dir_4e013caeeea61262a6dac45a7a8bba06 -->
<g id="edge1" class="edge">
<title>dir_ad1a9cda7b8414d24f5b66704a6a181e&#45;&gt;dir_4e013caeeea61262a6dac45a7a8bba06</title>
<path fill="none" stroke="black" d="M50,-71.7C50,-63.98 50,-54.71 50,-46.11"/>
<polygon fill="black" stroke="black" points="53.5,-46.1 50,-36.1 46.5,-46.1 53.5,-46.1"/>
<g id="a_edge1&#45;headlabel"><a xlink:href="dir_000007_000002.html" target="_top" xlink:title="5">
<text text-anchor="middle" x="56.34" y="-47.2" font-family="Helvetica,sans-Serif" font-size="10.00">5</text>
</a>
</g>
</g>
</g>
</svg>
