<?xml version="1.0" encoding="UTF-8" standalone="no"?>
<!DOCTYPE svg PUBLIC "-//W3C//DTD SVG 1.1//EN"
 "http://www.w3.org/Graphics/SVG/1.1/DTD/svg11.dtd">
<!-- Generated by graphviz version 2.43.0 (0)
 -->
<!-- Title: DynExpManager Pages: 1 -->
<svg width="224pt" height="399pt"
 viewBox="0.00 0.00 224.00 399.00" xmlns="http://www.w3.org/2000/svg" xmlns:xlink="http://www.w3.org/1999/xlink">
<g id="graph0" class="graph" transform="scale(1 1) rotate(0) translate(4 395)">
<title>DynExpManager</title>
<polygon fill="white" stroke="transparent" points="-4,4 -4,-395 220,-395 220,4 -4,4"/>
<g id="clust1" class="cluster">
<title>clusterdir_68267d1309a1af8e8297ef4c3efbcdba</title>
<g id="a_clust1"><a xlink:href="dir_68267d1309a1af8e8297ef4c3efbcdba.html" target="_top" xlink:title="src">
<polygon fill="#ddddee" stroke="black" points="8,-8 8,-383 208,-383 208,-8 8,-8"/>
<text text-anchor="middle" x="108" y="-371" font-family="Helvetica,sans-Serif" font-size="10.00">src</text>
</a>
</g>
</g>
<g id="clust2" class="cluster">
<title>clusterdir_98d5be3c788e0a480c3b3129797a803d</title>
<g id="a_clust2"><a xlink:href="dir_98d5be3c788e0a480c3b3129797a803d.html" target="_top">
<polygon fill="#eeeeff" stroke="black" points="16,-16 16,-356 200,-356 200,-16 16,-16"/>
</a>
</g>
</g>
<!-- dir_98d5be3c788e0a480c3b3129797a803d -->
<g id="node1" class="node">
<title>dir_98d5be3c788e0a480c3b3129797a803d</title>
<text text-anchor="middle" x="97" y="-327.5" font-family="Helvetica,sans-Serif" font-size="10.00">DynExpManager</text>
</g>
<!-- dir_69d6694b8a53e2612801debbd0274ec4 -->
<g id="node2" class="node">
<title>dir_69d6694b8a53e2612801debbd0274ec4</title>
<g id="a_node2"><a xlink:href="dir_69d6694b8a53e2612801debbd0274ec4.html" target="_top" xlink:title="HardwareAdapters">
<polygon fill="white" stroke="black" points="171.5,-132 64.5,-132 64.5,-96 171.5,-96 171.5,-132"/>
<text text-anchor="middle" x="118" y="-111.5" font-family="Helvetica,sans-Serif" font-size="10.00">HardwareAdapters</text>
</a>
</g>
</g>
<!-- dir_98d5be3c788e0a480c3b3129797a803d&#45;&gt;dir_69d6694b8a53e2612801debbd0274ec4 -->
<g id="edge10" class="edge">
<title>dir_98d5be3c788e0a480c3b3129797a803d&#45;&gt;dir_69d6694b8a53e2612801debbd0274ec4</title>
<path fill="none" stroke="black" d="M102.82,-311.56C105.93,-301.33 109.43,-288.08 111,-276 117.18,-228.39 104.97,-215.84 109,-168 109.72,-159.5 111.07,-150.31 112.51,-142.01"/>
<polygon fill="black" stroke="black" points="115.97,-142.56 114.35,-132.09 109.09,-141.29 115.97,-142.56"/>
<g id="a_edge10&#45;headlabel"><a xlink:href="dir_000001_000005.html" target="_top" xlink:title="14">
<text text-anchor="middle" x="118.11" y="-144.11" font-family="Helvetica,sans-Serif" font-size="10.00">14</text>
</a>
</g>
</g>
<!-- dir_0da42046d2d6f05823dedebd1ee5614d -->
<g id="node3" class="node">
<title>dir_0da42046d2d6f05823dedebd1ee5614d</title>
<g id="a_node3"><a xlink:href="dir_0da42046d2d6f05823dedebd1ee5614d.html" target="_top" xlink:title="Instruments">
<polygon fill="white" stroke="black" points="192.5,-204 117.5,-204 117.5,-168 192.5,-168 192.5,-204"/>
<text text-anchor="middle" x="155" y="-183.5" font-family="Helvetica,sans-Serif" font-size="10.00">Instruments</text>
</a>
</g>
</g>
<!-- dir_98d5be3c788e0a480c3b3129797a803d&#45;&gt;dir_0da42046d2d6f05823dedebd1ee5614d -->
<g id="edge7" class="edge">
<title>dir_98d5be3c788e0a480c3b3129797a803d&#45;&gt;dir_0da42046d2d6f05823dedebd1ee5614d</title>
<path fill="none" stroke="black" d="M107.51,-311.74C113.43,-301.57 120.68,-288.32 126,-276 134.78,-255.67 142.43,-231.77 147.67,-213.86"/>
<polygon fill="black" stroke="black" points="151.08,-214.65 150.46,-204.08 144.35,-212.73 151.08,-214.65"/>
<g id="a_edge7&#45;headlabel"><a xlink:href="dir_000001_000004.html" target="_top" xlink:title="30">
<text text-anchor="middle" x="152.82" y="-216.39" font-family="Helvetica,sans-Serif" font-size="10.00">30</text>
</a>
</g>
</g>
<!-- dir_4e013caeeea61262a6dac45a7a8bba06 -->
<g id="node4" class="node">
<title>dir_4e013caeeea61262a6dac45a7a8bba06</title>
<g id="a_node4"><a xlink:href="dir_4e013caeeea61262a6dac45a7a8bba06.html" target="_top" xlink:title="MetaInstruments">
<polygon fill="white" stroke="black" points="168,-60 68,-60 68,-24 168,-24 168,-60"/>
<text text-anchor="middle" x="118" y="-39.5" font-family="Helvetica,sans-Serif" font-size="10.00">MetaInstruments</text>
</a>
</g>
</g>
<!-- dir_98d5be3c788e0a480c3b3129797a803d&#45;&gt;dir_4e013caeeea61262a6dac45a7a8bba06 -->
<g id="edge9" class="edge">
<title>dir_98d5be3c788e0a480c3b3129797a803d&#45;&gt;dir_4e013caeeea61262a6dac45a7a8bba06</title>
<path fill="none" stroke="black" d="M67.5,-311.94C55.02,-302.99 41.81,-290.79 35,-276 18.56,-240.31 -11.32,-194.13 43,-96 49.83,-83.65 60.91,-73.51 72.48,-65.52"/>
<polygon fill="black" stroke="black" points="74.41,-68.43 80.93,-60.08 70.63,-62.55 74.41,-68.43"/>
<g id="a_edge9&#45;headlabel"><a xlink:href="dir_000001_000002.html" target="_top" xlink:title="61">
<text text-anchor="middle" x="72.92" y="-70.27" font-family="Helvetica,sans-Serif" font-size="10.00">61</text>
</a>
</g>
</g>
<!-- dir_2ab72d9bf9e32bc56d72b9abb37a6f89 -->
<g id="node5" class="node">
<title>dir_2ab72d9bf9e32bc56d72b9abb37a6f89</title>
<g id="a_node5"><a xlink:href="dir_2ab72d9bf9e32bc56d72b9abb37a6f89.html" target="_top" xlink:title="Modules">
<polygon fill="white" stroke="red" points="102,-276 44,-276 44,-240 102,-240 102,-276"/>
<text text-anchor="middle" x="73" y="-255.5" font-family="Helvetica,sans-Serif" font-size="10.00">Modules</text>
</a>
</g>
</g>
<!-- dir_98d5be3c788e0a480c3b3129797a803d&#45;&gt;dir_2ab72d9bf9e32bc56d72b9abb37a6f89 -->
<g id="edge8" class="edge">
<title>dir_98d5be3c788e0a480c3b3129797a803d&#45;&gt;dir_2ab72d9bf9e32bc56d72b9abb37a6f89</title>
<path fill="none" stroke="black" d="M91.07,-311.7C88.39,-303.9 85.17,-294.51 82.2,-285.83"/>
<polygon fill="black" stroke="black" points="85.42,-284.43 78.86,-276.1 78.8,-286.7 85.42,-284.43"/>
<g id="a_edge8&#45;headlabel"><a xlink:href="dir_000001_000003.html" target="_top" xlink:title="21">
<text text-anchor="middle" x="89.27" y="-284.41" font-family="Helvetica,sans-Serif" font-size="10.00">21</text>
</a>
</g>
</g>
<!-- dir_69d6694b8a53e2612801debbd0274ec4&#45;&gt;dir_4e013caeeea61262a6dac45a7a8bba06 -->
<g id="edge11" class="edge">
<title>dir_69d6694b8a53e2612801debbd0274ec4&#45;&gt;dir_4e013caeeea61262a6dac45a7a8bba06</title>
<path fill="none" stroke="black" d="M112.08,-95.7C111.29,-87.98 111.06,-78.71 111.4,-70.11"/>
<polygon fill="black" stroke="black" points="114.9,-70.32 112.1,-60.1 107.92,-69.84 114.9,-70.32"/>
<g id="a_edge11&#45;headlabel"><a xlink:href="dir_000005_000002.html" target="_top" xlink:title="5">
<text text-anchor="middle" x="117.48" y="-71.61" font-family="Helvetica,sans-Serif" font-size="10.00">5</text>
</a>
</g>
</g>
<!-- dir_0da42046d2d6f05823dedebd1ee5614d&#45;&gt;dir_69d6694b8a53e2612801debbd0274ec4 -->
<g id="edge2" class="edge">
<title>dir_0da42046d2d6f05823dedebd1ee5614d&#45;&gt;dir_69d6694b8a53e2612801debbd0274ec4</title>
<path fill="none" stroke="black" d="M145.85,-167.7C141.6,-159.64 136.44,-149.89 131.73,-140.98"/>
<polygon fill="black" stroke="black" points="134.81,-139.31 127.04,-132.1 128.62,-142.58 134.81,-139.31"/>
<g id="a_edge2&#45;headlabel"><a xlink:href="dir_000004_000005.html" target="_top" xlink:title="9">
<text text-anchor="middle" x="139" y="-138.66" font-family="Helvetica,sans-Serif" font-size="10.00">9</text>
</a>
</g>
</g>
<!-- dir_0da42046d2d6f05823dedebd1ee5614d&#45;&gt;dir_4e013caeeea61262a6dac45a7a8bba06 -->
<g id="edge1" class="edge">
<title>dir_0da42046d2d6f05823dedebd1ee5614d&#45;&gt;dir_4e013caeeea61262a6dac45a7a8bba06</title>
<path fill="none" stroke="black" d="M167.19,-167.71C178.51,-149.36 192.07,-119.79 181,-96 175.57,-84.34 166.18,-74.34 156.28,-66.26"/>
<polygon fill="black" stroke="black" points="158.38,-63.45 148.3,-60.2 154.15,-69.03 158.38,-63.45"/>
<g id="a_edge1&#45;headlabel"><a xlink:href="dir_000004_000002.html" target="_top" xlink:title="25">
<text text-anchor="middle" x="162.96" y="-60.87" font-family="Helvetica,sans-Serif" font-size="10.00">25</text>
</a>
</g>
</g>
<!-- dir_4e013caeeea61262a6dac45a7a8bba06&#45;&gt;dir_69d6694b8a53e2612801debbd0274ec4 -->
<g id="edge6" class="edge">
<title>dir_4e013caeeea61262a6dac45a7a8bba06&#45;&gt;dir_69d6694b8a53e2612801debbd0274ec4</title>
<path fill="none" stroke="black" d="M123.9,-60.1C124.7,-67.79 124.94,-77.05 124.6,-85.67"/>
<polygon fill="black" stroke="black" points="121.11,-85.48 123.92,-95.7 128.09,-85.96 121.11,-85.48"/>
<g id="a_edge6&#45;headlabel"><a xlink:href="dir_000002_000005.html" target="_top" xlink:title="1">
<text text-anchor="middle" x="118.52" y="-79.2" font-family="Helvetica,sans-Serif" font-size="10.00">1</text>
</a>
</g>
</g>
<!-- dir_2ab72d9bf9e32bc56d72b9abb37a6f89&#45;&gt;dir_69d6694b8a53e2612801debbd0274ec4 -->
<g id="edge5" class="edge">
<title>dir_2ab72d9bf9e32bc56d72b9abb37a6f89&#45;&gt;dir_69d6694b8a53e2612801debbd0274ec4</title>
<path fill="none" stroke="black" d="M76,-239.99C79.42,-221.88 85.65,-192.49 94,-168 97,-159.2 100.94,-149.89 104.76,-141.56"/>
<polygon fill="black" stroke="black" points="108.02,-142.86 109.13,-132.32 101.69,-139.87 108.02,-142.86"/>
<g id="a_edge5&#45;headlabel"><a xlink:href="dir_000003_000005.html" target="_top" xlink:title="1">
<text text-anchor="middle" x="109.05" y="-144.82" font-family="Helvetica,sans-Serif" font-size="10.00">1</text>
</a>
</g>
</g>
<!-- dir_2ab72d9bf9e32bc56d72b9abb37a6f89&#45;&gt;dir_0da42046d2d6f05823dedebd1ee5614d -->
<g id="edge3" class="edge">
<title>dir_2ab72d9bf9e32bc56d72b9abb37a6f89&#45;&gt;dir_0da42046d2d6f05823dedebd1ee5614d</title>
<path fill="none" stroke="black" d="M93.27,-239.7C103.5,-230.97 116.06,-220.24 127.18,-210.75"/>
<polygon fill="black" stroke="black" points="129.63,-213.26 134.96,-204.1 125.09,-207.94 129.63,-213.26"/>
<g id="a_edge3&#45;headlabel"><a xlink:href="dir_000003_000004.html" target="_top" xlink:title="6">
<text text-anchor="middle" x="128.74" y="-215.25" font-family="Helvetica,sans-Serif" font-size="10.00">6</text>
</a>
</g>
</g>
<!-- dir_2ab72d9bf9e32bc56d72b9abb37a6f89&#45;&gt;dir_4e013caeeea61262a6dac45a7a8bba06 -->
<g id="edge4" class="edge">
<title>dir_2ab72d9bf9e32bc56d72b9abb37a6f89&#45;&gt;dir_4e013caeeea61262a6dac45a7a8bba06</title>
<path fill="none" stroke="black" d="M65.55,-239.6C53.63,-209.01 33.77,-144.25 56,-96 61.32,-84.44 70.55,-74.47 80.28,-66.4"/>
<polygon fill="black" stroke="black" points="82.71,-68.94 88.5,-60.06 78.44,-63.39 82.71,-68.94"/>
<g id="a_edge4&#45;headlabel"><a xlink:href="dir_000003_000002.html" target="_top" xlink:title="30">
<text text-anchor="middle" x="81.6" y="-70.88" font-family="Helvetica,sans-Serif" font-size="10.00">30</text>
</a>
</g>
</g>
</g>
</svg>
