<?xml version="1.0" encoding="UTF-8" standalone="no"?>
<!DOCTYPE svg PUBLIC "-//W3C//DTD SVG 1.1//EN"
 "http://www.w3.org/Graphics/SVG/1.1/DTD/svg11.dtd">
<!-- Generated by graphviz version 2.43.0 (0)
 -->
<!-- Title: DynExpManager Pages: 1 -->
<svg width="224pt" height="314pt"
 viewBox="0.00 0.00 224.00 314.00" xmlns="http://www.w3.org/2000/svg" xmlns:xlink="http://www.w3.org/1999/xlink">
<g id="graph0" class="graph" transform="scale(1 1) rotate(0) translate(4 310)">
<title>DynExpManager</title>
<g id="clust1" class="cluster">
<title>clusterdir_68267d1309a1af8e8297ef4c3efbcdba</title>
<g id="a_clust1"><a xlink:href="dir_68267d1309a1af8e8297ef4c3efbcdba.html" target="_top" xlink:title="src">
<polygon fill="#edf0f7" stroke="#404040" stroke-dasharray="5,2" points="8,-8 8,-298 208,-298 208,-8 8,-8"/>
<text text-anchor="middle" x="108" y="-286" font-family="Helvetica,sans-Serif" font-size="10.00">src</text>
</a>
</g>
</g>
<g id="clust2" class="cluster">
<title>clusterdir_98d5be3c788e0a480c3b3129797a803d</title>
<g id="a_clust2"><a xlink:href="dir_98d5be3c788e0a480c3b3129797a803d.html" target="_top">
<polygon fill="#edf0f7" stroke="#404040" stroke-width="2" points="16,-16 16,-271 200,-271 200,-16 16,-16"/>
</a>
</g>
</g>
<!-- dir_98d5be3c788e0a480c3b3129797a803d -->
<g id="node1" class="node">
<title>dir_98d5be3c788e0a480c3b3129797a803d</title>
<text text-anchor="middle" x="97" y="-251" font-family="Helvetica,sans-Serif" font-size="10.00">DynExpManager</text>
</g>
<!-- dir_69d6694b8a53e2612801debbd0274ec4 -->
<g id="node2" class="node">
<title>dir_69d6694b8a53e2612801debbd0274ec4</title>
<g id="a_node2"><a xlink:href="dir_69d6694b8a53e2612801debbd0274ec4.html" target="_top" xlink:title="HardwareAdapters">
<polygon fill="#a2b4d6" stroke="#404040" points="171.5,-98 64.5,-98 64.5,-79 171.5,-79 171.5,-98"/>
<text text-anchor="middle" x="118" y="-86" font-family="Helvetica,sans-Serif" font-size="10.00">HardwareAdapters</text>
</a>
</g>
</g>
<!-- dir_98d5be3c788e0a480c3b3129797a803d&#45;&gt;dir_69d6694b8a53e2612801debbd0274ec4 -->
<g id="edge4" class="edge">
<title>dir_98d5be3c788e0a480c3b3129797a803d&#45;&gt;dir_69d6694b8a53e2612801debbd0274ec4</title>
<g id="a_edge4"><a xlink:href="dir_000000_000001.html" target="_top">
<path fill="none" stroke="#63b8ff" d="M100.6,-243.82C104.06,-234.99 109.03,-220.81 111,-208 115.99,-175.48 105.72,-166.74 109,-134 109.85,-125.47 111.61,-116.16 113.34,-108.27"/>
<polygon fill="#63b8ff" stroke="#63b8ff" points="116.8,-108.82 115.68,-98.29 109.99,-107.22 116.8,-108.82"/>
</a>
</g>
<g id="a_edge4&#45;headlabel"><a xlink:href="dir_000000_000001.html" target="_top" xlink:title="14">
<text text-anchor="middle" x="118.75" y="-110.47" font-family="Helvetica,sans-Serif" font-size="10.00" fill="#63b8ff">14</text>
</a>
</g>
</g>
<!-- dir_0da42046d2d6f05823dedebd1ee5614d -->
<g id="node3" class="node">
<title>dir_0da42046d2d6f05823dedebd1ee5614d</title>
<g id="a_node3"><a xlink:href="dir_0da42046d2d6f05823dedebd1ee5614d.html" target="_top" xlink:title="Instruments">
<polygon fill="#a2b4d6" stroke="#404040" points="192.5,-153 117.5,-153 117.5,-134 192.5,-134 192.5,-153"/>
<text text-anchor="middle" x="155" y="-141" font-family="Helvetica,sans-Serif" font-size="10.00">Instruments</text>
</a>
</g>
</g>
<!-- dir_98d5be3c788e0a480c3b3129797a803d&#45;&gt;dir_0da42046d2d6f05823dedebd1ee5614d -->
<g id="edge1" class="edge">
<title>dir_98d5be3c788e0a480c3b3129797a803d&#45;&gt;dir_0da42046d2d6f05823dedebd1ee5614d</title>
<g id="a_edge1"><a xlink:href="dir_000000_000003.html" target="_top">
<path fill="none" stroke="#63b8ff" d="M103.18,-243.87C109.34,-235.08 118.89,-220.93 126,-208 134.12,-193.23 141.98,-175.77 147.46,-162.9"/>
<polygon fill="#63b8ff" stroke="#63b8ff" points="150.83,-163.91 151.46,-153.33 144.38,-161.21 150.83,-163.91"/>
</a>
</g>
<g id="a_edge1&#45;headlabel"><a xlink:href="dir_000000_000003.html" target="_top" xlink:title="30">
<text text-anchor="middle" x="152.07" y="-165.82" font-family="Helvetica,sans-Serif" font-size="10.00" fill="#63b8ff">30</text>
</a>
</g>
</g>
<!-- dir_4e013caeeea61262a6dac45a7a8bba06 -->
<g id="node4" class="node">
<title>dir_4e013caeeea61262a6dac45a7a8bba06</title>
<g id="a_node4"><a xlink:href="dir_4e013caeeea61262a6dac45a7a8bba06.html" target="_top" xlink:title="MetaInstruments">
<polygon fill="#a2b4d6" stroke="#404040" points="168,-43 68,-43 68,-24 168,-24 168,-43"/>
<text text-anchor="middle" x="118" y="-31" font-family="Helvetica,sans-Serif" font-size="10.00">MetaInstruments</text>
</a>
</g>
</g>
<!-- dir_98d5be3c788e0a480c3b3129797a803d&#45;&gt;dir_4e013caeeea61262a6dac45a7a8bba06 -->
<g id="edge3" class="edge">
<title>dir_98d5be3c788e0a480c3b3129797a803d&#45;&gt;dir_4e013caeeea61262a6dac45a7a8bba06</title>
<g id="a_edge3"><a xlink:href="dir_000000_000004.html" target="_top">
<path fill="none" stroke="#63b8ff" d="M76.48,-244C61.98,-236.77 43.65,-224.86 35,-208 31.14,-200.49 34.54,-197.43 35,-189 37.67,-139.89 20.89,-120.67 47,-79 55.79,-64.98 70.78,-54.63 84.74,-47.46"/>
<polygon fill="#63b8ff" stroke="#63b8ff" points="86.6,-50.45 94.14,-43 83.6,-44.12 86.6,-50.45"/>
</a>
</g>
<g id="a_edge3&#45;headlabel"><a xlink:href="dir_000000_000004.html" target="_top" xlink:title="61">
<text text-anchor="middle" x="84.57" y="-52.06" font-family="Helvetica,sans-Serif" font-size="10.00" fill="#63b8ff">61</text>
</a>
</g>
</g>
<!-- dir_2ab72d9bf9e32bc56d72b9abb37a6f89 -->
<g id="node5" class="node">
<title>dir_2ab72d9bf9e32bc56d72b9abb37a6f89</title>
<g id="a_node5"><a xlink:href="dir_2ab72d9bf9e32bc56d72b9abb37a6f89.html" target="_top" xlink:title="Modules">
<polygon fill="#a2b4d6" stroke="#404040" points="102,-208 44,-208 44,-189 102,-189 102,-208"/>
<text text-anchor="middle" x="73" y="-196" font-family="Helvetica,sans-Serif" font-size="10.00">Modules</text>
</a>
</g>
</g>
<!-- dir_98d5be3c788e0a480c3b3129797a803d&#45;&gt;dir_2ab72d9bf9e32bc56d72b9abb37a6f89 -->
<g id="edge2" class="edge">
<title>dir_98d5be3c788e0a480c3b3129797a803d&#45;&gt;dir_2ab72d9bf9e32bc56d72b9abb37a6f89</title>
<g id="a_edge2"><a xlink:href="dir_000000_000005.html" target="_top">
<path fill="none" stroke="#63b8ff" d="M93.04,-243.75C89.79,-236.57 85.08,-226.18 81.05,-217.27"/>
<polygon fill="#63b8ff" stroke="#63b8ff" points="84.2,-215.75 76.89,-208.09 77.83,-218.64 84.2,-215.75"/>
</a>
</g>
<g id="a_edge2&#45;headlabel"><a xlink:href="dir_000000_000005.html" target="_top" xlink:title="21">
<text text-anchor="middle" x="88.27" y="-215.36" font-family="Helvetica,sans-Serif" font-size="10.00" fill="#63b8ff">21</text>
</a>
</g>
</g>
<!-- dir_69d6694b8a53e2612801debbd0274ec4&#45;&gt;dir_4e013caeeea61262a6dac45a7a8bba06 -->
<g id="edge5" class="edge">
<title>dir_69d6694b8a53e2612801debbd0274ec4&#45;&gt;dir_4e013caeeea61262a6dac45a7a8bba06</title>
<g id="a_edge5"><a xlink:href="dir_000001_000004.html" target="_top">
<path fill="none" stroke="#63b8ff" d="M112.83,-78.75C111.34,-71.8 110.9,-61.85 111.52,-53.13"/>
<polygon fill="#63b8ff" stroke="#63b8ff" points="115.01,-53.47 112.87,-43.09 108.07,-52.53 115.01,-53.47"/>
</a>
</g>
<g id="a_edge5&#45;headlabel"><a xlink:href="dir_000001_000004.html" target="_top" xlink:title="5">
<text text-anchor="middle" x="117.34" y="-54.91" font-family="Helvetica,sans-Serif" font-size="10.00" fill="#63b8ff">5</text>
</a>
</g>
</g>
<!-- dir_0da42046d2d6f05823dedebd1ee5614d&#45;&gt;dir_69d6694b8a53e2612801debbd0274ec4 -->
<g id="edge7" class="edge">
<title>dir_0da42046d2d6f05823dedebd1ee5614d&#45;&gt;dir_69d6694b8a53e2612801debbd0274ec4</title>
<g id="a_edge7"><a xlink:href="dir_000003_000001.html" target="_top">
<path fill="none" stroke="#63b8ff" d="M148.89,-133.75C143.72,-126.34 136.15,-115.5 129.81,-106.41"/>
<polygon fill="#63b8ff" stroke="#63b8ff" points="132.59,-104.29 124,-98.09 126.85,-108.29 132.59,-104.29"/>
</a>
</g>
<g id="a_edge7&#45;headlabel"><a xlink:href="dir_000003_000001.html" target="_top" xlink:title="9">
<text text-anchor="middle" x="136.98" y="-103.11" font-family="Helvetica,sans-Serif" font-size="10.00" fill="#63b8ff">9</text>
</a>
</g>
</g>
<!-- dir_0da42046d2d6f05823dedebd1ee5614d&#45;&gt;dir_4e013caeeea61262a6dac45a7a8bba06 -->
<g id="edge6" class="edge">
<title>dir_0da42046d2d6f05823dedebd1ee5614d&#45;&gt;dir_4e013caeeea61262a6dac45a7a8bba06</title>
<g id="a_edge6"><a xlink:href="dir_000003_000004.html" target="_top">
<path fill="none" stroke="#63b8ff" d="M163.49,-133.65C174.37,-121.17 190.75,-97.83 181,-79 173.96,-65.41 160.66,-55.09 148.08,-47.82"/>
<polygon fill="#63b8ff" stroke="#63b8ff" points="149.62,-44.68 139.15,-43.07 146.33,-50.86 149.62,-44.68"/>
</a>
</g>
<g id="a_edge6&#45;headlabel"><a xlink:href="dir_000003_000004.html" target="_top" xlink:title="25">
<text text-anchor="middle" x="154.13" y="-41.36" font-family="Helvetica,sans-Serif" font-size="10.00" fill="#63b8ff">25</text>
</a>
</g>
</g>
<!-- dir_4e013caeeea61262a6dac45a7a8bba06&#45;&gt;dir_69d6694b8a53e2612801debbd0274ec4 -->
<g id="edge8" class="edge">
<title>dir_4e013caeeea61262a6dac45a7a8bba06&#45;&gt;dir_69d6694b8a53e2612801debbd0274ec4</title>
<g id="a_edge8"><a xlink:href="dir_000004_000001.html" target="_top">
<path fill="none" stroke="#63b8ff" d="M123.13,-43.09C124.64,-49.99 125.09,-59.93 124.49,-68.66"/>
<polygon fill="#63b8ff" stroke="#63b8ff" points="121,-68.38 123.17,-78.75 127.94,-69.29 121,-68.38"/>
</a>
</g>
<g id="a_edge8&#45;headlabel"><a xlink:href="dir_000004_000001.html" target="_top" xlink:title="1">
<text text-anchor="middle" x="118.65" y="-61.94" font-family="Helvetica,sans-Serif" font-size="10.00" fill="#63b8ff">1</text>
</a>
</g>
</g>
<!-- dir_2ab72d9bf9e32bc56d72b9abb37a6f89&#45;&gt;dir_69d6694b8a53e2612801debbd0274ec4 -->
<g id="edge11" class="edge">
<title>dir_2ab72d9bf9e32bc56d72b9abb37a6f89&#45;&gt;dir_69d6694b8a53e2612801debbd0274ec4</title>
<g id="a_edge11"><a xlink:href="dir_000005_000001.html" target="_top">
<path fill="none" stroke="#63b8ff" d="M75.38,-188.69C78.86,-176.27 85.82,-152.98 94,-134 97.95,-124.83 103.13,-115.02 107.67,-106.96"/>
<polygon fill="#63b8ff" stroke="#63b8ff" points="110.79,-108.55 112.75,-98.14 104.72,-105.05 110.79,-108.55"/>
</a>
</g>
<g id="a_edge11&#45;headlabel"><a xlink:href="dir_000005_000001.html" target="_top" xlink:title="1">
<text text-anchor="middle" x="111.45" y="-110.58" font-family="Helvetica,sans-Serif" font-size="10.00" fill="#63b8ff">1</text>
</a>
</g>
</g>
<!-- dir_2ab72d9bf9e32bc56d72b9abb37a6f89&#45;&gt;dir_0da42046d2d6f05823dedebd1ee5614d -->
<g id="edge9" class="edge">
<title>dir_2ab72d9bf9e32bc56d72b9abb37a6f89&#45;&gt;dir_0da42046d2d6f05823dedebd1ee5614d</title>
<g id="a_edge9"><a xlink:href="dir_000005_000003.html" target="_top">
<path fill="none" stroke="#63b8ff" d="M86.17,-188.98C98.77,-180.84 118,-168.41 132.94,-158.76"/>
<polygon fill="#63b8ff" stroke="#63b8ff" points="135.09,-161.54 141.59,-153.17 131.29,-155.66 135.09,-161.54"/>
</a>
</g>
<g id="a_edge9&#45;headlabel"><a xlink:href="dir_000005_000003.html" target="_top" xlink:title="6">
<text text-anchor="middle" x="133.61" y="-163.37" font-family="Helvetica,sans-Serif" font-size="10.00" fill="#63b8ff">6</text>
</a>
</g>
</g>
<!-- dir_2ab72d9bf9e32bc56d72b9abb37a6f89&#45;&gt;dir_4e013caeeea61262a6dac45a7a8bba06 -->
<g id="edge10" class="edge">
<title>dir_2ab72d9bf9e32bc56d72b9abb37a6f89&#45;&gt;dir_4e013caeeea61262a6dac45a7a8bba06</title>
<g id="a_edge10"><a xlink:href="dir_000005_000004.html" target="_top">
<path fill="none" stroke="#63b8ff" d="M68.49,-188.89C58.5,-168.54 36.83,-116.35 56,-79 62.96,-65.44 76.19,-55.07 88.65,-47.78"/>
<polygon fill="#63b8ff" stroke="#63b8ff" points="90.35,-50.84 97.48,-43 87.02,-44.68 90.35,-50.84"/>
</a>
</g>
<g id="a_edge10&#45;headlabel"><a xlink:href="dir_000005_000004.html" target="_top" xlink:title="30">
<text text-anchor="middle" x="88.53" y="-52.54" font-family="Helvetica,sans-Serif" font-size="10.00" fill="#63b8ff">30</text>
</a>
</g>
</g>
</g>
</svg>
