<?xml version="1.0" encoding="UTF-8" standalone="no"?>
<!DOCTYPE svg PUBLIC "-//W3C//DTD SVG 1.1//EN"
 "http://www.w3.org/Graphics/SVG/1.1/DTD/svg11.dtd">
<!-- Generated by graphviz version 2.43.0 (0)
 -->
<!-- Title: Instruments Pages: 1 -->
<svg width="160pt" height="239pt"
 viewBox="0.00 0.00 160.00 239.00" xmlns="http://www.w3.org/2000/svg" xmlns:xlink="http://www.w3.org/1999/xlink">
<g id="graph0" class="graph" transform="scale(1 1) rotate(0) translate(4 235)">
<title>Instruments</title>
<polygon fill="white" stroke="transparent" points="-4,4 -4,-235 156,-235 156,4 -4,4"/>
<g id="clust1" class="cluster">
<title>clusterdir_98d5be3c788e0a480c3b3129797a803d</title>
<g id="a_clust1"><a xlink:href="dir_98d5be3c788e0a480c3b3129797a803d.html" target="_top" xlink:title="DynExpManager">
<polygon fill="#ddddee" stroke="black" points="8,-8 8,-223 144,-223 144,-8 8,-8"/>
<text text-anchor="middle" x="76" y="-211" font-family="Helvetica,sans-Serif" font-size="10.00">DynExpManager</text>
</a>
</g>
</g>
<!-- dir_4e013caeeea61262a6dac45a7a8bba06 -->
<g id="node1" class="node">
<title>dir_4e013caeeea61262a6dac45a7a8bba06</title>
<g id="a_node1"><a xlink:href="dir_4e013caeeea61262a6dac45a7a8bba06.html" target="_top" xlink:title="MetaInstruments">
<polygon fill="none" stroke="black" points="116,-124 16,-124 16,-88 116,-88 116,-124"/>
<text text-anchor="middle" x="66" y="-103.5" font-family="Helvetica,sans-Serif" font-size="10.00">MetaInstruments</text>
</a>
</g>
</g>
<!-- dir_69d6694b8a53e2612801debbd0274ec4 -->
<g id="node2" class="node">
<title>dir_69d6694b8a53e2612801debbd0274ec4</title>
<g id="a_node2"><a xlink:href="dir_69d6694b8a53e2612801debbd0274ec4.html" target="_top" xlink:title="HardwareAdapters">
<polygon fill="none" stroke="black" points="122.5,-52 15.5,-52 15.5,-16 122.5,-16 122.5,-52"/>
<text text-anchor="middle" x="69" y="-31.5" font-family="Helvetica,sans-Serif" font-size="10.00">HardwareAdapters</text>
</a>
</g>
</g>
<!-- dir_4e013caeeea61262a6dac45a7a8bba06&#45;&gt;dir_69d6694b8a53e2612801debbd0274ec4 -->
<g id="edge3" class="edge">
<title>dir_4e013caeeea61262a6dac45a7a8bba06&#45;&gt;dir_69d6694b8a53e2612801debbd0274ec4</title>
<path fill="none" stroke="black" d="M60.83,-87.7C60.36,-79.98 60.53,-70.71 61.24,-62.11"/>
<polygon fill="black" stroke="black" points="64.73,-62.43 62.37,-52.1 57.77,-61.65 64.73,-62.43"/>
<g id="a_edge3&#45;headlabel"><a xlink:href="dir_000002_000005.html" target="_top" xlink:title="1">
<text text-anchor="middle" x="67.15" y="-63.82" font-family="Helvetica,sans-Serif" font-size="10.00">1</text>
</a>
</g>
</g>
<!-- dir_69d6694b8a53e2612801debbd0274ec4&#45;&gt;dir_4e013caeeea61262a6dac45a7a8bba06 -->
<g id="edge4" class="edge">
<title>dir_69d6694b8a53e2612801debbd0274ec4&#45;&gt;dir_4e013caeeea61262a6dac45a7a8bba06</title>
<path fill="none" stroke="black" d="M74.16,-52.1C74.64,-59.79 74.48,-69.05 73.78,-77.67"/>
<polygon fill="black" stroke="black" points="70.29,-77.37 72.66,-87.7 77.24,-78.15 70.29,-77.37"/>
<g id="a_edge4&#45;headlabel"><a xlink:href="dir_000005_000002.html" target="_top" xlink:title="5">
<text text-anchor="middle" x="67.86" y="-70.98" font-family="Helvetica,sans-Serif" font-size="10.00">5</text>
</a>
</g>
</g>
<!-- dir_0da42046d2d6f05823dedebd1ee5614d -->
<g id="node3" class="node">
<title>dir_0da42046d2d6f05823dedebd1ee5614d</title>
<g id="a_node3"><a xlink:href="dir_0da42046d2d6f05823dedebd1ee5614d.html" target="_top" xlink:title="Instruments">
<polygon fill="#eeeeff" stroke="black" points="119.5,-196 44.5,-196 44.5,-160 119.5,-160 119.5,-196"/>
<text text-anchor="middle" x="82" y="-175.5" font-family="Helvetica,sans-Serif" font-size="10.00">Instruments</text>
</a>
</g>
</g>
<!-- dir_0da42046d2d6f05823dedebd1ee5614d&#45;&gt;dir_4e013caeeea61262a6dac45a7a8bba06 -->
<g id="edge1" class="edge">
<title>dir_0da42046d2d6f05823dedebd1ee5614d&#45;&gt;dir_4e013caeeea61262a6dac45a7a8bba06</title>
<path fill="none" stroke="black" d="M78.04,-159.7C76.28,-151.98 74.16,-142.71 72.2,-134.11"/>
<polygon fill="black" stroke="black" points="75.55,-133.07 69.91,-124.1 68.73,-134.63 75.55,-133.07"/>
<g id="a_edge1&#45;headlabel"><a xlink:href="dir_000004_000002.html" target="_top" xlink:title="25">
<text text-anchor="middle" x="79.12" y="-133.44" font-family="Helvetica,sans-Serif" font-size="10.00">25</text>
</a>
</g>
</g>
<!-- dir_0da42046d2d6f05823dedebd1ee5614d&#45;&gt;dir_69d6694b8a53e2612801debbd0274ec4 -->
<g id="edge2" class="edge">
<title>dir_0da42046d2d6f05823dedebd1ee5614d&#45;&gt;dir_69d6694b8a53e2612801debbd0274ec4</title>
<path fill="none" stroke="black" d="M101.04,-159.84C110.18,-150.3 120.17,-137.62 125,-124 130.35,-108.92 131.33,-102.7 125,-88 120.21,-76.87 111.81,-66.99 102.95,-58.86"/>
<polygon fill="black" stroke="black" points="105,-56.01 95.12,-52.18 100.46,-61.34 105,-56.01"/>
<g id="a_edge2&#45;headlabel"><a xlink:href="dir_000004_000005.html" target="_top" xlink:title="9">
<text text-anchor="middle" x="109.58" y="-53.69" font-family="Helvetica,sans-Serif" font-size="10.00">9</text>
</a>
</g>
</g>
</g>
</svg>
