<?xml version="1.0" encoding="UTF-8" standalone="no"?>
<!DOCTYPE svg PUBLIC "-//W3C//DTD SVG 1.1//EN"
 "http://www.w3.org/Graphics/SVG/1.1/DTD/svg11.dtd">
<!-- Generated by graphviz version 2.43.0 (0)
 -->
<!-- Title: Graphical Class Hierarchy Pages: 1 -->
<svg width="885pt" height="310pt"
 viewBox="0.00 0.00 885.00 309.50" xmlns="http://www.w3.org/2000/svg" xmlns:xlink="http://www.w3.org/1999/xlink">
<g id="graph0" class="graph" transform="scale(1 1) rotate(0) translate(4 305.5)">
<title>Graphical Class Hierarchy</title>
<polygon fill="white" stroke="transparent" points="-4,4 -4,-305.5 881,-305.5 881,4 -4,4"/>
<!-- Node958 -->
<g id="node1" class="node">
<title>Node958</title>
<g id="a_node1"><a xlink:title=" ">
<polygon fill="white" stroke="#bfbfbf" points="0,-194.5 0,-213.5 148,-213.5 148,-194.5 0,-194.5"/>
<text text-anchor="middle" x="74" y="-201.5" font-family="Helvetica,sans-Serif" font-size="10.00">BaseInstr::UpdateTaskType</text>
</a>
</g>
</g>
<!-- Node0 -->
<g id="node2" class="node">
<title>Node0</title>
<g id="a_node2"><a xlink:href="classDynExpInstr_1_1gRPCInstrumentTasks_1_1UpdateTask.html" target="_top" xlink:title=" ">
<polygon fill="white" stroke="black" points="204,-249 204,-301 412,-301 412,-249 204,-249"/>
<text text-anchor="start" x="212" y="-289" font-family="Helvetica,sans-Serif" font-size="10.00">DynExpInstr::gRPCInstrument</text>
<text text-anchor="start" x="212" y="-278" font-family="Helvetica,sans-Serif" font-size="10.00">Tasks::UpdateTask&lt; Spectrometer,</text>
<text text-anchor="start" x="212" y="-267" font-family="Helvetica,sans-Serif" font-size="10.00"> 0, DynExpProto::NetworkSpectrometer</text>
<text text-anchor="middle" x="308" y="-256" font-family="Helvetica,sans-Serif" font-size="10.00">::NetworkSpectrometer &gt;</text>
</a>
</g>
</g>
<!-- Node958&#45;&gt;Node0 -->
<g id="edge1" class="edge">
<title>Node958&#45;&gt;Node0</title>
<path fill="none" stroke="midnightblue" d="M112.62,-216.86C133.57,-223.9 160.15,-232.67 184,-240 193.66,-242.97 203.77,-245.99 213.86,-248.94"/>
<polygon fill="midnightblue" stroke="midnightblue" points="113.72,-213.53 103.13,-213.65 111.48,-220.16 113.72,-213.53"/>
</g>
<!-- Node961 -->
<g id="node4" class="node">
<title>Node961</title>
<g id="a_node4"><a xlink:href="classDynExpInstr_1_1gRPCInstrumentTasks_1_1UpdateTask.html" target="_top" xlink:title=" ">
<polygon fill="white" stroke="black" points="184,-178 184,-230 432,-230 432,-178 184,-178"/>
<text text-anchor="start" x="192" y="-218" font-family="Helvetica,sans-Serif" font-size="10.00">DynExpInstr::gRPCInstrument</text>
<text text-anchor="start" x="192" y="-207" font-family="Helvetica,sans-Serif" font-size="10.00">Tasks::UpdateTask&lt; DynExp</text>
<text text-anchor="start" x="192" y="-196" font-family="Helvetica,sans-Serif" font-size="10.00">::InstrumentBase, 0, DynExpProto</text>
<text text-anchor="middle" x="308" y="-185" font-family="Helvetica,sans-Serif" font-size="10.00">::WidefieldLocalization::WidefieldLocalization &gt;</text>
</a>
</g>
</g>
<!-- Node958&#45;&gt;Node961 -->
<g id="edge3" class="edge">
<title>Node958&#45;&gt;Node961</title>
<path fill="none" stroke="midnightblue" d="M158.14,-204C166.5,-204 175.1,-204 183.75,-204"/>
<polygon fill="midnightblue" stroke="midnightblue" points="158.09,-200.5 148.09,-204 158.09,-207.5 158.09,-200.5"/>
</g>
<!-- Node963 -->
<g id="node6" class="node">
<title>Node963</title>
<g id="a_node6"><a xlink:href="classDynExpInstr_1_1gRPCInstrumentTasks_1_1UpdateTask.html" target="_top" xlink:title="Defines a task for updating an instrument within an instrument inheritance hierarchy....">
<polygon fill="white" stroke="black" points="224.5,-117.5 224.5,-158.5 391.5,-158.5 391.5,-117.5 224.5,-117.5"/>
<text text-anchor="start" x="232.5" y="-146.5" font-family="Helvetica,sans-Serif" font-size="10.00">DynExpInstr::gRPCInstrument</text>
<text text-anchor="start" x="232.5" y="-135.5" font-family="Helvetica,sans-Serif" font-size="10.00">Tasks::UpdateTask&lt; BaseInstr,</text>
<text text-anchor="middle" x="308" y="-124.5" font-family="Helvetica,sans-Serif" font-size="10.00">, gRPCStubs &gt;</text>
</a>
</g>
</g>
<!-- Node958&#45;&gt;Node963 -->
<g id="edge5" class="edge">
<title>Node958&#45;&gt;Node963</title>
<path fill="none" stroke="midnightblue" d="M112.85,-191.19C133.73,-184.29 160.19,-175.82 184,-169 197.02,-165.27 210.88,-161.55 224.43,-158.04"/>
<polygon fill="midnightblue" stroke="midnightblue" points="111.46,-187.96 103.08,-194.44 113.67,-194.61 111.46,-187.96"/>
</g>
<!-- Node1 -->
<g id="node3" class="node">
<title>Node1</title>
<g id="a_node3"><a xlink:href="classDynExpInstr_1_1NetworkSpectrometerTasks_1_1UpdateTask.html" target="_top" xlink:title=" ">
<polygon fill="white" stroke="black" points="468,-260 468,-290 657,-290 657,-260 468,-260"/>
<text text-anchor="start" x="476" y="-278" font-family="Helvetica,sans-Serif" font-size="10.00">DynExpInstr::NetworkSpectrometer</text>
<text text-anchor="middle" x="562.5" y="-267" font-family="Helvetica,sans-Serif" font-size="10.00">Tasks::UpdateTask</text>
</a>
</g>
</g>
<!-- Node0&#45;&gt;Node1 -->
<g id="edge2" class="edge">
<title>Node0&#45;&gt;Node1</title>
<path fill="none" stroke="midnightblue" d="M422.48,-275C437.6,-275 452.97,-275 467.7,-275"/>
<polygon fill="midnightblue" stroke="midnightblue" points="422.07,-271.5 412.07,-275 422.07,-278.5 422.07,-271.5"/>
</g>
<!-- Node962 -->
<g id="node5" class="node">
<title>Node962</title>
<g id="a_node5"><a xlink:href="classDynExpInstr_1_1WidefieldLocalizationTasks_1_1UpdateTask.html" target="_top" xlink:title=" ">
<polygon fill="white" stroke="black" points="469.5,-189 469.5,-219 655.5,-219 655.5,-189 469.5,-189"/>
<text text-anchor="start" x="477.5" y="-207" font-family="Helvetica,sans-Serif" font-size="10.00">DynExpInstr::WidefieldLocalization</text>
<text text-anchor="middle" x="562.5" y="-196" font-family="Helvetica,sans-Serif" font-size="10.00">Tasks::UpdateTask</text>
</a>
</g>
</g>
<!-- Node961&#45;&gt;Node962 -->
<g id="edge4" class="edge">
<title>Node961&#45;&gt;Node962</title>
<path fill="none" stroke="midnightblue" d="M442.56,-204C451.64,-204 460.68,-204 469.47,-204"/>
<polygon fill="midnightblue" stroke="midnightblue" points="442.29,-200.5 432.29,-204 442.29,-207.5 442.29,-200.5"/>
</g>
<!-- Node964 -->
<g id="node7" class="node">
<title>Node964</title>
<g id="a_node7"><a xlink:href="classDynExpInstr_1_1NetworkDataStreamInstrumentTasks_1_1UpdateTask.html" target="_top" xlink:title=" ">
<polygon fill="white" stroke="black" points="489.5,-115 489.5,-167 635.5,-167 635.5,-115 489.5,-115"/>
<text text-anchor="start" x="497.5" y="-155" font-family="Helvetica,sans-Serif" font-size="10.00">DynExpInstr::NetworkData</text>
<text text-anchor="start" x="497.5" y="-144" font-family="Helvetica,sans-Serif" font-size="10.00">StreamInstrumentTasks</text>
<text text-anchor="start" x="497.5" y="-133" font-family="Helvetica,sans-Serif" font-size="10.00">::UpdateTask&lt; BaseInstr,</text>
<text text-anchor="middle" x="562.5" y="-122" font-family="Helvetica,sans-Serif" font-size="10.00"> 0, gRPCStubs... &gt;</text>
</a>
</g>
</g>
<!-- Node963&#45;&gt;Node964 -->
<g id="edge6" class="edge">
<title>Node963&#45;&gt;Node964</title>
<path fill="none" stroke="midnightblue" d="M401.77,-139.1C430.63,-139.45 462.01,-139.82 489.25,-140.14"/>
<polygon fill="midnightblue" stroke="midnightblue" points="401.72,-135.6 391.68,-138.98 401.64,-142.6 401.72,-135.6"/>
</g>
<!-- Node970 -->
<g id="node13" class="node">
<title>Node970</title>
<g id="a_node13"><a xlink:href="classDynExpInstr_1_1NetworkDataStreamInstrumentTasks_1_1UpdateTask.html" target="_top" xlink:title=" ">
<polygon fill="white" stroke="black" points="489.5,-44 489.5,-96 635.5,-96 635.5,-44 489.5,-44"/>
<text text-anchor="start" x="497.5" y="-84" font-family="Helvetica,sans-Serif" font-size="10.00">DynExpInstr::NetworkData</text>
<text text-anchor="start" x="497.5" y="-73" font-family="Helvetica,sans-Serif" font-size="10.00">StreamInstrumentTasks</text>
<text text-anchor="start" x="497.5" y="-62" font-family="Helvetica,sans-Serif" font-size="10.00">::UpdateTask&lt; BaseInstr,</text>
<text text-anchor="middle" x="562.5" y="-51" font-family="Helvetica,sans-Serif" font-size="10.00">, gRPCStubs &gt;</text>
</a>
</g>
</g>
<!-- Node963&#45;&gt;Node970 -->
<g id="edge12" class="edge">
<title>Node963&#45;&gt;Node970</title>
<path fill="none" stroke="midnightblue" d="M395.24,-114.77C425.83,-106.54 459.9,-97.36 489.21,-89.47"/>
<polygon fill="midnightblue" stroke="midnightblue" points="394.19,-111.43 385.44,-117.41 396.01,-118.19 394.19,-111.43"/>
</g>
<!-- Node965 -->
<g id="node8" class="node">
<title>Node965</title>
<g id="a_node8"><a xlink:href="classDynExpInstr_1_1NetworkAnalogInTasks_1_1UpdateTask.html" target="_top" xlink:title=" ">
<polygon fill="white" stroke="black" points="697,-240.5 697,-281.5 873,-281.5 873,-240.5 697,-240.5"/>
<text text-anchor="start" x="705" y="-269.5" font-family="Helvetica,sans-Serif" font-size="10.00">DynExpInstr::NetworkAnalog</text>
<text text-anchor="start" x="705" y="-258.5" font-family="Helvetica,sans-Serif" font-size="10.00">InTasks::UpdateTask&lt; BaseInstr,</text>
<text text-anchor="middle" x="785" y="-247.5" font-family="Helvetica,sans-Serif" font-size="10.00">, gRPCStubs &gt;</text>
</a>
</g>
</g>
<!-- Node964&#45;&gt;Node965 -->
<g id="edge7" class="edge">
<title>Node964&#45;&gt;Node965</title>
<path fill="none" stroke="midnightblue" d="M644.79,-171.4C649.06,-174.07 653.17,-176.93 657,-180 678.65,-197.35 670.7,-214.49 693,-231 697.68,-234.46 702.78,-237.54 708.1,-240.27"/>
<polygon fill="midnightblue" stroke="midnightblue" points="646.21,-168.18 635.8,-166.2 642.71,-174.24 646.21,-168.18"/>
</g>
<!-- Node966 -->
<g id="node9" class="node">
<title>Node966</title>
<g id="a_node9"><a xlink:href="classDynExpInstr_1_1NetworkAnalogOutTasks_1_1UpdateTask.html" target="_top" xlink:title=" ">
<polygon fill="white" stroke="black" points="693,-180.5 693,-221.5 877,-221.5 877,-180.5 693,-180.5"/>
<text text-anchor="start" x="701" y="-209.5" font-family="Helvetica,sans-Serif" font-size="10.00">DynExpInstr::NetworkAnalog</text>
<text text-anchor="start" x="701" y="-198.5" font-family="Helvetica,sans-Serif" font-size="10.00">OutTasks::UpdateTask&lt; BaseInstr,</text>
<text text-anchor="middle" x="785" y="-187.5" font-family="Helvetica,sans-Serif" font-size="10.00">, gRPCStubs &gt;</text>
</a>
</g>
</g>
<!-- Node964&#45;&gt;Node966 -->
<g id="edge8" class="edge">
<title>Node964&#45;&gt;Node966</title>
<path fill="none" stroke="midnightblue" d="M645.41,-163.29C666.12,-168.92 688.25,-174.94 708.61,-180.49"/>
<polygon fill="midnightblue" stroke="midnightblue" points="646.27,-159.89 635.7,-160.65 644.43,-166.65 646.27,-159.89"/>
</g>
<!-- Node967 -->
<g id="node10" class="node">
<title>Node967</title>
<g id="a_node10"><a xlink:href="classDynExpInstr_1_1NetworkDigitalInTasks_1_1UpdateTask.html" target="_top" xlink:title=" ">
<polygon fill="white" stroke="black" points="697,-120.5 697,-161.5 873,-161.5 873,-120.5 697,-120.5"/>
<text text-anchor="start" x="705" y="-149.5" font-family="Helvetica,sans-Serif" font-size="10.00">DynExpInstr::NetworkDigital</text>
<text text-anchor="start" x="705" y="-138.5" font-family="Helvetica,sans-Serif" font-size="10.00">InTasks::UpdateTask&lt; BaseInstr,</text>
<text text-anchor="middle" x="785" y="-127.5" font-family="Helvetica,sans-Serif" font-size="10.00">, gRPCStubs &gt;</text>
</a>
</g>
</g>
<!-- Node964&#45;&gt;Node967 -->
<g id="edge9" class="edge">
<title>Node964&#45;&gt;Node967</title>
<path fill="none" stroke="midnightblue" d="M645.88,-141C662.45,-141 679.91,-141 696.64,-141"/>
<polygon fill="midnightblue" stroke="midnightblue" points="645.7,-137.5 635.7,-141 645.7,-144.5 645.7,-137.5"/>
</g>
<!-- Node968 -->
<g id="node11" class="node">
<title>Node968</title>
<g id="a_node11"><a xlink:href="classDynExpInstr_1_1NetworkDigitalOutTasks_1_1UpdateTask.html" target="_top" xlink:title=" ">
<polygon fill="white" stroke="black" points="693,-60.5 693,-101.5 877,-101.5 877,-60.5 693,-60.5"/>
<text text-anchor="start" x="701" y="-89.5" font-family="Helvetica,sans-Serif" font-size="10.00">DynExpInstr::NetworkDigital</text>
<text text-anchor="start" x="701" y="-78.5" font-family="Helvetica,sans-Serif" font-size="10.00">OutTasks::UpdateTask&lt; BaseInstr,</text>
<text text-anchor="middle" x="785" y="-67.5" font-family="Helvetica,sans-Serif" font-size="10.00">, gRPCStubs &gt;</text>
</a>
</g>
</g>
<!-- Node964&#45;&gt;Node968 -->
<g id="edge10" class="edge">
<title>Node964&#45;&gt;Node968</title>
<path fill="none" stroke="midnightblue" d="M645.41,-118.71C666.12,-113.08 688.25,-107.06 708.61,-101.51"/>
<polygon fill="midnightblue" stroke="midnightblue" points="644.43,-115.35 635.7,-121.35 646.27,-122.11 644.43,-115.35"/>
</g>
<!-- Node969 -->
<g id="node12" class="node">
<title>Node969</title>
<g id="a_node12"><a xlink:href="classDynExpInstr_1_1NetworkTimeTaggerTasks_1_1UpdateTask.html" target="_top" xlink:title=" ">
<polygon fill="white" stroke="black" points="711,-0.5 711,-41.5 859,-41.5 859,-0.5 711,-0.5"/>
<text text-anchor="start" x="719" y="-29.5" font-family="Helvetica,sans-Serif" font-size="10.00">DynExpInstr::NetworkTime</text>
<text text-anchor="start" x="719" y="-18.5" font-family="Helvetica,sans-Serif" font-size="10.00">TaggerTasks::UpdateTask</text>
<text text-anchor="middle" x="785" y="-7.5" font-family="Helvetica,sans-Serif" font-size="10.00">&lt; BaseInstr,, gRPCStubs &gt;</text>
</a>
</g>
</g>
<!-- Node964&#45;&gt;Node969 -->
<g id="edge11" class="edge">
<title>Node964&#45;&gt;Node969</title>
<path fill="none" stroke="midnightblue" d="M644.88,-113.42C649.14,-110.83 653.21,-108.03 657,-105 679.52,-86.97 670.05,-68.47 693,-51 698.43,-46.87 704.45,-43.29 710.74,-40.2"/>
<polygon fill="midnightblue" stroke="midnightblue" points="642.96,-110.48 635.94,-118.41 646.38,-116.59 642.96,-110.48"/>
</g>
</g>
</svg>
