<?xml version="1.0" encoding="UTF-8" standalone="no"?>
<!DOCTYPE svg PUBLIC "-//W3C//DTD SVG 1.1//EN"
 "http://www.w3.org/Graphics/SVG/1.1/DTD/svg11.dtd">
<!-- Generated by graphviz version 2.43.0 (0)
 -->
<!-- Title: Graphical Class Hierarchy Pages: 1 -->
<svg width="792pt" height="746pt"
 viewBox="0.00 0.00 792.00 746.00" xmlns="http://www.w3.org/2000/svg" xmlns:xlink="http://www.w3.org/1999/xlink">
<g id="graph0" class="graph" transform="scale(1 1) rotate(0) translate(4 742)">
<title>Graphical Class Hierarchy</title>
<!-- Node0 -->
<g id="Node000000" class="node">
<title>Node0</title>
<g id="a_Node000000"><a xlink:href="classDynExp_1_1EventBase.html" target="_top" xlink:title="Common base class for all events to store them in a FIFO queue to be invoked later.">
<polygon fill="white" stroke="#666666" points="112,-387.5 0,-387.5 0,-368.5 112,-368.5 112,-387.5"/>
<text text-anchor="middle" x="56" y="-375.5" font-family="Helvetica,sans-Serif" font-size="10.00">DynExp::EventBase</text>
</a>
</g>
</g>
<!-- Node1 -->
<g id="Node000001" class="node">
<title>Node1</title>
<g id="a_Node000001"><a xlink:href="classDynExp_1_1DefaultEvent.html" target="_top" xlink:title="Describes an event which consists of a receiver&#39;s member function and a set of arguments to call this...">
<polygon fill="white" stroke="#666666" points="323,-415 148,-415 148,-385 323,-385 323,-415"/>
<text text-anchor="start" x="156" y="-403" font-family="Helvetica,sans-Serif" font-size="10.00">DynExp::DefaultEvent</text>
<text text-anchor="middle" x="235.5" y="-392" font-family="Helvetica,sans-Serif" font-size="10.00">&lt; ReceiverType, ArgTupleType &gt;</text>
</a>
</g>
</g>
<!-- Node0&#45;&gt;Node1 -->
<g id="edge162_Node000000_Node000001" class="edge">
<title>Node0&#45;&gt;Node1</title>
<g id="a_edge162_Node000000_Node000001"><a xlink:title=" ">
<path fill="none" stroke="#63b8ff" d="M122.18,-386.08C130.5,-387.11 139.13,-388.18 147.73,-389.25"/>
<polygon fill="#63b8ff" stroke="#63b8ff" points="122.54,-382.6 112.19,-384.84 121.68,-389.54 122.54,-382.6"/>
</a>
</g>
</g>
<!-- Node2 -->
<g id="Node000002" class="node">
<title>Node2</title>
<g id="a_Node000002"><a xlink:href="classDynExp_1_1InterModuleEventBase.html" target="_top" xlink:title="Common base class for all inter&#45;module events.">
<polygon fill="white" stroke="#666666" points="320.5,-366.5 150.5,-366.5 150.5,-347.5 320.5,-347.5 320.5,-366.5"/>
<text text-anchor="middle" x="235.5" y="-354.5" font-family="Helvetica,sans-Serif" font-size="10.00">DynExp::InterModuleEventBase</text>
</a>
</g>
</g>
<!-- Node0&#45;&gt;Node2 -->
<g id="edge163_Node000000_Node000002" class="edge">
<title>Node0&#45;&gt;Node2</title>
<g id="a_edge163_Node000000_Node000002"><a xlink:title=" ">
<path fill="none" stroke="#63b8ff" d="M122.31,-370.27C132.6,-369.06 143.35,-367.78 153.93,-366.53"/>
<polygon fill="#63b8ff" stroke="#63b8ff" points="121.71,-366.82 112.19,-371.47 122.53,-373.77 121.71,-366.82"/>
</a>
</g>
</g>
<!-- Node3 -->
<g id="Node000003" class="node">
<title>Node3</title>
<g id="a_Node000003"><a xlink:href="classDynExp_1_1InterModuleEvent.html" target="_top" xlink:title=" ">
<polygon fill="white" stroke="#666666" points="533.5,-738 387.5,-738 387.5,-708 533.5,-708 533.5,-738"/>
<text text-anchor="start" x="395.5" y="-726" font-family="Helvetica,sans-Serif" font-size="10.00">DynExp::InterModuleEvent</text>
<text text-anchor="middle" x="460.5" y="-715" font-family="Helvetica,sans-Serif" font-size="10.00">&lt; AutofocusEvent, bool &gt;</text>
</a>
</g>
</g>
<!-- Node2&#45;&gt;Node3 -->
<g id="edge164_Node000002_Node000003" class="edge">
<title>Node2&#45;&gt;Node3</title>
<g id="a_edge164_Node000002_Node000003"><a xlink:title=" ">
<path fill="none" stroke="#63b8ff" d="M319.66,-372.65C320.82,-373.71 321.94,-374.82 323,-376 419.63,-483.37 263.36,-590.76 359,-699 366.54,-707.54 376.53,-713.31 387.28,-717.18"/>
<polygon fill="#63b8ff" stroke="#63b8ff" points="321.47,-369.64 311.33,-366.55 317.33,-375.28 321.47,-369.64"/>
</a>
</g>
</g>
<!-- Node5 -->
<g id="Node000005" class="node">
<title>Node5</title>
<g id="a_Node000005"><a xlink:href="classDynExp_1_1InterModuleEvent.html" target="_top" xlink:title=" ">
<polygon fill="white" stroke="#666666" points="534.5,-689.5 386.5,-689.5 386.5,-648.5 534.5,-648.5 534.5,-689.5"/>
<text text-anchor="start" x="394.5" y="-677.5" font-family="Helvetica,sans-Serif" font-size="10.00">DynExp::InterModuleEvent</text>
<text text-anchor="start" x="394.5" y="-666.5" font-family="Helvetica,sans-Serif" font-size="10.00">&lt; FinishedAutofocusEvent,</text>
<text text-anchor="middle" x="460.5" y="-655.5" font-family="Helvetica,sans-Serif" font-size="10.00"> bool, double &gt;</text>
</a>
</g>
</g>
<!-- Node2&#45;&gt;Node5 -->
<g id="edge166_Node000002_Node000005" class="edge">
<title>Node2&#45;&gt;Node5</title>
<g id="a_edge166_Node000002_Node000005"><a xlink:title=" ">
<path fill="none" stroke="#63b8ff" d="M319.62,-372.69C320.8,-373.73 321.92,-374.83 323,-376 403.01,-462.7 282.24,-549.4 359,-639 366.34,-647.57 376.03,-653.75 386.48,-658.2"/>
<polygon fill="#63b8ff" stroke="#63b8ff" points="321.39,-369.65 311.23,-366.65 317.3,-375.33 321.39,-369.65"/>
</a>
</g>
</g>
<!-- Node7 -->
<g id="Node000007" class="node">
<title>Node7</title>
<g id="a_Node000007"><a xlink:href="classDynExp_1_1InterModuleEvent.html" target="_top" xlink:title=" ">
<polygon fill="white" stroke="#666666" points="550,-630 371,-630 371,-600 550,-600 550,-630"/>
<text text-anchor="start" x="379" y="-618" font-family="Helvetica,sans-Serif" font-size="10.00">DynExp::InterModuleEvent</text>
<text text-anchor="middle" x="460.5" y="-607" font-family="Helvetica,sans-Serif" font-size="10.00">&lt; ImageCapturingPausedEvent &gt;</text>
</a>
</g>
</g>
<!-- Node2&#45;&gt;Node7 -->
<g id="edge168_Node000002_Node000007" class="edge">
<title>Node2&#45;&gt;Node7</title>
<g id="a_edge168_Node000002_Node000007"><a xlink:title=" ">
<path fill="none" stroke="#63b8ff" d="M319.09,-372.33C320.46,-373.47 321.76,-374.7 323,-376 389.76,-446.21 292.88,-520.19 359,-591 362.55,-594.8 366.59,-598.05 370.95,-600.82"/>
<polygon fill="#63b8ff" stroke="#63b8ff" points="320.92,-369.34 310.7,-366.54 316.94,-375.1 320.92,-369.34"/>
</a>
</g>
</g>
<!-- Node9 -->
<g id="Node000009" class="node">
<title>Node9</title>
<g id="a_Node000009"><a xlink:href="classDynExp_1_1InterModuleEvent.html" target="_top" xlink:title=" ">
<polygon fill="white" stroke="#666666" points="556,-582 365,-582 365,-552 556,-552 556,-582"/>
<text text-anchor="start" x="373" y="-570" font-family="Helvetica,sans-Serif" font-size="10.00">DynExp::InterModuleEvent</text>
<text text-anchor="middle" x="460.5" y="-559" font-family="Helvetica,sans-Serif" font-size="10.00">&lt; ImageCapturingResumedEvent &gt;</text>
</a>
</g>
</g>
<!-- Node2&#45;&gt;Node9 -->
<g id="edge170_Node000002_Node000009" class="edge">
<title>Node2&#45;&gt;Node9</title>
<g id="a_edge170_Node000002_Node000009"><a xlink:title=" ">
<path fill="none" stroke="#63b8ff" d="M318.5,-371.99C320.07,-373.24 321.58,-374.57 323,-376 376.58,-429.79 305.91,-488.72 359,-543 362.26,-546.33 365.9,-549.24 369.8,-551.77"/>
<polygon fill="#63b8ff" stroke="#63b8ff" points="320.39,-369.05 310.1,-366.51 316.56,-374.91 320.39,-369.05"/>
</a>
</g>
</g>
<!-- Node11 -->
<g id="Node000011" class="node">
<title>Node11</title>
<g id="a_Node000011"><a xlink:href="classDynExp_1_1InterModuleEvent.html" target="_top" xlink:title=" ">
<polygon fill="white" stroke="#666666" points="543,-533.5 378,-533.5 378,-492.5 543,-492.5 543,-533.5"/>
<text text-anchor="start" x="386" y="-521.5" font-family="Helvetica,sans-Serif" font-size="10.00">DynExp::InterModuleEvent</text>
<text text-anchor="start" x="386" y="-510.5" font-family="Helvetica,sans-Serif" font-size="10.00">&lt; PauseImageCapturingEvent,</text>
<text text-anchor="middle" x="460.5" y="-499.5" font-family="Helvetica,sans-Serif" font-size="10.00"> bool &gt;</text>
</a>
</g>
</g>
<!-- Node2&#45;&gt;Node11 -->
<g id="edge172_Node000002_Node000011" class="edge">
<title>Node2&#45;&gt;Node11</title>
<g id="a_edge172_Node000002_Node000011"><a xlink:title=" ">
<path fill="none" stroke="#63b8ff" d="M317.57,-371.71C319.46,-373.03 321.28,-374.46 323,-376 360.35,-409.51 322.91,-448.14 359,-483 364.5,-488.31 370.9,-492.69 377.76,-496.3"/>
<polygon fill="#63b8ff" stroke="#63b8ff" points="319.2,-368.61 308.8,-366.58 315.67,-374.65 319.2,-368.61"/>
</a>
</g>
</g>
<!-- Node13 -->
<g id="Node000013" class="node">
<title>Node13</title>
<g id="a_Node000013"><a xlink:href="classDynExp_1_1InterModuleEvent.html" target="_top" xlink:title=" ">
<polygon fill="white" stroke="#666666" points="553,-474 368,-474 368,-444 553,-444 553,-474"/>
<text text-anchor="start" x="376" y="-462" font-family="Helvetica,sans-Serif" font-size="10.00">DynExp::InterModuleEvent</text>
<text text-anchor="middle" x="460.5" y="-451" font-family="Helvetica,sans-Serif" font-size="10.00">&lt; ResumeImageCapturingEvent &gt;</text>
</a>
</g>
</g>
<!-- Node2&#45;&gt;Node13 -->
<g id="edge174_Node000002_Node000013" class="edge">
<title>Node2&#45;&gt;Node13</title>
<g id="a_edge174_Node000002_Node000013"><a xlink:title=" ">
<path fill="none" stroke="#63b8ff" d="M314.5,-370.79C317.46,-372.35 320.31,-374.08 323,-376 348.01,-393.84 334.15,-416.94 359,-435 363.64,-438.38 368.7,-441.28 373.98,-443.78"/>
<polygon fill="#63b8ff" stroke="#63b8ff" points="315.87,-367.57 305.32,-366.6 312.96,-373.94 315.87,-367.57"/>
</a>
</g>
</g>
<!-- Node15 -->
<g id="Node000015" class="node">
<title>Node15</title>
<g id="a_Node000015"><a xlink:href="classDynExp_1_1InterModuleEvent.html" target="_top" xlink:title=" ">
<polygon fill="white" stroke="#666666" points="556,-426 365,-426 365,-396 556,-396 556,-426"/>
<text text-anchor="start" x="373" y="-414" font-family="Helvetica,sans-Serif" font-size="10.00">DynExp::InterModuleEvent</text>
<text text-anchor="middle" x="460.5" y="-403" font-family="Helvetica,sans-Serif" font-size="10.00">&lt; PauseSpectrumRecordingEvent &gt;</text>
</a>
</g>
</g>
<!-- Node2&#45;&gt;Node15 -->
<g id="edge176_Node000002_Node000015" class="edge">
<title>Node2&#45;&gt;Node15</title>
<g id="a_edge176_Node000002_Node000015"><a xlink:title=" ">
<path fill="none" stroke="#63b8ff" d="M293.19,-368.77C303.16,-371.03 313.41,-373.49 323,-376 339.18,-380.24 342.86,-382.61 359,-387 370.25,-390.06 382.27,-393.11 393.94,-395.96"/>
<polygon fill="#63b8ff" stroke="#63b8ff" points="293.87,-365.33 283.35,-366.57 292.35,-372.17 293.87,-365.33"/>
</a>
</g>
</g>
<!-- Node17 -->
<g id="Node000017" class="node">
<title>Node17</title>
<g id="a_Node000017"><a xlink:href="classDynExp_1_1InterModuleEvent.html" target="_top" xlink:title=" ">
<polygon fill="white" stroke="#666666" points="533.5,-377.5 387.5,-377.5 387.5,-336.5 533.5,-336.5 533.5,-377.5"/>
<text text-anchor="start" x="395.5" y="-365.5" font-family="Helvetica,sans-Serif" font-size="10.00">DynExp::InterModuleEvent</text>
<text text-anchor="start" x="395.5" y="-354.5" font-family="Helvetica,sans-Serif" font-size="10.00">&lt; RecordSpectrumEvent,</text>
<text text-anchor="middle" x="460.5" y="-343.5" font-family="Helvetica,sans-Serif" font-size="10.00"> std::string &gt;</text>
</a>
</g>
</g>
<!-- Node2&#45;&gt;Node17 -->
<g id="edge178_Node000002_Node000017" class="edge">
<title>Node2&#45;&gt;Node17</title>
<g id="a_edge178_Node000002_Node000017"><a xlink:title=" ">
<path fill="none" stroke="#63b8ff" d="M330.93,-357C349.86,-357 369.45,-357 387.47,-357"/>
<polygon fill="#63b8ff" stroke="#63b8ff" points="330.81,-353.5 320.81,-357 330.81,-360.5 330.81,-353.5"/>
</a>
</g>
</g>
<!-- Node19 -->
<g id="Node000019" class="node">
<title>Node19</title>
<g id="a_Node000019"><a xlink:href="classDynExp_1_1InterModuleEvent.html" target="_top" xlink:title=" ">
<polygon fill="white" stroke="#666666" points="561.5,-318 359.5,-318 359.5,-288 561.5,-288 561.5,-318"/>
<text text-anchor="start" x="367.5" y="-306" font-family="Helvetica,sans-Serif" font-size="10.00">DynExp::InterModuleEvent</text>
<text text-anchor="middle" x="460.5" y="-295" font-family="Helvetica,sans-Serif" font-size="10.00">&lt; ResumeSpectrumRecordingEvent &gt;</text>
</a>
</g>
</g>
<!-- Node2&#45;&gt;Node19 -->
<g id="edge180_Node000002_Node000019" class="edge">
<title>Node2&#45;&gt;Node19</title>
<g id="a_edge180_Node000002_Node000019"><a xlink:title=" ">
<path fill="none" stroke="#63b8ff" d="M285.7,-345.09C318.59,-337.12 362.12,-326.58 397.39,-318.04"/>
<polygon fill="#63b8ff" stroke="#63b8ff" points="284.75,-341.71 275.85,-347.47 286.4,-348.52 284.75,-341.71"/>
</a>
</g>
</g>
<!-- Node21 -->
<g id="Node000021" class="node">
<title>Node21</title>
<g id="a_Node000021"><a xlink:href="classDynExp_1_1InterModuleEvent.html" target="_top" xlink:title=" ">
<polygon fill="white" stroke="#666666" points="547.5,-270 373.5,-270 373.5,-240 547.5,-240 547.5,-270"/>
<text text-anchor="start" x="381.5" y="-258" font-family="Helvetica,sans-Serif" font-size="10.00">DynExp::InterModuleEvent</text>
<text text-anchor="middle" x="460.5" y="-247" font-family="Helvetica,sans-Serif" font-size="10.00">&lt; RecordSpectrumEvent, bool &gt;</text>
</a>
</g>
</g>
<!-- Node2&#45;&gt;Node21 -->
<g id="edge182_Node000002_Node000021" class="edge">
<title>Node2&#45;&gt;Node21</title>
<g id="a_edge182_Node000002_Node000021"><a xlink:title=" ">
<path fill="none" stroke="#63b8ff" d="M256.69,-341.13C280.06,-323.51 320.3,-295.39 359,-279 367.01,-275.61 375.59,-272.64 384.24,-270.05"/>
<polygon fill="#63b8ff" stroke="#63b8ff" points="254.41,-338.47 248.6,-347.33 258.67,-344.03 254.41,-338.47"/>
</a>
</g>
</g>
<!-- Node23 -->
<g id="Node000023" class="node">
<title>Node23</title>
<g id="a_Node000023"><a xlink:href="classDynExp_1_1InterModuleEvent.html" target="_top" xlink:title=" ">
<polygon fill="white" stroke="#666666" points="562,-222 359,-222 359,-192 562,-192 562,-222"/>
<text text-anchor="start" x="367" y="-210" font-family="Helvetica,sans-Serif" font-size="10.00">DynExp::InterModuleEvent</text>
<text text-anchor="middle" x="460.5" y="-199" font-family="Helvetica,sans-Serif" font-size="10.00">&lt; SpectrumFinishedRecordingEvent &gt;</text>
</a>
</g>
</g>
<!-- Node2&#45;&gt;Node23 -->
<g id="edge184_Node000002_Node000023" class="edge">
<title>Node2&#45;&gt;Node23</title>
<g id="a_edge184_Node000002_Node000023"><a xlink:title=" ">
<path fill="none" stroke="#63b8ff" d="M248.77,-338.97C268.59,-311.28 310.39,-258.64 359,-231 365.08,-227.54 371.64,-224.58 378.4,-222.05"/>
<polygon fill="#63b8ff" stroke="#63b8ff" points="245.79,-337.13 242.91,-347.32 251.52,-341.14 245.79,-337.13"/>
</a>
</g>
</g>
<!-- Node25 -->
<g id="Node000025" class="node">
<title>Node25</title>
<g id="a_Node000025"><a xlink:href="classDynExp_1_1InterModuleEvent.html" target="_top" xlink:title=" ">
<polygon fill="white" stroke="#666666" points="533.5,-174 387.5,-174 387.5,-144 533.5,-144 533.5,-174"/>
<text text-anchor="start" x="395.5" y="-162" font-family="Helvetica,sans-Serif" font-size="10.00">DynExp::InterModuleEvent</text>
<text text-anchor="middle" x="460.5" y="-151" font-family="Helvetica,sans-Serif" font-size="10.00">&lt; StartEvent &gt;</text>
</a>
</g>
</g>
<!-- Node2&#45;&gt;Node25 -->
<g id="edge186_Node000002_Node000025" class="edge">
<title>Node2&#45;&gt;Node25</title>
<g id="a_edge186_Node000002_Node000025"><a xlink:title=" ">
<path fill="none" stroke="#63b8ff" d="M244.39,-337.82C260.35,-301.56 300,-223.01 359,-183 367.54,-177.21 377.31,-172.81 387.33,-169.47"/>
<polygon fill="#63b8ff" stroke="#63b8ff" points="241.08,-336.67 240.37,-347.24 247.52,-339.42 241.08,-336.67"/>
</a>
</g>
</g>
<!-- Node27 -->
<g id="Node000027" class="node">
<title>Node27</title>
<g id="a_Node000027"><a xlink:href="classDynExp_1_1InterModuleEvent.html" target="_top" xlink:title=" ">
<polygon fill="white" stroke="#666666" points="533.5,-126 387.5,-126 387.5,-96 533.5,-96 533.5,-126"/>
<text text-anchor="start" x="395.5" y="-114" font-family="Helvetica,sans-Serif" font-size="10.00">DynExp::InterModuleEvent</text>
<text text-anchor="middle" x="460.5" y="-103" font-family="Helvetica,sans-Serif" font-size="10.00">&lt; StopEvent &gt;</text>
</a>
</g>
</g>
<!-- Node2&#45;&gt;Node27 -->
<g id="edge188_Node000002_Node000027" class="edge">
<title>Node2&#45;&gt;Node27</title>
<g id="a_edge188_Node000002_Node000027"><a xlink:title=" ">
<path fill="none" stroke="#63b8ff" d="M241.45,-337.46C253.56,-293.87 288.92,-188.33 359,-135 367.35,-128.65 377.13,-123.94 387.26,-120.47"/>
<polygon fill="#63b8ff" stroke="#63b8ff" points="238.07,-336.58 238.87,-347.14 244.83,-338.38 238.07,-336.58"/>
</a>
</g>
</g>
<!-- Node29 -->
<g id="Node000029" class="node">
<title>Node29</title>
<g id="a_Node000029"><a xlink:href="classDynExp_1_1InterModuleEvent.html" target="_top" xlink:title=" ">
<polygon fill="white" stroke="#666666" points="533.5,-78 387.5,-78 387.5,-48 533.5,-48 533.5,-78"/>
<text text-anchor="start" x="395.5" y="-66" font-family="Helvetica,sans-Serif" font-size="10.00">DynExp::InterModuleEvent</text>
<text text-anchor="middle" x="460.5" y="-55" font-family="Helvetica,sans-Serif" font-size="10.00">&lt; TriggerEvent &gt;</text>
</a>
</g>
</g>
<!-- Node2&#45;&gt;Node29 -->
<g id="edge190_Node000002_Node000029" class="edge">
<title>Node2&#45;&gt;Node29</title>
<g id="a_edge190_Node000002_Node000029"><a xlink:title=" ">
<path fill="none" stroke="#63b8ff" d="M239.45,-337.14C248,-286.93 277.58,-154.15 359,-87 367.23,-80.21 377.07,-75.28 387.32,-71.71"/>
<polygon fill="#63b8ff" stroke="#63b8ff" points="235.95,-336.87 237.82,-347.3 242.86,-337.98 235.95,-336.87"/>
</a>
</g>
</g>
<!-- Node31 -->
<g id="Node000031" class="node">
<title>Node31</title>
<g id="a_Node000031"><a xlink:href="classDynExp_1_1InterModuleEvent.html" target="_top" xlink:title="Typed base class for inter&#45;module events to realize CRTP.">
<polygon fill="white" stroke="#666666" points="552,-30 369,-30 369,0 552,0 552,-30"/>
<text text-anchor="start" x="377" y="-18" font-family="Helvetica,sans-Serif" font-size="10.00">DynExp::InterModuleEvent</text>
<text text-anchor="middle" x="460.5" y="-7" font-family="Helvetica,sans-Serif" font-size="10.00">&lt; DerivedEvent, EventFuncArgs &gt;</text>
</a>
</g>
</g>
<!-- Node2&#45;&gt;Node31 -->
<g id="edge192_Node000002_Node000031" class="edge">
<title>Node2&#45;&gt;Node31</title>
<g id="a_edge192_Node000002_Node000031"><a xlink:title=" ">
<path fill="none" stroke="#63b8ff" d="M237.95,-337.11C243.15,-281.04 265.88,-120.47 359,-39 362.92,-35.57 367.23,-32.62 371.81,-30.07"/>
<polygon fill="#63b8ff" stroke="#63b8ff" points="234.43,-337.17 237.09,-347.43 241.41,-337.75 234.43,-337.17"/>
</a>
</g>
</g>
<!-- Node4 -->
<g id="Node000004" class="node">
<title>Node4</title>
<g id="a_Node000004"><a xlink:href="classDynExpModule_1_1ImageViewer_1_1AutofocusEvent.html" target="_top" xlink:title=" ">
<polygon fill="white" stroke="#666666" points="771.5,-738 610.5,-738 610.5,-708 771.5,-708 771.5,-738"/>
<text text-anchor="start" x="618.5" y="-726" font-family="Helvetica,sans-Serif" font-size="10.00">DynExpModule::ImageViewer</text>
<text text-anchor="middle" x="691" y="-715" font-family="Helvetica,sans-Serif" font-size="10.00">::AutofocusEvent</text>
</a>
</g>
</g>
<!-- Node3&#45;&gt;Node4 -->
<g id="edge165_Node000003_Node000004" class="edge">
<title>Node3&#45;&gt;Node4</title>
<g id="a_edge165_Node000003_Node000004"><a xlink:title=" ">
<path fill="none" stroke="#63b8ff" d="M543.92,-723C565.53,-723 588.78,-723 610.24,-723"/>
<polygon fill="#63b8ff" stroke="#63b8ff" points="543.8,-719.5 533.8,-723 543.8,-726.5 543.8,-719.5"/>
</a>
</g>
</g>
<!-- Node6 -->
<g id="Node000006" class="node">
<title>Node6</title>
<g id="a_Node000006"><a xlink:href="classDynExpModule_1_1ImageViewer_1_1FinishedAutofocusEvent.html" target="_top" xlink:title=" ">
<polygon fill="white" stroke="#666666" points="771.5,-684 610.5,-684 610.5,-654 771.5,-654 771.5,-684"/>
<text text-anchor="start" x="618.5" y="-672" font-family="Helvetica,sans-Serif" font-size="10.00">DynExpModule::ImageViewer</text>
<text text-anchor="middle" x="691" y="-661" font-family="Helvetica,sans-Serif" font-size="10.00">::FinishedAutofocusEvent</text>
</a>
</g>
</g>
<!-- Node5&#45;&gt;Node6 -->
<g id="edge167_Node000005_Node000006" class="edge">
<title>Node5&#45;&gt;Node6</title>
<g id="a_edge167_Node000005_Node000006"><a xlink:title=" ">
<path fill="none" stroke="#63b8ff" d="M544.79,-669C566.22,-669 589.22,-669 610.46,-669"/>
<polygon fill="#63b8ff" stroke="#63b8ff" points="544.74,-665.5 534.74,-669 544.74,-672.5 544.74,-665.5"/>
</a>
</g>
</g>
<!-- Node8 -->
<g id="Node000008" class="node">
<title>Node8</title>
<g id="a_Node000008"><a xlink:href="classDynExpModule_1_1ImageViewer_1_1ImageCapturingPausedEvent.html" target="_top" xlink:title=" ">
<polygon fill="white" stroke="#666666" points="772.5,-630 609.5,-630 609.5,-600 772.5,-600 772.5,-630"/>
<text text-anchor="start" x="617.5" y="-618" font-family="Helvetica,sans-Serif" font-size="10.00">DynExpModule::ImageViewer</text>
<text text-anchor="middle" x="691" y="-607" font-family="Helvetica,sans-Serif" font-size="10.00">::ImageCapturingPausedEvent</text>
</a>
</g>
</g>
<!-- Node7&#45;&gt;Node8 -->
<g id="edge169_Node000007_Node000008" class="edge">
<title>Node7&#45;&gt;Node8</title>
<g id="a_edge169_Node000007_Node000008"><a xlink:title=" ">
<path fill="none" stroke="#63b8ff" d="M560.28,-615C576.62,-615 593.39,-615 609.22,-615"/>
<polygon fill="#63b8ff" stroke="#63b8ff" points="560.17,-611.5 550.17,-615 560.17,-618.5 560.17,-611.5"/>
</a>
</g>
</g>
<!-- Node10 -->
<g id="Node000010" class="node">
<title>Node10</title>
<g id="a_Node000010"><a xlink:href="classDynExpModule_1_1ImageViewer_1_1ImageCapturingResumedEvent.html" target="_top" xlink:title=" ">
<polygon fill="white" stroke="#666666" points="778,-582 604,-582 604,-552 778,-552 778,-582"/>
<text text-anchor="start" x="612" y="-570" font-family="Helvetica,sans-Serif" font-size="10.00">DynExpModule::ImageViewer</text>
<text text-anchor="middle" x="691" y="-559" font-family="Helvetica,sans-Serif" font-size="10.00">::ImageCapturingResumedEvent</text>
</a>
</g>
</g>
<!-- Node9&#45;&gt;Node10 -->
<g id="edge171_Node000009_Node000010" class="edge">
<title>Node9&#45;&gt;Node10</title>
<g id="a_edge171_Node000009_Node000010"><a xlink:title=" ">
<path fill="none" stroke="#63b8ff" d="M566.17,-567C578.8,-567 591.58,-567 603.9,-567"/>
<polygon fill="#63b8ff" stroke="#63b8ff" points="566.09,-563.5 556.09,-567 566.09,-570.5 566.09,-563.5"/>
</a>
</g>
</g>
<!-- Node12 -->
<g id="Node000012" class="node">
<title>Node12</title>
<g id="a_Node000012"><a xlink:href="classDynExpModule_1_1ImageViewer_1_1PauseImageCapturingEvent.html" target="_top" xlink:title=" ">
<polygon fill="white" stroke="#666666" points="771.5,-528 610.5,-528 610.5,-498 771.5,-498 771.5,-528"/>
<text text-anchor="start" x="618.5" y="-516" font-family="Helvetica,sans-Serif" font-size="10.00">DynExpModule::ImageViewer</text>
<text text-anchor="middle" x="691" y="-505" font-family="Helvetica,sans-Serif" font-size="10.00">::PauseImageCapturingEvent</text>
</a>
</g>
</g>
<!-- Node11&#45;&gt;Node12 -->
<g id="edge173_Node000011_Node000012" class="edge">
<title>Node11&#45;&gt;Node12</title>
<g id="a_edge173_Node000011_Node000012"><a xlink:title=" ">
<path fill="none" stroke="#63b8ff" d="M553.15,-513C572.11,-513 591.94,-513 610.42,-513"/>
<polygon fill="#63b8ff" stroke="#63b8ff" points="553.03,-509.5 543.03,-513 553.03,-516.5 553.03,-509.5"/>
</a>
</g>
</g>
<!-- Node14 -->
<g id="Node000014" class="node">
<title>Node14</title>
<g id="a_Node000014"><a xlink:href="classDynExpModule_1_1ImageViewer_1_1ResumeImageCapturingEvent.html" target="_top" xlink:title=" ">
<polygon fill="white" stroke="#666666" points="775,-474 607,-474 607,-444 775,-444 775,-474"/>
<text text-anchor="start" x="615" y="-462" font-family="Helvetica,sans-Serif" font-size="10.00">DynExpModule::ImageViewer</text>
<text text-anchor="middle" x="691" y="-451" font-family="Helvetica,sans-Serif" font-size="10.00">::ResumeImageCapturingEvent</text>
</a>
</g>
</g>
<!-- Node13&#45;&gt;Node14 -->
<g id="edge175_Node000013_Node000014" class="edge">
<title>Node13&#45;&gt;Node14</title>
<g id="a_edge175_Node000013_Node000014"><a xlink:title=" ">
<path fill="none" stroke="#63b8ff" d="M563.18,-459C577.78,-459 592.67,-459 606.86,-459"/>
<polygon fill="#63b8ff" stroke="#63b8ff" points="563.12,-455.5 553.12,-459 563.12,-462.5 563.12,-455.5"/>
</a>
</g>
</g>
<!-- Node16 -->
<g id="Node000016" class="node">
<title>Node16</title>
<g id="a_Node000016"><a xlink:href="classDynExpModule_1_1SpectrumViewer_1_1PauseSpectrumRecordingEvent.html" target="_top" xlink:title=" ">
<polygon fill="white" stroke="#666666" points="779,-426 603,-426 603,-396 779,-396 779,-426"/>
<text text-anchor="start" x="611" y="-414" font-family="Helvetica,sans-Serif" font-size="10.00">DynExpModule::SpectrumViewer</text>
<text text-anchor="middle" x="691" y="-403" font-family="Helvetica,sans-Serif" font-size="10.00">::PauseSpectrumRecordingEvent</text>
</a>
</g>
</g>
<!-- Node15&#45;&gt;Node16 -->
<g id="edge177_Node000015_Node000016" class="edge">
<title>Node15&#45;&gt;Node16</title>
<g id="a_edge177_Node000015_Node000016"><a xlink:title=" ">
<path fill="none" stroke="#63b8ff" d="M566.3,-411C578.51,-411 590.87,-411 602.81,-411"/>
<polygon fill="#63b8ff" stroke="#63b8ff" points="566.09,-407.5 556.09,-411 566.09,-414.5 566.09,-407.5"/>
</a>
</g>
</g>
<!-- Node18 -->
<g id="Node000018" class="node">
<title>Node18</title>
<g id="a_Node000018"><a xlink:href="classDynExpModule_1_1SpectrumViewer_1_1RecordSpectrumEvent.html" target="_top" xlink:title=" ">
<polygon fill="white" stroke="#666666" points="779,-372 603,-372 603,-342 779,-342 779,-372"/>
<text text-anchor="start" x="611" y="-360" font-family="Helvetica,sans-Serif" font-size="10.00">DynExpModule::SpectrumViewer</text>
<text text-anchor="middle" x="691" y="-349" font-family="Helvetica,sans-Serif" font-size="10.00">::RecordSpectrumEvent</text>
</a>
</g>
</g>
<!-- Node17&#45;&gt;Node18 -->
<g id="edge179_Node000017_Node000018" class="edge">
<title>Node17&#45;&gt;Node18</title>
<g id="a_edge179_Node000017_Node000018"><a xlink:title=" ">
<path fill="none" stroke="#63b8ff" d="M543.99,-357C563.15,-357 583.61,-357 602.96,-357"/>
<polygon fill="#63b8ff" stroke="#63b8ff" points="543.8,-353.5 533.8,-357 543.8,-360.5 543.8,-353.5"/>
</a>
</g>
</g>
<!-- Node20 -->
<g id="Node000020" class="node">
<title>Node20</title>
<g id="a_Node000020"><a xlink:href="classDynExpModule_1_1SpectrumViewer_1_1ResumeSpectrumRecordingEvent.html" target="_top" xlink:title=" ">
<polygon fill="white" stroke="#666666" points="783.5,-318 598.5,-318 598.5,-288 783.5,-288 783.5,-318"/>
<text text-anchor="start" x="606.5" y="-306" font-family="Helvetica,sans-Serif" font-size="10.00">DynExpModule::SpectrumViewer</text>
<text text-anchor="middle" x="691" y="-295" font-family="Helvetica,sans-Serif" font-size="10.00">::ResumeSpectrumRecordingEvent</text>
</a>
</g>
</g>
<!-- Node19&#45;&gt;Node20 -->
<g id="edge181_Node000019_Node000020" class="edge">
<title>Node19&#45;&gt;Node20</title>
<g id="a_edge181_Node000019_Node000020"><a xlink:title=" ">
<path fill="none" stroke="#63b8ff" d="M571.79,-303C580.74,-303 589.71,-303 598.5,-303"/>
<polygon fill="#63b8ff" stroke="#63b8ff" points="571.72,-299.5 561.72,-303 571.72,-306.5 571.72,-299.5"/>
</a>
</g>
</g>
<!-- Node22 -->
<g id="Node000022" class="node">
<title>Node22</title>
<g id="a_Node000022"><a xlink:href="classDynExpModule_1_1SpectrumViewer_1_1SetSilentModeEvent.html" target="_top" xlink:title=" ">
<polygon fill="white" stroke="#666666" points="779,-270 603,-270 603,-240 779,-240 779,-270"/>
<text text-anchor="start" x="611" y="-258" font-family="Helvetica,sans-Serif" font-size="10.00">DynExpModule::SpectrumViewer</text>
<text text-anchor="middle" x="691" y="-247" font-family="Helvetica,sans-Serif" font-size="10.00">::SetSilentModeEvent</text>
</a>
</g>
</g>
<!-- Node21&#45;&gt;Node22 -->
<g id="edge183_Node000021_Node000022" class="edge">
<title>Node21&#45;&gt;Node22</title>
<g id="a_edge183_Node000021_Node000022"><a xlink:title=" ">
<path fill="none" stroke="#63b8ff" d="M557.83,-255C572.78,-255 588.15,-255 602.88,-255"/>
<polygon fill="#63b8ff" stroke="#63b8ff" points="557.56,-251.5 547.56,-255 557.56,-258.5 557.56,-251.5"/>
</a>
</g>
</g>
<!-- Node24 -->
<g id="Node000024" class="node">
<title>Node24</title>
<g id="a_Node000024"><a xlink:href="classDynExpModule_1_1SpectrumViewer_1_1SpectrumFinishedRecordingEvent.html" target="_top" xlink:title=" ">
<polygon fill="white" stroke="#666666" points="784,-222 598,-222 598,-192 784,-192 784,-222"/>
<text text-anchor="start" x="606" y="-210" font-family="Helvetica,sans-Serif" font-size="10.00">DynExpModule::SpectrumViewer</text>
<text text-anchor="middle" x="691" y="-199" font-family="Helvetica,sans-Serif" font-size="10.00">::SpectrumFinishedRecordingEvent</text>
</a>
</g>
</g>
<!-- Node23&#45;&gt;Node24 -->
<g id="edge185_Node000023_Node000024" class="edge">
<title>Node23&#45;&gt;Node24</title>
<g id="a_edge185_Node000023_Node000024"><a xlink:title=" ">
<path fill="none" stroke="#63b8ff" d="M572.09,-207C580.66,-207 589.26,-207 597.7,-207"/>
<polygon fill="#63b8ff" stroke="#63b8ff" points="572.06,-203.5 562.06,-207 572.06,-210.5 572.06,-203.5"/>
</a>
</g>
</g>
<!-- Node26 -->
<g id="Node000026" class="node">
<title>Node26</title>
<g id="a_Node000026"><a xlink:href="classDynExpModule_1_1StartEvent.html" target="_top" xlink:title="This event is intended to make the receiver either directly start an action (like a measurement) or t...">
<polygon fill="white" stroke="#666666" points="764.5,-168.5 617.5,-168.5 617.5,-149.5 764.5,-149.5 764.5,-168.5"/>
<text text-anchor="middle" x="691" y="-156.5" font-family="Helvetica,sans-Serif" font-size="10.00">DynExpModule::StartEvent</text>
</a>
</g>
</g>
<!-- Node25&#45;&gt;Node26 -->
<g id="edge187_Node000025_Node000026" class="edge">
<title>Node25&#45;&gt;Node26</title>
<g id="a_edge187_Node000025_Node000026"><a xlink:title=" ">
<path fill="none" stroke="#63b8ff" d="M543.95,-159C567.97,-159 594.02,-159 617.39,-159"/>
<polygon fill="#63b8ff" stroke="#63b8ff" points="543.8,-155.5 533.8,-159 543.8,-162.5 543.8,-155.5"/>
</a>
</g>
</g>
<!-- Node28 -->
<g id="Node000028" class="node">
<title>Node28</title>
<g id="a_Node000028"><a xlink:href="classDynExpModule_1_1StopEvent.html" target="_top" xlink:title="This event is intended to make the receiver stop an action (like a measurement).">
<polygon fill="white" stroke="#666666" points="764,-120.5 618,-120.5 618,-101.5 764,-101.5 764,-120.5"/>
<text text-anchor="middle" x="691" y="-108.5" font-family="Helvetica,sans-Serif" font-size="10.00">DynExpModule::StopEvent</text>
</a>
</g>
</g>
<!-- Node27&#45;&gt;Node28 -->
<g id="edge189_Node000027_Node000028" class="edge">
<title>Node27&#45;&gt;Node28</title>
<g id="a_edge189_Node000027_Node000028"><a xlink:title=" ">
<path fill="none" stroke="#63b8ff" d="M544,-111C568.14,-111 594.33,-111 617.78,-111"/>
<polygon fill="#63b8ff" stroke="#63b8ff" points="543.8,-107.5 533.8,-111 543.8,-114.5 543.8,-107.5"/>
</a>
</g>
</g>
<!-- Node30 -->
<g id="Node000030" class="node">
<title>Node30</title>
<g id="a_Node000030"><a xlink:href="classDynExpModule_1_1TriggerEvent.html" target="_top" xlink:title="This event is intended to make the receiver start an action (like a measurement) after it received a ...">
<polygon fill="white" stroke="#666666" points="769.5,-72.5 612.5,-72.5 612.5,-53.5 769.5,-53.5 769.5,-72.5"/>
<text text-anchor="middle" x="691" y="-60.5" font-family="Helvetica,sans-Serif" font-size="10.00">DynExpModule::TriggerEvent</text>
</a>
</g>
</g>
<!-- Node29&#45;&gt;Node30 -->
<g id="edge191_Node000029_Node000030" class="edge">
<title>Node29&#45;&gt;Node30</title>
<g id="a_edge191_Node000029_Node000030"><a xlink:title=" ">
<path fill="none" stroke="#63b8ff" d="M543.9,-63C566.18,-63 590.22,-63 612.24,-63"/>
<polygon fill="#63b8ff" stroke="#63b8ff" points="543.8,-59.5 533.8,-63 543.8,-66.5 543.8,-59.5"/>
</a>
</g>
</g>
</g>
</svg>
