<?xml version="1.0" encoding="UTF-8" standalone="no"?>
<!DOCTYPE svg PUBLIC "-//W3C//DTD SVG 1.1//EN"
 "http://www.w3.org/Graphics/SVG/1.1/DTD/svg11.dtd">
<!-- Generated by graphviz version 2.43.0 (0)
 -->
<!-- Title: Graphical Class Hierarchy Pages: 1 -->
<svg width="851pt" height="310pt"
 viewBox="0.00 0.00 851.00 309.50" xmlns="http://www.w3.org/2000/svg" xmlns:xlink="http://www.w3.org/1999/xlink">
<g id="graph0" class="graph" transform="scale(1 1) rotate(0) translate(4 305.5)">
<title>Graphical Class Hierarchy</title>
<polygon fill="white" stroke="transparent" points="-4,4 -4,-305.5 847,-305.5 847,4 -4,4"/>
<!-- Node198 -->
<g id="node1" class="node">
<title>Node198</title>
<g id="a_node1"><a xlink:title=" ">
<polygon fill="white" stroke="#bfbfbf" points="0,-194.5 0,-213.5 131,-213.5 131,-194.5 0,-194.5"/>
<text text-anchor="middle" x="65.5" y="-201.5" font-family="Helvetica,sans-Serif" font-size="10.00">BaseInstr::ExitTaskType</text>
</a>
</g>
</g>
<!-- Node0 -->
<g id="node2" class="node">
<title>Node0</title>
<g id="a_node2"><a xlink:href="classDynExpInstr_1_1gRPCInstrumentTasks_1_1ExitTask.html" target="_top" xlink:title=" ">
<polygon fill="white" stroke="black" points="187,-249 187,-301 395,-301 395,-249 187,-249"/>
<text text-anchor="start" x="195" y="-289" font-family="Helvetica,sans-Serif" font-size="10.00">DynExpInstr::gRPCInstrument</text>
<text text-anchor="start" x="195" y="-278" font-family="Helvetica,sans-Serif" font-size="10.00">Tasks::ExitTask&lt; Spectrometer,</text>
<text text-anchor="start" x="195" y="-267" font-family="Helvetica,sans-Serif" font-size="10.00"> 0, DynExpProto::NetworkSpectrometer</text>
<text text-anchor="middle" x="291" y="-256" font-family="Helvetica,sans-Serif" font-size="10.00">::NetworkSpectrometer &gt;</text>
</a>
</g>
</g>
<!-- Node198&#45;&gt;Node0 -->
<g id="edge1" class="edge">
<title>Node198&#45;&gt;Node0</title>
<path fill="none" stroke="midnightblue" d="M101.5,-217.19C120.73,-224.26 145.06,-232.96 167,-240 176.41,-243.02 186.26,-246.05 196.12,-248.99"/>
<polygon fill="midnightblue" stroke="midnightblue" points="102.54,-213.84 91.95,-213.65 100.11,-220.4 102.54,-213.84"/>
</g>
<!-- Node201 -->
<g id="node4" class="node">
<title>Node201</title>
<g id="a_node4"><a xlink:href="classDynExpInstr_1_1gRPCInstrumentTasks_1_1ExitTask.html" target="_top" xlink:title=" ">
<polygon fill="white" stroke="black" points="167,-178 167,-230 415,-230 415,-178 167,-178"/>
<text text-anchor="start" x="175" y="-218" font-family="Helvetica,sans-Serif" font-size="10.00">DynExpInstr::gRPCInstrument</text>
<text text-anchor="start" x="175" y="-207" font-family="Helvetica,sans-Serif" font-size="10.00">Tasks::ExitTask&lt; DynExp</text>
<text text-anchor="start" x="175" y="-196" font-family="Helvetica,sans-Serif" font-size="10.00">::InstrumentBase, 0, DynExpProto</text>
<text text-anchor="middle" x="291" y="-185" font-family="Helvetica,sans-Serif" font-size="10.00">::WidefieldLocalization::WidefieldLocalization &gt;</text>
</a>
</g>
</g>
<!-- Node198&#45;&gt;Node201 -->
<g id="edge3" class="edge">
<title>Node198&#45;&gt;Node201</title>
<path fill="none" stroke="midnightblue" d="M141.17,-204C149.52,-204 158.19,-204 166.95,-204"/>
<polygon fill="midnightblue" stroke="midnightblue" points="141.15,-200.5 131.15,-204 141.15,-207.5 141.15,-200.5"/>
</g>
<!-- Node203 -->
<g id="node6" class="node">
<title>Node203</title>
<g id="a_node6"><a xlink:href="classDynExpInstr_1_1gRPCInstrumentTasks_1_1ExitTask.html" target="_top" xlink:title="Defines a task for deinitializing an instrument within an instrument inheritance hierarchy....">
<polygon fill="white" stroke="black" points="210.5,-117.5 210.5,-158.5 371.5,-158.5 371.5,-117.5 210.5,-117.5"/>
<text text-anchor="start" x="218.5" y="-146.5" font-family="Helvetica,sans-Serif" font-size="10.00">DynExpInstr::gRPCInstrument</text>
<text text-anchor="start" x="218.5" y="-135.5" font-family="Helvetica,sans-Serif" font-size="10.00">Tasks::ExitTask&lt; BaseInstr,</text>
<text text-anchor="middle" x="291" y="-124.5" font-family="Helvetica,sans-Serif" font-size="10.00">, gRPCStubs &gt;</text>
</a>
</g>
</g>
<!-- Node198&#45;&gt;Node203 -->
<g id="edge5" class="edge">
<title>Node198&#45;&gt;Node203</title>
<path fill="none" stroke="midnightblue" d="M101.45,-190.98C120.66,-184.03 145,-175.59 167,-169 180.92,-164.83 195.84,-160.75 210.32,-156.99"/>
<polygon fill="midnightblue" stroke="midnightblue" points="100.1,-187.74 91.91,-194.45 102.5,-194.32 100.1,-187.74"/>
</g>
<!-- Node1 -->
<g id="node3" class="node">
<title>Node1</title>
<g id="a_node3"><a xlink:href="classDynExpInstr_1_1NetworkSpectrometerTasks_1_1ExitTask.html" target="_top" xlink:title=" ">
<polygon fill="white" stroke="black" points="451,-260 451,-290 640,-290 640,-260 451,-260"/>
<text text-anchor="start" x="459" y="-278" font-family="Helvetica,sans-Serif" font-size="10.00">DynExpInstr::NetworkSpectrometer</text>
<text text-anchor="middle" x="545.5" y="-267" font-family="Helvetica,sans-Serif" font-size="10.00">Tasks::ExitTask</text>
</a>
</g>
</g>
<!-- Node0&#45;&gt;Node1 -->
<g id="edge2" class="edge">
<title>Node0&#45;&gt;Node1</title>
<path fill="none" stroke="midnightblue" d="M405.48,-275C420.6,-275 435.97,-275 450.7,-275"/>
<polygon fill="midnightblue" stroke="midnightblue" points="405.07,-271.5 395.07,-275 405.07,-278.5 405.07,-271.5"/>
</g>
<!-- Node202 -->
<g id="node5" class="node">
<title>Node202</title>
<g id="a_node5"><a xlink:href="classDynExpInstr_1_1WidefieldLocalizationTasks_1_1ExitTask.html" target="_top" xlink:title=" ">
<polygon fill="white" stroke="black" points="452.5,-189 452.5,-219 638.5,-219 638.5,-189 452.5,-189"/>
<text text-anchor="start" x="460.5" y="-207" font-family="Helvetica,sans-Serif" font-size="10.00">DynExpInstr::WidefieldLocalization</text>
<text text-anchor="middle" x="545.5" y="-196" font-family="Helvetica,sans-Serif" font-size="10.00">Tasks::ExitTask</text>
</a>
</g>
</g>
<!-- Node201&#45;&gt;Node202 -->
<g id="edge4" class="edge">
<title>Node201&#45;&gt;Node202</title>
<path fill="none" stroke="midnightblue" d="M425.56,-204C434.64,-204 443.68,-204 452.47,-204"/>
<polygon fill="midnightblue" stroke="midnightblue" points="425.29,-200.5 415.29,-204 425.29,-207.5 425.29,-200.5"/>
</g>
<!-- Node204 -->
<g id="node7" class="node">
<title>Node204</title>
<g id="a_node7"><a xlink:href="classDynExpInstr_1_1NetworkDataStreamInstrumentTasks_1_1ExitTask.html" target="_top" xlink:title=" ">
<polygon fill="white" stroke="black" points="472.5,-115 472.5,-167 618.5,-167 618.5,-115 472.5,-115"/>
<text text-anchor="start" x="480.5" y="-155" font-family="Helvetica,sans-Serif" font-size="10.00">DynExpInstr::NetworkData</text>
<text text-anchor="start" x="480.5" y="-144" font-family="Helvetica,sans-Serif" font-size="10.00">StreamInstrumentTasks</text>
<text text-anchor="start" x="480.5" y="-133" font-family="Helvetica,sans-Serif" font-size="10.00">::ExitTask&lt; BaseInstr,</text>
<text text-anchor="middle" x="545.5" y="-122" font-family="Helvetica,sans-Serif" font-size="10.00"> 0, gRPCStubs... &gt;</text>
</a>
</g>
</g>
<!-- Node203&#45;&gt;Node204 -->
<g id="edge6" class="edge">
<title>Node203&#45;&gt;Node204</title>
<path fill="none" stroke="midnightblue" d="M381.89,-139.07C411.52,-139.42 444.06,-139.81 472.21,-140.14"/>
<polygon fill="midnightblue" stroke="midnightblue" points="381.59,-135.56 371.55,-138.95 381.5,-142.56 381.59,-135.56"/>
</g>
<!-- Node210 -->
<g id="node13" class="node">
<title>Node210</title>
<g id="a_node13"><a xlink:href="classDynExpInstr_1_1NetworkDataStreamInstrumentTasks_1_1ExitTask.html" target="_top" xlink:title=" ">
<polygon fill="white" stroke="black" points="472.5,-44 472.5,-96 618.5,-96 618.5,-44 472.5,-44"/>
<text text-anchor="start" x="480.5" y="-84" font-family="Helvetica,sans-Serif" font-size="10.00">DynExpInstr::NetworkData</text>
<text text-anchor="start" x="480.5" y="-73" font-family="Helvetica,sans-Serif" font-size="10.00">StreamInstrumentTasks</text>
<text text-anchor="start" x="480.5" y="-62" font-family="Helvetica,sans-Serif" font-size="10.00">::ExitTask&lt; BaseInstr,,</text>
<text text-anchor="middle" x="545.5" y="-51" font-family="Helvetica,sans-Serif" font-size="10.00"> gRPCStubs &gt;</text>
</a>
</g>
</g>
<!-- Node203&#45;&gt;Node210 -->
<g id="edge12" class="edge">
<title>Node203&#45;&gt;Node210</title>
<path fill="none" stroke="midnightblue" d="M378.24,-114.77C408.83,-106.54 442.9,-97.36 472.21,-89.47"/>
<polygon fill="midnightblue" stroke="midnightblue" points="377.19,-111.43 368.44,-117.41 379.01,-118.19 377.19,-111.43"/>
</g>
<!-- Node205 -->
<g id="node8" class="node">
<title>Node205</title>
<g id="a_node8"><a xlink:href="classDynExpInstr_1_1NetworkAnalogInTasks_1_1ExitTask.html" target="_top" xlink:title=" ">
<polygon fill="white" stroke="black" points="680,-240.5 680,-281.5 839,-281.5 839,-240.5 680,-240.5"/>
<text text-anchor="start" x="688" y="-269.5" font-family="Helvetica,sans-Serif" font-size="10.00">DynExpInstr::NetworkAnalog</text>
<text text-anchor="start" x="688" y="-258.5" font-family="Helvetica,sans-Serif" font-size="10.00">InTasks::ExitTask&lt; BaseInstr,</text>
<text text-anchor="middle" x="759.5" y="-247.5" font-family="Helvetica,sans-Serif" font-size="10.00">, gRPCStubs &gt;</text>
</a>
</g>
</g>
<!-- Node204&#45;&gt;Node205 -->
<g id="edge7" class="edge">
<title>Node204&#45;&gt;Node205</title>
<path fill="none" stroke="midnightblue" d="M627.79,-171.4C632.06,-174.07 636.17,-176.93 640,-180 661.65,-197.35 653.95,-214.16 676,-231 680.6,-234.52 685.66,-237.65 690.92,-240.44"/>
<polygon fill="midnightblue" stroke="midnightblue" points="629.21,-168.18 618.8,-166.2 625.71,-174.24 629.21,-168.18"/>
</g>
<!-- Node206 -->
<g id="node9" class="node">
<title>Node206</title>
<g id="a_node9"><a xlink:href="classDynExpInstr_1_1NetworkAnalogOutTasks_1_1ExitTask.html" target="_top" xlink:title=" ">
<polygon fill="white" stroke="black" points="676,-180.5 676,-221.5 843,-221.5 843,-180.5 676,-180.5"/>
<text text-anchor="start" x="684" y="-209.5" font-family="Helvetica,sans-Serif" font-size="10.00">DynExpInstr::NetworkAnalog</text>
<text text-anchor="start" x="684" y="-198.5" font-family="Helvetica,sans-Serif" font-size="10.00">OutTasks::ExitTask&lt; BaseInstr,</text>
<text text-anchor="middle" x="759.5" y="-187.5" font-family="Helvetica,sans-Serif" font-size="10.00">, gRPCStubs &gt;</text>
</a>
</g>
</g>
<!-- Node204&#45;&gt;Node206 -->
<g id="edge8" class="edge">
<title>Node204&#45;&gt;Node206</title>
<path fill="none" stroke="midnightblue" d="M628.37,-164.17C647.33,-169.54 667.38,-175.21 685.91,-180.46"/>
<polygon fill="midnightblue" stroke="midnightblue" points="629.14,-160.75 618.57,-161.4 627.24,-167.49 629.14,-160.75"/>
</g>
<!-- Node207 -->
<g id="node10" class="node">
<title>Node207</title>
<g id="a_node10"><a xlink:href="classDynExpInstr_1_1NetworkDigitalInTasks_1_1ExitTask.html" target="_top" xlink:title=" ">
<polygon fill="white" stroke="black" points="680,-120.5 680,-161.5 839,-161.5 839,-120.5 680,-120.5"/>
<text text-anchor="start" x="688" y="-149.5" font-family="Helvetica,sans-Serif" font-size="10.00">DynExpInstr::NetworkDigital</text>
<text text-anchor="start" x="688" y="-138.5" font-family="Helvetica,sans-Serif" font-size="10.00">InTasks::ExitTask&lt; BaseInstr,</text>
<text text-anchor="middle" x="759.5" y="-127.5" font-family="Helvetica,sans-Serif" font-size="10.00">, gRPCStubs &gt;</text>
</a>
</g>
</g>
<!-- Node204&#45;&gt;Node207 -->
<g id="edge9" class="edge">
<title>Node204&#45;&gt;Node207</title>
<path fill="none" stroke="midnightblue" d="M628.86,-141C645.58,-141 663.13,-141 679.73,-141"/>
<polygon fill="midnightblue" stroke="midnightblue" points="628.57,-137.5 618.57,-141 628.57,-144.5 628.57,-137.5"/>
</g>
<!-- Node208 -->
<g id="node11" class="node">
<title>Node208</title>
<g id="a_node11"><a xlink:href="classDynExpInstr_1_1NetworkDigitalOutTasks_1_1ExitTask.html" target="_top" xlink:title=" ">
<polygon fill="white" stroke="black" points="676,-60.5 676,-101.5 843,-101.5 843,-60.5 676,-60.5"/>
<text text-anchor="start" x="684" y="-89.5" font-family="Helvetica,sans-Serif" font-size="10.00">DynExpInstr::NetworkDigital</text>
<text text-anchor="start" x="684" y="-78.5" font-family="Helvetica,sans-Serif" font-size="10.00">OutTasks::ExitTask&lt; BaseInstr,</text>
<text text-anchor="middle" x="759.5" y="-67.5" font-family="Helvetica,sans-Serif" font-size="10.00">, gRPCStubs &gt;</text>
</a>
</g>
</g>
<!-- Node204&#45;&gt;Node208 -->
<g id="edge10" class="edge">
<title>Node204&#45;&gt;Node208</title>
<path fill="none" stroke="midnightblue" d="M628.37,-117.83C647.33,-112.46 667.38,-106.79 685.91,-101.54"/>
<polygon fill="midnightblue" stroke="midnightblue" points="627.24,-114.51 618.57,-120.6 629.14,-121.25 627.24,-114.51"/>
</g>
<!-- Node209 -->
<g id="node12" class="node">
<title>Node209</title>
<g id="a_node12"><a xlink:href="classDynExpInstr_1_1NetworkTimeTaggerTasks_1_1ExitTask.html" target="_top" xlink:title=" ">
<polygon fill="white" stroke="black" points="685.5,-0.5 685.5,-41.5 833.5,-41.5 833.5,-0.5 685.5,-0.5"/>
<text text-anchor="start" x="693.5" y="-29.5" font-family="Helvetica,sans-Serif" font-size="10.00">DynExpInstr::NetworkTime</text>
<text text-anchor="start" x="693.5" y="-18.5" font-family="Helvetica,sans-Serif" font-size="10.00">TaggerTasks::ExitTask</text>
<text text-anchor="middle" x="759.5" y="-7.5" font-family="Helvetica,sans-Serif" font-size="10.00">&lt; BaseInstr,, gRPCStubs &gt;</text>
</a>
</g>
</g>
<!-- Node204&#45;&gt;Node209 -->
<g id="edge11" class="edge">
<title>Node204&#45;&gt;Node209</title>
<path fill="none" stroke="midnightblue" d="M627.88,-113.42C632.14,-110.83 636.21,-108.03 640,-105 662.52,-86.97 653.32,-68.82 676,-51 680.43,-47.52 685.31,-44.41 690.41,-41.65"/>
<polygon fill="midnightblue" stroke="midnightblue" points="625.96,-110.48 618.94,-118.41 629.38,-116.59 625.96,-110.48"/>
</g>
</g>
</svg>
