<?xml version="1.0" encoding="UTF-8" standalone="no"?>
<!DOCTYPE svg PUBLIC "-//W3C//DTD SVG 1.1//EN"
 "http://www.w3.org/Graphics/SVG/1.1/DTD/svg11.dtd">
<!-- Generated by graphviz version 2.43.0 (0)
 -->
<!-- Title: Graphical Class Hierarchy Pages: 1 -->
<svg width="936pt" height="368pt"
 viewBox="0.00 0.00 936.00 368.00" xmlns="http://www.w3.org/2000/svg" xmlns:xlink="http://www.w3.org/1999/xlink">
<g id="graph0" class="graph" transform="scale(1 1) rotate(0) translate(4 364)">
<title>Graphical Class Hierarchy</title>
<!-- Node0 -->
<g id="Node000000" class="node">
<title>Node0</title>
<g id="a_Node000000"><a xlink:title=" ">
<polygon fill="#e0e0e0" stroke="#999999" points="167,-115.5 0,-115.5 0,-96.5 167,-96.5 167,-115.5"/>
<text text-anchor="middle" x="83.5" y="-103.5" font-family="Helvetica,sans-Serif" font-size="10.00">BaseInstr::InstrumentDataType</text>
</a>
</g>
</g>
<!-- Node1 -->
<g id="Node000001" class="node">
<title>Node1</title>
<g id="a_Node000001"><a xlink:href="classDynExpInstr_1_1gRPCInstrumentData.html" target="_top" xlink:title=" ">
<polygon fill="white" stroke="#666666" points="424,-208 236,-208 236,-178 424,-178 424,-208"/>
<text text-anchor="start" x="244" y="-196" font-family="Helvetica,sans-Serif" font-size="10.00">DynExpInstr::gRPCInstrument</text>
<text text-anchor="middle" x="330" y="-185" font-family="Helvetica,sans-Serif" font-size="10.00">Data&lt; BaseInstr, 0, gRPCStubs... &gt;</text>
</a>
</g>
</g>
<!-- Node0&#45;&gt;Node1 -->
<g id="edge49_Node000000_Node000001" class="edge">
<title>Node0&#45;&gt;Node1</title>
<g id="a_edge49_Node000000_Node000001"><a xlink:title=" ">
<path fill="none" stroke="#63b8ff" d="M107.64,-121.01C130.85,-135.4 168.08,-156.71 203,-169 213.5,-172.7 224.71,-175.86 235.94,-178.57"/>
<polygon fill="#63b8ff" stroke="#63b8ff" points="109.5,-118.04 99.17,-115.68 105.77,-123.97 109.5,-118.04"/>
</a>
</g>
</g>
<!-- Node9 -->
<g id="Node000009" class="node">
<title>Node9</title>
<g id="a_Node000009"><a xlink:href="classDynExpInstr_1_1gRPCInstrumentData.html" target="_top" xlink:title=" ">
<polygon fill="white" stroke="#666666" points="457,-159.5 203,-159.5 203,-118.5 457,-118.5 457,-159.5"/>
<text text-anchor="start" x="211" y="-147.5" font-family="Helvetica,sans-Serif" font-size="10.00">DynExpInstr::gRPCInstrument</text>
<text text-anchor="start" x="211" y="-136.5" font-family="Helvetica,sans-Serif" font-size="10.00">Data&lt; Spectrometer, 0, DynExpProto</text>
<text text-anchor="middle" x="330" y="-125.5" font-family="Helvetica,sans-Serif" font-size="10.00">::NetworkSpectrometer::NetworkSpectrometer &gt;</text>
</a>
</g>
</g>
<!-- Node0&#45;&gt;Node9 -->
<g id="edge57_Node000000_Node000009" class="edge">
<title>Node0&#45;&gt;Node9</title>
<g id="a_edge57_Node000000_Node000009"><a xlink:title=" ">
<path fill="none" stroke="#63b8ff" d="M164.97,-116.86C177.16,-118.51 189.98,-120.24 202.86,-121.98"/>
<polygon fill="#63b8ff" stroke="#63b8ff" points="165.27,-113.37 154.89,-115.5 164.33,-120.31 165.27,-113.37"/>
</a>
</g>
</g>
<!-- Node11 -->
<g id="Node000011" class="node">
<title>Node11</title>
<g id="a_Node000011"><a xlink:href="classDynExpInstr_1_1gRPCInstrumentData.html" target="_top" xlink:title=" ">
<polygon fill="white" stroke="#666666" points="432.5,-100 227.5,-100 227.5,-48 432.5,-48 432.5,-100"/>
<text text-anchor="start" x="235.5" y="-88" font-family="Helvetica,sans-Serif" font-size="10.00">DynExpInstr::gRPCInstrument</text>
<text text-anchor="start" x="235.5" y="-77" font-family="Helvetica,sans-Serif" font-size="10.00">Data&lt; DynExp::InstrumentBase,</text>
<text text-anchor="start" x="235.5" y="-66" font-family="Helvetica,sans-Serif" font-size="10.00"> 0, DynExpProto::WidefieldLocalization</text>
<text text-anchor="middle" x="330" y="-55" font-family="Helvetica,sans-Serif" font-size="10.00">::WidefieldLocalization &gt;</text>
</a>
</g>
</g>
<!-- Node0&#45;&gt;Node11 -->
<g id="edge59_Node000000_Node000011" class="edge">
<title>Node0&#45;&gt;Node11</title>
<g id="a_edge59_Node000000_Node000011"><a xlink:title=" ">
<path fill="none" stroke="#63b8ff" d="M167.13,-95.19C186.41,-92.66 207.17,-89.95 227.17,-87.33"/>
<polygon fill="#63b8ff" stroke="#63b8ff" points="166.66,-91.72 157.2,-96.49 167.57,-98.66 166.66,-91.72"/>
</a>
</g>
</g>
<!-- Node13 -->
<g id="Node000013" class="node">
<title>Node13</title>
<g id="a_Node000013"><a xlink:href="classDynExpInstr_1_1gRPCInstrumentData.html" target="_top" xlink:title="Data class for gRPCInstrument.">
<polygon fill="white" stroke="#666666" points="415,-30 245,-30 245,0 415,0 415,-30"/>
<text text-anchor="start" x="253" y="-18" font-family="Helvetica,sans-Serif" font-size="10.00">DynExpInstr::gRPCInstrument</text>
<text text-anchor="middle" x="330" y="-7" font-family="Helvetica,sans-Serif" font-size="10.00">Data&lt; BaseInstr,, gRPCStubs &gt;</text>
</a>
</g>
</g>
<!-- Node0&#45;&gt;Node13 -->
<g id="edge61_Node000000_Node000013" class="edge">
<title>Node0&#45;&gt;Node13</title>
<g id="a_edge61_Node000000_Node000013"><a xlink:title=" ">
<path fill="none" stroke="#63b8ff" d="M106.35,-90.74C129.36,-75.38 167.15,-52.14 203,-39 216.28,-34.13 230.72,-30.2 244.93,-27.05"/>
<polygon fill="#63b8ff" stroke="#63b8ff" points="104.32,-87.89 98.01,-96.39 108.25,-93.68 104.32,-87.89"/>
</a>
</g>
</g>
<!-- Node2 -->
<g id="Node000002" class="node">
<title>Node2</title>
<g id="a_Node000002"><a xlink:href="classDynExpInstr_1_1NetworkDataStreamInstrumentData.html" target="_top" xlink:title=" ">
<polygon fill="white" stroke="#666666" points="677,-269.5 521,-269.5 521,-228.5 677,-228.5 677,-269.5"/>
<text text-anchor="start" x="529" y="-257.5" font-family="Helvetica,sans-Serif" font-size="10.00">DynExpInstr::NetworkData</text>
<text text-anchor="start" x="529" y="-246.5" font-family="Helvetica,sans-Serif" font-size="10.00">StreamInstrumentData&lt;</text>
<text text-anchor="middle" x="599" y="-235.5" font-family="Helvetica,sans-Serif" font-size="10.00"> BaseInstr, 0, gRPCStubs... &gt;</text>
</a>
</g>
</g>
<!-- Node1&#45;&gt;Node2 -->
<g id="edge50_Node000001_Node000002" class="edge">
<title>Node1&#45;&gt;Node2</title>
<g id="a_edge50_Node000001_Node000002"><a xlink:title=" ">
<path fill="none" stroke="#63b8ff" d="M412.56,-210.11C446.92,-217.31 486.73,-225.66 520.63,-232.77"/>
<polygon fill="#63b8ff" stroke="#63b8ff" points="413.06,-206.63 402.55,-208.01 411.62,-213.49 413.06,-206.63"/>
</a>
</g>
</g>
<!-- Node8 -->
<g id="Node000008" class="node">
<title>Node8</title>
<g id="a_Node000008"><a xlink:href="classDynExpInstr_1_1NetworkDataStreamInstrumentData.html" target="_top" xlink:title=" ">
<polygon fill="white" stroke="#666666" points="672,-210.5 526,-210.5 526,-169.5 672,-169.5 672,-210.5"/>
<text text-anchor="start" x="534" y="-198.5" font-family="Helvetica,sans-Serif" font-size="10.00">DynExpInstr::NetworkData</text>
<text text-anchor="start" x="534" y="-187.5" font-family="Helvetica,sans-Serif" font-size="10.00">StreamInstrumentData&lt;</text>
<text text-anchor="middle" x="599" y="-176.5" font-family="Helvetica,sans-Serif" font-size="10.00"> BaseInstr,, gRPCStubs &gt;</text>
</a>
</g>
</g>
<!-- Node1&#45;&gt;Node8 -->
<g id="edge56_Node000001_Node000008" class="edge">
<title>Node1&#45;&gt;Node8</title>
<g id="a_edge56_Node000001_Node000008"><a xlink:title=" ">
<path fill="none" stroke="#63b8ff" d="M434.29,-191.84C464.91,-191.5 497.75,-191.13 525.93,-190.81"/>
<polygon fill="#63b8ff" stroke="#63b8ff" points="433.97,-188.34 424.01,-191.95 434.05,-195.34 433.97,-188.34"/>
</a>
</g>
</g>
<!-- Node3 -->
<g id="Node000003" class="node">
<title>Node3</title>
<g id="a_Node000003"><a xlink:href="classDynExpInstr_1_1NetworkAnalogInData.html" target="_top" xlink:title=" ">
<polygon fill="white" stroke="#666666" points="924,-360 745,-360 745,-330 924,-330 924,-360"/>
<text text-anchor="start" x="753" y="-348" font-family="Helvetica,sans-Serif" font-size="10.00">DynExpInstr::NetworkAnalog</text>
<text text-anchor="middle" x="834.5" y="-337" font-family="Helvetica,sans-Serif" font-size="10.00">InData&lt; BaseInstr,, gRPCStubs &gt;</text>
</a>
</g>
</g>
<!-- Node2&#45;&gt;Node3 -->
<g id="edge51_Node000002_Node000003" class="edge">
<title>Node2&#45;&gt;Node3</title>
<g id="a_edge51_Node000002_Node000003"><a xlink:title=" ">
<path fill="none" stroke="#63b8ff" d="M643.84,-274.53C671.11,-289.61 707.3,-308.2 741,-321 749.69,-324.3 759,-327.3 768.25,-329.98"/>
<polygon fill="#63b8ff" stroke="#63b8ff" points="645.38,-271.39 634.95,-269.56 641.97,-277.5 645.38,-271.39"/>
</a>
</g>
</g>
<!-- Node4 -->
<g id="Node000004" class="node">
<title>Node4</title>
<g id="a_Node000004"><a xlink:href="classDynExpInstr_1_1NetworkAnalogOutData.html" target="_top" xlink:title=" ">
<polygon fill="white" stroke="#666666" points="928,-312 741,-312 741,-282 928,-282 928,-312"/>
<text text-anchor="start" x="749" y="-300" font-family="Helvetica,sans-Serif" font-size="10.00">DynExpInstr::NetworkAnalog</text>
<text text-anchor="middle" x="834.5" y="-289" font-family="Helvetica,sans-Serif" font-size="10.00">OutData&lt; BaseInstr,, gRPCStubs &gt;</text>
</a>
</g>
</g>
<!-- Node2&#45;&gt;Node4 -->
<g id="edge52_Node000002_Node000004" class="edge">
<title>Node2&#45;&gt;Node4</title>
<g id="a_edge52_Node000002_Node000004"><a xlink:title=" ">
<path fill="none" stroke="#63b8ff" d="M686.98,-266.88C711.15,-271.85 737.15,-277.19 760.44,-281.98"/>
<polygon fill="#63b8ff" stroke="#63b8ff" points="687.6,-263.44 677.1,-264.85 686.19,-270.29 687.6,-263.44"/>
</a>
</g>
</g>
<!-- Node5 -->
<g id="Node000005" class="node">
<title>Node5</title>
<g id="a_Node000005"><a xlink:href="classDynExpInstr_1_1NetworkDigitalInData.html" target="_top" xlink:title=" ">
<polygon fill="white" stroke="#666666" points="924,-264 745,-264 745,-234 924,-234 924,-264"/>
<text text-anchor="start" x="753" y="-252" font-family="Helvetica,sans-Serif" font-size="10.00">DynExpInstr::NetworkDigital</text>
<text text-anchor="middle" x="834.5" y="-241" font-family="Helvetica,sans-Serif" font-size="10.00">InData&lt; BaseInstr,, gRPCStubs &gt;</text>
</a>
</g>
</g>
<!-- Node2&#45;&gt;Node5 -->
<g id="edge53_Node000002_Node000005" class="edge">
<title>Node2&#45;&gt;Node5</title>
<g id="a_edge53_Node000002_Node000005"><a xlink:title=" ">
<path fill="none" stroke="#63b8ff" d="M687.13,-249C705.95,-249 725.87,-249 744.75,-249"/>
<polygon fill="#63b8ff" stroke="#63b8ff" points="687.1,-245.5 677.1,-249 687.1,-252.5 687.1,-245.5"/>
</a>
</g>
</g>
<!-- Node6 -->
<g id="Node000006" class="node">
<title>Node6</title>
<g id="a_Node000006"><a xlink:href="classDynExpInstr_1_1NetworkDigitalOutData.html" target="_top" xlink:title=" ">
<polygon fill="white" stroke="#666666" points="928,-216 741,-216 741,-186 928,-186 928,-216"/>
<text text-anchor="start" x="749" y="-204" font-family="Helvetica,sans-Serif" font-size="10.00">DynExpInstr::NetworkDigital</text>
<text text-anchor="middle" x="834.5" y="-193" font-family="Helvetica,sans-Serif" font-size="10.00">OutData&lt; BaseInstr,, gRPCStubs &gt;</text>
</a>
</g>
</g>
<!-- Node2&#45;&gt;Node6 -->
<g id="edge54_Node000002_Node000006" class="edge">
<title>Node2&#45;&gt;Node6</title>
<g id="a_edge54_Node000002_Node000006"><a xlink:title=" ">
<path fill="none" stroke="#63b8ff" d="M686.98,-231.12C711.15,-226.15 737.15,-220.81 760.44,-216.02"/>
<polygon fill="#63b8ff" stroke="#63b8ff" points="686.19,-227.71 677.1,-233.15 687.6,-234.56 686.19,-227.71"/>
</a>
</g>
</g>
<!-- Node7 -->
<g id="Node000007" class="node">
<title>Node7</title>
<g id="a_Node000007"><a xlink:href="classDynExpInstr_1_1NetworkTimeTaggerData.html" target="_top" xlink:title=" ">
<polygon fill="white" stroke="#666666" points="908.5,-167.5 760.5,-167.5 760.5,-126.5 908.5,-126.5 908.5,-167.5"/>
<text text-anchor="start" x="768.5" y="-155.5" font-family="Helvetica,sans-Serif" font-size="10.00">DynExpInstr::NetworkTime</text>
<text text-anchor="start" x="768.5" y="-144.5" font-family="Helvetica,sans-Serif" font-size="10.00">TaggerData&lt; BaseInstr,</text>
<text text-anchor="middle" x="834.5" y="-133.5" font-family="Helvetica,sans-Serif" font-size="10.00">, gRPCStubs &gt;</text>
</a>
</g>
</g>
<!-- Node2&#45;&gt;Node7 -->
<g id="edge55_Node000002_Node000007" class="edge">
<title>Node2&#45;&gt;Node7</title>
<g id="a_edge55_Node000002_Node000007"><a xlink:title=" ">
<path fill="none" stroke="#63b8ff" d="M686.7,-229.71C693.1,-226.89 699.28,-223.68 705,-220 725.96,-206.52 720.34,-190.94 741,-177 747.02,-172.94 753.62,-169.4 760.45,-166.31"/>
<polygon fill="#63b8ff" stroke="#63b8ff" points="685.15,-226.56 677.19,-233.55 687.77,-233.05 685.15,-226.56"/>
</a>
</g>
</g>
<!-- Node10 -->
<g id="Node000010" class="node">
<title>Node10</title>
<g id="a_Node000010"><a xlink:href="classDynExpInstr_1_1NetworkSpectrometerData.html" target="_top" xlink:title=" ">
<polygon fill="white" stroke="#666666" points="705,-148.5 493,-148.5 493,-129.5 705,-129.5 705,-148.5"/>
<text text-anchor="middle" x="599" y="-136.5" font-family="Helvetica,sans-Serif" font-size="10.00">DynExpInstr::NetworkSpectrometerData</text>
</a>
</g>
</g>
<!-- Node9&#45;&gt;Node10 -->
<g id="edge58_Node000009_Node000010" class="edge">
<title>Node9&#45;&gt;Node10</title>
<g id="a_edge58_Node000009_Node000010"><a xlink:title=" ">
<path fill="none" stroke="#63b8ff" d="M467.22,-139C475.87,-139 484.5,-139 492.97,-139"/>
<polygon fill="#63b8ff" stroke="#63b8ff" points="467.07,-135.5 457.07,-139 467.07,-142.5 467.07,-135.5"/>
</a>
</g>
</g>
<!-- Node12 -->
<g id="Node000012" class="node">
<title>Node12</title>
<g id="a_Node000012"><a xlink:href="classDynExpInstr_1_1WidefieldLocalizationData.html" target="_top" xlink:title=" ">
<polygon fill="white" stroke="#666666" points="703.5,-83.5 494.5,-83.5 494.5,-64.5 703.5,-64.5 703.5,-83.5"/>
<text text-anchor="middle" x="599" y="-71.5" font-family="Helvetica,sans-Serif" font-size="10.00">DynExpInstr::WidefieldLocalizationData</text>
</a>
</g>
</g>
<!-- Node11&#45;&gt;Node12 -->
<g id="edge60_Node000011_Node000012" class="edge">
<title>Node11&#45;&gt;Node12</title>
<g id="a_edge60_Node000011_Node000012"><a xlink:title=" ">
<path fill="none" stroke="#63b8ff" d="M442.71,-74C459.83,-74 477.44,-74 494.37,-74"/>
<polygon fill="#63b8ff" stroke="#63b8ff" points="442.7,-70.5 432.7,-74 442.7,-77.5 442.7,-70.5"/>
</a>
</g>
</g>
</g>
</svg>
