<?xml version="1.0" encoding="UTF-8" standalone="no"?>
<!DOCTYPE svg PUBLIC "-//W3C//DTD SVG 1.1//EN"
 "http://www.w3.org/Graphics/SVG/1.1/DTD/svg11.dtd">
<!-- Generated by graphviz version 2.43.0 (0)
 -->
<!-- Title: Graphical Class Hierarchy Pages: 1 -->
<svg width="813pt" height="268pt"
 viewBox="0.00 0.00 813.00 267.50" xmlns="http://www.w3.org/2000/svg" xmlns:xlink="http://www.w3.org/1999/xlink">
<g id="graph0" class="graph" transform="scale(1 1) rotate(0) translate(4 263.5)">
<title>Graphical Class Hierarchy</title>
<polygon fill="white" stroke="transparent" points="-4,4 -4,-263.5 809,-263.5 809,4 -4,4"/>
<!-- Node4 -->
<g id="node1" class="node">
<title>Node4</title>
<g id="a_node1"><a xlink:href="classDynExpInstr_1_1NetworkDigitalInT.html" target="_top" xlink:title=" ">
<polygon fill="white" stroke="black" points="0,-92 0,-122 161,-122 161,-92 0,-92"/>
<text text-anchor="start" x="8" y="-110" font-family="Helvetica,sans-Serif" font-size="10.00">DynExpInstr::NetworkDigital</text>
<text text-anchor="middle" x="80.5" y="-99" font-family="Helvetica,sans-Serif" font-size="10.00">InT&lt; BaseInstr,, gRPCStubs &gt;</text>
</a>
</g>
</g>
<!-- Node0 -->
<g id="node2" class="node">
<title>Node0</title>
<g id="a_node2"><a xlink:href="classDynExpInstr_1_1gRPCInstrument.html" target="_top" xlink:title=" ">
<polygon fill="white" stroke="black" points="197,-92 197,-122 361,-122 361,-92 197,-92"/>
<text text-anchor="start" x="205" y="-110" font-family="Helvetica,sans-Serif" font-size="10.00">DynExpInstr::gRPCInstrument</text>
<text text-anchor="middle" x="279" y="-99" font-family="Helvetica,sans-Serif" font-size="10.00">&lt; BaseInstr, 0, gRPCStubs... &gt;</text>
</a>
</g>
</g>
<!-- Node4&#45;&gt;Node0 -->
<g id="edge1" class="edge">
<title>Node4&#45;&gt;Node0</title>
<path fill="none" stroke="midnightblue" d="M171.18,-107C179.77,-107 188.46,-107 196.97,-107"/>
<polygon fill="midnightblue" stroke="midnightblue" points="171.14,-103.5 161.14,-107 171.14,-110.5 171.14,-103.5"/>
</g>
<!-- Node13 -->
<g id="node9" class="node">
<title>Node13</title>
<g id="a_node9"><a xlink:href="classDynExpInstr_1_1gRPCInstrument.html" target="_top" xlink:title="Meta instrument template for transforming meta instruments into network instruments,...">
<polygon fill="white" stroke="black" points="198.5,-32 198.5,-62 359.5,-62 359.5,-32 198.5,-32"/>
<text text-anchor="start" x="206.5" y="-50" font-family="Helvetica,sans-Serif" font-size="10.00">DynExpInstr::gRPCInstrument</text>
<text text-anchor="middle" x="279" y="-39" font-family="Helvetica,sans-Serif" font-size="10.00">&lt; BaseInstr,, gRPCStubs &gt;</text>
</a>
</g>
</g>
<!-- Node4&#45;&gt;Node13 -->
<g id="edge9" class="edge">
<title>Node4&#45;&gt;Node13</title>
<path fill="none" stroke="midnightblue" d="M140.54,-88.97C168.66,-80.39 201.9,-70.24 228.65,-62.07"/>
<polygon fill="midnightblue" stroke="midnightblue" points="139.37,-85.67 130.83,-91.94 141.42,-92.36 139.37,-85.67"/>
</g>
<!-- Node1 -->
<g id="node3" class="node">
<title>Node1</title>
<g id="a_node3"><a xlink:href="classDynExpInstr_1_1NetworkDataStreamInstrumentT.html" target="_top" xlink:title=" ">
<polygon fill="white" stroke="black" points="405,-142.5 405,-183.5 576,-183.5 576,-142.5 405,-142.5"/>
<text text-anchor="start" x="413" y="-171.5" font-family="Helvetica,sans-Serif" font-size="10.00">DynExpInstr::NetworkData</text>
<text text-anchor="start" x="413" y="-160.5" font-family="Helvetica,sans-Serif" font-size="10.00">StreamInstrumentT&lt; BaseInstr,</text>
<text text-anchor="middle" x="490.5" y="-149.5" font-family="Helvetica,sans-Serif" font-size="10.00"> 0, gRPCStubs... &gt;</text>
</a>
</g>
</g>
<!-- Node0&#45;&gt;Node1 -->
<g id="edge2" class="edge">
<title>Node0&#45;&gt;Node1</title>
<path fill="none" stroke="midnightblue" d="M346.01,-124.64C367.19,-130.31 390.83,-136.63 412.72,-142.48"/>
<polygon fill="midnightblue" stroke="midnightblue" points="346.71,-121.21 336.14,-122.01 344.9,-127.97 346.71,-121.21"/>
</g>
<!-- Node7 -->
<g id="node8" class="node">
<title>Node7</title>
<g id="a_node8"><a xlink:href="classDynExpInstr_1_1NetworkDataStreamInstrumentT.html" target="_top" xlink:title="Data stream instrument for bidirectional gRPC communication.">
<polygon fill="white" stroke="black" points="405,-82.5 405,-123.5 576,-123.5 576,-82.5 405,-82.5"/>
<text text-anchor="start" x="413" y="-111.5" font-family="Helvetica,sans-Serif" font-size="10.00">DynExpInstr::NetworkData</text>
<text text-anchor="start" x="413" y="-100.5" font-family="Helvetica,sans-Serif" font-size="10.00">StreamInstrumentT&lt; BaseInstr,</text>
<text text-anchor="middle" x="490.5" y="-89.5" font-family="Helvetica,sans-Serif" font-size="10.00">, gRPCStubs &gt;</text>
</a>
</g>
</g>
<!-- Node0&#45;&gt;Node7 -->
<g id="edge8" class="edge">
<title>Node0&#45;&gt;Node7</title>
<path fill="none" stroke="midnightblue" d="M371.41,-105.25C382.5,-105.04 393.8,-104.83 404.79,-104.62"/>
<polygon fill="midnightblue" stroke="midnightblue" points="371.23,-101.76 361.3,-105.45 371.36,-108.76 371.23,-101.76"/>
</g>
<!-- Node1&#45;&gt;Node4 -->
<g id="edge5" class="edge">
<title>Node1&#45;&gt;Node4</title>
<path fill="none" stroke="midnightblue" d="M394.59,-154.94C337.21,-149.49 262.69,-141.39 197,-131 181.22,-128.5 164.34,-125.3 148.48,-122.05"/>
<polygon fill="midnightblue" stroke="midnightblue" points="394.45,-158.44 404.74,-155.89 395.11,-151.47 394.45,-158.44"/>
</g>
<!-- Node2 -->
<g id="node4" class="node">
<title>Node2</title>
<g id="a_node4"><a xlink:href="classDynExpInstr_1_1NetworkAnalogInT.html" target="_top" xlink:title=" ">
<polygon fill="white" stroke="black" points="632,-229 632,-259 793,-259 793,-229 632,-229"/>
<text text-anchor="start" x="640" y="-247" font-family="Helvetica,sans-Serif" font-size="10.00">DynExpInstr::NetworkAnalog</text>
<text text-anchor="middle" x="712.5" y="-236" font-family="Helvetica,sans-Serif" font-size="10.00">InT&lt; BaseInstr,, gRPCStubs &gt;</text>
</a>
</g>
</g>
<!-- Node1&#45;&gt;Node2 -->
<g id="edge3" class="edge">
<title>Node1&#45;&gt;Node2</title>
<path fill="none" stroke="midnightblue" d="M542.67,-187.97C565.92,-198.72 593.99,-210.89 620,-220 629.14,-223.2 638.93,-226.21 648.59,-228.93"/>
<polygon fill="midnightblue" stroke="midnightblue" points="543.89,-184.68 533.35,-183.62 540.93,-191.02 543.89,-184.68"/>
</g>
<!-- Node3 -->
<g id="node5" class="node">
<title>Node3</title>
<g id="a_node5"><a xlink:href="classDynExpInstr_1_1NetworkAnalogOutT.html" target="_top" xlink:title=" ">
<polygon fill="white" stroke="black" points="627.5,-180 627.5,-210 797.5,-210 797.5,-180 627.5,-180"/>
<text text-anchor="start" x="635.5" y="-198" font-family="Helvetica,sans-Serif" font-size="10.00">DynExpInstr::NetworkAnalog</text>
<text text-anchor="middle" x="712.5" y="-187" font-family="Helvetica,sans-Serif" font-size="10.00">OutT&lt; BaseInstr,, gRPCStubs &gt;</text>
</a>
</g>
</g>
<!-- Node1&#45;&gt;Node3 -->
<g id="edge4" class="edge">
<title>Node1&#45;&gt;Node3</title>
<path fill="none" stroke="midnightblue" d="M586.51,-176.82C600.03,-178.79 613.86,-180.8 627.16,-182.73"/>
<polygon fill="midnightblue" stroke="midnightblue" points="586.64,-173.3 576.24,-175.33 585.64,-180.23 586.64,-173.3"/>
</g>
<!-- Node5 -->
<g id="node6" class="node">
<title>Node5</title>
<g id="a_node6"><a xlink:href="classDynExpInstr_1_1NetworkDigitalOutT.html" target="_top" xlink:title=" ">
<polygon fill="white" stroke="black" points="627.5,-131 627.5,-161 797.5,-161 797.5,-131 627.5,-131"/>
<text text-anchor="start" x="635.5" y="-149" font-family="Helvetica,sans-Serif" font-size="10.00">DynExpInstr::NetworkDigital</text>
<text text-anchor="middle" x="712.5" y="-138" font-family="Helvetica,sans-Serif" font-size="10.00">OutT&lt; BaseInstr,, gRPCStubs &gt;</text>
</a>
</g>
</g>
<!-- Node1&#45;&gt;Node5 -->
<g id="edge6" class="edge">
<title>Node1&#45;&gt;Node5</title>
<path fill="none" stroke="midnightblue" d="M586.51,-155.66C600.03,-154.61 613.86,-153.54 627.16,-152.52"/>
<polygon fill="midnightblue" stroke="midnightblue" points="585.94,-152.19 576.24,-156.45 586.48,-159.17 585.94,-152.19"/>
</g>
<!-- Node6 -->
<g id="node7" class="node">
<title>Node6</title>
<g id="a_node7"><a xlink:href="classDynExpInstr_1_1NetworkTimeTaggerT.html" target="_top" xlink:title=" ">
<polygon fill="white" stroke="black" points="620,-82 620,-112 805,-112 805,-82 620,-82"/>
<text text-anchor="start" x="628" y="-100" font-family="Helvetica,sans-Serif" font-size="10.00">DynExpInstr::NetworkTime</text>
<text text-anchor="middle" x="712.5" y="-89" font-family="Helvetica,sans-Serif" font-size="10.00">TaggerT&lt; BaseInstr,, gRPCStubs &gt;</text>
</a>
</g>
</g>
<!-- Node1&#45;&gt;Node6 -->
<g id="edge7" class="edge">
<title>Node1&#45;&gt;Node6</title>
<path fill="none" stroke="midnightblue" d="M564.76,-139.34C587.2,-132.15 608.9,-125.29 620,-122 631.21,-118.68 643.24,-115.28 654.78,-112.1"/>
<polygon fill="midnightblue" stroke="midnightblue" points="563.57,-136.04 555.12,-142.43 565.71,-142.71 563.57,-136.04"/>
</g>
<!-- Node14 -->
<g id="node10" class="node">
<title>Node14</title>
<g id="a_node10"><a xlink:href="classDynExpInstr_1_1NetworkDataStreamInstrumentT.html" target="_top" xlink:title=" ">
<polygon fill="white" stroke="black" points="397,-0.5 397,-63.5 584,-63.5 584,-0.5 397,-0.5"/>
<text text-anchor="start" x="405" y="-51.5" font-family="Helvetica,sans-Serif" font-size="10.00">DynExpInstr::NetworkData</text>
<text text-anchor="start" x="405" y="-40.5" font-family="Helvetica,sans-Serif" font-size="10.00">StreamInstrumentT&lt; DataStream</text>
<text text-anchor="start" x="405" y="-29.5" font-family="Helvetica,sans-Serif" font-size="10.00">Instrument, 0, DynExpProto</text>
<text text-anchor="start" x="405" y="-18.5" font-family="Helvetica,sans-Serif" font-size="10.00">::NetworkDataStreamInstrument</text>
<text text-anchor="middle" x="490.5" y="-7.5" font-family="Helvetica,sans-Serif" font-size="10.00">::NetworkDataStreamInstrument &gt;</text>
</a>
</g>
</g>
<!-- Node13&#45;&gt;Node14 -->
<g id="edge10" class="edge">
<title>Node13&#45;&gt;Node14</title>
<path fill="none" stroke="midnightblue" d="M369.57,-40.59C378.55,-39.94 387.69,-39.29 396.7,-38.64"/>
<polygon fill="midnightblue" stroke="midnightblue" points="369.23,-37.1 359.5,-41.31 369.73,-44.08 369.23,-37.1"/>
</g>
<!-- Node15 -->
<g id="node11" class="node">
<title>Node15</title>
<g id="a_node11"><a xlink:href="classDynExpInstr_1_1NetworkDataStreamInstrument.html" target="_top" xlink:title="Explicit instantiation of derivable class NetworkDataStreamInstrumentT to create the network data str...">
<polygon fill="white" stroke="black" points="639.5,-17 639.5,-47 785.5,-47 785.5,-17 639.5,-17"/>
<text text-anchor="start" x="647.5" y="-35" font-family="Helvetica,sans-Serif" font-size="10.00">DynExpInstr::NetworkData</text>
<text text-anchor="middle" x="712.5" y="-24" font-family="Helvetica,sans-Serif" font-size="10.00">StreamInstrument</text>
</a>
</g>
</g>
<!-- Node14&#45;&gt;Node15 -->
<g id="edge11" class="edge">
<title>Node14&#45;&gt;Node15</title>
<path fill="none" stroke="midnightblue" d="M594.59,-32C609.71,-32 625.01,-32 639.33,-32"/>
<polygon fill="midnightblue" stroke="midnightblue" points="594.16,-28.5 584.16,-32 594.16,-35.5 594.16,-28.5"/>
</g>
</g>
</svg>
