<?xml version="1.0" encoding="UTF-8" standalone="no"?>
<!DOCTYPE svg PUBLIC "-//W3C//DTD SVG 1.1//EN"
 "http://www.w3.org/Graphics/SVG/1.1/DTD/svg11.dtd">
<!-- Generated by graphviz version 2.43.0 (0)
 -->
<!-- Title: Graphical Class Hierarchy Pages: 1 -->
<svg width="885pt" height="305pt"
 viewBox="0.00 0.00 885.00 304.50" xmlns="http://www.w3.org/2000/svg" xmlns:xlink="http://www.w3.org/1999/xlink">
<g id="graph0" class="graph" transform="scale(1 1) rotate(0) translate(4 300.5)">
<title>Graphical Class Hierarchy</title>
<!-- Node0 -->
<g id="Node000000" class="node">
<title>Node0</title>
<g id="a_Node000000"><a xlink:title=" ">
<polygon fill="#e0e0e0" stroke="#999999" points="148,-210 0,-210 0,-191 148,-191 148,-210"/>
<text text-anchor="middle" x="74" y="-198" font-family="Helvetica,sans-Serif" font-size="10.00">BaseInstr::UpdateTaskType</text>
</a>
</g>
</g>
<!-- Node1 -->
<g id="Node000001" class="node">
<title>Node1</title>
<g id="a_Node000001"><a xlink:href="classDynExpInstr_1_1gRPCInstrumentTasks_1_1UpdateTask.html" target="_top" xlink:title=" ">
<polygon fill="white" stroke="#666666" points="412,-296.5 204,-296.5 204,-244.5 412,-244.5 412,-296.5"/>
<text text-anchor="start" x="212" y="-284.5" font-family="Helvetica,sans-Serif" font-size="10.00">DynExpInstr::gRPCInstrument</text>
<text text-anchor="start" x="212" y="-273.5" font-family="Helvetica,sans-Serif" font-size="10.00">Tasks::UpdateTask&lt; Spectrometer,</text>
<text text-anchor="start" x="212" y="-262.5" font-family="Helvetica,sans-Serif" font-size="10.00"> 0, DynExpProto::NetworkSpectrometer</text>
<text text-anchor="middle" x="308" y="-251.5" font-family="Helvetica,sans-Serif" font-size="10.00">::NetworkSpectrometer &gt;</text>
</a>
</g>
</g>
<!-- Node0&#45;&gt;Node1 -->
<g id="edge75_Node000000_Node000001" class="edge">
<title>Node0&#45;&gt;Node1</title>
<g id="a_edge75_Node000000_Node000001"><a xlink:title=" ">
<path fill="none" stroke="#63b8ff" d="M113.8,-213.31C134.57,-220.08 160.62,-228.42 184,-235.5 193.77,-238.46 204.01,-241.48 214.22,-244.46"/>
<polygon fill="#63b8ff" stroke="#63b8ff" points="114.66,-209.9 104.06,-210.12 112.48,-216.56 114.66,-209.9"/>
</a>
</g>
</g>
<!-- Node3 -->
<g id="Node000003" class="node">
<title>Node3</title>
<g id="a_Node000003"><a xlink:href="classDynExpInstr_1_1gRPCInstrumentTasks_1_1UpdateTask.html" target="_top" xlink:title=" ">
<polygon fill="white" stroke="#666666" points="432,-226.5 184,-226.5 184,-174.5 432,-174.5 432,-226.5"/>
<text text-anchor="start" x="192" y="-214.5" font-family="Helvetica,sans-Serif" font-size="10.00">DynExpInstr::gRPCInstrument</text>
<text text-anchor="start" x="192" y="-203.5" font-family="Helvetica,sans-Serif" font-size="10.00">Tasks::UpdateTask&lt; DynExp</text>
<text text-anchor="start" x="192" y="-192.5" font-family="Helvetica,sans-Serif" font-size="10.00">::InstrumentBase, 0, DynExpProto</text>
<text text-anchor="middle" x="308" y="-181.5" font-family="Helvetica,sans-Serif" font-size="10.00">::WidefieldLocalization::WidefieldLocalization &gt;</text>
</a>
</g>
</g>
<!-- Node0&#45;&gt;Node3 -->
<g id="edge77_Node000000_Node000003" class="edge">
<title>Node0&#45;&gt;Node3</title>
<g id="a_edge77_Node000000_Node000003"><a xlink:title=" ">
<path fill="none" stroke="#63b8ff" d="M158.14,-200.5C166.5,-200.5 175.1,-200.5 183.75,-200.5"/>
<polygon fill="#63b8ff" stroke="#63b8ff" points="158.09,-197 148.09,-200.5 158.09,-204 158.09,-197"/>
</a>
</g>
</g>
<!-- Node5 -->
<g id="Node000005" class="node">
<title>Node5</title>
<g id="a_Node000005"><a xlink:href="classDynExpInstr_1_1gRPCInstrumentTasks_1_1UpdateTask.html" target="_top" xlink:title="Defines a task for updating an instrument within an instrument inheritance hierarchy....">
<polygon fill="white" stroke="#666666" points="391.5,-156 224.5,-156 224.5,-115 391.5,-115 391.5,-156"/>
<text text-anchor="start" x="232.5" y="-144" font-family="Helvetica,sans-Serif" font-size="10.00">DynExpInstr::gRPCInstrument</text>
<text text-anchor="start" x="232.5" y="-133" font-family="Helvetica,sans-Serif" font-size="10.00">Tasks::UpdateTask&lt; BaseInstr,</text>
<text text-anchor="middle" x="308" y="-122" font-family="Helvetica,sans-Serif" font-size="10.00">, gRPCStubs &gt;</text>
</a>
</g>
</g>
<!-- Node0&#45;&gt;Node5 -->
<g id="edge79_Node000000_Node000005" class="edge">
<title>Node0&#45;&gt;Node5</title>
<g id="a_edge79_Node000000_Node000005"><a xlink:title=" ">
<path fill="none" stroke="#63b8ff" d="M112.83,-187.62C133.71,-180.7 160.16,-172.22 184,-165.5 197.01,-161.83 210.87,-158.19 224.42,-154.78"/>
<polygon fill="#63b8ff" stroke="#63b8ff" points="111.44,-184.39 103.06,-190.88 113.66,-191.03 111.44,-184.39"/>
</a>
</g>
</g>
<!-- Node2 -->
<g id="Node000002" class="node">
<title>Node2</title>
<g id="a_Node000002"><a xlink:href="classDynExpInstr_1_1NetworkSpectrometerTasks_1_1UpdateTask.html" target="_top" xlink:title=" ">
<polygon fill="white" stroke="#666666" points="657,-285.5 468,-285.5 468,-255.5 657,-255.5 657,-285.5"/>
<text text-anchor="start" x="476" y="-273.5" font-family="Helvetica,sans-Serif" font-size="10.00">DynExpInstr::NetworkSpectrometer</text>
<text text-anchor="middle" x="562.5" y="-262.5" font-family="Helvetica,sans-Serif" font-size="10.00">Tasks::UpdateTask</text>
</a>
</g>
</g>
<!-- Node1&#45;&gt;Node2 -->
<g id="edge76_Node000001_Node000002" class="edge">
<title>Node1&#45;&gt;Node2</title>
<g id="a_edge76_Node000001_Node000002"><a xlink:title=" ">
<path fill="none" stroke="#63b8ff" d="M422.48,-270.5C437.6,-270.5 452.97,-270.5 467.7,-270.5"/>
<polygon fill="#63b8ff" stroke="#63b8ff" points="422.07,-267 412.07,-270.5 422.07,-274 422.07,-267"/>
</a>
</g>
</g>
<!-- Node4 -->
<g id="Node000004" class="node">
<title>Node4</title>
<g id="a_Node000004"><a xlink:href="classDynExpInstr_1_1WidefieldLocalizationTasks_1_1UpdateTask.html" target="_top" xlink:title=" ">
<polygon fill="white" stroke="#666666" points="655.5,-215.5 469.5,-215.5 469.5,-185.5 655.5,-185.5 655.5,-215.5"/>
<text text-anchor="start" x="477.5" y="-203.5" font-family="Helvetica,sans-Serif" font-size="10.00">DynExpInstr::WidefieldLocalization</text>
<text text-anchor="middle" x="562.5" y="-192.5" font-family="Helvetica,sans-Serif" font-size="10.00">Tasks::UpdateTask</text>
</a>
</g>
</g>
<!-- Node3&#45;&gt;Node4 -->
<g id="edge78_Node000003_Node000004" class="edge">
<title>Node3&#45;&gt;Node4</title>
<g id="a_edge78_Node000003_Node000004"><a xlink:title=" ">
<path fill="none" stroke="#63b8ff" d="M442.56,-200.5C451.64,-200.5 460.68,-200.5 469.47,-200.5"/>
<polygon fill="#63b8ff" stroke="#63b8ff" points="442.29,-197 432.29,-200.5 442.29,-204 442.29,-197"/>
</a>
</g>
</g>
<!-- Node6 -->
<g id="Node000006" class="node">
<title>Node6</title>
<g id="a_Node000006"><a xlink:href="classDynExpInstr_1_1NetworkDataStreamInstrumentTasks_1_1UpdateTask.html" target="_top" xlink:title=" ">
<polygon fill="white" stroke="#666666" points="635.5,-164.5 489.5,-164.5 489.5,-112.5 635.5,-112.5 635.5,-164.5"/>
<text text-anchor="start" x="497.5" y="-152.5" font-family="Helvetica,sans-Serif" font-size="10.00">DynExpInstr::NetworkData</text>
<text text-anchor="start" x="497.5" y="-141.5" font-family="Helvetica,sans-Serif" font-size="10.00">StreamInstrumentTasks</text>
<text text-anchor="start" x="497.5" y="-130.5" font-family="Helvetica,sans-Serif" font-size="10.00">::UpdateTask&lt; BaseInstr,</text>
<text text-anchor="middle" x="562.5" y="-119.5" font-family="Helvetica,sans-Serif" font-size="10.00"> 0, gRPCStubs... &gt;</text>
</a>
</g>
</g>
<!-- Node5&#45;&gt;Node6 -->
<g id="edge80_Node000005_Node000006" class="edge">
<title>Node5&#45;&gt;Node6</title>
<g id="a_edge80_Node000005_Node000006"><a xlink:title=" ">
<path fill="none" stroke="#63b8ff" d="M401.77,-136.6C430.63,-136.95 462.01,-137.32 489.25,-137.64"/>
<polygon fill="#63b8ff" stroke="#63b8ff" points="401.72,-133.1 391.68,-136.48 401.64,-140.1 401.72,-133.1"/>
</a>
</g>
</g>
<!-- Node12 -->
<g id="Node000012" class="node">
<title>Node12</title>
<g id="a_Node000012"><a xlink:href="classDynExpInstr_1_1NetworkDataStreamInstrumentTasks_1_1UpdateTask.html" target="_top" xlink:title=" ">
<polygon fill="white" stroke="#666666" points="635.5,-94.5 489.5,-94.5 489.5,-42.5 635.5,-42.5 635.5,-94.5"/>
<text text-anchor="start" x="497.5" y="-82.5" font-family="Helvetica,sans-Serif" font-size="10.00">DynExpInstr::NetworkData</text>
<text text-anchor="start" x="497.5" y="-71.5" font-family="Helvetica,sans-Serif" font-size="10.00">StreamInstrumentTasks</text>
<text text-anchor="start" x="497.5" y="-60.5" font-family="Helvetica,sans-Serif" font-size="10.00">::UpdateTask&lt; BaseInstr,</text>
<text text-anchor="middle" x="562.5" y="-49.5" font-family="Helvetica,sans-Serif" font-size="10.00">, gRPCStubs &gt;</text>
</a>
</g>
</g>
<!-- Node5&#45;&gt;Node12 -->
<g id="edge86_Node000005_Node000012" class="edge">
<title>Node5&#45;&gt;Node12</title>
<g id="a_edge86_Node000005_Node000012"><a xlink:title=" ">
<path fill="none" stroke="#63b8ff" d="M396.21,-112.36C426.59,-104.3 460.32,-95.35 489.34,-87.65"/>
<polygon fill="#63b8ff" stroke="#63b8ff" points="395.24,-108.99 386.47,-114.94 397.04,-115.76 395.24,-108.99"/>
</a>
</g>
</g>
<!-- Node7 -->
<g id="Node000007" class="node">
<title>Node7</title>
<g id="a_Node000007"><a xlink:href="classDynExpInstr_1_1NetworkAnalogInTasks_1_1UpdateTask.html" target="_top" xlink:title=" ">
<polygon fill="white" stroke="#666666" points="873,-277 697,-277 697,-236 873,-236 873,-277"/>
<text text-anchor="start" x="705" y="-265" font-family="Helvetica,sans-Serif" font-size="10.00">DynExpInstr::NetworkAnalog</text>
<text text-anchor="start" x="705" y="-254" font-family="Helvetica,sans-Serif" font-size="10.00">InTasks::UpdateTask&lt; BaseInstr,</text>
<text text-anchor="middle" x="785" y="-243" font-family="Helvetica,sans-Serif" font-size="10.00">, gRPCStubs &gt;</text>
</a>
</g>
</g>
<!-- Node6&#45;&gt;Node7 -->
<g id="edge81_Node000006_Node000007" class="edge">
<title>Node6&#45;&gt;Node7</title>
<g id="a_edge81_Node000006_Node000007"><a xlink:title=" ">
<path fill="none" stroke="#63b8ff" d="M644.79,-168C649.07,-170.63 653.17,-173.46 657,-176.5 678.73,-193.75 670.62,-211.1 693,-227.5 697.28,-230.64 701.91,-233.44 706.74,-235.95"/>
<polygon fill="#63b8ff" stroke="#63b8ff" points="646.23,-164.79 635.81,-162.89 642.76,-170.88 646.23,-164.79"/>
</a>
</g>
</g>
<!-- Node8 -->
<g id="Node000008" class="node">
<title>Node8</title>
<g id="a_Node000008"><a xlink:href="classDynExpInstr_1_1NetworkAnalogOutTasks_1_1UpdateTask.html" target="_top" xlink:title=" ">
<polygon fill="white" stroke="#666666" points="877,-218 693,-218 693,-177 877,-177 877,-218"/>
<text text-anchor="start" x="701" y="-206" font-family="Helvetica,sans-Serif" font-size="10.00">DynExpInstr::NetworkAnalog</text>
<text text-anchor="start" x="701" y="-195" font-family="Helvetica,sans-Serif" font-size="10.00">OutTasks::UpdateTask&lt; BaseInstr,</text>
<text text-anchor="middle" x="785" y="-184" font-family="Helvetica,sans-Serif" font-size="10.00">, gRPCStubs &gt;</text>
</a>
</g>
</g>
<!-- Node6&#45;&gt;Node8 -->
<g id="edge82_Node000006_Node000008" class="edge">
<title>Node6&#45;&gt;Node8</title>
<g id="a_edge82_Node000006_Node000008"><a xlink:title=" ">
<path fill="none" stroke="#63b8ff" d="M645.48,-160.44C665.64,-165.83 687.17,-171.59 707.08,-176.92"/>
<polygon fill="#63b8ff" stroke="#63b8ff" points="646.26,-157.02 635.7,-157.82 644.46,-163.78 646.26,-157.02"/>
</a>
</g>
</g>
<!-- Node9 -->
<g id="Node000009" class="node">
<title>Node9</title>
<g id="a_Node000009"><a xlink:href="classDynExpInstr_1_1NetworkDigitalInTasks_1_1UpdateTask.html" target="_top" xlink:title=" ">
<polygon fill="white" stroke="#666666" points="873,-159 697,-159 697,-118 873,-118 873,-159"/>
<text text-anchor="start" x="705" y="-147" font-family="Helvetica,sans-Serif" font-size="10.00">DynExpInstr::NetworkDigital</text>
<text text-anchor="start" x="705" y="-136" font-family="Helvetica,sans-Serif" font-size="10.00">InTasks::UpdateTask&lt; BaseInstr,</text>
<text text-anchor="middle" x="785" y="-125" font-family="Helvetica,sans-Serif" font-size="10.00">, gRPCStubs &gt;</text>
</a>
</g>
</g>
<!-- Node6&#45;&gt;Node9 -->
<g id="edge83_Node000006_Node000009" class="edge">
<title>Node6&#45;&gt;Node9</title>
<g id="a_edge83_Node000006_Node000009"><a xlink:title=" ">
<path fill="none" stroke="#63b8ff" d="M645.88,-138.5C662.45,-138.5 679.91,-138.5 696.64,-138.5"/>
<polygon fill="#63b8ff" stroke="#63b8ff" points="645.7,-135 635.7,-138.5 645.7,-142 645.7,-135"/>
</a>
</g>
</g>
<!-- Node10 -->
<g id="Node000010" class="node">
<title>Node10</title>
<g id="a_Node000010"><a xlink:href="classDynExpInstr_1_1NetworkDigitalOutTasks_1_1UpdateTask.html" target="_top" xlink:title=" ">
<polygon fill="white" stroke="#666666" points="877,-100 693,-100 693,-59 877,-59 877,-100"/>
<text text-anchor="start" x="701" y="-88" font-family="Helvetica,sans-Serif" font-size="10.00">DynExpInstr::NetworkDigital</text>
<text text-anchor="start" x="701" y="-77" font-family="Helvetica,sans-Serif" font-size="10.00">OutTasks::UpdateTask&lt; BaseInstr,</text>
<text text-anchor="middle" x="785" y="-66" font-family="Helvetica,sans-Serif" font-size="10.00">, gRPCStubs &gt;</text>
</a>
</g>
</g>
<!-- Node6&#45;&gt;Node10 -->
<g id="edge84_Node000006_Node000010" class="edge">
<title>Node6&#45;&gt;Node10</title>
<g id="a_edge84_Node000006_Node000010"><a xlink:title=" ">
<path fill="none" stroke="#63b8ff" d="M645.48,-116.56C665.64,-111.17 687.17,-105.41 707.08,-100.08"/>
<polygon fill="#63b8ff" stroke="#63b8ff" points="644.46,-113.22 635.7,-119.18 646.26,-119.98 644.46,-113.22"/>
</a>
</g>
</g>
<!-- Node11 -->
<g id="Node000011" class="node">
<title>Node11</title>
<g id="a_Node000011"><a xlink:href="classDynExpInstr_1_1NetworkTimeTaggerTasks_1_1UpdateTask.html" target="_top" xlink:title=" ">
<polygon fill="white" stroke="#666666" points="859,-41 711,-41 711,0 859,0 859,-41"/>
<text text-anchor="start" x="719" y="-29" font-family="Helvetica,sans-Serif" font-size="10.00">DynExpInstr::NetworkTime</text>
<text text-anchor="start" x="719" y="-18" font-family="Helvetica,sans-Serif" font-size="10.00">TaggerTasks::UpdateTask</text>
<text text-anchor="middle" x="785" y="-7" font-family="Helvetica,sans-Serif" font-size="10.00">&lt; BaseInstr,, gRPCStubs &gt;</text>
</a>
</g>
</g>
<!-- Node6&#45;&gt;Node11 -->
<g id="edge85_Node000006_Node000011" class="edge">
<title>Node6&#45;&gt;Node11</title>
<g id="a_edge85_Node000006_Node000011"><a xlink:title=" ">
<path fill="none" stroke="#63b8ff" d="M644.88,-111.81C649.14,-109.27 653.21,-106.51 657,-103.5 679.6,-85.58 669.96,-66.86 693,-49.5 698.43,-45.41 704.45,-41.89 710.74,-38.85"/>
<polygon fill="#63b8ff" stroke="#63b8ff" points="643.02,-108.85 635.94,-116.73 646.39,-114.98 643.02,-108.85"/>
</a>
</g>
</g>
</g>
</svg>
