<?xml version="1.0" encoding="UTF-8" standalone="no"?>
<!DOCTYPE svg PUBLIC "-//W3C//DTD SVG 1.1//EN"
 "http://www.w3.org/Graphics/SVG/1.1/DTD/svg11.dtd">
<!-- Generated by graphviz version 2.43.0 (0)
 -->
<!-- Title: Graphical Class Hierarchy Pages: 1 -->
<svg width="845pt" height="310pt"
 viewBox="0.00 0.00 845.00 309.50" xmlns="http://www.w3.org/2000/svg" xmlns:xlink="http://www.w3.org/1999/xlink">
<g id="graph0" class="graph" transform="scale(1 1) rotate(0) translate(4 305.5)">
<title>Graphical Class Hierarchy</title>
<polygon fill="white" stroke="transparent" points="-4,4 -4,-305.5 841,-305.5 841,4 -4,4"/>
<!-- Node230 -->
<g id="node1" class="node">
<title>Node230</title>
<g id="a_node1"><a xlink:title=" ">
<polygon fill="white" stroke="#bfbfbf" points="0,-194.5 0,-213.5 128,-213.5 128,-194.5 0,-194.5"/>
<text text-anchor="middle" x="64" y="-201.5" font-family="Helvetica,sans-Serif" font-size="10.00">BaseInstr::InitTaskType</text>
</a>
</g>
</g>
<!-- Node0 -->
<g id="node2" class="node">
<title>Node0</title>
<g id="a_node2"><a xlink:href="classDynExpInstr_1_1gRPCInstrumentTasks_1_1InitTask.html" target="_top" xlink:title=" ">
<polygon fill="white" stroke="black" points="184,-249 184,-301 392,-301 392,-249 184,-249"/>
<text text-anchor="start" x="192" y="-289" font-family="Helvetica,sans-Serif" font-size="10.00">DynExpInstr::gRPCInstrument</text>
<text text-anchor="start" x="192" y="-278" font-family="Helvetica,sans-Serif" font-size="10.00">Tasks::InitTask&lt; Spectrometer,</text>
<text text-anchor="start" x="192" y="-267" font-family="Helvetica,sans-Serif" font-size="10.00"> 0, DynExpProto::NetworkSpectrometer</text>
<text text-anchor="middle" x="288" y="-256" font-family="Helvetica,sans-Serif" font-size="10.00">::NetworkSpectrometer &gt;</text>
</a>
</g>
</g>
<!-- Node230&#45;&gt;Node0 -->
<g id="edge1" class="edge">
<title>Node230&#45;&gt;Node0</title>
<path fill="none" stroke="midnightblue" d="M99.07,-217.07C118.07,-224.19 142.22,-232.95 164,-240 173.29,-243.01 183.03,-246.02 192.77,-248.93"/>
<polygon fill="midnightblue" stroke="midnightblue" points="100.24,-213.77 89.65,-213.52 97.77,-220.32 100.24,-213.77"/>
</g>
<!-- Node233 -->
<g id="node4" class="node">
<title>Node233</title>
<g id="a_node4"><a xlink:href="classDynExpInstr_1_1gRPCInstrumentTasks_1_1InitTask.html" target="_top" xlink:title=" ">
<polygon fill="white" stroke="black" points="164,-178 164,-230 412,-230 412,-178 164,-178"/>
<text text-anchor="start" x="172" y="-218" font-family="Helvetica,sans-Serif" font-size="10.00">DynExpInstr::gRPCInstrument</text>
<text text-anchor="start" x="172" y="-207" font-family="Helvetica,sans-Serif" font-size="10.00">Tasks::InitTask&lt; DynExp</text>
<text text-anchor="start" x="172" y="-196" font-family="Helvetica,sans-Serif" font-size="10.00">::InstrumentBase, 0, DynExpProto</text>
<text text-anchor="middle" x="288" y="-185" font-family="Helvetica,sans-Serif" font-size="10.00">::WidefieldLocalization::WidefieldLocalization &gt;</text>
</a>
</g>
</g>
<!-- Node230&#45;&gt;Node233 -->
<g id="edge3" class="edge">
<title>Node230&#45;&gt;Node233</title>
<path fill="none" stroke="midnightblue" d="M138.27,-204C146.51,-204 155.05,-204 163.71,-204"/>
<polygon fill="midnightblue" stroke="midnightblue" points="138.02,-200.5 128.02,-204 138.02,-207.5 138.02,-200.5"/>
</g>
<!-- Node235 -->
<g id="node6" class="node">
<title>Node235</title>
<g id="a_node6"><a xlink:href="classDynExpInstr_1_1gRPCInstrumentTasks_1_1InitTask.html" target="_top" xlink:title="Defines a task for initializing an instrument within an instrument inheritance hierarchy....">
<polygon fill="white" stroke="black" points="207.5,-117.5 207.5,-158.5 368.5,-158.5 368.5,-117.5 207.5,-117.5"/>
<text text-anchor="start" x="215.5" y="-146.5" font-family="Helvetica,sans-Serif" font-size="10.00">DynExpInstr::gRPCInstrument</text>
<text text-anchor="start" x="215.5" y="-135.5" font-family="Helvetica,sans-Serif" font-size="10.00">Tasks::InitTask&lt; BaseInstr,</text>
<text text-anchor="middle" x="288" y="-124.5" font-family="Helvetica,sans-Serif" font-size="10.00">, gRPCStubs &gt;</text>
</a>
</g>
</g>
<!-- Node230&#45;&gt;Node235 -->
<g id="edge5" class="edge">
<title>Node230&#45;&gt;Node235</title>
<path fill="none" stroke="midnightblue" d="M99.41,-190.95C118.33,-184 142.3,-175.55 164,-169 177.91,-164.8 192.83,-160.7 207.3,-156.94"/>
<polygon fill="midnightblue" stroke="midnightblue" points="98.18,-187.67 90.01,-194.43 100.61,-194.24 98.18,-187.67"/>
</g>
<!-- Node1 -->
<g id="node3" class="node">
<title>Node1</title>
<g id="a_node3"><a xlink:href="classDynExpInstr_1_1NetworkSpectrometerTasks_1_1InitTask.html" target="_top" xlink:title=" ">
<polygon fill="white" stroke="black" points="448,-260 448,-290 637,-290 637,-260 448,-260"/>
<text text-anchor="start" x="456" y="-278" font-family="Helvetica,sans-Serif" font-size="10.00">DynExpInstr::NetworkSpectrometer</text>
<text text-anchor="middle" x="542.5" y="-267" font-family="Helvetica,sans-Serif" font-size="10.00">Tasks::InitTask</text>
</a>
</g>
</g>
<!-- Node0&#45;&gt;Node1 -->
<g id="edge2" class="edge">
<title>Node0&#45;&gt;Node1</title>
<path fill="none" stroke="midnightblue" d="M402.48,-275C417.6,-275 432.97,-275 447.7,-275"/>
<polygon fill="midnightblue" stroke="midnightblue" points="402.07,-271.5 392.07,-275 402.07,-278.5 402.07,-271.5"/>
</g>
<!-- Node234 -->
<g id="node5" class="node">
<title>Node234</title>
<g id="a_node5"><a xlink:href="classDynExpInstr_1_1WidefieldLocalizationTasks_1_1InitTask.html" target="_top" xlink:title=" ">
<polygon fill="white" stroke="black" points="449.5,-189 449.5,-219 635.5,-219 635.5,-189 449.5,-189"/>
<text text-anchor="start" x="457.5" y="-207" font-family="Helvetica,sans-Serif" font-size="10.00">DynExpInstr::WidefieldLocalization</text>
<text text-anchor="middle" x="542.5" y="-196" font-family="Helvetica,sans-Serif" font-size="10.00">Tasks::InitTask</text>
</a>
</g>
</g>
<!-- Node233&#45;&gt;Node234 -->
<g id="edge4" class="edge">
<title>Node233&#45;&gt;Node234</title>
<path fill="none" stroke="midnightblue" d="M422.56,-204C431.64,-204 440.68,-204 449.47,-204"/>
<polygon fill="midnightblue" stroke="midnightblue" points="422.29,-200.5 412.29,-204 422.29,-207.5 422.29,-200.5"/>
</g>
<!-- Node236 -->
<g id="node7" class="node">
<title>Node236</title>
<g id="a_node7"><a xlink:href="classDynExpInstr_1_1NetworkDataStreamInstrumentTasks_1_1InitTask.html" target="_top" xlink:title=" ">
<polygon fill="white" stroke="black" points="469.5,-115 469.5,-167 615.5,-167 615.5,-115 469.5,-115"/>
<text text-anchor="start" x="477.5" y="-155" font-family="Helvetica,sans-Serif" font-size="10.00">DynExpInstr::NetworkData</text>
<text text-anchor="start" x="477.5" y="-144" font-family="Helvetica,sans-Serif" font-size="10.00">StreamInstrumentTasks</text>
<text text-anchor="start" x="477.5" y="-133" font-family="Helvetica,sans-Serif" font-size="10.00">::InitTask&lt; BaseInstr,</text>
<text text-anchor="middle" x="542.5" y="-122" font-family="Helvetica,sans-Serif" font-size="10.00"> 0, gRPCStubs... &gt;</text>
</a>
</g>
</g>
<!-- Node235&#45;&gt;Node236 -->
<g id="edge6" class="edge">
<title>Node235&#45;&gt;Node236</title>
<path fill="none" stroke="midnightblue" d="M378.89,-139.07C408.52,-139.42 441.06,-139.81 469.21,-140.14"/>
<polygon fill="midnightblue" stroke="midnightblue" points="378.59,-135.56 368.55,-138.95 378.5,-142.56 378.59,-135.56"/>
</g>
<!-- Node242 -->
<g id="node13" class="node">
<title>Node242</title>
<g id="a_node13"><a xlink:href="classDynExpInstr_1_1NetworkDataStreamInstrumentTasks_1_1InitTask.html" target="_top" xlink:title=" ">
<polygon fill="white" stroke="black" points="469.5,-44 469.5,-96 615.5,-96 615.5,-44 469.5,-44"/>
<text text-anchor="start" x="477.5" y="-84" font-family="Helvetica,sans-Serif" font-size="10.00">DynExpInstr::NetworkData</text>
<text text-anchor="start" x="477.5" y="-73" font-family="Helvetica,sans-Serif" font-size="10.00">StreamInstrumentTasks</text>
<text text-anchor="start" x="477.5" y="-62" font-family="Helvetica,sans-Serif" font-size="10.00">::InitTask&lt; BaseInstr,,</text>
<text text-anchor="middle" x="542.5" y="-51" font-family="Helvetica,sans-Serif" font-size="10.00"> gRPCStubs &gt;</text>
</a>
</g>
</g>
<!-- Node235&#45;&gt;Node242 -->
<g id="edge12" class="edge">
<title>Node235&#45;&gt;Node242</title>
<path fill="none" stroke="midnightblue" d="M375.24,-114.77C405.83,-106.54 439.9,-97.36 469.21,-89.47"/>
<polygon fill="midnightblue" stroke="midnightblue" points="374.19,-111.43 365.44,-117.41 376.01,-118.19 374.19,-111.43"/>
</g>
<!-- Node237 -->
<g id="node8" class="node">
<title>Node237</title>
<g id="a_node8"><a xlink:href="classDynExpInstr_1_1NetworkAnalogInTasks_1_1InitTask.html" target="_top" xlink:title=" ">
<polygon fill="white" stroke="black" points="676.5,-240.5 676.5,-281.5 833.5,-281.5 833.5,-240.5 676.5,-240.5"/>
<text text-anchor="start" x="684.5" y="-269.5" font-family="Helvetica,sans-Serif" font-size="10.00">DynExpInstr::NetworkAnalog</text>
<text text-anchor="start" x="684.5" y="-258.5" font-family="Helvetica,sans-Serif" font-size="10.00">InTasks::InitTask&lt; BaseInstr,</text>
<text text-anchor="middle" x="755" y="-247.5" font-family="Helvetica,sans-Serif" font-size="10.00">, gRPCStubs &gt;</text>
</a>
</g>
</g>
<!-- Node236&#45;&gt;Node237 -->
<g id="edge7" class="edge">
<title>Node236&#45;&gt;Node237</title>
<path fill="none" stroke="midnightblue" d="M624.79,-171.4C629.06,-174.07 633.17,-176.93 637,-180 658.65,-197.35 651,-214.09 673,-231 677.52,-234.47 682.48,-237.58 687.65,-240.34"/>
<polygon fill="midnightblue" stroke="midnightblue" points="626.21,-168.18 615.8,-166.2 622.71,-174.24 626.21,-168.18"/>
</g>
<!-- Node238 -->
<g id="node9" class="node">
<title>Node238</title>
<g id="a_node9"><a xlink:href="classDynExpInstr_1_1NetworkAnalogOutTasks_1_1InitTask.html" target="_top" xlink:title=" ">
<polygon fill="white" stroke="black" points="673,-180.5 673,-221.5 837,-221.5 837,-180.5 673,-180.5"/>
<text text-anchor="start" x="681" y="-209.5" font-family="Helvetica,sans-Serif" font-size="10.00">DynExpInstr::NetworkAnalog</text>
<text text-anchor="start" x="681" y="-198.5" font-family="Helvetica,sans-Serif" font-size="10.00">OutTasks::InitTask&lt; BaseInstr,</text>
<text text-anchor="middle" x="755" y="-187.5" font-family="Helvetica,sans-Serif" font-size="10.00">, gRPCStubs &gt;</text>
</a>
</g>
</g>
<!-- Node236&#45;&gt;Node238 -->
<g id="edge8" class="edge">
<title>Node236&#45;&gt;Node238</title>
<path fill="none" stroke="midnightblue" d="M625.31,-164.32C643.99,-169.64 663.71,-175.26 681.95,-180.46"/>
<polygon fill="midnightblue" stroke="midnightblue" points="626.22,-160.94 615.65,-161.56 624.31,-167.67 626.22,-160.94"/>
</g>
<!-- Node239 -->
<g id="node10" class="node">
<title>Node239</title>
<g id="a_node10"><a xlink:href="classDynExpInstr_1_1NetworkDigitalInTasks_1_1InitTask.html" target="_top" xlink:title=" ">
<polygon fill="white" stroke="black" points="677,-120.5 677,-161.5 833,-161.5 833,-120.5 677,-120.5"/>
<text text-anchor="start" x="685" y="-149.5" font-family="Helvetica,sans-Serif" font-size="10.00">DynExpInstr::NetworkDigital</text>
<text text-anchor="start" x="685" y="-138.5" font-family="Helvetica,sans-Serif" font-size="10.00">InTasks::InitTask&lt; BaseInstr,</text>
<text text-anchor="middle" x="755" y="-127.5" font-family="Helvetica,sans-Serif" font-size="10.00">, gRPCStubs &gt;</text>
</a>
</g>
</g>
<!-- Node236&#45;&gt;Node239 -->
<g id="edge9" class="edge">
<title>Node236&#45;&gt;Node239</title>
<path fill="none" stroke="midnightblue" d="M625.97,-141C642.75,-141 660.33,-141 676.91,-141"/>
<polygon fill="midnightblue" stroke="midnightblue" points="625.65,-137.5 615.65,-141 625.65,-144.5 625.65,-137.5"/>
</g>
<!-- Node240 -->
<g id="node11" class="node">
<title>Node240</title>
<g id="a_node11"><a xlink:href="classDynExpInstr_1_1NetworkDigitalOutTasks_1_1InitTask.html" target="_top" xlink:title=" ">
<polygon fill="white" stroke="black" points="673,-60.5 673,-101.5 837,-101.5 837,-60.5 673,-60.5"/>
<text text-anchor="start" x="681" y="-89.5" font-family="Helvetica,sans-Serif" font-size="10.00">DynExpInstr::NetworkDigital</text>
<text text-anchor="start" x="681" y="-78.5" font-family="Helvetica,sans-Serif" font-size="10.00">OutTasks::InitTask&lt; BaseInstr,</text>
<text text-anchor="middle" x="755" y="-67.5" font-family="Helvetica,sans-Serif" font-size="10.00">, gRPCStubs &gt;</text>
</a>
</g>
</g>
<!-- Node236&#45;&gt;Node240 -->
<g id="edge10" class="edge">
<title>Node236&#45;&gt;Node240</title>
<path fill="none" stroke="midnightblue" d="M625.31,-117.68C643.99,-112.36 663.71,-106.74 681.95,-101.54"/>
<polygon fill="midnightblue" stroke="midnightblue" points="624.31,-114.33 615.65,-120.44 626.22,-121.06 624.31,-114.33"/>
</g>
<!-- Node241 -->
<g id="node12" class="node">
<title>Node241</title>
<g id="a_node12"><a xlink:href="classDynExpInstr_1_1NetworkTimeTaggerTasks_1_1InitTask.html" target="_top" xlink:title=" ">
<polygon fill="white" stroke="black" points="681,-0.5 681,-41.5 829,-41.5 829,-0.5 681,-0.5"/>
<text text-anchor="start" x="689" y="-29.5" font-family="Helvetica,sans-Serif" font-size="10.00">DynExpInstr::NetworkTime</text>
<text text-anchor="start" x="689" y="-18.5" font-family="Helvetica,sans-Serif" font-size="10.00">TaggerTasks::InitTask</text>
<text text-anchor="middle" x="755" y="-7.5" font-family="Helvetica,sans-Serif" font-size="10.00">&lt; BaseInstr,, gRPCStubs &gt;</text>
</a>
</g>
</g>
<!-- Node236&#45;&gt;Node241 -->
<g id="edge11" class="edge">
<title>Node236&#45;&gt;Node241</title>
<path fill="none" stroke="midnightblue" d="M624.88,-113.42C629.14,-110.83 633.21,-108.03 637,-105 659.52,-86.97 650.37,-68.88 673,-51 677.47,-47.47 682.4,-44.32 687.55,-41.53"/>
<polygon fill="midnightblue" stroke="midnightblue" points="622.96,-110.48 615.94,-118.41 626.38,-116.59 622.96,-110.48"/>
</g>
</g>
</svg>
