<?xml version="1.0" encoding="UTF-8" standalone="no"?>
<!DOCTYPE svg PUBLIC "-//W3C//DTD SVG 1.1//EN"
 "http://www.w3.org/Graphics/SVG/1.1/DTD/svg11.dtd">
<!-- Generated by graphviz version 2.43.0 (0)
 -->
<!-- Title: Graphical Class Hierarchy Pages: 1 -->
<svg width="726pt" height="88pt"
 viewBox="0.00 0.00 726.00 88.00" xmlns="http://www.w3.org/2000/svg" xmlns:xlink="http://www.w3.org/1999/xlink">
<g id="graph0" class="graph" transform="scale(1 1) rotate(0) translate(4 84)">
<title>Graphical Class Hierarchy</title>
<polygon fill="white" stroke="transparent" points="-4,4 -4,-84 722,-84 722,4 -4,4"/>
<!-- Node0 -->
<g id="node1" class="node">
<title>Node0</title>
<g id="a_node1"><a xlink:href="classDynExpInstr_1_1DataStreamBase.html" target="_top" xlink:title="Base class for all data streams compatible with the data stream instrument&#39;s data class DataStreamIns...">
<polygon fill="white" stroke="black" points="0,-30 0,-49 164,-49 164,-30 0,-30"/>
<text text-anchor="middle" x="82" y="-37" font-family="Helvetica,sans-Serif" font-size="10.00">DynExpInstr::DataStreamBase</text>
</a>
</g>
</g>
<!-- Node1 -->
<g id="node2" class="node">
<title>Node1</title>
<g id="a_node2"><a xlink:href="classDynExpInstr_1_1CircularDataStreamBase.html" target="_top" xlink:title="Base class for all circular data streams based on Util::circularbuf.">
<polygon fill="white" stroke="black" points="200,-24.5 200,-54.5 343,-54.5 343,-24.5 200,-24.5"/>
<text text-anchor="start" x="208" y="-42.5" font-family="Helvetica,sans-Serif" font-size="10.00">DynExpInstr::CircularData</text>
<text text-anchor="middle" x="271.5" y="-31.5" font-family="Helvetica,sans-Serif" font-size="10.00">StreamBase</text>
</a>
</g>
</g>
<!-- Node0&#45;&gt;Node1 -->
<g id="edge1" class="edge">
<title>Node0&#45;&gt;Node1</title>
<path fill="none" stroke="midnightblue" d="M174.22,-39.5C182.82,-39.5 191.45,-39.5 199.82,-39.5"/>
<polygon fill="midnightblue" stroke="midnightblue" points="174.15,-36 164.15,-39.5 174.15,-43 174.15,-36"/>
</g>
<!-- Node2 -->
<g id="node3" class="node">
<title>Node2</title>
<g id="a_node3"><a xlink:href="classDynExpInstr_1_1CircularDataStream.html" target="_top" xlink:title=" ">
<polygon fill="white" stroke="black" points="379,-49.5 379,-79.5 522,-79.5 522,-49.5 379,-49.5"/>
<text text-anchor="start" x="387" y="-67.5" font-family="Helvetica,sans-Serif" font-size="10.00">DynExpInstr::CircularData</text>
<text text-anchor="middle" x="450.5" y="-56.5" font-family="Helvetica,sans-Serif" font-size="10.00">Stream&lt; BasicSample &gt;</text>
</a>
</g>
</g>
<!-- Node1&#45;&gt;Node2 -->
<g id="edge2" class="edge">
<title>Node1&#45;&gt;Node2</title>
<path fill="none" stroke="midnightblue" d="M353.21,-50.9C361.78,-52.11 370.45,-53.34 378.89,-54.53"/>
<polygon fill="midnightblue" stroke="midnightblue" points="353.61,-47.42 343.22,-49.49 352.63,-54.35 353.61,-47.42"/>
</g>
<!-- Node4 -->
<g id="node5" class="node">
<title>Node4</title>
<g id="a_node5"><a xlink:href="classDynExpInstr_1_1CircularDataStream.html" target="_top" xlink:title="Implements a circular data stream based on Util::circularbuf.">
<polygon fill="white" stroke="black" points="379,-0.5 379,-30.5 522,-30.5 522,-0.5 379,-0.5"/>
<text text-anchor="start" x="387" y="-18.5" font-family="Helvetica,sans-Serif" font-size="10.00">DynExpInstr::CircularData</text>
<text text-anchor="middle" x="450.5" y="-7.5" font-family="Helvetica,sans-Serif" font-size="10.00">Stream&lt; SampleT, &gt;</text>
</a>
</g>
</g>
<!-- Node1&#45;&gt;Node4 -->
<g id="edge4" class="edge">
<title>Node1&#45;&gt;Node4</title>
<path fill="none" stroke="midnightblue" d="M353.21,-28.56C361.78,-27.39 370.45,-26.22 378.89,-25.07"/>
<polygon fill="midnightblue" stroke="midnightblue" points="352.66,-25.1 343.22,-29.91 353.6,-32.04 352.66,-25.1"/>
</g>
<!-- Node3 -->
<g id="node4" class="node">
<title>Node3</title>
<g id="a_node4"><a xlink:href="classDynExpInstr_1_1BasicSampleStream.html" target="_top" xlink:title="Implements a circular data stream based on Util::circularbuf using samples of type BasicSample.">
<polygon fill="white" stroke="black" points="565.5,-49.5 565.5,-79.5 710.5,-79.5 710.5,-49.5 565.5,-49.5"/>
<text text-anchor="start" x="573.5" y="-67.5" font-family="Helvetica,sans-Serif" font-size="10.00">DynExpInstr::BasicSample</text>
<text text-anchor="middle" x="638" y="-56.5" font-family="Helvetica,sans-Serif" font-size="10.00">Stream</text>
</a>
</g>
</g>
<!-- Node2&#45;&gt;Node3 -->
<g id="edge3" class="edge">
<title>Node2&#45;&gt;Node3</title>
<path fill="none" stroke="midnightblue" d="M532.19,-64.5C543.21,-64.5 554.46,-64.5 565.31,-64.5"/>
<polygon fill="midnightblue" stroke="midnightblue" points="532.16,-61 522.16,-64.5 532.16,-68 532.16,-61"/>
</g>
<!-- Node5 -->
<g id="node6" class="node">
<title>Node5</title>
<g id="a_node6"><a xlink:href="classDynExpInstr_1_1NumericSampleStream.html" target="_top" xlink:title="Implements a circular data stream based on Util::circularbuf using samples of an arithmetic type Samp...">
<polygon fill="white" stroke="black" points="558,-0.5 558,-30.5 718,-30.5 718,-0.5 558,-0.5"/>
<text text-anchor="start" x="566" y="-18.5" font-family="Helvetica,sans-Serif" font-size="10.00">DynExpInstr::NumericSample</text>
<text text-anchor="middle" x="638" y="-7.5" font-family="Helvetica,sans-Serif" font-size="10.00">Stream&lt; SampleT, &gt;</text>
</a>
</g>
</g>
<!-- Node4&#45;&gt;Node5 -->
<g id="edge5" class="edge">
<title>Node4&#45;&gt;Node5</title>
<path fill="none" stroke="midnightblue" d="M532.39,-15.5C540.84,-15.5 549.43,-15.5 557.86,-15.5"/>
<polygon fill="midnightblue" stroke="midnightblue" points="532.16,-12 522.16,-15.5 532.16,-19 532.16,-12"/>
</g>
</g>
</svg>
