<?xml version="1.0" encoding="UTF-8" standalone="no"?>
<!DOCTYPE svg PUBLIC "-//W3C//DTD SVG 1.1//EN"
 "http://www.w3.org/Graphics/SVG/1.1/DTD/svg11.dtd">
<!-- Generated by graphviz version 2.43.0 (0)
 -->
<!-- Title: Graphical Class Hierarchy Pages: 1 -->
<svg width="453pt" height="519pt"
 viewBox="0.00 0.00 453.00 519.00" xmlns="http://www.w3.org/2000/svg" xmlns:xlink="http://www.w3.org/1999/xlink">
<g id="graph0" class="graph" transform="scale(1 1) rotate(0) translate(4 515)">
<title>Graphical Class Hierarchy</title>
<polygon fill="white" stroke="transparent" points="-4,4 -4,-515 449,-515 449,4 -4,4"/>
<!-- Node646 -->
<g id="node1" class="node">
<title>Node646</title>
<g id="a_node1"><a xlink:title=" ">
<polygon fill="white" stroke="#bfbfbf" points="0,-222 0,-241 59,-241 59,-222 0,-222"/>
<text text-anchor="middle" x="29.5" y="-229" font-family="Helvetica,sans-Serif" font-size="10.00">QWidget</text>
</a>
</g>
</g>
<!-- Node0 -->
<g id="node2" class="node">
<title>Node0</title>
<g id="a_node2"><a xlink:href="classDynExp_1_1QModuleWidget.html" target="_top" xlink:title="Window class for Qt&#45;based user interfaces belonging to DynExp modules. User interface Qt window class...">
<polygon fill="white" stroke="black" points="95,-241 95,-260 233,-260 233,-241 95,-241"/>
<text text-anchor="middle" x="164" y="-248" font-family="Helvetica,sans-Serif" font-size="10.00">DynExp::QModuleWidget</text>
</a>
</g>
</g>
<!-- Node646&#45;&gt;Node0 -->
<g id="edge1" class="edge">
<title>Node646&#45;&gt;Node0</title>
<path fill="none" stroke="midnightblue" d="M69.29,-237.06C77.86,-238.29 87.19,-239.63 96.51,-240.97"/>
<polygon fill="midnightblue" stroke="midnightblue" points="69.65,-233.58 59.25,-235.62 68.65,-240.51 69.65,-233.58"/>
</g>
<!-- Node659 -->
<g id="node14" class="node">
<title>Node659</title>
<g id="a_node14"><a xlink:href="classTextEditor.html" target="_top" xlink:title=" ">
<polygon fill="white" stroke="black" points="131.5,-203 131.5,-222 196.5,-222 196.5,-203 131.5,-203"/>
<text text-anchor="middle" x="164" y="-210" font-family="Helvetica,sans-Serif" font-size="10.00">TextEditor</text>
</a>
</g>
</g>
<!-- Node646&#45;&gt;Node659 -->
<g id="edge13" class="edge">
<title>Node646&#45;&gt;Node659</title>
<path fill="none" stroke="midnightblue" d="M69.4,-225.92C89.02,-223.11 112.51,-219.74 131.05,-217.08"/>
<polygon fill="midnightblue" stroke="midnightblue" points="68.65,-222.49 59.25,-227.38 69.65,-229.42 68.65,-222.49"/>
</g>
<!-- Node1 -->
<g id="node3" class="node">
<title>Node1</title>
<g id="a_node3"><a xlink:href="classDynExpModule_1_1ImageViewer_1_1ImageViewerWidget.html" target="_top" xlink:title=" ">
<polygon fill="white" stroke="black" points="276.5,-480.5 276.5,-510.5 437.5,-510.5 437.5,-480.5 276.5,-480.5"/>
<text text-anchor="start" x="284.5" y="-498.5" font-family="Helvetica,sans-Serif" font-size="10.00">DynExpModule::ImageViewer</text>
<text text-anchor="middle" x="357" y="-487.5" font-family="Helvetica,sans-Serif" font-size="10.00">::ImageViewerWidget</text>
</a>
</g>
</g>
<!-- Node0&#45;&gt;Node1 -->
<g id="edge2" class="edge">
<title>Node0&#45;&gt;Node1</title>
<path fill="none" stroke="midnightblue" d="M168.55,-270.27C177.36,-313.54 204.4,-417.08 269,-471.5 273.07,-474.93 277.6,-477.88 282.39,-480.4"/>
<polygon fill="midnightblue" stroke="midnightblue" points="171.93,-269.35 166.61,-260.2 165.06,-270.68 171.93,-269.35"/>
</g>
<!-- Node2 -->
<g id="node4" class="node">
<title>Node2</title>
<g id="a_node4"><a xlink:href="classDynExpModule_1_1InputPortReaderWidget.html" target="_top" xlink:title=" ">
<polygon fill="white" stroke="black" points="269.5,-431.5 269.5,-461.5 444.5,-461.5 444.5,-431.5 269.5,-431.5"/>
<text text-anchor="start" x="277.5" y="-449.5" font-family="Helvetica,sans-Serif" font-size="10.00">DynExpModule::InputPortReader</text>
<text text-anchor="middle" x="357" y="-438.5" font-family="Helvetica,sans-Serif" font-size="10.00">Widget</text>
</a>
</g>
</g>
<!-- Node0&#45;&gt;Node2 -->
<g id="edge3" class="edge">
<title>Node0&#45;&gt;Node2</title>
<path fill="none" stroke="midnightblue" d="M171.21,-269.72C183.75,-305.43 215.55,-382.03 269,-422.5 273.5,-425.9 278.45,-428.83 283.64,-431.33"/>
<polygon fill="midnightblue" stroke="midnightblue" points="174.45,-268.39 167.93,-260.04 167.82,-270.63 174.45,-268.39"/>
</g>
<!-- Node3 -->
<g id="node5" class="node">
<title>Node3</title>
<g id="a_node5"><a xlink:href="classDynExpModule_1_1LockinAmplifierControlWidget.html" target="_top" xlink:title=" ">
<polygon fill="white" stroke="black" points="271,-382.5 271,-412.5 443,-412.5 443,-382.5 271,-382.5"/>
<text text-anchor="start" x="279" y="-400.5" font-family="Helvetica,sans-Serif" font-size="10.00">DynExpModule::LockinAmplifier</text>
<text text-anchor="middle" x="357" y="-389.5" font-family="Helvetica,sans-Serif" font-size="10.00">ControlWidget</text>
</a>
</g>
</g>
<!-- Node0&#45;&gt;Node3 -->
<g id="edge4" class="edge">
<title>Node0&#45;&gt;Node3</title>
<path fill="none" stroke="midnightblue" d="M175.63,-269.05C192.1,-296.15 226.41,-346.26 269,-373.5 274.41,-376.96 280.32,-379.93 286.43,-382.47"/>
<polygon fill="midnightblue" stroke="midnightblue" points="178.49,-267.02 170.38,-260.2 172.46,-270.59 178.49,-267.02"/>
</g>
<!-- Node4 -->
<g id="node6" class="node">
<title>Node4</title>
<g id="a_node6"><a xlink:href="classDynExpModule_1_1ODMR_1_1ODMRWidget.html" target="_top" xlink:title=" ">
<polygon fill="white" stroke="black" points="293.5,-333.5 293.5,-363.5 420.5,-363.5 420.5,-333.5 293.5,-333.5"/>
<text text-anchor="start" x="301.5" y="-351.5" font-family="Helvetica,sans-Serif" font-size="10.00">DynExpModule::ODMR</text>
<text text-anchor="middle" x="357" y="-340.5" font-family="Helvetica,sans-Serif" font-size="10.00">::ODMRWidget</text>
</a>
</g>
</g>
<!-- Node0&#45;&gt;Node4 -->
<g id="edge5" class="edge">
<title>Node0&#45;&gt;Node4</title>
<path fill="none" stroke="midnightblue" d="M183.38,-266.64C203.24,-283.31 236.43,-309.01 269,-324.5 276.64,-328.13 284.93,-331.3 293.25,-334.04"/>
<polygon fill="midnightblue" stroke="midnightblue" points="185.6,-263.94 175.73,-260.1 181.06,-269.26 185.6,-263.94"/>
</g>
<!-- Node5 -->
<g id="node7" class="node">
<title>Node5</title>
<g id="a_node7"><a xlink:href="classDynExpModule_1_1OutputPortWriterWidget.html" target="_top" xlink:title=" ">
<polygon fill="white" stroke="black" points="282.5,-284.5 282.5,-314.5 431.5,-314.5 431.5,-284.5 282.5,-284.5"/>
<text text-anchor="start" x="290.5" y="-302.5" font-family="Helvetica,sans-Serif" font-size="10.00">DynExpModule::OutputPort</text>
<text text-anchor="middle" x="357" y="-291.5" font-family="Helvetica,sans-Serif" font-size="10.00">WriterWidget</text>
</a>
</g>
</g>
<!-- Node0&#45;&gt;Node5 -->
<g id="edge6" class="edge">
<title>Node0&#45;&gt;Node5</title>
<path fill="none" stroke="midnightblue" d="M212.17,-262.6C237.92,-269.21 270.04,-277.45 297.39,-284.46"/>
<polygon fill="midnightblue" stroke="midnightblue" points="212.84,-259.16 202.28,-260.06 211.1,-265.94 212.84,-259.16"/>
</g>
<!-- Node6 -->
<g id="node8" class="node">
<title>Node6</title>
<g id="a_node8"><a xlink:href="classDynExpModule_1_1SignalDesignerWidget.html" target="_top" xlink:title=" ">
<polygon fill="white" stroke="black" points="272,-235.5 272,-265.5 442,-265.5 442,-235.5 272,-235.5"/>
<text text-anchor="start" x="280" y="-253.5" font-family="Helvetica,sans-Serif" font-size="10.00">DynExpModule::SignalDesigner</text>
<text text-anchor="middle" x="357" y="-242.5" font-family="Helvetica,sans-Serif" font-size="10.00">Widget</text>
</a>
</g>
</g>
<!-- Node0&#45;&gt;Node6 -->
<g id="edge7" class="edge">
<title>Node0&#45;&gt;Node6</title>
<path fill="none" stroke="midnightblue" d="M243.26,-250.5C252.69,-250.5 262.34,-250.5 271.84,-250.5"/>
<polygon fill="midnightblue" stroke="midnightblue" points="243.15,-247 233.15,-250.5 243.15,-254 243.15,-247"/>
</g>
<!-- Node7 -->
<g id="node9" class="node">
<title>Node7</title>
<g id="a_node9"><a xlink:href="classDynExpModule_1_1SignalPlotterWidget.html" target="_top" xlink:title=" ">
<polygon fill="white" stroke="black" points="278,-186.5 278,-216.5 436,-216.5 436,-186.5 278,-186.5"/>
<text text-anchor="start" x="286" y="-204.5" font-family="Helvetica,sans-Serif" font-size="10.00">DynExpModule::SignalPlotter</text>
<text text-anchor="middle" x="357" y="-193.5" font-family="Helvetica,sans-Serif" font-size="10.00">Widget</text>
</a>
</g>
</g>
<!-- Node0&#45;&gt;Node7 -->
<g id="edge8" class="edge">
<title>Node0&#45;&gt;Node7</title>
<path fill="none" stroke="midnightblue" d="M212.17,-238.4C237.92,-231.79 270.04,-223.55 297.39,-216.54"/>
<polygon fill="midnightblue" stroke="midnightblue" points="211.1,-235.06 202.28,-240.94 212.84,-241.84 211.1,-235.06"/>
</g>
<!-- Node8 -->
<g id="node10" class="node">
<title>Node8</title>
<g id="a_node10"><a xlink:href="classDynExpModule_1_1SpectrumViewer_1_1SpectrumViewerWidget.html" target="_top" xlink:title=" ">
<polygon fill="white" stroke="black" points="269,-137.5 269,-167.5 445,-167.5 445,-137.5 269,-137.5"/>
<text text-anchor="start" x="277" y="-155.5" font-family="Helvetica,sans-Serif" font-size="10.00">DynExpModule::SpectrumViewer</text>
<text text-anchor="middle" x="357" y="-144.5" font-family="Helvetica,sans-Serif" font-size="10.00">::SpectrumViewerWidget</text>
</a>
</g>
</g>
<!-- Node0&#45;&gt;Node8 -->
<g id="edge9" class="edge">
<title>Node0&#45;&gt;Node8</title>
<path fill="none" stroke="midnightblue" d="M224.46,-236.75C227.45,-235.19 230.32,-233.44 233,-231.5 256.35,-214.56 245.72,-194.52 269,-177.5 274.33,-173.6 280.25,-170.31 286.43,-167.54"/>
<polygon fill="midnightblue" stroke="midnightblue" points="222.87,-233.63 215.19,-240.94 225.75,-240.01 222.87,-233.63"/>
</g>
<!-- Node9 -->
<g id="node11" class="node">
<title>Node9</title>
<g id="a_node11"><a xlink:href="classDynExpModule_1_1Stage1DWidget.html" target="_top" xlink:title=" ">
<polygon fill="white" stroke="black" points="271,-99 271,-118 443,-118 443,-99 271,-99"/>
<text text-anchor="middle" x="357" y="-106" font-family="Helvetica,sans-Serif" font-size="10.00">DynExpModule::Stage1DWidget</text>
</a>
</g>
</g>
<!-- Node0&#45;&gt;Node9 -->
<g id="edge10" class="edge">
<title>Node0&#45;&gt;Node9</title>
<path fill="none" stroke="midnightblue" d="M227.66,-235.83C229.54,-234.51 231.33,-233.07 233,-231.5 268.37,-198.32 232.87,-160.85 269,-128.5 273.73,-124.26 279.18,-120.87 285,-118.16"/>
<polygon fill="midnightblue" stroke="midnightblue" points="225.8,-232.86 218.9,-240.91 229.31,-238.92 225.8,-232.86"/>
</g>
<!-- Node10 -->
<g id="node12" class="node">
<title>Node10</title>
<g id="a_node12"><a xlink:href="classDynExpModule_1_1Trajectory1DWidget.html" target="_top" xlink:title=" ">
<polygon fill="white" stroke="black" points="282,-49.5 282,-79.5 432,-79.5 432,-49.5 282,-49.5"/>
<text text-anchor="start" x="290" y="-67.5" font-family="Helvetica,sans-Serif" font-size="10.00">DynExpModule::Trajectory1</text>
<text text-anchor="middle" x="357" y="-56.5" font-family="Helvetica,sans-Serif" font-size="10.00">DWidget</text>
</a>
</g>
</g>
<!-- Node0&#45;&gt;Node10 -->
<g id="edge11" class="edge">
<title>Node0&#45;&gt;Node10</title>
<path fill="none" stroke="midnightblue" d="M228.48,-235.53C230.07,-234.29 231.59,-232.95 233,-231.5 278.48,-184.91 223.69,-136.26 269,-89.5 272.83,-85.55 277.23,-82.21 281.99,-79.39"/>
<polygon fill="midnightblue" stroke="midnightblue" points="226.5,-232.64 219.91,-240.93 230.24,-238.56 226.5,-232.64"/>
</g>
<!-- Node11 -->
<g id="node13" class="node">
<title>Node11</title>
<g id="a_node13"><a xlink:href="classDynExpModule_1_1Widefield_1_1WidefieldMicroscopeWidget.html" target="_top" xlink:title=" ">
<polygon fill="white" stroke="black" points="278,-0.5 278,-30.5 436,-30.5 436,-0.5 278,-0.5"/>
<text text-anchor="start" x="286" y="-18.5" font-family="Helvetica,sans-Serif" font-size="10.00">DynExpModule::Widefield</text>
<text text-anchor="middle" x="357" y="-7.5" font-family="Helvetica,sans-Serif" font-size="10.00">::WidefieldMicroscopeWidget</text>
</a>
</g>
</g>
<!-- Node0&#45;&gt;Node11 -->
<g id="edge12" class="edge">
<title>Node0&#45;&gt;Node11</title>
<path fill="none" stroke="midnightblue" d="M229.08,-235.24C230.47,-234.08 231.78,-232.84 233,-231.5 291.39,-167.84 210.84,-104.37 269,-40.5 272.49,-36.67 276.53,-33.4 280.91,-30.63"/>
<polygon fill="midnightblue" stroke="midnightblue" points="226.85,-232.52 220.49,-240.99 230.75,-238.34 226.85,-232.52"/>
</g>
</g>
</svg>
