<?xml version="1.0" encoding="UTF-8" standalone="no"?>
<!DOCTYPE svg PUBLIC "-//W3C//DTD SVG 1.1//EN"
 "http://www.w3.org/Graphics/SVG/1.1/DTD/svg11.dtd">
<!-- Generated by graphviz version 2.43.0 (0)
 -->
<!-- Title: Graphical Class Hierarchy Pages: 1 -->
<svg width="215pt" height="218pt"
 viewBox="0.00 0.00 215.00 218.00" xmlns="http://www.w3.org/2000/svg" xmlns:xlink="http://www.w3.org/1999/xlink">
<g id="graph0" class="graph" transform="scale(1 1) rotate(0) translate(4 214)">
<title>Graphical Class Hierarchy</title>
<polygon fill="white" stroke="transparent" points="-4,4 -4,-214 211,-214 211,4 -4,4"/>
<!-- Node618 -->
<g id="node1" class="node">
<title>Node618</title>
<g id="a_node1"><a xlink:title=" ">
<polygon fill="white" stroke="#bfbfbf" points="0,-95.5 0,-114.5 56,-114.5 56,-95.5 0,-95.5"/>
<text text-anchor="middle" x="28" y="-102.5" font-family="Helvetica,sans-Serif" font-size="10.00">QDialog</text>
</a>
</g>
</g>
<!-- Node0 -->
<g id="node2" class="node">
<title>Node0</title>
<g id="a_node2"><a xlink:href="classBusyDialog.html" target="_top" xlink:title=" ">
<polygon fill="white" stroke="black" points="113.5,-190.5 113.5,-209.5 185.5,-209.5 185.5,-190.5 113.5,-190.5"/>
<text text-anchor="middle" x="149.5" y="-197.5" font-family="Helvetica,sans-Serif" font-size="10.00">BusyDialog</text>
</a>
</g>
</g>
<!-- Node618&#45;&gt;Node0 -->
<g id="edge1" class="edge">
<title>Node618&#45;&gt;Node0</title>
<path fill="none" stroke="midnightblue" d="M39.86,-123.22C50.96,-140.39 69.71,-165.7 92,-181 98.4,-185.39 105.9,-188.84 113.3,-191.52"/>
<polygon fill="midnightblue" stroke="midnightblue" points="42.77,-121.27 34.5,-114.63 36.83,-124.97 42.77,-121.27"/>
</g>
<!-- Node620 -->
<g id="node3" class="node">
<title>Node620</title>
<g id="a_node3"><a xlink:href="classChoiceListDialog.html" target="_top" xlink:title=" ">
<polygon fill="white" stroke="black" points="100.5,-152.5 100.5,-171.5 198.5,-171.5 198.5,-152.5 100.5,-152.5"/>
<text text-anchor="middle" x="149.5" y="-159.5" font-family="Helvetica,sans-Serif" font-size="10.00">ChoiceListDialog</text>
</a>
</g>
</g>
<!-- Node618&#45;&gt;Node620 -->
<g id="edge2" class="edge">
<title>Node618&#45;&gt;Node620</title>
<path fill="none" stroke="midnightblue" d="M51.69,-120.34C63.39,-127.82 78.1,-136.56 92,-143 99.61,-146.52 108.06,-149.72 116.05,-152.44"/>
<polygon fill="midnightblue" stroke="midnightblue" points="53.31,-117.21 43.02,-114.68 49.48,-123.08 53.31,-117.21"/>
</g>
<!-- Node621 -->
<g id="node4" class="node">
<title>Node621</title>
<g id="a_node4"><a xlink:href="classCircuitDiagram.html" target="_top" xlink:title=" ">
<polygon fill="white" stroke="black" points="104.5,-114.5 104.5,-133.5 194.5,-133.5 194.5,-114.5 104.5,-114.5"/>
<text text-anchor="middle" x="149.5" y="-121.5" font-family="Helvetica,sans-Serif" font-size="10.00">CircuitDiagram</text>
</a>
</g>
</g>
<!-- Node618&#45;&gt;Node621 -->
<g id="edge3" class="edge">
<title>Node618&#45;&gt;Node621</title>
<path fill="none" stroke="midnightblue" d="M66.24,-110.92C78.25,-112.83 91.68,-114.97 104.15,-116.95"/>
<polygon fill="midnightblue" stroke="midnightblue" points="66.54,-107.43 56.12,-109.31 65.44,-114.34 66.54,-107.43"/>
</g>
<!-- Node622 -->
<g id="node5" class="node">
<title>Node622</title>
<g id="a_node5"><a xlink:href="classDynExpAbout.html" target="_top" xlink:title=" ">
<polygon fill="white" stroke="black" points="108,-76.5 108,-95.5 191,-95.5 191,-76.5 108,-76.5"/>
<text text-anchor="middle" x="149.5" y="-83.5" font-family="Helvetica,sans-Serif" font-size="10.00">DynExpAbout</text>
</a>
</g>
</g>
<!-- Node618&#45;&gt;Node622 -->
<g id="edge4" class="edge">
<title>Node618&#45;&gt;Node622</title>
<path fill="none" stroke="midnightblue" d="M66.28,-99.07C79.48,-96.97 94.4,-94.6 107.87,-92.46"/>
<polygon fill="midnightblue" stroke="midnightblue" points="65.44,-95.66 56.12,-100.69 66.54,-102.57 65.44,-95.66"/>
</g>
<!-- Node623 -->
<g id="node6" class="node">
<title>Node623</title>
<g id="a_node6"><a xlink:href="classErrorListDialog.html" target="_top" xlink:title=" ">
<polygon fill="white" stroke="black" points="105,-38.5 105,-57.5 194,-57.5 194,-38.5 105,-38.5"/>
<text text-anchor="middle" x="149.5" y="-45.5" font-family="Helvetica,sans-Serif" font-size="10.00">ErrorListDialog</text>
</a>
</g>
</g>
<!-- Node618&#45;&gt;Node623 -->
<g id="edge5" class="edge">
<title>Node618&#45;&gt;Node623</title>
<path fill="none" stroke="midnightblue" d="M51.69,-89.66C63.39,-82.18 78.1,-73.44 92,-67 99.61,-63.48 108.06,-60.28 116.05,-57.56"/>
<polygon fill="midnightblue" stroke="midnightblue" points="49.48,-86.92 43.02,-95.32 53.31,-92.79 49.48,-86.92"/>
</g>
<!-- Node624 -->
<g id="node7" class="node">
<title>Node624</title>
<g id="a_node7"><a xlink:href="classParamsConfigDialog.html" target="_top" xlink:title="Defines the configuration dialog. The dialog must be displayed by calling ParamsConfigDialog::Display...">
<polygon fill="white" stroke="black" points="92,-0.5 92,-19.5 207,-19.5 207,-0.5 92,-0.5"/>
<text text-anchor="middle" x="149.5" y="-7.5" font-family="Helvetica,sans-Serif" font-size="10.00">ParamsConfigDialog</text>
</a>
</g>
</g>
<!-- Node618&#45;&gt;Node624 -->
<g id="edge6" class="edge">
<title>Node618&#45;&gt;Node624</title>
<path fill="none" stroke="midnightblue" d="M39.86,-86.78C50.96,-69.61 69.71,-44.3 92,-29 97.55,-25.19 103.92,-22.09 110.34,-19.59"/>
<polygon fill="midnightblue" stroke="midnightblue" points="36.83,-85.03 34.5,-95.37 42.77,-88.73 36.83,-85.03"/>
</g>
</g>
</svg>
