<?xml version="1.0" encoding="UTF-8" standalone="no"?>
<!DOCTYPE svg PUBLIC "-//W3C//DTD SVG 1.1//EN"
 "http://www.w3.org/Graphics/SVG/1.1/DTD/svg11.dtd">
<!-- Generated by graphviz version 2.43.0 (0)
 -->
<!-- Title: Graphical Class Hierarchy Pages: 1 -->
<svg width="860pt" height="768pt"
 viewBox="0.00 0.00 860.00 768.00" xmlns="http://www.w3.org/2000/svg" xmlns:xlink="http://www.w3.org/1999/xlink">
<g id="graph0" class="graph" transform="scale(1 1) rotate(0) translate(4 764)">
<title>Graphical Class Hierarchy</title>
<polygon fill="white" stroke="transparent" points="-4,4 -4,-764 856,-764 856,4 -4,4"/>
<!-- Node0 -->
<g id="node1" class="node">
<title>Node0</title>
<g id="a_node1"><a xlink:href="classDynExp_1_1LinkBase.html" target="_top" xlink:title="Abstract base class of link parameters (to be saved in project files) describing relations between mu...">
<polygon fill="white" stroke="black" points="195,-214 195,-233 299,-233 299,-214 195,-214"/>
<text text-anchor="middle" x="247" y="-221" font-family="Helvetica,sans-Serif" font-size="10.00">DynExp::LinkBase</text>
</a>
</g>
</g>
<!-- Node1 -->
<g id="node2" class="node">
<title>Node1</title>
<g id="a_node2"><a xlink:href="classDynExp_1_1ParamsBase_1_1LinkListParamBase.html" target="_top" xlink:title="Base class for link list parameters to multiple Object of any (but all the same) type specifying the ...">
<polygon fill="white" stroke="black" points="447,-164.5 447,-194.5 567,-194.5 567,-164.5 447,-164.5"/>
<text text-anchor="start" x="455" y="-182.5" font-family="Helvetica,sans-Serif" font-size="10.00">DynExp::ParamsBase</text>
<text text-anchor="middle" x="507" y="-171.5" font-family="Helvetica,sans-Serif" font-size="10.00">::LinkListParamBase</text>
</a>
</g>
</g>
<!-- Node0&#45;&gt;Node1 -->
<g id="edge1" class="edge">
<title>Node0&#45;&gt;Node1</title>
<path fill="none" stroke="midnightblue" d="M309.28,-213.05C350.86,-205.96 405.53,-196.63 446.69,-189.62"/>
<polygon fill="midnightblue" stroke="midnightblue" points="308.55,-209.62 299.28,-214.75 309.73,-216.52 308.55,-209.62"/>
</g>
<!-- Node3 -->
<g id="node4" class="node">
<title>Node3</title>
<g id="a_node4"><a xlink:href="classDynExp_1_1ParamsBase_1_1LinkParamBase.html" target="_top" xlink:title="Base class for link parameters to a single Object of any type specifying the underlying parameter typ...">
<polygon fill="white" stroke="black" points="447,-213.5 447,-243.5 567,-243.5 567,-213.5 447,-213.5"/>
<text text-anchor="start" x="455" y="-231.5" font-family="Helvetica,sans-Serif" font-size="10.00">DynExp::ParamsBase</text>
<text text-anchor="middle" x="507" y="-220.5" font-family="Helvetica,sans-Serif" font-size="10.00">::LinkParamBase</text>
</a>
</g>
</g>
<!-- Node0&#45;&gt;Node3 -->
<g id="edge3" class="edge">
<title>Node0&#45;&gt;Node3</title>
<path fill="none" stroke="midnightblue" d="M309.28,-224.69C350.86,-225.49 405.53,-226.55 446.69,-227.35"/>
<polygon fill="midnightblue" stroke="midnightblue" points="309.35,-221.19 299.28,-224.49 309.21,-228.19 309.35,-221.19"/>
</g>
<!-- Node2 -->
<g id="node3" class="node">
<title>Node2</title>
<g id="a_node3"><a xlink:href="classDynExp_1_1ParamsBase_1_1ListParam_3_01LinkType_00_01std_1_1enable__if__t_3_01std_1_1is__basd243784fc46965d1256228ffb7d1529c.html" target="_top" xlink:title="Parameter for link lists to multiple Object. If LinkType is derived from ObjectLinkBase,...">
<polygon fill="white" stroke="black" points="676,-131 676,-194 852,-194 852,-131 676,-131"/>
<text text-anchor="start" x="684" y="-182" font-family="Helvetica,sans-Serif" font-size="10.00">DynExp::ParamsBase</text>
<text text-anchor="start" x="684" y="-171" font-family="Helvetica,sans-Serif" font-size="10.00">::ListParam&lt; LinkType,</text>
<text text-anchor="start" x="684" y="-160" font-family="Helvetica,sans-Serif" font-size="10.00"> std::enable_if_t&lt; std</text>
<text text-anchor="start" x="684" y="-149" font-family="Helvetica,sans-Serif" font-size="10.00">::is_base_of_v&lt; ObjectLinkBase,</text>
<text text-anchor="middle" x="764" y="-138" font-family="Helvetica,sans-Serif" font-size="10.00"> LinkType &gt; &gt; &gt;</text>
</a>
</g>
</g>
<!-- Node1&#45;&gt;Node2 -->
<g id="edge2" class="edge">
<title>Node1&#45;&gt;Node2</title>
<path fill="none" stroke="midnightblue" d="M577.2,-174.89C607.54,-172.86 643.49,-170.47 675.64,-168.32"/>
<polygon fill="midnightblue" stroke="midnightblue" points="576.89,-171.4 567.14,-175.56 577.35,-178.38 576.89,-171.4"/>
</g>
<!-- Node4 -->
<g id="node5" class="node">
<title>Node4</title>
<g id="a_node5"><a xlink:href="classDynExp_1_1ParamsBase_1_1Param_3_01LinkType_00_01std_1_1enable__if__t_3_01std_1_1is__base__odd85ddee3349917fa7e32c83ff1f8ec2.html" target="_top" xlink:title="Parameter for links to a single Object. If LinkType is derived from ObjectLinkBase,...">
<polygon fill="white" stroke="black" points="683.5,-213 683.5,-276 844.5,-276 844.5,-213 683.5,-213"/>
<text text-anchor="start" x="691.5" y="-264" font-family="Helvetica,sans-Serif" font-size="10.00">DynExp::ParamsBase</text>
<text text-anchor="start" x="691.5" y="-253" font-family="Helvetica,sans-Serif" font-size="10.00">::Param&lt; LinkType, std</text>
<text text-anchor="start" x="691.5" y="-242" font-family="Helvetica,sans-Serif" font-size="10.00">::enable_if_t&lt; std::is</text>
<text text-anchor="start" x="691.5" y="-231" font-family="Helvetica,sans-Serif" font-size="10.00">_base_of_v&lt; ObjectLinkBase,</text>
<text text-anchor="middle" x="764" y="-220" font-family="Helvetica,sans-Serif" font-size="10.00"> LinkType &gt; &gt; &gt;</text>
</a>
</g>
</g>
<!-- Node3&#45;&gt;Node4 -->
<g id="edge4" class="edge">
<title>Node3&#45;&gt;Node4</title>
<path fill="none" stroke="midnightblue" d="M577.53,-232.86C610.27,-234.92 649.49,-237.38 683.41,-239.51"/>
<polygon fill="midnightblue" stroke="midnightblue" points="577.34,-229.34 567.14,-232.21 576.9,-236.33 577.34,-229.34"/>
</g>
<!-- Node578 -->
<g id="node6" class="node">
<title>Node578</title>
<g id="a_node6"><a xlink:href="classDynExp_1_1ParamsBase_1_1ParamBase.html" target="_top" xlink:title="Abstract base class for a single object parameter. Parameters derived from this class are automatical...">
<polygon fill="white" stroke="black" points="0,-163.5 0,-193.5 120,-193.5 120,-163.5 0,-163.5"/>
<text text-anchor="start" x="8" y="-181.5" font-family="Helvetica,sans-Serif" font-size="10.00">DynExp::ParamsBase</text>
<text text-anchor="middle" x="60" y="-170.5" font-family="Helvetica,sans-Serif" font-size="10.00">::ParamBase</text>
</a>
</g>
</g>
<!-- Node579 -->
<g id="node7" class="node">
<title>Node579</title>
<g id="a_node7"><a xlink:href="classDynExp_1_1ParamsBase_1_1DummyParam.html" target="_top" xlink:title="Dummy parameter which is to be owned once by parameter classes that do not contain any other paramete...">
<polygon fill="white" stroke="black" points="187,-163.5 187,-193.5 307,-193.5 307,-163.5 187,-163.5"/>
<text text-anchor="start" x="195" y="-181.5" font-family="Helvetica,sans-Serif" font-size="10.00">DynExp::ParamsBase</text>
<text text-anchor="middle" x="247" y="-170.5" font-family="Helvetica,sans-Serif" font-size="10.00">::DummyParam</text>
</a>
</g>
</g>
<!-- Node578&#45;&gt;Node579 -->
<g id="edge5" class="edge">
<title>Node578&#45;&gt;Node579</title>
<path fill="none" stroke="midnightblue" d="M130.24,-178.5C148.87,-178.5 168.85,-178.5 186.88,-178.5"/>
<polygon fill="midnightblue" stroke="midnightblue" points="130.04,-175 120.04,-178.5 130.04,-182 130.04,-175"/>
</g>
<!-- Node580 -->
<g id="node8" class="node">
<title>Node580</title>
<g id="a_node8"><a xlink:href="classDynExp_1_1ParamsBase_1_1TypedListParamBase.html" target="_top" xlink:title="Base class of parameters containing lists of values.">
<polygon fill="white" stroke="black" points="185.5,-101 185.5,-142 308.5,-142 308.5,-101 185.5,-101"/>
<text text-anchor="start" x="193.5" y="-130" font-family="Helvetica,sans-Serif" font-size="10.00">DynExp::ParamsBase</text>
<text text-anchor="start" x="193.5" y="-119" font-family="Helvetica,sans-Serif" font-size="10.00">::TypedListParamBase</text>
<text text-anchor="middle" x="247" y="-108" font-family="Helvetica,sans-Serif" font-size="10.00">&lt; ParamType &gt;</text>
</a>
</g>
</g>
<!-- Node578&#45;&gt;Node580 -->
<g id="edge6" class="edge">
<title>Node578&#45;&gt;Node580</title>
<path fill="none" stroke="midnightblue" d="M119.82,-160.38C140.75,-153.93 164.35,-146.66 185.43,-140.16"/>
<polygon fill="midnightblue" stroke="midnightblue" points="118.62,-157.09 110.09,-163.37 120.68,-163.77 118.62,-157.09"/>
</g>
<!-- Node583 -->
<g id="node11" class="node">
<title>Node583</title>
<g id="a_node11"><a xlink:href="classDynExp_1_1ParamsBase_1_1TypedParamBase.html" target="_top" xlink:title="Base class of parameters containing a single value.">
<polygon fill="white" stroke="black" points="156,-382.5 156,-412.5 338,-412.5 338,-382.5 156,-382.5"/>
<text text-anchor="start" x="164" y="-400.5" font-family="Helvetica,sans-Serif" font-size="10.00">DynExp::ParamsBase</text>
<text text-anchor="middle" x="247" y="-389.5" font-family="Helvetica,sans-Serif" font-size="10.00">::TypedParamBase&lt; ParamType &gt;</text>
</a>
</g>
</g>
<!-- Node578&#45;&gt;Node583 -->
<g id="edge10" class="edge">
<title>Node578&#45;&gt;Node583</title>
<path fill="none" stroke="midnightblue" d="M80.23,-201.26C118.07,-246.06 201.28,-344.57 233.2,-382.34"/>
<polygon fill="midnightblue" stroke="midnightblue" points="82.84,-198.93 73.72,-193.55 77.5,-203.45 82.84,-198.93"/>
</g>
<!-- Node580&#45;&gt;Node1 -->
<g id="edge7" class="edge">
<title>Node580&#45;&gt;Node1</title>
<path fill="none" stroke="midnightblue" d="M318.53,-140.89C336.56,-145.59 355.95,-150.43 374,-154.5 397.66,-159.83 423.89,-164.96 446.68,-169.17"/>
<polygon fill="midnightblue" stroke="midnightblue" points="319.24,-137.46 308.68,-138.3 317.46,-144.22 319.24,-137.46"/>
</g>
<!-- Node581 -->
<g id="node9" class="node">
<title>Node581</title>
<g id="a_node9"><a xlink:href="classDynExp_1_1ParamsBase_1_1ListParam_3_01ArithmeticType_00_01std_1_1enable__if__t_3_01std_1_1i54eb4f851b57d383b238b8718ca67a95.html" target="_top" xlink:title="List parameter for numbers. If ParamType is an arithmetic type (integral or floating point),...">
<polygon fill="white" stroke="black" points="406,-93.5 406,-145.5 608,-145.5 608,-93.5 406,-93.5"/>
<text text-anchor="start" x="414" y="-133.5" font-family="Helvetica,sans-Serif" font-size="10.00">DynExp::ParamsBase</text>
<text text-anchor="start" x="414" y="-122.5" font-family="Helvetica,sans-Serif" font-size="10.00">::ListParam&lt; ArithmeticType,</text>
<text text-anchor="start" x="414" y="-111.5" font-family="Helvetica,sans-Serif" font-size="10.00"> std::enable_if_t&lt; std::is</text>
<text text-anchor="middle" x="507" y="-100.5" font-family="Helvetica,sans-Serif" font-size="10.00">_arithmetic_v&lt; ArithmeticType &gt; &gt; &gt;</text>
</a>
</g>
</g>
<!-- Node580&#45;&gt;Node581 -->
<g id="edge8" class="edge">
<title>Node580&#45;&gt;Node581</title>
<path fill="none" stroke="midnightblue" d="M318.9,-120.95C345.78,-120.74 376.92,-120.5 405.99,-120.28"/>
<polygon fill="midnightblue" stroke="midnightblue" points="318.79,-117.45 308.82,-121.03 318.84,-124.45 318.79,-117.45"/>
</g>
<!-- Node582 -->
<g id="node10" class="node">
<title>Node582</title>
<g id="a_node10"><a xlink:href="classDynExp_1_1ParamsBase_1_1ListParam_3_01ParamType_00_01std_1_1enable__if__t_3_01_9std_1_1is__b8374ac5460e5f4598c20a5ad4c0acf7.html" target="_top" xlink:title="General list parameter for any ParamType (except the ones which are further specified below).">
<polygon fill="white" stroke="black" points="408.5,-0.5 408.5,-74.5 605.5,-74.5 605.5,-0.5 408.5,-0.5"/>
<text text-anchor="start" x="416.5" y="-62.5" font-family="Helvetica,sans-Serif" font-size="10.00">DynExp::ParamsBase</text>
<text text-anchor="start" x="416.5" y="-51.5" font-family="Helvetica,sans-Serif" font-size="10.00">::ListParam&lt; ParamType,</text>
<text text-anchor="start" x="416.5" y="-40.5" font-family="Helvetica,sans-Serif" font-size="10.00"> std::enable_if_t&lt; !std</text>
<text text-anchor="start" x="416.5" y="-29.5" font-family="Helvetica,sans-Serif" font-size="10.00">::is_arithmetic_v&lt; ParamType</text>
<text text-anchor="start" x="416.5" y="-18.5" font-family="Helvetica,sans-Serif" font-size="10.00"> &gt; &amp;&amp;!std::is_base_of_v&lt; ObjectLink</text>
<text text-anchor="middle" x="507" y="-7.5" font-family="Helvetica,sans-Serif" font-size="10.00">Base, ParamType &gt; &gt; &gt;</text>
</a>
</g>
</g>
<!-- Node580&#45;&gt;Node582 -->
<g id="edge9" class="edge">
<title>Node580&#45;&gt;Node582</title>
<path fill="none" stroke="midnightblue" d="M318.41,-98.58C346.1,-89.56 378.37,-79.05 408.26,-69.32"/>
<polygon fill="midnightblue" stroke="midnightblue" points="317.24,-95.28 308.82,-101.7 319.41,-101.93 317.24,-95.28"/>
</g>
<!-- Node583&#45;&gt;Node3 -->
<g id="edge11" class="edge">
<title>Node583&#45;&gt;Node3</title>
<path fill="none" stroke="midnightblue" d="M261.85,-373.43C282.05,-340.67 322.82,-282.77 374,-253.5 395.97,-240.94 423.02,-234.53 446.91,-231.32"/>
<polygon fill="midnightblue" stroke="midnightblue" points="258.64,-371.97 256.48,-382.35 264.63,-375.59 258.64,-371.97"/>
</g>
<!-- Node584 -->
<g id="node12" class="node">
<title>Node584</title>
<g id="a_node12"><a xlink:href="classDynExp_1_1ParamsBase_1_1Param_3_01ArithmeticType_00_01std_1_1enable__if__t_3_01std_1_1is__a36b43486ae7f42f950ffc5a7719f2151.html" target="_top" xlink:title="Parameter for numbers. If ParamType is an arithmetic type (integral or floating point),...">
<polygon fill="white" stroke="black" points="399,-333.5 399,-385.5 615,-385.5 615,-333.5 399,-333.5"/>
<text text-anchor="start" x="407" y="-373.5" font-family="Helvetica,sans-Serif" font-size="10.00">DynExp::ParamsBase</text>
<text text-anchor="start" x="407" y="-362.5" font-family="Helvetica,sans-Serif" font-size="10.00">::Param&lt; ArithmeticType,</text>
<text text-anchor="start" x="407" y="-351.5" font-family="Helvetica,sans-Serif" font-size="10.00"> std::enable_if_t&lt; std</text>
<text text-anchor="middle" x="507" y="-340.5" font-family="Helvetica,sans-Serif" font-size="10.00">::is_arithmetic_v&lt; ArithmeticType &gt; &gt; &gt;</text>
</a>
</g>
</g>
<!-- Node583&#45;&gt;Node584 -->
<g id="edge12" class="edge">
<title>Node583&#45;&gt;Node584</title>
<path fill="none" stroke="midnightblue" d="M348.46,-382.7C365.03,-380.26 382.26,-377.73 398.98,-375.26"/>
<polygon fill="midnightblue" stroke="midnightblue" points="347.62,-379.29 338.24,-384.21 348.64,-386.21 347.62,-379.29"/>
</g>
<!-- Node585 -->
<g id="node13" class="node">
<title>Node585</title>
<g id="a_node13"><a xlink:href="classDynExp_1_1ParamsBase_1_1Param_3_01EnumType_00_01std_1_1enable__if__t_3_01std_1_1is__enum__v_3_01EnumType_01_4_01_4_01_4.html" target="_top" xlink:title="Parameter for enumerations which are convertible to a numeric type. If ParamType is an enum,...">
<polygon fill="white" stroke="black" points="429,-262.5 429,-314.5 585,-314.5 585,-262.5 429,-262.5"/>
<text text-anchor="start" x="437" y="-302.5" font-family="Helvetica,sans-Serif" font-size="10.00">DynExp::ParamsBase</text>
<text text-anchor="start" x="437" y="-291.5" font-family="Helvetica,sans-Serif" font-size="10.00">::Param&lt; EnumType, std</text>
<text text-anchor="start" x="437" y="-280.5" font-family="Helvetica,sans-Serif" font-size="10.00">::enable_if_t&lt; std::is</text>
<text text-anchor="middle" x="507" y="-269.5" font-family="Helvetica,sans-Serif" font-size="10.00">_enum_v&lt; EnumType &gt; &gt; &gt;</text>
</a>
</g>
</g>
<!-- Node583&#45;&gt;Node585 -->
<g id="edge13" class="edge">
<title>Node583&#45;&gt;Node585</title>
<path fill="none" stroke="midnightblue" d="M278.45,-376.84C303.28,-360.75 339.72,-338.82 374,-324.5 391.32,-317.27 410.51,-311.07 428.79,-305.96"/>
<polygon fill="midnightblue" stroke="midnightblue" points="276.3,-374.07 269.85,-382.48 280.13,-379.92 276.3,-374.07"/>
</g>
<!-- Node586 -->
<g id="node14" class="node">
<title>Node586</title>
<g id="a_node14"><a xlink:href="classDynExp_1_1ParamsBase_1_1Param_3_01ParamType_00_01std_1_1enable__if__t_3_01_9std_1_1is__arit5c6f823427478a0e4e010e91feab235c.html" target="_top" xlink:title="General parameter for any ParamType (except the ones which are further specified below).">
<polygon fill="white" stroke="black" points="374,-641.5 374,-759.5 640,-759.5 640,-641.5 374,-641.5"/>
<text text-anchor="start" x="382" y="-747.5" font-family="Helvetica,sans-Serif" font-size="10.00">DynExp::ParamsBase</text>
<text text-anchor="start" x="382" y="-736.5" font-family="Helvetica,sans-Serif" font-size="10.00">::Param&lt; ParamType,</text>
<text text-anchor="start" x="382" y="-725.5" font-family="Helvetica,sans-Serif" font-size="10.00"> std::enable_if_t&lt; !std</text>
<text text-anchor="start" x="382" y="-714.5" font-family="Helvetica,sans-Serif" font-size="10.00">::is_arithmetic_v&lt; ParamType</text>
<text text-anchor="start" x="382" y="-703.5" font-family="Helvetica,sans-Serif" font-size="10.00"> &gt; &amp;&amp;!std::is_base_of_v&lt; Text,</text>
<text text-anchor="start" x="382" y="-692.5" font-family="Helvetica,sans-Serif" font-size="10.00"> ParamType &gt; &amp;&amp;!std::is_base</text>
<text text-anchor="start" x="382" y="-681.5" font-family="Helvetica,sans-Serif" font-size="10.00">_of_v&lt; TextList, ParamType &gt; &amp;&amp;!std</text>
<text text-anchor="start" x="382" y="-670.5" font-family="Helvetica,sans-Serif" font-size="10.00">::is_base_of_v&lt; IndexedTextList, ParamType</text>
<text text-anchor="start" x="382" y="-659.5" font-family="Helvetica,sans-Serif" font-size="10.00"> &gt; &amp;&amp;!std::is_enum_v&lt; ParamType &gt; &amp;&amp;!std</text>
<text text-anchor="middle" x="507" y="-648.5" font-family="Helvetica,sans-Serif" font-size="10.00">::is_base_of_v&lt; ObjectLinkBase, ParamType &gt; &gt; &gt;</text>
</a>
</g>
</g>
<!-- Node583&#45;&gt;Node586 -->
<g id="edge14" class="edge">
<title>Node583&#45;&gt;Node586</title>
<path fill="none" stroke="midnightblue" d="M255.76,-422.07C271.43,-468.28 310.83,-569.1 374,-631.5 377.5,-634.95 381.2,-638.27 385.06,-641.46"/>
<polygon fill="midnightblue" stroke="midnightblue" points="259.08,-420.95 252.61,-412.56 252.43,-423.15 259.08,-420.95"/>
</g>
<!-- Node587 -->
<g id="node15" class="node">
<title>Node587</title>
<g id="a_node15"><a xlink:href="classDynExp_1_1ParamsBase_1_1Param_3_01ParamType_00_01std_1_1enable__if__t_3_01std_1_1is__base__61e5ea03adee3aef656dbb91b4f60725.html" target="_top" xlink:title="Parameter for indexed strings selected from a predefined list of strings. If ParamType is of type Par...">
<polygon fill="white" stroke="black" points="419,-559 419,-622 595,-622 595,-559 419,-559"/>
<text text-anchor="start" x="427" y="-610" font-family="Helvetica,sans-Serif" font-size="10.00">DynExp::ParamsBase</text>
<text text-anchor="start" x="427" y="-599" font-family="Helvetica,sans-Serif" font-size="10.00">::Param&lt; ParamType,</text>
<text text-anchor="start" x="427" y="-588" font-family="Helvetica,sans-Serif" font-size="10.00"> std::enable_if_t&lt; std</text>
<text text-anchor="start" x="427" y="-577" font-family="Helvetica,sans-Serif" font-size="10.00">::is_base_of_v&lt; IndexedTextList,</text>
<text text-anchor="middle" x="507" y="-566" font-family="Helvetica,sans-Serif" font-size="10.00"> ParamType &gt; &gt; &gt;</text>
</a>
</g>
</g>
<!-- Node583&#45;&gt;Node587 -->
<g id="edge15" class="edge">
<title>Node583&#45;&gt;Node587</title>
<path fill="none" stroke="midnightblue" d="M261.76,-421.64C282.08,-455.17 323.23,-515.51 374,-549.5 387.56,-558.58 403.23,-565.73 418.93,-571.33"/>
<polygon fill="midnightblue" stroke="midnightblue" points="264.71,-419.75 256.59,-412.94 258.69,-423.33 264.71,-419.75"/>
</g>
<!-- Node588 -->
<g id="node16" class="node">
<title>Node588</title>
<g id="a_node16"><a xlink:href="classDynExp_1_1ParamsBase_1_1Param_3_01ParamType_00_01std_1_1enable__if__t_3_01std_1_1is__base__25c315537ff24e78133025dad145e98b.html" target="_top" xlink:title="Parameter for strings. If ParamType is of type ParamsBase::Text, then extend TypedParamBase&#39;s functio...">
<polygon fill="white" stroke="black" points="402,-487.5 402,-539.5 612,-539.5 612,-487.5 402,-487.5"/>
<text text-anchor="start" x="410" y="-527.5" font-family="Helvetica,sans-Serif" font-size="10.00">DynExp::ParamsBase</text>
<text text-anchor="start" x="410" y="-516.5" font-family="Helvetica,sans-Serif" font-size="10.00">::Param&lt; ParamType,</text>
<text text-anchor="start" x="410" y="-505.5" font-family="Helvetica,sans-Serif" font-size="10.00"> std::enable_if_t&lt; std</text>
<text text-anchor="middle" x="507" y="-494.5" font-family="Helvetica,sans-Serif" font-size="10.00">::is_base_of_v&lt; Text, ParamType &gt; &gt; &gt;</text>
</a>
</g>
</g>
<!-- Node583&#45;&gt;Node588 -->
<g id="edge16" class="edge">
<title>Node583&#45;&gt;Node588</title>
<path fill="none" stroke="midnightblue" d="M276.05,-418.79C300.72,-436.64 338.17,-461.67 374,-477.5 382.91,-481.44 392.35,-485.03 401.92,-488.3"/>
<polygon fill="midnightblue" stroke="midnightblue" points="278.02,-415.9 267.89,-412.81 273.88,-421.54 278.02,-415.9"/>
</g>
<!-- Node589 -->
<g id="node17" class="node">
<title>Node589</title>
<g id="a_node17"><a xlink:href="classDynExp_1_1ParamsBase_1_1Param_3_01ParamType_00_01std_1_1enable__if__t_3_01std_1_1is__base__2b5582aed1efd379ec593c5120d42ff9.html" target="_top" xlink:title="Parameter for strings selected from a predefined list of strings. If ParamType is of type ParamsBase:...">
<polygon fill="white" stroke="black" points="438.5,-405 438.5,-468 575.5,-468 575.5,-405 438.5,-405"/>
<text text-anchor="start" x="446.5" y="-456" font-family="Helvetica,sans-Serif" font-size="10.00">DynExp::ParamsBase</text>
<text text-anchor="start" x="446.5" y="-445" font-family="Helvetica,sans-Serif" font-size="10.00">::Param&lt; ParamType,</text>
<text text-anchor="start" x="446.5" y="-434" font-family="Helvetica,sans-Serif" font-size="10.00"> std::enable_if_t&lt; std</text>
<text text-anchor="start" x="446.5" y="-423" font-family="Helvetica,sans-Serif" font-size="10.00">::is_base_of_v&lt; TextList,</text>
<text text-anchor="middle" x="507" y="-412" font-family="Helvetica,sans-Serif" font-size="10.00"> ParamType &gt; &gt; &gt;</text>
</a>
</g>
</g>
<!-- Node583&#45;&gt;Node589 -->
<g id="edge17" class="edge">
<title>Node583&#45;&gt;Node589</title>
<path fill="none" stroke="midnightblue" d="M348.35,-412.67C378.44,-417.22 410.72,-422.1 438.18,-426.25"/>
<polygon fill="midnightblue" stroke="midnightblue" points="348.65,-409.17 338.24,-411.14 347.6,-416.1 348.65,-409.17"/>
</g>
</g>
</svg>
