<?xml version="1.0" encoding="UTF-8" standalone="no"?>
<!DOCTYPE svg PUBLIC "-//W3C//DTD SVG 1.1//EN"
 "http://www.w3.org/Graphics/SVG/1.1/DTD/svg11.dtd">
<!-- Generated by graphviz version 2.43.0 (0)
 -->
<!-- Title: Graphical Class Hierarchy Pages: 1 -->
<svg width="860pt" height="758pt"
 viewBox="0.00 0.00 860.00 758.00" xmlns="http://www.w3.org/2000/svg" xmlns:xlink="http://www.w3.org/1999/xlink">
<g id="graph0" class="graph" transform="scale(1 1) rotate(0) translate(4 754)">
<title>Graphical Class Hierarchy</title>
<!-- Node0 -->
<g id="Node000000" class="node">
<title>Node0</title>
<g id="a_Node000000"><a xlink:href="classDynExp_1_1LinkBase.html" target="_top" xlink:title="Abstract base class of link parameters (to be saved in project files) describing relations between mu...">
<polygon fill="white" stroke="#666666" points="299,-229.5 195,-229.5 195,-210.5 299,-210.5 299,-229.5"/>
<text text-anchor="middle" x="247" y="-217.5" font-family="Helvetica,sans-Serif" font-size="10.00">DynExp::LinkBase</text>
</a>
</g>
</g>
<!-- Node1 -->
<g id="Node000001" class="node">
<title>Node1</title>
<g id="a_Node000001"><a xlink:href="classDynExp_1_1ParamsBase_1_1LinkListParamBase.html" target="_top" xlink:title="Base class for link list parameters to multiple Object of any (but all the same) type specifying the ...">
<polygon fill="white" stroke="#666666" points="567,-192 447,-192 447,-162 567,-162 567,-192"/>
<text text-anchor="start" x="455" y="-180" font-family="Helvetica,sans-Serif" font-size="10.00">DynExp::ParamsBase</text>
<text text-anchor="middle" x="507" y="-169" font-family="Helvetica,sans-Serif" font-size="10.00">::LinkListParamBase</text>
</a>
</g>
</g>
<!-- Node0&#45;&gt;Node1 -->
<g id="edge196_Node000000_Node000001" class="edge">
<title>Node0&#45;&gt;Node1</title>
<g id="a_edge196_Node000000_Node000001"><a xlink:title=" ">
<path fill="none" stroke="#63b8ff" d="M309.28,-209.79C350.86,-202.86 405.53,-193.74 446.69,-186.89"/>
<polygon fill="#63b8ff" stroke="#63b8ff" points="308.57,-206.36 299.28,-211.45 309.72,-213.26 308.57,-206.36"/>
</a>
</g>
</g>
<!-- Node9 -->
<g id="Node000009" class="node">
<title>Node9</title>
<g id="a_Node000009"><a xlink:href="classDynExp_1_1ParamsBase_1_1LinkParamBase.html" target="_top" xlink:title="Base class for link parameters to a single Object of any type specifying the underlying parameter typ...">
<polygon fill="white" stroke="#666666" points="567,-240 447,-240 447,-210 567,-210 567,-240"/>
<text text-anchor="start" x="455" y="-228" font-family="Helvetica,sans-Serif" font-size="10.00">DynExp::ParamsBase</text>
<text text-anchor="middle" x="507" y="-217" font-family="Helvetica,sans-Serif" font-size="10.00">::LinkParamBase</text>
</a>
</g>
</g>
<!-- Node0&#45;&gt;Node9 -->
<g id="edge198_Node000000_Node000009" class="edge">
<title>Node0&#45;&gt;Node9</title>
<g id="a_edge198_Node000000_Node000009"><a xlink:title=" ">
<path fill="none" stroke="#63b8ff" d="M309.28,-221.19C350.86,-221.99 405.53,-223.05 446.69,-223.85"/>
<polygon fill="#63b8ff" stroke="#63b8ff" points="309.35,-217.69 299.28,-220.99 309.21,-224.69 309.35,-217.69"/>
</a>
</g>
</g>
<!-- Node2 -->
<g id="Node000002" class="node">
<title>Node2</title>
<g id="a_Node000002"><a xlink:href="classDynExp_1_1ParamsBase_1_1ListParam_3_01LinkType_00_01std_1_1enable__if__t_3_01std_1_1is__basd243784fc46965d1256228ffb7d1529c.html" target="_top" xlink:title="Parameter for link lists to multiple Object. If LinkType is derived from ObjectLinkBase,...">
<polygon fill="white" stroke="#666666" points="852,-191.5 676,-191.5 676,-128.5 852,-128.5 852,-191.5"/>
<text text-anchor="start" x="684" y="-179.5" font-family="Helvetica,sans-Serif" font-size="10.00">DynExp::ParamsBase</text>
<text text-anchor="start" x="684" y="-168.5" font-family="Helvetica,sans-Serif" font-size="10.00">::ListParam&lt; LinkType,</text>
<text text-anchor="start" x="684" y="-157.5" font-family="Helvetica,sans-Serif" font-size="10.00"> std::enable_if_t&lt; std</text>
<text text-anchor="start" x="684" y="-146.5" font-family="Helvetica,sans-Serif" font-size="10.00">::is_base_of_v&lt; ObjectLinkBase,</text>
<text text-anchor="middle" x="764" y="-135.5" font-family="Helvetica,sans-Serif" font-size="10.00"> LinkType &gt; &gt; &gt;</text>
</a>
</g>
</g>
<!-- Node1&#45;&gt;Node2 -->
<g id="edge197_Node000001_Node000002" class="edge">
<title>Node1&#45;&gt;Node2</title>
<g id="a_edge197_Node000001_Node000002"><a xlink:title=" ">
<path fill="none" stroke="#63b8ff" d="M577.2,-172.39C607.54,-170.36 643.49,-167.97 675.64,-165.82"/>
<polygon fill="#63b8ff" stroke="#63b8ff" points="576.89,-168.9 567.14,-173.06 577.35,-175.88 576.89,-168.9"/>
</a>
</g>
</g>
<!-- Node10 -->
<g id="Node000010" class="node">
<title>Node10</title>
<g id="a_Node000010"><a xlink:href="classDynExp_1_1ParamsBase_1_1Param_3_01LinkType_00_01std_1_1enable__if__t_3_01std_1_1is__base__odd85ddee3349917fa7e32c83ff1f8ec2.html" target="_top" xlink:title="Parameter for links to a single Object. If LinkType is derived from ObjectLinkBase,...">
<polygon fill="white" stroke="#666666" points="844.5,-272.5 683.5,-272.5 683.5,-209.5 844.5,-209.5 844.5,-272.5"/>
<text text-anchor="start" x="691.5" y="-260.5" font-family="Helvetica,sans-Serif" font-size="10.00">DynExp::ParamsBase</text>
<text text-anchor="start" x="691.5" y="-249.5" font-family="Helvetica,sans-Serif" font-size="10.00">::Param&lt; LinkType, std</text>
<text text-anchor="start" x="691.5" y="-238.5" font-family="Helvetica,sans-Serif" font-size="10.00">::enable_if_t&lt; std::is</text>
<text text-anchor="start" x="691.5" y="-227.5" font-family="Helvetica,sans-Serif" font-size="10.00">_base_of_v&lt; ObjectLinkBase,</text>
<text text-anchor="middle" x="764" y="-216.5" font-family="Helvetica,sans-Serif" font-size="10.00"> LinkType &gt; &gt; &gt;</text>
</a>
</g>
</g>
<!-- Node9&#45;&gt;Node10 -->
<g id="edge199_Node000009_Node000010" class="edge">
<title>Node9&#45;&gt;Node10</title>
<g id="a_edge199_Node000009_Node000010"><a xlink:title=" ">
<path fill="none" stroke="#63b8ff" d="M577.53,-229.36C610.27,-231.42 649.49,-233.88 683.41,-236.01"/>
<polygon fill="#63b8ff" stroke="#63b8ff" points="577.34,-225.84 567.14,-228.71 576.9,-232.83 577.34,-225.84"/>
</a>
</g>
</g>
<!-- Node6 -->
<g id="Node000006" class="node">
<title>Node6</title>
<g id="a_Node000006"><a xlink:href="classDynExp_1_1ParamsBase_1_1ParamBase.html" target="_top" xlink:title="Abstract base class for a single object parameter. Parameters derived from this class are automatical...">
<polygon fill="white" stroke="#666666" points="120,-191 0,-191 0,-161 120,-161 120,-191"/>
<text text-anchor="start" x="8" y="-179" font-family="Helvetica,sans-Serif" font-size="10.00">DynExp::ParamsBase</text>
<text text-anchor="middle" x="60" y="-168" font-family="Helvetica,sans-Serif" font-size="10.00">::ParamBase</text>
</a>
</g>
</g>
<!-- Node7 -->
<g id="Node000007" class="node">
<title>Node7</title>
<g id="a_Node000007"><a xlink:href="classDynExp_1_1ParamsBase_1_1DummyParam.html" target="_top" xlink:title="Dummy parameter which is to be owned once by parameter classes that do not contain any other paramete...">
<polygon fill="white" stroke="#666666" points="307,-191 187,-191 187,-161 307,-161 307,-191"/>
<text text-anchor="start" x="195" y="-179" font-family="Helvetica,sans-Serif" font-size="10.00">DynExp::ParamsBase</text>
<text text-anchor="middle" x="247" y="-168" font-family="Helvetica,sans-Serif" font-size="10.00">::DummyParam</text>
</a>
</g>
</g>
<!-- Node6&#45;&gt;Node7 -->
<g id="edge200_Node000006_Node000007" class="edge">
<title>Node6&#45;&gt;Node7</title>
<g id="a_edge200_Node000006_Node000007"><a xlink:title=" ">
<path fill="none" stroke="#63b8ff" d="M130.24,-176C148.87,-176 168.85,-176 186.88,-176"/>
<polygon fill="#63b8ff" stroke="#63b8ff" points="130.04,-172.5 120.04,-176 130.04,-179.5 130.04,-172.5"/>
</a>
</g>
</g>
<!-- Node3 -->
<g id="Node000003" class="node">
<title>Node3</title>
<g id="a_Node000003"><a xlink:href="classDynExp_1_1ParamsBase_1_1TypedListParamBase.html" target="_top" xlink:title="Base class of parameters containing lists of values.">
<polygon fill="white" stroke="#666666" points="308.5,-140.5 185.5,-140.5 185.5,-99.5 308.5,-99.5 308.5,-140.5"/>
<text text-anchor="start" x="193.5" y="-128.5" font-family="Helvetica,sans-Serif" font-size="10.00">DynExp::ParamsBase</text>
<text text-anchor="start" x="193.5" y="-117.5" font-family="Helvetica,sans-Serif" font-size="10.00">::TypedListParamBase</text>
<text text-anchor="middle" x="247" y="-106.5" font-family="Helvetica,sans-Serif" font-size="10.00">&lt; ParamType &gt;</text>
</a>
</g>
</g>
<!-- Node6&#45;&gt;Node3 -->
<g id="edge201_Node000006_Node000003" class="edge">
<title>Node6&#45;&gt;Node3</title>
<g id="a_edge201_Node000006_Node000003"><a xlink:title=" ">
<path fill="none" stroke="#63b8ff" d="M120.25,-158.06C141.06,-151.76 164.47,-144.68 185.39,-138.35"/>
<polygon fill="#63b8ff" stroke="#63b8ff" points="119.13,-154.75 110.58,-160.99 121.16,-161.45 119.13,-154.75"/>
</a>
</g>
</g>
<!-- Node8 -->
<g id="Node000008" class="node">
<title>Node8</title>
<g id="a_Node000008"><a xlink:href="classDynExp_1_1ParamsBase_1_1TypedParamBase.html" target="_top" xlink:title="Base class of parameters containing a single value.">
<polygon fill="white" stroke="#666666" points="338,-407 156,-407 156,-377 338,-377 338,-407"/>
<text text-anchor="start" x="164" y="-395" font-family="Helvetica,sans-Serif" font-size="10.00">DynExp::ParamsBase</text>
<text text-anchor="middle" x="247" y="-384" font-family="Helvetica,sans-Serif" font-size="10.00">::TypedParamBase&lt; ParamType &gt;</text>
</a>
</g>
</g>
<!-- Node6&#45;&gt;Node8 -->
<g id="edge205_Node000006_Node000008" class="edge">
<title>Node6&#45;&gt;Node8</title>
<g id="a_edge205_Node000006_Node000008"><a xlink:title=" ">
<path fill="none" stroke="#63b8ff" d="M80.54,-198.82C118.45,-243.08 201.04,-339.51 233.01,-376.83"/>
<polygon fill="#63b8ff" stroke="#63b8ff" points="83.17,-196.51 74.01,-191.19 77.86,-201.06 83.17,-196.51"/>
</a>
</g>
</g>
<!-- Node3&#45;&gt;Node1 -->
<g id="edge202_Node000003_Node000001" class="edge">
<title>Node3&#45;&gt;Node1</title>
<g id="a_edge202_Node000003_Node000001"><a xlink:title=" ">
<path fill="none" stroke="#63b8ff" d="M318.51,-139.48C336.54,-144.18 355.93,-149 374,-153 397.76,-158.26 424.12,-163.23 447,-167.26"/>
<polygon fill="#63b8ff" stroke="#63b8ff" points="319.22,-136.05 308.66,-136.89 317.44,-142.82 319.22,-136.05"/>
</a>
</g>
</g>
<!-- Node4 -->
<g id="Node000004" class="node">
<title>Node4</title>
<g id="a_Node000004"><a xlink:href="classDynExp_1_1ParamsBase_1_1ListParam_3_01ArithmeticType_00_01std_1_1enable__if__t_3_01std_1_1i54eb4f851b57d383b238b8718ca67a95.html" target="_top" xlink:title="List parameter for numbers. If ParamType is an arithmetic type (integral or floating point),...">
<polygon fill="white" stroke="#666666" points="608,-144 406,-144 406,-92 608,-92 608,-144"/>
<text text-anchor="start" x="414" y="-132" font-family="Helvetica,sans-Serif" font-size="10.00">DynExp::ParamsBase</text>
<text text-anchor="start" x="414" y="-121" font-family="Helvetica,sans-Serif" font-size="10.00">::ListParam&lt; ArithmeticType,</text>
<text text-anchor="start" x="414" y="-110" font-family="Helvetica,sans-Serif" font-size="10.00"> std::enable_if_t&lt; std::is</text>
<text text-anchor="middle" x="507" y="-99" font-family="Helvetica,sans-Serif" font-size="10.00">_arithmetic_v&lt; ArithmeticType &gt; &gt; &gt;</text>
</a>
</g>
</g>
<!-- Node3&#45;&gt;Node4 -->
<g id="edge203_Node000003_Node000004" class="edge">
<title>Node3&#45;&gt;Node4</title>
<g id="a_edge203_Node000003_Node000004"><a xlink:title=" ">
<path fill="none" stroke="#63b8ff" d="M318.9,-119.45C345.78,-119.24 376.92,-119 405.99,-118.78"/>
<polygon fill="#63b8ff" stroke="#63b8ff" points="318.79,-115.95 308.82,-119.53 318.84,-122.95 318.79,-115.95"/>
</a>
</g>
</g>
<!-- Node5 -->
<g id="Node000005" class="node">
<title>Node5</title>
<g id="a_Node000005"><a xlink:href="classDynExp_1_1ParamsBase_1_1ListParam_3_01ParamType_00_01std_1_1enable__if__t_3_01_9std_1_1is__b8374ac5460e5f4598c20a5ad4c0acf7.html" target="_top" xlink:title="General list parameter for any ParamType (except the ones which are further specified below).">
<polygon fill="white" stroke="#666666" points="605.5,-74 408.5,-74 408.5,0 605.5,0 605.5,-74"/>
<text text-anchor="start" x="416.5" y="-62" font-family="Helvetica,sans-Serif" font-size="10.00">DynExp::ParamsBase</text>
<text text-anchor="start" x="416.5" y="-51" font-family="Helvetica,sans-Serif" font-size="10.00">::ListParam&lt; ParamType,</text>
<text text-anchor="start" x="416.5" y="-40" font-family="Helvetica,sans-Serif" font-size="10.00"> std::enable_if_t&lt; !std</text>
<text text-anchor="start" x="416.5" y="-29" font-family="Helvetica,sans-Serif" font-size="10.00">::is_arithmetic_v&lt; ParamType</text>
<text text-anchor="start" x="416.5" y="-18" font-family="Helvetica,sans-Serif" font-size="10.00"> &gt; &amp;&amp;!std::is_base_of_v&lt; ObjectLink</text>
<text text-anchor="middle" x="507" y="-7" font-family="Helvetica,sans-Serif" font-size="10.00">Base, ParamType &gt; &gt; &gt;</text>
</a>
</g>
</g>
<!-- Node3&#45;&gt;Node5 -->
<g id="edge204_Node000003_Node000005" class="edge">
<title>Node3&#45;&gt;Node5</title>
<g id="a_edge204_Node000003_Node000005"><a xlink:title=" ">
<path fill="none" stroke="#63b8ff" d="M318.41,-97.35C346.1,-88.44 378.37,-78.06 408.26,-68.44"/>
<polygon fill="#63b8ff" stroke="#63b8ff" points="317.26,-94.04 308.82,-100.44 319.41,-100.7 317.26,-94.04"/>
</a>
</g>
</g>
<!-- Node8&#45;&gt;Node9 -->
<g id="edge206_Node000008_Node000009" class="edge">
<title>Node8&#45;&gt;Node9</title>
<g id="a_edge206_Node000008_Node000009"><a xlink:title=" ">
<path fill="none" stroke="#63b8ff" d="M261.86,-368.05C282.07,-335.45 322.87,-277.88 374,-249 396,-236.57 423.07,-230.37 446.95,-227.34"/>
<polygon fill="#63b8ff" stroke="#63b8ff" points="258.67,-366.55 256.48,-376.92 264.66,-370.18 258.67,-366.55"/>
</a>
</g>
</g>
<!-- Node11 -->
<g id="Node000011" class="node">
<title>Node11</title>
<g id="a_Node000011"><a xlink:href="classDynExp_1_1ParamsBase_1_1Param_3_01ArithmeticType_00_01std_1_1enable__if__t_3_01std_1_1is__a36b43486ae7f42f950ffc5a7719f2151.html" target="_top" xlink:title="Parameter for numbers. If ParamType is an arithmetic type (integral or floating point),...">
<polygon fill="white" stroke="#666666" points="615,-380 399,-380 399,-328 615,-328 615,-380"/>
<text text-anchor="start" x="407" y="-368" font-family="Helvetica,sans-Serif" font-size="10.00">DynExp::ParamsBase</text>
<text text-anchor="start" x="407" y="-357" font-family="Helvetica,sans-Serif" font-size="10.00">::Param&lt; ArithmeticType,</text>
<text text-anchor="start" x="407" y="-346" font-family="Helvetica,sans-Serif" font-size="10.00"> std::enable_if_t&lt; std</text>
<text text-anchor="middle" x="507" y="-335" font-family="Helvetica,sans-Serif" font-size="10.00">::is_arithmetic_v&lt; ArithmeticType &gt; &gt; &gt;</text>
</a>
</g>
</g>
<!-- Node8&#45;&gt;Node11 -->
<g id="edge207_Node000008_Node000011" class="edge">
<title>Node8&#45;&gt;Node11</title>
<g id="a_edge207_Node000008_Node000011"><a xlink:title=" ">
<path fill="none" stroke="#63b8ff" d="M348.46,-377.2C365.03,-374.76 382.26,-372.23 398.98,-369.76"/>
<polygon fill="#63b8ff" stroke="#63b8ff" points="347.62,-373.79 338.24,-378.71 348.64,-380.71 347.62,-373.79"/>
</a>
</g>
</g>
<!-- Node12 -->
<g id="Node000012" class="node">
<title>Node12</title>
<g id="a_Node000012"><a xlink:href="classDynExp_1_1ParamsBase_1_1Param_3_01EnumType_00_01std_1_1enable__if__t_3_01std_1_1is__enum__v_3_01EnumType_01_4_01_4_01_4.html" target="_top" xlink:title="Parameter for enumerations which are convertible to a numeric type. If ParamType is an enum,...">
<polygon fill="white" stroke="#666666" points="585,-310 429,-310 429,-258 585,-258 585,-310"/>
<text text-anchor="start" x="437" y="-298" font-family="Helvetica,sans-Serif" font-size="10.00">DynExp::ParamsBase</text>
<text text-anchor="start" x="437" y="-287" font-family="Helvetica,sans-Serif" font-size="10.00">::Param&lt; EnumType, std</text>
<text text-anchor="start" x="437" y="-276" font-family="Helvetica,sans-Serif" font-size="10.00">::enable_if_t&lt; std::is</text>
<text text-anchor="middle" x="507" y="-265" font-family="Helvetica,sans-Serif" font-size="10.00">_enum_v&lt; EnumType &gt; &gt; &gt;</text>
</a>
</g>
</g>
<!-- Node8&#45;&gt;Node12 -->
<g id="edge208_Node000008_Node000012" class="edge">
<title>Node8&#45;&gt;Node12</title>
<g id="a_edge208_Node000008_Node000012"><a xlink:title=" ">
<path fill="none" stroke="#63b8ff" d="M278.42,-371.28C303.23,-355.15 339.67,-333.2 374,-319 391.31,-311.84 410.5,-305.77 428.77,-300.79"/>
<polygon fill="#63b8ff" stroke="#63b8ff" points="276.26,-368.51 269.83,-376.93 280.11,-374.36 276.26,-368.51"/>
</a>
</g>
</g>
<!-- Node13 -->
<g id="Node000013" class="node">
<title>Node13</title>
<g id="a_Node000013"><a xlink:href="classDynExp_1_1ParamsBase_1_1Param_3_01ParamType_00_01std_1_1enable__if__t_3_01_9std_1_1is__arit5c6f823427478a0e4e010e91feab235c.html" target="_top" xlink:title="General parameter for any ParamType (except the ones which are further specified below).">
<polygon fill="white" stroke="#666666" points="640,-750 374,-750 374,-632 640,-632 640,-750"/>
<text text-anchor="start" x="382" y="-738" font-family="Helvetica,sans-Serif" font-size="10.00">DynExp::ParamsBase</text>
<text text-anchor="start" x="382" y="-727" font-family="Helvetica,sans-Serif" font-size="10.00">::Param&lt; ParamType,</text>
<text text-anchor="start" x="382" y="-716" font-family="Helvetica,sans-Serif" font-size="10.00"> std::enable_if_t&lt; !std</text>
<text text-anchor="start" x="382" y="-705" font-family="Helvetica,sans-Serif" font-size="10.00">::is_arithmetic_v&lt; ParamType</text>
<text text-anchor="start" x="382" y="-694" font-family="Helvetica,sans-Serif" font-size="10.00"> &gt; &amp;&amp;!std::is_base_of_v&lt; Text,</text>
<text text-anchor="start" x="382" y="-683" font-family="Helvetica,sans-Serif" font-size="10.00"> ParamType &gt; &amp;&amp;!std::is_base</text>
<text text-anchor="start" x="382" y="-672" font-family="Helvetica,sans-Serif" font-size="10.00">_of_v&lt; TextList, ParamType &gt; &amp;&amp;!std</text>
<text text-anchor="start" x="382" y="-661" font-family="Helvetica,sans-Serif" font-size="10.00">::is_base_of_v&lt; IndexedTextList, ParamType</text>
<text text-anchor="start" x="382" y="-650" font-family="Helvetica,sans-Serif" font-size="10.00"> &gt; &amp;&amp;!std::is_enum_v&lt; ParamType &gt; &amp;&amp;!std</text>
<text text-anchor="middle" x="507" y="-639" font-family="Helvetica,sans-Serif" font-size="10.00">::is_base_of_v&lt; ObjectLinkBase, ParamType &gt; &gt; &gt;</text>
</a>
</g>
</g>
<!-- Node8&#45;&gt;Node13 -->
<g id="edge209_Node000008_Node000013" class="edge">
<title>Node8&#45;&gt;Node13</title>
<g id="a_edge209_Node000008_Node000013"><a xlink:title=" ">
<path fill="none" stroke="#63b8ff" d="M256.03,-416.91C271.92,-462.86 311.39,-561.85 374,-623 377.14,-626.06 380.44,-629.02 383.87,-631.87"/>
<polygon fill="#63b8ff" stroke="#63b8ff" points="259.26,-415.53 252.74,-407.18 252.62,-417.77 259.26,-415.53"/>
</a>
</g>
</g>
<!-- Node14 -->
<g id="Node000014" class="node">
<title>Node14</title>
<g id="a_Node000014"><a xlink:href="classDynExp_1_1ParamsBase_1_1Param_3_01ParamType_00_01std_1_1enable__if__t_3_01std_1_1is__base__61e5ea03adee3aef656dbb91b4f60725.html" target="_top" xlink:title="Parameter for indexed strings selected from a predefined list of strings. If ParamType is of type Par...">
<polygon fill="white" stroke="#666666" points="595,-613.5 419,-613.5 419,-550.5 595,-550.5 595,-613.5"/>
<text text-anchor="start" x="427" y="-601.5" font-family="Helvetica,sans-Serif" font-size="10.00">DynExp::ParamsBase</text>
<text text-anchor="start" x="427" y="-590.5" font-family="Helvetica,sans-Serif" font-size="10.00">::Param&lt; ParamType,</text>
<text text-anchor="start" x="427" y="-579.5" font-family="Helvetica,sans-Serif" font-size="10.00"> std::enable_if_t&lt; std</text>
<text text-anchor="start" x="427" y="-568.5" font-family="Helvetica,sans-Serif" font-size="10.00">::is_base_of_v&lt; IndexedTextList,</text>
<text text-anchor="middle" x="507" y="-557.5" font-family="Helvetica,sans-Serif" font-size="10.00"> ParamType &gt; &gt; &gt;</text>
</a>
</g>
</g>
<!-- Node8&#45;&gt;Node14 -->
<g id="edge210_Node000008_Node000014" class="edge">
<title>Node8&#45;&gt;Node14</title>
<g id="a_edge210_Node000008_Node000014"><a xlink:title=" ">
<path fill="none" stroke="#63b8ff" d="M262.14,-416.08C282.69,-449.02 323.87,-507.8 374,-541 387.5,-549.94 403.06,-557.02 418.66,-562.6"/>
<polygon fill="#63b8ff" stroke="#63b8ff" points="264.87,-413.84 256.67,-407.13 258.9,-417.49 264.87,-413.84"/>
</a>
</g>
</g>
<!-- Node15 -->
<g id="Node000015" class="node">
<title>Node15</title>
<g id="a_Node000015"><a xlink:href="classDynExp_1_1ParamsBase_1_1Param_3_01ParamType_00_01std_1_1enable__if__t_3_01std_1_1is__base__25c315537ff24e78133025dad145e98b.html" target="_top" xlink:title="Parameter for strings. If ParamType is of type ParamsBase::Text, then extend TypedParamBase&#39;s functio...">
<polygon fill="white" stroke="#666666" points="612,-532 402,-532 402,-480 612,-480 612,-532"/>
<text text-anchor="start" x="410" y="-520" font-family="Helvetica,sans-Serif" font-size="10.00">DynExp::ParamsBase</text>
<text text-anchor="start" x="410" y="-509" font-family="Helvetica,sans-Serif" font-size="10.00">::Param&lt; ParamType,</text>
<text text-anchor="start" x="410" y="-498" font-family="Helvetica,sans-Serif" font-size="10.00"> std::enable_if_t&lt; std</text>
<text text-anchor="middle" x="507" y="-487" font-family="Helvetica,sans-Serif" font-size="10.00">::is_base_of_v&lt; Text, ParamType &gt; &gt; &gt;</text>
</a>
</g>
</g>
<!-- Node8&#45;&gt;Node15 -->
<g id="edge211_Node000008_Node000015" class="edge">
<title>Node8&#45;&gt;Node15</title>
<g id="a_edge211_Node000008_Node000015"><a xlink:title=" ">
<path fill="none" stroke="#63b8ff" d="M276.07,-413.07C300.74,-430.72 338.2,-455.46 374,-471 382.92,-474.87 392.36,-478.4 401.94,-481.6"/>
<polygon fill="#63b8ff" stroke="#63b8ff" points="278.05,-410.18 267.9,-407.15 273.94,-415.85 278.05,-410.18"/>
</a>
</g>
</g>
<!-- Node16 -->
<g id="Node000016" class="node">
<title>Node16</title>
<g id="a_Node000016"><a xlink:href="classDynExp_1_1ParamsBase_1_1Param_3_01ParamType_00_01std_1_1enable__if__t_3_01std_1_1is__base__2b5582aed1efd379ec593c5120d42ff9.html" target="_top" xlink:title="Parameter for strings selected from a predefined list of strings. If ParamType is of type ParamsBase:...">
<polygon fill="white" stroke="#666666" points="575.5,-461.5 438.5,-461.5 438.5,-398.5 575.5,-398.5 575.5,-461.5"/>
<text text-anchor="start" x="446.5" y="-449.5" font-family="Helvetica,sans-Serif" font-size="10.00">DynExp::ParamsBase</text>
<text text-anchor="start" x="446.5" y="-438.5" font-family="Helvetica,sans-Serif" font-size="10.00">::Param&lt; ParamType,</text>
<text text-anchor="start" x="446.5" y="-427.5" font-family="Helvetica,sans-Serif" font-size="10.00"> std::enable_if_t&lt; std</text>
<text text-anchor="start" x="446.5" y="-416.5" font-family="Helvetica,sans-Serif" font-size="10.00">::is_base_of_v&lt; TextList,</text>
<text text-anchor="middle" x="507" y="-405.5" font-family="Helvetica,sans-Serif" font-size="10.00"> ParamType &gt; &gt; &gt;</text>
</a>
</g>
</g>
<!-- Node8&#45;&gt;Node16 -->
<g id="edge212_Node000008_Node000016" class="edge">
<title>Node8&#45;&gt;Node16</title>
<g id="a_edge212_Node000008_Node000016"><a xlink:title=" ">
<path fill="none" stroke="#63b8ff" d="M348.35,-406.78C378.44,-411.21 410.72,-415.97 438.18,-420.01"/>
<polygon fill="#63b8ff" stroke="#63b8ff" points="348.64,-403.29 338.24,-405.29 347.62,-410.21 348.64,-403.29"/>
</a>
</g>
</g>
</g>
</svg>
