<?xml version="1.0" encoding="UTF-8" standalone="no"?>
<!DOCTYPE svg PUBLIC "-//W3C//DTD SVG 1.1//EN"
 "http://www.w3.org/Graphics/SVG/1.1/DTD/svg11.dtd">
<!-- Generated by graphviz version 2.43.0 (0)
 -->
<!-- Title: Graphical Class Hierarchy Pages: 1 -->
<svg width="837pt" height="390pt"
 viewBox="0.00 0.00 837.00 390.00" xmlns="http://www.w3.org/2000/svg" xmlns:xlink="http://www.w3.org/1999/xlink">
<g id="graph0" class="graph" transform="scale(1 1) rotate(0) translate(4 386)">
<title>Graphical Class Hierarchy</title>
<!-- Node0 -->
<g id="Node000000" class="node">
<title>Node0</title>
<g id="a_Node000000"><a xlink:title=" ">
<polygon fill="#e0e0e0" stroke="#999999" points="127,-118.5 0,-118.5 0,-99.5 127,-99.5 127,-118.5"/>
<text text-anchor="middle" x="63.5" y="-106.5" font-family="Helvetica,sans-Serif" font-size="10.00">BaseInstr::ParamsType</text>
</a>
</g>
</g>
<!-- Node1 -->
<g id="Node000001" class="node">
<title>Node1</title>
<g id="a_Node000001"><a xlink:href="classDynExpInstr_1_1gRPCInstrumentParams.html" target="_top" xlink:title=" ">
<polygon fill="white" stroke="#666666" points="365.5,-218 165.5,-218 165.5,-188 365.5,-188 365.5,-218"/>
<text text-anchor="start" x="173.5" y="-206" font-family="Helvetica,sans-Serif" font-size="10.00">DynExpInstr::gRPCInstrument</text>
<text text-anchor="middle" x="265.5" y="-195" font-family="Helvetica,sans-Serif" font-size="10.00">Params&lt; BaseInstr, 0, gRPCStubs... &gt;</text>
</a>
</g>
</g>
<!-- Node0&#45;&gt;Node1 -->
<g id="edge62_Node000000_Node000001" class="edge">
<title>Node0&#45;&gt;Node1</title>
<g id="a_edge62_Node000000_Node000001"><a xlink:title=" ">
<path fill="none" stroke="#63b8ff" d="M82.92,-125.44C101.76,-141.41 132.5,-165.2 163,-179 170.59,-182.43 178.73,-185.41 186.97,-187.98"/>
<polygon fill="#63b8ff" stroke="#63b8ff" points="85,-122.61 75.15,-118.72 80.42,-127.91 85,-122.61"/>
</a>
</g>
</g>
<!-- Node9 -->
<g id="Node000009" class="node">
<title>Node9</title>
<g id="a_Node000009"><a xlink:href="classDynExpInstr_1_1gRPCInstrumentParams.html" target="_top" xlink:title=" ">
<polygon fill="white" stroke="#666666" points="363.5,-170 167.5,-170 167.5,-118 363.5,-118 363.5,-170"/>
<text text-anchor="start" x="175.5" y="-158" font-family="Helvetica,sans-Serif" font-size="10.00">DynExpInstr::gRPCInstrument</text>
<text text-anchor="start" x="175.5" y="-147" font-family="Helvetica,sans-Serif" font-size="10.00">Params&lt; Spectrometer, 0,</text>
<text text-anchor="start" x="175.5" y="-136" font-family="Helvetica,sans-Serif" font-size="10.00"> DynExpProto::NetworkSpectrometer</text>
<text text-anchor="middle" x="265.5" y="-125" font-family="Helvetica,sans-Serif" font-size="10.00">::NetworkSpectrometer &gt;</text>
</a>
</g>
</g>
<!-- Node0&#45;&gt;Node9 -->
<g id="edge70_Node000000_Node000009" class="edge">
<title>Node0&#45;&gt;Node9</title>
<g id="a_edge70_Node000000_Node000009"><a xlink:title=" ">
<path fill="none" stroke="#63b8ff" d="M128.99,-120.29C141.26,-122.43 154.36,-124.73 167.39,-127.01"/>
<polygon fill="#63b8ff" stroke="#63b8ff" points="129.34,-116.79 118.89,-118.52 128.13,-123.69 129.34,-116.79"/>
</a>
</g>
</g>
<!-- Node11 -->
<g id="Node000011" class="node">
<title>Node11</title>
<g id="a_Node000011"><a xlink:href="classDynExpInstr_1_1gRPCInstrumentParams.html" target="_top" xlink:title=" ">
<polygon fill="white" stroke="#666666" points="368,-100 163,-100 163,-48 368,-48 368,-100"/>
<text text-anchor="start" x="171" y="-88" font-family="Helvetica,sans-Serif" font-size="10.00">DynExpInstr::gRPCInstrument</text>
<text text-anchor="start" x="171" y="-77" font-family="Helvetica,sans-Serif" font-size="10.00">Params&lt; DynExp::InstrumentBase,</text>
<text text-anchor="start" x="171" y="-66" font-family="Helvetica,sans-Serif" font-size="10.00"> 0, DynExpProto::WidefieldLocalization</text>
<text text-anchor="middle" x="265.5" y="-55" font-family="Helvetica,sans-Serif" font-size="10.00">::WidefieldLocalization &gt;</text>
</a>
</g>
</g>
<!-- Node0&#45;&gt;Node11 -->
<g id="edge72_Node000000_Node000011" class="edge">
<title>Node0&#45;&gt;Node11</title>
<g id="a_edge72_Node000000_Node000011"><a xlink:title=" ">
<path fill="none" stroke="#63b8ff" d="M129.04,-97.71C139.85,-95.81 151.3,-93.81 162.77,-91.8"/>
<polygon fill="#63b8ff" stroke="#63b8ff" points="128.13,-94.31 118.89,-99.48 129.34,-101.21 128.13,-94.31"/>
</a>
</g>
</g>
<!-- Node13 -->
<g id="Node000013" class="node">
<title>Node13</title>
<g id="a_Node000013"><a xlink:href="classDynExpInstr_1_1gRPCInstrumentParams.html" target="_top" xlink:title="Parameter class for gRPCInstrument.">
<polygon fill="white" stroke="#666666" points="356.5,-30 174.5,-30 174.5,0 356.5,0 356.5,-30"/>
<text text-anchor="start" x="182.5" y="-18" font-family="Helvetica,sans-Serif" font-size="10.00">DynExpInstr::gRPCInstrument</text>
<text text-anchor="middle" x="265.5" y="-7" font-family="Helvetica,sans-Serif" font-size="10.00">Params&lt; BaseInstr,, gRPCStubs &gt;</text>
</a>
</g>
</g>
<!-- Node0&#45;&gt;Node13 -->
<g id="edge74_Node000000_Node000013" class="edge">
<title>Node0&#45;&gt;Node13</title>
<g id="a_edge74_Node000000_Node000013"><a xlink:title=" ">
<path fill="none" stroke="#63b8ff" d="M82.92,-92.56C101.76,-76.59 132.5,-52.8 163,-39 170.59,-35.57 178.73,-32.59 186.97,-30.02"/>
<polygon fill="#63b8ff" stroke="#63b8ff" points="80.42,-90.09 75.15,-99.28 85,-95.39 80.42,-90.09"/>
</a>
</g>
</g>
<!-- Node2 -->
<g id="Node000002" class="node">
<title>Node2</title>
<g id="a_Node000002"><a xlink:href="classDynExpInstr_1_1NetworkDataStreamInstrumentParams.html" target="_top" xlink:title=" ">
<polygon fill="white" stroke="#666666" points="580.5,-279.5 416.5,-279.5 416.5,-238.5 580.5,-238.5 580.5,-279.5"/>
<text text-anchor="start" x="424.5" y="-267.5" font-family="Helvetica,sans-Serif" font-size="10.00">DynExpInstr::NetworkData</text>
<text text-anchor="start" x="424.5" y="-256.5" font-family="Helvetica,sans-Serif" font-size="10.00">StreamInstrumentParams</text>
<text text-anchor="middle" x="498.5" y="-245.5" font-family="Helvetica,sans-Serif" font-size="10.00">&lt; BaseInstr, 0, gRPCStubs... &gt;</text>
</a>
</g>
</g>
<!-- Node1&#45;&gt;Node2 -->
<g id="edge63_Node000001_Node000002" class="edge">
<title>Node1&#45;&gt;Node2</title>
<g id="a_edge63_Node000001_Node000002"><a xlink:title=" ">
<path fill="none" stroke="#63b8ff" d="M338.42,-220.43C363.11,-226.42 390.91,-233.16 416.29,-239.31"/>
<polygon fill="#63b8ff" stroke="#63b8ff" points="338.95,-216.96 328.4,-218.01 337.3,-223.76 338.95,-216.96"/>
</a>
</g>
</g>
<!-- Node8 -->
<g id="Node000008" class="node">
<title>Node8</title>
<g id="a_Node000008"><a xlink:href="classDynExpInstr_1_1NetworkDataStreamInstrumentParams.html" target="_top" xlink:title=" ">
<polygon fill="white" stroke="#666666" points="571.5,-220.5 425.5,-220.5 425.5,-179.5 571.5,-179.5 571.5,-220.5"/>
<text text-anchor="start" x="433.5" y="-208.5" font-family="Helvetica,sans-Serif" font-size="10.00">DynExpInstr::NetworkData</text>
<text text-anchor="start" x="433.5" y="-197.5" font-family="Helvetica,sans-Serif" font-size="10.00">StreamInstrumentParams</text>
<text text-anchor="middle" x="498.5" y="-186.5" font-family="Helvetica,sans-Serif" font-size="10.00">&lt; BaseInstr,, gRPCStubs &gt;</text>
</a>
</g>
</g>
<!-- Node1&#45;&gt;Node8 -->
<g id="edge69_Node000001_Node000008" class="edge">
<title>Node1&#45;&gt;Node8</title>
<g id="a_edge69_Node000001_Node000008"><a xlink:title=" ">
<path fill="none" stroke="#63b8ff" d="M376.19,-201.58C392.93,-201.36 409.83,-201.14 425.48,-200.94"/>
<polygon fill="#63b8ff" stroke="#63b8ff" points="375.76,-198.08 365.81,-201.71 375.85,-205.08 375.76,-198.08"/>
</a>
</g>
</g>
<!-- Node3 -->
<g id="Node000003" class="node">
<title>Node3</title>
<g id="a_Node000003"><a xlink:href="classDynExpInstr_1_1NetworkAnalogInParams.html" target="_top" xlink:title=" ">
<polygon fill="white" stroke="#666666" points="824.5,-382 633.5,-382 633.5,-352 824.5,-352 824.5,-382"/>
<text text-anchor="start" x="641.5" y="-370" font-family="Helvetica,sans-Serif" font-size="10.00">DynExpInstr::NetworkAnalog</text>
<text text-anchor="middle" x="729" y="-359" font-family="Helvetica,sans-Serif" font-size="10.00">InParams&lt; BaseInstr,, gRPCStubs &gt;</text>
</a>
</g>
</g>
<!-- Node2&#45;&gt;Node3 -->
<g id="edge64_Node000002_Node000003" class="edge">
<title>Node2&#45;&gt;Node3</title>
<g id="a_edge64_Node000002_Node000003"><a xlink:title=" ">
<path fill="none" stroke="#63b8ff" d="M533.38,-285.55C558.51,-304.07 594.28,-328.05 629,-343 636.88,-346.39 645.32,-349.36 653.84,-351.94"/>
<polygon fill="#63b8ff" stroke="#63b8ff" points="535.39,-282.69 525.28,-279.5 531.2,-288.29 535.39,-282.69"/>
</a>
</g>
</g>
<!-- Node4 -->
<g id="Node000004" class="node">
<title>Node4</title>
<g id="a_Node000004"><a xlink:href="classDynExpInstr_1_1NetworkAnalogOutParams.html" target="_top" xlink:title=" ">
<polygon fill="white" stroke="#666666" points="807.5,-333.5 650.5,-333.5 650.5,-292.5 807.5,-292.5 807.5,-333.5"/>
<text text-anchor="start" x="658.5" y="-321.5" font-family="Helvetica,sans-Serif" font-size="10.00">DynExpInstr::NetworkAnalog</text>
<text text-anchor="start" x="658.5" y="-310.5" font-family="Helvetica,sans-Serif" font-size="10.00">OutParams&lt; BaseInstr,,</text>
<text text-anchor="middle" x="729" y="-299.5" font-family="Helvetica,sans-Serif" font-size="10.00"> gRPCStubs &gt;</text>
</a>
</g>
</g>
<!-- Node2&#45;&gt;Node4 -->
<g id="edge65_Node000002_Node000004" class="edge">
<title>Node2&#45;&gt;Node4</title>
<g id="a_edge65_Node000002_Node000004"><a xlink:title=" ">
<path fill="none" stroke="#63b8ff" d="M590.6,-280.53C610.31,-285.19 630.98,-290.07 650.12,-294.6"/>
<polygon fill="#63b8ff" stroke="#63b8ff" points="591.24,-277.08 580.7,-278.19 589.63,-283.9 591.24,-277.08"/>
</a>
</g>
</g>
<!-- Node5 -->
<g id="Node000005" class="node">
<title>Node5</title>
<g id="a_Node000005"><a xlink:href="classDynExpInstr_1_1NetworkDigitalInParams.html" target="_top" xlink:title=" ">
<polygon fill="white" stroke="#666666" points="824.5,-274 633.5,-274 633.5,-244 824.5,-244 824.5,-274"/>
<text text-anchor="start" x="641.5" y="-262" font-family="Helvetica,sans-Serif" font-size="10.00">DynExpInstr::NetworkDigital</text>
<text text-anchor="middle" x="729" y="-251" font-family="Helvetica,sans-Serif" font-size="10.00">InParams&lt; BaseInstr,, gRPCStubs &gt;</text>
</a>
</g>
</g>
<!-- Node2&#45;&gt;Node5 -->
<g id="edge66_Node000002_Node000005" class="edge">
<title>Node2&#45;&gt;Node5</title>
<g id="a_edge66_Node000002_Node000005"><a xlink:title=" ">
<path fill="none" stroke="#63b8ff" d="M590.81,-259C604.83,-259 619.32,-259 633.4,-259"/>
<polygon fill="#63b8ff" stroke="#63b8ff" points="590.7,-255.5 580.7,-259 590.7,-262.5 590.7,-255.5"/>
</a>
</g>
</g>
<!-- Node6 -->
<g id="Node000006" class="node">
<title>Node6</title>
<g id="a_Node000006"><a xlink:href="classDynExpInstr_1_1NetworkDigitalOutParams.html" target="_top" xlink:title=" ">
<polygon fill="white" stroke="#666666" points="829,-226 629,-226 629,-196 829,-196 829,-226"/>
<text text-anchor="start" x="637" y="-214" font-family="Helvetica,sans-Serif" font-size="10.00">DynExpInstr::NetworkDigital</text>
<text text-anchor="middle" x="729" y="-203" font-family="Helvetica,sans-Serif" font-size="10.00">OutParams&lt; BaseInstr,, gRPCStubs &gt;</text>
</a>
</g>
</g>
<!-- Node2&#45;&gt;Node6 -->
<g id="edge67_Node000002_Node000006" class="edge">
<title>Node2&#45;&gt;Node6</title>
<g id="a_edge67_Node000002_Node000006"><a xlink:title=" ">
<path fill="none" stroke="#63b8ff" d="M590.68,-239.85C612.59,-235.24 635.68,-230.39 656.55,-226.01"/>
<polygon fill="#63b8ff" stroke="#63b8ff" points="589.77,-236.46 580.7,-241.94 591.21,-243.31 589.77,-236.46"/>
</a>
</g>
</g>
<!-- Node7 -->
<g id="Node000007" class="node">
<title>Node7</title>
<g id="a_Node000007"><a xlink:href="classDynExpInstr_1_1NetworkTimeTaggerParams.html" target="_top" xlink:title=" ">
<polygon fill="white" stroke="#666666" points="803,-177.5 655,-177.5 655,-136.5 803,-136.5 803,-177.5"/>
<text text-anchor="start" x="663" y="-165.5" font-family="Helvetica,sans-Serif" font-size="10.00">DynExpInstr::NetworkTime</text>
<text text-anchor="start" x="663" y="-154.5" font-family="Helvetica,sans-Serif" font-size="10.00">TaggerParams&lt; BaseInstr,</text>
<text text-anchor="middle" x="729" y="-143.5" font-family="Helvetica,sans-Serif" font-size="10.00">, gRPCStubs &gt;</text>
</a>
</g>
</g>
<!-- Node2&#45;&gt;Node7 -->
<g id="edge68_Node000002_Node000007" class="edge">
<title>Node2&#45;&gt;Node7</title>
<g id="a_edge68_Node000002_Node000007"><a xlink:title=" ">
<path fill="none" stroke="#63b8ff" d="M587.15,-233.63C589.15,-232.47 591.1,-231.26 593,-230 613.75,-216.19 608.21,-200.74 629,-187 636.94,-181.75 645.84,-177.39 654.95,-173.77"/>
<polygon fill="#63b8ff" stroke="#63b8ff" points="585.32,-230.64 578.11,-238.4 588.59,-236.83 585.32,-230.64"/>
</a>
</g>
</g>
<!-- Node10 -->
<g id="Node000010" class="node">
<title>Node10</title>
<g id="a_Node000010"><a xlink:href="classDynExpInstr_1_1NetworkSpectrometerParams.html" target="_top" xlink:title=" ">
<polygon fill="white" stroke="#666666" points="593,-159 404,-159 404,-129 593,-129 593,-159"/>
<text text-anchor="start" x="412" y="-147" font-family="Helvetica,sans-Serif" font-size="10.00">DynExpInstr::NetworkSpectrometer</text>
<text text-anchor="middle" x="498.5" y="-136" font-family="Helvetica,sans-Serif" font-size="10.00">Params</text>
</a>
</g>
</g>
<!-- Node9&#45;&gt;Node10 -->
<g id="edge71_Node000009_Node000010" class="edge">
<title>Node9&#45;&gt;Node10</title>
<g id="a_edge71_Node000009_Node000010"><a xlink:title=" ">
<path fill="none" stroke="#63b8ff" d="M374.05,-144C383.93,-144 393.89,-144 403.64,-144"/>
<polygon fill="#63b8ff" stroke="#63b8ff" points="373.8,-140.5 363.8,-144 373.8,-147.5 373.8,-140.5"/>
</a>
</g>
</g>
<!-- Node12 -->
<g id="Node000012" class="node">
<title>Node12</title>
<g id="a_Node000012"><a xlink:href="classDynExpInstr_1_1WidefieldLocalizationParams.html" target="_top" xlink:title=" ">
<polygon fill="white" stroke="#666666" points="591.5,-89 405.5,-89 405.5,-59 591.5,-59 591.5,-89"/>
<text text-anchor="start" x="413.5" y="-77" font-family="Helvetica,sans-Serif" font-size="10.00">DynExpInstr::WidefieldLocalization</text>
<text text-anchor="middle" x="498.5" y="-66" font-family="Helvetica,sans-Serif" font-size="10.00">Params</text>
</a>
</g>
</g>
<!-- Node11&#45;&gt;Node12 -->
<g id="edge73_Node000011_Node000012" class="edge">
<title>Node11&#45;&gt;Node12</title>
<g id="a_edge73_Node000011_Node000012"><a xlink:title=" ">
<path fill="none" stroke="#63b8ff" d="M378.32,-74C387.34,-74 396.4,-74 405.26,-74"/>
<polygon fill="#63b8ff" stroke="#63b8ff" points="378.16,-70.5 368.16,-74 378.16,-77.5 378.16,-70.5"/>
</a>
</g>
</g>
</g>
</svg>
