<?xml version="1.0" encoding="UTF-8" standalone="no"?>
<!DOCTYPE svg PUBLIC "-//W3C//DTD SVG 1.1//EN"
 "http://www.w3.org/Graphics/SVG/1.1/DTD/svg11.dtd">
<!-- Generated by graphviz version 2.43.0 (0)
 -->
<!-- Title: Graphical Class Hierarchy Pages: 1 -->
<svg width="837pt" height="288pt"
 viewBox="0.00 0.00 837.00 287.50" xmlns="http://www.w3.org/2000/svg" xmlns:xlink="http://www.w3.org/1999/xlink">
<g id="graph0" class="graph" transform="scale(1 1) rotate(0) translate(4 283.5)">
<title>Graphical Class Hierarchy</title>
<polygon fill="white" stroke="transparent" points="-4,4 -4,-283.5 833,-283.5 833,4 -4,4"/>
<!-- Node593 -->
<g id="node1" class="node">
<title>Node593</title>
<g id="a_node1"><a xlink:title=" ">
<polygon fill="white" stroke="#bfbfbf" points="0,-142.5 0,-161.5 127,-161.5 127,-142.5 0,-142.5"/>
<text text-anchor="middle" x="63.5" y="-149.5" font-family="Helvetica,sans-Serif" font-size="10.00">BaseInstr::ParamsType</text>
</a>
</g>
</g>
<!-- Node0 -->
<g id="node2" class="node">
<title>Node0</title>
<g id="a_node2"><a xlink:href="classDynExpInstr_1_1gRPCInstrumentParams.html" target="_top" xlink:title=" ">
<polygon fill="white" stroke="black" points="167.5,-227 167.5,-279 363.5,-279 363.5,-227 167.5,-227"/>
<text text-anchor="start" x="175.5" y="-267" font-family="Helvetica,sans-Serif" font-size="10.00">DynExpInstr::gRPCInstrument</text>
<text text-anchor="start" x="175.5" y="-256" font-family="Helvetica,sans-Serif" font-size="10.00">Params&lt; Spectrometer, 0,</text>
<text text-anchor="start" x="175.5" y="-245" font-family="Helvetica,sans-Serif" font-size="10.00"> DynExpProto::NetworkSpectrometer</text>
<text text-anchor="middle" x="265.5" y="-234" font-family="Helvetica,sans-Serif" font-size="10.00">::NetworkSpectrometer &gt;</text>
</a>
</g>
</g>
<!-- Node593&#45;&gt;Node0 -->
<g id="edge1" class="edge">
<title>Node593&#45;&gt;Node0</title>
<path fill="none" stroke="midnightblue" d="M84.65,-167.78C103.92,-182.3 134.23,-203.7 163,-218 169.34,-221.15 176.04,-224.14 182.84,-226.94"/>
<polygon fill="midnightblue" stroke="midnightblue" points="86.69,-164.93 76.62,-161.64 82.44,-170.49 86.69,-164.93"/>
</g>
<!-- Node596 -->
<g id="node4" class="node">
<title>Node596</title>
<g id="a_node4"><a xlink:href="classDynExpInstr_1_1gRPCInstrumentParams.html" target="_top" xlink:title=" ">
<polygon fill="white" stroke="black" points="163,-156 163,-208 368,-208 368,-156 163,-156"/>
<text text-anchor="start" x="171" y="-196" font-family="Helvetica,sans-Serif" font-size="10.00">DynExpInstr::gRPCInstrument</text>
<text text-anchor="start" x="171" y="-185" font-family="Helvetica,sans-Serif" font-size="10.00">Params&lt; DynExp::InstrumentBase,</text>
<text text-anchor="start" x="171" y="-174" font-family="Helvetica,sans-Serif" font-size="10.00"> 0, DynExpProto::WidefieldLocalization</text>
<text text-anchor="middle" x="265.5" y="-163" font-family="Helvetica,sans-Serif" font-size="10.00">::WidefieldLocalization &gt;</text>
</a>
</g>
</g>
<!-- Node593&#45;&gt;Node596 -->
<g id="edge3" class="edge">
<title>Node593&#45;&gt;Node596</title>
<path fill="none" stroke="midnightblue" d="M137.24,-162.91C145.56,-164.16 154.16,-165.45 162.78,-166.74"/>
<polygon fill="midnightblue" stroke="midnightblue" points="137.64,-159.43 127.23,-161.41 136.6,-166.35 137.64,-159.43"/>
</g>
<!-- Node598 -->
<g id="node6" class="node">
<title>Node598</title>
<g id="a_node6"><a xlink:href="classDynExpInstr_1_1gRPCInstrumentParams.html" target="_top" xlink:title=" ">
<polygon fill="white" stroke="black" points="165.5,-107 165.5,-137 365.5,-137 365.5,-107 165.5,-107"/>
<text text-anchor="start" x="173.5" y="-125" font-family="Helvetica,sans-Serif" font-size="10.00">DynExpInstr::gRPCInstrument</text>
<text text-anchor="middle" x="265.5" y="-114" font-family="Helvetica,sans-Serif" font-size="10.00">Params&lt; BaseInstr, 0, gRPCStubs... &gt;</text>
</a>
</g>
</g>
<!-- Node593&#45;&gt;Node598 -->
<g id="edge5" class="edge">
<title>Node593&#45;&gt;Node598</title>
<path fill="none" stroke="midnightblue" d="M137.37,-141.07C146.48,-139.7 155.92,-138.29 165.35,-136.87"/>
<polygon fill="midnightblue" stroke="midnightblue" points="136.6,-137.65 127.23,-142.59 137.64,-144.57 136.6,-137.65"/>
</g>
<!-- Node606 -->
<g id="node14" class="node">
<title>Node606</title>
<g id="a_node14"><a xlink:href="classDynExpInstr_1_1gRPCInstrumentParams.html" target="_top" xlink:title="Parameter class for gRPCInstrument.">
<polygon fill="white" stroke="black" points="174.5,-58 174.5,-88 356.5,-88 356.5,-58 174.5,-58"/>
<text text-anchor="start" x="182.5" y="-76" font-family="Helvetica,sans-Serif" font-size="10.00">DynExpInstr::gRPCInstrument</text>
<text text-anchor="middle" x="265.5" y="-65" font-family="Helvetica,sans-Serif" font-size="10.00">Params&lt; BaseInstr,, gRPCStubs &gt;</text>
</a>
</g>
</g>
<!-- Node593&#45;&gt;Node606 -->
<g id="edge13" class="edge">
<title>Node593&#45;&gt;Node606</title>
<path fill="none" stroke="midnightblue" d="M87.75,-136.99C107.2,-125 136.02,-108.51 163,-98 172.64,-94.24 183.02,-90.92 193.33,-88.03"/>
<polygon fill="midnightblue" stroke="midnightblue" points="85.88,-134.03 79.26,-142.31 89.59,-139.96 85.88,-134.03"/>
</g>
<!-- Node1 -->
<g id="node3" class="node">
<title>Node1</title>
<g id="a_node3"><a xlink:href="classDynExpInstr_1_1NetworkSpectrometerParams.html" target="_top" xlink:title=" ">
<polygon fill="white" stroke="black" points="404,-238 404,-268 593,-268 593,-238 404,-238"/>
<text text-anchor="start" x="412" y="-256" font-family="Helvetica,sans-Serif" font-size="10.00">DynExpInstr::NetworkSpectrometer</text>
<text text-anchor="middle" x="498.5" y="-245" font-family="Helvetica,sans-Serif" font-size="10.00">Params</text>
</a>
</g>
</g>
<!-- Node0&#45;&gt;Node1 -->
<g id="edge2" class="edge">
<title>Node0&#45;&gt;Node1</title>
<path fill="none" stroke="midnightblue" d="M374.05,-253C383.93,-253 393.89,-253 403.64,-253"/>
<polygon fill="midnightblue" stroke="midnightblue" points="373.8,-249.5 363.8,-253 373.8,-256.5 373.8,-249.5"/>
</g>
<!-- Node597 -->
<g id="node5" class="node">
<title>Node597</title>
<g id="a_node5"><a xlink:href="classDynExpInstr_1_1WidefieldLocalizationParams.html" target="_top" xlink:title=" ">
<polygon fill="white" stroke="black" points="405.5,-167 405.5,-197 591.5,-197 591.5,-167 405.5,-167"/>
<text text-anchor="start" x="413.5" y="-185" font-family="Helvetica,sans-Serif" font-size="10.00">DynExpInstr::WidefieldLocalization</text>
<text text-anchor="middle" x="498.5" y="-174" font-family="Helvetica,sans-Serif" font-size="10.00">Params</text>
</a>
</g>
</g>
<!-- Node596&#45;&gt;Node597 -->
<g id="edge4" class="edge">
<title>Node596&#45;&gt;Node597</title>
<path fill="none" stroke="midnightblue" d="M378.32,-182C387.34,-182 396.4,-182 405.26,-182"/>
<polygon fill="midnightblue" stroke="midnightblue" points="378.16,-178.5 368.16,-182 378.16,-185.5 378.16,-178.5"/>
</g>
<!-- Node599 -->
<g id="node7" class="node">
<title>Node599</title>
<g id="a_node7"><a xlink:href="classDynExpInstr_1_1NetworkDataStreamInstrumentParams.html" target="_top" xlink:title=" ">
<polygon fill="white" stroke="black" points="416.5,-104.5 416.5,-145.5 580.5,-145.5 580.5,-104.5 416.5,-104.5"/>
<text text-anchor="start" x="424.5" y="-133.5" font-family="Helvetica,sans-Serif" font-size="10.00">DynExpInstr::NetworkData</text>
<text text-anchor="start" x="424.5" y="-122.5" font-family="Helvetica,sans-Serif" font-size="10.00">StreamInstrumentParams</text>
<text text-anchor="middle" x="498.5" y="-111.5" font-family="Helvetica,sans-Serif" font-size="10.00">&lt; BaseInstr, 0, gRPCStubs... &gt;</text>
</a>
</g>
</g>
<!-- Node598&#45;&gt;Node599 -->
<g id="edge6" class="edge">
<title>Node598&#45;&gt;Node599</title>
<path fill="none" stroke="midnightblue" d="M376.13,-123.42C389.69,-123.6 403.34,-123.78 416.36,-123.95"/>
<polygon fill="midnightblue" stroke="midnightblue" points="375.85,-119.92 365.81,-123.29 375.76,-126.92 375.85,-119.92"/>
</g>
<!-- Node605 -->
<g id="node13" class="node">
<title>Node605</title>
<g id="a_node13"><a xlink:href="classDynExpInstr_1_1NetworkDataStreamInstrumentParams.html" target="_top" xlink:title=" ">
<polygon fill="white" stroke="black" points="425.5,-44.5 425.5,-85.5 571.5,-85.5 571.5,-44.5 425.5,-44.5"/>
<text text-anchor="start" x="433.5" y="-73.5" font-family="Helvetica,sans-Serif" font-size="10.00">DynExpInstr::NetworkData</text>
<text text-anchor="start" x="433.5" y="-62.5" font-family="Helvetica,sans-Serif" font-size="10.00">StreamInstrumentParams</text>
<text text-anchor="middle" x="498.5" y="-51.5" font-family="Helvetica,sans-Serif" font-size="10.00">&lt; BaseInstr,, gRPCStubs &gt;</text>
</a>
</g>
</g>
<!-- Node598&#45;&gt;Node605 -->
<g id="edge12" class="edge">
<title>Node598&#45;&gt;Node605</title>
<path fill="none" stroke="midnightblue" d="M340.65,-104.62C349.87,-102.42 359.15,-100.17 368,-98 386.59,-93.43 406.65,-88.38 425.29,-83.64"/>
<polygon fill="midnightblue" stroke="midnightblue" points="339.62,-101.27 330.7,-107 341.24,-108.08 339.62,-101.27"/>
</g>
<!-- Node600 -->
<g id="node8" class="node">
<title>Node600</title>
<g id="a_node8"><a xlink:href="classDynExpInstr_1_1NetworkAnalogInParams.html" target="_top" xlink:title=" ">
<polygon fill="white" stroke="black" points="633.5,-220 633.5,-250 824.5,-250 824.5,-220 633.5,-220"/>
<text text-anchor="start" x="641.5" y="-238" font-family="Helvetica,sans-Serif" font-size="10.00">DynExpInstr::NetworkAnalog</text>
<text text-anchor="middle" x="729" y="-227" font-family="Helvetica,sans-Serif" font-size="10.00">InParams&lt; BaseInstr,, gRPCStubs &gt;</text>
</a>
</g>
</g>
<!-- Node599&#45;&gt;Node600 -->
<g id="edge7" class="edge">
<title>Node599&#45;&gt;Node600</title>
<path fill="none" stroke="midnightblue" d="M581.68,-150.47C585.64,-152.78 589.44,-155.28 593,-158 615.34,-175.06 605.9,-193.98 629,-210 634.61,-213.89 640.77,-217.17 647.19,-219.95"/>
<polygon fill="midnightblue" stroke="midnightblue" points="583.27,-147.35 572.8,-145.72 579.97,-153.52 583.27,-147.35"/>
</g>
<!-- Node601 -->
<g id="node9" class="node">
<title>Node601</title>
<g id="a_node9"><a xlink:href="classDynExpInstr_1_1NetworkAnalogOutParams.html" target="_top" xlink:title=" ">
<polygon fill="white" stroke="black" points="650.5,-159.5 650.5,-200.5 807.5,-200.5 807.5,-159.5 650.5,-159.5"/>
<text text-anchor="start" x="658.5" y="-188.5" font-family="Helvetica,sans-Serif" font-size="10.00">DynExpInstr::NetworkAnalog</text>
<text text-anchor="start" x="658.5" y="-177.5" font-family="Helvetica,sans-Serif" font-size="10.00">OutParams&lt; BaseInstr,,</text>
<text text-anchor="middle" x="729" y="-166.5" font-family="Helvetica,sans-Serif" font-size="10.00"> gRPCStubs &gt;</text>
</a>
</g>
</g>
<!-- Node599&#45;&gt;Node601 -->
<g id="edge8" class="edge">
<title>Node599&#45;&gt;Node601</title>
<path fill="none" stroke="midnightblue" d="M590.6,-146.93C610.31,-151.67 630.98,-156.65 650.12,-161.25"/>
<polygon fill="midnightblue" stroke="midnightblue" points="591.25,-143.48 580.7,-144.55 589.61,-150.29 591.25,-143.48"/>
</g>
<!-- Node602 -->
<g id="node10" class="node">
<title>Node602</title>
<g id="a_node10"><a xlink:href="classDynExpInstr_1_1NetworkDigitalInParams.html" target="_top" xlink:title=" ">
<polygon fill="white" stroke="black" points="633.5,-110 633.5,-140 824.5,-140 824.5,-110 633.5,-110"/>
<text text-anchor="start" x="641.5" y="-128" font-family="Helvetica,sans-Serif" font-size="10.00">DynExpInstr::NetworkDigital</text>
<text text-anchor="middle" x="729" y="-117" font-family="Helvetica,sans-Serif" font-size="10.00">InParams&lt; BaseInstr,, gRPCStubs &gt;</text>
</a>
</g>
</g>
<!-- Node599&#45;&gt;Node602 -->
<g id="edge9" class="edge">
<title>Node599&#45;&gt;Node602</title>
<path fill="none" stroke="midnightblue" d="M590.81,-125C604.83,-125 619.32,-125 633.4,-125"/>
<polygon fill="midnightblue" stroke="midnightblue" points="590.7,-121.5 580.7,-125 590.7,-128.5 590.7,-121.5"/>
</g>
<!-- Node603 -->
<g id="node11" class="node">
<title>Node603</title>
<g id="a_node11"><a xlink:href="classDynExpInstr_1_1NetworkDigitalOutParams.html" target="_top" xlink:title=" ">
<polygon fill="white" stroke="black" points="629,-61 629,-91 829,-91 829,-61 629,-61"/>
<text text-anchor="start" x="637" y="-79" font-family="Helvetica,sans-Serif" font-size="10.00">DynExpInstr::NetworkDigital</text>
<text text-anchor="middle" x="729" y="-68" font-family="Helvetica,sans-Serif" font-size="10.00">OutParams&lt; BaseInstr,, gRPCStubs &gt;</text>
</a>
</g>
</g>
<!-- Node599&#45;&gt;Node603 -->
<g id="edge10" class="edge">
<title>Node599&#45;&gt;Node603</title>
<path fill="none" stroke="midnightblue" d="M590.58,-105.47C613.04,-100.65 636.75,-95.57 658.04,-91"/>
<polygon fill="midnightblue" stroke="midnightblue" points="589.75,-102.07 580.7,-107.59 591.22,-108.91 589.75,-102.07"/>
</g>
<!-- Node604 -->
<g id="node12" class="node">
<title>Node604</title>
<g id="a_node12"><a xlink:href="classDynExpInstr_1_1NetworkTimeTaggerParams.html" target="_top" xlink:title=" ">
<polygon fill="white" stroke="black" points="655,-0.5 655,-41.5 803,-41.5 803,-0.5 655,-0.5"/>
<text text-anchor="start" x="663" y="-29.5" font-family="Helvetica,sans-Serif" font-size="10.00">DynExpInstr::NetworkTime</text>
<text text-anchor="start" x="663" y="-18.5" font-family="Helvetica,sans-Serif" font-size="10.00">TaggerParams&lt; BaseInstr,</text>
<text text-anchor="middle" x="729" y="-7.5" font-family="Helvetica,sans-Serif" font-size="10.00">, gRPCStubs &gt;</text>
</a>
</g>
</g>
<!-- Node599&#45;&gt;Node604 -->
<g id="edge11" class="edge">
<title>Node599&#45;&gt;Node604</title>
<path fill="none" stroke="midnightblue" d="M585.14,-99.88C587.84,-98.35 590.47,-96.72 593,-95 613.89,-80.78 608,-65.05 629,-51 636.91,-45.71 645.79,-41.32 654.9,-37.69"/>
<polygon fill="midnightblue" stroke="midnightblue" points="583.52,-96.78 576.26,-104.49 586.75,-102.99 583.52,-96.78"/>
</g>
</g>
</svg>
