<?xml version="1.0" encoding="UTF-8" standalone="no"?>
<!DOCTYPE svg PUBLIC "-//W3C//DTD SVG 1.1//EN"
 "http://www.w3.org/Graphics/SVG/1.1/DTD/svg11.dtd">
<!-- Generated by graphviz version 2.43.0 (0)
 -->
<!-- Title: Graphical Class Hierarchy Pages: 1 -->
<svg width="828pt" height="307pt"
 viewBox="0.00 0.00 828.00 306.50" xmlns="http://www.w3.org/2000/svg" xmlns:xlink="http://www.w3.org/1999/xlink">
<g id="graph0" class="graph" transform="scale(1 1) rotate(0) translate(4 302.5)">
<title>Graphical Class Hierarchy</title>
<polygon fill="white" stroke="transparent" points="-4,4 -4,-302.5 824,-302.5 824,4 -4,4"/>
<!-- Node31 -->
<g id="node1" class="node">
<title>Node31</title>
<g id="a_node1"><a xlink:title=" ">
<polygon fill="white" stroke="#bfbfbf" points="0,-158.5 0,-177.5 122,-177.5 122,-158.5 0,-158.5"/>
<text text-anchor="middle" x="61" y="-165.5" font-family="Helvetica,sans-Serif" font-size="10.00">BaseInstr::ConfigType</text>
</a>
</g>
</g>
<!-- Node0 -->
<g id="node2" class="node">
<title>Node0</title>
<g id="a_node2"><a xlink:href="classDynExpInstr_1_1gRPCInstrumentConfigurator.html" target="_top" xlink:title=" ">
<polygon fill="white" stroke="black" points="170,-246 170,-298 378,-298 378,-246 170,-246"/>
<text text-anchor="start" x="178" y="-286" font-family="Helvetica,sans-Serif" font-size="10.00">DynExpInstr::gRPCInstrument</text>
<text text-anchor="start" x="178" y="-275" font-family="Helvetica,sans-Serif" font-size="10.00">Configurator&lt; Spectrometer,</text>
<text text-anchor="start" x="178" y="-264" font-family="Helvetica,sans-Serif" font-size="10.00"> 0, DynExpProto::NetworkSpectrometer</text>
<text text-anchor="middle" x="274" y="-253" font-family="Helvetica,sans-Serif" font-size="10.00">::NetworkSpectrometer &gt;</text>
</a>
</g>
</g>
<!-- Node31&#45;&gt;Node0 -->
<g id="edge1" class="edge">
<title>Node31&#45;&gt;Node0</title>
<path fill="none" stroke="midnightblue" d="M80.41,-184.07C98.91,-199.51 128.8,-222.56 158,-237 164.45,-240.19 171.26,-243.16 178.2,-245.9"/>
<polygon fill="midnightblue" stroke="midnightblue" points="82.64,-181.37 72.75,-177.57 78.11,-186.71 82.64,-181.37"/>
</g>
<!-- Node34 -->
<g id="node4" class="node">
<title>Node34</title>
<g id="a_node4"><a xlink:href="classDynExpInstr_1_1gRPCInstrumentConfigurator.html" target="_top" xlink:title=" ">
<polygon fill="white" stroke="black" points="158,-175 158,-227 390,-227 390,-175 158,-175"/>
<text text-anchor="start" x="166" y="-215" font-family="Helvetica,sans-Serif" font-size="10.00">DynExpInstr::gRPCInstrument</text>
<text text-anchor="start" x="166" y="-204" font-family="Helvetica,sans-Serif" font-size="10.00">Configurator&lt; DynExp::Instrument</text>
<text text-anchor="start" x="166" y="-193" font-family="Helvetica,sans-Serif" font-size="10.00">Base, 0, DynExpProto::WidefieldLocalization</text>
<text text-anchor="middle" x="274" y="-182" font-family="Helvetica,sans-Serif" font-size="10.00">::WidefieldLocalization &gt;</text>
</a>
</g>
</g>
<!-- Node31&#45;&gt;Node34 -->
<g id="edge3" class="edge">
<title>Node31&#45;&gt;Node34</title>
<path fill="none" stroke="midnightblue" d="M132.09,-178.96C140.37,-180.26 148.97,-181.6 157.66,-182.96"/>
<polygon fill="midnightblue" stroke="midnightblue" points="132.6,-175.5 122.18,-177.41 131.52,-182.42 132.6,-175.5"/>
</g>
<!-- Node36 -->
<g id="node6" class="node">
<title>Node36</title>
<g id="a_node6"><a xlink:href="classDynExpInstr_1_1gRPCInstrumentConfigurator.html" target="_top" xlink:title=" ">
<polygon fill="white" stroke="black" points="193.5,-114.5 193.5,-155.5 354.5,-155.5 354.5,-114.5 193.5,-114.5"/>
<text text-anchor="start" x="201.5" y="-143.5" font-family="Helvetica,sans-Serif" font-size="10.00">DynExpInstr::gRPCInstrument</text>
<text text-anchor="start" x="201.5" y="-132.5" font-family="Helvetica,sans-Serif" font-size="10.00">Configurator&lt; BaseInstr,</text>
<text text-anchor="middle" x="274" y="-121.5" font-family="Helvetica,sans-Serif" font-size="10.00"> 0, gRPCStubs... &gt;</text>
</a>
</g>
</g>
<!-- Node31&#45;&gt;Node36 -->
<g id="edge5" class="edge">
<title>Node31&#45;&gt;Node36</title>
<path fill="none" stroke="midnightblue" d="M132.25,-157.01C151.87,-153.94 173.32,-150.59 193.43,-147.44"/>
<polygon fill="midnightblue" stroke="midnightblue" points="131.52,-153.58 122.18,-158.59 132.6,-160.5 131.52,-153.58"/>
</g>
<!-- Node44 -->
<g id="node14" class="node">
<title>Node44</title>
<g id="a_node14"><a xlink:href="classDynExpInstr_1_1gRPCInstrumentConfigurator.html" target="_top" xlink:title="Configurator class for gRPCInstrument.">
<polygon fill="white" stroke="black" points="193.5,-54.5 193.5,-95.5 354.5,-95.5 354.5,-54.5 193.5,-54.5"/>
<text text-anchor="start" x="201.5" y="-83.5" font-family="Helvetica,sans-Serif" font-size="10.00">DynExpInstr::gRPCInstrument</text>
<text text-anchor="start" x="201.5" y="-72.5" font-family="Helvetica,sans-Serif" font-size="10.00">Configurator&lt; BaseInstr,</text>
<text text-anchor="middle" x="274" y="-61.5" font-family="Helvetica,sans-Serif" font-size="10.00">, gRPCStubs &gt;</text>
</a>
</g>
</g>
<!-- Node31&#45;&gt;Node44 -->
<g id="edge13" class="edge">
<title>Node31&#45;&gt;Node44</title>
<path fill="none" stroke="midnightblue" d="M81.71,-152.28C100.38,-138.1 129.69,-117.57 158,-105 169.13,-100.06 181.23,-95.8 193.27,-92.18"/>
<polygon fill="midnightblue" stroke="midnightblue" points="79.45,-149.6 73.69,-158.49 83.74,-155.14 79.45,-149.6"/>
</g>
<!-- Node1 -->
<g id="node3" class="node">
<title>Node1</title>
<g id="a_node3"><a xlink:href="classDynExpInstr_1_1NetworkSpectrometerConfigurator.html" target="_top" xlink:title=" ">
<polygon fill="white" stroke="black" points="426,-257 426,-287 615,-287 615,-257 426,-257"/>
<text text-anchor="start" x="434" y="-275" font-family="Helvetica,sans-Serif" font-size="10.00">DynExpInstr::NetworkSpectrometer</text>
<text text-anchor="middle" x="520.5" y="-264" font-family="Helvetica,sans-Serif" font-size="10.00">Configurator</text>
</a>
</g>
</g>
<!-- Node0&#45;&gt;Node1 -->
<g id="edge2" class="edge">
<title>Node0&#45;&gt;Node1</title>
<path fill="none" stroke="midnightblue" d="M388.36,-272C400.91,-272 413.59,-272 425.85,-272"/>
<polygon fill="midnightblue" stroke="midnightblue" points="388.34,-268.5 378.34,-272 388.34,-275.5 388.34,-268.5"/>
</g>
<!-- Node35 -->
<g id="node5" class="node">
<title>Node35</title>
<g id="a_node5"><a xlink:href="classDynExpInstr_1_1WidefieldLocalizationConfigurator.html" target="_top" xlink:title=" ">
<polygon fill="white" stroke="black" points="427.5,-186 427.5,-216 613.5,-216 613.5,-186 427.5,-186"/>
<text text-anchor="start" x="435.5" y="-204" font-family="Helvetica,sans-Serif" font-size="10.00">DynExpInstr::WidefieldLocalization</text>
<text text-anchor="middle" x="520.5" y="-193" font-family="Helvetica,sans-Serif" font-size="10.00">Configurator</text>
</a>
</g>
</g>
<!-- Node34&#45;&gt;Node35 -->
<g id="edge4" class="edge">
<title>Node34&#45;&gt;Node35</title>
<path fill="none" stroke="midnightblue" d="M400.36,-201C409.46,-201 418.54,-201 427.39,-201"/>
<polygon fill="midnightblue" stroke="midnightblue" points="400.09,-197.5 390.09,-201 400.09,-204.5 400.09,-197.5"/>
</g>
<!-- Node37 -->
<g id="node7" class="node">
<title>Node37</title>
<g id="a_node7"><a xlink:href="classDynExpInstr_1_1NetworkDataStreamInstrumentConfigurator.html" target="_top" xlink:title=" ">
<polygon fill="white" stroke="black" points="438,-120.5 438,-161.5 603,-161.5 603,-120.5 438,-120.5"/>
<text text-anchor="start" x="446" y="-149.5" font-family="Helvetica,sans-Serif" font-size="10.00">DynExpInstr::NetworkData</text>
<text text-anchor="start" x="446" y="-138.5" font-family="Helvetica,sans-Serif" font-size="10.00">StreamInstrumentConfigurator</text>
<text text-anchor="middle" x="520.5" y="-127.5" font-family="Helvetica,sans-Serif" font-size="10.00">&lt; BaseInstr, 0, gRPCStubs... &gt;</text>
</a>
</g>
</g>
<!-- Node36&#45;&gt;Node37 -->
<g id="edge6" class="edge">
<title>Node36&#45;&gt;Node37</title>
<path fill="none" stroke="midnightblue" d="M364.83,-137.2C388.71,-137.79 414.37,-138.42 437.79,-138.99"/>
<polygon fill="midnightblue" stroke="midnightblue" points="364.8,-133.7 354.72,-136.96 364.63,-140.7 364.8,-133.7"/>
</g>
<!-- Node43 -->
<g id="node13" class="node">
<title>Node43</title>
<g id="a_node13"><a xlink:href="classDynExpInstr_1_1NetworkDataStreamInstrumentConfigurator.html" target="_top" xlink:title=" ">
<polygon fill="white" stroke="black" points="438,-60.5 438,-101.5 603,-101.5 603,-60.5 438,-60.5"/>
<text text-anchor="start" x="446" y="-89.5" font-family="Helvetica,sans-Serif" font-size="10.00">DynExpInstr::NetworkData</text>
<text text-anchor="start" x="446" y="-78.5" font-family="Helvetica,sans-Serif" font-size="10.00">StreamInstrumentConfigurator</text>
<text text-anchor="middle" x="520.5" y="-67.5" font-family="Helvetica,sans-Serif" font-size="10.00">&lt; BaseInstr,, gRPCStubs &gt;</text>
</a>
</g>
</g>
<!-- Node36&#45;&gt;Node43 -->
<g id="edge12" class="edge">
<title>Node36&#45;&gt;Node43</title>
<path fill="none" stroke="midnightblue" d="M364.51,-115.23C388.48,-109.94 414.27,-104.24 437.79,-99.05"/>
<polygon fill="midnightblue" stroke="midnightblue" points="363.73,-111.82 354.72,-117.39 365.24,-118.65 363.73,-111.82"/>
</g>
<!-- Node38 -->
<g id="node8" class="node">
<title>Node38</title>
<g id="a_node8"><a xlink:href="classDynExpInstr_1_1NetworkAnalogInConfigurator.html" target="_top" xlink:title=" ">
<polygon fill="white" stroke="black" points="657,-240.5 657,-281.5 814,-281.5 814,-240.5 657,-240.5"/>
<text text-anchor="start" x="665" y="-269.5" font-family="Helvetica,sans-Serif" font-size="10.00">DynExpInstr::NetworkAnalog</text>
<text text-anchor="start" x="665" y="-258.5" font-family="Helvetica,sans-Serif" font-size="10.00">InConfigurator&lt; BaseInstr,</text>
<text text-anchor="middle" x="735.5" y="-247.5" font-family="Helvetica,sans-Serif" font-size="10.00">, gRPCStubs &gt;</text>
</a>
</g>
</g>
<!-- Node37&#45;&gt;Node38 -->
<g id="edge7" class="edge">
<title>Node37&#45;&gt;Node38</title>
<path fill="none" stroke="midnightblue" d="M599.1,-166.37C604.72,-169.54 610.1,-173.08 615,-177 637.52,-195.03 628.28,-213.23 651,-231 655.49,-234.51 660.42,-237.64 665.58,-240.41"/>
<polygon fill="midnightblue" stroke="midnightblue" points="600.58,-163.19 590.1,-161.67 597.34,-169.4 600.58,-163.19"/>
</g>
<!-- Node39 -->
<g id="node9" class="node">
<title>Node39</title>
<g id="a_node9"><a xlink:href="classDynExpInstr_1_1NetworkAnalogOutConfigurator.html" target="_top" xlink:title=" ">
<polygon fill="white" stroke="black" points="657,-180.5 657,-221.5 814,-221.5 814,-180.5 657,-180.5"/>
<text text-anchor="start" x="665" y="-209.5" font-family="Helvetica,sans-Serif" font-size="10.00">DynExpInstr::NetworkAnalog</text>
<text text-anchor="start" x="665" y="-198.5" font-family="Helvetica,sans-Serif" font-size="10.00">OutConfigurator&lt; BaseInstr,</text>
<text text-anchor="middle" x="735.5" y="-187.5" font-family="Helvetica,sans-Serif" font-size="10.00">, gRPCStubs &gt;</text>
</a>
</g>
</g>
<!-- Node37&#45;&gt;Node39 -->
<g id="edge8" class="edge">
<title>Node37&#45;&gt;Node39</title>
<path fill="none" stroke="midnightblue" d="M604.28,-164.32C623.18,-169.64 643.14,-175.26 661.59,-180.46"/>
<polygon fill="midnightblue" stroke="midnightblue" points="605.08,-160.91 594.5,-161.56 603.18,-167.64 605.08,-160.91"/>
</g>
<!-- Node40 -->
<g id="node10" class="node">
<title>Node40</title>
<g id="a_node10"><a xlink:href="classDynExpInstr_1_1NetworkDigitalInConfigurator.html" target="_top" xlink:title=" ">
<polygon fill="white" stroke="black" points="658,-120.5 658,-161.5 813,-161.5 813,-120.5 658,-120.5"/>
<text text-anchor="start" x="666" y="-149.5" font-family="Helvetica,sans-Serif" font-size="10.00">DynExpInstr::NetworkDigital</text>
<text text-anchor="start" x="666" y="-138.5" font-family="Helvetica,sans-Serif" font-size="10.00">InConfigurator&lt; BaseInstr,</text>
<text text-anchor="middle" x="735.5" y="-127.5" font-family="Helvetica,sans-Serif" font-size="10.00">, gRPCStubs &gt;</text>
</a>
</g>
</g>
<!-- Node37&#45;&gt;Node40 -->
<g id="edge9" class="edge">
<title>Node37&#45;&gt;Node40</title>
<path fill="none" stroke="midnightblue" d="M613.43,-141C628.25,-141 643.46,-141 657.87,-141"/>
<polygon fill="midnightblue" stroke="midnightblue" points="613.24,-137.5 603.24,-141 613.24,-144.5 613.24,-137.5"/>
</g>
<!-- Node41 -->
<g id="node11" class="node">
<title>Node41</title>
<g id="a_node11"><a xlink:href="classDynExpInstr_1_1NetworkDigitalOutConfigurator.html" target="_top" xlink:title=" ">
<polygon fill="white" stroke="black" points="658,-60.5 658,-101.5 813,-101.5 813,-60.5 658,-60.5"/>
<text text-anchor="start" x="666" y="-89.5" font-family="Helvetica,sans-Serif" font-size="10.00">DynExpInstr::NetworkDigital</text>
<text text-anchor="start" x="666" y="-78.5" font-family="Helvetica,sans-Serif" font-size="10.00">OutConfigurator&lt; BaseInstr,</text>
<text text-anchor="middle" x="735.5" y="-67.5" font-family="Helvetica,sans-Serif" font-size="10.00">, gRPCStubs &gt;</text>
</a>
</g>
</g>
<!-- Node37&#45;&gt;Node41 -->
<g id="edge10" class="edge">
<title>Node37&#45;&gt;Node41</title>
<path fill="none" stroke="midnightblue" d="M604.28,-117.68C623.18,-112.36 643.14,-106.74 661.59,-101.54"/>
<polygon fill="midnightblue" stroke="midnightblue" points="603.18,-114.36 594.5,-120.44 605.08,-121.09 603.18,-114.36"/>
</g>
<!-- Node42 -->
<g id="node12" class="node">
<title>Node42</title>
<g id="a_node12"><a xlink:href="classDynExpInstr_1_1NetworkTimeTaggerConfigurator.html" target="_top" xlink:title=" ">
<polygon fill="white" stroke="black" points="651,-0.5 651,-41.5 820,-41.5 820,-0.5 651,-0.5"/>
<text text-anchor="start" x="659" y="-29.5" font-family="Helvetica,sans-Serif" font-size="10.00">DynExpInstr::NetworkTime</text>
<text text-anchor="start" x="659" y="-18.5" font-family="Helvetica,sans-Serif" font-size="10.00">TaggerConfigurator&lt; BaseInstr,</text>
<text text-anchor="middle" x="735.5" y="-7.5" font-family="Helvetica,sans-Serif" font-size="10.00">, gRPCStubs &gt;</text>
</a>
</g>
</g>
<!-- Node37&#45;&gt;Node42 -->
<g id="edge11" class="edge">
<title>Node37&#45;&gt;Node42</title>
<path fill="none" stroke="midnightblue" d="M609.43,-115.06C611.35,-113.77 613.21,-112.42 615,-111 639.37,-91.68 626.97,-70.74 651,-51 655.29,-47.48 660.02,-44.36 664.98,-41.59"/>
<polygon fill="midnightblue" stroke="midnightblue" points="607.46,-112.16 600.7,-120.32 611.08,-118.16 607.46,-112.16"/>
</g>
</g>
</svg>
