<?xml version="1.0" encoding="UTF-8" standalone="no"?>
<!DOCTYPE svg PUBLIC "-//W3C//DTD SVG 1.1//EN"
 "http://www.w3.org/Graphics/SVG/1.1/DTD/svg11.dtd">
<!-- Generated by graphviz version 2.43.0 (0)
 -->
<!-- Title: Graphical Class Hierarchy Pages: 1 -->
<svg width="502pt" height="27pt"
 viewBox="0.00 0.00 502.00 27.00" xmlns="http://www.w3.org/2000/svg" xmlns:xlink="http://www.w3.org/1999/xlink">
<g id="graph0" class="graph" transform="scale(1 1) rotate(0) translate(4 23)">
<title>Graphical Class Hierarchy</title>
<!-- Node0 -->
<g id="Node000000" class="node">
<title>Node0</title>
<g id="a_Node000000"><a xlink:title=" ">
<polygon fill="#e0e0e0" stroke="#999999" points="91,-19 0,-19 0,0 91,0 91,-19"/>
<text text-anchor="middle" x="45.5" y="-7" font-family="Helvetica,sans-Serif" font-size="10.00">QItemDelegate</text>
</a>
</g>
</g>
<!-- Node1 -->
<g id="Node000001" class="node">
<title>Node1</title>
<g id="a_Node000001"><a xlink:href="classUtil_1_1NumericOnlyItemDelegate.html" target="_top" xlink:title="Implements a QItemDelegate which forces e.g. a QTableWidgetItem&#39;s content to be numeric (double&#45;preci...">
<polygon fill="white" stroke="#666666" points="297,-19 127,-19 127,0 297,0 297,-19"/>
<text text-anchor="middle" x="212" y="-7" font-family="Helvetica,sans-Serif" font-size="10.00">Util::NumericOnlyItemDelegate</text>
</a>
</g>
</g>
<!-- Node0&#45;&gt;Node1 -->
<g id="edge525_Node000000_Node000001" class="edge">
<title>Node0&#45;&gt;Node1</title>
<g id="a_edge525_Node000000_Node000001"><a xlink:title=" ">
<path fill="none" stroke="#63b8ff" d="M101.21,-9.5C109.46,-9.5 118.13,-9.5 126.83,-9.5"/>
<polygon fill="#63b8ff" stroke="#63b8ff" points="101.02,-6 91.02,-9.5 101.02,-13 101.02,-6"/>
</a>
</g>
</g>
<!-- Node2 -->
<g id="Node000002" class="node">
<title>Node2</title>
<g id="a_Node000002"><a xlink:href="classUtil_1_1DigitalOnlyItemDelegate.html" target="_top" xlink:title="Implements a QItemDelegate which forces e.g. a QTableWidgetItem&#39;s content to be boolean (0 or 1).">
<polygon fill="white" stroke="#666666" points="494,-19 333,-19 333,0 494,0 494,-19"/>
<text text-anchor="middle" x="413.5" y="-7" font-family="Helvetica,sans-Serif" font-size="10.00">Util::DigitalOnlyItemDelegate</text>
</a>
</g>
</g>
<!-- Node1&#45;&gt;Node2 -->
<g id="edge526_Node000001_Node000002" class="edge">
<title>Node1&#45;&gt;Node2</title>
<g id="a_edge526_Node000001_Node000002"><a xlink:title=" ">
<path fill="none" stroke="#63b8ff" d="M307.06,-9.5C315.64,-9.5 324.27,-9.5 332.71,-9.5"/>
<polygon fill="#63b8ff" stroke="#63b8ff" points="307.03,-6 297.03,-9.5 307.03,-13 307.03,-6"/>
</a>
</g>
</g>
</g>
</svg>
