<?xml version="1.0" encoding="UTF-8" standalone="no"?>
<!DOCTYPE svg PUBLIC "-//W3C//DTD SVG 1.1//EN"
 "http://www.w3.org/Graphics/SVG/1.1/DTD/svg11.dtd">
<!-- Generated by graphviz version 2.43.0 (0)
 -->
<!-- Title: Graphical Class Hierarchy Pages: 1 -->
<svg width="502pt" height="28pt"
 viewBox="0.00 0.00 502.00 28.00" xmlns="http://www.w3.org/2000/svg" xmlns:xlink="http://www.w3.org/1999/xlink">
<g id="graph0" class="graph" transform="scale(1 1) rotate(0) translate(4 24)">
<title>Graphical Class Hierarchy</title>
<polygon fill="white" stroke="transparent" points="-4,4 -4,-24 498,-24 498,4 -4,4"/>
<!-- Node629 -->
<g id="node1" class="node">
<title>Node629</title>
<g id="a_node1"><a xlink:title=" ">
<polygon fill="white" stroke="#bfbfbf" points="0,-0.5 0,-19.5 91,-19.5 91,-0.5 0,-0.5"/>
<text text-anchor="middle" x="45.5" y="-7.5" font-family="Helvetica,sans-Serif" font-size="10.00">QItemDelegate</text>
</a>
</g>
</g>
<!-- Node0 -->
<g id="node2" class="node">
<title>Node0</title>
<g id="a_node2"><a xlink:href="classUtil_1_1NumericOnlyItemDelegate.html" target="_top" xlink:title="Implements a QItemDelegate which forces e.g. a QTableWidgetItem&#39;s content to be numeric (double&#45;preci...">
<polygon fill="white" stroke="black" points="127,-0.5 127,-19.5 297,-19.5 297,-0.5 127,-0.5"/>
<text text-anchor="middle" x="212" y="-7.5" font-family="Helvetica,sans-Serif" font-size="10.00">Util::NumericOnlyItemDelegate</text>
</a>
</g>
</g>
<!-- Node629&#45;&gt;Node0 -->
<g id="edge1" class="edge">
<title>Node629&#45;&gt;Node0</title>
<path fill="none" stroke="midnightblue" d="M101.21,-10C109.46,-10 118.13,-10 126.83,-10"/>
<polygon fill="midnightblue" stroke="midnightblue" points="101.02,-6.5 91.02,-10 101.02,-13.5 101.02,-6.5"/>
</g>
<!-- Node1 -->
<g id="node3" class="node">
<title>Node1</title>
<g id="a_node3"><a xlink:href="classUtil_1_1DigitalOnlyItemDelegate.html" target="_top" xlink:title="Implements a QItemDelegate which forces e.g. a QTableWidgetItem&#39;s content to be boolean (0 or 1).">
<polygon fill="white" stroke="black" points="333,-0.5 333,-19.5 494,-19.5 494,-0.5 333,-0.5"/>
<text text-anchor="middle" x="413.5" y="-7.5" font-family="Helvetica,sans-Serif" font-size="10.00">Util::DigitalOnlyItemDelegate</text>
</a>
</g>
</g>
<!-- Node0&#45;&gt;Node1 -->
<g id="edge2" class="edge">
<title>Node0&#45;&gt;Node1</title>
<path fill="none" stroke="midnightblue" d="M307.06,-10C315.64,-10 324.27,-10 332.71,-10"/>
<polygon fill="midnightblue" stroke="midnightblue" points="307.03,-6.5 297.03,-10 307.03,-13.5 307.03,-6.5"/>
</g>
</g>
</svg>
