<?xml version="1.0" encoding="UTF-8" standalone="no"?>
<!DOCTYPE svg PUBLIC "-//W3C//DTD SVG 1.1//EN"
 "http://www.w3.org/Graphics/SVG/1.1/DTD/svg11.dtd">
<!-- Generated by graphviz version 2.43.0 (0)
 -->
<!-- Title: Graphical Class Hierarchy Pages: 1 -->
<svg width="845pt" height="305pt"
 viewBox="0.00 0.00 845.00 304.50" xmlns="http://www.w3.org/2000/svg" xmlns:xlink="http://www.w3.org/1999/xlink">
<g id="graph0" class="graph" transform="scale(1 1) rotate(0) translate(4 300.5)">
<title>Graphical Class Hierarchy</title>
<!-- Node0 -->
<g id="Node000000" class="node">
<title>Node0</title>
<g id="a_Node000000"><a xlink:title=" ">
<polygon fill="#e0e0e0" stroke="#999999" points="128,-210 0,-210 0,-191 128,-191 128,-210"/>
<text text-anchor="middle" x="64" y="-198" font-family="Helvetica,sans-Serif" font-size="10.00">BaseInstr::InitTaskType</text>
</a>
</g>
</g>
<!-- Node1 -->
<g id="Node000001" class="node">
<title>Node1</title>
<g id="a_Node000001"><a xlink:href="classDynExpInstr_1_1gRPCInstrumentTasks_1_1InitTask.html" target="_top" xlink:title=" ">
<polygon fill="white" stroke="#666666" points="392,-296.5 184,-296.5 184,-244.5 392,-244.5 392,-296.5"/>
<text text-anchor="start" x="192" y="-284.5" font-family="Helvetica,sans-Serif" font-size="10.00">DynExpInstr::gRPCInstrument</text>
<text text-anchor="start" x="192" y="-273.5" font-family="Helvetica,sans-Serif" font-size="10.00">Tasks::InitTask&lt; Spectrometer,</text>
<text text-anchor="start" x="192" y="-262.5" font-family="Helvetica,sans-Serif" font-size="10.00"> 0, DynExpProto::NetworkSpectrometer</text>
<text text-anchor="middle" x="288" y="-251.5" font-family="Helvetica,sans-Serif" font-size="10.00">::NetworkSpectrometer &gt;</text>
</a>
</g>
</g>
<!-- Node0&#45;&gt;Node1 -->
<g id="edge37_Node000000_Node000001" class="edge">
<title>Node0&#45;&gt;Node1</title>
<g id="a_edge37_Node000000_Node000001"><a xlink:title=" ">
<path fill="none" stroke="#63b8ff" d="M100.14,-213.53C118.98,-220.36 142.65,-228.7 164,-235.5 173.41,-238.5 183.27,-241.51 193.13,-244.45"/>
<polygon fill="#63b8ff" stroke="#63b8ff" points="101.09,-210.15 90.49,-210.01 98.69,-216.72 101.09,-210.15"/>
</a>
</g>
</g>
<!-- Node3 -->
<g id="Node000003" class="node">
<title>Node3</title>
<g id="a_Node000003"><a xlink:href="classDynExpInstr_1_1gRPCInstrumentTasks_1_1InitTask.html" target="_top" xlink:title=" ">
<polygon fill="white" stroke="#666666" points="412,-226.5 164,-226.5 164,-174.5 412,-174.5 412,-226.5"/>
<text text-anchor="start" x="172" y="-214.5" font-family="Helvetica,sans-Serif" font-size="10.00">DynExpInstr::gRPCInstrument</text>
<text text-anchor="start" x="172" y="-203.5" font-family="Helvetica,sans-Serif" font-size="10.00">Tasks::InitTask&lt; DynExp</text>
<text text-anchor="start" x="172" y="-192.5" font-family="Helvetica,sans-Serif" font-size="10.00">::InstrumentBase, 0, DynExpProto</text>
<text text-anchor="middle" x="288" y="-181.5" font-family="Helvetica,sans-Serif" font-size="10.00">::WidefieldLocalization::WidefieldLocalization &gt;</text>
</a>
</g>
</g>
<!-- Node0&#45;&gt;Node3 -->
<g id="edge39_Node000000_Node000003" class="edge">
<title>Node0&#45;&gt;Node3</title>
<g id="a_edge39_Node000000_Node000003"><a xlink:title=" ">
<path fill="none" stroke="#63b8ff" d="M138.27,-200.5C146.51,-200.5 155.05,-200.5 163.71,-200.5"/>
<polygon fill="#63b8ff" stroke="#63b8ff" points="138.02,-197 128.02,-200.5 138.02,-204 138.02,-197"/>
</a>
</g>
</g>
<!-- Node5 -->
<g id="Node000005" class="node">
<title>Node5</title>
<g id="a_Node000005"><a xlink:href="classDynExpInstr_1_1gRPCInstrumentTasks_1_1InitTask.html" target="_top" xlink:title="Defines a task for initializing an instrument within an instrument inheritance hierarchy....">
<polygon fill="white" stroke="#666666" points="368.5,-156 207.5,-156 207.5,-115 368.5,-115 368.5,-156"/>
<text text-anchor="start" x="215.5" y="-144" font-family="Helvetica,sans-Serif" font-size="10.00">DynExpInstr::gRPCInstrument</text>
<text text-anchor="start" x="215.5" y="-133" font-family="Helvetica,sans-Serif" font-size="10.00">Tasks::InitTask&lt; BaseInstr,</text>
<text text-anchor="middle" x="288" y="-122" font-family="Helvetica,sans-Serif" font-size="10.00">, gRPCStubs &gt;</text>
</a>
</g>
</g>
<!-- Node0&#45;&gt;Node5 -->
<g id="edge41_Node000000_Node000005" class="edge">
<title>Node0&#45;&gt;Node5</title>
<g id="a_edge41_Node000000_Node000005"><a xlink:title=" ">
<path fill="none" stroke="#63b8ff" d="M99.39,-187.38C118.3,-180.41 142.28,-171.97 164,-165.5 177.9,-161.36 192.81,-157.36 207.29,-153.7"/>
<polygon fill="#63b8ff" stroke="#63b8ff" points="98.15,-184.11 90,-190.88 100.59,-190.67 98.15,-184.11"/>
</a>
</g>
</g>
<!-- Node2 -->
<g id="Node000002" class="node">
<title>Node2</title>
<g id="a_Node000002"><a xlink:href="classDynExpInstr_1_1NetworkSpectrometerTasks_1_1InitTask.html" target="_top" xlink:title=" ">
<polygon fill="white" stroke="#666666" points="637,-285.5 448,-285.5 448,-255.5 637,-255.5 637,-285.5"/>
<text text-anchor="start" x="456" y="-273.5" font-family="Helvetica,sans-Serif" font-size="10.00">DynExpInstr::NetworkSpectrometer</text>
<text text-anchor="middle" x="542.5" y="-262.5" font-family="Helvetica,sans-Serif" font-size="10.00">Tasks::InitTask</text>
</a>
</g>
</g>
<!-- Node1&#45;&gt;Node2 -->
<g id="edge38_Node000001_Node000002" class="edge">
<title>Node1&#45;&gt;Node2</title>
<g id="a_edge38_Node000001_Node000002"><a xlink:title=" ">
<path fill="none" stroke="#63b8ff" d="M402.48,-270.5C417.6,-270.5 432.97,-270.5 447.7,-270.5"/>
<polygon fill="#63b8ff" stroke="#63b8ff" points="402.07,-267 392.07,-270.5 402.07,-274 402.07,-267"/>
</a>
</g>
</g>
<!-- Node4 -->
<g id="Node000004" class="node">
<title>Node4</title>
<g id="a_Node000004"><a xlink:href="classDynExpInstr_1_1WidefieldLocalizationTasks_1_1InitTask.html" target="_top" xlink:title=" ">
<polygon fill="white" stroke="#666666" points="635.5,-215.5 449.5,-215.5 449.5,-185.5 635.5,-185.5 635.5,-215.5"/>
<text text-anchor="start" x="457.5" y="-203.5" font-family="Helvetica,sans-Serif" font-size="10.00">DynExpInstr::WidefieldLocalization</text>
<text text-anchor="middle" x="542.5" y="-192.5" font-family="Helvetica,sans-Serif" font-size="10.00">Tasks::InitTask</text>
</a>
</g>
</g>
<!-- Node3&#45;&gt;Node4 -->
<g id="edge40_Node000003_Node000004" class="edge">
<title>Node3&#45;&gt;Node4</title>
<g id="a_edge40_Node000003_Node000004"><a xlink:title=" ">
<path fill="none" stroke="#63b8ff" d="M422.56,-200.5C431.64,-200.5 440.68,-200.5 449.47,-200.5"/>
<polygon fill="#63b8ff" stroke="#63b8ff" points="422.29,-197 412.29,-200.5 422.29,-204 422.29,-197"/>
</a>
</g>
</g>
<!-- Node6 -->
<g id="Node000006" class="node">
<title>Node6</title>
<g id="a_Node000006"><a xlink:href="classDynExpInstr_1_1NetworkDataStreamInstrumentTasks_1_1InitTask.html" target="_top" xlink:title=" ">
<polygon fill="white" stroke="#666666" points="615.5,-164.5 469.5,-164.5 469.5,-112.5 615.5,-112.5 615.5,-164.5"/>
<text text-anchor="start" x="477.5" y="-152.5" font-family="Helvetica,sans-Serif" font-size="10.00">DynExpInstr::NetworkData</text>
<text text-anchor="start" x="477.5" y="-141.5" font-family="Helvetica,sans-Serif" font-size="10.00">StreamInstrumentTasks</text>
<text text-anchor="start" x="477.5" y="-130.5" font-family="Helvetica,sans-Serif" font-size="10.00">::InitTask&lt; BaseInstr,</text>
<text text-anchor="middle" x="542.5" y="-119.5" font-family="Helvetica,sans-Serif" font-size="10.00"> 0, gRPCStubs... &gt;</text>
</a>
</g>
</g>
<!-- Node5&#45;&gt;Node6 -->
<g id="edge42_Node000005_Node000006" class="edge">
<title>Node5&#45;&gt;Node6</title>
<g id="a_edge42_Node000005_Node000006"><a xlink:title=" ">
<path fill="none" stroke="#63b8ff" d="M378.89,-136.57C408.52,-136.92 441.06,-137.31 469.21,-137.64"/>
<polygon fill="#63b8ff" stroke="#63b8ff" points="378.59,-133.06 368.55,-136.45 378.5,-140.06 378.59,-133.06"/>
</a>
</g>
</g>
<!-- Node12 -->
<g id="Node000012" class="node">
<title>Node12</title>
<g id="a_Node000012"><a xlink:href="classDynExpInstr_1_1NetworkDataStreamInstrumentTasks_1_1InitTask.html" target="_top" xlink:title=" ">
<polygon fill="white" stroke="#666666" points="615.5,-94.5 469.5,-94.5 469.5,-42.5 615.5,-42.5 615.5,-94.5"/>
<text text-anchor="start" x="477.5" y="-82.5" font-family="Helvetica,sans-Serif" font-size="10.00">DynExpInstr::NetworkData</text>
<text text-anchor="start" x="477.5" y="-71.5" font-family="Helvetica,sans-Serif" font-size="10.00">StreamInstrumentTasks</text>
<text text-anchor="start" x="477.5" y="-60.5" font-family="Helvetica,sans-Serif" font-size="10.00">::InitTask&lt; BaseInstr,,</text>
<text text-anchor="middle" x="542.5" y="-49.5" font-family="Helvetica,sans-Serif" font-size="10.00"> gRPCStubs &gt;</text>
</a>
</g>
</g>
<!-- Node5&#45;&gt;Node12 -->
<g id="edge48_Node000005_Node000012" class="edge">
<title>Node5&#45;&gt;Node12</title>
<g id="a_edge48_Node000005_Node000012"><a xlink:title=" ">
<path fill="none" stroke="#63b8ff" d="M376.21,-112.36C406.59,-104.3 440.32,-95.35 469.34,-87.65"/>
<polygon fill="#63b8ff" stroke="#63b8ff" points="375.24,-108.99 366.47,-114.94 377.04,-115.76 375.24,-108.99"/>
</a>
</g>
</g>
<!-- Node7 -->
<g id="Node000007" class="node">
<title>Node7</title>
<g id="a_Node000007"><a xlink:href="classDynExpInstr_1_1NetworkAnalogInTasks_1_1InitTask.html" target="_top" xlink:title=" ">
<polygon fill="white" stroke="#666666" points="833.5,-277 676.5,-277 676.5,-236 833.5,-236 833.5,-277"/>
<text text-anchor="start" x="684.5" y="-265" font-family="Helvetica,sans-Serif" font-size="10.00">DynExpInstr::NetworkAnalog</text>
<text text-anchor="start" x="684.5" y="-254" font-family="Helvetica,sans-Serif" font-size="10.00">InTasks::InitTask&lt; BaseInstr,</text>
<text text-anchor="middle" x="755" y="-243" font-family="Helvetica,sans-Serif" font-size="10.00">, gRPCStubs &gt;</text>
</a>
</g>
</g>
<!-- Node6&#45;&gt;Node7 -->
<g id="edge43_Node000006_Node000007" class="edge">
<title>Node6&#45;&gt;Node7</title>
<g id="a_edge43_Node000006_Node000007"><a xlink:title=" ">
<path fill="none" stroke="#63b8ff" d="M624.79,-168C629.07,-170.63 633.17,-173.46 637,-176.5 658.73,-193.75 650.91,-210.71 673,-227.5 677.04,-230.57 681.44,-233.34 686.03,-235.83"/>
<polygon fill="#63b8ff" stroke="#63b8ff" points="626.23,-164.79 615.81,-162.89 622.76,-170.88 626.23,-164.79"/>
</a>
</g>
</g>
<!-- Node8 -->
<g id="Node000008" class="node">
<title>Node8</title>
<g id="a_Node000008"><a xlink:href="classDynExpInstr_1_1NetworkAnalogOutTasks_1_1InitTask.html" target="_top" xlink:title=" ">
<polygon fill="white" stroke="#666666" points="837,-218 673,-218 673,-177 837,-177 837,-218"/>
<text text-anchor="start" x="681" y="-206" font-family="Helvetica,sans-Serif" font-size="10.00">DynExpInstr::NetworkAnalog</text>
<text text-anchor="start" x="681" y="-195" font-family="Helvetica,sans-Serif" font-size="10.00">OutTasks::InitTask&lt; BaseInstr,</text>
<text text-anchor="middle" x="755" y="-184" font-family="Helvetica,sans-Serif" font-size="10.00">, gRPCStubs &gt;</text>
</a>
</g>
</g>
<!-- Node6&#45;&gt;Node8 -->
<g id="edge44_Node000006_Node000008" class="edge">
<title>Node6&#45;&gt;Node8</title>
<g id="a_edge44_Node000006_Node000008"><a xlink:title=" ">
<path fill="none" stroke="#63b8ff" d="M625.34,-161.44C643.53,-166.54 662.69,-171.91 680.52,-176.9"/>
<polygon fill="#63b8ff" stroke="#63b8ff" points="626.22,-158.05 615.65,-158.72 624.33,-164.79 626.22,-158.05"/>
</a>
</g>
</g>
<!-- Node9 -->
<g id="Node000009" class="node">
<title>Node9</title>
<g id="a_Node000009"><a xlink:href="classDynExpInstr_1_1NetworkDigitalInTasks_1_1InitTask.html" target="_top" xlink:title=" ">
<polygon fill="white" stroke="#666666" points="833,-159 677,-159 677,-118 833,-118 833,-159"/>
<text text-anchor="start" x="685" y="-147" font-family="Helvetica,sans-Serif" font-size="10.00">DynExpInstr::NetworkDigital</text>
<text text-anchor="start" x="685" y="-136" font-family="Helvetica,sans-Serif" font-size="10.00">InTasks::InitTask&lt; BaseInstr,</text>
<text text-anchor="middle" x="755" y="-125" font-family="Helvetica,sans-Serif" font-size="10.00">, gRPCStubs &gt;</text>
</a>
</g>
</g>
<!-- Node6&#45;&gt;Node9 -->
<g id="edge45_Node000006_Node000009" class="edge">
<title>Node6&#45;&gt;Node9</title>
<g id="a_edge45_Node000006_Node000009"><a xlink:title=" ">
<path fill="none" stroke="#63b8ff" d="M625.97,-138.5C642.75,-138.5 660.33,-138.5 676.91,-138.5"/>
<polygon fill="#63b8ff" stroke="#63b8ff" points="625.65,-135 615.65,-138.5 625.65,-142 625.65,-135"/>
</a>
</g>
</g>
<!-- Node10 -->
<g id="Node000010" class="node">
<title>Node10</title>
<g id="a_Node000010"><a xlink:href="classDynExpInstr_1_1NetworkDigitalOutTasks_1_1InitTask.html" target="_top" xlink:title=" ">
<polygon fill="white" stroke="#666666" points="837,-100 673,-100 673,-59 837,-59 837,-100"/>
<text text-anchor="start" x="681" y="-88" font-family="Helvetica,sans-Serif" font-size="10.00">DynExpInstr::NetworkDigital</text>
<text text-anchor="start" x="681" y="-77" font-family="Helvetica,sans-Serif" font-size="10.00">OutTasks::InitTask&lt; BaseInstr,</text>
<text text-anchor="middle" x="755" y="-66" font-family="Helvetica,sans-Serif" font-size="10.00">, gRPCStubs &gt;</text>
</a>
</g>
</g>
<!-- Node6&#45;&gt;Node10 -->
<g id="edge46_Node000006_Node000010" class="edge">
<title>Node6&#45;&gt;Node10</title>
<g id="a_edge46_Node000006_Node000010"><a xlink:title=" ">
<path fill="none" stroke="#63b8ff" d="M625.34,-115.56C643.53,-110.46 662.69,-105.09 680.52,-100.1"/>
<polygon fill="#63b8ff" stroke="#63b8ff" points="624.33,-112.21 615.65,-118.28 626.22,-118.95 624.33,-112.21"/>
</a>
</g>
</g>
<!-- Node11 -->
<g id="Node000011" class="node">
<title>Node11</title>
<g id="a_Node000011"><a xlink:href="classDynExpInstr_1_1NetworkTimeTaggerTasks_1_1InitTask.html" target="_top" xlink:title=" ">
<polygon fill="white" stroke="#666666" points="829,-41 681,-41 681,0 829,0 829,-41"/>
<text text-anchor="start" x="689" y="-29" font-family="Helvetica,sans-Serif" font-size="10.00">DynExpInstr::NetworkTime</text>
<text text-anchor="start" x="689" y="-18" font-family="Helvetica,sans-Serif" font-size="10.00">TaggerTasks::InitTask</text>
<text text-anchor="middle" x="755" y="-7" font-family="Helvetica,sans-Serif" font-size="10.00">&lt; BaseInstr,, gRPCStubs &gt;</text>
</a>
</g>
</g>
<!-- Node6&#45;&gt;Node11 -->
<g id="edge47_Node000006_Node000011" class="edge">
<title>Node6&#45;&gt;Node11</title>
<g id="a_edge47_Node000006_Node000011"><a xlink:title=" ">
<path fill="none" stroke="#63b8ff" d="M624.88,-111.81C629.14,-109.27 633.21,-106.51 637,-103.5 659.6,-85.58 650.27,-67.26 673,-49.5 677,-46.37 681.37,-43.57 685.93,-41.05"/>
<polygon fill="#63b8ff" stroke="#63b8ff" points="623.02,-108.85 615.94,-116.73 626.39,-114.98 623.02,-108.85"/>
</a>
</g>
</g>
</g>
</svg>
