<?xml version="1.0" encoding="UTF-8" standalone="no"?>
<!DOCTYPE svg PUBLIC "-//W3C//DTD SVG 1.1//EN"
 "http://www.w3.org/Graphics/SVG/1.1/DTD/svg11.dtd">
<!-- Generated by graphviz version 2.43.0 (0)
 -->
<!-- Title: Graphical Class Hierarchy Pages: 1 -->
<svg width="396pt" height="2386pt"
 viewBox="0.00 0.00 396.00 2385.50" xmlns="http://www.w3.org/2000/svg" xmlns:xlink="http://www.w3.org/1999/xlink">
<g id="graph0" class="graph" transform="scale(1 1) rotate(0) translate(4 2381.5)">
<title>Graphical Class Hierarchy</title>
<!-- Node0 -->
<g id="Node000000" class="node">
<title>Node0</title>
<g id="a_Node000000"><a xlink:title=" ">
<polygon fill="#e0e0e0" stroke="#999999" points="128,-1202.5 0,-1202.5 0,-1172.5 128,-1172.5 128,-1202.5"/>
<text text-anchor="start" x="8" y="-1190.5" font-family="Helvetica,sans-Serif" font-size="10.00">gRPCModule::template</text>
<text text-anchor="middle" x="64" y="-1179.5" font-family="Helvetica,sans-Serif" font-size="10.00"> TypedCallDataBase</text>
</a>
</g>
</g>
<!-- Node1 -->
<g id="Node000001" class="node">
<title>Node1</title>
<g id="a_Node000001"><a xlink:href="classDynExpModule_1_1NetworkAnalogInT_1_1CallDataGetAsync.html" target="_top" xlink:title=" ">
<polygon fill="white" stroke="#666666" points="383.5,-2377.5 168.5,-2377.5 168.5,-2347.5 383.5,-2347.5 383.5,-2377.5"/>
<text text-anchor="start" x="176.5" y="-2365.5" font-family="Helvetica,sans-Serif" font-size="10.00">DynExpModule::NetworkAnalog</text>
<text text-anchor="middle" x="276" y="-2354.5" font-family="Helvetica,sans-Serif" font-size="10.00">InT&lt; gRPCServices &gt;::CallDataGetAsync</text>
</a>
</g>
</g>
<!-- Node0&#45;&gt;Node1 -->
<g id="edge475_Node000000_Node000001" class="edge">
<title>Node0&#45;&gt;Node1</title>
<g id="a_edge475_Node000000_Node000001"><a xlink:title=" ">
<path fill="none" stroke="#63b8ff" d="M65.41,-1213.28C68.25,-1375.48 87.08,-2251.12 164,-2338.5 166.87,-2341.76 170.06,-2344.63 173.5,-2347.16"/>
<polygon fill="#63b8ff" stroke="#63b8ff" points="68.91,-1212.79 65.24,-1202.85 61.91,-1212.91 68.91,-1212.79"/>
</a>
</g>
</g>
<!-- Node2 -->
<g id="Node000002" class="node">
<title>Node2</title>
<g id="a_Node000002"><a xlink:href="classDynExpModule_1_1NetworkAnalogInT_1_1CallDataGetHardwareLimits.html" target="_top" xlink:title=" ">
<polygon fill="white" stroke="#666666" points="369,-2329 183,-2329 183,-2288 369,-2288 369,-2329"/>
<text text-anchor="start" x="191" y="-2317" font-family="Helvetica,sans-Serif" font-size="10.00">DynExpModule::NetworkAnalog</text>
<text text-anchor="start" x="191" y="-2306" font-family="Helvetica,sans-Serif" font-size="10.00">InT&lt; gRPCServices &gt;::CallDataGet</text>
<text text-anchor="middle" x="276" y="-2295" font-family="Helvetica,sans-Serif" font-size="10.00">HardwareLimits</text>
</a>
</g>
</g>
<!-- Node0&#45;&gt;Node2 -->
<g id="edge476_Node000000_Node000002" class="edge">
<title>Node0&#45;&gt;Node2</title>
<g id="a_edge476_Node000000_Node000002"><a xlink:title=" ">
<path fill="none" stroke="#63b8ff" d="M65.59,-1212.87C69.45,-1368.85 93.14,-2194.15 164,-2278.5 169.26,-2284.77 175.69,-2289.8 182.77,-2293.82"/>
<polygon fill="#63b8ff" stroke="#63b8ff" points="69.09,-1212.72 65.35,-1202.81 62.09,-1212.89 69.09,-1212.72"/>
</a>
</g>
</g>
<!-- Node3 -->
<g id="Node000003" class="node">
<title>Node3</title>
<g id="a_Node000003"><a xlink:href="classDynExpModule_1_1NetworkAnalogInT_1_1CallDataGetSync.html" target="_top" xlink:title=" ">
<polygon fill="white" stroke="#666666" points="380.5,-2269.5 171.5,-2269.5 171.5,-2239.5 380.5,-2239.5 380.5,-2269.5"/>
<text text-anchor="start" x="179.5" y="-2257.5" font-family="Helvetica,sans-Serif" font-size="10.00">DynExpModule::NetworkAnalog</text>
<text text-anchor="middle" x="276" y="-2246.5" font-family="Helvetica,sans-Serif" font-size="10.00">InT&lt; gRPCServices &gt;::CallDataGetSync</text>
</a>
</g>
</g>
<!-- Node0&#45;&gt;Node3 -->
<g id="edge477_Node000000_Node000003" class="edge">
<title>Node0&#45;&gt;Node3</title>
<g id="a_edge477_Node000000_Node000003"><a xlink:title=" ">
<path fill="none" stroke="#63b8ff" d="M65.64,-1212.73C69.72,-1364.47 94.18,-2151.89 164,-2230.5 167.01,-2233.89 170.38,-2236.87 174.01,-2239.47"/>
<polygon fill="#63b8ff" stroke="#63b8ff" points="69.14,-1212.46 65.37,-1202.55 62.14,-1212.64 69.14,-1212.46"/>
</a>
</g>
</g>
<!-- Node4 -->
<g id="Node000004" class="node">
<title>Node4</title>
<g id="a_Node000004"><a xlink:href="classDynExpModule_1_1NetworkAnalogInT_1_1CallDataGetValueUnit.html" target="_top" xlink:title=" ">
<polygon fill="white" stroke="#666666" points="369,-2221 183,-2221 183,-2180 369,-2180 369,-2221"/>
<text text-anchor="start" x="191" y="-2209" font-family="Helvetica,sans-Serif" font-size="10.00">DynExpModule::NetworkAnalog</text>
<text text-anchor="start" x="191" y="-2198" font-family="Helvetica,sans-Serif" font-size="10.00">InT&lt; gRPCServices &gt;::CallDataGet</text>
<text text-anchor="middle" x="276" y="-2187" font-family="Helvetica,sans-Serif" font-size="10.00">ValueUnit</text>
</a>
</g>
</g>
<!-- Node0&#45;&gt;Node4 -->
<g id="edge478_Node000000_Node000004" class="edge">
<title>Node0&#45;&gt;Node4</title>
<g id="a_edge478_Node000000_Node000004"><a xlink:title=" ">
<path fill="none" stroke="#63b8ff" d="M65.85,-1213.08C70.99,-1360.38 99.75,-2096.4 164,-2171.5 169.31,-2177.7 175.76,-2182.67 182.86,-2186.62"/>
<polygon fill="#63b8ff" stroke="#63b8ff" points="69.34,-1212.66 65.5,-1202.79 62.34,-1212.9 69.34,-1212.66"/>
</a>
</g>
</g>
<!-- Node5 -->
<g id="Node000005" class="node">
<title>Node5</title>
<g id="a_Node000005"><a xlink:href="classDynExpModule_1_1NetworkAnalogInT_1_1CallDataHardwareResolution.html" target="_top" xlink:title=" ">
<polygon fill="white" stroke="#666666" points="384,-2162 168,-2162 168,-2121 384,-2121 384,-2162"/>
<text text-anchor="start" x="176" y="-2150" font-family="Helvetica,sans-Serif" font-size="10.00">DynExpModule::NetworkAnalog</text>
<text text-anchor="start" x="176" y="-2139" font-family="Helvetica,sans-Serif" font-size="10.00">InT&lt; gRPCServices &gt;::CallDataHardware</text>
<text text-anchor="middle" x="276" y="-2128" font-family="Helvetica,sans-Serif" font-size="10.00">Resolution</text>
</a>
</g>
</g>
<!-- Node0&#45;&gt;Node5 -->
<g id="edge479_Node000000_Node000005" class="edge">
<title>Node0&#45;&gt;Node5</title>
<g id="a_edge479_Node000000_Node000005"><a xlink:title=" ">
<path fill="none" stroke="#63b8ff" d="M66.02,-1212.86C71.91,-1354.35 103.52,-2042.27 164,-2112.5 166.6,-2115.52 169.47,-2118.24 172.55,-2120.7"/>
<polygon fill="#63b8ff" stroke="#63b8ff" points="69.5,-1212.44 65.59,-1202.59 62.51,-1212.73 69.5,-1212.44"/>
</a>
</g>
</g>
<!-- Node6 -->
<g id="Node000006" class="node">
<title>Node6</title>
<g id="a_Node000006"><a xlink:href="classDynExpModule_1_1NetworkAnalogOutT_1_1CallDataGetHardwareLimits.html" target="_top" xlink:title=" ">
<polygon fill="white" stroke="#666666" points="373,-2103 179,-2103 179,-2062 373,-2062 373,-2103"/>
<text text-anchor="start" x="187" y="-2091" font-family="Helvetica,sans-Serif" font-size="10.00">DynExpModule::NetworkAnalog</text>
<text text-anchor="start" x="187" y="-2080" font-family="Helvetica,sans-Serif" font-size="10.00">OutT&lt; gRPCServices &gt;::CallDataGet</text>
<text text-anchor="middle" x="276" y="-2069" font-family="Helvetica,sans-Serif" font-size="10.00">HardwareLimits</text>
</a>
</g>
</g>
<!-- Node0&#45;&gt;Node6 -->
<g id="edge480_Node000000_Node000006" class="edge">
<title>Node0&#45;&gt;Node6</title>
<g id="a_edge480_Node000000_Node000006"><a xlink:title=" ">
<path fill="none" stroke="#63b8ff" d="M66.21,-1212.94C72.94,-1349.12 107.34,-1988.18 164,-2053.5 168.31,-2058.47 173.35,-2062.63 178.86,-2066.12"/>
<polygon fill="#63b8ff" stroke="#63b8ff" points="69.7,-1212.49 65.71,-1202.67 62.7,-1212.83 69.7,-1212.49"/>
</a>
</g>
</g>
<!-- Node7 -->
<g id="Node000007" class="node">
<title>Node7</title>
<g id="a_Node000007"><a xlink:href="classDynExpModule_1_1NetworkAnalogOutT_1_1CallDataGetUserLimits.html" target="_top" xlink:title=" ">
<polygon fill="white" stroke="#666666" points="373,-2044 179,-2044 179,-2003 373,-2003 373,-2044"/>
<text text-anchor="start" x="187" y="-2032" font-family="Helvetica,sans-Serif" font-size="10.00">DynExpModule::NetworkAnalog</text>
<text text-anchor="start" x="187" y="-2021" font-family="Helvetica,sans-Serif" font-size="10.00">OutT&lt; gRPCServices &gt;::CallDataGet</text>
<text text-anchor="middle" x="276" y="-2010" font-family="Helvetica,sans-Serif" font-size="10.00">UserLimits</text>
</a>
</g>
</g>
<!-- Node0&#45;&gt;Node7 -->
<g id="edge481_Node000000_Node000007" class="edge">
<title>Node0&#45;&gt;Node7</title>
<g id="a_edge481_Node000000_Node000007"><a xlink:title=" ">
<path fill="none" stroke="#63b8ff" d="M66.43,-1212.83C74.01,-1343.13 111.12,-1934.04 164,-1994.5 168.33,-1999.45 173.38,-2003.6 178.91,-2007.08"/>
<polygon fill="#63b8ff" stroke="#63b8ff" points="69.91,-1212.42 65.84,-1202.64 62.92,-1212.82 69.91,-1212.42"/>
</a>
</g>
</g>
<!-- Node8 -->
<g id="Node000008" class="node">
<title>Node8</title>
<g id="a_Node000008"><a xlink:href="classDynExpModule_1_1NetworkAnalogOutT_1_1CallDataGetValueUnit.html" target="_top" xlink:title=" ">
<polygon fill="white" stroke="#666666" points="373,-1985 179,-1985 179,-1944 373,-1944 373,-1985"/>
<text text-anchor="start" x="187" y="-1973" font-family="Helvetica,sans-Serif" font-size="10.00">DynExpModule::NetworkAnalog</text>
<text text-anchor="start" x="187" y="-1962" font-family="Helvetica,sans-Serif" font-size="10.00">OutT&lt; gRPCServices &gt;::CallDataGet</text>
<text text-anchor="middle" x="276" y="-1951" font-family="Helvetica,sans-Serif" font-size="10.00">ValueUnit</text>
</a>
</g>
</g>
<!-- Node0&#45;&gt;Node8 -->
<g id="edge482_Node000000_Node000008" class="edge">
<title>Node0&#45;&gt;Node8</title>
<g id="a_edge482_Node000000_Node000008"><a xlink:title=" ">
<path fill="none" stroke="#63b8ff" d="M64.71,-1212.9C63.9,-1330.97 66.45,-1825.04 164,-1935.5 168.35,-1940.43 173.42,-1944.57 178.96,-1948.04"/>
<polygon fill="#63b8ff" stroke="#63b8ff" points="68.21,-1212.7 64.8,-1202.68 61.21,-1212.65 68.21,-1212.7"/>
</a>
</g>
</g>
<!-- Node9 -->
<g id="Node000009" class="node">
<title>Node9</title>
<g id="a_Node000009"><a xlink:href="classDynExpModule_1_1NetworkAnalogOutT_1_1CallDataHardwareResolution.html" target="_top" xlink:title=" ">
<polygon fill="white" stroke="#666666" points="388,-1926 164,-1926 164,-1885 388,-1885 388,-1926"/>
<text text-anchor="start" x="172" y="-1914" font-family="Helvetica,sans-Serif" font-size="10.00">DynExpModule::NetworkAnalog</text>
<text text-anchor="start" x="172" y="-1903" font-family="Helvetica,sans-Serif" font-size="10.00">OutT&lt; gRPCServices &gt;::CallDataHardware</text>
<text text-anchor="middle" x="276" y="-1892" font-family="Helvetica,sans-Serif" font-size="10.00">Resolution</text>
</a>
</g>
</g>
<!-- Node0&#45;&gt;Node9 -->
<g id="edge483_Node000000_Node000009" class="edge">
<title>Node0&#45;&gt;Node9</title>
<g id="a_edge483_Node000000_Node000009"><a xlink:title=" ">
<path fill="none" stroke="#63b8ff" d="M65.06,-1212.62C65.82,-1324.27 74.47,-1774.42 164,-1875.5 167.04,-1878.94 170.44,-1882 174.09,-1884.72"/>
<polygon fill="#63b8ff" stroke="#63b8ff" points="68.56,-1212.6 65,-1202.62 61.56,-1212.64 68.56,-1212.6"/>
</a>
</g>
</g>
<!-- Node10 -->
<g id="Node000010" class="node">
<title>Node10</title>
<g id="a_Node000010"><a xlink:href="classDynExpModule_1_1NetworkAnalogOutT_1_1CallDataSetAsync.html" target="_top" xlink:title=" ">
<polygon fill="white" stroke="#666666" points="387,-1866.5 165,-1866.5 165,-1836.5 387,-1836.5 387,-1866.5"/>
<text text-anchor="start" x="173" y="-1854.5" font-family="Helvetica,sans-Serif" font-size="10.00">DynExpModule::NetworkAnalog</text>
<text text-anchor="middle" x="276" y="-1843.5" font-family="Helvetica,sans-Serif" font-size="10.00">OutT&lt; gRPCServices &gt;::CallDataSetAsync</text>
</a>
</g>
</g>
<!-- Node0&#45;&gt;Node10 -->
<g id="edge484_Node000000_Node000010" class="edge">
<title>Node0&#45;&gt;Node10</title>
<g id="a_edge484_Node000000_Node000010"><a xlink:title=" ">
<path fill="none" stroke="#63b8ff" d="M65.24,-1213.01C66.78,-1320.66 78.27,-1736.51 164,-1827.5 167.11,-1830.8 170.56,-1833.7 174.26,-1836.25"/>
<polygon fill="#63b8ff" stroke="#63b8ff" points="68.73,-1212.72 65.11,-1202.76 61.74,-1212.81 68.73,-1212.72"/>
</a>
</g>
</g>
<!-- Node11 -->
<g id="Node000011" class="node">
<title>Node11</title>
<g id="a_Node000011"><a xlink:href="classDynExpModule_1_1NetworkAnalogOutT_1_1CallDataSetDefault.html" target="_top" xlink:title=" ">
<polygon fill="white" stroke="#666666" points="372.5,-1818 179.5,-1818 179.5,-1777 372.5,-1777 372.5,-1818"/>
<text text-anchor="start" x="187.5" y="-1806" font-family="Helvetica,sans-Serif" font-size="10.00">DynExpModule::NetworkAnalog</text>
<text text-anchor="start" x="187.5" y="-1795" font-family="Helvetica,sans-Serif" font-size="10.00">OutT&lt; gRPCServices &gt;::CallDataSet</text>
<text text-anchor="middle" x="276" y="-1784" font-family="Helvetica,sans-Serif" font-size="10.00">Default</text>
</a>
</g>
</g>
<!-- Node0&#45;&gt;Node11 -->
<g id="edge485_Node000000_Node000011" class="edge">
<title>Node0&#45;&gt;Node11</title>
<g id="a_edge485_Node000000_Node000011"><a xlink:title=" ">
<path fill="none" stroke="#63b8ff" d="M65.8,-1212.75C69.5,-1313.34 88.15,-1684.09 164,-1767.5 168.5,-1772.45 173.72,-1776.61 179.4,-1780.12"/>
<polygon fill="#63b8ff" stroke="#63b8ff" points="69.29,-1212.48 65.45,-1202.61 62.3,-1212.72 69.29,-1212.48"/>
</a>
</g>
</g>
<!-- Node12 -->
<g id="Node000012" class="node">
<title>Node12</title>
<g id="a_Node000012"><a xlink:href="classDynExpModule_1_1NetworkAnalogOutT_1_1CallDataSetSync.html" target="_top" xlink:title=" ">
<polygon fill="white" stroke="#666666" points="384,-1758.5 168,-1758.5 168,-1728.5 384,-1728.5 384,-1758.5"/>
<text text-anchor="start" x="176" y="-1746.5" font-family="Helvetica,sans-Serif" font-size="10.00">DynExpModule::NetworkAnalog</text>
<text text-anchor="middle" x="276" y="-1735.5" font-family="Helvetica,sans-Serif" font-size="10.00">OutT&lt; gRPCServices &gt;::CallDataSetSync</text>
</a>
</g>
</g>
<!-- Node0&#45;&gt;Node12 -->
<g id="edge486_Node000000_Node000012" class="edge">
<title>Node0&#45;&gt;Node12</title>
<g id="a_edge486_Node000000_Node000012"><a xlink:title=" ">
<path fill="none" stroke="#63b8ff" d="M66.11,-1212.9C70.81,-1308.61 92.29,-1645.69 164,-1719.5 167.3,-1722.89 170.95,-1725.86 174.87,-1728.46"/>
<polygon fill="#63b8ff" stroke="#63b8ff" points="69.6,-1212.53 65.63,-1202.7 62.6,-1212.86 69.6,-1212.53"/>
</a>
</g>
</g>
<!-- Node13 -->
<g id="Node000013" class="node">
<title>Node13</title>
<g id="a_Node000013"><a xlink:href="classDynExpModule_1_1NetworkDataStreamInstrumentT_1_1CallDataClearData.html" target="_top" xlink:title=" ">
<polygon fill="white" stroke="#666666" points="370.5,-1710 181.5,-1710 181.5,-1669 370.5,-1669 370.5,-1710"/>
<text text-anchor="start" x="189.5" y="-1698" font-family="Helvetica,sans-Serif" font-size="10.00">DynExpModule::NetworkData</text>
<text text-anchor="start" x="189.5" y="-1687" font-family="Helvetica,sans-Serif" font-size="10.00">StreamInstrumentT&lt; gRPCServices</text>
<text text-anchor="middle" x="276" y="-1676" font-family="Helvetica,sans-Serif" font-size="10.00"> &gt;::CallDataClearData</text>
</a>
</g>
</g>
<!-- Node0&#45;&gt;Node13 -->
<g id="edge487_Node000000_Node000013" class="edge">
<title>Node0&#45;&gt;Node13</title>
<g id="a_edge487_Node000000_Node000013"><a xlink:title=" ">
<path fill="none" stroke="#63b8ff" d="M66.85,-1212.83C73.81,-1301.28 101.31,-1594.65 164,-1660.5 169.08,-1665.84 175.01,-1670.24 181.44,-1673.86"/>
<polygon fill="#63b8ff" stroke="#63b8ff" points="70.32,-1212.34 66.07,-1202.64 63.34,-1212.87 70.32,-1212.34"/>
</a>
</g>
</g>
<!-- Node14 -->
<g id="Node000014" class="node">
<title>Node14</title>
<g id="a_Node000014"><a xlink:href="classDynExpModule_1_1NetworkDataStreamInstrumentT_1_1CallDataGetStreamInfo.html" target="_top" xlink:title=" ">
<polygon fill="white" stroke="#666666" points="370.5,-1651 181.5,-1651 181.5,-1610 370.5,-1610 370.5,-1651"/>
<text text-anchor="start" x="189.5" y="-1639" font-family="Helvetica,sans-Serif" font-size="10.00">DynExpModule::NetworkData</text>
<text text-anchor="start" x="189.5" y="-1628" font-family="Helvetica,sans-Serif" font-size="10.00">StreamInstrumentT&lt; gRPCServices</text>
<text text-anchor="middle" x="276" y="-1617" font-family="Helvetica,sans-Serif" font-size="10.00"> &gt;::CallDataGetStreamInfo</text>
</a>
</g>
</g>
<!-- Node0&#45;&gt;Node14 -->
<g id="edge488_Node000000_Node000014" class="edge">
<title>Node0&#45;&gt;Node14</title>
<g id="a_edge488_Node000000_Node000014"><a xlink:title=" ">
<path fill="none" stroke="#63b8ff" d="M67.66,-1212.78C76.68,-1293.81 108.69,-1545.02 164,-1601.5 169.09,-1606.69 174.98,-1611 181.35,-1614.56"/>
<polygon fill="#63b8ff" stroke="#63b8ff" points="71.1,-1212.08 66.54,-1202.52 64.15,-1212.84 71.1,-1212.08"/>
</a>
</g>
</g>
<!-- Node15 -->
<g id="Node000015" class="node">
<title>Node15</title>
<g id="a_Node000015"><a xlink:href="classDynExpModule_1_1NetworkDataStreamInstrumentT_1_1CallDataGetStreamSize.html" target="_top" xlink:title=" ">
<polygon fill="white" stroke="#666666" points="370.5,-1592 181.5,-1592 181.5,-1551 370.5,-1551 370.5,-1592"/>
<text text-anchor="start" x="189.5" y="-1580" font-family="Helvetica,sans-Serif" font-size="10.00">DynExpModule::NetworkData</text>
<text text-anchor="start" x="189.5" y="-1569" font-family="Helvetica,sans-Serif" font-size="10.00">StreamInstrumentT&lt; gRPCServices</text>
<text text-anchor="middle" x="276" y="-1558" font-family="Helvetica,sans-Serif" font-size="10.00"> &gt;::CallDataGetStreamSize</text>
</a>
</g>
</g>
<!-- Node0&#45;&gt;Node15 -->
<g id="edge489_Node000000_Node000015" class="edge">
<title>Node0&#45;&gt;Node15</title>
<g id="a_edge489_Node000000_Node000015"><a xlink:title=" ">
<path fill="none" stroke="#63b8ff" d="M64.1,-1212.63C63.22,-1277.19 70.22,-1450.24 164,-1542.5 169.11,-1547.53 174.98,-1551.72 181.29,-1555.2"/>
<polygon fill="#63b8ff" stroke="#63b8ff" points="67.6,-1212.62 64.31,-1202.55 60.6,-1212.47 67.6,-1212.62"/>
</a>
</g>
</g>
<!-- Node16 -->
<g id="Node000016" class="node">
<title>Node16</title>
<g id="a_Node000016"><a xlink:href="classDynExpModule_1_1NetworkDataStreamInstrumentT_1_1CallDataHasFinished.html" target="_top" xlink:title=" ">
<polygon fill="white" stroke="#666666" points="370.5,-1533 181.5,-1533 181.5,-1492 370.5,-1492 370.5,-1533"/>
<text text-anchor="start" x="189.5" y="-1521" font-family="Helvetica,sans-Serif" font-size="10.00">DynExpModule::NetworkData</text>
<text text-anchor="start" x="189.5" y="-1510" font-family="Helvetica,sans-Serif" font-size="10.00">StreamInstrumentT&lt; gRPCServices</text>
<text text-anchor="middle" x="276" y="-1499" font-family="Helvetica,sans-Serif" font-size="10.00"> &gt;::CallDataHasFinished</text>
</a>
</g>
</g>
<!-- Node0&#45;&gt;Node16 -->
<g id="edge490_Node000000_Node000016" class="edge">
<title>Node0&#45;&gt;Node16</title>
<g id="a_edge490_Node000000_Node000016"><a xlink:title=" ">
<path fill="none" stroke="#63b8ff" d="M65.77,-1213.04C68.92,-1270.24 84.77,-1409.43 164,-1483.5 169.16,-1488.33 175.03,-1492.38 181.31,-1495.77"/>
<polygon fill="#63b8ff" stroke="#63b8ff" points="69.25,-1212.56 65.29,-1202.73 62.26,-1212.88 69.25,-1212.56"/>
</a>
</g>
</g>
<!-- Node17 -->
<g id="Node000017" class="node">
<title>Node17</title>
<g id="a_Node000017"><a xlink:href="classDynExpModule_1_1NetworkDataStreamInstrumentT_1_1CallDataIsRunning.html" target="_top" xlink:title=" ">
<polygon fill="white" stroke="#666666" points="370.5,-1474 181.5,-1474 181.5,-1433 370.5,-1433 370.5,-1474"/>
<text text-anchor="start" x="189.5" y="-1462" font-family="Helvetica,sans-Serif" font-size="10.00">DynExpModule::NetworkData</text>
<text text-anchor="start" x="189.5" y="-1451" font-family="Helvetica,sans-Serif" font-size="10.00">StreamInstrumentT&lt; gRPCServices</text>
<text text-anchor="middle" x="276" y="-1440" font-family="Helvetica,sans-Serif" font-size="10.00"> &gt;::CallDataIsRunning</text>
</a>
</g>
</g>
<!-- Node0&#45;&gt;Node17 -->
<g id="edge491_Node000000_Node000017" class="edge">
<title>Node0&#45;&gt;Node17</title>
<g id="a_edge491_Node000000_Node000017"><a xlink:title=" ">
<path fill="none" stroke="#63b8ff" d="M68.14,-1212.61C75.55,-1261.09 98.75,-1367.81 164,-1424.5 169.26,-1429.07 175.16,-1432.94 181.42,-1436.2"/>
<polygon fill="#63b8ff" stroke="#63b8ff" points="71.59,-1212.06 66.71,-1202.65 64.66,-1213.05 71.59,-1212.06"/>
</a>
</g>
</g>
<!-- Node18 -->
<g id="Node000018" class="node">
<title>Node18</title>
<g id="a_Node000018"><a xlink:href="classDynExpModule_1_1NetworkDataStreamInstrumentT_1_1CallDataRead.html" target="_top" xlink:title=" ">
<polygon fill="white" stroke="#666666" points="370.5,-1415 181.5,-1415 181.5,-1374 370.5,-1374 370.5,-1415"/>
<text text-anchor="start" x="189.5" y="-1403" font-family="Helvetica,sans-Serif" font-size="10.00">DynExpModule::NetworkData</text>
<text text-anchor="start" x="189.5" y="-1392" font-family="Helvetica,sans-Serif" font-size="10.00">StreamInstrumentT&lt; gRPCServices</text>
<text text-anchor="middle" x="276" y="-1381" font-family="Helvetica,sans-Serif" font-size="10.00"> &gt;::CallDataRead</text>
</a>
</g>
</g>
<!-- Node0&#45;&gt;Node18 -->
<g id="edge492_Node000000_Node000018" class="edge">
<title>Node0&#45;&gt;Node18</title>
<g id="a_edge492_Node000000_Node000018"><a xlink:title=" ">
<path fill="none" stroke="#63b8ff" d="M71.94,-1212.53C84.02,-1251.34 112.65,-1325.7 164,-1365.5 169.35,-1369.65 175.24,-1373.21 181.43,-1376.26"/>
<polygon fill="#63b8ff" stroke="#63b8ff" points="75.18,-1211.17 68.97,-1202.59 68.48,-1213.17 75.18,-1211.17"/>
</a>
</g>
</g>
<!-- Node19 -->
<g id="Node000019" class="node">
<title>Node19</title>
<g id="a_Node000019"><a xlink:href="classDynExpModule_1_1NetworkDataStreamInstrumentT_1_1CallDataResetStreamSize.html" target="_top" xlink:title=" ">
<polygon fill="white" stroke="#666666" points="370.5,-1356 181.5,-1356 181.5,-1315 370.5,-1315 370.5,-1356"/>
<text text-anchor="start" x="189.5" y="-1344" font-family="Helvetica,sans-Serif" font-size="10.00">DynExpModule::NetworkData</text>
<text text-anchor="start" x="189.5" y="-1333" font-family="Helvetica,sans-Serif" font-size="10.00">StreamInstrumentT&lt; gRPCServices</text>
<text text-anchor="middle" x="276" y="-1322" font-family="Helvetica,sans-Serif" font-size="10.00"> &gt;::CallDataResetStreamSize</text>
</a>
</g>
</g>
<!-- Node0&#45;&gt;Node19 -->
<g id="edge493_Node000000_Node000019" class="edge">
<title>Node0&#45;&gt;Node19</title>
<g id="a_edge493_Node000000_Node000019"><a xlink:title=" ">
<path fill="none" stroke="#63b8ff" d="M78.76,-1211.78C95.43,-1238.98 126.06,-1282.38 164,-1306.5 169.46,-1309.97 175.33,-1313.03 181.4,-1315.72"/>
<polygon fill="#63b8ff" stroke="#63b8ff" points="81.59,-1209.69 73.46,-1202.9 75.58,-1213.28 81.59,-1209.69"/>
</a>
</g>
</g>
<!-- Node20 -->
<g id="Node000020" class="node">
<title>Node20</title>
<g id="a_Node000020"><a xlink:href="classDynExpModule_1_1NetworkDataStreamInstrumentT_1_1CallDataRestart.html" target="_top" xlink:title=" ">
<polygon fill="white" stroke="#666666" points="370.5,-1297 181.5,-1297 181.5,-1256 370.5,-1256 370.5,-1297"/>
<text text-anchor="start" x="189.5" y="-1285" font-family="Helvetica,sans-Serif" font-size="10.00">DynExpModule::NetworkData</text>
<text text-anchor="start" x="189.5" y="-1274" font-family="Helvetica,sans-Serif" font-size="10.00">StreamInstrumentT&lt; gRPCServices</text>
<text text-anchor="middle" x="276" y="-1263" font-family="Helvetica,sans-Serif" font-size="10.00"> &gt;::CallDataRestart</text>
</a>
</g>
</g>
<!-- Node0&#45;&gt;Node20 -->
<g id="edge494_Node000000_Node000020" class="edge">
<title>Node0&#45;&gt;Node20</title>
<g id="a_edge494_Node000000_Node000020"><a xlink:title=" ">
<path fill="none" stroke="#63b8ff" d="M94.32,-1208.37C113.41,-1221.17 139.28,-1237.04 164,-1247.5 171.25,-1250.57 178.9,-1253.37 186.66,-1255.94"/>
<polygon fill="#63b8ff" stroke="#63b8ff" points="96.29,-1205.48 86.05,-1202.74 92.34,-1211.26 96.29,-1205.48"/>
</a>
</g>
</g>
<!-- Node21 -->
<g id="Node000021" class="node">
<title>Node21</title>
<g id="a_Node000021"><a xlink:href="classDynExpModule_1_1NetworkDataStreamInstrumentT_1_1CallDataSetStreamSize.html" target="_top" xlink:title=" ">
<polygon fill="white" stroke="#666666" points="370.5,-1238 181.5,-1238 181.5,-1197 370.5,-1197 370.5,-1238"/>
<text text-anchor="start" x="189.5" y="-1226" font-family="Helvetica,sans-Serif" font-size="10.00">DynExpModule::NetworkData</text>
<text text-anchor="start" x="189.5" y="-1215" font-family="Helvetica,sans-Serif" font-size="10.00">StreamInstrumentT&lt; gRPCServices</text>
<text text-anchor="middle" x="276" y="-1204" font-family="Helvetica,sans-Serif" font-size="10.00"> &gt;::CallDataSetStreamSize</text>
</a>
</g>
</g>
<!-- Node0&#45;&gt;Node21 -->
<g id="edge495_Node000000_Node000021" class="edge">
<title>Node0&#45;&gt;Node21</title>
<g id="a_edge495_Node000000_Node000021"><a xlink:title=" ">
<path fill="none" stroke="#63b8ff" d="M138.03,-1197.93C152.01,-1199.93 166.84,-1202.05 181.36,-1204.12"/>
<polygon fill="#63b8ff" stroke="#63b8ff" points="138.4,-1194.45 128.01,-1196.5 137.41,-1201.38 138.4,-1194.45"/>
</a>
</g>
</g>
<!-- Node22 -->
<g id="Node000022" class="node">
<title>Node22</title>
<g id="a_Node000022"><a xlink:href="classDynExpModule_1_1NetworkDataStreamInstrumentT_1_1CallDataStart.html" target="_top" xlink:title=" ">
<polygon fill="white" stroke="#666666" points="370.5,-1179 181.5,-1179 181.5,-1138 370.5,-1138 370.5,-1179"/>
<text text-anchor="start" x="189.5" y="-1167" font-family="Helvetica,sans-Serif" font-size="10.00">DynExpModule::NetworkData</text>
<text text-anchor="start" x="189.5" y="-1156" font-family="Helvetica,sans-Serif" font-size="10.00">StreamInstrumentT&lt; gRPCServices</text>
<text text-anchor="middle" x="276" y="-1145" font-family="Helvetica,sans-Serif" font-size="10.00"> &gt;::CallDataStart</text>
</a>
</g>
</g>
<!-- Node0&#45;&gt;Node22 -->
<g id="edge496_Node000000_Node000022" class="edge">
<title>Node0&#45;&gt;Node22</title>
<g id="a_edge496_Node000000_Node000022"><a xlink:title=" ">
<path fill="none" stroke="#63b8ff" d="M138.03,-1177.42C152.01,-1175.48 166.84,-1173.44 181.36,-1171.43"/>
<polygon fill="#63b8ff" stroke="#63b8ff" points="137.43,-1173.96 128.01,-1178.8 138.39,-1180.9 137.43,-1173.96"/>
</a>
</g>
</g>
<!-- Node23 -->
<g id="Node000023" class="node">
<title>Node23</title>
<g id="a_Node000023"><a xlink:href="classDynExpModule_1_1NetworkDataStreamInstrumentT_1_1CallDataStop.html" target="_top" xlink:title=" ">
<polygon fill="white" stroke="#666666" points="370.5,-1120 181.5,-1120 181.5,-1079 370.5,-1079 370.5,-1120"/>
<text text-anchor="start" x="189.5" y="-1108" font-family="Helvetica,sans-Serif" font-size="10.00">DynExpModule::NetworkData</text>
<text text-anchor="start" x="189.5" y="-1097" font-family="Helvetica,sans-Serif" font-size="10.00">StreamInstrumentT&lt; gRPCServices</text>
<text text-anchor="middle" x="276" y="-1086" font-family="Helvetica,sans-Serif" font-size="10.00"> &gt;::CallDataStop</text>
</a>
</g>
</g>
<!-- Node0&#45;&gt;Node23 -->
<g id="edge497_Node000000_Node000023" class="edge">
<title>Node0&#45;&gt;Node23</title>
<g id="a_edge497_Node000000_Node000023"><a xlink:title=" ">
<path fill="none" stroke="#63b8ff" d="M95.45,-1166.8C114.49,-1154.59 139.89,-1139.61 164,-1129.5 172.19,-1126.07 180.89,-1122.92 189.67,-1120.06"/>
<polygon fill="#63b8ff" stroke="#63b8ff" points="93.38,-1163.97 86.92,-1172.36 97.21,-1169.83 93.38,-1163.97"/>
</a>
</g>
</g>
<!-- Node24 -->
<g id="Node000024" class="node">
<title>Node24</title>
<g id="a_Node000024"><a xlink:href="classDynExpModule_1_1NetworkDataStreamInstrumentT_1_1CallDataWrite.html" target="_top" xlink:title=" ">
<polygon fill="white" stroke="#666666" points="370.5,-1061 181.5,-1061 181.5,-1020 370.5,-1020 370.5,-1061"/>
<text text-anchor="start" x="189.5" y="-1049" font-family="Helvetica,sans-Serif" font-size="10.00">DynExpModule::NetworkData</text>
<text text-anchor="start" x="189.5" y="-1038" font-family="Helvetica,sans-Serif" font-size="10.00">StreamInstrumentT&lt; gRPCServices</text>
<text text-anchor="middle" x="276" y="-1027" font-family="Helvetica,sans-Serif" font-size="10.00"> &gt;::CallDataWrite</text>
</a>
</g>
</g>
<!-- Node0&#45;&gt;Node24 -->
<g id="edge498_Node000000_Node000024" class="edge">
<title>Node0&#45;&gt;Node24</title>
<g id="a_edge498_Node000000_Node000024"><a xlink:title=" ">
<path fill="none" stroke="#63b8ff" d="M78.9,-1163.69C95.69,-1137.01 126.44,-1094.38 164,-1070.5 169.56,-1066.97 175.53,-1063.84 181.71,-1061.09"/>
<polygon fill="#63b8ff" stroke="#63b8ff" points="75.8,-1162.05 73.55,-1172.4 81.76,-1165.71 75.8,-1162.05"/>
</a>
</g>
</g>
<!-- Node25 -->
<g id="Node000025" class="node">
<title>Node25</title>
<g id="a_Node000025"><a xlink:href="classDynExpModule_1_1NetworkDigitalInT_1_1CallDataGetAsync.html" target="_top" xlink:title=" ">
<polygon fill="white" stroke="#666666" points="383.5,-1001.5 168.5,-1001.5 168.5,-971.5 383.5,-971.5 383.5,-1001.5"/>
<text text-anchor="start" x="176.5" y="-989.5" font-family="Helvetica,sans-Serif" font-size="10.00">DynExpModule::NetworkDigital</text>
<text text-anchor="middle" x="276" y="-978.5" font-family="Helvetica,sans-Serif" font-size="10.00">InT&lt; gRPCServices &gt;::CallDataGetAsync</text>
</a>
</g>
</g>
<!-- Node0&#45;&gt;Node25 -->
<g id="edge499_Node000000_Node000025" class="edge">
<title>Node0&#45;&gt;Node25</title>
<g id="a_edge499_Node000000_Node000025"><a xlink:title=" ">
<path fill="none" stroke="#63b8ff" d="M71.86,-1162.53C83.84,-1123.87 112.34,-1049.96 164,-1011.5 169.15,-1007.67 174.78,-1004.4 180.69,-1001.63"/>
<polygon fill="#63b8ff" stroke="#63b8ff" points="68.41,-1161.86 68.92,-1172.45 75.12,-1163.86 68.41,-1161.86"/>
</a>
</g>
</g>
<!-- Node26 -->
<g id="Node000026" class="node">
<title>Node26</title>
<g id="a_Node000026"><a xlink:href="classDynExpModule_1_1NetworkDigitalInT_1_1CallDataGetSync.html" target="_top" xlink:title=" ">
<polygon fill="white" stroke="#666666" points="380.5,-953.5 171.5,-953.5 171.5,-923.5 380.5,-923.5 380.5,-953.5"/>
<text text-anchor="start" x="179.5" y="-941.5" font-family="Helvetica,sans-Serif" font-size="10.00">DynExpModule::NetworkDigital</text>
<text text-anchor="middle" x="276" y="-930.5" font-family="Helvetica,sans-Serif" font-size="10.00">InT&lt; gRPCServices &gt;::CallDataGetSync</text>
</a>
</g>
</g>
<!-- Node0&#45;&gt;Node26 -->
<g id="edge500_Node000000_Node000026" class="edge">
<title>Node0&#45;&gt;Node26</title>
<g id="a_edge500_Node000000_Node000026"><a xlink:title=" ">
<path fill="none" stroke="#63b8ff" d="M68.5,-1162.43C76.45,-1115.5 100.36,-1014.45 164,-962.5 168.2,-959.07 172.78,-956.1 177.61,-953.53"/>
<polygon fill="#63b8ff" stroke="#63b8ff" points="65.04,-1161.94 66.93,-1172.36 71.95,-1163.04 65.04,-1161.94"/>
</a>
</g>
</g>
<!-- Node27 -->
<g id="Node000027" class="node">
<title>Node27</title>
<g id="a_Node000027"><a xlink:href="classDynExpModule_1_1NetworkDigitalOutT_1_1CallDataSetAsync.html" target="_top" xlink:title=" ">
<polygon fill="white" stroke="#666666" points="387,-905.5 165,-905.5 165,-875.5 387,-875.5 387,-905.5"/>
<text text-anchor="start" x="173" y="-893.5" font-family="Helvetica,sans-Serif" font-size="10.00">DynExpModule::NetworkDigital</text>
<text text-anchor="middle" x="276" y="-882.5" font-family="Helvetica,sans-Serif" font-size="10.00">OutT&lt; gRPCServices &gt;::CallDataSetAsync</text>
</a>
</g>
</g>
<!-- Node0&#45;&gt;Node27 -->
<g id="edge501_Node000000_Node000027" class="edge">
<title>Node0&#45;&gt;Node27</title>
<g id="a_edge501_Node000000_Node000027"><a xlink:title=" ">
<path fill="none" stroke="#63b8ff" d="M66.34,-1162.2C70.65,-1108 88.69,-980.28 164,-914.5 167.86,-911.13 172.08,-908.19 176.55,-905.64"/>
<polygon fill="#63b8ff" stroke="#63b8ff" points="62.84,-1162.09 65.63,-1172.31 69.82,-1162.58 62.84,-1162.09"/>
</a>
</g>
</g>
<!-- Node28 -->
<g id="Node000028" class="node">
<title>Node28</title>
<g id="a_Node000028"><a xlink:href="classDynExpModule_1_1NetworkDigitalOutT_1_1CallDataSetDefault.html" target="_top" xlink:title=" ">
<polygon fill="white" stroke="#666666" points="372.5,-857 179.5,-857 179.5,-816 372.5,-816 372.5,-857"/>
<text text-anchor="start" x="187.5" y="-845" font-family="Helvetica,sans-Serif" font-size="10.00">DynExpModule::NetworkDigital</text>
<text text-anchor="start" x="187.5" y="-834" font-family="Helvetica,sans-Serif" font-size="10.00">OutT&lt; gRPCServices &gt;::CallDataSet</text>
<text text-anchor="middle" x="276" y="-823" font-family="Helvetica,sans-Serif" font-size="10.00">Default</text>
</a>
</g>
</g>
<!-- Node0&#45;&gt;Node28 -->
<g id="edge502_Node000000_Node000028" class="edge">
<title>Node0&#45;&gt;Node28</title>
<g id="a_edge502_Node000000_Node000028"><a xlink:title=" ">
<path fill="none" stroke="#63b8ff" d="M65.02,-1162.38C66.5,-1102.2 78.88,-948.68 164,-866.5 168.6,-862.06 173.78,-858.27 179.33,-855.02"/>
<polygon fill="#63b8ff" stroke="#63b8ff" points="61.52,-1162.44 64.86,-1172.49 68.52,-1162.55 61.52,-1162.44"/>
</a>
</g>
</g>
<!-- Node29 -->
<g id="Node000029" class="node">
<title>Node29</title>
<g id="a_Node000029"><a xlink:href="classDynExpModule_1_1NetworkDigitalOutT_1_1CallDataSetSync.html" target="_top" xlink:title=" ">
<polygon fill="white" stroke="#666666" points="384,-797.5 168,-797.5 168,-767.5 384,-767.5 384,-797.5"/>
<text text-anchor="start" x="176" y="-785.5" font-family="Helvetica,sans-Serif" font-size="10.00">DynExpModule::NetworkDigital</text>
<text text-anchor="middle" x="276" y="-774.5" font-family="Helvetica,sans-Serif" font-size="10.00">OutT&lt; gRPCServices &gt;::CallDataSetSync</text>
</a>
</g>
</g>
<!-- Node0&#45;&gt;Node29 -->
<g id="edge503_Node000000_Node000029" class="edge">
<title>Node0&#45;&gt;Node29</title>
<g id="a_edge503_Node000000_Node000029"><a xlink:title=" ">
<path fill="none" stroke="#63b8ff" d="M68.15,-1162.21C78.23,-1085.52 112.04,-857.76 164,-807.5 167.98,-803.65 172.41,-800.35 177.15,-797.52"/>
<polygon fill="#63b8ff" stroke="#63b8ff" points="64.65,-1162.02 66.84,-1172.39 71.59,-1162.92 64.65,-1162.02"/>
</a>
</g>
</g>
<!-- Node30 -->
<g id="Node000030" class="node">
<title>Node30</title>
<g id="a_Node000030"><a xlink:href="classDynExpModule_1_1NetworkTimeTaggerT_1_1CallDataClearBuffer.html" target="_top" xlink:title=" ">
<polygon fill="white" stroke="#666666" points="357,-749 195,-749 195,-708 357,-708 357,-749"/>
<text text-anchor="start" x="203" y="-737" font-family="Helvetica,sans-Serif" font-size="10.00">DynExpModule::NetworkTime</text>
<text text-anchor="start" x="203" y="-726" font-family="Helvetica,sans-Serif" font-size="10.00">TaggerT&lt; gRPCServices &gt;</text>
<text text-anchor="middle" x="276" y="-715" font-family="Helvetica,sans-Serif" font-size="10.00">::CallDataClearBuffer</text>
</a>
</g>
</g>
<!-- Node0&#45;&gt;Node30 -->
<g id="edge504_Node000000_Node000030" class="edge">
<title>Node0&#45;&gt;Node30</title>
<g id="a_edge504_Node000000_Node000030"><a xlink:title=" ">
<path fill="none" stroke="#63b8ff" d="M67.43,-1162.4C75.95,-1079.69 107.03,-817.63 164,-758.5 172.52,-749.66 183.35,-743.33 194.89,-738.83"/>
<polygon fill="#63b8ff" stroke="#63b8ff" points="63.95,-1162.12 66.42,-1172.42 70.91,-1162.82 63.95,-1162.12"/>
</a>
</g>
</g>
<!-- Node31 -->
<g id="Node000031" class="node">
<title>Node31</title>
<g id="a_Node000031"><a xlink:href="classDynExpModule_1_1NetworkTimeTaggerT_1_1CallDataConfigureHBT.html" target="_top" xlink:title=" ">
<polygon fill="white" stroke="#666666" points="357,-690 195,-690 195,-649 357,-649 357,-690"/>
<text text-anchor="start" x="203" y="-678" font-family="Helvetica,sans-Serif" font-size="10.00">DynExpModule::NetworkTime</text>
<text text-anchor="start" x="203" y="-667" font-family="Helvetica,sans-Serif" font-size="10.00">TaggerT&lt; gRPCServices &gt;</text>
<text text-anchor="middle" x="276" y="-656" font-family="Helvetica,sans-Serif" font-size="10.00">::CallDataConfigureHBT</text>
</a>
</g>
</g>
<!-- Node0&#45;&gt;Node31 -->
<g id="edge505_Node000000_Node000031" class="edge">
<title>Node0&#45;&gt;Node31</title>
<g id="a_edge505_Node000000_Node000031"><a xlink:title=" ">
<path fill="none" stroke="#63b8ff" d="M66.69,-1162.27C73.21,-1072.19 99.7,-768.04 164,-699.5 172.47,-690.47 183.34,-684.06 194.97,-679.52"/>
<polygon fill="#63b8ff" stroke="#63b8ff" points="63.18,-1162.18 65.97,-1172.4 70.17,-1162.67 63.18,-1162.18"/>
</a>
</g>
</g>
<!-- Node32 -->
<g id="Node000032" class="node">
<title>Node32</title>
<g id="a_Node000032"><a xlink:href="classDynExpModule_1_1NetworkTimeTaggerT_1_1CallDataConfigureInput.html" target="_top" xlink:title=" ">
<polygon fill="white" stroke="#666666" points="357,-631 195,-631 195,-590 357,-590 357,-631"/>
<text text-anchor="start" x="203" y="-619" font-family="Helvetica,sans-Serif" font-size="10.00">DynExpModule::NetworkTime</text>
<text text-anchor="start" x="203" y="-608" font-family="Helvetica,sans-Serif" font-size="10.00">TaggerT&lt; gRPCServices &gt;</text>
<text text-anchor="middle" x="276" y="-597" font-family="Helvetica,sans-Serif" font-size="10.00">::CallDataConfigureInput</text>
</a>
</g>
</g>
<!-- Node0&#45;&gt;Node32 -->
<g id="edge506_Node000000_Node000032" class="edge">
<title>Node0&#45;&gt;Node32</title>
<g id="a_edge506_Node000000_Node000032"><a xlink:title=" ">
<path fill="none" stroke="#63b8ff" d="M66.08,-1162.44C70.73,-1065.77 92.26,-718.61 164,-640.5 172.37,-631.38 183.2,-624.93 194.8,-620.37"/>
<polygon fill="#63b8ff" stroke="#63b8ff" points="62.58,-1162.32 65.61,-1172.47 69.57,-1162.64 62.58,-1162.32"/>
</a>
</g>
</g>
<!-- Node33 -->
<g id="Node000033" class="node">
<title>Node33</title>
<g id="a_Node000033"><a xlink:href="classDynExpModule_1_1NetworkTimeTaggerT_1_1CallDataGetBufferInfo.html" target="_top" xlink:title=" ">
<polygon fill="white" stroke="#666666" points="357,-572 195,-572 195,-531 357,-531 357,-572"/>
<text text-anchor="start" x="203" y="-560" font-family="Helvetica,sans-Serif" font-size="10.00">DynExpModule::NetworkTime</text>
<text text-anchor="start" x="203" y="-549" font-family="Helvetica,sans-Serif" font-size="10.00">TaggerT&lt; gRPCServices &gt;</text>
<text text-anchor="middle" x="276" y="-538" font-family="Helvetica,sans-Serif" font-size="10.00">::CallDataGetBufferInfo</text>
</a>
</g>
</g>
<!-- Node0&#45;&gt;Node33 -->
<g id="edge507_Node000000_Node000033" class="edge">
<title>Node0&#45;&gt;Node33</title>
<g id="a_edge507_Node000000_Node000033"><a xlink:title=" ">
<path fill="none" stroke="#63b8ff" d="M65.6,-1162.13C68.57,-1058.55 84.91,-669.1 164,-581.5 172.36,-572.24 183.26,-565.71 194.95,-561.14"/>
<polygon fill="#63b8ff" stroke="#63b8ff" points="62.1,-1162.19 65.33,-1172.28 69.1,-1162.38 62.1,-1162.19"/>
</a>
</g>
</g>
<!-- Node34 -->
<g id="Node000034" class="node">
<title>Node34</title>
<g id="a_Node000034"><a xlink:href="classDynExpModule_1_1NetworkTimeTaggerT_1_1CallDataGetHBTResults.html" target="_top" xlink:title=" ">
<polygon fill="white" stroke="#666666" points="357,-513 195,-513 195,-472 357,-472 357,-513"/>
<text text-anchor="start" x="203" y="-501" font-family="Helvetica,sans-Serif" font-size="10.00">DynExpModule::NetworkTime</text>
<text text-anchor="start" x="203" y="-490" font-family="Helvetica,sans-Serif" font-size="10.00">TaggerT&lt; gRPCServices &gt;</text>
<text text-anchor="middle" x="276" y="-479" font-family="Helvetica,sans-Serif" font-size="10.00">::CallDataGetHBTResults</text>
</a>
</g>
</g>
<!-- Node0&#45;&gt;Node34 -->
<g id="edge508_Node000000_Node000034" class="edge">
<title>Node0&#45;&gt;Node34</title>
<g id="a_edge508_Node000000_Node000034"><a xlink:title=" ">
<path fill="none" stroke="#63b8ff" d="M65.2,-1162.18C66.56,-1052.51 77.44,-619.75 164,-522.5 172.3,-513.18 183.16,-506.62 194.84,-502.04"/>
<polygon fill="#63b8ff" stroke="#63b8ff" points="61.69,-1162.27 65.09,-1172.3 68.69,-1162.34 61.69,-1162.27"/>
</a>
</g>
</g>
<!-- Node35 -->
<g id="Node000035" class="node">
<title>Node35</title>
<g id="a_Node000035"><a xlink:href="classDynExpModule_1_1NetworkTimeTaggerT_1_1CallDataGetHardwareInfo.html" target="_top" xlink:title=" ">
<polygon fill="white" stroke="#666666" points="357,-454 195,-454 195,-413 357,-413 357,-454"/>
<text text-anchor="start" x="203" y="-442" font-family="Helvetica,sans-Serif" font-size="10.00">DynExpModule::NetworkTime</text>
<text text-anchor="start" x="203" y="-431" font-family="Helvetica,sans-Serif" font-size="10.00">TaggerT&lt; gRPCServices &gt;</text>
<text text-anchor="middle" x="276" y="-420" font-family="Helvetica,sans-Serif" font-size="10.00">::CallDataGetHardwareInfo</text>
</a>
</g>
</g>
<!-- Node0&#45;&gt;Node35 -->
<g id="edge509_Node000000_Node000035" class="edge">
<title>Node0&#45;&gt;Node35</title>
<g id="a_edge509_Node000000_Node000035"><a xlink:title=" ">
<path fill="none" stroke="#63b8ff" d="M64.86,-1162.18C64.72,-1046.64 69.95,-570.44 164,-463.5 172.24,-454.13 183.07,-447.55 194.74,-442.95"/>
<polygon fill="#63b8ff" stroke="#63b8ff" points="61.36,-1162.22 64.88,-1172.21 68.36,-1162.2 61.36,-1162.22"/>
</a>
</g>
</g>
<!-- Node36 -->
<g id="Node000036" class="node">
<title>Node36</title>
<g id="a_Node000036"><a xlink:href="classDynExpModule_1_1NetworkTimeTaggerT_1_1CallDataGetStreamMode.html" target="_top" xlink:title=" ">
<polygon fill="white" stroke="#666666" points="357,-395 195,-395 195,-354 357,-354 357,-395"/>
<text text-anchor="start" x="203" y="-383" font-family="Helvetica,sans-Serif" font-size="10.00">DynExpModule::NetworkTime</text>
<text text-anchor="start" x="203" y="-372" font-family="Helvetica,sans-Serif" font-size="10.00">TaggerT&lt; gRPCServices &gt;</text>
<text text-anchor="middle" x="276" y="-361" font-family="Helvetica,sans-Serif" font-size="10.00">::CallDataGetStreamMode</text>
</a>
</g>
</g>
<!-- Node0&#45;&gt;Node36 -->
<g id="edge510_Node000000_Node000036" class="edge">
<title>Node0&#45;&gt;Node36</title>
<g id="a_edge510_Node000000_Node000036"><a xlink:title=" ">
<path fill="none" stroke="#63b8ff" d="M64.57,-1162.1C63.01,-1040.74 62.47,-521.13 164,-404.5 172.26,-395.01 183.17,-388.38 194.94,-383.77"/>
<polygon fill="#63b8ff" stroke="#63b8ff" points="61.07,-1162.32 64.71,-1172.27 68.07,-1162.22 61.07,-1162.32"/>
</a>
</g>
</g>
<!-- Node37 -->
<g id="Node000037" class="node">
<title>Node37</title>
<g id="a_Node000037"><a xlink:href="classDynExpModule_1_1NetworkTimeTaggerT_1_1CallDataResetHBT.html" target="_top" xlink:title=" ">
<polygon fill="white" stroke="#666666" points="357,-336 195,-336 195,-295 357,-295 357,-336"/>
<text text-anchor="start" x="203" y="-324" font-family="Helvetica,sans-Serif" font-size="10.00">DynExpModule::NetworkTime</text>
<text text-anchor="start" x="203" y="-313" font-family="Helvetica,sans-Serif" font-size="10.00">TaggerT&lt; gRPCServices &gt;</text>
<text text-anchor="middle" x="276" y="-302" font-family="Helvetica,sans-Serif" font-size="10.00">::CallDataResetHBT</text>
</a>
</g>
</g>
<!-- Node0&#45;&gt;Node37 -->
<g id="edge511_Node000000_Node000037" class="edge">
<title>Node0&#45;&gt;Node37</title>
<g id="a_edge511_Node000000_Node000037"><a xlink:title=" ">
<path fill="none" stroke="#63b8ff" d="M66.3,-1162.35C73.38,-1029.08 109.11,-409.11 164,-345.5 172.22,-335.98 183.11,-329.33 194.87,-324.71"/>
<polygon fill="#63b8ff" stroke="#63b8ff" points="62.8,-1162.24 65.77,-1172.41 69.79,-1162.61 62.8,-1162.24"/>
</a>
</g>
</g>
<!-- Node38 -->
<g id="Node000038" class="node">
<title>Node38</title>
<g id="a_Node000038"><a xlink:href="classDynExpModule_1_1NetworkTimeTaggerT_1_1CallDataSetCoincidenceWindow.html" target="_top" xlink:title=" ">
<polygon fill="white" stroke="#666666" points="365.5,-277 186.5,-277 186.5,-236 365.5,-236 365.5,-277"/>
<text text-anchor="start" x="194.5" y="-265" font-family="Helvetica,sans-Serif" font-size="10.00">DynExpModule::NetworkTime</text>
<text text-anchor="start" x="194.5" y="-254" font-family="Helvetica,sans-Serif" font-size="10.00">TaggerT&lt; gRPCServices &gt;</text>
<text text-anchor="middle" x="276" y="-243" font-family="Helvetica,sans-Serif" font-size="10.00">::CallDataSetCoincidenceWindow</text>
</a>
</g>
</g>
<!-- Node0&#45;&gt;Node38 -->
<g id="edge512_Node000000_Node000038" class="edge">
<title>Node0&#45;&gt;Node38</title>
<g id="a_edge512_Node000000_Node000038"><a xlink:title=" ">
<path fill="none" stroke="#63b8ff" d="M66.09,-1162.36C72.34,-1023.6 105.33,-355.02 164,-286.5 170.17,-279.3 177.87,-273.74 186.32,-269.45"/>
<polygon fill="#63b8ff" stroke="#63b8ff" points="62.59,-1162.3 65.64,-1172.45 69.58,-1162.61 62.59,-1162.3"/>
</a>
</g>
</g>
<!-- Node39 -->
<g id="Node000039" class="node">
<title>Node39</title>
<g id="a_Node000039"><a xlink:href="classDynExpModule_1_1NetworkTimeTaggerT_1_1CallDataSetExposureTime.html" target="_top" xlink:title=" ">
<polygon fill="white" stroke="#666666" points="357,-218 195,-218 195,-177 357,-177 357,-218"/>
<text text-anchor="start" x="203" y="-206" font-family="Helvetica,sans-Serif" font-size="10.00">DynExpModule::NetworkTime</text>
<text text-anchor="start" x="203" y="-195" font-family="Helvetica,sans-Serif" font-size="10.00">TaggerT&lt; gRPCServices &gt;</text>
<text text-anchor="middle" x="276" y="-184" font-family="Helvetica,sans-Serif" font-size="10.00">::CallDataSetExposureTime</text>
</a>
</g>
</g>
<!-- Node0&#45;&gt;Node39 -->
<g id="edge513_Node000000_Node000039" class="edge">
<title>Node0&#45;&gt;Node39</title>
<g id="a_edge513_Node000000_Node000039"><a xlink:title=" ">
<path fill="none" stroke="#63b8ff" d="M65.92,-1162.09C71.41,-1017.36 101.58,-300.89 164,-227.5 172.15,-217.92 183.01,-211.24 194.75,-206.61"/>
<polygon fill="#63b8ff" stroke="#63b8ff" points="62.42,-1162.09 65.55,-1172.22 69.42,-1162.35 62.42,-1162.09"/>
</a>
</g>
</g>
<!-- Node40 -->
<g id="Node000040" class="node">
<title>Node40</title>
<g id="a_Node000040"><a xlink:href="classDynExpModule_1_1NetworkTimeTaggerT_1_1CallDataSetHBTActive.html" target="_top" xlink:title=" ">
<polygon fill="white" stroke="#666666" points="357,-159 195,-159 195,-118 357,-118 357,-159"/>
<text text-anchor="start" x="203" y="-147" font-family="Helvetica,sans-Serif" font-size="10.00">DynExpModule::NetworkTime</text>
<text text-anchor="start" x="203" y="-136" font-family="Helvetica,sans-Serif" font-size="10.00">TaggerT&lt; gRPCServices &gt;</text>
<text text-anchor="middle" x="276" y="-125" font-family="Helvetica,sans-Serif" font-size="10.00">::CallDataSetHBTActive</text>
</a>
</g>
</g>
<!-- Node0&#45;&gt;Node40 -->
<g id="edge514_Node000000_Node000040" class="edge">
<title>Node0&#45;&gt;Node40</title>
<g id="a_edge514_Node000000_Node000040"><a xlink:title=" ">
<path fill="none" stroke="#63b8ff" d="M65.75,-1162.43C70.46,-1013.31 97.74,-246.88 164,-168.5 172.18,-158.82 183.14,-152.1 194.98,-147.46"/>
<polygon fill="#63b8ff" stroke="#63b8ff" points="62.25,-1162.34 65.44,-1172.44 69.25,-1162.56 62.25,-1162.34"/>
</a>
</g>
</g>
<!-- Node41 -->
<g id="Node000041" class="node">
<title>Node41</title>
<g id="a_Node000041"><a xlink:href="classDynExpModule_1_1NetworkTimeTaggerT_1_1CallDataSetInputDelay.html" target="_top" xlink:title=" ">
<polygon fill="white" stroke="#666666" points="357,-100 195,-100 195,-59 357,-59 357,-100"/>
<text text-anchor="start" x="203" y="-88" font-family="Helvetica,sans-Serif" font-size="10.00">DynExpModule::NetworkTime</text>
<text text-anchor="start" x="203" y="-77" font-family="Helvetica,sans-Serif" font-size="10.00">TaggerT&lt; gRPCServices &gt;</text>
<text text-anchor="middle" x="276" y="-66" font-family="Helvetica,sans-Serif" font-size="10.00">::CallDataSetInputDelay</text>
</a>
</g>
</g>
<!-- Node0&#45;&gt;Node41 -->
<g id="edge515_Node000000_Node000041" class="edge">
<title>Node0&#45;&gt;Node41</title>
<g id="a_edge515_Node000000_Node000041"><a xlink:title=" ">
<path fill="none" stroke="#63b8ff" d="M65.63,-1161.97C69.65,-1006.67 94.01,-192.73 164,-109.5 172.16,-99.8 183.1,-93.06 194.94,-88.42"/>
<polygon fill="#63b8ff" stroke="#63b8ff" points="62.12,-1162.29 65.36,-1172.37 69.11,-1162.46 62.12,-1162.29"/>
</a>
</g>
</g>
<!-- Node42 -->
<g id="Node000042" class="node">
<title>Node42</title>
<g id="a_Node000042"><a xlink:href="classDynExpModule_1_1NetworkTimeTaggerT_1_1CallDataSetStreamMode.html" target="_top" xlink:title=" ">
<polygon fill="white" stroke="#666666" points="357,-41 195,-41 195,0 357,0 357,-41"/>
<text text-anchor="start" x="203" y="-29" font-family="Helvetica,sans-Serif" font-size="10.00">DynExpModule::NetworkTime</text>
<text text-anchor="start" x="203" y="-18" font-family="Helvetica,sans-Serif" font-size="10.00">TaggerT&lt; gRPCServices &gt;</text>
<text text-anchor="middle" x="276" y="-7" font-family="Helvetica,sans-Serif" font-size="10.00">::CallDataSetStreamMode</text>
</a>
</g>
</g>
<!-- Node0&#45;&gt;Node42 -->
<g id="edge516_Node000000_Node000042" class="edge">
<title>Node0&#45;&gt;Node42</title>
<g id="a_edge516_Node000000_Node000042"><a xlink:title=" ">
<path fill="none" stroke="#63b8ff" d="M65.49,-1162.09C68.83,-1002.15 90.19,-138.7 164,-50.5 172.14,-40.78 183.06,-34.03 194.9,-29.39"/>
<polygon fill="#63b8ff" stroke="#63b8ff" points="61.99,-1162.3 65.29,-1172.37 68.99,-1162.44 61.99,-1162.3"/>
</a>
</g>
</g>
</g>
</svg>
