<?xml version="1.0" encoding="UTF-8" standalone="no"?>
<!DOCTYPE svg PUBLIC "-//W3C//DTD SVG 1.1//EN"
 "http://www.w3.org/Graphics/SVG/1.1/DTD/svg11.dtd">
<!-- Generated by graphviz version 2.43.0 (0)
 -->
<!-- Title: Graphical Class Hierarchy Pages: 1 -->
<svg width="714pt" height="288pt"
 viewBox="0.00 0.00 714.00 287.50" xmlns="http://www.w3.org/2000/svg" xmlns:xlink="http://www.w3.org/1999/xlink">
<g id="graph0" class="graph" transform="scale(1 1) rotate(0) translate(4 283.5)">
<title>Graphical Class Hierarchy</title>
<!-- Node0 -->
<g id="Node000000" class="node">
<title>Node0</title>
<g id="a_Node000000"><a xlink:title=" ">
<polygon fill="#e0e0e0" stroke="#999999" points="62,-80 0,-80 0,-61 62,-61 62,-80"/>
<text text-anchor="middle" x="31" y="-68" font-family="Helvetica,sans-Serif" font-size="10.00">BaseInstr</text>
</a>
</g>
</g>
<!-- Node1 -->
<g id="Node000001" class="node">
<title>Node1</title>
<g id="a_Node000001"><a xlink:href="classDynExpInstr_1_1gRPCInstrument.html" target="_top" xlink:title=" ">
<polygon fill="white" stroke="#666666" points="262,-120.5 98,-120.5 98,-90.5 262,-90.5 262,-120.5"/>
<text text-anchor="start" x="106" y="-108.5" font-family="Helvetica,sans-Serif" font-size="10.00">DynExpInstr::gRPCInstrument</text>
<text text-anchor="middle" x="180" y="-97.5" font-family="Helvetica,sans-Serif" font-size="10.00">&lt; BaseInstr, 0, gRPCStubs... &gt;</text>
</a>
</g>
</g>
<!-- Node0&#45;&gt;Node1 -->
<g id="edge1_Node000000_Node000001" class="edge">
<title>Node0&#45;&gt;Node1</title>
<g id="a_edge1_Node000000_Node000001"><a xlink:title=" ">
<path fill="none" stroke="#63b8ff" d="M72.03,-80.03C85.56,-83.25 101,-86.93 115.87,-90.47"/>
<polygon fill="#63b8ff" stroke="#63b8ff" points="72.64,-76.58 62.1,-77.67 71.02,-83.39 72.64,-76.58"/>
</a>
</g>
</g>
<!-- Node9 -->
<g id="Node000009" class="node">
<title>Node9</title>
<g id="a_Node000009"><a xlink:href="classDynExpInstr_1_1gRPCInstrument.html" target="_top" xlink:title="Meta instrument template for transforming meta instruments into network instruments,...">
<polygon fill="white" stroke="#666666" points="260.5,-61.5 99.5,-61.5 99.5,-31.5 260.5,-31.5 260.5,-61.5"/>
<text text-anchor="start" x="107.5" y="-49.5" font-family="Helvetica,sans-Serif" font-size="10.00">DynExpInstr::gRPCInstrument</text>
<text text-anchor="middle" x="180" y="-38.5" font-family="Helvetica,sans-Serif" font-size="10.00">&lt; BaseInstr,, gRPCStubs &gt;</text>
</a>
</g>
</g>
<!-- Node0&#45;&gt;Node9 -->
<g id="edge9_Node000000_Node000009" class="edge">
<title>Node0&#45;&gt;Node9</title>
<g id="a_edge9_Node000000_Node000009"><a xlink:title=" ">
<path fill="none" stroke="#63b8ff" d="M72.11,-63.95C80.66,-62.56 89.97,-61.03 99.42,-59.49"/>
<polygon fill="#63b8ff" stroke="#63b8ff" points="71.41,-60.52 62.1,-65.59 72.54,-67.43 71.41,-60.52"/>
</a>
</g>
</g>
<!-- Node2 -->
<g id="Node000002" class="node">
<title>Node2</title>
<g id="a_Node000002"><a xlink:href="classDynExpInstr_1_1NetworkDataStreamInstrumentT.html" target="_top" xlink:title=" ">
<polygon fill="white" stroke="#666666" points="477,-187 306,-187 306,-146 477,-146 477,-187"/>
<text text-anchor="start" x="314" y="-175" font-family="Helvetica,sans-Serif" font-size="10.00">DynExpInstr::NetworkData</text>
<text text-anchor="start" x="314" y="-164" font-family="Helvetica,sans-Serif" font-size="10.00">StreamInstrumentT&lt; BaseInstr,</text>
<text text-anchor="middle" x="391.5" y="-153" font-family="Helvetica,sans-Serif" font-size="10.00"> 0, gRPCStubs... &gt;</text>
</a>
</g>
</g>
<!-- Node1&#45;&gt;Node2 -->
<g id="edge2_Node000001_Node000002" class="edge">
<title>Node1&#45;&gt;Node2</title>
<g id="a_edge2_Node000001_Node000002"><a xlink:title=" ">
<path fill="none" stroke="#63b8ff" d="M242.32,-123.35C266.6,-130.42 294.65,-138.59 319.78,-145.91"/>
<polygon fill="#63b8ff" stroke="#63b8ff" points="243.1,-119.94 232.52,-120.5 241.14,-126.66 243.1,-119.94"/>
</a>
</g>
</g>
<!-- Node8 -->
<g id="Node000008" class="node">
<title>Node8</title>
<g id="a_Node000008"><a xlink:href="classDynExpInstr_1_1NetworkDataStreamInstrumentT.html" target="_top" xlink:title="Data stream instrument for bidirectional gRPC communication.">
<polygon fill="white" stroke="#666666" points="477,-126 306,-126 306,-85 477,-85 477,-126"/>
<text text-anchor="start" x="314" y="-114" font-family="Helvetica,sans-Serif" font-size="10.00">DynExpInstr::NetworkData</text>
<text text-anchor="start" x="314" y="-103" font-family="Helvetica,sans-Serif" font-size="10.00">StreamInstrumentT&lt; BaseInstr,</text>
<text text-anchor="middle" x="391.5" y="-92" font-family="Helvetica,sans-Serif" font-size="10.00">, gRPCStubs &gt;</text>
</a>
</g>
</g>
<!-- Node1&#45;&gt;Node8 -->
<g id="edge8_Node000001_Node000008" class="edge">
<title>Node1&#45;&gt;Node8</title>
<g id="a_edge8_Node000001_Node000008"><a xlink:title=" ">
<path fill="none" stroke="#63b8ff" d="M272.41,-105.5C283.5,-105.5 294.8,-105.5 305.79,-105.5"/>
<polygon fill="#63b8ff" stroke="#63b8ff" points="272.3,-102 262.3,-105.5 272.3,-109 272.3,-102"/>
</a>
</g>
</g>
<!-- Node3 -->
<g id="Node000003" class="node">
<title>Node3</title>
<g id="a_Node000003"><a xlink:href="classDynExpInstr_1_1NetworkAnalogInT.html" target="_top" xlink:title=" ">
<polygon fill="white" stroke="#666666" points="694,-279.5 533,-279.5 533,-249.5 694,-249.5 694,-279.5"/>
<text text-anchor="start" x="541" y="-267.5" font-family="Helvetica,sans-Serif" font-size="10.00">DynExpInstr::NetworkAnalog</text>
<text text-anchor="middle" x="613.5" y="-256.5" font-family="Helvetica,sans-Serif" font-size="10.00">InT&lt; BaseInstr,, gRPCStubs &gt;</text>
</a>
</g>
</g>
<!-- Node2&#45;&gt;Node3 -->
<g id="edge3_Node000002_Node000003" class="edge">
<title>Node2&#45;&gt;Node3</title>
<g id="a_edge3_Node000002_Node000003"><a xlink:title=" ">
<path fill="none" stroke="#63b8ff" d="M431.47,-192.59C456.25,-208.25 489.5,-227.57 521,-240.5 529.05,-243.81 537.69,-246.77 546.33,-249.4"/>
<polygon fill="#63b8ff" stroke="#63b8ff" points="433.05,-189.45 422.74,-187.01 429.28,-195.35 433.05,-189.45"/>
</a>
</g>
</g>
<!-- Node4 -->
<g id="Node000004" class="node">
<title>Node4</title>
<g id="a_Node000004"><a xlink:href="classDynExpInstr_1_1NetworkAnalogOutT.html" target="_top" xlink:title=" ">
<polygon fill="white" stroke="#666666" points="698.5,-231.5 528.5,-231.5 528.5,-201.5 698.5,-201.5 698.5,-231.5"/>
<text text-anchor="start" x="536.5" y="-219.5" font-family="Helvetica,sans-Serif" font-size="10.00">DynExpInstr::NetworkAnalog</text>
<text text-anchor="middle" x="613.5" y="-208.5" font-family="Helvetica,sans-Serif" font-size="10.00">OutT&lt; BaseInstr,, gRPCStubs &gt;</text>
</a>
</g>
</g>
<!-- Node2&#45;&gt;Node4 -->
<g id="edge4_Node000002_Node000004" class="edge">
<title>Node2&#45;&gt;Node4</title>
<g id="a_edge4_Node000002_Node000004"><a xlink:title=" ">
<path fill="none" stroke="#63b8ff" d="M487.25,-188.03C507.12,-192.55 527.68,-197.22 546.24,-201.44"/>
<polygon fill="#63b8ff" stroke="#63b8ff" points="487.77,-184.56 477.24,-185.76 486.22,-191.39 487.77,-184.56"/>
</a>
</g>
</g>
<!-- Node5 -->
<g id="Node000005" class="node">
<title>Node5</title>
<g id="a_Node000005"><a xlink:href="classDynExpInstr_1_1NetworkDigitalInT.html" target="_top" xlink:title=" ">
<polygon fill="white" stroke="#666666" points="694,-183.5 533,-183.5 533,-153.5 694,-153.5 694,-183.5"/>
<text text-anchor="start" x="541" y="-171.5" font-family="Helvetica,sans-Serif" font-size="10.00">DynExpInstr::NetworkDigital</text>
<text text-anchor="middle" x="613.5" y="-160.5" font-family="Helvetica,sans-Serif" font-size="10.00">InT&lt; BaseInstr,, gRPCStubs &gt;</text>
</a>
</g>
</g>
<!-- Node2&#45;&gt;Node5 -->
<g id="edge5_Node000002_Node000005" class="edge">
<title>Node2&#45;&gt;Node5</title>
<g id="a_edge5_Node000002_Node000005"><a xlink:title=" ">
<path fill="none" stroke="#63b8ff" d="M487.61,-167.36C502.7,-167.5 518.17,-167.64 532.86,-167.78"/>
<polygon fill="#63b8ff" stroke="#63b8ff" points="487.27,-163.86 477.24,-167.27 487.21,-170.86 487.27,-163.86"/>
</a>
</g>
</g>
<!-- Node6 -->
<g id="Node000006" class="node">
<title>Node6</title>
<g id="a_Node000006"><a xlink:href="classDynExpInstr_1_1NetworkDigitalOutT.html" target="_top" xlink:title=" ">
<polygon fill="white" stroke="#666666" points="698.5,-135.5 528.5,-135.5 528.5,-105.5 698.5,-105.5 698.5,-135.5"/>
<text text-anchor="start" x="536.5" y="-123.5" font-family="Helvetica,sans-Serif" font-size="10.00">DynExpInstr::NetworkDigital</text>
<text text-anchor="middle" x="613.5" y="-112.5" font-family="Helvetica,sans-Serif" font-size="10.00">OutT&lt; BaseInstr,, gRPCStubs &gt;</text>
</a>
</g>
</g>
<!-- Node2&#45;&gt;Node6 -->
<g id="edge6_Node000002_Node000006" class="edge">
<title>Node2&#45;&gt;Node6</title>
<g id="a_edge6_Node000002_Node000006"><a xlink:title=" ">
<path fill="none" stroke="#63b8ff" d="M487.14,-146.71C505.08,-142.96 523.58,-139.09 540.67,-135.52"/>
<polygon fill="#63b8ff" stroke="#63b8ff" points="486.32,-143.31 477.24,-148.78 487.75,-150.16 486.32,-143.31"/>
</a>
</g>
</g>
<!-- Node7 -->
<g id="Node000007" class="node">
<title>Node7</title>
<g id="a_Node000007"><a xlink:href="classDynExpInstr_1_1NetworkTimeTaggerT.html" target="_top" xlink:title=" ">
<polygon fill="white" stroke="#666666" points="706,-87.5 521,-87.5 521,-57.5 706,-57.5 706,-87.5"/>
<text text-anchor="start" x="529" y="-75.5" font-family="Helvetica,sans-Serif" font-size="10.00">DynExpInstr::NetworkTime</text>
<text text-anchor="middle" x="613.5" y="-64.5" font-family="Helvetica,sans-Serif" font-size="10.00">TaggerT&lt; BaseInstr,, gRPCStubs &gt;</text>
</a>
</g>
</g>
<!-- Node2&#45;&gt;Node7 -->
<g id="edge7_Node000002_Node000007" class="edge">
<title>Node2&#45;&gt;Node7</title>
<g id="a_edge7_Node000002_Node000007"><a xlink:title=" ">
<path fill="none" stroke="#63b8ff" d="M475.08,-141.3C478.51,-139.48 481.83,-137.55 485,-135.5 504.8,-122.68 500.78,-108.65 521,-96.5 526.77,-93.03 533.04,-90.06 539.5,-87.51"/>
<polygon fill="#63b8ff" stroke="#63b8ff" points="473.27,-138.29 465.83,-145.83 476.35,-144.58 473.27,-138.29"/>
</a>
</g>
</g>
<!-- Node10 -->
<g id="Node000010" class="node">
<title>Node10</title>
<g id="a_Node000010"><a xlink:href="classDynExpInstr_1_1NetworkDataStreamInstrumentT.html" target="_top" xlink:title=" ">
<polygon fill="white" stroke="#666666" points="485,-63 298,-63 298,0 485,0 485,-63"/>
<text text-anchor="start" x="306" y="-51" font-family="Helvetica,sans-Serif" font-size="10.00">DynExpInstr::NetworkData</text>
<text text-anchor="start" x="306" y="-40" font-family="Helvetica,sans-Serif" font-size="10.00">StreamInstrumentT&lt; DataStream</text>
<text text-anchor="start" x="306" y="-29" font-family="Helvetica,sans-Serif" font-size="10.00">Instrument, 0, DynExpProto</text>
<text text-anchor="start" x="306" y="-18" font-family="Helvetica,sans-Serif" font-size="10.00">::NetworkDataStreamInstrument</text>
<text text-anchor="middle" x="391.5" y="-7" font-family="Helvetica,sans-Serif" font-size="10.00">::NetworkDataStreamInstrument &gt;</text>
</a>
</g>
</g>
<!-- Node9&#45;&gt;Node10 -->
<g id="edge10_Node000009_Node000010" class="edge">
<title>Node9&#45;&gt;Node10</title>
<g id="a_edge10_Node000009_Node000010"><a xlink:title=" ">
<path fill="none" stroke="#63b8ff" d="M270.57,-40.09C279.55,-39.44 288.69,-38.79 297.7,-38.14"/>
<polygon fill="#63b8ff" stroke="#63b8ff" points="270.23,-36.6 260.5,-40.81 270.73,-43.58 270.23,-36.6"/>
</a>
</g>
</g>
<!-- Node11 -->
<g id="Node000011" class="node">
<title>Node11</title>
<g id="a_Node000011"><a xlink:href="classDynExpInstr_1_1NetworkDataStreamInstrument.html" target="_top" xlink:title="Explicit instantiation of derivable class NetworkDataStreamInstrumentT to create the network data str...">
<polygon fill="white" stroke="#666666" points="686.5,-39.5 540.5,-39.5 540.5,-9.5 686.5,-9.5 686.5,-39.5"/>
<text text-anchor="start" x="548.5" y="-27.5" font-family="Helvetica,sans-Serif" font-size="10.00">DynExpInstr::NetworkData</text>
<text text-anchor="middle" x="613.5" y="-16.5" font-family="Helvetica,sans-Serif" font-size="10.00">StreamInstrument</text>
</a>
</g>
</g>
<!-- Node10&#45;&gt;Node11 -->
<g id="edge11_Node000010_Node000011" class="edge">
<title>Node10&#45;&gt;Node11</title>
<g id="a_edge11_Node000010_Node000011"><a xlink:title=" ">
<path fill="none" stroke="#63b8ff" d="M495.59,-28.22C510.71,-27.74 526.01,-27.25 540.33,-26.8"/>
<polygon fill="#63b8ff" stroke="#63b8ff" points="495.05,-24.74 485.16,-28.55 495.27,-31.73 495.05,-24.74"/>
</a>
</g>
</g>
</g>
</svg>
