<?xml version="1.0" encoding="UTF-8" standalone="no"?>
<!DOCTYPE svg PUBLIC "-//W3C//DTD SVG 1.1//EN"
 "http://www.w3.org/Graphics/SVG/1.1/DTD/svg11.dtd">
<!-- Generated by graphviz version 2.43.0 (0)
 -->
<!-- Title: Graphical Class Hierarchy Pages: 1 -->
<svg width="851pt" height="305pt"
 viewBox="0.00 0.00 851.00 304.50" xmlns="http://www.w3.org/2000/svg" xmlns:xlink="http://www.w3.org/1999/xlink">
<g id="graph0" class="graph" transform="scale(1 1) rotate(0) translate(4 300.5)">
<title>Graphical Class Hierarchy</title>
<!-- Node0 -->
<g id="Node000000" class="node">
<title>Node0</title>
<g id="a_Node000000"><a xlink:title=" ">
<polygon fill="#e0e0e0" stroke="#999999" points="131,-210 0,-210 0,-191 131,-191 131,-210"/>
<text text-anchor="middle" x="65.5" y="-198" font-family="Helvetica,sans-Serif" font-size="10.00">BaseInstr::ExitTaskType</text>
</a>
</g>
</g>
<!-- Node1 -->
<g id="Node000001" class="node">
<title>Node1</title>
<g id="a_Node000001"><a xlink:href="classDynExpInstr_1_1gRPCInstrumentTasks_1_1ExitTask.html" target="_top" xlink:title=" ">
<polygon fill="white" stroke="#666666" points="395,-296.5 187,-296.5 187,-244.5 395,-244.5 395,-296.5"/>
<text text-anchor="start" x="195" y="-284.5" font-family="Helvetica,sans-Serif" font-size="10.00">DynExpInstr::gRPCInstrument</text>
<text text-anchor="start" x="195" y="-273.5" font-family="Helvetica,sans-Serif" font-size="10.00">Tasks::ExitTask&lt; Spectrometer,</text>
<text text-anchor="start" x="195" y="-262.5" font-family="Helvetica,sans-Serif" font-size="10.00"> 0, DynExpProto::NetworkSpectrometer</text>
<text text-anchor="middle" x="291" y="-251.5" font-family="Helvetica,sans-Serif" font-size="10.00">::NetworkSpectrometer &gt;</text>
</a>
</g>
</g>
<!-- Node0&#45;&gt;Node1 -->
<g id="edge25_Node000000_Node000001" class="edge">
<title>Node0&#45;&gt;Node1</title>
<g id="a_edge25_Node000000_Node000001"><a xlink:title=" ">
<path fill="none" stroke="#63b8ff" d="M102.32,-213.54C121.43,-220.35 145.4,-228.67 167,-235.5 176.42,-238.48 186.28,-241.48 196.15,-244.4"/>
<polygon fill="#63b8ff" stroke="#63b8ff" points="103.41,-210.21 92.81,-210.13 101.04,-216.8 103.41,-210.21"/>
</a>
</g>
</g>
<!-- Node3 -->
<g id="Node000003" class="node">
<title>Node3</title>
<g id="a_Node000003"><a xlink:href="classDynExpInstr_1_1gRPCInstrumentTasks_1_1ExitTask.html" target="_top" xlink:title=" ">
<polygon fill="white" stroke="#666666" points="415,-226.5 167,-226.5 167,-174.5 415,-174.5 415,-226.5"/>
<text text-anchor="start" x="175" y="-214.5" font-family="Helvetica,sans-Serif" font-size="10.00">DynExpInstr::gRPCInstrument</text>
<text text-anchor="start" x="175" y="-203.5" font-family="Helvetica,sans-Serif" font-size="10.00">Tasks::ExitTask&lt; DynExp</text>
<text text-anchor="start" x="175" y="-192.5" font-family="Helvetica,sans-Serif" font-size="10.00">::InstrumentBase, 0, DynExpProto</text>
<text text-anchor="middle" x="291" y="-181.5" font-family="Helvetica,sans-Serif" font-size="10.00">::WidefieldLocalization::WidefieldLocalization &gt;</text>
</a>
</g>
</g>
<!-- Node0&#45;&gt;Node3 -->
<g id="edge27_Node000000_Node000003" class="edge">
<title>Node0&#45;&gt;Node3</title>
<g id="a_edge27_Node000000_Node000003"><a xlink:title=" ">
<path fill="none" stroke="#63b8ff" d="M141.17,-200.5C149.52,-200.5 158.19,-200.5 166.95,-200.5"/>
<polygon fill="#63b8ff" stroke="#63b8ff" points="141.15,-197 131.15,-200.5 141.15,-204 141.15,-197"/>
</a>
</g>
</g>
<!-- Node5 -->
<g id="Node000005" class="node">
<title>Node5</title>
<g id="a_Node000005"><a xlink:href="classDynExpInstr_1_1gRPCInstrumentTasks_1_1ExitTask.html" target="_top" xlink:title="Defines a task for deinitializing an instrument within an instrument inheritance hierarchy....">
<polygon fill="white" stroke="#666666" points="371.5,-156 210.5,-156 210.5,-115 371.5,-115 371.5,-156"/>
<text text-anchor="start" x="218.5" y="-144" font-family="Helvetica,sans-Serif" font-size="10.00">DynExpInstr::gRPCInstrument</text>
<text text-anchor="start" x="218.5" y="-133" font-family="Helvetica,sans-Serif" font-size="10.00">Tasks::ExitTask&lt; BaseInstr,</text>
<text text-anchor="middle" x="291" y="-122" font-family="Helvetica,sans-Serif" font-size="10.00">, gRPCStubs &gt;</text>
</a>
</g>
</g>
<!-- Node0&#45;&gt;Node5 -->
<g id="edge29_Node000000_Node000005" class="edge">
<title>Node0&#45;&gt;Node5</title>
<g id="a_edge29_Node000000_Node000005"><a xlink:title=" ">
<path fill="none" stroke="#63b8ff" d="M101.43,-187.41C120.63,-180.45 144.97,-172.01 167,-165.5 180.91,-161.39 195.83,-157.41 210.3,-153.76"/>
<polygon fill="#63b8ff" stroke="#63b8ff" points="100.08,-184.18 91.89,-190.9 102.48,-190.75 100.08,-184.18"/>
</a>
</g>
</g>
<!-- Node2 -->
<g id="Node000002" class="node">
<title>Node2</title>
<g id="a_Node000002"><a xlink:href="classDynExpInstr_1_1NetworkSpectrometerTasks_1_1ExitTask.html" target="_top" xlink:title=" ">
<polygon fill="white" stroke="#666666" points="640,-285.5 451,-285.5 451,-255.5 640,-255.5 640,-285.5"/>
<text text-anchor="start" x="459" y="-273.5" font-family="Helvetica,sans-Serif" font-size="10.00">DynExpInstr::NetworkSpectrometer</text>
<text text-anchor="middle" x="545.5" y="-262.5" font-family="Helvetica,sans-Serif" font-size="10.00">Tasks::ExitTask</text>
</a>
</g>
</g>
<!-- Node1&#45;&gt;Node2 -->
<g id="edge26_Node000001_Node000002" class="edge">
<title>Node1&#45;&gt;Node2</title>
<g id="a_edge26_Node000001_Node000002"><a xlink:title=" ">
<path fill="none" stroke="#63b8ff" d="M405.48,-270.5C420.6,-270.5 435.97,-270.5 450.7,-270.5"/>
<polygon fill="#63b8ff" stroke="#63b8ff" points="405.07,-267 395.07,-270.5 405.07,-274 405.07,-267"/>
</a>
</g>
</g>
<!-- Node4 -->
<g id="Node000004" class="node">
<title>Node4</title>
<g id="a_Node000004"><a xlink:href="classDynExpInstr_1_1WidefieldLocalizationTasks_1_1ExitTask.html" target="_top" xlink:title=" ">
<polygon fill="white" stroke="#666666" points="638.5,-215.5 452.5,-215.5 452.5,-185.5 638.5,-185.5 638.5,-215.5"/>
<text text-anchor="start" x="460.5" y="-203.5" font-family="Helvetica,sans-Serif" font-size="10.00">DynExpInstr::WidefieldLocalization</text>
<text text-anchor="middle" x="545.5" y="-192.5" font-family="Helvetica,sans-Serif" font-size="10.00">Tasks::ExitTask</text>
</a>
</g>
</g>
<!-- Node3&#45;&gt;Node4 -->
<g id="edge28_Node000003_Node000004" class="edge">
<title>Node3&#45;&gt;Node4</title>
<g id="a_edge28_Node000003_Node000004"><a xlink:title=" ">
<path fill="none" stroke="#63b8ff" d="M425.56,-200.5C434.64,-200.5 443.68,-200.5 452.47,-200.5"/>
<polygon fill="#63b8ff" stroke="#63b8ff" points="425.29,-197 415.29,-200.5 425.29,-204 425.29,-197"/>
</a>
</g>
</g>
<!-- Node6 -->
<g id="Node000006" class="node">
<title>Node6</title>
<g id="a_Node000006"><a xlink:href="classDynExpInstr_1_1NetworkDataStreamInstrumentTasks_1_1ExitTask.html" target="_top" xlink:title=" ">
<polygon fill="white" stroke="#666666" points="618.5,-164.5 472.5,-164.5 472.5,-112.5 618.5,-112.5 618.5,-164.5"/>
<text text-anchor="start" x="480.5" y="-152.5" font-family="Helvetica,sans-Serif" font-size="10.00">DynExpInstr::NetworkData</text>
<text text-anchor="start" x="480.5" y="-141.5" font-family="Helvetica,sans-Serif" font-size="10.00">StreamInstrumentTasks</text>
<text text-anchor="start" x="480.5" y="-130.5" font-family="Helvetica,sans-Serif" font-size="10.00">::ExitTask&lt; BaseInstr,</text>
<text text-anchor="middle" x="545.5" y="-119.5" font-family="Helvetica,sans-Serif" font-size="10.00"> 0, gRPCStubs... &gt;</text>
</a>
</g>
</g>
<!-- Node5&#45;&gt;Node6 -->
<g id="edge30_Node000005_Node000006" class="edge">
<title>Node5&#45;&gt;Node6</title>
<g id="a_edge30_Node000005_Node000006"><a xlink:title=" ">
<path fill="none" stroke="#63b8ff" d="M381.89,-136.57C411.52,-136.92 444.06,-137.31 472.21,-137.64"/>
<polygon fill="#63b8ff" stroke="#63b8ff" points="381.59,-133.06 371.55,-136.45 381.5,-140.06 381.59,-133.06"/>
</a>
</g>
</g>
<!-- Node12 -->
<g id="Node000012" class="node">
<title>Node12</title>
<g id="a_Node000012"><a xlink:href="classDynExpInstr_1_1NetworkDataStreamInstrumentTasks_1_1ExitTask.html" target="_top" xlink:title=" ">
<polygon fill="white" stroke="#666666" points="618.5,-94.5 472.5,-94.5 472.5,-42.5 618.5,-42.5 618.5,-94.5"/>
<text text-anchor="start" x="480.5" y="-82.5" font-family="Helvetica,sans-Serif" font-size="10.00">DynExpInstr::NetworkData</text>
<text text-anchor="start" x="480.5" y="-71.5" font-family="Helvetica,sans-Serif" font-size="10.00">StreamInstrumentTasks</text>
<text text-anchor="start" x="480.5" y="-60.5" font-family="Helvetica,sans-Serif" font-size="10.00">::ExitTask&lt; BaseInstr,,</text>
<text text-anchor="middle" x="545.5" y="-49.5" font-family="Helvetica,sans-Serif" font-size="10.00"> gRPCStubs &gt;</text>
</a>
</g>
</g>
<!-- Node5&#45;&gt;Node12 -->
<g id="edge36_Node000005_Node000012" class="edge">
<title>Node5&#45;&gt;Node12</title>
<g id="a_edge36_Node000005_Node000012"><a xlink:title=" ">
<path fill="none" stroke="#63b8ff" d="M379.21,-112.36C409.59,-104.3 443.32,-95.35 472.34,-87.65"/>
<polygon fill="#63b8ff" stroke="#63b8ff" points="378.24,-108.99 369.47,-114.94 380.04,-115.76 378.24,-108.99"/>
</a>
</g>
</g>
<!-- Node7 -->
<g id="Node000007" class="node">
<title>Node7</title>
<g id="a_Node000007"><a xlink:href="classDynExpInstr_1_1NetworkAnalogInTasks_1_1ExitTask.html" target="_top" xlink:title=" ">
<polygon fill="white" stroke="#666666" points="839,-277 680,-277 680,-236 839,-236 839,-277"/>
<text text-anchor="start" x="688" y="-265" font-family="Helvetica,sans-Serif" font-size="10.00">DynExpInstr::NetworkAnalog</text>
<text text-anchor="start" x="688" y="-254" font-family="Helvetica,sans-Serif" font-size="10.00">InTasks::ExitTask&lt; BaseInstr,</text>
<text text-anchor="middle" x="759.5" y="-243" font-family="Helvetica,sans-Serif" font-size="10.00">, gRPCStubs &gt;</text>
</a>
</g>
</g>
<!-- Node6&#45;&gt;Node7 -->
<g id="edge31_Node000006_Node000007" class="edge">
<title>Node6&#45;&gt;Node7</title>
<g id="a_edge31_Node000006_Node000007"><a xlink:title=" ">
<path fill="none" stroke="#63b8ff" d="M627.79,-168C632.07,-170.63 636.17,-173.46 640,-176.5 661.73,-193.75 653.86,-210.77 676,-227.5 680.12,-230.61 684.6,-233.41 689.27,-235.92"/>
<polygon fill="#63b8ff" stroke="#63b8ff" points="629.23,-164.79 618.81,-162.89 625.76,-170.88 629.23,-164.79"/>
</a>
</g>
</g>
<!-- Node8 -->
<g id="Node000008" class="node">
<title>Node8</title>
<g id="a_Node000008"><a xlink:href="classDynExpInstr_1_1NetworkAnalogOutTasks_1_1ExitTask.html" target="_top" xlink:title=" ">
<polygon fill="white" stroke="#666666" points="843,-218 676,-218 676,-177 843,-177 843,-218"/>
<text text-anchor="start" x="684" y="-206" font-family="Helvetica,sans-Serif" font-size="10.00">DynExpInstr::NetworkAnalog</text>
<text text-anchor="start" x="684" y="-195" font-family="Helvetica,sans-Serif" font-size="10.00">OutTasks::ExitTask&lt; BaseInstr,</text>
<text text-anchor="middle" x="759.5" y="-184" font-family="Helvetica,sans-Serif" font-size="10.00">, gRPCStubs &gt;</text>
</a>
</g>
</g>
<!-- Node6&#45;&gt;Node8 -->
<g id="edge32_Node000006_Node000008" class="edge">
<title>Node6&#45;&gt;Node8</title>
<g id="a_edge32_Node000006_Node000008"><a xlink:title=" ">
<path fill="none" stroke="#63b8ff" d="M628.21,-161.24C646.85,-166.43 666.55,-171.91 684.83,-177"/>
<polygon fill="#63b8ff" stroke="#63b8ff" points="629.14,-157.87 618.57,-158.56 627.26,-164.61 629.14,-157.87"/>
</a>
</g>
</g>
<!-- Node9 -->
<g id="Node000009" class="node">
<title>Node9</title>
<g id="a_Node000009"><a xlink:href="classDynExpInstr_1_1NetworkDigitalInTasks_1_1ExitTask.html" target="_top" xlink:title=" ">
<polygon fill="white" stroke="#666666" points="839,-159 680,-159 680,-118 839,-118 839,-159"/>
<text text-anchor="start" x="688" y="-147" font-family="Helvetica,sans-Serif" font-size="10.00">DynExpInstr::NetworkDigital</text>
<text text-anchor="start" x="688" y="-136" font-family="Helvetica,sans-Serif" font-size="10.00">InTasks::ExitTask&lt; BaseInstr,</text>
<text text-anchor="middle" x="759.5" y="-125" font-family="Helvetica,sans-Serif" font-size="10.00">, gRPCStubs &gt;</text>
</a>
</g>
</g>
<!-- Node6&#45;&gt;Node9 -->
<g id="edge33_Node000006_Node000009" class="edge">
<title>Node6&#45;&gt;Node9</title>
<g id="a_edge33_Node000006_Node000009"><a xlink:title=" ">
<path fill="none" stroke="#63b8ff" d="M628.86,-138.5C645.58,-138.5 663.13,-138.5 679.73,-138.5"/>
<polygon fill="#63b8ff" stroke="#63b8ff" points="628.57,-135 618.57,-138.5 628.57,-142 628.57,-135"/>
</a>
</g>
</g>
<!-- Node10 -->
<g id="Node000010" class="node">
<title>Node10</title>
<g id="a_Node000010"><a xlink:href="classDynExpInstr_1_1NetworkDigitalOutTasks_1_1ExitTask.html" target="_top" xlink:title=" ">
<polygon fill="white" stroke="#666666" points="843,-100 676,-100 676,-59 843,-59 843,-100"/>
<text text-anchor="start" x="684" y="-88" font-family="Helvetica,sans-Serif" font-size="10.00">DynExpInstr::NetworkDigital</text>
<text text-anchor="start" x="684" y="-77" font-family="Helvetica,sans-Serif" font-size="10.00">OutTasks::ExitTask&lt; BaseInstr,</text>
<text text-anchor="middle" x="759.5" y="-66" font-family="Helvetica,sans-Serif" font-size="10.00">, gRPCStubs &gt;</text>
</a>
</g>
</g>
<!-- Node6&#45;&gt;Node10 -->
<g id="edge34_Node000006_Node000010" class="edge">
<title>Node6&#45;&gt;Node10</title>
<g id="a_edge34_Node000006_Node000010"><a xlink:title=" ">
<path fill="none" stroke="#63b8ff" d="M628.21,-115.76C646.85,-110.57 666.55,-105.09 684.83,-100"/>
<polygon fill="#63b8ff" stroke="#63b8ff" points="627.26,-112.39 618.57,-118.44 629.14,-119.13 627.26,-112.39"/>
</a>
</g>
</g>
<!-- Node11 -->
<g id="Node000011" class="node">
<title>Node11</title>
<g id="a_Node000011"><a xlink:href="classDynExpInstr_1_1NetworkTimeTaggerTasks_1_1ExitTask.html" target="_top" xlink:title=" ">
<polygon fill="white" stroke="#666666" points="833.5,-41 685.5,-41 685.5,0 833.5,0 833.5,-41"/>
<text text-anchor="start" x="693.5" y="-29" font-family="Helvetica,sans-Serif" font-size="10.00">DynExpInstr::NetworkTime</text>
<text text-anchor="start" x="693.5" y="-18" font-family="Helvetica,sans-Serif" font-size="10.00">TaggerTasks::ExitTask</text>
<text text-anchor="middle" x="759.5" y="-7" font-family="Helvetica,sans-Serif" font-size="10.00">&lt; BaseInstr,, gRPCStubs &gt;</text>
</a>
</g>
</g>
<!-- Node6&#45;&gt;Node11 -->
<g id="edge35_Node000006_Node000011" class="edge">
<title>Node6&#45;&gt;Node11</title>
<g id="a_edge35_Node000006_Node000011"><a xlink:title=" ">
<path fill="none" stroke="#63b8ff" d="M627.88,-111.81C632.14,-109.27 636.21,-106.51 640,-103.5 662.6,-85.58 653.22,-67.19 676,-49.5 679.96,-46.43 684.26,-43.66 688.77,-41.18"/>
<polygon fill="#63b8ff" stroke="#63b8ff" points="626.02,-108.85 618.94,-116.73 629.39,-114.98 626.02,-108.85"/>
</a>
</g>
</g>
</g>
</svg>
