<?xml version="1.0" encoding="UTF-8" standalone="no"?>
<!DOCTYPE svg PUBLIC "-//W3C//DTD SVG 1.1//EN"
 "http://www.w3.org/Graphics/SVG/1.1/DTD/svg11.dtd">
<!-- Generated by graphviz version 2.43.0 (0)
 -->
<!-- Title: Graphical Class Hierarchy Pages: 1 -->
<svg width="396pt" height="2428pt"
 viewBox="0.00 0.00 396.00 2427.50" xmlns="http://www.w3.org/2000/svg" xmlns:xlink="http://www.w3.org/1999/xlink">
<g id="graph0" class="graph" transform="scale(1 1) rotate(0) translate(4 2423.5)">
<title>Graphical Class Hierarchy</title>
<polygon fill="white" stroke="transparent" points="-4,4 -4,-2423.5 392,-2423.5 392,4 -4,4"/>
<!-- Node912 -->
<g id="node1" class="node">
<title>Node912</title>
<g id="a_node1"><a xlink:title=" ">
<polygon fill="white" stroke="#bfbfbf" points="0,-1194 0,-1224 128,-1224 128,-1194 0,-1194"/>
<text text-anchor="start" x="8" y="-1212" font-family="Helvetica,sans-Serif" font-size="10.00">gRPCModule::template</text>
<text text-anchor="middle" x="64" y="-1201" font-family="Helvetica,sans-Serif" font-size="10.00"> TypedCallDataBase</text>
</a>
</g>
</g>
<!-- Node0 -->
<g id="node2" class="node">
<title>Node0</title>
<g id="a_node2"><a xlink:href="classDynExpModule_1_1NetworkAnalogInT_1_1CallDataGetAsync.html" target="_top" xlink:title=" ">
<polygon fill="white" stroke="black" points="168.5,-2389 168.5,-2419 383.5,-2419 383.5,-2389 168.5,-2389"/>
<text text-anchor="start" x="176.5" y="-2407" font-family="Helvetica,sans-Serif" font-size="10.00">DynExpModule::NetworkAnalog</text>
<text text-anchor="middle" x="276" y="-2396" font-family="Helvetica,sans-Serif" font-size="10.00">InT&lt; gRPCServices &gt;::CallDataGetAsync</text>
</a>
</g>
</g>
<!-- Node912&#45;&gt;Node0 -->
<g id="edge1" class="edge">
<title>Node912&#45;&gt;Node0</title>
<path fill="none" stroke="midnightblue" d="M65.38,-1234.19C68.03,-1396.36 86.1,-2289.61 164,-2379 167.24,-2382.72 170.91,-2385.96 174.89,-2388.76"/>
<polygon fill="midnightblue" stroke="midnightblue" points="68.88,-1234.13 65.22,-1224.18 61.88,-1234.24 68.88,-1234.13"/>
</g>
<!-- Node914 -->
<g id="node3" class="node">
<title>Node914</title>
<g id="a_node3"><a xlink:href="classDynExpModule_1_1NetworkAnalogInT_1_1CallDataGetHardwareLimits.html" target="_top" xlink:title=" ">
<polygon fill="white" stroke="black" points="183,-2328.5 183,-2369.5 369,-2369.5 369,-2328.5 183,-2328.5"/>
<text text-anchor="start" x="191" y="-2357.5" font-family="Helvetica,sans-Serif" font-size="10.00">DynExpModule::NetworkAnalog</text>
<text text-anchor="start" x="191" y="-2346.5" font-family="Helvetica,sans-Serif" font-size="10.00">InT&lt; gRPCServices &gt;::CallDataGet</text>
<text text-anchor="middle" x="276" y="-2335.5" font-family="Helvetica,sans-Serif" font-size="10.00">HardwareLimits</text>
</a>
</g>
</g>
<!-- Node912&#45;&gt;Node914 -->
<g id="edge2" class="edge">
<title>Node912&#45;&gt;Node914</title>
<path fill="none" stroke="midnightblue" d="M65.55,-1234.31C69.18,-1391.73 91.91,-2233.05 164,-2319 169.26,-2325.27 175.68,-2330.3 182.76,-2334.33"/>
<polygon fill="midnightblue" stroke="midnightblue" points="69.05,-1234.09 65.32,-1224.17 62.05,-1234.25 69.05,-1234.09"/>
</g>
<!-- Node915 -->
<g id="node4" class="node">
<title>Node915</title>
<g id="a_node4"><a xlink:href="classDynExpModule_1_1NetworkAnalogInT_1_1CallDataGetSync.html" target="_top" xlink:title=" ">
<polygon fill="white" stroke="black" points="171.5,-2279 171.5,-2309 380.5,-2309 380.5,-2279 171.5,-2279"/>
<text text-anchor="start" x="179.5" y="-2297" font-family="Helvetica,sans-Serif" font-size="10.00">DynExpModule::NetworkAnalog</text>
<text text-anchor="middle" x="276" y="-2286" font-family="Helvetica,sans-Serif" font-size="10.00">InT&lt; gRPCServices &gt;::CallDataGetSync</text>
</a>
</g>
</g>
<!-- Node912&#45;&gt;Node915 -->
<g id="edge3" class="edge">
<title>Node912&#45;&gt;Node915</title>
<path fill="none" stroke="midnightblue" d="M65.62,-1234.63C69.58,-1388.79 93.46,-2188.76 164,-2269 167.26,-2272.71 170.94,-2275.93 174.93,-2278.73"/>
<polygon fill="midnightblue" stroke="midnightblue" points="69.11,-1234.2 65.36,-1224.29 62.11,-1234.38 69.11,-1234.2"/>
</g>
<!-- Node916 -->
<g id="node5" class="node">
<title>Node916</title>
<g id="a_node5"><a xlink:href="classDynExpModule_1_1NetworkAnalogInT_1_1CallDataGetValueUnit.html" target="_top" xlink:title=" ">
<polygon fill="white" stroke="black" points="183,-2218.5 183,-2259.5 369,-2259.5 369,-2218.5 183,-2218.5"/>
<text text-anchor="start" x="191" y="-2247.5" font-family="Helvetica,sans-Serif" font-size="10.00">DynExpModule::NetworkAnalog</text>
<text text-anchor="start" x="191" y="-2236.5" font-family="Helvetica,sans-Serif" font-size="10.00">InT&lt; gRPCServices &gt;::CallDataGet</text>
<text text-anchor="middle" x="276" y="-2225.5" font-family="Helvetica,sans-Serif" font-size="10.00">ValueUnit</text>
</a>
</g>
</g>
<!-- Node912&#45;&gt;Node916 -->
<g id="edge4" class="edge">
<title>Node912&#45;&gt;Node916</title>
<path fill="none" stroke="midnightblue" d="M65.82,-1234.52C70.8,-1383.05 99.02,-2132.29 164,-2209 169.29,-2215.25 175.73,-2220.26 182.82,-2224.28"/>
<polygon fill="midnightblue" stroke="midnightblue" points="69.3,-1234.03 65.48,-1224.15 62.31,-1234.26 69.3,-1234.03"/>
</g>
<!-- Node917 -->
<g id="node6" class="node">
<title>Node917</title>
<g id="a_node6"><a xlink:href="classDynExpModule_1_1NetworkAnalogInT_1_1CallDataHardwareResolution.html" target="_top" xlink:title=" ">
<polygon fill="white" stroke="black" points="168,-2158.5 168,-2199.5 384,-2199.5 384,-2158.5 168,-2158.5"/>
<text text-anchor="start" x="176" y="-2187.5" font-family="Helvetica,sans-Serif" font-size="10.00">DynExpModule::NetworkAnalog</text>
<text text-anchor="start" x="176" y="-2176.5" font-family="Helvetica,sans-Serif" font-size="10.00">InT&lt; gRPCServices &gt;::CallDataHardware</text>
<text text-anchor="middle" x="276" y="-2165.5" font-family="Helvetica,sans-Serif" font-size="10.00">Resolution</text>
</a>
</g>
</g>
<!-- Node912&#45;&gt;Node917 -->
<g id="edge5" class="edge">
<title>Node912&#45;&gt;Node917</title>
<path fill="none" stroke="midnightblue" d="M65.98,-1234.33C71.72,-1377.09 102.85,-2077.27 164,-2149 166.98,-2152.49 170.32,-2155.6 173.93,-2158.37"/>
<polygon fill="midnightblue" stroke="midnightblue" points="69.48,-1234.19 65.58,-1224.33 62.48,-1234.46 69.48,-1234.19"/>
</g>
<!-- Node918 -->
<g id="node7" class="node">
<title>Node918</title>
<g id="a_node7"><a xlink:href="classDynExpModule_1_1NetworkAnalogOutT_1_1CallDataGetHardwareLimits.html" target="_top" xlink:title=" ">
<polygon fill="white" stroke="black" points="179,-2098.5 179,-2139.5 373,-2139.5 373,-2098.5 179,-2098.5"/>
<text text-anchor="start" x="187" y="-2127.5" font-family="Helvetica,sans-Serif" font-size="10.00">DynExpModule::NetworkAnalog</text>
<text text-anchor="start" x="187" y="-2116.5" font-family="Helvetica,sans-Serif" font-size="10.00">OutT&lt; gRPCServices &gt;::CallDataGet</text>
<text text-anchor="middle" x="276" y="-2105.5" font-family="Helvetica,sans-Serif" font-size="10.00">HardwareLimits</text>
</a>
</g>
</g>
<!-- Node912&#45;&gt;Node918 -->
<g id="edge6" class="edge">
<title>Node912&#45;&gt;Node918</title>
<path fill="none" stroke="midnightblue" d="M66.17,-1234.4C72.74,-1371.79 106.71,-2022.27 164,-2089 168.29,-2094 173.32,-2098.21 178.83,-2101.74"/>
<polygon fill="midnightblue" stroke="midnightblue" points="69.65,-1233.88 65.68,-1224.06 62.66,-1234.21 69.65,-1233.88"/>
</g>
<!-- Node919 -->
<g id="node8" class="node">
<title>Node919</title>
<g id="a_node8"><a xlink:href="classDynExpModule_1_1NetworkAnalogOutT_1_1CallDataGetUserLimits.html" target="_top" xlink:title=" ">
<polygon fill="white" stroke="black" points="179,-2038.5 179,-2079.5 373,-2079.5 373,-2038.5 179,-2038.5"/>
<text text-anchor="start" x="187" y="-2067.5" font-family="Helvetica,sans-Serif" font-size="10.00">DynExpModule::NetworkAnalog</text>
<text text-anchor="start" x="187" y="-2056.5" font-family="Helvetica,sans-Serif" font-size="10.00">OutT&lt; gRPCServices &gt;::CallDataGet</text>
<text text-anchor="middle" x="276" y="-2045.5" font-family="Helvetica,sans-Serif" font-size="10.00">UserLimits</text>
</a>
</g>
</g>
<!-- Node912&#45;&gt;Node919 -->
<g id="edge7" class="edge">
<title>Node912&#45;&gt;Node919</title>
<path fill="none" stroke="midnightblue" d="M66.39,-1234.31C73.82,-1365.79 110.54,-1967.24 164,-2029 168.31,-2033.98 173.36,-2038.18 178.87,-2041.71"/>
<polygon fill="midnightblue" stroke="midnightblue" points="69.87,-1233.82 65.81,-1224.03 62.88,-1234.21 69.87,-1233.82"/>
</g>
<!-- Node920 -->
<g id="node9" class="node">
<title>Node920</title>
<g id="a_node9"><a xlink:href="classDynExpModule_1_1NetworkAnalogOutT_1_1CallDataGetValueUnit.html" target="_top" xlink:title=" ">
<polygon fill="white" stroke="black" points="179,-1978.5 179,-2019.5 373,-2019.5 373,-1978.5 179,-1978.5"/>
<text text-anchor="start" x="187" y="-2007.5" font-family="Helvetica,sans-Serif" font-size="10.00">DynExpModule::NetworkAnalog</text>
<text text-anchor="start" x="187" y="-1996.5" font-family="Helvetica,sans-Serif" font-size="10.00">OutT&lt; gRPCServices &gt;::CallDataGet</text>
<text text-anchor="middle" x="276" y="-1985.5" font-family="Helvetica,sans-Serif" font-size="10.00">ValueUnit</text>
</a>
</g>
</g>
<!-- Node912&#45;&gt;Node920 -->
<g id="edge8" class="edge">
<title>Node912&#45;&gt;Node920</title>
<path fill="none" stroke="midnightblue" d="M64.67,-1234.4C63.67,-1353.57 65.4,-1856.16 164,-1969 168.33,-1973.96 173.4,-1978.14 178.93,-1981.66"/>
<polygon fill="midnightblue" stroke="midnightblue" points="68.18,-1234.13 64.78,-1224.09 61.18,-1234.06 68.18,-1234.13"/>
</g>
<!-- Node921 -->
<g id="node10" class="node">
<title>Node921</title>
<g id="a_node10"><a xlink:href="classDynExpModule_1_1NetworkAnalogOutT_1_1CallDataHardwareResolution.html" target="_top" xlink:title=" ">
<polygon fill="white" stroke="black" points="164,-1918.5 164,-1959.5 388,-1959.5 388,-1918.5 164,-1918.5"/>
<text text-anchor="start" x="172" y="-1947.5" font-family="Helvetica,sans-Serif" font-size="10.00">DynExpModule::NetworkAnalog</text>
<text text-anchor="start" x="172" y="-1936.5" font-family="Helvetica,sans-Serif" font-size="10.00">OutT&lt; gRPCServices &gt;::CallDataHardware</text>
<text text-anchor="middle" x="276" y="-1925.5" font-family="Helvetica,sans-Serif" font-size="10.00">Resolution</text>
</a>
</g>
</g>
<!-- Node912&#45;&gt;Node921 -->
<g id="edge9" class="edge">
<title>Node912&#45;&gt;Node921</title>
<path fill="none" stroke="midnightblue" d="M64.99,-1234.19C65.45,-1347.15 72.96,-1805.97 164,-1909 167.04,-1912.44 170.43,-1915.51 174.08,-1918.23"/>
<polygon fill="midnightblue" stroke="midnightblue" points="68.49,-1234.07 64.96,-1224.08 61.49,-1234.09 68.49,-1234.07"/>
</g>
<!-- Node922 -->
<g id="node11" class="node">
<title>Node922</title>
<g id="a_node11"><a xlink:href="classDynExpModule_1_1NetworkAnalogOutT_1_1CallDataSetAsync.html" target="_top" xlink:title=" ">
<polygon fill="white" stroke="black" points="165,-1869 165,-1899 387,-1899 387,-1869 165,-1869"/>
<text text-anchor="start" x="173" y="-1887" font-family="Helvetica,sans-Serif" font-size="10.00">DynExpModule::NetworkAnalog</text>
<text text-anchor="middle" x="276" y="-1876" font-family="Helvetica,sans-Serif" font-size="10.00">OutT&lt; gRPCServices &gt;::CallDataSetAsync</text>
</a>
</g>
</g>
<!-- Node912&#45;&gt;Node922 -->
<g id="edge10" class="edge">
<title>Node912&#45;&gt;Node922</title>
<path fill="none" stroke="midnightblue" d="M65.19,-1234.2C66.52,-1342.36 77.28,-1765.96 164,-1859 167.5,-1862.76 171.44,-1866.01 175.68,-1868.82"/>
<polygon fill="midnightblue" stroke="midnightblue" points="68.69,-1234.16 65.08,-1224.2 61.69,-1234.24 68.69,-1234.16"/>
</g>
<!-- Node923 -->
<g id="node12" class="node">
<title>Node923</title>
<g id="a_node12"><a xlink:href="classDynExpModule_1_1NetworkAnalogOutT_1_1CallDataSetDefault.html" target="_top" xlink:title=" ">
<polygon fill="white" stroke="black" points="179.5,-1808.5 179.5,-1849.5 372.5,-1849.5 372.5,-1808.5 179.5,-1808.5"/>
<text text-anchor="start" x="187.5" y="-1837.5" font-family="Helvetica,sans-Serif" font-size="10.00">DynExpModule::NetworkAnalog</text>
<text text-anchor="start" x="187.5" y="-1826.5" font-family="Helvetica,sans-Serif" font-size="10.00">OutT&lt; gRPCServices &gt;::CallDataSet</text>
<text text-anchor="middle" x="276" y="-1815.5" font-family="Helvetica,sans-Serif" font-size="10.00">Default</text>
</a>
</g>
</g>
<!-- Node912&#45;&gt;Node923 -->
<g id="edge11" class="edge">
<title>Node912&#45;&gt;Node923</title>
<path fill="none" stroke="midnightblue" d="M65.72,-1234.35C69.15,-1336.17 86.92,-1713.99 164,-1799 168.49,-1803.95 173.71,-1808.13 179.38,-1811.63"/>
<polygon fill="midnightblue" stroke="midnightblue" points="69.21,-1233.97 65.4,-1224.09 62.22,-1234.2 69.21,-1233.97"/>
</g>
<!-- Node924 -->
<g id="node13" class="node">
<title>Node924</title>
<g id="a_node13"><a xlink:href="classDynExpModule_1_1NetworkAnalogOutT_1_1CallDataSetSync.html" target="_top" xlink:title=" ">
<polygon fill="white" stroke="black" points="168,-1759 168,-1789 384,-1789 384,-1759 168,-1759"/>
<text text-anchor="start" x="176" y="-1777" font-family="Helvetica,sans-Serif" font-size="10.00">DynExpModule::NetworkAnalog</text>
<text text-anchor="middle" x="276" y="-1766" font-family="Helvetica,sans-Serif" font-size="10.00">OutT&lt; gRPCServices &gt;::CallDataSetSync</text>
</a>
</g>
</g>
<!-- Node912&#45;&gt;Node924 -->
<g id="edge12" class="edge">
<title>Node912&#45;&gt;Node924</title>
<path fill="none" stroke="midnightblue" d="M66.04,-1234.15C70.55,-1330.37 91.52,-1673.55 164,-1749 167.56,-1752.7 171.54,-1755.91 175.82,-1758.69"/>
<polygon fill="midnightblue" stroke="midnightblue" points="69.54,-1233.99 65.59,-1224.15 62.55,-1234.3 69.54,-1233.99"/>
</g>
<!-- Node925 -->
<g id="node14" class="node">
<title>Node925</title>
<g id="a_node14"><a xlink:href="classDynExpModule_1_1NetworkDataStreamInstrumentT_1_1CallDataClearData.html" target="_top" xlink:title=" ">
<polygon fill="white" stroke="black" points="181.5,-1698.5 181.5,-1739.5 370.5,-1739.5 370.5,-1698.5 181.5,-1698.5"/>
<text text-anchor="start" x="189.5" y="-1727.5" font-family="Helvetica,sans-Serif" font-size="10.00">DynExpModule::NetworkData</text>
<text text-anchor="start" x="189.5" y="-1716.5" font-family="Helvetica,sans-Serif" font-size="10.00">StreamInstrumentT&lt; gRPCServices</text>
<text text-anchor="middle" x="276" y="-1705.5" font-family="Helvetica,sans-Serif" font-size="10.00"> &gt;::CallDataClearData</text>
</a>
</g>
</g>
<!-- Node912&#45;&gt;Node925 -->
<g id="edge13" class="edge">
<title>Node912&#45;&gt;Node925</title>
<path fill="none" stroke="midnightblue" d="M66.79,-1234.41C73.6,-1323.76 100.74,-1621.79 164,-1689 169.06,-1694.38 174.98,-1698.83 181.4,-1702.51"/>
<polygon fill="midnightblue" stroke="midnightblue" points="70.28,-1234.06 66.05,-1224.35 63.3,-1234.58 70.28,-1234.06"/>
</g>
<!-- Node926 -->
<g id="node15" class="node">
<title>Node926</title>
<g id="a_node15"><a xlink:href="classDynExpModule_1_1NetworkDataStreamInstrumentT_1_1CallDataGetStreamInfo.html" target="_top" xlink:title=" ">
<polygon fill="white" stroke="black" points="181.5,-1638.5 181.5,-1679.5 370.5,-1679.5 370.5,-1638.5 181.5,-1638.5"/>
<text text-anchor="start" x="189.5" y="-1667.5" font-family="Helvetica,sans-Serif" font-size="10.00">DynExpModule::NetworkData</text>
<text text-anchor="start" x="189.5" y="-1656.5" font-family="Helvetica,sans-Serif" font-size="10.00">StreamInstrumentT&lt; gRPCServices</text>
<text text-anchor="middle" x="276" y="-1645.5" font-family="Helvetica,sans-Serif" font-size="10.00"> &gt;::CallDataGetStreamInfo</text>
</a>
</g>
</g>
<!-- Node912&#45;&gt;Node926 -->
<g id="edge14" class="edge">
<title>Node912&#45;&gt;Node926</title>
<path fill="none" stroke="midnightblue" d="M67.6,-1234.38C76.48,-1316.24 108.21,-1571.36 164,-1629 169.07,-1634.24 174.95,-1638.59 181.3,-1642.2"/>
<polygon fill="midnightblue" stroke="midnightblue" points="71.06,-1233.79 66.52,-1224.22 64.1,-1234.54 71.06,-1233.79"/>
</g>
<!-- Node927 -->
<g id="node16" class="node">
<title>Node927</title>
<g id="a_node16"><a xlink:href="classDynExpModule_1_1NetworkDataStreamInstrumentT_1_1CallDataGetStreamSize.html" target="_top" xlink:title=" ">
<polygon fill="white" stroke="black" points="181.5,-1578.5 181.5,-1619.5 370.5,-1619.5 370.5,-1578.5 181.5,-1578.5"/>
<text text-anchor="start" x="189.5" y="-1607.5" font-family="Helvetica,sans-Serif" font-size="10.00">DynExpModule::NetworkData</text>
<text text-anchor="start" x="189.5" y="-1596.5" font-family="Helvetica,sans-Serif" font-size="10.00">StreamInstrumentT&lt; gRPCServices</text>
<text text-anchor="middle" x="276" y="-1585.5" font-family="Helvetica,sans-Serif" font-size="10.00"> &gt;::CallDataGetStreamSize</text>
</a>
</g>
</g>
<!-- Node912&#45;&gt;Node927 -->
<g id="edge15" class="edge">
<title>Node912&#45;&gt;Node927</title>
<path fill="none" stroke="midnightblue" d="M68.66,-1234.32C79.82,-1308.11 115.61,-1520.82 164,-1569 169.09,-1574.07 174.95,-1578.31 181.25,-1581.85"/>
<polygon fill="midnightblue" stroke="midnightblue" points="72.07,-1233.47 67.14,-1224.09 65.15,-1234.5 72.07,-1233.47"/>
</g>
<!-- Node928 -->
<g id="node17" class="node">
<title>Node928</title>
<g id="a_node17"><a xlink:href="classDynExpModule_1_1NetworkDataStreamInstrumentT_1_1CallDataHasFinished.html" target="_top" xlink:title=" ">
<polygon fill="white" stroke="black" points="181.5,-1518.5 181.5,-1559.5 370.5,-1559.5 370.5,-1518.5 181.5,-1518.5"/>
<text text-anchor="start" x="189.5" y="-1547.5" font-family="Helvetica,sans-Serif" font-size="10.00">DynExpModule::NetworkData</text>
<text text-anchor="start" x="189.5" y="-1536.5" font-family="Helvetica,sans-Serif" font-size="10.00">StreamInstrumentT&lt; gRPCServices</text>
<text text-anchor="middle" x="276" y="-1525.5" font-family="Helvetica,sans-Serif" font-size="10.00"> &gt;::CallDataHasFinished</text>
</a>
</g>
</g>
<!-- Node912&#45;&gt;Node928 -->
<g id="edge16" class="edge">
<title>Node912&#45;&gt;Node928</title>
<path fill="none" stroke="midnightblue" d="M65.66,-1234.06C68.56,-1291.43 83.93,-1433.2 164,-1509 169.15,-1513.87 175,-1517.97 181.27,-1521.41"/>
<polygon fill="midnightblue" stroke="midnightblue" points="69.15,-1233.9 65.24,-1224.06 62.16,-1234.2 69.15,-1233.9"/>
</g>
<!-- Node929 -->
<g id="node18" class="node">
<title>Node929</title>
<g id="a_node18"><a xlink:href="classDynExpModule_1_1NetworkDataStreamInstrumentT_1_1CallDataIsRunning.html" target="_top" xlink:title=" ">
<polygon fill="white" stroke="black" points="181.5,-1458.5 181.5,-1499.5 370.5,-1499.5 370.5,-1458.5 181.5,-1458.5"/>
<text text-anchor="start" x="189.5" y="-1487.5" font-family="Helvetica,sans-Serif" font-size="10.00">DynExpModule::NetworkData</text>
<text text-anchor="start" x="189.5" y="-1476.5" font-family="Helvetica,sans-Serif" font-size="10.00">StreamInstrumentT&lt; gRPCServices</text>
<text text-anchor="middle" x="276" y="-1465.5" font-family="Helvetica,sans-Serif" font-size="10.00"> &gt;::CallDataIsRunning</text>
</a>
</g>
</g>
<!-- Node912&#45;&gt;Node929 -->
<g id="edge17" class="edge">
<title>Node912&#45;&gt;Node929</title>
<path fill="none" stroke="midnightblue" d="M68.02,-1234.02C75.28,-1282.85 98.26,-1391.14 164,-1449 169.24,-1453.62 175.13,-1457.53 181.38,-1460.85"/>
<polygon fill="midnightblue" stroke="midnightblue" points="71.48,-1233.43 66.64,-1224 64.54,-1234.39 71.48,-1233.43"/>
</g>
<!-- Node930 -->
<g id="node19" class="node">
<title>Node930</title>
<g id="a_node19"><a xlink:href="classDynExpModule_1_1NetworkDataStreamInstrumentT_1_1CallDataRead.html" target="_top" xlink:title=" ">
<polygon fill="white" stroke="black" points="181.5,-1398.5 181.5,-1439.5 370.5,-1439.5 370.5,-1398.5 181.5,-1398.5"/>
<text text-anchor="start" x="189.5" y="-1427.5" font-family="Helvetica,sans-Serif" font-size="10.00">DynExpModule::NetworkData</text>
<text text-anchor="start" x="189.5" y="-1416.5" font-family="Helvetica,sans-Serif" font-size="10.00">StreamInstrumentT&lt; gRPCServices</text>
<text text-anchor="middle" x="276" y="-1405.5" font-family="Helvetica,sans-Serif" font-size="10.00"> &gt;::CallDataRead</text>
</a>
</g>
</g>
<!-- Node912&#45;&gt;Node930 -->
<g id="edge18" class="edge">
<title>Node912&#45;&gt;Node930</title>
<path fill="none" stroke="midnightblue" d="M71.82,-1234.01C83.79,-1273.11 112.37,-1348.43 164,-1389 169.34,-1393.19 175.21,-1396.8 181.39,-1399.91"/>
<polygon fill="midnightblue" stroke="midnightblue" points="75.12,-1232.83 68.94,-1224.22 68.41,-1234.8 75.12,-1232.83"/>
</g>
<!-- Node931 -->
<g id="node20" class="node">
<title>Node931</title>
<g id="a_node20"><a xlink:href="classDynExpModule_1_1NetworkDataStreamInstrumentT_1_1CallDataResetStreamSize.html" target="_top" xlink:title=" ">
<polygon fill="white" stroke="black" points="181.5,-1338.5 181.5,-1379.5 370.5,-1379.5 370.5,-1338.5 181.5,-1338.5"/>
<text text-anchor="start" x="189.5" y="-1367.5" font-family="Helvetica,sans-Serif" font-size="10.00">DynExpModule::NetworkData</text>
<text text-anchor="start" x="189.5" y="-1356.5" font-family="Helvetica,sans-Serif" font-size="10.00">StreamInstrumentT&lt; gRPCServices</text>
<text text-anchor="middle" x="276" y="-1345.5" font-family="Helvetica,sans-Serif" font-size="10.00"> &gt;::CallDataResetStreamSize</text>
</a>
</g>
</g>
<!-- Node912&#45;&gt;Node931 -->
<g id="edge19" class="edge">
<title>Node912&#45;&gt;Node931</title>
<path fill="none" stroke="midnightblue" d="M78.48,-1232.99C95.08,-1260.33 125.82,-1304.4 164,-1329 169.54,-1332.57 175.49,-1335.72 181.66,-1338.49"/>
<polygon fill="midnightblue" stroke="midnightblue" points="81.31,-1230.91 73.21,-1224.08 75.29,-1234.47 81.31,-1230.91"/>
</g>
<!-- Node932 -->
<g id="node21" class="node">
<title>Node932</title>
<g id="a_node21"><a xlink:href="classDynExpModule_1_1NetworkDataStreamInstrumentT_1_1CallDataRestart.html" target="_top" xlink:title=" ">
<polygon fill="white" stroke="black" points="181.5,-1278.5 181.5,-1319.5 370.5,-1319.5 370.5,-1278.5 181.5,-1278.5"/>
<text text-anchor="start" x="189.5" y="-1307.5" font-family="Helvetica,sans-Serif" font-size="10.00">DynExpModule::NetworkData</text>
<text text-anchor="start" x="189.5" y="-1296.5" font-family="Helvetica,sans-Serif" font-size="10.00">StreamInstrumentT&lt; gRPCServices</text>
<text text-anchor="middle" x="276" y="-1285.5" font-family="Helvetica,sans-Serif" font-size="10.00"> &gt;::CallDataRestart</text>
</a>
</g>
</g>
<!-- Node912&#45;&gt;Node932 -->
<g id="edge20" class="edge">
<title>Node912&#45;&gt;Node932</title>
<path fill="none" stroke="midnightblue" d="M94.35,-1229.8C113.45,-1242.57 139.33,-1258.44 164,-1269 172.07,-1272.46 180.65,-1275.61 189.32,-1278.46"/>
<polygon fill="midnightblue" stroke="midnightblue" points="96.31,-1226.91 86.07,-1224.19 92.38,-1232.7 96.31,-1226.91"/>
</g>
<!-- Node933 -->
<g id="node22" class="node">
<title>Node933</title>
<g id="a_node22"><a xlink:href="classDynExpModule_1_1NetworkDataStreamInstrumentT_1_1CallDataSetStreamSize.html" target="_top" xlink:title=" ">
<polygon fill="white" stroke="black" points="181.5,-1218.5 181.5,-1259.5 370.5,-1259.5 370.5,-1218.5 181.5,-1218.5"/>
<text text-anchor="start" x="189.5" y="-1247.5" font-family="Helvetica,sans-Serif" font-size="10.00">DynExpModule::NetworkData</text>
<text text-anchor="start" x="189.5" y="-1236.5" font-family="Helvetica,sans-Serif" font-size="10.00">StreamInstrumentT&lt; gRPCServices</text>
<text text-anchor="middle" x="276" y="-1225.5" font-family="Helvetica,sans-Serif" font-size="10.00"> &gt;::CallDataSetStreamSize</text>
</a>
</g>
</g>
<!-- Node912&#45;&gt;Node933 -->
<g id="edge21" class="edge">
<title>Node912&#45;&gt;Node933</title>
<path fill="none" stroke="midnightblue" d="M138.03,-1219.43C152.01,-1221.43 166.84,-1223.55 181.36,-1225.62"/>
<polygon fill="midnightblue" stroke="midnightblue" points="138.4,-1215.95 128.01,-1218 137.41,-1222.88 138.4,-1215.95"/>
</g>
<!-- Node934 -->
<g id="node23" class="node">
<title>Node934</title>
<g id="a_node23"><a xlink:href="classDynExpModule_1_1NetworkDataStreamInstrumentT_1_1CallDataStart.html" target="_top" xlink:title=" ">
<polygon fill="white" stroke="black" points="181.5,-1158.5 181.5,-1199.5 370.5,-1199.5 370.5,-1158.5 181.5,-1158.5"/>
<text text-anchor="start" x="189.5" y="-1187.5" font-family="Helvetica,sans-Serif" font-size="10.00">DynExpModule::NetworkData</text>
<text text-anchor="start" x="189.5" y="-1176.5" font-family="Helvetica,sans-Serif" font-size="10.00">StreamInstrumentT&lt; gRPCServices</text>
<text text-anchor="middle" x="276" y="-1165.5" font-family="Helvetica,sans-Serif" font-size="10.00"> &gt;::CallDataStart</text>
</a>
</g>
</g>
<!-- Node912&#45;&gt;Node934 -->
<g id="edge22" class="edge">
<title>Node912&#45;&gt;Node934</title>
<path fill="none" stroke="midnightblue" d="M138.03,-1198.57C152.01,-1196.57 166.84,-1194.45 181.36,-1192.38"/>
<polygon fill="midnightblue" stroke="midnightblue" points="137.41,-1195.12 128.01,-1200 138.4,-1202.05 137.41,-1195.12"/>
</g>
<!-- Node935 -->
<g id="node24" class="node">
<title>Node935</title>
<g id="a_node24"><a xlink:href="classDynExpModule_1_1NetworkDataStreamInstrumentT_1_1CallDataStop.html" target="_top" xlink:title=" ">
<polygon fill="white" stroke="black" points="181.5,-1098.5 181.5,-1139.5 370.5,-1139.5 370.5,-1098.5 181.5,-1098.5"/>
<text text-anchor="start" x="189.5" y="-1127.5" font-family="Helvetica,sans-Serif" font-size="10.00">DynExpModule::NetworkData</text>
<text text-anchor="start" x="189.5" y="-1116.5" font-family="Helvetica,sans-Serif" font-size="10.00">StreamInstrumentT&lt; gRPCServices</text>
<text text-anchor="middle" x="276" y="-1105.5" font-family="Helvetica,sans-Serif" font-size="10.00"> &gt;::CallDataStop</text>
</a>
</g>
</g>
<!-- Node912&#45;&gt;Node935 -->
<g id="edge23" class="edge">
<title>Node912&#45;&gt;Node935</title>
<path fill="none" stroke="midnightblue" d="M94.35,-1188.2C113.45,-1175.43 139.33,-1159.56 164,-1149 172.07,-1145.54 180.65,-1142.39 189.32,-1139.54"/>
<polygon fill="midnightblue" stroke="midnightblue" points="92.38,-1185.3 86.07,-1193.81 96.31,-1191.09 92.38,-1185.3"/>
</g>
<!-- Node936 -->
<g id="node25" class="node">
<title>Node936</title>
<g id="a_node25"><a xlink:href="classDynExpModule_1_1NetworkDataStreamInstrumentT_1_1CallDataWrite.html" target="_top" xlink:title=" ">
<polygon fill="white" stroke="black" points="181.5,-1038.5 181.5,-1079.5 370.5,-1079.5 370.5,-1038.5 181.5,-1038.5"/>
<text text-anchor="start" x="189.5" y="-1067.5" font-family="Helvetica,sans-Serif" font-size="10.00">DynExpModule::NetworkData</text>
<text text-anchor="start" x="189.5" y="-1056.5" font-family="Helvetica,sans-Serif" font-size="10.00">StreamInstrumentT&lt; gRPCServices</text>
<text text-anchor="middle" x="276" y="-1045.5" font-family="Helvetica,sans-Serif" font-size="10.00"> &gt;::CallDataWrite</text>
</a>
</g>
</g>
<!-- Node912&#45;&gt;Node936 -->
<g id="edge24" class="edge">
<title>Node912&#45;&gt;Node936</title>
<path fill="none" stroke="midnightblue" d="M78.48,-1185.01C95.08,-1157.67 125.82,-1113.6 164,-1089 169.54,-1085.43 175.49,-1082.28 181.66,-1079.51"/>
<polygon fill="midnightblue" stroke="midnightblue" points="75.29,-1183.53 73.21,-1193.92 81.31,-1187.09 75.29,-1183.53"/>
</g>
<!-- Node937 -->
<g id="node26" class="node">
<title>Node937</title>
<g id="a_node26"><a xlink:href="classDynExpModule_1_1NetworkDigitalInT_1_1CallDataGetAsync.html" target="_top" xlink:title=" ">
<polygon fill="white" stroke="black" points="168.5,-989 168.5,-1019 383.5,-1019 383.5,-989 168.5,-989"/>
<text text-anchor="start" x="176.5" y="-1007" font-family="Helvetica,sans-Serif" font-size="10.00">DynExpModule::NetworkDigital</text>
<text text-anchor="middle" x="276" y="-996" font-family="Helvetica,sans-Serif" font-size="10.00">InT&lt; gRPCServices &gt;::CallDataGetAsync</text>
</a>
</g>
</g>
<!-- Node912&#45;&gt;Node937 -->
<g id="edge25" class="edge">
<title>Node912&#45;&gt;Node937</title>
<path fill="none" stroke="midnightblue" d="M71.53,-1184.02C83.18,-1144.65 111.39,-1068.56 164,-1029 169.13,-1025.14 174.75,-1021.86 180.65,-1019.07"/>
<polygon fill="midnightblue" stroke="midnightblue" points="68.1,-1183.3 68.74,-1193.87 74.83,-1185.21 68.1,-1183.3"/>
</g>
<!-- Node938 -->
<g id="node27" class="node">
<title>Node938</title>
<g id="a_node27"><a xlink:href="classDynExpModule_1_1NetworkDigitalInT_1_1CallDataGetSync.html" target="_top" xlink:title=" ">
<polygon fill="white" stroke="black" points="171.5,-940 171.5,-970 380.5,-970 380.5,-940 171.5,-940"/>
<text text-anchor="start" x="179.5" y="-958" font-family="Helvetica,sans-Serif" font-size="10.00">DynExpModule::NetworkDigital</text>
<text text-anchor="middle" x="276" y="-947" font-family="Helvetica,sans-Serif" font-size="10.00">InT&lt; gRPCServices &gt;::CallDataGetSync</text>
</a>
</g>
</g>
<!-- Node912&#45;&gt;Node938 -->
<g id="edge26" class="edge">
<title>Node912&#45;&gt;Node938</title>
<path fill="none" stroke="midnightblue" d="M68.35,-1183.89C76.06,-1136.38 99.65,-1033.34 164,-980 168.64,-976.16 173.75,-972.87 179.15,-970.07"/>
<polygon fill="midnightblue" stroke="midnightblue" points="64.86,-1183.52 66.82,-1193.93 71.78,-1184.57 64.86,-1183.52"/>
</g>
<!-- Node939 -->
<g id="node28" class="node">
<title>Node939</title>
<g id="a_node28"><a xlink:href="classDynExpModule_1_1NetworkDigitalOutT_1_1CallDataSetAsync.html" target="_top" xlink:title=" ">
<polygon fill="white" stroke="black" points="165,-891 165,-921 387,-921 387,-891 165,-891"/>
<text text-anchor="start" x="173" y="-909" font-family="Helvetica,sans-Serif" font-size="10.00">DynExpModule::NetworkDigital</text>
<text text-anchor="middle" x="276" y="-898" font-family="Helvetica,sans-Serif" font-size="10.00">OutT&lt; gRPCServices &gt;::CallDataSetAsync</text>
</a>
</g>
</g>
<!-- Node912&#45;&gt;Node939 -->
<g id="edge27" class="edge">
<title>Node912&#45;&gt;Node939</title>
<path fill="none" stroke="midnightblue" d="M66.2,-1183.69C70.23,-1128.84 87.77,-998.55 164,-931 168.36,-927.14 173.19,-923.83 178.32,-921"/>
<polygon fill="midnightblue" stroke="midnightblue" points="62.69,-1183.7 65.55,-1193.9 69.68,-1184.15 62.69,-1183.7"/>
</g>
<!-- Node940 -->
<g id="node29" class="node">
<title>Node940</title>
<g id="a_node29"><a xlink:href="classDynExpModule_1_1NetworkDigitalOutT_1_1CallDataSetDefault.html" target="_top" xlink:title=" ">
<polygon fill="white" stroke="black" points="179.5,-830.5 179.5,-871.5 372.5,-871.5 372.5,-830.5 179.5,-830.5"/>
<text text-anchor="start" x="187.5" y="-859.5" font-family="Helvetica,sans-Serif" font-size="10.00">DynExpModule::NetworkDigital</text>
<text text-anchor="start" x="187.5" y="-848.5" font-family="Helvetica,sans-Serif" font-size="10.00">OutT&lt; gRPCServices &gt;::CallDataSet</text>
<text text-anchor="middle" x="276" y="-837.5" font-family="Helvetica,sans-Serif" font-size="10.00">Default</text>
</a>
</g>
</g>
<!-- Node912&#45;&gt;Node940 -->
<g id="edge28" class="edge">
<title>Node912&#45;&gt;Node940</title>
<path fill="none" stroke="midnightblue" d="M64.91,-1183.47C66.13,-1122.29 77.99,-966.16 164,-882 168.58,-877.52 173.74,-873.68 179.28,-870.38"/>
<polygon fill="midnightblue" stroke="midnightblue" points="61.41,-1183.71 64.79,-1193.75 68.41,-1183.79 61.41,-1183.71"/>
</g>
<!-- Node941 -->
<g id="node30" class="node">
<title>Node941</title>
<g id="a_node30"><a xlink:href="classDynExpModule_1_1NetworkDigitalOutT_1_1CallDataSetSync.html" target="_top" xlink:title=" ">
<polygon fill="white" stroke="black" points="168,-781 168,-811 384,-811 384,-781 168,-781"/>
<text text-anchor="start" x="176" y="-799" font-family="Helvetica,sans-Serif" font-size="10.00">DynExpModule::NetworkDigital</text>
<text text-anchor="middle" x="276" y="-788" font-family="Helvetica,sans-Serif" font-size="10.00">OutT&lt; gRPCServices &gt;::CallDataSetSync</text>
</a>
</g>
</g>
<!-- Node912&#45;&gt;Node941 -->
<g id="edge29" class="edge">
<title>Node912&#45;&gt;Node941</title>
<path fill="none" stroke="midnightblue" d="M68.08,-1183.18C77.92,-1104.9 111.14,-872.38 164,-821 167.9,-817.21 172.23,-813.95 176.88,-811.15"/>
<polygon fill="midnightblue" stroke="midnightblue" points="64.54,-1183.22 66.79,-1193.58 71.49,-1184.08 64.54,-1183.22"/>
</g>
<!-- Node942 -->
<g id="node31" class="node">
<title>Node942</title>
<g id="a_node31"><a xlink:href="classDynExpModule_1_1NetworkTimeTaggerT_1_1CallDataClearBuffer.html" target="_top" xlink:title=" ">
<polygon fill="white" stroke="black" points="195,-720.5 195,-761.5 357,-761.5 357,-720.5 195,-720.5"/>
<text text-anchor="start" x="203" y="-749.5" font-family="Helvetica,sans-Serif" font-size="10.00">DynExpModule::NetworkTime</text>
<text text-anchor="start" x="203" y="-738.5" font-family="Helvetica,sans-Serif" font-size="10.00">TaggerT&lt; gRPCServices &gt;</text>
<text text-anchor="middle" x="276" y="-727.5" font-family="Helvetica,sans-Serif" font-size="10.00">::CallDataClearBuffer</text>
</a>
</g>
</g>
<!-- Node912&#45;&gt;Node942 -->
<g id="edge30" class="edge">
<title>Node912&#45;&gt;Node942</title>
<path fill="none" stroke="midnightblue" d="M67.39,-1183.45C75.75,-1099.27 106.39,-832.54 164,-772 172.48,-763.09 183.3,-756.67 194.83,-752.06"/>
<polygon fill="midnightblue" stroke="midnightblue" points="63.88,-1183.36 66.39,-1193.65 70.85,-1184.04 63.88,-1183.36"/>
</g>
<!-- Node943 -->
<g id="node32" class="node">
<title>Node943</title>
<g id="a_node32"><a xlink:href="classDynExpModule_1_1NetworkTimeTaggerT_1_1CallDataConfigureHBT.html" target="_top" xlink:title=" ">
<polygon fill="white" stroke="black" points="195,-660.5 195,-701.5 357,-701.5 357,-660.5 195,-660.5"/>
<text text-anchor="start" x="203" y="-689.5" font-family="Helvetica,sans-Serif" font-size="10.00">DynExpModule::NetworkTime</text>
<text text-anchor="start" x="203" y="-678.5" font-family="Helvetica,sans-Serif" font-size="10.00">TaggerT&lt; gRPCServices &gt;</text>
<text text-anchor="middle" x="276" y="-667.5" font-family="Helvetica,sans-Serif" font-size="10.00">::CallDataConfigureHBT</text>
</a>
</g>
</g>
<!-- Node912&#45;&gt;Node943 -->
<g id="edge31" class="edge">
<title>Node912&#45;&gt;Node943</title>
<path fill="none" stroke="midnightblue" d="M66.59,-1183.54C72.82,-1091.98 98.5,-781.09 164,-711 172.45,-701.96 183.32,-695.53 194.94,-690.99"/>
<polygon fill="midnightblue" stroke="midnightblue" points="63.09,-1183.38 65.93,-1193.59 70.08,-1183.84 63.09,-1183.38"/>
</g>
<!-- Node944 -->
<g id="node33" class="node">
<title>Node944</title>
<g id="a_node33"><a xlink:href="classDynExpModule_1_1NetworkTimeTaggerT_1_1CallDataConfigureInput.html" target="_top" xlink:title=" ">
<polygon fill="white" stroke="black" points="195,-600.5 195,-641.5 357,-641.5 357,-600.5 195,-600.5"/>
<text text-anchor="start" x="203" y="-629.5" font-family="Helvetica,sans-Serif" font-size="10.00">DynExpModule::NetworkTime</text>
<text text-anchor="start" x="203" y="-618.5" font-family="Helvetica,sans-Serif" font-size="10.00">TaggerT&lt; gRPCServices &gt;</text>
<text text-anchor="middle" x="276" y="-607.5" font-family="Helvetica,sans-Serif" font-size="10.00">::CallDataConfigureInput</text>
</a>
</g>
</g>
<!-- Node912&#45;&gt;Node944 -->
<g id="edge32" class="edge">
<title>Node912&#45;&gt;Node944</title>
<path fill="none" stroke="midnightblue" d="M65.99,-1183.76C70.33,-1085.62 90.92,-730.84 164,-651 172.36,-641.87 183.18,-635.4 194.78,-630.84"/>
<polygon fill="midnightblue" stroke="midnightblue" points="62.48,-1183.8 65.55,-1193.94 69.48,-1184.09 62.48,-1183.8"/>
</g>
<!-- Node945 -->
<g id="node34" class="node">
<title>Node945</title>
<g id="a_node34"><a xlink:href="classDynExpModule_1_1NetworkTimeTaggerT_1_1CallDataGetBufferInfo.html" target="_top" xlink:title=" ">
<polygon fill="white" stroke="black" points="195,-540.5 195,-581.5 357,-581.5 357,-540.5 195,-540.5"/>
<text text-anchor="start" x="203" y="-569.5" font-family="Helvetica,sans-Serif" font-size="10.00">DynExpModule::NetworkTime</text>
<text text-anchor="start" x="203" y="-558.5" font-family="Helvetica,sans-Serif" font-size="10.00">TaggerT&lt; gRPCServices &gt;</text>
<text text-anchor="middle" x="276" y="-547.5" font-family="Helvetica,sans-Serif" font-size="10.00">::CallDataGetBufferInfo</text>
</a>
</g>
</g>
<!-- Node912&#45;&gt;Node945 -->
<g id="edge33" class="edge">
<title>Node912&#45;&gt;Node945</title>
<path fill="none" stroke="midnightblue" d="M65.52,-1183.47C68.16,-1078.38 83.43,-680.52 164,-591 172.35,-581.73 183.23,-575.19 194.92,-570.61"/>
<polygon fill="midnightblue" stroke="midnightblue" points="62.01,-1183.69 65.28,-1193.77 69.01,-1183.85 62.01,-1183.69"/>
</g>
<!-- Node946 -->
<g id="node35" class="node">
<title>Node946</title>
<g id="a_node35"><a xlink:href="classDynExpModule_1_1NetworkTimeTaggerT_1_1CallDataGetHBTResults.html" target="_top" xlink:title=" ">
<polygon fill="white" stroke="black" points="195,-480.5 195,-521.5 357,-521.5 357,-480.5 195,-480.5"/>
<text text-anchor="start" x="203" y="-509.5" font-family="Helvetica,sans-Serif" font-size="10.00">DynExpModule::NetworkTime</text>
<text text-anchor="start" x="203" y="-498.5" font-family="Helvetica,sans-Serif" font-size="10.00">TaggerT&lt; gRPCServices &gt;</text>
<text text-anchor="middle" x="276" y="-487.5" font-family="Helvetica,sans-Serif" font-size="10.00">::CallDataGetHBTResults</text>
</a>
</g>
</g>
<!-- Node912&#45;&gt;Node946 -->
<g id="edge34" class="edge">
<title>Node912&#45;&gt;Node946</title>
<path fill="none" stroke="midnightblue" d="M65.12,-1183.55C66.15,-1072.35 75.82,-630.34 164,-531 172.28,-521.67 183.14,-515.11 194.81,-510.52"/>
<polygon fill="midnightblue" stroke="midnightblue" points="61.62,-1183.78 65.04,-1193.81 68.62,-1183.83 61.62,-1183.78"/>
</g>
<!-- Node947 -->
<g id="node36" class="node">
<title>Node947</title>
<g id="a_node36"><a xlink:href="classDynExpModule_1_1NetworkTimeTaggerT_1_1CallDataGetHardwareInfo.html" target="_top" xlink:title=" ">
<polygon fill="white" stroke="black" points="195,-420.5 195,-461.5 357,-461.5 357,-420.5 195,-420.5"/>
<text text-anchor="start" x="203" y="-449.5" font-family="Helvetica,sans-Serif" font-size="10.00">DynExpModule::NetworkTime</text>
<text text-anchor="start" x="203" y="-438.5" font-family="Helvetica,sans-Serif" font-size="10.00">TaggerT&lt; gRPCServices &gt;</text>
<text text-anchor="middle" x="276" y="-427.5" font-family="Helvetica,sans-Serif" font-size="10.00">::CallDataGetHardwareInfo</text>
</a>
</g>
</g>
<!-- Node912&#45;&gt;Node947 -->
<g id="edge35" class="edge">
<title>Node912&#45;&gt;Node947</title>
<path fill="none" stroke="midnightblue" d="M64.78,-1183.58C64.31,-1066.48 68.2,-580.21 164,-471 172.29,-461.55 183.23,-454.93 195,-450.32"/>
<polygon fill="midnightblue" stroke="midnightblue" points="61.28,-1183.75 64.84,-1193.73 68.28,-1183.71 61.28,-1183.75"/>
</g>
<!-- Node948 -->
<g id="node37" class="node">
<title>Node948</title>
<g id="a_node37"><a xlink:href="classDynExpModule_1_1NetworkTimeTaggerT_1_1CallDataGetStreamMode.html" target="_top" xlink:title=" ">
<polygon fill="white" stroke="black" points="195,-360.5 195,-401.5 357,-401.5 357,-360.5 195,-360.5"/>
<text text-anchor="start" x="203" y="-389.5" font-family="Helvetica,sans-Serif" font-size="10.00">DynExpModule::NetworkTime</text>
<text text-anchor="start" x="203" y="-378.5" font-family="Helvetica,sans-Serif" font-size="10.00">TaggerT&lt; gRPCServices &gt;</text>
<text text-anchor="middle" x="276" y="-367.5" font-family="Helvetica,sans-Serif" font-size="10.00">::CallDataGetStreamMode</text>
</a>
</g>
</g>
<!-- Node912&#45;&gt;Node948 -->
<g id="edge36" class="edge">
<title>Node912&#45;&gt;Node948</title>
<path fill="none" stroke="midnightblue" d="M66.48,-1183.54C74.27,-1053.91 111.97,-470.91 164,-411 172.25,-401.5 183.16,-394.87 194.92,-390.25"/>
<polygon fill="midnightblue" stroke="midnightblue" points="62.98,-1183.51 65.88,-1193.7 69.97,-1183.92 62.98,-1183.51"/>
</g>
<!-- Node949 -->
<g id="node38" class="node">
<title>Node949</title>
<g id="a_node38"><a xlink:href="classDynExpModule_1_1NetworkTimeTaggerT_1_1CallDataResetHBT.html" target="_top" xlink:title=" ">
<polygon fill="white" stroke="black" points="195,-300.5 195,-341.5 357,-341.5 357,-300.5 195,-300.5"/>
<text text-anchor="start" x="203" y="-329.5" font-family="Helvetica,sans-Serif" font-size="10.00">DynExpModule::NetworkTime</text>
<text text-anchor="start" x="203" y="-318.5" font-family="Helvetica,sans-Serif" font-size="10.00">TaggerT&lt; gRPCServices &gt;</text>
<text text-anchor="middle" x="276" y="-307.5" font-family="Helvetica,sans-Serif" font-size="10.00">::CallDataResetHBT</text>
</a>
</g>
</g>
<!-- Node912&#45;&gt;Node949 -->
<g id="edge37" class="edge">
<title>Node912&#45;&gt;Node949</title>
<path fill="none" stroke="midnightblue" d="M66.24,-1183.8C73.1,-1048.92 108.09,-415.93 164,-351 172.21,-341.47 183.1,-334.81 194.85,-330.19"/>
<polygon fill="midnightblue" stroke="midnightblue" points="62.74,-1183.81 65.73,-1193.97 69.73,-1184.16 62.74,-1183.81"/>
</g>
<!-- Node950 -->
<g id="node39" class="node">
<title>Node950</title>
<g id="a_node39"><a xlink:href="classDynExpModule_1_1NetworkTimeTaggerT_1_1CallDataSetCoincidenceWindow.html" target="_top" xlink:title=" ">
<polygon fill="white" stroke="black" points="186.5,-240.5 186.5,-281.5 365.5,-281.5 365.5,-240.5 186.5,-240.5"/>
<text text-anchor="start" x="194.5" y="-269.5" font-family="Helvetica,sans-Serif" font-size="10.00">DynExpModule::NetworkTime</text>
<text text-anchor="start" x="194.5" y="-258.5" font-family="Helvetica,sans-Serif" font-size="10.00">TaggerT&lt; gRPCServices &gt;</text>
<text text-anchor="middle" x="276" y="-247.5" font-family="Helvetica,sans-Serif" font-size="10.00">::CallDataSetCoincidenceWindow</text>
</a>
</g>
</g>
<!-- Node912&#45;&gt;Node950 -->
<g id="edge38" class="edge">
<title>Node912&#45;&gt;Node950</title>
<path fill="none" stroke="midnightblue" d="M66.06,-1183.39C72.12,-1042.01 104.3,-360.86 164,-291 170.16,-283.79 177.86,-278.23 186.3,-273.94"/>
<polygon fill="midnightblue" stroke="midnightblue" points="62.55,-1183.52 65.62,-1193.66 69.54,-1183.82 62.55,-1183.52"/>
</g>
<!-- Node951 -->
<g id="node40" class="node">
<title>Node951</title>
<g id="a_node40"><a xlink:href="classDynExpModule_1_1NetworkTimeTaggerT_1_1CallDataSetExposureTime.html" target="_top" xlink:title=" ">
<polygon fill="white" stroke="black" points="195,-180.5 195,-221.5 357,-221.5 357,-180.5 195,-180.5"/>
<text text-anchor="start" x="203" y="-209.5" font-family="Helvetica,sans-Serif" font-size="10.00">DynExpModule::NetworkTime</text>
<text text-anchor="start" x="203" y="-198.5" font-family="Helvetica,sans-Serif" font-size="10.00">TaggerT&lt; gRPCServices &gt;</text>
<text text-anchor="middle" x="276" y="-187.5" font-family="Helvetica,sans-Serif" font-size="10.00">::CallDataSetExposureTime</text>
</a>
</g>
</g>
<!-- Node912&#45;&gt;Node951 -->
<g id="edge39" class="edge">
<title>Node912&#45;&gt;Node951</title>
<path fill="none" stroke="midnightblue" d="M65.87,-1183.58C71.12,-1037.22 100.42,-305.89 164,-231 172.14,-221.41 182.99,-214.73 194.74,-210.1"/>
<polygon fill="midnightblue" stroke="midnightblue" points="62.37,-1183.69 65.51,-1193.81 69.36,-1183.94 62.37,-1183.69"/>
</g>
<!-- Node952 -->
<g id="node41" class="node">
<title>Node952</title>
<g id="a_node41"><a xlink:href="classDynExpModule_1_1NetworkTimeTaggerT_1_1CallDataSetHBTActive.html" target="_top" xlink:title=" ">
<polygon fill="white" stroke="black" points="195,-120.5 195,-161.5 357,-161.5 357,-120.5 195,-120.5"/>
<text text-anchor="start" x="203" y="-149.5" font-family="Helvetica,sans-Serif" font-size="10.00">DynExpModule::NetworkTime</text>
<text text-anchor="start" x="203" y="-138.5" font-family="Helvetica,sans-Serif" font-size="10.00">TaggerT&lt; gRPCServices &gt;</text>
<text text-anchor="middle" x="276" y="-127.5" font-family="Helvetica,sans-Serif" font-size="10.00">::CallDataSetHBTActive</text>
</a>
</g>
</g>
<!-- Node912&#45;&gt;Node952 -->
<g id="edge40" class="edge">
<title>Node912&#45;&gt;Node952</title>
<path fill="none" stroke="midnightblue" d="M65.72,-1183.46C70.23,-1031.57 96.58,-250.88 164,-171 172.18,-161.31 183.12,-154.59 194.97,-149.95"/>
<polygon fill="midnightblue" stroke="midnightblue" points="62.22,-1183.57 65.42,-1193.66 69.21,-1183.77 62.22,-1183.57"/>
</g>
<!-- Node953 -->
<g id="node42" class="node">
<title>Node953</title>
<g id="a_node42"><a xlink:href="classDynExpModule_1_1NetworkTimeTaggerT_1_1CallDataSetInputDelay.html" target="_top" xlink:title=" ">
<polygon fill="white" stroke="black" points="195,-60.5 195,-101.5 357,-101.5 357,-60.5 195,-60.5"/>
<text text-anchor="start" x="203" y="-89.5" font-family="Helvetica,sans-Serif" font-size="10.00">DynExpModule::NetworkTime</text>
<text text-anchor="start" x="203" y="-78.5" font-family="Helvetica,sans-Serif" font-size="10.00">TaggerT&lt; gRPCServices &gt;</text>
<text text-anchor="middle" x="276" y="-67.5" font-family="Helvetica,sans-Serif" font-size="10.00">::CallDataSetInputDelay</text>
</a>
</g>
</g>
<!-- Node912&#45;&gt;Node953 -->
<g id="edge41" class="edge">
<title>Node912&#45;&gt;Node953</title>
<path fill="none" stroke="midnightblue" d="M65.57,-1183.97C69.32,-1028.24 92.64,-196 164,-111 172.15,-101.29 183.09,-94.55 194.93,-89.91"/>
<polygon fill="midnightblue" stroke="midnightblue" points="62.07,-1183.91 65.33,-1193.99 69.07,-1184.08 62.07,-1183.91"/>
</g>
<!-- Node954 -->
<g id="node43" class="node">
<title>Node954</title>
<g id="a_node43"><a xlink:href="classDynExpModule_1_1NetworkTimeTaggerT_1_1CallDataSetStreamMode.html" target="_top" xlink:title=" ">
<polygon fill="white" stroke="black" points="195,-0.5 195,-41.5 357,-41.5 357,-0.5 195,-0.5"/>
<text text-anchor="start" x="203" y="-29.5" font-family="Helvetica,sans-Serif" font-size="10.00">DynExpModule::NetworkTime</text>
<text text-anchor="start" x="203" y="-18.5" font-family="Helvetica,sans-Serif" font-size="10.00">TaggerT&lt; gRPCServices &gt;</text>
<text text-anchor="middle" x="276" y="-7.5" font-family="Helvetica,sans-Serif" font-size="10.00">::CallDataSetStreamMode</text>
</a>
</g>
</g>
<!-- Node912&#45;&gt;Node954 -->
<g id="edge42" class="edge">
<title>Node912&#45;&gt;Node954</title>
<path fill="none" stroke="midnightblue" d="M65.45,-1183.63C68.55,-1022.09 88.82,-140.97 164,-51 172.13,-41.27 183.05,-34.53 194.89,-29.88"/>
<polygon fill="midnightblue" stroke="midnightblue" points="61.95,-1183.93 65.26,-1194 68.94,-1184.06 61.95,-1183.93"/>
</g>
</g>
</svg>
