<?xml version="1.0" encoding="UTF-8" standalone="no"?>
<!DOCTYPE svg PUBLIC "-//W3C//DTD SVG 1.1//EN"
 "http://www.w3.org/Graphics/SVG/1.1/DTD/svg11.dtd">
<!-- Generated by graphviz version 2.43.0 (0)
 -->
<!-- Title: Graphical Class Hierarchy Pages: 1 -->
<svg width="828pt" height="420pt"
 viewBox="0.00 0.00 828.00 420.00" xmlns="http://www.w3.org/2000/svg" xmlns:xlink="http://www.w3.org/1999/xlink">
<g id="graph0" class="graph" transform="scale(1 1) rotate(0) translate(4 416)">
<title>Graphical Class Hierarchy</title>
<!-- Node0 -->
<g id="Node000000" class="node">
<title>Node0</title>
<g id="a_Node000000"><a xlink:title=" ">
<polygon fill="#e0e0e0" stroke="#999999" points="122,-130 0,-130 0,-111 122,-111 122,-130"/>
<text text-anchor="middle" x="61" y="-118" font-family="Helvetica,sans-Serif" font-size="10.00">BaseInstr::ConfigType</text>
</a>
</g>
</g>
<!-- Node1 -->
<g id="Node000001" class="node">
<title>Node1</title>
<g id="a_Node000001"><a xlink:href="classDynExpInstr_1_1gRPCInstrumentConfigurator.html" target="_top" xlink:title=" ">
<polygon fill="white" stroke="#666666" points="354.5,-241 193.5,-241 193.5,-200 354.5,-200 354.5,-241"/>
<text text-anchor="start" x="201.5" y="-229" font-family="Helvetica,sans-Serif" font-size="10.00">DynExpInstr::gRPCInstrument</text>
<text text-anchor="start" x="201.5" y="-218" font-family="Helvetica,sans-Serif" font-size="10.00">Configurator&lt; BaseInstr,</text>
<text text-anchor="middle" x="274" y="-207" font-family="Helvetica,sans-Serif" font-size="10.00"> 0, gRPCStubs... &gt;</text>
</a>
</g>
</g>
<!-- Node0&#45;&gt;Node1 -->
<g id="edge12_Node000000_Node000001" class="edge">
<title>Node0&#45;&gt;Node1</title>
<g id="a_edge12_Node000000_Node000001"><a xlink:title=" ">
<path fill="none" stroke="#63b8ff" d="M79.94,-136.82C98.3,-152.69 128.26,-176.4 158,-190.5 169.09,-195.76 181.24,-200.19 193.36,-203.9"/>
<polygon fill="#63b8ff" stroke="#63b8ff" points="82.19,-134.13 72.37,-130.14 77.56,-139.38 82.19,-134.13"/>
</a>
</g>
</g>
<!-- Node9 -->
<g id="Node000009" class="node">
<title>Node9</title>
<g id="a_Node000009"><a xlink:href="classDynExpInstr_1_1gRPCInstrumentConfigurator.html" target="_top" xlink:title=" ">
<polygon fill="white" stroke="#666666" points="378,-181.5 170,-181.5 170,-129.5 378,-129.5 378,-181.5"/>
<text text-anchor="start" x="178" y="-169.5" font-family="Helvetica,sans-Serif" font-size="10.00">DynExpInstr::gRPCInstrument</text>
<text text-anchor="start" x="178" y="-158.5" font-family="Helvetica,sans-Serif" font-size="10.00">Configurator&lt; Spectrometer,</text>
<text text-anchor="start" x="178" y="-147.5" font-family="Helvetica,sans-Serif" font-size="10.00"> 0, DynExpProto::NetworkSpectrometer</text>
<text text-anchor="middle" x="274" y="-136.5" font-family="Helvetica,sans-Serif" font-size="10.00">::NetworkSpectrometer &gt;</text>
</a>
</g>
</g>
<!-- Node0&#45;&gt;Node9 -->
<g id="edge20_Node000000_Node000009" class="edge">
<title>Node0&#45;&gt;Node9</title>
<g id="a_edge20_Node000000_Node000009"><a xlink:title=" ">
<path fill="none" stroke="#63b8ff" d="M129.48,-131.69C142.34,-133.83 156.07,-136.1 169.74,-138.37"/>
<polygon fill="#63b8ff" stroke="#63b8ff" points="129.82,-128.2 119.38,-130.02 128.67,-135.11 129.82,-128.2"/>
</a>
</g>
</g>
<!-- Node11 -->
<g id="Node000011" class="node">
<title>Node11</title>
<g id="a_Node000011"><a xlink:href="classDynExpInstr_1_1gRPCInstrumentConfigurator.html" target="_top" xlink:title=" ">
<polygon fill="white" stroke="#666666" points="390,-111.5 158,-111.5 158,-59.5 390,-59.5 390,-111.5"/>
<text text-anchor="start" x="166" y="-99.5" font-family="Helvetica,sans-Serif" font-size="10.00">DynExpInstr::gRPCInstrument</text>
<text text-anchor="start" x="166" y="-88.5" font-family="Helvetica,sans-Serif" font-size="10.00">Configurator&lt; DynExp::Instrument</text>
<text text-anchor="start" x="166" y="-77.5" font-family="Helvetica,sans-Serif" font-size="10.00">Base, 0, DynExpProto::WidefieldLocalization</text>
<text text-anchor="middle" x="274" y="-66.5" font-family="Helvetica,sans-Serif" font-size="10.00">::WidefieldLocalization &gt;</text>
</a>
</g>
</g>
<!-- Node0&#45;&gt;Node11 -->
<g id="edge22_Node000000_Node000011" class="edge">
<title>Node0&#45;&gt;Node11</title>
<g id="a_edge22_Node000000_Node000011"><a xlink:title=" ">
<path fill="none" stroke="#63b8ff" d="M129.51,-109.3C138.67,-107.78 148.26,-106.19 157.97,-104.58"/>
<polygon fill="#63b8ff" stroke="#63b8ff" points="128.67,-105.89 119.38,-110.98 129.82,-112.8 128.67,-105.89"/>
</a>
</g>
</g>
<!-- Node13 -->
<g id="Node000013" class="node">
<title>Node13</title>
<g id="a_Node000013"><a xlink:href="classDynExpInstr_1_1gRPCInstrumentConfigurator.html" target="_top" xlink:title="Configurator class for gRPCInstrument.">
<polygon fill="white" stroke="#666666" points="354.5,-41 193.5,-41 193.5,0 354.5,0 354.5,-41"/>
<text text-anchor="start" x="201.5" y="-29" font-family="Helvetica,sans-Serif" font-size="10.00">DynExpInstr::gRPCInstrument</text>
<text text-anchor="start" x="201.5" y="-18" font-family="Helvetica,sans-Serif" font-size="10.00">Configurator&lt; BaseInstr,</text>
<text text-anchor="middle" x="274" y="-7" font-family="Helvetica,sans-Serif" font-size="10.00">, gRPCStubs &gt;</text>
</a>
</g>
</g>
<!-- Node0&#45;&gt;Node13 -->
<g id="edge24_Node000000_Node000013" class="edge">
<title>Node0&#45;&gt;Node13</title>
<g id="a_edge24_Node000000_Node000013"><a xlink:title=" ">
<path fill="none" stroke="#63b8ff" d="M79.94,-104.18C98.3,-88.31 128.26,-64.6 158,-50.5 169.09,-45.24 181.24,-40.81 193.36,-37.1"/>
<polygon fill="#63b8ff" stroke="#63b8ff" points="77.56,-101.62 72.37,-110.86 82.19,-106.87 77.56,-101.62"/>
</a>
</g>
</g>
<!-- Node2 -->
<g id="Node000002" class="node">
<title>Node2</title>
<g id="a_Node000002"><a xlink:href="classDynExpInstr_1_1NetworkDataStreamInstrumentConfigurator.html" target="_top" xlink:title=" ">
<polygon fill="white" stroke="#666666" points="603,-294 438,-294 438,-253 603,-253 603,-294"/>
<text text-anchor="start" x="446" y="-282" font-family="Helvetica,sans-Serif" font-size="10.00">DynExpInstr::NetworkData</text>
<text text-anchor="start" x="446" y="-271" font-family="Helvetica,sans-Serif" font-size="10.00">StreamInstrumentConfigurator</text>
<text text-anchor="middle" x="520.5" y="-260" font-family="Helvetica,sans-Serif" font-size="10.00">&lt; BaseInstr, 0, gRPCStubs... &gt;</text>
</a>
</g>
</g>
<!-- Node1&#45;&gt;Node2 -->
<g id="edge13_Node000001_Node000002" class="edge">
<title>Node1&#45;&gt;Node2</title>
<g id="a_edge13_Node000001_Node000002"><a xlink:title=" ">
<path fill="none" stroke="#63b8ff" d="M364.51,-239.9C388.48,-245.1 414.27,-250.69 437.79,-255.79"/>
<polygon fill="#63b8ff" stroke="#63b8ff" points="365.23,-236.48 354.72,-237.78 363.75,-243.32 365.23,-236.48"/>
</a>
</g>
</g>
<!-- Node8 -->
<g id="Node000008" class="node">
<title>Node8</title>
<g id="a_Node000008"><a xlink:href="classDynExpInstr_1_1NetworkDataStreamInstrumentConfigurator.html" target="_top" xlink:title=" ">
<polygon fill="white" stroke="#666666" points="603,-235 438,-235 438,-194 603,-194 603,-235"/>
<text text-anchor="start" x="446" y="-223" font-family="Helvetica,sans-Serif" font-size="10.00">DynExpInstr::NetworkData</text>
<text text-anchor="start" x="446" y="-212" font-family="Helvetica,sans-Serif" font-size="10.00">StreamInstrumentConfigurator</text>
<text text-anchor="middle" x="520.5" y="-201" font-family="Helvetica,sans-Serif" font-size="10.00">&lt; BaseInstr,, gRPCStubs &gt;</text>
</a>
</g>
</g>
<!-- Node1&#45;&gt;Node8 -->
<g id="edge19_Node000001_Node000008" class="edge">
<title>Node1&#45;&gt;Node8</title>
<g id="a_edge19_Node000001_Node000008"><a xlink:title=" ">
<path fill="none" stroke="#63b8ff" d="M364.83,-218.3C388.71,-217.71 414.37,-217.08 437.79,-216.51"/>
<polygon fill="#63b8ff" stroke="#63b8ff" points="364.63,-214.8 354.72,-218.54 364.8,-221.8 364.63,-214.8"/>
</a>
</g>
</g>
<!-- Node3 -->
<g id="Node000003" class="node">
<title>Node3</title>
<g id="a_Node000003"><a xlink:href="classDynExpInstr_1_1NetworkAnalogInConfigurator.html" target="_top" xlink:title=" ">
<polygon fill="white" stroke="#666666" points="814,-412 657,-412 657,-371 814,-371 814,-412"/>
<text text-anchor="start" x="665" y="-400" font-family="Helvetica,sans-Serif" font-size="10.00">DynExpInstr::NetworkAnalog</text>
<text text-anchor="start" x="665" y="-389" font-family="Helvetica,sans-Serif" font-size="10.00">InConfigurator&lt; BaseInstr,</text>
<text text-anchor="middle" x="735.5" y="-378" font-family="Helvetica,sans-Serif" font-size="10.00">, gRPCStubs &gt;</text>
</a>
</g>
</g>
<!-- Node2&#45;&gt;Node3 -->
<g id="edge14_Node000002_Node000003" class="edge">
<title>Node2&#45;&gt;Node3</title>
<g id="a_edge14_Node000002_Node000003"><a xlink:title=" ">
<path fill="none" stroke="#63b8ff" d="M555.13,-300.35C580.39,-319.56 616.44,-345.02 651,-362.5 656.89,-365.48 663.15,-368.27 669.51,-370.86"/>
<polygon fill="#63b8ff" stroke="#63b8ff" points="557.05,-297.41 546.99,-294.09 552.79,-302.96 557.05,-297.41"/>
</a>
</g>
</g>
<!-- Node4 -->
<g id="Node000004" class="node">
<title>Node4</title>
<g id="a_Node000004"><a xlink:href="classDynExpInstr_1_1NetworkAnalogOutConfigurator.html" target="_top" xlink:title=" ">
<polygon fill="white" stroke="#666666" points="814,-353 657,-353 657,-312 814,-312 814,-353"/>
<text text-anchor="start" x="665" y="-341" font-family="Helvetica,sans-Serif" font-size="10.00">DynExpInstr::NetworkAnalog</text>
<text text-anchor="start" x="665" y="-330" font-family="Helvetica,sans-Serif" font-size="10.00">OutConfigurator&lt; BaseInstr,</text>
<text text-anchor="middle" x="735.5" y="-319" font-family="Helvetica,sans-Serif" font-size="10.00">, gRPCStubs &gt;</text>
</a>
</g>
</g>
<!-- Node2&#45;&gt;Node4 -->
<g id="edge15_Node000002_Node000004" class="edge">
<title>Node2&#45;&gt;Node4</title>
<g id="a_edge15_Node000002_Node000004"><a xlink:title=" ">
<path fill="none" stroke="#63b8ff" d="M605.36,-296.73C623.47,-301.75 642.49,-307.01 660.21,-311.92"/>
<polygon fill="#63b8ff" stroke="#63b8ff" points="606.27,-293.35 595.7,-294.05 604.4,-300.1 606.27,-293.35"/>
</a>
</g>
</g>
<!-- Node5 -->
<g id="Node000005" class="node">
<title>Node5</title>
<g id="a_Node000005"><a xlink:href="classDynExpInstr_1_1NetworkDigitalInConfigurator.html" target="_top" xlink:title=" ">
<polygon fill="white" stroke="#666666" points="813,-294 658,-294 658,-253 813,-253 813,-294"/>
<text text-anchor="start" x="666" y="-282" font-family="Helvetica,sans-Serif" font-size="10.00">DynExpInstr::NetworkDigital</text>
<text text-anchor="start" x="666" y="-271" font-family="Helvetica,sans-Serif" font-size="10.00">InConfigurator&lt; BaseInstr,</text>
<text text-anchor="middle" x="735.5" y="-260" font-family="Helvetica,sans-Serif" font-size="10.00">, gRPCStubs &gt;</text>
</a>
</g>
</g>
<!-- Node2&#45;&gt;Node5 -->
<g id="edge16_Node000002_Node000005" class="edge">
<title>Node2&#45;&gt;Node5</title>
<g id="a_edge16_Node000002_Node000005"><a xlink:title=" ">
<path fill="none" stroke="#63b8ff" d="M613.43,-273.5C628.25,-273.5 643.46,-273.5 657.87,-273.5"/>
<polygon fill="#63b8ff" stroke="#63b8ff" points="613.24,-270 603.24,-273.5 613.24,-277 613.24,-270"/>
</a>
</g>
</g>
<!-- Node6 -->
<g id="Node000006" class="node">
<title>Node6</title>
<g id="a_Node000006"><a xlink:href="classDynExpInstr_1_1NetworkDigitalOutConfigurator.html" target="_top" xlink:title=" ">
<polygon fill="white" stroke="#666666" points="813,-235 658,-235 658,-194 813,-194 813,-235"/>
<text text-anchor="start" x="666" y="-223" font-family="Helvetica,sans-Serif" font-size="10.00">DynExpInstr::NetworkDigital</text>
<text text-anchor="start" x="666" y="-212" font-family="Helvetica,sans-Serif" font-size="10.00">OutConfigurator&lt; BaseInstr,</text>
<text text-anchor="middle" x="735.5" y="-201" font-family="Helvetica,sans-Serif" font-size="10.00">, gRPCStubs &gt;</text>
</a>
</g>
</g>
<!-- Node2&#45;&gt;Node6 -->
<g id="edge17_Node000002_Node000006" class="edge">
<title>Node2&#45;&gt;Node6</title>
<g id="a_edge17_Node000002_Node000006"><a xlink:title=" ">
<path fill="none" stroke="#63b8ff" d="M605.36,-250.27C623.47,-245.25 642.49,-239.99 660.21,-235.08"/>
<polygon fill="#63b8ff" stroke="#63b8ff" points="604.4,-246.9 595.7,-252.95 606.27,-253.65 604.4,-246.9"/>
</a>
</g>
</g>
<!-- Node7 -->
<g id="Node000007" class="node">
<title>Node7</title>
<g id="a_Node000007"><a xlink:href="classDynExpInstr_1_1NetworkTimeTaggerConfigurator.html" target="_top" xlink:title=" ">
<polygon fill="white" stroke="#666666" points="820,-176 651,-176 651,-135 820,-135 820,-176"/>
<text text-anchor="start" x="659" y="-164" font-family="Helvetica,sans-Serif" font-size="10.00">DynExpInstr::NetworkTime</text>
<text text-anchor="start" x="659" y="-153" font-family="Helvetica,sans-Serif" font-size="10.00">TaggerConfigurator&lt; BaseInstr,</text>
<text text-anchor="middle" x="735.5" y="-142" font-family="Helvetica,sans-Serif" font-size="10.00">, gRPCStubs &gt;</text>
</a>
</g>
</g>
<!-- Node2&#45;&gt;Node7 -->
<g id="edge18_Node000002_Node000007" class="edge">
<title>Node2&#45;&gt;Node7</title>
<g id="a_edge18_Node000002_Node000007"><a xlink:title=" ">
<path fill="none" stroke="#63b8ff" d="M610.74,-247.61C612.19,-246.61 613.62,-245.58 615,-244.5 639.23,-225.62 627.19,-204.91 651,-185.5 655.3,-182 660.04,-178.88 665.01,-176.12"/>
<polygon fill="#63b8ff" stroke="#63b8ff" points="608.75,-244.73 602.04,-252.93 612.4,-250.7 608.75,-244.73"/>
</a>
</g>
</g>
<!-- Node10 -->
<g id="Node000010" class="node">
<title>Node10</title>
<g id="a_Node000010"><a xlink:href="classDynExpInstr_1_1NetworkSpectrometerConfigurator.html" target="_top" xlink:title=" ">
<polygon fill="white" stroke="#666666" points="615,-170.5 426,-170.5 426,-140.5 615,-140.5 615,-170.5"/>
<text text-anchor="start" x="434" y="-158.5" font-family="Helvetica,sans-Serif" font-size="10.00">DynExpInstr::NetworkSpectrometer</text>
<text text-anchor="middle" x="520.5" y="-147.5" font-family="Helvetica,sans-Serif" font-size="10.00">Configurator</text>
</a>
</g>
</g>
<!-- Node9&#45;&gt;Node10 -->
<g id="edge21_Node000009_Node000010" class="edge">
<title>Node9&#45;&gt;Node10</title>
<g id="a_edge21_Node000009_Node000010"><a xlink:title=" ">
<path fill="none" stroke="#63b8ff" d="M388.36,-155.5C400.91,-155.5 413.59,-155.5 425.85,-155.5"/>
<polygon fill="#63b8ff" stroke="#63b8ff" points="388.34,-152 378.34,-155.5 388.34,-159 388.34,-152"/>
</a>
</g>
</g>
<!-- Node12 -->
<g id="Node000012" class="node">
<title>Node12</title>
<g id="a_Node000012"><a xlink:href="classDynExpInstr_1_1WidefieldLocalizationConfigurator.html" target="_top" xlink:title=" ">
<polygon fill="white" stroke="#666666" points="613.5,-100.5 427.5,-100.5 427.5,-70.5 613.5,-70.5 613.5,-100.5"/>
<text text-anchor="start" x="435.5" y="-88.5" font-family="Helvetica,sans-Serif" font-size="10.00">DynExpInstr::WidefieldLocalization</text>
<text text-anchor="middle" x="520.5" y="-77.5" font-family="Helvetica,sans-Serif" font-size="10.00">Configurator</text>
</a>
</g>
</g>
<!-- Node11&#45;&gt;Node12 -->
<g id="edge23_Node000011_Node000012" class="edge">
<title>Node11&#45;&gt;Node12</title>
<g id="a_edge23_Node000011_Node000012"><a xlink:title=" ">
<path fill="none" stroke="#63b8ff" d="M400.36,-85.5C409.46,-85.5 418.54,-85.5 427.39,-85.5"/>
<polygon fill="#63b8ff" stroke="#63b8ff" points="400.09,-82 390.09,-85.5 400.09,-89 400.09,-82"/>
</a>
</g>
</g>
</g>
</svg>
