<?xml version="1.0" encoding="UTF-8" standalone="no"?>
<!DOCTYPE svg PUBLIC "-//W3C//DTD SVG 1.1//EN"
 "http://www.w3.org/Graphics/SVG/1.1/DTD/svg11.dtd">
<!-- Generated by graphviz version 2.43.0 (0)
 -->
<!-- Title: Graphical Class Hierarchy Pages: 1 -->
<svg width="453pt" height="508pt"
 viewBox="0.00 0.00 453.00 508.00" xmlns="http://www.w3.org/2000/svg" xmlns:xlink="http://www.w3.org/1999/xlink">
<g id="graph0" class="graph" transform="scale(1 1) rotate(0) translate(4 504)">
<title>Graphical Class Hierarchy</title>
<!-- Node0 -->
<g id="Node000000" class="node">
<title>Node0</title>
<g id="a_Node000000"><a xlink:title=" ">
<polygon fill="#e0e0e0" stroke="#999999" points="59,-235.5 0,-235.5 0,-216.5 59,-216.5 59,-235.5"/>
<text text-anchor="middle" x="29.5" y="-223.5" font-family="Helvetica,sans-Serif" font-size="10.00">QWidget</text>
</a>
</g>
</g>
<!-- Node1 -->
<g id="Node000001" class="node">
<title>Node1</title>
<g id="a_Node000001"><a xlink:href="classDynExp_1_1QModuleWidget.html" target="_top" xlink:title="Window class for Qt&#45;based user interfaces belonging to DynExp modules. User interface Qt window class...">
<polygon fill="white" stroke="#666666" points="233,-254.5 95,-254.5 95,-235.5 233,-235.5 233,-254.5"/>
<text text-anchor="middle" x="164" y="-242.5" font-family="Helvetica,sans-Serif" font-size="10.00">DynExp::QModuleWidget</text>
</a>
</g>
</g>
<!-- Node0&#45;&gt;Node1 -->
<g id="edge531_Node000000_Node000001" class="edge">
<title>Node0&#45;&gt;Node1</title>
<g id="a_edge531_Node000000_Node000001"><a xlink:title=" ">
<path fill="none" stroke="#63b8ff" d="M69.29,-231.56C77.86,-232.79 87.19,-234.13 96.51,-235.47"/>
<polygon fill="#63b8ff" stroke="#63b8ff" points="69.65,-228.08 59.25,-230.12 68.65,-235.01 69.65,-228.08"/>
</a>
</g>
</g>
<!-- Node13 -->
<g id="Node000013" class="node">
<title>Node13</title>
<g id="a_Node000013"><a xlink:href="classTextEditor.html" target="_top" xlink:title=" ">
<polygon fill="white" stroke="#666666" points="196.5,-217.5 131.5,-217.5 131.5,-198.5 196.5,-198.5 196.5,-217.5"/>
<text text-anchor="middle" x="164" y="-205.5" font-family="Helvetica,sans-Serif" font-size="10.00">TextEditor</text>
</a>
</g>
</g>
<!-- Node0&#45;&gt;Node13 -->
<g id="edge543_Node000000_Node000013" class="edge">
<title>Node0&#45;&gt;Node13</title>
<g id="a_edge543_Node000000_Node000013"><a xlink:title=" ">
<path fill="none" stroke="#63b8ff" d="M69.4,-220.72C89.02,-218.05 112.51,-214.86 131.05,-212.34"/>
<polygon fill="#63b8ff" stroke="#63b8ff" points="68.69,-217.28 59.25,-222.09 69.63,-224.22 68.69,-217.28"/>
</a>
</g>
</g>
<!-- Node2 -->
<g id="Node000002" class="node">
<title>Node2</title>
<g id="a_Node000002"><a xlink:href="classDynExpModule_1_1ImageViewer_1_1ImageViewerWidget.html" target="_top" xlink:title=" ">
<polygon fill="white" stroke="#666666" points="437.5,-500 276.5,-500 276.5,-470 437.5,-470 437.5,-500"/>
<text text-anchor="start" x="284.5" y="-488" font-family="Helvetica,sans-Serif" font-size="10.00">DynExpModule::ImageViewer</text>
<text text-anchor="middle" x="357" y="-477" font-family="Helvetica,sans-Serif" font-size="10.00">::ImageViewerWidget</text>
</a>
</g>
</g>
<!-- Node1&#45;&gt;Node2 -->
<g id="edge532_Node000001_Node000002" class="edge">
<title>Node1&#45;&gt;Node2</title>
<g id="a_edge532_Node000001_Node000002"><a xlink:title=" ">
<path fill="none" stroke="#63b8ff" d="M168.82,-264.92C178.04,-307.57 205.65,-408.11 269,-461 273.09,-464.41 277.63,-467.34 282.42,-469.86"/>
<polygon fill="#63b8ff" stroke="#63b8ff" points="172.21,-264.05 166.77,-254.95 165.35,-265.45 172.21,-264.05"/>
</a>
</g>
</g>
<!-- Node3 -->
<g id="Node000003" class="node">
<title>Node3</title>
<g id="a_Node000003"><a xlink:href="classDynExpModule_1_1InputPortReaderWidget.html" target="_top" xlink:title=" ">
<polygon fill="white" stroke="#666666" points="444.5,-452 269.5,-452 269.5,-422 444.5,-422 444.5,-452"/>
<text text-anchor="start" x="277.5" y="-440" font-family="Helvetica,sans-Serif" font-size="10.00">DynExpModule::InputPortReader</text>
<text text-anchor="middle" x="357" y="-429" font-family="Helvetica,sans-Serif" font-size="10.00">Widget</text>
</a>
</g>
</g>
<!-- Node1&#45;&gt;Node3 -->
<g id="edge533_Node000001_Node000003" class="edge">
<title>Node1&#45;&gt;Node3</title>
<g id="a_edge533_Node000001_Node000003"><a xlink:title=" ">
<path fill="none" stroke="#63b8ff" d="M171.52,-264.28C184.4,-299.37 216.5,-373.68 269,-413 273.64,-416.48 278.76,-419.45 284.11,-421.99"/>
<polygon fill="#63b8ff" stroke="#63b8ff" points="174.78,-262.98 168.14,-254.73 168.18,-265.32 174.78,-262.98"/>
</a>
</g>
</g>
<!-- Node4 -->
<g id="Node000004" class="node">
<title>Node4</title>
<g id="a_Node000004"><a xlink:href="classDynExpModule_1_1LockinAmplifierControlWidget.html" target="_top" xlink:title=" ">
<polygon fill="white" stroke="#666666" points="443,-404 271,-404 271,-374 443,-374 443,-404"/>
<text text-anchor="start" x="279" y="-392" font-family="Helvetica,sans-Serif" font-size="10.00">DynExpModule::LockinAmplifier</text>
<text text-anchor="middle" x="357" y="-381" font-family="Helvetica,sans-Serif" font-size="10.00">ControlWidget</text>
</a>
</g>
</g>
<!-- Node1&#45;&gt;Node4 -->
<g id="edge534_Node000001_Node000004" class="edge">
<title>Node1&#45;&gt;Node4</title>
<g id="a_edge534_Node000001_Node000004"><a xlink:title=" ">
<path fill="none" stroke="#63b8ff" d="M175.99,-263.49C192.7,-290 227.06,-338.53 269,-365 274.43,-368.43 280.36,-371.37 286.48,-373.9"/>
<polygon fill="#63b8ff" stroke="#63b8ff" points="178.86,-261.48 170.64,-254.8 172.9,-265.15 178.86,-261.48"/>
</a>
</g>
</g>
<!-- Node5 -->
<g id="Node000005" class="node">
<title>Node5</title>
<g id="a_Node000005"><a xlink:href="classDynExpModule_1_1ODMR_1_1ODMRWidget.html" target="_top" xlink:title=" ">
<polygon fill="white" stroke="#666666" points="420.5,-356 293.5,-356 293.5,-326 420.5,-326 420.5,-356"/>
<text text-anchor="start" x="301.5" y="-344" font-family="Helvetica,sans-Serif" font-size="10.00">DynExpModule::ODMR</text>
<text text-anchor="middle" x="357" y="-333" font-family="Helvetica,sans-Serif" font-size="10.00">::ODMRWidget</text>
</a>
</g>
</g>
<!-- Node1&#45;&gt;Node5 -->
<g id="edge535_Node000001_Node000005" class="edge">
<title>Node1&#45;&gt;Node5</title>
<g id="a_edge535_Node000001_Node000005"><a xlink:title=" ">
<path fill="none" stroke="#63b8ff" d="M184.05,-261.15C204.03,-277.36 236.94,-302.01 269,-317 276.66,-320.58 284.97,-323.72 293.3,-326.45"/>
<polygon fill="#63b8ff" stroke="#63b8ff" points="186.01,-258.24 176.07,-254.57 181.56,-263.64 186.01,-258.24"/>
</a>
</g>
</g>
<!-- Node6 -->
<g id="Node000006" class="node">
<title>Node6</title>
<g id="a_Node000006"><a xlink:href="classDynExpModule_1_1OutputPortWriterWidget.html" target="_top" xlink:title=" ">
<polygon fill="white" stroke="#666666" points="431.5,-308 282.5,-308 282.5,-278 431.5,-278 431.5,-308"/>
<text text-anchor="start" x="290.5" y="-296" font-family="Helvetica,sans-Serif" font-size="10.00">DynExpModule::OutputPort</text>
<text text-anchor="middle" x="357" y="-285" font-family="Helvetica,sans-Serif" font-size="10.00">WriterWidget</text>
</a>
</g>
</g>
<!-- Node1&#45;&gt;Node6 -->
<g id="edge536_Node000001_Node000006" class="edge">
<title>Node1&#45;&gt;Node6</title>
<g id="a_edge536_Node000001_Node000006"><a xlink:title=" ">
<path fill="none" stroke="#63b8ff" d="M212.89,-257.04C238.1,-263.37 269.26,-271.2 296.06,-277.94"/>
<polygon fill="#63b8ff" stroke="#63b8ff" points="213.74,-253.64 203.19,-254.6 212.04,-260.43 213.74,-253.64"/>
</a>
</g>
</g>
<!-- Node7 -->
<g id="Node000007" class="node">
<title>Node7</title>
<g id="a_Node000007"><a xlink:href="classDynExpModule_1_1SignalDesignerWidget.html" target="_top" xlink:title=" ">
<polygon fill="white" stroke="#666666" points="442,-260 272,-260 272,-230 442,-230 442,-260"/>
<text text-anchor="start" x="280" y="-248" font-family="Helvetica,sans-Serif" font-size="10.00">DynExpModule::SignalDesigner</text>
<text text-anchor="middle" x="357" y="-237" font-family="Helvetica,sans-Serif" font-size="10.00">Widget</text>
</a>
</g>
</g>
<!-- Node1&#45;&gt;Node7 -->
<g id="edge537_Node000001_Node000007" class="edge">
<title>Node1&#45;&gt;Node7</title>
<g id="a_edge537_Node000001_Node000007"><a xlink:title=" ">
<path fill="none" stroke="#63b8ff" d="M243.26,-245C252.69,-245 262.34,-245 271.84,-245"/>
<polygon fill="#63b8ff" stroke="#63b8ff" points="243.15,-241.5 233.15,-245 243.15,-248.5 243.15,-241.5"/>
</a>
</g>
</g>
<!-- Node8 -->
<g id="Node000008" class="node">
<title>Node8</title>
<g id="a_Node000008"><a xlink:href="classDynExpModule_1_1SignalPlotterWidget.html" target="_top" xlink:title=" ">
<polygon fill="white" stroke="#666666" points="436,-212 278,-212 278,-182 436,-182 436,-212"/>
<text text-anchor="start" x="286" y="-200" font-family="Helvetica,sans-Serif" font-size="10.00">DynExpModule::SignalPlotter</text>
<text text-anchor="middle" x="357" y="-189" font-family="Helvetica,sans-Serif" font-size="10.00">Widget</text>
</a>
</g>
</g>
<!-- Node1&#45;&gt;Node8 -->
<g id="edge538_Node000001_Node000008" class="edge">
<title>Node1&#45;&gt;Node8</title>
<g id="a_edge538_Node000001_Node000008"><a xlink:title=" ">
<path fill="none" stroke="#63b8ff" d="M212.89,-232.96C238.1,-226.63 269.26,-218.8 296.06,-212.06"/>
<polygon fill="#63b8ff" stroke="#63b8ff" points="212.04,-229.57 203.19,-235.4 213.74,-236.36 212.04,-229.57"/>
</a>
</g>
</g>
<!-- Node9 -->
<g id="Node000009" class="node">
<title>Node9</title>
<g id="a_Node000009"><a xlink:href="classDynExpModule_1_1SpectrumViewer_1_1SpectrumViewerWidget.html" target="_top" xlink:title=" ">
<polygon fill="white" stroke="#666666" points="445,-164 269,-164 269,-134 445,-134 445,-164"/>
<text text-anchor="start" x="277" y="-152" font-family="Helvetica,sans-Serif" font-size="10.00">DynExpModule::SpectrumViewer</text>
<text text-anchor="middle" x="357" y="-141" font-family="Helvetica,sans-Serif" font-size="10.00">::SpectrumViewerWidget</text>
</a>
</g>
</g>
<!-- Node1&#45;&gt;Node9 -->
<g id="edge539_Node000001_Node000009" class="edge">
<title>Node1&#45;&gt;Node9</title>
<g id="a_edge539_Node000001_Node000009"><a xlink:title=" ">
<path fill="none" stroke="#63b8ff" d="M226.43,-231.11C228.71,-229.86 230.91,-228.49 233,-227 256.46,-210.22 245.62,-189.9 269,-173 273.7,-169.6 278.86,-166.69 284.24,-164.18"/>
<polygon fill="#63b8ff" stroke="#63b8ff" points="224.84,-227.99 217.28,-235.41 227.82,-234.33 224.84,-227.99"/>
</a>
</g>
</g>
<!-- Node10 -->
<g id="Node000010" class="node">
<title>Node10</title>
<g id="a_Node000010"><a xlink:href="classDynExpModule_1_1Stage1DWidget.html" target="_top" xlink:title=" ">
<polygon fill="white" stroke="#666666" points="443,-115.5 271,-115.5 271,-96.5 443,-96.5 443,-115.5"/>
<text text-anchor="middle" x="357" y="-103.5" font-family="Helvetica,sans-Serif" font-size="10.00">DynExpModule::Stage1DWidget</text>
</a>
</g>
</g>
<!-- Node1&#45;&gt;Node10 -->
<g id="edge540_Node000001_Node000010" class="edge">
<title>Node1&#45;&gt;Node10</title>
<g id="a_edge540_Node000001_Node000010"><a xlink:title=" ">
<path fill="none" stroke="#63b8ff" d="M229.39,-230C230.64,-229.06 231.85,-228.06 233,-227 268.33,-194.4 232.96,-156.82 269,-125 273.29,-121.21 278.15,-118.13 283.34,-115.61"/>
<polygon fill="#63b8ff" stroke="#63b8ff" points="227.24,-227.22 220.54,-235.42 230.9,-233.19 227.24,-227.22"/>
</a>
</g>
</g>
<!-- Node11 -->
<g id="Node000011" class="node">
<title>Node11</title>
<g id="a_Node000011"><a xlink:href="classDynExpModule_1_1Trajectory1DWidget.html" target="_top" xlink:title=" ">
<polygon fill="white" stroke="#666666" points="432,-78 282,-78 282,-48 432,-48 432,-78"/>
<text text-anchor="start" x="290" y="-66" font-family="Helvetica,sans-Serif" font-size="10.00">DynExpModule::Trajectory1</text>
<text text-anchor="middle" x="357" y="-55" font-family="Helvetica,sans-Serif" font-size="10.00">DWidget</text>
</a>
</g>
</g>
<!-- Node1&#45;&gt;Node11 -->
<g id="edge541_Node000001_Node000011" class="edge">
<title>Node1&#45;&gt;Node11</title>
<g id="a_edge541_Node000001_Node000011"><a xlink:title=" ">
<path fill="none" stroke="#63b8ff" d="M230.04,-229.71C231.07,-228.85 232.06,-227.95 233,-227 278,-181.75 224.47,-133.72 269,-88 272.73,-84.17 277,-80.92 281.61,-78.16"/>
<polygon fill="#63b8ff" stroke="#63b8ff" points="227.88,-226.94 221.51,-235.4 231.77,-232.76 227.88,-226.94"/>
</a>
</g>
</g>
<!-- Node12 -->
<g id="Node000012" class="node">
<title>Node12</title>
<g id="a_Node000012"><a xlink:href="classDynExpModule_1_1Widefield_1_1WidefieldMicroscopeWidget.html" target="_top" xlink:title=" ">
<polygon fill="white" stroke="#666666" points="436,-30 278,-30 278,0 436,0 436,-30"/>
<text text-anchor="start" x="286" y="-18" font-family="Helvetica,sans-Serif" font-size="10.00">DynExpModule::Widefield</text>
<text text-anchor="middle" x="357" y="-7" font-family="Helvetica,sans-Serif" font-size="10.00">::WidefieldMicroscopeWidget</text>
</a>
</g>
</g>
<!-- Node1&#45;&gt;Node12 -->
<g id="edge542_Node000001_Node000012" class="edge">
<title>Node1&#45;&gt;Node12</title>
<g id="a_edge542_Node000001_Node000012"><a xlink:title=" ">
<path fill="none" stroke="#63b8ff" d="M230.52,-229.43C231.38,-228.66 232.21,-227.85 233,-227 291.03,-164.79 211.3,-101.51 269,-39 272.19,-35.55 275.82,-32.57 279.76,-30.01"/>
<polygon fill="#63b8ff" stroke="#63b8ff" points="228.18,-226.8 222.06,-235.45 232.24,-232.51 228.18,-226.8"/>
</a>
</g>
</g>
</g>
</svg>
