<?xml version="1.0" encoding="UTF-8" standalone="no"?>
<!DOCTYPE svg PUBLIC "-//W3C//DTD SVG 1.1//EN"
 "http://www.w3.org/Graphics/SVG/1.1/DTD/svg11.dtd">
<!-- Generated by graphviz version 2.43.0 (0)
 -->
<!-- Title: Graphical Class Hierarchy Pages: 1 -->
<svg width="388pt" height="137pt"
 viewBox="0.00 0.00 388.00 137.00" xmlns="http://www.w3.org/2000/svg" xmlns:xlink="http://www.w3.org/1999/xlink">
<g id="graph0" class="graph" transform="scale(1 1) rotate(0) translate(4 133)">
<title>Graphical Class Hierarchy</title>
<polygon fill="white" stroke="transparent" points="-4,4 -4,-133 384,-133 384,4 -4,4"/>
<!-- Node0 -->
<g id="node1" class="node">
<title>Node0</title>
<g id="a_node1"><a xlink:href="structDynExpInstr_1_1FunctionGeneratorDefs_1_1FunctionDescType.html" target="_top" xlink:title="Type describing a generic periodic function.">
<polygon fill="white" stroke="black" points="0,-49.5 0,-79.5 172,-79.5 172,-49.5 0,-49.5"/>
<text text-anchor="start" x="8" y="-67.5" font-family="Helvetica,sans-Serif" font-size="10.00">DynExpInstr::FunctionGenerator</text>
<text text-anchor="middle" x="86" y="-56.5" font-family="Helvetica,sans-Serif" font-size="10.00">Defs::FunctionDescType</text>
</a>
</g>
</g>
<!-- Node1 -->
<g id="node2" class="node">
<title>Node1</title>
<g id="a_node2"><a xlink:href="structDynExpInstr_1_1FunctionGeneratorDefs_1_1RampFunctionDescType.html" target="_top" xlink:title="Type describing a ramp function.">
<polygon fill="white" stroke="black" points="208,-98.5 208,-128.5 380,-128.5 380,-98.5 208,-98.5"/>
<text text-anchor="start" x="216" y="-116.5" font-family="Helvetica,sans-Serif" font-size="10.00">DynExpInstr::FunctionGenerator</text>
<text text-anchor="middle" x="294" y="-105.5" font-family="Helvetica,sans-Serif" font-size="10.00">Defs::RampFunctionDescType</text>
</a>
</g>
</g>
<!-- Node0&#45;&gt;Node1 -->
<g id="edge1" class="edge">
<title>Node0&#45;&gt;Node1</title>
<path fill="none" stroke="midnightblue" d="M160.17,-81.9C182.96,-87.32 207.88,-93.25 229.91,-98.49"/>
<polygon fill="midnightblue" stroke="midnightblue" points="160.75,-78.44 150.21,-79.53 159.13,-85.25 160.75,-78.44"/>
</g>
<!-- Node2 -->
<g id="node3" class="node">
<title>Node2</title>
<g id="a_node3"><a xlink:href="structDynExpInstr_1_1FunctionGeneratorDefs_1_1RectFunctionDescType.html" target="_top" xlink:title="Type describing a rectangular function.">
<polygon fill="white" stroke="black" points="208,-49.5 208,-79.5 380,-79.5 380,-49.5 208,-49.5"/>
<text text-anchor="start" x="216" y="-67.5" font-family="Helvetica,sans-Serif" font-size="10.00">DynExpInstr::FunctionGenerator</text>
<text text-anchor="middle" x="294" y="-56.5" font-family="Helvetica,sans-Serif" font-size="10.00">Defs::RectFunctionDescType</text>
</a>
</g>
</g>
<!-- Node0&#45;&gt;Node2 -->
<g id="edge2" class="edge">
<title>Node0&#45;&gt;Node2</title>
<path fill="none" stroke="midnightblue" d="M182.51,-64.5C190.95,-64.5 199.45,-64.5 207.79,-64.5"/>
<polygon fill="midnightblue" stroke="midnightblue" points="182.28,-61 172.28,-64.5 182.28,-68 182.28,-61"/>
</g>
<!-- Node3 -->
<g id="node4" class="node">
<title>Node3</title>
<g id="a_node4"><a xlink:href="structDynExpInstr_1_1FunctionGeneratorDefs_1_1SineFunctionDescType.html" target="_top" xlink:title="Type describing a sine function.">
<polygon fill="white" stroke="black" points="208,-0.5 208,-30.5 380,-30.5 380,-0.5 208,-0.5"/>
<text text-anchor="start" x="216" y="-18.5" font-family="Helvetica,sans-Serif" font-size="10.00">DynExpInstr::FunctionGenerator</text>
<text text-anchor="middle" x="294" y="-7.5" font-family="Helvetica,sans-Serif" font-size="10.00">Defs::SineFunctionDescType</text>
</a>
</g>
</g>
<!-- Node0&#45;&gt;Node3 -->
<g id="edge3" class="edge">
<title>Node0&#45;&gt;Node3</title>
<path fill="none" stroke="midnightblue" d="M160.17,-47.1C182.96,-41.68 207.88,-35.75 229.91,-30.51"/>
<polygon fill="midnightblue" stroke="midnightblue" points="159.13,-43.75 150.21,-49.47 160.75,-50.56 159.13,-43.75"/>
</g>
</g>
</svg>
