<?xml version="1.0" encoding="UTF-8" standalone="no"?>
<!DOCTYPE svg PUBLIC "-//W3C//DTD SVG 1.1//EN"
 "http://www.w3.org/Graphics/SVG/1.1/DTD/svg11.dtd">
<!-- Generated by graphviz version 2.43.0 (0)
 -->
<!-- Title: Graphical Class Hierarchy Pages: 1 -->
<svg width="490pt" height="61pt"
 viewBox="0.00 0.00 490.00 61.00" xmlns="http://www.w3.org/2000/svg" xmlns:xlink="http://www.w3.org/1999/xlink">
<g id="graph0" class="graph" transform="scale(1 1) rotate(0) translate(4 57)">
<title>Graphical Class Hierarchy</title>
<polygon fill="white" stroke="transparent" points="-4,4 -4,-57 486,-57 486,4 -4,4"/>
<!-- Node0 -->
<g id="node1" class="node">
<title>Node0</title>
<g id="a_node1"><a xlink:href="classDynExpModule_1_1gRPCModule_1_1CallDataBase.html" target="_top" xlink:title="Base class for all TypedCallDataBase classes. Instances of this class manage the state of a single re...">
<polygon fill="white" stroke="black" points="0,-11.5 0,-41.5 178,-41.5 178,-11.5 0,-11.5"/>
<text text-anchor="start" x="8" y="-29.5" font-family="Helvetica,sans-Serif" font-size="10.00">DynExpModule::gRPCModule</text>
<text text-anchor="middle" x="89" y="-18.5" font-family="Helvetica,sans-Serif" font-size="10.00">&lt; gRPCServices &gt;::CallDataBase</text>
</a>
</g>
</g>
<!-- Node1 -->
<g id="node2" class="node">
<title>Node1</title>
<g id="a_node2"><a xlink:href="classDynExpModule_1_1gRPCModule_1_1TypedCallDataBase.html" target="_top" xlink:title="Derive from this class to implement a single remote procedure call handled by this gRPC server gRPCMo...">
<polygon fill="white" stroke="black" points="214,-0.5 214,-52.5 482,-52.5 482,-0.5 214,-0.5"/>
<text text-anchor="start" x="222" y="-40.5" font-family="Helvetica,sans-Serif" font-size="10.00">DynExpModule::gRPCModule</text>
<text text-anchor="start" x="222" y="-29.5" font-family="Helvetica,sans-Serif" font-size="10.00">&lt; gRPCServices &gt;::TypedCallData</text>
<text text-anchor="start" x="222" y="-18.5" font-family="Helvetica,sans-Serif" font-size="10.00">Base&lt; DerivedType, gRPCService,</text>
<text text-anchor="middle" x="348" y="-7.5" font-family="Helvetica,sans-Serif" font-size="10.00"> RequestMessageType, ResponseMessageType,... &gt;</text>
</a>
</g>
</g>
<!-- Node0&#45;&gt;Node1 -->
<g id="edge1" class="edge">
<title>Node0&#45;&gt;Node1</title>
<path fill="none" stroke="midnightblue" d="M188.28,-26.5C196.72,-26.5 205.34,-26.5 214,-26.5"/>
<polygon fill="midnightblue" stroke="midnightblue" points="188.09,-23 178.09,-26.5 188.09,-30 188.09,-23"/>
</g>
</g>
</svg>
