<?xml version="1.0" encoding="UTF-8" standalone="no"?>
<!DOCTYPE svg PUBLIC "-//W3C//DTD SVG 1.1//EN"
 "http://www.w3.org/Graphics/SVG/1.1/DTD/svg11.dtd">
<!-- Generated by graphviz version 2.43.0 (0)
 -->
<!-- Title: DynExpInstr::FunctionGeneratorDefs::FunctionDescType Pages: 1 -->
<svg width="388pt" height="134pt"
 viewBox="0.00 0.00 388.00 134.00" xmlns="http://www.w3.org/2000/svg" xmlns:xlink="http://www.w3.org/1999/xlink">
<g id="graph0" class="graph" transform="scale(1 1) rotate(0) translate(4 130)">
<title>DynExpInstr::FunctionGeneratorDefs::FunctionDescType</title>
<!-- Node1 -->
<g id="Node000001" class="node">
<title>Node1</title>
<g id="a_Node000001"><a xlink:title="Type describing a generic periodic function.">
<polygon fill="#999999" stroke="#666666" points="172,-78 0,-78 0,-48 172,-48 172,-78"/>
<text text-anchor="start" x="8" y="-66" font-family="Helvetica,sans-Serif" font-size="10.00">DynExpInstr::FunctionGenerator</text>
<text text-anchor="middle" x="86" y="-55" font-family="Helvetica,sans-Serif" font-size="10.00">Defs::FunctionDescType</text>
</a>
</g>
</g>
<!-- Node2 -->
<g id="Node000002" class="node">
<title>Node2</title>
<g id="a_Node000002"><a xlink:href="structDynExpInstr_1_1FunctionGeneratorDefs_1_1RampFunctionDescType.html" target="_top" xlink:title="Type describing a ramp function.">
<polygon fill="white" stroke="#666666" points="380,-126 208,-126 208,-96 380,-96 380,-126"/>
<text text-anchor="start" x="216" y="-114" font-family="Helvetica,sans-Serif" font-size="10.00">DynExpInstr::FunctionGenerator</text>
<text text-anchor="middle" x="294" y="-103" font-family="Helvetica,sans-Serif" font-size="10.00">Defs::RampFunctionDescType</text>
</a>
</g>
</g>
<!-- Node1&#45;&gt;Node2 -->
<g id="edge1_Node000001_Node000002" class="edge">
<title>Node1&#45;&gt;Node2</title>
<g id="a_edge1_Node000001_Node000002"><a xlink:title=" ">
<path fill="none" stroke="#63b8ff" d="M161.56,-80.37C183.52,-85.49 207.35,-91.04 228.61,-96"/>
<polygon fill="#63b8ff" stroke="#63b8ff" points="162.15,-76.92 151.61,-78.06 160.56,-83.73 162.15,-76.92"/>
</a>
</g>
</g>
<!-- Node3 -->
<g id="Node000003" class="node">
<title>Node3</title>
<g id="a_Node000003"><a xlink:href="structDynExpInstr_1_1FunctionGeneratorDefs_1_1RectFunctionDescType.html" target="_top" xlink:title="Type describing a rectangular function.">
<polygon fill="white" stroke="#666666" points="380,-78 208,-78 208,-48 380,-48 380,-78"/>
<text text-anchor="start" x="216" y="-66" font-family="Helvetica,sans-Serif" font-size="10.00">DynExpInstr::FunctionGenerator</text>
<text text-anchor="middle" x="294" y="-55" font-family="Helvetica,sans-Serif" font-size="10.00">Defs::RectFunctionDescType</text>
</a>
</g>
</g>
<!-- Node1&#45;&gt;Node3 -->
<g id="edge2_Node000001_Node000003" class="edge">
<title>Node1&#45;&gt;Node3</title>
<g id="a_edge2_Node000001_Node000003"><a xlink:title=" ">
<path fill="none" stroke="#63b8ff" d="M182.51,-63C190.95,-63 199.45,-63 207.79,-63"/>
<polygon fill="#63b8ff" stroke="#63b8ff" points="182.28,-59.5 172.28,-63 182.28,-66.5 182.28,-59.5"/>
</a>
</g>
</g>
<!-- Node4 -->
<g id="Node000004" class="node">
<title>Node4</title>
<g id="a_Node000004"><a xlink:href="structDynExpInstr_1_1FunctionGeneratorDefs_1_1SineFunctionDescType.html" target="_top" xlink:title="Type describing a sine function.">
<polygon fill="white" stroke="#666666" points="380,-30 208,-30 208,0 380,0 380,-30"/>
<text text-anchor="start" x="216" y="-18" font-family="Helvetica,sans-Serif" font-size="10.00">DynExpInstr::FunctionGenerator</text>
<text text-anchor="middle" x="294" y="-7" font-family="Helvetica,sans-Serif" font-size="10.00">Defs::SineFunctionDescType</text>
</a>
</g>
</g>
<!-- Node1&#45;&gt;Node4 -->
<g id="edge3_Node000001_Node000004" class="edge">
<title>Node1&#45;&gt;Node4</title>
<g id="a_edge3_Node000001_Node000004"><a xlink:title=" ">
<path fill="none" stroke="#63b8ff" d="M161.56,-45.63C183.52,-40.51 207.35,-34.96 228.61,-30"/>
<polygon fill="#63b8ff" stroke="#63b8ff" points="160.56,-42.27 151.61,-47.94 162.15,-49.08 160.56,-42.27"/>
</a>
</g>
</g>
</g>
</svg>
