<?xml version="1.0" encoding="UTF-8" standalone="no"?>
<svg
   xmlns:dc="http://purl.org/dc/elements/1.1/"
   xmlns:cc="http://creativecommons.org/ns#"
   xmlns:rdf="http://www.w3.org/1999/02/22-rdf-syntax-ns#"
   xmlns:svg="http://www.w3.org/2000/svg"
   xmlns="http://www.w3.org/2000/svg"
   xmlns:xlink="http://www.w3.org/1999/xlink"
   xmlns:sodipodi="http://sodipodi.sourceforge.net/DTD/sodipodi-0.dtd"
   xmlns:inkscape="http://www.inkscape.org/namespaces/inkscape"
   width="256"
   height="256"
   viewBox="0 0 67.733333 67.733333"
   version="1.1"
   id="svg1254"
   inkscape:version="1.0 (4035a4fb49, 2020-05-01)"
   sodipodi:docname="DynExp.svg">
  <title
     id="title2084">DynExp</title>
  <defs
     id="defs1248">
    <marker
       inkscape:stockid="DotS"
       orient="auto"
       refY="0"
       refX="0"
       id="marker968"
       style="overflow:visible"
       inkscape:isstock="true">
      <path
         id="path966"
         d="m -2.5,-1 c 0,2.76 -2.24,5 -5,5 -2.76,0 -5,-2.24 -5,-5 0,-2.76 2.24,-5 5,-5 2.76,0 5,2.24 5,5 z"
         style="fill:#00ccff;fill-opacity:1;fill-rule:evenodd;stroke:#00ccff;stroke-width:1pt;stroke-opacity:1"
         transform="matrix(0.2,0,0,0.2,1.48,0.2)" />
    </marker>
    <marker
       inkscape:isstock="true"
       style="overflow:visible"
       id="marker3730-2-4-5-8"
       refX="0"
       refY="0"
       orient="auto"
       inkscape:stockid="DotS">
      <path
         transform="matrix(0.2,0,0,0.2,1.48,0.2)"
         style="fill:#2affd5;fill-opacity:1;fill-rule:evenodd;stroke:#2affd5;stroke-width:1pt;stroke-opacity:1"
         d="m -2.5,-1 c 0,2.76 -2.24,5 -5,5 -2.76,0 -5,-2.24 -5,-5 0,-2.76 2.24,-5 5,-5 2.76,0 5,2.24 5,5 z"
         id="path3728-7-1-6-9" />
    </marker>
    <marker
       inkscape:isstock="true"
       style="overflow:visible"
       id="marker3600-1-8-8-3"
       refX="0"
       refY="0"
       orient="auto"
       inkscape:stockid="DotS">
      <path
         transform="matrix(0.2,0,0,0.2,1.48,0.2)"
         style="fill:#00ccff;fill-opacity:1;fill-rule:evenodd;stroke:#00ccff;stroke-width:1pt;stroke-opacity:1"
         d="m -2.5,-1 c 0,2.76 -2.24,5 -5,5 -2.76,0 -5,-2.24 -5,-5 0,-2.76 2.24,-5 5,-5 2.76,0 5,2.24 5,5 z"
         id="path3598-1-8-9-2" />
    </marker>
    <linearGradient
       gradientTransform="translate(5.0472626,4.8570206)"
       inkscape:collect="always"
       xlink:href="#linearGradient4112"
       id="linearGradient3040-0-7"
       x1="82.212067"
       y1="241.27365"
       x2="86.797768"
       y2="243.12926"
       gradientUnits="userSpaceOnUse" />
    <linearGradient
       id="linearGradient4112"
       inkscape:collect="always">
      <stop
         id="stop4108"
         offset="0"
         style="stop-color:#2affd5;stop-opacity:1" />
      <stop
         id="stop4110"
         offset="1"
         style="stop-color:#0066ff;stop-opacity:1" />
    </linearGradient>
  </defs>
  <sodipodi:namedview
     inkscape:snap-global="false"
     inkscape:snap-intersection-paths="false"
     inkscape:snap-smooth-nodes="false"
     inkscape:object-paths="true"
     id="base"
     pagecolor="#ffffff"
     bordercolor="#666666"
     borderopacity="1.0"
     inkscape:pageopacity="0.0"
     inkscape:pageshadow="2"
     inkscape:zoom="1.4142136"
     inkscape:cx="59.0876"
     inkscape:cy="134.2854"
     inkscape:document-units="mm"
     inkscape:current-layer="g2261"
     inkscape:document-rotation="0"
     showgrid="false"
     fit-margin-top="0"
     fit-margin-left="0"
     fit-margin-right="0"
     fit-margin-bottom="0"
     units="px"
     scale-x="0.307"
     inkscape:window-width="1680"
     inkscape:window-height="987"
     inkscape:window-x="-8"
     inkscape:window-y="14"
     inkscape:window-maximized="1"
     inkscape:snap-bbox="false"
     inkscape:snap-nodes="true"
     inkscape:snap-bbox-edge-midpoints="true"
     inkscape:bbox-nodes="true"
     inkscape:bbox-paths="true"
     inkscape:snap-bbox-midpoints="true">
    <inkscape:grid
       type="xygrid"
       id="grid954" />
  </sodipodi:namedview>
  <metadata
     id="metadata1251">
    <rdf:RDF>
      <cc:Work
         rdf:about="">
        <dc:format>image/svg+xml</dc:format>
        <dc:type
           rdf:resource="http://purl.org/dc/dcmitype/StillImage" />
        <dc:title>DynExp</dc:title>
        <dc:contributor>
          <cc:Agent>
            <dc:title />
          </cc:Agent>
        </dc:contributor>
        <dc:description>Logo of DynExp</dc:description>
        <dc:rights>
          <cc:Agent>
            <dc:title>Copyright (C) Julian M. Bopp</dc:title>
          </cc:Agent>
        </dc:rights>
        <dc:creator>
          <cc:Agent>
            <dc:title>Julian M. Bopp</dc:title>
          </cc:Agent>
        </dc:creator>
      </cc:Work>
    </rdf:RDF>
  </metadata>
  <g
     inkscape:label="Ebene 1"
     inkscape:groupmode="layer"
     id="layer1"
     transform="translate(-91.062234,-231.52392)">
    <g
       id="g2133"
       transform="translate(0.16167982,0.01622578)">
      <g
         id="g2261"
         transform="matrix(3.2215339,0,0,3.2215339,-149.16531,-517.84118)">
        <path
           style="color:#000000;font-style:normal;font-variant:normal;font-weight:normal;font-stretch:normal;font-size:medium;line-height:normal;font-family:sans-serif;font-variant-ligatures:normal;font-variant-position:normal;font-variant-caps:normal;font-variant-numeric:normal;font-variant-alternates:normal;font-variant-east-asian:normal;font-feature-settings:normal;font-variation-settings:normal;text-indent:0;text-align:start;text-decoration:none;text-decoration-line:none;text-decoration-style:solid;text-decoration-color:#000000;letter-spacing:normal;word-spacing:normal;text-transform:none;writing-mode:lr-tb;direction:ltr;text-orientation:mixed;dominant-baseline:auto;baseline-shift:baseline;text-anchor:start;white-space:normal;shape-padding:0;shape-margin:0;inline-size:0;clip-rule:nonzero;display:inline;overflow:visible;visibility:visible;opacity:0.999;isolation:auto;mix-blend-mode:normal;color-interpolation:sRGB;color-interpolation-filters:linearRGB;solid-color:#000000;solid-opacity:1;vector-effect:none;fill:#b3b3b3;fill-opacity:1;fill-rule:evenodd;stroke:none;stroke-width:2.2;stroke-linecap:butt;stroke-linejoin:miter;stroke-miterlimit:4;stroke-dasharray:0.22, 0.22000000000000000;stroke-dashoffset:0;stroke-opacity:1;color-rendering:auto;image-rendering:auto;shape-rendering:auto;text-rendering:auto;enable-background:accumulate;stop-color:#000000;stop-opacity:1"
           d="m 85.989583,234.15625 -0.759114,0.2207 h 2.199219 v -0.2207 z m -0.759114,0.43945 v 0.22071 h 2.199219 v -0.22071 z m 0,0.44141 v 0.21875 h 2.199219 v -0.21875 z m 0,0.43945 v 0.21875 h 2.199219 v -0.21875 z m 0,0.43946 v 0.2207 h 2.199219 v -0.2207 z m 0,0.43945 v 0.2207 h 2.199219 v -0.2207 z m 2.201172,0.3418 -2.189453,0.19726 c 0.01079,0.1194 0.02916,0.24011 0.05664,0.36133 l 2.144531,-0.48633 c -0.005,-0.0219 -0.0093,-0.0456 -0.01172,-0.0723 z m 0.04297,0.20312 -2.101562,0.65234 0.05078,0.16407 0.0332,0.0898 2.070313,-0.74219 -0.01563,-0.0449 z m 0.117188,0.33203 -2.042969,0.81836 0.03125,0.0762 0.07031,0.15821 2.013671,-0.88282 -0.05469,-0.12695 z m 0.152344,0.33985 -1.988282,0.9414 0.01172,0.0274 0.09766,0.19336 1.964844,-0.99024 -0.08398,-0.16992 z m 0.179687,0.3457 -1.943359,1.03125 0.0059,0.0117 0.111328,0.19922 1.921875,-1.06836 z m 0.197266,0.34765 -1.904297,1.10157 0.01563,0.0273 0.105469,0.17578 1.886718,-1.13086 -0.09766,-0.16211 z m 0.210937,0.34961 -1.871093,1.15625 0.04102,0.0645 0.08398,0.13281 1.857421,-1.17969 -0.07813,-0.12109 z m 0.222657,0.34961 -1.84375,1.19922 0.08203,0.12696 0.04492,0.0664 1.832031,-1.21875 -0.03711,-0.0566 z m 0.228515,0.34571 -1.816406,1.24023 0.123047,0.18164 1.818359,-1.24023 z m 0.248047,0.36328 -1.816406,1.24023 0.05273,0.0762 0.08203,0.11719 1.798829,-1.26367 -0.07227,-0.10547 z m 0.244141,0.34961 -1.800782,1.26367 0.126953,0.18164 0.0078,0.008 1.785156,-1.2832 h 0.002 z m 0.248047,0.34765 -1.78711,1.28516 0.128906,0.17773 1.78711,-1.2832 z M 89.775391,240.7207 88,242.01953 l 0.128906,0.17774 1.777344,-1.29883 z m 0.259765,0.35547 -1.77539,1.29883 0.05078,0.0684 0.08398,0.11523 1.767578,-1.31054 -0.08008,-0.10743 z m 0.257813,0.34961 -1.767578,1.3086 0.130859,0.17773 1.767578,-1.31055 z m 0.259765,0.34766 -1.761718,1.31836 0.130859,0.17578 1.761719,-1.31836 z m 0.263672,0.35351 -1.761718,1.31641 0.130859,0.17773 1.761719,-1.31836 z m 0.263672,0.35157 -1.761719,1.31836 0.09961,0.13281 0.03125,0.043 1.761719,-1.31836 -0.03125,-0.041 z m 0.263672,0.35156 -1.761719,1.31836 0.13086,0.17578 1.761718,-1.31641 z m 0.263672,0.35351 -1.761719,1.31836 0.130859,0.17578 1.761719,-1.31835 z m 0.263672,0.35157 -1.761719,1.31836 0.04687,0.0644 0.08008,0.10742 1.767578,-1.30859 -0.08203,-0.11328 z m 0.263672,0.35742 -1.767578,1.31054 0.130859,0.17579 1.767578,-1.3086 z m 0.265625,0.35937 -1.775391,1.29883 0.128906,0.17774 1.775391,-1.29883 z m 0.265625,0.36328 -1.78711,1.28516 0.128906,0.17773 1.785157,-1.28515 z m 0.255859,0.35743 -1.785156,1.2832 0.06445,0.0937 0.05469,0.0762 1.800782,-1.26367 -0.06055,-0.0879 z m 0.261719,0.36914 -1.800782,1.26367 0.126954,0.18164 1.798828,-1.26563 z m 0.259765,0.37304 -1.818359,1.24024 0.125,0.18164 1.816406,-1.24024 z m 0.253907,0.37696 -1.832032,1.21679 0.09961,0.15039 0.01563,0.0234 1.84375,-1.19922 -0.01953,-0.0312 z m 0.248046,0.375 -1.845703,1.19922 0.002,0.004 0.109376,0.17188 1.857421,-1.17774 -0.115234,-0.18359 z m 0.246094,0.39453 -1.871094,1.15625 0.03516,0.0547 0.07227,0.12109 1.886719,-1.13086 -0.08008,-0.13281 z m 0.242188,0.40429 -1.904297,1.10352 0.04883,0.084 0.05078,0.0898 1.921875,-1.06836 -0.05859,-0.10742 z m 0.234375,0.41993 -1.94336,1.0332 0.04492,0.0859 0.04492,0.0879 1.964844,-0.99024 -0.05469,-0.10937 z m 0.21875,0.43945 -1.988281,0.94141 0.02734,0.0566 0.05078,0.11523 2.013672,-0.88476 -0.0625,-0.14258 z m 0.199219,0.46289 -2.039063,0.82422 c 0.01569,0.0389 0.02976,0.0761 0.04102,0.11328 l 2.105468,-0.63672 c -0.03125,-0.1032 -0.0682,-0.20365 -0.107421,-0.30078 z m 0.175781,0.54102 -2.121094,0.58007 c 0.0096,0.0352 0.01334,0.0618 0.01563,0.0781 l 2.179688,-0.30664 c -0.0181,-0.12897 -0.0452,-0.24539 -0.07422,-0.35156 z m 0.105469,0.69726 -2.199219,0.0508 v 0.0156 l -0.002,0.16601 2.199218,0.0273 0.002,-0.20703 z m -2.208985,0.43164 c -0.0011,0.0341 -0.0038,0.08 -0.0098,0.13477 l 2.185546,0.23828 c 0.01,-0.091 0.01996,-0.19218 0.02344,-0.30469 z m -0.0293,0.27344 c -0.0092,0.0504 -0.01803,0.0792 -0.01953,0.084 l 2.101563,0.65625 c 0.0422,-0.1351 0.06497,-0.25204 0.08203,-0.3457 z m -0.04687,0.16211 c -0.0095,0.0209 -0.01367,0.0267 -0.0059,0.0156 l 1.800781,1.26563 c 0.09218,-0.13106 0.157844,-0.25668 0.208985,-0.36914 z m -0.04687,0.0664 c -0.0037,0.004 -0.01135,0.0128 -0.02539,0.0234 l 1.332031,1.75196 c 0.102689,-0.0781 0.204197,-0.16831 0.300781,-0.27149 z m -0.101562,0.0762 c -0.05624,0.0333 -0.09095,0.0516 -0.101563,0.0566 l 0.9375,1.99219 c 0.122134,-0.0574 0.21526,-0.11297 0.285157,-0.1543 z m -0.240235,0.12109 -0.09961,0.041 -0.07813,0.0273 0.757813,2.06641 0.105468,-0.0391 0.128906,-0.0508 z m -0.33789,0.12305 -0.08203,0.0254 -0.107422,0.0312 0.621093,2.11133 0.128907,-0.0371 0.101562,-0.0332 z m -0.357422,0.10156 -0.01953,0.006 -0.16211,0.0352 0.464844,2.15039 0.195312,-0.043 0.05273,-0.0137 z m -0.359375,0.0742 -0.06445,0.0117 -0.119141,0.0176 0.320313,2.17578 0.152343,-0.0234 0.09961,-0.0176 z m -0.371094,0.0547 -0.158203,0.0176 -0.03516,0.004 0.210937,2.18945 0.0625,-0.006 0.181641,-0.0215 z m -0.414062,0.043 -0.197266,0.0156 0.167969,2.19336 0.220703,-0.0176 0.02148,-0.002 z m -0.398438,0.0273 -0.146484,0.01 -0.05664,0.002 0.09961,2.19726 0.07031,-0.002 0.164063,-0.01 z m -0.441406,0.0215 -0.1875,0.008 0.07227,2.19726 0.203124,-0.006 0.0293,-0.002 -0.09961,-2.19727 z m -0.398438,0.0137 -0.21875,0.004 0.05078,2.20117 0.220703,-0.006 z m -0.429687,0.008 -0.119141,0.002 h -0.0918 l 0.01563,2.20117 0.101563,-0.002 0.126953,-0.002 z m -0.431641,0.004 -0.220703,0.002 0.01758,2.19922 h 0.21875 z m -3.732422,0.004 v 2.19922 h 0.220704 v -2.19922 z m 0.441407,0 v 2.19922 h 0.21875 v -2.19922 z m 0.439453,0 v 2.19922 h 0.21875 v -2.19922 z m 0.439453,0 v 2.19922 H 86.5625 v -2.19922 z m 0.439453,0 v 2.19922 h 0.220703 v -2.19922 z m 0.441406,0 v 2.19922 h 0.21875 v -2.19922 z m 0.4375,0 0.0039,2.19922 h 0.21875 l -0.002,-2.19922 z m 0.441406,0 0.002,2.19922 h 0.220703 l -0.0039,-2.19922 z"
           id="path2245"
           sodipodi:nodetypes="cccccccccccccccccccccccccccccccccccccccccccccccccccccccccccccccccccccccccccccccccccccccccccccccccccccccccccccccccccccccccccccccccccccccccccccccccccccccccccccccccccccccccccccccccccccccccccccccccccccccccccccccccccccccccccccccccccccccccccccccccccccccccccccccccccccccccccccccccccccccccccccccccccccccccccccccccccccccccccccccccccccccccccccccccccccccccccccccccccccccccccccccccccccccccccccccccc" />
        <path
           sodipodi:nodetypes="cccc"
           id="path2842-2-7"
           d="m 94.266848,249.83183 h -3.522241 l -3.48528,-3.70116 h -1.600891"
           style="fill:none;fill-opacity:1;fill-rule:evenodd;stroke:url(#linearGradient3040-0-7);stroke-width:0.984999;stroke-linecap:butt;stroke-linejoin:miter;stroke-miterlimit:4;stroke-dasharray:none;stroke-opacity:1" />
        <path
           sodipodi:type="spiral"
           style="opacity:0.999;fill:none;fill-rule:evenodd;stroke:#0066ff;stroke-width:1.75092;stroke-linecap:round;stroke-linejoin:round;stroke-miterlimit:3.33333;stroke-dasharray:none;stroke-opacity:1"
           id="path885-39-3-7-7-7-7"
           sodipodi:cx="107.15625"
           sodipodi:cy="146.84375"
           sodipodi:expansion="1"
           sodipodi:revolution="1.2873069"
           sodipodi:radius="6.6200671"
           sodipodi:argument="-8.8843584"
           sodipodi:t0="0.69298846"
           d="m 102.61199,147.47305 c -0.90846,-2.79598 1.02136,-5.67725 3.73861,-6.44705 1.86623,-0.52871 3.90394,-0.0824 5.43699,1.08743"
           transform="matrix(0.81314481,0.55634495,1.5598525,-0.102717,-228.27474,204.17653)" />
        <path
           transform="matrix(0.57636442,0.47554261,1.1056377,-0.08779861,-136.8299,208.0943)"
           d="m 102.59892,147.43218 c -0.88311,-2.80832 1.07599,-5.67545 3.80427,-6.42082 2.07347,-0.56648 4.32307,0.0683 5.88295,1.52308"
           sodipodi:t0="0.68587613"
           sodipodi:argument="-8.8843584"
           sodipodi:radius="6.6996946"
           sodipodi:revolution="1.3027906"
           sodipodi:expansion="1"
           sodipodi:cy="146.84375"
           sodipodi:cx="107.15625"
           id="path885-3-1-6-3-8-1-0"
           style="opacity:0.999;fill:none;fill-rule:evenodd;stroke:#00ccff;stroke-width:2.10749;stroke-linecap:round;stroke-linejoin:miter;stroke-miterlimit:3.33333;stroke-dasharray:none;stroke-opacity:1"
           sodipodi:type="spiral" />
        <path
           sodipodi:type="spiral"
           style="opacity:0.999;fill:none;fill-rule:evenodd;stroke:#2affd5;stroke-width:2.77092;stroke-linecap:round;stroke-linejoin:miter;stroke-miterlimit:3.33333;stroke-dasharray:none;stroke-opacity:1"
           id="path885-3-0-6-4-3-3-3-8"
           sodipodi:cx="107.15625"
           sodipodi:cy="146.84375"
           sodipodi:expansion="1"
           sodipodi:revolution="1.2989242"
           sodipodi:radius="6.6798143"
           sodipodi:argument="-8.8843584"
           sodipodi:t0="0.68914396"
           d="m 102.58512,147.38751 c -0.85537,-2.82149 1.13549,-5.67289 3.87551,-6.39153 2.00299,-0.52533 4.16637,0.0632 5.70441,1.42827"
           transform="matrix(0.43671546,0.36305215,0.83774947,-0.06702968,-82.802567,214.94524)" />
        <path
           style="color:#000000;font-style:normal;font-variant:normal;font-weight:normal;font-stretch:normal;font-size:medium;line-height:normal;font-family:sans-serif;font-variant-ligatures:normal;font-variant-position:normal;font-variant-caps:normal;font-variant-numeric:normal;font-variant-alternates:normal;font-variant-east-asian:normal;font-feature-settings:normal;font-variation-settings:normal;text-indent:0;text-align:start;text-decoration:none;text-decoration-line:none;text-decoration-style:solid;text-decoration-color:#000000;letter-spacing:normal;word-spacing:normal;text-transform:none;writing-mode:lr-tb;direction:ltr;text-orientation:mixed;dominant-baseline:auto;baseline-shift:baseline;text-anchor:start;white-space:normal;shape-padding:0;shape-margin:0;inline-size:0;clip-rule:nonzero;display:inline;overflow:visible;visibility:visible;opacity:0.999;isolation:auto;mix-blend-mode:normal;color-interpolation:sRGB;color-interpolation-filters:linearRGB;solid-color:#000000;solid-opacity:1;vector-effect:none;fill:#808080;fill-opacity:1;fill-rule:evenodd;stroke:none;stroke-width:2.2;stroke-linecap:round;stroke-linejoin:round;stroke-miterlimit:4;stroke-dasharray:none;stroke-dashoffset:0;stroke-opacity:1;color-rendering:auto;image-rendering:auto;shape-rendering:auto;text-rendering:auto;enable-background:accumulate;stop-color:#000000;stop-opacity:1"
           d="m 83.683594,233.76367 c -0.607209,2.2e-4 -1.099395,-0.21463 -1.09961,0.39258 0,0.75536 1e-5,1.37479 0,2.5 0,0.11146 -0.354671,1.11269 -1.064453,2.2168 -0.709782,1.1041 -1.691406,2.41536 -2.683593,3.73828 -0.992188,1.32291 -1.994939,2.65814 -2.773438,3.86914 -0.778499,1.211 -1.416016,2.19479 -1.416016,3.40625 0,0.72181 0.03928,1.45693 0.513672,2.12109 0.474393,0.66416 1.206228,0.99655 2.103516,1.25196 1.412698,0.4021 3.111521,0.37109 5.097656,0.37109 h 2.646484 c 0.607209,-2.2e-4 1.099395,-0.4924 1.09961,-1.09961 -2.15e-4,-0.60721 -0.492401,-1.09939 -1.09961,-1.09961 h -2.646484 c -1.982624,0 -3.616318,-0.0392 -4.49414,-0.28906 -0.703979,-0.20038 -0.881221,-0.36535 -0.916016,-0.41406 -0.0348,-0.0487 -0.105469,-0.24069 -0.105469,-0.8418 0,-0.11146 0.356624,-1.11269 1.066406,-2.2168 0.709782,-1.1041 1.691407,-2.41536 2.683594,-3.73828 0.992188,-1.32292 1.994938,-2.65814 2.773438,-3.86914 0.778499,-1.211 1.414062,-2.19479 1.414062,-3.40625 1e-5,-1.12523 0,-1.03763 0,-1.79297 -2.15e-4,-0.60721 -0.910286,-0.44245 -1.099609,-1.09961 z"
           id="path2237"
           sodipodi:nodetypes="ccsssssssscccsssssssscc" />
        <path
           style="fill:none;fill-rule:evenodd;stroke:#00ccff;stroke-width:0.995;stroke-linecap:butt;stroke-linejoin:miter;stroke-miterlimit:4;stroke-dasharray:none;stroke-opacity:1"
           d="m 85.556117,248.97498 1.70029,0.002 3.48836,3.48837"
           id="path1568-0-0-3-6"
           sodipodi:nodetypes="ccc" />
        <path
           style="fill:none;fill-rule:evenodd;stroke:#2affd5;stroke-width:1.03;stroke-linecap:butt;stroke-linejoin:miter;stroke-miterlimit:4;stroke-dasharray:none;stroke-opacity:1"
           d="m 84.285547,242.30966 h 2.97086 l 1.3408,-1.34081"
           id="path1572-1-9-4-8" />
        <path
           style="fill:none;fill-rule:evenodd;stroke:#00ccff;stroke-width:1;stroke-linecap:butt;stroke-linejoin:miter;stroke-miterlimit:4;stroke-dasharray:none;stroke-opacity:1"
           d="m 84.285547,243.93135 h 2.97086 l 1.20161,1.21039 h 3.23021"
           id="path1580-1-7-3-4"
           sodipodi:nodetypes="cccc" />
        <ellipse
           ry="0.81181413"
           rx="1.7698905"
           cy="234.07028"
           cx="85.00724"
           id="path2496-3-7"
           style="opacity:0.999;fill:none;fill-opacity:0.994624;fill-rule:evenodd;stroke:#808080;stroke-width:1.30447;stroke-miterlimit:4;stroke-dasharray:none;stroke-dashoffset:0" />
        <circle
           r="1.1494248"
           cy="249.88588"
           cx="94.267509"
           id="path5688-2-0"
           style="opacity:0.999;fill:#0066ff;fill-opacity:1;fill-rule:evenodd;stroke:none;stroke-width:1;stroke-linecap:round;stroke-miterlimit:4;stroke-dasharray:none;stroke-dashoffset:0" />
        <circle
           style="opacity:0.999;fill:#00ccff;fill-opacity:1;fill-rule:evenodd;stroke:none;stroke-width:1;stroke-linecap:round;stroke-miterlimit:4;stroke-dasharray:none;stroke-dashoffset:0"
           id="path5688-2-2-7"
           cx="90.744621"
           cy="252.46519"
           r="1.1494248" />
        <circle
           style="opacity:0.999;fill:#00ccff;fill-opacity:1;fill-rule:evenodd;stroke:none;stroke-width:1;stroke-linecap:round;stroke-miterlimit:4;stroke-dasharray:none;stroke-dashoffset:0"
           id="path5688-2-26-6"
           cx="91.688225"
           cy="245.14174"
           r="1.1494248" />
        <circle
           r="1.1494248"
           style="opacity:0.999;fill:#2affd5;fill-opacity:1;fill-rule:evenodd;stroke:none;stroke-width:1;stroke-linecap:round;stroke-miterlimit:4;stroke-dasharray:none;stroke-dashoffset:0"
           id="path5688-2-3-3"
           cx="88.597214"
           cy="240.96886" />
      </g>
    </g>
  </g>
</svg>
