<?xml version="1.0" encoding="UTF-8" standalone="no"?>
<!-- Created with Inkscape (http://www.inkscape.org/) -->

<svg
   xmlns:dc="http://purl.org/dc/elements/1.1/"
   xmlns:cc="http://creativecommons.org/ns#"
   xmlns:rdf="http://www.w3.org/1999/02/22-rdf-syntax-ns#"
   xmlns:svg="http://www.w3.org/2000/svg"
   xmlns="http://www.w3.org/2000/svg"
   xmlns:sodipodi="http://sodipodi.sourceforge.net/DTD/sodipodi-0.dtd"
   xmlns:inkscape="http://www.inkscape.org/namespaces/inkscape"
   id="svg8"
   version="1.1"
   viewBox="0 0 152.22191 152.17981"
   height="152.17981mm"
   width="152.22191mm"
   inkscape:version="0.92.4 (5da689c313, 2019-01-14)"
   sodipodi:docname="Sine.svg">
  <defs
     id="defs2" />
  <sodipodi:namedview
     id="base"
     pagecolor="#ffffff"
     bordercolor="#666666"
     borderopacity="1.0"
     inkscape:pageopacity="0.0"
     inkscape:pageshadow="2"
     inkscape:zoom="1.4"
     inkscape:cx="268.60395"
     inkscape:cy="305.44904"
     inkscape:document-units="mm"
     inkscape:current-layer="layer1"
     showgrid="false"
     inkscape:window-width="2560"
     inkscape:window-height="1377"
     inkscape:window-x="-8"
     inkscape:window-y="-8"
     inkscape:window-maximized="1"
     fit-margin-top="0"
     fit-margin-left="0"
     fit-margin-right="0"
     fit-margin-bottom="0" />
  <metadata
     id="metadata5">
    <rdf:RDF>
      <cc:Work
         rdf:about="">
        <dc:format>image/svg+xml</dc:format>
        <dc:type
           rdf:resource="http://purl.org/dc/dcmitype/StillImage" />
        <dc:title></dc:title>
      </cc:Work>
    </rdf:RDF>
  </metadata>
  <g
     inkscape:label="Ebene 1"
     inkscape:groupmode="layer"
     id="layer1"
     transform="translate(-34.180023,-50.898202)">
    <path
       id="path864"
       title="sin(x)"
       d="m 39.201969,126.98803 c 0.478681,-1.504 0.957432,-3.00793 1.436113,-4.50886 0.47868,-1.50093 0.957432,-2.99881 1.436113,-4.49069 0.47868,-1.49182 0.957432,-2.97765 1.436184,-4.45437 0.47868,-1.47686 0.957432,-2.94452 1.436113,-4.4003 0.47868,-1.45577 0.957503,-2.89951 1.436184,-4.32835 0.47868,-1.42892 0.957432,-2.84281 1.436113,-4.23903 0.47868,-1.396219 0.957432,-2.774709 1.436184,-4.132679 0.47868,-1.35797 0.957361,-2.69536 1.436112,-4.00959 0.478681,-1.31424 0.957433,-2.60525 1.436113,-3.87048 0.478681,-1.26522 0.957504,-2.50452 1.436113,-3.71568 0.478681,-1.21109 0.957504,-2.39383 1.436255,-3.54594 0.478681,-1.15211 0.957362,-2.27345 1.436113,-3.36195 0.478681,-1.0885 0.957433,-2.14395 1.436113,-3.16442 0.478681,-1.02047 0.957437,-2.00583 1.436117,-2.95414 0.47868,-0.94839 0.95743,-1.85959 1.43611,-2.73197 0.47868,-0.87238 0.9575,-1.7058 1.43625,-2.49883 0.47868,-0.79296 0.95744,-1.54517 1.43612,-2.2555 0.47868,-0.71018 0.95743,-1.37841 1.43611,-2.00326 0.47868,-0.62471 0.95743,-1.20603 1.43611,-1.74277 0.47868,-0.53709 0.95744,-1.02888 1.43619,-1.47543 0.47868,-0.44663 0.95743,-0.84752 1.43611,-1.20212 0.47868,-0.35473 0.95743,-0.66246 1.43618,-0.92388 0.47868,-0.26142 0.95744,-0.47512 1.43612,-0.6418 0.47868,-0.16668 0.95743,-0.28564 1.43618,-0.35759 0.47868,-0.0712 0.95736,-0.0954 1.43611,-0.0712 0.47868,0.0214 0.95744,0.0954 1.43612,0.21512 0.47868,0.11896 0.95743,0.28636 1.43618,0.50005 0.47868,0.2137 0.95743,0.47512 1.43618,0.78334 0.47869,0.30773 0.95737,0.66318 1.43612,1.06357 0.47868,0.40033 0.95743,0.8476 1.43611,1.33945 0.47868,0.49222 0.95743,1.02895 1.43611,1.60992 0.47868,0.58126 0.95751,1.20618 1.43612,1.87398 0.47868,0.66745 0.95743,1.37856 1.43625,2.13048 0.47868,0.75193 0.95736,1.54532 1.43611,2.37838 0.47868,0.83299 0.95744,1.70587 1.43612,2.61664 0.47868,0.91078 0.95743,1.85966 1.43611,2.84452 0.47868,0.98478 0.95743,2.00583 1.43618,3.06078 0.47868,1.05494 0.95736,2.14401 1.43619,3.26485 0.47868,1.12077 0.95743,2.27352 1.43604,3.45569 0.47868,1.18217 0.9575,2.3939 1.43618,3.6327 0.47868,1.23873 0.95744,2.5046 1.43619,3.7949 0.47868,1.29037 0.95736,2.60532 1.43611,3.94206 0.47868,1.33675 0.957431,2.69543 1.436111,4.0732 0.47868,1.37771 0.95744,2.774639 1.43612,4.187959 0.47868,1.41318 0.9575,2.84281 1.43618,4.28583 0.47868,1.44302 0.95743,2.89951 1.43618,4.36653 0.47868,1.46696 0.95744,2.94453 1.43612,4.42958 0.47868,1.48505 0.95743,2.97765 1.43611,4.47481 0.47868,1.49709 0.95743,2.9988 1.43611,4.50195 0.47868,1.50321 0.95751,3.00792 1.43619,4.51113 0.47868,1.50314 0.95743,3.00486 1.43618,4.50202 0.47868,1.49709 0.95743,2.98969 1.43611,4.47481 0.47868,1.48505 0.95744,2.96255 1.43612,4.42958 0.47868,1.46695 0.95743,2.92344 1.43618,4.36646 0.47868,1.44302 0.95736,2.87258 1.43611,4.2859 0.47868,1.41325 0.95751,2.81011 1.43619,4.18796 0.47868,1.37777 0.95743,2.73638 1.43611,4.0732 0.47868,1.33674 0.95743,2.65154 1.43611,3.94199 0.47868,1.29037 0.95744,2.55617 1.43619,3.79497 0.47868,1.2388 0.95743,2.45038 1.43611,3.63263 0.47868,1.18217 0.9575,2.33485 1.43611,3.45568 0.47868,1.12084 0.95751,2.20984 1.43619,3.26486 0.47868,1.05502 0.95743,2.07592 1.43618,3.06078 0.47868,0.98493 0.95736,1.93367 1.43611,2.84452 0.47868,0.91084 0.95744,1.78351 1.43612,2.61664 0.47868,0.83313 0.95743,1.62637 1.43611,2.37837 0.47868,0.752 0.9575,1.46261 1.43626,2.13049 0.47868,0.66816 0.95736,1.29286 1.43611,1.87397 0.47868,0.58126 0.95743,1.11799 1.43611,1.60992 0.47868,0.49222 0.95743,0.9387 1.43611,1.33946 0.47868,0.40103 0.95744,0.75548 1.43612,1.06349 0.47868,0.30773 0.9575,0.56915 1.43618,0.78341 0.47868,0.21441 0.95743,0.38038 1.43618,0.50005 0.47869,0.11896 0.95744,0.19091 1.43612,0.21441 0.47868,0.0214 0.95743,-7e-5 1.43611,-0.0712 0.47868,-0.0712 0.95743,-0.1909 1.43618,-0.35758 0.47869,-0.16669 0.95737,-0.3811 1.43612,-0.64181 0.47868,-0.26142 0.95743,-0.56914 1.43618,-0.92388 0.47868,-0.35474 0.95743,-0.75563 1.43611,-1.20211 0.47868,-0.44663 0.95744,-0.93877 1.43619,-1.47544 0.47868,-0.53638 0.95736,-1.11813 1.43611,-1.74284 0.47868,-0.6247 0.95743,-1.293 1.43611,-2.00319 0.47868,-0.71018 0.95744,-1.46268 1.43612,-2.25557 0.47868,-0.79288 0.95743,-1.62644 1.43625,-2.49882 0.47868,-0.87231 0.95736,-1.78366 1.43612,-2.7319 0.47868,-0.94832 0.95743,-1.93374 1.43611,-2.95422 0.47868,-1.02033 0.95743,-2.07599 1.43611,-3.16434 0.47868,-1.08843 0.95743,-2.20991 1.43611,-3.36202 0.47868,-1.15204 0.95744,-2.33485 1.43626,-3.54594 0.47868,-1.21102 0.95736,-2.45053 1.43604,-3.71569 0.47868,-1.26515 0.9575,-2.55624 1.43618,-3.8704 0.47869,-1.31424 0.95744,-2.65169 1.43612,-4.00966 0.47868,-1.3579 0.95743,-2.73646 1.43618,-4.13261 0.47868,-1.39623 0.95736,-2.81026 1.43611,-4.23903 0.47868,-1.42885 0.95744,-2.87266 1.43612,-4.32843 0.47868,-1.4557 0.9575,-2.92344 1.43618,-4.40023 0.47868,-1.47678 0.95743,-2.96254 1.43619,-4.45443 0.47868,-1.49182 0.95736,-2.98976 1.43611,-4.49062 0.47868,-1.50094 0.95743,-3.00494 1.43611,-4.50886"
       style="opacity:1;fill:none;fill-opacity:1;stroke:#0000ff;stroke-width:10;stroke-linecap:round;stroke-miterlimit:4;stroke-dasharray:none;stroke-dashoffset:0;stroke-opacity:1"
       inkscape:connector-curvature="0" />
  </g>
</svg>
