<?xml version="1.0" encoding="UTF-8" standalone="no"?>
<svg
   xmlns:dc="http://purl.org/dc/elements/1.1/"
   xmlns:cc="http://creativecommons.org/ns#"
   xmlns:rdf="http://www.w3.org/1999/02/22-rdf-syntax-ns#"
   xmlns:svg="http://www.w3.org/2000/svg"
   xmlns="http://www.w3.org/2000/svg"
   xmlns:xlink="http://www.w3.org/1999/xlink"
   xmlns:sodipodi="http://sodipodi.sourceforge.net/DTD/sodipodi-0.dtd"
   xmlns:inkscape="http://www.inkscape.org/namespaces/inkscape"
   inkscape:version="1.0 (4035a4fb49, 2020-05-01)"
   sodipodi:docname="System-zoom-in.svg"
   id="svg63"
   version="1.1"
   height="48"
   width="48">
  <metadata
     id="metadata67">
    <rdf:RDF>
      <cc:Work
         rdf:about="">
        <dc:format>image/svg+xml</dc:format>
        <dc:type
           rdf:resource="http://purl.org/dc/dcmitype/StillImage" />
        <dc:title></dc:title>
      </cc:Work>
    </rdf:RDF>
  </metadata>
  <sodipodi:namedview
     inkscape:current-layer="svg63"
     inkscape:window-maximized="1"
     inkscape:window-y="14"
     inkscape:window-x="-8"
     inkscape:cy="28.749805"
     inkscape:cx="12.712106"
     inkscape:zoom="8.5416667"
     showgrid="false"
     id="namedview65"
     inkscape:window-height="987"
     inkscape:window-width="1680"
     inkscape:pageshadow="2"
     inkscape:pageopacity="0"
     guidetolerance="10"
     gridtolerance="10"
     objecttolerance="10"
     borderopacity="1"
     bordercolor="#666666"
     pagecolor="#ffffff" />
  <defs
     id="defs41">
    <linearGradient
       x1="27.01"
       y1="23.35"
       x2="31.3"
       gradientUnits="userSpaceOnUse"
       y2="30.6"
       id="k">
      <stop
         id="stop2"
         offset="0"
         stop-color="#8a8a8a" />
      <stop
         id="stop4"
         offset="1"
         stop-color="#484848" />
    </linearGradient>
    <linearGradient
       x1="-146.9"
       y1="52.71"
       gradientTransform="matrix(1.335 0 0-1.291 229.6 104.1)"
       x2="-144.3"
       gradientUnits="userSpaceOnUse"
       y2="55.65"
       id="SVGID_3_">
      <stop
         id="stop7"
         offset="0"
         stop-color="#7d7d7d" />
      <stop
         id="stop9"
         offset=".5"
         stop-color="#b1b1b1" />
      <stop
         id="stop11"
         offset="1"
         stop-color="#686868" />
    </linearGradient>
    <linearGradient
       x1="18.81"
       y1="10.73"
       x2="17.83"
       gradientUnits="userSpaceOnUse"
       y2="25.86"
       id="c">
      <stop
         id="stop14"
         offset="0"
         stop-color="#fff" />
      <stop
         id="stop16"
         offset=".5"
         stop-opacity=".22"
         stop-color="#fff" />
      <stop
         id="stop18"
         offset="1"
         stop-color="#fff" />
    </linearGradient>
    <radialGradient
       r="8.31"
       gradientTransform="matrix(1.399 0 0-1.399 259.5 136.2)"
       cx="-171.7"
       cy="81.5"
       gradientUnits="userSpaceOnUse"
       id="r">
      <stop
         id="stop21"
         offset="0"
         stop-opacity=".21"
         stop-color="#729fcf" />
      <stop
         id="stop23"
         offset="1"
         stop-opacity=".68"
         stop-color="#729fcf" />
    </radialGradient>
    <radialGradient
       r="16.53"
       gradientTransform="matrix(1.446 0 0-.362 276.2-145.1)"
       cx="-174.5"
       cy="-511.6"
       gradientUnits="userSpaceOnUse"
       id="b">
      <stop
         id="stop26"
         offset="0" />
      <stop
         id="stop28"
         offset="1"
         stop-opacity="0" />
    </radialGradient>
    <radialGradient
       r="6.66"
       gradientTransform="matrix(2.593 0 0-2.252 784.6 385.3)"
       cx="-296.8"
       cy="166.4"
       gradientUnits="userSpaceOnUse"
       id="g">
      <stop
         id="stop31"
         offset="0"
         stop-color="#fff" />
      <stop
         id="stop33"
         offset="1"
         stop-opacity=".25"
         stop-color="#fff" />
    </radialGradient>
    <radialGradient
       r="16.53"
       gradientTransform="matrix(.498 0 0-.145-135.8-204.1)"
       cx="314.9"
       cy="-1674"
       gradientUnits="userSpaceOnUse"
       id="s">
      <stop
         id="stop36"
         offset="0"
         stop-color="#fff" />
      <stop
         id="stop38"
         offset="1"
         stop-opacity="0"
         stop-color="#fff" />
    </radialGradient>
    <linearGradient
       id="linearGradient1322">
      <stop
         id="stop1324"
         offset="0.0000000"
         style="stop-color:#729fcf" />
      <stop
         id="stop1326"
         offset="1.0000000"
         style="stop-color:#5187d6;stop-opacity:1.0000000;" />
    </linearGradient>
    <linearGradient
       id="linearGradient7916">
      <stop
         style="stop-color:#ffffff;stop-opacity:1;"
         offset="0"
         id="stop7918" />
      <stop
         style="stop-color:#ffffff;stop-opacity:0.34020618;"
         offset="1.0000000"
         id="stop7920" />
    </linearGradient>
    <linearGradient
       inkscape:collect="always"
       xlink:href="#linearGradient1322"
       id="linearGradient4975-6"
       x1="34.892849"
       y1="36.422989"
       x2="45.918697"
       y2="48.547989"
       gradientUnits="userSpaceOnUse"
       gradientTransform="translate(-17.664296,-9.85888)" />
    <linearGradient
       inkscape:collect="always"
       xlink:href="#linearGradient7916"
       id="linearGradient7922-1"
       x1="16.874998"
       y1="22.851799"
       x2="27.900846"
       y2="34.976799"
       gradientUnits="userSpaceOnUse"
       gradientTransform="translate(0.35355342,3.7123106)" />
  </defs>
  <ellipse
     id="ellipse43"
     fill="url(#b)"
     cx="23.92"
     cy="39.96"
     ry="5.98"
     rx="23.9"
     opacity=".17" />
  <g
     id="g49"
     fill="#dcdcdc">
    <path
       id="path45"
       stroke-width="2"
       stroke-linecap="round"
       stroke="url(#k)"
       d="m18.63 3.14c-8.14 0-14.75 6.61-14.75 14.75s6.61 14.74 14.75 14.74c3.48 0 6.55-1.38 9.1-3.4-0.2 1-0.08 2.04 0.76 2.76l10.96 9.53c1.23 1.07 3.09 0.93 4.16-0.3 1.07-1.24 0.93-3.09-0.3-4.16l-10.97-9.53c-0.67-0.58-1.49-0.76-2.3-0.64 1.98-2.52 3.36-5.55 3.36-9 0-8.14-6.6-14.75-14.74-14.75zm-0.08 1.23c7.64 0 13.29 4.79 13.29 13.29 0 8.68-5.81 13.29-13.29 13.29-7.3 0-13.29-5.47-13.29-13.29 0-7.98 5.82-13.29 13.29-13.29z" />
    <path
       id="path47"
       d="m18.6 3.08c-8.16 0-14.79 6.63-14.79 14.79 0 8.17 6.63 14.8 14.79 14.8 3.49 0 6.58-1.39 9.11-3.42-0.21 1-0.08 2.04 0.75 2.77l11 9.56c1.24 1.07 3.1 0.93 4.18-0.3 1.07-1.24 0.93-3.1-0.31-4.18l-11-9.56c-0.67-0.58-1.49-0.75-2.31-0.64 1.99-2.52 3.38-5.57 3.38-9 0-8.16-6.63-14.79-14.8-14.79m-0.07 3.19c6.28 0 11.38 5.09 11.38 11.38 0 6.28-5.1 11.37-11.38 11.37s-11.38-5.09-11.38-11.37c0-6.29 5.1-11.38 11.38-11.38" />
  </g>
  <path
     id="path51"
     fill="url(#SVGID_3_)"
     d="m39.51 41.58c-0.48-2.28 1.39-4.81 3.58-4.79l-10.76-9.26c-2.94-0.06-4.27 2.27-3.78 4.6l10.96 9.45" />
  <circle
     id="circle53"
     fill="none"
     r="13.77"
     cx="18.38"
     stroke="url(#c)"
     cy="17.4" />
  <ellipse
     id="ellipse55"
     fill="url(#s)"
     cx="20.99"
     cy="38.77"
     ry="2.4"
     rx="8.23" />
  <circle
     id="circle57"
     fill="url(#r)"
     r="11.62"
     cx="18.38"
     stroke="#3063a3"
     cy="17.55" />
  <path
     id="path59"
     fill="url(#g)"
     d="m18.2 7.4c-5.21 0-9.43 4.21-9.43 9.42 0 1.51 0.42 2.89 1.05 4.15 1.25 0.46 2.58 0.78 3.99 0.78 6.18 0 11.1-4.86 11.48-10.94-1.73-2.05-4.21-3.41-7.09-3.41"
     opacity=".83" />
  <rect
     id="rect61"
     fill="none"
     x="40.5"
     y="-.13"
     stroke="#fff"
     width="19"
     height="5"
     transform="matrix(.7530 .6580 -.6489 .7609 0 0)"
     rx="2.468"
     opacity="0.43" />
  <g
     id="g933"
     transform="matrix(0.58691629,0,0,0.58691629,4.0960335,0.97299671)">
    <path
       sodipodi:nodetypes="ccccccccccccc"
       id="text1314-9"
       d="m 27.86791,41.254992 v -9.02696 l 9.978464,-0.04018 v -6.995324 h -9.969535 l -0.0089,-9.96017 -7.016274,0.01116 0.0045,9.931152 -9.989626,0.07366 -0.03571,6.968539 10.034269,-0.02902 0.0067,9.040353 z"
       style="font-style:normal;font-variant:normal;font-weight:bold;font-stretch:normal;font-size:59.9011px;line-height:125%;font-family:'Bitstream Vera Sans';text-align:start;writing-mode:lr-tb;text-anchor:start;fill:#75a1d0;fill-opacity:1;stroke:#3465a4;stroke-width:1px;stroke-linecap:butt;stroke-linejoin:miter;stroke-opacity:1" />
    <path
       sodipodi:nodetypes="ccccccccccccc"
       id="path7076-4"
       d="m 26.852256,40.24623 v -9.034182 h 10.002602 l -0.0067,-5.024429 h -9.986974 v -9.994974 l -4.994834,0.01786 0.0089,9.977116 -10.026189,0.01786 -0.02679,4.97309 10.064393,0.0089 -0.01339,9.027485 z"
       style="font-style:normal;font-variant:normal;font-weight:bold;font-stretch:normal;font-size:59.9011px;line-height:125%;font-family:'Bitstream Vera Sans';text-align:start;writing-mode:lr-tb;text-anchor:start;opacity:0.408602;fill:url(#linearGradient4975-6);fill-opacity:1;stroke:url(#linearGradient7922-1);stroke-width:1px;stroke-linecap:butt;stroke-linejoin:miter;stroke-opacity:1" />
    <path
       sodipodi:nodetypes="ccccccccc"
       id="path7914-2"
       d="m 11.353554,28.71231 c 0,1.9375 25.984375,-0.96875 25.984375,-0.03125 v -3 l -9.984375,0.03125 v -9.965228 h -6 v 9.965228 h -10 z"
       style="opacity:0.311828;fill:#ffffff;fill-opacity:1;fill-rule:evenodd;stroke:none;stroke-width:1px;stroke-linecap:butt;stroke-linejoin:miter;stroke-opacity:1" />
  </g>
</svg>
